<?xml version="1.0" encoding="UTF-8"?>
<svg id="Layer_2" data-name="Layer 2" xmlns="http://www.w3.org/2000/svg" viewBox="0 0 90.47 100.95">
  <defs>
    <style>
      .cls-1 {
        fill: #aee5e2;
      }

      .cls-2 {
        fill: #0d0d0d;
      }

      .cls-3 {
        fill: #ffcae0;
      }

      .cls-4 {
        fill: #ffe46b;
      }
    </style>
  </defs>
  <g id="OBJECTS">
    <g>
      <path class="cls-3" d="M2.61,4.59c-5.79,3.9-.86,86.7,4.45,91.11,5.3,4.41,72.46,2.94,75.11-2.73S91.88,3.62,86.13,1.86C80.39.09,12.74-2.24,2.61,4.59Z"/>
      <path class="cls-2" d="M36.59,100.95h0c-5.8,0-24.96-.19-27.91-2.65-2.81-2.34-4.81-23.02-5.53-31.8C1.71,49.22,1.16,30.69,1.74,19.3c.57-11.31,2.04-12.3,2.52-12.62C10.25,2.65,34.97,2.04,49.17,2.04c18.46,0,36.06,1.01,38.88,1.87.39.12.72.49,1,1.12,4.26,9.6-2.21,84.93-4.79,90.43-1.87,4-30.23,5.49-47.67,5.49ZM49.17,2.67C25.12,2.67,8.88,4.32,4.6,7.21c-.63.42-1.75,2.56-2.24,12.13-1.19,23.48,2.69,75.13,6.71,78.48,1.86,1.54,12.4,2.5,27.51,2.5h0c21.59,0,45.67-2.06,47.1-5.12,1.22-2.61,3.46-22.5,4.88-43.44,1.71-25.11,1.67-42.48-.1-46.47-.19-.44-.41-.71-.61-.77-2.78-.85-20.28-1.84-38.69-1.84Z"/>
      <g>
        <g>
          <path class="cls-2" d="M30.44,50.9c-1.41-.05-3.06-.45-4.43.02-1.81.63-1.78,3.24.31,3.48,0,0,0,0-.01,0,1.23.12,3.39.07,4.63.02.07.89.47,17.42-1.24,21.73-1.28,3.22-3.57,1.61-4.03-2.18-.03-.36-.05-.73-.05-1.1,0-.14,0-.29,0-.43.01-.39.05-.77-.09-1.14-.56-1.5-2.57-1.58-3.28-.19-.16.31-.2.66-.23,1.01-.02.34-.03.68-.01,1.02.02.38.05.77.1,1.15.03.41.08.82.14,1.22.88,5.76,5.17,7.29,8.29,5.83.71-.33,1.18-.67,1.73-1.4.44-.58.8-1.25,1.05-1.93,1.6-4.3,1.3-22.13,1.21-23.51.41,0,.82.02,1.24.03.39,0,1.27.14,1.92-.53.33-.34.52-.81.51-1.28-.04-2.38-2.75-1.63-7.75-1.81Z"/>
          <path class="cls-2" d="M40.43,59.32c-.83,6.14-1.53,13.06,1.76,18.64,3.59,6.08,11.36,6.86,12.96-8.85.17-1.69.27-6.69-.03-9.07-1.68-13.51-13.08-12.6-14.69-.73ZM46.33,77.6c-3.8-4.14-3.08-11.96-2.43-17.44,1.04-7.51,6.08-9.56,7.67.13.87,7.18-.91,21.4-5.24,17.31Z"/>
          <path class="cls-2" d="M73.33,72.76c-1.56-1.95-5.41-3.75-10.9-3.01.01-1.75.12-2.72.23-7.37,6.55-.19,9.61-3.82,9.24-6.98-.04-.36-.11-.71-.22-1.05-.67-2.15-2.51-3.24-4.59-3.74-8.54-2.03-7.76.54-7.85,5.11-.73,8.85-.2,24.95-.18,25.25.05.83.72,1.5,1.52,1.62,1.04.65,8.42-.19,10.16-.85.51-.2,1.04-.41,1.48-.75.33-.26.65-.53.93-.85.43-.5.8-1.05,1.02-1.68.22-.63.34-1.29.37-1.96,0-.06,0-.11,0-.17,0-1.45-.46-2.62-1.21-3.56ZM68.1,54.66c.17.23.19.27.28.47.08.21.09.24.13.51.02.2.02.21,0,.34-.07.42-.11.78-.49,1.2-.9.82-2.61,1.63-5.32,1.78.02-2.06.05-4.09-.09-6.07,2.56.29,4.44.54,5.48,1.77ZM70.45,77.92c-1.33,1.38-4.17,1.18-5.92,1.33-.65.06-1.28.11-1.93.12-.06-4.53-.05-3.65-.12-6.6,2.9.21,4.99-.21,6.71,1.05,1.12.83,2.45,2.85,1.26,4.09Z"/>
        </g>
        <g>
          <path class="cls-2" d="M20.58,34.88c-.12-.35-.07-.3-.39-.05-1.37,1.1-3.28,3.04-4.7,5.05-3.85,5.42-2.83,9.38-.65,10.01,4.18.98,8.41-6.91,5.74-15ZM30.6,29.48c.51-.14-4.38,1-9.14,4.39,4.84,11.7-5.75,22.22-9.18,15.28-2.48-5.03,3.28-12.24,7.69-15.66-.46-.91-1.05-1.81-1.76-2.54-.15-.14.02-.2-.85.97-.66.88-1.02,1.13-1.31,1.36.32-.27-2.71,2.18-5.39.05-.66-.53-1.03-1.31-1.2-2.15-1.32-6.42,9.51-12.26,12.23-5.59.34.85.64,2.29-.23,2.24-.4,0-.46-.35-.51-.69-1.04-6.09-10.21-2.85-10.39,3.18.06,2.81,2.95,3.44,4.98,1.86,1.83-1.59,1.85-4.16,3.95-1.59.64.78,1.01,1.38,1.45,2.18,3.02-2.14,6.94-3.86,9.87-4.58.35-.08.72.2.72.58,0,.53-.49.58-.93.7Z"/>
          <path class="cls-2" d="M38.04,33.24c-2.45-.1-5.43-.89-7.31-2.4-2.93,7.77,4.86,9.36,7.31,2.4ZM30.34,28.64c.27.44.07.13.57-.19.86-.54,1.33.61.64.89-.09.11-.2.28-.27.4.63.54,1.23.85,1.94,1.2,1.84.76,3.31,1.07,5.18,1.11,3.11-13.94-11.76-9.91-8.07-3.41ZM44.99,32.12c-1.55.63-3.54,1.07-5.68,1.12-.83,2.76-2.89,5.25-5.62,5.59-4.5.55-5.9-4.6-3.84-8.85-.57-.67-.97-1.41-1.15-2.43-1.42-7.9,14.22-9.57,10.93,4.49.6-.03.91-.06,1.56-.14,2.42-.38,3.49-.89,5.86-2.01.4-.19.86.09.86.52,0,.35.02.52-2.91,1.7Z"/>
          <path class="cls-2" d="M55.97,29.42c-.04-1.8.01-6.29-4.14-6.86-3.74-.36-7.87,6.93,4.14,6.86ZM63.78,29.06c-.52.17-.95.29-1.46.43.3-.08-2.98.93-5.21,1.07-.61,8.07-5.48,10.47-8.74,9.26-2.81-1.05-4.46-5.2-2.05-8.95,1.39-2.13,2.36-.44,1.49-.15-.08.07-.17.18-.23.26-.79,1.06-1.24,2.25-1.26,3.57.12,6.31,8.64,6.49,9.59-3.94-16.88.13-6.38-14.61-.29-7.15,1.31,1.61,1.47,3.67,1.52,5.91,1.91-.17,4.52-.88,6.23-1.43.78-.25,1.11.89.4,1.12Z"/>
          <path class="cls-2" d="M69.53,29.86c-.17-.07-.31-.21-.33-.4,0,.04-.02-.12,0-.03-.03-.31.05-.71-.31-1.35-.5-.78-1.39-1.22-2.13-1.23-4.65.19-3.86,11.91.88,8.31.89-.72,2.14-2.28,1.87-2.01-.08-1.07-.04-2.26.03-3.29ZM75.54,17s-.04-.11-.05-.14c-.03-.07-.05-.09-.05-.09.02.04.03.05-.02-.02-.04-.04-.02-.02-.06-.06-.04-.03-.05-.03-.05-.03,0,0,.01,0,0,0-.04-.01-.04-.02-.08-.02-.06,0-.06,0-.14,0-.03,0-.06.01-.09.02-.04.01-.08.03-.12.04-.07.03-.13.06-.19.1-.06.04-.13.09-.19.13-.1.08-.2.17-.29.26-.12.13-.23.26-.34.4-2.18,2.9-3.16,10.24-3.23,13.86,4.98-7.94,4.89-14.45,4.89-14.45ZM76.72,37.93c-2.23,1.87-5.98,1-6.91-2.76-.19-.77.17-.38-1.44.91-5.6,4.45-8.08-6.6-3.63-9.74,1.95-1.38,4.14-.37,5.05,1.01.42-3.17,1.19-7.9,3.13-10.45.45-.58,1.09-1.21,1.81-1.38.78-.18,1.38.08,1.79.77.28.48.22,1.15.19,1.67-.02.36-.27,2.53-.83,4.43-1.17,3.97-2.78,7.72-5.15,11.07.22,2.22.83,3.58,2.7,4.13,1.11.29,1.97,0,2.8-.81,1.7-1.75,1.3-3.62,2.3-3.42,1.37.27-.77,3.7-1.81,4.57Z"/>
        </g>
      </g>
      <path class="cls-4" d="M11.93,71.46c-.41-.68-1.25-.93-1.94-.52-.85.51-.85,1.77,0,2.27.7.41,1.54.16,1.94-.52.22-.37.22-.86,0-1.24Z"/>
      <path class="cls-4" d="M19.31,86.21c-1.39,0-2.56,1.16-2.56,2.56s1.16,2.56,2.56,2.56,2.56-1.16,2.56-2.56-1.16-2.56-2.56-2.56Z"/>
      <path class="cls-4" d="M46.91,87.91s0-.05-.01-.07h0s0-.01,0-.03c-.03-.17-.08-.33-.19-.47-.11-.19-.26-.34-.45-.45-.2-.11-.41-.17-.64-.17-.43,0-.89.24-1.09.63-.23.44-.27.94-.01,1.38.13.22.36.45.6.56.19.11.4.17.62.17.33,0,.64-.13.87-.36.15-.15.26-.34.32-.55.06-.23.05-.43,0-.63Z"/>
      <path class="cls-4" d="M59.31,88.53c-1.16,0-2.13.97-2.13,2.13s.97,2.13,2.13,2.13,2.13-.97,2.13-2.13-.97-2.13-2.13-2.13Z"/>
      <path class="cls-4" d="M82.6,60.07c-.16-.27-.38-.49-.65-.65-.34-.2-.84-.32-1.25-.23-.92.1-1.7.89-1.7,1.87,0,.66.36,1.29.93,1.62.29.17.61.26.95.26.34,0,.66-.09.95-.26.29-.14.63-.49.77-.77.16-.28.25-.59.25-.92,0-.33-.08-.64-.25-.92Z"/>
      <path class="cls-4" d="M39.47,41.22c-1.48,0-1.48,2.29,0,2.29s1.48-2.29,0-2.29Z"/>
      <path class="cls-4" d="M73.95,42.42c-.98,0-1.8.82-1.8,1.8s.82,1.8,1.8,1.8,1.8-.82,1.8-1.8-.82-1.8-1.8-1.8Z"/>
      <path class="cls-4" d="M66.07,15.22c-.08-.25-.11-.48-.32-.68-.02-.02-.03-.03-.04-.05,0,0-.01-.02-.02-.02-.01-.02-.02-.03-.04-.05-.15-.15-.45-.28-.67-.2-.22.09-.35.18-.49.38-.03.05-.06.1-.09.15-.2.4-.1.77.1,1.14.18.34.61.49.97.4.44-.12.74-.61.6-1.06Z"/>
      <path class="cls-4" d="M85.31,9.08c-.09-.32-.25-.61-.49-.84-.37-.37-.84-.53-1.35-.56-.36-.02-.71.1-1.02.27-.42.24-.74.66-.86,1.12-.17.61-.01,1.4.48,1.83.3.26.61.46.97.55,0,0,0,0,.01,0,.03,0,.06.01.09.02.13.03.25.04.39.04.34,0,.65-.09.94-.25.28-.17.5-.39.67-.67.17-.29.25-.6.25-.94.02-.19,0-.4-.08-.58Z"/>
      <path class="cls-4" d="M13.22,11.09c-.11-.06-.22-.1-.34-.14-.2-.07-.4-.03-.6,0-.44.08-.75.56-.75.98s.31.91.75.98c.2.04.4.08.6,0,.12-.04.23-.09.34-.14.64-.32.64-1.38,0-1.7Z"/>
      <path class="cls-4" d="M23.25,16.74c-2.33,0-2.33,3.62,0,3.62s2.33-3.62,0-3.62Z"/>
      <path class="cls-4" d="M38.52,9.09c-1.29,0-2.37,1.08-2.37,2.37s1.08,2.37,2.37,2.37,2.37-1.08,2.37-2.37-1.08-2.37-2.37-2.37Z"/>
      <path class="cls-1" d="M11.43,17.08c-.2-.16-.31-.26-.56-.33-.25-.07-.44-.03-.7,0-.52.09-.88.67-.88,1.16s.36,1.07.88,1.16c.25.04.44.08.7,0,.25-.07.36-.17.56-.33.47-.38.47-1.3,0-1.68Z"/>
      <path class="cls-1" d="M54.74,8.18c-1.11,0-2.03.92-2.03,2.03s.92,2.03,2.03,2.03,2.03-.92,2.03-2.03-.92-2.03-2.03-2.03Z"/>
      <path class="cls-1" d="M81.98,42.32c-.86,0-1.57.72-1.57,1.57s.72,1.57,1.57,1.57,1.57-.72,1.57-1.57-.72-1.57-1.57-1.57Z"/>
      <path class="cls-1" d="M74.74,86.93c-.92,0-1.69.77-1.69,1.69s.77,1.69,1.69,1.69,1.69-.77,1.69-1.69-.77-1.69-1.69-1.69Z"/>
      <path class="cls-1" d="M35.12,90.28c-.18-.18-.44-.29-.7-.29s-.51.1-.7.29c-.2.2-.26.42-.29.7-.04.34.08.64.31.9.33.37,1.02.37,1.35,0,.22-.25.35-.56.31-.9-.03-.27-.09-.5-.29-.7Z"/>
      <path class="cls-1" d="M11.76,56.65c-.86,0-1.57.72-1.57,1.57s.72,1.57,1.57,1.57,1.57-.72,1.57-1.57-.72-1.57-1.57-1.57Z"/>
      <path class="cls-1" d="M26.82,8.11c-.28.08-.5.3-.58.58-.14.52.26,1.05.8,1.05.2-.08.39-.17.59-.25.04-.05.08-.1.12-.15l-.93-1.22Z"/>
    </g>
  </g>
</svg>