<?xml version="1.0" encoding="UTF-8"?>
<svg id="Layer_2" data-name="Layer 2" xmlns="http://www.w3.org/2000/svg" viewBox="0 0 129.74 68.57">
  <defs>
    <style>
      .cls-1 {
        fill: #aee5e2;
      }

      .cls-2 {
        fill: #0d0d0d;
      }

      .cls-3 {
        fill: #656a92;
      }

      .cls-4 {
        fill: #ffe46b;
      }
    </style>
  </defs>
  <g id="OBJECTS">
    <g>
      <g>
        <path class="cls-3" d="M5.33,33.82c.13.11.28.23.14.12-.05-.04-.1-.08-.14-.12Z"/>
        <path class="cls-3" d="M123.84,1.86c-1.79-1.96-7.03-1.56-9.34-1.68-6.45-.32-12.93-.15-19.38.04-15.61.48-31.18,1.55-46.75,2.66-5.62.4-11.24.8-16.86,1.19-2.8.2-4.6-.09-6,1.95-3.5,5.1-4.64,14.12-6.9,19.89-2.55-.14-13.21-.45-12.71-.43-2.52-.07-5.51-.58-5.87,1.91-.42,2.86,4.01,4.37,13.34,13.83-7.27,23.29-6.49,23.12-6.22,23.73.48,1.07,1.84,1.47,2.82.86.57-.36,1.01-.89,1.44-1.4,4.36-5.1,1.1-1.88,11.57-12.65,4.01,4.84,7.75,8.24,11.58,11.39,3.92,3.22,10.13,2.66,14.91,2.94,6.46.38,12.91.83,19.38,1.16,14.51.73,29.06,1.54,43.59,1.27,3.9-.07,9.47.47,13.09-1.37,7.86-3.99,3.16-59.94-1.7-65.29Z"/>
      </g>
      <path class="cls-1" d="M25.18,16.11s18.18-2.6,54.08-3.86c35.9-1.26,38.73-.55,41.57,1.93,2.83,2.48,5.7,42.15,3.01,43.73-2.69,1.57-90.89-3.17-92.27-4.24-1.38-1.07-6.39-37.56-6.39-37.56Z"/>
      <g>
        <path class="cls-4" d="M12.06,34.4s-.06-.05-.09-.08c.08.07.17.15.09.08Z"/>
        <path class="cls-4" d="M28.77,29.74c-1.67-8.36-.97-15.26-3.59-13.63-.92.57-1.41,4.3-4.94,13.28-1.59-.08-8.24-.28-7.92-.27-1.57-.05-3.44-.36-3.66,1.19-.26,1.78,2.5,2.72,8.32,8.62-4.53,14.52-4.05,14.41-3.88,14.79.3.67,1.14.92,1.76.53.36-.22.63-.55.9-.87,2.72-3.18.68-1.17,7.22-7.89,2.5,3.02,4.83,5.14,7.22,7.1.45.37.89.75,1.38,1.07,1.21.79,2.63.27,2.52-1.54-.07-1.11-1.42-5.27-3.49-13.84,5.66-4.93,6.67-4.87,6.67-6.16,0-2.21-4.4-2.21-8.5-2.39Z"/>
      </g>
      <g>
        <path class="cls-2" d="M52.89,41.77c-.59,5.93-6.74,8.2-10.08,4.39-.53-.61-1.26-2.02-1.27-2.84-.04-1.63,2.39-1.76,2.51-.11.22,2.9,6.55,3.66,6.33-2.52-.2-5.53-6.07-7.9-7.26-12.07-.47-1.65.2-6.1,3.91-7.81,1.94-.9,5.04-1.18,4.85.61-.17,1.67-3.31,1.22-4.4,1.94-2.96,1.95-2.31,4.77-.34,7.2,2.59,3.19,6.32,5.6,5.76,11.21Z"/>
        <path class="cls-2" d="M62.45,47.8c-1.05.43-2,.29-2.94-.18-5.57-2.74-3.31-23.99-2.57-26.44.64-2.11,2.41-1.05,2.04.02-.17,2.6-.43,6.17-.43,6.35,0,0,0-.02,0-.03,0,.08,0,.08,0,.17,0-.01,0-.02,0-.04,0,.13,0,.27-.01.4,0-.06,0-.11,0-.17-.09,4.18-.36,12.06.92,15.88,1.55,3.64,3.98.15,4.71-3.74.68-4.06.55-6.08.61-8.79.07-3.39.06-1.81.06-9,.03-1.75,2.47-1.64,2.5-.08.35,14.92-.34,23.75-4.88,25.64Z"/>
        <path class="cls-2" d="M73.58,20.03c-1.01.08-2.31.25-3.24.65-.92.41-.99,2.17,1.14,1.89.34-.04.68-.08,1.02-.11-.3,3.33.07,9.86-.17,24.44-.01.96,1.36,1.6,2.17.79.25-.25.35-.56.35-.9.24-8.5.12-6.78.08-12.94.42.06,3.11.06,5.17-.49,6.69-1.8,6.31-14.38-6.51-13.32ZM77.34,31.38c-.97.08-2.45.1-2.45.1-.06-6.24-.15-7.74-.17-9.15,8.85-.16,9.06,8.42,2.62,9.05Z"/>
        <g>
          <path class="cls-2" d="M96.78,45.5c-1.57.14-3.17-.01-6.03.17-.02-2.33-.04-2.09.08-5.58.37.02.84.01,1.43.02,1.22.04,2.82.38,2.96-.97.07-.61-.43-1.25-1.11-1.28-1.06-.05-2.17-.06-3.23.12.19-7.55.5-11.08.39-16,.71.01,5.42.11,4.74.08.98.03,1.4-.64,1.4-1.17,0-.58-.48-1.17-1.13-1.19-.91-.03-1.82-.04-2.73-.05-.32,0-6.58-.18-7.44.69-.75.67-.09,1.85.92,1.66.6.08.98.06,1.86.01-.02.32-.59,17.57-.67,23.77-1.1,0-1.62,0-1.98.28-.61.49-.48,1.35.15,1.67.92.48,4.18.23,8.29.2,1.71-.02,3.38.16,3.38-1.27,0-.65-.63-1.23-1.3-1.17Z"/>
          <path class="cls-2" d="M85.87,46.72s0-.02,0-.03c0,.02,0,.05,0,.03Z"/>
          <path class="cls-2" d="M85.89,46.62c-.02.07-.02.12,0,0h0Z"/>
        </g>
        <path class="cls-2" d="M108.12,29.92c7.94-.24,9.24-8.13,1.54-9.94-1.26-.29-2.58-.31-3.87-.32,0,0-4.38.02-4.38.02.02,0,.03,0,.05-.01-.08.01-.19.05-.28.08.02,0,.04-.01.06-.02-.39.14-.67.46-.72.86-.08.76.77,1.13.46.94.09.06.18.11.08.05.62.34,1.97.35,2.63.35-.33,2.78-1.28,24.39-1.28,24.7,0,1.42,2.5,1.55,2.52-.08.04-3.7.58-12.37.58-12.38-.03.62.14-3.25.16-3.81,1.11,1.61,2.25,3.89,2.91,4.97,4.13,7.08,5.02,11.6,5.12,11.92.4,1.23,2.45,1.02,2.45-.35,0-2.97-5.66-13.56-8.01-16.97ZM111.94,26.02c-1.37,1.88-3.88,1.59-6.19,1.6.04-1.29.14-4.39.04-5.67.3,0,.59,0,.89.02,5.39.22,6.17,2.61,5.26,4.05Z"/>
      </g>
    </g>
  </g>
</svg>