<?xml version="1.0" encoding="UTF-8"?>
<svg id="Layer_2" data-name="Layer 2" xmlns="http://www.w3.org/2000/svg" viewBox="0 0 133.18 113.73">
  <defs>
    <style>
      .cls-1 {
        fill: #aee5e2;
      }

      .cls-2 {
        fill: #0d0d0d;
      }

      .cls-3 {
        fill: #656a92;
      }

      .cls-4 {
        fill: #ffcae0;
      }

      .cls-5 {
        fill: #fff;
      }

      .cls-6 {
        fill: #ffe46b;
      }
    </style>
  </defs>
  <g id="OBJECTS">
    <g>
      <path class="cls-3" d="M29.56,28.22c-4.44,13.32-7.8,30.46-11.49,34.85-3.69,4.4-11.2-1.46-14.04,3.81-2.84,5.27-4.11,40.01,2.69,43.27,6.81,3.26,116.41,6.1,121.66,0,5.25-6.1,6.38-41.69,2.41-46.08-3.97-4.4-15.7.32-16.86-7.21-1.15-7.53-3.03-23.13-16.04-43.76C89.36-.47,41.07-6.29,29.56,28.22Z"/>
      <g>
        <path class="cls-5" d="M25.66,73.39c-.05-.81-1.22-1.61-2.03-1.34-.98.34-1.34,2.43-3.41,7.22.02-.04.04-.09.05-.13-.91,2.12-4.74,10.77-10.32,25.57-.46,1.23,1.43,2.08,2.09.84.36-.68,6.96-17.19,7.07-17.47.23.09.47.11.72.06,1.04.08,2.99.07,3.34.06,0,.28-.45,13.16-.25,16.85.04.7.85,1.26,1.65.89.62-.29.8-.43.86-6.19l.21-26.37ZM20,85.92c1.85-4.51,1.59-3.64,3.32-8.24-.05,1.71-.17,5.55-.15,8.32-.96-.08-2.22-.17-3.17-.07Z"/>
        <g>
          <path class="cls-5" d="M40.2,98.68s.04.07.07.11c-.03-.05-.1-.16-.07-.11Z"/>
          <path class="cls-5" d="M46.41,72.7c-.35-.25-.91-.11-1.14.64-1.01,3.27-2.46,25.75-2.67,29.2,0,0-1.09-1.72-2.4-3.86-.4-.66-1.94-3.82-2.89-1.72-.28.23-.07.08-3.54,5.56-2.36-16.5-1.03-32.6-4.05-30.05-.32.27-.39.65-.33,2.26.7,18.93,1.94,26.12,2.4,30.43.09.82.96,1.2,1.68.9.9-.38,1.37-1.45,1.91-2.19,1.04-1.42,1.36-1.73,2.84-4.19,3.3,5.69,3.69,5.98,4.56,6.32,2.89,1.12,1.56-2.29,3.06-17.71,1.05-10.89,1.55-14.88.56-15.59Z"/>
        </g>
        <g>
          <path class="cls-5" d="M60.34,72.28c-2.31-.08-2.19-.07-3.94-.06-1.01,0-2.06.29-3.03.23-.54-.03-1.09.35-1.17.88-.55,3.47-2.31,29.38-2.33,30.43-.04,1.73.63,2.28,2.4,2.38.99.06,4.67.17,4.88-1.29.27-1.87-4.2-1.11-5.03-.97,0-.04,1.44-17.48,1.79-22.34,3.2-.03.38.05,3.78,0-.02,0-.04,0-.06,0,1.81-.01,2.66-3.09-3.28-2.29,0,0,0,0,0,0-.01,0-.08.01-.09.01,0,0,.01,0,.02,0-.07,0-.14.02-.21.03.29-4.5-.04-2.08.29-5.08,1.29.11,2.22.12,5.85.25,1.53.06,1.58-2.15.13-2.2Z"/>
          <path class="cls-5" d="M57.74,81.55s-.01,0-.02,0c.05,0,.07,0,.02,0Z"/>
        </g>
        <path class="cls-5" d="M74.9,78.01c-.06.28-.15,1.11-.89,1.08-1.4.05-.72-2.15-1.34-3.22-.73-1.1-2.84-2.1-4.38-1.04-2.15,1.69-2.7,5.61-2.36,8.35.57,3.44,4.05,9.89,5.07,12.17,2.93,6.57-.53,10.89-4.33,10.83-3.16-.04-4.06-3.68-3.54-6.16.12-.58.72-.96,1.33-.85,1.19.22.84,1.4.82,2.33.1,3.86,3.85,2.07,4.44.17,1.66-5.35-7.54-13.61-5.96-22.57,1.52-8.6,7.98-7.93,10.6-4.6.92,1.18.72,2.51.53,3.51Z"/>
        <path class="cls-5" d="M84.02,75.24c-1.87,1.95-2.12,5.06-2.61,7.61-2.24,11.76-1.48,22.02,1.76,20.97,2.25-.74,3.05-8.79,3.27-11.18.38-5.24,1.18-21.15-2.42-17.4ZM81.84,105.99c-.65-.25-1.27-.69-1.76-1.19-.59-.6-1.1-1.28-1.59-3.02-1.68-5.94.22-20.78,2.21-25.35,2.35-5.41,6.58-5.53,7.83-.03,1.17,5.2,1.1,32.62-6.69,29.59Z"/>
        <path class="cls-5" d="M108.15,73.9c-.03-.46-.06-.74-.36-1.11-.4-.5-1.36-.59-1.88.22-.17.26-.42.72-.58,1.04-.14.28-3.4,7.02-4.67,9.12-1.02-2.32-1.87-4.7-2.72-8.41-.15-.65-.19-1.62-.67-2.12-.49-.52-1.25-.49-1.69,0-.27.31-.33.69-.47,1.45-2.17,11.58-2.19,8.28-5.11,27.15-.17,1.07-.4,2.14-.51,3.23-.14,1.33,1.98,1.7,2.24.29,3.61-19.68,4.64-24.98,4.84-26.02.33,1.19,2.05,6.15,2.91,7.13.31.35.69.47,1.13.44.56-.04.97-.47,1.28-.89.91-1.2,2.89-5.21,3.58-6.57-.56,5.19-1.66,18.56-2.01,24.97-.01.26-.03.52-.03.77,0,.17-.01.35,0,.52.04.62.61,1.09,1.22,1.04,1.18-.09,1.04-1.37,1.05-1.71.07-2.33.81-11.72.88-12.72.34-4.73,1.58-15.89,1.57-17.32,0,.05,0,.1,0,.15,0-.23,0-.43,0-.67Z"/>
        <path class="cls-5" d="M122.13,71.94l-5.22.04c-3.26,0-2.64-.67-3.22,4.18-.02.13-1.56,18.76-2.08,23.39,0-.05.01-.1.02-.15-.08.7-.16,1.41-.24,2.11,0-.05.01-.1.02-.15-.74,6.46-1.02,4.45,7.08,4.72,1.52.05,1.57-2.21.1-2.26-1.27-.05-2.54.02-3.81.05.05,0,.1,0,.15,0-.53.01-.79,0-1.51.01.14-1.6.1-1.02.3-2.9,0,.05-.01.1-.02.15.32-2.8,1.72-18.3,1.73-18.49.71.11,2.77.19,4.12.26,1.49.07,1.58-2.18.1-2.25-2-.08-3.28-.11-4.11.02.06-1.11.55-6.63.75-6.61.85.09,3.23.18,4.23.17,1.62-.01,1.91.05,2.31-.31.78-.71.21-1.96-.71-1.97Z"/>
      </g>
      <g>
        <path class="cls-4" d="M47.52,52.83s3.49-16.42,12.78-18.92c23.35-6.28,26.77,19.99,26.77,19.99l15.9-1.33s-3.04-25.67-17.89-32.46c-17.72-8.1-40.17-5.26-47.28,8.94-7.12,14.19-7.33,26.15-7.33,26.15l17.06-2.37Z"/>
        <path class="cls-6" d="M36.55,53.9c.89-4.28,2.48-16.51,6.64-22.15,4.71-6.39,11.17-10.07,21.42-10.07,6.12,0,12.32,1.36,17.95,3.93,5.76,2.63,9.35,9.79,11.34,15.32.8,2.21,3.88,11.13,4.33,12.97h-4.87c-.64-2.05-3.18-10.92-4.5-13.36-4.76-8.8-12.49-13.65-21.76-13.65-2.66,0-5.51.29-8.39,1.18-12.05,3.73-14.37,19.7-16.34,25.83h-5.84Z"/>
        <g>
          <path class="cls-1" d="M53.18,51.81c-1.67.96-1.17,1.14-1.58.18-3.67-8.62-10.49-6.24-12.51-3.84-.86,1.02-1.82,2.68-2.37,4.23-4.57-2.42-11.37,5.16-8.79,9.35.76,1.23,1.84,1.64,3.09,2.13,2.79,1.07,4.38,1.07,8.94,1.15,8.55.15,20.18-.25,20.18-9,0-3.73-3.46-6.2-6.96-4.19Z"/>
          <path class="cls-1" d="M96.55,51.95c-.16-3.86-3.62-6.38-7.13-6.5-1.83-.07-3.49.43-5.3,1.84-.71.56-1.33,1.13-1.94,1.91-.8,1.03-2.17,3.47-2.17,3.47-3.33-1.58-8.07,3.1-6.85,7.53,1.08,3.94,5.97,4.76,14.72,5.63,13.67,1.35,17.83-5.56,17.83-9.12,0-4.36-4.64-8.11-9.17-4.76Z"/>
        </g>
      </g>
      <path class="cls-2" d="M78.96,111.91h0c-30.01,0-69.63-1.61-73.81-3.62-1.24-.59-2.28-2.16-3.09-4.65-3.28-10.07-2.22-34.46.25-39.06,1.21-2.24,3.21-2.53,4.83-2.53.81,0,1.66.08,2.49.16.83.08,1.69.16,2.5.16,1.98,0,3.29-.51,4.25-1.66,2.33-2.77,4.6-11.02,7.01-19.75,1.39-5.03,2.83-10.23,4.41-15,2.96-8.88,8.48-15.66,16.4-20.18,6.66-3.8,14.81-5.8,23.55-5.8,12.85,0,25.03,4.53,28.97,10.78,12.46,19.77,14.71,34.77,15.92,42.82l.16,1.06c.62,4.07,4.53,4.35,8.68,4.64,3.11.22,6.32.44,8.1,2.41,2.18,2.42,2.75,13.11,2.33,22.63-.41,9.35-1.86,20.53-4.74,23.87-2.77,3.22-31.4,3.7-48.22,3.7ZM7.14,62.69c-2.17,0-3.45.66-4.27,2.2-2.19,4.06-3.65,28-.21,38.56.76,2.32,1.69,3.76,2.76,4.27,3.74,1.79,40.17,3.56,73.53,3.56h0c28.02,0,45.87-1.3,47.74-3.48,2.28-2.65,4.08-11.87,4.59-23.49.48-11.11-.41-20.23-2.17-22.18-1.61-1.78-4.69-2-7.68-2.21-4.21-.3-8.56-.6-9.25-5.17l-.16-1.06c-1.2-8.01-3.44-22.93-15.83-42.58-3.83-6.08-15.79-10.49-28.43-10.49-19.31,0-34.02,9.55-39.35,25.55-1.58,4.75-3.02,9.94-4.41,14.97-2.53,9.18-4.72,17.11-7.14,19.99-1.4,1.67-3.27,1.88-4.73,1.88-.84,0-1.72-.08-2.56-.17-.85-.08-1.65-.16-2.43-.16Z"/>
    </g>
  </g>
</svg>