<?xml version="1.0" encoding="UTF-8"?>
<svg id="Layer_2" data-name="Layer 2" xmlns="http://www.w3.org/2000/svg" viewBox="0 0 122.83 97.91">
  <defs>
    <style>
      .cls-1 {
        fill: #656a92;
      }

      .cls-2 {
        fill: #ffcae0;
      }

      .cls-3 {
        fill: #ffe46b;
      }
    </style>
  </defs>
  <g id="OBJECTS">
    <g>
      <path class="cls-1" d="M115.57,63.37c-2.97-3.48-.14-7.01,2.03-10.07,2.15-3.01,3.54-6.42,4.48-9.99.83-3.16,1.45-7.59-.87-10.31-1.92-2.26-4.42-1.1-6.92-1.26-1.86-.11-.09-5.29.21-6.54,1.41-5.89,6.73-13.42,1.33-18.81-2.61-2.61-6.59-3.48-10.13-3.9-3.79-.45-7.13.34-10.57,1.91-3.36,1.53-6.59,3.68-10.35,4.02-1.62.15-2.91-.1-3.97-1.36-1.12-1.32-1.81-2.89-3.07-4.13-5.77-5.68-14.89-1.94-20.76,1.42-3.43,1.97-6.76,4.17-10.55,5.4-2.95.96-5.99.39-9,.18-3.94-.28-7.75,1.34-11.46,2.48-8.51,2.62-17.25,6.98-21.52,15.27-1.64,3.18-2.06,7.01.22,9.99,1.87,2.43,4.57,4.07,6.63,6.32.77.84,1.5,1.94,1.29,3.14-.32,1.79-2.28,3.11-3.49,4.3-2.89,2.83-5.58,6-7.37,9.65-1.38,2.79-2.58,6.35-1,9.29,1.16,2.15,3.7,3.24,5.67,4.47.99.62,1.9,1.35,2.51,2.35,1.07,1.74.33,4.09.19,5.98-.28,3.8,2.23,6.89,5.1,9.03,7.41,5.51,16.82,2.55,24.74.06,3.61-1.14,7.29-2.22,11.06-2.66,1.74-.2,3.54-.25,5.28.04,2,.34,3.34,1.31,4.69,2.77,1.19,1.29,2.38,2.49,4.02,3.18,1.93.81,4.17,1.07,6.25.86,1.72-.17,3.31-.91,4.84-1.67,1.6-.79,3.25-1.88,5.09-1.95,1.51-.06,2.79,2.01,3.89,2.85,1.59,1.21,3.58,1.8,5.53,2.07,3.37.46,6.71-.22,9.98-.96,6.11-1.39,12.26-3.67,17.1-7.75,4.94-4.17,7.52-11.07,5.35-17.35-1.22-3.52-4.15-5.6-6.47-8.32Z"/>
      <g>
        <path class="cls-3" d="M32.47,35.69c.67-.85,1.05-1.53,1.25-2.05,1.22-.1,2.49.08,3.65.98.21.18.21.06-.27.62-10.6,12.17,3.23,19.62,4.77,9.02.56-3.83-.35-7.21-1.81-9.41,2.32-2.17,4.83-3.29,7.77-4.15-.19.75-.28,1.69-.15,2.79.86,7.13,8.02,9.32,11.69,3.15.81-1.36,1.27-3.01,1.18-4.64,1.55-.45,2.72-.92,4.91-1.86-.18.88-.27,1.8-.28,2.39-.09,6.07,5.61,7.82,7.95,7.25,2.23-.55,3.41-2.13,4.35-4.22,2.6-5.77-1.49-2.81,5.17-5.27-.9,5.92,1.24,12.54,7.4,7.82,1.64-1.26,3.37-3.4,4.15-4.65.76,4.09,2.37,7.12,2.8,7.78.68,1.06,2.26.02,1.59-1.02-.96-1.51-2.45-5.27-2.86-9.33,2.93-5.29,6-14.02,5.74-18.25-.3-4.77-6.11-5.42-7.5,8.15-.45,4.39.4,3.14-2.23,1.94-3.27-1.5-6.31.43-7.77,3.24-.34.67-.63,1.41-.86,2.2-1.05.21-2.71,1.1-4.47,1.48-.01-4.63-2.82-7.49-5.85-8.04-3.95-.73-8.64,2.97-7.02,6.31-1.05.45-2.7,1.37-5.56,2.22-1.2-4.21-4.72-6.23-7.61-5.69-.34-.05-.7.04-.94.28-.94.39-1.76,1.09-2.34,2.11-.35.63-.5,1.14-.52,1.64-3.62.92-5.25,1.7-6.89,2.63-1.06.61-1.99,1.25-3.09,2.29-3.62-3.31-8.07-.79-10.04-.44-.81.15-.93,1.35.02,1.57.57.13,1.43-.12,2.44-.4-1.1,1.6-2.36,2.16-4.48,2.47-7.91.72-6.43-17.87,3.33-17.72,3.2.14,4.46,2.2,3.89,4.76-.13.17-.15.38-.07.55.37.99,1.97.32,1.97-2.15,0-6.3-11.85-8.19-15.32,2.94-.39,1.24-.68,2.72-.77,4.23-.14,2.14.46,5.57,2.1,7.32,3.1,3.32,8.3,2.04,10.56-.84ZM95.59,25.63s0,.05,0,.07c.23-12.24,3.27-14.52,3.75-14.24,0,0,1.31,1.67-1.46,9.77-.64,1.86-1.23,3.44-2.12,5.39-.23-.57-.19-.23-.18-.98ZM85.91,26.42c.6-.92,1.36-1.7,2.38-2.12,1.47-.54,2.18-.21,3.6.61.66.42,1.34.96,1.79,1.61-.03,1.59.03,2.97.13,3.96-2.97,5.25-6.39,7.82-7.95,7.19-2.02-.98-2-7.88.04-11.25ZM72.26,38.01c-5.93-.51-5.23-5.97-5.1-6.74,0,0,0,0,0,0,0-.03.03-.18.02-.15.45-2.84-.49-.24,6.44.67.94.12,2.03.18,3.01.08-.27,2.15-1.86,6.09-4.38,6.14ZM76.78,29.96c-3.63.38-9.43-1.23-9.43-3.49.21-3.82,9.47-5.36,9.43,3.49ZM50.37,35.93c-1-1.92-1.06-4-.67-5.13,1.96,2.16,5.95,2.23,8.98,1.66.07,4.57-5.37,8.65-8.32,3.48ZM51.03,27.69c.33-.51.74-.88,1.18-1.11.38.08.81-.02,1.07-.32,1.98-.2,4.29,1.54,5.11,4.33-4.08.79-8.9-.27-7.37-2.89ZM40.14,42.68c-.49,6.74-4.63,5.41-5.09,1.78-.25-2.95,1.73-5.92,3.66-8.2,1.21,2.06,1.47,4.13,1.43,6.42Z"/>
        <path class="cls-3" d="M67.16,34.1c.03-.13.02-.12,0,0h0Z"/>
        <g>
          <path class="cls-2" d="M40.93,62.27c-.29,2.39-.29,4.12-.98,8.6-.15.87-.32,1.73-.49,2.6-.09.43-.18.86-.27,1.29-.02-.04-.05-.09-.07-.13-1.06-1.94-2.02-3.93-2.85-5.99-.24-.67-.47-1.34-.71-2.01-.18-.49-.43-1.43-1.1-2.06-.38-.35-1.02-.69-1.71-.65-1.21.06-1.8.85-2.21,1.53-.19.31-.37.62-.55.93-.35.59-.69,1.18-1.03,1.77-.73,1.25-1.45,2.5-2.15,3.76-.21-1.2-.39-2.41-.56-3.62-.12-1.1-.29-2.62-.32-3.74-.03-.9-.04-1.8-.04-2.7.04-1.64.29-8.35.72-11.35.01-.06.02-.12.03-.18,1.05-2.52-3.01-3.96-3.7-1.23-.29.73-.44,1.54-.57,2.31-2.11,12.34.53,26.43,1.91,27.58,1.08.9,2.2.83,2.95.32,1.28-.86,1.21-1.43,5.2-8.43.36.89.75,1.76,1.16,2.63.45.96.94,1.91,1.45,2.84.55,1,1.1,1.99,1.74,2.94.34.5.69,1.09,1.21,1.43.43.28.87.49,1.39.54.54.05,1.11-.09,1.57-.37,3.37-2.04,4.37-18.12,4.37-18.44,0-2.63-4.03-3.01-4.38-.16Z"/>
          <path class="cls-2" d="M74.45,79.67s0,.01,0,.02c0,.02,0,.02,0-.02Z"/>
          <path class="cls-2" d="M87.89,79.33c-2.64-1.75-3.96-3.21-5.29-4.97-.66-.93-.92-1.26-2.07-3.28-.65-1.19-2.42-4.39-1.8-3.26-.8-1.45-1.49-2.83-2.17-3.91,4.26-1.41,7.98-4.88,7.98-9.73,0-.37-.03-.73-.09-1.09-1.13-6.76-9.08-6.32-12.5-4.02-.06,0-.12.01-.18.02-1.13.2-1.84,1.27-1.73,2.35-.06,1.04-.12,2.03-.16,2.98-1.11.4-2.22.8-3.34,1.17-.12-1.6-.5-3.28-1.17-4.74-6.47-14.06-25.42.53-15.25,7.85-5.1,18.73,8.06,28.7,14.77,8.58.54-1.63.9-3.31,1.18-5,.41-2.46-.04-1.91,1.34-2.37.76-.25,1.52-.52,2.28-.78-.23,8.23.18,12.6.25,16.68.01.76.02,1.52.01,2.28,0,.36,0,.71,0,1.07.01.49.02,1.01.27,1.45.28.51.66.92,1.22,1.12.55.21,1.18.18,1.71-.07.75-.35,1.27-1.16,1.28-1.98-.01-.26-.1-4.98-.11-5.19-.03-.82-.16-4.02-.19-4.79-.02-.56-.04-1.2-.06-1.91.03.06.06.12.08.18,5.35,12.09,9.69,14.47,15.65,17.31,1.65.79,3.23-.39,3.23-1.94,0-2-1.45-1.85-5.15-4.02ZM59.18,69.7c-.61,1.18-2.17,4.15-3.49,4.21-.27-.06-.64-.54-.82-.76-2.44-3.58-1.75-8.26-.81-12.6,3.01.8,5.55.93,7.79.69-.38,2.64-1.32,5.84-2.67,8.46ZM55.21,56.35c.07-.23.14-.46.19-.69.48-2.24-2.54-3.45-3.69-1.45-.03-.07-.03-.06-.1-.27-.13-.68.08-1.7,1.3-2.91.37-.33.66-.56,1.4-.99.66-.35,1.01-.48,1.65-.66,4.2-.91,6.12,3.12,6.3,7.4-2.31.39-4.52.26-7.03-.42ZM79.15,52.07c1.26.63,1.76,3.32-.76,5.88-1.67,1.41-3.17,1.78-4.36,2.05.02-3.34.09-6.52.21-8.2,1.62-.37,3.42-.35,4.91.27Z"/>
          <path class="cls-2" d="M106.81,75.43c-.29-1.71-.76-3.39-1.35-5.03-.31-.85-.64-1.69-1.01-2.51-1.43-3.13-5.14-7.15-6.28-8.25,1.23-1.22,2.35-2.54,3.46-3.87,3.44-4.1,3.53-4.19,4.82-6.86h0c1.26-2.41-2.47-4.24-3.57-1.9-1.28,2.73-5.11,6.73-7.61,9.2.32-3.89.59-6.89.59-7.5,0-2.22-2.62-3.04-3.93-1.35h0c-.41.54-.31.05-1.21,11.15-.33,4.04-.99,9.85-.68,17.03.03.62.03,1.27.15,1.87.57,2.81,4.75,2.18,4.33-.85-.3-3.14-.07-8.66.28-13.97,1.98,1.76,4.09,4.42,5.28,6.42,2.62,5.15,2.42,8.82,3.08,11.01.69,2.31,4.29,1.91,4.29-.7,0,0-.65-3.91-.65-3.91Z"/>
        </g>
      </g>
    </g>
  </g>
</svg>