<?xml version="1.0" encoding="UTF-8"?>
<svg id="Layer_2" data-name="Layer 2" xmlns="http://www.w3.org/2000/svg" viewBox="0 0 113.79 104.13">
  <defs>
    <style>
      .cls-1 {
        fill: #aee5e2;
      }

      .cls-2 {
        fill: #0d0d0d;
      }

      .cls-3 {
        fill: #ffe46b;
      }
    </style>
  </defs>
  <g id="OBJECTS">
    <g>
      <path class="cls-1" d="M103.03,31.64c.16-.22.87-1.1,1.04-1.31,9.93-12.35-1.2-25.38-11.33-20.79-.5-2.76-4.8-5.94-6.85-7-.26-.13-.51-.27-.77-.39-.67-.29-1.34-.58-2.04-.77-1.01-.27-1.84-.38-2.3-.39-1.3-.03-.86-.02-1.44,0-.45.02-.98.05-1.31.1-3.91.52-6.99,2.23-9.44,5.8-3.33-8.57-15.55-9.54-20.18-.67-1,1.91.58.05-3.5-2.33-4.57-2.66-10.83-1.59-14.31,2.93-3.01,3.94-1.65,4.48-2.83,3.57-1.24-.94-2.99-1.44-4.52-1.64-7.65-.99-12.91,6.82-11.95,13.14.54,3.56,1.54,1.26-3.1,2.5-3.41.91-5.89,3.92-7.04,7.03-2.95,8.03.1,11.66,5.63,14.34-.44.41-.9.81-1.33,1.23-3.88,3.78-5.23,9.58-4.44,13.25,1.01,4.71,4.15,6.53,8.88,6.78-3.7,5.41-5.43,13.83-.96,17.6.5.43,1.05.8,1.64,1.1.27.14.55.26.83.38.62.26,1.64.57,2.75.71,4.5.57,3.38-2.18,2.64,3.11-1.05,7.44,10.02,14.37,18.47,8.33.72-.51,1.39-1.08,2.07-1.65,3.47,8.34,15.48,10.43,22.18,2.82,2.77-3.14.28-1.83,4.78,1.18,5.82,3.89,15.74,4.18,19.1-5.19.09-.26.18-.52.26-.78,4.94,2.18,12.66-.87,15.03-7.84.18-.54.36-1.09.46-1.65.14-.76.21-1.53.19-2.3-.02-.99-.16-1.98-.43-2.94-.09-.32-.18-.63-.3-.94-.12-.31-.25-.61-.39-.91-.29-.64-.76-1.37-1.17-1.96,11.75-3.07,17.71-16.59,7.61-21.09,11.43-4.98,13.43-18.14-1.64-23.34Z"/>
      <g>
        <path class="cls-2" d="M46.1,73.4c-4.56,1.4-6.39,2.77-6.39,2.77-5.1,3.5-2.51,10.58,1.87,7.96,2.89-2.07,3.96-7.1,4.52-10.73ZM53.28,71.71c-.46.13-.5.12-.4.1-1.73.36-2.48.33-5.91,1.33-2.76,19.92-14.74,11.73-9.5,4.05,1.61-2.35,6.05-3.87,8.76-4.68.58-4.52.42-10.4.42-10.67,0-.39-.01-.84.42-.84.5,0,.4.53.39.81,0,0,.08,2.11.02,4.48-.03,1.2-.29,5.02-.41,5.98,3.4-.98,3.93-.87,5.63-1.25.4-.09,1.2-.45,1.2.21,0,.37-.36.41-.63.48Z"/>
        <path class="cls-2" d="M62.72,67.76c-.22-1.62-.61-2.85-1.39-3.77,0,0-.25-.35-1.17-.94-1.21-.76-2.83-.89-3.34-.83-2.49.19-3.24,2.4-2.02,3.84.14.16.09.14.22-.04,1.26-1.93,1.81-1.06,1.58-.79,0,0-.44.43-1.06,1.48,1.27.91,3.71,1.63,7.19,1.04ZM62.81,68.58c-.62.11-1.39.21-2.07.22-1.94.03-3.98-.26-5.61-1.36-.06.11-.15.3-.15.3,0,0,0,0,0,.01.41-.8-2.83,4.94.19,9.31.09.13.28.34.4.45,1.24,1.24,2.87,1.34,4.38.35.26-.19.6-.48.86-.77.32-.37.53-.73.9-1.45.56-1.25.82-2.43.82-2.43,0-.01,0-.03,0-.04,0,.03,0-.04,0-.03-.01.06.02-.12.04-.19.02-.11.06-.3.04-.18-.01.06,0,.04,0,.04.13-.7.21-1.87.2-1.74.06-.87.08-1.36,0-2.49ZM71.59,54.5c-.51.46-1.06,1.28-1.24,1.61-2.09,3.74-2.59,5.67-2.81,7.94-.15,1.63-.19,2.27-.17,2-.02.31-.21.36,1.05-.25,4.36-2.26,8.3-6.83,8.52-9.29.15-3-3.42-3.67-5.35-2.01ZM67.3,67.21c-.06,1.36-.1,3.45,0,4.83,0-.01,0-.03,0-.04.11,1.64.24,2.53.76,4.1,0-.02-.01-.03-.02-.05.05.14.11.29.17.43,0-.35,0-.7.02-1.05,0,0,0,.01,0,.02,0,0,0-.02,0-.03,0,0,0,.02,0,.03,0-.02,0-.13.02-.23,0,.02,0,.04,0,.06,0-.04,0-.08,0-.12,0,.02,0,.04,0,.06,0-.04,0-.08,0-.11,0,0,0,.02,0,.02,0,0,0-.12,0-.12,0,0,0,.02,0,.03,0-.02,0-.04,0-.06,0,.01,0,.02,0,.03.21-3.2,2.22-6.42,5.63-6.56,4.32-.17,5.38,8.17.19,12.73-.76.67-1.49,1.1-2.53,1.32,0,0,.01,0,.02,0-.85.17-3.72-.2-2.44-.8.31-.15.9.12,1.24.13,6.22.07,8.93-12.84,3.4-12.55.01,0,.03,0,.04,0-3.02.22-4.5,2.99-4.75,6.04,0,0,0,0,0,0,0,.05,0,.06,0,.09,0,0,0,0,0-.01,0,.03,0,.06,0,.1,0,0,0-.02,0-.03,0,.05,0,.04,0,.09,0-.01,0-.03,0-.05-.02.64-.03.83,0,1.59,0,0,0,0,0-.01.1,1.46.26,1.48.1,1.75-.16.27-.54.32-.82-.16-.1-.17-.26-.5-.35-.68-1.54-3.28-1.62-6.83-1.5-10.41-.99.4-1.44.54-2.86.85.14,1.77-.04,3.62-.2,4.51,0-.01,0-.03,0-.04-1.79,9.63-10.89,7.68-10.35-.77,0,0,0,.02,0,.02.15-2.28.66-3.73,1.33-5.06,0,0,0,0,0,0,.03-.06.06-.11.09-.17-3.14-2.97.92-7.82,6.43-4.35.62.39,1.13.94,1.53,1.55.59.92.93,2.41,1.08,3.48,1.4-.31,1.79-.43,2.99-.94,0-.02,0-.03,0-.05,0,0,0,.01,0,.02.01-.21.03-.43.04-.64,0,.02,0,.04,0,.06.19-3.05.51-6.24,3.38-10.83,1.57-2.52,5.59-3.67,7.32-.7.33.57.5,1.19.5,1.77,0,3.18-4.44,8.26-10.46,10.92Z"/>
        <path class="cls-2" d="M46.28,61.83h0c-2.87.63-3.11,1.19-3.33.79-.06-.11-.04-.22,0-.33.09-.17.25-.27.41-.37.13-.09.29-.15.43-.22.28-.13.58-.22.88-.31.61-.18,1.23-.34,1.86-.45.57-.1,1.16-.17,1.73-.25.27-.03.55-.07.82-.09.28-.03.55-.04.83-.06.22-.01.41.19.41.41,0,.67-.68.19-4.04.86Z"/>
      </g>
      <g>
        <path class="cls-2" d="M28.57,19.72c-1.99-.32-3.05.21-4.14,1.45-2.38,2.7-3.73,6.59-4.26,10.14-.15,1.03-.24,2.07-.29,3.11-.21,4.36.04,8.99,3.59,11.48,2.31,1.62,6.16.84,7.37-2.31.68-1.77,1.06-5.36.83-5.7-.3-.44-4.96-.42-5.55-.23-.92.16-1.26,1.7.36,1.9,1.02.12,2.31.17,2.98.14-.12,1.11-.42,3.04-1.12,3.91-.61.66-1.66,1.06-2.66.9-1.67-.4-2.53-1.83-3.1-3.38-.1-.33-.19-.66-.27-.99-.99-5,0-13.07,3.5-17.28,1.74-2.09,5.9-1.19,5.46,4.36-.09,1.12-.25,2.06.41,2.4,1.43.72,1.77-1.56,1.77-3.16,0-3.46-1.47-6.21-4.89-6.75Z"/>
        <path class="cls-2" d="M50.69,22.78c-1.8-3.79-7.67-3.2-10-3.2-.7,0-.37.6-2.98,23.31-.05.43-.1.85-.14,1.28-.1.96-.13,1.07-.13,1.4-.02,1.36,2.13,1.55,2.17-.07,0,0,1.11-10.27,1.34-13.4,10.93-.23,10.92-6.84,9.74-9.32ZM41.12,30.06c.03-.27.55-5.29.82-8.57.97-.06,2.19-.29,4.42.4,1.39.48,2.49,1.07,2.65,2.83.1,4.16-3.7,5.24-7.89,5.34Z"/>
        <path class="cls-2" d="M47.53,46.13c-1.82-2.99-7.46-14.14-7.58-14.41-1.02-1.09.85-2.49,1.66-1.22.55.72,5.3,10.03,5.73,10.85,2.06,3.98,2.22,3.66,2.22,4.23,0,1.1-1.46,1.47-2.02.55Z"/>
        <path class="cls-2" d="M62.36,19.46c-.27,0-4.16,0-4.53.02-.95.06-1.75-.18-2.14,1.66-1.87,8.72-4.13,24.53-3.92,24.86.17.27.54.47.79.54.28.08,4.04.02,5.22.09,1.51.09,1.55-2.08.21-2.16-1.02-.06-2.63-.19-3.85-.17.86-6.82,1.29-9.53,1.5-10.93,2.2.02,2.11,0,3.07,0,1.47-.02,1.4-2.19,0-2.17-.81.01-1.75.02-2.75.13.54-3.51,1.26-6.99,1.66-9.91,1.5.27,4.35.21,4.85.21,1.29.01,1.46-2.15-.1-2.16Z"/>
        <g>
          <path class="cls-2" d="M74.82,23.98c.02.27-.23-2.65-.67-3.76-.13-.71-1.24-1.27-2.34.28-.8,1.12-1.44,2.67-2.09,4.18-2.12,4.84-5.68,14.08-7.39,20.83-.22.88.66,1.58,1.46,1.24.98-.4.12-.38,4.31-12.34,0,0,0,.02,0,.02.01-.03.02-.07.04-.1-.01.04-.03.09-.05.13,1.47-4.12,4.46-11.05,4.57-11.32.21,2.19.29,9.43,1.91,22.82.16,1.31,2.15,1.26,2.15-.17,0,0-.66-3.59-1.9-21.81Z"/>
          <path class="cls-2" d="M73.17,31.57s0-.08,0-.12c0,.08.01.2,0,.12Z"/>
          <path class="cls-2" d="M68.08,34.49s0,0,0,0c.01-.03.02-.04,0,0Z"/>
        </g>
        <path class="cls-2" d="M73.36,32.3s-2.06-.07-4.1-.25c-1.07.35-1.73-1.13-.78-1.69.61-.44,1.75-.25,2.94-.25,1.54,0,3.34-.16,3.14,1.28-.08.58-.63.98-1.2.91Z"/>
        <g>
          <path class="cls-2" d="M84.87,46.43c-.19.79-1.19,1.1-1.8.52-.28-.27-.38-.73-.33-.76.02-.51,1.87-22.29,3.22-24.91.41-.79,1.33-1.13,1.39,1.35,0,.38-2.46,23.76-2.47,23.8Z"/>
          <path class="cls-2" d="M92.32,22.38c-1.5-.07-2.18.1-5.05.04-6.46-.14-8.3.31-8.22-1.15.08-1.42,2.07-.97,12.31-1.06-.05,0-.1,0-.15,0,1.29-.01,2.88-.15,2.81,1.19-.07,1.21-1.41,1-1.69.99Z"/>
        </g>
      </g>
      <g>
        <g>
          <path class="cls-3" d="M90.68,55.21c-.87,3.82-1.61,5.97-3.14,17.98,0-.05.01-.1.02-.15-.06.49-.1.98-.17,1.47-.26,1.92-2.78.54-2.81-.98-.01-.49,0-.99.02-1.48,0,0,.01.59.66-16.13.16-4.16-.06-4.42,4.07-4.21.96.05,1.64.37,1.64,1.58,0,.75-.12,1.2-.29,1.92Z"/>
          <path class="cls-3" d="M87.08,82.26c-1.3.86-3.32.13-3.47-1.82-.28-3.52,4.78-3.98,4.78-.6,0,.78-.42,1.84-1.3,2.42Z"/>
        </g>
        <g>
          <path class="cls-3" d="M24.41,60.72c.18.91.32,1.82.47,2.74.13.77,1.38,9.46,1.41,9.74,0-.05-.01-.1-.02-.15.06.49.1.98.17,1.47.26,1.92,2.78.54,2.81-.98.01-.49,0-.99-.02-1.48,0,0-.02.36-.66-16.13-.03-.81-.06-1.62-.11-2.44-.01-.25-.04-.5-.12-.74-.47-1.35-1.97-1.13-3.83-1.04-.43.02-.77.03-1.18.36-.25.21-.46.63-.46,1.23,0,1.29.86,4.08,1.54,7.43Z"/>
          <path class="cls-3" d="M29.71,81.79c1.19-1.28.18-4.05-1.24-4.08-1.35-.68-3.01.36-3.01,2.12,0,2.25,2.56,3.81,4.26,1.96Z"/>
        </g>
      </g>
    </g>
  </g>
</svg>