<?xml version="1.0" encoding="UTF-8"?>
<svg id="Layer_2" data-name="Layer 2" xmlns="http://www.w3.org/2000/svg" viewBox="0 0 102.16 96.69">
  <defs>
    <style>
      .cls-1 {
        fill: #aee5e2;
      }

      .cls-2 {
        fill: #0d0d0d;
      }

      .cls-3 {
        fill: #656a92;
      }

      .cls-4 {
        fill: #ffe46b;
      }
    </style>
  </defs>
  <g id="OBJECTS">
    <g>
      <path class="cls-4" d="M102.15,45.2c-.16-22.15-1.59-40.18-10.41-43.79-8.82-3.6-19.5,6.96-19.5,6.96,0,0-3.49-8.53-10.82-8.37-5.74.12-9.64,4.44-10.33,6.31C50.39,4.44,46.49.12,40.75,0c-7.33-.16-10.82,8.37-10.82,8.37,0,0-10.69-10.57-19.5-6.96C1.61,5.01.17,23.04.01,45.2c-.16,22.15.96,47.03,16.5,49.86,15.54,2.83,17-3.43,17-3.43,0,0,3,6.27,10.81,4.86,3.64-.66,5.64-2.03,6.75-3.3,1.11,1.28,3.11,2.64,6.75,3.3,7.81,1.41,10.81-4.86,10.81-4.86,0,0,1.47,6.27,17,3.43,15.54-2.83,16.66-27.71,16.5-49.86Z"/>
      <g>
        <g>
          <path class="cls-3" d="M25.96,40.48c1.26-2.07,1.8-5.17,1.8-7.58,0-.27-.02-.53-.09-.79-.36-1.43-1.92-1.25-4.97-1.01-.23.02-2.36.23-1.56.16-1.88.18-1.61,2.32-.33,2.54.49.13.76.06,3.93-.03-.18,1.31-.82,4.07-.91,4.47-.14.32-.31.64-.5.95-2,2.82-6.3,3.22-8.24-3.98-.86-3.72-1.3-7.7-.83-11.49.47-3.81,1.43-8.11,4.39-10.23.88-.57,1.54-.79,2.46-.9,5.13-.33,4,6.11,4.08,7.77,0,.65.58,1.2,1.27,1.18,1.11-.03,1.23-1.06,1.37-2.04,1.1-7.69-3.36-10.6-8.08-9.54-8.03,1.8-9.9,14.52-7.83,24.6,2.4,11.69,11.01,10.95,14.04,5.95Z"/>
          <path class="cls-3" d="M44.33,43.12c2.97-2.06,3.95-5.69,4.74-9.1,1.08-4.69,1.66-10.52.66-15.47-.18-.9-.68-2.65-1.66-4.94-2.38-5.58-9.34-5.22-11.6,1.58-1.92,5.77-3.08,20.56.39,25.63,1.71,2.5,4.97,4.05,7.48,2.31ZM39.96,14.63c.99-1.51,2.08-2.39,3.78-1.7.67.32,1.57.73,2.93,5.63,1.46,6.08-.08,14.85-1.69,18.89-.5,1.11-.95,2.1-2.14,3.08-.59.43-.88.5-1.69.18-1.61-.75-2.13-1.79-2.67-3.45-.18-.56-.36-1.52-.45-2.13-.24-1.67-.29-1.66-.41-3.36-.11-2.61.31-13.58,2.33-17.14Z"/>
          <path class="cls-3" d="M60.25,43.01c1.42.82,2.55.97,3.28.87,5.72-.81,7.04-11.05,7.44-16.86.4-5.78-.59-9.57-2.4-13.54-2.59-5.68-10.68-5.71-12.27,5.13-1.02,6.96-2.1,20.88,3.95,24.39ZM60.09,15.55c.31-.7.46-.94.78-1.41.52-.68.89-1.08,1.75-1.36,2.74-.7,3.86,2.96,4.69,5.69,1.43,5.36.64,11.62-.63,17.06-.28,1.07-.63,2.12-1.22,3.23-.45.77-1.41,2.1-2.31,2.17-.64,0-1.26-.37-1.77-.72-1.49-1.18-1.95-2.97-2.29-4.96-.29-1.66-.33-1.65-.5-3.35-.04-.56-.19-11.79,1.5-16.35Z"/>
          <path class="cls-3" d="M86.05,11.31c-2.79-1.6-6.59-1.74-9.8-1.42-.58.06-1.99.11-2.42.95,0,0,0,.01.03-.04-.53.89.52,1.76.01,1.34.24.39.58.59,1.11.59,0,0,.05,0,.52-.06.58-.05,1.14-.08,1.68-.1-.04.75-.07,1.72-.17,2.99-.85,11.18-.32,20.43-.48,24.98,0-.36,0-.18-.01.1-.74,0-1.46-.02-2.1,0-.81.02-1.46.73-1.43,1.53.03.82.72,1.45,1.53,1.43,1.63-.02,2.33.05,4.69-.02,1.72-.06,3.47-.35,5.06-1.08,5.68-2.61,6.75-12.99,6.75-19.24,0-7.6-2.28-10.4-4.98-11.94ZM85.91,36.41c-.59,1.21-1.37,2.34-2.44,3.16-1.04.64-2.46.9-3.96,1.01.02-.43.04-1.02.06-1.87.02-.55,0-1.1,0-1.64-.28-14.17.43-21.21.35-24.46,7.73.55,8.76,5.29,7.89,15.32-.14,1.58-.21,4.7-1.9,8.49Z"/>
          <path class="cls-3" d="M73.79,8.88l-.11-.36c.01.2.07.4.18.58-.03-.11-.07-.22-.07-.22Z"/>
          <path class="cls-3" d="M73.86,9.1c-.05-.17-.07-.23-.07-.22l.07.22Z"/>
          <polygon class="cls-2" points="33.76 46.38 33.76 46.38 33.77 46.38 33.76 46.38"/>
          <path class="cls-2" d="M76.28,50.99c-.67-.1-.88.57-.88.57-.08.25.04.03-.39,1.25-1.34,3.44-3.46,9.1-6.69,12.75-.53.58-1.01,1.04-1.63,1.46-.45.29-.69.4-1.05.53-.27.08-.4.11-.68.13-.13,0-.18,0-.3-.02-2.11-.51-1.46-7.68,1.09-14.39.35-.49.11-1.06-.33-1.25-.38-.16-.92-.04-1.12.53,0,0-.38.94-.52,1.29-.36.97-1.04,3.23-1.52,5.46-.15.11-.29.28-.41.52-.78,1.5-1.75,3.29-2.48,4.61-1.19,2.18-2.28,4.07-3.84,5.99-.42.45-.83.9-1.29,1.31-.53.45-.91.69-1.38.93-3.36,1.55-3.42-1.6-2.78-5.25.95-5.43,2.47-7.87,2.66-9.98.05-.55.07-1.14-.13-1.67-.17-.46-.47-.83-.91-1.06-.69-.36-1.51-.28-2.26-.25-2.03.09-1.99.09-2.31.1.95-9.33-3.64-9.14-5.48-6.57-1.55,2.15-1.97,7.87,3.59,8.18-.26,1.5-.03.34-.45,2.33-1.41,5.65-4.45,14.02-9.27,17.26-7.49,4.77-6.86-11.79-4.23-22.24.76-.04,1.24-.07,1.1-.06,1.96-.1,2.12-.03,2.42-.33.19-.18.27-.44.25-.68-.09-.92-.75-.83-3.31-.65.59-2.04,1.26-3.74,1.94-4.84.55-.59-.04-1.49-.77-1.29-.87.22-1.93,2.75-2.87,6.24-.03,0-.06,0-.09,0-.45.03-2.86.17-2.22.12-.24.01-2.27.1-3.25.23-.21.03-.57.07-.76.16.06-.04-.16.06-.29.21-.01.01-.03.03-.02.02-.46.58.03,1.4.73,1.31.31-.04-.22-.03,1.06-.12.13,0,2.44-.14,4.42-.24-1.5,6.34-2.51,14.82-1.54,19.05.41,1.81,1.37,4.04,2.96,5,6.43,3.87,14.34-10.56,15.87-21.47.22,0,.44-.02.65-.02,2.05-.08,2.77-.13,3.19-.05.09.02.09.02.16.06.03.02.02.01.05.03.09.09.16.18.03.03.02.03.01.02.03.05.03.07.03.08.06.19.02.12.03.26.01.62-.21,2.03-5.8,15.15-1.19,17.36,4.4,2.11,8.87-5.07,11.79-10.65,0,7.53,5.05,6.85,8.84,1.69.95-1.29,1.53-2.33,2.31-3.71,2.53-4.45,2.25-5.91,2.2-3.23-.14,8.08.47,17.17-4.27,24.62-.65.92-1.53,2.25-3.66,3.05-.92.29-2.01.25-3.07-.27-1.16-.63-1.96-1.56-2.39-3.56-.32-1.77-.02-3.47,1-5.01.43-.61,1.01-1.26,1.71-1.53.18-.05.25-.07.47-.09.22,0,.34,0,.12,0,.18,0,.27.03.33.05.1.04.17.07.29.15.27.2.46.39.69.64.17.21.22.28.3.43.02.04.06.14.07.18.4,1.27,2.82.56.94-1.68-.44-.52-.99-1-1.62-1.27-.85-.36-2.16-.22-3.21.59-6.07,4.7-1.79,15.7,5.15,12.9,10.77-4.36,8.43-27.17,9.01-35.6.01-.13.04-.28.02-.4-.03-.36-.29-.67-.67-.73ZM45.46,54.57c-2.1-.08-3.31-.92-3.15-3.52.39-3.76,4.1-5.12,3.15,3.52Z"/>
        </g>
        <g>
          <path class="cls-1" d="M12.36,60.03c-3.42,0-3.42,5.3,0,5.3s3.42-5.3,0-5.3Z"/>
          <path class="cls-1" d="M89.8,60.03c-3.42,0-3.42,5.3,0,5.3s3.42-5.3,0-5.3Z"/>
        </g>
      </g>
    </g>
  </g>
</svg>