<?xml version="1.0" encoding="UTF-8"?>
<svg id="Layer_2" data-name="Layer 2" xmlns="http://www.w3.org/2000/svg" viewBox="0 0 98.15 118.44">
  <defs>
    <style>
      .cls-1 {
        fill: #aee5e2;
      }

      .cls-2 {
        fill: #0d0d0d;
      }

      .cls-3 {
        fill: #ffe46b;
      }
    </style>
  </defs>
  <g id="OBJECTS">
    <g>
      <path class="cls-1" d="M23.3,9.84c-4.12,4.62-8.21,13.93-9,24.07s1.19,12.99-2.78,17.32S1.02,60.31.23,74.19c-.79,13.88,0,36.88,9.91,40.44,9.91,3.57,77.72,7.34,84.06-2.38,6.34-9.71,4.66-46-2.33-50.56-6.99-4.56-12.81-9.12-12.68-15.86.14-6.74,1.26-30.57-6.74-38.48-8-7.91-35.8-12.49-49.16,2.49Z"/>
      <g>
        <g>
          <path class="cls-2" d="M37.69,71.48c-3.34,1.82-7.8-.03-5.21-10.81,0,0,0,.01,0,.02.62-2.61.8-2.93,1.3-4.98,0,.02-.01.04-.02.06.02-.11.05-.21.07-.32-1.11.96-2.57,2.43-3.43,3.6,0,0,0,0,.01-.01,0,0-.01.02-.02.03.01-.02.02-.03.04-.05-.05.07-.1.13-.15.2.01-.02.02-.03.04-.05-.04.05-.08.11-.11.16,0,0,.01-.02.02-.02-.07.1-.15.2-.22.3,0,0,0,0,0,0,0,0-.01.02-.02.03,0,0,.01-.02.02-.03,0,0,0,.01-.01.02,0-.01.02-.02.02-.03-1.03,1.51-2.03,3.28-2.79,5.23,0,0,0,0,0,0-1.43,3.74-1.1,4.17-1.67,4.29-.33.07-.58-.18-.59-.42-.04-.97,1.52-12.11,3.21-15.12.04-.08.11-.16.17-.23.05-.06.1-.11.16-.15.06-.04.11-.05.18-.06.1-.01.21.04.27.12.05.08.08.18.06.28-.06.3-.23.58-.32.87-.13.41-.24.82-.37,1.23-.19.64-.37,1.28-.53,1.93,0-.01,0-.02,0-.04-.35,1.5-.77,3.37-1.27,6.41,1.14-2.73,2.35-4.44,3.08-5.44,0,0-.01.01-.02.02,1.01-1.38,2.95-3.25,3.71-3.87.24-.19.65-.55,1.01-.53.53.02.56.59.5,1.09-.03.3-.1.62-.24,1.15,0,0,0-.02,0-.03-.32,1.35-.66,2.36-1.07,4.05,0-.02,0-.03.01-.05-.04.19-.09.37-.13.56,0,0,0-.02,0-.02-2.58,10.96,2.2,13.21,7.24,6.51,1.47-2.11,1.64-2.54,3.26-6.58.17-.43.89-.34.9.18,0,.32-2.67,8.08-7.14,10.51Z"/>
          <path class="cls-2" d="M51.69,67.8c-3.78,3.97-7.03,2.22-7.92-.21-1.21-3.33,1.15-11.93,1.97-12.13,0,0,.16-.05.3.07.13.1.17.31.07.46-.18.8-2.66,8.44-1.34,11.5.62,1.31,1.99,2,3.39,1.6,1.52-.49,2.55-1.52,3.53-2.79.79-1.05,1.74-2.77,2.39-3.92,1.3-2.48,1.33-3.01,1.9-2.74.17.08.27.25.28.43,0,.27-2.79,5.87-4.56,7.73Z"/>
          <path class="cls-2" d="M63.59,66.34c-3.18,4.07-8.81,4.31-9.03-1.54-.09-2.7.82-5.8,2.62-8.12,2.13-2.72,5.18-1.84,4.98,1.93.06.61-.91.65-.88.01.04-1.18-.41-3.12-2.06-2.42-1.14.54-2.05,2-2.55,3.14-.25.59-.48,1.13-.66,1.73-.25.8-.36,1.49-.46,2.3-.16,2.51.07,5,2.85,4.95,2.42-.11,4.15-1.94,5.43-3.98,1.92-3.05,1.81-4.35,2.58-3.99.17.08.26.24.26.41,0,.24-1.25,3.24-3.08,5.58Z"/>
          <path class="cls-2" d="M73.07,55.5c-2.56-1.78-5.64,2.12-6.23,5.16.64-.11,6.64.11,7.03-3.31.06-.81-.24-1.44-.79-1.85ZM66.68,61.58c-.17,1.7-.04,3.74,1.23,4.89.57.51,1.54.92,2.52.76,2.12-.4,2.96-3.31,2.87-3.07.03-.07.1-.25.11-.32.14-.66,1.07-.42.95.16-.04.18-.1.34-.17.51.25-.63-1.53,5.24-5.74,3.39-1.3-.57-2.17-1.45-2.56-3.12-1.08-4.56,1.7-10.01,5.15-10.63,1.87-.34,3.73.91,3.78,2.9.09,3.85-4.5,4.29-8.14,4.53Z"/>
          <path class="cls-2" d="M47.21,52.73s-.18.74-.19.75c-.06.25-.35.38-.59.31-.48-.15-.3-.65-.18-1.01.05-.16.12-.33.22-.47.14-.18.43-.2.61-.06.14.12.19.31.13.48Z"/>
        </g>
        <g>
          <path class="cls-2" d="M31.68,76.13c-2.07,14.56-2.89,21.06-2.89,21.06-.15.96-.29,1.92-.43,2.89-5.03-8.99-2.84-8.39-4.86-8.28-2.63.14-2.65.14-2.95.16-2.85,8.59-2.52,6.46-2.57,5.98-.61-5.82-.59-17.13-.83-22.03-.02-.47.39-.3-3.21-.29.05,4.43-.04,17.31,1.31,28.05,2.18-.05,3.74,0,4.25.02,1.93-4.71,2.25-5.02,3.12-7.54,1.07,2.48,3.88,7.63,4.12,7.64,2.73.08,1.56.01,3.59-.05,0,0,.78-.03.79-.03.46-1.75,1.13-6.97,3.8-27.54-.24,0-2.35-.02-3.24-.01Z"/>
          <path class="cls-2" d="M43.16,76.09c-3.57,1.03-4.37,7.01-4.65,10.61-.36,4.62-1.47,15.43,2.86,17.01.73.27,1.5.21,2.21-.1,5.19-2.28,5.54-16.96,4.72-22.76-.46-3.25-2.21-5.6-5.13-4.76ZM43.08,99.68c-.23.37-.31.48-.51.7-.12.11-.09.11-.18-.03-1.96-3.64-.47-13.78-.16-16.5.18-1.34.72-4.25,1.99-4.72,1.81-.42,1.68,15.21-1.13,20.55Z"/>
          <path class="cls-2" d="M65.9,76.85c-3.06-2.06-8.85-1.64-10.62-1.23-.04.65-.08,1.31-.13,1.96,0,0,0,0,0,0,0,.03-.07.95-.08.97.26-.03.79-.07,1.46-.09-1.44,6.1-2.95,22.73-3.17,25.13-.01.14-.03.29-.04.43.69,0,2.57-.04,2.46-.04,0,0,.13,0,.14,0-.1,0,.65.01.75.01.52-5.59,1.08-10.52,1.53-14.62.51,1.88,1.63,5.58,3.98,13.5.09.31.17.63.25.94,0,0,.44-.03,3.39-.21-.42-1.74-1.87-6.48-2.18-7.46-.36-1.13-.73-2.26-1.15-3.36-.41-1.08-.95-2.51-1.63-3.74.75-.09,1.51-.24,2.34-.48.61-.18,1.19-.43,1.75-.73,4.19-2.24,5.12-8.15.94-10.98ZM58.61,85.77c.33-3.14.55-5.61.56-7.31,1.67.08,3.42.31,4.46.85,2.58,1.59,2.86,6.54-5.01,6.46Z"/>
          <path class="cls-2" d="M85.34,75.76c-.67-.01-1.35-.02-2.02-.03-.34,0-.69.01-1.03.02-1.87,3.42-3.11,4.86-5.31,6.56.22-2.29.41-4.46.52-6.38-.52.01-2.37.05-3,.05-.72,4.3-2.37,20.02-2.78,23.5-.14,1.2-.25,2.4-.34,3.61-.06.78-.16.64.4.66,1.28.02,2.44.09,2.89.11.34-4.23,1.09-10.3,1.75-16.24,2.4,5.64,3.4,8.45,4.42,15.33.14.99-.03.83.64.81.94-.03,1.89-.07,2.83-.1-.8-7.14-2.48-12.29-5.14-17.8-.13-.27-.26-.53-.4-.79,2.38-1.86,4.02-3.58,5.73-6.66.29-.53.58-1.07.85-1.61.15-.3.29-.61.43-.92.01-.03.02-.06.03-.09-.16,0-.32,0-.48,0Z"/>
        </g>
        <g>
          <g>
            <path class="cls-3" d="M55.83,18.35c-2.06-1.53-4.72-2.38-7.82-2.12-6.75.57-13.01,8.31-11.3,16.92.45,2.26.88,4.42,4.22,6.36,12.54,7.27,23.24-4.04,19.46-14.33-1.19-3.21-1.99-4.92-4.56-6.84Z"/>
            <path class="cls-3" d="M35.59,16.78c-.53-1.04-2.98-.34-.6,2.02.54.54,1.57.18,1.57-.67,0-.63-.51-.81-.97-1.35Z"/>
            <path class="cls-3" d="M34.16,23.81c-.17.01-1.46.12-1.61.19-.4.19-.55.62-.44.98.07.22.22.35.22.35.03.03.09.07.08.07.25.19.53.19,1.03.22.75.04,1.64,0,1.64-.91,0-.49-.43-.94-.93-.9Z"/>
            <path class="cls-3" d="M33.29,34.79c-.55.29-1.02.64-.84,1.23.04.14.15.3.15.27.23.29.59.39.99.21.25-.11.92-.22.92-.93,0-.66-.72-1.04-1.21-.78Z"/>
            <path class="cls-3" d="M45.93,13.32c.05-1.47.13-1.92.13-1.92,0-.43-.38-.81-.8-.85-.48-.05-.92.31-.97.79-.08.72-.17,1.45-.18,2.17-.01,1.04,1.8,1.37,1.82-.2Z"/>
            <path class="cls-3" d="M56.8,13.78c-.12.39.1-.37.35-.96.11-.14.17-.3.17-.48,0-.71-.84-1.06-1.34-.54,0,0,0,0,0,0-.28.3-.76,1.42-.86,1.67-.39.96,1.18,1.92,1.69.31Z"/>
            <path class="cls-3" d="M65.78,21.19c.62-.23.75-.82.56-1.24-.47-1.04-1.61-.22-2.19-.06-.45.12-.71.64-.57,1.08.31,1,1.41.51,2.2.22Z"/>
            <path class="cls-3" d="M67.4,29.28c-.58-.55-3.7-1.3-3.34.44.17.81.92.93,2.64,1.08.52.05.98-.36.98-.88,0-.25-.1-.48-.28-.64Z"/>
            <path class="cls-3" d="M64.63,38.29c-.33-.21-.66-.44-1.03-.57-.98-.36-1.55,1.09-.57,1.47.16.11.36.28.35.27.25.21.48.43.89.36.4-.07.71-.4.71-.85,0-.27-.11-.53-.35-.68Z"/>
            <path class="cls-3" d="M57.68,42.26c.02-.38-.3-.7-.7-.7h0c-.39.06-.6.29-.66.59-.09.45-.13.76-.14,1.19-.03.98,1.62,1.09,1.62-.04,0-.08-.11-.85-.12-.95,0-.03,0-.06,0-.09Z"/>
            <path class="cls-3" d="M46.7,42.97c-.25.29-.62,1.28-.74,1.61-.41,1.18,1.34,1.72,1.68.53.14-.49.24-.84.34-1.09.7-.86-.61-1.9-1.28-1.04Z"/>
            <path class="cls-3" d="M37.87,41.37c-.3.24-.83,1.15-1,1.46-.26.46-.09,1.05.4,1.26.98.43,1.27-.78,1.68-1.47.84-.72-.27-1.97-1.08-1.25Z"/>
          </g>
          <g>
            <path class="cls-2" d="M50.29,30.05c-.01,1.1-.2,2.82-1.19,3.51-.82.57-1.78-.49-2.11-1.13-.45-.89-.36-2.04-.24-3,.06-.47-.68-.47-.74,0-.15,1.22-.13,2.45.44,3.56.42.82,1.47,1.59,2.43,1.42,1.75-.32,2.12-2.92,2.14-4.36,0-.48-.73-.48-.74,0Z"/>
            <g>
              <path class="cls-2" d="M46.42,24.01c-1-.68-2.71-.11-3.02,1.09-.12.46.59.66.71.2.19-.75,1.33-1.06,1.94-.65.4.27.76-.37.37-.64Z"/>
              <path class="cls-2" d="M50.54,24.01c1-.68,2.71-.11,3.02,1.09.12.46-.59.66-.71.2-.19-.75-1.33-1.06-1.94-.65-.4.27-.76-.37-.37-.64Z"/>
            </g>
          </g>
        </g>
      </g>
    </g>
  </g>
</svg>