<?xml version="1.0" encoding="UTF-8"?>
<svg id="Layer_2" data-name="Layer 2" xmlns="http://www.w3.org/2000/svg" viewBox="0 0 105.61 89.48">
  <defs>
    <style>
      .cls-1 {
        fill: #aee5e2;
      }

      .cls-2 {
        fill: #0d0d0d;
      }

      .cls-3 {
        fill: #656a92;
      }

      .cls-4 {
        fill: #ffcae0;
      }

      .cls-5 {
        fill: #ffe46b;
      }
    </style>
  </defs>
  <g id="OBJECTS">
    <g>
      <g>
        <path class="cls-4" d="M4.68,9.93C-.69,14.02-.17,82.15,7.82,86.14c7.99,3.99,77.2,4.45,83.52-4.1,6.32-8.55,16.25-73.77,8.96-79.1C93.01-2.38,15.18,1.94,4.68,9.93Z"/>
        <path class="cls-2" d="M57.23,89.48c-21.34,0-45.41-1.72-48.99-6.56-2.97-4.02-5.45-19.35-6.77-32.35C-.23,33.96-.47,18.36.83,9.87c.6-3.93,1.49-6.27,2.71-7.16C6.88.26,23.99,0,31.18,0c25.46,0,64.6,2.95,71.87,8.48,3.18,2.42,3.14,25.28,1.28,45.07-.85,9.11-3.34,30.53-8.01,32.87-3.56,1.78-20.01,3.07-39.1,3.07ZM31.18.6C16.31.6,6.11,1.57,3.89,3.19c-.74.54-1.76,2.15-2.47,6.77-2.75,17.98,2.03,65.48,7.3,72.61,3.45,4.66,28.29,6.32,48.51,6.32,18.7,0,35.4-1.29,38.83-3.01,3-1.5,5.95-13.91,7.68-32.39,2.04-21.74,1.55-42.55-1.05-44.53C96.12,3.96,60.42.6,31.18.6Z"/>
        <g>
          <path class="cls-2" d="M86.73,33.96c-.29.78-.66,1.52-1.03,2.26-1.05,2.03-2,3.03-2,3.03-1.22,1.35-2.66,2.09-4.44,1.76-1.43-.32-2.21-1.71-2.77-3.11-.65-1.63-1.01-3.44-1.03-5.53-.02-1.64-.22-.67,2.04-2.29,15.09-10.92,6.08-22.91.14-12.11-1.34,2.43-2.11,4.89-2.32,5.8-.61,2.59-.92,4.93-.99,7.01,0,.01-.02.03-.02.04-1.75,3.98-5.06,10.58-8.97,9.78-4.69-1.07-4.6-6.51-3.97-11.27,2.33-.42,10.66-7.27,10.42-11.52-.27-4.89-7.71-6.45-10.67,6.98-.27,1.23-.54,2.56-.75,3.92-1.76,4.55-2.75,6.9-5.09,9.5-1.64,1.83-4.84,3.98-7.25,3.2-1.73-.65-2.69-3.56-2.93-5.39-.09-.69-.1-1.42-.09-1.7,5.01-.03,9.08-4.71,6.97-7.92-1.66-2.56-5.54-2.28-7.54,4.06-.93,2.87.18,2.86-1.25,2.57-2.32-.53-3.89-1.06-5.99-2.82-.8-.73-1.85-1.72-2.18-2.75-.03-.19-.17-.29-.33-.31-.11-.25-.28-.31-.52-.28-.29.04-.51.32-.47.61.68,4.79-.08,9.23-1.05,11.41-.13.28-.56,1.27-1.01,1.91-2.49,3.69-5.43,2.26-6.31-1.97-.32-1.72-.07-3.43.42-6.05.2-1.06.36-1.42-.05-1.67-.19-.11-.43-.1-.61.03-.19.14-.23.35-.3.56-.01.04-.1.31-.09.26-1.22,3.36-3.54,8.82-7.02,9.59-.51.09-.83.06-1.22-.06-.32-.12-.54-.26-.82-.58-.52-.62-.79-1.29-.95-2.06-.21-1.23-.13-2.45-.08-3.34.42-5.02,1.47-7.18,2.85-10.37,0,0,0,0,0,0,.27-.59-.6-1.06-.95-.44,0,.02,0,0-.02.03,0-.01-.07.11-.62,1.34-2.21,4.98-3.14,11.61-1.82,14.36,1.71,3.58,5.18,2.41,7.39-.06.7-.78,1.65-2.13,2.7-4.25-.02.35-.08.67-.03,1.76.28,5.69,5.52,9.18,9.11,2.33,1.4-2.66,1.95-6.81,1.81-9.73-.02-.41-.04-.77-.06-1.1,1.29,1.76,3.97,3.68,6.33,4.28,3.49.92,2.35-.2,2.74,2.78.08.62.45,2.01.82,2.81.47,1.01,1.15,2.46,2.53,3.05,2.91,1.24,8.85-1.09,12.32-9.12.03-.08.13-.3.26-.6-.13,3.95.77,7.54,4.23,8.81.65.24,1.48.42,2.16.36,3.52-.32,6.52-5.34,8-8.41.67,9.59,7.21,11.83,11.56,4.7.56-.91,1.85-3.53,1.84-3.91-.03-.59-.86-.68-1.04-.18ZM75.66,28.74c-.02.27.19-2.96.89-5.3,3.38-11.13,8.48-9.89,8.17-5.16-.05.58-.21,1.44-.79,2.87-1.55,3.87-4.56,6.33-8.1,8.94-.38.28-.32.49-.18-1.34ZM50.45,26.32c2.79,2-.53,6.84-5.37,6.9.32-4.27,3.05-8.44,5.37-6.9ZM70.72,18.26c-.36,3.45-6.83,8.96-9.17,9.93,2.65-15.9,9.41-14.11,9.17-9.93Z"/>
          <path class="cls-2" d="M27.15,72.84s-.02,0-.03.01c-.08.03-.08.03.03-.01Z"/>
          <path class="cls-2" d="M21.78,51.09c-.57.25-.86.37-.98.8-.1.34.08,1.06,1.11.96.37-.03,1.12-.16,2.04-.21-1.06,2.92-2.57,13.87-3.54,19.02-.43-.02-.87-.07-1.32-.14-.59-.09-1.14.41-1.2.97-.05.51.3,1.08.83,1.17.8.14,1.64.2,2.48.2.09,0,.17.01.26,0,2.08-.04,4.16-.45,5.66-1.01,0,0,.02,0,.03-.01.27-.09,1.04-.46,1.6-.84,3.98-2.71,6.28-15.05,1.73-19.63-2.61-2.62-7.24-1.91-8.7-1.28ZM28.68,68.97c-.28.39-.38.51-.73.88-.37.32-.44.37-.96.67-.24.12-.44.22-.81.36.53-.2-1.12.5-3.56.73.78-4.47,3.04-17.89,3.04-18.93,0,0,0-.02,0-.02.59.05,1.2.14,1.8.32,4.88,1.73,3.64,12.02,1.23,15.99Z"/>
          <path class="cls-2" d="M53.9,52.17c0-.43-.27-.85-.69-1.02-.56-.22-1.17.07-1.4.61-.2.47-.4.94-.61,1.4-.55,1.09-1.35,2.24-2.51,3.17-1.12-7.26-9.03-9.31-11.51-3.98-.99,2.13-1.19,4.63.42,6.34-.63,1.48-.97,2.76-1.28,4.42-1.96,10.4,3.4,12.14,6.75,9.88,3.76-2.54,5.9-9.61,5.8-14.15,3.76-2.29,5.02-6.3,5.02-6.68ZM46.68,57.57c-2.15,1-3.99,1.45-6.31.45.03-.05.06-.08.06-.09,1.28-.9-.33-2.95-1.67-1.32-.16-.37-.18-.86-.17-1.25.36-5.92,7.53-4.83,8.09,2.21ZM40.36,58.01s.02-.03.07-.08c0,0,0,0,0,0,0,0-.03.04-.07.08ZM46.52,61.85c-2.06,11.11-10.05,14.45-8.07,1.68.14-.75.2-1.17.61-2.57.69-2.04-.2-.27,3.84-.23,3.88.03,4.07-2.28,3.62,1.12Z"/>
          <path class="cls-2" d="M70.6,51.4c.31.21.39.29.52.41,1.23,1.4,3.43-.43.75-2.14-4.9-3.16-9.49,7.35-10.71,16.94-1.16-5.08-2.26-13.96-3.43-15.07-.53-.51-1.57-.42-1.86.78-.8,3.36-3.4,20.36-3.2,21,.21.66,1.1.79,1.48.15.31-.53.89-3.43,1-4.01,3.69-19.12.23-14.95,4.68.63.22.77.53,1.67.66,2.02.04.12.09.24.14.36.28.71.88.97,1.41.8.6-.19.84-.67.92-1.31.07-.6-.04-8.77,3.01-15.5.76-1.67,1.7-3.59,3.34-4.8.8-.53.97-.43,1.3-.23Z"/>
          <path class="cls-2" d="M77.29,50.5c-3.9,1.1-5.59,6.24-2.38,8.93-3.43,1.54-6.26,6.63-4.57,10.85,2.27,5.71,7.63,3.59,9.41.82.32-.5.61-1.01.88-1.54.69-1.37-1.3-2.25-1.91-1.05-.79,1.55-1.48,2.62-3.3,3.11-4.89,1-4.37-8.99.94-10.4.84-.14,2.2-.02,2.21-1.37.02-1.34-2.27-1.28-3.05-3.07-.64-1.84.69-4.04,2.85-4.32,1.86-.13,2.56,1.74,2.25,1.15.3.66-.02.84.13,1.32.28.92,1.98,1.21,1.98-.97,0-.35-.06-.7-.19-1.04-.69-1.78-2.92-3.09-5.26-2.44Z"/>
        </g>
      </g>
      <path class="cls-5" d="M16.87,18.32c-1.12-2.13-2.88-3.81-4.57-5.49-.41-.41-1.04.22-.63.63,1.63,1.63,3.34,3.24,4.43,5.31.27.51,1.04.06.77-.45Z"/>
      <path class="cls-5" d="M47.25,13.73c-1.02.91-2.07,1.79-3,2.8-.39.42.24,1.06.63.63.92-1.01,1.98-1.89,3-2.8.43-.38-.2-1.01-.63-.63Z"/>
      <path class="cls-5" d="M82.46,12.07c-1.03-.72-2.1-1.39-3.2-2-.5-.28-.95.49-.45.77,1.1.61,2.16,1.28,3.2,2,.47.33.92-.44.45-.77Z"/>
      <path class="cls-5" d="M93.8,44.04c-1.29.66-2.73.89-4.09,1.35-.54.19-.31,1.05.24.86,1.44-.49,2.94-.75,4.3-1.44.51-.26.06-1.03-.45-.77Z"/>
      <path class="cls-5" d="M91.86,64.29c-1.02-2.61-2.16-5.18-2.9-7.89-.15-.55-1.01-.32-.86.24.74,2.71,1.88,5.28,2.9,7.89.21.53,1.07.3.86-.24Z"/>
      <path class="cls-5" d="M11.78,58.89c-1.17-2.13-1.82-4.48-2.8-6.69-.23-.53-1-.07-.77.45.98,2.22,1.63,4.56,2.8,6.69.28.5,1.05.05.77-.45Z"/>
      <path class="cls-5" d="M14.47,67.48c-1.08.18-2.18.18-3.28.18-.58,0-.58.89,0,.89,1.18,0,2.35-.02,3.52-.22.57-.1.33-.95-.24-.86Z"/>
      <path class="cls-5" d="M44.95,80.47c-1.69.33-3.55.54-5,1.54-.47.33-.02,1.1.45.77,1.38-.96,3.18-1.14,4.79-1.45.56-.11.32-.97-.24-.86Z"/>
      <path class="cls-5" d="M73.16,80.87c-2.77-.7-5.51-1.52-8.19-2.5-.54-.2-.77.66-.24.86,2.69.98,5.42,1.8,8.19,2.5.56.14.79-.72.24-.86Z"/>
      <path class="cls-1" d="M32.51,12.72c-1.53.44-3.1.7-4.24,1.91-.39.42.24,1.05.63.63,1.02-1.09,2.48-1.29,3.85-1.68.55-.16.32-1.02-.24-.86Z"/>
      <path class="cls-1" d="M61.42,9.24c-1.22-1.08-2.38-2.22-3.6-3.3-.43-.38-1.06.25-.63.63,1.22,1.08,2.38,2.22,3.6,3.3.43.38,1.06-.25.63-.63Z"/>
      <path class="cls-1" d="M95.41,22.02c-.46-1.87-.8-3.77-2.06-5.29-.37-.44-1,.19-.63.63,1.14,1.38,1.42,3.21,1.83,4.9.14.56,1,.32.86-.24Z"/>
      <path class="cls-1" d="M86.6,71.64c-.74,1.79-2.21,3.13-3.1,4.84-.27.51.5.96.77.45.94-1.78,2.42-3.18,3.19-5.05.22-.53-.64-.76-.86-.24Z"/>
      <path class="cls-1" d="M58.44,84.21c-.86.14-1.71.27-2.58.28-.57,0-.58.9,0,.89.95-.01,1.88-.16,2.82-.32.57-.09.33-.95-.24-.86Z"/>
      <path class="cls-1" d="M22.9,81.78c-.69-.85-1.47-1.62-2.25-2.4-.41-.41-1.04.22-.63.63.77.77,1.56,1.55,2.25,2.4.36.45.99-.19.63-.63Z"/>
      <path class="cls-1" d="M8.79,41.18c-1.3,0-2.6.02-3.9.15-.57.06-.57.95,0,.89,1.3-.13,2.6-.15,3.9-.15.58,0,.58-.89,0-.89Z"/>
      <path class="cls-1" d="M6.38,26.52c-.12-.66-.13-1.31-.13-1.98,0-.58-.89-.58-.89,0,0,.75.03,1.48.17,2.22.11.56.97.32.86-.24Z"/>
      <path class="cls-3" d="M41.4,8.73c-.54-.97-.8-1.96-.69-3.07.06-.57-.83-.57-.89,0-.13,1.26.2,2.42.81,3.52.28.5,1.05.05.77-.45Z"/>
      <path class="cls-3" d="M94.14,30.61c-.58,1.26-1.51,2.29-2.25,3.45-.31.49.46.93.77.45.74-1.16,1.66-2.19,2.25-3.45.24-.52-.53-.97-.77-.45Z"/>
      <path class="cls-3" d="M29.19,83.13c-.87-.88-1.75-1.75-2.48-2.76-.33-.46-1.11-.02-.77.45.78,1.07,1.69,2.01,2.62,2.94.41.41,1.04-.22.63-.63Z"/>
      <path class="cls-3" d="M8.56,30.01c-.77,1.35-1.68,2.61-2.55,3.9-.32.48.45.93.77.45.87-1.29,1.78-2.54,2.55-3.9.28-.5-.49-.95-.77-.45Z"/>
      <path class="cls-3" d="M94.56,9.42c-.65.15-1.32.13-1.98.13-.58,0-.58.89,0,.89.74,0,1.49,0,2.22-.17.56-.13.32-.99-.24-.86Z"/>
      <path class="cls-3" d="M80.89,82.4h-1.65c-.58,0-.58.89,0,.89h1.65c.58,0,.58-.89,0-.89Z"/>
      <path class="cls-3" d="M12.82,77.48c-.41-1.33-.43-2.69-.43-4.08,0-.58-.89-.58-.89,0,0,1.46.03,2.91.47,4.32.17.55,1.03.31.86-.24Z"/>
    </g>
  </g>
</svg>