<?xml version="1.0" encoding="UTF-8"?>
<svg id="Layer_2" data-name="Layer 2" xmlns="http://www.w3.org/2000/svg" viewBox="0 0 134.59 78.37">
  <defs>
    <style>
      .cls-1 {
        fill: #0d0d0d;
      }

      .cls-2 {
        fill: #656a92;
      }

      .cls-3 {
        fill: #ffcae0;
      }

      .cls-4 {
        fill: #ffe46b;
      }
    </style>
  </defs>
  <g id="OBJECTS">
    <g>
      <path class="cls-4" d="M124.59,50.61s9.96-6.21,10-13.71c.04-8.85-8.14-12.47-8.14-12.47,0,0,14.4-13.63.89-21.47C121.85-.22,112.81.48,106.75.26c-9.42-.35-18.85-.29-28.28-.13-10.5.18-20.96-.06-31.46-.11-10-.05-20.08-.07-30.05.92-3.08.31-6.95.42-9.71,2.02-13.51,7.84.89,21.47.89,21.47C8.14,24.44-.04,28.05,0,36.91c.04,7.49,10,13.71,10,13.71,0,0-7.83,2.75-8.02,10.98-.2,8.24,6.93,14.71,20.87,15.88,13.24,1.12,26.65.9,39.92.83,16.29-.1,32.71.55,48.97-.83,13.95-1.18,21.07-7.65,20.87-15.88-.2-8.24-8.02-10.98-8.02-10.98Z"/>
      <g>
        <path class="cls-2" d="M24.02,40.87c-.02.23-.17,1.95-.17,1.95,0,0-.09,1.03-.09,1.03,1.43-.05,2.79-.13,4.06-.2-.97,4.89-1.33,5.18-2.2,10.55-.94,5.79-2.29,12.12-2.59,15.05-1.08,0-2.55-.01-4.55-.03-.05.56-.15,1.76-.3,3.03,4.06-.02,3.65.33,9.51-.16,1.8-.15,3.77-.41,5.29-1.5,6.14-4.39,8.3-19.35,7.15-24.57-1.65-7.44-13.43-5.34-16.1-5.16ZM36.91,52.13c-1.09,6.02-2.48,16.62-8.92,16.89-.91.04-1.22.08-1.5.12.72-3.98,3.89-20.09,4.01-20.82.52-3.25-.05-.49.75-4.75,4.48.12,6.93,1.59,5.66,8.56Z"/>
        <path class="cls-2" d="M55.59,40.87c-.02.23-.17,1.95-.17,1.95,0,0-.09,1.03-.09,1.03.86-.03,2.37-.22,4.08-.31-.99,5-1.34,5.25-2.22,10.66-.94,5.79-2.29,12.13-2.59,15.05-1.1,0-2.57-.01-4.55-.03-.05.56-.15,1.76-.3,3.03,1.53,0,8.88.38,12.56-.63,7.08-1.94,9.71-15.24,9.71-22.61,0-9.38-7.67-8.76-16.42-8.15ZM68.64,51.14c-.92,6.41-2.65,17.61-9.08,17.89-1.08.05-1.24.1-1.51.14.71-3.94,3.9-20.11,4.02-20.84.52-3.26-.05-.47.76-4.8,1.23.08,2.44.28,3.46.68,2.8,1.08,2.69,4.51,2.34,6.93Z"/>
        <path class="cls-2" d="M48.07,41.01c-.29.03-4.47,24.51-5.51,31.28,0,0,3.26.07,3.43.07.05-.2,5.07-30.97,5.02-31.38-.08,0-2.48.03-2.95.03Z"/>
        <path class="cls-2" d="M86.07,72.36s-.01,0-.02,0c0,.1,0,.1.02,0Z"/>
        <path class="cls-2" d="M91.1,40.98s-2.97.03-2.97.03c-.81,2.98-4.67,25.99-5.48,31.28,0,0,3.08.07,3.41.07.16-1.65,5.14-30.59,5.04-31.38Z"/>
        <path class="cls-2" d="M93.72,40.61l-.34,2.98c4.46.03,7.6.06,9.95.07-1.13,5.93-4.7,25.94-5.01,28.7.28,0,1.55-.01,3.53-.09.06-.29,1.2-7.69,1.53-9.6,0,0,2.56-14.62,3.33-18.99,2.79,0,4.11-.05,6.72-.19.62-.03.51.03.51-.56,0-.1.01-1.21.01-1.11,0,0,0-.06,0-.05.02-.52.03-1.04.05-1.56-.54-.13-20.29.41-20.29.41Z"/>
      </g>
      <path class="cls-3" d="M28.06,20.94c-1.32,1.65-.14,1.57-1.75-.49-2.25-2.85-7.28-1.67-2.72,9.31-.15-.4.73,1.94,1.77,3.15.58.66,1.2,1.03,2.05.48,1.71-1.13,4.69-6.91,4.69-10.95,0-2.86-2.31-3.65-4.04-1.49Z"/>
      <path class="cls-3" d="M112,21.87c-.5-2.24-3.31-2.72-4.5-.75-1.19,1.97-.34,5.76.53,7.54,2.82,5.75,3.51,4.21,4.05,3.55,3.61-4.38,4.02-6.07,4.02-6.07.32-.89.62-1.92.62-2.92,0-2.67-3.06-3.84-4.72-1.35Z"/>
      <path class="cls-1" d="M100.8,27.83c.9-1.27,1.84-3.27,1.85-3.55.02-.63-.85-.82-1.09-.22-.3.76-1.26,2.83-2.36,3.91-.92.86-2.08,1.32-3.28,1.31-4.84-.19-5.23-6.16-4.17-10.79.29-1.24.26-1.09.46-1.51.17-.36.33-.74.48-1.12.34-.91-.23-1.12-.54-1.07-.5.08-.74.6-1.09,1.84-.04.14-.08.27-.11.41-2.66,5.61-6.62,9.16-6.25,8.79-.79.75-1.88,1.57-3.04,1.58-.23-.01-.46-.04-.65-.23-.37-.41-.41-1.15-.4-1.71,0-.43.05-.78.06-.85.37-2.29.94-3.95,1.77-5.95,1.04-2.26,1.53-2.73,2.49-4.33.3-.5.61-.98.53-1.39-.05-.27-.3-.5-.57-.52-.37-.03-.4.1-2.87,1.1-2.1.78-3.24,1.17-5.5,1.58-.96.18-.8.2-.86-.23-.46-3.44-2.73-6.71-6.18-8.1-4.31-1.74-6.87.88-6.99,3.25-.28,5.28,7.87,6.86,11.73,6.52.5-.05.42-.11.42.29,0,1.64-.64,3.88-.58,3.69-.7,2.33-1.75,4.84-4.52,6.34-.37.21-.87.42-.87.42-1.41.54-2.69.62-3.99-.14-4.97-3.17-.65-11.62-1.23-10.37.12-.26.38-.8.58-1.01.48-.19.25-1.1-.36-.88-.1-.08-.22-.13-.38-.13-.58,0-3.4,1.04-3.73,1.17-.69.27-2.11.8-4.68,2.24-.28-1.72-.67-2.88-1.29-4.43,0,0-1.47-3.19-1.47-3.19-.12-.34-.23-.76-.64-.86-.5-.12-.71.34-.86.62-2.91,5.42-5.01,7.78-5.01,7.78,0,0-.03.04-.03.04-3.03,3.71-3.5,2.96-3.5,2.96,0,0-.03-.05-.03-.04,0,0-.23-.66-.13-1.61.42-4.44,3.28-8.08,4.44-10.49.92-1.9.25-3.33-2.14-2.38-1.62.65-2.9,1.7-2.81,1.63-.36.26-1.29,1.04-1.68,1.66-1.17,1.87.58,1.88.46,1.1.37-.96,2.7-2.65,4.24-3.28-.05.02,2.7-1.12.05-.02.17-.07.95-.39,1.12-.32,0,0,0,0,0,0,0,0,.23.24-.57,1.71-1.15,2.11-3.53,5.58-4.11,9.21.03-.16-.24.97-.11,2.42.14,1.66,1.58,2.51,3.95.06,2.66-2.75,4.58-5.79,6.49-9.32.35.78.7,1.29,1.55,3.45.26.68.46,1.38.65,2.09.51,2.32.57,1.58-.89,2.65.12-.08-.86.62-.71.52-.5.36-1.82,1.4-2.76,2.26-2.83,2.57-5.6,5.91-5.39,9.72.4,7.84,12.42,4.87,11.37-12.06-.05-.83-.21-.6.5-1.01,2.58-1.39,3.72-1.87,5.62-2.52.3-.1.91-.32,1.41-.47-.18.34-.38.76-.57,1.28-5.06,13.02,10.54,16.89,13.52,1.44.69-3.64-1.45-1.57,4.57-3.39,6.55-2.01,2.78-3.09-.07,6.53.01-.04,0,0,0-.01-1.05,3.48-1.05,7.42,2.45,6.53,2.16-.55,4.38-3.14,6-5.3,2.24-2.96,1.58-2.98,1.61-.79.03,1.45.1,1.76.21,2.64.78,5.99,7.4,7.1,10.43,2.84ZM73.41,15.46c-3.88-.12-9.8-1.32-9.8-5.19.2-4.55,7.78-3.79,10.4,2.68.22.58.35,1.08.33,1.02.12.49.21,1.03.24,1.43-.87.08-.61.04-1.18.06ZM50.31,33.74c-.79.73-1.75,1.21-2.8,1.34-1.09.09-1.53-.14-1.95-.68-.8-1.15-.72-2.99-.71-2.71.16-4.69,4.65-8.43,8.43-11.19.22-.16.46-.32.69-.47.35,4.74-.28,10.42-3.66,13.7Z"/>
      <g>
        <path class="cls-3" d="M24.9,40.57c-.02.23-.17,1.95-.17,1.95,0,0-.09,1.03-.09,1.03,1.43-.05,2.79-.13,4.06-.2-.97,4.89-1.33,5.18-2.2,10.55-.94,5.79-2.29,12.12-2.59,15.05-1.08,0-2.55-.01-4.55-.03-.05.56-.15,1.76-.3,3.03,4.06-.02,3.65.33,9.51-.16,1.8-.15,3.77-.41,5.29-1.5,6.14-4.39,8.3-19.35,7.15-24.58-1.65-7.44-13.43-5.34-16.1-5.16ZM37.8,51.84c-1.09,6.02-2.48,16.62-8.92,16.89-.91.04-1.22.08-1.5.12.72-3.98,3.89-20.09,4.01-20.82.52-3.25-.05-.49.75-4.75,4.48.12,6.93,1.59,5.66,8.56Z"/>
        <path class="cls-3" d="M56.47,40.57c-.02.23-.17,1.95-.17,1.95,0,0-.09,1.03-.09,1.03.86-.03,2.37-.22,4.08-.31-.99,5-1.34,5.25-2.22,10.66-.94,5.79-2.29,12.13-2.59,15.05-1.1,0-2.57-.01-4.55-.03-.05.56-.15,1.76-.3,3.03,1.53,0,8.88.38,12.56-.63,7.08-1.94,9.71-15.24,9.71-22.61,0-9.38-7.67-8.76-16.42-8.15ZM69.52,50.85c-.92,6.41-2.65,17.61-9.08,17.89-1.08.05-1.24.1-1.51.14.71-3.94,3.9-20.11,4.02-20.84.52-3.26-.05-.47.76-4.8,1.23.08,2.44.28,3.46.68,2.8,1.08,2.69,4.51,2.34,6.93Z"/>
        <path class="cls-3" d="M48.95,40.72c-.29.03-4.47,24.51-5.51,31.28,0,0,3.26.07,3.43.07.05-.2,5.07-30.97,5.02-31.38-.08,0-2.48.03-2.95.03Z"/>
        <path class="cls-3" d="M86.96,72.07s-.01,0-.02,0c0,.1,0,.1.02,0Z"/>
        <path class="cls-3" d="M91.98,40.69s-2.97.03-2.97.03c-.81,2.98-4.67,25.99-5.48,31.28,0,0,3.08.07,3.41.07.16-1.65,5.14-30.59,5.04-31.38Z"/>
        <path class="cls-3" d="M94.6,40.31l-.34,2.98c4.46.03,7.6.06,9.95.07-1.13,5.93-4.7,25.94-5.01,28.7.28,0,1.55-.01,3.53-.09.06-.29,1.2-7.69,1.53-9.6,0,0,2.56-14.62,3.33-18.99,2.79,0,4.11-.05,6.72-.19.62-.03.51.03.51-.56,0-.1.01-1.21.01-1.11,0,0,0-.06,0-.05.02-.52.03-1.04.05-1.56-.54-.13-20.29.41-20.29.41Z"/>
      </g>
      <path class="cls-1" d="M24.18,32.61c.58.66,1.2,1.03,2.05.48,1.71-1.13,4.69-6.91,4.69-10.95,0-2.86-2.31-3.65-4.04-1.49-1.32,1.65-.14,1.57-1.75-.49-2.25-2.85-7.28-1.67-2.72,9.31-.15-.4.73,1.94,1.77,3.15ZM22.23,19.81c.46-.24,1.01-.08,1.46.18,1.47.92,1.88,2.85,1.97,3.13.04.42.62.53.8.13.14-.28.78-2.52,2.23-2.95,1.48-.36,1.47,1.85,1.27,3.37-.72,4.04-3.63,9.22-4.7,8.81-.71-.32-1.81-2.75-2.09-3.38,0,0-.23-.56-.23-.56-.73-1.82-2.6-7.54-.71-8.73Z"/>
      <path class="cls-1" d="M110.82,21.57c-.5-2.24-3.31-2.72-4.5-.75-1.19,1.97-.34,5.76.53,7.54,2.82,5.75,3.51,4.21,4.05,3.55,3.61-4.38,4.02-6.07,4.02-6.07.32-.89.62-1.92.62-2.92,0-2.67-3.06-3.84-4.72-1.35ZM109.99,31.69s.02-.02.03-.03c-.01.01-.02.03-.03.03ZM114.69,23.18c-.17,1.95-1.19,3.75-1.06,3.47-.98,1.93-3.48,4.84-3.64,5.04,0,0-.01,0-.02,0-.81-.75-1.6-2.25-2.22-3.42,0,0-.97-1.59-1.16-4.65-.09-3.88,2.56-3.63,3.24-2.35.29.62.26,1.19.24,1.83-.03,1.33.89.94.89.51.84-3.82,3.88-2.89,3.73-.42Z"/>
    </g>
  </g>
</svg>