<?xml version="1.0" encoding="UTF-8"?>
<svg id="Layer_2" data-name="Layer 2" xmlns="http://www.w3.org/2000/svg" viewBox="0 0 163.42 221.47">
  <defs>
    <style>
      .cls-1 {
        fill: #00a556;
      }

      .cls-2 {
        fill: #fff;
      }

      .cls-3 {
        fill: #ff5c8e;
      }

      .cls-4 {
        fill: #282828;
      }

      .cls-5 {
        fill: #ffea94;
      }

      .cls-6 {
        fill: #ffd215;
      }
    </style>
  </defs>
  <g id="Layer_10" data-name="Layer 10">
    <g>
      <g>
        <path class="cls-2" d="M135.31,27.58c-14.38-14.24-33.41-22.08-53.59-22.08h-.76C39.35,5.91,5.5,40.48,5.5,82.57v132.9c0,.21.17.38.37.38h24.58c.09.08.2.12.32.12h101.87c.12,0,.23-.05.32-.12h24.58c.21,0,.37-.17.37-.38V81.71c0-20.47-8.03-39.69-22.61-54.13Z"/>
        <path class="cls-2" d="M132.65,221.47H30.77c-.41,0-.82-.04-1.21-.12H5.87c-3.24,0-5.87-2.64-5.87-5.88V82.57C0,37.48,36.29.44,80.91,0h.79c21.67,0,42.08,8.4,57.49,23.67,15.63,15.48,24.24,36.09,24.24,58.04v133.76c0,3.24-2.64,5.88-5.87,5.88h-23.69c-.4.08-.8.12-1.21.12ZM31.62,210.47h100.19c.38-.08.77-.12,1.17-.12h19.45V81.71c0-18.99-7.45-36.83-20.98-50.22h0c-13.34-13.21-31-20.49-49.72-20.49h-.73C42.41,11.38,11,43.48,11,82.57v127.78h19.45c.39,0,.79.04,1.17.12Z"/>
      </g>
      <g>
        <path class="cls-6" d="M157.55,215.47H5.88V82.57C5.88,40.69,39.56,6.28,80.96,5.88c.25,0,.51,0,.76,0,20.09,0,39,7.78,53.33,21.97,14.51,14.37,22.5,33.5,22.5,53.86v133.76Z"/>
        <g>
          <path class="cls-4" d="M32.62,215.47h101.87V81.71c0-28.09-22.85-50.94-50.94-50.94s-50.94,22.85-50.94,50.94v133.76Z"/>
          <path class="cls-4" d="M134.49,215.85H32.62c-.21,0-.37-.17-.37-.38V81.71c0-28.29,23.02-51.31,51.31-51.31s51.31,23.02,51.31,51.31v133.76c0,.21-.17.38-.37.38ZM32.99,215.1h101.12V81.71c0-27.88-22.68-50.56-50.56-50.56s-50.56,22.68-50.56,50.56v133.39Z"/>
        </g>
        <g>
          <path class="cls-1" d="M30.77,215.47h101.87V81.71c0-28.09-22.85-50.94-50.94-50.94s-50.94,22.85-50.94,50.94v133.76Z"/>
          <path class="cls-4" d="M132.65,215.85H30.77c-.21,0-.37-.17-.37-.38V81.71c0-28.29,23.02-51.31,51.31-51.31s51.31,23.02,51.31,51.31v133.76c0,.21-.17.38-.37.38ZM31.15,215.1h101.12V81.71c0-27.88-22.68-50.56-50.56-50.56s-50.56,22.68-50.56,50.56v133.39Z"/>
        </g>
        <g>
          <g>
            <path class="cls-4" d="M26.92,40.22c-.19-.19-.32-.38-.39-.58-.07-.19-.06-.44.02-.75.08-.3.29-.67.63-1.08.46-.57.86-.9,1.21-1.01s.63-.12.84-.03c.21.08.32.13.33.14.01.01.16.13.45.37.29.23.64.52,1.06.87.42.35.83.69,1.25,1.04.42.35.91.75,1.48,1.2l1.67-2.12-4.09-3.07c-.2-.16-.34-.32-.43-.5-.08-.17-.1-.41-.04-.72.05-.3.23-.67.54-1.1.32-.44.62-.73.89-.87.27-.14.52-.21.73-.2.22.01.44.09.68.23l9.41,7.26c.29.21.5.42.64.63.14.21.19.48.15.79-.04.31-.24.67-.6,1.08-.36.41-.7.67-1.01.8-.32.13-.59.18-.83.15-.24-.03-.49-.12-.76-.27l-3.77-3.09-1.72,2.17,3.88,3.12c.17.19.27.39.32.58.04.2.02.44-.08.74-.1.3-.33.66-.7,1.08-.37.42-.71.69-1.01.82-.3.13-.56.18-.77.15-.21-.03-.44-.12-.69-.27l-9.3-7.57Z"/>
            <path class="cls-4" d="M37.03,48.44c-.06,0-.12,0-.17-.01-.26-.04-.54-.14-.83-.32l-9.34-7.6s-.02-.02-.03-.03c-.23-.23-.39-.48-.48-.72-.09-.26-.09-.58,0-.96.09-.37.33-.77.71-1.23.51-.63.96-1,1.4-1.13.44-.13.8-.14,1.09-.02.36.14.39.16.44.2.03.02.17.14.45.36.29.23.65.53,1.07.87l1.25,1.04c.34.28.74.6,1.18.96l1.2-1.52-3.79-2.84c-.25-.19-.43-.41-.54-.63-.12-.25-.14-.56-.07-.94.06-.36.26-.77.61-1.25.36-.49.69-.81,1.02-.99.33-.17.66-.25.92-.24.28.01.57.11.85.28l9.44,7.28c.31.23.56.48.73.73.19.29.26.64.21,1.04-.05.4-.28.81-.69,1.28-.4.45-.78.75-1.15.9-.37.15-.71.21-1.01.18-.29-.03-.58-.13-.9-.31l-3.53-2.89-1.25,1.58,3.59,2.89c.26.29.39.54.45.8.06.26.03.57-.09.94-.11.35-.37.75-.77,1.21-.41.47-.79.77-1.15.92-.29.12-.56.18-.8.18ZM27.17,39.94l9.28,7.56c.16.1.35.17.5.19.1.01.28,0,.58-.12.25-.1.54-.35.87-.72.41-.47.57-.77.62-.94.09-.29.09-.46.07-.55-.03-.13-.11-.27-.23-.42l-3.83-3.08c-.16-.13-.19-.36-.06-.52l1.72-2.17c.06-.08.15-.13.25-.14.09,0,.2.02.28.08l3.77,3.09c.17.09.38.16.57.18.17.02.39-.02.64-.13.26-.1.55-.34.87-.7.38-.43.49-.72.51-.88.03-.22,0-.4-.09-.54-.11-.17-.3-.35-.55-.54l-9.42-7.26c-.14-.08-.31-.14-.47-.15-.15,0-.33.05-.54.16-.15.08-.41.28-.76.76-.27.38-.43.69-.48.94-.05.29-.01.43.01.49.06.12.16.24.32.36l4.09,3.07c.08.06.13.15.15.25.01.1-.01.2-.08.28l-1.67,2.12c-.06.08-.15.13-.25.14-.1,0-.2-.02-.28-.08-.57-.46-1.06-.86-1.48-1.21l-1.25-1.04c-.42-.34-.77-.63-1.06-.87-.3-.24-.45-.37-.47-.38.02.02-.06,0-.22-.07-.12-.05-.33-.03-.6.05-.19.06-.52.26-1.03.89-.39.47-.52.77-.56.94-.07.29-.05.45-.02.53.05.14.14.28.28.42Z"/>
          </g>
          <g>
            <path class="cls-4" d="M37.08,30c-.23-.19-.38-.38-.45-.58-.08-.2-.07-.44.03-.72.09-.28.34-.61.74-.97.4-.37.87-.77,1.39-1.21.53-.44,1.03-.86,1.52-1.27.49-.41,1.04-.87,1.67-1.39.37-.26.7-.46.99-.61.29-.14.58-.22.88-.25.3-.02.56.07.79.28.22.21.32.44.29.67-.03.24-.12.46-.26.66-.14.2-.35.43-.63.68l-3.1,2.63c.35.29.63.53.84.72.21.19.39.36.53.51.13.14.29.32.48.55.19.23.44.51.74.86l1.5-1.13c.31-.21.58-.37.81-.47.23-.1.46-.16.68-.18.22-.02.41.06.56.24.2.23.24.48.14.75-.1.27-.25.5-.43.69-.18.19-.3.32-.34.37-.04.03-.15.12-.32.25-.17.14-.36.29-.57.45-.21.16-.48.36-.8.6.31.38.57.7.78.94.21.25.37.47.5.67.13.18.29.39.46.65.18.26.39.58.64.97l2.66-2.17c.34-.28.65-.49.92-.63.27-.14.55-.23.83-.25.28-.02.52.08.72.32.21.22.29.47.24.74-.05.27-.16.52-.32.75-.17.23-.4.49-.71.79l-4.21,3.53c-.41.33-.77.57-1.07.73-.31.16-.62.23-.94.23-.32,0-.6-.17-.83-.5-.3-.45-.79-1.15-1.46-2.1-.67-.94-1.5-2.02-2.5-3.22-.99-1.2-2.12-2.4-3.38-3.59Z"/>
            <path class="cls-4" d="M45.26,39.78h-.02c-.31,0-.75-.12-1.13-.67-.3-.46-.79-1.15-1.45-2.09-.66-.93-1.5-2.01-2.48-3.2-.98-1.18-2.1-2.38-3.34-3.55-.27-.23-.46-.47-.56-.73-.11-.28-.1-.61.02-.97.12-.35.39-.72.85-1.13.41-.37.87-.78,1.41-1.22l1.52-1.27c.49-.41,1.04-.87,1.67-1.39.41-.29.76-.5,1.06-.65.33-.16.67-.26,1.01-.29.42-.04.78.1,1.07.38.39.37.44.75.4,1-.04.3-.15.57-.33.83-.16.23-.39.48-.68.74l-2.77,2.35c.2.17.37.31.51.43.23.2.42.38.56.54.13.14.29.32.48.55.14.16.31.36.51.59l1.22-.92c.34-.23.63-.4.88-.51.27-.12.54-.19.8-.21.33-.02.64.1.88.37.29.35.36.74.21,1.14-.12.32-.29.59-.51.82-.17.18-.28.29-.32.35-.02.02-.04.05-.07.07-.04.03-.14.11-.3.24-.17.14-.37.29-.58.46l-.49.37c.2.25.38.46.53.63.22.26.4.5.53.71.12.16.28.38.46.65.12.18.26.39.41.62l2.33-1.9c.37-.3.69-.52.99-.67.32-.17.65-.26.98-.29.39-.03.76.13,1.03.45.28.29.4.66.32,1.05-.06.32-.19.62-.39.9-.18.25-.42.53-.75.84l-4.22,3.54c-.44.36-.81.61-1.14.78-.35.18-.72.27-1.09.27ZM43.94,23.36s-.04,0-.06,0c-.25.02-.5.09-.74.21-.27.13-.58.33-.94.58-.6.5-1.16.96-1.64,1.37l-1.52,1.27c-.52.44-.98.84-1.38,1.2-.44.4-.59.67-.64.82-.06.2-.08.35-.03.47.05.14.17.28.34.42,0,0,.01.01.02.02,1.26,1.19,2.41,2.41,3.41,3.62.99,1.2,1.84,2.29,2.51,3.24.67.95,1.16,1.65,1.46,2.11.21.31.42.34.53.34.26,0,.5-.06.75-.19.28-.14.62-.37,1.01-.69l4.2-3.52c.27-.26.49-.51.64-.72.13-.19.22-.38.26-.6.02-.1.02-.24-.14-.42-.13-.16-.26-.21-.42-.2-.23.02-.46.09-.69.2-.25.13-.54.33-.86.59l-2.66,2.17c-.08.07-.19.1-.3.08-.11-.02-.2-.08-.26-.17-.25-.38-.46-.7-.63-.96-.17-.25-.32-.47-.45-.64-.14-.21-.3-.42-.49-.65-.21-.25-.47-.56-.78-.95-.06-.08-.09-.18-.08-.28.01-.1.07-.19.15-.25l.8-.6c.2-.15.39-.3.56-.44.14-.11.24-.19.29-.24.06-.07.17-.19.33-.36.15-.15.27-.35.35-.57.04-.1.06-.22-.08-.38-.09-.1-.17-.12-.25-.11-.18.01-.37.06-.56.15-.21.09-.46.24-.74.43l-1.49,1.12c-.16.12-.38.1-.51-.05-.3-.35-.55-.63-.75-.86-.19-.22-.34-.4-.47-.54-.13-.14-.29-.3-.5-.48-.21-.19-.49-.42-.84-.71-.08-.07-.13-.18-.13-.29s.05-.22.13-.29l3.1-2.63c.24-.22.44-.43.57-.61.11-.15.17-.32.2-.5,0-.05.02-.16-.17-.35-.13-.12-.27-.18-.44-.18Z"/>
          </g>
          <g>
            <path class="cls-4" d="M56.96,28.12s.15-.08.41-.21c.26-.13.57-.29.95-.48.38-.19.75-.38,1.12-.57.37-.19.81-.41,1.32-.68.33-.16.63-.27.88-.33.25-.06.51-.04.77.04.26.08.48.3.66.64.18.33.21.64.09.93-.11.29-.3.54-.54.74-.25.2-.59.43-1.02.67-.6.35-1.14.67-1.62.97-.47.3-.99.65-1.53,1.03-.55.39-1.06.79-1.53,1.2-.48.42-.9.69-1.28.83-.38.13-.7.18-.96.15-.26-.03-.47-.1-.62-.21-.15-.1-.24-.18-.26-.23-.07-.1-.1-.25-.1-.44,0-.2.09-.38.28-.54.07-.05,0-.29-.2-.71-.2-.42-.49-.95-.86-1.59-.37-.64-.79-1.32-1.26-2.06-.46-.73-.94-1.45-1.42-2.16-.48-.71-.92-1.33-1.31-1.88-.39-.54-.71-.93-.96-1.17-.37-.37-.55-.71-.54-1.01,0-.3.09-.56.26-.79.17-.22.43-.45.78-.7.39-.24.74-.41,1.05-.49.31-.08.64-.08.99,0s.69.34,1.03.76c.44.56.96,1.22,1.55,1.97.6.75,1.23,1.65,1.91,2.67.67,1.03,1.33,2.23,1.98,3.61Z"/>
            <path class="cls-4" d="M54.85,33.45c-.07,0-.15,0-.22-.01-.32-.04-.58-.13-.78-.27-.23-.16-.34-.26-.39-.38-.08-.11-.14-.33-.14-.6,0-.26.09-.49.28-.7-.02-.07-.07-.19-.17-.39-.19-.4-.48-.93-.85-1.56-.37-.63-.79-1.32-1.25-2.05-.46-.73-.93-1.45-1.41-2.15-.48-.7-.91-1.33-1.3-1.87-.38-.52-.69-.9-.92-1.12-.45-.45-.66-.87-.65-1.28,0-.38.12-.72.33-1,.19-.25.47-.51.86-.78.44-.28.82-.45,1.16-.54.37-.1.76-.1,1.17,0,.43.1.85.4,1.23.89.44.56.96,1.22,1.55,1.97.6.76,1.25,1.67,1.92,2.7.62.95,1.24,2.06,1.84,3.31l2.13-1.08c.37-.19.81-.41,1.32-.68.37-.18.69-.3.98-.36.32-.07.64-.06.96.05.35.12.64.39.87.82.23.43.27.85.11,1.24-.14.35-.36.65-.66.89-.27.22-.62.45-1.07.71-.6.34-1.13.66-1.6.96-.47.3-.98.64-1.52,1.02-.54.38-1.04.77-1.5,1.18-.52.45-.97.75-1.4.9-.34.12-.64.18-.91.18ZM54.11,32.42s.03.04.16.12c.1.07.26.12.46.15.2.03.46-.02.78-.13.33-.12.72-.37,1.16-.75.48-.42,1.01-.83,1.57-1.23.55-.39,1.07-.74,1.55-1.04.48-.31,1.02-.63,1.63-.98.41-.23.73-.45.96-.64.2-.16.34-.36.43-.59.05-.12.09-.31-.07-.61-.14-.25-.29-.41-.45-.46-.19-.06-.38-.07-.57-.03-.23.05-.5.15-.8.3-.5.26-.94.49-1.32.67l-2.48,1.26c-.09.05-.2.05-.29.02-.1-.03-.17-.1-.22-.2-.63-1.35-1.29-2.55-1.95-3.57-.67-1.02-1.3-1.91-1.89-2.65-.6-.76-1.12-1.41-1.55-1.97-.28-.35-.55-.56-.82-.63-.29-.07-.55-.07-.8,0-.27.07-.59.22-.94.44-.3.21-.54.42-.68.61-.12.16-.18.34-.18.57,0,.19.15.45.43.74.26.25.58.65,1,1.22.39.55.83,1.17,1.32,1.89.48.71.96,1.44,1.43,2.17.47.74.89,1.43,1.26,2.07.38.66.67,1.19.87,1.61.18.38.44.91.09,1.17-.11.1-.12.19-.12.24,0,.18.04.23.04.24h0ZM53.72,31.36s-.02.02-.03.03c.01-.01.02-.02.03-.03Z"/>
          </g>
          <g>
            <path class="cls-4" d="M68.5,23.97s.16-.04.44-.12c.28-.08.62-.17,1.03-.28.41-.11.81-.22,1.21-.32.4-.11.88-.24,1.43-.39.36-.09.67-.13.93-.14.26,0,.51.06.74.2.23.13.4.39.51.76.11.36.07.67-.1.93-.17.26-.4.46-.69.61-.29.15-.66.3-1.13.45-.66.21-1.26.42-1.78.62-.53.2-1.1.43-1.71.69-.62.26-1.2.55-1.75.86-.55.31-1.03.49-1.42.54-.4.05-.72.04-.97-.05-.25-.09-.44-.2-.56-.33-.13-.13-.2-.23-.21-.27-.04-.11-.05-.26,0-.46.04-.19.17-.35.38-.47.08-.04.06-.28-.05-.73-.11-.45-.28-1.03-.51-1.73-.23-.7-.5-1.46-.81-2.27-.3-.81-.62-1.62-.94-2.41-.33-.79-.62-1.49-.9-2.11-.27-.61-.5-1.06-.7-1.35-.28-.44-.39-.8-.32-1.1.07-.29.2-.53.41-.72.21-.18.51-.36.91-.52.43-.16.81-.25,1.12-.26.32-.02.64.05.97.21s.61.47.85.96c.31.64.68,1.39,1.11,2.25.43.86.87,1.87,1.31,3.01.45,1.15.84,2.46,1.19,3.94Z"/>
            <path class="cls-4" d="M65.8,28.79c-.25,0-.47-.03-.67-.1-.31-.11-.54-.25-.71-.43-.19-.2-.27-.32-.3-.45-.06-.13-.07-.35-.01-.62.04-.18.14-.42.42-.63,0-.07-.03-.2-.08-.41-.11-.44-.28-1.01-.51-1.7-.23-.7-.5-1.45-.8-2.26-.3-.81-.62-1.61-.94-2.4-.32-.79-.62-1.49-.89-2.1-.26-.59-.49-1.02-.66-1.29-.35-.54-.47-.99-.38-1.39.08-.37.26-.68.53-.91.24-.21.57-.4,1.01-.59.49-.18.89-.27,1.25-.29.39-.02.77.06,1.15.24.4.19.75.57,1.02,1.13.31.64.68,1.39,1.11,2.25.43.86.88,1.89,1.33,3.04.41,1.06.79,2.28,1.11,3.62.02,0,.04-.01.07-.02.28-.08.62-.17,1.03-.28l1.21-.32c.4-.11.88-.24,1.43-.39.4-.1.74-.15,1.03-.15.31-.01.64.08.93.25.32.19.55.52.69.98.14.47.09.88-.15,1.24-.2.31-.48.56-.83.74-.31.16-.7.31-1.19.47-.65.21-1.24.42-1.76.61-.52.2-1.09.43-1.7.69-.6.26-1.18.54-1.71.84-.59.33-1.11.53-1.55.59-.17.02-.33.03-.47.03ZM64.83,27.59s.03.04.13.16c.09.09.23.17.42.24.19.07.46.08.79.03.35-.05.78-.22,1.29-.5.56-.31,1.16-.61,1.79-.88.62-.27,1.2-.5,1.73-.7.53-.2,1.13-.41,1.8-.63.45-.14.81-.29,1.08-.42.23-.12.41-.28.55-.49.07-.11.15-.28.05-.61-.08-.28-.2-.46-.34-.54-.17-.1-.37-.14-.55-.15-.23,0-.52.05-.85.13-.54.15-1.02.28-1.43.39l-1.21.32c-.41.11-.75.2-1.03.28-.29.08-.44.12-.46.12-.1.02-.2,0-.28-.05-.08-.05-.15-.14-.17-.23-.34-1.45-.73-2.76-1.17-3.89-.44-1.13-.88-2.13-1.3-2.98-.43-.86-.8-1.61-1.11-2.25-.2-.4-.43-.66-.67-.78-.27-.13-.53-.19-.79-.17-.28.02-.62.1-1.01.24-.34.14-.61.3-.79.45-.15.13-.24.3-.29.52-.04.19.05.47.27.81.2.3.44.76.72,1.4.27.62.57,1.32.9,2.12.33.8.64,1.6.95,2.42.31.82.58,1.58.81,2.28.24.71.41,1.3.52,1.76.1.41.24.98-.16,1.16-.13.07-.16.16-.17.21-.04.18-.01.24-.01.24h0ZM64.67,26.48s-.03.01-.04.02c.01,0,.03-.02.04-.02Z"/>
          </g>
          <g>
            <path class="cls-4" d="M74.17,18.77c-.07-1.35.11-2.6.53-3.75.42-1.15,1.02-2.07,1.79-2.78.78-.71,1.66-1.09,2.64-1.13.73-.04,1.43.12,2.11.47.68.35,1.29.85,1.83,1.51.54.66.98,1.43,1.31,2.31.33.88.52,1.83.57,2.84.05,1.01-.05,1.98-.29,2.89-.24.91-.6,1.72-1.08,2.43-.47.71-1.03,1.27-1.67,1.68-.64.41-1.32.64-2.05.67-.98.05-1.89-.24-2.74-.87-.84-.63-1.53-1.49-2.06-2.58-.53-1.09-.83-2.32-.89-3.69ZM78.05,18.48c.05.98.16,1.88.34,2.69.17.81.39,1.45.65,1.92.26.47.53.7.82.68.29-.01.54-.27.75-.76.21-.49.37-1.15.46-1.98.09-.83.12-1.73.07-2.71-.05-1-.16-1.9-.34-2.7-.18-.8-.39-1.45-.65-1.92-.26-.48-.54-.71-.82-.7-.29.01-.54.27-.75.77-.21.5-.37,1.16-.46,1.98-.1.82-.12,1.73-.07,2.72Z"/>
            <path class="cls-4" d="M79.65,26.29c-.98,0-1.91-.32-2.75-.95-.89-.66-1.62-1.58-2.17-2.72-.55-1.13-.86-2.42-.93-3.84h0c-.07-1.4.12-2.71.55-3.9.44-1.2,1.07-2.18,1.9-2.93.84-.76,1.81-1.18,2.87-1.23.8-.04,1.56.13,2.3.51.72.37,1.38.91,1.95,1.61.56.69,1.02,1.5,1.37,2.42.34.91.54,1.91.6,2.96.05,1.05-.05,2.06-.3,3-.25.95-.63,1.8-1.13,2.54-.5.75-1.1,1.35-1.78,1.79-.69.45-1.45.69-2.24.73-.08,0-.15,0-.23,0ZM74.55,18.75c.06,1.31.35,2.51.86,3.55.5,1.03,1.15,1.85,1.94,2.44.78.58,1.59.84,2.49.8.66-.03,1.29-.24,1.87-.61.59-.38,1.12-.91,1.56-1.58.45-.67.79-1.45,1.02-2.32.23-.87.33-1.8.28-2.77-.05-.97-.23-1.89-.55-2.73-.32-.84-.74-1.58-1.25-2.21-.51-.62-1.08-1.09-1.71-1.42-.62-.32-1.27-.46-1.92-.43-.9.04-1.69.38-2.4,1.04-.73.66-1.3,1.55-1.69,2.63-.4,1.09-.57,2.31-.5,3.6h0ZM79.83,24.15c-.42,0-.8-.29-1.12-.88-.28-.5-.51-1.18-.69-2.03-.18-.83-.3-1.76-.34-2.75h0c-.05-1.01-.03-1.95.07-2.78.1-.85.26-1.55.49-2.08.27-.64.64-.98,1.08-1,.42-.03.84.28,1.17.89.28.51.51,1.18.69,2.02.18.82.29,1.75.34,2.76.05.99.03,1.93-.07,2.77-.1.87-.26,1.56-.49,2.09-.27.63-.64.97-1.08.99-.02,0-.03,0-.04,0ZM79.35,13.38h0c-.09,0-.26.15-.42.55-.2.47-.34,1.1-.43,1.88-.09.8-.12,1.69-.07,2.66h0c.05.95.16,1.84.33,2.63.17.77.37,1.39.62,1.82.17.31.37.48.48.49.1,0,.26-.15.42-.54.2-.46.34-1.09.43-1.87.09-.8.11-1.69.07-2.65-.05-.97-.16-1.86-.33-2.64-.17-.77-.37-1.38-.62-1.83-.2-.37-.37-.5-.47-.5Z"/>
          </g>
          <g>
            <path class="cls-4" d="M101.36,18.18c-.21-.28-.32-.63-.32-1.03.06-.48.05-.84-.02-1.11-.07-.26-.27-.45-.59-.55-.24-.08-.48,0-.7.27-.23.26-.45.64-.67,1.12-.22.49-.42,1.03-.61,1.64-.19.61-.36,1.22-.53,1.84-.2.82-.37,1.62-.5,2.4-.13.78-.16,1.43-.1,1.96.06.52.26.83.61.92.26.07.49,0,.68-.2.19-.2.35-.45.47-.73.12-.28.24-.65.36-1.11-.38-.07-.66-.17-.84-.31-.17-.14-.22-.37-.13-.68.09-.33.21-.53.38-.61.17-.08.4-.1.68-.05l2.13.57c.42.11.77.24,1.03.39.26.15.47.34.63.59.16.24.2.56.12.94-.21.92-.54,1.65-1,2.16-.45.52-.98.88-1.59,1.09-.61.21-1.24.3-1.91.27-.67-.03-1.33-.13-1.98-.3-.65-.17-1.25-.45-1.77-.84-.53-.39-.94-.93-1.25-1.63-.3-.7-.46-1.61-.47-2.71-.01-1.11.18-2.46.56-4.05.31-1.28.71-2.29,1.2-3.02.49-.73,1.02-1.25,1.58-1.58.56-.32,1.1-.52,1.64-.58.53-.06,1-.06,1.41,0,.41.06.69.1.86.12.2.04.51.14.94.3s.87.4,1.33.71c.46.31.86.69,1.21,1.15s.54,1,.6,1.63c.06.63-.01,1.08-.23,1.35-.21.27-.47.43-.79.49-.31.06-.71.04-1.19-.05-.62-.22-1.04-.47-1.26-.75Z"/>
            <path class="cls-4" d="M99.21,28.34c-.08,0-.17,0-.25,0-.69-.03-1.38-.14-2.06-.32-.7-.19-1.34-.49-1.9-.9-.58-.42-1.04-1.02-1.37-1.79-.32-.75-.49-1.71-.5-2.86-.01-1.13.18-2.53.58-4.14.32-1.32.74-2.38,1.25-3.14.52-.77,1.09-1.34,1.7-1.69.6-.35,1.2-.56,1.78-.62.56-.06,1.07-.07,1.5,0,.41.06.7.1.87.12.23.04.57.15,1.02.32.45.18.92.43,1.41.75.5.33.93.75,1.3,1.24.38.51.61,1.12.68,1.82.07.74-.03,1.26-.3,1.61-.27.34-.61.55-1.01.62-.36.07-.8.05-1.33-.06-.75-.26-1.22-.55-1.49-.9h0c-.26-.35-.39-.77-.39-1.26.07-.57.03-.86,0-1.01-.02-.09-.09-.21-.34-.29-.04-.01-.13-.04-.31.16-.2.23-.41.58-.61,1.03-.21.47-.41,1.01-.59,1.6-.19.6-.36,1.21-.52,1.83-.19.79-.36,1.59-.49,2.37-.12.75-.16,1.37-.1,1.85.06.53.27.59.33.61.13.03.22,0,.32-.1.16-.17.29-.37.39-.61.08-.19.16-.42.24-.69-.25-.08-.45-.18-.61-.3-.2-.17-.41-.49-.26-1.07.12-.44.31-.72.59-.85.24-.11.53-.14.89-.09l2.18.58c.45.12.83.26,1.11.43.31.18.56.41.76.71.22.33.28.74.17,1.23-.22.98-.59,1.77-1.08,2.33-.5.57-1.08.97-1.75,1.2-.57.19-1.17.29-1.79.29ZM99.25,13.58c-.23,0-.48.01-.74.04-.48.05-.98.23-1.49.53-.51.29-1,.79-1.45,1.46-.46.69-.85,1.66-1.14,2.89-.38,1.56-.57,2.89-.55,3.96.01,1.05.16,1.91.44,2.57.27.64.65,1.13,1.12,1.48.49.36,1.04.62,1.65.78.62.17,1.26.26,1.9.29.62.02,1.21-.06,1.77-.25.54-.18,1.02-.51,1.43-.98.41-.47.72-1.14.91-2,.06-.28.04-.49-.07-.65-.13-.2-.3-.35-.51-.47-.23-.13-.54-.25-.94-.35l-2.13-.57c-.22-.03-.36,0-.43.03,0,0-.09.05-.18.36-.02.09-.05.24.01.29.08.07.27.17.66.23.1.02.19.08.25.17.06.09.07.2.05.3-.12.47-.25.86-.38,1.16-.14.33-.32.61-.54.84-.29.3-.65.41-1.05.3-.35-.09-.78-.38-.88-1.24-.07-.56-.03-1.23.1-2.06.13-.8.3-1.62.5-2.43.17-.63.35-1.25.53-1.86.19-.62.4-1.18.62-1.68.23-.52.47-.92.72-1.22.44-.51.88-.46,1.11-.38.56.18.76.54.83.81.08.31.09.72.03,1.25,0,.28.08.54.25.76h0c.12.15.4.39,1.08.63.38.07.74.09,1,.04.22-.04.4-.15.56-.35.1-.13.21-.42.15-1.08-.05-.56-.23-1.04-.53-1.44-.31-.42-.69-.78-1.11-1.06-.44-.29-.86-.52-1.26-.67-.5-.2-.75-.26-.87-.28-.16-.03-.44-.07-.84-.12-.18-.02-.37-.04-.58-.04Z"/>
          </g>
          <g>
            <path class="cls-4" d="M112,17.76c.19.24.31.54.36.91.04.37-.08.81-.37,1.33-.19.34-.44.8-.75,1.37-.31.57-.64,1.2-.98,1.89-.34.69-.66,1.39-.96,2.09-.3.7-.54,1.37-.73,1.99-.19.63-.28,1.15-.27,1.58,0,.43.14.7.41.81.28.12.58.04.89-.25.31-.29.63-.7.95-1.23.32-.53.62-1.11.92-1.74.29-.63.56-1.24.79-1.83.24-.59.43-1.08.57-1.47.15-.39.22-.61.23-.67.01-.07.06-.21.12-.42.07-.21.19-.42.36-.61.17-.2.43-.33.77-.38.34-.06.79.02,1.36.25.57.22.96.5,1.17.83.21.33.32.66.32.98,0,.32-.07.69-.22,1.11-.24.75-.48,1.42-.72,2.01-.24.59-.55,1.21-.93,1.88-.37.66-.81,1.3-1.31,1.91s-1.07,1.12-1.7,1.51c-.63.4-1.33.62-2.09.68-.76.06-1.59-.14-2.49-.58-.9-.44-1.56-1-1.99-1.68-.43-.67-.69-1.42-.77-2.22-.08-.81-.04-1.64.13-2.5.17-.86.42-1.7.74-2.54.33-.83.67-1.6,1.03-2.31.36-.71.69-1.32.99-1.83.3-.51.51-.88.64-1.1.23-.38.49-.62.79-.73.3-.11.59-.14.88-.09.29.05.62.16,1.01.33.37.24.66.48.85.72Z"/>
            <path class="cls-4" d="M109.93,32.67c-.75,0-1.55-.21-2.39-.63-.95-.47-1.67-1.08-2.14-1.81-.46-.72-.74-1.52-.83-2.38-.09-.84-.04-1.72.13-2.61.17-.88.43-1.75.76-2.6.33-.84.68-1.62,1.04-2.34.37-.74.7-1.34,1-1.85l.64-1.1c.27-.46.6-.76.98-.89.36-.13.72-.16,1.07-.11.32.05.69.17,1.1.36.46.29.77.55.99.82h0c.24.29.39.67.44,1.11.05.46-.08.97-.42,1.56l-.74,1.37c-.31.57-.63,1.2-.97,1.88-.34.69-.66,1.39-.95,2.07-.29.69-.53,1.34-.71,1.95-.17.59-.26,1.08-.25,1.47,0,.26.06.42.18.47.05.02.2.09.49-.18.29-.26.58-.65.88-1.15.31-.52.61-1.09.9-1.71.29-.62.55-1.23.78-1.81.23-.59.42-1.08.57-1.47.12-.33.2-.53.21-.6.02-.08.06-.23.13-.46.08-.26.23-.51.43-.75.23-.26.56-.43.99-.51.42-.07.92.02,1.56.27.65.26,1.09.58,1.35.98.25.39.38.79.38,1.18,0,.37-.08.78-.24,1.24-.23.74-.48,1.43-.73,2.02-.25.6-.57,1.25-.95,1.92-.38.68-.84,1.34-1.35,1.97-.52.64-1.12,1.18-1.79,1.59-.68.43-1.44.68-2.26.74-.09,0-.19.01-.29.01ZM109.87,17.07c-.16,0-.32.03-.48.09-.21.08-.41.27-.59.57l-.64,1.1c-.29.5-.61,1.09-.98,1.81-.35.7-.69,1.46-1.01,2.28-.32.8-.56,1.64-.72,2.47-.16.82-.2,1.62-.12,2.39.08.74.32,1.44.71,2.06.39.61,1.01,1.13,1.84,1.54.83.41,1.6.59,2.29.54.7-.05,1.34-.26,1.92-.62.59-.37,1.13-.86,1.61-1.43.49-.59.92-1.22,1.28-1.86.36-.64.67-1.26.91-1.84.24-.58.48-1.24.71-1.98.14-.38.2-.71.2-.99,0-.25-.09-.51-.26-.78-.17-.26-.5-.49-1-.69-.62-.25-.98-.26-1.16-.23-.25.04-.44.13-.55.26-.14.16-.23.32-.28.48-.06.2-.1.32-.11.39,0,.03-.01.1-.24.72-.15.39-.34.89-.58,1.48-.24.6-.5,1.21-.8,1.85-.3.64-.61,1.24-.94,1.78-.33.56-.68,1-1.01,1.31-.53.49-1,.45-1.29.32-.28-.12-.62-.42-.63-1.15,0-.46.09-1.03.29-1.69.19-.63.44-1.32.74-2.03.3-.69.62-1.4.97-2.11.34-.69.67-1.33.99-1.91l.75-1.37c.25-.45.36-.82.33-1.11-.04-.3-.13-.54-.27-.72h0c-.17-.21-.42-.42-.76-.64-.3-.13-.61-.23-.87-.27-.07-.01-.14-.02-.21-.02Z"/>
          </g>
          <g>
            <path class="cls-4" d="M122.89,23.29c.5.3.87.62,1.11.95.24.34.34.77.28,1.31-.03.34-.09.73-.18,1.16-.09.43-.19.85-.3,1.26-.11.41-.24.87-.39,1.4l3.47-2c.39-.09.74-.09,1.06-.02.32.07.67.29,1.07.63,1.16,1.02,1.31,1.75.46,2.19-.17.08-.48.23-.93.45-.45.22-.95.46-1.51.73-.56.26-1.1.52-1.63.78-.53.25-1.13.55-1.82.87l-3.69,4.97c-.16.24-.34.41-.52.51-.19.1-.43.13-.73.07-.3-.05-.67-.25-1.12-.59-.59-.46-.96-.87-1.11-1.24-.15-.37-.18-.68-.1-.93.08-.25.16-.42.23-.51.04-.05.19-.26.46-.61.26-.35.58-.76.94-1.23.36-.47.72-.94,1.08-1.41.36-.47.76-1.02,1.23-1.65l.62-6.32c.03-.36.09-.64.2-.82.11-.18.31-.29.59-.33.28-.04.69.09,1.22.37Z"/>
            <path class="cls-4" d="M118.93,38.97c-.11,0-.23-.01-.35-.03-.37-.06-.78-.28-1.28-.66-.65-.5-1.05-.96-1.23-1.4-.18-.46-.22-.86-.11-1.19.1-.29.19-.49.29-.62.04-.05.18-.23.41-.55.3-.41.62-.82.98-1.29.36-.47.72-.94,1.08-1.41.34-.45.73-.97,1.17-1.56l.62-6.22c.03-.42.11-.74.25-.98.12-.2.36-.44.87-.51.36-.04.84.09,1.45.41,0,0,.01,0,.02,0,.54.32.95.68,1.22,1.06.3.41.41.94.35,1.57-.03.36-.09.76-.18,1.2-.09.44-.19.87-.31,1.28-.04.16-.09.33-.14.51l2.67-1.54s.07-.03.11-.04c.44-.1.85-.1,1.22-.02.38.09.78.32,1.23.72.82.73,1.19,1.34,1.12,1.89-.05.38-.3.69-.74.91l-.93.46c-.45.22-.95.46-1.51.73-.56.26-1.1.52-1.63.78l-1.73.83-3.64,4.9c-.19.28-.4.48-.64.62-.18.1-.39.15-.63.15ZM121.77,23.29s-.04,0-.06,0c-.25.03-.3.12-.32.15-.05.09-.12.28-.15.66l-.63,6.33c0,.07-.03.13-.07.19-.46.63-.87,1.18-1.23,1.65-.36.48-.72.95-1.08,1.42-.36.47-.67.87-.93,1.23-.28.38-.42.57-.46.62-.01.02-.08.11-.17.4-.05.16-.02.39.09.67.09.21.33.57.99,1.09.49.38.79.49.95.52.21.04.38.03.49-.03.13-.07.27-.2.39-.39l3.7-4.99s.08-.09.14-.11l1.82-.87c.53-.25,1.07-.51,1.63-.78.56-.26,1.06-.5,1.5-.72l.93-.45c.2-.1.31-.22.33-.34.02-.12-.04-.49-.87-1.23-.35-.3-.65-.49-.9-.55-.25-.06-.53-.06-.83,0l-3.42,1.97c-.13.08-.3.06-.42-.03-.12-.09-.17-.25-.13-.4.15-.52.28-.99.39-1.39.11-.4.21-.81.29-1.24.08-.41.14-.79.17-1.12.04-.44-.03-.8-.21-1.06-.21-.29-.54-.58-.99-.85-.52-.27-.79-.33-.94-.33Z"/>
          </g>
          <g>
            <path class="cls-4" d="M133.88,39.59c-.09-.32-.11-.6-.05-.81.06-.22.14-.39.25-.5.11-.12.18-.19.2-.21.06-.06.15-.17.26-.34.11-.17.07-.37-.12-.58-.31-.36-.69-.58-1.15-.67-.46-.09-.91.04-1.35.38-.44.34-.71.77-.81,1.27-.1.51.16,1.13.77,1.85.31.36.59.78.83,1.26.24.48.4,1,.49,1.55.08.55.03,1.09-.17,1.63-.19.54-.57,1.05-1.13,1.54-1.14.96-2.26,1.42-3.39,1.36-1.12-.05-2.28-.77-3.47-2.13-.79-.91-1.31-1.73-1.56-2.48-.25-.74-.33-1.37-.25-1.89.09-.52.25-.88.48-1.11.23-.22.48-.41.75-.57.27-.16.58-.19.94-.11.36.08.78.35,1.25.82.48.48.76.88.82,1.2.07.32.05.58-.05.77-.1.19-.17.3-.21.34-.04.03-.12.13-.24.29-.12.16-.2.35-.25.56-.05.21,0,.41.16.59.23.27.54.4.93.41.38,0,.84-.18,1.37-.55,1.04-.74,1.1-1.64.19-2.69-.22-.26-.47-.62-.73-1.09-.27-.47-.46-1.01-.58-1.6-.12-.59-.09-1.2.08-1.82.18-.62.6-1.22,1.28-1.78.67-.56,1.33-.92,1.96-1.06.63-.14,1.22-.13,1.79.04.56.17,1.09.44,1.59.8.5.36.94.77,1.35,1.2.54.59.97,1.23,1.3,1.92.33.69.5,1.36.52,2.01.01.65-.21,1.21-.66,1.7-.34.36-.66.55-.97.56-.31.01-.6-.05-.85-.2-.25-.15-.53-.38-.83-.71-.38-.43-.61-.81-.7-1.14Z"/>
            <path class="cls-4" d="M128.69,47.7c-.07,0-.13,0-.2,0-1.22-.06-2.48-.82-3.73-2.26-.82-.94-1.37-1.82-1.63-2.6-.27-.8-.36-1.5-.26-2.07.1-.6.3-1.03.59-1.31.25-.24.53-.45.82-.62.35-.2.76-.25,1.21-.16.43.1.9.39,1.43.92.54.54.84.99.93,1.39.09.41.05.76-.09,1.03-.16.29-.23.38-.29.44-.03.03-.09.11-.18.23-.09.12-.15.26-.19.42-.02.07-.02.15.08.25.16.19.37.28.65.28.32-.01.7-.17,1.15-.48.4-.29.62-.59.66-.91.04-.35-.14-.76-.54-1.22-.24-.28-.5-.67-.78-1.16-.28-.5-.49-1.08-.62-1.71-.13-.65-.1-1.32.09-2,.2-.7.67-1.36,1.4-1.97.72-.6,1.43-.98,2.11-1.14.69-.15,1.35-.14,1.98.05.6.18,1.17.47,1.7.86.51.38.98.8,1.4,1.25.56.61,1.01,1.29,1.36,2.01.35.73.54,1.46.55,2.16.02.75-.24,1.41-.76,1.96-.41.43-.82.66-1.23.68-.38.02-.74-.07-1.06-.26-.29-.17-.59-.42-.91-.77-.43-.49-.68-.91-.79-1.29h0c-.11-.39-.13-.73-.05-1.01.08-.28.19-.5.34-.67.12-.13.2-.21.23-.23,0,0,.06-.06.19-.26h0s0-.05-.09-.14c-.26-.29-.56-.47-.94-.54-.35-.07-.69.04-1.05.31-.37.29-.59.63-.67,1.05-.07.39.17.92.69,1.54.33.37.62.83.88,1.34.26.52.43,1.07.52,1.66.09.61.03,1.21-.19,1.81-.21.6-.63,1.17-1.24,1.7-1.14.97-2.3,1.46-3.46,1.46ZM125.06,39.37c-.15,0-.29.03-.41.1-.24.14-.47.31-.68.51-.17.16-.3.48-.37.9-.08.45,0,1.02.23,1.7.24.69.74,1.48,1.49,2.35,1.11,1.28,2.19,1.95,3.2,2,1.02.05,2.07-.38,3.13-1.28.51-.44.85-.91,1.02-1.38.17-.48.22-.96.15-1.44-.08-.51-.23-.99-.45-1.43-.23-.45-.49-.85-.78-1.18-.7-.83-.97-1.54-.85-2.17.11-.6.43-1.11.95-1.5.53-.41,1.08-.56,1.65-.45.54.1,1,.37,1.36.79.4.46.27.84.16,1.03-.13.21-.24.34-.33.43-.02.02-.08.08-.17.18-.07.07-.12.19-.16.34-.04.15-.02.36.05.62,0,0,0,0,0,0,.08.27.29.6.62.99.27.28.52.5.74.63.19.11.4.16.64.15.21,0,.45-.16.72-.44.39-.41.57-.88.56-1.43-.01-.59-.17-1.22-.48-1.85-.31-.65-.73-1.27-1.24-1.83-.38-.41-.82-.8-1.29-1.15-.46-.34-.96-.59-1.48-.75-.5-.15-1.04-.16-1.6-.04-.57.13-1.17.46-1.8.98-.61.51-1,1.05-1.16,1.6-.16.56-.18,1.12-.08,1.64.11.55.29,1.05.54,1.49.25.45.48.79.69,1.03.54.63.79,1.23.72,1.8-.06.53-.39,1.02-.97,1.43-.6.42-1.12.62-1.58.62h-.01c-.49,0-.9-.18-1.21-.54-.23-.27-.32-.59-.24-.92.06-.26.17-.5.32-.7.18-.24.25-.31.29-.35,0-.02.06-.1.12-.23.06-.11.06-.29.02-.51-.04-.17-.19-.48-.72-1.01-.52-.51-.87-.67-1.06-.72-.1-.02-.18-.03-.27-.03Z"/>
          </g>
        </g>
        <g>
          <g>
            <path class="cls-2" d="M25.92,40.22c-.19-.19-.32-.38-.39-.58-.07-.19-.06-.44.02-.75.08-.3.29-.67.63-1.08.46-.57.86-.9,1.21-1.01s.63-.12.84-.03c.21.08.32.13.33.14.01.01.16.13.45.37.29.23.64.52,1.06.87.42.35.83.69,1.25,1.04.42.35.91.75,1.48,1.2l1.67-2.12-4.09-3.07c-.2-.16-.34-.32-.43-.5-.08-.17-.1-.41-.04-.72.05-.3.23-.67.54-1.1.32-.44.62-.73.89-.87.27-.14.52-.21.73-.2.22.01.44.09.68.23l9.41,7.26c.29.21.5.42.64.63.14.21.19.48.15.79-.04.31-.24.67-.6,1.08-.36.41-.7.67-1.01.8-.32.13-.59.18-.83.15-.24-.03-.49-.12-.76-.27l-3.77-3.09-1.72,2.17,3.88,3.12c.17.19.27.39.32.58.04.2.02.44-.08.74-.1.3-.33.66-.7,1.08-.37.42-.71.69-1.01.82-.3.13-.56.18-.77.15-.21-.03-.44-.12-.69-.27l-9.3-7.57Z"/>
            <path class="cls-4" d="M36.03,48.44c-.06,0-.12,0-.17-.01-.26-.04-.54-.14-.83-.32l-9.34-7.6s-.02-.02-.03-.03c-.23-.23-.39-.48-.48-.72-.09-.26-.09-.58,0-.96.09-.37.33-.77.71-1.23.51-.63.96-1,1.4-1.13.44-.13.8-.14,1.09-.02.36.14.39.16.44.2.03.02.17.14.45.36.29.23.65.53,1.07.87l1.25,1.04c.34.28.74.6,1.18.96l1.2-1.52-3.79-2.84c-.25-.19-.43-.41-.54-.63-.12-.25-.14-.56-.07-.94.06-.36.26-.77.61-1.25.36-.49.69-.81,1.02-.99.33-.17.66-.25.92-.24.28.01.57.11.85.28l9.44,7.28c.31.23.56.48.73.73.19.29.26.64.21,1.04-.05.4-.28.81-.69,1.28-.4.45-.78.75-1.15.9-.37.15-.71.21-1.01.18-.29-.03-.58-.13-.9-.31l-3.53-2.89-1.25,1.58,3.59,2.89c.26.29.39.54.45.8.06.26.03.57-.09.94-.11.35-.37.75-.77,1.21-.41.47-.79.77-1.15.92-.29.12-.56.18-.8.18ZM26.17,39.94l9.28,7.56c.16.1.35.17.5.19.1.01.28,0,.58-.12.25-.1.54-.35.87-.72.41-.47.57-.77.62-.94.09-.29.09-.46.07-.55-.03-.13-.11-.27-.23-.42l-3.83-3.08c-.16-.13-.19-.36-.06-.52l1.72-2.17c.06-.08.15-.13.25-.14.09,0,.2.02.28.08l3.77,3.09c.17.09.38.16.57.18.17.02.39-.02.64-.13.26-.1.55-.34.87-.7.38-.43.49-.72.51-.88.03-.22,0-.4-.09-.54-.11-.17-.3-.35-.55-.54l-9.42-7.26c-.14-.08-.31-.14-.47-.15-.15,0-.33.05-.54.16-.15.08-.41.28-.76.76-.27.38-.43.69-.48.94-.05.29-.01.43.01.49.06.12.16.24.32.36l4.09,3.07c.08.06.13.15.15.25.01.1-.01.2-.08.28l-1.67,2.12c-.06.08-.15.13-.25.14-.1,0-.2-.02-.28-.08-.57-.46-1.06-.86-1.48-1.21l-1.25-1.04c-.42-.34-.77-.63-1.06-.87-.3-.24-.45-.37-.47-.38.02.02-.06,0-.22-.07-.12-.05-.33-.03-.6.05-.19.06-.52.26-1.03.89-.39.47-.52.77-.56.94-.07.29-.05.45-.02.53.05.14.14.28.28.42Z"/>
          </g>
          <g>
            <path class="cls-2" d="M36.08,30c-.23-.19-.38-.38-.45-.58-.08-.2-.07-.44.03-.72.09-.28.34-.61.74-.97.4-.37.87-.77,1.39-1.21.53-.44,1.03-.86,1.52-1.27.49-.41,1.04-.87,1.67-1.39.37-.26.7-.46.99-.61.29-.14.58-.22.88-.25.3-.02.56.07.79.28.22.21.32.44.29.67-.03.24-.12.46-.26.66-.14.2-.35.43-.63.68l-3.1,2.63c.35.29.63.53.84.72.21.19.39.36.53.51.13.14.29.32.48.55.19.23.44.51.74.86l1.5-1.13c.31-.21.58-.37.81-.47.23-.1.46-.16.68-.18.22-.02.41.06.56.24.2.23.24.48.14.75-.1.27-.25.5-.43.69-.18.19-.3.32-.34.37-.04.03-.15.12-.32.25-.17.14-.36.29-.57.45-.21.16-.48.36-.8.6.31.38.57.7.78.94.21.25.37.47.5.67.13.18.29.39.46.65.18.26.39.58.64.97l2.66-2.17c.34-.28.65-.49.92-.63.27-.14.55-.23.83-.25.28-.02.52.08.72.32.21.22.29.47.24.74-.05.27-.16.52-.32.75-.17.23-.4.49-.71.79l-4.21,3.53c-.41.33-.77.57-1.07.73-.31.16-.62.23-.94.23-.32,0-.6-.17-.83-.5-.3-.45-.79-1.15-1.46-2.1-.67-.94-1.5-2.02-2.5-3.22-.99-1.2-2.12-2.4-3.38-3.59Z"/>
            <path class="cls-4" d="M44.26,39.78h-.02c-.31,0-.75-.12-1.13-.67-.3-.46-.79-1.15-1.45-2.09-.66-.93-1.5-2.01-2.48-3.2-.98-1.18-2.1-2.38-3.34-3.55-.27-.23-.46-.47-.56-.73-.11-.28-.1-.61.02-.97.12-.35.39-.72.85-1.13.41-.37.87-.78,1.41-1.22l1.52-1.27c.49-.41,1.04-.87,1.67-1.39.41-.29.76-.5,1.06-.65.33-.16.67-.26,1.01-.29.42-.04.78.1,1.07.38.39.37.44.75.4,1-.04.3-.15.57-.33.83-.16.23-.39.48-.68.74l-2.77,2.35c.2.17.37.31.51.43.23.2.42.38.56.54.13.14.29.32.48.55.14.16.31.36.51.59l1.22-.92c.34-.23.63-.4.88-.51.27-.12.54-.19.8-.21.33-.02.64.1.88.37.29.35.36.74.21,1.14-.12.32-.29.59-.51.82-.17.18-.28.29-.32.35-.02.02-.04.05-.07.07-.04.03-.14.11-.3.24-.17.14-.37.29-.58.46l-.49.37c.2.25.38.46.53.63.22.26.4.5.53.71.12.16.28.38.46.65.12.18.26.39.41.62l2.33-1.9c.37-.3.69-.52.99-.67.32-.17.65-.26.98-.29.39-.03.76.13,1.03.45.28.29.4.66.32,1.05-.06.32-.19.62-.39.9-.18.25-.42.53-.75.84l-4.22,3.54c-.44.36-.81.61-1.14.78-.35.18-.72.27-1.09.27ZM42.94,23.36s-.04,0-.06,0c-.25.02-.5.09-.74.21-.27.13-.58.33-.94.58-.6.5-1.16.96-1.64,1.37l-1.52,1.27c-.52.44-.98.84-1.38,1.2-.44.4-.59.67-.64.82-.06.2-.08.35-.03.47.05.14.17.28.34.42,0,0,.01.01.02.02,1.26,1.19,2.41,2.41,3.41,3.62.99,1.2,1.84,2.29,2.51,3.24.67.95,1.16,1.65,1.46,2.11.21.31.4.34.53.34.26,0,.5-.06.75-.19.28-.14.62-.37,1.01-.69l4.2-3.52c.27-.26.49-.51.64-.72.13-.19.22-.38.26-.6.02-.1.02-.24-.14-.42-.13-.16-.26-.21-.42-.2-.23.02-.46.09-.69.2-.25.13-.54.33-.86.59l-2.66,2.17c-.08.07-.19.1-.3.08-.11-.02-.2-.08-.26-.17-.25-.38-.46-.7-.63-.96-.17-.25-.32-.47-.45-.64-.14-.21-.3-.42-.49-.65-.21-.25-.47-.56-.78-.95-.06-.08-.09-.18-.08-.28.01-.1.07-.19.15-.25l.8-.6c.2-.15.39-.3.56-.44.14-.11.24-.19.29-.24.06-.07.17-.19.33-.36.15-.15.27-.35.35-.57.04-.1.06-.22-.08-.38-.09-.1-.17-.12-.25-.11-.18.01-.37.06-.56.15-.21.09-.46.24-.74.43l-1.49,1.12c-.16.12-.38.1-.51-.05-.3-.35-.55-.63-.75-.86-.19-.22-.34-.4-.47-.54-.13-.14-.29-.3-.5-.48-.21-.19-.49-.42-.84-.71-.08-.07-.13-.18-.13-.29s.05-.22.13-.29l3.1-2.63c.24-.22.44-.43.57-.61.11-.15.17-.32.2-.5,0-.05.02-.16-.17-.35-.13-.12-.27-.18-.44-.18Z"/>
          </g>
          <g>
            <path class="cls-2" d="M55.96,28.12s.15-.08.41-.21c.26-.13.57-.29.95-.48.38-.19.75-.38,1.12-.57.37-.19.81-.41,1.32-.68.33-.16.63-.27.88-.33.25-.06.51-.04.77.04.26.08.48.3.66.64.18.33.21.64.09.93-.11.29-.3.54-.54.74-.25.2-.59.43-1.02.67-.6.35-1.14.67-1.62.97-.47.3-.99.65-1.53,1.03-.55.39-1.06.79-1.53,1.2-.48.42-.9.69-1.28.83-.38.13-.7.18-.96.15-.26-.03-.47-.1-.62-.21-.15-.1-.24-.18-.26-.23-.07-.1-.1-.25-.1-.44,0-.2.09-.38.28-.54.07-.05,0-.29-.2-.71-.2-.42-.49-.95-.86-1.59-.37-.64-.79-1.32-1.26-2.06-.46-.73-.94-1.45-1.42-2.16-.48-.71-.92-1.33-1.31-1.88-.39-.54-.71-.93-.96-1.17-.37-.37-.55-.71-.54-1.01,0-.3.09-.56.26-.79.17-.22.43-.45.78-.7.39-.24.74-.41,1.05-.49.31-.08.64-.08.99,0s.69.34,1.03.76c.44.56.96,1.22,1.55,1.97.6.75,1.23,1.65,1.91,2.67.67,1.03,1.33,2.23,1.98,3.61Z"/>
            <path class="cls-4" d="M53.85,33.45c-.07,0-.15,0-.22-.01-.32-.04-.58-.13-.78-.27-.23-.16-.34-.26-.39-.38-.08-.11-.14-.33-.14-.6,0-.26.09-.49.28-.7-.02-.07-.07-.19-.17-.39-.19-.4-.48-.93-.85-1.56-.37-.63-.79-1.32-1.25-2.05-.46-.73-.93-1.45-1.41-2.15-.48-.7-.91-1.33-1.3-1.87-.38-.52-.69-.9-.92-1.12-.45-.45-.66-.87-.65-1.28,0-.38.12-.72.33-1,.19-.25.47-.51.86-.78.44-.28.82-.45,1.16-.54.37-.1.76-.1,1.17,0,.43.1.85.4,1.23.89.44.56.96,1.22,1.55,1.97.6.76,1.25,1.67,1.92,2.7.62.95,1.24,2.06,1.84,3.31l2.13-1.08c.37-.19.81-.41,1.32-.68.37-.18.69-.3.98-.36.32-.07.64-.06.96.05.35.12.64.39.87.82.23.43.27.85.11,1.24-.14.35-.36.65-.66.89-.27.22-.62.45-1.07.71-.6.34-1.13.66-1.6.96-.47.3-.98.64-1.52,1.02-.54.38-1.04.77-1.5,1.18-.52.45-.97.75-1.4.9-.34.12-.64.18-.91.18ZM53.11,32.42s.03.04.16.12c.1.07.26.12.46.15.2.03.46-.02.78-.13.33-.12.72-.37,1.16-.75.48-.42,1.01-.83,1.57-1.23.55-.39,1.07-.74,1.55-1.04.48-.31,1.02-.63,1.63-.98.41-.23.73-.45.96-.64.2-.16.34-.36.43-.59.05-.12.09-.31-.07-.61-.14-.25-.29-.41-.45-.46-.19-.06-.38-.07-.57-.03-.23.05-.5.15-.8.3-.5.26-.94.49-1.32.67l-2.48,1.26c-.09.05-.2.05-.29.02-.1-.03-.17-.1-.22-.2-.63-1.35-1.29-2.55-1.95-3.57-.67-1.02-1.3-1.91-1.89-2.65-.6-.76-1.12-1.41-1.55-1.97-.28-.35-.55-.56-.82-.63-.29-.07-.55-.07-.8,0-.27.07-.59.22-.94.44-.3.21-.54.42-.68.61-.12.16-.18.34-.18.57,0,.19.15.45.43.74.26.25.58.65,1,1.22.39.55.83,1.17,1.32,1.89.48.71.96,1.44,1.43,2.17.47.74.89,1.43,1.26,2.07.38.66.67,1.19.87,1.61.18.38.44.91.09,1.17-.11.1-.12.19-.12.24,0,.18.04.23.04.24h0ZM52.72,31.36s-.02.02-.03.03c.01-.01.02-.02.03-.03Z"/>
          </g>
          <g>
            <path class="cls-2" d="M67.5,23.97s.16-.04.44-.12c.28-.08.62-.17,1.03-.28.41-.11.81-.22,1.21-.32.4-.11.88-.24,1.43-.39.36-.09.67-.13.93-.14.26,0,.51.06.74.2.23.13.4.39.51.76.11.36.07.67-.1.93-.17.26-.4.46-.69.61-.29.15-.66.3-1.13.45-.66.21-1.26.42-1.78.62-.53.2-1.1.43-1.71.69-.62.26-1.2.55-1.75.86-.55.31-1.03.49-1.42.54-.4.05-.72.04-.97-.05-.25-.09-.44-.2-.56-.33-.13-.13-.2-.23-.21-.27-.04-.11-.05-.26,0-.46.04-.19.17-.35.38-.47.08-.04.06-.28-.05-.73-.11-.45-.28-1.03-.51-1.73-.23-.7-.5-1.46-.81-2.27-.3-.81-.62-1.62-.94-2.41-.33-.79-.62-1.49-.9-2.11-.27-.61-.5-1.06-.7-1.35-.28-.44-.39-.8-.32-1.1.07-.29.2-.53.41-.72.21-.18.51-.36.91-.52.43-.16.81-.25,1.12-.26.32-.02.64.05.97.21s.61.47.85.96c.31.64.68,1.39,1.11,2.25.43.86.87,1.87,1.31,3.01.45,1.15.84,2.46,1.19,3.94Z"/>
            <path class="cls-4" d="M64.8,28.79c-.25,0-.47-.03-.67-.1-.31-.11-.54-.25-.71-.43-.19-.2-.27-.32-.3-.45-.06-.13-.07-.35-.01-.62.04-.18.14-.42.42-.63,0-.07-.03-.2-.08-.41-.11-.44-.28-1.01-.51-1.7-.23-.7-.5-1.45-.8-2.26-.3-.81-.62-1.61-.94-2.4-.32-.79-.62-1.49-.89-2.1-.26-.59-.49-1.02-.66-1.29-.35-.54-.47-.99-.38-1.39.08-.37.26-.68.53-.91.24-.21.57-.4,1.01-.59.49-.18.89-.27,1.25-.29.39-.02.77.06,1.15.24.4.19.75.57,1.02,1.13.31.64.68,1.39,1.11,2.25.43.86.88,1.89,1.33,3.04.41,1.06.79,2.28,1.11,3.62.02,0,.04-.01.07-.02.28-.08.62-.17,1.03-.28l1.21-.32c.4-.11.88-.24,1.43-.39.4-.1.74-.15,1.03-.15.33-.01.64.08.93.25.32.19.55.52.69.98.14.47.09.88-.15,1.24-.2.31-.48.56-.83.74-.31.16-.7.31-1.19.47-.65.21-1.24.42-1.76.61-.52.2-1.09.43-1.7.69-.6.26-1.18.54-1.71.84-.59.33-1.11.53-1.55.59-.17.02-.33.03-.47.03ZM63.83,27.59s.03.04.13.16c.09.09.23.17.42.24.19.07.46.08.79.03.35-.05.78-.22,1.29-.5.56-.31,1.16-.61,1.79-.88.62-.27,1.2-.5,1.73-.7.53-.2,1.13-.41,1.8-.63.45-.14.81-.29,1.08-.42.23-.12.41-.28.55-.49.07-.11.15-.28.05-.61-.08-.28-.2-.46-.34-.54-.17-.1-.34-.14-.55-.15-.23,0-.52.05-.85.13-.54.15-1.02.28-1.43.39l-1.21.32c-.41.11-.75.2-1.03.28-.29.08-.44.12-.46.12-.1.02-.2,0-.28-.05-.08-.05-.15-.14-.17-.23-.34-1.45-.73-2.76-1.17-3.89-.44-1.13-.88-2.13-1.3-2.98-.43-.86-.8-1.61-1.11-2.25-.2-.4-.43-.66-.67-.78-.27-.13-.53-.19-.79-.17-.28.02-.62.1-1.01.24-.34.14-.61.3-.79.45-.15.13-.24.3-.29.52-.04.19.05.47.27.81.2.3.44.76.72,1.4.27.62.57,1.32.9,2.12.33.8.64,1.6.95,2.42.31.82.58,1.58.81,2.28.24.71.41,1.3.52,1.76.1.41.24.98-.16,1.16-.13.07-.16.16-.17.21-.04.18-.01.24-.01.24h0ZM63.67,26.48s-.03.01-.04.02c.01,0,.03-.02.04-.02Z"/>
          </g>
          <g>
            <path class="cls-2" d="M73.17,18.77c-.07-1.35.11-2.6.53-3.75.42-1.15,1.02-2.07,1.79-2.78.78-.71,1.66-1.09,2.64-1.13.73-.04,1.43.12,2.11.47.68.35,1.29.85,1.83,1.51.54.66.98,1.43,1.31,2.31.33.88.52,1.83.57,2.84.05,1.01-.05,1.98-.29,2.89-.24.91-.6,1.72-1.08,2.43-.47.71-1.03,1.27-1.67,1.68-.64.41-1.32.64-2.05.67-.98.05-1.89-.24-2.74-.87-.84-.63-1.53-1.49-2.06-2.58-.53-1.09-.83-2.32-.89-3.69ZM77.05,18.48c.05.98.16,1.88.34,2.69.17.81.39,1.45.65,1.92.26.47.53.7.82.68.29-.01.54-.27.75-.76.21-.49.37-1.15.46-1.98.09-.83.12-1.73.07-2.71-.05-1-.16-1.9-.34-2.7-.18-.8-.39-1.45-.65-1.92-.26-.48-.54-.71-.82-.7-.29.01-.54.27-.75.77-.21.5-.37,1.16-.46,1.98-.1.82-.12,1.73-.07,2.72Z"/>
            <path class="cls-4" d="M78.65,26.29c-.98,0-1.91-.32-2.75-.95-.89-.66-1.62-1.58-2.17-2.72-.55-1.13-.86-2.42-.93-3.84h0c-.07-1.4.12-2.71.55-3.9.44-1.2,1.07-2.18,1.9-2.93.84-.76,1.81-1.18,2.87-1.23.8-.04,1.56.13,2.3.51.72.37,1.38.91,1.95,1.61.56.69,1.02,1.5,1.37,2.42.34.91.54,1.91.6,2.96.05,1.05-.05,2.06-.3,3-.25.95-.63,1.8-1.13,2.54-.5.75-1.1,1.35-1.78,1.79-.69.45-1.45.69-2.24.73-.08,0-.15,0-.23,0ZM73.55,18.75c.06,1.31.35,2.51.86,3.55.5,1.03,1.15,1.85,1.94,2.44.78.58,1.59.84,2.49.8.66-.03,1.29-.24,1.87-.61.59-.38,1.12-.91,1.56-1.58.45-.67.79-1.45,1.02-2.32.23-.87.33-1.8.28-2.77-.05-.97-.23-1.89-.55-2.73-.32-.84-.74-1.58-1.25-2.21-.51-.62-1.08-1.09-1.71-1.42-.62-.32-1.27-.46-1.92-.43-.9.04-1.69.38-2.4,1.04-.73.66-1.3,1.55-1.69,2.63-.4,1.09-.57,2.31-.5,3.6h0ZM78.83,24.15c-.42,0-.8-.29-1.12-.88-.28-.5-.51-1.18-.69-2.03-.18-.83-.3-1.76-.34-2.75h0c-.05-1.01-.03-1.95.07-2.78.1-.85.26-1.55.49-2.08.27-.64.64-.98,1.08-1,.43-.03.84.28,1.17.89.28.51.51,1.18.69,2.02.18.82.29,1.75.34,2.76.05.99.03,1.93-.07,2.77-.1.87-.26,1.56-.49,2.09-.27.63-.64.97-1.08.99-.02,0-.03,0-.04,0ZM78.35,13.38h0c-.09,0-.26.15-.42.55-.2.47-.34,1.1-.43,1.88-.09.8-.12,1.69-.07,2.66h0c.05.95.16,1.84.33,2.63.17.77.37,1.39.62,1.82.17.31.37.48.48.49.1,0,.26-.15.42-.54.2-.46.34-1.09.43-1.87.09-.8.11-1.69.07-2.65-.05-.97-.16-1.86-.33-2.64-.17-.77-.37-1.38-.62-1.83-.2-.37-.37-.5-.47-.5Z"/>
          </g>
          <g>
            <path class="cls-2" d="M100.36,18.18c-.21-.28-.32-.63-.32-1.03.06-.48.05-.84-.02-1.11-.07-.26-.27-.45-.59-.55-.24-.08-.48,0-.7.27-.23.26-.45.64-.67,1.12-.22.49-.42,1.03-.61,1.64-.19.61-.36,1.22-.53,1.84-.2.82-.37,1.62-.5,2.4-.13.78-.16,1.43-.1,1.96.06.52.26.83.61.92.26.07.49,0,.68-.2.19-.2.35-.45.47-.73.12-.28.24-.65.36-1.11-.38-.07-.66-.17-.84-.31-.17-.14-.22-.37-.13-.68.09-.33.21-.53.38-.61.17-.08.4-.1.68-.05l2.13.57c.42.11.77.24,1.03.39.26.15.47.34.63.59.16.24.2.56.12.94-.21.92-.54,1.65-1,2.16-.45.52-.98.88-1.59,1.09-.61.21-1.24.3-1.91.27-.67-.03-1.33-.13-1.98-.3-.65-.17-1.25-.45-1.77-.84-.53-.39-.94-.93-1.25-1.63-.3-.7-.46-1.61-.47-2.71-.01-1.11.18-2.46.56-4.05.31-1.28.71-2.29,1.2-3.02.49-.73,1.02-1.25,1.58-1.58.56-.32,1.1-.52,1.64-.58.53-.06,1-.06,1.41,0,.41.06.69.1.86.12.2.04.51.14.94.3s.87.4,1.33.71c.46.31.86.69,1.21,1.15s.54,1,.6,1.63c.06.63-.01,1.08-.23,1.35-.21.27-.47.43-.79.49-.31.06-.71.04-1.19-.05-.62-.22-1.04-.47-1.26-.75Z"/>
            <path class="cls-4" d="M98.21,28.34c-.08,0-.17,0-.25,0-.69-.03-1.38-.14-2.06-.32-.7-.19-1.34-.49-1.9-.9-.58-.42-1.04-1.02-1.37-1.79-.32-.75-.49-1.71-.5-2.86-.01-1.13.18-2.53.58-4.14.32-1.32.74-2.38,1.25-3.14.52-.77,1.09-1.34,1.7-1.69.6-.35,1.2-.56,1.78-.62.56-.06,1.07-.07,1.5,0,.41.06.7.1.87.12.23.04.57.15,1.02.32.45.18.92.43,1.41.75.5.33.93.75,1.3,1.24.38.51.61,1.12.68,1.82.07.74-.03,1.26-.3,1.61-.27.34-.61.55-1.01.62-.36.07-.8.05-1.33-.06-.75-.26-1.22-.55-1.49-.9h0c-.26-.35-.39-.77-.39-1.26.07-.57.03-.86,0-1.01-.02-.09-.09-.21-.34-.29-.04-.01-.13-.04-.31.16-.2.23-.41.58-.61,1.03-.21.47-.41,1.01-.59,1.6-.19.6-.36,1.21-.52,1.83-.19.79-.36,1.59-.49,2.37-.12.75-.16,1.37-.1,1.85.06.53.27.59.33.61.13.03.22,0,.32-.1.16-.17.29-.37.39-.61.08-.19.16-.42.24-.69-.25-.08-.45-.18-.61-.3-.2-.17-.41-.49-.26-1.07.12-.44.31-.72.59-.85.24-.11.53-.14.89-.09l2.18.58c.45.12.83.26,1.11.43.31.18.56.41.76.71.22.33.28.74.17,1.23-.22.98-.59,1.77-1.08,2.33-.5.57-1.08.97-1.75,1.2-.57.19-1.17.29-1.79.29ZM98.25,13.58c-.23,0-.48.01-.74.04-.48.05-.98.23-1.49.53-.51.29-1,.79-1.45,1.46-.46.69-.85,1.66-1.14,2.89-.38,1.56-.57,2.89-.55,3.96.01,1.05.16,1.91.44,2.57.27.64.65,1.13,1.12,1.48.49.36,1.04.62,1.65.78.62.17,1.26.26,1.9.29.62.02,1.21-.06,1.77-.25.54-.18,1.02-.51,1.43-.98.41-.47.72-1.14.91-2,.06-.28.04-.49-.07-.65-.13-.2-.3-.35-.51-.47-.23-.13-.54-.25-.94-.35l-2.13-.57c-.22-.03-.36,0-.43.03,0,0-.09.05-.18.36-.02.09-.05.24.01.29.08.07.27.17.66.23.1.02.19.08.25.17.06.09.07.2.05.3-.12.47-.25.86-.38,1.16-.14.33-.32.61-.54.84-.29.3-.65.41-1.05.3-.35-.09-.78-.38-.88-1.24-.07-.56-.03-1.23.1-2.06.13-.8.3-1.62.5-2.43.17-.63.35-1.25.53-1.86.19-.62.4-1.18.62-1.68.23-.52.47-.92.72-1.22.44-.51.88-.46,1.11-.38.56.18.76.54.83.81.08.31.09.72.03,1.25,0,.28.08.54.25.76h0c.12.15.4.39,1.08.63.38.07.74.09,1,.04.22-.04.4-.15.56-.35.1-.13.21-.42.15-1.08-.05-.56-.23-1.04-.53-1.44-.31-.42-.69-.78-1.11-1.06-.44-.29-.86-.52-1.26-.67-.5-.2-.75-.26-.87-.28-.16-.03-.44-.07-.84-.12-.18-.02-.37-.04-.58-.04Z"/>
          </g>
          <g>
            <path class="cls-2" d="M111,17.76c.19.24.31.54.36.91.04.37-.08.81-.37,1.33-.19.34-.44.8-.75,1.37-.31.57-.64,1.2-.98,1.89-.34.69-.66,1.39-.96,2.09-.3.7-.54,1.37-.73,1.99-.19.63-.28,1.15-.27,1.58,0,.43.14.7.41.81.28.12.58.04.89-.25.31-.29.63-.7.95-1.23.32-.53.62-1.11.92-1.74.29-.63.56-1.24.79-1.83.24-.59.43-1.08.57-1.47.15-.39.22-.61.23-.67.01-.07.06-.21.12-.42.07-.21.19-.42.36-.61.17-.2.43-.33.77-.38.34-.06.79.02,1.36.25.57.22.96.5,1.17.83.21.33.32.66.32.98,0,.32-.07.69-.22,1.11-.24.75-.48,1.42-.72,2.01-.24.59-.55,1.21-.93,1.88-.37.66-.81,1.3-1.31,1.91s-1.07,1.12-1.7,1.51c-.63.4-1.33.62-2.09.68-.76.06-1.59-.14-2.49-.58-.9-.44-1.56-1-1.99-1.68-.43-.67-.69-1.42-.77-2.22-.08-.81-.04-1.64.13-2.5.17-.86.42-1.7.74-2.54.33-.83.67-1.6,1.03-2.31.36-.71.69-1.32.99-1.83.3-.51.51-.88.64-1.1.23-.38.49-.62.79-.73.3-.11.59-.14.88-.09.29.05.62.16,1.01.33.37.24.66.48.85.72Z"/>
            <path class="cls-4" d="M108.93,32.67c-.75,0-1.55-.21-2.39-.63-.95-.47-1.67-1.08-2.14-1.81-.46-.72-.74-1.52-.83-2.38-.09-.84-.04-1.72.13-2.61.17-.88.43-1.75.76-2.6.33-.84.68-1.62,1.04-2.34.37-.74.7-1.34,1-1.85l.64-1.1c.27-.46.6-.76.98-.89.36-.13.72-.16,1.07-.11.32.05.69.17,1.1.36.46.29.77.55.99.82h0c.24.29.39.67.44,1.11.05.46-.08.97-.42,1.56l-.74,1.37c-.31.57-.63,1.2-.97,1.88-.34.69-.66,1.39-.95,2.07-.29.69-.53,1.34-.71,1.95-.17.59-.26,1.08-.25,1.47,0,.26.06.42.18.47.05.02.2.09.49-.18.29-.26.58-.65.88-1.15.31-.52.61-1.09.9-1.71.29-.62.55-1.23.78-1.81.23-.59.42-1.08.57-1.47.12-.33.2-.53.21-.6.02-.08.06-.23.13-.46.08-.26.23-.51.43-.75.23-.26.56-.43.99-.51.41-.07.92.02,1.56.27.65.26,1.09.58,1.35.98.25.39.38.79.38,1.18,0,.37-.08.78-.24,1.24-.23.74-.48,1.43-.73,2.02-.25.6-.57,1.25-.95,1.92-.38.68-.84,1.34-1.35,1.97-.52.64-1.12,1.18-1.79,1.59-.68.43-1.44.68-2.26.74-.09,0-.19.01-.29.01ZM108.87,17.07c-.16,0-.32.03-.48.09-.21.08-.41.27-.59.57l-.64,1.1c-.29.5-.61,1.09-.98,1.81-.35.7-.69,1.46-1.01,2.28-.32.8-.56,1.64-.72,2.47-.16.82-.2,1.62-.12,2.39.08.74.32,1.44.71,2.06.39.61,1.01,1.13,1.84,1.54.83.41,1.61.59,2.29.54.7-.05,1.34-.26,1.92-.62.59-.37,1.13-.86,1.61-1.43.49-.59.92-1.22,1.28-1.86.36-.64.67-1.26.91-1.84.24-.58.48-1.24.71-1.98.14-.38.2-.71.2-.99,0-.25-.09-.51-.26-.78-.17-.26-.5-.49-1-.69-.62-.25-.98-.26-1.16-.23-.25.04-.44.13-.55.26-.14.16-.23.32-.28.48-.06.2-.1.32-.11.39,0,.03-.01.1-.24.72-.15.39-.34.89-.58,1.48-.24.6-.5,1.21-.8,1.85-.3.64-.61,1.24-.94,1.78-.33.56-.68,1-1.01,1.31-.53.49-1,.45-1.29.32-.28-.12-.62-.42-.63-1.15,0-.46.09-1.03.29-1.69.19-.63.44-1.32.74-2.03.3-.69.62-1.4.97-2.11.34-.69.67-1.33.99-1.91l.75-1.37c.25-.45.36-.82.33-1.11-.04-.3-.13-.54-.27-.72h0c-.17-.21-.42-.42-.76-.64-.3-.13-.61-.23-.87-.27-.07-.01-.14-.02-.21-.02Z"/>
          </g>
          <g>
            <path class="cls-2" d="M121.89,23.29c.5.3.87.62,1.11.95.24.34.34.77.28,1.31-.03.34-.09.73-.18,1.16-.09.43-.19.85-.3,1.26-.11.41-.24.87-.39,1.4l3.47-2c.39-.09.74-.09,1.06-.02.32.07.67.29,1.07.63,1.16,1.02,1.31,1.75.46,2.19-.17.08-.48.23-.93.45-.45.22-.95.46-1.51.73-.56.26-1.1.52-1.63.78-.53.25-1.13.55-1.82.87l-3.69,4.97c-.16.24-.34.41-.52.51-.19.1-.43.13-.73.07-.3-.05-.67-.25-1.12-.59-.59-.46-.96-.87-1.11-1.24-.15-.37-.18-.68-.1-.93.08-.25.16-.42.23-.51.04-.05.19-.26.46-.61.26-.35.58-.76.94-1.23.36-.47.72-.94,1.08-1.41.36-.47.76-1.02,1.23-1.65l.62-6.32c.03-.36.09-.64.2-.82.11-.18.31-.29.59-.33.28-.04.69.09,1.22.37Z"/>
            <path class="cls-4" d="M117.93,38.97c-.11,0-.23-.01-.35-.03-.37-.06-.78-.28-1.28-.66-.65-.5-1.05-.96-1.23-1.4-.18-.46-.22-.86-.11-1.19.1-.29.19-.49.29-.62.04-.05.18-.23.41-.55.3-.41.62-.82.98-1.29.36-.47.72-.94,1.08-1.41.34-.45.73-.97,1.17-1.56l.62-6.22c.03-.42.11-.74.25-.98.12-.2.36-.44.87-.51.37-.04.84.09,1.45.41,0,0,.01,0,.02,0,.54.32.95.68,1.22,1.06.3.41.41.94.35,1.57-.03.36-.09.76-.18,1.2-.09.44-.19.87-.31,1.28-.04.16-.09.33-.14.51l2.67-1.54s.07-.03.11-.04c.44-.1.85-.1,1.22-.02.38.09.78.32,1.23.72.82.73,1.19,1.34,1.12,1.89-.05.38-.3.69-.74.91l-.93.46c-.45.22-.95.46-1.51.73-.56.26-1.1.52-1.63.78l-1.73.83-3.64,4.9c-.19.28-.4.48-.64.62-.18.1-.39.15-.63.15ZM120.77,23.29s-.04,0-.06,0c-.25.03-.3.12-.32.15-.05.09-.12.28-.15.66l-.63,6.33c0,.07-.03.13-.07.19-.46.63-.87,1.18-1.23,1.65-.36.48-.72.95-1.08,1.42-.36.47-.67.87-.93,1.23-.28.38-.42.57-.46.62-.01.02-.08.11-.17.4-.05.16-.02.39.09.67.09.21.33.57.99,1.09.49.38.79.49.95.52.21.04.38.03.49-.03.13-.07.27-.2.39-.39l3.7-4.99s.08-.09.14-.11l1.82-.87c.53-.25,1.07-.51,1.63-.78.56-.26,1.06-.5,1.5-.72l.93-.45c.2-.1.31-.22.33-.34.02-.12-.04-.49-.87-1.23-.35-.3-.65-.49-.9-.55-.25-.06-.53-.06-.83,0l-3.42,1.97c-.13.08-.3.06-.42-.03-.12-.09-.17-.25-.13-.4.15-.52.28-.99.39-1.39.11-.4.21-.81.29-1.24.08-.41.14-.79.17-1.12.04-.44-.03-.8-.21-1.06-.21-.29-.54-.58-.99-.85-.52-.27-.79-.33-.94-.33Z"/>
          </g>
          <g>
            <path class="cls-2" d="M132.88,39.59c-.09-.32-.11-.6-.05-.81.06-.22.14-.39.25-.5.11-.12.18-.19.2-.21.06-.06.15-.17.26-.34.11-.17.07-.37-.12-.58-.31-.36-.69-.58-1.15-.67-.46-.09-.91.04-1.35.38-.44.34-.71.77-.81,1.27-.1.51.16,1.13.77,1.85.31.36.59.78.83,1.26.24.48.4,1,.49,1.55.08.55.03,1.09-.17,1.63-.19.54-.57,1.05-1.13,1.54-1.14.96-2.26,1.42-3.39,1.36-1.12-.05-2.28-.77-3.47-2.13-.79-.91-1.31-1.73-1.56-2.48-.25-.74-.33-1.37-.25-1.89.09-.52.25-.88.48-1.11.23-.22.48-.41.75-.57.27-.16.58-.19.94-.11.36.08.78.35,1.25.82.48.48.76.88.82,1.2.07.32.05.58-.05.77-.1.19-.17.3-.21.34-.04.03-.12.13-.24.29-.12.16-.2.35-.25.56-.05.21,0,.41.16.59.23.27.54.4.93.41.38,0,.84-.18,1.37-.55,1.04-.74,1.1-1.64.19-2.69-.22-.26-.47-.62-.73-1.09-.27-.47-.46-1.01-.58-1.6-.12-.59-.09-1.2.08-1.82.18-.62.6-1.22,1.28-1.78.67-.56,1.33-.92,1.96-1.06.63-.14,1.22-.13,1.79.04.56.17,1.09.44,1.59.8.5.36.94.77,1.35,1.2.54.59.97,1.23,1.3,1.92.33.69.5,1.36.52,2.01.01.65-.21,1.21-.66,1.7-.34.36-.66.55-.97.56-.31.01-.6-.05-.85-.2-.25-.15-.53-.38-.83-.71-.38-.43-.61-.81-.7-1.14Z"/>
            <path class="cls-4" d="M127.69,47.7c-.07,0-.13,0-.2,0-1.22-.06-2.48-.82-3.73-2.26-.82-.94-1.37-1.82-1.63-2.6-.27-.8-.36-1.5-.26-2.07.1-.6.3-1.03.59-1.31.25-.24.53-.45.82-.62.35-.2.76-.25,1.21-.16.43.1.9.39,1.43.92.54.54.84.99.93,1.39.09.41.05.76-.09,1.03-.16.29-.23.38-.29.44-.03.03-.09.11-.18.23-.09.12-.15.26-.19.42-.02.07-.02.15.08.25.16.19.37.28.65.28.28-.01.7-.17,1.15-.48.4-.29.62-.59.66-.91.04-.35-.14-.76-.54-1.22-.24-.28-.5-.67-.78-1.16-.28-.5-.49-1.08-.62-1.71-.13-.65-.1-1.32.09-2,.2-.7.67-1.36,1.4-1.97.72-.6,1.43-.98,2.11-1.14.69-.15,1.35-.14,1.98.05.6.18,1.17.47,1.7.86.51.38.98.8,1.4,1.25.56.61,1.01,1.29,1.36,2.01.35.73.54,1.46.55,2.16.02.75-.24,1.41-.76,1.96-.41.43-.82.66-1.23.68-.38.02-.74-.07-1.06-.26-.29-.17-.59-.42-.91-.77-.43-.49-.68-.91-.79-1.29h0c-.11-.39-.13-.73-.05-1.01.08-.28.19-.5.34-.67.12-.13.2-.21.23-.23,0,0,.06-.06.19-.26h0s0-.05-.09-.14c-.26-.29-.56-.47-.94-.54-.35-.07-.69.04-1.05.31-.37.29-.59.63-.67,1.05-.07.39.17.92.69,1.54.33.37.62.83.88,1.34.26.52.43,1.07.52,1.66.09.61.03,1.21-.19,1.81-.21.6-.63,1.17-1.24,1.7-1.14.97-2.3,1.46-3.46,1.46ZM124.06,39.37c-.15,0-.29.03-.41.1-.24.14-.47.31-.68.51-.17.16-.3.48-.37.9-.08.45,0,1.02.23,1.7.24.69.74,1.48,1.49,2.35,1.11,1.28,2.19,1.95,3.2,2,1.03.05,2.07-.38,3.13-1.28.51-.44.85-.91,1.02-1.38.17-.48.22-.96.15-1.44-.08-.51-.23-.99-.45-1.43-.23-.45-.49-.85-.78-1.18-.7-.83-.97-1.54-.85-2.17.11-.6.43-1.11.95-1.5.53-.41,1.08-.56,1.65-.45.54.1,1,.37,1.36.79.4.46.27.84.16,1.03-.13.21-.24.34-.33.43-.02.02-.08.08-.17.18-.07.07-.12.19-.16.34-.04.15-.02.36.05.62,0,0,0,0,0,0,.08.27.29.6.62.99.27.28.52.5.74.63.19.11.39.16.64.15.21,0,.45-.16.72-.44.39-.41.57-.88.56-1.43-.01-.59-.17-1.22-.48-1.85-.31-.65-.73-1.27-1.24-1.83-.38-.41-.82-.8-1.29-1.15-.46-.34-.96-.59-1.48-.75-.5-.15-1.04-.16-1.6-.04-.57.13-1.17.46-1.8.98-.61.51-1,1.05-1.16,1.6-.16.56-.18,1.12-.08,1.64.11.55.29,1.05.54,1.49.25.45.48.79.69,1.03.54.63.79,1.23.72,1.8-.06.53-.39,1.02-.97,1.43-.61.42-1.16.64-1.59.62-.49,0-.9-.18-1.21-.54-.23-.27-.32-.59-.24-.92.06-.26.17-.5.32-.7.18-.24.25-.31.29-.35,0-.02.06-.1.12-.23.06-.11.06-.29.02-.51-.04-.17-.19-.48-.72-1.01-.52-.51-.87-.67-1.06-.72-.1-.02-.18-.03-.27-.03Z"/>
          </g>
        </g>
        <g>
          <g>
            <path class="cls-6" d="M107.72,133.63c-5.54.78-12.76-.44-22.63-3.98-1.42-.51-2.15-2.07-1.64-3.48.51-1.42,2.07-2.15,3.48-1.64,11.97,4.29,19.48,4.97,24.36,2.22,4.57-2.58,7.39-8.24,11-17.79.53-1.41,2.1-2.12,3.51-1.58,1.41.53,2.12,2.1,1.58,3.51-4.96,13.14-9.51,21.32-19.66,22.76Z"/>
            <path class="cls-4" d="M104.3,134.24c-5.11,0-11.37-1.38-19.34-4.23-.78-.28-1.4-.84-1.76-1.59-.35-.75-.39-1.59-.12-2.37.28-.78.85-1.4,1.59-1.76.75-.35,1.59-.4,2.37-.11,11.85,4.25,19.27,4.94,24.05,2.24,4.46-2.52,7.25-8.13,10.83-17.6.29-.77.87-1.39,1.62-1.73.75-.34,1.6-.37,2.37-.07.77.29,1.39.87,1.73,1.62.34.75.37,1.6.07,2.37-5.22,13.82-9.95,21.58-19.96,23h0c-1.1.16-2.25.23-3.47.23ZM86.01,124.74c-.34,0-.68.08-1,.23-.57.27-1,.74-1.21,1.33-.21.59-.18,1.23.09,1.8s.74,1,1.33,1.21c9.75,3.49,16.88,4.75,22.45,3.96h0c9.64-1.36,14.24-8.97,19.36-22.52.22-.59.2-1.22-.06-1.8-.26-.57-.72-1.01-1.31-1.23-.58-.22-1.22-.2-1.79.06-.57.26-1.01.72-1.23,1.31-3.64,9.64-6.5,15.36-11.16,17.99-4.98,2.81-12.59,2.14-24.67-2.19-.26-.09-.53-.14-.79-.14Z"/>
          </g>
          <g>
            <g>
              <path class="cls-2" d="M118.66,106.46c-3.54,1.29-4.56,3.75,4.85,7.62,9.85,4.06,10.1,1.54,9.59-1.68,0,0,4.52-.49,7.87-7.36,3.35-6.87,5.47-15.81,4.27-18.01-1.19-2.19-4.49,3.91-4.49,3.91,0,0,1.1-6.49.27-8.92-.83-2.44-4.19,3.38-5.06,6.82,0,0,1.83-7.23-.28-10.06-2.11-2.83-4.72,6.7-4.72,6.7,0,0,1.08-6.76-.84-7.81-1.92-1.05-5.81,8.08-6.89,14.83,0,0-2.25-6.13-5.44-6.82-3.2-.69-3.39,8.55-2.15,12.86,1.1,3.84,3.02,7.92,3.02,7.92Z"/>
              <path class="cls-4" d="M130.93,116.56c-1.64,0-4.09-.7-7.57-2.13-5.16-2.13-7.65-4-7.62-5.73.02-.98.83-1.8,2.41-2.45-.49-1.09-1.97-4.45-2.87-7.61-1.03-3.57-1.13-10.65.83-12.74.49-.53,1.1-.73,1.77-.58,2.48.54,4.36,4,5.21,5.87,1.14-5.69,3.99-12.78,6.13-13.83.48-.24.86-.14,1.08-.02,1.16.64,1.39,2.88,1.34,4.87.75-1.96,1.83-4.09,2.99-4.31.35-.06.86,0,1.35.66,1.17,1.58,1.21,4.36.98,6.65,1.03-2.11,2.39-4.09,3.43-4.13.26,0,.73.08.99.83.57,1.68.28,5.1.01,7.24.87-1.34,2.14-2.96,3.18-2.96h0c.29,0,.7.12,1,.67,1.27,2.34-.8,11.26-4.27,18.35-2.88,5.89-6.59,7.22-7.79,7.5.18,1.26.22,2.6-.71,3.33-.44.35-1.06.52-1.88.52ZM117.45,86.02c-.3,0-.56.13-.81.39-1.59,1.7-1.72,8.32-.65,12.02,1.08,3.77,2.98,7.82,3,7.86.04.1.05.21,0,.3-.04.1-.12.17-.22.21-1.04.38-2.28,1.01-2.29,1.91-.02.77.89,2.44,7.15,5.02,4.74,1.95,7.66,2.53,8.7,1.71.63-.5.61-1.55.38-2.98-.02-.1.01-.2.07-.29.06-.08.15-.13.26-.15.04,0,4.37-.58,7.58-7.15,3.54-7.25,5.31-15.77,4.28-17.66-.15-.28-.28-.28-.34-.28-.84,0-2.55,2.45-3.49,4.19-.09.16-.28.24-.45.18-.17-.06-.28-.24-.25-.42.01-.06,1.08-6.42.29-8.74-.05-.15-.13-.33-.24-.33h0c-.88.04-3.31,4.02-4.09,7.11,0,0,0,0,0,0-.05.2-.25.32-.46.27-.2-.05-.32-.25-.27-.46h0c.02-.07,1.76-7.09-.22-9.75-.32-.42-.54-.38-.61-.37-1.18.22-2.74,4.37-3.45,6.94-.05.19-.25.31-.44.27-.2-.04-.32-.23-.29-.43.4-2.51.58-6.75-.65-7.42-.04-.02-.16-.08-.39.03-1.88.92-4.99,8.52-5.95,14.53-.03.17-.16.3-.33.31-.17.02-.33-.08-.39-.24-.02-.06-2.22-5.94-5.17-6.58-.09-.02-.17-.03-.25-.03Z"/>
            </g>
            <path class="cls-4" d="M126.41,108.98c-.05,0-.11-.01-.16-.04-.05-.03-5.37-2.58-7.51-2.12-.21.05-.4-.09-.45-.29-.04-.2.08-.4.29-.45,2.39-.51,7.77,2.07,8,2.18.19.09.26.31.17.5-.07.13-.2.21-.34.21Z"/>
            <path class="cls-4" d="M128.44,104.06s-.05,0-.08,0c-.2-.04-.33-.24-.29-.44.35-1.65.15-3.04-.6-4.14-1.26-1.86-3.7-2.29-3.72-2.3-.16-.03-.29-.16-.31-.32l-.59-4.3c-.03-.21.12-.39.32-.42.21-.03.39.12.42.32l.55,4.04c.73.18,2.75.8,3.94,2.55.87,1.28,1.11,2.86.72,4.72-.04.18-.19.3-.37.3Z"/>
            <path class="cls-4" d="M129.71,93.33s-.07,0-.11-.02c-.2-.06-.31-.27-.25-.47.01-.04,1.09-3.61,1.24-7.38,0-.21.17-.39.39-.36.21,0,.37.18.36.39-.15,3.87-1.22,7.42-1.27,7.56-.05.16-.2.27-.36.27Z"/>
            <path class="cls-4" d="M134.64,95.36s-.08,0-.12-.02c-.2-.07-.3-.28-.23-.48.01-.04,1.23-3.65,1.3-6.02,0-.21.19-.35.39-.36.21,0,.37.18.36.39-.07,2.49-1.29,6.09-1.34,6.24-.05.16-.2.25-.35.25Z"/>
            <path class="cls-4" d="M139.01,97.15s-.1,0-.14-.03c-.19-.08-.28-.3-.2-.49.63-1.52,1.72-5.74,1.73-5.78.05-.2.25-.32.46-.27.2.05.32.26.27.46-.04.17-1.11,4.3-1.76,5.88-.06.14-.2.23-.35.23Z"/>
            <path class="cls-4" d="M139.9,99.75c-.11,0-.22-.05-.29-.14-4.89-6.17-12.11-5.04-12.18-5.03-.21.04-.4-.1-.43-.31-.03-.2.1-.4.31-.43.08-.01,7.73-1.21,12.89,5.3.13.16.1.4-.06.53-.07.05-.15.08-.23.08Z"/>
          </g>
          <g>
            <g>
              <path class="cls-5" d="M101.49,48.54c-6.55-5.26-30.09,1.36-43.72,22.93-13.63,21.57-18.01,51.49-18.01,51.49l38.37,1.02s8.02-25.86,18.77-47.37c10.75-21.52,6.76-26.33,4.59-28.07Z"/>
              <path class="cls-4" d="M78.13,124.35h0l-38.37-1.02c-.11,0-.21-.05-.28-.13-.07-.08-.1-.19-.08-.3.04-.3,4.55-30.25,18.06-51.64,9.82-15.55,24.32-22.9,33.75-24.47,4.65-.78,8.39-.26,10.52,1.45h0c1.72,1.38,6.96,5.6-4.49,28.53-10.61,21.24-18.67,47.06-18.75,47.32-.05.16-.19.26-.36.26ZM40.2,122.6l37.66,1c.89-2.83,8.65-27.03,18.71-47.16,7.42-14.85,9-24.14,4.69-27.61h0c-1.93-1.55-5.55-2.02-9.93-1.29-9.28,1.55-23.55,8.8-33.24,24.13-12.56,19.88-17.29,47.23-17.89,50.93Z"/>
            </g>
            <g>
              <path class="cls-6" d="M75.28,124.1c9.24-8.49,14.29.87,14.25,11.68-.04,10.81,4.8,18.2,7.36,20.61,2.56,2.41-3.67,5.79-5.22,5.04-1.55-.75-11.42-11.25-16.7-15.84-5.27-4.58-1.74-19.62.3-21.49Z"/>
              <path class="cls-4" d="M92.25,161.91c-.29,0-.54-.05-.74-.14-.83-.4-3.42-2.94-7.57-7.06-3.15-3.12-6.72-6.66-9.21-8.83-1.84-1.6-2.83-4.56-2.89-8.58-.08-5.51,1.72-12.12,3.18-13.47h0c4.21-3.86,7.23-3.73,9.02-2.94,3.59,1.59,5.89,7.43,5.86,14.89-.04,10.66,4.72,17.96,7.25,20.34.89.83.97,1.88.23,2.96-1.04,1.51-3.58,2.84-5.13,2.84ZM75.53,124.38h0c-1.08.99-3.02,6.98-2.94,12.9.04,2.65.52,6.19,2.63,8.03,2.51,2.18,6.09,5.73,9.25,8.86,3.4,3.37,6.61,6.55,7.37,6.92.81.39,3.81-.81,4.93-2.44.52-.76.48-1.41-.13-1.98-2.61-2.45-7.52-9.96-7.48-20.88.03-7.16-2.1-12.74-5.42-14.2-2.28-1.01-5.12-.03-8.21,2.81Z"/>
            </g>
            <g>
              <path class="cls-6" d="M90.05,119.85c-5.13-6.48-13.18,3.98-11.62,11.64,1.56,7.66-5.23-2.66-6.06-3.5-.83-.85,1.67-12.73,2.42-13.29.75-.56,7.22-4.84,7.22-4.84l7.37,3.94.67,6.06Z"/>
              <path class="cls-4" d="M78.17,134.68c-1.03,0-2.66-1.9-5.16-5.25-.42-.56-.78-1.04-.91-1.18-.19-.19-.35-.58-.24-2.09.25-3.25,1.88-11.16,2.7-11.77.75-.56,6.97-4.68,7.23-4.86.12-.08.26-.08.38-.02l7.37,3.94c.11.06.18.17.2.29l.67,6.06c.02.17-.08.32-.23.39-.15.06-.33.02-.44-.11-1.46-1.85-3.26-2.35-5.2-1.45-3.46,1.61-6.79,7.67-5.75,12.78.4,1.96.31,2.92-.32,3.2-.1.04-.2.06-.31.06ZM82.03,110.29c-1.07.71-6.35,4.21-7.01,4.71-.61.71-2.95,11.72-2.36,12.75.15.15.47.58.96,1.23,2.56,3.43,4.1,5.1,4.56,4.95,0,0,.31-.26-.11-2.36-1.12-5.53,2.39-11.86,6.17-13.61,1.92-.89,3.77-.6,5.32.81l-.52-4.73-7-3.74Z"/>
            </g>
            <g>
              <path class="cls-6" d="M116.09,197.79c-4.84-1.34-12.55-1.61-14.94-7.91-2.38-6.3-1.88-13.67-10.71-23.95-8.82-10.28-17.64-35.74-7.51-56.08,0,0-13.16-.33-19.51,11.81,0,0-1.11-4.93-8.73-6.06-7.63-1.13-14.94,7.37-14.94,7.37-.82,4.91-1.25,9.97-1.24,15.04-7.96,6.07-18.28,16.15-18.86,27.97-.26,5.28,2.06,7.86,4.05,9.09,2.5,1.55,5.95,1.95,10.43,1.19,2.78-.47,5.95-1.39,9.55-2.75.91-.34,1.79-.7,2.64-1.05,3.01,5.9,6.95,11.32,11.92,15.96,17.57,16.44,35.87,10.67,41.9,14.31,6.03,3.65,10.47,9.91,13.11,6.62s7.68-10.22,2.85-11.57ZM26.72,170.23c-.37-.23-1.5-.93-1.35-3.97.4-8.2,7.09-15.75,13.46-21.15.64,7.63,2.31,15.16,5.15,22.18-6.98,2.87-14.3,4.77-17.25,2.94Z"/>
              <path class="cls-4" d="M111.47,210.66c-1.72,0-3.71-1.62-6.19-3.65-1.59-1.3-3.4-2.77-5.34-3.95-1.82-1.1-4.9-1.31-8.79-1.58-8.38-.57-21.04-1.44-33.17-12.78-4.74-4.43-8.72-9.73-11.84-15.76-.76.31-1.53.62-2.33.92-3.6,1.36-6.84,2.29-9.62,2.77-4.59.78-8.09.37-10.69-1.24-2.08-1.29-4.49-3.97-4.22-9.43.58-11.75,10.54-21.77,18.86-28.14,0-4.99.42-10,1.25-14.92.01-.07.04-.13.09-.18.3-.35,7.54-8.64,15.28-7.49,5.96.88,8.07,4.01,8.75,5.52,6.52-11.46,19.32-11.28,19.45-11.27.13,0,.25.07.31.18s.07.25.01.36c-9.67,19.4-1.88,44.79,7.46,55.67,6.52,7.6,7.98,13.54,9.26,18.78.46,1.86.88,3.61,1.51,5.28,1.86,4.91,7.06,6.01,11.65,6.98,1.08.23,2.1.44,3.03.7,1.13.31,1.85.93,2.14,1.84.66,2.04-.95,5.52-4.8,10.32-.5.63-1.1.98-1.79,1.05-.09,0-.18.01-.28.01ZM46.32,172.09c.14,0,.27.08.33.2,3.1,6.08,7.09,11.41,11.84,15.86,11.93,11.16,24.43,12.02,32.7,12.58,3.99.27,7.15.49,9.13,1.69,1.99,1.2,3.81,2.69,5.43,4.01,2.38,1.94,4.46,3.62,5.91,3.47.48-.05.9-.3,1.28-.78,4.58-5.72,5.07-8.39,4.67-9.62-.21-.66-.75-1.11-1.63-1.35-.91-.25-1.92-.47-2.99-.69-4.54-.96-10.2-2.16-12.2-7.45-.65-1.71-1.08-3.48-1.54-5.36-1.26-5.16-2.69-11.01-9.1-18.47-9.38-10.93-17.22-36.32-7.83-55.94-2.62.12-13.17,1.27-18.57,11.6-.07.14-.21.22-.38.2-.16-.02-.28-.14-.32-.29-.04-.19-1.17-4.7-8.42-5.78-6.95-1.04-13.78,6.32-14.53,7.16-.82,4.9-1.23,9.91-1.22,14.88,0,.12-.05.23-.15.3-8.22,6.27-18.14,16.16-18.71,27.69-.25,5.1,1.96,7.58,3.87,8.76,2.44,1.51,5.76,1.89,10.17,1.14,2.73-.46,5.92-1.38,9.48-2.73.9-.34,1.78-.69,2.63-1.05.05-.02.1-.03.14-.03ZM30.04,171.33c-1.41,0-2.63-.23-3.53-.79h0c-.42-.26-1.69-1.05-1.53-4.3.42-8.54,7.62-16.36,13.59-21.42.11-.09.26-.11.39-.06.13.05.22.18.23.32.66,7.86,2.38,15.29,5.12,22.07.08.19-.01.41-.21.49-3.77,1.55-9.78,3.7-14.07,3.7ZM26.91,169.91c2.38,1.48,8.56.42,16.57-2.83-2.61-6.55-4.28-13.68-4.97-21.21-5.74,4.96-12.38,12.39-12.77,20.41-.14,2.81.85,3.43,1.18,3.63l-.2.32.2-.32Z"/>
            </g>
            <g>
              <path class="cls-2" d="M63.43,121.66s1.56-7.96-12.83-15.98c-14.39-8.02-27.23,2.48-29.77,14.7-1.99,9.55,3.46,12.18,7.39,29.49,1.14,5.04-.07,15.3,4.74,16.83,4.81,1.53,4.65-.39,3.89-9.99-.81-10.34-3.52-15.13,3.6-27.45,7.12-12.32,17.96-12.3,22.98-7.6Z"/>
              <path class="cls-4" d="M35.28,167.55c-.62,0-1.41-.16-2.43-.49-3.65-1.16-4.04-6.81-4.39-11.79-.14-2-.27-3.88-.6-5.32-1.66-7.31-3.57-11.96-5.11-15.69-2.07-5.03-3.44-8.35-2.28-13.96,1.48-7.12,6.25-13.3,12.44-16.13,3.95-1.8,10.25-3.06,17.88,1.19,14.46,8.06,13.08,16.04,13.01,16.38-.03.13-.12.24-.25.29-.13.04-.27,0-.37-.08-2.35-2.2-5.86-3.2-9.4-2.67-5.01.74-9.63,4.36-12.99,10.18-5.67,9.82-5.04,14.81-4.15,21.71.22,1.72.45,3.5.61,5.52.51,6.46.74,9.39-.6,10.45-.35.28-.78.41-1.36.41ZM40.52,103.24c-2.92,0-5.4.74-7.3,1.61-5.98,2.73-10.58,8.71-12.02,15.6-1.12,5.39.14,8.45,2.23,13.52,1.55,3.76,3.48,8.44,5.15,15.81.34,1.49.47,3.41.61,5.44.33,4.74.71,10.11,3.87,11.12,1.67.53,2.6.59,3.09.2,1.02-.81.77-3.99.32-9.77-.16-2.04-.39-3.81-.6-5.52-.9-7.05-1.55-12.15,4.25-22.19,3.48-6.02,8.29-9.77,13.53-10.55,3.48-.52,6.95.36,9.44,2.35-.04-2.09-1.2-8.47-12.68-14.87-3.66-2.04-7-2.77-9.9-2.77Z"/>
            </g>
            <g>
              <path class="cls-6" d="M37.46,125.84c-7.12,12.32-4.37,31.8-1.3,40.92.02.06.04.12.06.18,1.38-.78,1.15-3.76.64-10.24,0,0,0-.01,0-.02-.37-2.14-.63-4.38-.75-6.69-.79-6.39-1.05-11.4,4.35-20.75,7.12-12.32,17.96-12.3,22.98-7.6-5.02-4.7-18.86-8.14-25.98,4.18Z"/>
              <path class="cls-4" d="M36.22,167.32s-.09,0-.13-.02c-.1-.04-.19-.12-.22-.23l-.06-.19c-3.33-9.89-5.72-29.04,1.33-41.23,2.78-4.8,6.88-7.74,11.88-8.48,6.03-.9,11.83,1.55,14.67,4.2h0s0,0,0,0c.08.07.12.17.12.27,0,.09-.03.18-.1.26-.14.15-.38.16-.53.02,0,0,0,0,0,0h0c-2.35-2.19-5.86-3.19-9.4-2.66-5.01.74-9.63,4.36-12.99,10.18-5.25,9.08-5.11,14.02-4.3,20.51.12,2.19.37,4.42.75,6.67.54,6.9.77,9.74-.82,10.64-.06.03-.12.05-.18.05ZM51.6,117.74c-.82,0-1.64.06-2.48.18-4.76.71-8.68,3.51-11.34,8.11-6.84,11.83-4.61,30.4-1.38,40.26.76-1.1.52-4.13.09-9.54-.39-2.26-.64-4.52-.76-6.71-.82-6.62-.96-11.67,4.4-20.95,3.48-6.02,8.29-9.77,13.53-10.55.95-.14,1.89-.18,2.82-.12-1.52-.42-3.17-.67-4.88-.67Z"/>
            </g>
            <g>
              <path class="cls-2" d="M116.41,151.44c-4.63,2.3-5.52,2.67-9.28-7.6-3.76-10.27-12.5-13.06-17.09-23.99-4.58-10.93-17.03-11.62-26.61,1.81,0,0,5-14.15,25.19-16.39,15.01-1.66,20.8-.13,24.89,4.67,4.09,4.8,3.98,17.37,4.02,26.18.03,8.81,1.79,13.87-1.12,15.31Z"/>
              <path class="cls-4" d="M112.74,153.15c-.32,0-.64-.05-.94-.18-1.54-.62-2.72-2.72-5.02-9.01-1.87-5.1-4.96-8.3-8.23-11.69-3.22-3.34-6.55-6.79-8.85-12.28-1.95-4.65-5.33-7.47-9.53-7.94-5.55-.62-11.54,2.96-16.43,9.82-.11.15-.32.2-.48.11-.17-.09-.24-.28-.18-.46.05-.14,5.31-14.4,25.51-16.63,14.43-1.6,20.8-.39,25.22,4.8,4.03,4.73,4.07,16.7,4.1,25.45v.98c.01,2.74.19,5.08.34,7.14.35,4.61.55,7.4-1.67,8.51-1.55.77-2.76,1.37-3.84,1.37ZM78.93,111.24c.44,0,.89.02,1.33.07,4.41.49,8.11,3.55,10.14,8.39,2.25,5.36,5.53,8.76,8.7,12.05,3.33,3.45,6.47,6.71,8.39,11.96,2.16,5.9,3.32,8.06,4.59,8.57.97.38,2.09-.14,4.17-1.17h0c1.77-.88,1.58-3.48,1.26-7.78-.16-2.08-.33-4.43-.34-7.2v-.98c-.03-8.63-.07-20.45-3.93-24.96-4.23-4.96-10.43-6.1-24.57-4.54-13.21,1.46-19.86,8.15-22.83,12.44,4.08-4.44,8.67-6.86,13.09-6.86Z"/>
            </g>
            <g>
              <path class="cls-6" d="M110.14,143.88c-3.76-10.27-13.31-16.99-17.9-27.92-2.44-5.83-10.1-9.97-16.64-6.89-9.46,4.94-12.17,12.59-12.17,12.59,9.58-13.43,22.03-12.75,26.61-1.81,4.58,10.93,13.33,13.72,17.09,23.99,2.71,7.41,3.93,9.28,6.14,8.89-.74-.39-.89-2.72-3.13-8.84Z"/>
              <path class="cls-4" d="M112.74,153.15c-2.2,0-3.52-2.51-5.96-9.18-1.87-5.1-4.96-8.3-8.23-11.69-3.22-3.34-6.55-6.79-8.85-12.28-1.95-4.65-5.33-7.47-9.53-7.94-5.55-.62-11.54,2.96-16.43,9.82-.11.15-.32.2-.48.11-.17-.09-.24-.28-.18-.46.11-.32,2.86-7.85,12.35-12.8,2.91-1.37,6.25-1.44,9.43-.22,3.49,1.34,6.38,4.07,7.73,7.3,2.23,5.32,5.68,9.68,9.02,13.89,3.57,4.51,6.95,8.76,8.88,14.05h0c1.03,2.82,1.63,4.87,2.03,6.23.4,1.37.67,2.27.93,2.41.14.07.22.23.19.39-.02.16-.15.28-.3.31-.21.04-.41.06-.6.06ZM78.93,111.24c.44,0,.89.02,1.33.07,4.41.49,8.11,3.55,10.14,8.39,2.25,5.36,5.53,8.76,8.7,12.05,3.33,3.45,6.47,6.71,8.39,11.96,2.31,6.32,3.5,8.46,5.04,8.67-.22-.46-.42-1.15-.72-2.19-.4-1.35-.99-3.39-2.02-6.18h0c-1.89-5.17-5.23-9.38-8.76-13.84-3.37-4.25-6.86-8.65-9.13-14.07-1.28-3.05-4.01-5.62-7.31-6.89-2.99-1.15-6.12-1.08-8.83.19-5.1,2.66-8.21,6.15-9.99,8.75,4.09-4.47,8.71-6.92,13.15-6.92Z"/>
            </g>
            <path class="cls-4" d="M68.76,132.93c-.17,0-.33-.12-.37-.3-.02-.08-1.64-7.83-5.2-10.68-.16-.13-.19-.37-.06-.53.13-.16.37-.19.53-.06,3.76,3.02,5.39,10.78,5.46,11.11.04.2-.09.4-.29.44-.03,0-.05,0-.08,0Z"/>
            <path class="cls-4" d="M29.73,120.75s-.07,0-.11-.02c-.2-.06-.31-.27-.25-.47,2.38-7.93,7.31-11.29,11.02-12.71,5.79-2.23,11.92-1.08,15.42,1.04.18.11.23.34.13.52-.11.18-.34.23-.51.13-3.34-2.03-9.2-3.12-14.76-.99-3.56,1.37-8.28,4.6-10.57,12.23-.05.16-.2.27-.36.27Z"/>
            <path class="cls-4" d="M113.42,131.53c-.16,0-.31-.1-.36-.26-.72-2.25-1.14-4.86-1.55-7.38-1.26-7.81-2.44-15.19-11.71-14.17-.2.03-.39-.13-.41-.33-.02-.21.13-.39.33-.41,9.95-1.11,11.27,6.98,12.53,14.79.4,2.49.82,5.07,1.52,7.27.06.2-.05.41-.24.47-.04.01-.08.02-.11.02Z"/>
            <path class="cls-4" d="M96.71,190.75c-.18,0-.34-.13-.37-.31-.03-.16-2.96-16.07-9.23-20.05-.17-.11-.23-.34-.12-.52.11-.17.34-.22.52-.12,6.55,4.16,9.45,19.89,9.57,20.55.04.2-.1.4-.3.44-.02,0-.04,0-.07,0Z"/>
            <path class="cls-4" d="M107.94,205.82s-.01,0-.02,0c-.21-.01-.36-.19-.35-.4,0-.08.55-8.07,6.44-8.5.23,0,.39.14.4.35.01.21-.14.39-.35.4-5.24.38-5.74,7.72-5.75,7.79-.01.2-.18.35-.37.35Z"/>
          </g>
          <g>
            <g>
              <path class="cls-2" d="M41.22,173.41c-2.98-9.53-2.08-10.55-.74-11.37,1.34-.82,2.81-.28,3.43.75,0,0-2.32-6.12.97-9.98,3.29-3.86,9.68-3.12,12.14.61,0,0,4.53-2.35,6.98-1.58s2.53,3.86,1.92,5.25c0,0,2.84-.14,3.91,1.85s-.01,4-.01,4c0,0,2.54.46,2.14,3.93-.4,3.47-5.01,8.29-11.07,10.06-6.06,1.77-12.93-1.81-12.93-1.81,0,0,.65,1.52-1.57,2.68s-4.28-1.51-5.18-4.4Z"/>
              <path class="cls-4" d="M45.32,178.47c-.34,0-.68-.07-1.02-.21-1.66-.69-2.87-2.89-3.44-4.73h0c-2.97-9.52-2.2-10.81-.58-11.8.69-.42,1.49-.55,2.23-.37.23.06.44.14.65.25-.51-2.07-1.04-6.12,1.44-9.03,1.59-1.86,4-2.84,6.59-2.68,2.45.15,4.65,1.28,5.95,3.05,1.07-.52,4.75-2.15,6.97-1.46.94.3,1.67.94,2.09,1.87.5,1.09.5,2.41.24,3.37.94.06,2.84.4,3.72,2.04.87,1.62.45,3.22.17,3.95.79.33,2.33,1.35,2.01,4.2-.41,3.53-5.06,8.55-11.34,10.38-5.14,1.5-10.73-.69-12.58-1.53-.03.66-.38,1.61-1.85,2.38-.41.21-.83.32-1.25.32ZM41.58,173.3c.66,2.11,1.84,3.78,3.01,4.26.56.23,1.09.2,1.64-.08,1.86-.98,1.42-2.16,1.4-2.21-.06-.15-.02-.31.1-.42.12-.11.28-.13.42-.06.07.03,6.81,3.48,12.65,1.78,5.99-1.75,10.42-6.45,10.8-9.74.35-3.06-1.75-3.5-1.84-3.52-.12-.02-.22-.1-.27-.21-.05-.11-.05-.23,0-.34,0-.02.98-1.86.01-3.64-.95-1.75-3.55-1.66-3.57-1.66-.15.01-.25-.06-.33-.16-.07-.11-.09-.24-.04-.36.34-.78.43-2.19-.06-3.28-.34-.74-.88-1.23-1.63-1.46-2.27-.72-6.65,1.53-6.7,1.55-.17.09-.38.03-.49-.13-1.14-1.73-3.21-2.84-5.56-2.99-2.36-.14-4.54.73-5.98,2.42-3.11,3.64-.93,9.54-.91,9.6.07.18-.01.39-.19.47-.17.08-.39.02-.48-.14-.27-.45-.72-.78-1.25-.91-.39-.1-.99-.12-1.66.28-1.04.63-2.11,1.29.9,10.93h0Z"/>
            </g>
            <path class="cls-4" d="M51.34,157.55c-.1,0-.2-.04-.27-.12-.14-.15-.14-.39.01-.53.09-.08,2.21-2.07,5.77-3.81.19-.09.41-.01.5.17.09.19.01.41-.17.5-3.45,1.69-5.57,3.66-5.59,3.68-.07.07-.16.1-.26.1Z"/>
            <path class="cls-4" d="M62.19,159.59c-.07,0-.14-.02-.21-.06-.17-.11-.22-.35-.1-.52.06-.08,1.39-2.04,4.02-2.28.21-.01.39.13.41.34.02.21-.13.39-.34.41-2.26.2-3.45,1.93-3.46,1.95-.07.11-.19.17-.31.17Z"/>
            <path class="cls-4" d="M66.24,165.16c-.08,0-.15-.02-.22-.07-.17-.12-.2-.36-.08-.52.06-.08,1.49-2,3.76-2,.04,0,.09,0,.14,0,.21,0,.37.18.36.39,0,.21-.2.35-.39.36-.04,0-.07,0-.11,0-1.9,0-3.15,1.67-3.16,1.69-.07.1-.19.15-.3.15Z"/>
          </g>
          <g>
            <g>
              <path class="cls-2" d="M79.24,71.49c-3.62,5.43-7.38,9.28-10.56,7.16-2.97-1.98-1.05-7.07,2.57-12.49,3.62-5.43,6.56-9.83,10.56-7.16,3.17,2.12,1.05,7.07-2.57,12.49Z"/>
              <path class="cls-4" d="M70.57,79.63c-.71,0-1.41-.2-2.09-.66-2.82-1.88-1.96-6.38,2.47-13.01,3.63-5.44,6.77-10.14,11.08-7.26,3.86,2.58.44,8.66-2.47,13.01h0c-2.39,3.58-5.73,7.92-8.99,7.92ZM79.47,58.59c-2.71,0-5.07,3.53-7.9,7.78-2.37,3.55-5.88,9.83-2.67,11.97,2.48,1.65,5.76-.65,10.04-7.06h0c4.28-6.4,5.15-10.32,2.67-11.97-.74-.5-1.45-.72-2.13-.72ZM79.24,71.49h0,0Z"/>
            </g>
            <g>
              <path class="cls-4" d="M74.04,70.63l3.06-.13c.04-.06.09-.13.13-.19,2.31-3.46,3.26-6.88,2.12-7.64-1.14-.76-3.94,1.43-6.25,4.89-2.31,3.46-3.26,6.88-2.12,7.64.88.59,2.74-.58,4.61-2.74l-1.56-1.83Z"/>
              <path class="cls-4" d="M71.53,75.72c-.27,0-.52-.07-.74-.21-.71-.47-.84-1.59-.39-3.22.41-1.48,1.26-3.24,2.4-4.94,2.13-3.19,5.23-6.02,6.77-4.99.71.47.84,1.59.39,3.22-.41,1.48-1.26,3.24-2.4,4.94l-.13.2c-.07.1-.18.16-.29.16l-2.29.09,1.06,1.24c.12.14.12.35,0,.49-1.36,1.56-3.09,3.02-4.36,3.02ZM78.82,62.89c-1,0-3.22,1.62-5.4,4.87-1.1,1.64-1.91,3.32-2.3,4.72-.34,1.22-.31,2.14.08,2.4.54.36,2.07-.38,3.91-2.43l-1.35-1.58c-.09-.11-.12-.26-.06-.39.06-.13.18-.22.33-.22l2.9-.15c1.1-1.64,1.91-3.32,2.31-4.73.34-1.22.31-2.14-.08-2.4-.09-.06-.2-.09-.33-.09Z"/>
            </g>
            <g>
              <path class="cls-6" d="M77.93,68.13c.83.56,1.75.92,2.73,1.11,2.69-4.51,3.87-8.42,1.15-10.25-2.81-1.88-5.11-.25-7.48,2.78.38,2.73,1.57,5,3.6,6.35Z"/>
              <path class="cls-4" d="M80.67,69.62s-.05,0-.07,0c-1.05-.21-2.02-.6-2.87-1.17-2.06-1.37-3.36-3.66-3.77-6.61-.01-.1.01-.2.08-.28,2.09-2.66,4.67-5.08,7.99-2.86,2.59,1.73,2.25,5.25-1.03,10.75-.07.12-.19.18-.32.18ZM74.72,61.89c.4,2.66,1.58,4.71,3.42,5.93h0c.7.47,1.48.8,2.34,1,2.91-4.96,3.28-8.07,1.12-9.51-2.24-1.49-4.24-.75-6.88,2.58Z"/>
            </g>
          </g>
          <g>
            <g>
              <path class="cls-2" d="M90.9,79.94c-3.62,5.43-7.38,9.28-10.56,7.16-2.97-1.98-1.06-7.07,2.57-12.49,3.62-5.43,6.56-9.83,10.56-7.16,3.17,2.12,1.05,7.07-2.57,12.49Z"/>
              <path class="cls-4" d="M82.22,88.06c-.73,0-1.43-.22-2.08-.65-1.54-1.03-1.99-2.83-1.34-5.36.53-2.09,1.82-4.67,3.81-7.65,3.63-5.44,6.77-10.14,11.08-7.26,3.86,2.58.44,8.66-2.47,13.01h0c-2.07,3.11-3.88,5.23-5.53,6.5-1.23.95-2.39,1.42-3.47,1.42ZM91.13,67.03c-2.71,0-5.07,3.53-7.9,7.78-1.95,2.91-3.19,5.41-3.71,7.42-.56,2.19-.21,3.72,1.03,4.55,1.34.89,2.87.65,4.67-.73,1.58-1.22,3.34-3.28,5.36-6.32h0c4.28-6.4,5.15-10.32,2.67-11.97-.74-.5-1.45-.72-2.13-.72Z"/>
            </g>
            <g>
              <path class="cls-4" d="M85.71,79.07l3.06-.13c.04-.06.09-.13.13-.19,2.31-3.46,3.26-6.88,2.12-7.64-1.14-.76-3.94,1.43-6.25,4.89-2.31,3.46-3.26,6.88-2.12,7.64.88.59,2.74-.58,4.61-2.74l-1.56-1.83Z"/>
              <path class="cls-4" d="M83.19,84.16c-.27,0-.52-.07-.74-.21-.71-.47-.84-1.59-.39-3.22.41-1.48,1.26-3.24,2.4-4.94,2.13-3.19,5.23-6.02,6.77-4.99,1.54,1.03.11,4.97-2.02,8.16l-.09.13c-.07.1-.22.22-.34.23l-2.29.09,1.06,1.24c.12.14.12.35,0,.49-1.36,1.56-3.09,3.02-4.36,3.02ZM90.49,71.34c-1,0-3.22,1.62-5.4,4.87-1.1,1.64-1.91,3.32-2.3,4.73-.34,1.22-.31,2.14.08,2.4.53.36,2.07-.38,3.91-2.43l-1.35-1.58c-.09-.11-.12-.26-.06-.39.06-.13.18-.22.33-.22l2.9-.15c2.46-3.69,2.96-6.63,2.23-7.12-.09-.06-.2-.09-.33-.09Z"/>
            </g>
            <g>
              <path class="cls-6" d="M89.6,76.57c.83.56,1.75.92,2.73,1.11,2.69-4.51,3.87-8.42,1.15-10.25-2.81-1.88-5.11-.25-7.48,2.78.38,2.73,1.57,5,3.6,6.35Z"/>
              <path class="cls-4" d="M92.33,78.06s-.05,0-.07,0c-1.05-.21-2.02-.6-2.87-1.17h0c-2.06-1.37-3.36-3.66-3.77-6.61-.01-.1.01-.2.08-.28,2.09-2.66,4.67-5.08,7.99-2.86,2.59,1.73,2.25,5.25-1.03,10.75-.07.12-.19.18-.32.18ZM89.8,76.26c.7.47,1.49.8,2.34,1,2.91-4.96,3.28-8.07,1.12-9.51-2.24-1.49-4.24-.75-6.88,2.58.4,2.66,1.58,4.71,3.42,5.93h0Z"/>
            </g>
          </g>
          <g>
            <g>
              <path class="cls-4" d="M80.4,98.35c-4.22,6-10.48,4.9-14.52,3.21-3.76-1.57-9.02-6.37-8.28-11.87.61-4.52,7.08-4.11,9.96.69,2.48,4.13,4.39,3.36,8.07,2.85,3.92-.55,7.16,1.7,4.76,5.11Z"/>
              <path class="cls-4" d="M71.93,103.26c-2.37,0-4.59-.68-6.2-1.36-4-1.67-9.28-6.58-8.5-12.26.24-1.79,1.38-3.03,3.11-3.39,2.3-.47,5.62.73,7.54,3.94,2.12,3.52,3.64,3.29,6.69,2.82.32-.05.66-.1,1.02-.15,2.47-.34,4.73.39,5.61,1.83.67,1.1.5,2.47-.49,3.87-2.54,3.6-5.77,4.7-8.77,4.7ZM61.37,86.91c-.31,0-.6.03-.88.09-1.42.29-2.31,1.27-2.51,2.75-.71,5.23,4.38,9.94,8.05,11.47,3.43,1.43,9.83,2.94,14.07-3.08h0c.81-1.15.97-2.21.46-3.04-.73-1.19-2.68-1.79-4.86-1.48-.35.05-.69.1-1.01.15-3.05.47-5.07.78-7.44-3.18-1.51-2.51-3.93-3.67-5.87-3.67Z"/>
            </g>
            <g>
              <path class="cls-3" d="M79.74,102.36c.11-1.26-.1-2.47-.52-3.6-5.35-4.46-8.87.44-8.87.44-2.71-3.45-6.21-.83-6.32.04h0c2.17-.34,3.72-.07,5.73,2.92,3.12,4.65,9.6,4.74,9.98.19Z"/>
              <path class="cls-4" d="M75.89,106.09c-2.13,0-4.72-1.15-6.44-3.71-1.86-2.77-3.21-3.1-5.36-2.76-.12.02-.24-.02-.32-.1-.08-.08-.12-.2-.11-.32.08-.63,1.11-1.58,2.45-1.95.92-.25,2.65-.39,4.24,1.37.56-.62,1.87-1.82,3.77-2.06,1.75-.23,3.55.42,5.34,1.92.05.04.09.1.11.16.47,1.25.65,2.51.54,3.76h0c-.15,1.8-1.22,3.09-2.93,3.54-.4.1-.84.16-1.29.16ZM65.3,98.76c1.71,0,3.12.73,4.77,3.2,1.89,2.82,4.91,3.76,6.92,3.24,1.4-.36,2.25-1.38,2.37-2.87.09-1.11-.06-2.23-.46-3.34-1.6-1.31-3.17-1.87-4.68-1.69-2.21.28-3.55,2.1-3.57,2.12-.07.1-.18.15-.3.16-.11,0-.23-.05-.3-.14-1.33-1.69-2.77-1.73-3.74-1.47-.66.18-1.17.51-1.5.81.17-.01.33-.02.49-.02ZM79.74,102.36h0,0Z"/>
            </g>
          </g>
        </g>
        <polygon class="cls-2" points="116.32 159.01 118.34 167.42 126.17 163.75 120.85 170.57 128.6 174.41 119.95 174.5 121.79 182.95 116.32 176.25 110.86 182.95 112.69 174.5 104.04 174.41 111.8 170.57 106.48 163.75 114.31 167.42 116.32 159.01"/>
        <g>
          <polygon class="cls-2" points="29.73 63.09 32.43 74.35 42.91 69.44 35.79 78.56 46.17 83.7 34.59 83.82 37.05 95.14 29.73 86.16 22.42 95.14 24.88 83.82 13.3 83.7 23.68 78.56 16.55 69.44 27.04 74.35 29.73 63.09"/>
          <path class="cls-4" d="M37.05,95.51c-.11,0-.22-.05-.29-.14l-7.02-8.62-7.02,8.62c-.11.13-.3.18-.45.1-.16-.08-.24-.25-.2-.42l2.36-10.86-11.12-.12c-.17,0-.32-.12-.36-.29-.04-.17.04-.34.2-.42l9.96-4.93-6.84-8.77c-.11-.14-.11-.33,0-.46.11-.13.3-.18.45-.11l10.07,4.72,2.59-10.81c.08-.34.65-.34.73,0l2.59,10.81,10.07-4.72c.16-.07.34-.03.45.11.11.14.11.33,0,.46l-6.84,8.77,9.96,4.93c.16.08.24.25.2.42-.04.17-.19.29-.36.29l-11.12.12,2.36,10.86c.04.17-.05.34-.2.42-.05.02-.11.04-.16.04ZM14.87,83.34l10.01.11c.11,0,.22.05.29.14.07.09.1.2.07.31l-2.12,9.78,6.33-7.76c.07-.09.18-.14.29-.14h0c.11,0,.22.05.29.14l6.32,7.76-2.12-9.78c-.02-.11,0-.23.07-.31.07-.09.18-.14.29-.14l10.01-.11-8.97-4.44c-.1-.05-.17-.14-.2-.25-.03-.11,0-.23.07-.31l6.16-7.89-9.07,4.25c-.1.05-.22.05-.32,0-.1-.05-.18-.14-.2-.25l-2.33-9.74-2.33,9.74c-.03.11-.1.2-.2.25-.1.05-.22.05-.32,0l-9.07-4.25,6.16,7.89c.07.09.09.2.07.31-.02.11-.1.2-.2.25l-8.97,4.44Z"/>
        </g>
        <polygon class="cls-2" points="51.34 188.43 52.83 194.66 58.63 191.95 54.69 197 60.43 199.84 54.03 199.91 55.39 206.17 51.34 201.2 47.29 206.17 48.65 199.91 42.25 199.84 47.99 197 44.05 191.95 49.85 194.66 51.34 188.43"/>
        <polygon class="cls-2" points="59.09 46.09 60.5 50.67 65.29 50.6 61.37 53.35 62.92 57.88 59.09 55.01 55.26 57.88 56.8 53.35 52.89 50.6 57.68 50.67 59.09 46.09"/>
      </g>
    </g>
  </g>
</svg>