<?xml version="1.0" encoding="UTF-8"?>
<svg id="Layer_2" data-name="Layer 2" xmlns="http://www.w3.org/2000/svg" viewBox="0 0 190.13 61.29">
  <defs>
    <style>
      .cls-1 {
        fill: #00bdff;
      }

      .cls-2 {
        fill: #fff;
      }

      .cls-3 {
        fill: #282828;
      }

      .cls-4 {
        fill: #ffd215;
      }
    </style>
  </defs>
  <g id="Layer_11" data-name="Layer 11">
    <g>
      <g>
        <path class="cls-2" d="M159.48,5.5H30.64c-13.86,0-25.14,11.28-25.14,25.14s11.28,25.14,25.14,25.14h128.84c13.86,0,25.14-11.28,25.14-25.14s-11.28-25.14-25.14-25.14Z"/>
        <path class="cls-2" d="M159.48,61.29H30.64C13.75,61.29,0,47.54,0,30.64S13.75,0,30.64,0h128.84c16.9,0,30.64,13.75,30.64,30.64s-13.75,30.64-30.64,30.64ZM30.64,11c-10.83,0-19.64,8.81-19.64,19.64s8.81,19.64,19.64,19.64h128.84c10.83,0,19.64-8.81,19.64-19.64s-8.81-19.64-19.64-19.64H30.64Z"/>
      </g>
      <g>
        <path class="cls-1" d="M159.48,55.41H30.64c-13.66,0-24.77-11.11-24.77-24.77S16.99,5.88,30.64,5.88h128.84c13.66,0,24.77,11.11,24.77,24.77s-11.11,24.77-24.77,24.77Z"/>
        <g>
          <path class="cls-3" d="M32.28,15.68c-9.15,0-16.6,7.44-16.6,16.6s7.44,16.6,16.6,16.6h128.84c9.15,0,16.6-7.44,16.6-16.6s-7.44-16.6-16.6-16.6H32.28Z"/>
          <path class="cls-3" d="M161.12,49.25H32.28c-9.36,0-16.97-7.61-16.97-16.97s7.61-16.97,16.97-16.97h128.84c9.36,0,16.97,7.61,16.97,16.97s-7.61,16.97-16.97,16.97ZM32.28,16.06c-8.94,0-16.22,7.28-16.22,16.22s7.28,16.22,16.22,16.22h128.84c8.94,0,16.22-7.28,16.22-16.22s-7.28-16.22-16.22-16.22H32.28Z"/>
        </g>
        <g>
          <path class="cls-4" d="M30.64,14.05c-9.15,0-16.6,7.44-16.6,16.6s7.44,16.6,16.6,16.6h128.84c9.15,0,16.6-7.44,16.6-16.6s-7.44-16.6-16.6-16.6H30.64Z"/>
          <path class="cls-3" d="M159.48,47.61H30.64c-9.36,0-16.97-7.61-16.97-16.97s7.61-16.97,16.97-16.97h128.84c9.36,0,16.97,7.61,16.97,16.97s-7.61,16.97-16.97,16.97ZM30.64,14.42c-8.94,0-16.22,7.28-16.22,16.22s7.28,16.22,16.22,16.22h128.84c8.94,0,16.22-7.28,16.22-16.22s-7.28-16.22-16.22-16.22H30.64Z"/>
        </g>
        <g>
          <path class="cls-3" d="M29.26,34.01c-.08-1.09-.16-2.14-.24-3.14-.08-1-.14-1.85-.19-2.55-.05-.7-.09-1.16-.13-1.36-.05-.39.02-.73.2-1.02-.24-.25-.36-.46-.36-.61,0-.27.16-.49.5-.66.33-.17.71-.3,1.13-.38.42-.08.96-.16,1.62-.23.68-.03,1.28-.03,1.81.03.53.05,1.11.18,1.73.39.62.21,1.21.55,1.78,1,.57.46,1.04,1.08,1.43,1.87.39.79.63,1.79.71,3.01.1,1.44.04,2.65-.19,3.63-.23.98-.57,1.78-1.02,2.4-.45.62-.96,1.1-1.54,1.43-.58.34-1.17.57-1.79.7-.62.13-1.2.2-1.75.23-.55.03-1.03.04-1.43.04-.59,0-1.04-.08-1.33-.25-.3-.17-.49-.36-.58-.57-.09-.21-.14-.49-.14-.82-.07-1-.14-2.04-.23-3.13ZM32.2,26.36l1.12,10.28c.3-.03.57-.12.8-.25.23-.14.45-.38.66-.74.21-.36.38-.86.5-1.51.12-.65.14-1.5.08-2.55-.07-1.32-.21-2.35-.42-3.08-.21-.74-.47-1.27-.76-1.59-.3-.32-.61-.51-.95-.56-.34-.05-.68-.05-1.02,0Z"/>
          <path class="cls-3" d="M40.53,31.41c0-1.35.24-2.59.71-3.72.47-1.12,1.12-2.02,1.93-2.69.81-.67,1.71-1,2.69-1,.73,0,1.42.19,2.08.57.66.38,1.24.91,1.75,1.6.51.69.91,1.48,1.19,2.37.29.9.43,1.85.43,2.87s-.14,1.97-.43,2.87c-.29.9-.69,1.69-1.19,2.37-.51.69-1.09,1.22-1.75,1.6-.66.38-1.35.57-2.08.57-.98,0-1.88-.33-2.69-1-.81-.67-1.46-1.56-1.93-2.68-.47-1.12-.71-2.36-.71-3.73ZM44.41,31.31c0,.98.07,1.88.2,2.7.13.82.32,1.47.56,1.95.24.48.5.72.79.72s.55-.24.79-.72c.24-.48.42-1.13.56-1.95.13-.82.2-1.72.2-2.7s-.07-1.9-.2-2.72c-.14-.81-.32-1.46-.56-1.95-.24-.49-.5-.74-.79-.74s-.55.25-.79.74c-.24.49-.42,1.14-.56,1.95-.14.81-.2,1.72-.2,2.72Z"/>
          <path class="cls-3" d="M54.68,38.58c-.31-.14-.53-.31-.66-.51-.13-.19-.2-.44-.22-.72-.1-1.02-.19-1.92-.28-2.73-.08-.8-.17-1.67-.27-2.59-.09-.92-.19-1.81-.28-2.67-.09-.85-.17-1.58-.22-2.18-.05-.6-.08-.98-.1-1.13-.02-.44.08-.83.29-1.15.21-.33.73-.52,1.56-.57.56-.03,1.01.05,1.35.25.34.2.66.52.96.94l2.39,5.79.94,1.75-.58-4.82c.02-1.12.05-2.06.1-2.84.03-.39.16-.68.38-.89.22-.2.47-.35.75-.43.28-.08.63-.14,1.05-.15.39.03.71.11.96.24.25.13.48.35.67.66.19.31.28.77.27,1.36-.02.73,0,1.55.08,2.48.07.92.16,1.87.27,2.83.11.96.22,1.87.33,2.7.11.84.21,1.54.3,2.09.09.56.15.91.16,1.04.03.2.04.45.03.74-.02.29-.15.54-.39.76-.25.22-.7.34-1.36.36-.66,0-1.15-.08-1.47-.23-.32-.15-.59-.39-.81-.71l-3.81-6.83c.13.68.25,1.29.34,1.83.09.54.19,1.13.28,1.75.09.63.17,1.23.22,1.8.05.58-.01,1-.19,1.28-.18.28-.4.47-.66.57-.26.1-.6.15-1,.15-.61,0-1.07-.07-1.38-.22Z"/>
          <path class="cls-3" d="M70.66,19.84s.04.12.08.37c.03.25.07.52.1.84.03.31.05.57.05.77.02.29-.07.49-.27.6-.2.11-.4.19-.62.24-.51.12-1.04.13-1.61.03-.57-.1-1.02-.31-1.36-.63-.22-.2-.34-.52-.36-.95-.02-.43-.04-.84-.08-1.23-.02-.2.04-.37.18-.51.13-.14.29-.24.46-.3l.25-.1c.51-.14.98-.16,1.41-.06.43.09.83.23,1.21.42.25.14.44.31.56.53Z"/>
          <path class="cls-3" d="M74.62,26.8c-.41,0-.82-.01-1.24-.06-.42-.05-.79-.15-1.09-.29-.3-.14-.47-.36-.51-.65-.02-.29.07-.52.27-.69.19-.17.43-.3.7-.39.27-.09.62-.17,1.04-.22l7.11-.66c.47-.02.87,0,1.18.03.31.03.6.11.85.24.25.13.39.33.41.6.03.27-.05.49-.24.67-.2.18-.43.32-.7.43-.27.11-.61.21-1.02.29l-1.62.25c.07.42.14,1.02.23,1.79.08.77.17,1.62.25,2.55.08.93.16,1.84.23,2.74.07.9.12,1.7.16,2.41.04.71.06,1.22.06,1.52,0,.39-.11.68-.32.88-.21.19-.46.33-.74.41s-.63.12-1.05.14c-.44-.02-.8-.08-1.08-.2-.28-.12-.52-.34-.74-.66-.21-.32-.32-.8-.32-1.45,0-.58-.03-1.28-.09-2.11-.06-.83-.13-1.69-.22-2.58-.08-.89-.17-1.71-.27-2.48-.09-.76-.2-1.62-.32-2.59-.22.03-.53.06-.94.06Z"/>
          <path class="cls-3" d="M98.16,28.52c-.28-.22-.47-.52-.57-.91-.07-.47-.17-.83-.3-1.07-.14-.24-.37-.36-.71-.38-.25-.02-.46.13-.61.44-.15.31-.27.73-.36,1.26-.08.52-.14,1.1-.16,1.74-.03.63-.04,1.27-.04,1.92.02.85.06,1.66.14,2.45.08.79.21,1.43.41,1.92.19.49.47.74.82.74.27,0,.47-.12.61-.37.14-.25.22-.52.27-.82s.06-.69.06-1.17c-.39.03-.69,0-.89-.09-.2-.09-.3-.3-.3-.62,0-.34.07-.57.22-.69.14-.12.36-.19.65-.23h2.21c.44,0,.8.04,1.09.11.29.08.54.21.76.41.22.19.34.49.36.88.03.95-.1,1.73-.41,2.35-.3.62-.72,1.1-1.26,1.46-.53.36-1.12.61-1.78.75-.65.14-1.32.22-1.99.22s-1.32-.12-1.93-.36c-.61-.24-1.15-.66-1.62-1.26-.47-.6-.86-1.43-1.15-2.5-.3-1.07-.46-2.42-.5-4.06-.03-1.32.09-2.39.38-3.22.29-.83.66-1.47,1.12-1.93.46-.46.94-.78,1.43-.98.5-.19.95-.32,1.36-.37.41-.05.69-.08.86-.1.2-.02.53,0,.99.05s.95.16,1.47.34c.52.18,1.01.44,1.46.8.45.36.78.83,1,1.42.22.59.26,1.04.13,1.36-.14.31-.35.54-.63.67-.29.14-.68.22-1.17.25-.66-.05-1.13-.19-1.41-.41Z"/>
          <path class="cls-3" d="M103.63,35.33c-.02-.87-.03-1.81-.03-2.81s.01-1.97.04-2.91c.03-.94.05-1.77.09-2.5.03-.73.07-1.25.1-1.57.05-.41.19-.71.43-.93.24-.21.5-.36.8-.44.3-.08.66-.14,1.08-.15.42.05.76.11,1.02.18.25.07.43.19.53.36.22.34.33.66.32.98,0,.31-.03.72-.06,1.21-.1,1.27-.16,2.51-.18,3.73-.02,1.22-.02,2.33,0,3.33.02,1,.05,2.09.1,3.27-.02.36-.08.64-.18.86-.1.22-.3.42-.58.6-.29.18-.71.27-1.27.27s-.99-.06-1.28-.19c-.3-.13-.5-.28-.61-.46-.11-.18-.18-.39-.22-.65-.05-.58-.08-1.3-.1-2.17Z"/>
          <path class="cls-3" d="M109.92,25.85c0-.34.04-.63.13-.86.08-.24.26-.45.53-.65.27-.19.68-.31,1.22-.34.54-.03.97,0,1.28.13.31.12.54.27.69.44.14.18.26.41.34.7l1.14,8.58.91-6.8c.07-.36.17-.64.32-.85.14-.21.36-.39.65-.53.29-.14.69-.17,1.19-.09.51.07.87.21,1.09.42.22.21.36.43.41.66.05.23.04.51-.03.85-.2.93-.38,1.76-.55,2.49-.16.73-.33,1.5-.52,2.32-.19.82-.36,1.6-.53,2.34-.17.74-.3,1.34-.41,1.81-.1.47-.16.72-.18.74-.02.02-.06.11-.11.27-.06.16-.17.35-.32.56-.15.21-.39.39-.7.55-.31.15-.72.23-1.23.23-.68,0-1.18-.11-1.52-.34-.34-.23-.61-.56-.81-1l-3-11.6Z"/>
          <path class="cls-3" d="M120.97,25.93c-.07-.29-.07-.53-.01-.74.06-.2.21-.39.46-.56.25-.17.64-.28,1.18-.33.54-.05,1.16-.09,1.84-.13.69-.03,1.35-.07,1.98-.1.63-.03,1.36-.07,2.17-.1.46.02.84.06,1.15.11.31.06.6.17.85.33.25.16.41.39.46.7.05.3,0,.54-.18.71-.17.17-.37.29-.61.37-.24.08-.54.13-.91.17l-4.06.23c.1.44.18.8.24,1.08.06.28.1.52.11.72.02.19.03.43.05.72.02.3.04.67.08,1.13h1.88c.37.02.68.06.93.11.25.06.46.15.65.27.19.12.29.3.3.53.02.3-.1.53-.34.69-.25.15-.5.25-.76.29-.26.04-.43.07-.5.09-.05,0-.19,0-.41.01-.22,0-.46.01-.72.01h-1c.02.49.03.9.05,1.22.02.32.02.6,0,.84,0,.22,0,.49-.03.8-.02.31-.04.7-.08,1.15l3.43-.13c.44-.02.81,0,1.12.05.3.05.58.15.81.3.24.15.36.38.38.69.03.3-.05.55-.25.74-.2.19-.44.32-.71.41-.27.09-.62.15-1.04.2l-5.48.28c-.52.02-.96,0-1.29-.06-.34-.06-.63-.19-.89-.38-.25-.19-.37-.49-.36-.9.03-.54.07-1.39.1-2.55.03-1.16.02-2.52-.05-4.07-.07-1.56-.25-3.19-.53-4.9Z"/>
          <path class="cls-3" d="M142.53,24.39c.28.13.52.35.72.66.2.31.29.77.25,1.36-.02.39-.04.91-.06,1.56-.03.65-.04,1.36-.04,2.13s.02,1.54.06,2.3c.04.76.12,1.46.23,2.11.11.64.26,1.16.46,1.54.19.38.44.56.72.55.3-.02.53-.22.69-.62.15-.4.25-.91.3-1.52.05-.62.07-1.27.05-1.97-.02-.69-.05-1.36-.1-1.99-.05-.63-.1-1.16-.14-1.57-.04-.41-.07-.65-.09-.7-.02-.07-.04-.21-.08-.43-.03-.22-.02-.46.05-.71.07-.25.24-.48.52-.69.28-.2.72-.33,1.33-.38.61-.05,1.08.03,1.42.23.34.2.58.45.72.74.14.29.24.65.29,1.09.12.78.2,1.48.24,2.12.04.63.04,1.33,0,2.09-.04.76-.15,1.53-.33,2.3-.18.77-.46,1.47-.85,2.11-.39.63-.91,1.15-1.57,1.54-.66.39-1.49.58-2.49.58s-1.84-.21-2.53-.62c-.69-.41-1.24-.96-1.68-1.65-.43-.69-.76-1.45-.99-2.3-.23-.85-.38-1.71-.46-2.6-.08-.89-.11-1.73-.1-2.53,0-.8.03-1.49.08-2.08.04-.59.07-1.02.09-1.27.03-.44.16-.77.38-1,.22-.23.47-.38.75-.47.28-.08.63-.14,1.05-.15.44.05.8.14,1.08.27Z"/>
          <path class="cls-3" d="M152.34,38.51c-.29-.19-.5-.48-.63-.85-.02-.83-.03-1.58-.04-2.26,0-.68-.02-1.42-.04-2.23-.02-.81-.03-1.62-.04-2.44,0-.81-.02-1.56-.04-2.23-.02-.68-.03-1.43-.05-2.26-.02,0-.11-.08-.27-.25-.16-.17-.25-.35-.27-.53,0-.14.16-.33.48-.58.32-.25.87-.47,1.64-.65.77-.18,1.83-.21,3.19-.09,1.22.1,2.18.3,2.88.6.7.3,1.21.61,1.54.94.32.33.57.74.74,1.23.05.1.09.28.11.55.03.26.05.69.06,1.28.02.59.02,1.42,0,2.49-.02.86-.22,1.55-.6,2.06-.38.51-.85.88-1.41,1.13-.56.25-1.11.41-1.66.48-.55.08-1.2.11-1.94.09.02.73.02,1.51,0,2.36,0,.42-.11.74-.34.95-.23.21-.49.35-.79.42-.3.07-.67.1-1.13.1-.64,0-1.11-.1-1.4-.29ZM155.74,26.49l.23,6.29c.44-.05.8-.14,1.09-.28.29-.14.54-.37.75-.7.21-.33.3-.8.27-1.41-.03-.81-.07-1.42-.1-1.83-.03-.41-.06-.74-.08-.99-.05-.29-.14-.52-.25-.68-.12-.17-.33-.3-.62-.39-.3-.09-.72-.1-1.28-.01Z"/>
        </g>
      </g>
    </g>
  </g>
</svg>