<?xml version="1.0" encoding="UTF-8"?>
<svg id="Layer_2" data-name="Layer 2" xmlns="http://www.w3.org/2000/svg" viewBox="0 0 192.42 113.14">
  <defs>
    <style>
      .cls-1 {
        fill: #fff;
      }

      .cls-2 {
        fill: #ff5c8e;
      }

      .cls-3 {
        fill: #282828;
      }
    </style>
  </defs>
  <g id="Layer_13" data-name="Layer 13">
    <g>
      <g>
        <path class="cls-1" d="M29.24,107.64c1.23,0,2.47-.16,3.71-.49l143.33-38.42c7.64-2.05,12.19-9.93,10.14-17.58l-9.39-35.02c-2.05-7.64-9.94-12.19-17.57-10.14L16.14,44.41c-7.64,2.05-12.19,9.93-10.14,17.58l9.39,35.02c1.72,6.4,7.53,10.63,13.86,10.63Z"/>
        <path class="cls-1" d="M29.24,113.14c-8.97,0-16.85-6.05-19.17-14.71L.68,63.41c-2.83-10.57,3.46-21.48,14.03-24.31L158.04.68c10.57-2.83,21.48,3.46,24.31,14.03l9.39,35.02c2.83,10.57-3.46,21.48-14.03,24.31L34.38,112.46c-1.68.45-3.41.68-5.14.68ZM163.18,11c-.76,0-1.52.1-2.29.3L17.56,49.73c-4.71,1.26-7.52,6.13-6.26,10.84l9.39,35.02c1.04,3.86,4.55,6.56,8.55,6.56.77,0,1.54-.1,2.29-.3l143.33-38.42c4.71-1.26,7.52-6.13,6.26-10.84l-9.39-35.02c-1.06-3.95-4.64-6.56-8.55-6.56Z"/>
      </g>
      <g>
        <path class="cls-2" d="M176.15,68.24L32.82,106.66c-7.39,1.98-14.98-2.4-16.96-9.79L6.47,61.86c-1.98-7.39,2.4-14.98,9.79-16.96L159.59,6.47c7.39-1.98,14.98,2.4,16.96,9.79l9.39,35.02c1.98,7.39-2.4,14.98-9.79,16.96Z"/>
        <g>
          <rect class="cls-1" x="51.32" y="29.77" width="89.77" height="53.59" rx="4.4" ry="4.4" transform="translate(-11.37 26.84) rotate(-15.01)"/>
          <path class="cls-3" d="M62.9,93.46c-.83,0-1.64-.22-2.38-.64-1.11-.64-1.9-1.67-2.23-2.9l-11.6-43.26c-.33-1.23-.16-2.52.48-3.62.64-1.11,1.67-1.9,2.9-2.23l78.2-20.96c1.23-.33,2.52-.16,3.63.48,1.11.64,1.9,1.67,2.23,2.9l11.6,43.26c.33,1.23.16,2.52-.48,3.62-.64,1.11-1.67,1.9-2.9,2.23h0l-78.2,20.96c-.41.11-.83.16-1.25.16ZM129.52,20.43c-.35,0-.7.05-1.05.14l-78.2,20.96c-1.04.28-1.91.94-2.45,1.88-.54.93-.68,2.02-.4,3.06l11.6,43.26c.28,1.04.94,1.91,1.88,2.45.93.54,2.02.68,3.06.4l78.2-20.96c2.15-.58,3.42-2.79,2.85-4.93l-11.6-43.26c-.28-1.04-.94-1.91-1.88-2.45-.62-.36-1.31-.54-2.01-.54ZM142.25,71.97h0,0Z"/>
        </g>
        <g>
          <g>
            <g>
              <path class="cls-3" d="M24.96,57.92c.32,1.19-.39,2.41-1.58,2.73-1.19.32-2.41-.39-2.73-1.58-.32-1.19.39-2.41,1.58-2.73,1.19-.32,2.41.39,2.73,1.58Z"/>
              <path class="cls-3" d="M36.7,54.77c.32,1.19-.39,2.41-1.58,2.73-1.19.32-2.41-.39-2.73-1.58-.32-1.19.39-2.41,1.58-2.73s2.41.39,2.73,1.58Z"/>
            </g>
            <g>
              <path class="cls-3" d="M33.84,91.04c.32,1.19-.39,2.41-1.58,2.73-1.19.32-2.41-.39-2.73-1.58-.32-1.19.39-2.41,1.58-2.73,1.19-.32,2.41.39,2.73,1.58Z"/>
              <path class="cls-3" d="M45.58,87.89c.32,1.19-.39,2.41-1.58,2.73-1.19.32-2.41-.39-2.73-1.58-.32-1.19.39-2.41,1.58-2.73,1.19-.32,2.41.39,2.73,1.58Z"/>
            </g>
            <g>
              <path class="cls-3" d="M21.31,67.77c.32,1.19-.39,2.41-1.58,2.73-1.19.32-2.41-.39-2.73-1.58-.32-1.19.39-2.41,1.58-2.73,1.19-.32,2.41.39,2.73,1.58Z"/>
              <path class="cls-3" d="M33.05,64.63c.32,1.19-.39,2.41-1.58,2.73-1.19.32-2.41-.39-2.73-1.58-.32-1.19.39-2.41,1.58-2.73,1.19-.32,2.41.39,2.73,1.58Z"/>
              <path class="cls-3" d="M44.79,61.48c.32,1.19-.39,2.41-1.58,2.73-1.19.32-2.41-.39-2.73-1.58-.32-1.19.39-2.41,1.58-2.73,1.19-.32,2.41.39,2.73,1.58Z"/>
            </g>
            <g>
              <path class="cls-3" d="M25.75,84.33c.32,1.19-.39,2.41-1.58,2.73-1.19.32-2.41-.39-2.73-1.58-.32-1.19.39-2.41,1.58-2.73,1.19-.32,2.41.39,2.73,1.58Z"/>
              <path class="cls-3" d="M37.49,81.19c.32,1.19-.39,2.41-1.58,2.73-1.19.32-2.41-.39-2.73-1.58s.39-2.41,1.58-2.73c1.19-.32,2.41.39,2.73,1.58Z"/>
              <path class="cls-3" d="M49.22,78.04c.32,1.19-.39,2.41-1.58,2.73s-2.41-.39-2.73-1.58.39-2.41,1.58-2.73c1.19-.32,2.41.39,2.73,1.58Z"/>
            </g>
            <g>
              <path class="cls-3" d="M29.4,74.48c.32,1.19-.39,2.41-1.58,2.73-1.19.32-2.41-.39-2.73-1.58-.32-1.19.39-2.41,1.58-2.73,1.19-.32,2.41.39,2.73,1.58Z"/>
              <path class="cls-3" d="M41.14,71.33c.32,1.19-.39,2.41-1.58,2.73-1.19.32-2.41-.39-2.73-1.58-.32-1.19.39-2.41,1.58-2.73,1.19-.32,2.41.39,2.73,1.58Z"/>
            </g>
          </g>
          <g>
            <g>
              <path class="cls-3" d="M151.15,24.09c.32,1.19-.39,2.41-1.58,2.73-1.19.32-2.41-.39-2.73-1.58-.32-1.19.39-2.41,1.58-2.73,1.19-.32,2.41.39,2.73,1.58Z"/>
              <path class="cls-3" d="M162.89,20.94c.32,1.19-.39,2.41-1.58,2.73-1.19.32-2.41-.39-2.73-1.58-.32-1.19.39-2.41,1.58-2.73,1.19-.32,2.41.39,2.73,1.58Z"/>
            </g>
            <g>
              <path class="cls-3" d="M160.03,57.21c.32,1.19-.39,2.41-1.58,2.73-1.19.32-2.41-.39-2.73-1.58-.32-1.19.39-2.41,1.58-2.73,1.19-.32,2.41.39,2.73,1.58Z"/>
              <path class="cls-3" d="M171.77,54.06c.32,1.19-.39,2.41-1.58,2.73-1.19.32-2.41-.39-2.73-1.58-.32-1.19.39-2.41,1.58-2.73,1.19-.32,2.41.39,2.73,1.58Z"/>
            </g>
            <g>
              <path class="cls-3" d="M147.51,33.94c.32,1.19-.39,2.41-1.58,2.73-1.19.32-2.41-.39-2.73-1.58-.32-1.19.39-2.41,1.58-2.73,1.19-.32,2.41.39,2.73,1.58Z"/>
              <path class="cls-3" d="M159.24,30.8c.32,1.19-.39,2.41-1.58,2.73-1.19.32-2.41-.39-2.73-1.58-.32-1.19.39-2.41,1.58-2.73,1.19-.32,2.41.39,2.73,1.58Z"/>
              <path class="cls-3" d="M170.98,27.65c.32,1.19-.39,2.41-1.58,2.73-1.19.32-2.41-.39-2.73-1.58-.32-1.19.39-2.41,1.58-2.73,1.19-.32,2.41.39,2.73,1.58Z"/>
            </g>
            <g>
              <path class="cls-3" d="M151.94,50.5c.32,1.19-.39,2.41-1.58,2.73-1.19.32-2.41-.39-2.73-1.58-.32-1.19.39-2.41,1.58-2.73,1.19-.32,2.41.39,2.73,1.58Z"/>
              <path class="cls-3" d="M163.68,47.36c.32,1.19-.39,2.41-1.58,2.73-1.19.32-2.41-.39-2.73-1.58-.32-1.19.39-2.41,1.58-2.73,1.19-.32,2.41.39,2.73,1.58Z"/>
              <path class="cls-3" d="M175.42,44.21c.32,1.19-.39,2.41-1.58,2.73-1.19.32-2.41-.39-2.73-1.58s.39-2.41,1.58-2.73c1.19-.32,2.41.39,2.73,1.58Z"/>
            </g>
            <g>
              <path class="cls-3" d="M155.59,40.65c.32,1.19-.39,2.41-1.58,2.73s-2.41-.39-2.73-1.58c-.32-1.19.39-2.41,1.58-2.73,1.19-.32,2.41.39,2.73,1.58Z"/>
              <path class="cls-3" d="M167.33,37.5c.32,1.19-.39,2.41-1.58,2.73-1.19.32-2.41-.39-2.73-1.58-.32-1.19.39-2.41,1.58-2.73,1.19-.32,2.41.39,2.73,1.58Z"/>
            </g>
          </g>
        </g>
        <g>
          <g>
            <path class="cls-2" d="M110.78,32.34c-8.35-2.39-12.65,6.47-18.88,8.14-6.23,1.67-14.39-3.85-20.42,2.39-6.03,6.24-12.03,14.53-8.35,18.68,3.68,4.15,12.18,22.42,38.54,15.36,26.36-7.07,24.58-27.14,25.69-32.57,1.11-5.44-8.23-9.61-16.57-12Z"/>
            <path class="cls-3" d="M90.34,78.9c-15.09,0-22.1-9.73-25.82-14.9-.65-.9-1.21-1.68-1.67-2.2-4.24-4.78,3.42-14.07,8.36-19.19,3.9-4.03,8.58-3.34,13.11-2.66,2.68.4,5.21.78,7.48.17,2.27-.61,4.27-2.2,6.4-3.89,3.59-2.85,7.29-5.8,12.68-4.25,6.84,1.96,18.12,6.17,16.84,12.43-.14.68-.24,1.64-.35,2.74-.78,7.76-2.41,23.9-25.61,30.12-4.25,1.14-8.04,1.63-11.42,1.63ZM79.17,40.19c-2.64,0-5.19.64-7.42,2.94-3.83,3.97-12.32,13.68-8.34,18.17.49.55,1.06,1.34,1.72,2.26,4.46,6.19,13.73,19.07,36.44,12.98,22.71-6.09,24.3-21.88,25.06-29.47.11-1.12.21-2.1.36-2.82,1.2-5.88-11-10.04-16.31-11.56-5.02-1.44-8.57,1.39-12.01,4.12-2.19,1.74-4.25,3.38-6.67,4.03-2.42.65-5.03.26-7.79-.15-1.68-.25-3.38-.5-5.04-.5Z"/>
          </g>
          <g>
            <path class="cls-3" d="M115.33,47.22c-7.29,3.13-12.63-.74-15.18,2.6-2.56,3.34-4.85,3.36-4.85,3.36,0,0-2,1.13-5.88-.49-3.88-1.61-6.56,4.41-14.44,5.35-9.49,1.12,9.82,10.04,23.35,6.41s25.79-21,17.01-17.23Z"/>
            <path class="cls-3" d="M91.15,65.69c-8.22,0-16.43-2.89-18.54-5.21-.61-.68-.6-1.2-.48-1.53.25-.68,1.17-1.1,2.79-1.29,3.88-.46,6.49-2.2,8.6-3.59,2.19-1.45,3.92-2.6,6.03-1.73,3.64,1.51,5.54.52,5.56.5.05-.03.12-.05.18-.05.02,0,2.16-.09,4.56-3.22,1.39-1.82,3.46-1.69,6.09-1.52,2.52.16,5.66.35,9.24-1.19,1.5-.65,2.5-.74,3.06-.27.27.22.54.67.35,1.56-.86,3.98-10.2,13.97-20.18,16.65-2.31.62-4.79.88-7.27.88ZM88.09,52.79c-1.29,0-2.55.84-4.15,1.9-2.17,1.44-4.87,3.23-8.93,3.71-1.82.22-2.12.68-2.18.81-.09.25.17.58.33.76,2.36,2.6,15.15,6.76,25.06,4.1,9.91-2.66,18.9-12.66,19.64-16.09.05-.24.11-.66-.1-.82-.11-.09-.61-.34-2.29.38h0c-3.75,1.61-6.99,1.41-9.59,1.25-2.49-.15-4.3-.27-5.45,1.23-2.38,3.1-4.57,3.46-5.05,3.5-.44.21-2.51.99-6.13-.51-.4-.17-.79-.24-1.18-.24ZM115.33,47.22h0,0Z"/>
          </g>
          <g>
            <path class="cls-1" d="M100.17,59.84c2.16-.58,4.31-1.16,6.71-1.8,2.3-.62,3.72-2.44,1.97-9.51-3.99.05-6.98-.97-8.7,1.28-2.56,3.34-4.85,3.36-4.85,3.36,0,0-2,1.13-5.88-.49-2.62-1.09-4.69,1.29-8.18,3.25,2.02,7,4.16,7.86,6.47,7.25,2.4-.64,4.55-1.22,6.71-1.8,2.16-.58,1.79-4.82,1.79-4.82,0,0,1.8,3.85,3.96,3.27Z"/>
            <path class="cls-3" d="M86.58,63.72c-2.46,0-4.16-2.35-5.7-7.68-.05-.17.02-.35.18-.43.9-.5,1.69-1.03,2.46-1.54,2.19-1.45,3.93-2.61,6.04-1.73,3.64,1.51,5.54.51,5.56.5.05-.03.12-.05.18-.05.02,0,2.16-.09,4.56-3.22,1.39-1.82,3.47-1.69,6.1-1.53.92.06,1.87.11,2.9.1h0c.17,0,.32.12.36.29,1.54,6.24.89,9.12-2.24,9.96l-6.71,1.8c-1.56.42-2.9-1.07-3.68-2.23-.09,1.39-.51,3.35-2.07,3.77l-6.71,1.8c-.43.11-.83.17-1.22.17ZM81.68,56.11c2,6.75,4.03,7.21,5.93,6.71l6.71-1.8c1.52-.41,1.61-3.33,1.52-4.42-.02-.18.1-.35.28-.39.17-.05.36.04.44.2.47.99,2,3.47,3.52,3.07h0l6.71-1.8c1.9-.51,3.42-1.93,1.78-8.77-.95,0-1.85-.06-2.66-.11-2.5-.16-4.31-.27-5.46,1.23-2.38,3.1-4.57,3.46-5.05,3.5-.44.21-2.52.99-6.13-.51-1.75-.73-3.25.27-5.34,1.66-.67.45-1.42.94-2.25,1.42Z"/>
          </g>
          <path class="cls-3" d="M117.42,69.3c-.07,0-.14-.02-.2-.06-.21-.13-5.1-3.18-6.93-6.64-.1-.18-.03-.41.16-.51.18-.1.41-.03.51.16,1.73,3.28,6.61,6.32,6.66,6.35.18.11.23.34.12.52-.07.11-.19.18-.32.18Z"/>
          <path class="cls-3" d="M96.05,78.46c-.05,0-.11-.01-.16-.03-.19-.09-.27-.31-.18-.5.02-.04,1.75-3.87,1.44-7.79-.02-.21.14-.39.34-.4.21-.01.39.14.4.34.32,4.12-1.43,8-1.51,8.17-.06.14-.2.22-.34.22Z"/>
        </g>
      </g>
    </g>
  </g>
</svg>