<?xml version="1.0" encoding="UTF-8"?>
<svg id="Layer_2" data-name="Layer 2" xmlns="http://www.w3.org/2000/svg" viewBox="0 0 1033.38 1033.38">
  <g id="pattern_9">
    <g>
      <path d="M861.13,6.89c-10.97,0-20.39-2.56-28.79-6.89h-24.09c13.91,12.41,30.69,20.67,52.87,20.67s38.96-8.26,52.87-20.67h-24.09c-8.4,4.33-17.82,6.89-28.79,6.89Z"/>
      <path d="M516.66,20.67c22.18,0,38.95-8.26,52.86-20.67h-24.07c-8.4,4.33-17.81,6.89-28.79,6.89s-20.39-2.56-28.79-6.89h-24.07c13.91,12.41,30.68,20.67,52.86,20.67Z"/>
      <path d="M225.08,0h-24.07c-8.4,4.33-17.82,6.89-28.79,6.89s-20.39-2.56-28.79-6.89h-24.07c13.91,12.41,30.69,20.67,52.86,20.67S211.17,12.41,225.08,0Z"/>
      <path d="M941.41,44.57c-21.11,33.77-41.04,65.66-80.28,65.66s-59.18-31.89-80.28-65.66c-9.84-15.72-19.82-31.67-31.97-44.57h-20.47c16.03,12.44,28.2,31.8,40.75,51.88,22.17,35.46,45.08,72.13,91.97,72.13s69.8-36.67,91.97-72.13c12.55-20.08,24.72-39.44,40.75-51.88h-20.47c-12.15,12.9-22.13,28.85-31.97,44.57Z"/>
      <path d="M424.71,51.88c22.16,35.46,45.08,72.13,91.95,72.13s69.79-36.67,91.95-72.13c12.55-20.08,24.71-39.43,40.74-51.87h-20.45c-12.15,12.9-22.14,28.85-31.97,44.58-21.1,33.76-41.03,65.65-80.27,65.65s-59.17-31.89-80.27-65.65c-9.82-15.73-19.82-31.68-31.97-44.58h-20.45c16.02,12.44,28.19,31.8,40.74,51.88Z"/>
      <path d="M80.27,51.87c22.16,35.47,45.08,72.13,91.95,72.13s69.79-36.67,91.95-72.13c12.55-20.08,24.71-39.44,40.74-51.88h-20.46c-12.15,12.9-22.14,28.85-31.97,44.58-21.1,33.76-41.03,65.65-80.27,65.65s-59.17-31.89-80.26-65.65c-9.83-15.73-19.82-31.68-31.97-44.58h-20.46c16.03,12.44,28.19,31.8,40.74,51.87Z"/>
      <path d="M427.63,15.61c21.66,34.66,44.07,70.51,89.03,70.51s67.36-35.85,89.03-70.51c3.31-5.29,6.59-10.52,9.92-15.61h-8.21c-2.54,3.96-5.05,7.97-7.55,11.95-21.62,34.6-42.04,67.28-83.19,67.28s-61.57-32.68-83.19-67.27c-2.49-3.99-5-7.99-7.55-11.96h-8.21c3.32,5.09,6.61,10.31,9.92,15.61Z"/>
      <path d="M944.33,11.95c-21.62,34.6-42.05,67.28-83.2,67.28s-61.58-32.68-83.2-67.28c-2.5-3.98-5.01-7.99-7.55-11.95h-8.21c3.33,5.09,6.61,10.31,9.92,15.61,21.66,34.66,44.07,70.51,89.04,70.51s67.38-35.85,89.04-70.51c3.31-5.29,6.59-10.52,9.92-15.61h-8.21c-2.54,3.96-5.05,7.97-7.55,11.95Z"/>
      <path d="M172.22,86.11c44.96,0,67.37-35.85,89.03-70.51,3.31-5.29,6.59-10.52,9.92-15.61h-8.21c-2.55,3.96-5.05,7.97-7.55,11.96-21.62,34.59-42.04,67.27-83.19,67.27S110.65,46.55,89.03,11.95c-2.49-3.98-5-7.99-7.55-11.95h-8.21c3.33,5.09,6.61,10.31,9.92,15.61,21.66,34.66,44.06,70.51,89.03,70.51Z"/>
      <path d="M941.41,147.91c-21.11,33.77-41.04,65.66-80.28,65.66s-59.18-31.89-80.28-65.66c-22.17-35.46-45.09-72.13-91.97-72.13s-69.79,36.67-91.95,72.13c-21.1,33.76-41.03,65.65-80.27,65.65s-59.17-31.89-80.27-65.65c-22.16-35.47-45.08-72.13-91.95-72.13s-69.79,36.67-91.95,72.13c-21.1,33.76-41.03,65.65-80.27,65.65s-59.17-31.89-80.26-65.65C69.79,112.45,46.87,75.78,0,75.78v13.78c39.24,0,59.17,31.89,80.27,65.65,22.16,35.47,45.08,72.13,91.95,72.13s69.79-36.67,91.95-72.13c21.1-33.77,41.03-65.66,80.27-65.66s59.17,31.89,80.28,65.66c22.16,35.46,45.08,72.13,91.95,72.13s69.79-36.67,91.95-72.13c21.11-33.76,41.03-65.65,80.27-65.65s59.18,31.89,80.28,65.66c22.17,35.46,45.08,72.13,91.97,72.13s69.8-36.67,91.97-72.13c21.11-33.77,41.04-65.66,80.28-65.66v-13.78c-46.88,0-69.8,36.67-91.97,72.13Z"/>
      <path d="M944.33,115.29c-21.62,34.6-42.05,67.28-83.2,67.28s-61.58-32.68-83.2-67.28c-21.67-34.66-44.08-70.51-89.05-70.51s-67.37,35.85-89.03,70.51c-21.62,34.6-42.04,67.28-83.19,67.28s-61.57-32.68-83.19-67.27c-21.66-34.67-44.07-70.51-89.03-70.51s-67.36,35.85-89.03,70.51c-21.62,34.59-42.04,67.27-83.19,67.27s-61.57-32.68-83.19-67.28C67.36,80.62,44.97,44.78,0,44.78v6.89c41.14,0,61.57,32.68,83.19,67.28,21.66,34.66,44.06,70.51,89.03,70.51s67.37-35.85,89.03-70.51c21.62-34.6,42.04-67.28,83.19-67.28s61.57,32.68,83.2,67.28c21.66,34.66,44.07,70.51,89.03,70.51s67.36-35.85,89.03-70.51c21.62-34.6,42.05-67.28,83.19-67.28s61.58,32.68,83.21,67.28c21.66,34.66,44.07,70.51,89.04,70.51s67.38-35.85,89.04-70.51c21.63-34.6,42.06-67.28,83.21-67.28v-6.89c-44.97,0-67.38,35.85-89.05,70.51Z"/>
      <path d="M941.41,251.25c-21.11,33.77-41.04,65.66-80.28,65.66s-59.18-31.89-80.28-65.66c-22.17-35.46-45.09-72.13-91.97-72.13s-69.79,36.67-91.95,72.13c-21.1,33.76-41.03,65.65-80.27,65.65s-59.17-31.89-80.27-65.65c-22.16-35.47-45.08-72.13-91.95-72.13s-69.79,36.67-91.95,72.13c-21.1,33.76-41.03,65.65-80.27,65.65s-59.17-31.89-80.26-65.65C69.79,215.79,46.87,179.12,0,179.12v13.78c39.24,0,59.17,31.89,80.27,65.65,22.16,35.47,45.08,72.13,91.95,72.13s69.79-36.67,91.95-72.13c21.1-33.77,41.03-65.66,80.27-65.66s59.17,31.89,80.28,65.66c22.16,35.46,45.08,72.13,91.95,72.13s69.79-36.67,91.95-72.13c21.11-33.76,41.03-65.65,80.27-65.65s59.18,31.89,80.28,65.66c22.17,35.46,45.08,72.13,91.97,72.13s69.8-36.67,91.97-72.13c21.11-33.77,41.04-65.66,80.28-65.66v-13.78c-46.88,0-69.8,36.67-91.97,72.13Z"/>
      <path d="M944.33,218.62c-21.62,34.6-42.05,67.28-83.2,67.28s-61.58-32.68-83.2-67.28c-21.67-34.66-44.08-70.51-89.05-70.51s-67.37,35.85-89.03,70.51c-21.62,34.6-42.04,67.28-83.19,67.28s-61.57-32.68-83.19-67.27c-21.66-34.67-44.07-70.51-89.03-70.51s-67.36,35.85-89.03,70.51c-21.62,34.59-42.04,67.27-83.19,67.27s-61.57-32.68-83.19-67.28C67.36,183.96,44.97,148.12,0,148.12v6.89c41.14,0,61.57,32.68,83.19,67.28,21.66,34.66,44.06,70.51,89.03,70.51s67.37-35.85,89.03-70.51c21.62-34.6,42.04-67.28,83.19-67.28s61.57,32.68,83.2,67.28c21.66,34.66,44.07,70.51,89.03,70.51s67.36-35.85,89.03-70.51c21.62-34.6,42.05-67.28,83.19-67.28s61.58,32.68,83.21,67.28c21.66,34.66,44.07,70.51,89.04,70.51s67.38-35.85,89.04-70.51c21.63-34.6,42.06-67.28,83.21-67.28v-6.89c-44.97,0-67.38,35.85-89.05,70.51Z"/>
      <path d="M941.41,354.58c-21.11,33.77-41.04,65.66-80.28,65.66s-59.18-31.89-80.28-65.66c-22.17-35.46-45.09-72.13-91.97-72.13s-69.79,36.67-91.95,72.13c-21.1,33.76-41.03,65.65-80.27,65.65s-59.17-31.89-80.27-65.65c-22.16-35.47-45.08-72.13-91.95-72.13s-69.79,36.67-91.95,72.13c-21.1,33.76-41.03,65.65-80.27,65.65s-59.17-31.89-80.26-65.65c-22.16-35.47-45.08-72.13-91.95-72.13v13.78c39.24,0,59.17,31.89,80.27,65.65,22.16,35.47,45.08,72.13,91.95,72.13s69.79-36.67,91.95-72.13c21.1-33.77,41.03-65.66,80.27-65.66s59.17,31.89,80.28,65.66c22.16,35.46,45.08,72.13,91.95,72.13s69.79-36.67,91.95-72.13c21.11-33.76,41.03-65.65,80.27-65.65s59.18,31.89,80.28,65.66c22.17,35.46,45.08,72.13,91.97,72.13s69.8-36.67,91.97-72.13c21.11-33.77,41.04-65.66,80.28-65.66v-13.78c-46.88,0-69.8,36.67-91.97,72.13Z"/>
      <path d="M944.33,321.96c-21.62,34.6-42.05,67.28-83.2,67.28s-61.58-32.68-83.2-67.28c-21.67-34.66-44.08-70.51-89.05-70.51s-67.37,35.85-89.03,70.51c-21.62,34.6-42.04,67.28-83.19,67.28s-61.57-32.68-83.19-67.27c-21.66-34.67-44.07-70.51-89.03-70.51s-67.36,35.85-89.03,70.51c-21.62,34.59-42.04,67.27-83.19,67.27s-61.57-32.68-83.19-67.28c-21.66-34.66-44.06-70.51-89.03-70.51v6.89c41.14,0,61.57,32.68,83.19,67.28,21.66,34.66,44.06,70.51,89.03,70.51s67.37-35.85,89.03-70.51c21.62-34.6,42.04-67.28,83.19-67.28s61.57,32.68,83.2,67.28c21.66,34.66,44.07,70.51,89.03,70.51s67.36-35.85,89.03-70.51c21.62-34.6,42.05-67.28,83.19-67.28s61.58,32.68,83.21,67.28c21.66,34.66,44.07,70.51,89.04,70.51s67.38-35.85,89.04-70.51c21.63-34.6,42.06-67.28,83.21-67.28v-6.89c-44.97,0-67.38,35.85-89.05,70.51Z"/>
      <path d="M941.41,457.92c-21.11,33.77-41.04,65.66-80.28,65.66s-59.18-31.89-80.28-65.66c-22.17-35.46-45.09-72.13-91.97-72.13s-69.79,36.67-91.95,72.13c-21.1,33.76-41.03,65.65-80.27,65.65s-59.17-31.89-80.27-65.65c-22.16-35.47-45.08-72.13-91.95-72.13s-69.79,36.67-91.95,72.13c-21.1,33.76-41.03,65.65-80.27,65.65s-59.17-31.89-80.26-65.65c-22.16-35.47-45.08-72.13-91.95-72.13v13.78c39.24,0,59.17,31.89,80.27,65.65,22.16,35.47,45.08,72.13,91.95,72.13s69.79-36.67,91.95-72.13c21.1-33.77,41.03-65.66,80.27-65.66s59.17,31.89,80.28,65.66c22.16,35.46,45.08,72.13,91.95,72.13s69.79-36.67,91.95-72.13c21.11-33.76,41.03-65.65,80.27-65.65s59.18,31.89,80.28,65.66c22.17,35.46,45.08,72.13,91.97,72.13s69.8-36.67,91.97-72.13c21.11-33.77,41.04-65.66,80.28-65.66v-13.78c-46.88,0-69.8,36.67-91.97,72.13Z"/>
      <path d="M944.33,425.3c-21.62,34.6-42.05,67.28-83.2,67.28s-61.58-32.68-83.2-67.28c-21.67-34.66-44.08-70.51-89.05-70.51s-67.37,35.85-89.03,70.51c-21.62,34.6-42.04,67.28-83.19,67.28s-61.57-32.68-83.19-67.27c-21.66-34.67-44.07-70.51-89.03-70.51s-67.36,35.85-89.03,70.51c-21.62,34.59-42.04,67.27-83.19,67.27s-61.57-32.68-83.19-67.28c-21.66-34.66-44.06-70.51-89.03-70.51v6.89c41.14,0,61.57,32.68,83.19,67.28,21.66,34.66,44.06,70.51,89.03,70.51s67.37-35.85,89.03-70.51c21.62-34.6,42.04-67.28,83.19-67.28s61.57,32.68,83.2,67.28c21.66,34.66,44.07,70.51,89.03,70.51s67.36-35.85,89.03-70.51c21.62-34.6,42.05-67.28,83.19-67.28s61.58,32.68,83.21,67.28c21.66,34.66,44.07,70.51,89.04,70.51s67.38-35.85,89.04-70.51c21.63-34.6,42.06-67.28,83.21-67.28v-6.89c-44.97,0-67.38,35.85-89.05,70.51Z"/>
      <path d="M941.41,561.26c-21.11,33.77-41.04,65.66-80.28,65.66s-59.18-31.89-80.28-65.66c-22.17-35.46-45.09-72.13-91.97-72.13s-69.79,36.67-91.95,72.13c-21.1,33.76-41.03,65.65-80.27,65.65s-59.17-31.89-80.27-65.65c-22.16-35.47-45.08-72.13-91.95-72.13s-69.79,36.67-91.95,72.13c-21.1,33.76-41.03,65.65-80.27,65.65s-59.17-31.89-80.26-65.65c-22.16-35.47-45.08-72.13-91.95-72.13v13.78c39.24,0,59.17,31.89,80.27,65.65,22.16,35.47,45.08,72.13,91.95,72.13s69.79-36.67,91.95-72.13c21.1-33.77,41.03-65.66,80.27-65.66s59.17,31.89,80.28,65.66c22.16,35.46,45.08,72.13,91.95,72.13s69.79-36.67,91.95-72.13c21.11-33.76,41.03-65.65,80.27-65.65s59.18,31.89,80.28,65.66c22.17,35.46,45.08,72.13,91.97,72.13s69.8-36.67,91.97-72.13c21.11-33.77,41.04-65.66,80.28-65.66v-13.78c-46.88,0-69.8,36.67-91.97,72.13Z"/>
      <path d="M944.33,528.64c-21.62,34.6-42.05,67.28-83.2,67.28s-61.58-32.68-83.2-67.28c-21.67-34.66-44.08-70.51-89.05-70.51s-67.37,35.85-89.03,70.51c-21.62,34.6-42.04,67.28-83.19,67.28s-61.57-32.68-83.19-67.27c-21.66-34.67-44.07-70.51-89.03-70.51s-67.36,35.85-89.03,70.51c-21.62,34.59-42.04,67.27-83.19,67.27s-61.57-32.68-83.19-67.28c-21.66-34.66-44.06-70.51-89.03-70.51v6.89c41.14,0,61.57,32.68,83.19,67.28,21.66,34.66,44.06,70.51,89.03,70.51s67.37-35.85,89.03-70.51c21.62-34.6,42.04-67.28,83.19-67.28s61.57,32.68,83.2,67.28c21.66,34.66,44.07,70.51,89.03,70.51s67.36-35.85,89.03-70.51c21.62-34.6,42.05-67.28,83.19-67.28s61.58,32.68,83.21,67.28c21.66,34.66,44.07,70.51,89.04,70.51s67.38-35.85,89.04-70.51c21.63-34.6,42.06-67.28,83.21-67.28v-6.89c-44.97,0-67.38,35.85-89.05,70.51Z"/>
      <path d="M941.41,664.6c-21.11,33.77-41.04,65.66-80.28,65.66s-59.18-31.89-80.28-65.66c-22.17-35.46-45.09-72.13-91.97-72.13s-69.79,36.67-91.95,72.13c-21.1,33.76-41.03,65.65-80.27,65.65s-59.17-31.89-80.27-65.65c-22.16-35.47-45.08-72.13-91.95-72.13s-69.79,36.67-91.95,72.13c-21.1,33.76-41.03,65.65-80.27,65.65s-59.17-31.89-80.26-65.65c-22.16-35.47-45.08-72.13-91.95-72.13v13.78c39.24,0,59.17,31.89,80.27,65.65,22.16,35.47,45.08,72.13,91.95,72.13s69.79-36.67,91.95-72.13c21.1-33.77,41.03-65.66,80.27-65.66s59.17,31.89,80.28,65.66c22.16,35.46,45.08,72.13,91.95,72.13s69.79-36.67,91.95-72.13c21.11-33.76,41.03-65.65,80.27-65.65s59.18,31.89,80.28,65.66c22.17,35.46,45.08,72.13,91.97,72.13s69.8-36.67,91.97-72.13c21.11-33.77,41.04-65.66,80.28-65.66v-13.78c-46.88,0-69.8,36.67-91.97,72.13Z"/>
      <path d="M944.33,631.98c-21.62,34.6-42.05,67.28-83.2,67.28s-61.58-32.68-83.2-67.28c-21.67-34.66-44.08-70.51-89.05-70.51s-67.37,35.85-89.03,70.51c-21.62,34.6-42.04,67.28-83.19,67.28s-61.57-32.68-83.19-67.27c-21.66-34.67-44.07-70.51-89.03-70.51s-67.36,35.85-89.03,70.51c-21.62,34.59-42.04,67.27-83.19,67.27s-61.57-32.68-83.19-67.28c-21.66-34.66-44.06-70.51-89.03-70.51v6.89c41.14,0,61.57,32.68,83.19,67.28,21.66,34.66,44.06,70.51,89.03,70.51s67.37-35.85,89.03-70.51c21.62-34.6,42.04-67.28,83.19-67.28s61.57,32.68,83.2,67.28c21.66,34.66,44.07,70.51,89.03,70.51s67.36-35.85,89.03-70.51c21.62-34.6,42.05-67.28,83.19-67.28s61.58,32.68,83.21,67.28c21.66,34.66,44.07,70.51,89.04,70.51s67.38-35.85,89.04-70.51c21.63-34.6,42.06-67.28,83.21-67.28v-6.89c-44.97,0-67.38,35.85-89.05,70.51Z"/>
      <path d="M941.41,767.94c-21.11,33.77-41.04,65.66-80.28,65.66s-59.18-31.89-80.28-65.66c-22.17-35.46-45.09-72.13-91.97-72.13s-69.79,36.67-91.95,72.13c-21.1,33.76-41.03,65.65-80.27,65.65s-59.17-31.89-80.27-65.65c-22.16-35.47-45.08-72.13-91.95-72.13s-69.79,36.67-91.95,72.13c-21.1,33.76-41.03,65.65-80.27,65.65s-59.17-31.89-80.26-65.65c-22.16-35.47-45.08-72.13-91.95-72.13v13.78c39.24,0,59.17,31.89,80.27,65.65,22.16,35.47,45.08,72.13,91.95,72.13s69.79-36.67,91.95-72.13c21.1-33.77,41.03-65.66,80.27-65.66s59.17,31.89,80.28,65.66c22.16,35.46,45.08,72.13,91.95,72.13s69.79-36.67,91.95-72.13c21.11-33.76,41.03-65.65,80.27-65.65s59.18,31.89,80.28,65.66c22.17,35.46,45.08,72.13,91.97,72.13s69.8-36.67,91.97-72.13c21.11-33.77,41.04-65.66,80.28-65.66v-13.78c-46.88,0-69.8,36.67-91.97,72.13Z"/>
      <path d="M944.33,735.31c-21.62,34.6-42.05,67.28-83.2,67.28s-61.58-32.68-83.2-67.28c-21.67-34.66-44.08-70.51-89.05-70.51s-67.37,35.85-89.03,70.51c-21.62,34.6-42.04,67.28-83.19,67.28s-61.57-32.68-83.19-67.27c-21.66-34.67-44.07-70.51-89.03-70.51s-67.36,35.85-89.03,70.51c-21.62,34.59-42.04,67.27-83.19,67.27s-61.57-32.68-83.19-67.28c-21.66-34.66-44.06-70.51-89.03-70.51v6.89c41.14,0,61.57,32.68,83.19,67.28,21.66,34.66,44.06,70.51,89.03,70.51s67.37-35.85,89.03-70.51c21.62-34.6,42.04-67.28,83.19-67.28s61.57,32.68,83.2,67.28c21.66,34.66,44.07,70.51,89.03,70.51s67.36-35.85,89.03-70.51c21.62-34.6,42.05-67.28,83.19-67.28s61.58,32.68,83.21,67.28c21.66,34.66,44.07,70.51,89.04,70.51s67.38-35.85,89.04-70.51c21.63-34.6,42.06-67.28,83.21-67.28v-6.89c-44.97,0-67.38,35.85-89.05,70.51Z"/>
      <path d="M941.41,871.27c-21.11,33.77-41.04,65.66-80.28,65.66s-59.18-31.89-80.28-65.66c-22.17-35.46-45.09-72.13-91.97-72.13s-69.79,36.67-91.95,72.13c-21.1,33.76-41.03,65.65-80.27,65.65s-59.17-31.89-80.27-65.65c-22.16-35.47-45.08-72.13-91.95-72.13s-69.79,36.67-91.95,72.13c-21.1,33.76-41.03,65.65-80.27,65.65s-59.17-31.89-80.26-65.65c-22.16-35.47-45.08-72.13-91.95-72.13v13.78c39.24,0,59.17,31.89,80.27,65.65,22.16,35.47,45.08,72.13,91.95,72.13,46.87,0,69.79-36.67,91.95-72.13,21.1-33.77,41.03-65.66,80.27-65.66s59.17,31.89,80.28,65.66c22.16,35.46,45.08,72.13,91.95,72.13s69.79-36.67,91.95-72.13c21.11-33.76,41.03-65.65,80.27-65.65s59.18,31.89,80.28,65.66c22.17,35.46,45.08,72.13,91.97,72.13s69.8-36.67,91.97-72.13c21.11-33.77,41.04-65.66,80.28-65.66v-13.78c-46.88,0-69.8,36.67-91.97,72.13Z"/>
      <path d="M944.33,838.65c-21.62,34.6-42.05,67.28-83.2,67.28s-61.58-32.68-83.2-67.28c-21.67-34.66-44.08-70.51-89.05-70.51s-67.37,35.85-89.03,70.51c-21.62,34.6-42.04,67.28-83.19,67.28s-61.57-32.68-83.19-67.27c-21.66-34.67-44.07-70.51-89.03-70.51s-67.36,35.85-89.03,70.51c-21.62,34.59-42.04,67.27-83.19,67.27s-61.57-32.68-83.19-67.28c-21.66-34.66-44.06-70.51-89.03-70.51v6.89c41.14,0,61.57,32.68,83.19,67.28,21.66,34.66,44.06,70.51,89.03,70.51s67.37-35.85,89.03-70.51c21.62-34.6,42.04-67.28,83.19-67.28s61.57,32.68,83.2,67.28c21.66,34.66,44.07,70.51,89.03,70.51s67.36-35.85,89.03-70.51c21.62-34.6,42.05-67.28,83.19-67.28s61.58,32.68,83.21,67.28c21.66,34.66,44.07,70.51,89.04,70.51s67.38-35.85,89.04-70.51c21.63-34.6,42.06-67.28,83.21-67.28v-6.89c-44.97,0-67.38,35.85-89.05,70.51Z"/>
      <path d="M780.85,974.61c-22.17-35.46-45.09-72.13-91.97-72.13s-69.79,36.67-91.95,72.13c-15.2,24.32-29.84,47.61-51.48,58.76h24.07c15.49-13.82,27.42-32.78,39.09-51.47,21.11-33.76,41.03-65.65,80.27-65.65s59.18,31.89,80.28,65.66c11.68,18.68,23.61,37.64,39.09,51.46h24.09c-21.65-11.15-36.29-34.44-51.49-58.77Z"/>
      <path d="M436.39,974.62c-22.16-35.47-45.08-72.13-91.95-72.13s-69.79,36.67-91.95,72.13c-15.2,24.32-29.83,47.61-51.48,58.76h24.07c15.49-13.82,27.42-32.78,39.09-51.46,21.1-33.77,41.03-65.66,80.27-65.66s59.17,31.89,80.28,65.66c11.67,18.68,23.6,37.64,39.09,51.46h24.07c-21.64-11.15-36.28-34.44-51.48-58.76Z"/>
      <path d="M91.95,974.62c-22.16-35.47-45.08-72.13-91.95-72.13v13.78c39.24,0,59.17,31.89,80.27,65.65,11.68,18.69,23.6,37.65,39.09,51.47h24.07c-21.64-11.15-36.28-34.44-51.48-58.76Z"/>
      <path d="M941.41,974.61c-15.2,24.33-29.84,47.61-51.49,58.77h24.09c15.49-13.82,27.42-32.78,39.09-51.46,21.11-33.77,41.04-65.66,80.28-65.66v-13.78c-46.88,0-69.8,36.67-91.97,72.13Z"/>
      <path d="M944.33,941.99c-21.62,34.6-42.05,67.28-83.2,67.28s-61.58-32.68-83.2-67.28c-21.67-34.66-44.08-70.51-89.05-70.51s-67.37,35.85-89.03,70.51c-21.62,34.6-42.04,67.28-83.19,67.28s-61.57-32.68-83.19-67.27c-21.66-34.67-44.07-70.51-89.03-70.51s-67.36,35.85-89.03,70.51c-21.62,34.59-42.04,67.27-83.19,67.27s-61.57-32.68-83.19-67.28c-21.66-34.66-44.06-70.51-89.03-70.51v6.89c41.14,0,61.57,32.68,83.19,67.28,21.66,34.66,44.06,70.51,89.03,70.51s67.37-35.85,89.03-70.51c21.62-34.6,42.04-67.28,83.19-67.28s61.57,32.68,83.2,67.28c21.66,34.66,44.07,70.51,89.03,70.51s67.36-35.85,89.03-70.51c21.62-34.6,42.05-67.28,83.19-67.28s61.58,32.68,83.21,67.28c21.66,34.66,44.07,70.51,89.04,70.51s67.38-35.85,89.04-70.51c21.63-34.6,42.06-67.28,83.21-67.28v-6.89c-44.97,0-67.38,35.85-89.05,70.51Z"/>
      <path d="M973.38,1033.38h20.47c10.93-8.48,23.63-13.78,39.53-13.78v-13.78c-26.09,0-44.75,11.37-60,27.56Z"/>
      <path d="M344.43,1005.82c-26.08,0-44.74,11.37-59.98,27.56h20.46c10.92-8.48,23.62-13.78,39.53-13.78s28.61,5.3,39.53,13.78h20.45c-15.25-16.19-33.89-27.56-59.98-27.56Z"/>
      <path d="M688.88,1005.82c-26.09,0-44.74,11.37-59.98,27.56h20.45c10.93-8.48,23.63-13.78,39.53-13.78s28.61,5.3,39.53,13.78h20.47c-15.25-16.19-33.91-27.56-60-27.56Z"/>
      <path d="M0,1005.82v13.78c15.9,0,28.61,5.3,39.53,13.78h20.46c-15.25-16.19-33.9-27.56-59.98-27.56Z"/>
      <path d="M344.43,974.82c-39.79,0-61.9,28.07-81.48,58.56h8.21c18.44-28.2,38.42-51.67,73.27-51.67s54.84,23.47,73.28,51.67h8.21c-19.58-30.48-41.69-58.56-81.49-58.56Z"/>
      <path d="M0,974.82v6.89c34.85,0,54.83,23.47,73.27,51.67h8.21c-19.57-30.48-41.69-58.56-81.48-58.56Z"/>
      <path d="M688.88,974.82c-39.79,0-61.91,28.07-81.49,58.56h8.21c18.44-28.2,38.42-51.67,73.27-51.67s54.84,23.47,73.29,51.67h8.21c-19.58-30.48-41.7-58.56-81.5-58.56Z"/>
      <path d="M951.88,1033.38h8.21c18.44-28.2,38.42-51.67,73.29-51.67v-6.89c-39.8,0-61.92,28.07-81.5,58.56Z"/>
    </g>
  </g>
</svg>