<?xml version="1.0" encoding="UTF-8"?>
<svg id="Layer_2" data-name="Layer 2" xmlns="http://www.w3.org/2000/svg" viewBox="0 0 2000 2000">
  <g id="OBJECTS">
    <g>
      <path d="M209.13,1770.67c4.29-4.09,8.94-7.69,14.34-10.2,14.01-6.49,28.91-8.05,44.16-7.9,14.38.15,14.76.05,13.87,14.38-.42,6.65,2.19,8.25,8.16,9,17.34,2.17,34.56,3.24,51.97-2.25-1.08,4.24-3.98,6.11-6.01,8.57-5.87,7.12-10.48,14.93-13.74,23.55-1.23,3.27-1.4,5.06,3.1,3.72,11.52-3.42,23.43-2.49,35.22-2.79,15.17-.39,30.07-2.18,44.49-7.22,3.59-1.25,7.06-3.27,11.32-3.07-3.58,4.57-7.23,8.78-10.37,13.33-10.68,15.45-15.12,32.35-11.18,50.98.38,1.77-.16,4.57,1.84,5.01,2.38.53,2.71-2.4,3.54-4,7.87-15.24,19.88-26.66,34.06-35.88,40.22-26.17,83.81-28.85,129.34-17.65-29.51.06-55.94,9.54-79.42,26.66-22.42,16.34-38.71,37.36-42.51,65.53-3.9,28.91,3.94,54.15,26.71,73.88,4.55,3.94,6.22,2.79,7.2-2.66,2.14-11.93,6.37-23.18,11.81-34.02,2.25-4.49,3.74-8.22,8.81-1.99,4.19,5.15,10.47,7.71,16.94,9.35,7.89,2.01,8.18,1.71,6.91-6.57-6.51-42.32,14.47-77.39,55.05-92.52,18.04-6.73,36.58-7.14,55.33-5.19,41.27,4.28,69.01,29.02,92.14,60.57.89,1.22,2.73,3.09,1.35,4.18-1.93,1.52-3.16-1.19-4.45-2.22-7.93-6.35-16.01-12.44-25.18-16.97-44.06-21.73-94.84,2.3-104.88,49.65-4.06,19.12,2.61,36.06,18.17,45.99,1.22.78,2.24,2.26,4.06,1.54-.52-1.12-.93-2.31-1.58-3.35-6.83-10.94-7.48-22.76-4.5-34.84,11.75-47.69,70.51-67.01,110.43-36.65,5.56,4.23,8.92,11.5,16.95,12.47,2.8.33,1.3,2.49,1.21,3.79-.63,8.43-1.88,16.85-1.96,25.28-.05,5.61-2.44,4.6-5.75,3.28-13.67-5.44-28.25-8.57-41.18-15.87-2.46-1.39-4.62-2.18-3.94,1.83,2.66,15.82,5.84,31.45,17.96,43.49,4.69,4.66,10.58,7.54,15.85,11.32-3.88,3.47-9.21,3.87-13.83,5.79h61.57c-1.68-2.34-4.99-3.64-6.47-7.38,4.3,2.29,7.75,4.63,10.73,7.38h49.29c-1.04-2.3-3.04-4.11-3.98-6.46-.44-1.11-1.66-2.19-.3-3.26.16-.12,1.84,1.28,2.48,2.21,1.75,2.56,4.2,4.69,5.54,7.51h33.21c-11.28-26.83-26.43-51.54-42.69-75.6-5.14-7.6-6.56-7.24-11.94.02-7.6,10.25-11.21,21.97-12.64,34.48-.18,1.58-.16,4.18-.98,4.52-2.17.9-3.22-1.53-4.41-2.89-8-9.14-17.02-17.16-26.64-24.57-.87-.67-3.85-2.19-1.39-2.92,5.6-1.66,2.57-5.08,2.11-7.56-2.57-13.98-8.14-26.72-16.8-38.11-16.65-21.9-35.48-41.87-54.57-61.64-27.1-28.07-51.22-57.88-68.29-93.61-15.42-32.28-28.98-64.45-33.99-100.19-5.39-38.41-9.31-76.38,4.78-113.81.45-1.2,1.19-2.84.02-3.64-1.72-1.18-2.9.59-3.95,1.65-13.81,13.87-24.5,29.66-30.26,48.49-1.02,3.34-.73,7.19-3.99,10.23-3.44-15.19-6.91-30.06-10.16-44.97-2.39-10.98-2.61-21.92,1.04-32.8.85-2.55,3.9-5.37,1.34-7.78-.65-.61-4.91,2.41-7.41,3.93-1.67,1.01-3.26,2.21-4.73,3.5-20.42,18-33.95,40.34-41.95,66.08-7.62,24.5-7.01,48.81,2.53,72.73,8.94,22.44,23.06,41.62,39.12,59.4,33.36,36.94,70.3,70.26,107.21,103.59,7.52,6.8,15.04,13.6,22.52,20.45.84.77,2.43,1.77,1.52,2.95-1.04,1.36-2.33-.13-3.4-.69-13.06-6.88-25.33-15-37.12-23.82-32.54-24.33-62.97-51.19-93.61-77.76-31.92-27.68-67.9-50.27-99.09-78.81-1.69-1.55-5.36-5.16-5.63-3.71-.77,4.06-7.02,4.23-5.62,8.79,1.63,5.27-.8,4.8-4.32,3.37-11.54-4.7-22.85-9.86-33.33-16.65-1.49-.97-2.85-3.63-4.73-2.18-1.58,1.21-.42,3.77.14,5.55,2.92,9.35,6.28,18.56,12.25,26.5,3.53,4.69,7.46,9.09,11.16,13.65.72.89,2.32,1.84,1.25,3.06-1.07,1.22-2.38-.1-3.48-.67-5.24-2.67-10.37-5.45-16.1-7.19-18.76-5.71-37.98-7.04-57.42-6.5-7.88.22-15.74.62-23.6-.4q-9.01-1.17-6.32,7.89c3.86,13.05,10.99,24.27,19.46,34.77.85,1.05,3,2.12,1.37,3.78-.52.53-2.51,0-3.63-.49-6.89-3.01-13.66-6.33-20.61-9.2-9.73-4.03-18.96-2.88-26.19,4.93-8.96,9.69-19.43,17.47-29.94,25.28-6.62,4.91-12.45,10.64-17.1,17.43-4.1,5.98-7.25,12.41-7.54,19.83-.05,1.2.04,2.98.78,3.53,1.34.98,2.21-.75,3.08-1.58ZM487,1921.52c-2.56-7.28-3.34-12.93-2.9-18.72.07-.93.46-2.64.6-2.63,1.69.12,1.35,1.62,1.35,2.62-.03,5.72,2.05,11.32.96,18.73ZM616.31,1766.27c-22.43-39.7-44.1-79.88-60.82-122.42-1.15-2.94-3.1-5.77-2.51-9.83,3.27,1.71,3.68,4.93,4.78,7.44,18.1,41.23,40.03,80.5,62.07,119.71,9.89,17.59,25.92,30.11,39.34,44.77,2.95,3.22,6.79,5.64,10.23,8.43-.83.82-1.66,1.64-2.5,2.46-16.92-16.83-38.6-29.33-50.6-50.55ZM511.42,1856.74c-1.16.88-2.52,3.05-3.79,1.8-1.25-1.23.82-2.77,1.69-3.99,8.31-11.56,20.17-18.44,33.1-23.34,9.94-3.76,20.2-7.23,31.28-5.86-23.75,4.69-43.46,17.16-62.28,31.38ZM582.3,1824.07c0-.15,0-.31,0-.46h24.85c.08.15.15.31.23.46h-25.07ZM271.78,1734.31c13.19-4.28,26.93-6.04,40.63-6.83,64.04-3.66,127.07.97,188.29,22.12,36.84,12.73,69.82,32.84,103.93,50.84,9.5,5.02,18.91,10.2,28.36,15.3-14.42-1.84-27.84-6.69-41.11-11.81-48.85-18.85-97.52-38.16-148.61-50.5-41.16-9.94-82.54-18.37-125.1-19.38-15.45-.37-30.83.55-46.17,2.39-1.26.15-2.57-.17-3.86-.27.44-2.06,2.39-1.46,3.63-1.86Z"/>
      <path d="M2000,430.52v-8.15c-1.77-2.6-3.16-5.49-4.44-8.44-8.84-20.34-7.03-41.15,4.44-57.78v-14.8c-1.74,1.73-3.4,3.56-5,5.44-21.5,25.23-16.2,58.48-1,78.69,1.6,2.14,4.17,3.22,6,5.05Z"/>
      <path d="M2000,664.78c-11.84-9.81-17.11-23.16-17.25-39.95-.34-42.34-3.21-84.66.12-127.04-15.43,40.29-18.32,82.14-16.84,124.63-8.49-39.44-3.96-78.6,3.05-117.82-11.23,15.91-17.83,34.01-26.63,51.03,2.44-16.93,8.19-32.69,15.71-47.88,7.69-15.53,17.97-29.52,26.64-44.46,2.95-5.09,6.26-10.07,7.67-15.75,1.37-5.5,3.33-7.86,7.51-5.58v-8.78c-2.76.64-5.54,1.23-8.23,2.09-13.52,4.31-26.08.73-35.02-10.32-6.92-8.55-11.05-18.45-13.15-29.12-2.08-10.53-3.63-21.17-5.69-31.7-1.56-8.01-6.07-14.3-12.58-19.22-2.19-1.66-4.23-2.39-5.01,1.16-2.68,12.26-13.89,19.68-17.86,31.19-.3.87-.73,2.06-1.69,1.64-.61-.27-.87-1.65-1.03-2.57-.5-2.89-.8-5.81-1.32-8.7-2.23-12.48-3.62-25.19-9.49-36.73-2.18-4.28-3.7-10.93-8.18-11.26-4.18-.31-5.39,6.45-7.17,10.43-1.85,4.13-2.58,5.27-5.96.8-6.1-8.07-10.54-9.08-18.21-3.78-4.34,3-4.66.65-5.55-2.22-3.75-12.13-7.62-24.22-11.08-36.43-1.95-6.88-3.41-13.93-2.29-21.2.33-2.14,1.98-5.4,0-6.24-2.63-1.12-4.45,2.11-6.03,4.06-10.34,12.75-18.41,26.86-25.09,41.79-1.64,3.67-1.76,7.59-1.89,11.5-.55,16.18,2.23,31.84,8.36,46.77,2.63,6.4.68,7.4-5.11,5.92-5.8-1.48-11.72-1.46-17.62-1.2-9.09.4-10.24,1.31-10.51,10.35-.69,23.21,7.69,41.91,28.09,54.52,1.99,1.23,6.98,1.7,3.22,5.94-8.28,9.31-12.16,21.81-21.81,29.99-4.57,3.88-2.04,5.61,1.09,7.89,15.38,11.15,32.64,16.22,51.62,16.09,3.6-.02,9.05-3.33,9.99-.92,1.22,3.07-3.64,6.36-6.03,9.34-10.96,13.62-3.52,20.06,8.08,25.14,2.07.91,4.36,1.38,6.59,1.88,17.67,3.92,33.8-.8,49.16-9.06,11.32-6.09,20.9-14.58,30.73-22.72,15.13-12.51,27.48-28.04,43.61-39.44,1.65-1.17,2.48-4.13,5.46-2.87-1,1.58-1.91,3.24-3.03,4.74-20.67,27.74-40.62,56.02-66.06,79.94-12.78,12.01-22.69,26.15-26.59,43.69-7.5,33.67,4,61.44,27.03,85.58,2.9,3.04,6.16,5.73,9.26,8.58,2.81-3.47,2.11-7.86,3.16-11.79,1.01-3.77,2.08-7.53,3.13-11.29,4.57-16.29,10.85-32.08,14.22-48.72.26-1.28-.58-3.25,1.53-3.58.23-.04.98,2.21,1.23,3.45,4,19.76,8.32,39.47,11.83,59.32,2.95,16.69,6.63,33.81-8.37,47.59-1.94,1.78-1.3,3.25,1.45,3.93,10.52,2.6,27.11-4.47,30.66-14.77,2.7-7.85,3.72-3.43,6.28-.48,3.47,3.98,7.24,7.55,11.84,9.64v-47.01ZM1900.87,490.13c15.29-7.68,29.51-14.8,43.7-21.97,3.21-1.62,6.36-3.35,9.47-5.15,1.06-.62,3.01-1.31,2.47-2.61-.75-1.79-2.79-.82-4.17-.49-19.19,4.64-37.75,2.51-55.7-5.29-3.83-1.66-7.56-1.69-11.52-1.34-12.13,1.06-24.25.81-37.81-.41,9.51-2.44,18.12-2.27,26.05-5.19,2.37-.87,5.94-1.04,6.52-3.51.72-3.09-3.18-3.59-5.15-4.94-11.06-7.6-22.87-13.98-34.64-20.42-1.69-.93-3.28-2.04-4.91-3.07.12-.32.24-.63.36-.95,6.75,2.14,13.5,4.27,20.23,6.43,1.51.48,3.32,1.9,4.48.37,1.09-1.43-.73-2.88-1.52-4.14-10.07-16.04-19.18-32.59-26.11-50.22-2.22-5.64-5-11.25-4.41-17.78,11.2,23.59,26.16,44.8,41.77,67.92-1.45-12.48-.91-23.13-.67-35.85,4.41,10.15,4.78,19.32,7.03,27.96,11.11,42.78,44.64,60.08,86.28,44.18,5.44-2.08,10.93-4.04,17.39-6.41-16.11,16.87-55.87,38.43-79.13,42.89Z"/>
      <path d="M862.79,2000h25.69c1.88-7.52-.2-14.38-4.14-21.32-3.62-6.38-6.71-13.2-8.37-22.29,4.74,6.69,8.39,12,12.24,17.17,1.12,1.5,2.29,4.08,4.24,3.5,1.26-.37,2.15-2.99,2.65-4.76,4.33-15.41,6.29-31.24,8.4-47.05.6-4.46,1.38-8.89,2.61-13.28,1.98,9.85,2.83,19.72,3.13,29.64.06,2.15-.95,5.63.92,6.17,2.46.72,2.87-2.81,3.88-4.65,13.67-24.84,27.7-49.5,36.66-76.56.24-.73.69-1.38,1.43-1.93-1.93,15.9-6.43,31.09-12.37,45.89-6.31,15.71-12.85,31.33-20.59,46.42-.85,1.67-2.84,3.77-1.46,5.28,2.05,2.25,4.04-.6,5.79-1.46,7.88-3.87,15.62-8.05,24.4-10.92-5.13,3.94-10.26,7.88-15.38,11.82-7.52,5.79-14.81,11.91-22.61,17.3-7.87,5.44-12.66,12.99-16.9,21.03h107.31c.07-.1.14-.19.21-.29,3.71-5.82,13.67-10.38,10.37-17.18-3.08-6.35-12.71-8.45-20.26-10.82-.31-.1-.66-.07-.96-.18-2.04-.75-5.28.72-6.09-1.6-.89-2.54,2.45-3.41,4-4.88,18.29-17.21,25.14-38.28,21.98-62.91-.85-6.68-3.64-9.9-10.88-8.94-6.87.91-13.53,2.42-20.01,4.78-1.52.56-3.27,1.71-4.6.64-2.02-1.63.03-3.6.57-5.15,3.12-8.95,4.79-18.23,7-27.4,7.81-32.39-5.6-59.14-22.45-85-1.75-2.68-4.43-4.78-6.79-7.03-.89-.86-2.16-2.17-3.31-1.31-.56.42-.32,2.46.11,3.56,2.71,7,2.35,14.13.67,21.17-3.72,15.53-9.08,30.56-14.36,45.62-1.5,4.28-2.75,5.57-7.53,3.48-8.33-3.65-13.06-1.61-17.81,6.3-1.32,2.2-2.27,4.61-3.94,8.06-1.69-7.58-5.62-12.81-8.37-18.61-1.89-3.99-3.29-2.97-5.29-.22-5.48,7.56-8.11,16.31-10.66,25.06-5.01,17.23-7.82,34.93-10.94,52.56-.36,2.01.06,4.48-2,6.01-.89-1.69-1.94-3.33-2.65-5.1-3.89-9.73-10.35-17.28-19.33-22.71-1.63-.98-3.27-2.92-5.21-2.11-2.75,1.15-1.33,3.93-1.32,5.98.19,34.4,8.17,67.03,22.34,98.23Z"/>
      <path d="M2000,1253.86c-1.14,1.42-2.27,2.86-3.46,4.23-22.07,25.37-43.51,51.25-63.12,78.58-1.33,1.85-2.79,5.7-4.93,4.41-1.94-1.17.22-4.74,1.1-7.14,10.34-28.24,24.61-54.53,40.39-80.06,8.78-14.21,18.46-27.76,30.02-39.83v-18.35c-1.47,1.17-2.91,2.39-4.43,3.45-34.73,24.05-69.17,48.39-93.9,83.6-4.84,6.89-11.33,12.52-19.17,16.46-2.5,1.26-7.54.79-7.21,3,.57,3.74,5.39,3.98,8.79,4.86,2.51.65,5.15.86,7.74,1.15,7.59.86,14.7-1.76,22.62-3.84-.99,1.68-1.33,2.64-1.98,3.31-35.46,36.69-25.7,86.64-2.44,117.11,2.06,2.69,3.37,6.46,7.49,7.13.39-2.84.59-5.72,1.21-8.51.7-3.17,1.52-6.35,2.71-9.35,6.87-17.25,17.6-32.68,24.03-50.15.3-.81,1-2.1,1.53-2.1,1.56-.01,1.88,1.48,2.23,2.72,3.46,12.31,12.24,21.28,19.48,31.3,4.12,5.69,4.89,3.21,7.1-1.09,7.96-15.5,16.08-30.92,24.2-46.34v-94.54Z"/>
      <path d="M104.64,1973.25c7.43.3,13.7-2,17.24-8.93,3.33-6.52,3.89-13.25-1.06-19.26-5.14-6.24-11.77-6.2-18.79-3.48-1.75.68-3.51,1.73-5.51.24-8.44-6.32-8.51-21.65-.02-28.03,3.15-2.37,6.65-4.09,10.45-5.31,21.4-6.87,46.19,6.74,53.66,29.55,4.4,13.41.75,25.64-5.45,37.56-4.09,7.85-8.77,15.49-10.02,24.41h22.48c3.29-8.12,6.87-16.16,9.51-24.49,12.89-40.63-9.38-79.36-50.21-87.16-16.41-3.13-32.08-.44-45.9,9.47-13.89,9.96-20.53,29.07-15.69,44.16,5.22,16.24,23.26,30.62,39.3,31.27Z"/>
      <path d="M1701.18,1990.75c4.69,1.5,12.69.49,13.38,4.26.47,2.56-3.47,3.47-7.04,5h113.53c8.05-.91,16.1-1.13,24.15,0h42.13c-10.08-8.27-21.5-14.24-33.79-18.89-27.96-10.58-56.84-11.85-86.09-8.55-39.18,4.42-77.42,5.19-109.5-23.17-.68-.6-2.04-1.46-2.41-1.21-1.69,1.13-.04,2.27.44,3.25,9.56,19.32,24.39,32.65,45.18,39.31ZM1810.08,1994.02c-15.56,3.64-31.13,7.31-47.3,4.1,15.59-3.32,31.34-4.96,47.3-4.1Z"/>
      <path d="M2000,1180.79c-11.98,4.75-24.07,9.18-36.92,11.19-18.5,2.9-36.83,3.22-53.1-7.99-9.78-6.74-17.61-14.96-14.95-28.37.24-1.22,1.04-2.8-.43-3.34-.96-.35-2.5.33-3.59.9-8.35,4.35-11.05,12.42-7.65,22.61.5,1.52,1.9,3.66,1.35,4.42-1.34,1.86-3.53.45-5.39.05-21.94-4.7-37.41-16.63-44.03-38.58-.5-1.67.08-4.41-2.75-4.18-.44.03-.8,3.45-.85,5.31-.78,30.5,13.08,52.43,40.07,66.31,27.35,14.07,55.26,11.92,82.89,1.15,15.31-5.97,30.3-12.76,45.35-19.38v-10.09Z"/>
      <path d="M2000,1917.3c-5.22-5.44-5.98-13.5-1.12-21.37.36-.58.74-1.16,1.12-1.72v-35.67c-11.96-3.52-19.26-.02-29.58,12.3-6.35,7.59-11.03,16.07-13.88,25.53-9.57,31.71,12.05,60.67,43.46,61.74v-40.81Z"/>
      <path d="M0,1791.23v39.54c16.62,41.35,17.05,83.56,0,125.69v41.57c3.7-6.29,6.81-12.89,9.71-19.57,27.84-64.27,26.17-126.79-9.71-187.22Z"/>
      <path d="M204.6,2000c21.55-24.02,45.62-44.95,75.87-57.49,23.44-9.71,47.6-11.51,71.89-2.66,29.44,10.73,45.6,33.56,43.05,60.15h18.04c3.56-17.38-3.57-31.89-14.44-44.9-25.75-30.84-69.84-41.14-111.18-25.73-37.84,14.1-66.24,40.44-91.47,70.63h8.23Z"/>
      <path d="M2000,1136.54c-21.62,9.38-43.84,10.6-66.82,1.14-1.16-.48-2.17-1.57-3.53-.91-.13.06.19,1.68.68,2.26,12.07,14.62,24.01,29.36,43.37,35.22,8.74,2.65,17.5,2.89,26.29,2.12v-39.84Z"/>
      <path d="M2000,159.48c-11.28-12.36-24.44-20.71-43.64-16.34-3.58.81-3.65-1.49-3.52-4,.34-6.25-.46-12.32-2.82-18.16-.44-1.09-1.05-2.56.45-3.21.49-.21,1.69.74,2.34,1.39,3.45,3.46,6.81,7,10.25,10.48.88.89,2.11,2.1,3.26,1.26,1.51-1.11-.06-2.31-.72-3.22-2.69-3.68-5.29-7.46-8.32-10.86-12.39-13.92-15.91-14.66-33.2-7.59-3.39,3.1-5.67,6.96-7.58,11.06-4.42,15.69,2.08,26.79,14.53,35.99,5.09,3.76,8.65,5.05,12.22-1.16,5.15-8.98,13.51-9.85,22.77-9.22,9.37.65,16.58,5.21,23.38,11.05,4.06,3.49,7.4,7.58,10.62,11.77v-9.23Z"/>
      <path d="M2000,89.54c-2.53-.27-5.08-.33-7.61-.34-15.01-.06-30.03.1-44.18,6.3-4.59,2.01-5.78,3.5-.66,6.72,12.51,7.86,25.82,13.68,40.06,17.7,4.17,1.18,8.26,2.15,12.39,2.29v-32.67Z"/>
      <path d="M1269.62,1967.4c8.41-3.25,16.96-4.85,25.96-2.82,19.69,4.45,31.11,16.43,34.88,35.42h15.91c-3.36-23.17-16.56-38.4-39.72-44.78-14.12-3.89-27.26-.57-38.69,8.72-1.5,1.22-4.18,2.93-3.39,4.31,1.19,2.05,3.41-.21,5.06-.85Z"/>
      <path d="M1381.04,2000h15.58c1.11-2.38,3.37-4.09,4.77-6.28,21.35-33.63,24.59-68.61,8.23-105.11-.64-1.42-1.86-2.59-2.81-3.88-1.81,1.69-.51,3.45-.01,5.1,5.15,16.77,6.57,33.83,4.08,51.18-3.31,23.11-13.39,42.71-29.84,58.99Z"/>
      <path d="M1104.72,2000h19.49c1.07-30.87-12.72-55.51-33.92-77.05,2.74,7.85,6.19,15.41,9.35,23.09,7.23,17.51,7.33,35.65,5.08,53.96Z"/>
      <path d="M2000,499.11c-4.41-9.85-6.81-20.37-7.14-31.57-1.94,1.28-3.05,3.16-3.48,5.37-4.48,23.28-.73,44.52,10.62,63.87v-37.67Z"/>
      <path d="M2000,451.06c-5.42,2.35-6.04,7.77-6.93,16.34l-.23-.31c2.4,6.89,4.71,13.81,7.16,20.68v-36.7Z"/>
      <path d="M2000,218.74c-17.46-1.82-31.67-12.8-38.9-30.31-1.31-3.16-.82-7.21-4.25-9.44.3,2.16.52,4.33.93,6.48,4.12,21.98,21.18,37.99,42.23,40.84v-7.56Z"/>
      <path d="M360.69,2000c-1.38-.67-2.75-.52-4.13,0h4.13Z"/>
      <path d="M1669.05,840.75c-28.2-20.61-58.36-32.72-93.77-19.84-23.17,8.43-46.46,16.19-71.61,15.69-4.54-.09-4.17,2.3-1.89,4.78,3.9,4.24,8.93,6.6,14.62,7.37,23.94,3.23,45.81-1.1,63.8-18.17,4.13-3.91,8.47-5.51,14.02-5.7,25.04-.87,46.95,7.37,66.99,21.69,37.11,26.53,59.75,63.28,75.8,104.82,9.14,23.65,14.5,47.97,14.1,73.39-.03,1.68.79,4.47-1.42,4.74-1.46.17-.94-2.69-1.34-4.18-4.51-16.63-9.23-33.17-20.38-47.6-1.23,4.2,1.16,6.87,2.32,9.73,18.81,46.42,16.77,90.98-8.89,134.98-25.31,43.39-56.63,81.71-94.85,113.97-47.23,39.86-103.08,52.55-164,45.32,1.81-.67,3.71-.92,5.61-1.13,28.35-3.18,53.95-13.28,76.87-30.1,26.38-19.36,46.48-43.11,53.09-76.02,5.41-26.96-7.87-53.48-32.32-65.12-23.39-11.14-55.12-4.45-72.11,14.9-20.4,23.23-4.22,53.43,16.93,62.26,2.32.97,5.16,1.1,7.74,1.03,8.15-.22,15-6.63,15.13-13.88.11-6.09-6.19-12.06-13.69-13.19-2.41-.36-4.63.06-6.7,1.01-4.02,1.85-5.73.09-7.41-3.47-6.61-14.01-2.58-27.36,10.97-35.25,24.94-14.53,56.58-2.18,66.19,26.08,6.35,18.66,4.45,37.08-5.65,53.71-25.4,41.79-63.32,64.82-111.91,70.81-17.98,2.22-34.1-5.14-50.66-10.13-18.4-5.54-33.41-16.16-46.52-29.93-21.07-22.15-39.29-46.43-54.04-73.07-27.57-49.78-61.28-94.06-110.03-125.44-1.35-.87-3.61-1.77-2.9-3.35.62-1.38,2.92-.45,4.5-.16,18.65,3.35,36.66,1.18,53.69-7.05,12.67-6.12,23.37-14.56,28.67-28.19,6.37-16.39.54-35.05-13.02-41.89-13.83-6.98-35.02-.23-44,14-8.12,12.87-1.07,30.22,12.71,31.11,1.71.11,4.44.92,4.75-1.81.24-2.09-2.31-1.68-3.68-2.3-9.8-4.42-14.25-11.96-11.62-19.69,3.09-9.08,15.93-16.97,27.76-17.05,10.65-.08,18.43,5.51,22.25,15.97,5.6,15.36.45,29.78-14.81,40.79-16.15,11.65-34.6,15-54.09,14.25-20.75-.8-41.08-4.77-61.1-9.67-62.25-15.22-123.08-12.02-182.23,12.92-64.13,27.04-111.59,71.04-137.52,136.21-7.18,18.04-10.82,37-13.68,56.2-3.36-14.84-8.42-28.91-16.72-41.56-13.94-21.25-32.07-35.3-59.51-31.82-4.25.54-6.58-.28-7.65-4.98-6.34-27.86-6.85-55.49,2.1-82.95,1.96-6,4.8-10.86,9.97-15.03,7.17-5.78,14.67-10.95,22.55-15.64,16.36-9.74,32.1-20.32,45.86-33.56,9.05-8.71,17.3-18.12,20.56-30.49,5.32-20.23,8.21-40.84,7.59-61.82-.23-7.66-3.38-14.52-6.79-21.23-.54-1.07-1.29-2.56-2.83-2.06-.53.17-.8,1.66-.87,2.56-.13,1.95-.09,3.91-.06,5.86.26,15.37-4.67,28.04-18.42,36.55-4.71,2.92-8.99,6.57-13.28,10.11-31.12,25.69-48.24,59.68-58.74,97.57-2.35-2.79-1.59-5.97-.95-9.09,3.57-17.19,6.75-34.46,12.56-51.12,2.69-7.71,4.15-15.77,3.32-24.03-2.48-24.94-18.01-34.08-41.18-24.26-.6.25-1.21.51-1.8.8-6.86,3.4-8.21,8.07-3.66,14.08,4.72,6.24,11.25,9.2,19.01,7.51,5.8-1.27,7.54-.27,6.25,5.87-5.8,27.56-4.72,55.04,1.9,82.34.83,3.42.23,6.42-1.24,9.43-17.65,35.92-15.65,81.17-2,115.9.24.6.24,1.29.46,1.9,21.03,59.09,36.56,119.51,44.4,181.75,1.8,14.28,3.99,28.62,1.99,43.14-3.44-22.33-9.11-44.05-18.74-64.42-19.49-41.26-39.88-82.32-64.83-120.45-36.27-55.45-62.48-115.11-82.05-177.75-16.32-52.25-22.59-105.82-10.87-160.1,8.28-38.34,25.81-71.75,58.09-95.8,20.55-15.31,43.16-21.64,68.38-11.77,1.39.54,3.14,2.27,4.29.55.47-.72-.85-2.99-1.81-4.21-7.26-9.19-16.21-16.18-27.66-19.42-21.23-6.01-39.49.98-55.94,13.78-16.98,13.21-27.83,30.91-35.74,50.58-5.65,14.03-9.99,28.51-15.09,42.78,1.51-15.23,5.62-29.9,8.99-44.73,3.38-14.89,6.31-29.86,7.17-45.21.8,1.65.82,3.27,1.18,4.81.31,1.37-.85,3.61,1.42,3.91,1.89.25,2.65-1.78,3.28-3.17,1.75-3.85,3.28-7.8,4.87-11.72,14.43-35.45,39.78-61.19,73.68-78.08,32.96-16.42,69.26-5.61,88.84,24.58,4.3,6.64,7.53,13.73,9.13,21.45,1.06,5.07,3.06,4.92,6.37,1.81,6.31-5.93,11.01-12.83,13.89-21.01.65-1.85.51-5.73,4.79-2.87,10.31,6.9,21.83,11.89,31.2,20.32,7.05,6.35,8.45,5.87,9.8-3.29,6.14-41.6-14.98-81.5-47.23-97.61-37.54-18.75-73.59-13.9-108.25,7.89-5.32,3.34-10.54,6.83-15.81,10.25,7.31-9.39,14.96-17.97,23.57-25.44,38.16-33.05,81.11-40.71,128.2-21.95,29.16,11.62,54.02,29.32,72.81,54.76,1.07,1.45,1.85,4.32,3.97,3.46,1.76-.71.87-3.48.86-5.33-.22-24.8-6.86-46.95-26.74-63.62-.97-.82-2.72-2.38-2.56-2.62,1.18-1.85,2.79-.29,3.97.13,18.25,6.5,35.54,15.06,52.64,24.07,22.03,11.6,44.47,22.36,68.47,29.42,26.47,7.78,53.37,10.88,80.61,4.62,40.44-9.3,72.74-48.53,77.13-93.76.51-5.29,2.03-7.07,7.29-7.71,28.95-3.51,56.14-12.55,81.94-26.07,17.38-9.11,35.09-17.62,52.68-26.34,44.02-21.82,90.2-38.98,134.07-61.1,51.32-25.87,98.26-57.73,136.16-101.39,16.79-19.34,31.15-40.29,40.85-64.12,12.6-30.94,10.31-59.84-12.08-85.94-2.52-2.94-4.41-6.52-8.23-8.17-1.44,4.2,1.65,7.25,2.91,10.7,5.86,15.98,11.39,31.93,8.5,49.42-3.63,21.98-14.81,40.21-28.87,56.85-54.29,64.22-118.5,115.85-194.84,152.51-36.28,17.42-72.36,35.37-106.47,56.88-1.98,1.25-3.62,3.81-7.03,2.7,1.71-1.5,3.14-2.82,4.64-4.05,41.05-33.5,73.35-73.43,91.6-123.56,16.21-44.55,25.52-90.76,33.87-137.26,10.5-58.45,31.97-112.53,67.6-160.69,14.45-19.54,31.11-36.99,49.22-53.16,1.34-1.19,4.12-2.09,3.18-4.25-.18-.41-.43-.68-.75-.86h-17.57c-1.92.02-3.84.02-5.77,0h-13.37c-4.02.84-7.06,3.18-9.89,7.23-9.72,13.92-20.1,27.38-30.26,40.99-1.34,1.8-3.39,5.01-4.37,4.75-2.25-.58-2.02-3.69-2.28-5.84-1.21-10.06-4.02-19.78-6.64-29.52-3.07-11.43-4.43-16.04-9.2-17.61h-17.82c-2.49.47-2.82,1.63-1.31,4.86,10.23,21.77,14.22,45.21,18.31,68.62.57,3.26.55,6.21-.91,9.45-22.71,50.63-35.61,103.92-44.17,158.49-6.35,40.52-14.98,80.6-29.37,119.21-7.23,19.39-16.28,37.87-28.22,55.35-.49-.96-.83-1.33-.75-1.51.82-1.76,1.7-3.49,2.58-5.23,13.42-26.34,23.53-53.88,26.18-83.37,7.14-79.42-13.23-150.87-64.01-213.41-34.08-41.97-75.74-75.74-117.63-109.34-1.66-1.33-3.29-2.7-5.45-3.13h-26.6c-.51.09-.95.24-1.12.52-.99,1.57.72,2.25,1.63,2.93,2.9,2.13,5.9,4.12,8.9,6.11,22.67,14.98,45.17,30.21,66.53,47.01,1.02.8,3.01,1.05,2.46,3.14-1.18-.38-2.42-.61-3.52-1.15-9.99-4.88-19.91-9.89-29.93-14.71-25.41-12.24-51.35-23.21-79.28-28.26-31.05-5.62-62.15-3.73-92.97,2.07-32.94,6.2-65.28,14.39-94.17,32.39-32.19,20.05-56.62,46.37-67.59,83.24-6.22,20.93-6.35,41.88,4.05,61.79,13.66,26.16,38.34,29.25,57.77,7.21,3.39-3.84,5.1-3.69,8.09,0,15.91,19.66,20.59,41.05,10.3,64.74-4.98,11.46-12.58,21.27-20.06,31.21-3.43,4.56-4.43,2.41-6.51-.81-4.42-6.85-9.36-13.38-13.74-20.25-2.78-4.37-4.23-6.28-8.5-.67-11.1,14.6-22.48,28.9-27.38,47.01-.33,1.2-1.01,3.03-1.86,3.23-2.01.48-2.1-1.86-2.84-3.02-7.37-11.55-14.62-23.17-21.92-34.77-1.2-1.91-2.99-5.55-3.59-5.37-2.88.87-2.56,4.12-3.3,6.54-3.13,10.26-5.08,20.93-9.79,30.66-8.17,16.86-14.53,34.17-15.23,53.13-.04,1.05.67,2.91-1.35,2.93-.69,0-1.55-1.05-2.08-1.79-5.54-7.82-12.4-14.31-20.14-19.92-1.52-1.11-3.09-3.07-5.08-2.32-2.3.88-1.19,3.36-1.19,5.11.07,18.5-3.74,36.27-10.63,53.33-14.91,36.89-32.41,72.63-51.55,107.49-22.59,41.13-46.5,81.54-67.79,123.38-3.22,6.32-6.18,12.96-11.67,17.89l.05.27c-2.66.66-2.97,2.77-3.77,5.03-10.81,30.91-14.35,63.57-23.3,94.82.32-20.21-1.17-40.45-8.71-59.48-16.59-41.87-44.9-71.57-90.62-81.64-13.88-3.06-27.46-1.12-39.66,6.83-1.76,1.15-4.84,2.16-3.91,4.78.68,1.89,3.49.82,5.29.69,21.12-1.63,40.1,4.75,58.08,15.05,64.04,36.65,76.81,115.13,65.8,162.4-10.83,46.48-14.76,93.32-9.76,140.71,6.47,61.38,26.58,118.54,56.14,172.6,4.22,7.73,8.57,15.38,12.84,23.08.76,1.37,1.96,2.72.54,4.37-.93-.84-2.02-1.55-2.76-2.53-4.74-6.24-9.11-12.78-14.13-18.79-26.45-31.68-58.04-55.6-99.82-63.42-47.44-8.89-99.37,24.43-110.09,70.34.23-.02.57.05.68-.08,2.16-2.43,4.27-4.9,6.44-7.33,24.73-27.66,55.18-42.39,92.97-40.51,25.06,1.25,47.01,11,67.52,24.54,14.01,9.24,26.58,20.24,38.08,32.37,28.87,30.46,55.02,63.25,77.23,98.66,17.47,27.85,31.75,57.68,47.28,86.72,10.24,19.14,16.38,39.71,20.69,60.84,1.22,6,1.76,12.14,2.61,18.22-3.39-7-5.45-14.18-7.91-21.23-12-34.34-31.34-63.31-64.44-80.69-25.46-13.37-51.94-15.46-78.07-.81-8.53,4.78-14.64,11.95-18.8,20.72-.45.94-2,2.29-.26,3.29.58.33,1.85-.27,2.69-.69,2.05-1.02,3.98-2.28,6.04-3.27,33.63-16.11,66.09-14.69,96.55,7.44,27.45,19.94,45.03,46.92,54.43,79.23,9.86,33.92,7.71,67.09-8.1,98.77-6.67,13.38-15.33,25.78-23.08,38.63-27.92,46.3-65.22,85.71-96.61,129.48-11.16,15.56-16.46,31.89-15.34,50.71,5.35-11.91,11.21-23.36,20.2-33.01,15.15-16.25,33.38-22.99,55.1-16.7,22.32,6.46,36.4,21.58,41.72,44,4.64,19.59-4.87,36.87-22.07,41.03-12.27,2.97-24.12,2.22-34.57-6.02-1-.79-1.94-3.21-3.71-1.38-.46.48.23,2.49.86,3.5,7.02,11.28,16.7,18.39,30.61,17.81,5.53-.23,11.05-1.42,16.53-2.44,13.37-2.49,25.66,4.67,30.94,18.18,4.78,12.22.16,27.02-10.5,33.72-8.54,5.36-14.64,2.72-16.64-7.29-.24-1.2.43-2.85-1.54-2.83-.8.01-1.7.83-2.37,1.47-7.28,6.93-5.23,17.31,4.45,22.72,11.77,6.59,31.63,4.13,42.56-5.28,11.52-9.91,14.82-24.58,8.5-39.13-6.81-15.71-19.18-25.35-35.34-30.2-4.53-1.36-5.24-1.93-2.18-6.04,7.98-10.74,10.4-22.94,8.01-36.14-5.74-31.71-38.48-63.19-71.51-62.08-1.49.05-3.81.95-4.4-.64-.85-2.3,1.86-3.1,3.24-4.24,18.71-15.4,37.9-30.21,58.84-42.53,44.77-26.34,93.03-40.22,145.3-38.19,19.23.74,37.89,4.8,52.75,18.41,11.71,10.73,15.48,24.97,10.19,38.11-1.57,3.89-4.11,7.38-6.14,11.08-.42.77-.57,1.69-.85,2.55.88-.11,1.84-.03,2.62-.37,22.59-9.8,30.52-38.44,16.12-58.79-11.16-15.76-27.34-24.04-45.62-28.55-16.69-4.12-33.62-5.69-50.75-2.5-1.23.23-2.57-.09-3.86-.16.3-2.07,2.3-1.76,3.5-2.11,9.42-2.77,18.85-5.51,28.37-7.92,15.94-4.04,32.12-8.01,48.6-5.15,43.6,7.57,86.41,17.34,118.84,50.83.57.59,1.8,1.38,2.2,1.15,1.03-.59.54-1.76.07-2.59-1.44-2.56-2.8-5.18-4.5-7.56-31.69-44.24-75.21-64.12-129.46-61.89-9.8.4-19.3,2.95-29.67,4.51.95-1.11,1.21-1.75,1.64-1.89,39.48-12.83,79.64-19.55,121.06-11.51,31.91,6.19,56.14,22.36,68.96,53.38,6.23,15.08,12.6,30.03,16.21,45.98.79,3.49,1.38,7.03,2.34,10.47,8.4,30.2-2.41,52.83-27.72,69.82-1.32.89-2.5,1.96-3.75,2.95,1.58,1.8,3.58.88,5.21.44,21.47-5.69,41.32-14.65,58.67-28.7,15.06-12.2,24.55-27.83,28.97-46.48,1.12-4.72,1.27-9.67,1.91-14.51.16-1.24.05-3.08,1.54-3.23,1.67-.17,1.3,1.73,1.59,2.81,2.37,8.8,4.83,17.58,7.04,26.42,6.23,24.9,8.38,50.02,4.76,75.59-3.21,22.71-16.08,38.64-34.52,51.05-1.4.94-4.24,1.4-3.25,3.65.51,1.17,3.06.34,4.58-.22,17.26-6.4,34.26-13.42,48.62-25.18,19.56-16.01,29.96-36.54,30.22-62.04.23-22.42-6.01-43.07-16.24-62.73-16.15-31.03-39.9-54.86-70.15-72.52,8.01,9.26,16.66,18.02,20.09,30.25-20.15-30.44-51.29-45.96-84.94-61.23,8,.06,13.48,2.41,19.08,3.89,50.72,13.45,93.8,38.35,123.87,82.4,23.2,33.98,35.98,70.59,29.81,112.41-7.09,48.08-49.57,89.77-97.58,95.04-1.43.16-3.83-.76-4.06,1.21-.24,2.05,2.21,1.9,3.71,2.18,21.77,4.17,43.08,2.49,63.92-5.04,2.42-.87,6.21-2.89,7.11-2.03,2.21,2.09.4,5.47-.05,8.31-4.81,29.7-13.22,57.57-41.78,76.9,9.46-1.33,16.33-3.51,22.69-6.83,37.64-19.67,60.93-50.6,71.31-91.21,4.45-17.4,6.2-35.27,7.16-53.19.07-1.36-.54-3.55,1.68-3.7.66-.05,1.63,1.78,2.15,2.89,6.25,13.36,13.93,25.86,23.4,37.19,17.16,20.53,38.24,34.32,65.5,37.93,33,4.37,64.74-13.27,74.02-42.23,5.78-18.03,3.33-35-10.47-48.89-8.94-9-21.31-7.5-29.05,2.51-5.67,7.33-5.22,14.9-1.73,22.99,4.02,9.32,3.26,11.32-5.35,16.43-16.51,9.8-32.8,7.28-48.52-1.7-13.92-7.96-24.35-19.7-33.39-32.7-12.73-18.31-22.4-38.26-31.22-58.62-13.9-32.12-29.58-63.2-52.22-90.35-1.14-1.38-3.67-2.88-2.26-4.65,1.28-1.61,3.61.09,5.43.69,40.96,13.47,79.95-4.94,100.44-39.28,8.81-14.77,14.56-30.56,16.98-47.52,1.81-12.71,1.14-26.02-1.4-33.13-.84,2.4-1.53,4.57-2.34,6.69-13.09,34.38-37.25,55.99-73.96,63.05-23.62,4.54-47.11,2.78-70.38-2.2-23.68-5.07-46.44-12.89-67.87-24.49,14.58,2.92,29.2,4.2,43.95,3.17,20.72-1.44,36.99-10.27,47.41-28.63,3.39-5.97,6.43-12.1,8.69-18.57.94-2.69,3.68-6.78,1.57-8.04-3.3-1.97-4.88,2.84-6.99,4.81-17.71,16.49-36.52,30.82-61.7,33.97-15.83,1.98-31.47.53-47.02-2.18-25.33-4.41-50.73-6.81-76.43-4.11-21.85,2.29-43.66,4.79-65.29,8.78-4.46.82-9.01,3.48-13.84,1.22,3.82-2.68,8.46-3.28,12.73-4.76,26.21-9.07,51.11-20.42,71.62-39.65,21.48-20.15,32.18-44.84,31.45-74.17-.48-19.38-8.92-35.08-23.82-47.41-1.81-1.5-3.89-4.77-6.22-3.06-1.44,1.06,1.33,3.84,2.37,5.76,15.29,28.19,14.58,56.1-1.45,83.73-10.66,18.36-25.06,33.35-42.14,45.92-20.57,15.14-44.12,24.15-67.91,32.66-29.59,10.59-59.41,20.58-87.74,34.35-37.9,18.42-72.13,42.49-106.13,67.02-20.47,14.76-39.56,31.24-59.99,46.01-2.41,1.74-4.29,4.98-8.12,4.16.75-3.01,3.36-4.62,5.27-6.72,15.65-17.17,30.58-34.85,43.53-54.21,23.94-35.8,39.62-75.64,56.74-114.66,29.07-66.25,40.47-135.78,34.57-207.96-.4-4.88-.47-9.76.29-14.63,10.3-65.5,40.46-119.34,95.7-157.76,62.16-43.22,131.11-58.25,205.75-44.96,42.46,7.56,80.84,24.69,112.12,55.05,19.15,18.59,33.96,39.77,35.84,67.59.84,12.41.58,24.73-1.14,37.06-6.33,45.22-41.97,85.98-84.95,96.93-17.13,4.36-33.89,3.66-49.72-4.76-19.05-10.12-29.26-33.61-23.27-52.25,1.58-4.91,2.82-6.59,8.7-3.86,14.79,6.88,31.06-.42,35.91-15.28,1.52-4.66,2.82-9.88-.92-13.98-15.37-16.84-37.33-30.28-62-18.29-28.21,13.7-42.97,37.14-43.9,67.83-.9,29.83,14.91,50.55,41.43,63.25,26.54,12.71,54.24,12.57,81.56,3.69,58.31-18.95,97.04-56.63,109.84-117.66,2.49-11.86,1.95-24,1.09-36.06-.11-1.52-.93-3.81.56-4.37,1.88-.71,2.34,1.78,3.02,3.05,7.58,14.08,14.72,28.42,19.23,43.77,9.44,32.16,18.43,64.46,27.47,96.73,1.84,6.57,3.13,13.3,4.55,19.99,1.22,5.74.47,8.82-7.15,8.22-12.32-.96-21.51,6.14-25.19,17.54-3.92,12.18,3.63,23.38,16.43,24.36,17.6,1.35,30.78-12.19,28.94-30.03-1.51-14.63-5.32-28.77-9.95-42.71-9.31-28.01-18.59-56.02-27.89-84.03,13.73,26.38,34.24,48.16,49.74,73.22,12.61,20.39,19.11,42.83,16.79,67.1-2.09,21.77-18.54,41.18-39.18,46.73-29.33,7.88-65.43-8.98-78.33-36.5-.55-1.18-.18-3.53-2.48-3.1-.38.07-.57,2.38-.46,3.62,1.07,12.49,7.62,22.06,16.97,29.81,16.95,14.04,36.77,19.39,58.6,18.32,36.48-1.79,61.34-32.39,55.66-68.32-2.56-16.24-7.83-31.53-15.17-46.18-.64-1.28-2.18-2.53-.52-4.14.88.95,1.92,1.8,2.63,2.86,9.82,14.64,19.74,29.21,29.35,43.99,11.58,17.82,13.56,36.81,7.08,57.05-4.96,15.49-11.47,30.46-15.26,46.33-5.8,24.26-5.37,47.84,7.35,70.12,14.73,25.81,42.94,38.35,71.01,31.75,29.17-6.87,49.75-30.68,51.28-59.34,1.54-28.78-16.46-53.17-42.53-57.62-14.89-2.54-30.23,8.16-32.67,22.88-.96,5.79-.03,11.09,4.94,14.97,4.66,3.64,9.74,3.22,14.91,1.3,1.23-.45,2.57-.89,3.52-1.72,5.92-5.2,8.26-1.56,9.86,3.86.73,2.48,1.53,5,1.82,7.56,1.97,17.17-5.75,32.47-20.21,40.29-14.3,7.75-31.28,5.82-44.97-5.45-18.83-15.51-23.03-36.27-20.79-59.12,1.8-18.4,9.09-35.24,15.7-52.21,8.09-20.73,6.78-40.78-3.09-60.49-5.56-11.11-12.08-21.67-19.67-31.51-19.16-24.86-36.44-50.99-53.59-77.22-1.7-2.6-4.25-4.85-4.49-8.27,3.59.63,4.38,4.07,6.21,6.35,23.52,29.24,52.82,49.79,90.19,57,50.88,9.82,99.26,1.39,144.8-22.67,50-26.41,89.12-65.13,122.78-109.58,41.82-55.22,58.56-116.35,43.16-184.93-12.15-54.1-38.01-99.53-83.53-132.81ZM784.67,981.86c12-11.56,24.14-22.98,36.26-34.42.79-.75,1.66-2.51,2.84-1.5,1.25,1.07-.2,2.35-1,3.23-6.61,7.23-13.04,14.64-19.97,21.55-20.4,20.33-40.21,41.1-55.2,65.89-.69,1.14-2.4,7.42-3.93.17,4.46-4.68,6.25-10.93,9.56-16.29,8.8-14.25,19.41-27.02,31.45-38.62ZM818.08,681.96c-3.32-7.66-6.09-14.07-8.85-20.44,6.31,6.14,8.19,10.28,8.85,20.44ZM808.68,660.76c-4.38-1.72-5.61-6.44-8.61-9.45,3.8,2.3,7.61,4.6,8.61,9.45ZM762.37,635.75c1.2.31,3.28,1.49,3.2,1.78-.6,2.15-2.41.7-3.64.73-20.59.58-40.93,2.62-60.36,10.16,18.59-12.31,38.46-18.45,60.8-12.68ZM654.68,673.74s-.93-.79-.87-.89c1.36-2.29,2.25-5.04,5.24-5.85-.28,2.97-2.36,4.83-4.36,6.73ZM659.33,666.59c.52-3.95,3.95-5.87,6.24-8.58.22.22.67.53.62.63-1.54,3.29-3.6,6.15-6.87,7.95ZM1252.23,494.52c-20.88,14.72-44.14,23.91-68.95,29.75-5.8,1.37-6.61-1.68-7.42-5.8-2.77-14.11-9.3-26.3-19.18-36.79-33.16-35.2-80.9-20.22-101.2,3.39-18.67,21.71-12.98,52.74,11.35,64.86,6.35,3.16,12.97,4.4,20.01,3.77,10.95-.97,17.55-7.76,17.77-18.34.2-9.46-4.45-14.18-16.3-15.21-4.87-.42-6.22-2.12-5.71-6.61,2.29-19.88,5.03-24.39,25.86-21.45,22.42,3.17,36.99,18.38,40.82,41.54,7.23,43.74-21.79,80.73-66.2,84.6-32.27,2.82-62.4-5.28-91.86-17.14-22.21-8.94-43.06-20.66-64.62-30.93-19.12-9.11-39.22-14.31-60.18-17.12-12.64-1.69-25.03-5.08-37.62-7.25-31.58-5.44-60.47,2.12-87.44,18.43-2.5,1.51-4.92,3.14-7.38,4.72,22.72-22.04,47.94-40.87,78.78-50.74,23.07-7.39,46.19-14.62,69.4-21.56,18.21-5.45,34.65-15.65,53.47-19.38,2.83-.56,3.53-2.66,3.89-4.97,1.9-12.25,9.36-21.4,17.45-29.98,18.1-19.2,38.15-36.36,63.5-44.93,44.87-15.18,86.13-5.6,123.25,22.2,17.52,13.12,33.85,27.83,50.62,41.94,16.57,13.94,34.99,24.02,56.68,27.52,1.54.25,3.71.03,4.07,1.96.32,1.77-1.62,2.61-2.88,3.5ZM965.45,283.62c9.42-26.7,6.78-51.89-11.12-74.72-5.11-6.51-11.25-11.86-18.42-15.99-8.14-4.69-16.9-8-24.56-13.93-8.14-6.3-19.96-3.06-25.53,6.1-3.83,6.3-5.34,4.16-7.61-.55-6.1-12.69-5.85-26.11-3.34-39.29,9.23-48.52,38.12-80.96,85.04-95.99,40.7-13.04,82.77-19.91,125.78-20.21,19.48-.14,38.17,3.7,56.71,9.36-21.43-.77-41.78,3.38-61.18,12.2-21.09,9.59-37,24.52-46.73,45.5-11.49,24.78-6.24,53.79,12.19,70.21,10.58,9.42,23.21,11.39,36.72,10.36,1.49-.11,3.69-.04,4.05-1.81.37-1.81-1.7-2.58-3.02-3.46-4.88-3.29-10.04-6.22-14.66-9.83-21.21-16.53-27.17-39.89-16.4-64.56,9.95-22.8,28.72-35.72,51.27-44.16,23.34-8.73,46.92-7.76,70.56-1.29,16.77,4.6,31.58,11.82,45.1,23.65,30.41,26.61,60.55,53.31,81.37,88.29,35.07,58.94,48.52,122.78,38.72,190.57-5.67,39.2-24.08,73.35-49.16,103.94-3.72,4.53-7.83,8.7-14.4,8.58-.23,2.09,1.51,2.24,2.93,2.86,4.94,2.15,3,3.78-.43,5.39-15.54,7.27-31.29,5.43-47.03.94-16.18-4.62-29.05-14.8-41.72-25.16-17.73-14.5-35.85-28.49-54.23-42.19-49.58-36.94-105.13-26.99-144.7-2.23-20.78,13-38.1,29.79-51.53,50.35-1.22,1.87-2.11,5.88-4.93,1.26-6.41-10.51-16.62-14.11-28.09-15.62-1.41-.19-3.55.67-3.95-1.4-.13-.68,1.48-1.98,2.54-2.56,29.05-15.78,49.11-40.68,68.68-66.18,3.3-4.29,2.41-5.6-2.01-7.51-11.23-4.84-22.78-5.76-34.7-3.91-2.23.35-4.4,1.44-7.41.22,9.37-8.05,17.77-16.57,23.45-27.35,2.45-4.65,4.92-9.28,4.8-14.68-.29-12.26,2.9-23.73,6.95-35.22ZM653,648.47c9.45-20.17,22.61-38.12,34.74-56.67,22.53-34.46,47.65-67.04,73.25-99.28,24.8-31.25,47.38-64.02,67.28-98.58,3.4-5.9,7.16-11.6,11.16-18.06,1.41,4.86-1.17,7.75-2.48,10.9-6.62,15.96-14.98,31.09-22.78,46.49-.57,1.12-1.83,2.43-.83,3.5,1.41,1.53,2.13-.54,2.7-1.22,35.48-42.47,77.96-78.34,114.64-119.69,2.94-3.32,5.82-6.69,8.72-10.05-.88,5.7-4.2,10.04-7.21,14.49-21.15,31.24-47.64,58.03-72.68,86.04-13.94,15.59-27.94,31.14-40.43,47.94-1.03,1.39-3.67,2.94-1.8,4.72,1.71,1.63,3.45-.81,4.92-1.82,19.64-13.6,39.21-27.31,60.21-38.8,2.67-1.46,5.69-5.37,8.3-2.84,1.12,1.08-4.04,4.09-6.5,5.98-22.3,17.16-46.66,31.55-68.37,49.49-41.03,33.9-76.18,73.55-111.32,113.17-18.25,20.58-34.32,42.76-48.87,66.05-1.02,1.64-2.7,4.75-3.57,4.11-2.36-1.73.03-3.98.92-5.88ZM792.86,1453.42c-1.41,4.86-2.64,10.08-7.23,14.48,3.52-21.92,7.16-43.02,7.68-64.56.82-34.18-6.11-67.29-12.48-100.56-8.89-46.44-20.12-92.17-39.34-135.64-.71-1.61-2.73-3.67-.59-5.05,1.36-.87,3.83-.56,5.65-.12,18.36,4.4,32.56,14.94,43.59,29.86,13.15,17.79,19.85,38.18,22.2,59.78,7.47,68.55-.22,135.77-19.48,201.81Z"/>
      <path d="M2000,1624.76c-7.93-7.72-16.23-14.97-25.2-21.57-14.33-10.55-29.41-15.53-46.98-9.33-1.06.38-2.68,1.64-3.5.21-.41-.72.47-2.38,1.07-3.43,4.23-7.39,7.65-15.12,10.1-23.27,1.15-3.82.92-6.61-3.62-8.53-15.83-6.7-31.64-8.09-47.77-1.3-7.3,3.07-14.01,7.09-20.27,11.91-1.2.93-2.41,2.32-4.08,1.67-.26-.1.32-2.36.51-3.63,2.28-15.14.61-29.87-4.62-44.23-.43-1.17-1.04-2.97-1.85-3.14-1.39-.28-2.01,1.36-2.33,2.64-3.94,15.64-14.67,26.67-25.86,37.31-27.99,26.59-50.45,57.38-69.77,90.52-5.08,8.72-9.31,17.92-13.92,26.91-.58,1.13-1.69,2.67-.55,3.52,1.82,1.35,2.58-.94,3.6-1.85,18.57-16.53,36.94-33.3,55.7-49.62,13.58-11.82,27.8-22.87,44.42-30.39,1.48-.67,3.75-2.07,4.43-.83,1.25,2.26-1.68,2.62-3.01,3.52-11.41,7.72-22.63,15.64-32.27,25.55-.79.82-2.21,1.53-1.48,2.91.16.31,1.81.12,2.62-.21,22.7-9.21,46.67-12.93,70.8-15.68,16.58-1.89,33.23-1.87,49.83.36-17.89,2.5-35.9,3.36-53.69,6.34-24.08,4.03-47.26,10.63-68.97,21.89-1.34.69-3.73,1.1-3.38,2.85.38,1.9,2.7,1.1,4.14,1.06,15.06-.36,29.67,2.98,44.46,5.18-14.79.56-29.56.49-44.32.58-13.86.08-26.36,4.06-37.56,12.45-13.35,10.01-27.04,19.56-40.57,29.32-1.29.93-2.51,2.92-4.07,2.14-1.55-.77-.62-2.85-.42-4.36,2.21-16.14,5.64-31.99,10.52-47.57,14.52-46.35,34.48-90.72,50.6-136.49,1.96-5.56,1.05-6.2-4.13-5.27-10.41,1.87-20.43,4.68-29.37,10.58-1.16.77-2.5,2.8-4.02,1.37-1.4-1.31.16-2.97.78-4.4.52-1.2,1.05-2.39,1.6-3.57,8.89-19.1,8.46-37.71-2.4-56.08-4.14-6.99-8.48-13.96-10.93-21.83-.37-1.18-.98-2.96-1.84-3.2-1.93-.53-2.44,1.65-3.18,2.86-7.07,11.46-16.59,21.01-24.82,31.57-1.12,1.43-1.88,4.01-4.21,3.31-.75-.23-.73-2.86-1.14-4.38-3-11.06-6.58-21.91-14.14-30.86-7.69-9.1-17.96-12.49-25.96-7.28-4.86,3.16-7.44,1.97-10.95-1.01-9.53-8.11-19.67-15.12-32.14-18.3-5.97-1.52-11.66-1.32-17.43.46-1.91.59-4.65,1.31-4.67,3.01-.02,1.95,2.9,2.14,4.7,2.6,17.22,4.44,26.52,16.51,27.22,33.07.79,18.52,3.15,36.26,11.1,53.09.4.84.99,2.06.67,2.67-.9,1.66-2.22.4-3.3-.04-7.69-3.13-15.61-4.87-23.98-4.49-11.85.54-13.23,2.13-10.46,13.43,7.1,29.01,15.95,57.23,38.07,79.14.67.66,1.66,2.12,1.47,2.35-.93,1.11-2.2.56-3.4.12-1.23-.46-2.5-.8-3.76-1.16-30.29-8.66-59.32,8.87-65.5,39.54-.18.9-1.1,1.99.06,2.56.65.31,1.82-.1,2.6-.49,4.69-2.34,9.27-4.88,14-7.13,10.55-5.01,21.65-7.74,33.38-6.54,33.2,3.39,60.11,27.51,67.98,62.14-11.01-15.23-24.04-25.07-41.07-28.88-15.12-3.38-30.45-5.19-45.95-4.01-22.05,1.68-41.54,9.1-56.15,26.47-1.39,1.66-4.22,3.85-3.05,5.53,1.49,2.13,4.28-.26,6.19-1.07,30.72-13.16,62.72-15.73,95.55-11.77,16.54,2,29.84,9.45,39.18,23.32,1.43,2.12,3.71,5.73,2.94,6.84-1.62,2.33-4.77.17-7.12-.52-27.9-8.18-56.67-10.92-85.45-13.16-18.25-1.42-36.75-3.26-54.37,4.46-2.37,1.04-5.39,1.95-7.66.65-4.54-2.59-8.85-1-13.36-.5-8.15.92-16.36,1.81-24.49-.14-22.9-5.52-35.4-22.47-35.15-47.32.02-2.01,1.5-5.39-.79-5.75-1.8-.28-2.2,3.46-2.7,5.62-2.18,9.38-2.11,18.78.16,28.11,4.01,16.46,17.72,27.4,34.75,27.98,3.26.11,6.59-.31,9.73,1,14.51,6.03,29.45,11.05,43.41,18.34,1.68.88,3.63,1.37,4.53,3.28-1.79.78-3.53,1.74-5.38,2.32-25.78,8.17-45.11,24.49-60.46,46.21-3.75,5.3-1.09,5.63,3.05,6.17,8.52,1.12,16.69,3.41,24.41,7.22,3.35,1.65,5.83,3.02,1.16,6.46-22.25,16.34-37.36,38.12-48.14,63.12-1.78,4.13-6.18,11.08-4.73,11.93,4.77,2.79,9.46-1.95,13.93-4.08,14.18-6.77,28.11-14.06,42.23-20.97,1.78-.87,3.97-3.82,5.85-1.42,1.49,1.91-1.02,4.12-2.19,5.95-2.81,4.4-5.87,8.64-8.72,13.01-1.38,2.11-4.99,4.18-3.56,6.36,1.62,2.47,5.32.6,8.09.23,36.2-4.81,65.42-21.96,88.82-49.45,1.13-1.33,1.77-3.65,4.11-3.04.27.07,0,3.01-.36,4.54-2.9,12.36-5.38,24.86-9.04,37-2.06,6.83-.03,5.83,5.02,4.67,13.92-3.19,24.26-11.17,32.29-22.44,15.07-21.16,25.48-44.73,35.34-68.53,4.62-11.15,9.09-22.33,15.46-32.66,2.93-4.75,6.29-9.14,10.43-12.92.94-.86,2.1-2.12,3.23-1.47,1.49.86.4,2.25-.23,3.36-4.24,7.52-6.08,15.74-7.11,24.2-4.27,35.15-13.72,68.87-28.1,101.27-3.17,7.14-5.92,14.48-8.58,21.83-2.78,7.69-4.73,15.6-4.94,23.83-.04,1.52-.78,3.59,1.04,4.28,1.93.73,2.7-1.42,3.62-2.61,11.21-14.5,21.13-29.78,29.44-46.15,16.74-33,23.1-68.99,31.19-104.51.58-2.56-.82-6.91,3.1-7.02,2.91-.08,4.13,3.78,5.27,6.47,4.51,10.6,6.79,21.7,7.72,33.15,2.62,32.27-1.34,64.51-.19,96.77.45,12.7,1.11,25.4,3.28,37.95.25,1.45-.14,3.67,1.66,4.06,1.8.4,2.64-1.67,3.54-2.94,7.57-10.65,15.06-21.35,22.61-32,.91-1.29,2.15-3.52,3.06-3.43,2.37.22,1.58,2.95,2.15,4.54,3.16,8.9,5.7,18.03,9.13,26.82,5.7,14.62,15.29,25.61,30.84,30.73,5.52,1.82,8.65.43,10.45-5.1,2.02-6.19,4.47-12.24,6.81-18.31.33-.86,1.09-2.18,1.7-2.21,1.79-.09,1.29,1.71,1.52,2.72,3.34,14.67,10.24,27.4,21.04,37.96,1.74,1.7,2.42,5.89,5.32,4.61,2.03-.9.86-4.75.87-7.26.07-21.56,5.44-41.88,14.27-61.42.8-1.77,1.6-4.88,2.61-4.97,2.65-.23,3.07,2.94,4.26,4.75,3.79,5.77,8.09,11.09,13.25,15.69,2.74,2.44,4.54,2.42,4.62-1.98.14-6.84.22-13.71.84-20.52,2.14-23.43-3.37-44-21.99-59.9-1.1-.94-3.32-2.02-2.1-3.71.63-.88,2.96-.76,4.52-.73,11.2.22,22.28-1.24,33.41-2.12,1.88-.15,4.45.05,4.82-2.27.18-1.16-1.46-2.74-2.51-3.93-13.05-14.75-27.17-28.26-44.11-38.69-4.26-2.62-9.5-4.22-12.17-9.05,4.82-.82,9.64-1.64,14.45-2.48,1.14-.2,2.93.37,3.12-1.24.18-1.45-1.51-1.9-2.65-2.46-16.5-7.99-33.17-15.67-49.48-24.02-30.63-15.69-63.16-15.18-96.09-11.91-1.28.13-3.61.52-3.68.27-.52-1.77.98-2.81,2.07-3.95,6.73-7.04,15.09-11.47,24.29-14.19,28.62-8.46,57.64-15.16,87.33-18.77,25.4-3.1,50.77-6.38,76.19-9.36,5.28-.62,5.47-2.37,2.22-5.71-4.1-4.21-8.25-8.39-12.51-12.43-2.56-2.43-5.37-4.58-8.08-6.85,3.29-2.3,7.36-1.27,10.91-2.55,3.68-1.32,7.5-2.32,11.12-3.78,25.97-10.41,52.16-17.93,80.05-7.13.08.03.17.07.26.1v-5.62ZM1682.79,1718.41c-4.04,2.14-8.13,4.2-12.24,6.22-22.13,10.86-39.68,26.21-50.34,48.88-2.97,6.33-6.19,12.95-12.95,17.83,1.88-7.6,3.61-14.47,5.23-21.37.28-1.2.61-3.03-.02-3.68-1.48-1.55-2.8.19-4.1.98-17.04,10.41-34.39,20.27-52.76,28.22-10.99,4.76-22.09,9.2-34.06,11.16,7.97-6.44,17.12-10.75,26.01-15.44,21.46-11.33,42.69-22.98,61.4-38.59,3.43-2.87,10-6.46,8.93-9.16-1.45-3.64-8.12-1.43-12.52-1.91-10.34-1.11-20.93-.06-31.08-4.84,8.16,0,16.33-.37,24.47.07,17.53.95,33.69-2.56,48.87-11.73,10.44-6.3,22.11-9.85,34.57-9.91,1.15,0,2.94-.57,3.24.94.31,1.52-1.6,1.77-2.66,2.33ZM1790.24,1764.84c20.34,12.4,43.55,18.55,64.24,30.4-15.37-4.23-30.75-8.46-46.11-12.7-1.9-.52-4.65-1.68-5.51-.26-.99,1.64,1.69,3.08,2.93,4.46,22.65,25.11,35.18,55.3,44.39,87.15.54,1.85,1.31,3.72.03,6.16-4.45-10.7-8.47-21.17-13.11-31.36-10.66-23.41-26.04-43.57-44.2-61.73-1.11-1.11-2.33-3.18-3.87-2.33-1.37.76-.28,2.9-.09,4.44,2,16.77,7.08,33.03,7.97,50.02-5.54-19.27-11.17-38.52-16.57-57.84-2.14-7.66-5.75-14.26-10.93-20.42-11.5-13.68-24.07-26.3-36.8-38.88,21.48,11.32,37.1,30.34,57.64,42.87ZM1724.2,1562.61c-2.91,13.95-3.21,27.33-.43,41.45,4.05,20.55,1.65,41.18-4.12,61.39-.92-16.57-.75-33.19-4.44-49.46-1.15-5.06-2.52-10.09-4.02-15.06-2.25-7.46-6.84-12.87-13.62-17.14-14.57-9.18-27.92-20.04-40.18-32.3,11.65,6.27,23.47,12.17,33.88,20.42,1.79,1.42,3.56,2.9,5.47,4.14,1.22.8,2.54,2.74,4.08,1.43,1.36-1.16.34-3.02-.24-4.53-6.09-15.86-14.37-30.57-23.52-44.85-1.04-1.62-2.03-3.27-3.05-4.91.53-.44,1.05-.88,1.58-1.32,6.72,8.2,13.52,16.34,20.11,24.64,2.62,3.31,4.75,7,7.11,10.52.66.99.93,2.8,2.54,2.27,1.56-.51.97-2.24.93-3.47-.43-12.73-2.48-25.19-6.12-37.43-5.77-19.39-13.62-37.92-22.45-56.09-.64-1.32-2.24-2.59-.54-4.82,16.96,23.6,30.04,48.82,37.67,76.7.76,2.79.75,5.82,3,8.05,2.16-2.48,2.27-5.75,2.86-8.65,1.92-9.53,3.31-19.16,5.18-30.42,4.5,21.11,2.29,40.41-1.68,59.44Z"/>
      <path d="M839.89,119.27c-14.13,19.69-31.02,36.32-53.77,45.93-26.83,11.33-52.25,8.33-74.61-10.36-23.01-19.23-18.9-56.92,7.1-71.88,11.91-6.85,29.28-4.8,39.4,4.64,9.24,8.62,10.34,19.22,3.49,32.94-.21.42.16,1.13.27,1.7,13.22-12.42,13.06-29.83-.4-42.73-20.03-19.2-51.1-13.92-65.95,11.4-2.91,4.96-4.91,10.45-7.95,17.06-.38-2.99-.53-4.49-.78-5.98-6.24-38.05-41.32-61.69-78.79-53.03-9.99,2.31-19.26,6.4-27.77,12.08-2.5,1.67-4.65,3.55-7.75,1.05-5.84-4.71-12.68-4.54-19.68-3.95-1.95.16-5.14,1.56-5.87-1.42-.47-1.92,2.45-2.65,3.92-3.82,14.51-11.51,25.63-25,28.04-44.21.63-4.99.09-7.78-3.37-8.68h-9.99c-7.68.38-15.4.59-23.01,0h-18.29c-8.76,1.87-15.53,7.24-21.11,17.4-7.78,14.16-19.15,26.36-27.87,40.16-.69,1.09-1.79,2.31-.93,3.45,1.09,1.44,2.31-.15,3.36-.55,8.84-3.37,16.44-9.36,25.64-11.98,2.15-2.84,5.15-4.3,8.53-5.11.18-.04.48.37.72.58-2.63,2.23-5.1,4.74-8.87,4.96-28.73,16.74-58.01,32.56-85.56,51.25-4.44,3.02-4.44.59-3.98-3.37,1.21-10.5,4.5-20.25,9.23-29.65,8.49-16.87,17.12-33.68,24.42-51.11,5.28-12.62,6.45-15.31-1.54-16.01h-13.38c-3.84.81-5.46,3.31-6.38,8.15-2.35,12.39-5.58,24.62-8.69,37.95-2.89-4.72-2.46-8.72-2.95-12.54-1.2-9.36-2.63-18.69-3.65-28.07-.36-3.27-1.36-4.89-4.15-5.49h-12.72c-2.29,1.13-1.31,4.25,1.06,11.8,1.66,5.27,3.46,10.53,4.73,15.9,2.94,12.37,5.83,24.85,3.62,37.66-3.98,23.14-3.5,26.52-27.79,11.54-23.16-14.28-36.24-37.19-45.83-61.93-3.76-9.72-5.2-13.61-9.38-14.96h-15.98c-3.48.7-2.29,2.67-.76,5.66,9.57,18.67,20.51,36.42,35.16,51.63,9.79,10.17,20.74,18.95,33.36,25.58,2.09,1.1,6.28.66,5.61,4.08-.25,1.28-4.46,2.15-6.97,2.58-19.58,3.36-39.26,3.69-58.77.02-33.08-6.2-58.97-22.77-74.89-53.06-5.02-9.56-8.96-19.51-11.97-29.86-.74-2.54-.43-6.47-4.47-6.61-.41-.01-.83-.02-1.24-.03h-18.48c-.32,0-.63.01-.95.02-2.54.04-2.97,2.37-3.45,4.14-5.53,20.4-13.48,40.21-16.01,61.33-2.82,23.52,1.75,45.39,16.4,64.64.98,1.29,2.19,3.13,3.84,2.32,1.7-.83.74-2.89.27-4.32-6.72-20.47-3.44-40.54,2.35-60.52,3.08-10.61,6.68-21.07,8.8-33.36,4.56,11.9,9.31,22.23,15.83,31.61,21.11,30.34,49.74,45.12,87.37,42.21,17.55-1.35,33.99-6.8,50.74-11.27,1.84-.49,4.14-2.34,5.36-.54,1.03,1.52-1.23,3.43-2.18,5.09-4.26,7.51-9.95,13.74-17.33,18.34-21.99,13.69-45.62,22.58-71.66,25.13-24.68,2.41-49.19,1.87-73.53-2.8-4.89-.94-6.08.08-4.64,4.6,2.09,6.55,4.93,12.72,8.76,18.49,5.89,8.86,14.32,15.03,22.67,21.96-21.31-5.61-41.7-1.7-62.01,4.01-8.54,2.4-8.82,2.77-5.06,11.16,4.74,10.58,13.21,17.66,22.64,23.83,1.34.88,3.48,1.51,3.17,3.31-.3,1.71-2.61,1.35-4.01,1.9-12.81,5.05-25.5,10.35-37.26,17.57-3.34,2.05-6.73,4.12-8.77,7.67-1.59,2.78-1.85,4.79,2.33,5.23,5.87.62,11.71,1.51,17.54,2.41,1.47.23,3.68-.43,4.12,1.68.38,1.81-1.59,2.6-2.65,3.74-16.77,18.02-38.43,23.94-62.16,24.8-2.8.1-7.01-2.59-8,.09-1.11,3.01,3.11,5.24,5.55,7.32,4.02,3.44,8.7,5.75,13.66,7.62,7.99,3.02,16.19,5.31,24.51,7.14,9.98,2.2,19.45,5.08,28.05,11.11,9.7,6.81,19.17,4.71,26.47-5,5.1-6.78,9.67-13.95,14.59-20.86,1.07-1.51,2.11-4.23,3.97-3.75,2.26.59.8,3.3.88,5.03.53,11.68-.35,23.51,3.89,34.79,1.06,2.83,1.54,6.98,5.04,1.49,6.66-10.47,16.69-17.29,26.45-24.52,31.16-23.09,56.99-50,64.75-89.82,1.24-6.35,3.69-12.47,5.61-18.69.37-1.21,1.48-2.66.17-3.49-.68-.43-2.5.21-3.39.9-3.36,2.59-6.75,5.19-9.76,8.16-10.26,10.12-21.01,19.69-32.55,28.36-31.32,23.52-64.55,43.53-102.9,53.74-5.52,1.47-11.19,3.45-17.12,2.31,2.03-1.42,4.15-2.2,6.26-3.03,42.44-16.71,81.76-38.49,115-70.06,2.4-2.28,5.68-3.99,6.45-7.67-3.42-.41-6.25,1.49-9.31,2.41-15.65,4.68-31.32,9.18-47.96,8.42,8.28-3.95,17.32-5.14,26.04-7.42,15.62-4.08,30.77-9.19,43.87-19,1.23-.92,3.53-1.3,2.86-3.33-.61-1.82-2.78-.96-4.26-1.25-10.83-2.13-21.67-4.24-32.51-6.35,6.62-1.58,13.13-1.13,19.56-1.66,23.98-1.99,46.63-7.06,63.59-26.3,6.24-7.08,13.92-12.9,21.83-18.2,7.96-5.33,16.19-10.24,26.58-11.55-27.23,19.89-48.78,43.46-60.99,74.51-6.08,15.47-13.07,30.52-20.72,45.28-5.27,10.17-9.61,20.71-12.33,31.82-2.91,11.86-4.07,23.77.58,35.55.71,1.79,1.13,4.2,3.19,4.44.85.1,2.02-2.27,3.01-3.54,9.87-12.6,19.7-25.23,29.64-37.78,1.13-1.43,2.63-4.73,3.9-3.62,5.44,4.73,5.14-1.26,6.22-3.2,4.43-8.01,7.53-16.63,9.66-25.49,6.32-26.24,12.12-52.62,20.02-78.45,1.49-4.87,1.86-10.21,5.19-14.46,3.2,4.58.92,9.78,1.68,14.64.2,1.28.12,2.6.16,3.9.79,25.24-.34,50.11-12.45,73.26-2.69,5.14-4.26,10.94-5.79,16.58-4.65,17.11-13.99,31.45-25.91,44.33-10.02,10.82-18.73,22.65-27.21,34.66-1.07,1.52-3.46,3.48-2.24,4.89,1.97,2.28,4.19-.46,5.94-1.42,25.27-13.9,44.27-33.44,54.24-60.77,2.45-6.71,4.2-13.67,6.38-20.49.57-1.8,1.54-3.48,2.32-5.21,2.06,1.24.99,3.3,1.19,4.96,2.82,24.16,17.45,38.74,41.93,41.59,3.91.45,7.84,1.18,11.75,1.1,4.53-.09,6.56,1.85,7.1,6.09.82,6.5,2.99,12.67,5.12,18.83.49,1.43,1.36,3.69,2.28,3.8,1.63.2,2.34-1.86,3.11-3.32,5.94-11.24,11.84-22.5,17.95-33.65,1-1.82.97-5.23,3.88-4.91,1.95.21,1.74,3.15,2.46,4.86,4.42,10.51,8.65,21.11,14.38,31.02,7.71,13.31,18.94,22.24,33.75,26.72,5.91,1.78,10.11,1.44,10.66-6.36.41-5.81,2.04-11.53,3.16-17.28.24-1.23.57-3.44,1-3.48,2.02-.16,2.37,1.78,2.98,3.25,5.89,14.22,15.08,25.85,27.72,34.77,1.55,1.1,3.07,3.57,4.88,2.54,1.74-.99.47-3.55.23-5.41-2.79-21.87-2.91-43.54,4.44-64.73,1.17-3.37,1.8-9.7,3.01-9.79,4.08-.27,5.14,4.98,8.22,7.25,2.09,1.55,3.74,3.68,5.82,5.25,3.05,2.31,6.34,7.55,9.3,5.92,3.7-2.02.8-7.54.69-11.54-.07-2.6-.64-5.18-.75-7.78-1.19-27.64-10.72-50.82-35.52-65.92-1.05-.64-2.68-1.8-2.59-2.55.26-2.1,2.49-1.35,3.85-1.6,12.6-2.28,25.06-5.11,37.11-9.47,2.01-.73,5.02-.83,5.44-3.23.37-2.08-2.36-2.89-3.92-3.92-18.03-11.86-35.61-24.48-56.06-32.21-3.03-1.15-5.86-2.85-8.78-4.29,1.86-2.97,5.48-2.56,8.08-4.11,1.12-.67,2.42-1.07,3.49-1.8,1.24-.85,3.7-.91,3.5-2.66-.2-1.77-2.56-1.62-4.07-2.13-18.62-6.31-37.24-12.61-55.84-18.94-12.42-4.23-24.91-8.15-38.09-9.37-11.11-1.02-22.21-2.15-33.3-3.35-3.82-.41-8.31-.27-9.87-4.79-1.61-4.69,2.56-6.98,5.2-9.66,1.81-1.84,4.02-3.34,6.24-4.7,14.55-8.94,30.44-13.76,47.51-13.81,6.5-.02,13.58-2.36,19.54,2.47-16.05-1.23-31.85.19-47.21,5.07-10.06,3.2-19.36,7.99-27.21,15.17-1.27,1.16-3.85,2.4-2.56,4.47.89,1.42,3.06,0,4.52-.48,12.06-4,24.48-4.42,36.97-3.62,24.86,1.59,48.25,8.94,70.88,18.77,15.61,6.78,30.92,14.25,46.46,21.2,7.45,3.33,14.95,6.73,23.23,7.6,1.23.13,3.01.13,3.66-.59,1.02-1.13-.49-2.27-1.16-3.3-18.75-29-43.58-50.15-77.77-59.18-3.38-.89-6.72-1.9-10.08-2.85,7.65.39,15.2,1.18,22.26,3.46,14.96,4.85,24.64-1.96,32.5-13.3,2.78-4,5.01-8.4,7.24-12.75,1.67-3.25,3.43-6.39,6.74-8.17,27.52-14.85,54.72-16.51,79.25,2.6,17.18,13.39,23.14,38.07,14.26,56.34-9.1,18.72-29.86,21.42-43.14,5.38-4.15-5-7.45-10.7-11.08-16.12-3.58-5.34-7.57-10.26-14.57-14.63,5.92,11.23,10.92,21.01,16.2,30.64,2.67,4.88,6.18,9.2,10.48,12.84,14.23,12.04,33.88,9.92,45.09-4.88,2.78-3.66,4.89-7.68,6.64-11.92.35-.86.96-2.29,1.47-2.29,2.01-.02,1.12,1.79,1.21,2.76,3.04,32.02,35.52,53.39,65.88,55.13,26.78,1.53,48.2-9.55,67.24-27.08,25.82-23.77,40.89-53.83,51.87-86.28,5.3-15.65,9.75-31.59,11.31-48.15-1.38,2.97-2.34,6.06-3.23,9.15-9.17,31.72-20.27,62.59-39.78,89.79ZM423.04,281.13c-3.27-6.43-6.68-13.08-12.83-17-4.05-2.59-3.93-5.34-3.29-8.89,4.2-23.19.76-46.06-2.76-68.95-1.78-11.57-3.27-23.19-4.81-34.8-.21-1.56-.43-4.25.28-4.6,2.17-1.08,3.38,1.24,4.53,2.61,9.25,11.07,13.88,24.15,16.62,38.06,3.41,17.31,4.5,34.89,5.37,52.43.95,19.17,3.15,38.18,5.11,57.5-2.74-5.45-5.46-10.91-8.22-16.35ZM415.58,142.65c8.52,4.91,16.75,10.31,24.31,16.58,24.33,20.14,51.94,33.81,82.42,42.09,6.28,1.7,12.62,3.43,18.24,7.33-14.4-2.7-28.81-5.35-43.2-8.13-2.9-.56-7.34-2.4-8.34-.59-1.56,2.83,2.84,4.37,4.77,6.32,25.07,25.33,41.78,55.72,54.64,88.47.21.54.03,1.24.03,1.87-.36.24-.72.48-1.08.71-2.82-5.48-5.67-10.94-8.44-16.44-14.31-28.39-34.84-51.94-58.03-73.4-1.21-1.12-2.37-3.62-4.46-2.25-.66.44-.15,3.09.28,4.6,2.87,10.34,6.01,20.62,8.72,31,.86,3.28,3.43,6.45,1.03,11.36-5.94-18.53-14.66-34.95-20.92-52.35-2.71-7.53-6.45-14.11-12.23-19.71-14.58-14.1-29.32-28-46.7-40.25,4.1-.5,6.49,1.37,8.96,2.79ZM492.83,94.53c3.96-.98,7.96-.84,13.15.13-5.21,1.45-9.19.35-13.15-.13Z"/>
      <path d="M123.27,715.87c-8.31-3.94-11.54-8.96-11.59-19.51-.07-12.89-1.89-26.34-4.99-39.28-5.69-23.76-12.17-47.26-22.06-69.71-5.85-13.28-8.76-27.22-9.28-41.71-.19-5.25,1.49-6.39,6.25-4.19,4.77,2.2,9.39,4.58,13.89,7.3,2.4,1.45,4.15,5.3,7.18,3.87,1.16-.55.71-4.8.71-7.37-.02-14.72,4.57-28.07,11.53-40.91,2.53-4.67,5-5.89,9.77-3.61,4.11,1.98,8.62,3.15,12.72,5.15,6.83,3.32,12.59,8.06,20.89,1.12,4.68-3.91,9.28,2.23,12.68,6.22,1.03,1.2,2.15,3.63,2.91,3.51,2.28-.36,2.12-2.89,2.65-4.71,3.48-12.03,8.9-23.12,16.84-32.85,6.08-7.45,8.2-7.16,11.78,1.54,4.1,10,6.94,20.38,7.03,31.27.04,4.37.69,7.78,6.19,7.78,2.41,0,4.38,1.34,6.01,3.01,13.94,14.25,22.7,30.22,17.77,51.02-5.53,23.37-18.08,42.64-36.05,58.09-25.77,22.16-51.36,44.65-80.93,61.97-1.54.9-4.47,1.64-3.52,3.6.72,1.49,3.59.38,5.49-.12,27.78-7.34,53.99-17.74,76.82-35.83,15.37-12.18,31.7-23.16,47.64-34.61,12.9-9.26,27.25-15.5,42.53-19.75,8.43-2.35,8.35-2.36,7.3,6.7-1.44,12.37-4.04,24.39-10.19,35.42-.57,1.02-1.4,2.86-1.03,3.23,1.08,1.05,2.34,0,3.41-.71,13.32-8.97,28.61-10.7,44.08-11.74,9.5-.64,18.98-1.34,28.2-3.95,1.54-.44,3.67-1.24,4.46.19.47.85-.84,2.98-1.75,4.24-5.74,7.94-11.6,15.79-17.38,23.69-.55.75-1.34,1.81-1.16,2.49.52,1.93,2.05.69,3.13.53,14.95-2.27,29.43-.62,43.45,5.05,1.5.61,3.26.57,4.77,1.17,3.93,1.56,10.92-.37,11.61,2.5,1.15,4.79-5.1,7.57-8.29,11.08-5.7,6.28-11.37,12.64-18.04,17.99-1.15.92-3.3,1.89-2.26,3.76.85,1.53,2.94.75,4.45.67,5.57-.27,11.12-.95,16.68-1.03,9.15-.14,15.72,3.63,18.59,12.78,3.05,9.72,8.95,18.08,13.4,27.13,3.77,7.65,6.86,15.49,8.06,23.98.6,4.27.66,8.49-1.55,12.37-.6,1.06-1.79,1.81-2.7,2.7-.59-1.09-1.47-2.12-1.74-3.28-5.26-22.67-22.38-31.49-42.91-36.44-3.73-.9-4.81-.33-5.11,4-.68,9.73-2.75,10.93-12.53,9.93-10.18-1.04-19.95-3.68-29.5-7.27-1.67-.63-3.56-2.98-5.08-1.19-1.32,1.56.85,3.55,1.62,5.24,2.96,6.52,6.04,13,9.24,19.41,1.92,3.85,2.88,6.3-3.37,6.38-21.59.27-43.41,3.14-63.71-7.42-4.55-2.36-3.97.93-3.69,3.6,1.03,9.64-.94,18.76-4.6,27.64-1.36,3.3-2.89,3.95-5.54,1.3-3.69-3.7-7.44-7.36-11.2-10.99-8.93-8.63-17.96-17.17-26.83-25.87-28.18-27.67-63.57-41.8-100.6-52.83-.91-.27-1.95-.12-2.93-.17l.41.36c-2.6-3.34-6.53-3.44-10.21-4.14l.21.25ZM222.84,681.8c-.3-.56-.61-1.12-.92-1.68-3.77,1.7-7.63,3.21-11.28,5.13-17.78,9.35-36.26,16.57-56.31,19.49-5.17.75-10.23,2.2-15.33,3.38-1.52.35-3.9.35-3.81,2.23.1,2.26,2.51,1.21,3.84,1.24,5.9.14,11.76-.15,17.66-.81,22.03-2.44,44.38-7.71,65.07,5.61.72.47,2.2.9,2.59.55,1.6-1.44-.53-1.98-1.08-2.78-1.07-1.55-3.52-2.68-2.84-4.72.94-2.83,3.89-1.64,5.97-1.7,4.58-.14,9.11.28,13.66,1.3,14.17,3.17,25.72,11.1,36.98,19.59,6.27,4.72,12.35,9.69,18.61,14.42,1.12.85,2.71,2.88,4.07,1.12,1.06-1.37-.95-2.78-1.9-3.93-7.08-8.55-14-17.24-22.68-24.35-1.58-1.29-5.22-1.76-4.16-4.5.88-2.28,4.07-1.2,6.21-1.25,38.21-.8,74.84,7.16,110.56,19.99,3.93,1.41,7.89,2.76,11.83,4.14-2.17-4.22-6.61-5.55-10.38-7.32-35.21-16.56-71.69-28.53-111.16-29.23-1.51-.03-3.74.82-4.39-.76-.81-2,1.59-2.45,2.91-3.16,5.74-3.13,11.54-6.14,17.31-9.22,1.89-1.01,5.56-1.14,4.83-3.64-.52-1.79-4.12-.56-6.31-.38-9.21.76-18.12,3.15-26.66,6.39-19.51,7.4-39.66,11.17-60.44,12.06-1.42.06-3.46,1.48-4.12-.49-.6-1.79,1.64-2.61,2.88-3.51,6.21-4.46,12.51-8.8,18.78-13.18ZM192.63,545.51c-2.14,3.63-4.31,7.24-6.43,10.88-8.84,15.2-17.61,30.44-26.54,45.58-1.42,2.41-2.34,6.86-5.16,6.34-3.27-.59-1.51-4.88-1.78-7.51-1.03-10.13-3.52-19.82-8.18-28.91-.64-1.25-1.09-3.19-3.07-2.7-.31.08-.27,2.42-.05,3.65,2.29,12.85,3.7,25.67,2.3,38.8-2.71,25.43-12.22,48.38-24.79,70.32-.61,1.07-2.09,2.55-1.07,3.34,1.84,1.43,2.55-1.01,3.26-1.97,7.18-9.72,13.14-20.2,18.31-31.08,6.21-13.05,15.28-23.24,28.05-30.37,7.98-4.45,15.49-9.71,23.19-14.66.8-.51,2.08-1.8,1.97-1.95-.88-1.29-2.13-.74-3.28-.26-4.53,1.87-9.02,3.84-13.59,5.6-2.65,1.02-6.25,4.35-7.71,2.55-1.9-2.35,1.76-5.46,3.15-8.09,9.94-18.76,15.94-38.95,21.39-59.56Z"/>
      <path d="M1283.82,874.7c26.99,3.51,54.13,5.24,81.39,4.39,2.18-.07,5.34-1.33,6.37.76,1.52,3.1-2.31,4.13-4.03,5.67-3.64,3.27-7.76,6.01-11.52,9.14-1.52,1.27-5.29,2.07-3.86,4.2,1.32,1.97,4.09-.76,5.99-1.7,9.99-4.94,19.4-10.89,28.67-17.04,2.44-1.62,4.72-3.55,7.91-3.62,17.35-.38,33.46-5.79,49.5-11.73,2.54-.94,6.49-3.8,8.02-1.54,1.7,2.52-2.62,4.49-4.48,6.48-10.12,10.85-20.38,21.56-30.12,32.77,19.91-13.44,37.06-29.47,49.47-50.22,4.68-7.82,9.96-15.3,15.23-22.75,1.61-2.28,3.56-4.93,7.2-4.01,4.85,1.23,2.07,5.02,1.98,7.31-.98,26.19,8.88,50.38,13.81,75.46,3.01,15.32,6.23,30.62,8.73,46.03,4.73,29.18-3.74,56.14-15.4,82.33-3.08,6.93-5.26,14.59-11.62,19.7-3.38-6.03-3.69-13.08-6.5-19.28-1.98-4.38-2.52-12.15-5.99-12.38-3.7-.25-4.02,7.54-6.39,11.53-1.99,3.36-3.33,7.14-5.54,10.33-14.17,20.4-26.91,41.63-38.61,63.5-1.01,1.88-1.7,5.14-4.18,4.63-2.56-.53-1.81-3.83-2.07-5.98-2.14-18.03-.7-35.76,4.62-53.16,2.08-6.79,4.01-13.63,4.25-20.99-12.25,20.16-23.48,41.1-46.85,50.95-11.34,4.78-23.13,6.7-35.9,5.14,4.06-3.42,8.88-3.39,13.14-4.63,28.02-8.12,46.32-31.11,46.46-58.95.14-28.1,9.45-51.03,25.67-72.93,23.04-31.1,40.2-65.5,54.49-101.33,1.2-3.01,2.2-6.1,3.31-9.16.43-1.19,1.16-2.61-.37-3.33-1.47-.68-2.44.74-3.11,1.75-1.44,2.16-2.97,4.35-3.88,6.75-15.45,40.73-45.13,70.5-76.92,98.64-16.96,15.01-35.13,28.34-55.45,38.6-7.45,3.76-7.45,3.61-8.24-4.9-1.57-16.95,5.04-31.17,14.52-44.52.85-1.19,2.9-2.68,1.62-3.93-1.1-1.07-2.74.88-4.1,1.59-17.58,9.15-36.09,13.42-55.99,10.66-4.98-.69-9.55-2.45-13.73-5.04-9.13-5.65-12.68-14.92-9.94-25.18,2.54-9.52.92-13.03-8.72-16.06-15.51-4.88-28.33-13.56-38.36-26.11-10.2-12.76-9.06-15.52,6.42-18.52,16.08-3.12,32.4-4.84,48.43-8.43,7.02-1.57,6.94-3.54,3.88-8.72-1.96-3.31-3.1-7.16-4.18-10.9-3.46-12.07-2.15-14.25,10.1-18.11,16.51-5.21,32.52-3.98,47.48,4.62,5.28,3.04,6.54,1.94,8.34-3.26,4.61-13.26,15.93-21.18,25.81-30.16,1.94-1.77,3.55-1.52,3.7,1.48,1.23,23.88,17.97,32.92,37.78,39.22,16.82,5.35,33.94,7.2,51.49,5.16,1.95-.23,3.9-.76,5.85-.79,6.34-.1,7.49,1.66,5.56,7.55-8.28,25.27-30.7,32.31-51.15,29.89-10.98-1.3-21.59-4.56-33.93-7.58,4.76,5.22,9.8,6,14.13,8.09,1.11.54,2.94.53,2.91,1.96-.03,1.42-1.65,1.82-3,1.89-9.81.48-19.65,1.6-29.36-.9-9.56-2.47-18.62-6.12-27.09-11.24-1.82-1.1-4.44-4.13-5.63-2.4-1.55,2.25,2.08,3.93,3.74,5.57,2.78,2.76,5.89,5.18,8.8,7.81.92.84,1.65,1.9,2.46,2.85-1.16.46-2.28,1.19-3.47,1.33-9.11,1.09-18.22,2.31-27.36,3.02-14.06,1.1-28.14,1.84-42.22,2.73ZM1474.41,929.84c-5.02,30.66-17.01,57.84-26.49,85.82,11.23-19.53,24.07-38.17,31.77-59.32,6.69-18.37,11.04-37.44,11.38-57.11.21-12.35-.28-24.72-.62-37.08-.05-1.91,1.56-4.94-1.23-5.52-1.35-.28-1.97,2.91-2.41,4.75-.85,3.47-1.73,6.94-2.4,10.44-4.64,24.34-11.61,47.96-21.69,70.64-2.45,5.52-5.03,10.98-7.55,16.47.54.28,1.08.56,1.62.85,5.65-9.6,11.3-19.2,17.62-29.94Z"/>
      <path d="M282.03,835.27c-10.75-13.15-21.35-26.5-34.58-37.33-22.56-18.45-46.44-35.09-71.2-50.53-14.6-9.1-29.81-17.31-43.37-28.01l.41.36c-4.01.08-7.22-1.76-10.21-4.14l.21.25c-2.02-.34-5.66-1.12-3.14,2.39,3.38,4.69,8.23,8.32,12.37,12.49,2.57,2.6,6.65,3.72,7.74,7.77-4.28.2-6.77-3.36-10.28-4.74-1.33-.53-2.6-2.87-4-1.3-1.24,1.39.73,2.89,1.51,4.15,12.06,19.4,22.22,39.84,32.96,59.95,9.97,18.68,19.66,37.51,29.43,56.29.57,1.1,1.34,3.32,1.19,3.39-1.98.99-2.52-1.06-3.36-2.04-3.37-3.98-6.56-8.13-9.81-12.21-.81-1.02-1.73-2.39-3.01-1.91-.47.17-.42,2.43-.17,3.65.84,4.14,1.93,8.23,2.81,12.36,4.22,19.64,8.23,39.31,6.18,59.6-2.69-10.68-4.73-21.48-7.29-32.15-4.93-20.6-12.42-40.36-20.94-59.73-.74-1.69-.76-4.59-3.02-4.55-2.69.05-1.38,2.97-1.87,4.55-3.28,10.58-6.91,21.01-12.46,30.67-.45.79-.73,2.59-2.35,1.84-.29-.13-.02-1.79.22-2.68,3.31-11.94,5.41-24.07,7.05-36.36,4.79-35.88-10.86-65.95-26.98-95.92-4.75-8.84-9.65-16.78-11.72-27.53-5.59-29.07-16.59-56.78-31.12-82.81-10.57-18.93-23.26-36.32-41.42-48.96-9.43-6.56-19.53-11.95-30.86-14.63-.34-.08-.66-.15-.97-.2v40.86s.03,0,.04,0c3.11.44,6.04,2.41,8.97,3.87,15.61,7.78,30.14,17.13,42.93,29.03.92.86,1.88,3.15,3.6,1.67,1.06-.91-.35-2.31-.85-3.46-1.94-4.43-5.63-8-6.49-12.97-.73-.54-1.65-.95-2.15-1.66-.85-1.2-1.45-2.58-2.15-3.88,2.01-.27,2.53,1.57,3.57,2.59.63.61.85,1.64,1.26,2.49,1.03.76,2.31,1.33,3.06,2.3,17.15,22.11,30.3,46.3,38.14,73.18,2.3,7.88,3.17,15.96,2.28,24.17-.1.92-.38,2.41-.92,2.58-1.59.51-2.2-.99-2.62-2.14-2.93-7.94-5.61-15.97-8.69-23.85-7.52-19.22-20.65-32.92-40.39-40.12-5.72-2.09-11.24-4.72-16.85-7.1,9.45-2.3,17.52,1.46,25.85,3.91,1.48.43,3.27,2.14,4.43.88,1.3-1.43-.73-2.78-1.62-3.94-14-18.33-31.58-32.48-51.4-44.01v69.65c2.81,2.46,6.3,4.49,10.52,6.12,5.49,2.12,10.72,5.03,16.32,6.75,29.03,8.89,47,29.57,60.79,55.06,2.38,4.39,1.64,7.16-1.57,10.23-9.29,8.89-19.5,16.37-31.5,21.33-18.9,7.82-37.12,7.94-54.56-2.74v10.38c17.91,10.72,36.69,11.28,55.97,2.56,13.92-6.3,25.5-15.87,35.97-26.84,1.32-1.38,2.51-3.82,4.51-3.34,2.4.59,2.62,3.4,3,5.56,1.13,6.43,1.91,12.88,1.2,19.44-4.12,38.46-12.45,75.3-40.96,104.29-2.23,2.27-2.18,3.57.66,5.01,20.49,10.34,41.08,18.45,62.86,3.1.97-.68,2.05-1.88,3.25-1,.45.33.19,1.85-.02,2.77-3.51,15.73.58,31.08,2.2,46.56.61,5.77,2.74,4.44,5.98,2.03,8.14-6.03,16.85-11.37,23.27-19.43.76-.96,1.57-2.3,3.09-1.84,1.7.51,1.09,2.15,1.12,3.3.15,5.56.35,11.17,2.4,16.36,4.4,11.14.55,19.53-8.14,26.62-2.53,2.07-5.01,4.22-7.32,6.53-1.46,1.46-4.95,2.26-3.33,5.01.86,1.45,3.68.51,5.61.14,28.01-5.4,44.28-23.76,53.87-48.94,1.54-4.04,2.4-5.79,7-5.38,6.19.55,12.42.05,18.61-1.13,4.08-.78,4.74-2.22,2.96-5.82-3.47-7-6.77-14.1-9.78-21.3-.57-1.36-6.76-8.45,2.7-3.88,1.61.78,1.66-1.01,1.82-2.33,2.49-20.22,1.04-39.41-11.6-56.81-7.05-9.7-15.31-18.16-23.49-27.01,2.24.54,4.13,1.56,5.95,2.71,15.22,9.61,30.45,19.21,44.92,29.95,10.5,7.8,22.82,11.17,35.33,14,1.2.27,3.11.56,3.68-.07,1.42-1.56-.34-2.87-1.27-4.01Z"/>
      <path d="M184.47,1563.44c-5.69-5.43-9.85-12.26-13.39-19.22-11.17-22-26.22-40.45-47.62-53.41-1.61-.97-4.13-1.89-3.81-3.89.32-2.02,3.02-2.07,4.84-2.75,11.71-4.33,22.9-9.71,33.32-16.6,2.56-1.69,5.43-3.01.16-5.57-15.61-7.57-30.92-15.75-47.65-20.8-36.79-11.09-73.59-22.17-110.33-33.44v25.25c59.1,33.35,96.47,84.85,120.83,146.73,5.53,14.03,7.68,29.13,5.76,44.52-9.52-41.03-31.48-75.4-57.47-107.62-2.35-2.91-4.69-8.53-7.91-7.37-3.1,1.12-1.02,6.92-1.01,10.61.04,13.29-.67,26.43-5.05,41.23-.72-3.29-1.11-4.49-1.23-5.72-1.74-16.85-1-33.87-3.43-50.69-1.07-7.45-1.7-15.32-6.58-21.2-12.84-15.46-27.92-28.62-43.91-40.75v48.57c18.41,35.94,28.09,75,33.08,115.09.95,7.6.6,7.63,7.82,3.9,8.29-4.29,15.18-10.27,20.81-17.6,3.17-4.12,3.62-2.82,4.82,1.26,2.77,9.37,6.58,18.38,10.91,27.17,8.67,17.61,9.75,17.73,21.1,1.37,1.75-2.53,2.46-4.34,5.12-.36,11.45,17.1,17.46,34.94,9.72,55.31-.5,1.32-2.31,3.16-.43,4.22.83.47,2.96-.89,4.26-1.77,11.34-7.66,18.26-18.51,22.24-31.3,2.92-9.38,6.79-18.16,12.41-26.37,6.4-9.34,5.83-15.18-1.59-23.82-5.1-5.94-10.89-11.28-16.3-16.96-1.09-1.14-2.89-3.2-2.55-3.81,1.26-2.2,3.31-.28,5.04-.1,15.98,1.7,31.42,0,46.08-6.93,3.48-1.65,6.51-2.82,1.93-7.19Z"/>
      <path d="M1538.14,1034.99c.14-6.24-1.34-13.9-3.89-21.35-11.25-32.91-15.54-67.17-19.85-101.41-2.24-17.78-4.58-35.5-10.34-52.58-.4-1.18-1.31-2.66-.92-3.55.82-1.88,2.19-.14,3.19.22,26.64,9.46,54.25,8.05,81.78,7.15,11.48-.37,22.84-2.06,34.16-4.18,17.57-3.29,24.1,3.56,20.64,21.02-.32,1.6-.64,3.19-.98,4.79-1.08,4.95-7.4,10-4.99,13.52,2.26,3.3,9.54,3.03,14.44,4.78,13.9,4.97,24.62,14.67,35.62,23.97,2.99,2.53,2.76,4.65.7,7.46-4.92,6.72-11.03,12.26-18.48,15.78-5.29,2.5-3.77,3.73-.78,6.99,17.59,19.15,19.86,35.61,8.2,55.88-2.86,4.97-6.34,9.43-12.48,10.07-5.52.57-6.71,3.34-6.71,8.38,0,10.12-1.16,20.18-5.04,29.69-1.35,3.31-2.79,6.63-4.69,9.64-2.97,4.7-6.63,11.06-11.96,10.35-4.06-.54-3.56-8.21-4.77-12.72-3.55-13.24-5.35-26.81-6.29-40.48-.09-1.38.89-3.58-1.39-3.9-.78-.11-1.91,1.46-2.72,2.39-5.96,6.87-14.86,9.43-21.88,14.75-3.01,2.28-3.93-.28-5.11-2.15-4.71-7.44-9.89-14.65-13.92-22.44-3.13-6.04-4.15-3.42-6.17.37-6.66,12.45-16.86,21.5-28.82,28.73-1.87,1.13-3.91,3.52-6.06,1.97-1-.72-.43-3.64-.49-5.56-.06-1.95-.01-3.91-.01-7.54ZM1605.55,921.02c4.46.3,8.71.62,12.96.83.95.05,2.28,1.27,2.76-.39.1-.35-1.33-1.46-2.2-1.7-5.99-1.66-11.95-3.52-18.04-4.68-18.36-3.52-36.78-6.57-52.58-17.73-10.17-7.18-19.98-14.78-29.46-22.81-.73-.62-2.18-1.63-2.34-1.48-1.54,1.5.3,2.16,1.05,2.92,9.2,9.29,18.03,19.18,28.82,26.56,14.92,10.21,22.7,24.83,28.8,40.86,3.13,8.22,6.01,16.52,9.12,24.75.32.85.27,2.78,2.08,2.08.39-.15.46-1.83.23-2.69-2.13-8.19-4.36-16.35-6.53-24.53-.73-2.76-1.33-5.55-2-8.32,3.91-.46,5.41,2.97,7.61,4.96,17.27,15.63,32.59,33.03,46.64,51.55.74.97,1.07,3.19,3.15,2.16.17-.08-.49-2.31-1.09-3.36-10.85-18.97-21.43-38.12-35.93-54.72-3.8-4.35-7.88-8.45-11.84-12.66,6.12-3.24,12.69-.47,18.79-1.57Z"/>
      <path d="M415.1,1086.61c-27.95,5.75-54.87,3.52-80.1-10.07-38.04-20.5-58.51-52.93-64.07-95.06-5.11-38.77,4.35-74.31,25.09-107.09,27.26-43.09,88.25-77.54,152.69-28.79,32.62,24.67,53.68,56.72,57.79,98.25,3.49,35.36-16.33,65.16-49.14,73.88-33.66,8.95-77.62-6.77-97.23-34.76-16.49-23.52-11.29-51.63,12.47-67.45,11.86-7.9,22.85-7.07,29.67,2.23,7.42,10.11,5.44,22.71-4.91,31.28-6.58,5.44-6.41,6.72,1.47,11.01,12.11,6.58,31.32,3.44,42.86-7.65,16.9-16.24,19.57-36.21,13.52-57.71-13.09-46.47-63.45-67.39-105.95-44.02-31.25,17.19-48.59,44.93-57.44,78.23-10.87,40.91-6.82,79.52,21.13,113.39,19.9,24.1,46.28,36.62,76.93,41.13,8.43,1.24,16.88,2.17,25.23,3.2Z"/>
      <path d="M380.18,1546.76c-37.28-.58-71.43-10.18-98.64-36.82-29.8-29.18-41.52-64.43-27.49-104.36,14.38-40.94,44.02-66.56,88.06-72.94,32.45-4.7,61.01,16.5,65.73,47.82,2.63,17.44-4.6,31.12-18.63,41.39-4.04,2.96-8.79,4.21-13.9,4.14-9.65-.12-18.26-6.97-19.71-15.84-1.52-9.3,4.1-17.06,14.53-20.08,8.81-2.55,9.23-3.53,5.87-11.81-5.02-12.37-15.73-15.79-27.55-17.19-46.65-5.53-105.29,45.18-76.27,109.91,15.07,33.61,43.47,50.89,78.9,55.97,76.05,10.91,148.55-40.89,171.38-102.9,18.11-49.17.29-102.14-43.66-134.09-24.28-17.66-51.31-27.09-81.51-27.37-1.41-.01-3.87.88-4.08-.69-.2-1.57,2.24-1.86,3.84-2.18,29.65-6.06,57.74-.79,83.5,13.94,38.21,21.86,63.27,54.21,72.7,97.43,5.27,24.15,1.22,47.55-10.05,69.23-30.88,59.44-78.72,96.29-146.34,105.96-1.62.23-3.26.42-4.9.45-3.94.06-7.88.02-11.81.02Z"/>
      <path d="M873.04,855.58c3.91-31.98,8.05-63.61,26.75-91.02,13.84-20.28,32.15-35.01,54.58-44.85,6.59-2.89,13.35-5.41,20.03-8.1,17.75-7.14,32.83-17.63,43.23-33.99.83-1.31,1.49-3.64,3.25-3.01,1.51.55.83,2.85.63,4.36-1.64,12.36-6.8,22.98-15.9,31.7-2.07,1.99-5.09,3.06-6.33,6.46,25.77-5.07,51.39-7.13,77.43-3.76,14.82,1.92,29.46-.33,43.18-6.88,1.36-.65,3.22-2.55,4.26-1.2,1.36,1.76-.8,3.47-1.95,4.84-6.9,8.26-15.61,13.93-26.02,16.71-4.72,1.26-9.7,1.55-14.54,2.43-4.59.84-9.47-1.23-13.85,1.44,3.51,3.14,8.18,3.82,12.31,5.59,56.26,24.21,90.47,79.29,85.52,137.88-4.07,48.16-40.56,94.39-84.84,106.17-29.16,7.76-56.28,3.18-78.44-18.47-18.21-17.78-22.9-39.85-16.12-63.95,6.49-23.11,21.57-38.29,45.34-44.24,10.62-2.66,20.25-.62,28.12,7.26,6.07,6.08,7.56,15.33,3.98,22.56-3.9,7.86-10.55,10.7-18.76,7.54-3.64-1.4-7.01-3.54-10.4-5.51-8.69-5.03-10.63-4.84-17.89,2.09-15.37,14.68-16.8,41.84-3.17,60.18,17.28,23.24,51.09,29.57,78.98,14.51,26.46-14.29,41.96-36.83,48.16-65.7,9.79-45.62-5.93-118.98-75.93-145.02-31.44-11.69-63.21-12.56-95.61-3.64-44.99,12.39-75.34,39.36-88.26,84.54-1.79,6.25-3.97,12.39-6.01,18.56-.5,1.52-1.13,3-1.7,4.49Z"/>
      <path d="M1878.64,28.68c-14.18-6.95-27.83-14.68-38.42-26.7-1.01-1.14-2.14-1.71-3.33-1.98h-89.83c-1.56.1-3.12.23-4.69.32.02.31.03.62.05.93,12.44,3.66,24.87,7.33,37.31,10.99-13.79.64-27.19-1.61-40.59-3.75-17.46-2.79-34.8-7.27-52.36-8.25-1.77-.1-3.54-.16-5.32-.24h-76.01c-.28.2-.51.5-.64.93-.62,2.09,2.29,2.72,3.77,3.74,27.43,18.89,44.43,44.58,51.63,76.91,4.4,19.77,8.26,39.54,5.93,59.94-.13,1.18-.71,2.81.63,3.4,1.45.64,2.29-.92,3.06-1.9,6.06-7.74,10.99-16.17,15.8-24.71,13.03-23.09,19.52-46.91,9.06-72.86-.43-1.07-1.3-2.35.16-3.1.38-.19,1.67.91,2.25,1.65,16.69,21.13,40.9,28.37,65.46,34.99,1.55.42,3.27,1.37,4.66.2,1.71-1.44,0-2.92-.56-4.25-4.94-11.8-6.96-24.37-9.88-36.7-.32-1.33-1.68-3.13.14-4.17.47-.26,2.05,1.26,3.02,2.06,18.58,15.3,38.72,17.7,60.51,7.43,9.61-4.53,19.77-6.64,30.48-6.77,9.19-.11,18.31-1.45,27.29-3.44,1.39-.31,3.74.48,3.88-1.73.11-1.87-2.07-2.26-3.47-2.95Z"/>
      <path d="M1465.12,702.95c-10.77,2.17-21.51,4.87-32.57,6.03-16.38,1.73-32.12-.05-46.51-8.66-2.78-1.66-5.27-3.84-7.78-5.91-.68-.56-1.45-1.74-1.28-2.43.48-1.99,1.97-.72,3.03-.53,31.42,5.67,62.05.11,92.59-6.43,23.74-5.09,46.38-14.17,70.15-19.17,21.91-4.61,44.12-6.46,66.43-7.41,2.73-.12,5.73-.41,8.24,1.39-1.66,2.2-4.42,2.41-6.67,3.52-7.63,3.77-15.42,7.21-23.03,11.01-6.23,3.11-11.66,7.32-15.59,13.15-5.52,8.19-4.92,16.82,1.59,24.25,9.49,10.83,21.56,9.74,29.09-2.58,1.02-1.68.69-5.26,4.1-4.06,3.27,1.15,5.47,3.47,4.62,7.53-1.69,8.03-6.65,13.32-14.02,16.44-11.68,4.93-25.88,1.48-34.06-8.08-8.2-9.57-9.12-23.54-2.44-34.67,5.27-8.78,13.64-13.8,22.25-18.85-17.33,2.94-34.12,7.63-50.48,13.76-24.26,9.08-47.87,19.44-70.09,32.95-40.14,24.39-83.68,38.02-131.02,34.39-51.23-3.93-91.85-25.92-113.8-74.39-10.52-23.24-13.35-47.74-4.94-72.39,8.88-26.03,27.77-40.45,55.14-43.47,25.41-2.8,45.66,6.74,60.43,27.22,15.82,21.94,12.13,52.27-7.92,68.97-8.73,7.27-18.59,9.65-29.36,5.6-9.32-3.51-13.18-11.94-10.01-20.39,3.49-9.31,11.53-12.89,21.36-8.55,3.93,1.74,5.07.62,6.55-2.44,5.79-11.98.34-27.8-12.7-36.57-20.4-13.72-50.81-7.05-63.69,14.51-14.1,23.6-12.73,48.04-1.42,72.09,13.52,28.74,37.35,45.78,67.36,54.33,60.28,17.17,115.28,3.9,166.47-30.16Z"/>
      <path d="M629.54,660.01l.05.27c-2.19-1.48-1.24-3.29-.67-5.18,2.73-9.03,5.02-18.21,8.14-27.11,9.32-26.6,11.5-54.41,14.36-82.09.83-8.08.27-16.21-1.77-24.24-6.62-26.14-25.78-41.77-52.83-42.72-3.93-.14-7.87.06-11.81-.05-2.53-.07-6.03,1.56-7.35-.74-1.53-2.65.86-5.55,2.65-7.85,7.24-9.34,17.17-12.69,28.63-11.93,9.63.64,18.61,3.61,26.84,8.7,1.02.63,3.21,1.36,3.3,1.2,1.09-1.98-.94-2.66-1.97-3.56-13.07-11.55-29.3-13.99-45.79-14.77-15.73-.74-31.49-.19-47.02,3.05-1.52.32-3.97.63-4.59-.15-1.05-1.33.52-2.96,1.58-4.17,16.39-18.7,36.36-30.97,61.83-32.02,27.63-1.14,53.58,20.66,61.83,50.89,6.84,25.08,2.89,49.71-2.66,74.34-1.68,7.42-4.78,14.58-4.36,22.5,9.22-19.72,17.51-39.75,24.13-60.45,7.49-23.43,12.37-47.25,10.56-72.02-1.33-18.18-5.81-35.31-17.44-49.95-17.51-22.06-40.01-28.9-67.11-20.49-1.14.35-2.47,1.64-3.52.2-.84-1.15-.09-2.42.63-3.53,7.07-10.91,17.4-16.52,30.15-17.79,45.36-4.54,84.02,34,80.01,79.01-3.33,37.37-14.74,72.5-27.95,107.31-14.22,37.48-31.82,73.44-48.97,109.62-3.63,7.65-6.61,15.57-8.88,23.74Z"/>
      <path d="M95.23,1033.24c-7.96-.81-12.34-7-18.39-10.65-13.12-7.91-26.44-14.85-42.45-8.37-.81.33-2.49.45-2.66.11-.77-1.5.77-2.16,1.7-2.6,17.23-8.15,29.23-21.68,39.26-37.29,1.04-1.62,2.62-2.89,3.99-4.3,1.99-2.04,4.43-2.6,7.2-2.12,3.98.7,9.79,3.78,11.42.09,1.41-3.18-5.25-5.6-7.88-8.78-.41-.5-.96-.88-1.47-1.3-21.34-17.68-43.99-14.37-59.56,8.35-4.18,6.11-6.23,13.42-11.39,18.9l.32-.35c.12,3.75-1.95,6.86-3.23,10.15-6.82,17.5-9.73,35.75-12.1,54.1v25.61c.79-.47,1.4-1.44,2.02-2.11,5.6-5.97,11.76-11.34,18.17-16.42.95-.75,2.85-1.92,3.15-1.64,1.85,1.67-.32,2.83-1.11,3.88-7.24,9.66-14.66,19.18-21.93,28.81-.11.14-.2.29-.31.43v32.1c3.91-2.89,7.84-5.76,11.81-8.58,1.2-.85,2.74-3,4.02-1.61,1.39,1.51-1.06,2.51-2.07,3.41-4.55,4.06-9.17,8.05-13.77,12.06v24.42c16.71-3.83,34.02-5.46,49.69-13.2,4.43-2.19,8.76-4.48,11.83-8.49,1.51-1.97,1.65-3.44-1.45-3.81-1.94-.24-3.86-.69-5.77-1.16-4.98-1.2-10.03-2.25-14.08-5.72,3.72-3.69,8.81-3.73,13.45-4.81,11.55-2.7,21.31-8.13,28.51-17.65,5.65-7.47,5.56-11.03-.14-18.27-4.3-5.48-9.8-9.52-15.64-13.23-1.84-1.16-5.33-1.47-5.01-3.98.25-1.95,3.48-2.38,5.57-3.06,11.23-3.7,19.81-11.25,28.18-19.09,1.12-1.05,3.8-3.45.07-3.83Z"/>
      <path d="M162.97,1183.48c6.6,2.71,11.34,3.5,16.21,3.83,1.18.08,2.85-.38,3.26,1.21.42,1.65-1.11,2.06-2.33,2.51-22.96,8.46-42.74,22.52-63.32,35.22-12.29,7.58-25.38,7.62-38.63,1.86-4.73-2.06-7.06-3.64-2.13-8.42,11.38-11.02,23.31-21.22,38.72-26.02,5.26-1.64,3.83-3.07,1.87-6.27-10.51-17.25-9.17-19.94,10.34-23.95,11.16-2.3,22.17-2.13,33.19.3,3.32.73,5.66,2,3.69-3.42-1.75-4.82-2.03-10.17-3.01-15.27-.93-4.87,1.23-6.43,5.94-6.01,7.19.64,14.49.47,21.59,1.59,5.49.87,8.27.9,8.35-5.99.08-6.47,2.74-12.65,6.44-18.2,2.4-3.59,4.3-4.51,6.61.15,6.4,12.89,16.94,22.25,27.67,31.41.92.78,2.68,1.99,3.1,1.68,1.17-.84.34-2.36.08-3.6-1.48-6.93.25-13.53,1.95-20.18,1.26-4.92,3.67-5.06,7.82-2.96,4.76,2.42,8.11,7.48,14.14,7.51-.19-5.2-.62-10.4-.51-15.59.18-8.78.16-17.66,4.6-25.7.51-.92.2-3.03,2.23-2.32.74.26,1.42,1.31,1.72,2.15,2.67,7.62,8.23,13.24,13.44,19.08,7.53,8.47,12.76,18.07,15.13,29.17.25,1.16,1.29,3,2.01,3.02,1.47.05,1.03-1.83,1.47-2.89.88-2.1,1.57-4.32,2.78-6.21,1.74-2.72,3.85-6.18,7.37-5.45,2.71.56,1.81,4.47,2.33,6.83,2.62,12,8.22,22.56,14.97,32.68,1.15,1.73,3.99,3.74,2.44,5.65-1.36,1.68-4.26.06-6.49-.46-18.1-4.23-37.01-5.97-52.89-17.04-.69-.48-2.27-.93-2.5-.64-1.1,1.35.6,2.02,1.12,2.98,1.86,3.37,5.72,5.19,7.12,8.94-4.06.96-8.1,2.03-12.18,2.88-20.87,4.31-41.65,3.87-62.33-1.31-1.02-.26-2.47-1.17-2.98.52-.12.4,1.2,1.43,2.02,1.86,6.71,3.58,13.86,5.8,21.45,6.59,1.07.11,2.63-.43,2.88,1.22.04.27-1.55.91-2.45,1.18-7.25,2.13-14.66,3.37-22.22,3.73-13.31.64-26.62,1.35-42.09,2.14Z"/>
      <path d="M150.35,1239.65c-7.26,10.06-11.87,19.41-17.17,28.35-3.66,6.16-7.67,12.12-11.66,18.08-1.39,2.08-2.58,5.39-5.43,4.86-2.05-.38-2.34-3.62-3.12-5.76-11.6-31.83,2.48-62.37,33.95-73.6,1.52-.54,3.29-1.89,4.49-.54,1.29,1.45-.71,2.76-1.47,3.98-3,4.83-6.29,9.49-7.64,15.24,16.75-22,39.53-33.74,65.93-39.63,19.84-4.43,38.48-12.71,58.08-17.94,4.79-1.28,11.5-3.77,13.82-.55,1.93,2.67-5.01,6.34-8.06,9.44-2.95,3-6.8,5.12-10.25,7.62.85.95,1.69,1.89,2.54,2.84,6.09-4.9,12.37-9.49,18.98-13.6,26.71-16.62,71.85-3.37,89.18,29.7.57,1.09,1.58,2.71.11,3.44-1.62.81-2.79-1.03-4.05-1.88-26.4-17.63-54.05-17.57-82.32-5.32-11.68,5.06-20.49,13.79-28.22,23.74-5.31,6.83-5.71,6.71-11.71.21-3.07-3.33-6.45-6.57-7.14-11.41-.85-6.02-3.11-2.37-4.5-.48-6.57,8.93-13.74,17.43-19.12,27.2-3.76,6.83-4.86,6.96-10.07.9-5.69-6.6-8.79-14.39-9.78-23.02-.17-1.53-.34-3.93-1.24-4.35-2.3-1.06-3.21,1.6-4.42,2.89-10.65,11.39-18.47,24.4-22.63,39.48-1.99,7.21-2.2,7.15-8.09,2.33-6.64-5.44-8.28-12.88-8.99-22.22Z"/>
      <path d="M116.75,1848.09c-5.18-14.26-2.91-26.62.9-38.69,2.63-8.34,6.49-16.3,9.8-24.42.69-1.69,2.7-3.44.65-5.09-.48-.38-2.75,1.25-4.09,2.13-20.51,13.4-42.66,15.9-65.89,9.18-29.55-8.55-51.83-34.73-53.8-63.23-1.13-16.45,3.91-30.93,16.82-41.9,16.48-14,40.71-10.06,51.99,8.19,4.63,7.5,3.86,16.83-1.78,21.47-6,4.94-13.67,3.67-20.97-3.46-8.29-8.09-8.03-7.86-16.1.94-8.68,9.46-9.41,19.28-3.77,30.48,11,21.87,36.36,32.31,62.07,25.24,13.06-3.59,23.86-10.88,32.81-20.62,21.19-23.06,30.88-50.15,27.97-81.5-.32-3.47-2.19-7.21.41-10.64,2.81,2.54,3.23,6.25,4.45,9.5,14.98,39.68,12.52,77.66-10.84,113.89-8.28,12.84-16.56,25.77-22.51,39.98-3.64,8.7-5.64,17.85-8.13,28.56Z"/>
      <path d="M1912.19,1050.92c-38.94.02-70.95-25.06-74.85-58.63-3.89-33.55,16.96-70.64,47.83-85.03,10.09-4.7,20.58-6.44,31.56-3.85,2.21.52,4.4,1.28,6.49,2.18,3.31,1.42,6.48,3.11,8.6,6.2-3.44,1.35-5.75-1.64-8.72-2.25-15.56-3.19-29.97-1.05-42.98,8.4-30.72,22.29-36.88,66.28-13.33,95.28,19.47,23.97,61.37,25.1,82.17,2.21,12.87-14.16,12.62-35.94-.56-48.64-6.97-6.71-12.39-6.72-18.69.29-3.26,3.64-6.62,6.49-11.85,4.41-5.11-2.03-9.17-5.09-9.86-11.07-.7-6.01.32-11.52,3.84-16.68,12.63-18.51,37.57-22.06,56.25-7.85,30.74,23.37,30.38,73.68-.83,97.11-16.24,12.19-34.83,17.7-55.09,17.91Z"/>
      <path d="M1747.09,415.63c-30.28.5-52.65-11.92-70.66-33.76,2.47,13.46,2.42,26.28-1.02,39-7.19,26.6-29.27,42.04-55.67,38.95-18.65-2.18-34.73-18.84-36.04-37.31-.09-1.3-.35-2.74.97-3.41,1.34-.69,2.64.2,3.44,1.19,2.04,2.54,3.92,5.21,5.82,7.86,12.18,17.06,27.18,21.98,45.1,14.78,17.09-6.86,26.55-23.7,24.02-42.66-1.47-11.03-4.8-21.57-8.33-32.07-9.26-27.58-16.58-55.5-16.3-84.92.36-39.01,13.92-75.49,40.57-105.5-27.37,41.68-34.51,86.9-23.22,134.65,11.68,49.42,41.95,83.56,91.33,103.2Z"/>
      <path d="M340.18,427.6c-12.91-14.04-12.05-29.66,1.81-41.86,18.96-16.68,46.08-12.83,59.3,8.72,9.65,15.74,10.32,32.56,4.71,49.82-.49,1.53-1.52,3.11-.16,4.4.31.29,2.29-.92,3.33-1.68,37.68-27.42,102.23-2.28,109.79,60.33,2.33,19.32.17,38.25-9.05,55.96,1.55-9.15,3.44-18.26,4.59-27.47,4.7-37.43-16.96-73.06-51.56-85.18-27.27-9.55-55.62,3.35-62.73,28.79-3.19,11.42-2.31,22.56,4.33,32.84,3.39,5.25,8.02,8.74,14.36,9.06,5.27.27,10.07-.77,9.75-7.79-.12-2.7.08-5.46,3.45-6.08,3.3-.61,5.6,1.3,7.47,3.73,5.47,7.1,2.39,17.28-6.68,22.15-12.5,6.71-30.15,2.27-39.43-10.45-11.35-15.57-12.38-32.49-5.13-50.01,2.86-6.9,6.86-13.37,9.37-20.38,7.26-20.29,5.3-39.91-7.06-57.72-11.43-16.47-34.26-17.48-47.74-2.67-10.09,11.09-7.82,23.16-2.72,35.48Z"/>
      <path d="M1036.37,1295.21c-.71-15.43-2.64-36.12-10.19-55.88-.56-1.46-2.65-3.93.17-4.78,2.09-.63,2.9,2.15,3.79,3.78,6.35,11.68,8.5,24.48,10.23,37.42,4.79,35.63,4.06,70.81-9.03,104.87-7.22,18.77-17.24,35.8-33.41,48.58-4.64,3.67-9.6,6.83-15.09,9.06-13.55,5.49-26.33,4.39-37.79-5.09-11.56-9.56-14.57-22.2-11.56-36.17,2.01-9.31,6.6-17.71,13.86-24.27,6.05-5.46,14.04-6.26,19.85-2.26,4.12,2.84,6.23,6.64,5.3,11.71-.92,5.04-3.78,8.59-9.11,8.61-8.16.03-9.4,6.52-10.84,11.75-1.43,5.2,4.15,6.81,7.64,8.77,16.02,8.98,32.74,6.66,45.79-6.54,15.52-15.71,22.39-35.71,26.94-56.56,3.4-15.62,4.63-31.55,3.45-52.99Z"/>
      <path d="M947.41,1212.67c-6.77-5.1-13.02-10.7-17.8-17.77-3.13-4.63-5.67-9.51-6.52-15.1-1.91-12.59,5.8-22.23,18.6-23.69,3.96-.45,5.91,1.56,8.06,4.25,5.79,7.25,5.47,15.73,5.76,24.65,4.76-15.23,16.34-22.17,30.66-25.88,9.8-2.54,11.12-1.54,11.91,8.84,1.1,14.58-2.23,27.74-12.26,38.84-3.53,3.58-6.74,7.56-11.55,9.64-6.14-.44-12.28-.88-18.42-1.33-2.81-.81-5.63-1.63-8.44-2.44Z"/>
      <path d="M1530.4,137.09c-10.91-5.57-20.57-12.53-26.73-23.46-2.74-4.86-4.97-9.84-5.28-15.52-.57-10.47,10.03-21.29,20.45-20.15,6.94.76,9.38,6.71,10.93,12.35,1.43,5.21,1.7,10.72,2.8,18.26,3.63-18.73,16.29-25.44,30.71-30.43,5.73-1.98,8.78,0,9.9,5.51,2.54,12.59.76,24.52-5.76,35.7-1.61,2.76-4.36,4.97-4.39,8.53-2.29,3.35-5.73,5.15-9.26,6.84-7.73,2.28-15.76,1.26-23.62,2.1l.27.26Z"/>
      <path d="M1858.93,1317.86c-.15-13.18-4.29-26.48-10.03-39.38-.5-1.12-1.8-2.91-.71-3.43,1.79-.86,2.23,1.43,3.01,2.57,29.95,44.21,7.23,102.73-46.01,118.56-23.69,7.05-46.16,4.54-66.69-9.39-14.23-9.66-22.27-22.85-19.66-40.73,1.51-10.36,7.38-17.98,16.28-23.2,4.95-2.9,10.46-3.96,16.05-1.65,5.2,2.15,7.77,6.35,6.53,11.7-1.15,4.98-3.63,8.82-10.4,7.24-6.06-1.42-9.09,2.93-10.22,8.07-1.28,5.86-.44,11.61,2.75,16.93,8.13,13.56,20.32,20.89,35.82,22.97,36.93,4.95,74.54-21.47,82.21-57.53.83-3.88.98-7.73,1.07-12.73Z"/>
      <path d="M1464.17,444.46c31.99,7.19,55.88,24.76,67.73,55.72,11.52,30.11,7.05,58.48-14.52,83.01-25.45,28.94-73.19,26.15-92.68-4.86-5.56-8.85-8.01-18.43-7.18-28.85,1.09-13.67,12.52-25.36,25.92-26.43,11.32-.91,26.13,10.69,28.89,22.61.38,1.63.8,3.87-.56,4.55-2.52,1.26-2.92-1.71-4.08-3.02-2.6-2.92-4.85-6.19-7.68-8.85-6.51-6.11-14.07-8.28-22.56-4.33-8.21,3.82-12.18,10.41-12.4,19.42-.62,24.85,23.97,45.94,49.43,42.31,28.76-4.1,51.58-29.09,53.56-59.01,2.28-34.59-14.01-59.88-41.18-79.46-7.09-5.1-15.1-8.69-22.68-12.81Z"/>
      <path d="M1774.5,546.96c.24,6.36-1.32,13.23-5.3,19.51-3.56,5.63-8.7,7.71-15.15,6.7-7.22-1.13-10.42-6.76-7.91-13.65,6.37-17.5,3.68-25.3-10.79-31.24-15.1-6.19-30.71-.61-37.54,13.42-.14.29-.23.62-.4.89-1.2,1.98-1.02,6.03-3.45,5.6-1.8-.32-2.02-4.42-2.33-7.02-1.51-12.42,2.93-22.59,12.73-30.05,14.13-10.75,29.85-13.25,46.31-6.01,14.54,6.4,23.94,23.16,23.83,41.84Z"/>
      <path d="M1809.13,1696.73c51.37-2.09,86.36,23.68,112.16,64.94,1.05,1.67,3.69,3.79,1.39,5.85-1.6,1.42-3.66-.55-5.25-1.53-15.05-9.27-30.16-18.44-45.03-27.98-17.64-11.32-34.97-23.3-55.89-27.96-17.7-3.94-35.78-4.35-53.86-4.31-1.59,0-3.19-.41-4.79-.63.73-2.57,3.09-1.52,4.69-1.96,15.25-4.22,30.85-6.12,46.57-6.42Z"/>
      <path d="M505.83,0h-31.91c-1.56.02-3.11.03-4.67,0h-9.73c-3.35.89-4.87,3.58-5.64,8.15-1.5,8.97-4.46,17.62-7.66,26.17-5.84,15.62-14.14,29.98-22.39,44.39-1.07,1.87-3.46,4.46-1.99,5.95,2.08,2.1,3.79-1.14,5.47-2.28,30.62-20.97,54.49-48.65,77.56-77.11.96-1.18,2.55-2.4,1.84-4.19-.22-.55-.52-.88-.89-1.07Z"/>
      <path d="M750.8,1051.5c.78-2.96,3.33-3.09,5.37-4,20.59-9.17,41.39-17.92,60.51-30.05,10.03-6.36,21.08-8.74,32.92-6.5,18.3,3.47,28.76,21.22,22.1,37.42-4,9.74-16.93,13.97-25.5,8.29-.7-.47-1.67-1.47-1.55-2.01.16-.71,1.22-1.32,2.01-1.76.53-.3,1.27-.26,1.92-.31,5.02-.41,9.48-1.99,9.13-7.9-.33-5.62-4.81-8.45-9.72-9.73-6.93-1.79-13.66.32-20.2,2.46-25,8.19-50.79,12.02-77,14.09Z"/>
      <path d="M857.71,909.73c2.25-12.44,4.84-23.06,5-34.06.61-44.62-34.29-76.67-78.8-72.03-10.28,1.07-19.91,4.3-28.4,10.15-8.45,5.83-14.3,13.51-13.86,24.39.46,11.42,7.49,15.46,17.5,9.81,2.59-1.46,4.07-1.38,5.93.45,2.13,2.11,2.3,4.34,1.03,7.09-3.39,7.36-13.72,10.08-22.23,5.67-11.04-5.72-15.69-19.55-10.79-32.18,3.06-7.88,8.32-14.26,15.4-18.56,23.97-14.55,49.56-19.04,76.21-8.59,41.01,16.09,58.44,71.22,33.01,107.85Z"/>
      <path d="M667.72,1452.94c-10.93.44-24.28,4.07-34.66,14.94-7.57,7.92-9.71,18.72-5.67,27,4.74,9.75,12.02,10.89,18.92,2.56,3.01-3.63,4.32-1.41,5.7.84,3.7,6.05-.22,13.54-8.04,15.64-11.57,3.1-24.22-6.59-26.35-20.24-2.14-13.68,3.62-24.09,13.91-32.5,23.02-18.82,57.18-20.2,79.47-3.28,22.77,17.28,30.79,49.56,18.76,76.67-7.49,16.87-20.16,30.4-30.52,45.42-.41.6-1.35.84-2.04,1.25,0-.91-.27-1.95.08-2.71,3.8-8.34,8.76-16.01,13.86-23.61,8.01-11.95,15.77-23.89,17.3-38.84,3.65-35.74-21-63.2-60.71-63.14Z"/>
      <path d="M964.89,1255.6c1.17,13.22-3.45,24.96-8.88,36.56-1.74,3.72-3.42,4.39-5.91.77-.55-.8-1.33-1.51-1.67-2.39-3.89-9.83-10.3-12.98-20.29-8.14-1.88.91-5.04,2.26-5.54-2.47-1.96-18.41,11.81-43.05,29.13-51.59,8.99-4.43,10.08-3.88,11.11,5.93.75,7.1,1.38,14.22,2.06,21.33Z"/>
      <path d="M1641.9,655.38c-13.03,6.82-22.42,1.5-31.22-7.05-8.9-8.64-17.84-17.3-27.33-25.29-15.21-12.81-31.6-23.33-52.81-22.71-5.97.17-11.67,1.55-17.44,2.73-1.8.37-4.19,2.09-5.22.15-.84-1.6,1.46-3.37,2.68-4.87,11.72-14.3,33.17-18.59,52.1-10.36,9.77,4.24,18.24,10.35,24.95,18.56,6.19,7.57,11.88,15.54,17.84,23.3,9.39,12.23,18.96,24.25,36.45,25.53Z"/>
      <path d="M238.67,437.19c-6.58-10.37-12.61-20.07-20.78-28.18-22.96-22.8-49.96-34.66-82.75-28.17-44.24,8.75-64.19,52.49-42.56,91.84,1.62,2.94,5.06,5.23,4.2,9.31-3.81-1.57-5.58-5.07-7.63-8.19-26.54-40.37-3.95-92.89,43.94-102.25,44.26-8.66,91.94,19.27,105.72,61.99.26.82-.05,1.82-.15,3.65Z"/>
      <path d="M1532.72,148.15c3.15-1.55,6.29-3.06,6.95,2.43,2.45,20.35,4.79,40.65-3.54,60.42-3,7.13-3.67,7.79-8.13,1.11-5.57-8.34-11.38-12.12-21.13-6.8-4.84,2.64-5.23-.65-4.88-4.53,1.6-17.8,5.9-34.39,20.44-46.58,3.43-2.02,6.86-4.04,10.29-6.06Z"/>
      <path d="M1530.13,136.84c-.07,2.64-1.27,3.65-4.08,3.9-21.55,1.98-41.26,9.27-59.62,20.52-3.86,2.37-8.1,4.3-12.39,5.78-10.45,3.6-17.5-2.39-15.84-13.26,1.22-7.97,5.72-13.58,12.85-17.32,14.22-7.45,29.46-7.67,44.95-6.62,11.83.81,22.68,6.02,34.39,7.25l-.27-.26Z"/>
      <path d="M1363.02,0h-21.98c-17.85,2.61-32.3,13.3-36.89,30.96-1.92,7.4-2.02,14.87,2.66,21.58.89,1.27,1.59,3.42,3.46,2.91,1.99-.54.98-2.69.95-4.09-.22-8.29,3.05-15.34,8.38-21.3,12.63-14.14,28.92-18.54,47.2-15.69,20.74,3.23,38.15,12.86,52.2,28.76-1.08-6.61-4.28-12.04-8.67-16.86-13.37-14.69-28.8-23.75-47.32-26.27Z"/>
      <path d="M1517.42,1867.74c-1.95,9.52-4.94,18.44-6.42,27.75-5.13,32.16,14.88,61.24,45.91,66.61,21.71,3.76,41.62-4.25,52.77-22.11,11.87-19,11.08-38.11-.94-56.98-1.79-2.8-6.91-5.75-4.55-8.31,1.57-1.7,5.27,3.5,7.55,6.02,14.99,16.58,17.01,35.69,8.69,55.46-8.94,21.22-25.73,33.62-49.1,35.05-42.54,2.61-74.2-34.56-65.3-76.02,2.12-9.86,5.08-19.46,11.4-27.47Z"/>
      <path d="M947.41,1212.67c2.81.82,5.63,1.63,8.44,2.44-.45,3.24-2.98,3.01-5.23,2.96-22.4-.5-42.36,7.31-61.64,17.61-4.03,2.15-8.2,4.26-12.55,5.53-9.05,2.64-14.71-2.63-13.35-12.02,1.62-11.27,8.81-17.99,19.01-21.62,15.75-5.62,31.63-3.73,47.47.05,6.03,1.44,11.53,4.67,17.85,5.04Z"/>
      <path d="M1911.99,64.12c.94-10.61,5.99-21.2,15.53-29.51,4.24-3.69,7.8-4.09,9.84,2.51,1.72,5.57,3.59,11.22,6.31,16.35,7.73,14.56,4.4,28.19-2.52,41.77-2.1,4.12-4.58,4.37-8.66,2.43-13.49-6.41-20.37-16.77-20.5-33.56Z"/>
      <path d="M23.94,1293.9c-1.27-.84-2.97-2.08-4.28-.41-.41.52.44,2.33,1.09,3.29,3.74,5.48,5.75,11.67,7.3,17.96,5.22,21.21-7.24,40.3-28.04,43.89v12.23c23.53,3.26,46.7-15.99,46.82-45.02-.15-11.53-9.45-23-22.88-31.93Z"/>
      <path d="M1673.71,653.71c-.38-14.2,2.66-27,9.5-38.87,3.49-6.05,7.99-11.1,14.36-14.27,3.35-1.67,6.81-2.36,10.34-.43,1.95,1.07,4.85,1.94,4.07,4.62-.62,2.17-3.39,1.02-5.16,1.05-9.47.17-14.97,5.99-19.01,13.41-9.2,16.9-10.05,34.78-5.15,53.02,10.1,37.59,44.06,64.66,83.69,67.16,4.04.26,8.5-1.04,12.05,2.14-3.75,2.74-8.14,3.13-12.57,3.38-39.57,2.2-80.96-30.23-89.97-70.49-1.57-7.01-2.58-14.07-2.16-20.72Z"/>
      <path d="M1982.11,812.31c-25.31-1.11-49.26-6.95-70.68-20.85-19.25-12.5-32.12-29.57-35.8-52.53-1.91-11.91,1.9-21.93,12.21-28.84,6.73-4.51,14.54-3.82,18.76,1.26.59.71,1.4,1.93,1.15,2.51-.82,1.89-2.06.24-3.1-.01-12.32-2.96-20.54,4.37-19.49,17.73.78,9.98,4.92,18.82,10.42,27.06,17.54,26.32,42.56,41.62,72.98,49.25,4.49,1.13,9.92.08,13.37,4.47l.18-.05Z"/>
      <path d="M1553.76,134.73c3.53-1.69,6.97-3.5,9.26-6.84,11.19-9.71,21.22-9.46,32.72.8,12.05,10.75,11.98,13.88-1.58,22.76-16.18,10.58-34.85,5.53-47.67-7.96-2.4-2.52-1.86-4.38,2.09-5.02,2.04-.33,4.45-1.15,5.19-3.73Z"/>
      <path d="M610.12,312c1.27-19.96,7.93-35.97,22.89-48.11,14.85-12.04,31.58-21.02,48.85-28.88,34.22-15.59,67.64-32.77,101.52-49.03,5.18-2.49,10.38-5.39,16.43-5.57-2.57,6.06-8.33,8.65-13.47,11.64-27.76,16.15-57.32,28.53-86.98,40.72-14.81,6.09-29.73,11.99-43.54,20.26-20.86,12.49-35.13,29.9-41.23,53.56-.4,1.57-.64,3.22-1.28,4.69-.68,1.56-.6,3.75-2.9,4.26-.13-1.61-.27-3.22-.29-3.55Z"/>
      <path d="M1924.07,109.22c-3.39,3.1-5.67,6.96-7.58,11.06-15.65,12.89-27.24,12.71-40.43.06-3.47-3.32-3.17-5.53-.77-8.98,14.1-20.28,31.01-22.85,52.91-12.37,3.31,1.58,3.79,3.08.65,5.44-1.78,1.35-3.2,3.17-4.78,4.78Z"/>
      <path d="M974.28,1216.44c4.81-2.08,8.01-6.05,11.55-9.64,15.66-6.98,29.74-1.74,38.35,13.84,2.05,3.7,1.19,5.53-1.7,8.15-14.9,13.52-34.81,13.61-49.53-.05-6.71-6.23-6.61-7.12,1.32-12.3Z"/>
      <path d="M51.14,778.65c.25,10.57-2.2,20.67-6.96,29.99-9.31,18.22-23.07,30.83-44.18,33v13.21c19.18.77,34.87-5.69,46.14-21.88,11.81-16.97,14.57-34.99,5.01-54.32Z"/>
      <path d="M386.44,601.24c-28.93,12.59-56.94,11.81-82.3-7.74-13.44-10.36-22.51-24.02-17.48-42.4,3.09-11.28,10.35-19.56,21.29-24.01,8.85-3.6,17.44-2.61,24.63,4.14,7.36,6.92,8.59,15.75,6.98,25.19-.21,1.2-1.1,2.34-1.85,3.39-1,1.4-2.64,2.49-4.16,1.82-1.32-.58-.21-2.22-.1-3.45.34-3.54.86-7.16.47-10.66-1.75-15.35-15.43-21.13-27.94-11.98-12.54,9.17-16.2,25.35-8.32,39.13,10.77,18.84,28.14,27.41,49.12,29.61,13.43,1.4,26.68-.52,39.66-3.05Z"/>
      <path d="M85.7,1192.21c-4.37-7.66-9.56-14.74-15.66-21.11-11.01-11.5-24.16-18.66-41.4-19.03-9.17.79-18.9,2.03-28.63,4.08v11.45c23.16-7.79,43.25.19,62.36,13.75,6.64,4.72,13.55,9.06,20.38,13.52,1,.65,2.23,1.86,3.43.8,1.21-1.07.1-2.46-.47-3.45Z"/>
      <path d="M1.2,950.62c-.42-.25-.82-.5-1.2-.72v64.65c4.47-10.18,9.27-20.2,15.33-29.61l-.32.35c3.32-16.48-.85-26.89-13.8-34.67Z"/>
      <path d="M163.07,0h-10.05c-4.51,1.01-8.84,2.97-9.65,5.16-2.44,6.57-6.46,12.05-11.22,17.05-7.07,7.43-15.93,12.46-24.53,17.84-6.38,3.98-12.99,7.73-17.63,13.87-.82,1.09-2.75,2.36-1.25,4.01.99,1.09,2.43.07,3.6-.42,12.96-5.47,26.18-10.42,38.81-16.56,14.57-7.08,25.62-18,31.65-33.34.59-1.51,1.21-3,1.86-4.62-.3-.86-.33-1.98-.92-2.52-.19-.17-.42-.32-.68-.45Z"/>
      <path d="M1470.51,783.84c.43,12.2,2.39,25.26,11.42,36.2.57.69,1.5,1.95,1.29,2.24-1.11,1.51-2.31.36-3.33-.33-3.58-2.44-6.17-5.81-8.5-9.37-18.13-27.69-9.89-68.34,17.66-86.84,2.95-1.98,6.24-3.59,9.57-4.85,6.66-2.53,12.93-1.9,17.96,3.66,4.27,4.72,5.26,14.52,2.16,20.26-.42.78-1.23,1.36-1.85,2.03-.28-.8-.71-1.58-.81-2.41-1.85-15.3-10.16-19.23-22.89-10.2-16.58,11.75-23.06,28.51-22.68,49.6Z"/>
      <path d="M432.28,1043.49c10.56-4.58,20.8-8.63,30.69-13.4,19.99-9.65,37.2-22.9,51.33-40.06,14.59-17.72,22.93-37.65,22.75-60.81-.01-1.89-1.65-5.24,1.37-5.55,2.41-.24,2.91,3.26,3.38,5.3,2.52,11.05,1.16,22-1.89,32.73-5.81,20.45-18.1,36.61-34.69,49.61-19.54,15.31-41.82,25.27-65.66,31.96-1.56.44-3.19.68-4.81.86-.58.07-1.21-.3-2.48-.65Z"/>
      <path d="M1800.85,191.36c11.79-.09,21.42,2.65,30.29,7.99,1.88,1.13,5.61,1.98,4.97,3.84-.79,2.27-4,.29-5.96-.11-11.98-2.44-24.02-3.76-36.05-1.08-28.18,6.27-44.64,24.21-51.19,51.7-.8,3.34-.91,6.9-3.32,9.7-2.64-3.29-2.61-7.23-2.71-11.13-.59-24.91,20-50.57,46.97-58.32,5.96-1.71,12.05-3.16,17-2.59Z"/>
      <path d="M167.13,1036.81c-.27,43.54-22.69,72.99-58.13,80.74-15.03,3.29-29.97,1.09-44.73-2.46-1.14-.27-2.63-.31-2.58-1.93,0-.22,1.78-.65,2.69-.54,5.85.69,11.69,1.43,17.51,2.31,43.14,6.51,74.35-27.25,78.71-63.02,4.12-33.78-6.01-62.89-30.89-86.66-1.39-1.33-2.54-2.9-3.81-4.35,2.45-1.64,4.25.36,6.29,1.07,1.91.67,3.43,1.83,4.68,3.4,17.87,22.46,30.63,46.9,30.26,71.45Z"/>
      <path d="M1739.11,833.62c4.66,8.93,9.97,17.32,16.53,24.9,4.58,5.28,9.94,9.38,16.43,12.12,3.78,1.6,7.64,2.08,11.56,1.38,7.84-1.4,10.12-6.75,6.14-13.49-1.12-1.91-5.25-3.58-2.38-6.07,2.56-2.22,5.51.24,7.67,2.3,8.99,8.59,5.71,25.27-6.08,30.35-4.54,1.95-9.4,2.77-14.44,1.85-7.33-1.34-13.81-4.35-18.89-9.74-11.51-12.19-15.93-27.14-16.52-43.58Z"/>
      <path d="M32.86,187.02c-9.76-7.2-20.8-11.03-32.86-11.38v6.65s.09,0,.14,0c17.15,1.57,31.49,8.61,42.25,22.09,18.84,23.6,21.21,61.45,5.9,87.51-8.3,14.13-21.03,21.82-36.5,25.92,15.6.14,27.06-7.53,36.42-19.04,9.86-12.13,13.79-26.63,15.06-41.66,2.39-28.52-6.69-52.62-30.4-70.1Z"/>
      <path d="M1532.72,148.15c-3.43,2.02-6.86,4.04-10.29,6.06-6.78,2-11.24,7.44-16.79,11.26-9.95,6.84-20.15,13.27-30.65,19.25-2.22,1.26-5.12,4.03-6.96,2.56-2.64-2.1.03-5.42.86-8.07,4.64-14.91,15.59-23.5,29.75-28.71,10.14-3.73,20.81-5.45,31.3-7.77,2.23-.49,5.35-3.57,6.93-.32,1.28,2.63-2.89,3.66-4.16,5.76Z"/>
      <path d="M959.82,1222.16c-.71.52-1.39,1.29-2.23,1.58-17.21,6.05-30.39,18.75-46.04,27.36-5.42,2.98-10.78,6.07-16.24,8.99-1.37.73-3.58,1.86-4.37,1.31-1.99-1.38-.35-3.48.12-5.26,3.15-12.02,10.43-20.72,21.58-26.22,13.72-6.76,28.52-8.85,43.58-9.66,1.37-.07,3.35-.82,3.6,1.89Z"/>
      <path d="M92.52,80.57c20.48,2.54,31.37,20.73,31.71,36.97.36,16.83-2.58,33.12-11.07,47.95-5.13,8.96-11.9,16.51-22.39,19.4-8.85,2.44-17.95-4.84-16.26-12.78.25-1.15,1.16-2.67,2.14-3.05,1.58-.6,1.64,1.35,2.31,2.28,5.41,7.62,9.6,8.45,17.62,1.91,13.91-11.35,20.53-26.84,22.54-44.15,2.36-20.34-4.74-32.9-26.62-48.54Z"/>
      <path d="M235.09,1350.7c-8.54,1.56-15.34-.63-21.75-4.02-9.04-4.79-13.3-12.6-12.03-22.59,1.92-15.14,9.63-26.9,23.47-33.84,15.57-7.82,33.11,2.2,32.51,18.13-.19,5.19-2.13,9.46-6.68,12.29-.71.44-1.88.79-2.54.5-1.11-.48-.6-1.68-.28-2.57.21-.6.62-1.14.95-1.7,3.93-6.72,3.84-12.99-2.28-18.44-5.61-4.99-15.36-5.89-21.97-1.44-9.36,6.31-15.11,15.25-16.59,26.45-1.19,8.97,2.94,15.63,10.34,20.58,4.85,3.24,10.39,4.77,16.85,6.67Z"/>
      <path d="M0,431.76v7.37c13.91,2.98,23.27,11.76,29.45,24.23,6,12.1,3.91,23.4-5.64,33.09-6.56,6.66-14.32,10.59-23.81,11.88v2.48c15.45,1.91,30.79-6.94,37.06-20.79,10.55-23.29-14.83-53.77-37.06-58.27Z"/>
      <path d="M1873.69,785.99c-13.01-8.47-25.83-16.96-40.35-22.38-23.5-8.76-47.02-11.36-70.32.85-1.44.76-2.97,1.39-4.52,1.86-.87.27-2.23.48-2.76.02-1.36-1.2,0-2.27.76-3.13,3.75-4.21,8.27-7.51,13.46-9.61,17.07-6.89,34.55-7.17,51.88-1.39,20.19,6.73,37.03,18.91,51.85,33.77Z"/>
      <path d="M45.55,1273.85c.27-16.7,8.59-29.44,20.38-40.45.88-.82,1.74-2.1,3.08-1.15.32.23-.06,1.72-.4,2.5-8.39,18.75-10.19,38.69-10.9,58.84-.05,1.29.05,2.67-.36,3.86-1.1,3.17.58,8.64-3.26,9.05-2.64.28-1.6-5.35-2.6-8.24-2.75-7.92-6.22-15.72-5.92-24.41Z"/>
      <path d="M0,1539.79c4.07-5.12,6.33-10.98,4.67-18.33-1.35-6-2.8-11.98-4.67-17.89v36.22Z"/>
      <path d="M1758.92,1079.82c19.47-.86,34.1,6.61,45.06,21.57,3.18,4.34,4.64,9.29,3.79,14.71-1.19,7.59-7.77,12.86-15.15,12.32-2.37-.18-5.11-.5-5.22-3.13-.09-2.37,2.77-2.03,4.59-2.55,10.24-2.91,12.73-9.65,6.62-19.27-7.77-12.23-19.57-18.74-33.47-21.93-1.86-.43-3.98.27-6.22-1.73Z"/>
      <path d="M1051.69,0h-47.91c12.12,4.72,24.79,6.98,37.44,9.35,2.23.42,4.59.61,6.83.37,4.41-.48,4.58-4.44,4.74-7.4.07-1.35-.39-2.01-1.1-2.32Z"/>
      <path d="M1778.96,1152.62c10.27,3.42,20.92,4.34,31.44,6.03,4.47.72,8.84,2.22,13.13,3.73,3.05,1.07,7.65,2.98,6.61,5.95-.92,2.63-5.04-.7-7.73-1.19-8.32-1.51-16.54-3.56-24.78-5.47-6.87-1.58-13.53-3.64-18.66-9.05Z"/>
      <path d="M204.17,373.44c.66-7.93,1.95-16.55,6.83-24.2.67-1.05,1.68-2.46,3.03-1.74,1.5.8.48,2.34,0,3.44-3.48,8.1-5.98,16.43-6.99,25.22-.18,1.53.96,4.54-1.88,4.39-1.57-.08-.86-2.75-.99-4.29-.05-.64,0-1.3,0-2.82Z"/>
      <path d="M.81,817.53c-.27-.1-.54-.19-.81-.28v4.33c2.17.23,5.34,2.7,5.98.75.75-2.28-2.71-3.91-5.17-4.8Z"/>
      <path d="M1953.01,87.03c-.31-.36-.91-.78-.86-1.08.1-.59.51-1.16.91-1.65,4.2-5.24,8.53-10.34,14.74-13.39.12-.06.49.37.74.57-4.93,4.97-9.86,9.95-14.79,14.92-.23.23-.48.42-.73.64Z"/>
      <path d="M1562.46,1895.09c1.14,4.99.51,10.2,2.61,15.08.57,1.31,2.97,3.61.4,4.5-1.42.49-2.79-2.46-3.26-4.27-1.31-5.06-.55-10.18.24-15.31Z"/>
      <path d="M3.23,145.04c-1.16.15-2.22.5-3.23.95v3.14c1.24-.95,2.53-1.95,3.82-2.96.55-.43.24-1.23-.59-1.13Z"/>
      <path d="M147.92,441.33c.76,5.31,1.52,8.41-.3,11.33-.89-3.15-.49-6.28.3-11.33Z"/>
      <path d="M105.01,955.34c.95-.15,1.41-.3,1.86-.29.94.03,1.87.14,2.81.22-.45.09-.89.24-1.34.24-.94,0-1.89-.09-3.33-.17Z"/>
      <path d="M1981.93,812.35h8.22c-2.55,1.27-5.32-.34-8.05-.05l-.18.05Z"/>
      <path d="M1956.82,178.78c-.07-.9-.17-1.8-.18-2.7-.02-1.12.04-2.23.07-3.35.05,1.17.12,2.33.14,3.5.02.91-.02,1.83-.03,2.74v-.19Z"/>
      <path d="M1265.54,465.68c-40.61-5.44-74.06-42.26-75.82-85.18-.5-12.19-2.83-18.87-15.2-25.23-27.51-14.16-44.99-38.21-54.6-67.64-2.72-8.34-4.84-16.97-9.64-24.47-6.1-9.54-16-11.22-23.11-4.16-1.14,1.13-2.44,2.09-2.1,4.05.93,5.45,10.96,12.71,16.63,11.97,5.32-.7,7.51,2.13,5.66,7.3-2.74,7.67-13.1,11.41-21.55,7.77-16.03-6.9-21.85-25.46-12.57-40.07,14.13-22.24,45.6-23.49,63.03-2.51,7.99,9.62,11.46,21.13,13.47,33.11,3.85,22.83,12.47,43.72,25.25,62.98,1.44,2.17,2.94,4.33,4.65,6.28,1.26,1.44,2.91,2.53,4.39,3.78,1.91-2.48-.48-4.26-1.28-6.06-13.32-29.8-24.97-60.03-29.82-92.61-3.24-21.72-2.51-42.79,5.13-63.5,1.91-5.18,3.64-10.44,5.22-15.74,3.85-12.92.61-24.36-7.42-34.88-1.37-1.8-4.85-3.96-2.75-6.18,1.52-1.6,4.82.39,7.13,1.62,6.79,3.61,12.32,8.75,16.8,14.81,10.86,14.71,20.65,30.15,29.83,45.94,9.65,16.6,9.22,34.21,5.02,52.14-6.53,27.91-11.96,56.03-15.69,84.44-1.07,8.13-3.26,16.51,1.32,24.66,1.74,3.09-2.05,6.03-2.28,9.63-2.58,40.36,22.73,79.28,61.13,93.5,3.09,1.14,7.04.88,8.96,4.44l.2-.19ZM1178.72,184.03c-7.92,25.82-13.7,49.38-11.17,74.15,1.85,18.12,4.42,36.1,9.04,53.76,2.22,8.48,4.6,16.9,8.21,24.92.39.87.83,1.71,1.25,2.57,1.34-.84.78-2.1.62-3.18-.19-1.28-.75-2.49-.98-3.77-7.29-40.38-14.16-80.77-8.32-122.05,1.14-8.02,2.44-16.06,1.36-26.4Z"/>
      <path d="M1197.8,346.39c9.77-34.87,19.59-67.21,26.82-100.24,3.42-15.63,10.25-28.71,24.47-37.22,6.91-4.13,14.37-6.3,22.41-6.42,12.1-.18,21.24,5.82,25.31,16.52,4.25,11.15,1.14,23.92-7.38,31.32-5.26,4.56-11.2,5.32-17.44,3.12-3.3-1.16-5.06-4.05-4.58-7.8.47-3.64,3.25-3.43,5.91-3.54,4.61-.19,8.52-1.93,9.92-6.55,1.35-4.49-2.01-7.24-4.97-9.82-3.97-3.47-8.22-3.5-12.65-.7-6.54,4.13-9.76,10.49-11.5,17.58-5.34,21.74-15.83,41.27-26.04,60.94-7.86,15.14-18.82,28.06-30.28,42.84Z"/>
      <path d="M1295.86,334.91c.31-5.26-2.13-10.58-4.8-15.84-.55-1.08-2.08-2.48-.79-3.36,1.79-1.21,2.61,1.01,3.51,2.05,8.34,9.72,9.58,24.06,2.36,35.51-7.92,12.56-19.48,20.07-34.55,21.36-13.05,1.12-23.45-8.45-23.22-20.84.08-4.44,1.57-8.31,4.65-11.47,2.05-2.09,5.09-5,7.42-3.36,2.52,1.77-1.24,4.12-2.22,6.15-5.34,11.03.17,20.63,12.42,21.3,17.9.97,35.49-14.34,35.22-31.51Z"/>
      <path d="M1265.34,465.87c3.83-1.1,7.51.02,11.22.73l.28-.19c-3.86,1.14-7.65,1.3-11.3-.73l-.2.19Z"/>
    </g>
  </g>
</svg>