<?xml version="1.0" encoding="UTF-8"?>
<svg id="Layer_2" data-name="Layer 2" xmlns="http://www.w3.org/2000/svg" viewBox="0 0 1033.38 1033.38">
  <g id="pattern_2">
    <g>
      <polygon points="0 974.23 59.15 1033.38 78.63 1033.38 0 954.75 0 974.23"/>
      <path d="M20.67,864.59c0-9.51-7.72-17.22-17.22-17.22-1.18,0-2.33.12-3.44.35v33.75c1.12.23,2.27.35,3.44.35,9.51,0,17.22-7.71,17.22-17.22Z"/>
      <circle cx="72.34" cy="933.49" r="17.22"/>
      <circle cx="141.23" cy="1002.38" r="17.22"/>
      <polygon points="0 767.55 265.83 1033.38 285.31 1033.38 0 748.07 0 767.55"/>
      <path d="M20.67,657.92c0-9.51-7.72-17.22-17.22-17.22-1.18,0-2.33.12-3.44.35v33.75c1.12.23,2.27.35,3.44.35,9.51,0,17.22-7.71,17.22-17.22Z"/>
      <circle cx="72.34" cy="726.81" r="17.22"/>
      <circle cx="141.23" cy="795.7" r="17.22"/>
      <circle cx="210.12" cy="864.59" r="17.22"/>
      <circle cx="279.01" cy="933.49" r="17.22"/>
      <circle cx="347.9" cy="1002.38" r="17.22"/>
      <polygon points="0 560.88 472.5 1033.38 491.99 1033.38 0 541.39 0 560.88"/>
      <path d="M20.67,451.24c0-9.51-7.72-17.22-17.22-17.22-1.18,0-2.33.12-3.44.35v33.75c1.12.23,2.27.35,3.44.35,9.51,0,17.22-7.71,17.22-17.22Z"/>
      <circle cx="72.34" cy="520.13" r="17.22"/>
      <circle cx="141.23" cy="589.03" r="17.22"/>
      <circle cx="210.12" cy="657.92" r="17.22"/>
      <circle cx="279.01" cy="726.81" r="17.22"/>
      <circle cx="347.9" cy="795.7" r="17.22"/>
      <circle cx="416.8" cy="864.59" r="17.22"/>
      <circle cx="485.69" cy="933.49" r="17.22"/>
      <circle cx="554.58" cy="1002.38" r="17.22"/>
      <polygon points="0 354.2 679.18 1033.38 698.66 1033.38 0 334.72 0 354.2"/>
      <path d="M20.67,244.57c0-9.51-7.72-17.22-17.22-17.22-1.18,0-2.33.12-3.44.35v33.75c1.12.23,2.27.35,3.44.35,9.51,0,17.22-7.71,17.22-17.22Z"/>
      <circle cx="72.34" cy="313.46" r="17.22"/>
      <circle cx="141.23" cy="382.35" r="17.22"/>
      <circle cx="210.12" cy="451.24" r="17.22"/>
      <circle cx="279.01" cy="520.13" r="17.22"/>
      <circle cx="347.9" cy="589.03" r="17.22"/>
      <circle cx="416.8" cy="657.92" r="17.22"/>
      <circle cx="485.69" cy="726.81" r="17.22"/>
      <circle cx="554.58" cy="795.7" r="17.22"/>
      <circle cx="623.47" cy="864.59" r="17.22"/>
      <circle cx="692.36" cy="933.49" r="17.22"/>
      <circle cx="761.26" cy="1002.38" r="17.22"/>
      <polygon points="0 147.53 885.85 1033.38 905.34 1033.38 0 128.04 0 147.53"/>
      <path d="M20.67,37.89c0-9.51-7.72-17.22-17.22-17.22-1.18,0-2.33.12-3.44.35v33.75c1.12.23,2.27.35,3.44.35,9.51,0,17.22-7.71,17.22-17.22Z"/>
      <circle cx="72.34" cy="106.78" r="17.22"/>
      <circle cx="141.23" cy="175.67" r="17.22"/>
      <circle cx="210.12" cy="244.57" r="17.22"/>
      <circle cx="279.01" cy="313.46" r="17.22"/>
      <circle cx="347.9" cy="382.35" r="17.22"/>
      <circle cx="416.8" cy="451.24" r="17.22"/>
      <circle cx="485.69" cy="520.13" r="17.22"/>
      <circle cx="554.58" cy="589.03" r="17.22"/>
      <circle cx="623.47" cy="657.92" r="17.22"/>
      <circle cx="692.36" cy="726.81" r="17.22"/>
      <circle cx="761.26" cy="795.7" r="17.22"/>
      <circle cx="830.15" cy="864.59" r="17.22"/>
      <circle cx="899.04" cy="933.49" r="17.22"/>
      <circle cx="967.93" cy="1002.38" r="17.22"/>
      <polygon points="59.15 0 1033.38 974.23 1033.38 954.75 78.63 0 59.15 0"/>
      <circle cx="210.12" cy="37.89" r="17.22"/>
      <circle cx="279.01" cy="106.78" r="17.22"/>
      <circle cx="347.9" cy="175.67" r="17.22"/>
      <circle cx="416.8" cy="244.57" r="17.22"/>
      <circle cx="485.69" cy="313.46" r="17.22"/>
      <circle cx="554.58" cy="382.35" r="17.22"/>
      <circle cx="623.47" cy="451.24" r="17.22"/>
      <circle cx="692.36" cy="520.13" r="17.22"/>
      <circle cx="761.26" cy="589.03" r="17.22"/>
      <circle cx="830.15" cy="657.92" r="17.22"/>
      <circle cx="899.04" cy="726.81" r="17.22"/>
      <circle cx="967.93" cy="795.7" r="17.22"/>
      <path d="M1019.6,864.59c0,8.33,5.92,15.28,13.78,16.88v-33.75c-7.86,1.6-13.78,8.54-13.78,16.88Z"/>
      <polygon points="265.83 0 1033.38 767.55 1033.38 748.07 285.31 0 265.83 0"/>
      <circle cx="416.8" cy="37.89" r="17.22"/>
      <circle cx="485.69" cy="106.78" r="17.22"/>
      <circle cx="554.58" cy="175.67" r="17.22"/>
      <circle cx="623.47" cy="244.57" r="17.22"/>
      <circle cx="692.36" cy="313.46" r="17.22"/>
      <circle cx="761.26" cy="382.35" r="17.22"/>
      <circle cx="830.15" cy="451.24" r="17.22"/>
      <circle cx="899.04" cy="520.13" r="17.22"/>
      <circle cx="967.93" cy="589.03" r="17.22"/>
      <path d="M1019.6,657.92c0,8.33,5.92,15.28,13.78,16.88v-33.75c-7.86,1.6-13.78,8.54-13.78,16.88Z"/>
      <polygon points="472.5 0 1033.38 560.88 1033.38 541.39 491.99 0 472.5 0"/>
      <circle cx="623.47" cy="37.89" r="17.22"/>
      <circle cx="692.36" cy="106.78" r="17.22"/>
      <circle cx="761.26" cy="175.67" r="17.22"/>
      <circle cx="830.15" cy="244.57" r="17.22"/>
      <circle cx="899.04" cy="313.46" r="17.22"/>
      <circle cx="967.93" cy="382.35" r="17.22"/>
      <path d="M1019.6,451.24c0,8.33,5.92,15.28,13.78,16.88v-33.75c-7.86,1.6-13.78,8.54-13.78,16.88Z"/>
      <polygon points="679.18 0 1033.38 354.2 1033.38 334.72 698.66 0 679.18 0"/>
      <circle cx="830.15" cy="37.89" r="17.22"/>
      <circle cx="899.04" cy="106.78" r="17.22"/>
      <circle cx="967.93" cy="175.67" r="17.22"/>
      <path d="M1019.6,244.57c0,8.33,5.92,15.28,13.78,16.88v-33.75c-7.86,1.6-13.78,8.54-13.78,16.88Z"/>
      <polygon points="885.85 0 1033.38 147.53 1033.38 128.04 905.34 0 885.85 0"/>
      <path d="M1019.6,37.89c0,8.33,5.92,15.28,13.78,16.88V21.01c-7.86,1.6-13.78,8.54-13.78,16.88Z"/>
    </g>
  </g>
</svg>