<?xml version="1.0" encoding="UTF-8"?>
<svg id="Layer_2" data-name="Layer 2" xmlns="http://www.w3.org/2000/svg" viewBox="0 0 141.2 99.73">
  <defs>
    <style>
      .cls-1 {
        font-family: GrandHotel-Regular, 'Grand Hotel';
        font-size: 26.45px;
      }

      .cls-1, .cls-2 {
        fill: #546e7a;
      }

      .cls-3 {
        stroke-dasharray: 6 5;
      }

      .cls-3, .cls-4 {
        fill: #ff7043;
      }

      .cls-3, .cls-4, .cls-5 {
        stroke: #546e7a;
        stroke-linecap: round;
        stroke-linejoin: round;
        stroke-width: 2px;
      }

      .cls-5 {
        fill: #ffca28;
      }

      .cls-2 {
        font-family: OpenSans, 'Open Sans';
        font-size: 18.17px;
      }
    </style>
  </defs>
  <g id="OBJECTS">
    <g>
      <g>
        <line class="cls-3" x1="70.6" y1="16.42" x2="70.6" y2="1"/>
        <line class="cls-3" x1="61.19" y1="17.24" x2="58.52" y2="2.06"/>
        <line class="cls-3" x1="52.07" y1="19.69" x2="46.8" y2="5.2"/>
        <line class="cls-3" x1="43.51" y1="23.68" x2="35.8" y2="10.32"/>
        <line class="cls-3" x1="35.77" y1="29.1" x2="25.86" y2="17.28"/>
        <line class="cls-3" x1="29.1" y1="35.77" x2="17.28" y2="25.86"/>
        <line class="cls-3" x1="23.68" y1="43.51" x2="10.32" y2="35.8"/>
        <line class="cls-3" x1="19.69" y1="52.07" x2="5.2" y2="46.8"/>
        <line class="cls-3" x1="17.24" y1="61.19" x2="2.06" y2="58.52"/>
        <line class="cls-3" x1="16.42" y1="70.6" x2="1" y2="70.6"/>
        <line class="cls-3" x1="124.78" y1="70.6" x2="140.2" y2="70.6"/>
        <line class="cls-3" x1="123.96" y1="61.19" x2="139.15" y2="58.52"/>
        <line class="cls-3" x1="121.51" y1="52.07" x2="136.01" y2="46.8"/>
        <line class="cls-3" x1="117.52" y1="43.51" x2="130.88" y2="35.8"/>
        <line class="cls-3" x1="112.11" y1="35.77" x2="123.92" y2="25.86"/>
        <line class="cls-3" x1="105.43" y1="29.1" x2="115.34" y2="17.28"/>
        <line class="cls-3" x1="97.69" y1="23.68" x2="105.4" y2="10.32"/>
        <line class="cls-3" x1="89.13" y1="19.69" x2="94.41" y2="5.2"/>
        <line class="cls-3" x1="80.01" y1="17.24" x2="82.69" y2="2.06"/>
      </g>
      <text class="cls-1" transform="translate(24.8 72.76)"><tspan x="0" y="0">Eid al-Fitr</tspan></text>
      <polygon class="cls-4" points="70.6 27.22 73.48 34.93 81.69 35.28 75.25 40.4 77.46 48.32 70.6 43.78 63.75 48.32 65.95 40.4 59.51 35.28 67.73 34.93 70.6 27.22"/>
      <text class="cls-2" transform="translate(27.22 94.81)"><tspan x="0" y="0">MUBARAK</tspan></text>
      <g>
        <polygon class="cls-5" points="136.36 94.81 120.23 94.81 120.23 82.65 136.36 82.65 131.36 88.73 136.36 94.81"/>
        <polygon class="cls-5" points="4.85 82.65 20.98 82.65 20.98 94.81 4.85 94.81 9.84 88.73 4.85 82.65"/>
      </g>
    </g>
  </g>
</svg>