<?xml version="1.0" encoding="UTF-8"?>
<svg id="Layer_2" data-name="Layer 2" xmlns="http://www.w3.org/2000/svg" viewBox="0 0 144.73 119.87">
  <defs>
    <style>
      .cls-1 {
        font-family: OpenSans-Bold, 'Open Sans';
        font-size: 18.8px;
        font-weight: 700;
      }

      .cls-1, .cls-2 {
        fill: #546e7a;
      }

      .cls-3, .cls-4 {
        fill: #fff;
      }

      .cls-3, .cls-5, .cls-6 {
        stroke: #546e7a;
        stroke-linecap: round;
        stroke-linejoin: round;
        stroke-width: 2px;
      }

      .cls-2 {
        font-family: Arcon-Regular, Arcon;
        font-size: 16.05px;
      }

      .cls-5 {
        fill: #ff7043;
      }

      .cls-6 {
        fill: #ffca28;
      }
    </style>
  </defs>
  <g id="OBJECTS">
    <g>
      <g>
        <circle class="cls-4" cx="57.52" cy="50.26" r="7.77" transform="translate(-5.9 92.84) rotate(-75.02)"/>
        <path class="cls-3" d="M50.24,52.89c-.55.99-.62,2.19-.16,3.25-1.58-.45-3.31.22-4.16,1.7-.87,1.52-.53,3.4.72,4.54-1.68.29-2.98,1.73-3.02,3.5-.05,1.77,1.16,3.28,2.83,3.66-1.32,1.06-1.76,2.94-.96,4.51.78,1.53,2.49,2.28,4.1,1.9-.7,1.45-.38,3.25.9,4.36h0c1.25,1.08,3.02,1.17,4.34.33-.21,1.54.58,3.09,2.05,3.79.36.17.73.28,1.11.33.1,6.47,1.51,11.59,3.24,11.59,1.52,0,2.8-3.99,3.15-9.37,1.35.12,2.64-.51,3.37-1.6.41,1.43,1.67,2.53,3.24,2.65,1.56.12,2.97-.76,3.6-2.1.58,1.27,1.87,2.14,3.32,2.14.08,0,.17,0,.26-.01,1.57-.11,2.84-1.19,3.26-2.62.82,1.25,2.36,1.92,3.9,1.55,1.55-.37,2.64-1.67,2.79-3.18.2.21.42.39.67.55.14,6.34,1.53,11.33,3.23,11.33s3.21-7.67,3.24-14.43c1.16.38,2.48.17,3.48-.67,1.29-1.08,1.65-2.87.98-4.33,1.59.41,3.31-.29,4.13-1.8.83-1.54.45-3.42-.84-4.52,1.67-.34,2.93-1.82,2.93-3.58,0-1.5-.9-2.78-2.18-3.35.9-1.06,1.15-2.6.51-3.94-.74-1.56-2.44-2.34-4.06-2,.73-1.44.45-3.25-.81-4.38-1.23-1.1-3-1.22-4.35-.4.23-1.53-.53-3.11-2-3.83-1.44-.71-3.13-.38-4.2.69-.13-1.51-1.18-2.84-2.73-3.24h0c-1.53-.4-3.09.24-3.93,1.48-.39-1.44-1.64-2.55-3.21-2.68-1.56-.14-2.98.73-3.62,2.07-.35-.79-.97-1.42-1.74-1.8"/>
        <path class="cls-3" d="M59.56,46.65c0,1.83,1.48,3.32,3.32,3.32,2.29,0,4.14-1.86,4.14-4.14,0-2.86-2.32-5.18-5.18-5.18-3.58,0-6.47,2.9-6.47,6.47,0,4.47,3.62,8.09,8.09,8.09,5.59,0,10.12-4.53,10.12-10.12,0,0,1.41-9.23-9.11-11.89-10.52-2.66-14.67,8.31-14.67,8.31,0,0-13.3,4.82-10.64,10.97,1.73,4.01,7.37,2.17,11.08.4"/>
      </g>
      <g>
        <path class="cls-6" d="M122.07,54.72c-1.36-3.21-3.01-6.26-4.94-9.12-1.93-2.86-4.14-5.55-6.62-8.03-2.48-2.48-5.16-4.69-8.02-6.62-2.86-1.93-5.91-3.58-9.12-4.94-3.32-1.41-6.75-2.46-10.26-3.17-3.51-.71-7.09-1.06-10.74-1.06s-7.23.36-10.74,1.06c-3.51.71-6.93,1.77-10.26,3.17-3.21,1.36-6.26,3.01-9.12,4.94s-5.55,4.14-8.03,6.62c-2.48,2.48-4.69,5.16-6.62,8.02s-3.58,5.91-4.94,9.12l-6.73-10.65-12.4,2.56c1.88-4.45,4.17-8.67,6.84-12.64s5.73-7.68,9.16-11.11c3.43-3.43,7.14-6.49,11.11-9.16,3.97-2.67,8.19-4.96,12.64-6.84,4.61-1.95,9.36-3.42,14.22-4.4s9.82-1.48,14.86-1.48,10.01.49,14.86,1.48c4.86.98,9.61,2.45,14.22,4.4,4.45,1.88,8.67,4.17,12.64,6.84s7.68,5.73,11.11,9.16c3.43,3.43,6.49,7.14,9.16,11.11,2.67,3.97,4.96,8.19,6.84,12.63l-12.4-2.56-6.73,10.65Z"/>
        <g>
          <text class="cls-2" transform="translate(28.16 37.53) rotate(-43.79)"><tspan x="0" y="0">E</tspan></text>
          <text class="cls-2" transform="translate(35.76 30.59) rotate(-36.44)"><tspan x="0" y="0">I</tspan></text>
          <text class="cls-2" transform="translate(39.66 27.5) rotate(-28.21)"><tspan x="0" y="0">D</tspan></text>
          <text class="cls-2" transform="translate(50.34 22.13) rotate(-19.49)"><tspan x="0" y="0"> </tspan></text>
          <text class="cls-2" transform="translate(55.96 19.96) rotate(-10.37)"><tspan x="0" y="0">A</tspan></text>
          <text class="cls-2" transform="translate(68.16 17.95) rotate(-.09)"><tspan x="0" y="0">L</tspan></text>
          <text class="cls-2" transform="translate(77.54 18.03) rotate(8.93)"><tspan x="0" y="0">-</tspan></text>
          <text class="cls-2" transform="translate(86.83 19.59) rotate(17.95)"><tspan x="0" y="0">F</tspan></text>
          <text class="cls-2" transform="translate(95.52 22.62) rotate(24.86)"><tspan x="0" y="0">I</tspan></text>
          <text class="cls-2" transform="translate(100.08 24.62) rotate(32.36)"><tspan x="0" y="0">T</tspan></text>
          <text class="cls-2" transform="translate(108.81 30.25) rotate(42.59)"><tspan x="0" y="0">R</tspan></text>
        </g>
      </g>
      <g>
        <g>
          <polygon class="cls-5" points="121.42 66.22 123.91 72.91 131.05 73.22 125.46 77.66 127.37 84.54 121.42 80.59 115.47 84.54 117.38 77.66 111.79 73.22 118.92 72.91 121.42 66.22"/>
          <g>
            <line class="cls-5" x1="135.81" y1="75.41" x2="143.73" y2="75.41"/>
            <line class="cls-5" x1="135.2" y1="71.63" x2="142.64" y2="68.92"/>
            <line class="cls-5" x1="135.09" y1="79.18" x2="142.53" y2="81.89"/>
          </g>
        </g>
        <g>
          <polygon class="cls-5" points="23.31 66.22 20.82 72.91 13.68 73.22 19.27 77.66 17.36 84.54 23.31 80.59 29.26 84.54 27.35 77.66 32.94 73.22 25.81 72.91 23.31 66.22"/>
          <g>
            <line class="cls-5" x1="8.92" y1="75.41" x2="1" y2="75.41"/>
            <line class="cls-5" x1="9.53" y1="71.63" x2="2.09" y2="68.92"/>
            <line class="cls-5" x1="9.64" y1="79.18" x2="2.2" y2="81.89"/>
          </g>
        </g>
      </g>
      <text class="cls-1" transform="translate(24.65 114.36)"><tspan x="0" y="0">MUBARAK</tspan></text>
      <g>
        <line class="cls-3" x1="125.02" y1="107.33" x2="139.41" y2="107.33"/>
        <line class="cls-3" x1="5.32" y1="107.33" x2="19.71" y2="107.33"/>
      </g>
    </g>
  </g>
</svg>