<?xml version="1.0" encoding="UTF-8"?>
<svg id="Layer_2" data-name="Layer 2" xmlns="http://www.w3.org/2000/svg" viewBox="0 0 122.57 149.69">
  <defs>
    <style>
      .cls-1 {
        fill: #fff;
      }

      .cls-1, .cls-2, .cls-3 {
        stroke: #546e7a;
        stroke-linecap: round;
        stroke-linejoin: round;
        stroke-width: 2px;
      }

      .cls-4 {
        fill: #546e7a;
        font-family: Arcon-Regular, Arcon;
        font-size: 19.17px;
      }

      .cls-2 {
        fill: #ff7043;
      }

      .cls-3 {
        fill: #ffca28;
      }

      .cls-5 {
        letter-spacing: -.02em;
      }
    </style>
  </defs>
  <g id="OBJECTS">
    <g>
      <text class="cls-4" transform="translate(9.47 141.47)"><tspan x="0" y="0">EID </tspan><tspan class="cls-5" x="33.93" y="0">A</tspan><tspan x="47.37" y="0">L-FITR</tspan></text>
      <g>
        <g>
          <line class="cls-1" x1="66.03" y1="14.51" x2="66.03" y2="4.47"/>
          <g>
            <path class="cls-1" d="M79.31,41.15h-26.56c-1.06,0-1.92-.86-1.92-1.92h0c0-1.06.86-1.92,1.92-1.92h26.56c1.06,0,1.92.86,1.92,1.92h0c0,1.06-.86,1.92-1.92,1.92Z"/>
            <path class="cls-1" d="M79.31,79.77h-26.56c-1.06,0-1.92-.86-1.92-1.92h0c0-1.06.86-1.92,1.92-1.92h26.56c1.06,0,1.92.86,1.92,1.92h0c0,1.06-.86,1.92-1.92,1.92Z"/>
            <path class="cls-1" d="M64.09,31.4h-5.05c-3.26,0-5.9,2.64-5.9,5.9h25.79c0-3.26-2.64-5.9-5.9-5.9h-4.86"/>
            <path class="cls-1" d="M86.15,58.54c0-5.75-3.23-10.85-8.21-14.01v-3.37h-23.82v3.37c-4.98,3.16-8.21,8.26-8.21,14.01s3.23,10.85,8.21,14.01v3.37h23.82v-3.37c4.98-3.17,8.21-8.26,8.21-14.01Z"/>
            <path class="cls-1" d="M57.97,79.9h16.12v1.34c0,1.63-1.32,2.95-2.95,2.95h-10.21c-1.63,0-2.95-1.32-2.95-2.95v-1.34h0Z"/>
            <polygon class="cls-1" points="63.9 86.67 66.03 96.71 68.16 86.67 63.9 86.67"/>
            <polygon class="cls-1" points="68.14 21.65 66.03 14.59 63.92 21.65 68.14 21.65"/>
            <line class="cls-1" x1="66.03" y1="86.67" x2="66.03" y2="84.19"/>
            <path class="cls-2" d="M53.94,58.54c0,1.63-1.32,2.95-2.95,2.95s-2.95-1.32-2.95-2.95,1.32-2.95,2.95-2.95,2.95,1.32,2.95,2.95Z"/>
            <path class="cls-2" d="M64.65,58.54c0,2.37-1.92,4.3-4.3,4.3s-4.3-1.93-4.3-4.3,1.92-4.3,4.3-4.3,4.3,1.93,4.3,4.3Z"/>
            <path class="cls-2" d="M75.54,58.54c0,2.37-1.92,4.3-4.3,4.3s-4.3-1.93-4.3-4.3,1.92-4.3,4.3-4.3,4.3,1.93,4.3,4.3Z"/>
            <path class="cls-2" d="M83.54,58.54c0,1.63-1.32,2.95-2.95,2.95s-2.95-1.32-2.95-2.95,1.32-2.95,2.95-2.95,2.95,1.32,2.95,2.95Z"/>
            <path class="cls-1" d="M66.13,25.28h0c-1.12,0-2.04.91-2.04,2.04v4.09h4.07v-4.09c0-1.12-.91-2.04-2.04-2.04Z"/>
            <line class="cls-1" x1="66.13" y1="21.65" x2="66.13" y2="25.45"/>
          </g>
        </g>
        <path class="cls-3" d="M121.57,61.12c-.18,1.42-.4,2.84-.7,4.27-5.8,27.48-32.77,45.06-60.26,39.26-27.48-5.8-45.06-32.77-39.26-60.26C27.15,16.91,54.12-.67,81.6,5.13c1.42.3,2.82.67,4.18,1.08-3.8-1.69-7.83-3.01-12.06-3.9C41.16-4.56,9.18,16.27,2.31,48.85c-6.87,32.57,13.96,64.55,46.54,71.42,32.57,6.87,64.55-13.96,71.42-46.54.89-4.23,1.31-8.45,1.3-12.61Z"/>
      </g>
    </g>
  </g>
</svg>