<?xml version="1.0" encoding="UTF-8"?>
<svg id="Layer_2" data-name="Layer 2" xmlns="http://www.w3.org/2000/svg" viewBox="0 0 153.02 153.02">
  <defs>
    <style>
      .cls-1, .cls-2 {
        fill: #fff;
      }

      .cls-1, .cls-3 {
        stroke: #546e7a;
        stroke-linecap: round;
        stroke-linejoin: round;
        stroke-width: 2px;
      }

      .cls-4 {
        letter-spacing: .14em;
      }

      .cls-3 {
        fill: #b2ebf2;
      }

      .cls-5 {
        font-family: Arcon-Regular, Arcon;
        font-size: 10.43px;
      }

      .cls-5, .cls-6 {
        fill: #546e7a;
      }

      .cls-7 {
        letter-spacing: .1em;
      }

      .cls-8 {
        letter-spacing: .1em;
      }

      .cls-9 {
        letter-spacing: .08em;
      }

      .cls-6 {
        font-family: LeagueGothic-Regular, 'League Gothic';
        font-size: 18.39px;
      }
    </style>
  </defs>
  <g id="OBJECTS">
    <g>
      <line class="cls-1" x1="76.51" y1="17.73" x2="76.51" y2="1"/>
      <line class="cls-1" x1="66.3" y1="18.62" x2="63.4" y2="2.15"/>
      <line class="cls-1" x1="56.41" y1="21.27" x2="50.68" y2="5.55"/>
      <line class="cls-1" x1="47.12" y1="25.6" x2="38.75" y2="11.12"/>
      <line class="cls-1" x1="38.73" y1="31.48" x2="27.97" y2="18.67"/>
      <line class="cls-1" x1="31.48" y1="38.73" x2="18.67" y2="27.97"/>
      <line class="cls-1" x1="25.6" y1="47.12" x2="11.12" y2="38.75"/>
      <line class="cls-1" x1="21.27" y1="56.41" x2="5.55" y2="50.68"/>
      <line class="cls-1" x1="18.62" y1="66.3" x2="2.15" y2="63.4"/>
      <line class="cls-1" x1="17.73" y1="76.51" x2="1" y2="76.51"/>
      <line class="cls-1" x1="18.62" y1="86.72" x2="2.15" y2="89.62"/>
      <line class="cls-1" x1="21.27" y1="96.61" x2="5.55" y2="102.34"/>
      <line class="cls-1" x1="25.6" y1="105.9" x2="11.12" y2="114.26"/>
      <line class="cls-1" x1="31.48" y1="114.29" x2="18.67" y2="125.05"/>
      <line class="cls-1" x1="38.73" y1="121.54" x2="27.97" y2="134.35"/>
      <line class="cls-1" x1="47.12" y1="127.41" x2="38.75" y2="141.9"/>
      <line class="cls-1" x1="56.41" y1="131.74" x2="50.68" y2="147.47"/>
      <line class="cls-1" x1="66.3" y1="134.4" x2="63.4" y2="150.87"/>
      <line class="cls-1" x1="76.51" y1="135.29" x2="76.51" y2="152.02"/>
      <line class="cls-1" x1="86.72" y1="134.4" x2="89.62" y2="150.87"/>
      <line class="cls-1" x1="96.61" y1="131.74" x2="102.34" y2="147.47"/>
      <line class="cls-1" x1="105.9" y1="127.41" x2="114.26" y2="141.9"/>
      <line class="cls-1" x1="114.29" y1="121.54" x2="125.05" y2="134.35"/>
      <line class="cls-1" x1="121.54" y1="114.29" x2="134.35" y2="125.05"/>
      <line class="cls-1" x1="127.41" y1="105.9" x2="141.9" y2="114.26"/>
      <line class="cls-1" x1="131.74" y1="96.61" x2="147.47" y2="102.34"/>
      <line class="cls-1" x1="134.4" y1="86.72" x2="150.87" y2="89.62"/>
      <line class="cls-1" x1="135.29" y1="76.51" x2="152.02" y2="76.51"/>
      <line class="cls-1" x1="134.4" y1="66.3" x2="150.87" y2="63.4"/>
      <line class="cls-1" x1="131.74" y1="56.41" x2="147.47" y2="50.68"/>
      <line class="cls-1" x1="127.41" y1="47.12" x2="141.9" y2="38.75"/>
      <line class="cls-1" x1="121.54" y1="38.73" x2="134.35" y2="27.97"/>
      <line class="cls-1" x1="114.29" y1="31.48" x2="125.05" y2="18.67"/>
      <line class="cls-1" x1="105.9" y1="25.6" x2="114.26" y2="11.12"/>
      <line class="cls-1" x1="96.61" y1="21.27" x2="102.34" y2="5.55"/>
      <line class="cls-1" x1="86.72" y1="18.62" x2="89.62" y2="2.15"/>
      <g>
        <circle class="cls-1" cx="76.51" cy="76.51" r="67.37" transform="translate(-31.69 76.51) rotate(-45)"/>
        <circle class="cls-3" cx="76.51" cy="76.51" r="58.78" transform="translate(-11.08 140.03) rotate(-80.95)"/>
        <g>
          <circle class="cls-2" cx="55.71" cy="57.37" r="10.89"/>
          <path class="cls-1" d="M45.51,61.06c-.77,1.38-.87,3.07-.23,4.55-2.21-.62-4.64.31-5.83,2.38-1.22,2.13-.74,4.77,1.01,6.35-2.35.41-4.17,2.43-4.23,4.91-.07,2.48,1.63,4.59,3.96,5.13-1.84,1.49-2.46,4.11-1.34,6.31,1.09,2.14,3.49,3.19,5.74,2.66-.98,2.04-.53,4.55,1.26,6.1h0c1.75,1.51,4.23,1.64,6.08.47-.29,2.15.81,4.33,2.87,5.32.5.24,1.03.39,1.56.46.15,9.06,2.12,16.24,4.54,16.24,2.13,0,3.92-5.59,4.41-13.12,1.89.17,3.7-.72,4.72-2.25.57,2.01,2.34,3.55,4.54,3.72,2.19.17,4.16-1.07,5.05-2.94.81,1.78,2.61,3,4.66,3,.12,0,.24,0,.36-.01,2.2-.15,3.98-1.67,4.57-3.68,1.15,1.75,3.31,2.68,5.46,2.17,2.18-.52,3.69-2.34,3.91-4.45.28.29.6.55.93.77.19,8.89,2.15,15.87,4.53,15.87s4.49-10.74,4.54-20.22c1.62.53,3.47.23,4.87-.94,1.81-1.51,2.31-4.02,1.37-6.07,2.23.58,4.64-.41,5.79-2.52,1.17-2.16.62-4.79-1.17-6.33,2.34-.48,4.1-2.54,4.1-5.02,0-2.1-1.26-3.9-3.06-4.7,1.26-1.49,1.61-3.65.71-5.52-1.04-2.18-3.42-3.28-5.69-2.8,1.03-2.02.62-4.55-1.14-6.14-1.72-1.55-4.21-1.71-6.09-.56.33-2.15-.75-4.35-2.8-5.36-2.02-1-4.38-.54-5.89.97-.18-2.11-1.66-3.98-3.82-4.54h0c-2.15-.55-4.33.34-5.51,2.07-.55-2.01-2.3-3.57-4.5-3.75-2.19-.19-4.17,1.02-5.07,2.9-.49-1.1-1.36-1.99-2.44-2.52"/>
          <path class="cls-1" d="M58.56,52.31c0,2.57,2.08,4.64,4.64,4.64,3.21,0,5.81-2.6,5.81-5.81,0-4.01-3.25-7.26-7.26-7.26-5.01,0-9.07,4.06-9.07,9.07,0,6.26,5.08,11.34,11.34,11.34,7.83,0,14.18-6.35,14.18-14.18,0,0,1.98-12.93-12.76-16.65-14.73-3.73-20.56,11.65-20.56,11.65,0,0-18.63,6.75-14.91,15.37,2.43,5.62,10.33,3.04,15.53.57"/>
        </g>
        <text class="cls-6" transform="translate(50.04 82.87)"><tspan x="0" y="0">EID AL-FITR</tspan></text>
        <text class="cls-5" transform="translate(49.45 93.4)"><tspan class="cls-7" x="0" y="0">MU</tspan><tspan class="cls-9" x="18.16" y="0">B</tspan><tspan class="cls-8" x="25.33" y="0">A</tspan><tspan class="cls-4" x="33.9" y="0">R</tspan><tspan class="cls-8" x="41.68" y="0">AK</tspan></text>
      </g>
    </g>
  </g>
</svg>