<?xml version="1.0" encoding="UTF-8"?>
<svg id="Layer_2" data-name="Layer 2" xmlns="http://www.w3.org/2000/svg" viewBox="0 0 123.15 182.64">
  <defs>
    <style>
      .cls-1 {
        fill: #fff;
      }

      .cls-1, .cls-2, .cls-3 {
        stroke: #546e7a;
        stroke-linecap: round;
        stroke-linejoin: round;
        stroke-width: 2px;
      }

      .cls-2 {
        fill: #b2ebf2;
      }

      .cls-3 {
        fill: #ffca28;
      }

      .cls-4 {
        fill: #546e7a;
        font-family: LeagueGothic-Regular, 'League Gothic';
        font-size: 26.71px;
      }
    </style>
  </defs>
  <g id="OBJECTS">
    <g>
      <g>
        <polygon class="cls-1" points="122.15 133.15 96.13 133.15 96.13 110.77 122.15 110.77 116.98 121.96 122.15 133.15"/>
        <line class="cls-1" x1="110.96" y1="124.74" x2="96.13" y2="133.15"/>
      </g>
      <g>
        <polygon class="cls-1" points="1 133.15 27.02 133.15 27.02 110.77 1 110.77 6.16 121.96 1 133.15"/>
        <line class="cls-1" x1="12.18" y1="124.74" x2="27.02" y2="133.15"/>
      </g>
      <g>
        <line class="cls-1" x1="61.57" y1="8.56" x2="61.57" y2="1"/>
        <path class="cls-2" d="M79.15,39.2h-2c-1.59-7.13-7.96-12.47-15.57-12.47s-13.98,5.33-15.57,12.47h-2c-8.19,0-14.83,6.64-14.83,14.83h0s64.81,0,64.81,0h0c0-8.19-6.64-14.83-14.83-14.83Z"/>
        <path class="cls-1" d="M67.73,14.69c0,3.4-2.76,6.16-6.16,6.16s-6.16-2.76-6.16-6.16,2.76-6.16,6.16-6.16,6.16,2.76,6.16,6.16Z"/>
        <line class="cls-1" x1="61.57" y1="20.85" x2="61.57" y2="26.78"/>
        <rect class="cls-1" x="27.02" y="63.7" width="69.11" height="80.81"/>
        <g>
          <path class="cls-2" d="M81.74,153.59c0,6.29-20.16,16.75-20.16,16.75,0,0-20.16-10.46-20.16-16.75"/>
          <line class="cls-2" x1="61.57" y1="170.34" x2="61.57" y2="175.05"/>
          <path class="cls-2" d="M64.74,178.47c0,1.75-1.42,3.17-3.17,3.17s-3.17-1.42-3.17-3.17,1.42-3.17,3.17-3.17,3.17,1.42,3.17,3.17Z"/>
        </g>
        <polygon class="cls-3" points="55.84 144.51 55.84 78.1 61.57 72.3 67.31 78.1 67.31 144.51 55.84 144.51"/>
        <g>
          <polygon class="cls-3" points="34.21 144.51 34.21 78.1 39.95 72.3 45.68 78.1 45.68 144.51 34.21 144.51"/>
          <polygon class="cls-3" points="77.46 144.51 77.46 78.1 83.2 72.3 88.93 78.1 88.93 144.51 77.46 144.51"/>
        </g>
        <path class="cls-1" d="M94.95,154.19H28.2c-2.67,0-4.84-2.17-4.84-4.84h0c0-2.67,2.17-4.84,4.84-4.84h66.75c2.67,0,4.84,2.17,4.84,4.84h0c0,2.67-2.17,4.84-4.84,4.84Z"/>
        <rect class="cls-1" x="23.36" y="54.03" width="76.42" height="9.67" rx="4.84" ry="4.84"/>
      </g>
      <rect class="cls-1" x="12.18" y="87.35" width="98.78" height="37.39"/>
      <text class="cls-4" transform="translate(20.53 115.62)"><tspan x="0" y="0">EID AL-FITR</tspan></text>
    </g>
  </g>
</svg>