<?xml version="1.0" encoding="UTF-8"?>
<svg id="Layer_2" data-name="Layer 2" xmlns="http://www.w3.org/2000/svg" viewBox="0 0 126.41 126.41">
  <defs>
    <style>
      .cls-1 {
        font-family: GrandHotel-Regular, 'Grand Hotel';
        font-size: 30.67px;
      }

      .cls-1, .cls-2 {
        fill: #546e7a;
      }

      .cls-3 {
        fill: #fff;
      }

      .cls-3, .cls-4 {
        stroke: #546e7a;
        stroke-linecap: round;
        stroke-linejoin: round;
        stroke-width: 2px;
      }

      .cls-4 {
        fill: #ffca28;
      }

      .cls-2 {
        font-family: LeagueGothic-Regular, 'League Gothic';
        font-size: 16.9px;
      }
    </style>
  </defs>
  <g id="OBJECTS">
    <g>
      <g>
        <path class="cls-3" d="M78.58,100.76c-29.23,0-52.93-23.7-52.93-52.93,0-20.32,11.45-37.95,28.25-46.83C23.93,5.65,1,31.56,1,62.83c0,34.56,28.02,62.58,62.58,62.58,31.27,0,57.18-22.93,61.83-52.9-8.87,16.8-26.51,28.25-46.83,28.25Z"/>
        <polygon class="cls-4" points="13.92 41.99 15.54 46.32 20.15 46.52 16.53 49.39 17.77 53.84 13.92 51.29 10.07 53.84 11.31 49.39 7.69 46.52 12.31 46.32 13.92 41.99"/>
        <polygon class="cls-4" points="77.21 104.9 78.83 109.23 83.44 109.43 79.82 112.3 81.06 116.75 77.21 114.2 73.36 116.75 74.6 112.3 70.98 109.43 75.6 109.23 77.21 104.9"/>
        <polygon class="cls-4" points="17.33 64.97 19.49 70.74 25.64 71.01 20.82 74.84 22.47 80.77 17.33 77.37 12.2 80.77 13.85 74.84 9.02 71.01 15.18 70.74 17.33 64.97"/>
        <polygon class="cls-4" points="54.22 101.57 56.38 107.34 62.53 107.6 57.71 111.43 59.36 117.37 54.22 113.97 49.09 117.37 50.74 111.43 45.92 107.6 52.07 107.34 54.22 101.57"/>
        <polygon class="cls-4" points="32 85.86 34.8 93.36 42.79 93.71 36.53 98.69 38.67 106.4 32 101.98 25.32 106.4 27.47 98.69 21.2 93.71 29.2 93.36 32 85.86"/>
      </g>
      <text class="cls-2" transform="translate(37.93 76.33)"><tspan x="0" y="0">EID AL-FITR</tspan></text>
      <text class="cls-1" transform="translate(37.93 58.94)"><tspan x="0" y="0">Mubarak</tspan></text>
    </g>
  </g>
</svg>