<?xml version="1.0" encoding="UTF-8"?>
<svg id="Layer_2" data-name="Layer 2" xmlns="http://www.w3.org/2000/svg" viewBox="0 0 127.37 133.47">
  <defs>
    <style>
      .cls-1 {
        fill: #546e7a;
        font-family: OpenSans-Bold, 'Open Sans';
        font-size: 18.17px;
        font-weight: 700;
      }

      .cls-2 {
        fill: #ff7043;
      }

      .cls-2, .cls-3, .cls-4 {
        stroke: #546e7a;
        stroke-linecap: round;
        stroke-linejoin: round;
        stroke-width: 2px;
      }

      .cls-3 {
        fill: #ffca28;
      }

      .cls-4 {
        fill: none;
      }
    </style>
  </defs>
  <g id="OBJECTS">
    <g>
      <path class="cls-3" d="M119.06,40.4c.57,3.21.88,6.5.88,9.88,0,31.07-25.19,56.26-56.26,56.26S7.43,81.34,7.43,50.27c0-3.37.31-6.67.88-9.88-4.66,8.77-7.31,18.76-7.31,29.38,0,34.62,28.07,62.69,62.69,62.69s62.69-28.07,62.69-62.69c0-10.62-2.65-20.62-7.31-29.38Z"/>
      <path class="cls-4" d="M8.85,82.24c7.02,30.62,37.54,49.76,68.16,42.74"/>
      <g>
        <polygon class="cls-2" points="63.88 50.5 69.56 65.72 85.79 66.42 73.07 76.52 77.42 92.17 63.88 83.2 50.34 92.17 54.69 76.52 41.97 66.42 58.2 65.72 63.88 50.5"/>
        <g>
          <line class="cls-2" x1="63.86" y1="43.1" x2="63.86" y2="25.08"/>
          <line class="cls-2" x1="55.25" y1="44.49" x2="49.09" y2="27.56"/>
          <line class="cls-2" x1="47.63" y1="48.75" x2="36.05" y2="34.95"/>
          <line class="cls-2" x1="41.93" y1="55.35" x2="26.33" y2="46.34"/>
          <line class="cls-2" x1="85.44" y1="55.96" x2="101.04" y2="46.96"/>
          <line class="cls-2" x1="79.92" y1="49.2" x2="91.51" y2="35.4"/>
          <line class="cls-2" x1="72.43" y1="44.74" x2="78.59" y2="27.8"/>
        </g>
      </g>
      <g>
        <text class="cls-1" transform="translate(21.19 34.98) rotate(-44.25)"><tspan x="0" y="0">E</tspan></text>
        <text class="cls-1" transform="translate(28.25 28.26) rotate(-36.45)"><tspan x="0" y="0">I</tspan></text>
        <text class="cls-1" transform="translate(32.48 24.7) rotate(-27.04)"><tspan x="0" y="0">D</tspan></text>
        <text class="cls-1" transform="translate(44.17 19.07) rotate(-18.16)"><tspan x="0" y="0"> </tspan></text>
        <text class="cls-1" transform="translate(48.13 17.44) rotate(-9.77)"><tspan x="0" y="0">A</tspan></text>
        <text class="cls-1" transform="translate(59.91 15.47) rotate(1.18)"><tspan x="0" y="0">L</tspan></text>
        <text class="cls-1" transform="translate(69.75 15.79) rotate(8.96)"><tspan x="0" y="0">-</tspan></text>
        <text class="cls-1" transform="translate(75.14 16.47) rotate(16.66)"><tspan x="0" y="0">F</tspan></text>
        <text class="cls-1" transform="translate(84.26 19.31) rotate(24.46)"><tspan x="0" y="0">I</tspan></text>
        <text class="cls-1" transform="translate(89.43 21.46) rotate(32.49)"><tspan x="0" y="0">T</tspan></text>
        <text class="cls-1" transform="translate(97.88 26.69) rotate(43.33)"><tspan x="0" y="0">R</tspan></text>
      </g>
    </g>
  </g>
</svg>