<?xml version="1.0" encoding="UTF-8"?>
<svg id="Layer_2" data-name="Layer 2" xmlns="http://www.w3.org/2000/svg" xmlns:xlink="http://www.w3.org/1999/xlink" viewBox="0 0 166.67 500">
  <defs>
    <style>
      .cls-1 {
        fill: none;
      }

      .cls-2 {
        fill: #7c7c7c;
      }

      .cls-3 {
        fill: #f7e74b;
      }

      .cls-4 {
        fill: url(#Unnamed_Pattern_7);
      }

      .cls-5 {
        fill: #fff;
      }

      .cls-6 {
        fill: #e89ad6;
      }

      .cls-7 {
        fill: #9eefe4;
      }
    </style>
    <pattern id="Unnamed_Pattern_7" data-name="Unnamed Pattern 7" x="0" y="0" width="226.04" height="226.04" patternTransform="translate(-114.25 -725.9)" patternUnits="userSpaceOnUse" viewBox="0 0 226.04 226.04">
      <g>
        <rect class="cls-1" x="0" y="0" width="226.04" height="226.04"/>
        <g>
          <g>
            <rect class="cls-7" x="169.53" y="113.02" width="113.02" height="113.02"/>
            <path class="cls-6" d="M191.2,130.08l-13.75,3.69,10.07,10.06,3.68-13.75ZM187.55,133.73l-1.37,5.11-3.74-3.74,5.11-1.37Z"/>
            <g>
              <path class="cls-5" d="M191.97,162.94c-.47,3.23-3.49,5.48-6.72,5l-.39,2.68c2.36.34,4.63-.3,6.4-1.62,1.77-1.32,3.04-3.31,3.39-5.67.48-3.23,3.49-5.48,6.72-5l.39-2.68c-4.71-.69-9.1,2.58-9.79,7.29Z"/>
              <path class="cls-5" d="M184.37,198.28c-.47,3.23-3.49,5.48-6.72,5l-.39,2.68c2.36.35,4.63-.3,6.41-1.62,1.77-1.32,3.04-3.31,3.39-5.67.48-3.23,3.49-5.47,6.72-5l.39-2.68c-4.71-.69-9.1,2.58-9.79,7.29Z"/>
              <path class="cls-5" d="M222.59,140.86c-.47,3.23-3.49,5.48-6.72,5l-.39,2.68c2.36.34,4.63-.3,6.41-1.62,1.77-1.32,3.04-3.32,3.39-5.67.48-3.23,3.49-5.48,6.72-5l.39-2.68c-4.71-.69-9.1,2.58-9.79,7.29Z"/>
              <g>
                <path class="cls-5" d="M196.37,117.83l-.39,2.68c2.36.35,4.63-.3,6.4-1.62,1.77-1.32,3.04-3.31,3.39-5.67,0-.07.03-.13.04-.2h-2.76c-.57,3.12-3.52,5.27-6.68,4.8Z"/>
                <path class="cls-5" d="M212.5,221.24l.39-2.68c-4.71-.69-9.1,2.58-9.79,7.29,0,.07-.03.13-.04.2h2.76c.57-3.12,3.52-5.27,6.68-4.8Z"/>
              </g>
            </g>
            <g>
              <path class="cls-3" d="M269.47,166.82l-21.69-13.52-2.89-1.8-5.51,4.04s2.93,3.99,6.72.45l17.36,10.83h-55.05s-17.4-10.85-17.4-10.85l-2.89-1.8-5.51,4.04s2.93,3.99,6.72.45l19.08,11.9v.23l2.37.95v5.59c0,5.65,4.58,10.23,10.23,10.23h5.96c5.65,0,10.23-4.58,10.23-10.23v-5.91h3.49v5.91c0,5.65,4.58,10.23,10.23,10.23h5.96c5.65,0,10.23-4.58,10.23-10.23v-5.59l2.37-.95v-3.98h0Z"/>
              <path d="M214.78,171.42v5.5c0,4.08,3.31,7.38,7.38,7.38h3.37c4.08,0,7.38-3.31,7.38-7.38v-5.5h-18.13Z"/>
            </g>
          </g>
          <path class="cls-2" d="M222.13,171.42l-7.16,7.15c.36,1.56,1.21,2.93,2.38,3.94l11.1-11.1h-6.32Z"/>
        </g>
        <g>
          <rect class="cls-7" x="56.51" y="169.53" width="113.02" height="113.02"/>
          <g>
            <path class="cls-6" d="M78.18,186.59l-13.75,3.69,10.07,10.06,3.68-13.75ZM74.53,190.24l-1.37,5.11-3.74-3.74,5.11-1.37Z"/>
            <path class="cls-6" d="M159.01,200.71l-10.06-10.07-3.68,13.75,13.75-3.68ZM154.03,199.37l-5.11,1.37,1.37-5.11,3.74,3.74Z"/>
          </g>
          <g>
            <path class="cls-5" d="M78.94,219.45c-.47,3.23-3.49,5.48-6.72,5l-.39,2.68c2.36.34,4.63-.3,6.4-1.62,1.77-1.32,3.04-3.31,3.39-5.67.48-3.23,3.49-5.48,6.72-5l.39-2.68c-4.71-.69-9.1,2.58-9.79,7.29Z"/>
            <path class="cls-5" d="M109.56,197.37c-.47,3.23-3.49,5.48-6.72,5l-.39,2.68c2.36.34,4.63-.3,6.41-1.62,1.77-1.32,3.04-3.32,3.39-5.67.48-3.23,3.49-5.48,6.72-5l.39-2.68c-4.71-.69-9.1,2.58-9.79,7.29Z"/>
            <path class="cls-5" d="M83.35,174.34l-.39,2.68c2.36.35,4.63-.3,6.4-1.62,1.77-1.32,3.04-3.31,3.39-5.67,0-.07.03-.13.04-.2h-2.76c-.57,3.12-3.52,5.27-6.68,4.8Z"/>
            <path class="cls-5" d="M142.02,174.34l-.39,2.68c2.36.35,4.63-.3,6.4-1.62,1.77-1.32,3.04-3.31,3.39-5.67,0-.07.03-.13.04-.2h-2.76c-.57,3.12-3.52,5.27-6.68,4.8Z"/>
          </g>
          <path class="cls-3" d="M156.45,223.33l-21.69-13.52-2.89-1.8-5.51,4.04s2.93,3.99,6.72.45l17.36,10.83h-55.05s-17.4-10.85-17.4-10.85l-2.89-1.8-5.51,4.04s2.93,3.99,6.72.45l19.08,11.9v.23l2.37.95v5.59c0,5.65,4.58,10.23,10.23,10.23h5.96c5.65,0,10.23-4.58,10.23-10.23v-5.91h3.49v5.91c0,5.65,4.58,10.23,10.23,10.23h5.96c5.65,0,10.23-4.58,10.23-10.23v-5.59l2.37-.95v-3.98h0Z"/>
        </g>
        <g>
          <g>
            <rect class="cls-7" x="-56.51" y="113.02" width="113.02" height="113.02"/>
            <g>
              <path class="cls-6" d="M14.94,207.46l-10.06-10.07-3.68,13.75,13.75-3.68ZM9.95,206.12l-5.11,1.37,1.37-5.11,3.74,3.74Z"/>
              <path class="cls-6" d="M45.99,144.19l-10.06-10.07-3.68,13.75,13.75-3.68ZM41,142.86l-5.11,1.37,1.37-5.11,3.74,3.74Z"/>
            </g>
            <g>
              <path class="cls-5" d="M43.36,189.78c-.47,3.23-3.49,5.47-6.72,5l-.39,2.68c2.36.35,4.63-.3,6.4-1.62,1.77-1.32,3.04-3.31,3.39-5.67.48-3.23,3.49-5.48,6.72-5l.39-2.68c-4.71-.69-9.1,2.58-9.79,7.29Z"/>
              <path class="cls-5" d="M-3.46,140.86c-.47,3.23-3.49,5.48-6.72,5l-.39,2.68c2.36.34,4.63-.3,6.41-1.62,1.77-1.32,3.04-3.32,3.39-5.67.48-3.23,3.49-5.48,6.72-5l.39-2.68c-4.71-.69-9.1,2.58-9.79,7.29Z"/>
              <g>
                <path class="cls-5" d="M29,117.83l-.39,2.68c2.36.35,4.63-.3,6.4-1.62,1.77-1.32,3.04-3.31,3.39-5.67,0-.07.03-.13.04-.2h-2.76c-.57,3.12-3.52,5.27-6.68,4.8Z"/>
                <path class="cls-5" d="M45.12,221.24l.39-2.68c-4.71-.69-9.1,2.58-9.79,7.29,0,.07-.03.13-.04.2h2.76c.57-3.12,3.52-5.27,6.68-4.8Z"/>
              </g>
            </g>
            <g>
              <path class="cls-3" d="M43.42,166.82l-21.69-13.52-2.89-1.8-5.51,4.04s2.93,3.99,6.72.45l17.36,10.83H-17.63s-17.4-10.85-17.4-10.85l-2.89-1.8-5.51,4.04s2.93,3.99,6.72.45l19.08,11.9v.23l2.37.95v5.59c0,5.65,4.58,10.23,10.23,10.23H.93c5.65,0,10.23-4.58,10.23-10.23v-5.91h3.49v5.91c0,5.65,4.58,10.23,10.23,10.23h5.96c5.65,0,10.23-4.58,10.23-10.23v-5.59l2.37-.95v-3.98h0Z"/>
              <path d="M-11.26,171.42v5.5c0,4.08,3.31,7.38,7.38,7.38H-.51c4.08,0,7.38-3.31,7.38-7.38v-5.5H-11.26Z"/>
              <path d="M37.06,171.42v5.5c0,4.08-3.31,7.38-7.38,7.38h-3.37c-4.08,0-7.38-3.31-7.38-7.38v-5.5h18.13Z"/>
            </g>
          </g>
          <path class="cls-2" d="M-3.91,171.42l-7.16,7.15c.36,1.56,1.21,2.93,2.38,3.94l11.1-11.1H-3.91Z"/>
          <path class="cls-2" d="M20.88,181.91l10.49-10.49h-6.32l-6.09,6.09c.13,1.69.84,3.22,1.92,4.4Z"/>
        </g>
        <g>
          <g>
            <rect class="cls-7" x="169.53" width="113.02" height="113.02"/>
            <path class="cls-6" d="M191.2,17.06l-13.75,3.69,10.07,10.06,3.68-13.75ZM187.55,20.71l-1.37,5.11-3.74-3.74,5.11-1.37Z"/>
            <g>
              <path class="cls-5" d="M191.97,49.92c-.47,3.23-3.49,5.48-6.72,5l-.39,2.68c2.36.34,4.63-.3,6.4-1.62,1.77-1.32,3.04-3.31,3.39-5.67.48-3.23,3.49-5.48,6.72-5l.39-2.68c-4.71-.69-9.1,2.58-9.79,7.29Z"/>
              <path class="cls-5" d="M184.37,85.26c-.47,3.23-3.49,5.48-6.72,5l-.39,2.68c2.36.35,4.63-.3,6.41-1.62,1.77-1.32,3.04-3.31,3.39-5.67.48-3.23,3.49-5.47,6.72-5l.39-2.68c-4.71-.69-9.1,2.58-9.79,7.29Z"/>
              <path class="cls-5" d="M222.59,27.84c-.47,3.23-3.49,5.48-6.72,5l-.39,2.68c2.36.34,4.63-.3,6.41-1.62,1.77-1.32,3.04-3.32,3.39-5.67.48-3.23,3.49-5.48,6.72-5l.39-2.68c-4.71-.69-9.1,2.58-9.79,7.29Z"/>
              <g>
                <path class="cls-5" d="M196.37,4.8l-.39,2.68c2.36.35,4.63-.3,6.4-1.62,1.77-1.32,3.04-3.31,3.39-5.67,0-.07.03-.13.04-.2h-2.76c-.57,3.12-3.52,5.27-6.68,4.8Z"/>
                <path class="cls-5" d="M212.5,108.22l.39-2.68c-4.71-.69-9.1,2.58-9.79,7.29,0,.07-.03.13-.04.2h2.76c.57-3.12,3.52-5.27,6.68-4.8Z"/>
              </g>
            </g>
            <g>
              <path class="cls-3" d="M269.47,53.8l-21.69-13.52-2.89-1.8-5.51,4.04s2.93,3.99,6.72.45l17.36,10.83h-55.05s-17.4-10.85-17.4-10.85l-2.89-1.8-5.51,4.04s2.93,3.99,6.72.45l19.08,11.9v.23l2.37.95v5.59c0,5.65,4.58,10.23,10.23,10.23h5.96c5.65,0,10.23-4.58,10.23-10.23v-5.91h3.49v5.91c0,5.65,4.58,10.23,10.23,10.23h5.96c5.65,0,10.23-4.58,10.23-10.23v-5.59l2.37-.95v-3.98h0Z"/>
              <path d="M214.78,58.4v5.5c0,4.08,3.31,7.38,7.38,7.38h3.37c4.08,0,7.38-3.31,7.38-7.38v-5.5h-18.13Z"/>
            </g>
          </g>
          <path class="cls-2" d="M222.13,58.4l-7.16,7.15c.36,1.56,1.21,2.93,2.38,3.94l11.1-11.1h-6.32Z"/>
        </g>
        <g>
          <g>
            <rect class="cls-7" x="56.51" y="56.51" width="113.02" height="113.02"/>
            <g>
              <path class="cls-6" d="M78.18,73.57l-13.75,3.69,10.07,10.06,3.68-13.75ZM74.53,77.22l-1.37,5.11-3.74-3.74,5.11-1.37Z"/>
              <path class="cls-6" d="M127.96,150.95l-10.06-10.07-3.68,13.75,13.75-3.68ZM122.98,149.61l-5.11,1.37,1.37-5.11,3.74,3.74Z"/>
              <path class="cls-6" d="M159.01,87.68l-10.06-10.07-3.68,13.75,13.75-3.68ZM154.03,86.34l-5.11,1.37,1.37-5.11,3.74,3.74Z"/>
            </g>
            <g>
              <path class="cls-5" d="M78.94,106.43c-.47,3.23-3.49,5.48-6.72,5l-.39,2.68c2.36.34,4.63-.3,6.4-1.62,1.77-1.32,3.04-3.31,3.39-5.67.48-3.23,3.49-5.48,6.72-5l.39-2.68c-4.71-.69-9.1,2.58-9.79,7.29Z"/>
              <path class="cls-5" d="M71.35,141.77c-.47,3.23-3.49,5.48-6.72,5l-.39,2.68c2.36.35,4.63-.3,6.41-1.62,1.77-1.32,3.04-3.31,3.39-5.67.48-3.23,3.49-5.47,6.72-5l.39-2.68c-4.71-.69-9.1,2.58-9.79,7.29Z"/>
              <path class="cls-5" d="M156.38,133.26c-.47,3.23-3.49,5.47-6.72,5l-.39,2.68c2.36.35,4.63-.3,6.4-1.62,1.77-1.32,3.04-3.31,3.39-5.67.48-3.23,3.49-5.48,6.72-5l.39-2.68c-4.71-.69-9.1,2.58-9.79,7.29Z"/>
              <path class="cls-5" d="M109.56,84.35c-.47,3.23-3.49,5.48-6.72,5l-.39,2.68c2.36.34,4.63-.3,6.41-1.62,1.77-1.32,3.04-3.32,3.39-5.67.48-3.23,3.49-5.48,6.72-5l.39-2.68c-4.71-.69-9.1,2.58-9.79,7.29Z"/>
              <g>
                <path class="cls-5" d="M83.35,61.32l-.39,2.68c2.36.35,4.63-.3,6.4-1.62,1.77-1.32,3.04-3.31,3.39-5.67,0-.07.03-.13.04-.2h-2.76c-.57,3.12-3.52,5.27-6.68,4.8Z"/>
                <path class="cls-5" d="M99.48,164.73l.39-2.68c-4.71-.69-9.1,2.58-9.79,7.29,0,.07-.03.13-.04.2h2.76c.57-3.12,3.52-5.27,6.68-4.8Z"/>
              </g>
              <g>
                <path class="cls-5" d="M142.02,61.32l-.39,2.68c2.36.35,4.63-.3,6.4-1.62,1.77-1.32,3.04-3.31,3.39-5.67,0-.07.03-.13.04-.2h-2.76c-.57,3.12-3.52,5.27-6.68,4.8Z"/>
                <path class="cls-5" d="M158.15,164.73l.39-2.68c-4.71-.69-9.1,2.58-9.79,7.29,0,.07-.03.13-.04.2h2.76c.57-3.12,3.52-5.27,6.68-4.8Z"/>
              </g>
            </g>
            <g>
              <path class="cls-3" d="M156.45,110.31l-21.69-13.52-2.89-1.8-5.51,4.04s2.93,3.99,6.72.45l17.36,10.83h-55.05s-17.4-10.85-17.4-10.85l-2.89-1.8-5.51,4.04s2.93,3.99,6.72.45l19.08,11.9v.23l2.37.95v5.59c0,5.65,4.58,10.23,10.23,10.23h5.96c5.65,0,10.23-4.58,10.23-10.23v-5.91h3.49v5.91c0,5.65,4.58,10.23,10.23,10.23h5.96c5.65,0,10.23-4.58,10.23-10.23v-5.59l2.37-.95v-3.98h0Z"/>
              <path d="M101.76,114.91v5.5c0,4.08,3.31,7.38,7.38,7.38h3.37c4.08,0,7.38-3.31,7.38-7.38v-5.5h-18.13Z"/>
              <path d="M150.09,114.91v5.5c0,4.08-3.31,7.38-7.38,7.38h-3.37c-4.08,0-7.38-3.31-7.38-7.38v-5.5h18.13Z"/>
            </g>
          </g>
          <path class="cls-2" d="M109.11,114.91l-7.16,7.15c.36,1.56,1.21,2.93,2.38,3.94l11.1-11.1h-6.32Z"/>
          <path class="cls-2" d="M133.9,125.4l10.49-10.49h-6.32l-6.09,6.09c.13,1.69.84,3.22,1.92,4.4Z"/>
        </g>
        <g>
          <g>
            <rect class="cls-7" x="-56.51" width="113.02" height="113.02"/>
            <g>
              <path class="cls-6" d="M14.94,94.44l-10.06-10.07-3.68,13.75,13.75-3.68ZM9.95,93.1l-5.11,1.37,1.37-5.11,3.74,3.74Z"/>
              <path class="cls-6" d="M45.99,31.17l-10.06-10.07-3.68,13.75,13.75-3.68ZM41,29.83l-5.11,1.37,1.37-5.11,3.74,3.74Z"/>
            </g>
            <g>
              <path class="cls-5" d="M43.36,76.75c-.47,3.23-3.49,5.47-6.72,5l-.39,2.68c2.36.35,4.63-.3,6.4-1.62,1.77-1.32,3.04-3.31,3.39-5.67.48-3.23,3.49-5.48,6.72-5l.39-2.68c-4.71-.69-9.1,2.58-9.79,7.29Z"/>
              <path class="cls-5" d="M-3.46,27.84c-.47,3.23-3.49,5.48-6.72,5l-.39,2.68c2.36.34,4.63-.3,6.41-1.62,1.77-1.32,3.04-3.32,3.39-5.67.48-3.23,3.49-5.48,6.72-5l.39-2.68c-4.71-.69-9.1,2.58-9.79,7.29Z"/>
              <g>
                <path class="cls-5" d="M29,4.8l-.39,2.68c2.36.35,4.63-.3,6.4-1.62,1.77-1.32,3.04-3.31,3.39-5.67,0-.07.03-.13.04-.2h-2.76c-.57,3.12-3.52,5.27-6.68,4.8Z"/>
                <path class="cls-5" d="M45.12,108.22l.39-2.68c-4.71-.69-9.1,2.58-9.79,7.29,0,.07-.03.13-.04.2h2.76c.57-3.12,3.52-5.27,6.68-4.8Z"/>
              </g>
            </g>
            <g>
              <path class="cls-3" d="M43.42,53.8l-21.69-13.52-2.89-1.8-5.51,4.04s2.93,3.99,6.72.45l17.36,10.83H-17.63s-17.4-10.85-17.4-10.85l-2.89-1.8-5.51,4.04s2.93,3.99,6.72.45l19.08,11.9v.23l2.37.95v5.59c0,5.65,4.58,10.23,10.23,10.23H.93c5.65,0,10.23-4.58,10.23-10.23v-5.91h3.49v5.91c0,5.65,4.58,10.23,10.23,10.23h5.96c5.65,0,10.23-4.58,10.23-10.23v-5.59l2.37-.95v-3.98h0Z"/>
              <path d="M-11.26,58.4v5.5c0,4.08,3.31,7.38,7.38,7.38H-.51c4.08,0,7.38-3.31,7.38-7.38v-5.5H-11.26Z"/>
              <path d="M37.06,58.4v5.5c0,4.08-3.31,7.38-7.38,7.38h-3.37c-4.08,0-7.38-3.31-7.38-7.38v-5.5h18.13Z"/>
            </g>
          </g>
          <path class="cls-2" d="M-3.91,58.4l-7.16,7.15c.36,1.56,1.21,2.93,2.38,3.94l11.1-11.1H-3.91Z"/>
          <path class="cls-2" d="M20.88,68.89l10.49-10.49h-6.32l-6.09,6.09c.13,1.69.84,3.22,1.92,4.4Z"/>
        </g>
        <g>
          <g>
            <rect class="cls-7" x="56.51" y="-56.51" width="113.02" height="113.02"/>
            <path class="cls-6" d="M127.96,37.93l-10.06-10.07-3.68,13.75,13.75-3.68ZM122.98,36.59l-5.11,1.37,1.37-5.11,3.74,3.74Z"/>
            <g>
              <path class="cls-5" d="M78.94-6.59c-.47,3.23-3.49,5.48-6.72,5l-.39,2.68c2.36.34,4.63-.3,6.4-1.62,1.77-1.32,3.04-3.31,3.39-5.67.48-3.23,3.49-5.48,6.72-5l.39-2.68c-4.71-.69-9.1,2.58-9.79,7.29Z"/>
              <path class="cls-5" d="M71.35,28.75c-.47,3.23-3.49,5.48-6.72,5l-.39,2.68c2.36.35,4.63-.3,6.41-1.62,1.77-1.32,3.04-3.31,3.39-5.67.48-3.23,3.49-5.47,6.72-5l.39-2.68c-4.71-.69-9.1,2.58-9.79,7.29Z"/>
              <path class="cls-5" d="M156.38,20.24c-.47,3.23-3.49,5.47-6.72,5l-.39,2.68c2.36.35,4.63-.3,6.4-1.62,1.77-1.32,3.04-3.31,3.39-5.67.48-3.23,3.49-5.48,6.72-5l.39-2.68c-4.71-.69-9.1,2.58-9.79,7.29Z"/>
              <path class="cls-5" d="M99.48,51.71l.39-2.68c-4.71-.69-9.1,2.58-9.79,7.29,0,.07-.03.13-.04.2h2.76c.57-3.12,3.52-5.27,6.68-4.8Z"/>
              <path class="cls-5" d="M158.15,51.71l.39-2.68c-4.71-.69-9.1,2.58-9.79,7.29,0,.07-.03.13-.04.2h2.76c.57-3.12,3.52-5.27,6.68-4.8Z"/>
            </g>
            <g>
              <path class="cls-3" d="M156.45-2.71l-21.69-13.52-2.89-1.8-5.51,4.04s2.93,3.99,6.72.45l17.36,10.83h-55.05s-17.4-10.85-17.4-10.85l-2.89-1.8-5.51,4.04s2.93,3.99,6.72.45L95.39,1.03v.23l2.37.95v5.59c0,5.65,4.58,10.23,10.23,10.23h5.96c5.65,0,10.23-4.58,10.23-10.23V1.89h3.49v5.91c0,5.65,4.58,10.23,10.23,10.23h5.96c5.65,0,10.23-4.58,10.23-10.23V2.22l2.37-.95v-3.98h0Z"/>
              <path d="M101.76,1.89v5.5c0,4.08,3.31,7.38,7.38,7.38h3.37c4.08,0,7.38-3.31,7.38-7.38V1.89h-18.13Z"/>
              <path d="M150.09,1.89v5.5c0,4.08-3.31,7.38-7.38,7.38h-3.37c-4.08,0-7.38-3.31-7.38-7.38V1.89h18.13Z"/>
            </g>
          </g>
          <path class="cls-2" d="M109.11,1.89l-7.16,7.15c.36,1.56,1.21,2.93,2.38,3.94l11.1-11.1h-6.32Z"/>
          <path class="cls-2" d="M133.9,12.38l10.49-10.49h-6.32l-6.09,6.09c.13,1.69.84,3.22,1.92,4.4Z"/>
        </g>
      </g>
    </pattern>
  </defs>
  <g id="PATTERN">
    <rect class="cls-4" width="166.67" height="500"/>
  </g>
</svg>