<?xml version="1.0" encoding="UTF-8"?>
<svg id="Layer_2" data-name="Layer 2" xmlns="http://www.w3.org/2000/svg" xmlns:xlink="http://www.w3.org/1999/xlink" viewBox="0 0 500 500">
  <defs>
    <style>
      .cls-1 {
        fill: none;
      }

      .cls-2 {
        fill: #f9f;
      }

      .cls-3 {
        fill: #20d9ff;
      }

      .cls-4 {
        clip-path: url(#clippath-1);
      }

      .cls-5 {
        clip-path: url(#clippath-3);
      }

      .cls-6 {
        clip-path: url(#clippath-4);
      }

      .cls-7 {
        clip-path: url(#clippath-2);
      }

      .cls-8 {
        clip-path: url(#clippath-6);
      }

      .cls-9 {
        clip-path: url(#clippath-5);
      }

      .cls-10 {
        fill: #fff;
      }

      .cls-11 {
        fill: #fff800;
      }

      .cls-12 {
        fill: url(#Nueva_muestra_de_motivo_2);
      }

      .cls-13 {
        fill: #ff2881;
      }

      .cls-14 {
        fill: #6aa8ff;
      }

      .cls-15 {
        clip-path: url(#clippath);
      }

      .cls-16 {
        fill: #0dd676;
      }
    </style>
    <clipPath id="clippath">
      <rect class="cls-1" x="196.47" y="196.61" width="200" height="200"/>
    </clipPath>
    <clipPath id="clippath-1">
      <rect class="cls-1" x="-3.53" y="196.61" width="200" height="200"/>
    </clipPath>
    <clipPath id="clippath-2">
      <path class="cls-13" d="M93.24,170.81c-8.62,8.7-8.55,22.74.15,31.36,8.7,8.62,22.74,8.55,31.36-.15l-31.51-31.21Z"/>
    </clipPath>
    <clipPath id="clippath-3">
      <rect class="cls-1" x="196.47" y="-3.39" width="200" height="200"/>
    </clipPath>
    <clipPath id="clippath-4">
      <rect class="cls-1" x="-3.53" y="-3.39" width="200" height="200"/>
    </clipPath>
    <clipPath id="clippath-5">
      <path class="cls-13" d="M93.24,170.81c-8.62,8.7-8.55,22.74.15,31.36,8.7,8.62,22.74,8.55,31.36-.15l-31.51-31.21Z"/>
    </clipPath>
    <clipPath id="clippath-6">
      <path class="cls-13" d="M93.24-29.19c-8.62,8.7-8.55,22.74.15,31.36,8.7,8.62,22.74,8.55,31.36-.15l-31.51-31.21Z"/>
    </clipPath>
    <pattern id="Nueva_muestra_de_motivo_2" data-name="Nueva muestra de motivo 2" x="0" y="0" width="200" height="200" patternTransform="translate(-2432.66 -2418.07) scale(.7)" patternUnits="userSpaceOnUse" viewBox="0 0 200 200">
      <g>
        <rect class="cls-1" x="0" width="200" height="200"/>
        <g class="cls-15">
          <rect class="cls-2" x="180.47" y="180.61" width="232" height="232"/>
          <g>
            <path class="cls-14" d="M244.6,186.53c-3.04-1.69-7.05-.69-8.74,2.35l-5.62,10.12c-.84,1.51-2.05,1.75-3.56.91l-5.53-3.07,8.65-15.56c4.08-7.33,1.61-16.49-5.73-20.57-7.33-4.08-16.42-1.34-20.49,5.99l-22.74,40.91-4.26-2.37c-1.51-.84-1.89-3.01-1.05-4.53l11.6-20.87c1.69-3.04.42-6.97-2.62-8.66-3.04-1.69-7.05-.69-8.74,2.35l-11.6,20.87c-4.22,7.59-1.49,17.99,6.1,22.21l4.26,2.37-7.29,13.11,26.22,14.58,21.38-38.46,5.53,3.07c7.59,4.22,17.02,1.63,21.24-5.96l5.62-10.12c1.69-3.04.42-6.97-2.62-8.66Z"/>
            <polygon class="cls-11" points="197.75 204.7 196.22 200.17 204.63 197.33 206.16 201.86 197.75 204.7"/>
          </g>
        </g>
        <g class="cls-4">
          <rect class="cls-2" x="-19.53" y="180.61" width="232" height="232"/>
          <g>
            <path class="cls-16" d="M87.68,165.3c-11.66,11.77-11.57,30.77.2,42.43s30.77,11.57,42.43-.2l-42.63-42.23Z"/>
            <path class="cls-10" d="M90.46,168.05c-10.14,10.24-10.06,26.75.17,36.89,10.24,10.14,26.75,10.06,36.89-.17l-37.07-36.72Z"/>
            <g>
              <path class="cls-13" d="M93.24,170.81c-8.62,8.7-8.55,22.74.15,31.36,8.7,8.62,22.74,8.55,31.36-.15l-31.51-31.21Z"/>
              <g class="cls-7">
                <g>
                  <g>
                    <path d="M99.17,159.06c-1.3,1.31-3.42,1.32-4.74.02-1.31-1.3-1.32-3.42-.02-4.74,1.3-1.31,3.42-1.32,4.74-.02,1.31,1.3,1.32,3.42.02,4.74Z"/>
                    <path d="M111.39,171.17c-1.3,1.31-3.42,1.32-4.74.02-1.31-1.3-1.32-3.42-.02-4.74,1.3-1.31,3.42-1.32,4.74-.02,1.31,1.3,1.32,3.42.02,4.74Z"/>
                    <path d="M123.61,183.27c-1.3,1.31-3.42,1.32-4.74.02-1.31-1.3-1.32-3.42-.02-4.74,1.3-1.31,3.42-1.32,4.74-.02,1.31,1.3,1.32,3.42.02,4.74Z"/>
                    <path d="M135.83,195.38c-1.3,1.31-3.42,1.32-4.74.02-1.31-1.3-1.32-3.42-.02-4.74,1.3-1.31,3.42-1.32,4.74-.02,1.31,1.3,1.32,3.42.02,4.74Z"/>
                  </g>
                  <g>
                    <path d="M95.84,174.64c-1.3,1.31-3.42,1.32-4.74.02s-1.32-3.42-.02-4.74c1.3-1.31,3.42-1.32,4.74-.02,1.31,1.3,1.32,3.42.02,4.74Z"/>
                    <path d="M108.07,186.74c-1.3,1.31-3.42,1.32-4.74.02-1.31-1.3-1.32-3.42-.02-4.74,1.3-1.31,3.42-1.32,4.74-.02,1.31,1.3,1.32,3.42.02,4.74Z"/>
                    <path d="M120.29,198.85c-1.3,1.31-3.42,1.32-4.74.02-1.31-1.3-1.32-3.42-.02-4.74,1.3-1.31,3.42-1.32,4.74-.02,1.31,1.3,1.32,3.42.02,4.74Z"/>
                  </g>
                  <g>
                    <path d="M79.36,179.06c-1.3,1.31-3.42,1.32-4.74.02-1.31-1.3-1.32-3.42-.02-4.74,1.3-1.31,3.42-1.32,4.74-.02,1.31,1.3,1.32,3.42.02,4.74Z"/>
                    <path d="M91.58,191.17c-1.3,1.31-3.42,1.32-4.74.02-1.31-1.3-1.32-3.42-.02-4.74,1.3-1.32,3.42-1.32,4.74-.02,1.31,1.3,1.32,3.42.02,4.74Z"/>
                    <path d="M103.8,203.27c-1.3,1.31-3.42,1.32-4.74.02-1.31-1.3-1.32-3.42-.02-4.74,1.3-1.31,3.42-1.32,4.74-.02,1.31,1.3,1.32,3.42.02,4.74Z"/>
                  </g>
                  <path d="M76.03,194.64c-1.3,1.31-3.42,1.32-4.74.02-1.31-1.3-1.32-3.42-.02-4.74,1.3-1.31,3.42-1.32,4.74-.02,1.31,1.3,1.32,3.42.02,4.74Z"/>
                </g>
              </g>
            </g>
          </g>
          <g>
            <path class="cls-14" d="M44.6,186.53c-3.04-1.69-7.05-.69-8.74,2.35l-5.62,10.12c-.84,1.51-2.05,1.75-3.56.91l-5.53-3.07,8.65-15.56c4.08-7.33,1.61-16.49-5.73-20.57-7.33-4.08-16.42-1.34-20.49,5.99l-22.74,40.91-4.26-2.37c-1.51-.84-1.89-3.01-1.05-4.53l11.6-20.87c1.69-3.04.42-6.97-2.62-8.66-3.04-1.69-7.05-.69-8.74,2.35l-11.6,20.87c-4.22,7.59-1.49,17.99,6.1,22.21l4.26,2.37-7.29,13.11,26.22,14.58,21.38-38.46,5.53,3.07c7.59,4.22,17.02,1.63,21.24-5.96l5.62-10.12c1.69-3.04.42-6.97-2.62-8.66Z"/>
            <polygon class="cls-11" points="13.7 181.96 10.86 173.54 15.39 172.01 18.23 180.43 13.7 181.96"/>
            <polygon class="cls-11" points="-2.25 204.7 -3.78 200.17 4.63 197.33 6.16 201.86 -2.25 204.7"/>
          </g>
          <g>
            <path class="cls-14" d="M244.6,186.53c-3.04-1.69-7.05-.69-8.74,2.35l-5.62,10.12c-.84,1.51-2.05,1.75-3.56.91l-5.53-3.07,8.65-15.56c4.08-7.33,1.61-16.49-5.73-20.57-7.33-4.08-16.42-1.34-20.49,5.99l-22.74,40.91-4.26-2.37c-1.51-.84-1.89-3.01-1.05-4.53l11.6-20.87c1.69-3.04.42-6.97-2.62-8.66-3.04-1.69-7.05-.69-8.74,2.35l-11.6,20.87c-4.22,7.59-1.49,17.99,6.1,22.21l4.26,2.37-7.29,13.11,26.22,14.58,21.38-38.46,5.53,3.07c7.59,4.22,17.02,1.63,21.24-5.96l5.62-10.12c1.69-3.04.42-6.97-2.62-8.66Z"/>
            <polygon class="cls-11" points="197.75 204.7 196.22 200.17 204.63 197.33 206.16 201.86 197.75 204.7"/>
          </g>
        </g>
        <g class="cls-5">
          <rect class="cls-2" x="180.47" y="-19.39" width="232" height="232"/>
          <g>
            <path class="cls-10" d="M235.81,94.78l.87-4.33-31.07-6.28c-4.93-.99-9.82,2.19-10.9,7.1l4.31.95c.57-2.57,3.13-4.24,5.71-3.72l31.07,6.28Z"/>
            <circle class="cls-10" cx="202.27" cy="112.48" r="12.15"/>
            <path d="M194.58,114.76c1.26,4.25,5.72,6.67,9.97,5.42,4.25-1.26,6.67-5.72,5.42-9.97-1.26-4.25-5.72-6.67-9.97-5.42-4.25,1.26-6.67,5.72-5.42,9.97Z"/>
            <path class="cls-10" d="M193.13,109.93l.87-4.33-31.07-6.28c-4.93-1-9.82,2.19-10.9,7.1l4.31.95c.57-2.57,3.13-4.24,5.71-3.72l31.07,6.28Z"/>
          </g>
          <g>
            <path class="cls-14" d="M244.6-13.47c-3.04-1.69-7.05-.69-8.74,2.35l-5.62,10.12c-.84,1.51-2.05,1.75-3.56.91l-5.53-3.07,8.65-15.56c4.08-7.33,1.61-16.49-5.73-20.57-7.33-4.08-16.42-1.34-20.49,5.99l-22.74,40.91-4.26-2.37c-1.51-.84-1.89-3.01-1.05-4.53l11.6-20.87c1.69-3.04.42-6.97-2.62-8.66-3.04-1.69-7.05-.69-8.74,2.35l-11.6,20.87c-4.22,7.59-1.49,17.99,6.1,22.21l4.26,2.37-7.29,13.11,26.22,14.58,21.38-38.46,5.53,3.07c7.59,4.22,17.02,1.63,21.24-5.96l5.62-10.12c1.69-3.04.42-6.97-2.62-8.66Z"/>
            <polygon class="cls-11" points="186.99 30.02 184.15 21.6 188.68 20.07 191.52 28.49 186.99 30.02"/>
            <polygon class="cls-11" points="197.75 4.7 196.22 .17 204.63 -2.67 206.16 1.86 197.75 4.7"/>
          </g>
          <g>
            <path class="cls-14" d="M244.6,186.53c-3.04-1.69-7.05-.69-8.74,2.35l-5.62,10.12c-.84,1.51-2.05,1.75-3.56.91l-5.53-3.07,8.65-15.56c4.08-7.33,1.61-16.49-5.73-20.57-7.33-4.08-16.42-1.34-20.49,5.99l-22.74,40.91-4.26-2.37c-1.51-.84-1.89-3.01-1.05-4.53l11.6-20.87c1.69-3.04.42-6.97-2.62-8.66-3.04-1.69-7.05-.69-8.74,2.35l-11.6,20.87c-4.22,7.59-1.49,17.99,6.1,22.21l4.26,2.37-7.29,13.11,26.22,14.58,21.38-38.46,5.53,3.07c7.59,4.22,17.02,1.63,21.24-5.96l5.62-10.12c1.69-3.04.42-6.97-2.62-8.66Z"/>
            <polygon class="cls-11" points="197.75 204.7 196.22 200.17 204.63 197.33 206.16 201.86 197.75 204.7"/>
          </g>
        </g>
        <g class="cls-6">
          <rect class="cls-2" x="-19.53" y="-19.39" width="232" height="232"/>
          <g>
            <path class="cls-16" d="M87.68,165.3c-11.66,11.77-11.57,30.77.2,42.43s30.77,11.57,42.43-.2l-42.63-42.23Z"/>
            <path class="cls-10" d="M90.46,168.05c-10.14,10.24-10.06,26.75.17,36.89,10.24,10.14,26.75,10.06,36.89-.17l-37.07-36.72Z"/>
            <g>
              <path class="cls-13" d="M93.24,170.81c-8.62,8.7-8.55,22.74.15,31.36,8.7,8.62,22.74,8.55,31.36-.15l-31.51-31.21Z"/>
              <g class="cls-9">
                <g>
                  <g>
                    <path d="M99.17,159.06c-1.3,1.31-3.42,1.32-4.74.02-1.31-1.3-1.32-3.42-.02-4.74,1.3-1.31,3.42-1.32,4.74-.02,1.31,1.3,1.32,3.42.02,4.74Z"/>
                    <path d="M111.39,171.17c-1.3,1.31-3.42,1.32-4.74.02-1.31-1.3-1.32-3.42-.02-4.74,1.3-1.31,3.42-1.32,4.74-.02,1.31,1.3,1.32,3.42.02,4.74Z"/>
                    <path d="M123.61,183.27c-1.3,1.31-3.42,1.32-4.74.02-1.31-1.3-1.32-3.42-.02-4.74,1.3-1.31,3.42-1.32,4.74-.02,1.31,1.3,1.32,3.42.02,4.74Z"/>
                    <path d="M135.83,195.38c-1.3,1.31-3.42,1.32-4.74.02-1.31-1.3-1.32-3.42-.02-4.74,1.3-1.31,3.42-1.32,4.74-.02,1.31,1.3,1.32,3.42.02,4.74Z"/>
                    <path d="M148.06,207.49c-1.3,1.31-3.42,1.32-4.74.02-1.31-1.3-1.32-3.42-.02-4.74,1.3-1.31,3.42-1.32,4.74-.02,1.31,1.3,1.32,3.42.02,4.74Z"/>
                  </g>
                  <g>
                    <path d="M95.84,174.64c-1.3,1.31-3.42,1.32-4.74.02s-1.32-3.42-.02-4.74c1.3-1.31,3.42-1.32,4.74-.02,1.31,1.3,1.32,3.42.02,4.74Z"/>
                    <path d="M108.07,186.74c-1.3,1.31-3.42,1.32-4.74.02-1.31-1.3-1.32-3.42-.02-4.74,1.3-1.31,3.42-1.32,4.74-.02,1.31,1.3,1.32,3.42.02,4.74Z"/>
                    <path d="M120.29,198.85c-1.3,1.31-3.42,1.32-4.74.02-1.31-1.3-1.32-3.42-.02-4.74,1.3-1.31,3.42-1.32,4.74-.02,1.31,1.3,1.32,3.42.02,4.74Z"/>
                    <path d="M132.51,210.96c-1.3,1.31-3.42,1.32-4.74.02-1.31-1.3-1.32-3.42-.02-4.74,1.3-1.31,3.42-1.32,4.74-.02,1.31,1.3,1.32,3.42.02,4.74Z"/>
                  </g>
                  <g>
                    <path d="M79.36,179.06c-1.3,1.31-3.42,1.32-4.74.02-1.31-1.3-1.32-3.42-.02-4.74,1.3-1.31,3.42-1.32,4.74-.02,1.31,1.3,1.32,3.42.02,4.74Z"/>
                    <path d="M91.58,191.17c-1.3,1.31-3.42,1.32-4.74.02-1.31-1.3-1.32-3.42-.02-4.74,1.3-1.32,3.42-1.32,4.74-.02,1.31,1.3,1.32,3.42.02,4.74Z"/>
                    <path d="M103.8,203.27c-1.3,1.31-3.42,1.32-4.74.02-1.31-1.3-1.32-3.42-.02-4.74,1.3-1.31,3.42-1.32,4.74-.02,1.31,1.3,1.32,3.42.02,4.74Z"/>
                    <path d="M116.02,215.38c-1.3,1.31-3.42,1.32-4.74.02-1.31-1.3-1.32-3.42-.02-4.74,1.3-1.31,3.42-1.32,4.74-.02,1.31,1.3,1.32,3.42.02,4.74Z"/>
                    <path d="M128.24,227.49c-1.3,1.31-3.42,1.32-4.74.02-1.31-1.3-1.32-3.42-.02-4.74,1.3-1.31,3.42-1.32,4.74-.02,1.31,1.3,1.32,3.42.02,4.74Z"/>
                  </g>
                  <g>
                    <path d="M76.03,194.64c-1.3,1.31-3.42,1.32-4.74.02-1.31-1.3-1.32-3.42-.02-4.74,1.3-1.31,3.42-1.32,4.74-.02,1.31,1.3,1.32,3.42.02,4.74Z"/>
                    <path d="M88.25,206.74c-1.3,1.31-3.42,1.32-4.74.02-1.31-1.3-1.32-3.42-.02-4.74,1.3-1.31,3.42-1.32,4.74-.02,1.31,1.3,1.32,3.42.02,4.74Z"/>
                    <path d="M100.48,218.85c-1.3,1.31-3.42,1.32-4.74.02-1.31-1.3-1.32-3.42-.02-4.74,1.3-1.31,3.42-1.32,4.74-.02,1.31,1.3,1.32,3.42.02,4.74Z"/>
                    <path d="M112.7,230.96c-1.3,1.31-3.42,1.32-4.74.02-1.31-1.3-1.32-3.42-.02-4.74,1.3-1.31,3.42-1.32,4.74-.02,1.31,1.3,1.32,3.42.02,4.74Z"/>
                  </g>
                </g>
              </g>
            </g>
          </g>
          <g>
            <path class="cls-16" d="M87.68-34.7c-11.66,11.77-11.57,30.77.2,42.43s30.77,11.57,42.43-.2l-42.63-42.23Z"/>
            <path class="cls-10" d="M90.46-31.95c-10.14,10.24-10.06,26.75.17,36.89,10.24,10.14,26.75,10.06,36.89-.17l-37.07-36.72Z"/>
            <g>
              <path class="cls-13" d="M93.24-29.19c-8.62,8.7-8.55,22.74.15,31.36,8.7,8.62,22.74,8.55,31.36-.15l-31.51-31.21Z"/>
              <g class="cls-8">
                <g>
                  <g>
                    <path d="M99.17-40.94c-1.3,1.31-3.42,1.32-4.74.02-1.31-1.3-1.32-3.42-.02-4.74,1.3-1.31,3.42-1.32,4.74-.02,1.31,1.3,1.32,3.42.02,4.74Z"/>
                    <path d="M111.39-28.83c-1.3,1.31-3.42,1.32-4.74.02-1.31-1.3-1.32-3.42-.02-4.74,1.3-1.31,3.42-1.32,4.74-.02,1.31,1.3,1.32,3.42.02,4.74Z"/>
                    <path d="M123.61-16.73c-1.3,1.31-3.42,1.32-4.74.02-1.31-1.3-1.32-3.42-.02-4.74,1.3-1.31,3.42-1.32,4.74-.02,1.31,1.3,1.32,3.42.02,4.74Z"/>
                    <path d="M135.83-4.62c-1.3,1.31-3.42,1.32-4.74.02-1.31-1.3-1.32-3.42-.02-4.74,1.3-1.31,3.42-1.32,4.74-.02,1.31,1.3,1.32,3.42.02,4.74Z"/>
                    <path d="M148.06,7.49c-1.3,1.31-3.42,1.32-4.74.02-1.31-1.3-1.32-3.42-.02-4.74,1.3-1.31,3.42-1.32,4.74-.02,1.31,1.3,1.32,3.42.02,4.74Z"/>
                  </g>
                  <g>
                    <path d="M95.84-25.36c-1.3,1.31-3.42,1.32-4.74.02s-1.32-3.42-.02-4.74c1.3-1.31,3.42-1.32,4.74-.02,1.31,1.3,1.32,3.42.02,4.74Z"/>
                    <path d="M108.07-13.26c-1.3,1.31-3.42,1.32-4.74.02-1.31-1.3-1.32-3.42-.02-4.74,1.3-1.31,3.42-1.32,4.74-.02,1.31,1.3,1.32,3.42.02,4.74Z"/>
                    <path d="M120.29-1.15c-1.3,1.31-3.42,1.32-4.74.02-1.31-1.3-1.32-3.42-.02-4.74,1.3-1.31,3.42-1.32,4.74-.02,1.31,1.3,1.32,3.42.02,4.74Z"/>
                    <path d="M132.51,10.96c-1.3,1.31-3.42,1.32-4.74.02-1.31-1.3-1.32-3.42-.02-4.74,1.3-1.31,3.42-1.32,4.74-.02,1.31,1.3,1.32,3.42.02,4.74Z"/>
                  </g>
                  <g>
                    <path d="M79.36-20.94c-1.3,1.31-3.42,1.32-4.74.02-1.31-1.3-1.32-3.42-.02-4.74,1.3-1.31,3.42-1.32,4.74-.02,1.31,1.3,1.32,3.42.02,4.74Z"/>
                    <path d="M91.58-8.83c-1.3,1.31-3.42,1.32-4.74.02-1.31-1.3-1.32-3.42-.02-4.74,1.3-1.32,3.42-1.32,4.74-.02,1.31,1.3,1.32,3.42.02,4.74Z"/>
                    <path d="M103.8,3.27c-1.3,1.31-3.42,1.32-4.74.02-1.31-1.3-1.32-3.42-.02-4.74,1.3-1.31,3.42-1.32,4.74-.02,1.31,1.3,1.32,3.42.02,4.74Z"/>
                    <path d="M116.02,15.38c-1.3,1.31-3.42,1.32-4.74.02-1.31-1.3-1.32-3.42-.02-4.74,1.3-1.31,3.42-1.32,4.74-.02,1.31,1.3,1.32,3.42.02,4.74Z"/>
                    <path d="M128.24,27.49c-1.3,1.31-3.42,1.32-4.74.02-1.31-1.3-1.32-3.42-.02-4.74,1.3-1.31,3.42-1.32,4.74-.02,1.31,1.3,1.32,3.42.02,4.74Z"/>
                  </g>
                  <g>
                    <path d="M76.03-5.36c-1.3,1.31-3.42,1.32-4.74.02-1.31-1.3-1.32-3.42-.02-4.74,1.3-1.31,3.42-1.32,4.74-.02,1.31,1.3,1.32,3.42.02,4.74Z"/>
                    <path d="M88.25,6.74c-1.3,1.31-3.42,1.32-4.74.02-1.31-1.3-1.32-3.42-.02-4.74,1.3-1.31,3.42-1.32,4.74-.02,1.31,1.3,1.32,3.42.02,4.74Z"/>
                    <path d="M100.48,18.85c-1.3,1.31-3.42,1.32-4.74.02-1.31-1.3-1.32-3.42-.02-4.74,1.3-1.31,3.42-1.32,4.74-.02,1.31,1.3,1.32,3.42.02,4.74Z"/>
                    <path d="M112.7,30.96c-1.3,1.31-3.42,1.32-4.74.02-1.31-1.3-1.32-3.42-.02-4.74,1.3-1.31,3.42-1.32,4.74-.02,1.31,1.3,1.32,3.42.02,4.74Z"/>
                  </g>
                </g>
              </g>
            </g>
          </g>
          <path class="cls-11" d="M54.87,98.14s9.54,5.44,22.2,8.83c.81.22,1.62.42,2.41.61-.85-.02-1.71-.04-2.58-.04-13.1,0-23.72,2.78-23.72,2.78,0,0,10.62,2.78,23.72,2.78.84,0,1.67-.01,2.49-.03-.82.2-1.66.41-2.5.63-12.66,3.39-22.2,8.83-22.2,8.83,0,0,10.98-.06,23.64-3.45.81-.22,1.61-.44,2.4-.68-.74.4-1.49.82-2.25,1.26-11.35,6.55-19.16,14.27-19.16,14.27,0,0,10.59-2.9,21.94-9.45.73-.42,1.44-.85,2.14-1.27-.61.58-1.23,1.18-1.85,1.8-9.26,9.26-14.81,18.74-14.81,18.74,0,0,9.48-5.54,18.74-14.81.59-.59,1.17-1.19,1.74-1.78-.44.72-.88,1.46-1.32,2.21-6.55,11.35-9.45,21.94-9.45,21.94,0,0,7.72-7.81,14.27-19.16.42-.73.83-1.45,1.22-2.17-.24.81-.48,1.64-.7,2.48-3.39,12.66-3.45,23.64-3.45,23.64,0,0,5.44-9.54,8.83-22.2.22-.81.42-1.62.61-2.41-.02.85-.04,1.7-.04,2.58,0,13.1,2.78,23.72,2.78,23.72,0,0,2.78-10.62,2.78-23.72,0-.84-.01-1.67-.03-2.49.2.82.41,1.66.63,2.5,3.39,12.66,8.83,22.2,8.83,22.2,0,0-.06-10.98-3.45-23.64-.22-.81-.44-1.61-.68-2.4.4.74.82,1.49,1.26,2.25,6.55,11.35,14.27,19.16,14.27,19.16,0,0-2.9-10.59-9.45-21.94-.42-.73-.85-1.44-1.27-2.14.58.61,1.18,1.23,1.8,1.85,9.26,9.26,18.74,14.81,18.74,14.81,0,0-5.54-9.48-14.81-18.74-.59-.59-1.19-1.17-1.78-1.74.72.44,1.46.88,2.21,1.32,11.35,6.55,21.94,9.45,21.94,9.45,0,0-7.81-7.72-19.16-14.27-.73-.42-1.45-.83-2.17-1.22.81.24,1.64.48,2.48.7,12.66,3.39,23.64,3.45,23.64,3.45,0,0-9.54-5.44-22.2-8.83-.81-.22-1.62-.42-2.41-.61.85.02,1.7.04,2.58.04,13.1,0,23.72-2.78,23.72-2.78,0,0-10.62-2.78-23.72-2.78-.84,0-1.67.01-2.49.03.82-.2,1.66-.41,2.5-.63,12.66-3.39,22.2-8.83,22.2-8.83,0,0-10.98.06-23.64,3.45-.81.22-1.61.44-2.4.68.74-.4,1.49-.82,2.25-1.26,11.35-6.55,19.16-14.27,19.16-14.27,0,0-10.59,2.9-21.94,9.45-.73.42-1.44.85-2.14,1.27.61-.58,1.23-1.18,1.85-1.8,9.26-9.26,14.81-18.74,14.81-18.74,0,0-9.48,5.54-18.74,14.81-.59.59-1.17,1.19-1.74,1.78.44-.72.88-1.46,1.32-2.21,6.55-11.35,9.24-21.94,9.24-21.94,0,0-14.8,19.07-20.8,27.53v-37.32c0-1.35-1.15-2.44-2.5-2.44s-2.5,1.09-2.5,2.44v37.99c-8-8.96-20.8-28.53-20.8-28.53,0,0,2.75,10.59,9.3,21.94.42.73.77,1.44,1.2,2.14-.58-.61-1.22-1.23-1.83-1.85-9.26-9.26-18.76-14.81-18.76-14.81,0,0,5.53,9.48,14.8,18.74.59.59,1.19,1.17,1.78,1.74-.72-.44-1.46-.88-2.21-1.32-11.35-6.55-21.94-9.45-21.94-9.45,0,0,7.81,7.72,19.15,14.27.73.42,1.45.83,2.17,1.22-.81-.24-1.64-.48-2.48-.7-12.66-3.39-23.64-3.45-23.64-3.45Z"/>
          <g>
            <path class="cls-10" d="M35.81,94.78l.88-4.33-31.07-6.28c-4.93-.99-9.82,2.19-10.9,7.1l4.31.95c.57-2.57,3.13-4.24,5.71-3.72l31.07,6.28Z"/>
            <path class="cls-10" d="M14.13,110.27l1.94-4.4c.2-.45.52-.76,1.03-.94.47-.16.96-.11,1.39.12l4,2.2,2.13-3.87-4-2.2c-1.51-.83-3.31-.99-4.94-.44-1.63.56-2.96,1.77-3.66,3.34l-1.94,4.4,4.04,1.78Z"/>
            <circle class="cls-10" cx="32.81" cy="101.65" r="12.15" transform="translate(-40.2 23.69) rotate(-25.23)"/>
            <circle cx="32.81" cy="101.65" r="8.02" transform="translate(-44.09 27.52) rotate(-28.16)"/>
            <circle class="cls-10" cx="2.27" cy="112.48" r="12.15"/>
            <path d="M-5.42,114.76c1.26,4.25,5.72,6.67,9.97,5.42,4.25-1.26,6.67-5.72,5.42-9.97S4.25,103.54,0,104.79c-4.25,1.26-6.67,5.72-5.42,9.97Z"/>
            <path class="cls-10" d="M-6.87,109.93l.88-4.33-31.07-6.28c-4.93-1-9.82,2.19-10.9,7.1l4.31.95c.57-2.57,3.13-4.24,5.71-3.72l31.07,6.28Z"/>
          </g>
          <g>
            <path class="cls-10" d="M235.81,94.78l.87-4.33-31.07-6.28c-4.93-.99-9.82,2.19-10.9,7.1l4.31.95c.57-2.57,3.13-4.24,5.71-3.72l31.07,6.28Z"/>
            <path class="cls-10" d="M214.13,110.27l1.94-4.4c.2-.45.52-.76,1.03-.94.47-.16.96-.11,1.39.12l4,2.2,2.13-3.87-4-2.2c-1.51-.83-3.31-.99-4.94-.44-1.63.56-2.96,1.77-3.66,3.34l-1.94,4.4,4.04,1.78Z"/>
            <circle class="cls-10" cx="232.81" cy="101.65" r="12.15" transform="translate(-21.09 109.94) rotate(-25.46)"/>
            <circle cx="232.81" cy="101.65" r="8.02" transform="translate(-20.28 123.51) rotate(-28.52)"/>
            <circle class="cls-10" cx="202.27" cy="112.48" r="12.15"/>
            <path d="M194.58,114.76c1.26,4.25,5.72,6.67,9.97,5.42,4.25-1.26,6.67-5.72,5.42-9.97-1.26-4.25-5.72-6.67-9.97-5.42-4.25,1.26-6.67,5.72-5.42,9.97Z"/>
            <path class="cls-10" d="M193.13,109.93l.87-4.33-31.07-6.28c-4.93-1-9.82,2.19-10.9,7.1l4.31.95c.57-2.57,3.13-4.24,5.71-3.72l31.07,6.28Z"/>
          </g>
          <polygon class="cls-11" points="28.63 42.62 34.11 52.1 23.16 52.1 28.63 42.62"/>
          <polygon class="cls-3" points="152.47 158.12 157.94 167.6 146.99 167.6 152.47 158.12"/>
          <polygon class="cls-10" points="47.83 148.73 51.42 159.08 40.66 157.01 47.83 148.73"/>
          <polygon class="cls-3" points="141.61 20.84 152.32 18.53 148.96 28.96 141.61 20.84"/>
          <polygon class="cls-16" points="165.8 69.6 160.32 60.11 171.28 60.11 165.8 69.6"/>
          <g>
            <path class="cls-14" d="M44.6-13.47c-3.04-1.69-7.05-.69-8.74,2.35L30.23-1c-.84,1.51-2.05,1.75-3.56.91l-5.53-3.07,8.65-15.56c4.08-7.33,1.61-16.49-5.73-20.57-7.33-4.08-16.42-1.34-20.49,5.99L-19.17,7.6l-4.26-2.37c-1.51-.84-1.89-3.01-1.05-4.53l11.6-20.87c1.69-3.04.42-6.97-2.62-8.66-3.04-1.69-7.05-.69-8.74,2.35l-11.6,20.87c-4.22,7.59-1.49,17.99,6.1,22.21l4.26,2.37-7.29,13.11,26.22,14.58L14.82,8.19l5.53,3.07c7.59,4.22,17.02,1.63,21.24-5.96l5.62-10.12c1.69-3.04.42-6.97-2.62-8.66Z"/>
            <polygon class="cls-11" points="-13.01 30.02 -15.85 21.6 -11.32 20.07 -8.48 28.49 -13.01 30.02"/>
            <polygon class="cls-11" points="13.7 -18.04 10.86 -26.46 15.39 -27.99 18.23 -19.57 13.7 -18.04"/>
            <polygon class="cls-11" points="-2.25 4.7 -3.78 .17 4.63 -2.67 6.16 1.86 -2.25 4.7"/>
          </g>
          <g>
            <path class="cls-14" d="M244.6-13.47c-3.04-1.69-7.05-.69-8.74,2.35l-5.62,10.12c-.84,1.51-2.05,1.75-3.56.91l-5.53-3.07,8.65-15.56c4.08-7.33,1.61-16.49-5.73-20.57-7.33-4.08-16.42-1.34-20.49,5.99l-22.74,40.91-4.26-2.37c-1.51-.84-1.89-3.01-1.05-4.53l11.6-20.87c1.69-3.04.42-6.97-2.62-8.66-3.04-1.69-7.05-.69-8.74,2.35l-11.6,20.87c-4.22,7.59-1.49,17.99,6.1,22.21l4.26,2.37-7.29,13.11,26.22,14.58,21.38-38.46,5.53,3.07c7.59,4.22,17.02,1.63,21.24-5.96l5.62-10.12c1.69-3.04.42-6.97-2.62-8.66Z"/>
            <polygon class="cls-11" points="186.99 30.02 184.15 21.6 188.68 20.07 191.52 28.49 186.99 30.02"/>
            <polygon class="cls-11" points="213.7 -18.04 210.86 -26.46 215.39 -27.99 218.23 -19.57 213.7 -18.04"/>
            <polygon class="cls-11" points="197.75 4.7 196.22 .17 204.63 -2.67 206.16 1.86 197.75 4.7"/>
          </g>
          <g>
            <path class="cls-14" d="M44.6,186.53c-3.04-1.69-7.05-.69-8.74,2.35l-5.62,10.12c-.84,1.51-2.05,1.75-3.56.91l-5.53-3.07,8.65-15.56c4.08-7.33,1.61-16.49-5.73-20.57-7.33-4.08-16.42-1.34-20.49,5.99l-22.74,40.91-4.26-2.37c-1.51-.84-1.89-3.01-1.05-4.53l11.6-20.87c1.69-3.04.42-6.97-2.62-8.66-3.04-1.69-7.05-.69-8.74,2.35l-11.6,20.87c-4.22,7.59-1.49,17.99,6.1,22.21l4.26,2.37-7.29,13.11,26.22,14.58,21.38-38.46,5.53,3.07c7.59,4.22,17.02,1.63,21.24-5.96l5.62-10.12c1.69-3.04.42-6.97-2.62-8.66Z"/>
            <polygon class="cls-11" points="-13.01 230.02 -15.85 221.6 -11.32 220.07 -8.48 228.49 -13.01 230.02"/>
            <polygon class="cls-11" points="13.7 181.96 10.86 173.54 15.39 172.01 18.23 180.43 13.7 181.96"/>
            <polygon class="cls-11" points="-2.25 204.7 -3.78 200.17 4.63 197.33 6.16 201.86 -2.25 204.7"/>
          </g>
          <g>
            <path class="cls-14" d="M244.6,186.53c-3.04-1.69-7.05-.69-8.74,2.35l-5.62,10.12c-.84,1.51-2.05,1.75-3.56.91l-5.53-3.07,8.65-15.56c4.08-7.33,1.61-16.49-5.73-20.57-7.33-4.08-16.42-1.34-20.49,5.99l-22.74,40.91-4.26-2.37c-1.51-.84-1.89-3.01-1.05-4.53l11.6-20.87c1.69-3.04.42-6.97-2.62-8.66-3.04-1.69-7.05-.69-8.74,2.35l-11.6,20.87c-4.22,7.59-1.49,17.99,6.1,22.21l4.26,2.37-7.29,13.11,26.22,14.58,21.38-38.46,5.53,3.07c7.59,4.22,17.02,1.63,21.24-5.96l5.62-10.12c1.69-3.04.42-6.97-2.62-8.66Z"/>
            <polygon class="cls-11" points="186.99 230.02 184.15 221.6 188.68 220.07 191.52 228.49 186.99 230.02"/>
            <polygon class="cls-11" points="213.7 181.96 210.86 173.54 215.39 172.01 218.23 180.43 213.7 181.96"/>
            <polygon class="cls-11" points="197.75 204.7 196.22 200.17 204.63 197.33 206.16 201.86 197.75 204.7"/>
          </g>
          <g>
            <path class="cls-13" d="M99.13,53.91v-15.76s-7.87.56-19.41.56-27.71,5.91-23.77,23.63c0,0,8.37-8.72,22.72-8.72s20.47.28,20.47.28Z"/>
            <path d="M66.22,44.34c-1.95-1.43-4.25-.44-6.28,1.16-3.55,3.49-5.56,8.5-4.4,15.43.79-1.64,1.83-3.17,3.19-4.62,2.18-2.33,4.03-4.04,6.79-5.64,2.53-1.48,2.81-4.78.7-6.33Z"/>
            <path d="M94.14,93.71l11.51-.19c7.41-.12,13.53-5.85,14.1-13.23,1.46-18.69,1.2-50-18.08-50-7.78,0-11.16,5.06-12.38,8.07l.09,15.01s-10.54,5.74-11.63,21.38c-.84,12.1,6.91,19.13,16.38,18.98Z"/>
            <path d="M92.73,87.46l-4.91,34.54h0c8.16,3.43,17.34,3.53,25.57.29l.73-.29-6.65-35.17-14.73.63Z"/>
            <path class="cls-10" d="M109.27,43.36s.56.88,1.45,2.06c1.74,2.3,2.94,5.05,3.16,7.92l.02.3c.38,4.89-3.41,9.1-8.31,9.24l-2.57.07c-4.88.13-8.88-3.82-8.8-8.7.07-4.29.13-8.92.13-10.89,0-4.12,3.34-7.46,7.46-7.46s7.06,3.36,7.46,7.46Z"/>
            <circle class="cls-11" cx="101.67" cy="44.91" r="5.63"/>
            <path d="M103.08,44.76c0,1.32-1.07,2.39-2.39,2.39s-2.39-1.07-2.39-2.39,1.07-2.39,2.39-2.39,2.39,1.07,2.39,2.39Z"/>
          </g>
        </g>
      </g>
    </pattern>
  </defs>
  <g id="Layer_7" data-name="Layer 7">
    <rect class="cls-12" width="500" height="500"/>
  </g>
</svg>