<?xml version="1.0" encoding="UTF-8"?>
<svg id="Layer_2" data-name="Layer 2" xmlns="http://www.w3.org/2000/svg" xmlns:xlink="http://www.w3.org/1999/xlink" viewBox="0 0 500 500">
  <defs>
    <style>
      .cls-1 {
        fill: none;
      }

      .cls-2 {
        fill: #0067f0;
      }

      .cls-3 {
        fill: #f9f;
      }

      .cls-4 {
        fill: #20d9ff;
      }

      .cls-5 {
        clip-path: url(#clippath-1);
      }

      .cls-6 {
        clip-path: url(#clippath-3);
      }

      .cls-7 {
        clip-path: url(#clippath-4);
      }

      .cls-8 {
        clip-path: url(#clippath-2);
      }

      .cls-9 {
        fill: #fff;
      }

      .cls-10 {
        fill: #fff800;
      }

      .cls-11 {
        fill: url(#Nueva_muestra_de_motivo_3);
      }

      .cls-12 {
        fill: #ff2881;
      }

      .cls-13 {
        clip-path: url(#clippath);
      }

      .cls-14 {
        fill: #0dd676;
      }
    </style>
    <clipPath id="clippath">
      <rect class="cls-1" x="0" y="189.66" width="200" height="200"/>
    </clipPath>
    <clipPath id="clippath-1">
      <path class="cls-3" d="M78.5,217.9c0-8.56,9.63-31.5,21.5-31.5s21.5,22.94,21.5,31.5-9.63,15.5-21.5,15.5-21.5-6.94-21.5-15.5Z"/>
    </clipPath>
    <clipPath id="clippath-2">
      <rect class="cls-1" x="0" y="-10.34" width="200" height="200"/>
    </clipPath>
    <clipPath id="clippath-3">
      <path class="cls-3" d="M78.5,17.9c0-8.56,9.63-31.5,21.5-31.5s21.5,22.94,21.5,31.5-9.63,15.5-21.5,15.5-21.5-6.94-21.5-15.5Z"/>
    </clipPath>
    <clipPath id="clippath-4">
      <path class="cls-3" d="M78.5,217.9c0-8.56,9.63-31.5,21.5-31.5s21.5,22.94,21.5,31.5-9.63,15.5-21.5,15.5-21.5-6.94-21.5-15.5Z"/>
    </clipPath>
    <pattern id="Nueva_muestra_de_motivo_3" data-name="Nueva muestra de motivo 3" x="0" y="0" width="200" height="200" patternTransform="translate(-2461.59 -2341.58) scale(.7)" patternUnits="userSpaceOnUse" viewBox="0 0 200 200">
      <g>
        <rect class="cls-1" x="0" width="200" height="200"/>
        <g class="cls-13">
          <rect class="cls-10" x="-16" y="173.66" width="232" height="232"/>
          <g>
            <path class="cls-12" d="M35.37,194.22c-6.48-14.58-14.99-18.44-24.93-19.02-14.22-.82-24.06,7.39-24.06,17.58,0,1.93.42,3.85,1.19,5.7-.38.13-.82.22-1.33.23-.22,0-.44,0-.66-.05-.11,0-.22-.04-.33-.06l-.16-.03s-.03-.02-.05-.02c-.52-.16-.93-.38-1.39-.74-.89-.69-1.78-1.9-2.25-3.45-.12-.38-.21-.79-.28-1.2-.05-.23-.04-.32-.08-.49l-.04-.76c0-.9.08-1.84.32-2.82.47-1.98,1.42-4.03,2.82-6.07,1.34-1.95,3.1-3.98,5.01-5.99,1.91-2.03,4-4.11,5.98-6.42,1.97-2.3,3.79-4.87,5.14-7.72,1.4-3.01,2.07-6.14,1.89-9.27-.09-1.56-.4-3.12-.99-4.6-.28-.74-.66-1.44-1.08-2.1-.23-.33-.44-.64-.69-.96-.29-.34-.6-.67-.9-.98-.09-.09-.14-.14-.19-.18l-.15-.13-.3-.26-.15-.13-.24-.2-.11-.08-.45-.3c-.29-.21-.6-.38-.91-.54-.3-.17-.61-.31-.92-.44-1.23-.52-2.43-.78-3.51-.92-2.16-.24-6.34-.33-10.31,1.23-5.39,2.12-8.54,7.29-6.88,11.96,1.65,4.67,7.42,6.89,12.87,4.96,4.4-1.56,7.26-5.35,7.32-9.21.09.2.17.4.24.63.21.7.32,1.53.3,2.43-.04,1.8-.57,3.89-1.57,5.69-1.07,1.96-2.61,3.89-4.39,5.8-1.77,1.92-3.83,3.81-5.94,5.87-2.12,2.06-4.27,4.26-6.18,6.93-1.85,2.57-3.44,5.57-4.29,8.81-.44,1.62-.67,3.32-.69,5.01v.08s0,.22,0,.22v.12s.01.24.01.24l.02.51c.04.47.07,1.01.14,1.4.12.84.3,1.66.54,2.46.93,3.17,2.75,6.04,5.26,7.98,5.03,3.9,13.58,9.99,34.15,6.28,21.88-3.95,26.08.58,26.08.58,0,0,.58-9.8-2.88-17.58Z"/>
            <path class="cls-9" d="M-2.95,187.3s-.02.71.06,1.88c.03.58.13,1.28.26,2.04.13.76.36,1.59.66,2.41.33.82.77,1.61,1.32,2.32.59.69,1.28,1.29,2.11,1.79.23.12.46.25.7.37.19.05.3.12.54.18.44.14.92.25,1.42.33,1.01.15,2.17.18,3.37.11,1.2-.04,2.46-.19,3.73-.31,1.27-.14,2.56-.27,3.83-.38,2.54-.21,5.02-.24,7.16.07,1.07.16,2.04.37,2.88.66.84.27,1.53.62,2.08.91.55.31.94.6,1.2.81.25.21.39.32.39.32,0,0-.17-.02-.5-.05-.31-.05-.79-.05-1.37-.09-1.17-.02-2.77.09-4.65.44-1.88.33-4.06.9-6.48,1.47-1.21.28-2.48.58-3.82.81-1.34.25-2.74.43-4.21.51-1.47.05-3.01.02-4.59-.36-.78-.17-1.57-.44-2.32-.8-.37-.16-.81-.43-1.19-.65-.14-.1-.26-.19-.39-.29l-.19-.14-.05-.04-.12-.08-.03-.02-.11-.1c-1.19-1-2.12-2.25-2.74-3.52-.57-1.3-.84-2.58-.9-3.74-.03-1.16.07-2.18.29-3.04.19-.87.47-1.58.72-2.15.23-.57.5-.99.66-1.27.17-.28.28-.42.28-.42Z"/>
          </g>
          <g>
            <g>
              <path class="cls-12" d="M235.37,194.22c-6.48-14.58-14.99-18.44-24.93-19.02-14.22-.82-24.06,7.39-24.06,17.58,0,1.93.42,3.85,1.19,5.7-.38.13-.82.22-1.33.23-.22,0-.44,0-.66-.05-.11,0-.22-.04-.33-.06l-.16-.03s-.03-.02-.05-.02c-.52-.16-.93-.38-1.39-.74-.89-.69-1.78-1.9-2.25-3.45-.12-.38-.21-.79-.28-1.2-.05-.23-.04-.32-.08-.49l-.04-.76c0-.9.08-1.84.32-2.82.47-1.98,1.42-4.03,2.82-6.07,1.34-1.95,3.1-3.98,5.01-5.99,1.91-2.03,4-4.11,5.98-6.42,1.97-2.3,3.79-4.87,5.14-7.72,1.4-3.01,2.07-6.14,1.89-9.27-.09-1.56-.4-3.12-.99-4.6-.28-.74-.66-1.44-1.08-2.1-.23-.33-.44-.64-.69-.96-.29-.34-.6-.67-.9-.98-.09-.09-.14-.14-.19-.18l-.15-.13-.3-.26-.15-.13-.24-.2-.11-.08-.45-.3c-.29-.21-.6-.38-.91-.54-.3-.17-.61-.31-.92-.44-1.23-.52-2.43-.78-3.51-.92-2.16-.24-6.34-.33-10.31,1.23-5.39,2.12-8.54,7.29-6.88,11.96,1.65,4.67,7.42,6.89,12.87,4.96,4.4-1.56,7.26-5.35,7.32-9.21.09.2.17.4.24.63.21.7.32,1.53.3,2.43-.04,1.8-.57,3.89-1.57,5.69-1.07,1.96-2.61,3.89-4.39,5.8-1.77,1.92-3.83,3.81-5.94,5.87-2.12,2.06-4.27,4.26-6.18,6.93-1.85,2.57-3.44,5.57-4.29,8.81-.44,1.62-.67,3.32-.69,5.01v.08s0,.22,0,.22v.12s.01.24.01.24l.02.51c.04.47.07,1.01.14,1.4.12.84.3,1.66.54,2.46.93,3.17,2.75,6.04,5.26,7.98,5.03,3.9,13.58,9.99,34.15,6.28,21.88-3.95,26.08.58,26.08.58,0,0,.58-9.8-2.88-17.58Z"/>
              <path class="cls-9" d="M178.89,159.85l1.51-4.75-6.27-1.3s-9.29.86-11.89,8.86c-2.59,8,4.97,13.07,5.4,12.32,1.73-3.03-6.05-6.92,11.24-15.13Z"/>
              <path d="M169.77,165.56c-.14-.98-.07-2,.27-2.97.25-.71.5-1.41.75-2.11-3,1.55-6.04,3.04-9.04,4.61-.58,6.58,5.51,10.57,5.9,9.9,1.27-2.22-2.57-4.91,2.12-9.43Z"/>
              <path d="M186.46,151.96c0,1.01-.82,1.84-1.84,1.84s-1.84-.82-1.84-1.84.82-1.84,1.84-1.84,1.84.82,1.84,1.84Z"/>
            </g>
            <path class="cls-9" d="M197.05,187.3s-.02.71.06,1.88c.03.58.13,1.28.26,2.04.13.76.36,1.59.66,2.41.33.82.77,1.61,1.32,2.32.59.69,1.28,1.29,2.11,1.79.23.12.46.25.7.37.19.05.3.12.54.18.44.14.92.25,1.42.33,1.01.15,2.17.18,3.37.11,1.2-.04,2.46-.19,3.73-.31,1.27-.14,2.56-.27,3.83-.38,2.54-.21,5.02-.24,7.16.07,1.07.16,2.04.37,2.88.66.84.27,1.53.62,2.08.91.55.31.94.6,1.2.81.25.21.39.32.39.32,0,0-.17-.02-.5-.05-.31-.05-.79-.05-1.37-.09-1.17-.02-2.77.09-4.65.44-1.88.33-4.06.9-6.48,1.47-1.21.28-2.48.58-3.82.81-1.34.25-2.74.43-4.21.51-1.47.05-3.01.02-4.59-.36-.78-.17-1.57-.44-2.32-.8-.37-.16-.81-.43-1.19-.65-.14-.1-.26-.19-.39-.29l-.19-.14-.05-.04-.12-.08-.03-.02-.11-.1c-1.19-1-2.12-2.25-2.74-3.52-.57-1.3-.84-2.58-.9-3.74-.03-1.16.07-2.18.29-3.04.19-.87.47-1.58.72-2.15.23-.57.5-.99.66-1.27.17-.28.28-.42.28-.42Z"/>
          </g>
          <g>
            <path class="cls-3" d="M78.5,217.9c0-8.56,9.63-31.5,21.5-31.5s21.5,22.94,21.5,31.5-9.63,15.5-21.5,15.5-21.5-6.94-21.5-15.5Z"/>
            <g class="cls-5">
              <path d="M95.84,200.32c0-2.09,1.69-3.78,3.78-3.78s3.78,1.69,3.78,3.78-1.69,3.78-3.78,3.78-3.78-1.69-3.78-3.78Z"/>
            </g>
          </g>
        </g>
        <g class="cls-8">
          <rect class="cls-10" x="-16" y="-26.34" width="232" height="232"/>
          <polygon class="cls-10" points="32.17 35.66 37.64 45.15 26.69 45.15 32.17 35.66"/>
          <polygon class="cls-4" points="128.67 152.5 134.14 161.98 123.19 161.98 128.67 152.5"/>
          <polygon class="cls-14" points="56.03 151.11 59.61 161.46 48.86 159.39 56.03 151.11"/>
          <polygon points="102.36 117.91 92.52 113.08 101.62 106.98 102.36 117.91"/>
          <polygon class="cls-4" points="36.67 40.66 47.38 38.35 44.02 48.78 36.67 40.66"/>
          <polygon class="cls-12" points="-4.67 90.32 6.04 88.02 2.68 98.44 -4.67 90.32"/>
          <polygon class="cls-12" points="195.33 90.32 206.04 88.02 202.68 98.44 195.33 90.32"/>
          <polygon class="cls-14" points="169.33 62.65 163.86 53.16 174.81 53.16 169.33 62.65"/>
          <g>
            <g>
              <rect class="cls-9" x="1.67" y="8.32" width="3" height="48"/>
              <rect class="cls-9" x="-6.33" y="54.32" width="15" height="4"/>
              <circle class="cls-9" cx="2.81" cy="34.27" r="3.75"/>
              <path class="cls-9" d="M12.03,30.53c0-2.07,1.68-3.75,3.75-3.75s3.75,1.68,3.75,3.75-1.68,3.75-3.75,3.75-3.75-1.68-3.75-3.75Z"/>
              <polygon class="cls-9" points="-8.8 47.48 -12.1 46.43 -10.14 40.23 13.86 29.07 6.1 9.26 9.32 8 18.27 30.83 -7.3 42.73 -8.8 47.48"/>
            </g>
            <g>
              <path class="cls-12" d="M35.37-5.78c-6.48-14.58-14.99-18.44-24.93-19.02-14.22-.82-24.06,7.39-24.06,17.58,0,1.93.42,3.85,1.19,5.7-.38.13-.82.22-1.33.23-.22,0-.44,0-.66-.05-.11,0-.22-.04-.33-.06l-.16-.03s-.03-.02-.05-.02c-.52-.16-.93-.38-1.39-.74-.89-.69-1.78-1.9-2.25-3.45-.12-.38-.21-.79-.28-1.2-.05-.23-.04-.32-.08-.49l-.04-.76c0-.9.08-1.84.32-2.82.47-1.98,1.42-4.03,2.82-6.07,1.34-1.95,3.1-3.98,5.01-5.99,1.91-2.03,4-4.11,5.98-6.42,1.97-2.3,3.79-4.87,5.14-7.72,1.4-3.01,2.07-6.14,1.89-9.27-.09-1.56-.4-3.12-.99-4.6-.28-.74-.66-1.44-1.08-2.1-.23-.33-.44-.64-.69-.96-.29-.34-.6-.67-.9-.98-.09-.09-.14-.14-.19-.18l-.15-.13-.3-.26-.15-.13-.24-.2-.11-.08-.45-.3c-.29-.21-.6-.38-.91-.54-.3-.17-.61-.31-.92-.44-1.23-.52-2.43-.78-3.51-.92-2.16-.24-6.34-.33-10.31,1.23-5.39,2.12-8.54,7.29-6.88,11.96,1.65,4.67,7.42,6.89,12.87,4.96,4.4-1.56,7.26-5.35,7.32-9.21.09.2.17.4.24.63.21.7.32,1.53.3,2.43-.04,1.8-.57,3.89-1.57,5.69-1.07,1.96-2.61,3.89-4.39,5.8-1.77,1.92-3.83,3.81-5.94,5.87-2.12,2.06-4.27,4.26-6.18,6.93-1.85,2.57-3.44,5.57-4.29,8.81-.44,1.62-.67,3.32-.69,5.01v.08s0,.22,0,.22v.12s.01.24.01.24l.02.51c.04.47.07,1.01.14,1.4.12.84.3,1.66.54,2.46.93,3.17,2.75,6.04,5.26,7.98,5.03,3.9,13.58,9.99,34.15,6.28,21.88-3.95,26.08.58,26.08.58,0,0,.58-9.8-2.88-17.58Z"/>
              <path class="cls-9" d="M-21.11-40.15l1.51-4.75-6.27-1.3s-9.29.86-11.89,8.86c-2.59,8,4.97,13.07,5.4,12.32,1.73-3.03-6.05-6.92,11.24-15.13Z"/>
              <path d="M-30.23-34.44c-.14-.98-.07-2,.27-2.97.25-.71.5-1.41.75-2.11-3,1.55-6.04,3.04-9.04,4.61-.58,6.58,5.52,10.57,5.9,9.9,1.27-2.22-2.57-4.91,2.12-9.43Z"/>
              <path d="M-13.54-48.04c0,1.01-.82,1.84-1.84,1.84s-1.84-.82-1.84-1.84.82-1.84,1.84-1.84,1.84.82,1.84,1.84Z"/>
            </g>
            <path class="cls-9" d="M-2.95-12.7s-.02.71.06,1.88c.03.58.13,1.28.26,2.04.13.76.36,1.59.66,2.41.33.82.77,1.61,1.32,2.32C-.05-3.36.64-2.75,1.46-2.25c.23.12.46.25.7.37.19.05.3.12.54.18.44.14.92.25,1.42.33,1.01.15,2.17.18,3.37.11,1.2-.04,2.46-.19,3.73-.31,1.27-.14,2.56-.27,3.83-.38,2.54-.21,5.02-.24,7.16.07,1.07.16,2.04.37,2.88.66.84.27,1.53.62,2.08.91.55.31.94.6,1.2.81.25.21.39.32.39.32,0,0-.17-.02-.5-.05-.31-.05-.79-.05-1.37-.09-1.17-.02-2.77.09-4.65.44-1.88.33-4.06.9-6.48,1.47-1.21.28-2.48.58-3.82.81-1.34.25-2.74.43-4.21.51-1.47.05-3.01.02-4.59-.36-.78-.17-1.57-.44-2.32-.8C.45,2.61,0,2.34-.38,2.12c-.14-.1-.26-.19-.39-.29l-.19-.14-.05-.04-.12-.08-.03-.02-.11-.1C-2.46.44-3.38-.81-4-2.07c-.57-1.3-.84-2.58-.9-3.74-.03-1.16.07-2.18.29-3.04.19-.87.47-1.58.72-2.15.23-.57.5-.99.66-1.27.17-.28.28-.42.28-.42Z"/>
          </g>
          <g>
            <g>
              <rect class="cls-9" x="201.67" y="8.32" width="3" height="48"/>
              <rect class="cls-9" x="193.67" y="54.32" width="15" height="4"/>
              <circle class="cls-9" cx="202.81" cy="34.27" r="3.75"/>
              <path class="cls-9" d="M212.03,30.53c0-2.07,1.68-3.75,3.75-3.75s3.75,1.68,3.75,3.75-1.68,3.75-3.75,3.75-3.75-1.68-3.75-3.75Z"/>
              <polygon class="cls-9" points="191.2 47.48 187.9 46.43 189.86 40.23 213.86 29.07 206.1 9.26 209.32 8 218.27 30.83 192.7 42.73 191.2 47.48"/>
            </g>
            <g>
              <path class="cls-12" d="M235.37-5.78c-6.48-14.58-14.99-18.44-24.93-19.02-14.22-.82-24.06,7.39-24.06,17.58,0,1.93.42,3.85,1.19,5.7-.38.13-.82.22-1.33.23-.22,0-.44,0-.66-.05-.11,0-.22-.04-.33-.06l-.16-.03s-.03-.02-.05-.02c-.52-.16-.93-.38-1.39-.74-.89-.69-1.78-1.9-2.25-3.45-.12-.38-.21-.79-.28-1.2-.05-.23-.04-.32-.08-.49l-.04-.76c0-.9.08-1.84.32-2.82.47-1.98,1.42-4.03,2.82-6.07,1.34-1.95,3.1-3.98,5.01-5.99,1.91-2.03,4-4.11,5.98-6.42,1.97-2.3,3.79-4.87,5.14-7.72,1.4-3.01,2.07-6.14,1.89-9.27-.09-1.56-.4-3.12-.99-4.6-.28-.74-.66-1.44-1.08-2.1-.23-.33-.44-.64-.69-.96-.29-.34-.6-.67-.9-.98-.09-.09-.14-.14-.19-.18l-.15-.13-.3-.26-.15-.13-.24-.2-.11-.08-.45-.3c-.29-.21-.6-.38-.91-.54-.3-.17-.61-.31-.92-.44-1.23-.52-2.43-.78-3.51-.92-2.16-.24-6.34-.33-10.31,1.23-5.39,2.12-8.54,7.29-6.88,11.96,1.65,4.67,7.42,6.89,12.87,4.96,4.4-1.56,7.26-5.35,7.32-9.21.09.2.17.4.24.63.21.7.32,1.53.3,2.43-.04,1.8-.57,3.89-1.57,5.69-1.07,1.96-2.61,3.89-4.39,5.8-1.77,1.92-3.83,3.81-5.94,5.87-2.12,2.06-4.27,4.26-6.18,6.93-1.85,2.57-3.44,5.57-4.29,8.81-.44,1.62-.67,3.32-.69,5.01v.08s0,.22,0,.22v.12s.01.24.01.24l.02.51c.04.47.07,1.01.14,1.4.12.84.3,1.66.54,2.46.93,3.17,2.75,6.04,5.26,7.98,5.03,3.9,13.58,9.99,34.15,6.28,21.88-3.95,26.08.58,26.08.58,0,0,.58-9.8-2.88-17.58Z"/>
              <path class="cls-9" d="M178.89-40.15l1.51-4.75-6.27-1.3s-9.29.86-11.89,8.86c-2.59,8,4.97,13.07,5.4,12.32,1.73-3.03-6.05-6.92,11.24-15.13Z"/>
              <path d="M169.77-34.44c-.14-.98-.07-2,.27-2.97.25-.71.5-1.41.75-2.11-3,1.55-6.04,3.04-9.04,4.61-.58,6.58,5.51,10.57,5.9,9.9,1.27-2.22-2.57-4.91,2.12-9.43Z"/>
              <path d="M186.46-48.04c0,1.01-.82,1.84-1.84,1.84s-1.84-.82-1.84-1.84.82-1.84,1.84-1.84,1.84.82,1.84,1.84Z"/>
            </g>
            <path class="cls-9" d="M197.05-12.7s-.02.71.06,1.88c.03.58.13,1.28.26,2.04.13.76.36,1.59.66,2.41.33.82.77,1.61,1.32,2.32.59.69,1.28,1.29,2.11,1.79.23.12.46.25.7.37.19.05.3.12.54.18.44.14.92.25,1.42.33,1.01.15,2.17.18,3.37.11,1.2-.04,2.46-.19,3.73-.31,1.27-.14,2.56-.27,3.83-.38,2.54-.21,5.02-.24,7.16.07,1.07.16,2.04.37,2.88.66.84.27,1.53.62,2.08.91.55.31.94.6,1.2.81.25.21.39.32.39.32,0,0-.17-.02-.5-.05-.31-.05-.79-.05-1.37-.09-1.17-.02-2.77.09-4.65.44-1.88.33-4.06.9-6.48,1.47-1.21.28-2.48.58-3.82.81-1.34.25-2.74.43-4.21.51-1.47.05-3.01.02-4.59-.36-.78-.17-1.57-.44-2.32-.8-.37-.16-.81-.43-1.19-.65-.14-.1-.26-.19-.39-.29l-.19-.14-.05-.04-.12-.08-.03-.02-.11-.1c-1.19-1-2.12-2.25-2.74-3.52-.57-1.3-.84-2.58-.9-3.74-.03-1.16.07-2.18.29-3.04.19-.87.47-1.58.72-2.15.23-.57.5-.99.66-1.27.17-.28.28-.42.28-.42Z"/>
          </g>
          <g>
            <path class="cls-14" d="M91.25,37.71c0-8.94,8.75-16.19,8.75-16.19,0,0,8.75,7.25,8.75,16.19s-8.75,16.19-8.75,16.19c0,0-8.75-7.25-8.75-16.19Z"/>
            <path class="cls-14" d="M102.76,37.38c-4.47-7.74-.52-18.39-.52-18.39,0,0,11.2,1.9,15.67,9.64,4.47,7.74.52,18.39.52,18.39,0,0-11.2-1.9-15.67-9.64Z"/>
            <path class="cls-14" d="M110.23,32.45c-7.74-4.47-9.64-15.67-9.64-15.67,0,0,10.65-3.95,18.39.52,7.74,4.47,9.64,15.67,9.64,15.67,0,0-10.65,3.95-18.39-.52Z"/>
            <path class="cls-14" d="M97.24,37.38c4.47-7.74.52-18.39.52-18.39,0,0-11.2,1.9-15.67,9.64-4.47,7.74-.52,18.39-.52,18.39,0,0,11.2-1.9,15.67-9.64Z"/>
            <path class="cls-14" d="M89.77,32.45c7.74-4.47,9.64-15.67,9.64-15.67,0,0-10.65-3.95-18.39.52-7.74,4.47-9.64,15.67-9.64,15.67,0,0,10.65,3.95,18.39-.52Z"/>
            <g>
              <path class="cls-3" d="M78.5,17.9c0-8.56,9.63-31.5,21.5-31.5s21.5,22.94,21.5,31.5-9.63,15.5-21.5,15.5-21.5-6.94-21.5-15.5Z"/>
              <g class="cls-6">
                <g>
                  <g>
                    <path d="M105.55,16.97c0-2.09,1.69-3.78,3.78-3.78s3.78,1.69,3.78,3.78-1.69,3.78-3.78,3.78-3.78-1.69-3.78-3.78Z"/>
                    <path d="M86.13,16.97c0-2.09,1.69-3.78,3.78-3.78s3.78,1.69,3.78,3.78-1.69,3.78-3.78,3.78-3.78-1.69-3.78-3.78Z"/>
                  </g>
                  <path d="M95.84.32c0-2.09,1.69-3.78,3.78-3.78s3.78,1.69,3.78,3.78-1.69,3.78-3.78,3.78-3.78-1.69-3.78-3.78Z"/>
                </g>
              </g>
            </g>
          </g>
          <g>
            <g>
              <rect class="cls-9" x="1.67" y="208.32" width="3" height="48"/>
              <rect class="cls-9" x="-6.33" y="254.32" width="15" height="4"/>
              <circle class="cls-9" cx="2.81" cy="234.27" r="3.75"/>
              <path class="cls-9" d="M12.03,230.53c0-2.07,1.68-3.75,3.75-3.75s3.75,1.68,3.75,3.75-1.68,3.75-3.75,3.75-3.75-1.68-3.75-3.75Z"/>
              <polygon class="cls-9" points="-8.8 247.48 -12.1 246.43 -10.14 240.23 13.86 229.07 6.1 209.26 9.32 208 18.27 230.83 -7.3 242.73 -8.8 247.48"/>
            </g>
            <g>
              <path class="cls-12" d="M35.37,194.22c-6.48-14.58-14.99-18.44-24.93-19.02-14.22-.82-24.06,7.39-24.06,17.58,0,1.93.42,3.85,1.19,5.7-.38.13-.82.22-1.33.23-.22,0-.44,0-.66-.05-.11,0-.22-.04-.33-.06l-.16-.03s-.03-.02-.05-.02c-.52-.16-.93-.38-1.39-.74-.89-.69-1.78-1.9-2.25-3.45-.12-.38-.21-.79-.28-1.2-.05-.23-.04-.32-.08-.49l-.04-.76c0-.9.08-1.84.32-2.82.47-1.98,1.42-4.03,2.82-6.07,1.34-1.95,3.1-3.98,5.01-5.99,1.91-2.03,4-4.11,5.98-6.42,1.97-2.3,3.79-4.87,5.14-7.72,1.4-3.01,2.07-6.14,1.89-9.27-.09-1.56-.4-3.12-.99-4.6-.28-.74-.66-1.44-1.08-2.1-.23-.33-.44-.64-.69-.96-.29-.34-.6-.67-.9-.98-.09-.09-.14-.14-.19-.18l-.15-.13-.3-.26-.15-.13-.24-.2-.11-.08-.45-.3c-.29-.21-.6-.38-.91-.54-.3-.17-.61-.31-.92-.44-1.23-.52-2.43-.78-3.51-.92-2.16-.24-6.34-.33-10.31,1.23-5.39,2.12-8.54,7.29-6.88,11.96,1.65,4.67,7.42,6.89,12.87,4.96,4.4-1.56,7.26-5.35,7.32-9.21.09.2.17.4.24.63.21.7.32,1.53.3,2.43-.04,1.8-.57,3.89-1.57,5.69-1.07,1.96-2.61,3.89-4.39,5.8-1.77,1.92-3.83,3.81-5.94,5.87-2.12,2.06-4.27,4.26-6.18,6.93-1.85,2.57-3.44,5.57-4.29,8.81-.44,1.62-.67,3.32-.69,5.01v.08s0,.22,0,.22v.12s.01.24.01.24l.02.51c.04.47.07,1.01.14,1.4.12.84.3,1.66.54,2.46.93,3.17,2.75,6.04,5.26,7.98,5.03,3.9,13.58,9.99,34.15,6.28,21.88-3.95,26.08.58,26.08.58,0,0,.58-9.8-2.88-17.58Z"/>
              <path class="cls-9" d="M-21.11,159.85l1.51-4.75-6.27-1.3s-9.29.86-11.89,8.86c-2.59,8,4.97,13.07,5.4,12.32,1.73-3.03-6.05-6.92,11.24-15.13Z"/>
              <path d="M-30.23,165.56c-.14-.98-.07-2,.27-2.97.25-.71.5-1.41.75-2.11-3,1.55-6.04,3.04-9.04,4.61-.58,6.58,5.52,10.57,5.9,9.9,1.27-2.22-2.57-4.91,2.12-9.43Z"/>
              <path d="M-13.54,151.96c0,1.01-.82,1.84-1.84,1.84s-1.84-.82-1.84-1.84.82-1.84,1.84-1.84,1.84.82,1.84,1.84Z"/>
            </g>
            <path class="cls-9" d="M-2.95,187.3s-.02.71.06,1.88c.03.58.13,1.28.26,2.04.13.76.36,1.59.66,2.41.33.82.77,1.61,1.32,2.32.59.69,1.28,1.29,2.11,1.79.23.12.46.25.7.37.19.05.3.12.54.18.44.14.92.25,1.42.33,1.01.15,2.17.18,3.37.11,1.2-.04,2.46-.19,3.73-.31,1.27-.14,2.56-.27,3.83-.38,2.54-.21,5.02-.24,7.16.07,1.07.16,2.04.37,2.88.66.84.27,1.53.62,2.08.91.55.31.94.6,1.2.81.25.21.39.32.39.32,0,0-.17-.02-.5-.05-.31-.05-.79-.05-1.37-.09-1.17-.02-2.77.09-4.65.44-1.88.33-4.06.9-6.48,1.47-1.21.28-2.48.58-3.82.81-1.34.25-2.74.43-4.21.51-1.47.05-3.01.02-4.59-.36-.78-.17-1.57-.44-2.32-.8-.37-.16-.81-.43-1.19-.65-.14-.1-.26-.19-.39-.29l-.19-.14-.05-.04-.12-.08-.03-.02-.11-.1c-1.19-1-2.12-2.25-2.74-3.52-.57-1.3-.84-2.58-.9-3.74-.03-1.16.07-2.18.29-3.04.19-.87.47-1.58.72-2.15.23-.57.5-.99.66-1.27.17-.28.28-.42.28-.42Z"/>
          </g>
          <g>
            <g>
              <rect class="cls-9" x="201.67" y="208.32" width="3" height="48"/>
              <rect class="cls-9" x="193.67" y="254.32" width="15" height="4"/>
              <circle class="cls-9" cx="202.81" cy="234.27" r="3.75"/>
              <path class="cls-9" d="M212.03,230.53c0-2.07,1.68-3.75,3.75-3.75s3.75,1.68,3.75,3.75-1.68,3.75-3.75,3.75-3.75-1.68-3.75-3.75Z"/>
              <polygon class="cls-9" points="191.2 247.48 187.9 246.43 189.86 240.23 213.86 229.07 206.1 209.26 209.32 208 218.27 230.83 192.7 242.73 191.2 247.48"/>
            </g>
            <g>
              <path class="cls-12" d="M235.37,194.22c-6.48-14.58-14.99-18.44-24.93-19.02-14.22-.82-24.06,7.39-24.06,17.58,0,1.93.42,3.85,1.19,5.7-.38.13-.82.22-1.33.23-.22,0-.44,0-.66-.05-.11,0-.22-.04-.33-.06l-.16-.03s-.03-.02-.05-.02c-.52-.16-.93-.38-1.39-.74-.89-.69-1.78-1.9-2.25-3.45-.12-.38-.21-.79-.28-1.2-.05-.23-.04-.32-.08-.49l-.04-.76c0-.9.08-1.84.32-2.82.47-1.98,1.42-4.03,2.82-6.07,1.34-1.95,3.1-3.98,5.01-5.99,1.91-2.03,4-4.11,5.98-6.42,1.97-2.3,3.79-4.87,5.14-7.72,1.4-3.01,2.07-6.14,1.89-9.27-.09-1.56-.4-3.12-.99-4.6-.28-.74-.66-1.44-1.08-2.1-.23-.33-.44-.64-.69-.96-.29-.34-.6-.67-.9-.98-.09-.09-.14-.14-.19-.18l-.15-.13-.3-.26-.15-.13-.24-.2-.11-.08-.45-.3c-.29-.21-.6-.38-.91-.54-.3-.17-.61-.31-.92-.44-1.23-.52-2.43-.78-3.51-.92-2.16-.24-6.34-.33-10.31,1.23-5.39,2.12-8.54,7.29-6.88,11.96,1.65,4.67,7.42,6.89,12.87,4.96,4.4-1.56,7.26-5.35,7.32-9.21.09.2.17.4.24.63.21.7.32,1.53.3,2.43-.04,1.8-.57,3.89-1.57,5.69-1.07,1.96-2.61,3.89-4.39,5.8-1.77,1.92-3.83,3.81-5.94,5.87-2.12,2.06-4.27,4.26-6.18,6.93-1.85,2.57-3.44,5.57-4.29,8.81-.44,1.62-.67,3.32-.69,5.01v.08s0,.22,0,.22v.12s.01.24.01.24l.02.51c.04.47.07,1.01.14,1.4.12.84.3,1.66.54,2.46.93,3.17,2.75,6.04,5.26,7.98,5.03,3.9,13.58,9.99,34.15,6.28,21.88-3.95,26.08.58,26.08.58,0,0,.58-9.8-2.88-17.58Z"/>
              <path class="cls-9" d="M178.89,159.85l1.51-4.75-6.27-1.3s-9.29.86-11.89,8.86c-2.59,8,4.97,13.07,5.4,12.32,1.73-3.03-6.05-6.92,11.24-15.13Z"/>
              <path d="M169.77,165.56c-.14-.98-.07-2,.27-2.97.25-.71.5-1.41.75-2.11-3,1.55-6.04,3.04-9.04,4.61-.58,6.58,5.51,10.57,5.9,9.9,1.27-2.22-2.57-4.91,2.12-9.43Z"/>
              <path d="M186.46,151.96c0,1.01-.82,1.84-1.84,1.84s-1.84-.82-1.84-1.84.82-1.84,1.84-1.84,1.84.82,1.84,1.84Z"/>
            </g>
            <path class="cls-9" d="M197.05,187.3s-.02.71.06,1.88c.03.58.13,1.28.26,2.04.13.76.36,1.59.66,2.41.33.82.77,1.61,1.32,2.32.59.69,1.28,1.29,2.11,1.79.23.12.46.25.7.37.19.05.3.12.54.18.44.14.92.25,1.42.33,1.01.15,2.17.18,3.37.11,1.2-.04,2.46-.19,3.73-.31,1.27-.14,2.56-.27,3.83-.38,2.54-.21,5.02-.24,7.16.07,1.07.16,2.04.37,2.88.66.84.27,1.53.62,2.08.91.55.31.94.6,1.2.81.25.21.39.32.39.32,0,0-.17-.02-.5-.05-.31-.05-.79-.05-1.37-.09-1.17-.02-2.77.09-4.65.44-1.88.33-4.06.9-6.48,1.47-1.21.28-2.48.58-3.82.81-1.34.25-2.74.43-4.21.51-1.47.05-3.01.02-4.59-.36-.78-.17-1.57-.44-2.32-.8-.37-.16-.81-.43-1.19-.65-.14-.1-.26-.19-.39-.29l-.19-.14-.05-.04-.12-.08-.03-.02-.11-.1c-1.19-1-2.12-2.25-2.74-3.52-.57-1.3-.84-2.58-.9-3.74-.03-1.16.07-2.18.29-3.04.19-.87.47-1.58.72-2.15.23-.57.5-.99.66-1.27.17-.28.28-.42.28-.42Z"/>
          </g>
          <g>
            <path class="cls-14" d="M91.25,237.71c0-8.94,8.75-16.19,8.75-16.19,0,0,8.75,7.25,8.75,16.19s-8.75,16.19-8.75,16.19c0,0-8.75-7.25-8.75-16.19Z"/>
            <path class="cls-14" d="M102.76,237.38c-4.47-7.74-.52-18.39-.52-18.39,0,0,11.2,1.9,15.67,9.64,4.47,7.74.52,18.39.52,18.39,0,0-11.2-1.9-15.67-9.64Z"/>
            <path class="cls-14" d="M110.23,232.45c-7.74-4.47-9.64-15.67-9.64-15.67,0,0,10.65-3.95,18.39.52,7.74,4.47,9.64,15.67,9.64,15.67,0,0-10.65,3.95-18.39-.52Z"/>
            <path class="cls-14" d="M97.24,237.38c4.47-7.74.52-18.39.52-18.39,0,0-11.2,1.9-15.67,9.64-4.47,7.74-.52,18.39-.52,18.39,0,0,11.2-1.9,15.67-9.64Z"/>
            <path class="cls-14" d="M89.77,232.45c7.74-4.47,9.64-15.67,9.64-15.67,0,0-10.65-3.95-18.39.52-7.74,4.47-9.64,15.67-9.64,15.67,0,0,10.65,3.95,18.39-.52Z"/>
            <g>
              <path class="cls-3" d="M78.5,217.9c0-8.56,9.63-31.5,21.5-31.5s21.5,22.94,21.5,31.5-9.63,15.5-21.5,15.5-21.5-6.94-21.5-15.5Z"/>
              <g class="cls-7">
                <g>
                  <g>
                    <path d="M105.55,216.97c0-2.09,1.69-3.78,3.78-3.78s3.78,1.69,3.78,3.78-1.69,3.78-3.78,3.78-3.78-1.69-3.78-3.78Z"/>
                    <path d="M86.13,216.97c0-2.09,1.69-3.78,3.78-3.78s3.78,1.69,3.78,3.78-1.69,3.78-3.78,3.78-3.78-1.69-3.78-3.78Z"/>
                  </g>
                  <path d="M95.84,200.32c0-2.09,1.69-3.78,3.78-3.78s3.78,1.69,3.78,3.78-1.69,3.78-3.78,3.78-3.78-1.69-3.78-3.78Z"/>
                </g>
              </g>
            </g>
          </g>
          <g>
            <path class="cls-4" d="M162.12,91.73h0c2.55.7,4.87,2.04,6.74,3.91l7.05,7.05c5.86,5.86,5.86,15.36,0,21.21h0c-5.86,5.86-15.36,5.86-21.21,0l-24.04-24.04c-5.08-5.08-5.08-13.31,0-18.38h0c5.08-5.08,13.31-5.08,18.38,0l6.34,6.34c1.87,1.87,4.19,3.22,6.74,3.91Z"/>
            <polygon class="cls-12" points="159.64 89.24 162.74 111.51 141.19 109.04 140.62 114.01 168.58 117.21 164.6 88.56 159.64 89.24"/>
          </g>
          <g>
            <path class="cls-12" d="M21.98,119.35l18.69-18.69,7.12,7.12-18.69,18.69c-1.97,1.97-5.15,1.97-7.12,0h0c-1.97-1.97-1.97-5.15,0-7.12Z"/>
            <path class="cls-3" d="M23.25,103.36l21.83,21.83,23.5-23.5c6.03-6.03,6.03-15.8,0-21.83h0c-6.03-6.03-15.8-6.03-21.83,0l-23.5,23.5Z"/>
            <path class="cls-2" d="M34.05,98.02h0c-1.51-1.51-1.51-3.95,0-5.46l12.44-12.44c5.92-5.92,15.56-6.36,21.69-.65,6.43,5.99,6.57,16.06.41,22.22l-6.64,6.65-10.32-10.32c-3.34-3.34-8.76-3.34-12.1,0h0c-1.51,1.51-3.95,1.51-5.46,0Z"/>
          </g>
        </g>
      </g>
    </pattern>
  </defs>
  <g id="Layer_6" data-name="Layer 6">
    <rect class="cls-11" width="500" height="500"/>
  </g>
</svg>