<?xml version="1.0" encoding="UTF-8"?>
<svg id="Layer_2" data-name="Layer 2" xmlns="http://www.w3.org/2000/svg" xmlns:xlink="http://www.w3.org/1999/xlink" viewBox="0 0 500 500">
  <defs>
    <style>
      .cls-1 {
        fill: none;
      }

      .cls-2 {
        fill: #0067f0;
      }

      .cls-3 {
        fill: #f9f;
      }

      .cls-4 {
        fill: #20d9ff;
      }

      .cls-5 {
        clip-path: url(#clippath-1);
      }

      .cls-6 {
        clip-path: url(#clippath-3);
      }

      .cls-7 {
        clip-path: url(#clippath-4);
      }

      .cls-8 {
        clip-path: url(#clippath-2);
      }

      .cls-9 {
        fill: #fff;
      }

      .cls-10 {
        fill: #fff800;
      }

      .cls-11 {
        fill: url(#Nueva_muestra_de_motivo_1);
      }

      .cls-12 {
        fill: #ff2881;
      }

      .cls-13 {
        clip-path: url(#clippath);
      }

      .cls-14 {
        fill: #0dd676;
      }
    </style>
    <clipPath id="clippath">
      <rect class="cls-1" x="194.76" y="191.84" width="200" height="200"/>
    </clipPath>
    <clipPath id="clippath-1">
      <rect class="cls-1" x="-5.24" y="191.84" width="200" height="200"/>
    </clipPath>
    <clipPath id="clippath-2">
      <rect class="cls-1" x="194.76" y="-8.16" width="200" height="200"/>
    </clipPath>
    <clipPath id="clippath-3">
      <rect class="cls-1" x="-5.24" y="-8.16" width="200" height="200"/>
    </clipPath>
    <clipPath id="clippath-4">
      <path class="cls-14" d="M110.26,98.44h0c2.25-2.25,2.25-5.89,0-8.13l-18.53-18.53c-8.82-8.82-23.19-9.47-32.31-.97-9.58,8.92-9.78,23.93-.6,33.11l9.9,9.9,15.38-15.38c4.98-4.98,13.05-4.98,18.03,0h0c2.25,2.25,5.89,2.25,8.13,0Z"/>
    </clipPath>
    <pattern id="Nueva_muestra_de_motivo_1" data-name="Nueva muestra de motivo 1" x="0" y="0" width="200" height="200" patternTransform="translate(-2350.12 -2410) scale(.7)" patternUnits="userSpaceOnUse" viewBox="0 0 200 200">
      <g>
        <rect class="cls-1" width="200" height="200"/>
        <g class="cls-13">
          <rect class="cls-9" x="178.76" y="175.84" width="232" height="232"/>
          <path class="cls-3" d="M210.02,213.38c-2.38,1.1-3.25,3.98-1.96,6.19l7,11.95c-2.05.44-4.11.44-6.06,0-11.93-2.72-16.22-12.51-17.49-17.74l-11.79,11.79c-1.21,1.21-3.17,1.21-4.38,0h0c-1.21-1.21-1.21-3.17,0-4.38l11.56-11.56c-5.31-.95-14.78-4.65-17.47-17.68-.44-2.14-.37-4.4.22-6.64l9.99,5.86c2.21,1.29,5.09.43,6.19-1.94.96-2.07.05-4.55-1.93-5.7l-10.26-6.01c3.15-4.11,7.85-7.95,13.75-11.02l3.83,5.95c1.51,2.35,4.53,2.38,6.24-.2,1.28-1.93,1.17-4.47-.08-6.42l-1.8-2.8c4.05-1.37,8.47-2.39,13.2-2.97l1.32,4.92c.86,3.2,4.23,5.39,7.5,4.87h0c1.52-.24,2.43-1.65,2.03-3.13l-1.93-7.19c6.59.01,13.61.89,20.93,2.87,1.85,6.82,2.73,13.41,2.84,19.62l-4.92-1.32c-2.69-.72-6.49.3-8.46,2.27h0c-1.59,1.59-.85,4.31,1.32,4.89l11.71,3.15c-.52,4.99-1.51,9.69-2.9,13.96l-5.85-3.74c-1.59-1.02-3.86-.65-5.19.68l-.14.14c-2.07,2.07-1.87,4.95.6,6.54l7.14,4.55c-3.23,6.4-7.35,11.42-11.75,14.66l-7.31-12.47c-1.16-1.97-3.63-2.89-5.7-1.92ZM206.05,184.62c1.79-1.79,1.79-4.7,0-6.49-1.79-1.79-4.7-1.79-6.49,0-1.79,1.79-1.79,4.7,0,6.49,1.79,1.79,4.7,1.79,6.49,0ZM207.82,207.92c1.79-1.79,1.79-4.7,0-6.49-1.79-1.79-4.7-1.79-6.49,0s-1.79,4.7,0,6.49c1.79,1.79,4.7,1.79,6.49,0Z"/>
        </g>
        <g class="cls-5">
          <rect class="cls-9" x="-21.24" y="175.84" width="232" height="232"/>
          <path class="cls-3" d="M10.02,213.38c-2.38,1.1-3.25,3.98-1.96,6.19l7,11.95c-2.05.44-4.11.44-6.06,0-11.93-2.72-16.22-12.51-17.49-17.74l-11.79,11.79c-1.21,1.21-3.17,1.21-4.38,0h0c-1.21-1.21-1.21-3.17,0-4.38l11.56-11.56c-5.31-.95-14.78-4.65-17.47-17.68-.44-2.14-.37-4.4.22-6.64l9.99,5.86c2.21,1.29,5.09.43,6.19-1.94.96-2.07.05-4.55-1.93-5.7l-10.26-6.01c3.15-4.11,7.85-7.95,13.75-11.02l3.83,5.95c1.51,2.35,4.53,2.38,6.24-.2,1.28-1.93,1.17-4.47-.08-6.42l-1.8-2.8c4.05-1.37,8.47-2.39,13.2-2.97l1.32,4.92c.86,3.2,4.23,5.39,7.5,4.87h0c1.52-.24,2.43-1.65,2.03-3.13l-1.93-7.19c6.59.01,13.61.89,20.93,2.87,1.85,6.82,2.73,13.41,2.84,19.62l-4.92-1.32c-2.69-.72-6.49.3-8.46,2.27h0c-1.59,1.59-.85,4.31,1.32,4.89l11.71,3.15c-.52,4.99-1.51,9.69-2.9,13.96l-5.85-3.74c-1.59-1.02-3.86-.65-5.19.68l-.14.14c-2.07,2.07-1.87,4.95.6,6.54l7.14,4.55c-3.23,6.4-7.35,11.42-11.75,14.66l-7.31-12.47c-1.16-1.97-3.63-2.89-5.7-1.92ZM6.05,184.62c1.79-1.79,1.79-4.7,0-6.49-1.79-1.79-4.7-1.79-6.49,0-1.79,1.79-1.79,4.7,0,6.49s4.7,1.79,6.49,0ZM7.82,207.92c1.79-1.79,1.79-4.7,0-6.49-1.79-1.79-4.7-1.79-6.49,0s-1.79,4.7,0,6.49c1.79,1.79,4.7,1.79,6.49,0Z"/>
          <path class="cls-3" d="M210.02,213.38c-2.38,1.1-3.25,3.98-1.96,6.19l7,11.95c-2.05.44-4.11.44-6.06,0-11.93-2.72-16.22-12.51-17.49-17.74l-11.79,11.79c-1.21,1.21-3.17,1.21-4.38,0h0c-1.21-1.21-1.21-3.17,0-4.38l11.56-11.56c-5.31-.95-14.78-4.65-17.47-17.68-.44-2.14-.37-4.4.22-6.64l9.99,5.86c2.21,1.29,5.09.43,6.19-1.94.96-2.07.05-4.55-1.93-5.7l-10.26-6.01c3.15-4.11,7.85-7.95,13.75-11.02l3.83,5.95c1.51,2.35,4.53,2.38,6.24-.2,1.28-1.93,1.17-4.47-.08-6.42l-1.8-2.8c4.05-1.37,8.47-2.39,13.2-2.97l1.32,4.92c.86,3.2,4.23,5.39,7.5,4.87h0c1.52-.24,2.43-1.65,2.03-3.13l-1.93-7.19c6.59.01,13.61.89,20.93,2.87,1.85,6.82,2.73,13.41,2.84,19.62l-4.92-1.32c-2.69-.72-6.49.3-8.46,2.27h0c-1.59,1.59-.85,4.31,1.32,4.89l11.71,3.15c-.52,4.99-1.51,9.69-2.9,13.96l-5.85-3.74c-1.59-1.02-3.86-.65-5.19.68l-.14.14c-2.07,2.07-1.87,4.95.6,6.54l7.14,4.55c-3.23,6.4-7.35,11.42-11.75,14.66l-7.31-12.47c-1.16-1.97-3.63-2.89-5.7-1.92ZM206.05,184.62c1.79-1.79,1.79-4.7,0-6.49-1.79-1.79-4.7-1.79-6.49,0-1.79,1.79-1.79,4.7,0,6.49,1.79,1.79,4.7,1.79,6.49,0ZM207.82,207.92c1.79-1.79,1.79-4.7,0-6.49-1.79-1.79-4.7-1.79-6.49,0s-1.79,4.7,0,6.49c1.79,1.79,4.7,1.79,6.49,0Z"/>
          <g>
            <path class="cls-2" d="M83.93,211h0c-1.31-2.29-2-4.89-2-7.53v-9.97c0-8.28,6.72-15,15-15h0c8.28,0,15,6.72,15,15v34c0,7.18-5.82,13-13,13h0c-7.18,0-13-5.82-13-13v-8.97c0-2.64-.69-5.24-2-7.53Z"/>
            <polygon class="cls-3" points="83.92 214.51 79.93 211.49 97.38 188.42 114.88 210.45 110.97 213.56 97.48 196.58 83.92 214.51"/>
          </g>
        </g>
        <g class="cls-8">
          <rect class="cls-9" x="178.76" y="-24.16" width="232" height="232"/>
          <path class="cls-3" d="M210.02,13.38c-2.38,1.1-3.25,3.98-1.96,6.19l7,11.95c-2.05.44-4.11.44-6.06,0-11.93-2.72-16.22-12.51-17.49-17.74l-11.79,11.79c-1.21,1.21-3.17,1.21-4.38,0h0c-1.21-1.21-1.21-3.17,0-4.38l11.56-11.56c-5.31-.95-14.78-4.65-17.47-17.68-.44-2.14-.37-4.4.22-6.64l9.99,5.86c2.21,1.29,5.09.43,6.19-1.94.96-2.07.05-4.55-1.93-5.7l-10.26-6.01c3.15-4.11,7.85-7.95,13.75-11.02l3.83,5.95c1.51,2.35,4.53,2.38,6.24-.2,1.28-1.93,1.17-4.47-.08-6.42l-1.8-2.8c4.05-1.37,8.47-2.39,13.2-2.97l1.32,4.92c.86,3.2,4.23,5.39,7.5,4.87h0c1.52-.24,2.43-1.65,2.03-3.13l-1.93-7.19c6.59.01,13.61.89,20.93,2.87,1.85,6.82,2.73,13.41,2.84,19.62l-4.92-1.32c-2.69-.72-6.49.3-8.46,2.27h0c-1.59,1.59-.85,4.31,1.32,4.89l11.71,3.15c-.52,4.99-1.51,9.69-2.9,13.96l-5.85-3.74c-1.59-1.02-3.86-.65-5.19.68l-.14.14c-2.07,2.07-1.87,4.95.6,6.54l7.14,4.55c-3.23,6.4-7.35,11.42-11.75,14.66l-7.31-12.47c-1.16-1.97-3.63-2.89-5.7-1.92ZM206.05-15.38c1.79-1.79,1.79-4.7,0-6.49-1.79-1.79-4.7-1.79-6.49,0-1.79,1.79-1.79,4.7,0,6.49,1.79,1.79,4.7,1.79,6.49,0ZM207.82,7.92c1.79-1.79,1.79-4.7,0-6.49-1.79-1.79-4.7-1.79-6.49,0s-1.79,4.7,0,6.49c1.79,1.79,4.7,1.79,6.49,0Z"/>
          <path class="cls-3" d="M210.02,213.38c-2.38,1.1-3.25,3.98-1.96,6.19l7,11.95c-2.05.44-4.11.44-6.06,0-11.93-2.72-16.22-12.51-17.49-17.74l-11.79,11.79c-1.21,1.21-3.17,1.21-4.38,0h0c-1.21-1.21-1.21-3.17,0-4.38l11.56-11.56c-5.31-.95-14.78-4.65-17.47-17.68-.44-2.14-.37-4.4.22-6.64l9.99,5.86c2.21,1.29,5.09.43,6.19-1.94.96-2.07.05-4.55-1.93-5.7l-10.26-6.01c3.15-4.11,7.85-7.95,13.75-11.02l3.83,5.95c1.51,2.35,4.53,2.38,6.24-.2,1.28-1.93,1.17-4.47-.08-6.42l-1.8-2.8c4.05-1.37,8.47-2.39,13.2-2.97l1.32,4.92c.86,3.2,4.23,5.39,7.5,4.87h0c1.52-.24,2.43-1.65,2.03-3.13l-1.93-7.19c6.59.01,13.61.89,20.93,2.87,1.85,6.82,2.73,13.41,2.84,19.62l-4.92-1.32c-2.69-.72-6.49.3-8.46,2.27h0c-1.59,1.59-.85,4.31,1.32,4.89l11.71,3.15c-.52,4.99-1.51,9.69-2.9,13.96l-5.85-3.74c-1.59-1.02-3.86-.65-5.19.68l-.14.14c-2.07,2.07-1.87,4.95.6,6.54l7.14,4.55c-3.23,6.4-7.35,11.42-11.75,14.66l-7.31-12.47c-1.16-1.97-3.63-2.89-5.7-1.92ZM206.05,184.62c1.79-1.79,1.79-4.7,0-6.49-1.79-1.79-4.7-1.79-6.49,0-1.79,1.79-1.79,4.7,0,6.49,1.79,1.79,4.7,1.79,6.49,0ZM207.82,207.92c1.79-1.79,1.79-4.7,0-6.49-1.79-1.79-4.7-1.79-6.49,0s-1.79,4.7,0,6.49c1.79,1.79,4.7,1.79,6.49,0Z"/>
          <g>
            <polygon class="cls-12" points="158.52 71.04 177.09 52.48 219.24 88.44 194.49 113.19 158.52 71.04"/>
            <polygon class="cls-9" points="167.88 74.71 180.75 61.83 211 87.78 193.83 104.95 167.88 74.71"/>
            <path class="cls-4" d="M181.76,82.77l4.61-3.84,24,28.86c3.21,3.86,2.9,9.6-.75,13.07l-11.11,10.6-4.14-4.34,11.11-10.6c1.36-1.33,1.48-3.45.28-4.89l-24-28.86Z"/>
          </g>
        </g>
        <g class="cls-6">
          <rect class="cls-9" x="-21.24" y="-24.16" width="232" height="232"/>
          <path class="cls-3" d="M10.02,13.38c-2.38,1.1-3.25,3.98-1.96,6.19l7,11.95c-2.05.44-4.11.44-6.06,0C-2.92,28.79-7.21,19.01-8.48,13.77l-11.79,11.79c-1.21,1.21-3.17,1.21-4.38,0h0c-1.21-1.21-1.21-3.17,0-4.38l11.56-11.56c-5.31-.95-14.78-4.65-17.47-17.68-.44-2.14-.37-4.4.22-6.64l9.99,5.86c2.21,1.29,5.09.43,6.19-1.94.96-2.07.05-4.55-1.93-5.7l-10.26-6.01c3.15-4.11,7.85-7.95,13.75-11.02l3.83,5.95c1.51,2.35,4.53,2.38,6.24-.2,1.28-1.93,1.17-4.47-.08-6.42l-1.8-2.8c4.05-1.37,8.47-2.39,13.2-2.97l1.32,4.92c.86,3.2,4.23,5.39,7.5,4.87h0c1.52-.24,2.43-1.65,2.03-3.13l-1.93-7.19c6.59.01,13.61.89,20.93,2.87,1.85,6.82,2.73,13.41,2.84,19.62l-4.92-1.32c-2.69-.72-6.49.3-8.46,2.27h0c-1.59,1.59-.85,4.31,1.32,4.89l11.71,3.15c-.52,4.99-1.51,9.69-2.9,13.96l-5.85-3.74c-1.59-1.02-3.86-.65-5.19.68l-.14.14c-2.07,2.07-1.87,4.95.6,6.54l7.14,4.55c-3.23,6.4-7.35,11.42-11.75,14.66l-7.31-12.47c-1.16-1.97-3.63-2.89-5.7-1.92ZM6.05-15.38c1.79-1.79,1.79-4.7,0-6.49-1.79-1.79-4.7-1.79-6.49,0-1.79,1.79-1.79,4.7,0,6.49s4.7,1.79,6.49,0ZM7.82,7.92c1.79-1.79,1.79-4.7,0-6.49C6.03-.36,3.12-.36,1.33,1.43S-.46,6.12,1.33,7.92c1.79,1.79,4.7,1.79,6.49,0Z"/>
          <path class="cls-3" d="M210.02,13.38c-2.38,1.1-3.25,3.98-1.96,6.19l7,11.95c-2.05.44-4.11.44-6.06,0-11.93-2.72-16.22-12.51-17.49-17.74l-11.79,11.79c-1.21,1.21-3.17,1.21-4.38,0h0c-1.21-1.21-1.21-3.17,0-4.38l11.56-11.56c-5.31-.95-14.78-4.65-17.47-17.68-.44-2.14-.37-4.4.22-6.64l9.99,5.86c2.21,1.29,5.09.43,6.19-1.94.96-2.07.05-4.55-1.93-5.7l-10.26-6.01c3.15-4.11,7.85-7.95,13.75-11.02l3.83,5.95c1.51,2.35,4.53,2.38,6.24-.2,1.28-1.93,1.17-4.47-.08-6.42l-1.8-2.8c4.05-1.37,8.47-2.39,13.2-2.97l1.32,4.92c.86,3.2,4.23,5.39,7.5,4.87h0c1.52-.24,2.43-1.65,2.03-3.13l-1.93-7.19c6.59.01,13.61.89,20.93,2.87,1.85,6.82,2.73,13.41,2.84,19.62l-4.92-1.32c-2.69-.72-6.49.3-8.46,2.27h0c-1.59,1.59-.85,4.31,1.32,4.89l11.71,3.15c-.52,4.99-1.51,9.69-2.9,13.96l-5.85-3.74c-1.59-1.02-3.86-.65-5.19.68l-.14.14c-2.07,2.07-1.87,4.95.6,6.54l7.14,4.55c-3.23,6.4-7.35,11.42-11.75,14.66l-7.31-12.47c-1.16-1.97-3.63-2.89-5.7-1.92ZM206.05-15.38c1.79-1.79,1.79-4.7,0-6.49-1.79-1.79-4.7-1.79-6.49,0-1.79,1.79-1.79,4.7,0,6.49,1.79,1.79,4.7,1.79,6.49,0ZM207.82,7.92c1.79-1.79,1.79-4.7,0-6.49-1.79-1.79-4.7-1.79-6.49,0s-1.79,4.7,0,6.49c1.79,1.79,4.7,1.79,6.49,0Z"/>
          <path class="cls-3" d="M10.02,213.38c-2.38,1.1-3.25,3.98-1.96,6.19l7,11.95c-2.05.44-4.11.44-6.06,0-11.93-2.72-16.22-12.51-17.49-17.74l-11.79,11.79c-1.21,1.21-3.17,1.21-4.38,0h0c-1.21-1.21-1.21-3.17,0-4.38l11.56-11.56c-5.31-.95-14.78-4.65-17.47-17.68-.44-2.14-.37-4.4.22-6.64l9.99,5.86c2.21,1.29,5.09.43,6.19-1.94.96-2.07.05-4.55-1.93-5.7l-10.26-6.01c3.15-4.11,7.85-7.95,13.75-11.02l3.83,5.95c1.51,2.35,4.53,2.38,6.24-.2,1.28-1.93,1.17-4.47-.08-6.42l-1.8-2.8c4.05-1.37,8.47-2.39,13.2-2.97l1.32,4.92c.86,3.2,4.23,5.39,7.5,4.87h0c1.52-.24,2.43-1.65,2.03-3.13l-1.93-7.19c6.59.01,13.61.89,20.93,2.87,1.85,6.82,2.73,13.41,2.84,19.62l-4.92-1.32c-2.69-.72-6.49.3-8.46,2.27h0c-1.59,1.59-.85,4.31,1.32,4.89l11.71,3.15c-.52,4.99-1.51,9.69-2.9,13.96l-5.85-3.74c-1.59-1.02-3.86-.65-5.19.68l-.14.14c-2.07,2.07-1.87,4.95.6,6.54l7.14,4.55c-3.23,6.4-7.35,11.42-11.75,14.66l-7.31-12.47c-1.16-1.97-3.63-2.89-5.7-1.92ZM6.05,184.62c1.79-1.79,1.79-4.7,0-6.49-1.79-1.79-4.7-1.79-6.49,0-1.79,1.79-1.79,4.7,0,6.49s4.7,1.79,6.49,0ZM7.82,207.92c1.79-1.79,1.79-4.7,0-6.49-1.79-1.79-4.7-1.79-6.49,0s-1.79,4.7,0,6.49c1.79,1.79,4.7,1.79,6.49,0Z"/>
          <path class="cls-3" d="M210.02,213.38c-2.38,1.1-3.25,3.98-1.96,6.19l7,11.95c-2.05.44-4.11.44-6.06,0-11.93-2.72-16.22-12.51-17.49-17.74l-11.79,11.79c-1.21,1.21-3.17,1.21-4.38,0h0c-1.21-1.21-1.21-3.17,0-4.38l11.56-11.56c-5.31-.95-14.78-4.65-17.47-17.68-.44-2.14-.37-4.4.22-6.64l9.99,5.86c2.21,1.29,5.09.43,6.19-1.94.96-2.07.05-4.55-1.93-5.7l-10.26-6.01c3.15-4.11,7.85-7.95,13.75-11.02l3.83,5.95c1.51,2.35,4.53,2.38,6.24-.2,1.28-1.93,1.17-4.47-.08-6.42l-1.8-2.8c4.05-1.37,8.47-2.39,13.2-2.97l1.32,4.92c.86,3.2,4.23,5.39,7.5,4.87h0c1.52-.24,2.43-1.65,2.03-3.13l-1.93-7.19c6.59.01,13.61.89,20.93,2.87,1.85,6.82,2.73,13.41,2.84,19.62l-4.92-1.32c-2.69-.72-6.49.3-8.46,2.27h0c-1.59,1.59-.85,4.31,1.32,4.89l11.71,3.15c-.52,4.99-1.51,9.69-2.9,13.96l-5.85-3.74c-1.59-1.02-3.86-.65-5.19.68l-.14.14c-2.07,2.07-1.87,4.95.6,6.54l7.14,4.55c-3.23,6.4-7.35,11.42-11.75,14.66l-7.31-12.47c-1.16-1.97-3.63-2.89-5.7-1.92ZM206.05,184.62c1.79-1.79,1.79-4.7,0-6.49-1.79-1.79-4.7-1.79-6.49,0-1.79,1.79-1.79,4.7,0,6.49,1.79,1.79,4.7,1.79,6.49,0ZM207.82,207.92c1.79-1.79,1.79-4.7,0-6.49-1.79-1.79-4.7-1.79-6.49,0s-1.79,4.7,0,6.49c1.79,1.79,4.7,1.79,6.49,0Z"/>
          <g>
            <path class="cls-3" d="M128.24,130.21l-27.84-27.84-10.61,10.61,27.84,27.84c2.93,2.93,7.68,2.93,10.61,0h0c2.93-2.93,2.93-7.68,0-10.61Z"/>
            <path class="cls-10" d="M126.34,106.39l-32.53,32.53-35-35c-8.98-8.98-8.98-23.54,0-32.53h0c8.98-8.98,23.54-8.98,32.53,0l35,35Z"/>
            <g>
              <path class="cls-14" d="M110.26,98.44h0c2.25-2.25,2.25-5.89,0-8.13l-18.53-18.53c-8.82-8.82-23.19-9.47-32.31-.97-9.58,8.92-9.78,23.93-.6,33.11l9.9,9.9,15.38-15.38c4.98-4.98,13.05-4.98,18.03,0h0c2.25,2.25,5.89,2.25,8.13,0Z"/>
              <g class="cls-7">
                <g>
                  <g>
                    <circle cx="28.81" cy="91.14" r="4.19"/>
                    <path d="M47,72.95c1.64,1.64,1.64,4.29,0,5.93s-4.29,1.64-5.93,0c-1.64-1.64-1.64-4.29,0-5.93,1.64-1.64,4.29-1.64,5.93,0Z"/>
                    <path d="M62.22,57.73c1.64,1.64,1.64,4.29,0,5.93-1.64,1.64-4.29,1.64-5.93,0-1.64-1.64-1.64-4.29,0-5.93,1.64-1.64,4.29-1.64,5.93,0Z"/>
                    <circle cx="74.48" cy="45.47" r="4.19"/>
                    <path d="M92.67,27.28c1.64,1.64,1.64,4.29,0,5.93-1.64,1.64-4.29,1.64-5.93,0-1.64-1.64-1.64-4.29,0-5.93,1.64-1.64,4.29-1.64,5.93,0Z"/>
                  </g>
                  <g>
                    <path d="M51.25,92.43c1.64,1.64,1.64,4.29,0,5.93-1.64,1.64-4.29,1.64-5.93,0s-1.64-4.29,0-5.93,4.29-1.64,5.93,0Z"/>
                    <circle cx="63.51" cy="80.17" r="4.19"/>
                    <path d="M81.69,61.98c1.64,1.64,1.64,4.29,0,5.93-1.64,1.64-4.29,1.64-5.93,0s-1.64-4.29,0-5.93c1.64-1.64,4.29-1.64,5.93,0Z"/>
                    <path d="M96.92,46.76c1.64,1.64,1.64,4.29,0,5.93s-4.29,1.64-5.93,0c-1.64-1.64-1.64-4.29,0-5.93,1.64-1.64,4.29-1.64,5.93,0Z"/>
                  </g>
                  <g>
                    <circle cx="53.72" cy="116.05" r="4.19"/>
                    <circle cx="68.94" cy="100.83" r="4.19"/>
                    <path d="M87.13,82.64c1.64,1.64,1.64,4.29,0,5.93-1.64,1.64-4.29,1.64-5.93,0-1.64-1.64-1.64-4.29,0-5.93,1.64-1.64,4.29-1.64,5.93,0Z"/>
                    <path d="M102.35,67.42c1.64,1.64,1.64,4.29,0,5.93-1.64,1.64-4.29,1.64-5.93,0s-1.64-4.29,0-5.93,4.29-1.64,5.93,0Z"/>
                    <path d="M117.58,52.19c1.64,1.64,1.64,4.29,0,5.93s-4.29,1.64-5.93,0c-1.64-1.64-1.64-4.29,0-5.93,1.64-1.64,4.29-1.64,5.93,0Z"/>
                  </g>
                  <g>
                    <circle cx="73.19" cy="120.3" r="4.19"/>
                    <path d="M91.38,102.11c1.64,1.64,1.64,4.29,0,5.93s-4.29,1.64-5.93,0c-1.64-1.64-1.64-4.29,0-5.93s4.29-1.64,5.93,0Z"/>
                    <circle cx="103.64" cy="89.86" r="4.19"/>
                    <circle cx="118.86" cy="74.63" r="4.19"/>
                  </g>
                </g>
              </g>
            </g>
          </g>
          <g>
            <path class="cls-2" d="M83.93,11h0c-1.31-2.29-2-4.89-2-7.53V-6.5c0-8.28,6.72-15,15-15h0c8.28,0,15,6.72,15,15V27.5c0,7.18-5.82,13-13,13h0c-7.18,0-13-5.82-13-13v-8.97c0-2.64-.69-5.24-2-7.53Z"/>
            <polygon class="cls-3" points="83.92 14.51 79.93 11.49 97.38 -11.58 114.88 10.45 110.97 13.56 97.48 -3.42 83.92 14.51"/>
          </g>
          <g>
            <path class="cls-2" d="M83.93,211h0c-1.31-2.29-2-4.89-2-7.53v-9.97c0-8.28,6.72-15,15-15h0c8.28,0,15,6.72,15,15v34c0,7.18-5.82,13-13,13h0c-7.18,0-13-5.82-13-13v-8.97c0-2.64-.69-5.24-2-7.53Z"/>
            <polygon class="cls-3" points="83.92 214.51 79.93 211.49 97.38 188.42 114.88 210.45 110.97 213.56 97.48 196.58 83.92 214.51"/>
          </g>
          <g>
            <polygon class="cls-12" points="-41.48 71.04 -22.91 52.48 19.24 88.44 -5.51 113.19 -41.48 71.04"/>
            <polygon class="cls-9" points="-32.12 74.71 -19.25 61.83 11 87.78 -6.17 104.95 -32.12 74.71"/>
            <path class="cls-4" d="M-18.24,82.77l4.61-3.84,24,28.86c3.21,3.86,2.9,9.6-.75,13.07l-11.11,10.6-4.14-4.34,11.11-10.6c1.36-1.33,1.48-3.45.28-4.89l-24-28.86Z"/>
          </g>
          <g>
            <polygon class="cls-12" points="158.52 71.04 177.09 52.48 219.24 88.44 194.49 113.19 158.52 71.04"/>
            <polygon class="cls-9" points="167.88 74.71 180.75 61.83 211 87.78 193.83 104.95 167.88 74.71"/>
            <path class="cls-4" d="M181.76,82.77l4.61-3.84,24,28.86c3.21,3.86,2.9,9.6-.75,13.07l-11.11,10.6-4.14-4.34,11.11-10.6c1.36-1.33,1.48-3.45.28-4.89l-24-28.86Z"/>
          </g>
          <polygon class="cls-12" points="50.93 31.18 56.4 40.66 45.45 40.66 50.93 31.18"/>
          <polygon class="cls-4" points="81.43 156.68 86.9 166.16 75.95 166.16 81.43 156.68"/>
          <polygon class="cls-10" points="37.36 123.67 38.76 134.53 28.65 130.31 37.36 123.67"/>
          <polygon class="cls-4" points="139.91 16.06 150.62 13.76 147.26 24.19 139.91 16.06"/>
          <polygon class="cls-14" points="137.43 86.83 131.95 77.34 142.9 77.34 137.43 86.83"/>
          <polygon class="cls-10" points="162.49 144.19 171.98 138.72 171.98 149.67 162.49 144.19"/>
        </g>
      </g>
    </pattern>
  </defs>
  <g id="Layer_8" data-name="Layer 8">
    <rect class="cls-11" width="500" height="500"/>
  </g>
</svg>