<?xml version="1.0" encoding="UTF-8"?>
<svg id="Layer_2" data-name="Layer 2" xmlns="http://www.w3.org/2000/svg" viewBox="0 0 90.35 90.2">
  <defs>
    <style>
      .cls-1 {
        fill: #ad8580;
      }

      .cls-2 {
        fill: #341d33;
      }

      .cls-3 {
        fill: #d5b89c;
      }

      .cls-4 {
        fill: #7f2d5a;
      }

      .cls-5 {
        fill: #f4d8bb;
      }
    </style>
  </defs>
  <g id="_Слой_1" data-name="Слой 1">
    <g>
      <rect class="cls-3" x=".17" y=".1" width="90" height="90"/>
      <g>
        <g>
          <g>
            <g>
              <rect class="cls-1" x=".17" y=".1" width="9" height="9"/>
              <path class="cls-2" d="M9.27,9.2H.07V0h9.2v9.2ZM.27,9h8.8V.2H.27v8.8Z"/>
            </g>
            <polygon class="cls-2" points="7.89 7.48 1.84 7.48 1.84 2.7 6.54 2.7 6.54 6.09 2.81 6.09 2.81 3.75 5.49 3.75 5.49 5 3.98 5 3.98 4.8 5.29 4.8 5.29 3.95 3.01 3.95 3.01 5.89 6.34 5.89 6.34 2.9 2.04 2.9 2.04 7.28 7.69 7.28 7.69 1.7 .17 1.7 .17 1.5 7.89 1.5 7.89 7.48"/>
          </g>
          <g>
            <g>
              <polygon class="cls-4" points="13.67 8.5 9.17 8.5 11.42 4.6 13.67 .7 15.92 4.6 18.17 8.5 13.67 8.5"/>
              <path class="cls-2" d="M18.35,8.6h-9.35L13.67.5l4.67,8.09ZM9.35,8.4h8.65L13.67.9l-4.33,7.49Z"/>
            </g>
            <g>
              <polygon class="cls-5" points="13.67 7.44 10.79 7.44 12.23 4.94 13.67 2.44 15.11 4.94 16.56 7.44 13.67 7.44"/>
              <path class="cls-2" d="M16.73,7.54h-6.11l3.06-5.29,3.06,5.29ZM10.96,7.34h5.42l-2.71-4.69-2.71,4.69Z"/>
            </g>
            <g>
              <polygon class="cls-3" points="13.67 6.4 12.44 6.4 13.06 5.33 13.67 4.26 14.29 5.33 14.91 6.4 13.67 6.4"/>
              <path class="cls-2" d="M15.08,6.5h-2.81l1.41-2.44,1.41,2.44ZM12.61,6.3h2.12l-1.06-1.84-1.06,1.84Z"/>
            </g>
          </g>
          <g>
            <g>
              <rect class="cls-1" x="18.17" y=".1" width="9" height="9"/>
              <path class="cls-2" d="M27.27,9.2h-9.2V0h9.2v9.2ZM18.27,9h8.8V.2h-8.8v8.8Z"/>
            </g>
            <polygon class="cls-2" points="25.89 7.48 19.84 7.48 19.84 2.7 24.54 2.7 24.54 6.09 20.81 6.09 20.81 3.75 23.49 3.75 23.49 5 21.98 5 21.98 4.8 23.29 4.8 23.29 3.95 21.01 3.95 21.01 5.89 24.34 5.89 24.34 2.9 20.04 2.9 20.04 7.28 25.69 7.28 25.69 1.7 18.17 1.7 18.17 1.5 25.89 1.5 25.89 7.48"/>
          </g>
          <g>
            <g>
              <polygon class="cls-4" points="31.67 8.5 27.17 8.5 29.42 4.6 31.67 .7 33.92 4.6 36.17 8.5 31.67 8.5"/>
              <path class="cls-2" d="M36.35,8.6h-9.35L31.67.5l4.67,8.09ZM27.35,8.4h8.65L31.67.9l-4.33,7.49Z"/>
            </g>
            <g>
              <polygon class="cls-5" points="31.67 7.44 28.79 7.44 30.23 4.94 31.67 2.44 33.11 4.94 34.56 7.44 31.67 7.44"/>
              <path class="cls-2" d="M34.73,7.54h-6.11l3.06-5.29,3.06,5.29ZM28.96,7.34h5.42l-2.71-4.69-2.71,4.69Z"/>
            </g>
            <g>
              <polygon class="cls-3" points="31.67 6.4 30.44 6.4 31.06 5.33 31.67 4.26 32.29 5.33 32.91 6.4 31.67 6.4"/>
              <path class="cls-2" d="M33.08,6.5h-2.81l1.41-2.44,1.41,2.44ZM30.61,6.3h2.12l-1.06-1.84-1.06,1.84Z"/>
            </g>
          </g>
          <g>
            <g>
              <rect class="cls-1" x="36.17" y=".1" width="9" height="9"/>
              <path class="cls-2" d="M45.27,9.2h-9.2V0h9.2v9.2ZM36.27,9h8.8V.2h-8.8v8.8Z"/>
            </g>
            <polygon class="cls-2" points="43.89 7.48 37.84 7.48 37.84 2.7 42.54 2.7 42.54 6.09 38.81 6.09 38.81 3.75 41.49 3.75 41.49 5 39.98 5 39.98 4.8 41.29 4.8 41.29 3.95 39.01 3.95 39.01 5.89 42.34 5.89 42.34 2.9 38.04 2.9 38.04 7.28 43.69 7.28 43.69 1.7 36.17 1.7 36.17 1.5 43.89 1.5 43.89 7.48"/>
          </g>
          <g>
            <g>
              <polygon class="cls-4" points="49.67 8.5 45.17 8.5 47.42 4.6 49.67 .7 51.92 4.6 54.17 8.5 49.67 8.5"/>
              <path class="cls-2" d="M54.35,8.6h-9.35L49.67.5l4.67,8.09ZM45.35,8.4h8.65l-4.33-7.49-4.33,7.49Z"/>
            </g>
            <g>
              <polygon class="cls-5" points="49.67 7.44 46.79 7.44 48.23 4.94 49.67 2.44 51.11 4.94 52.56 7.44 49.67 7.44"/>
              <path class="cls-2" d="M52.73,7.54h-6.11l3.06-5.29,3.06,5.29ZM46.96,7.34h5.42l-2.71-4.69-2.71,4.69Z"/>
            </g>
            <g>
              <polygon class="cls-3" points="49.67 6.4 48.44 6.4 49.06 5.33 49.67 4.26 50.29 5.33 50.91 6.4 49.67 6.4"/>
              <path class="cls-2" d="M51.08,6.5h-2.81l1.41-2.44,1.41,2.44ZM48.61,6.3h2.12l-1.06-1.84-1.06,1.84Z"/>
            </g>
          </g>
          <g>
            <g>
              <rect class="cls-1" x="54.17" y=".1" width="9" height="9"/>
              <path class="cls-2" d="M63.27,9.2h-9.2V0h9.2v9.2ZM54.27,9h8.8V.2h-8.8v8.8Z"/>
            </g>
            <polygon class="cls-2" points="61.89 7.48 55.84 7.48 55.84 2.7 60.54 2.7 60.54 6.09 56.81 6.09 56.81 3.75 59.49 3.75 59.49 5 57.98 5 57.98 4.8 59.29 4.8 59.29 3.95 57.01 3.95 57.01 5.89 60.34 5.89 60.34 2.9 56.04 2.9 56.04 7.28 61.69 7.28 61.69 1.7 54.17 1.7 54.17 1.5 61.89 1.5 61.89 7.48"/>
          </g>
          <g>
            <g>
              <polygon class="cls-4" points="67.67 8.5 63.17 8.5 65.42 4.6 67.67 .7 69.92 4.6 72.17 8.5 67.67 8.5"/>
              <path class="cls-2" d="M72.35,8.6h-9.35l4.67-8.09,4.67,8.09ZM63.35,8.4h8.65l-4.33-7.49-4.33,7.49Z"/>
            </g>
            <g>
              <polygon class="cls-5" points="67.67 7.44 64.79 7.44 66.23 4.94 67.67 2.44 69.11 4.94 70.56 7.44 67.67 7.44"/>
              <path class="cls-2" d="M70.73,7.54h-6.11l3.06-5.29,3.06,5.29ZM64.96,7.34h5.42l-2.71-4.69-2.71,4.69Z"/>
            </g>
            <g>
              <polygon class="cls-3" points="67.67 6.4 66.44 6.4 67.06 5.33 67.67 4.26 68.29 5.33 68.91 6.4 67.67 6.4"/>
              <path class="cls-2" d="M69.08,6.5h-2.81l1.41-2.44,1.41,2.44ZM66.61,6.3h2.12l-1.06-1.84-1.06,1.84Z"/>
            </g>
          </g>
          <g>
            <g>
              <rect class="cls-1" x="72.17" y=".1" width="9" height="9"/>
              <path class="cls-2" d="M81.27,9.2h-9.2V0h9.2v9.2ZM72.27,9h8.8V.2h-8.8v8.8Z"/>
            </g>
            <polygon class="cls-2" points="79.89 7.48 73.84 7.48 73.84 2.7 78.54 2.7 78.54 6.09 74.81 6.09 74.81 3.75 77.49 3.75 77.49 5 75.98 5 75.98 4.8 77.29 4.8 77.29 3.95 75.01 3.95 75.01 5.89 78.34 5.89 78.34 2.9 74.04 2.9 74.04 7.28 79.69 7.28 79.69 1.7 72.17 1.7 72.17 1.5 79.89 1.5 79.89 7.48"/>
          </g>
          <g>
            <g>
              <polygon class="cls-4" points="85.67 8.5 81.17 8.5 83.42 4.6 85.67 .7 87.92 4.6 90.17 8.5 85.67 8.5"/>
              <path class="cls-2" d="M90.35,8.6h-9.35l4.67-8.09,4.67,8.09ZM81.35,8.4h8.65l-4.33-7.49-4.33,7.49Z"/>
            </g>
            <g>
              <polygon class="cls-5" points="85.67 7.44 82.79 7.44 84.23 4.94 85.67 2.44 87.11 4.94 88.56 7.44 85.67 7.44"/>
              <path class="cls-2" d="M88.73,7.54h-6.11l3.06-5.29,3.06,5.29ZM82.96,7.34h5.42l-2.71-4.69-2.71,4.69Z"/>
            </g>
            <g>
              <polygon class="cls-3" points="85.67 6.4 84.44 6.4 85.06 5.33 85.67 4.26 86.29 5.33 86.91 6.4 85.67 6.4"/>
              <path class="cls-2" d="M87.08,6.5h-2.81l1.41-2.44,1.41,2.44ZM84.61,6.3h2.12l-1.06-1.84-1.06,1.84Z"/>
            </g>
          </g>
        </g>
        <g>
          <g>
            <g>
              <rect class="cls-1" x="81.17" y="9.1" width="9" height="9"/>
              <path class="cls-2" d="M90.27,18.2h-9.2v-9.2h9.2v9.2ZM81.27,18h8.8v-8.8h-8.8v8.8Z"/>
            </g>
            <polygon class="cls-2" points="88.89 16.48 82.84 16.48 82.84 11.7 87.54 11.7 87.54 15.09 83.81 15.09 83.81 12.75 86.49 12.75 86.49 14 84.98 14 84.98 13.8 86.29 13.8 86.29 12.95 84.01 12.95 84.01 14.89 87.34 14.89 87.34 11.9 83.04 11.9 83.04 16.28 88.69 16.28 88.69 10.7 81.17 10.7 81.17 10.5 88.89 10.5 88.89 16.48"/>
          </g>
          <g>
            <g>
              <polygon class="cls-4" points="4.67 17.5 .17 17.5 2.42 13.6 4.67 9.7 6.92 13.6 9.17 17.5 4.67 17.5"/>
              <path class="cls-2" d="M9.35,17.6H0l4.67-8.09,4.67,8.09ZM.35,17.4h8.65l-4.33-7.49L.35,17.4Z"/>
            </g>
            <g>
              <polygon class="cls-5" points="4.67 16.44 1.79 16.44 3.23 13.94 4.67 11.44 6.11 13.94 7.56 16.44 4.67 16.44"/>
              <path class="cls-2" d="M7.73,16.54H1.62l3.06-5.29,3.06,5.29ZM1.96,16.34h5.42l-2.71-4.69-2.71,4.69Z"/>
            </g>
            <g>
              <polygon class="cls-3" points="4.67 15.4 3.44 15.4 4.06 14.33 4.67 13.26 5.29 14.33 5.91 15.4 4.67 15.4"/>
              <path class="cls-2" d="M6.08,15.5h-2.81l1.41-2.44,1.41,2.44ZM3.61,15.3h2.12l-1.06-1.84-1.06,1.84Z"/>
            </g>
          </g>
          <g>
            <g>
              <rect class="cls-1" x="9.17" y="9.1" width="9" height="9"/>
              <path class="cls-2" d="M18.27,18.2h-9.2v-9.2h9.2v9.2ZM9.27,18h8.8v-8.8h-8.8v8.8Z"/>
            </g>
            <polygon class="cls-2" points="16.89 16.48 10.84 16.48 10.84 11.7 15.54 11.7 15.54 15.09 11.81 15.09 11.81 12.75 14.49 12.75 14.49 14 12.98 14 12.98 13.8 14.29 13.8 14.29 12.95 12.01 12.95 12.01 14.89 15.34 14.89 15.34 11.9 11.04 11.9 11.04 16.28 16.69 16.28 16.69 10.7 9.17 10.7 9.17 10.5 16.89 10.5 16.89 16.48"/>
          </g>
          <g>
            <g>
              <polygon class="cls-4" points="22.67 17.5 18.17 17.5 20.42 13.6 22.67 9.7 24.92 13.6 27.17 17.5 22.67 17.5"/>
              <path class="cls-2" d="M27.35,17.6h-9.35l4.67-8.09,4.67,8.09ZM18.35,17.4h8.65l-4.33-7.49-4.33,7.49Z"/>
            </g>
            <g>
              <polygon class="cls-5" points="22.67 16.44 19.79 16.44 21.23 13.94 22.67 11.44 24.11 13.94 25.56 16.44 22.67 16.44"/>
              <path class="cls-2" d="M25.73,16.54h-6.11l3.06-5.29,3.06,5.29ZM19.96,16.34h5.42l-2.71-4.69-2.71,4.69Z"/>
            </g>
            <g>
              <polygon class="cls-3" points="22.67 15.4 21.44 15.4 22.06 14.33 22.67 13.26 23.29 14.33 23.91 15.4 22.67 15.4"/>
              <path class="cls-2" d="M24.08,15.5h-2.81l1.41-2.44,1.41,2.44ZM21.61,15.3h2.12l-1.06-1.84-1.06,1.84Z"/>
            </g>
          </g>
          <g>
            <g>
              <rect class="cls-1" x="27.17" y="9.1" width="9" height="9"/>
              <path class="cls-2" d="M36.27,18.2h-9.2v-9.2h9.2v9.2ZM27.27,18h8.8v-8.8h-8.8v8.8Z"/>
            </g>
            <polygon class="cls-2" points="34.89 16.48 28.84 16.48 28.84 11.7 33.54 11.7 33.54 15.09 29.81 15.09 29.81 12.75 32.49 12.75 32.49 14 30.98 14 30.98 13.8 32.29 13.8 32.29 12.95 30.01 12.95 30.01 14.89 33.34 14.89 33.34 11.9 29.04 11.9 29.04 16.28 34.69 16.28 34.69 10.7 27.17 10.7 27.17 10.5 34.89 10.5 34.89 16.48"/>
          </g>
          <g>
            <g>
              <polygon class="cls-4" points="40.67 17.5 36.17 17.5 38.42 13.6 40.67 9.7 42.92 13.6 45.17 17.5 40.67 17.5"/>
              <path class="cls-2" d="M45.35,17.6h-9.35l4.67-8.09,4.67,8.09ZM36.35,17.4h8.65l-4.33-7.49-4.33,7.49Z"/>
            </g>
            <g>
              <polygon class="cls-5" points="40.67 16.44 37.79 16.44 39.23 13.94 40.67 11.44 42.11 13.94 43.56 16.44 40.67 16.44"/>
              <path class="cls-2" d="M43.73,16.54h-6.11l3.06-5.29,3.06,5.29ZM37.96,16.34h5.42l-2.71-4.69-2.71,4.69Z"/>
            </g>
            <g>
              <polygon class="cls-3" points="40.67 15.4 39.44 15.4 40.06 14.33 40.67 13.26 41.29 14.33 41.91 15.4 40.67 15.4"/>
              <path class="cls-2" d="M42.08,15.5h-2.81l1.41-2.44,1.41,2.44ZM39.61,15.3h2.12l-1.06-1.84-1.06,1.84Z"/>
            </g>
          </g>
          <g>
            <g>
              <rect class="cls-1" x="45.17" y="9.1" width="9" height="9"/>
              <path class="cls-2" d="M54.27,18.2h-9.2v-9.2h9.2v9.2ZM45.27,18h8.8v-8.8h-8.8v8.8Z"/>
            </g>
            <polygon class="cls-2" points="52.89 16.48 46.84 16.48 46.84 11.7 51.54 11.7 51.54 15.09 47.81 15.09 47.81 12.75 50.49 12.75 50.49 14 48.98 14 48.98 13.8 50.29 13.8 50.29 12.95 48.01 12.95 48.01 14.89 51.34 14.89 51.34 11.9 47.04 11.9 47.04 16.28 52.69 16.28 52.69 10.7 45.17 10.7 45.17 10.5 52.89 10.5 52.89 16.48"/>
          </g>
          <g>
            <g>
              <polygon class="cls-4" points="58.67 17.5 54.17 17.5 56.42 13.6 58.67 9.7 60.92 13.6 63.17 17.5 58.67 17.5"/>
              <path class="cls-2" d="M63.35,17.6h-9.35l4.67-8.09,4.67,8.09ZM54.35,17.4h8.65l-4.33-7.49-4.33,7.49Z"/>
            </g>
            <g>
              <polygon class="cls-5" points="58.67 16.44 55.79 16.44 57.23 13.94 58.67 11.44 60.11 13.94 61.56 16.44 58.67 16.44"/>
              <path class="cls-2" d="M61.73,16.54h-6.11l3.06-5.29,3.06,5.29ZM55.96,16.34h5.42l-2.71-4.69-2.71,4.69Z"/>
            </g>
            <g>
              <polygon class="cls-3" points="58.67 15.4 57.44 15.4 58.06 14.33 58.67 13.26 59.29 14.33 59.91 15.4 58.67 15.4"/>
              <path class="cls-2" d="M60.08,15.5h-2.81l1.41-2.44,1.41,2.44ZM57.61,15.3h2.12l-1.06-1.84-1.06,1.84Z"/>
            </g>
          </g>
          <g>
            <g>
              <rect class="cls-1" x="63.17" y="9.1" width="9" height="9"/>
              <path class="cls-2" d="M72.27,18.2h-9.2v-9.2h9.2v9.2ZM63.27,18h8.8v-8.8h-8.8v8.8Z"/>
            </g>
            <polygon class="cls-2" points="70.89 16.48 64.84 16.48 64.84 11.7 69.54 11.7 69.54 15.09 65.81 15.09 65.81 12.75 68.49 12.75 68.49 14 66.98 14 66.98 13.8 68.29 13.8 68.29 12.95 66.01 12.95 66.01 14.89 69.34 14.89 69.34 11.9 65.04 11.9 65.04 16.28 70.69 16.28 70.69 10.7 63.17 10.7 63.17 10.5 70.89 10.5 70.89 16.48"/>
          </g>
          <g>
            <g>
              <polygon class="cls-4" points="76.67 17.5 72.17 17.5 74.42 13.6 76.67 9.7 78.92 13.6 81.17 17.5 76.67 17.5"/>
              <path class="cls-2" d="M81.35,17.6h-9.35l4.67-8.09,4.67,8.09ZM72.35,17.4h8.65l-4.33-7.49-4.33,7.49Z"/>
            </g>
            <g>
              <polygon class="cls-5" points="76.67 16.44 73.79 16.44 75.23 13.94 76.67 11.44 78.11 13.94 79.56 16.44 76.67 16.44"/>
              <path class="cls-2" d="M79.73,16.54h-6.11l3.06-5.29,3.06,5.29ZM73.96,16.34h5.42l-2.71-4.69-2.71,4.69Z"/>
            </g>
            <g>
              <polygon class="cls-3" points="76.67 15.4 75.44 15.4 76.06 14.33 76.67 13.26 77.29 14.33 77.91 15.4 76.67 15.4"/>
              <path class="cls-2" d="M78.08,15.5h-2.81l1.41-2.44,1.41,2.44ZM75.61,15.3h2.12l-1.06-1.84-1.06,1.84Z"/>
            </g>
          </g>
        </g>
        <g>
          <g>
            <g>
              <rect class="cls-1" x=".17" y="18.1" width="9" height="9"/>
              <path class="cls-2" d="M9.27,27.2H.07v-9.2h9.2v9.2ZM.27,27h8.8v-8.8H.27v8.8Z"/>
            </g>
            <polygon class="cls-2" points="7.89 25.48 1.84 25.48 1.84 20.7 6.54 20.7 6.54 24.09 2.81 24.09 2.81 21.75 5.49 21.75 5.49 23 3.98 23 3.98 22.8 5.29 22.8 5.29 21.95 3.01 21.95 3.01 23.89 6.34 23.89 6.34 20.9 2.04 20.9 2.04 25.28 7.69 25.28 7.69 19.7 .17 19.7 .17 19.5 7.89 19.5 7.89 25.48"/>
          </g>
          <g>
            <g>
              <polygon class="cls-4" points="13.67 26.5 9.17 26.5 11.42 22.6 13.67 18.7 15.92 22.6 18.17 26.5 13.67 26.5"/>
              <path class="cls-2" d="M18.35,26.6h-9.35l4.67-8.09,4.67,8.09ZM9.35,26.4h8.65l-4.33-7.49-4.33,7.49Z"/>
            </g>
            <g>
              <polygon class="cls-5" points="13.67 25.44 10.79 25.44 12.23 22.94 13.67 20.44 15.11 22.94 16.56 25.44 13.67 25.44"/>
              <path class="cls-2" d="M16.73,25.54h-6.11l3.06-5.29,3.06,5.29ZM10.96,25.34h5.42l-2.71-4.69-2.71,4.69Z"/>
            </g>
            <g>
              <polygon class="cls-3" points="13.67 24.4 12.44 24.4 13.06 23.33 13.67 22.26 14.29 23.33 14.91 24.4 13.67 24.4"/>
              <path class="cls-2" d="M15.08,24.5h-2.81l1.41-2.44,1.41,2.44ZM12.61,24.3h2.12l-1.06-1.84-1.06,1.84Z"/>
            </g>
          </g>
          <g>
            <g>
              <rect class="cls-1" x="18.17" y="18.1" width="9" height="9"/>
              <path class="cls-2" d="M27.27,27.2h-9.2v-9.2h9.2v9.2ZM18.27,27h8.8v-8.8h-8.8v8.8Z"/>
            </g>
            <polygon class="cls-2" points="25.89 25.48 19.84 25.48 19.84 20.7 24.54 20.7 24.54 24.09 20.81 24.09 20.81 21.75 23.49 21.75 23.49 23 21.98 23 21.98 22.8 23.29 22.8 23.29 21.95 21.01 21.95 21.01 23.89 24.34 23.89 24.34 20.9 20.04 20.9 20.04 25.28 25.69 25.28 25.69 19.7 18.17 19.7 18.17 19.5 25.89 19.5 25.89 25.48"/>
          </g>
          <g>
            <g>
              <polygon class="cls-4" points="31.67 26.5 27.17 26.5 29.42 22.6 31.67 18.7 33.92 22.6 36.17 26.5 31.67 26.5"/>
              <path class="cls-2" d="M36.35,26.6h-9.35l4.67-8.09,4.67,8.09ZM27.35,26.4h8.65l-4.33-7.49-4.33,7.49Z"/>
            </g>
            <g>
              <polygon class="cls-5" points="31.67 25.44 28.79 25.44 30.23 22.94 31.67 20.44 33.11 22.94 34.56 25.44 31.67 25.44"/>
              <path class="cls-2" d="M34.73,25.54h-6.11l3.06-5.29,3.06,5.29ZM28.96,25.34h5.42l-2.71-4.69-2.71,4.69Z"/>
            </g>
            <g>
              <polygon class="cls-3" points="31.67 24.4 30.44 24.4 31.06 23.33 31.67 22.26 32.29 23.33 32.91 24.4 31.67 24.4"/>
              <path class="cls-2" d="M33.08,24.5h-2.81l1.41-2.44,1.41,2.44ZM30.61,24.3h2.12l-1.06-1.84-1.06,1.84Z"/>
            </g>
          </g>
          <g>
            <g>
              <rect class="cls-1" x="36.17" y="18.1" width="9" height="9"/>
              <path class="cls-2" d="M45.27,27.2h-9.2v-9.2h9.2v9.2ZM36.27,27h8.8v-8.8h-8.8v8.8Z"/>
            </g>
            <polygon class="cls-2" points="43.89 25.48 37.84 25.48 37.84 20.7 42.54 20.7 42.54 24.09 38.81 24.09 38.81 21.75 41.49 21.75 41.49 23 39.98 23 39.98 22.8 41.29 22.8 41.29 21.95 39.01 21.95 39.01 23.89 42.34 23.89 42.34 20.9 38.04 20.9 38.04 25.28 43.69 25.28 43.69 19.7 36.17 19.7 36.17 19.5 43.89 19.5 43.89 25.48"/>
          </g>
          <g>
            <g>
              <polygon class="cls-4" points="49.67 26.5 45.17 26.5 47.42 22.6 49.67 18.7 51.92 22.6 54.17 26.5 49.67 26.5"/>
              <path class="cls-2" d="M54.35,26.6h-9.35l4.67-8.09,4.67,8.09ZM45.35,26.4h8.65l-4.33-7.49-4.33,7.49Z"/>
            </g>
            <g>
              <polygon class="cls-5" points="49.67 25.44 46.79 25.44 48.23 22.94 49.67 20.44 51.11 22.94 52.56 25.44 49.67 25.44"/>
              <path class="cls-2" d="M52.73,25.54h-6.11l3.06-5.29,3.06,5.29ZM46.96,25.34h5.42l-2.71-4.69-2.71,4.69Z"/>
            </g>
            <g>
              <polygon class="cls-3" points="49.67 24.4 48.44 24.4 49.06 23.33 49.67 22.26 50.29 23.33 50.91 24.4 49.67 24.4"/>
              <path class="cls-2" d="M51.08,24.5h-2.81l1.41-2.44,1.41,2.44ZM48.61,24.3h2.12l-1.06-1.84-1.06,1.84Z"/>
            </g>
          </g>
          <g>
            <g>
              <rect class="cls-1" x="54.17" y="18.1" width="9" height="9"/>
              <path class="cls-2" d="M63.27,27.2h-9.2v-9.2h9.2v9.2ZM54.27,27h8.8v-8.8h-8.8v8.8Z"/>
            </g>
            <polygon class="cls-2" points="61.89 25.48 55.84 25.48 55.84 20.7 60.54 20.7 60.54 24.09 56.81 24.09 56.81 21.75 59.49 21.75 59.49 23 57.98 23 57.98 22.8 59.29 22.8 59.29 21.95 57.01 21.95 57.01 23.89 60.34 23.89 60.34 20.9 56.04 20.9 56.04 25.28 61.69 25.28 61.69 19.7 54.17 19.7 54.17 19.5 61.89 19.5 61.89 25.48"/>
          </g>
          <g>
            <g>
              <polygon class="cls-4" points="67.67 26.5 63.17 26.5 65.42 22.6 67.67 18.7 69.92 22.6 72.17 26.5 67.67 26.5"/>
              <path class="cls-2" d="M72.35,26.6h-9.35l4.67-8.09,4.67,8.09ZM63.35,26.4h8.65l-4.33-7.49-4.33,7.49Z"/>
            </g>
            <g>
              <polygon class="cls-5" points="67.67 25.44 64.79 25.44 66.23 22.94 67.67 20.44 69.11 22.94 70.56 25.44 67.67 25.44"/>
              <path class="cls-2" d="M70.73,25.54h-6.11l3.06-5.29,3.06,5.29ZM64.96,25.34h5.42l-2.71-4.69-2.71,4.69Z"/>
            </g>
            <g>
              <polygon class="cls-3" points="67.67 24.4 66.44 24.4 67.06 23.33 67.67 22.26 68.29 23.33 68.91 24.4 67.67 24.4"/>
              <path class="cls-2" d="M69.08,24.5h-2.81l1.41-2.44,1.41,2.44ZM66.61,24.3h2.12l-1.06-1.84-1.06,1.84Z"/>
            </g>
          </g>
          <g>
            <g>
              <rect class="cls-1" x="72.17" y="18.1" width="9" height="9"/>
              <path class="cls-2" d="M81.27,27.2h-9.2v-9.2h9.2v9.2ZM72.27,27h8.8v-8.8h-8.8v8.8Z"/>
            </g>
            <polygon class="cls-2" points="79.89 25.48 73.84 25.48 73.84 20.7 78.54 20.7 78.54 24.09 74.81 24.09 74.81 21.75 77.49 21.75 77.49 23 75.98 23 75.98 22.8 77.29 22.8 77.29 21.95 75.01 21.95 75.01 23.89 78.34 23.89 78.34 20.9 74.04 20.9 74.04 25.28 79.69 25.28 79.69 19.7 72.17 19.7 72.17 19.5 79.89 19.5 79.89 25.48"/>
          </g>
          <g>
            <g>
              <polygon class="cls-4" points="85.67 26.5 81.17 26.5 83.42 22.6 85.67 18.7 87.92 22.6 90.17 26.5 85.67 26.5"/>
              <path class="cls-2" d="M90.35,26.6h-9.35l4.67-8.09,4.67,8.09ZM81.35,26.4h8.65l-4.33-7.49-4.33,7.49Z"/>
            </g>
            <g>
              <polygon class="cls-5" points="85.67 25.44 82.79 25.44 84.23 22.94 85.67 20.44 87.11 22.94 88.56 25.44 85.67 25.44"/>
              <path class="cls-2" d="M88.73,25.54h-6.11l3.06-5.29,3.06,5.29ZM82.96,25.34h5.42l-2.71-4.69-2.71,4.69Z"/>
            </g>
            <g>
              <polygon class="cls-3" points="85.67 24.4 84.44 24.4 85.06 23.33 85.67 22.26 86.29 23.33 86.91 24.4 85.67 24.4"/>
              <path class="cls-2" d="M87.08,24.5h-2.81l1.41-2.44,1.41,2.44ZM84.61,24.3h2.12l-1.06-1.84-1.06,1.84Z"/>
            </g>
          </g>
        </g>
        <g>
          <g>
            <g>
              <rect class="cls-1" x="81.17" y="27.1" width="9" height="9"/>
              <path class="cls-2" d="M90.27,36.2h-9.2v-9.2h9.2v9.2ZM81.27,36h8.8v-8.8h-8.8v8.8Z"/>
            </g>
            <polygon class="cls-2" points="88.89 34.48 82.84 34.48 82.84 29.7 87.54 29.7 87.54 33.09 83.81 33.09 83.81 30.75 86.49 30.75 86.49 32 84.98 32 84.98 31.8 86.29 31.8 86.29 30.95 84.01 30.95 84.01 32.89 87.34 32.89 87.34 29.9 83.04 29.9 83.04 34.28 88.69 34.28 88.69 28.7 81.17 28.7 81.17 28.5 88.89 28.5 88.89 34.48"/>
          </g>
          <g>
            <g>
              <polygon class="cls-4" points="4.67 35.5 .17 35.5 2.42 31.6 4.67 27.7 6.92 31.6 9.17 35.5 4.67 35.5"/>
              <path class="cls-2" d="M9.35,35.6H0l4.67-8.09,4.67,8.09ZM.35,35.4h8.65l-4.33-7.49L.35,35.4Z"/>
            </g>
            <g>
              <polygon class="cls-5" points="4.67 34.44 1.79 34.44 3.23 31.94 4.67 29.44 6.11 31.94 7.56 34.44 4.67 34.44"/>
              <path class="cls-2" d="M7.73,34.54H1.62l3.06-5.29,3.06,5.29ZM1.96,34.34h5.42l-2.71-4.69-2.71,4.69Z"/>
            </g>
            <g>
              <polygon class="cls-3" points="4.67 33.4 3.44 33.4 4.06 32.33 4.67 31.26 5.29 32.33 5.91 33.4 4.67 33.4"/>
              <path class="cls-2" d="M6.08,33.5h-2.81l1.41-2.44,1.41,2.44ZM3.61,33.3h2.12l-1.06-1.84-1.06,1.84Z"/>
            </g>
          </g>
          <g>
            <g>
              <rect class="cls-1" x="9.17" y="27.1" width="9" height="9"/>
              <path class="cls-2" d="M18.27,36.2h-9.2v-9.2h9.2v9.2ZM9.27,36h8.8v-8.8h-8.8v8.8Z"/>
            </g>
            <polygon class="cls-2" points="16.89 34.48 10.84 34.48 10.84 29.7 15.54 29.7 15.54 33.09 11.81 33.09 11.81 30.75 14.49 30.75 14.49 32 12.98 32 12.98 31.8 14.29 31.8 14.29 30.95 12.01 30.95 12.01 32.89 15.34 32.89 15.34 29.9 11.04 29.9 11.04 34.28 16.69 34.28 16.69 28.7 9.17 28.7 9.17 28.5 16.89 28.5 16.89 34.48"/>
          </g>
          <g>
            <g>
              <polygon class="cls-4" points="22.67 35.5 18.17 35.5 20.42 31.6 22.67 27.7 24.92 31.6 27.17 35.5 22.67 35.5"/>
              <path class="cls-2" d="M27.35,35.6h-9.35l4.67-8.09,4.67,8.09ZM18.35,35.4h8.65l-4.33-7.49-4.33,7.49Z"/>
            </g>
            <g>
              <polygon class="cls-5" points="22.67 34.44 19.79 34.44 21.23 31.94 22.67 29.44 24.11 31.94 25.56 34.44 22.67 34.44"/>
              <path class="cls-2" d="M25.73,34.54h-6.11l3.06-5.29,3.06,5.29ZM19.96,34.34h5.42l-2.71-4.69-2.71,4.69Z"/>
            </g>
            <g>
              <polygon class="cls-3" points="22.67 33.4 21.44 33.4 22.06 32.33 22.67 31.26 23.29 32.33 23.91 33.4 22.67 33.4"/>
              <path class="cls-2" d="M24.08,33.5h-2.81l1.41-2.44,1.41,2.44ZM21.61,33.3h2.12l-1.06-1.84-1.06,1.84Z"/>
            </g>
          </g>
          <g>
            <g>
              <rect class="cls-1" x="27.17" y="27.1" width="9" height="9"/>
              <path class="cls-2" d="M36.27,36.2h-9.2v-9.2h9.2v9.2ZM27.27,36h8.8v-8.8h-8.8v8.8Z"/>
            </g>
            <polygon class="cls-2" points="34.89 34.48 28.84 34.48 28.84 29.7 33.54 29.7 33.54 33.09 29.81 33.09 29.81 30.75 32.49 30.75 32.49 32 30.98 32 30.98 31.8 32.29 31.8 32.29 30.95 30.01 30.95 30.01 32.89 33.34 32.89 33.34 29.9 29.04 29.9 29.04 34.28 34.69 34.28 34.69 28.7 27.17 28.7 27.17 28.5 34.89 28.5 34.89 34.48"/>
          </g>
          <g>
            <g>
              <polygon class="cls-4" points="40.67 35.5 36.17 35.5 38.42 31.6 40.67 27.7 42.92 31.6 45.17 35.5 40.67 35.5"/>
              <path class="cls-2" d="M45.35,35.6h-9.35l4.67-8.09,4.67,8.09ZM36.35,35.4h8.65l-4.33-7.49-4.33,7.49Z"/>
            </g>
            <g>
              <polygon class="cls-5" points="40.67 34.44 37.79 34.44 39.23 31.94 40.67 29.44 42.11 31.94 43.56 34.44 40.67 34.44"/>
              <path class="cls-2" d="M43.73,34.54h-6.11l3.06-5.29,3.06,5.29ZM37.96,34.34h5.42l-2.71-4.69-2.71,4.69Z"/>
            </g>
            <g>
              <polygon class="cls-3" points="40.67 33.4 39.44 33.4 40.06 32.33 40.67 31.26 41.29 32.33 41.91 33.4 40.67 33.4"/>
              <path class="cls-2" d="M42.08,33.5h-2.81l1.41-2.44,1.41,2.44ZM39.61,33.3h2.12l-1.06-1.84-1.06,1.84Z"/>
            </g>
          </g>
          <g>
            <g>
              <rect class="cls-1" x="45.17" y="27.1" width="9" height="9"/>
              <path class="cls-2" d="M54.27,36.2h-9.2v-9.2h9.2v9.2ZM45.27,36h8.8v-8.8h-8.8v8.8Z"/>
            </g>
            <polygon class="cls-2" points="52.89 34.48 46.84 34.48 46.84 29.7 51.54 29.7 51.54 33.09 47.81 33.09 47.81 30.75 50.49 30.75 50.49 32 48.98 32 48.98 31.8 50.29 31.8 50.29 30.95 48.01 30.95 48.01 32.89 51.34 32.89 51.34 29.9 47.04 29.9 47.04 34.28 52.69 34.28 52.69 28.7 45.17 28.7 45.17 28.5 52.89 28.5 52.89 34.48"/>
          </g>
          <g>
            <g>
              <polygon class="cls-4" points="58.67 35.5 54.17 35.5 56.42 31.6 58.67 27.7 60.92 31.6 63.17 35.5 58.67 35.5"/>
              <path class="cls-2" d="M63.35,35.6h-9.35l4.67-8.09,4.67,8.09ZM54.35,35.4h8.65l-4.33-7.49-4.33,7.49Z"/>
            </g>
            <g>
              <polygon class="cls-5" points="58.67 34.44 55.79 34.44 57.23 31.94 58.67 29.44 60.11 31.94 61.56 34.44 58.67 34.44"/>
              <path class="cls-2" d="M61.73,34.54h-6.11l3.06-5.29,3.06,5.29ZM55.96,34.34h5.42l-2.71-4.69-2.71,4.69Z"/>
            </g>
            <g>
              <polygon class="cls-3" points="58.67 33.4 57.44 33.4 58.06 32.33 58.67 31.26 59.29 32.33 59.91 33.4 58.67 33.4"/>
              <path class="cls-2" d="M60.08,33.5h-2.81l1.41-2.44,1.41,2.44ZM57.61,33.3h2.12l-1.06-1.84-1.06,1.84Z"/>
            </g>
          </g>
          <g>
            <g>
              <rect class="cls-1" x="63.17" y="27.1" width="9" height="9"/>
              <path class="cls-2" d="M72.27,36.2h-9.2v-9.2h9.2v9.2ZM63.27,36h8.8v-8.8h-8.8v8.8Z"/>
            </g>
            <polygon class="cls-2" points="70.89 34.48 64.84 34.48 64.84 29.7 69.54 29.7 69.54 33.09 65.81 33.09 65.81 30.75 68.49 30.75 68.49 32 66.98 32 66.98 31.8 68.29 31.8 68.29 30.95 66.01 30.95 66.01 32.89 69.34 32.89 69.34 29.9 65.04 29.9 65.04 34.28 70.69 34.28 70.69 28.7 63.17 28.7 63.17 28.5 70.89 28.5 70.89 34.48"/>
          </g>
          <g>
            <g>
              <polygon class="cls-4" points="76.67 35.5 72.17 35.5 74.42 31.6 76.67 27.7 78.92 31.6 81.17 35.5 76.67 35.5"/>
              <path class="cls-2" d="M81.35,35.6h-9.35l4.67-8.09,4.67,8.09ZM72.35,35.4h8.65l-4.33-7.49-4.33,7.49Z"/>
            </g>
            <g>
              <polygon class="cls-5" points="76.67 34.44 73.79 34.44 75.23 31.94 76.67 29.44 78.11 31.94 79.56 34.44 76.67 34.44"/>
              <path class="cls-2" d="M79.73,34.54h-6.11l3.06-5.29,3.06,5.29ZM73.96,34.34h5.42l-2.71-4.69-2.71,4.69Z"/>
            </g>
            <g>
              <polygon class="cls-3" points="76.67 33.4 75.44 33.4 76.06 32.33 76.67 31.26 77.29 32.33 77.91 33.4 76.67 33.4"/>
              <path class="cls-2" d="M78.08,33.5h-2.81l1.41-2.44,1.41,2.44ZM75.61,33.3h2.12l-1.06-1.84-1.06,1.84Z"/>
            </g>
          </g>
        </g>
        <g>
          <g>
            <g>
              <rect class="cls-1" x=".17" y="36.1" width="9" height="9"/>
              <path class="cls-2" d="M9.27,45.2H.07v-9.2h9.2v9.2ZM.27,45h8.8v-8.8H.27v8.8Z"/>
            </g>
            <polygon class="cls-2" points="7.89 43.48 1.84 43.48 1.84 38.7 6.54 38.7 6.54 42.09 2.81 42.09 2.81 39.75 5.49 39.75 5.49 41 3.98 41 3.98 40.8 5.29 40.8 5.29 39.95 3.01 39.95 3.01 41.89 6.34 41.89 6.34 38.9 2.04 38.9 2.04 43.28 7.69 43.28 7.69 37.7 .17 37.7 .17 37.5 7.89 37.5 7.89 43.48"/>
          </g>
          <g>
            <g>
              <polygon class="cls-4" points="13.67 44.5 9.17 44.5 11.42 40.6 13.67 36.7 15.92 40.6 18.17 44.5 13.67 44.5"/>
              <path class="cls-2" d="M18.35,44.6h-9.35l4.67-8.09,4.67,8.09ZM9.35,44.4h8.65l-4.33-7.49-4.33,7.49Z"/>
            </g>
            <g>
              <polygon class="cls-5" points="13.67 43.44 10.79 43.44 12.23 40.94 13.67 38.44 15.11 40.94 16.56 43.44 13.67 43.44"/>
              <path class="cls-2" d="M16.73,43.54h-6.11l3.06-5.29,3.06,5.29ZM10.96,43.34h5.42l-2.71-4.69-2.71,4.69Z"/>
            </g>
            <g>
              <polygon class="cls-3" points="13.67 42.4 12.44 42.4 13.06 41.33 13.67 40.26 14.29 41.33 14.91 42.4 13.67 42.4"/>
              <path class="cls-2" d="M15.08,42.5h-2.81l1.41-2.44,1.41,2.44ZM12.61,42.3h2.12l-1.06-1.84-1.06,1.84Z"/>
            </g>
          </g>
          <g>
            <g>
              <rect class="cls-1" x="18.17" y="36.1" width="9" height="9"/>
              <path class="cls-2" d="M27.27,45.2h-9.2v-9.2h9.2v9.2ZM18.27,45h8.8v-8.8h-8.8v8.8Z"/>
            </g>
            <polygon class="cls-2" points="25.89 43.48 19.84 43.48 19.84 38.7 24.54 38.7 24.54 42.09 20.81 42.09 20.81 39.75 23.49 39.75 23.49 41 21.98 41 21.98 40.8 23.29 40.8 23.29 39.95 21.01 39.95 21.01 41.89 24.34 41.89 24.34 38.9 20.04 38.9 20.04 43.28 25.69 43.28 25.69 37.7 18.17 37.7 18.17 37.5 25.89 37.5 25.89 43.48"/>
          </g>
          <g>
            <g>
              <polygon class="cls-4" points="31.67 44.5 27.17 44.5 29.42 40.6 31.67 36.7 33.92 40.6 36.17 44.5 31.67 44.5"/>
              <path class="cls-2" d="M36.35,44.6h-9.35l4.67-8.09,4.67,8.09ZM27.35,44.4h8.65l-4.33-7.49-4.33,7.49Z"/>
            </g>
            <g>
              <polygon class="cls-5" points="31.67 43.44 28.79 43.44 30.23 40.94 31.67 38.44 33.11 40.94 34.56 43.44 31.67 43.44"/>
              <path class="cls-2" d="M34.73,43.54h-6.11l3.06-5.29,3.06,5.29ZM28.96,43.34h5.42l-2.71-4.69-2.71,4.69Z"/>
            </g>
            <g>
              <polygon class="cls-3" points="31.67 42.4 30.44 42.4 31.06 41.33 31.67 40.26 32.29 41.33 32.91 42.4 31.67 42.4"/>
              <path class="cls-2" d="M33.08,42.5h-2.81l1.41-2.44,1.41,2.44ZM30.61,42.3h2.12l-1.06-1.84-1.06,1.84Z"/>
            </g>
          </g>
          <g>
            <g>
              <rect class="cls-1" x="36.17" y="36.1" width="9" height="9"/>
              <path class="cls-2" d="M45.27,45.2h-9.2v-9.2h9.2v9.2ZM36.27,45h8.8v-8.8h-8.8v8.8Z"/>
            </g>
            <polygon class="cls-2" points="43.89 43.48 37.84 43.48 37.84 38.7 42.54 38.7 42.54 42.09 38.81 42.09 38.81 39.75 41.49 39.75 41.49 41 39.98 41 39.98 40.8 41.29 40.8 41.29 39.95 39.01 39.95 39.01 41.89 42.34 41.89 42.34 38.9 38.04 38.9 38.04 43.28 43.69 43.28 43.69 37.7 36.17 37.7 36.17 37.5 43.89 37.5 43.89 43.48"/>
          </g>
          <g>
            <g>
              <polygon class="cls-4" points="49.67 44.5 45.17 44.5 47.42 40.6 49.67 36.7 51.92 40.6 54.17 44.5 49.67 44.5"/>
              <path class="cls-2" d="M54.35,44.6h-9.35l4.67-8.09,4.67,8.09ZM45.35,44.4h8.65l-4.33-7.49-4.33,7.49Z"/>
            </g>
            <g>
              <polygon class="cls-5" points="49.67 43.44 46.79 43.44 48.23 40.94 49.67 38.44 51.11 40.94 52.56 43.44 49.67 43.44"/>
              <path class="cls-2" d="M52.73,43.54h-6.11l3.06-5.29,3.06,5.29ZM46.96,43.34h5.42l-2.71-4.69-2.71,4.69Z"/>
            </g>
            <g>
              <polygon class="cls-3" points="49.67 42.4 48.44 42.4 49.06 41.33 49.67 40.26 50.29 41.33 50.91 42.4 49.67 42.4"/>
              <path class="cls-2" d="M51.08,42.5h-2.81l1.41-2.44,1.41,2.44ZM48.61,42.3h2.12l-1.06-1.84-1.06,1.84Z"/>
            </g>
          </g>
          <g>
            <g>
              <rect class="cls-1" x="54.17" y="36.1" width="9" height="9"/>
              <path class="cls-2" d="M63.27,45.2h-9.2v-9.2h9.2v9.2ZM54.27,45h8.8v-8.8h-8.8v8.8Z"/>
            </g>
            <polygon class="cls-2" points="61.89 43.48 55.84 43.48 55.84 38.7 60.54 38.7 60.54 42.09 56.81 42.09 56.81 39.75 59.49 39.75 59.49 41 57.98 41 57.98 40.8 59.29 40.8 59.29 39.95 57.01 39.95 57.01 41.89 60.34 41.89 60.34 38.9 56.04 38.9 56.04 43.28 61.69 43.28 61.69 37.7 54.17 37.7 54.17 37.5 61.89 37.5 61.89 43.48"/>
          </g>
          <g>
            <g>
              <polygon class="cls-4" points="67.67 44.5 63.17 44.5 65.42 40.6 67.67 36.7 69.92 40.6 72.17 44.5 67.67 44.5"/>
              <path class="cls-2" d="M72.35,44.6h-9.35l4.67-8.09,4.67,8.09ZM63.35,44.4h8.65l-4.33-7.49-4.33,7.49Z"/>
            </g>
            <g>
              <polygon class="cls-5" points="67.67 43.44 64.79 43.44 66.23 40.94 67.67 38.44 69.11 40.94 70.56 43.44 67.67 43.44"/>
              <path class="cls-2" d="M70.73,43.54h-6.11l3.06-5.29,3.06,5.29ZM64.96,43.34h5.42l-2.71-4.69-2.71,4.69Z"/>
            </g>
            <g>
              <polygon class="cls-3" points="67.67 42.4 66.44 42.4 67.06 41.33 67.67 40.26 68.29 41.33 68.91 42.4 67.67 42.4"/>
              <path class="cls-2" d="M69.08,42.5h-2.81l1.41-2.44,1.41,2.44ZM66.61,42.3h2.12l-1.06-1.84-1.06,1.84Z"/>
            </g>
          </g>
          <g>
            <g>
              <rect class="cls-1" x="72.17" y="36.1" width="9" height="9"/>
              <path class="cls-2" d="M81.27,45.2h-9.2v-9.2h9.2v9.2ZM72.27,45h8.8v-8.8h-8.8v8.8Z"/>
            </g>
            <polygon class="cls-2" points="79.89 43.48 73.84 43.48 73.84 38.7 78.54 38.7 78.54 42.09 74.81 42.09 74.81 39.75 77.49 39.75 77.49 41 75.98 41 75.98 40.8 77.29 40.8 77.29 39.95 75.01 39.95 75.01 41.89 78.34 41.89 78.34 38.9 74.04 38.9 74.04 43.28 79.69 43.28 79.69 37.7 72.17 37.7 72.17 37.5 79.89 37.5 79.89 43.48"/>
          </g>
          <g>
            <g>
              <polygon class="cls-4" points="85.67 44.5 81.17 44.5 83.42 40.6 85.67 36.7 87.92 40.6 90.17 44.5 85.67 44.5"/>
              <path class="cls-2" d="M90.35,44.6h-9.35l4.67-8.09,4.67,8.09ZM81.35,44.4h8.65l-4.33-7.49-4.33,7.49Z"/>
            </g>
            <g>
              <polygon class="cls-5" points="85.67 43.44 82.79 43.44 84.23 40.94 85.67 38.44 87.11 40.94 88.56 43.44 85.67 43.44"/>
              <path class="cls-2" d="M88.73,43.54h-6.11l3.06-5.29,3.06,5.29ZM82.96,43.34h5.42l-2.71-4.69-2.71,4.69Z"/>
            </g>
            <g>
              <polygon class="cls-3" points="85.67 42.4 84.44 42.4 85.06 41.33 85.67 40.26 86.29 41.33 86.91 42.4 85.67 42.4"/>
              <path class="cls-2" d="M87.08,42.5h-2.81l1.41-2.44,1.41,2.44ZM84.61,42.3h2.12l-1.06-1.84-1.06,1.84Z"/>
            </g>
          </g>
        </g>
        <g>
          <g>
            <g>
              <rect class="cls-1" x="81.17" y="45.1" width="9" height="9"/>
              <path class="cls-2" d="M90.27,54.2h-9.2v-9.2h9.2v9.2ZM81.27,54h8.8v-8.8h-8.8v8.8Z"/>
            </g>
            <polygon class="cls-2" points="88.89 52.48 82.84 52.48 82.84 47.7 87.54 47.7 87.54 51.09 83.81 51.09 83.81 48.75 86.49 48.75 86.49 50 84.98 50 84.98 49.8 86.29 49.8 86.29 48.95 84.01 48.95 84.01 50.89 87.34 50.89 87.34 47.9 83.04 47.9 83.04 52.28 88.69 52.28 88.69 46.7 81.17 46.7 81.17 46.5 88.89 46.5 88.89 52.48"/>
          </g>
          <g>
            <g>
              <polygon class="cls-4" points="4.67 53.5 .17 53.5 2.42 49.6 4.67 45.7 6.92 49.6 9.17 53.5 4.67 53.5"/>
              <path class="cls-2" d="M9.35,53.6H0l4.67-8.09,4.67,8.09ZM.35,53.4h8.65l-4.33-7.49L.35,53.4Z"/>
            </g>
            <g>
              <polygon class="cls-5" points="4.67 52.44 1.79 52.44 3.23 49.94 4.67 47.44 6.11 49.94 7.56 52.44 4.67 52.44"/>
              <path class="cls-2" d="M7.73,52.54H1.62l3.06-5.29,3.06,5.29ZM1.96,52.34h5.42l-2.71-4.69-2.71,4.69Z"/>
            </g>
            <g>
              <polygon class="cls-3" points="4.67 51.4 3.44 51.4 4.06 50.33 4.67 49.26 5.29 50.33 5.91 51.4 4.67 51.4"/>
              <path class="cls-2" d="M6.08,51.5h-2.81l1.41-2.44,1.41,2.44ZM3.61,51.3h2.12l-1.06-1.84-1.06,1.84Z"/>
            </g>
          </g>
          <g>
            <g>
              <rect class="cls-1" x="9.17" y="45.1" width="9" height="9"/>
              <path class="cls-2" d="M18.27,54.2h-9.2v-9.2h9.2v9.2ZM9.27,54h8.8v-8.8h-8.8v8.8Z"/>
            </g>
            <polygon class="cls-2" points="16.89 52.48 10.84 52.48 10.84 47.7 15.54 47.7 15.54 51.09 11.81 51.09 11.81 48.75 14.49 48.75 14.49 50 12.98 50 12.98 49.8 14.29 49.8 14.29 48.95 12.01 48.95 12.01 50.89 15.34 50.89 15.34 47.9 11.04 47.9 11.04 52.28 16.69 52.28 16.69 46.7 9.17 46.7 9.17 46.5 16.89 46.5 16.89 52.48"/>
          </g>
          <g>
            <g>
              <polygon class="cls-4" points="22.67 53.5 18.17 53.5 20.42 49.6 22.67 45.7 24.92 49.6 27.17 53.5 22.67 53.5"/>
              <path class="cls-2" d="M27.35,53.6h-9.35l4.67-8.09,4.67,8.09ZM18.35,53.4h8.65l-4.33-7.49-4.33,7.49Z"/>
            </g>
            <g>
              <polygon class="cls-5" points="22.67 52.44 19.79 52.44 21.23 49.94 22.67 47.44 24.11 49.94 25.56 52.44 22.67 52.44"/>
              <path class="cls-2" d="M25.73,52.54h-6.11l3.06-5.29,3.06,5.29ZM19.96,52.34h5.42l-2.71-4.69-2.71,4.69Z"/>
            </g>
            <g>
              <polygon class="cls-3" points="22.67 51.4 21.44 51.4 22.06 50.33 22.67 49.26 23.29 50.33 23.91 51.4 22.67 51.4"/>
              <path class="cls-2" d="M24.08,51.5h-2.81l1.41-2.44,1.41,2.44ZM21.61,51.3h2.12l-1.06-1.84-1.06,1.84Z"/>
            </g>
          </g>
          <g>
            <g>
              <rect class="cls-1" x="27.17" y="45.1" width="9" height="9"/>
              <path class="cls-2" d="M36.27,54.2h-9.2v-9.2h9.2v9.2ZM27.27,54h8.8v-8.8h-8.8v8.8Z"/>
            </g>
            <polygon class="cls-2" points="34.89 52.48 28.84 52.48 28.84 47.7 33.54 47.7 33.54 51.09 29.81 51.09 29.81 48.75 32.49 48.75 32.49 50 30.98 50 30.98 49.8 32.29 49.8 32.29 48.95 30.01 48.95 30.01 50.89 33.34 50.89 33.34 47.9 29.04 47.9 29.04 52.28 34.69 52.28 34.69 46.7 27.17 46.7 27.17 46.5 34.89 46.5 34.89 52.48"/>
          </g>
          <g>
            <g>
              <polygon class="cls-4" points="40.67 53.5 36.17 53.5 38.42 49.6 40.67 45.7 42.92 49.6 45.17 53.5 40.67 53.5"/>
              <path class="cls-2" d="M45.35,53.6h-9.35l4.67-8.09,4.67,8.09ZM36.35,53.4h8.65l-4.33-7.49-4.33,7.49Z"/>
            </g>
            <g>
              <polygon class="cls-5" points="40.67 52.44 37.79 52.44 39.23 49.94 40.67 47.44 42.11 49.94 43.56 52.44 40.67 52.44"/>
              <path class="cls-2" d="M43.73,52.54h-6.11l3.06-5.29,3.06,5.29ZM37.96,52.34h5.42l-2.71-4.69-2.71,4.69Z"/>
            </g>
            <g>
              <polygon class="cls-3" points="40.67 51.4 39.44 51.4 40.06 50.33 40.67 49.26 41.29 50.33 41.91 51.4 40.67 51.4"/>
              <path class="cls-2" d="M42.08,51.5h-2.81l1.41-2.44,1.41,2.44ZM39.61,51.3h2.12l-1.06-1.84-1.06,1.84Z"/>
            </g>
          </g>
          <g>
            <g>
              <rect class="cls-1" x="45.17" y="45.1" width="9" height="9"/>
              <path class="cls-2" d="M54.27,54.2h-9.2v-9.2h9.2v9.2ZM45.27,54h8.8v-8.8h-8.8v8.8Z"/>
            </g>
            <polygon class="cls-2" points="52.89 52.48 46.84 52.48 46.84 47.7 51.54 47.7 51.54 51.09 47.81 51.09 47.81 48.75 50.49 48.75 50.49 50 48.98 50 48.98 49.8 50.29 49.8 50.29 48.95 48.01 48.95 48.01 50.89 51.34 50.89 51.34 47.9 47.04 47.9 47.04 52.28 52.69 52.28 52.69 46.7 45.17 46.7 45.17 46.5 52.89 46.5 52.89 52.48"/>
          </g>
          <g>
            <g>
              <polygon class="cls-4" points="58.67 53.5 54.17 53.5 56.42 49.6 58.67 45.7 60.92 49.6 63.17 53.5 58.67 53.5"/>
              <path class="cls-2" d="M63.35,53.6h-9.35l4.67-8.09,4.67,8.09ZM54.35,53.4h8.65l-4.33-7.49-4.33,7.49Z"/>
            </g>
            <g>
              <polygon class="cls-5" points="58.67 52.44 55.79 52.44 57.23 49.94 58.67 47.44 60.11 49.94 61.56 52.44 58.67 52.44"/>
              <path class="cls-2" d="M61.73,52.54h-6.11l3.06-5.29,3.06,5.29ZM55.96,52.34h5.42l-2.71-4.69-2.71,4.69Z"/>
            </g>
            <g>
              <polygon class="cls-3" points="58.67 51.4 57.44 51.4 58.06 50.33 58.67 49.26 59.29 50.33 59.91 51.4 58.67 51.4"/>
              <path class="cls-2" d="M60.08,51.5h-2.81l1.41-2.44,1.41,2.44ZM57.61,51.3h2.12l-1.06-1.84-1.06,1.84Z"/>
            </g>
          </g>
          <g>
            <g>
              <rect class="cls-1" x="63.17" y="45.1" width="9" height="9"/>
              <path class="cls-2" d="M72.27,54.2h-9.2v-9.2h9.2v9.2ZM63.27,54h8.8v-8.8h-8.8v8.8Z"/>
            </g>
            <polygon class="cls-2" points="70.89 52.48 64.84 52.48 64.84 47.7 69.54 47.7 69.54 51.09 65.81 51.09 65.81 48.75 68.49 48.75 68.49 50 66.98 50 66.98 49.8 68.29 49.8 68.29 48.95 66.01 48.95 66.01 50.89 69.34 50.89 69.34 47.9 65.04 47.9 65.04 52.28 70.69 52.28 70.69 46.7 63.17 46.7 63.17 46.5 70.89 46.5 70.89 52.48"/>
          </g>
          <g>
            <g>
              <polygon class="cls-4" points="76.67 53.5 72.17 53.5 74.42 49.6 76.67 45.7 78.92 49.6 81.17 53.5 76.67 53.5"/>
              <path class="cls-2" d="M81.35,53.6h-9.35l4.67-8.09,4.67,8.09ZM72.35,53.4h8.65l-4.33-7.49-4.33,7.49Z"/>
            </g>
            <g>
              <polygon class="cls-5" points="76.67 52.44 73.79 52.44 75.23 49.94 76.67 47.44 78.11 49.94 79.56 52.44 76.67 52.44"/>
              <path class="cls-2" d="M79.73,52.54h-6.11l3.06-5.29,3.06,5.29ZM73.96,52.34h5.42l-2.71-4.69-2.71,4.69Z"/>
            </g>
            <g>
              <polygon class="cls-3" points="76.67 51.4 75.44 51.4 76.06 50.33 76.67 49.26 77.29 50.33 77.91 51.4 76.67 51.4"/>
              <path class="cls-2" d="M78.08,51.5h-2.81l1.41-2.44,1.41,2.44ZM75.61,51.3h2.12l-1.06-1.84-1.06,1.84Z"/>
            </g>
          </g>
        </g>
        <g>
          <g>
            <g>
              <rect class="cls-1" x=".17" y="54.1" width="9" height="9"/>
              <path class="cls-2" d="M9.27,63.2H.07v-9.2h9.2v9.2ZM.27,63h8.8v-8.8H.27v8.8Z"/>
            </g>
            <polygon class="cls-2" points="7.89 61.48 1.84 61.48 1.84 56.7 6.54 56.7 6.54 60.09 2.81 60.09 2.81 57.75 5.49 57.75 5.49 59 3.98 59 3.98 58.8 5.29 58.8 5.29 57.95 3.01 57.95 3.01 59.89 6.34 59.89 6.34 56.9 2.04 56.9 2.04 61.28 7.69 61.28 7.69 55.7 .17 55.7 .17 55.5 7.89 55.5 7.89 61.48"/>
          </g>
          <g>
            <g>
              <polygon class="cls-4" points="13.67 62.5 9.17 62.5 11.42 58.6 13.67 54.7 15.92 58.6 18.17 62.5 13.67 62.5"/>
              <path class="cls-2" d="M18.35,62.6h-9.35l4.67-8.09,4.67,8.09ZM9.35,62.4h8.65l-4.33-7.49-4.33,7.49Z"/>
            </g>
            <g>
              <polygon class="cls-5" points="13.67 61.44 10.79 61.44 12.23 58.94 13.67 56.44 15.11 58.94 16.56 61.44 13.67 61.44"/>
              <path class="cls-2" d="M16.73,61.54h-6.11l3.06-5.29,3.06,5.29ZM10.96,61.34h5.42l-2.71-4.69-2.71,4.69Z"/>
            </g>
            <g>
              <polygon class="cls-3" points="13.67 60.4 12.44 60.4 13.06 59.33 13.67 58.26 14.29 59.33 14.91 60.4 13.67 60.4"/>
              <path class="cls-2" d="M15.08,60.5h-2.81l1.41-2.44,1.41,2.44ZM12.61,60.3h2.12l-1.06-1.84-1.06,1.84Z"/>
            </g>
          </g>
          <g>
            <g>
              <rect class="cls-1" x="18.17" y="54.1" width="9" height="9"/>
              <path class="cls-2" d="M27.27,63.2h-9.2v-9.2h9.2v9.2ZM18.27,63h8.8v-8.8h-8.8v8.8Z"/>
            </g>
            <polygon class="cls-2" points="25.89 61.48 19.84 61.48 19.84 56.7 24.54 56.7 24.54 60.09 20.81 60.09 20.81 57.75 23.49 57.75 23.49 59 21.98 59 21.98 58.8 23.29 58.8 23.29 57.95 21.01 57.95 21.01 59.89 24.34 59.89 24.34 56.9 20.04 56.9 20.04 61.28 25.69 61.28 25.69 55.7 18.17 55.7 18.17 55.5 25.89 55.5 25.89 61.48"/>
          </g>
          <g>
            <g>
              <polygon class="cls-4" points="31.67 62.5 27.17 62.5 29.42 58.6 31.67 54.7 33.92 58.6 36.17 62.5 31.67 62.5"/>
              <path class="cls-2" d="M36.35,62.6h-9.35l4.67-8.09,4.67,8.09ZM27.35,62.4h8.65l-4.33-7.49-4.33,7.49Z"/>
            </g>
            <g>
              <polygon class="cls-5" points="31.67 61.44 28.79 61.44 30.23 58.94 31.67 56.44 33.11 58.94 34.56 61.44 31.67 61.44"/>
              <path class="cls-2" d="M34.73,61.54h-6.11l3.06-5.29,3.06,5.29ZM28.96,61.34h5.42l-2.71-4.69-2.71,4.69Z"/>
            </g>
            <g>
              <polygon class="cls-3" points="31.67 60.4 30.44 60.4 31.06 59.33 31.67 58.26 32.29 59.33 32.91 60.4 31.67 60.4"/>
              <path class="cls-2" d="M33.08,60.5h-2.81l1.41-2.44,1.41,2.44ZM30.61,60.3h2.12l-1.06-1.84-1.06,1.84Z"/>
            </g>
          </g>
          <g>
            <g>
              <rect class="cls-1" x="36.17" y="54.1" width="9" height="9"/>
              <path class="cls-2" d="M45.27,63.2h-9.2v-9.2h9.2v9.2ZM36.27,63h8.8v-8.8h-8.8v8.8Z"/>
            </g>
            <polygon class="cls-2" points="43.89 61.48 37.84 61.48 37.84 56.7 42.54 56.7 42.54 60.09 38.81 60.09 38.81 57.75 41.49 57.75 41.49 59 39.98 59 39.98 58.8 41.29 58.8 41.29 57.95 39.01 57.95 39.01 59.89 42.34 59.89 42.34 56.9 38.04 56.9 38.04 61.28 43.69 61.28 43.69 55.7 36.17 55.7 36.17 55.5 43.89 55.5 43.89 61.48"/>
          </g>
          <g>
            <g>
              <polygon class="cls-4" points="49.67 62.5 45.17 62.5 47.42 58.6 49.67 54.7 51.92 58.6 54.17 62.5 49.67 62.5"/>
              <path class="cls-2" d="M54.35,62.6h-9.35l4.67-8.09,4.67,8.09ZM45.35,62.4h8.65l-4.33-7.49-4.33,7.49Z"/>
            </g>
            <g>
              <polygon class="cls-5" points="49.67 61.44 46.79 61.44 48.23 58.94 49.67 56.44 51.11 58.94 52.56 61.44 49.67 61.44"/>
              <path class="cls-2" d="M52.73,61.54h-6.11l3.06-5.29,3.06,5.29ZM46.96,61.34h5.42l-2.71-4.69-2.71,4.69Z"/>
            </g>
            <g>
              <polygon class="cls-3" points="49.67 60.4 48.44 60.4 49.06 59.33 49.67 58.26 50.29 59.33 50.91 60.4 49.67 60.4"/>
              <path class="cls-2" d="M51.08,60.5h-2.81l1.41-2.44,1.41,2.44ZM48.61,60.3h2.12l-1.06-1.84-1.06,1.84Z"/>
            </g>
          </g>
          <g>
            <g>
              <rect class="cls-1" x="54.17" y="54.1" width="9" height="9"/>
              <path class="cls-2" d="M63.27,63.2h-9.2v-9.2h9.2v9.2ZM54.27,63h8.8v-8.8h-8.8v8.8Z"/>
            </g>
            <polygon class="cls-2" points="61.89 61.48 55.84 61.48 55.84 56.7 60.54 56.7 60.54 60.09 56.81 60.09 56.81 57.75 59.49 57.75 59.49 59 57.98 59 57.98 58.8 59.29 58.8 59.29 57.95 57.01 57.95 57.01 59.89 60.34 59.89 60.34 56.9 56.04 56.9 56.04 61.28 61.69 61.28 61.69 55.7 54.17 55.7 54.17 55.5 61.89 55.5 61.89 61.48"/>
          </g>
          <g>
            <g>
              <polygon class="cls-4" points="67.67 62.5 63.17 62.5 65.42 58.6 67.67 54.7 69.92 58.6 72.17 62.5 67.67 62.5"/>
              <path class="cls-2" d="M72.35,62.6h-9.35l4.67-8.09,4.67,8.09ZM63.35,62.4h8.65l-4.33-7.49-4.33,7.49Z"/>
            </g>
            <g>
              <polygon class="cls-5" points="67.67 61.44 64.79 61.44 66.23 58.94 67.67 56.44 69.11 58.94 70.56 61.44 67.67 61.44"/>
              <path class="cls-2" d="M70.73,61.54h-6.11l3.06-5.29,3.06,5.29ZM64.96,61.34h5.42l-2.71-4.69-2.71,4.69Z"/>
            </g>
            <g>
              <polygon class="cls-3" points="67.67 60.4 66.44 60.4 67.06 59.33 67.67 58.26 68.29 59.33 68.91 60.4 67.67 60.4"/>
              <path class="cls-2" d="M69.08,60.5h-2.81l1.41-2.44,1.41,2.44ZM66.61,60.3h2.12l-1.06-1.84-1.06,1.84Z"/>
            </g>
          </g>
          <g>
            <g>
              <rect class="cls-1" x="72.17" y="54.1" width="9" height="9"/>
              <path class="cls-2" d="M81.27,63.2h-9.2v-9.2h9.2v9.2ZM72.27,63h8.8v-8.8h-8.8v8.8Z"/>
            </g>
            <polygon class="cls-2" points="79.89 61.48 73.84 61.48 73.84 56.7 78.54 56.7 78.54 60.09 74.81 60.09 74.81 57.75 77.49 57.75 77.49 59 75.98 59 75.98 58.8 77.29 58.8 77.29 57.95 75.01 57.95 75.01 59.89 78.34 59.89 78.34 56.9 74.04 56.9 74.04 61.28 79.69 61.28 79.69 55.7 72.17 55.7 72.17 55.5 79.89 55.5 79.89 61.48"/>
          </g>
          <g>
            <g>
              <polygon class="cls-4" points="85.67 62.5 81.17 62.5 83.42 58.6 85.67 54.7 87.92 58.6 90.17 62.5 85.67 62.5"/>
              <path class="cls-2" d="M90.35,62.6h-9.35l4.67-8.09,4.67,8.09ZM81.35,62.4h8.65l-4.33-7.49-4.33,7.49Z"/>
            </g>
            <g>
              <polygon class="cls-5" points="85.67 61.44 82.79 61.44 84.23 58.94 85.67 56.44 87.11 58.94 88.56 61.44 85.67 61.44"/>
              <path class="cls-2" d="M88.73,61.54h-6.11l3.06-5.29,3.06,5.29ZM82.96,61.34h5.42l-2.71-4.69-2.71,4.69Z"/>
            </g>
            <g>
              <polygon class="cls-3" points="85.67 60.4 84.44 60.4 85.06 59.33 85.67 58.26 86.29 59.33 86.91 60.4 85.67 60.4"/>
              <path class="cls-2" d="M87.08,60.5h-2.81l1.41-2.44,1.41,2.44ZM84.61,60.3h2.12l-1.06-1.84-1.06,1.84Z"/>
            </g>
          </g>
        </g>
        <g>
          <g>
            <g>
              <rect class="cls-1" x="81.17" y="63.1" width="9" height="9"/>
              <path class="cls-2" d="M90.27,72.2h-9.2v-9.2h9.2v9.2ZM81.27,72h8.8v-8.8h-8.8v8.8Z"/>
            </g>
            <polygon class="cls-2" points="88.89 70.48 82.84 70.48 82.84 65.7 87.54 65.7 87.54 69.09 83.81 69.09 83.81 66.75 86.49 66.75 86.49 68 84.98 68 84.98 67.8 86.29 67.8 86.29 66.95 84.01 66.95 84.01 68.89 87.34 68.89 87.34 65.9 83.04 65.9 83.04 70.28 88.69 70.28 88.69 64.7 81.17 64.7 81.17 64.5 88.89 64.5 88.89 70.48"/>
          </g>
          <g>
            <g>
              <polygon class="cls-4" points="4.67 71.5 .17 71.5 2.42 67.6 4.67 63.7 6.92 67.6 9.17 71.5 4.67 71.5"/>
              <path class="cls-2" d="M9.35,71.6H0l4.67-8.09,4.67,8.09ZM.35,71.4h8.65l-4.33-7.49-4.33,7.49Z"/>
            </g>
            <g>
              <polygon class="cls-5" points="4.67 70.44 1.79 70.44 3.23 67.94 4.67 65.44 6.11 67.94 7.56 70.44 4.67 70.44"/>
              <path class="cls-2" d="M7.73,70.54H1.62l3.06-5.29,3.06,5.29ZM1.96,70.34h5.42l-2.71-4.69-2.71,4.69Z"/>
            </g>
            <g>
              <polygon class="cls-3" points="4.67 69.4 3.44 69.4 4.06 68.33 4.67 67.26 5.29 68.33 5.91 69.4 4.67 69.4"/>
              <path class="cls-2" d="M6.08,69.5h-2.81l1.41-2.44,1.41,2.44ZM3.61,69.3h2.12l-1.06-1.84-1.06,1.84Z"/>
            </g>
          </g>
          <g>
            <g>
              <rect class="cls-1" x="9.17" y="63.1" width="9" height="9"/>
              <path class="cls-2" d="M18.27,72.2h-9.2v-9.2h9.2v9.2ZM9.27,72h8.8v-8.8h-8.8v8.8Z"/>
            </g>
            <polygon class="cls-2" points="16.89 70.48 10.84 70.48 10.84 65.7 15.54 65.7 15.54 69.09 11.81 69.09 11.81 66.75 14.49 66.75 14.49 68 12.98 68 12.98 67.8 14.29 67.8 14.29 66.95 12.01 66.95 12.01 68.89 15.34 68.89 15.34 65.9 11.04 65.9 11.04 70.28 16.69 70.28 16.69 64.7 9.17 64.7 9.17 64.5 16.89 64.5 16.89 70.48"/>
          </g>
          <g>
            <g>
              <polygon class="cls-4" points="22.67 71.5 18.17 71.5 20.42 67.6 22.67 63.7 24.92 67.6 27.17 71.5 22.67 71.5"/>
              <path class="cls-2" d="M27.35,71.6h-9.35l4.67-8.09,4.67,8.09ZM18.35,71.4h8.65l-4.33-7.49-4.33,7.49Z"/>
            </g>
            <g>
              <polygon class="cls-5" points="22.67 70.44 19.79 70.44 21.23 67.94 22.67 65.44 24.11 67.94 25.56 70.44 22.67 70.44"/>
              <path class="cls-2" d="M25.73,70.54h-6.11l3.06-5.29,3.06,5.29ZM19.96,70.34h5.42l-2.71-4.69-2.71,4.69Z"/>
            </g>
            <g>
              <polygon class="cls-3" points="22.67 69.4 21.44 69.4 22.06 68.33 22.67 67.26 23.29 68.33 23.91 69.4 22.67 69.4"/>
              <path class="cls-2" d="M24.08,69.5h-2.81l1.41-2.44,1.41,2.44ZM21.61,69.3h2.12l-1.06-1.84-1.06,1.84Z"/>
            </g>
          </g>
          <g>
            <g>
              <rect class="cls-1" x="27.17" y="63.1" width="9" height="9"/>
              <path class="cls-2" d="M36.27,72.2h-9.2v-9.2h9.2v9.2ZM27.27,72h8.8v-8.8h-8.8v8.8Z"/>
            </g>
            <polygon class="cls-2" points="34.89 70.48 28.84 70.48 28.84 65.7 33.54 65.7 33.54 69.09 29.81 69.09 29.81 66.75 32.49 66.75 32.49 68 30.98 68 30.98 67.8 32.29 67.8 32.29 66.95 30.01 66.95 30.01 68.89 33.34 68.89 33.34 65.9 29.04 65.9 29.04 70.28 34.69 70.28 34.69 64.7 27.17 64.7 27.17 64.5 34.89 64.5 34.89 70.48"/>
          </g>
          <g>
            <g>
              <polygon class="cls-4" points="40.67 71.5 36.17 71.5 38.42 67.6 40.67 63.7 42.92 67.6 45.17 71.5 40.67 71.5"/>
              <path class="cls-2" d="M45.35,71.6h-9.35l4.67-8.09,4.67,8.09ZM36.35,71.4h8.65l-4.33-7.49-4.33,7.49Z"/>
            </g>
            <g>
              <polygon class="cls-5" points="40.67 70.44 37.79 70.44 39.23 67.94 40.67 65.44 42.11 67.94 43.56 70.44 40.67 70.44"/>
              <path class="cls-2" d="M43.73,70.54h-6.11l3.06-5.29,3.06,5.29ZM37.96,70.34h5.42l-2.71-4.69-2.71,4.69Z"/>
            </g>
            <g>
              <polygon class="cls-3" points="40.67 69.4 39.44 69.4 40.06 68.33 40.67 67.26 41.29 68.33 41.91 69.4 40.67 69.4"/>
              <path class="cls-2" d="M42.08,69.5h-2.81l1.41-2.44,1.41,2.44ZM39.61,69.3h2.12l-1.06-1.84-1.06,1.84Z"/>
            </g>
          </g>
          <g>
            <g>
              <rect class="cls-1" x="45.17" y="63.1" width="9" height="9"/>
              <path class="cls-2" d="M54.27,72.2h-9.2v-9.2h9.2v9.2ZM45.27,72h8.8v-8.8h-8.8v8.8Z"/>
            </g>
            <polygon class="cls-2" points="52.89 70.48 46.84 70.48 46.84 65.7 51.54 65.7 51.54 69.09 47.81 69.09 47.81 66.75 50.49 66.75 50.49 68 48.98 68 48.98 67.8 50.29 67.8 50.29 66.95 48.01 66.95 48.01 68.89 51.34 68.89 51.34 65.9 47.04 65.9 47.04 70.28 52.69 70.28 52.69 64.7 45.17 64.7 45.17 64.5 52.89 64.5 52.89 70.48"/>
          </g>
          <g>
            <g>
              <polygon class="cls-4" points="58.67 71.5 54.17 71.5 56.42 67.6 58.67 63.7 60.92 67.6 63.17 71.5 58.67 71.5"/>
              <path class="cls-2" d="M63.35,71.6h-9.35l4.67-8.09,4.67,8.09ZM54.35,71.4h8.65l-4.33-7.49-4.33,7.49Z"/>
            </g>
            <g>
              <polygon class="cls-5" points="58.67 70.44 55.79 70.44 57.23 67.94 58.67 65.44 60.11 67.94 61.56 70.44 58.67 70.44"/>
              <path class="cls-2" d="M61.73,70.54h-6.11l3.06-5.29,3.06,5.29ZM55.96,70.34h5.42l-2.71-4.69-2.71,4.69Z"/>
            </g>
            <g>
              <polygon class="cls-3" points="58.67 69.4 57.44 69.4 58.06 68.33 58.67 67.26 59.29 68.33 59.91 69.4 58.67 69.4"/>
              <path class="cls-2" d="M60.08,69.5h-2.81l1.41-2.44,1.41,2.44ZM57.61,69.3h2.12l-1.06-1.84-1.06,1.84Z"/>
            </g>
          </g>
          <g>
            <g>
              <rect class="cls-1" x="63.17" y="63.1" width="9" height="9"/>
              <path class="cls-2" d="M72.27,72.2h-9.2v-9.2h9.2v9.2ZM63.27,72h8.8v-8.8h-8.8v8.8Z"/>
            </g>
            <polygon class="cls-2" points="70.89 70.48 64.84 70.48 64.84 65.7 69.54 65.7 69.54 69.09 65.81 69.09 65.81 66.75 68.49 66.75 68.49 68 66.98 68 66.98 67.8 68.29 67.8 68.29 66.95 66.01 66.95 66.01 68.89 69.34 68.89 69.34 65.9 65.04 65.9 65.04 70.28 70.69 70.28 70.69 64.7 63.17 64.7 63.17 64.5 70.89 64.5 70.89 70.48"/>
          </g>
          <g>
            <g>
              <polygon class="cls-4" points="76.67 71.5 72.17 71.5 74.42 67.6 76.67 63.7 78.92 67.6 81.17 71.5 76.67 71.5"/>
              <path class="cls-2" d="M81.35,71.6h-9.35l4.67-8.09,4.67,8.09ZM72.35,71.4h8.65l-4.33-7.49-4.33,7.49Z"/>
            </g>
            <g>
              <polygon class="cls-5" points="76.67 70.44 73.79 70.44 75.23 67.94 76.67 65.44 78.11 67.94 79.56 70.44 76.67 70.44"/>
              <path class="cls-2" d="M79.73,70.54h-6.11l3.06-5.29,3.06,5.29ZM73.96,70.34h5.42l-2.71-4.69-2.71,4.69Z"/>
            </g>
            <g>
              <polygon class="cls-3" points="76.67 69.4 75.44 69.4 76.06 68.33 76.67 67.26 77.29 68.33 77.91 69.4 76.67 69.4"/>
              <path class="cls-2" d="M78.08,69.5h-2.81l1.41-2.44,1.41,2.44ZM75.61,69.3h2.12l-1.06-1.84-1.06,1.84Z"/>
            </g>
          </g>
        </g>
        <g>
          <g>
            <g>
              <rect class="cls-1" x=".17" y="72.1" width="9" height="9"/>
              <path class="cls-2" d="M9.27,81.2H.07v-9.2h9.2v9.2ZM.27,81h8.8v-8.8H.27v8.8Z"/>
            </g>
            <polygon class="cls-2" points="7.89 79.48 1.84 79.48 1.84 74.7 6.54 74.7 6.54 78.09 2.81 78.09 2.81 75.75 5.49 75.75 5.49 77 3.98 77 3.98 76.8 5.29 76.8 5.29 75.95 3.01 75.95 3.01 77.89 6.34 77.89 6.34 74.9 2.04 74.9 2.04 79.28 7.69 79.28 7.69 73.7 .17 73.7 .17 73.5 7.89 73.5 7.89 79.48"/>
          </g>
          <g>
            <g>
              <polygon class="cls-4" points="13.67 80.5 9.17 80.5 11.42 76.6 13.67 72.7 15.92 76.6 18.17 80.5 13.67 80.5"/>
              <path class="cls-2" d="M18.35,80.6h-9.35l4.67-8.09,4.67,8.09ZM9.35,80.4h8.65l-4.33-7.49-4.33,7.49Z"/>
            </g>
            <g>
              <polygon class="cls-5" points="13.67 79.44 10.79 79.44 12.23 76.94 13.67 74.44 15.11 76.94 16.56 79.44 13.67 79.44"/>
              <path class="cls-2" d="M16.73,79.54h-6.11l3.06-5.29,3.06,5.29ZM10.96,79.34h5.42l-2.71-4.69-2.71,4.69Z"/>
            </g>
            <g>
              <polygon class="cls-3" points="13.67 78.4 12.44 78.4 13.06 77.33 13.67 76.26 14.29 77.33 14.91 78.4 13.67 78.4"/>
              <path class="cls-2" d="M15.08,78.5h-2.81l1.41-2.44,1.41,2.44ZM12.61,78.3h2.12l-1.06-1.84-1.06,1.84Z"/>
            </g>
          </g>
          <g>
            <g>
              <rect class="cls-1" x="18.17" y="72.1" width="9" height="9"/>
              <path class="cls-2" d="M27.27,81.2h-9.2v-9.2h9.2v9.2ZM18.27,81h8.8v-8.8h-8.8v8.8Z"/>
            </g>
            <polygon class="cls-2" points="25.89 79.48 19.84 79.48 19.84 74.7 24.54 74.7 24.54 78.09 20.81 78.09 20.81 75.75 23.49 75.75 23.49 77 21.98 77 21.98 76.8 23.29 76.8 23.29 75.95 21.01 75.95 21.01 77.89 24.34 77.89 24.34 74.9 20.04 74.9 20.04 79.28 25.69 79.28 25.69 73.7 18.17 73.7 18.17 73.5 25.89 73.5 25.89 79.48"/>
          </g>
          <g>
            <g>
              <polygon class="cls-4" points="31.67 80.5 27.17 80.5 29.42 76.6 31.67 72.7 33.92 76.6 36.17 80.5 31.67 80.5"/>
              <path class="cls-2" d="M36.35,80.6h-9.35l4.67-8.09,4.67,8.09ZM27.35,80.4h8.65l-4.33-7.49-4.33,7.49Z"/>
            </g>
            <g>
              <polygon class="cls-5" points="31.67 79.44 28.79 79.44 30.23 76.94 31.67 74.44 33.11 76.94 34.56 79.44 31.67 79.44"/>
              <path class="cls-2" d="M34.73,79.54h-6.11l3.06-5.29,3.06,5.29ZM28.96,79.34h5.42l-2.71-4.69-2.71,4.69Z"/>
            </g>
            <g>
              <polygon class="cls-3" points="31.67 78.4 30.44 78.4 31.06 77.33 31.67 76.26 32.29 77.33 32.91 78.4 31.67 78.4"/>
              <path class="cls-2" d="M33.08,78.5h-2.81l1.41-2.44,1.41,2.44ZM30.61,78.3h2.12l-1.06-1.84-1.06,1.84Z"/>
            </g>
          </g>
          <g>
            <g>
              <rect class="cls-1" x="36.17" y="72.1" width="9" height="9"/>
              <path class="cls-2" d="M45.27,81.2h-9.2v-9.2h9.2v9.2ZM36.27,81h8.8v-8.8h-8.8v8.8Z"/>
            </g>
            <polygon class="cls-2" points="43.89 79.48 37.84 79.48 37.84 74.7 42.54 74.7 42.54 78.09 38.81 78.09 38.81 75.75 41.49 75.75 41.49 77 39.98 77 39.98 76.8 41.29 76.8 41.29 75.95 39.01 75.95 39.01 77.89 42.34 77.89 42.34 74.9 38.04 74.9 38.04 79.28 43.69 79.28 43.69 73.7 36.17 73.7 36.17 73.5 43.89 73.5 43.89 79.48"/>
          </g>
          <g>
            <g>
              <polygon class="cls-4" points="49.67 80.5 45.17 80.5 47.42 76.6 49.67 72.7 51.92 76.6 54.17 80.5 49.67 80.5"/>
              <path class="cls-2" d="M54.35,80.6h-9.35l4.67-8.09,4.67,8.09ZM45.35,80.4h8.65l-4.33-7.49-4.33,7.49Z"/>
            </g>
            <g>
              <polygon class="cls-5" points="49.67 79.44 46.79 79.44 48.23 76.94 49.67 74.44 51.11 76.94 52.56 79.44 49.67 79.44"/>
              <path class="cls-2" d="M52.73,79.54h-6.11l3.06-5.29,3.06,5.29ZM46.96,79.34h5.42l-2.71-4.69-2.71,4.69Z"/>
            </g>
            <g>
              <polygon class="cls-3" points="49.67 78.4 48.44 78.4 49.06 77.33 49.67 76.26 50.29 77.33 50.91 78.4 49.67 78.4"/>
              <path class="cls-2" d="M51.08,78.5h-2.81l1.41-2.44,1.41,2.44ZM48.61,78.3h2.12l-1.06-1.84-1.06,1.84Z"/>
            </g>
          </g>
          <g>
            <g>
              <rect class="cls-1" x="54.17" y="72.1" width="9" height="9"/>
              <path class="cls-2" d="M63.27,81.2h-9.2v-9.2h9.2v9.2ZM54.27,81h8.8v-8.8h-8.8v8.8Z"/>
            </g>
            <polygon class="cls-2" points="61.89 79.48 55.84 79.48 55.84 74.7 60.54 74.7 60.54 78.09 56.81 78.09 56.81 75.75 59.49 75.75 59.49 77 57.98 77 57.98 76.8 59.29 76.8 59.29 75.95 57.01 75.95 57.01 77.89 60.34 77.89 60.34 74.9 56.04 74.9 56.04 79.28 61.69 79.28 61.69 73.7 54.17 73.7 54.17 73.5 61.89 73.5 61.89 79.48"/>
          </g>
          <g>
            <g>
              <polygon class="cls-4" points="67.67 80.5 63.17 80.5 65.42 76.6 67.67 72.7 69.92 76.6 72.17 80.5 67.67 80.5"/>
              <path class="cls-2" d="M72.35,80.6h-9.35l4.67-8.09,4.67,8.09ZM63.35,80.4h8.65l-4.33-7.49-4.33,7.49Z"/>
            </g>
            <g>
              <polygon class="cls-5" points="67.67 79.44 64.79 79.44 66.23 76.94 67.67 74.44 69.11 76.94 70.56 79.44 67.67 79.44"/>
              <path class="cls-2" d="M70.73,79.54h-6.11l3.06-5.29,3.06,5.29ZM64.96,79.34h5.42l-2.71-4.69-2.71,4.69Z"/>
            </g>
            <g>
              <polygon class="cls-3" points="67.67 78.4 66.44 78.4 67.06 77.33 67.67 76.26 68.29 77.33 68.91 78.4 67.67 78.4"/>
              <path class="cls-2" d="M69.08,78.5h-2.81l1.41-2.44,1.41,2.44ZM66.61,78.3h2.12l-1.06-1.84-1.06,1.84Z"/>
            </g>
          </g>
          <g>
            <g>
              <rect class="cls-1" x="72.17" y="72.1" width="9" height="9"/>
              <path class="cls-2" d="M81.27,81.2h-9.2v-9.2h9.2v9.2ZM72.27,81h8.8v-8.8h-8.8v8.8Z"/>
            </g>
            <polygon class="cls-2" points="79.89 79.48 73.84 79.48 73.84 74.7 78.54 74.7 78.54 78.09 74.81 78.09 74.81 75.75 77.49 75.75 77.49 77 75.98 77 75.98 76.8 77.29 76.8 77.29 75.95 75.01 75.95 75.01 77.89 78.34 77.89 78.34 74.9 74.04 74.9 74.04 79.28 79.69 79.28 79.69 73.7 72.17 73.7 72.17 73.5 79.89 73.5 79.89 79.48"/>
          </g>
          <g>
            <g>
              <polygon class="cls-4" points="85.67 80.5 81.17 80.5 83.42 76.6 85.67 72.7 87.92 76.6 90.17 80.5 85.67 80.5"/>
              <path class="cls-2" d="M90.35,80.6h-9.35l4.67-8.09,4.67,8.09ZM81.35,80.4h8.65l-4.33-7.49-4.33,7.49Z"/>
            </g>
            <g>
              <polygon class="cls-5" points="85.67 79.44 82.79 79.44 84.23 76.94 85.67 74.44 87.11 76.94 88.56 79.44 85.67 79.44"/>
              <path class="cls-2" d="M88.73,79.54h-6.11l3.06-5.29,3.06,5.29ZM82.96,79.34h5.42l-2.71-4.69-2.71,4.69Z"/>
            </g>
            <g>
              <polygon class="cls-3" points="85.67 78.4 84.44 78.4 85.06 77.33 85.67 76.26 86.29 77.33 86.91 78.4 85.67 78.4"/>
              <path class="cls-2" d="M87.08,78.5h-2.81l1.41-2.44,1.41,2.44ZM84.61,78.3h2.12l-1.06-1.84-1.06,1.84Z"/>
            </g>
          </g>
        </g>
        <g>
          <g>
            <g>
              <rect class="cls-1" x="81.17" y="81.1" width="9" height="9"/>
              <path class="cls-2" d="M90.27,90.2h-9.2v-9.2h9.2v9.2ZM81.27,90h8.8v-8.8h-8.8v8.8Z"/>
            </g>
            <polygon class="cls-2" points="88.89 88.48 82.84 88.48 82.84 83.7 87.54 83.7 87.54 87.09 83.81 87.09 83.81 84.75 86.49 84.75 86.49 86 84.98 86 84.98 85.8 86.29 85.8 86.29 84.95 84.01 84.95 84.01 86.89 87.34 86.89 87.34 83.9 83.04 83.9 83.04 88.28 88.69 88.28 88.69 82.7 81.17 82.7 81.17 82.5 88.89 82.5 88.89 88.48"/>
          </g>
          <g>
            <g>
              <polygon class="cls-4" points="4.67 89.5 .17 89.5 2.42 85.6 4.67 81.7 6.92 85.6 9.17 89.5 4.67 89.5"/>
              <path class="cls-2" d="M9.35,89.6H0l4.67-8.09,4.67,8.09ZM.35,89.4h8.65l-4.33-7.49-4.33,7.49Z"/>
            </g>
            <g>
              <polygon class="cls-5" points="4.67 88.44 1.79 88.44 3.23 85.94 4.67 83.44 6.11 85.94 7.56 88.44 4.67 88.44"/>
              <path class="cls-2" d="M7.73,88.54H1.62l3.06-5.29,3.06,5.29ZM1.96,88.34h5.42l-2.71-4.69-2.71,4.69Z"/>
            </g>
            <g>
              <polygon class="cls-3" points="4.67 87.4 3.44 87.4 4.06 86.33 4.67 85.26 5.29 86.33 5.91 87.4 4.67 87.4"/>
              <path class="cls-2" d="M6.08,87.5h-2.81l1.41-2.44,1.41,2.44ZM3.61,87.3h2.12l-1.06-1.84-1.06,1.84Z"/>
            </g>
          </g>
          <g>
            <g>
              <rect class="cls-1" x="9.17" y="81.1" width="9" height="9"/>
              <path class="cls-2" d="M18.27,90.2h-9.2v-9.2h9.2v9.2ZM9.27,90h8.8v-8.8h-8.8v8.8Z"/>
            </g>
            <polygon class="cls-2" points="16.89 88.48 10.84 88.48 10.84 83.7 15.54 83.7 15.54 87.09 11.81 87.09 11.81 84.75 14.49 84.75 14.49 86 12.98 86 12.98 85.8 14.29 85.8 14.29 84.95 12.01 84.95 12.01 86.89 15.34 86.89 15.34 83.9 11.04 83.9 11.04 88.28 16.69 88.28 16.69 82.7 9.17 82.7 9.17 82.5 16.89 82.5 16.89 88.48"/>
          </g>
          <g>
            <g>
              <polygon class="cls-4" points="22.67 89.5 18.17 89.5 20.42 85.6 22.67 81.7 24.92 85.6 27.17 89.5 22.67 89.5"/>
              <path class="cls-2" d="M27.35,89.6h-9.35l4.67-8.09,4.67,8.09ZM18.35,89.4h8.65l-4.33-7.49-4.33,7.49Z"/>
            </g>
            <g>
              <polygon class="cls-5" points="22.67 88.44 19.79 88.44 21.23 85.94 22.67 83.44 24.11 85.94 25.56 88.44 22.67 88.44"/>
              <path class="cls-2" d="M25.73,88.54h-6.11l3.06-5.29,3.06,5.29ZM19.96,88.34h5.42l-2.71-4.69-2.71,4.69Z"/>
            </g>
            <g>
              <polygon class="cls-3" points="22.67 87.4 21.44 87.4 22.06 86.33 22.67 85.26 23.29 86.33 23.91 87.4 22.67 87.4"/>
              <path class="cls-2" d="M24.08,87.5h-2.81l1.41-2.44,1.41,2.44ZM21.61,87.3h2.12l-1.06-1.84-1.06,1.84Z"/>
            </g>
          </g>
          <g>
            <g>
              <rect class="cls-1" x="27.17" y="81.1" width="9" height="9"/>
              <path class="cls-2" d="M36.27,90.2h-9.2v-9.2h9.2v9.2ZM27.27,90h8.8v-8.8h-8.8v8.8Z"/>
            </g>
            <polygon class="cls-2" points="34.89 88.48 28.84 88.48 28.84 83.7 33.54 83.7 33.54 87.09 29.81 87.09 29.81 84.75 32.49 84.75 32.49 86 30.98 86 30.98 85.8 32.29 85.8 32.29 84.95 30.01 84.95 30.01 86.89 33.34 86.89 33.34 83.9 29.04 83.9 29.04 88.28 34.69 88.28 34.69 82.7 27.17 82.7 27.17 82.5 34.89 82.5 34.89 88.48"/>
          </g>
          <g>
            <g>
              <polygon class="cls-4" points="40.67 89.5 36.17 89.5 38.42 85.6 40.67 81.7 42.92 85.6 45.17 89.5 40.67 89.5"/>
              <path class="cls-2" d="M45.35,89.6h-9.35l4.67-8.09,4.67,8.09ZM36.35,89.4h8.65l-4.33-7.49-4.33,7.49Z"/>
            </g>
            <g>
              <polygon class="cls-5" points="40.67 88.44 37.79 88.44 39.23 85.94 40.67 83.44 42.11 85.94 43.56 88.44 40.67 88.44"/>
              <path class="cls-2" d="M43.73,88.54h-6.11l3.06-5.29,3.06,5.29ZM37.96,88.34h5.42l-2.71-4.69-2.71,4.69Z"/>
            </g>
            <g>
              <polygon class="cls-3" points="40.67 87.4 39.44 87.4 40.06 86.33 40.67 85.26 41.29 86.33 41.91 87.4 40.67 87.4"/>
              <path class="cls-2" d="M42.08,87.5h-2.81l1.41-2.44,1.41,2.44ZM39.61,87.3h2.12l-1.06-1.84-1.06,1.84Z"/>
            </g>
          </g>
          <g>
            <g>
              <rect class="cls-1" x="45.17" y="81.1" width="9" height="9"/>
              <path class="cls-2" d="M54.27,90.2h-9.2v-9.2h9.2v9.2ZM45.27,90h8.8v-8.8h-8.8v8.8Z"/>
            </g>
            <polygon class="cls-2" points="52.89 88.48 46.84 88.48 46.84 83.7 51.54 83.7 51.54 87.09 47.81 87.09 47.81 84.75 50.49 84.75 50.49 86 48.98 86 48.98 85.8 50.29 85.8 50.29 84.95 48.01 84.95 48.01 86.89 51.34 86.89 51.34 83.9 47.04 83.9 47.04 88.28 52.69 88.28 52.69 82.7 45.17 82.7 45.17 82.5 52.89 82.5 52.89 88.48"/>
          </g>
          <g>
            <g>
              <polygon class="cls-4" points="58.67 89.5 54.17 89.5 56.42 85.6 58.67 81.7 60.92 85.6 63.17 89.5 58.67 89.5"/>
              <path class="cls-2" d="M63.35,89.6h-9.35l4.67-8.09,4.67,8.09ZM54.35,89.4h8.65l-4.33-7.49-4.33,7.49Z"/>
            </g>
            <g>
              <polygon class="cls-5" points="58.67 88.44 55.79 88.44 57.23 85.94 58.67 83.44 60.11 85.94 61.56 88.44 58.67 88.44"/>
              <path class="cls-2" d="M61.73,88.54h-6.11l3.06-5.29,3.06,5.29ZM55.96,88.34h5.42l-2.71-4.69-2.71,4.69Z"/>
            </g>
            <g>
              <polygon class="cls-3" points="58.67 87.4 57.44 87.4 58.06 86.33 58.67 85.26 59.29 86.33 59.91 87.4 58.67 87.4"/>
              <path class="cls-2" d="M60.08,87.5h-2.81l1.41-2.44,1.41,2.44ZM57.61,87.3h2.12l-1.06-1.84-1.06,1.84Z"/>
            </g>
          </g>
          <g>
            <g>
              <rect class="cls-1" x="63.17" y="81.1" width="9" height="9"/>
              <path class="cls-2" d="M72.27,90.2h-9.2v-9.2h9.2v9.2ZM63.27,90h8.8v-8.8h-8.8v8.8Z"/>
            </g>
            <polygon class="cls-2" points="70.89 88.48 64.84 88.48 64.84 83.7 69.54 83.7 69.54 87.09 65.81 87.09 65.81 84.75 68.49 84.75 68.49 86 66.98 86 66.98 85.8 68.29 85.8 68.29 84.95 66.01 84.95 66.01 86.89 69.34 86.89 69.34 83.9 65.04 83.9 65.04 88.28 70.69 88.28 70.69 82.7 63.17 82.7 63.17 82.5 70.89 82.5 70.89 88.48"/>
          </g>
          <g>
            <g>
              <polygon class="cls-4" points="76.67 89.5 72.17 89.5 74.42 85.6 76.67 81.7 78.92 85.6 81.17 89.5 76.67 89.5"/>
              <path class="cls-2" d="M81.35,89.6h-9.35l4.67-8.09,4.67,8.09ZM72.35,89.4h8.65l-4.33-7.49-4.33,7.49Z"/>
            </g>
            <g>
              <polygon class="cls-5" points="76.67 88.44 73.79 88.44 75.23 85.94 76.67 83.44 78.11 85.94 79.56 88.44 76.67 88.44"/>
              <path class="cls-2" d="M79.73,88.54h-6.11l3.06-5.29,3.06,5.29ZM73.96,88.34h5.42l-2.71-4.69-2.71,4.69Z"/>
            </g>
            <g>
              <polygon class="cls-3" points="76.67 87.4 75.44 87.4 76.06 86.33 76.67 85.26 77.29 86.33 77.91 87.4 76.67 87.4"/>
              <path class="cls-2" d="M78.08,87.5h-2.81l1.41-2.44,1.41,2.44ZM75.61,87.3h2.12l-1.06-1.84-1.06,1.84Z"/>
            </g>
          </g>
        </g>
      </g>
    </g>
  </g>
</svg>