<?xml version="1.0" encoding="UTF-8"?>
<svg id="Layer_2" data-name="Layer 2" xmlns="http://www.w3.org/2000/svg" viewBox="0 0 90.2 90.2">
  <defs>
    <style>
      .cls-1 {
        fill: #ad8580;
      }

      .cls-2 {
        fill: #341d33;
      }

      .cls-3 {
        fill: #d5b89c;
      }

      .cls-4 {
        fill: #f4d8bb;
      }
    </style>
  </defs>
  <g id="_Слой_1" data-name="Слой 1">
    <g>
      <rect class="cls-3" x=".1" y=".1" width="90" height="90"/>
      <g>
        <g>
          <g>
            <rect class="cls-1" x=".1" y=".1" width="9" height="9"/>
            <path class="cls-2" d="M9.2,9.2H0V0h9.2v9.2ZM.2,9h8.8V.2H.2v8.8Z"/>
          </g>
          <polygon class="cls-2" points="7.81 7.48 1.76 7.48 1.76 2.7 6.46 2.7 6.46 6.09 2.74 6.09 2.74 3.75 5.41 3.75 5.41 5 3.91 5 3.91 4.8 5.21 4.8 5.21 3.95 2.94 3.95 2.94 5.89 6.26 5.89 6.26 2.9 1.96 2.9 1.96 7.27 7.61 7.27 7.61 1.7 .1 1.7 .1 1.5 7.81 1.5 7.81 7.48"/>
        </g>
        <g>
          <g>
            <circle class="cls-4" cx="13.6" cy="4.6" r="4.5"/>
            <path class="cls-2" d="M13.6,9.2c-2.54,0-4.6-2.06-4.6-4.6S11.06,0,13.6,0s4.6,2.06,4.6,4.6-2.06,4.6-4.6,4.6ZM13.6.2c-2.43,0-4.4,1.97-4.4,4.4s1.97,4.4,4.4,4.4,4.4-1.97,4.4-4.4S16.03.2,13.6.2Z"/>
          </g>
          <g>
            <circle class="cls-3" cx="13.6" cy="4.6" r="1.09"/>
            <path class="cls-2" d="M13.6,5.79c-.66,0-1.19-.54-1.19-1.19s.54-1.19,1.19-1.19,1.19.54,1.19,1.19-.54,1.19-1.19,1.19ZM13.6,3.61c-.55,0-.99.45-.99.99s.45.99.99.99.99-.45.99-.99-.45-.99-.99-.99Z"/>
          </g>
        </g>
        <g>
          <g>
            <rect class="cls-1" x="18.1" y=".1" width="9" height="9"/>
            <path class="cls-2" d="M27.2,9.2h-9.2V0h9.2v9.2ZM18.2,9h8.8V.2h-8.8v8.8Z"/>
          </g>
          <polygon class="cls-2" points="25.81 7.48 19.76 7.48 19.76 2.7 24.46 2.7 24.46 6.09 20.74 6.09 20.74 3.75 23.41 3.75 23.41 5 21.91 5 21.91 4.8 23.21 4.8 23.21 3.95 20.94 3.95 20.94 5.89 24.26 5.89 24.26 2.9 19.96 2.9 19.96 7.27 25.61 7.27 25.61 1.7 18.1 1.7 18.1 1.5 25.81 1.5 25.81 7.48"/>
        </g>
        <g>
          <g>
            <circle class="cls-4" cx="31.6" cy="4.6" r="4.5"/>
            <path class="cls-2" d="M31.6,9.2c-2.54,0-4.6-2.06-4.6-4.6S29.06,0,31.6,0s4.6,2.06,4.6,4.6-2.06,4.6-4.6,4.6ZM31.6.2c-2.43,0-4.4,1.97-4.4,4.4s1.97,4.4,4.4,4.4,4.4-1.97,4.4-4.4S34.03.2,31.6.2Z"/>
          </g>
          <g>
            <circle class="cls-3" cx="31.6" cy="4.6" r="1.09"/>
            <path class="cls-2" d="M31.6,5.79c-.66,0-1.19-.54-1.19-1.19s.54-1.19,1.19-1.19,1.19.54,1.19,1.19-.54,1.19-1.19,1.19ZM31.6,3.61c-.55,0-.99.45-.99.99s.45.99.99.99.99-.45.99-.99-.45-.99-.99-.99Z"/>
          </g>
        </g>
        <g>
          <g>
            <rect class="cls-1" x="36.1" y=".1" width="9" height="9"/>
            <path class="cls-2" d="M45.2,9.2h-9.2V0h9.2v9.2ZM36.2,9h8.8V.2h-8.8v8.8Z"/>
          </g>
          <polygon class="cls-2" points="43.81 7.48 37.76 7.48 37.76 2.7 42.46 2.7 42.46 6.09 38.74 6.09 38.74 3.75 41.41 3.75 41.41 5 39.91 5 39.91 4.8 41.21 4.8 41.21 3.95 38.94 3.95 38.94 5.89 42.26 5.89 42.26 2.9 37.96 2.9 37.96 7.27 43.61 7.27 43.61 1.7 36.1 1.7 36.1 1.5 43.81 1.5 43.81 7.48"/>
        </g>
        <g>
          <g>
            <circle class="cls-4" cx="49.6" cy="4.6" r="4.5"/>
            <path class="cls-2" d="M49.6,9.2c-2.54,0-4.6-2.06-4.6-4.6s2.06-4.6,4.6-4.6,4.6,2.06,4.6,4.6-2.06,4.6-4.6,4.6ZM49.6.2c-2.43,0-4.4,1.97-4.4,4.4s1.97,4.4,4.4,4.4,4.4-1.97,4.4-4.4S52.03.2,49.6.2Z"/>
          </g>
          <g>
            <circle class="cls-3" cx="49.6" cy="4.6" r="1.09"/>
            <path class="cls-2" d="M49.6,5.79c-.66,0-1.19-.54-1.19-1.19s.54-1.19,1.19-1.19,1.19.54,1.19,1.19-.54,1.19-1.19,1.19ZM49.6,3.61c-.55,0-.99.45-.99.99s.45.99.99.99.99-.45.99-.99-.45-.99-.99-.99Z"/>
          </g>
        </g>
        <g>
          <g>
            <rect class="cls-1" x="54.1" y=".1" width="9" height="9"/>
            <path class="cls-2" d="M63.2,9.2h-9.2V0h9.2v9.2ZM54.2,9h8.8V.2h-8.8v8.8Z"/>
          </g>
          <polygon class="cls-2" points="61.81 7.48 55.76 7.48 55.76 2.7 60.46 2.7 60.46 6.09 56.74 6.09 56.74 3.75 59.41 3.75 59.41 5 57.91 5 57.91 4.8 59.21 4.8 59.21 3.95 56.94 3.95 56.94 5.89 60.26 5.89 60.26 2.9 55.96 2.9 55.96 7.27 61.61 7.27 61.61 1.7 54.1 1.7 54.1 1.5 61.81 1.5 61.81 7.48"/>
        </g>
        <g>
          <g>
            <circle class="cls-4" cx="67.6" cy="4.6" r="4.5"/>
            <path class="cls-2" d="M67.6,9.2c-2.54,0-4.6-2.06-4.6-4.6s2.06-4.6,4.6-4.6,4.6,2.06,4.6,4.6-2.06,4.6-4.6,4.6ZM67.6.2c-2.43,0-4.4,1.97-4.4,4.4s1.97,4.4,4.4,4.4,4.4-1.97,4.4-4.4-1.97-4.4-4.4-4.4Z"/>
          </g>
          <g>
            <circle class="cls-3" cx="67.6" cy="4.6" r="1.09"/>
            <path class="cls-2" d="M67.6,5.79c-.66,0-1.19-.54-1.19-1.19s.54-1.19,1.19-1.19,1.19.54,1.19,1.19-.54,1.19-1.19,1.19ZM67.6,3.61c-.55,0-.99.45-.99.99s.45.99.99.99.99-.45.99-.99-.45-.99-.99-.99Z"/>
          </g>
        </g>
        <g>
          <g>
            <rect class="cls-1" x="72.1" y=".1" width="9" height="9"/>
            <path class="cls-2" d="M81.2,9.2h-9.2V0h9.2v9.2ZM72.2,9h8.8V.2h-8.8v8.8Z"/>
          </g>
          <polygon class="cls-2" points="79.81 7.48 73.76 7.48 73.76 2.7 78.46 2.7 78.46 6.09 74.74 6.09 74.74 3.75 77.41 3.75 77.41 5 75.91 5 75.91 4.8 77.21 4.8 77.21 3.95 74.94 3.95 74.94 5.89 78.26 5.89 78.26 2.9 73.96 2.9 73.96 7.27 79.61 7.27 79.61 1.7 72.1 1.7 72.1 1.5 79.81 1.5 79.81 7.48"/>
        </g>
        <g>
          <g>
            <circle class="cls-4" cx="85.6" cy="4.6" r="4.5"/>
            <path class="cls-2" d="M85.6,9.2c-2.54,0-4.6-2.06-4.6-4.6s2.06-4.6,4.6-4.6,4.6,2.06,4.6,4.6-2.06,4.6-4.6,4.6ZM85.6.2c-2.43,0-4.4,1.97-4.4,4.4s1.97,4.4,4.4,4.4,4.4-1.97,4.4-4.4-1.97-4.4-4.4-4.4Z"/>
          </g>
          <g>
            <circle class="cls-3" cx="85.6" cy="4.6" r="1.09"/>
            <path class="cls-2" d="M85.6,5.79c-.66,0-1.19-.54-1.19-1.19s.54-1.19,1.19-1.19,1.19.54,1.19,1.19-.54,1.19-1.19,1.19ZM85.6,3.61c-.55,0-.99.45-.99.99s.45.99.99.99.99-.45.99-.99-.45-.99-.99-.99Z"/>
          </g>
        </g>
        <g>
          <g>
            <circle class="cls-4" cx="4.6" cy="13.6" r="4.5"/>
            <path class="cls-2" d="M4.6,18.2c-2.54,0-4.6-2.06-4.6-4.6s2.06-4.6,4.6-4.6,4.6,2.06,4.6,4.6-2.06,4.6-4.6,4.6ZM4.6,9.2C2.17,9.2.2,11.17.2,13.6s1.97,4.4,4.4,4.4,4.4-1.97,4.4-4.4-1.97-4.4-4.4-4.4Z"/>
          </g>
          <g>
            <circle class="cls-3" cx="4.6" cy="13.6" r="1.09"/>
            <path class="cls-2" d="M4.6,14.79c-.66,0-1.19-.54-1.19-1.19s.54-1.19,1.19-1.19,1.19.54,1.19,1.19-.54,1.19-1.19,1.19ZM4.6,12.61c-.55,0-.99.45-.99.99s.45.99.99.99.99-.45.99-.99-.45-.99-.99-.99Z"/>
          </g>
        </g>
        <g>
          <g>
            <rect class="cls-1" x="9.1" y="9.1" width="9" height="9"/>
            <path class="cls-2" d="M18.2,18.2h-9.2v-9.2h9.2v9.2ZM9.2,18h8.8v-8.8h-8.8v8.8Z"/>
          </g>
          <polygon class="cls-2" points="16.81 16.48 10.76 16.48 10.76 11.7 15.46 11.7 15.46 15.09 11.74 15.09 11.74 12.75 14.41 12.75 14.41 14 12.91 14 12.91 13.8 14.21 13.8 14.21 12.95 11.94 12.95 11.94 14.89 15.26 14.89 15.26 11.9 10.96 11.9 10.96 16.27 16.61 16.27 16.61 10.7 9.1 10.7 9.1 10.5 16.81 10.5 16.81 16.48"/>
        </g>
        <g>
          <g>
            <circle class="cls-4" cx="22.6" cy="13.6" r="4.5"/>
            <path class="cls-2" d="M22.6,18.2c-2.54,0-4.6-2.06-4.6-4.6s2.06-4.6,4.6-4.6,4.6,2.06,4.6,4.6-2.06,4.6-4.6,4.6ZM22.6,9.2c-2.43,0-4.4,1.97-4.4,4.4s1.97,4.4,4.4,4.4,4.4-1.97,4.4-4.4-1.97-4.4-4.4-4.4Z"/>
          </g>
          <g>
            <circle class="cls-3" cx="22.6" cy="13.6" r="1.09"/>
            <path class="cls-2" d="M22.6,14.79c-.66,0-1.19-.54-1.19-1.19s.54-1.19,1.19-1.19,1.19.54,1.19,1.19-.54,1.19-1.19,1.19ZM22.6,12.61c-.55,0-.99.45-.99.99s.45.99.99.99.99-.45.99-.99-.45-.99-.99-.99Z"/>
          </g>
        </g>
        <g>
          <g>
            <rect class="cls-1" x="27.1" y="9.1" width="9" height="9"/>
            <path class="cls-2" d="M36.2,18.2h-9.2v-9.2h9.2v9.2ZM27.2,18h8.8v-8.8h-8.8v8.8Z"/>
          </g>
          <polygon class="cls-2" points="34.81 16.48 28.76 16.48 28.76 11.7 33.46 11.7 33.46 15.09 29.74 15.09 29.74 12.75 32.41 12.75 32.41 14 30.91 14 30.91 13.8 32.21 13.8 32.21 12.95 29.94 12.95 29.94 14.89 33.26 14.89 33.26 11.9 28.96 11.9 28.96 16.27 34.61 16.27 34.61 10.7 27.1 10.7 27.1 10.5 34.81 10.5 34.81 16.48"/>
        </g>
        <g>
          <g>
            <circle class="cls-4" cx="40.6" cy="13.6" r="4.5"/>
            <path class="cls-2" d="M40.6,18.2c-2.54,0-4.6-2.06-4.6-4.6s2.06-4.6,4.6-4.6,4.6,2.06,4.6,4.6-2.06,4.6-4.6,4.6ZM40.6,9.2c-2.43,0-4.4,1.97-4.4,4.4s1.97,4.4,4.4,4.4,4.4-1.97,4.4-4.4-1.97-4.4-4.4-4.4Z"/>
          </g>
          <g>
            <circle class="cls-3" cx="40.6" cy="13.6" r="1.09"/>
            <path class="cls-2" d="M40.6,14.79c-.66,0-1.19-.54-1.19-1.19s.54-1.19,1.19-1.19,1.19.54,1.19,1.19-.54,1.19-1.19,1.19ZM40.6,12.61c-.55,0-.99.45-.99.99s.45.99.99.99.99-.45.99-.99-.45-.99-.99-.99Z"/>
          </g>
        </g>
        <g>
          <g>
            <rect class="cls-1" x="45.1" y="9.1" width="9" height="9"/>
            <path class="cls-2" d="M54.2,18.2h-9.2v-9.2h9.2v9.2ZM45.2,18h8.8v-8.8h-8.8v8.8Z"/>
          </g>
          <polygon class="cls-2" points="52.81 16.48 46.76 16.48 46.76 11.7 51.46 11.7 51.46 15.09 47.74 15.09 47.74 12.75 50.41 12.75 50.41 14 48.91 14 48.91 13.8 50.21 13.8 50.21 12.95 47.94 12.95 47.94 14.89 51.26 14.89 51.26 11.9 46.96 11.9 46.96 16.27 52.61 16.27 52.61 10.7 45.1 10.7 45.1 10.5 52.81 10.5 52.81 16.48"/>
        </g>
        <g>
          <g>
            <circle class="cls-4" cx="58.6" cy="13.6" r="4.5"/>
            <path class="cls-2" d="M58.6,18.2c-2.54,0-4.6-2.06-4.6-4.6s2.06-4.6,4.6-4.6,4.6,2.06,4.6,4.6-2.06,4.6-4.6,4.6ZM58.6,9.2c-2.43,0-4.4,1.97-4.4,4.4s1.97,4.4,4.4,4.4,4.4-1.97,4.4-4.4-1.97-4.4-4.4-4.4Z"/>
          </g>
          <g>
            <circle class="cls-3" cx="58.6" cy="13.6" r="1.09"/>
            <path class="cls-2" d="M58.6,14.79c-.66,0-1.19-.54-1.19-1.19s.54-1.19,1.19-1.19,1.19.54,1.19,1.19-.54,1.19-1.19,1.19ZM58.6,12.61c-.55,0-.99.45-.99.99s.45.99.99.99.99-.45.99-.99-.45-.99-.99-.99Z"/>
          </g>
        </g>
        <g>
          <g>
            <rect class="cls-1" x="63.1" y="9.1" width="9" height="9"/>
            <path class="cls-2" d="M72.2,18.2h-9.2v-9.2h9.2v9.2ZM63.2,18h8.8v-8.8h-8.8v8.8Z"/>
          </g>
          <polygon class="cls-2" points="70.81 16.48 64.76 16.48 64.76 11.7 69.46 11.7 69.46 15.09 65.74 15.09 65.74 12.75 68.41 12.75 68.41 14 66.91 14 66.91 13.8 68.21 13.8 68.21 12.95 65.94 12.95 65.94 14.89 69.26 14.89 69.26 11.9 64.96 11.9 64.96 16.27 70.61 16.27 70.61 10.7 63.1 10.7 63.1 10.5 70.81 10.5 70.81 16.48"/>
        </g>
        <g>
          <g>
            <circle class="cls-4" cx="76.6" cy="13.6" r="4.5"/>
            <path class="cls-2" d="M76.6,18.2c-2.54,0-4.6-2.06-4.6-4.6s2.06-4.6,4.6-4.6,4.6,2.06,4.6,4.6-2.06,4.6-4.6,4.6ZM76.6,9.2c-2.43,0-4.4,1.97-4.4,4.4s1.97,4.4,4.4,4.4,4.4-1.97,4.4-4.4-1.97-4.4-4.4-4.4Z"/>
          </g>
          <g>
            <circle class="cls-3" cx="76.6" cy="13.6" r="1.09"/>
            <path class="cls-2" d="M76.6,14.79c-.66,0-1.19-.54-1.19-1.19s.54-1.19,1.19-1.19,1.19.54,1.19,1.19-.54,1.19-1.19,1.19ZM76.6,12.61c-.55,0-.99.45-.99.99s.45.99.99.99.99-.45.99-.99-.45-.99-.99-.99Z"/>
          </g>
        </g>
        <g>
          <g>
            <rect class="cls-1" x="81.1" y="9.1" width="9" height="9"/>
            <path class="cls-2" d="M90.2,18.2h-9.2v-9.2h9.2v9.2ZM81.2,18h8.8v-8.8h-8.8v8.8Z"/>
          </g>
          <polygon class="cls-2" points="88.81 16.48 82.76 16.48 82.76 11.7 87.46 11.7 87.46 15.09 83.74 15.09 83.74 12.75 86.41 12.75 86.41 14 84.91 14 84.91 13.8 86.21 13.8 86.21 12.95 83.94 12.95 83.94 14.89 87.26 14.89 87.26 11.9 82.96 11.9 82.96 16.27 88.61 16.27 88.61 10.7 81.1 10.7 81.1 10.5 88.81 10.5 88.81 16.48"/>
        </g>
        <g>
          <g>
            <rect class="cls-1" x=".1" y="18.1" width="9" height="9"/>
            <path class="cls-2" d="M9.2,27.2H0v-9.2h9.2v9.2ZM.2,27h8.8v-8.8H.2v8.8Z"/>
          </g>
          <polygon class="cls-2" points="7.81 25.48 1.76 25.48 1.76 20.7 6.46 20.7 6.46 24.09 2.74 24.09 2.74 21.75 5.41 21.75 5.41 23 3.91 23 3.91 22.8 5.21 22.8 5.21 21.95 2.94 21.95 2.94 23.89 6.26 23.89 6.26 20.9 1.96 20.9 1.96 25.27 7.61 25.27 7.61 19.7 .1 19.7 .1 19.5 7.81 19.5 7.81 25.48"/>
        </g>
        <g>
          <g>
            <circle class="cls-4" cx="13.6" cy="22.6" r="4.5"/>
            <path class="cls-2" d="M13.6,27.2c-2.54,0-4.6-2.06-4.6-4.6s2.06-4.6,4.6-4.6,4.6,2.06,4.6,4.6-2.06,4.6-4.6,4.6ZM13.6,18.2c-2.43,0-4.4,1.97-4.4,4.4s1.97,4.4,4.4,4.4,4.4-1.97,4.4-4.4-1.97-4.4-4.4-4.4Z"/>
          </g>
          <g>
            <circle class="cls-3" cx="13.6" cy="22.6" r="1.09"/>
            <path class="cls-2" d="M13.6,23.79c-.66,0-1.19-.54-1.19-1.19s.54-1.19,1.19-1.19,1.19.54,1.19,1.19-.54,1.19-1.19,1.19ZM13.6,21.61c-.55,0-.99.45-.99.99s.45.99.99.99.99-.45.99-.99-.45-.99-.99-.99Z"/>
          </g>
        </g>
        <g>
          <g>
            <rect class="cls-1" x="18.1" y="18.1" width="9" height="9"/>
            <path class="cls-2" d="M27.2,27.2h-9.2v-9.2h9.2v9.2ZM18.2,27h8.8v-8.8h-8.8v8.8Z"/>
          </g>
          <polygon class="cls-2" points="25.81 25.48 19.76 25.48 19.76 20.7 24.46 20.7 24.46 24.09 20.74 24.09 20.74 21.75 23.41 21.75 23.41 23 21.91 23 21.91 22.8 23.21 22.8 23.21 21.95 20.94 21.95 20.94 23.89 24.26 23.89 24.26 20.9 19.96 20.9 19.96 25.27 25.61 25.27 25.61 19.7 18.1 19.7 18.1 19.5 25.81 19.5 25.81 25.48"/>
        </g>
        <g>
          <g>
            <circle class="cls-4" cx="31.6" cy="22.6" r="4.5"/>
            <path class="cls-2" d="M31.6,27.2c-2.54,0-4.6-2.06-4.6-4.6s2.06-4.6,4.6-4.6,4.6,2.06,4.6,4.6-2.06,4.6-4.6,4.6ZM31.6,18.2c-2.43,0-4.4,1.97-4.4,4.4s1.97,4.4,4.4,4.4,4.4-1.97,4.4-4.4-1.97-4.4-4.4-4.4Z"/>
          </g>
          <g>
            <circle class="cls-3" cx="31.6" cy="22.6" r="1.09"/>
            <path class="cls-2" d="M31.6,23.79c-.66,0-1.19-.54-1.19-1.19s.54-1.19,1.19-1.19,1.19.54,1.19,1.19-.54,1.19-1.19,1.19ZM31.6,21.61c-.55,0-.99.45-.99.99s.45.99.99.99.99-.45.99-.99-.45-.99-.99-.99Z"/>
          </g>
        </g>
        <g>
          <g>
            <rect class="cls-1" x="36.1" y="18.1" width="9" height="9"/>
            <path class="cls-2" d="M45.2,27.2h-9.2v-9.2h9.2v9.2ZM36.2,27h8.8v-8.8h-8.8v8.8Z"/>
          </g>
          <polygon class="cls-2" points="43.81 25.48 37.76 25.48 37.76 20.7 42.46 20.7 42.46 24.09 38.74 24.09 38.74 21.75 41.41 21.75 41.41 23 39.91 23 39.91 22.8 41.21 22.8 41.21 21.95 38.94 21.95 38.94 23.89 42.26 23.89 42.26 20.9 37.96 20.9 37.96 25.27 43.61 25.27 43.61 19.7 36.1 19.7 36.1 19.5 43.81 19.5 43.81 25.48"/>
        </g>
        <g>
          <g>
            <circle class="cls-4" cx="49.6" cy="22.6" r="4.5"/>
            <path class="cls-2" d="M49.6,27.2c-2.54,0-4.6-2.06-4.6-4.6s2.06-4.6,4.6-4.6,4.6,2.06,4.6,4.6-2.06,4.6-4.6,4.6ZM49.6,18.2c-2.43,0-4.4,1.97-4.4,4.4s1.97,4.4,4.4,4.4,4.4-1.97,4.4-4.4-1.97-4.4-4.4-4.4Z"/>
          </g>
          <g>
            <circle class="cls-3" cx="49.6" cy="22.6" r="1.09"/>
            <path class="cls-2" d="M49.6,23.79c-.66,0-1.19-.54-1.19-1.19s.54-1.19,1.19-1.19,1.19.54,1.19,1.19-.54,1.19-1.19,1.19ZM49.6,21.61c-.55,0-.99.45-.99.99s.45.99.99.99.99-.45.99-.99-.45-.99-.99-.99Z"/>
          </g>
        </g>
        <g>
          <g>
            <rect class="cls-1" x="54.1" y="18.1" width="9" height="9"/>
            <path class="cls-2" d="M63.2,27.2h-9.2v-9.2h9.2v9.2ZM54.2,27h8.8v-8.8h-8.8v8.8Z"/>
          </g>
          <polygon class="cls-2" points="61.81 25.48 55.76 25.48 55.76 20.7 60.46 20.7 60.46 24.09 56.74 24.09 56.74 21.75 59.41 21.75 59.41 23 57.91 23 57.91 22.8 59.21 22.8 59.21 21.95 56.94 21.95 56.94 23.89 60.26 23.89 60.26 20.9 55.96 20.9 55.96 25.27 61.61 25.27 61.61 19.7 54.1 19.7 54.1 19.5 61.81 19.5 61.81 25.48"/>
        </g>
        <g>
          <g>
            <circle class="cls-4" cx="67.6" cy="22.6" r="4.5"/>
            <path class="cls-2" d="M67.6,27.2c-2.54,0-4.6-2.06-4.6-4.6s2.06-4.6,4.6-4.6,4.6,2.06,4.6,4.6-2.06,4.6-4.6,4.6ZM67.6,18.2c-2.43,0-4.4,1.97-4.4,4.4s1.97,4.4,4.4,4.4,4.4-1.97,4.4-4.4-1.97-4.4-4.4-4.4Z"/>
          </g>
          <g>
            <circle class="cls-3" cx="67.6" cy="22.6" r="1.09"/>
            <path class="cls-2" d="M67.6,23.79c-.66,0-1.19-.54-1.19-1.19s.54-1.19,1.19-1.19,1.19.54,1.19,1.19-.54,1.19-1.19,1.19ZM67.6,21.61c-.55,0-.99.45-.99.99s.45.99.99.99.99-.45.99-.99-.45-.99-.99-.99Z"/>
          </g>
        </g>
        <g>
          <g>
            <rect class="cls-1" x="72.1" y="18.1" width="9" height="9"/>
            <path class="cls-2" d="M81.2,27.2h-9.2v-9.2h9.2v9.2ZM72.2,27h8.8v-8.8h-8.8v8.8Z"/>
          </g>
          <polygon class="cls-2" points="79.81 25.48 73.76 25.48 73.76 20.7 78.46 20.7 78.46 24.09 74.74 24.09 74.74 21.75 77.41 21.75 77.41 23 75.91 23 75.91 22.8 77.21 22.8 77.21 21.95 74.94 21.95 74.94 23.89 78.26 23.89 78.26 20.9 73.96 20.9 73.96 25.27 79.61 25.27 79.61 19.7 72.1 19.7 72.1 19.5 79.81 19.5 79.81 25.48"/>
        </g>
        <g>
          <g>
            <circle class="cls-4" cx="85.6" cy="22.6" r="4.5"/>
            <path class="cls-2" d="M85.6,27.2c-2.54,0-4.6-2.06-4.6-4.6s2.06-4.6,4.6-4.6,4.6,2.06,4.6,4.6-2.06,4.6-4.6,4.6ZM85.6,18.2c-2.43,0-4.4,1.97-4.4,4.4s1.97,4.4,4.4,4.4,4.4-1.97,4.4-4.4-1.97-4.4-4.4-4.4Z"/>
          </g>
          <g>
            <circle class="cls-3" cx="85.6" cy="22.6" r="1.09"/>
            <path class="cls-2" d="M85.6,23.79c-.66,0-1.19-.54-1.19-1.19s.54-1.19,1.19-1.19,1.19.54,1.19,1.19-.54,1.19-1.19,1.19ZM85.6,21.61c-.55,0-.99.45-.99.99s.45.99.99.99.99-.45.99-.99-.45-.99-.99-.99Z"/>
          </g>
        </g>
        <g>
          <g>
            <circle class="cls-4" cx="4.6" cy="31.6" r="4.5"/>
            <path class="cls-2" d="M4.6,36.2c-2.54,0-4.6-2.06-4.6-4.6s2.06-4.6,4.6-4.6,4.6,2.06,4.6,4.6-2.06,4.6-4.6,4.6ZM4.6,27.2c-2.43,0-4.4,1.97-4.4,4.4s1.97,4.4,4.4,4.4,4.4-1.97,4.4-4.4-1.97-4.4-4.4-4.4Z"/>
          </g>
          <g>
            <circle class="cls-3" cx="4.6" cy="31.6" r="1.09"/>
            <path class="cls-2" d="M4.6,32.79c-.66,0-1.19-.54-1.19-1.19s.54-1.19,1.19-1.19,1.19.54,1.19,1.19-.54,1.19-1.19,1.19ZM4.6,30.61c-.55,0-.99.45-.99.99s.45.99.99.99.99-.45.99-.99-.45-.99-.99-.99Z"/>
          </g>
        </g>
        <g>
          <g>
            <rect class="cls-1" x="9.1" y="27.1" width="9" height="9"/>
            <path class="cls-2" d="M18.2,36.2h-9.2v-9.2h9.2v9.2ZM9.2,36h8.8v-8.8h-8.8v8.8Z"/>
          </g>
          <polygon class="cls-2" points="16.81 34.48 10.76 34.48 10.76 29.7 15.46 29.7 15.46 33.09 11.74 33.09 11.74 30.75 14.41 30.75 14.41 32 12.91 32 12.91 31.8 14.21 31.8 14.21 30.95 11.94 30.95 11.94 32.89 15.26 32.89 15.26 29.9 10.96 29.9 10.96 34.27 16.61 34.27 16.61 28.7 9.1 28.7 9.1 28.5 16.81 28.5 16.81 34.48"/>
        </g>
        <g>
          <g>
            <circle class="cls-4" cx="22.6" cy="31.6" r="4.5"/>
            <path class="cls-2" d="M22.6,36.2c-2.54,0-4.6-2.06-4.6-4.6s2.06-4.6,4.6-4.6,4.6,2.06,4.6,4.6-2.06,4.6-4.6,4.6ZM22.6,27.2c-2.43,0-4.4,1.97-4.4,4.4s1.97,4.4,4.4,4.4,4.4-1.97,4.4-4.4-1.97-4.4-4.4-4.4Z"/>
          </g>
          <g>
            <circle class="cls-3" cx="22.6" cy="31.6" r="1.09"/>
            <path class="cls-2" d="M22.6,32.79c-.66,0-1.19-.54-1.19-1.19s.54-1.19,1.19-1.19,1.19.54,1.19,1.19-.54,1.19-1.19,1.19ZM22.6,30.61c-.55,0-.99.45-.99.99s.45.99.99.99.99-.45.99-.99-.45-.99-.99-.99Z"/>
          </g>
        </g>
        <g>
          <g>
            <rect class="cls-1" x="27.1" y="27.1" width="9" height="9"/>
            <path class="cls-2" d="M36.2,36.2h-9.2v-9.2h9.2v9.2ZM27.2,36h8.8v-8.8h-8.8v8.8Z"/>
          </g>
          <polygon class="cls-2" points="34.81 34.48 28.76 34.48 28.76 29.7 33.46 29.7 33.46 33.09 29.74 33.09 29.74 30.75 32.41 30.75 32.41 32 30.91 32 30.91 31.8 32.21 31.8 32.21 30.95 29.94 30.95 29.94 32.89 33.26 32.89 33.26 29.9 28.96 29.9 28.96 34.27 34.61 34.27 34.61 28.7 27.1 28.7 27.1 28.5 34.81 28.5 34.81 34.48"/>
        </g>
        <g>
          <g>
            <circle class="cls-4" cx="40.6" cy="31.6" r="4.5"/>
            <path class="cls-2" d="M40.6,36.2c-2.54,0-4.6-2.06-4.6-4.6s2.06-4.6,4.6-4.6,4.6,2.06,4.6,4.6-2.06,4.6-4.6,4.6ZM40.6,27.2c-2.43,0-4.4,1.97-4.4,4.4s1.97,4.4,4.4,4.4,4.4-1.97,4.4-4.4-1.97-4.4-4.4-4.4Z"/>
          </g>
          <g>
            <circle class="cls-3" cx="40.6" cy="31.6" r="1.09"/>
            <path class="cls-2" d="M40.6,32.79c-.66,0-1.19-.54-1.19-1.19s.54-1.19,1.19-1.19,1.19.54,1.19,1.19-.54,1.19-1.19,1.19ZM40.6,30.61c-.55,0-.99.45-.99.99s.45.99.99.99.99-.45.99-.99-.45-.99-.99-.99Z"/>
          </g>
        </g>
        <g>
          <g>
            <rect class="cls-1" x="45.1" y="27.1" width="9" height="9"/>
            <path class="cls-2" d="M54.2,36.2h-9.2v-9.2h9.2v9.2ZM45.2,36h8.8v-8.8h-8.8v8.8Z"/>
          </g>
          <polygon class="cls-2" points="52.81 34.48 46.76 34.48 46.76 29.7 51.46 29.7 51.46 33.09 47.74 33.09 47.74 30.75 50.41 30.75 50.41 32 48.91 32 48.91 31.8 50.21 31.8 50.21 30.95 47.94 30.95 47.94 32.89 51.26 32.89 51.26 29.9 46.96 29.9 46.96 34.27 52.61 34.27 52.61 28.7 45.1 28.7 45.1 28.5 52.81 28.5 52.81 34.48"/>
        </g>
        <g>
          <g>
            <circle class="cls-4" cx="58.6" cy="31.6" r="4.5"/>
            <path class="cls-2" d="M58.6,36.2c-2.54,0-4.6-2.06-4.6-4.6s2.06-4.6,4.6-4.6,4.6,2.06,4.6,4.6-2.06,4.6-4.6,4.6ZM58.6,27.2c-2.43,0-4.4,1.97-4.4,4.4s1.97,4.4,4.4,4.4,4.4-1.97,4.4-4.4-1.97-4.4-4.4-4.4Z"/>
          </g>
          <g>
            <circle class="cls-3" cx="58.6" cy="31.6" r="1.09"/>
            <path class="cls-2" d="M58.6,32.79c-.66,0-1.19-.54-1.19-1.19s.54-1.19,1.19-1.19,1.19.54,1.19,1.19-.54,1.19-1.19,1.19ZM58.6,30.61c-.55,0-.99.45-.99.99s.45.99.99.99.99-.45.99-.99-.45-.99-.99-.99Z"/>
          </g>
        </g>
        <g>
          <g>
            <rect class="cls-1" x="63.1" y="27.1" width="9" height="9"/>
            <path class="cls-2" d="M72.2,36.2h-9.2v-9.2h9.2v9.2ZM63.2,36h8.8v-8.8h-8.8v8.8Z"/>
          </g>
          <polygon class="cls-2" points="70.81 34.48 64.76 34.48 64.76 29.7 69.46 29.7 69.46 33.09 65.74 33.09 65.74 30.75 68.41 30.75 68.41 32 66.91 32 66.91 31.8 68.21 31.8 68.21 30.95 65.94 30.95 65.94 32.89 69.26 32.89 69.26 29.9 64.96 29.9 64.96 34.27 70.61 34.27 70.61 28.7 63.1 28.7 63.1 28.5 70.81 28.5 70.81 34.48"/>
        </g>
        <g>
          <g>
            <circle class="cls-4" cx="76.6" cy="31.6" r="4.5"/>
            <path class="cls-2" d="M76.6,36.2c-2.54,0-4.6-2.06-4.6-4.6s2.06-4.6,4.6-4.6,4.6,2.06,4.6,4.6-2.06,4.6-4.6,4.6ZM76.6,27.2c-2.43,0-4.4,1.97-4.4,4.4s1.97,4.4,4.4,4.4,4.4-1.97,4.4-4.4-1.97-4.4-4.4-4.4Z"/>
          </g>
          <g>
            <circle class="cls-3" cx="76.6" cy="31.6" r="1.09"/>
            <path class="cls-2" d="M76.6,32.79c-.66,0-1.19-.54-1.19-1.19s.54-1.19,1.19-1.19,1.19.54,1.19,1.19-.54,1.19-1.19,1.19ZM76.6,30.61c-.55,0-.99.45-.99.99s.45.99.99.99.99-.45.99-.99-.45-.99-.99-.99Z"/>
          </g>
        </g>
        <g>
          <g>
            <rect class="cls-1" x="81.1" y="27.1" width="9" height="9"/>
            <path class="cls-2" d="M90.2,36.2h-9.2v-9.2h9.2v9.2ZM81.2,36h8.8v-8.8h-8.8v8.8Z"/>
          </g>
          <polygon class="cls-2" points="88.81 34.48 82.76 34.48 82.76 29.7 87.46 29.7 87.46 33.09 83.74 33.09 83.74 30.75 86.41 30.75 86.41 32 84.91 32 84.91 31.8 86.21 31.8 86.21 30.95 83.94 30.95 83.94 32.89 87.26 32.89 87.26 29.9 82.96 29.9 82.96 34.27 88.61 34.27 88.61 28.7 81.1 28.7 81.1 28.5 88.81 28.5 88.81 34.48"/>
        </g>
        <g>
          <g>
            <rect class="cls-1" x=".1" y="36.1" width="9" height="9"/>
            <path class="cls-2" d="M9.2,45.2H0v-9.2h9.2v9.2ZM.2,45h8.8v-8.8H.2v8.8Z"/>
          </g>
          <polygon class="cls-2" points="7.81 43.48 1.76 43.48 1.76 38.7 6.46 38.7 6.46 42.09 2.74 42.09 2.74 39.75 5.41 39.75 5.41 41 3.91 41 3.91 40.8 5.21 40.8 5.21 39.95 2.94 39.95 2.94 41.89 6.26 41.89 6.26 38.9 1.96 38.9 1.96 43.27 7.61 43.27 7.61 37.7 .1 37.7 .1 37.5 7.81 37.5 7.81 43.48"/>
        </g>
        <g>
          <g>
            <circle class="cls-4" cx="13.6" cy="40.6" r="4.5"/>
            <path class="cls-2" d="M13.6,45.2c-2.54,0-4.6-2.06-4.6-4.6s2.06-4.6,4.6-4.6,4.6,2.06,4.6,4.6-2.06,4.6-4.6,4.6ZM13.6,36.2c-2.43,0-4.4,1.97-4.4,4.4s1.97,4.4,4.4,4.4,4.4-1.97,4.4-4.4-1.97-4.4-4.4-4.4Z"/>
          </g>
          <g>
            <circle class="cls-3" cx="13.6" cy="40.6" r="1.09"/>
            <path class="cls-2" d="M13.6,41.79c-.66,0-1.19-.54-1.19-1.19s.54-1.19,1.19-1.19,1.19.54,1.19,1.19-.54,1.19-1.19,1.19ZM13.6,39.61c-.55,0-.99.45-.99.99s.45.99.99.99.99-.45.99-.99-.45-.99-.99-.99Z"/>
          </g>
        </g>
        <g>
          <g>
            <rect class="cls-1" x="18.1" y="36.1" width="9" height="9"/>
            <path class="cls-2" d="M27.2,45.2h-9.2v-9.2h9.2v9.2ZM18.2,45h8.8v-8.8h-8.8v8.8Z"/>
          </g>
          <polygon class="cls-2" points="25.81 43.48 19.76 43.48 19.76 38.7 24.46 38.7 24.46 42.09 20.74 42.09 20.74 39.75 23.41 39.75 23.41 41 21.91 41 21.91 40.8 23.21 40.8 23.21 39.95 20.94 39.95 20.94 41.89 24.26 41.89 24.26 38.9 19.96 38.9 19.96 43.27 25.61 43.27 25.61 37.7 18.1 37.7 18.1 37.5 25.81 37.5 25.81 43.48"/>
        </g>
        <g>
          <g>
            <circle class="cls-4" cx="31.6" cy="40.6" r="4.5"/>
            <path class="cls-2" d="M31.6,45.2c-2.54,0-4.6-2.06-4.6-4.6s2.06-4.6,4.6-4.6,4.6,2.06,4.6,4.6-2.06,4.6-4.6,4.6ZM31.6,36.2c-2.43,0-4.4,1.97-4.4,4.4s1.97,4.4,4.4,4.4,4.4-1.97,4.4-4.4-1.97-4.4-4.4-4.4Z"/>
          </g>
          <g>
            <circle class="cls-3" cx="31.6" cy="40.6" r="1.09"/>
            <path class="cls-2" d="M31.6,41.79c-.66,0-1.19-.54-1.19-1.19s.54-1.19,1.19-1.19,1.19.54,1.19,1.19-.54,1.19-1.19,1.19ZM31.6,39.61c-.55,0-.99.45-.99.99s.45.99.99.99.99-.45.99-.99-.45-.99-.99-.99Z"/>
          </g>
        </g>
        <g>
          <g>
            <rect class="cls-1" x="36.1" y="36.1" width="9" height="9"/>
            <path class="cls-2" d="M45.2,45.2h-9.2v-9.2h9.2v9.2ZM36.2,45h8.8v-8.8h-8.8v8.8Z"/>
          </g>
          <polygon class="cls-2" points="43.81 43.48 37.76 43.48 37.76 38.7 42.46 38.7 42.46 42.09 38.74 42.09 38.74 39.75 41.41 39.75 41.41 41 39.91 41 39.91 40.8 41.21 40.8 41.21 39.95 38.94 39.95 38.94 41.89 42.26 41.89 42.26 38.9 37.96 38.9 37.96 43.27 43.61 43.27 43.61 37.7 36.1 37.7 36.1 37.5 43.81 37.5 43.81 43.48"/>
        </g>
        <g>
          <g>
            <circle class="cls-4" cx="49.6" cy="40.6" r="4.5"/>
            <path class="cls-2" d="M49.6,45.2c-2.54,0-4.6-2.06-4.6-4.6s2.06-4.6,4.6-4.6,4.6,2.06,4.6,4.6-2.06,4.6-4.6,4.6ZM49.6,36.2c-2.43,0-4.4,1.97-4.4,4.4s1.97,4.4,4.4,4.4,4.4-1.97,4.4-4.4-1.97-4.4-4.4-4.4Z"/>
          </g>
          <g>
            <circle class="cls-3" cx="49.6" cy="40.6" r="1.09"/>
            <path class="cls-2" d="M49.6,41.79c-.66,0-1.19-.54-1.19-1.19s.54-1.19,1.19-1.19,1.19.54,1.19,1.19-.54,1.19-1.19,1.19ZM49.6,39.61c-.55,0-.99.45-.99.99s.45.99.99.99.99-.45.99-.99-.45-.99-.99-.99Z"/>
          </g>
        </g>
        <g>
          <g>
            <rect class="cls-1" x="54.1" y="36.1" width="9" height="9"/>
            <path class="cls-2" d="M63.2,45.2h-9.2v-9.2h9.2v9.2ZM54.2,45h8.8v-8.8h-8.8v8.8Z"/>
          </g>
          <polygon class="cls-2" points="61.81 43.48 55.76 43.48 55.76 38.7 60.46 38.7 60.46 42.09 56.74 42.09 56.74 39.75 59.41 39.75 59.41 41 57.91 41 57.91 40.8 59.21 40.8 59.21 39.95 56.94 39.95 56.94 41.89 60.26 41.89 60.26 38.9 55.96 38.9 55.96 43.27 61.61 43.27 61.61 37.7 54.1 37.7 54.1 37.5 61.81 37.5 61.81 43.48"/>
        </g>
        <g>
          <g>
            <circle class="cls-4" cx="67.6" cy="40.6" r="4.5"/>
            <path class="cls-2" d="M67.6,45.2c-2.54,0-4.6-2.06-4.6-4.6s2.06-4.6,4.6-4.6,4.6,2.06,4.6,4.6-2.06,4.6-4.6,4.6ZM67.6,36.2c-2.43,0-4.4,1.97-4.4,4.4s1.97,4.4,4.4,4.4,4.4-1.97,4.4-4.4-1.97-4.4-4.4-4.4Z"/>
          </g>
          <g>
            <circle class="cls-3" cx="67.6" cy="40.6" r="1.09"/>
            <path class="cls-2" d="M67.6,41.79c-.66,0-1.19-.54-1.19-1.19s.54-1.19,1.19-1.19,1.19.54,1.19,1.19-.54,1.19-1.19,1.19ZM67.6,39.61c-.55,0-.99.45-.99.99s.45.99.99.99.99-.45.99-.99-.45-.99-.99-.99Z"/>
          </g>
        </g>
        <g>
          <g>
            <rect class="cls-1" x="72.1" y="36.1" width="9" height="9"/>
            <path class="cls-2" d="M81.2,45.2h-9.2v-9.2h9.2v9.2ZM72.2,45h8.8v-8.8h-8.8v8.8Z"/>
          </g>
          <polygon class="cls-2" points="79.81 43.48 73.76 43.48 73.76 38.7 78.46 38.7 78.46 42.09 74.74 42.09 74.74 39.75 77.41 39.75 77.41 41 75.91 41 75.91 40.8 77.21 40.8 77.21 39.95 74.94 39.95 74.94 41.89 78.26 41.89 78.26 38.9 73.96 38.9 73.96 43.27 79.61 43.27 79.61 37.7 72.1 37.7 72.1 37.5 79.81 37.5 79.81 43.48"/>
        </g>
        <g>
          <g>
            <circle class="cls-4" cx="85.6" cy="40.6" r="4.5"/>
            <path class="cls-2" d="M85.6,45.2c-2.54,0-4.6-2.06-4.6-4.6s2.06-4.6,4.6-4.6,4.6,2.06,4.6,4.6-2.06,4.6-4.6,4.6ZM85.6,36.2c-2.43,0-4.4,1.97-4.4,4.4s1.97,4.4,4.4,4.4,4.4-1.97,4.4-4.4-1.97-4.4-4.4-4.4Z"/>
          </g>
          <g>
            <circle class="cls-3" cx="85.6" cy="40.6" r="1.09"/>
            <path class="cls-2" d="M85.6,41.79c-.66,0-1.19-.54-1.19-1.19s.54-1.19,1.19-1.19,1.19.54,1.19,1.19-.54,1.19-1.19,1.19ZM85.6,39.61c-.55,0-.99.45-.99.99s.45.99.99.99.99-.45.99-.99-.45-.99-.99-.99Z"/>
          </g>
        </g>
        <g>
          <g>
            <circle class="cls-4" cx="4.6" cy="49.6" r="4.5"/>
            <path class="cls-2" d="M4.6,54.2c-2.54,0-4.6-2.06-4.6-4.6s2.06-4.6,4.6-4.6,4.6,2.06,4.6,4.6-2.06,4.6-4.6,4.6ZM4.6,45.2c-2.43,0-4.4,1.97-4.4,4.4s1.97,4.4,4.4,4.4,4.4-1.97,4.4-4.4-1.97-4.4-4.4-4.4Z"/>
          </g>
          <g>
            <circle class="cls-3" cx="4.6" cy="49.6" r="1.09"/>
            <path class="cls-2" d="M4.6,50.79c-.66,0-1.19-.54-1.19-1.19s.54-1.19,1.19-1.19,1.19.54,1.19,1.19-.54,1.19-1.19,1.19ZM4.6,48.61c-.55,0-.99.45-.99.99s.45.99.99.99.99-.45.99-.99-.45-.99-.99-.99Z"/>
          </g>
        </g>
        <g>
          <g>
            <rect class="cls-1" x="9.1" y="45.1" width="9" height="9"/>
            <path class="cls-2" d="M18.2,54.2h-9.2v-9.2h9.2v9.2ZM9.2,54h8.8v-8.8h-8.8v8.8Z"/>
          </g>
          <polygon class="cls-2" points="16.81 52.48 10.76 52.48 10.76 47.7 15.46 47.7 15.46 51.09 11.74 51.09 11.74 48.75 14.41 48.75 14.41 50 12.91 50 12.91 49.8 14.21 49.8 14.21 48.95 11.94 48.95 11.94 50.89 15.26 50.89 15.26 47.9 10.96 47.9 10.96 52.27 16.61 52.27 16.61 46.7 9.1 46.7 9.1 46.5 16.81 46.5 16.81 52.48"/>
        </g>
        <g>
          <g>
            <circle class="cls-4" cx="22.6" cy="49.6" r="4.5"/>
            <path class="cls-2" d="M22.6,54.2c-2.54,0-4.6-2.06-4.6-4.6s2.06-4.6,4.6-4.6,4.6,2.06,4.6,4.6-2.06,4.6-4.6,4.6ZM22.6,45.2c-2.43,0-4.4,1.97-4.4,4.4s1.97,4.4,4.4,4.4,4.4-1.97,4.4-4.4-1.97-4.4-4.4-4.4Z"/>
          </g>
          <g>
            <circle class="cls-3" cx="22.6" cy="49.6" r="1.09"/>
            <path class="cls-2" d="M22.6,50.79c-.66,0-1.19-.54-1.19-1.19s.54-1.19,1.19-1.19,1.19.54,1.19,1.19-.54,1.19-1.19,1.19ZM22.6,48.61c-.55,0-.99.45-.99.99s.45.99.99.99.99-.45.99-.99-.45-.99-.99-.99Z"/>
          </g>
        </g>
        <g>
          <g>
            <rect class="cls-1" x="27.1" y="45.1" width="9" height="9"/>
            <path class="cls-2" d="M36.2,54.2h-9.2v-9.2h9.2v9.2ZM27.2,54h8.8v-8.8h-8.8v8.8Z"/>
          </g>
          <polygon class="cls-2" points="34.81 52.48 28.76 52.48 28.76 47.7 33.46 47.7 33.46 51.09 29.74 51.09 29.74 48.75 32.41 48.75 32.41 50 30.91 50 30.91 49.8 32.21 49.8 32.21 48.95 29.94 48.95 29.94 50.89 33.26 50.89 33.26 47.9 28.96 47.9 28.96 52.27 34.61 52.27 34.61 46.7 27.1 46.7 27.1 46.5 34.81 46.5 34.81 52.48"/>
        </g>
        <g>
          <g>
            <circle class="cls-4" cx="40.6" cy="49.6" r="4.5"/>
            <path class="cls-2" d="M40.6,54.2c-2.54,0-4.6-2.06-4.6-4.6s2.06-4.6,4.6-4.6,4.6,2.06,4.6,4.6-2.06,4.6-4.6,4.6ZM40.6,45.2c-2.43,0-4.4,1.97-4.4,4.4s1.97,4.4,4.4,4.4,4.4-1.97,4.4-4.4-1.97-4.4-4.4-4.4Z"/>
          </g>
          <g>
            <circle class="cls-3" cx="40.6" cy="49.6" r="1.09"/>
            <path class="cls-2" d="M40.6,50.79c-.66,0-1.19-.54-1.19-1.19s.54-1.19,1.19-1.19,1.19.54,1.19,1.19-.54,1.19-1.19,1.19ZM40.6,48.61c-.55,0-.99.45-.99.99s.45.99.99.99.99-.45.99-.99-.45-.99-.99-.99Z"/>
          </g>
        </g>
        <g>
          <g>
            <rect class="cls-1" x="45.1" y="45.1" width="9" height="9"/>
            <path class="cls-2" d="M54.2,54.2h-9.2v-9.2h9.2v9.2ZM45.2,54h8.8v-8.8h-8.8v8.8Z"/>
          </g>
          <polygon class="cls-2" points="52.81 52.48 46.76 52.48 46.76 47.7 51.46 47.7 51.46 51.09 47.74 51.09 47.74 48.75 50.41 48.75 50.41 50 48.91 50 48.91 49.8 50.21 49.8 50.21 48.95 47.94 48.95 47.94 50.89 51.26 50.89 51.26 47.9 46.96 47.9 46.96 52.27 52.61 52.27 52.61 46.7 45.1 46.7 45.1 46.5 52.81 46.5 52.81 52.48"/>
        </g>
        <g>
          <g>
            <circle class="cls-4" cx="58.6" cy="49.6" r="4.5"/>
            <path class="cls-2" d="M58.6,54.2c-2.54,0-4.6-2.06-4.6-4.6s2.06-4.6,4.6-4.6,4.6,2.06,4.6,4.6-2.06,4.6-4.6,4.6ZM58.6,45.2c-2.43,0-4.4,1.97-4.4,4.4s1.97,4.4,4.4,4.4,4.4-1.97,4.4-4.4-1.97-4.4-4.4-4.4Z"/>
          </g>
          <g>
            <circle class="cls-3" cx="58.6" cy="49.6" r="1.09"/>
            <path class="cls-2" d="M58.6,50.79c-.66,0-1.19-.54-1.19-1.19s.54-1.19,1.19-1.19,1.19.54,1.19,1.19-.54,1.19-1.19,1.19ZM58.6,48.61c-.55,0-.99.45-.99.99s.45.99.99.99.99-.45.99-.99-.45-.99-.99-.99Z"/>
          </g>
        </g>
        <g>
          <g>
            <rect class="cls-1" x="63.1" y="45.1" width="9" height="9"/>
            <path class="cls-2" d="M72.2,54.2h-9.2v-9.2h9.2v9.2ZM63.2,54h8.8v-8.8h-8.8v8.8Z"/>
          </g>
          <polygon class="cls-2" points="70.81 52.48 64.76 52.48 64.76 47.7 69.46 47.7 69.46 51.09 65.74 51.09 65.74 48.75 68.41 48.75 68.41 50 66.91 50 66.91 49.8 68.21 49.8 68.21 48.95 65.94 48.95 65.94 50.89 69.26 50.89 69.26 47.9 64.96 47.9 64.96 52.27 70.61 52.27 70.61 46.7 63.1 46.7 63.1 46.5 70.81 46.5 70.81 52.48"/>
        </g>
        <g>
          <g>
            <circle class="cls-4" cx="76.6" cy="49.6" r="4.5"/>
            <path class="cls-2" d="M76.6,54.2c-2.54,0-4.6-2.06-4.6-4.6s2.06-4.6,4.6-4.6,4.6,2.06,4.6,4.6-2.06,4.6-4.6,4.6ZM76.6,45.2c-2.43,0-4.4,1.97-4.4,4.4s1.97,4.4,4.4,4.4,4.4-1.97,4.4-4.4-1.97-4.4-4.4-4.4Z"/>
          </g>
          <g>
            <circle class="cls-3" cx="76.6" cy="49.6" r="1.09"/>
            <path class="cls-2" d="M76.6,50.79c-.66,0-1.19-.54-1.19-1.19s.54-1.19,1.19-1.19,1.19.54,1.19,1.19-.54,1.19-1.19,1.19ZM76.6,48.61c-.55,0-.99.45-.99.99s.45.99.99.99.99-.45.99-.99-.45-.99-.99-.99Z"/>
          </g>
        </g>
        <g>
          <g>
            <rect class="cls-1" x="81.1" y="45.1" width="9" height="9"/>
            <path class="cls-2" d="M90.2,54.2h-9.2v-9.2h9.2v9.2ZM81.2,54h8.8v-8.8h-8.8v8.8Z"/>
          </g>
          <polygon class="cls-2" points="88.81 52.48 82.76 52.48 82.76 47.7 87.46 47.7 87.46 51.09 83.74 51.09 83.74 48.75 86.41 48.75 86.41 50 84.91 50 84.91 49.8 86.21 49.8 86.21 48.95 83.94 48.95 83.94 50.89 87.26 50.89 87.26 47.9 82.96 47.9 82.96 52.27 88.61 52.27 88.61 46.7 81.1 46.7 81.1 46.5 88.81 46.5 88.81 52.48"/>
        </g>
        <g>
          <g>
            <rect class="cls-1" x=".1" y="54.1" width="9" height="9"/>
            <path class="cls-2" d="M9.2,63.2H0v-9.2h9.2v9.2ZM.2,63h8.8v-8.8H.2v8.8Z"/>
          </g>
          <polygon class="cls-2" points="7.81 61.48 1.76 61.48 1.76 56.7 6.46 56.7 6.46 60.09 2.74 60.09 2.74 57.75 5.41 57.75 5.41 59 3.91 59 3.91 58.8 5.21 58.8 5.21 57.95 2.94 57.95 2.94 59.89 6.26 59.89 6.26 56.9 1.96 56.9 1.96 61.27 7.61 61.27 7.61 55.7 .1 55.7 .1 55.5 7.81 55.5 7.81 61.48"/>
        </g>
        <g>
          <g>
            <circle class="cls-4" cx="13.6" cy="58.6" r="4.5"/>
            <path class="cls-2" d="M13.6,63.2c-2.54,0-4.6-2.06-4.6-4.6s2.06-4.6,4.6-4.6,4.6,2.06,4.6,4.6-2.06,4.6-4.6,4.6ZM13.6,54.2c-2.43,0-4.4,1.97-4.4,4.4s1.97,4.4,4.4,4.4,4.4-1.97,4.4-4.4-1.97-4.4-4.4-4.4Z"/>
          </g>
          <g>
            <circle class="cls-3" cx="13.6" cy="58.6" r="1.09"/>
            <path class="cls-2" d="M13.6,59.79c-.66,0-1.19-.54-1.19-1.19s.54-1.19,1.19-1.19,1.19.54,1.19,1.19-.54,1.19-1.19,1.19ZM13.6,57.61c-.55,0-.99.45-.99.99s.45.99.99.99.99-.45.99-.99-.45-.99-.99-.99Z"/>
          </g>
        </g>
        <g>
          <g>
            <rect class="cls-1" x="18.1" y="54.1" width="9" height="9"/>
            <path class="cls-2" d="M27.2,63.2h-9.2v-9.2h9.2v9.2ZM18.2,63h8.8v-8.8h-8.8v8.8Z"/>
          </g>
          <polygon class="cls-2" points="25.81 61.48 19.76 61.48 19.76 56.7 24.46 56.7 24.46 60.09 20.74 60.09 20.74 57.75 23.41 57.75 23.41 59 21.91 59 21.91 58.8 23.21 58.8 23.21 57.95 20.94 57.95 20.94 59.89 24.26 59.89 24.26 56.9 19.96 56.9 19.96 61.27 25.61 61.27 25.61 55.7 18.1 55.7 18.1 55.5 25.81 55.5 25.81 61.48"/>
        </g>
        <g>
          <g>
            <circle class="cls-4" cx="31.6" cy="58.6" r="4.5"/>
            <path class="cls-2" d="M31.6,63.2c-2.54,0-4.6-2.06-4.6-4.6s2.06-4.6,4.6-4.6,4.6,2.06,4.6,4.6-2.06,4.6-4.6,4.6ZM31.6,54.2c-2.43,0-4.4,1.97-4.4,4.4s1.97,4.4,4.4,4.4,4.4-1.97,4.4-4.4-1.97-4.4-4.4-4.4Z"/>
          </g>
          <g>
            <circle class="cls-3" cx="31.6" cy="58.6" r="1.09"/>
            <path class="cls-2" d="M31.6,59.79c-.66,0-1.19-.54-1.19-1.19s.54-1.19,1.19-1.19,1.19.54,1.19,1.19-.54,1.19-1.19,1.19ZM31.6,57.61c-.55,0-.99.45-.99.99s.45.99.99.99.99-.45.99-.99-.45-.99-.99-.99Z"/>
          </g>
        </g>
        <g>
          <g>
            <rect class="cls-1" x="36.1" y="54.1" width="9" height="9"/>
            <path class="cls-2" d="M45.2,63.2h-9.2v-9.2h9.2v9.2ZM36.2,63h8.8v-8.8h-8.8v8.8Z"/>
          </g>
          <polygon class="cls-2" points="43.81 61.48 37.76 61.48 37.76 56.7 42.46 56.7 42.46 60.09 38.74 60.09 38.74 57.75 41.41 57.75 41.41 59 39.91 59 39.91 58.8 41.21 58.8 41.21 57.95 38.94 57.95 38.94 59.89 42.26 59.89 42.26 56.9 37.96 56.9 37.96 61.27 43.61 61.27 43.61 55.7 36.1 55.7 36.1 55.5 43.81 55.5 43.81 61.48"/>
        </g>
        <g>
          <g>
            <circle class="cls-4" cx="49.6" cy="58.6" r="4.5"/>
            <path class="cls-2" d="M49.6,63.2c-2.54,0-4.6-2.06-4.6-4.6s2.06-4.6,4.6-4.6,4.6,2.06,4.6,4.6-2.06,4.6-4.6,4.6ZM49.6,54.2c-2.43,0-4.4,1.97-4.4,4.4s1.97,4.4,4.4,4.4,4.4-1.97,4.4-4.4-1.97-4.4-4.4-4.4Z"/>
          </g>
          <g>
            <circle class="cls-3" cx="49.6" cy="58.6" r="1.09"/>
            <path class="cls-2" d="M49.6,59.79c-.66,0-1.19-.54-1.19-1.19s.54-1.19,1.19-1.19,1.19.54,1.19,1.19-.54,1.19-1.19,1.19ZM49.6,57.61c-.55,0-.99.45-.99.99s.45.99.99.99.99-.45.99-.99-.45-.99-.99-.99Z"/>
          </g>
        </g>
        <g>
          <g>
            <rect class="cls-1" x="54.1" y="54.1" width="9" height="9"/>
            <path class="cls-2" d="M63.2,63.2h-9.2v-9.2h9.2v9.2ZM54.2,63h8.8v-8.8h-8.8v8.8Z"/>
          </g>
          <polygon class="cls-2" points="61.81 61.48 55.76 61.48 55.76 56.7 60.46 56.7 60.46 60.09 56.74 60.09 56.74 57.75 59.41 57.75 59.41 59 57.91 59 57.91 58.8 59.21 58.8 59.21 57.95 56.94 57.95 56.94 59.89 60.26 59.89 60.26 56.9 55.96 56.9 55.96 61.27 61.61 61.27 61.61 55.7 54.1 55.7 54.1 55.5 61.81 55.5 61.81 61.48"/>
        </g>
        <g>
          <g>
            <circle class="cls-4" cx="67.6" cy="58.6" r="4.5"/>
            <path class="cls-2" d="M67.6,63.2c-2.54,0-4.6-2.06-4.6-4.6s2.06-4.6,4.6-4.6,4.6,2.06,4.6,4.6-2.06,4.6-4.6,4.6ZM67.6,54.2c-2.43,0-4.4,1.97-4.4,4.4s1.97,4.4,4.4,4.4,4.4-1.97,4.4-4.4-1.97-4.4-4.4-4.4Z"/>
          </g>
          <g>
            <circle class="cls-3" cx="67.6" cy="58.6" r="1.09"/>
            <path class="cls-2" d="M67.6,59.79c-.66,0-1.19-.54-1.19-1.19s.54-1.19,1.19-1.19,1.19.54,1.19,1.19-.54,1.19-1.19,1.19ZM67.6,57.61c-.55,0-.99.45-.99.99s.45.99.99.99.99-.45.99-.99-.45-.99-.99-.99Z"/>
          </g>
        </g>
        <g>
          <g>
            <rect class="cls-1" x="72.1" y="54.1" width="9" height="9"/>
            <path class="cls-2" d="M81.2,63.2h-9.2v-9.2h9.2v9.2ZM72.2,63h8.8v-8.8h-8.8v8.8Z"/>
          </g>
          <polygon class="cls-2" points="79.81 61.48 73.76 61.48 73.76 56.7 78.46 56.7 78.46 60.09 74.74 60.09 74.74 57.75 77.41 57.75 77.41 59 75.91 59 75.91 58.8 77.21 58.8 77.21 57.95 74.94 57.95 74.94 59.89 78.26 59.89 78.26 56.9 73.96 56.9 73.96 61.27 79.61 61.27 79.61 55.7 72.1 55.7 72.1 55.5 79.81 55.5 79.81 61.48"/>
        </g>
        <g>
          <g>
            <circle class="cls-4" cx="85.6" cy="58.6" r="4.5"/>
            <path class="cls-2" d="M85.6,63.2c-2.54,0-4.6-2.06-4.6-4.6s2.06-4.6,4.6-4.6,4.6,2.06,4.6,4.6-2.06,4.6-4.6,4.6ZM85.6,54.2c-2.43,0-4.4,1.97-4.4,4.4s1.97,4.4,4.4,4.4,4.4-1.97,4.4-4.4-1.97-4.4-4.4-4.4Z"/>
          </g>
          <g>
            <circle class="cls-3" cx="85.6" cy="58.6" r="1.09"/>
            <path class="cls-2" d="M85.6,59.79c-.66,0-1.19-.54-1.19-1.19s.54-1.19,1.19-1.19,1.19.54,1.19,1.19-.54,1.19-1.19,1.19ZM85.6,57.61c-.55,0-.99.45-.99.99s.45.99.99.99.99-.45.99-.99-.45-.99-.99-.99Z"/>
          </g>
        </g>
        <g>
          <g>
            <circle class="cls-4" cx="4.6" cy="67.6" r="4.5"/>
            <path class="cls-2" d="M4.6,72.2c-2.54,0-4.6-2.06-4.6-4.6s2.06-4.6,4.6-4.6,4.6,2.06,4.6,4.6-2.06,4.6-4.6,4.6ZM4.6,63.2c-2.43,0-4.4,1.97-4.4,4.4s1.97,4.4,4.4,4.4,4.4-1.97,4.4-4.4-1.97-4.4-4.4-4.4Z"/>
          </g>
          <g>
            <circle class="cls-3" cx="4.6" cy="67.6" r="1.09"/>
            <path class="cls-2" d="M4.6,68.79c-.66,0-1.19-.54-1.19-1.19s.54-1.19,1.19-1.19,1.19.54,1.19,1.19-.54,1.19-1.19,1.19ZM4.6,66.61c-.55,0-.99.45-.99.99s.45.99.99.99.99-.45.99-.99-.45-.99-.99-.99Z"/>
          </g>
        </g>
        <g>
          <g>
            <rect class="cls-1" x="9.1" y="63.1" width="9" height="9"/>
            <path class="cls-2" d="M18.2,72.2h-9.2v-9.2h9.2v9.2ZM9.2,72h8.8v-8.8h-8.8v8.8Z"/>
          </g>
          <polygon class="cls-2" points="16.81 70.48 10.76 70.48 10.76 65.7 15.46 65.7 15.46 69.09 11.74 69.09 11.74 66.75 14.41 66.75 14.41 68 12.91 68 12.91 67.8 14.21 67.8 14.21 66.95 11.94 66.95 11.94 68.89 15.26 68.89 15.26 65.9 10.96 65.9 10.96 70.27 16.61 70.27 16.61 64.7 9.1 64.7 9.1 64.5 16.81 64.5 16.81 70.48"/>
        </g>
        <g>
          <g>
            <circle class="cls-4" cx="22.6" cy="67.6" r="4.5"/>
            <path class="cls-2" d="M22.6,72.2c-2.54,0-4.6-2.06-4.6-4.6s2.06-4.6,4.6-4.6,4.6,2.06,4.6,4.6-2.06,4.6-4.6,4.6ZM22.6,63.2c-2.43,0-4.4,1.97-4.4,4.4s1.97,4.4,4.4,4.4,4.4-1.97,4.4-4.4-1.97-4.4-4.4-4.4Z"/>
          </g>
          <g>
            <circle class="cls-3" cx="22.6" cy="67.6" r="1.09"/>
            <path class="cls-2" d="M22.6,68.79c-.66,0-1.19-.54-1.19-1.19s.54-1.19,1.19-1.19,1.19.54,1.19,1.19-.54,1.19-1.19,1.19ZM22.6,66.61c-.55,0-.99.45-.99.99s.45.99.99.99.99-.45.99-.99-.45-.99-.99-.99Z"/>
          </g>
        </g>
        <g>
          <g>
            <rect class="cls-1" x="27.1" y="63.1" width="9" height="9"/>
            <path class="cls-2" d="M36.2,72.2h-9.2v-9.2h9.2v9.2ZM27.2,72h8.8v-8.8h-8.8v8.8Z"/>
          </g>
          <polygon class="cls-2" points="34.81 70.48 28.76 70.48 28.76 65.7 33.46 65.7 33.46 69.09 29.74 69.09 29.74 66.75 32.41 66.75 32.41 68 30.91 68 30.91 67.8 32.21 67.8 32.21 66.95 29.94 66.95 29.94 68.89 33.26 68.89 33.26 65.9 28.96 65.9 28.96 70.27 34.61 70.27 34.61 64.7 27.1 64.7 27.1 64.5 34.81 64.5 34.81 70.48"/>
        </g>
        <g>
          <g>
            <circle class="cls-4" cx="40.6" cy="67.6" r="4.5"/>
            <path class="cls-2" d="M40.6,72.2c-2.54,0-4.6-2.06-4.6-4.6s2.06-4.6,4.6-4.6,4.6,2.06,4.6,4.6-2.06,4.6-4.6,4.6ZM40.6,63.2c-2.43,0-4.4,1.97-4.4,4.4s1.97,4.4,4.4,4.4,4.4-1.97,4.4-4.4-1.97-4.4-4.4-4.4Z"/>
          </g>
          <g>
            <circle class="cls-3" cx="40.6" cy="67.6" r="1.09"/>
            <path class="cls-2" d="M40.6,68.79c-.66,0-1.19-.54-1.19-1.19s.54-1.19,1.19-1.19,1.19.54,1.19,1.19-.54,1.19-1.19,1.19ZM40.6,66.61c-.55,0-.99.45-.99.99s.45.99.99.99.99-.45.99-.99-.45-.99-.99-.99Z"/>
          </g>
        </g>
        <g>
          <g>
            <rect class="cls-1" x="45.1" y="63.1" width="9" height="9"/>
            <path class="cls-2" d="M54.2,72.2h-9.2v-9.2h9.2v9.2ZM45.2,72h8.8v-8.8h-8.8v8.8Z"/>
          </g>
          <polygon class="cls-2" points="52.81 70.48 46.76 70.48 46.76 65.7 51.46 65.7 51.46 69.09 47.74 69.09 47.74 66.75 50.41 66.75 50.41 68 48.91 68 48.91 67.8 50.21 67.8 50.21 66.95 47.94 66.95 47.94 68.89 51.26 68.89 51.26 65.9 46.96 65.9 46.96 70.27 52.61 70.27 52.61 64.7 45.1 64.7 45.1 64.5 52.81 64.5 52.81 70.48"/>
        </g>
        <g>
          <g>
            <circle class="cls-4" cx="58.6" cy="67.6" r="4.5"/>
            <path class="cls-2" d="M58.6,72.2c-2.54,0-4.6-2.06-4.6-4.6s2.06-4.6,4.6-4.6,4.6,2.06,4.6,4.6-2.06,4.6-4.6,4.6ZM58.6,63.2c-2.43,0-4.4,1.97-4.4,4.4s1.97,4.4,4.4,4.4,4.4-1.97,4.4-4.4-1.97-4.4-4.4-4.4Z"/>
          </g>
          <g>
            <circle class="cls-3" cx="58.6" cy="67.6" r="1.09"/>
            <path class="cls-2" d="M58.6,68.79c-.66,0-1.19-.54-1.19-1.19s.54-1.19,1.19-1.19,1.19.54,1.19,1.19-.54,1.19-1.19,1.19ZM58.6,66.61c-.55,0-.99.45-.99.99s.45.99.99.99.99-.45.99-.99-.45-.99-.99-.99Z"/>
          </g>
        </g>
        <g>
          <g>
            <rect class="cls-1" x="63.1" y="63.1" width="9" height="9"/>
            <path class="cls-2" d="M72.2,72.2h-9.2v-9.2h9.2v9.2ZM63.2,72h8.8v-8.8h-8.8v8.8Z"/>
          </g>
          <polygon class="cls-2" points="70.81 70.48 64.76 70.48 64.76 65.7 69.46 65.7 69.46 69.09 65.74 69.09 65.74 66.75 68.41 66.75 68.41 68 66.91 68 66.91 67.8 68.21 67.8 68.21 66.95 65.94 66.95 65.94 68.89 69.26 68.89 69.26 65.9 64.96 65.9 64.96 70.27 70.61 70.27 70.61 64.7 63.1 64.7 63.1 64.5 70.81 64.5 70.81 70.48"/>
        </g>
        <g>
          <g>
            <circle class="cls-4" cx="76.6" cy="67.6" r="4.5"/>
            <path class="cls-2" d="M76.6,72.2c-2.54,0-4.6-2.06-4.6-4.6s2.06-4.6,4.6-4.6,4.6,2.06,4.6,4.6-2.06,4.6-4.6,4.6ZM76.6,63.2c-2.43,0-4.4,1.97-4.4,4.4s1.97,4.4,4.4,4.4,4.4-1.97,4.4-4.4-1.97-4.4-4.4-4.4Z"/>
          </g>
          <g>
            <circle class="cls-3" cx="76.6" cy="67.6" r="1.09"/>
            <path class="cls-2" d="M76.6,68.79c-.66,0-1.19-.54-1.19-1.19s.54-1.19,1.19-1.19,1.19.54,1.19,1.19-.54,1.19-1.19,1.19ZM76.6,66.61c-.55,0-.99.45-.99.99s.45.99.99.99.99-.45.99-.99-.45-.99-.99-.99Z"/>
          </g>
        </g>
        <g>
          <g>
            <rect class="cls-1" x="81.1" y="63.1" width="9" height="9"/>
            <path class="cls-2" d="M90.2,72.2h-9.2v-9.2h9.2v9.2ZM81.2,72h8.8v-8.8h-8.8v8.8Z"/>
          </g>
          <polygon class="cls-2" points="88.81 70.48 82.76 70.48 82.76 65.7 87.46 65.7 87.46 69.09 83.74 69.09 83.74 66.75 86.41 66.75 86.41 68 84.91 68 84.91 67.8 86.21 67.8 86.21 66.95 83.94 66.95 83.94 68.89 87.26 68.89 87.26 65.9 82.96 65.9 82.96 70.27 88.61 70.27 88.61 64.7 81.1 64.7 81.1 64.5 88.81 64.5 88.81 70.48"/>
        </g>
        <g>
          <g>
            <rect class="cls-1" x=".1" y="72.1" width="9" height="9"/>
            <path class="cls-2" d="M9.2,81.2H0v-9.2h9.2v9.2ZM.2,81h8.8v-8.8H.2v8.8Z"/>
          </g>
          <polygon class="cls-2" points="7.81 79.48 1.76 79.48 1.76 74.7 6.46 74.7 6.46 78.09 2.74 78.09 2.74 75.75 5.41 75.75 5.41 77 3.91 77 3.91 76.8 5.21 76.8 5.21 75.95 2.94 75.95 2.94 77.89 6.26 77.89 6.26 74.9 1.96 74.9 1.96 79.27 7.61 79.27 7.61 73.7 .1 73.7 .1 73.5 7.81 73.5 7.81 79.48"/>
        </g>
        <g>
          <g>
            <circle class="cls-4" cx="13.6" cy="76.6" r="4.5"/>
            <path class="cls-2" d="M13.6,81.2c-2.54,0-4.6-2.06-4.6-4.6s2.06-4.6,4.6-4.6,4.6,2.06,4.6,4.6-2.06,4.6-4.6,4.6ZM13.6,72.2c-2.43,0-4.4,1.97-4.4,4.4s1.97,4.4,4.4,4.4,4.4-1.97,4.4-4.4-1.97-4.4-4.4-4.4Z"/>
          </g>
          <g>
            <circle class="cls-3" cx="13.6" cy="76.6" r="1.09"/>
            <path class="cls-2" d="M13.6,77.79c-.66,0-1.19-.54-1.19-1.19s.54-1.19,1.19-1.19,1.19.54,1.19,1.19-.54,1.19-1.19,1.19ZM13.6,75.61c-.55,0-.99.45-.99.99s.45.99.99.99.99-.45.99-.99-.45-.99-.99-.99Z"/>
          </g>
        </g>
        <g>
          <g>
            <rect class="cls-1" x="18.1" y="72.1" width="9" height="9"/>
            <path class="cls-2" d="M27.2,81.2h-9.2v-9.2h9.2v9.2ZM18.2,81h8.8v-8.8h-8.8v8.8Z"/>
          </g>
          <polygon class="cls-2" points="25.81 79.48 19.76 79.48 19.76 74.7 24.46 74.7 24.46 78.09 20.74 78.09 20.74 75.75 23.41 75.75 23.41 77 21.91 77 21.91 76.8 23.21 76.8 23.21 75.95 20.94 75.95 20.94 77.89 24.26 77.89 24.26 74.9 19.96 74.9 19.96 79.27 25.61 79.27 25.61 73.7 18.1 73.7 18.1 73.5 25.81 73.5 25.81 79.48"/>
        </g>
        <g>
          <g>
            <circle class="cls-4" cx="31.6" cy="76.6" r="4.5"/>
            <path class="cls-2" d="M31.6,81.2c-2.54,0-4.6-2.06-4.6-4.6s2.06-4.6,4.6-4.6,4.6,2.06,4.6,4.6-2.06,4.6-4.6,4.6ZM31.6,72.2c-2.43,0-4.4,1.97-4.4,4.4s1.97,4.4,4.4,4.4,4.4-1.97,4.4-4.4-1.97-4.4-4.4-4.4Z"/>
          </g>
          <g>
            <circle class="cls-3" cx="31.6" cy="76.6" r="1.09"/>
            <path class="cls-2" d="M31.6,77.79c-.66,0-1.19-.54-1.19-1.19s.54-1.19,1.19-1.19,1.19.54,1.19,1.19-.54,1.19-1.19,1.19ZM31.6,75.61c-.55,0-.99.45-.99.99s.45.99.99.99.99-.45.99-.99-.45-.99-.99-.99Z"/>
          </g>
        </g>
        <g>
          <g>
            <rect class="cls-1" x="36.1" y="72.1" width="9" height="9"/>
            <path class="cls-2" d="M45.2,81.2h-9.2v-9.2h9.2v9.2ZM36.2,81h8.8v-8.8h-8.8v8.8Z"/>
          </g>
          <polygon class="cls-2" points="43.81 79.48 37.76 79.48 37.76 74.7 42.46 74.7 42.46 78.09 38.74 78.09 38.74 75.75 41.41 75.75 41.41 77 39.91 77 39.91 76.8 41.21 76.8 41.21 75.95 38.94 75.95 38.94 77.89 42.26 77.89 42.26 74.9 37.96 74.9 37.96 79.27 43.61 79.27 43.61 73.7 36.1 73.7 36.1 73.5 43.81 73.5 43.81 79.48"/>
        </g>
        <g>
          <g>
            <circle class="cls-4" cx="49.6" cy="76.6" r="4.5"/>
            <path class="cls-2" d="M49.6,81.2c-2.54,0-4.6-2.06-4.6-4.6s2.06-4.6,4.6-4.6,4.6,2.06,4.6,4.6-2.06,4.6-4.6,4.6ZM49.6,72.2c-2.43,0-4.4,1.97-4.4,4.4s1.97,4.4,4.4,4.4,4.4-1.97,4.4-4.4-1.97-4.4-4.4-4.4Z"/>
          </g>
          <g>
            <circle class="cls-3" cx="49.6" cy="76.6" r="1.09"/>
            <path class="cls-2" d="M49.6,77.79c-.66,0-1.19-.54-1.19-1.19s.54-1.19,1.19-1.19,1.19.54,1.19,1.19-.54,1.19-1.19,1.19ZM49.6,75.61c-.55,0-.99.45-.99.99s.45.99.99.99.99-.45.99-.99-.45-.99-.99-.99Z"/>
          </g>
        </g>
        <g>
          <g>
            <rect class="cls-1" x="54.1" y="72.1" width="9" height="9"/>
            <path class="cls-2" d="M63.2,81.2h-9.2v-9.2h9.2v9.2ZM54.2,81h8.8v-8.8h-8.8v8.8Z"/>
          </g>
          <polygon class="cls-2" points="61.81 79.48 55.76 79.48 55.76 74.7 60.46 74.7 60.46 78.09 56.74 78.09 56.74 75.75 59.41 75.75 59.41 77 57.91 77 57.91 76.8 59.21 76.8 59.21 75.95 56.94 75.95 56.94 77.89 60.26 77.89 60.26 74.9 55.96 74.9 55.96 79.27 61.61 79.27 61.61 73.7 54.1 73.7 54.1 73.5 61.81 73.5 61.81 79.48"/>
        </g>
        <g>
          <g>
            <circle class="cls-4" cx="67.6" cy="76.6" r="4.5"/>
            <path class="cls-2" d="M67.6,81.2c-2.54,0-4.6-2.06-4.6-4.6s2.06-4.6,4.6-4.6,4.6,2.06,4.6,4.6-2.06,4.6-4.6,4.6ZM67.6,72.2c-2.43,0-4.4,1.97-4.4,4.4s1.97,4.4,4.4,4.4,4.4-1.97,4.4-4.4-1.97-4.4-4.4-4.4Z"/>
          </g>
          <g>
            <circle class="cls-3" cx="67.6" cy="76.6" r="1.09"/>
            <path class="cls-2" d="M67.6,77.79c-.66,0-1.19-.54-1.19-1.19s.54-1.19,1.19-1.19,1.19.54,1.19,1.19-.54,1.19-1.19,1.19ZM67.6,75.61c-.55,0-.99.45-.99.99s.45.99.99.99.99-.45.99-.99-.45-.99-.99-.99Z"/>
          </g>
        </g>
        <g>
          <g>
            <rect class="cls-1" x="72.1" y="72.1" width="9" height="9"/>
            <path class="cls-2" d="M81.2,81.2h-9.2v-9.2h9.2v9.2ZM72.2,81h8.8v-8.8h-8.8v8.8Z"/>
          </g>
          <polygon class="cls-2" points="79.81 79.48 73.76 79.48 73.76 74.7 78.46 74.7 78.46 78.09 74.74 78.09 74.74 75.75 77.41 75.75 77.41 77 75.91 77 75.91 76.8 77.21 76.8 77.21 75.95 74.94 75.95 74.94 77.89 78.26 77.89 78.26 74.9 73.96 74.9 73.96 79.27 79.61 79.27 79.61 73.7 72.1 73.7 72.1 73.5 79.81 73.5 79.81 79.48"/>
        </g>
        <g>
          <g>
            <circle class="cls-4" cx="85.6" cy="76.6" r="4.5"/>
            <path class="cls-2" d="M85.6,81.2c-2.54,0-4.6-2.06-4.6-4.6s2.06-4.6,4.6-4.6,4.6,2.06,4.6,4.6-2.06,4.6-4.6,4.6ZM85.6,72.2c-2.43,0-4.4,1.97-4.4,4.4s1.97,4.4,4.4,4.4,4.4-1.97,4.4-4.4-1.97-4.4-4.4-4.4Z"/>
          </g>
          <g>
            <circle class="cls-3" cx="85.6" cy="76.6" r="1.09"/>
            <path class="cls-2" d="M85.6,77.79c-.66,0-1.19-.54-1.19-1.19s.54-1.19,1.19-1.19,1.19.54,1.19,1.19-.54,1.19-1.19,1.19ZM85.6,75.61c-.55,0-.99.45-.99.99s.45.99.99.99.99-.45.99-.99-.45-.99-.99-.99Z"/>
          </g>
        </g>
        <g>
          <g>
            <circle class="cls-4" cx="4.6" cy="85.6" r="4.5"/>
            <path class="cls-2" d="M4.6,90.2c-2.54,0-4.6-2.06-4.6-4.6s2.06-4.6,4.6-4.6,4.6,2.06,4.6,4.6-2.06,4.6-4.6,4.6ZM4.6,81.2c-2.43,0-4.4,1.97-4.4,4.4s1.97,4.4,4.4,4.4,4.4-1.97,4.4-4.4-1.97-4.4-4.4-4.4Z"/>
          </g>
          <g>
            <circle class="cls-3" cx="4.6" cy="85.6" r="1.09"/>
            <path class="cls-2" d="M4.6,86.79c-.66,0-1.19-.54-1.19-1.19s.54-1.19,1.19-1.19,1.19.54,1.19,1.19-.54,1.19-1.19,1.19ZM4.6,84.61c-.55,0-.99.45-.99.99s.45.99.99.99.99-.45.99-.99-.45-.99-.99-.99Z"/>
          </g>
        </g>
        <g>
          <g>
            <rect class="cls-1" x="9.1" y="81.1" width="9" height="9"/>
            <path class="cls-2" d="M18.2,90.2h-9.2v-9.2h9.2v9.2ZM9.2,90h8.8v-8.8h-8.8v8.8Z"/>
          </g>
          <polygon class="cls-2" points="16.81 88.48 10.76 88.48 10.76 83.7 15.46 83.7 15.46 87.09 11.74 87.09 11.74 84.75 14.41 84.75 14.41 86 12.91 86 12.91 85.8 14.21 85.8 14.21 84.95 11.94 84.95 11.94 86.89 15.26 86.89 15.26 83.9 10.96 83.9 10.96 88.27 16.61 88.27 16.61 82.7 9.1 82.7 9.1 82.5 16.81 82.5 16.81 88.48"/>
        </g>
        <g>
          <g>
            <circle class="cls-4" cx="22.6" cy="85.6" r="4.5"/>
            <path class="cls-2" d="M22.6,90.2c-2.54,0-4.6-2.06-4.6-4.6s2.06-4.6,4.6-4.6,4.6,2.06,4.6,4.6-2.06,4.6-4.6,4.6ZM22.6,81.2c-2.43,0-4.4,1.97-4.4,4.4s1.97,4.4,4.4,4.4,4.4-1.97,4.4-4.4-1.97-4.4-4.4-4.4Z"/>
          </g>
          <g>
            <circle class="cls-3" cx="22.6" cy="85.6" r="1.09"/>
            <path class="cls-2" d="M22.6,86.79c-.66,0-1.19-.54-1.19-1.19s.54-1.19,1.19-1.19,1.19.54,1.19,1.19-.54,1.19-1.19,1.19ZM22.6,84.61c-.55,0-.99.45-.99.99s.45.99.99.99.99-.45.99-.99-.45-.99-.99-.99Z"/>
          </g>
        </g>
        <g>
          <g>
            <rect class="cls-1" x="27.1" y="81.1" width="9" height="9"/>
            <path class="cls-2" d="M36.2,90.2h-9.2v-9.2h9.2v9.2ZM27.2,90h8.8v-8.8h-8.8v8.8Z"/>
          </g>
          <polygon class="cls-2" points="34.81 88.48 28.76 88.48 28.76 83.7 33.46 83.7 33.46 87.09 29.74 87.09 29.74 84.75 32.41 84.75 32.41 86 30.91 86 30.91 85.8 32.21 85.8 32.21 84.95 29.94 84.95 29.94 86.89 33.26 86.89 33.26 83.9 28.96 83.9 28.96 88.27 34.61 88.27 34.61 82.7 27.1 82.7 27.1 82.5 34.81 82.5 34.81 88.48"/>
        </g>
        <g>
          <g>
            <circle class="cls-4" cx="40.6" cy="85.6" r="4.5"/>
            <path class="cls-2" d="M40.6,90.2c-2.54,0-4.6-2.06-4.6-4.6s2.06-4.6,4.6-4.6,4.6,2.06,4.6,4.6-2.06,4.6-4.6,4.6ZM40.6,81.2c-2.43,0-4.4,1.97-4.4,4.4s1.97,4.4,4.4,4.4,4.4-1.97,4.4-4.4-1.97-4.4-4.4-4.4Z"/>
          </g>
          <g>
            <circle class="cls-3" cx="40.6" cy="85.6" r="1.09"/>
            <path class="cls-2" d="M40.6,86.79c-.66,0-1.19-.54-1.19-1.19s.54-1.19,1.19-1.19,1.19.54,1.19,1.19-.54,1.19-1.19,1.19ZM40.6,84.61c-.55,0-.99.45-.99.99s.45.99.99.99.99-.45.99-.99-.45-.99-.99-.99Z"/>
          </g>
        </g>
        <g>
          <g>
            <rect class="cls-1" x="45.1" y="81.1" width="9" height="9"/>
            <path class="cls-2" d="M54.2,90.2h-9.2v-9.2h9.2v9.2ZM45.2,90h8.8v-8.8h-8.8v8.8Z"/>
          </g>
          <polygon class="cls-2" points="52.81 88.48 46.76 88.48 46.76 83.7 51.46 83.7 51.46 87.09 47.74 87.09 47.74 84.75 50.41 84.75 50.41 86 48.91 86 48.91 85.8 50.21 85.8 50.21 84.95 47.94 84.95 47.94 86.89 51.26 86.89 51.26 83.9 46.96 83.9 46.96 88.27 52.61 88.27 52.61 82.7 45.1 82.7 45.1 82.5 52.81 82.5 52.81 88.48"/>
        </g>
        <g>
          <g>
            <circle class="cls-4" cx="58.6" cy="85.6" r="4.5"/>
            <path class="cls-2" d="M58.6,90.2c-2.54,0-4.6-2.06-4.6-4.6s2.06-4.6,4.6-4.6,4.6,2.06,4.6,4.6-2.06,4.6-4.6,4.6ZM58.6,81.2c-2.43,0-4.4,1.97-4.4,4.4s1.97,4.4,4.4,4.4,4.4-1.97,4.4-4.4-1.97-4.4-4.4-4.4Z"/>
          </g>
          <g>
            <circle class="cls-3" cx="58.6" cy="85.6" r="1.09"/>
            <path class="cls-2" d="M58.6,86.79c-.66,0-1.19-.54-1.19-1.19s.54-1.19,1.19-1.19,1.19.54,1.19,1.19-.54,1.19-1.19,1.19ZM58.6,84.61c-.55,0-.99.45-.99.99s.45.99.99.99.99-.45.99-.99-.45-.99-.99-.99Z"/>
          </g>
        </g>
        <g>
          <g>
            <rect class="cls-1" x="63.1" y="81.1" width="9" height="9"/>
            <path class="cls-2" d="M72.2,90.2h-9.2v-9.2h9.2v9.2ZM63.2,90h8.8v-8.8h-8.8v8.8Z"/>
          </g>
          <polygon class="cls-2" points="70.81 88.48 64.76 88.48 64.76 83.7 69.46 83.7 69.46 87.09 65.74 87.09 65.74 84.75 68.41 84.75 68.41 86 66.91 86 66.91 85.8 68.21 85.8 68.21 84.95 65.94 84.95 65.94 86.89 69.26 86.89 69.26 83.9 64.96 83.9 64.96 88.27 70.61 88.27 70.61 82.7 63.1 82.7 63.1 82.5 70.81 82.5 70.81 88.48"/>
        </g>
        <g>
          <g>
            <circle class="cls-4" cx="76.6" cy="85.6" r="4.5"/>
            <path class="cls-2" d="M76.6,90.2c-2.54,0-4.6-2.06-4.6-4.6s2.06-4.6,4.6-4.6,4.6,2.06,4.6,4.6-2.06,4.6-4.6,4.6ZM76.6,81.2c-2.43,0-4.4,1.97-4.4,4.4s1.97,4.4,4.4,4.4,4.4-1.97,4.4-4.4-1.97-4.4-4.4-4.4Z"/>
          </g>
          <g>
            <circle class="cls-3" cx="76.6" cy="85.6" r="1.09"/>
            <path class="cls-2" d="M76.6,86.79c-.66,0-1.19-.54-1.19-1.19s.54-1.19,1.19-1.19,1.19.54,1.19,1.19-.54,1.19-1.19,1.19ZM76.6,84.61c-.55,0-.99.45-.99.99s.45.99.99.99.99-.45.99-.99-.45-.99-.99-.99Z"/>
          </g>
        </g>
        <g>
          <g>
            <rect class="cls-1" x="81.1" y="81.1" width="9" height="9"/>
            <path class="cls-2" d="M90.2,90.2h-9.2v-9.2h9.2v9.2ZM81.2,90h8.8v-8.8h-8.8v8.8Z"/>
          </g>
          <polygon class="cls-2" points="88.81 88.48 82.76 88.48 82.76 83.7 87.46 83.7 87.46 87.09 83.74 87.09 83.74 84.75 86.41 84.75 86.41 86 84.91 86 84.91 85.8 86.21 85.8 86.21 84.95 83.94 84.95 83.94 86.89 87.26 86.89 87.26 83.9 82.96 83.9 82.96 88.27 88.61 88.27 88.61 82.7 81.1 82.7 81.1 82.5 88.81 82.5 88.81 88.48"/>
        </g>
      </g>
    </g>
  </g>
</svg>