<?xml version="1.0" encoding="UTF-8"?>
<svg id="Layer_2" data-name="Layer 2" xmlns="http://www.w3.org/2000/svg" viewBox="0 0 139.82 139.82">
  <defs>
    <style>
      .cls-1 {
        fill: #00a556;
      }

      .cls-2 {
        fill: #fff;
      }

      .cls-3 {
        fill: #ff5c8e;
      }

      .cls-4 {
        fill: #282828;
      }

      .cls-5 {
        fill: #ffd215;
      }
    </style>
  </defs>
  <g id="Layer_14" data-name="Layer 14">
    <g>
      <g>
        <path class="cls-2" d="M5.5,69.91c0,5.98,7.31,11.04,17.28,12.63-7.84,6.36-11.65,14.4-8.66,19.58,1.75,3.04,5.52,4.55,10.24,4.55,3.34,0,7.15-.77,11.05-2.27-3.62,9.43-2.91,18.31,2.28,21.3,1.2.7,2.57,1.04,4.05,1.04,2.32,0,4.91-.84,7.62-2.51,2.79-1.72,5.49-4.19,7.91-7.18,1.58,9.97,6.64,17.28,12.63,17.28s11.04-7.31,12.63-17.28c2.42,2.99,5.12,5.47,7.91,7.18,2.71,1.66,5.31,2.51,7.62,2.51,1.48,0,2.84-.34,4.05-1.04,5.19-2.99,5.9-11.87,2.28-21.3,3.91,1.5,7.72,2.27,11.05,2.27,4.72,0,8.49-1.51,10.24-4.55,2.99-5.18-.81-13.22-8.66-19.58,9.97-1.58,17.28-6.64,17.28-12.63s-7.31-11.04-17.28-12.63c7.84-6.36,11.65-14.4,8.66-19.58-2.99-5.18-11.86-5.9-21.3-2.28,3.62-9.43,2.9-18.3-2.28-21.3-3.09-1.78-7.23-1.26-11.67,1.47-2.79,1.72-5.49,4.19-7.91,7.18-1.58-9.97-6.64-17.28-12.63-17.28s-11.04,7.31-12.63,17.28c-2.42-2.99-5.12-5.47-7.91-7.18-4.44-2.73-8.58-3.25-11.67-1.47-5.18,2.99-5.9,11.86-2.28,21.29-9.43-3.62-18.3-2.9-21.29,2.28-2.99,5.18.81,13.22,8.66,19.58-9.97,1.58-17.28,6.64-17.28,12.63Z"/>
        <path class="cls-2" d="M69.91,139.82c-6.4,0-12.01-4.75-15.37-12.46-.75.56-1.51,1.08-2.28,1.55-3.59,2.2-7.12,3.32-10.5,3.32-2.47,0-4.76-.6-6.8-1.78-5.55-3.2-8.03-10.13-7.07-18.51-1.2.14-2.37.22-3.51.22-6.96,0-12.29-2.59-15.01-7.29-3.21-5.55-1.89-12.8,3.13-19.57-7.73-3.35-12.49-8.97-12.49-15.38s4.76-12.03,12.49-15.38c-5.02-6.77-6.33-14.02-3.13-19.57,3.21-5.55,10.14-8.04,18.52-7.07-.97-8.38,1.52-15.31,7.07-18.52,4.91-2.84,11.06-2.29,17.3,1.55.77.47,1.53.99,2.28,1.55,3.36-7.71,8.97-12.46,15.37-12.46s12.01,4.75,15.37,12.46c.75-.56,1.51-1.08,2.28-1.55,6.24-3.83,12.38-4.38,17.3-1.55,5.55,3.2,8.03,10.14,7.07,18.52,8.39-.96,15.32,1.52,18.52,7.07,3.2,5.55,1.89,12.8-3.13,19.57,7.73,3.35,12.49,8.97,12.49,15.38s-4.76,12.03-12.49,15.38c5.02,6.77,6.33,14.02,3.13,19.57-2.72,4.71-8.05,7.3-15.01,7.3h0c-1.13,0-2.31-.07-3.51-.21.96,8.37-1.52,15.3-7.07,18.51-2.04,1.18-4.33,1.78-6.8,1.78-3.38,0-6.92-1.12-10.5-3.32-.77-.47-1.53-.99-2.28-1.55-3.36,7.71-8.97,12.46-15.37,12.46ZM57.28,111.54c.47,0,.95.06,1.42.19,2.1.56,3.67,2.3,4.01,4.45,1.31,8.25,5.02,12.64,7.19,12.64s5.88-4.39,7.19-12.64c.34-2.15,1.91-3.89,4.01-4.45,2.1-.56,4.33.17,5.7,1.86,2.04,2.53,4.29,4.59,6.51,5.95,2.5,1.54,4.82,2.1,6.04,1.39,1.88-1.09,2.89-6.75-.11-14.56-.78-2.03-.29-4.32,1.25-5.86,1.54-1.54,3.83-2.02,5.86-1.25,3.25,1.25,6.39,1.9,9.08,1.9h0c2.74,0,4.84-.69,5.48-1.8,1.09-1.88-.87-7.29-7.36-12.55-1.69-1.37-2.41-3.6-1.85-5.7.56-2.1,2.31-3.67,4.45-4.01,8.25-1.31,12.65-5.02,12.65-7.19s-4.39-5.88-12.65-7.19c-2.14-.34-3.89-1.91-4.45-4.01-.56-2.1.16-4.33,1.85-5.7,6.49-5.26,8.44-10.67,7.35-12.56-1.09-1.88-6.75-2.89-14.56.11-2.03.78-4.32.29-5.86-1.25-1.54-1.54-2.02-3.83-1.25-5.86,3-7.81,1.99-13.48.1-14.56-1.2-.7-3.52-.16-6.04,1.39-2.22,1.36-4.47,3.42-6.51,5.95-1.36,1.69-3.6,2.42-5.7,1.86-2.1-.56-3.67-2.3-4.01-4.45-1.31-8.25-5.02-12.64-7.19-12.64s-5.88,4.39-7.19,12.64c-.34,2.15-1.91,3.89-4.01,4.45-2.1.56-4.33-.17-5.7-1.86-2.04-2.53-4.29-4.59-6.51-5.95-2.52-1.55-4.84-2.08-6.04-1.39-1.88,1.09-2.89,6.75.1,14.56.78,2.03.29,4.32-1.25,5.86-1.54,1.54-3.83,2.02-5.86,1.25-7.81-3-13.47-1.99-14.56-.1-1.09,1.88.86,7.29,7.35,12.56,1.69,1.37,2.41,3.6,1.85,5.7-.56,2.1-2.31,3.67-4.45,4.01-8.25,1.31-12.65,5.02-12.65,7.19s4.4,5.88,12.65,7.19c2.14.34,3.89,1.91,4.45,4.01.56,2.1-.16,4.33-1.85,5.7-6.49,5.26-8.44,10.67-7.36,12.56.64,1.11,2.74,1.79,5.48,1.79s5.84-.66,9.08-1.9c2.03-.78,4.33-.29,5.86,1.25,1.54,1.54,2.02,3.83,1.25,5.86-3,7.81-1.99,13.48-.11,14.57,1.22.7,3.54.14,6.04-1.39,2.22-1.36,4.47-3.42,6.51-5.95,1.06-1.31,2.64-2.05,4.28-2.05Z"/>
      </g>
      <g>
        <g>
          <ellipse class="cls-3" cx="69.91" cy="29.41" rx="12.69" ry="23.46"/>
          <path class="cls-4" d="M69.91,53.24c-7.21,0-13.07-10.69-13.07-23.83s5.86-23.83,13.07-23.83,13.07,10.69,13.07,23.83-5.86,23.83-13.07,23.83ZM69.91,6.33c-6.79,0-12.32,10.35-12.32,23.08s5.53,23.08,12.32,23.08,12.32-10.35,12.32-23.08-5.53-23.08-12.32-23.08Z"/>
        </g>
        <g>
          <path class="cls-3" d="M60.65,28.49c6.48,11.22,6.81,23.16.74,26.66-6.07,3.51-16.24-2.75-22.72-13.97s-6.81-23.16-.74-26.66c6.07-3.51,16.24,2.75,22.72,13.97Z"/>
          <path class="cls-4" d="M57.56,56.5c-2.3,0-4.89-.84-7.58-2.5-4.34-2.67-8.48-7.16-11.64-12.64-3.16-5.48-4.98-11.3-5.12-16.4-.14-5.18,1.46-9.01,4.53-10.77,3.06-1.77,7.18-1.25,11.59,1.47,4.34,2.67,8.48,7.16,11.64,12.64,6.57,11.38,6.84,23.57.6,27.17-1.19.69-2.54,1.03-4.01,1.03ZM41.76,13.92c-1.34,0-2.56.31-3.64.93-2.81,1.62-4.29,5.21-4.15,10.1.14,4.97,1.92,10.67,5.02,16.05,3.1,5.37,7.14,9.77,11.38,12.37,4.17,2.56,8.01,3.08,10.82,1.46,5.88-3.4,5.49-15.13-.87-26.15h0c-3.1-5.37-7.14-9.77-11.38-12.37-2.57-1.58-5.03-2.39-7.19-2.39Z"/>
        </g>
        <g>
          <ellipse class="cls-3" cx="34.83" cy="49.66" rx="12.69" ry="23.46" transform="translate(-25.59 55) rotate(-60)"/>
          <path class="cls-4" d="M45.33,66.11c-.21,0-.42,0-.63,0-5.1-.14-10.92-1.96-16.4-5.12-5.48-3.16-9.97-7.3-12.64-11.64-2.71-4.41-3.24-8.53-1.47-11.59s5.59-4.66,10.77-4.53c5.1.14,10.92,1.96,16.4,5.12,11.38,6.57,17.71,16.99,14.11,23.23-1.7,2.94-5.28,4.53-10.14,4.53ZM24.34,33.96c-4.58,0-7.94,1.47-9.49,4.16-1.62,2.81-1.11,6.66,1.46,10.82,2.61,4.24,7,8.28,12.37,11.38,5.37,3.1,11.07,4.89,16.05,5.02,4.89.13,8.48-1.34,10.1-4.15,3.4-5.88-2.81-15.85-13.83-22.21-5.37-3.1-11.07-4.89-16.05-5.02-.21,0-.41,0-.61,0Z"/>
        </g>
        <g>
          <ellipse class="cls-3" cx="29.41" cy="69.91" rx="23.46" ry="12.69"/>
          <path class="cls-4" d="M29.41,82.98c-13.14,0-23.83-5.86-23.83-13.07s10.69-13.07,23.83-13.07,23.83,5.86,23.83,13.07-10.69,13.07-23.83,13.07ZM29.41,57.59c-12.73,0-23.08,5.53-23.08,12.32s10.36,12.32,23.08,12.32,23.08-5.53,23.08-12.32-10.35-12.32-23.08-12.32Z"/>
        </g>
        <g>
          <path class="cls-3" d="M28.49,79.17c11.22-6.48,23.16-6.81,26.66-.74,3.51,6.07-2.75,16.24-13.97,22.72-11.22,6.48-23.16,6.81-26.66.74-3.51-6.07,2.75-16.24,13.97-22.72Z"/>
          <path class="cls-4" d="M24.34,106.61c-4.86,0-8.45-1.6-10.14-4.53-1.77-3.06-1.25-7.18,1.47-11.59,2.67-4.34,7.16-8.48,12.64-11.64,5.48-3.16,11.3-4.98,16.4-5.12,5.19-.14,9.01,1.46,10.77,4.53,3.6,6.24-2.73,16.66-14.11,23.23-5.48,3.16-11.3,4.98-16.4,5.12-.21,0-.42,0-.63,0ZM45.33,74.46c-.2,0-.41,0-.61,0-4.97.14-10.67,1.92-16.05,5.02h0c-5.37,3.1-9.77,7.15-12.37,11.38-2.56,4.17-3.08,8.01-1.46,10.82,1.62,2.81,5.21,4.3,10.1,4.15,4.97-.14,10.67-1.92,16.05-5.02,11.02-6.36,17.23-16.33,13.83-22.21-1.55-2.69-4.91-4.16-9.49-4.16ZM28.49,79.17h0,0Z"/>
        </g>
        <g>
          <path class="cls-3" d="M38.67,98.64c6.48-11.22,16.65-17.47,22.72-13.97,6.07,3.51,5.74,15.44-.74,26.66s-16.65,17.47-22.72,13.97c-6.07-3.51-5.74-15.44.74-26.66Z"/>
          <path class="cls-4" d="M41.75,126.65c-1.47,0-2.82-.34-4.01-1.03-3.06-1.77-4.67-5.59-4.53-10.77.14-5.1,1.96-10.92,5.12-16.4,3.16-5.48,7.3-9.97,11.64-12.64,4.42-2.71,8.53-3.23,11.59-1.47,6.24,3.6,5.97,15.79-.6,27.17-3.16,5.48-7.3,9.97-11.64,12.64-2.7,1.66-5.28,2.5-7.58,2.5ZM57.56,84.07c-2.16,0-4.61.8-7.19,2.39-4.24,2.61-8.28,7-11.38,12.37-3.1,5.37-4.89,11.07-5.02,16.05-.14,4.89,1.34,8.48,4.15,10.1,2.81,1.62,6.66,1.11,10.82-1.46,4.24-2.61,8.28-7,11.38-12.37,6.36-11.02,6.76-22.75.87-26.15-1.08-.62-2.3-.93-3.64-.93Z"/>
        </g>
        <g>
          <ellipse class="cls-3" cx="69.91" cy="110.41" rx="12.69" ry="23.46"/>
          <path class="cls-4" d="M69.91,134.24c-7.21,0-13.07-10.69-13.07-23.83s5.86-23.83,13.07-23.83,13.07,10.69,13.07,23.83-5.86,23.83-13.07,23.83ZM69.91,87.33c-6.79,0-12.32,10.35-12.32,23.08s5.53,23.08,12.32,23.08,12.32-10.35,12.32-23.08-5.53-23.08-12.32-23.08Z"/>
        </g>
        <g>
          <path class="cls-3" d="M79.17,111.33c-6.48-11.22-6.81-23.16-.74-26.66,6.07-3.51,16.24,2.75,22.72,13.97,6.48,11.22,6.81,23.16.74,26.66-6.07,3.51-16.24-2.75-22.72-13.97Z"/>
          <path class="cls-4" d="M98.07,126.65c-2.3,0-4.89-.84-7.58-2.5-4.34-2.67-8.48-7.16-11.64-12.64-6.57-11.38-6.84-23.57-.6-27.17,3.06-1.77,7.18-1.25,11.59,1.47,4.34,2.67,8.48,7.16,11.64,12.64,3.16,5.48,4.98,11.3,5.12,16.4.14,5.18-1.46,9.01-4.53,10.77-1.19.69-2.54,1.03-4.01,1.03ZM82.26,84.07c-1.34,0-2.56.31-3.64.93-5.88,3.4-5.49,15.13.87,26.15h0c3.1,5.37,7.14,9.77,11.38,12.37,4.17,2.56,8.01,3.08,10.82,1.46,2.81-1.62,4.29-5.21,4.15-10.1-.14-4.97-1.92-10.67-5.02-16.05-3.1-5.37-7.14-9.77-11.38-12.37-2.57-1.58-5.03-2.39-7.19-2.39Z"/>
        </g>
        <g>
          <ellipse class="cls-3" cx="104.98" cy="90.16" rx="12.69" ry="23.46" transform="translate(-25.59 136) rotate(-60)"/>
          <path class="cls-4" d="M115.48,106.61c-.21,0-.42,0-.63,0-5.1-.14-10.92-1.96-16.4-5.12-11.38-6.57-17.71-16.99-14.11-23.23,1.77-3.06,5.59-4.67,10.77-4.53,5.1.14,10.92,1.96,16.4,5.12,5.48,3.16,9.97,7.3,12.64,11.64,2.71,4.41,3.24,8.53,1.47,11.59-1.7,2.94-5.28,4.53-10.14,4.53ZM94.49,74.46c-4.58,0-7.94,1.47-9.49,4.16-3.4,5.88,2.81,15.85,13.83,22.21,5.37,3.1,11.07,4.89,16.05,5.02,4.87.13,8.48-1.34,10.1-4.15,1.62-2.81,1.11-6.66-1.46-10.82-2.61-4.24-7-8.28-12.37-11.38-5.37-3.1-11.07-4.89-16.05-5.02-.21,0-.41,0-.61,0Z"/>
        </g>
        <g>
          <ellipse class="cls-3" cx="110.41" cy="69.91" rx="23.46" ry="12.69"/>
          <path class="cls-4" d="M110.41,82.98c-13.14,0-23.83-5.86-23.83-13.07s10.69-13.07,23.83-13.07,23.83,5.86,23.83,13.07-10.69,13.07-23.83,13.07ZM110.41,57.59c-12.73,0-23.08,5.53-23.08,12.32s10.35,12.32,23.08,12.32,23.08-5.53,23.08-12.32-10.36-12.32-23.08-12.32Z"/>
        </g>
        <g>
          <path class="cls-3" d="M111.33,60.65c-11.22,6.48-23.16,6.81-26.66.74s2.75-16.24,13.97-22.72c11.22-6.48,23.16-6.81,26.66-.74,3.51,6.07-2.75,16.24-13.97,22.72Z"/>
          <path class="cls-4" d="M94.49,66.11c-4.86,0-8.45-1.6-10.14-4.53-3.6-6.24,2.73-16.66,14.11-23.23,5.48-3.16,11.3-4.98,16.4-5.12,5.18-.14,9.01,1.46,10.77,4.53s1.25,7.18-1.47,11.59c-2.67,4.34-7.16,8.48-12.64,11.64-5.48,3.16-11.3,4.98-16.4,5.12-.21,0-.42,0-.63,0ZM115.48,33.96c-.2,0-.4,0-.61,0-4.97.14-10.67,1.92-16.05,5.02-11.02,6.36-17.23,16.33-13.83,22.21,1.62,2.81,5.21,4.29,10.1,4.15,4.97-.14,10.67-1.92,16.05-5.02h0c5.37-3.1,9.77-7.15,12.37-11.38,2.56-4.17,3.08-8.01,1.46-10.82-1.55-2.69-4.91-4.16-9.49-4.16Z"/>
        </g>
        <g>
          <path class="cls-3" d="M101.15,41.18c-6.48,11.22-16.65,17.47-22.72,13.97-6.07-3.51-5.74-15.44.74-26.66,6.48-11.22,16.65-17.47,22.72-13.97,6.07,3.51,5.74,15.44-.74,26.66Z"/>
          <path class="cls-4" d="M82.25,56.5c-1.47,0-2.82-.34-4.01-1.03-6.24-3.6-5.97-15.79.6-27.17,3.16-5.48,7.3-9.97,11.64-12.64,4.41-2.71,8.53-3.23,11.59-1.47,3.06,1.77,4.67,5.59,4.53,10.77-.14,5.1-1.96,10.92-5.12,16.4-3.16,5.48-7.3,9.97-11.64,12.64-2.7,1.66-5.28,2.5-7.58,2.5ZM98.06,13.92c-2.16,0-4.61.8-7.19,2.38-4.24,2.61-8.28,7-11.38,12.37-6.36,11.02-6.76,22.75-.87,26.15,2.81,1.62,6.66,1.11,10.82-1.46,4.24-2.61,8.28-7,11.38-12.37,3.1-5.37,4.89-11.07,5.02-16.05.14-4.89-1.34-8.48-4.15-10.1-1.08-.62-2.3-.93-3.64-.93Z"/>
        </g>
        <g>
          <g>
            <circle class="cls-1" cx="69.91" cy="69.91" r="42.78"/>
            <path class="cls-4" d="M69.91,113.06c-23.8,0-43.16-19.36-43.16-43.16s19.36-43.16,43.16-43.16,43.16,19.36,43.16,43.16-19.36,43.16-43.16,43.16ZM69.91,27.5c-23.38,0-42.41,19.02-42.41,42.41s19.02,42.41,42.41,42.41,42.41-19.02,42.41-42.41-19.02-42.41-42.41-42.41Z"/>
          </g>
          <g>
            <circle class="cls-5" cx="69.91" cy="69.91" r="38.61"/>
            <path class="cls-4" d="M69.91,108.9c-21.5,0-38.99-17.49-38.99-38.99s17.49-38.99,38.99-38.99,38.99,17.49,38.99,38.99-17.49,38.99-38.99,38.99ZM69.91,31.67c-21.08,0-38.24,17.15-38.24,38.24s17.15,38.24,38.24,38.24,38.24-17.15,38.24-38.24-17.15-38.24-38.24-38.24Z"/>
          </g>
          <g>
            <g>
              <g>
                <g>
                  <path class="cls-2" d="M59.65,58.73c0,8.22-1.42,14.89-6.9,14.89-5.13,0-6.9-6.67-6.9-14.89s0-14.89,6.9-14.89c5.48,0,6.9,6.67,6.9,14.89Z"/>
                  <path class="cls-4" d="M52.75,73.99c-4.76,0-7.28-5.28-7.28-15.26,0-8.19,0-15.26,7.28-15.26,6.52,0,7.28,8.71,7.28,15.26s-.75,15.26-7.28,15.26ZM52.75,44.21c-6.53,0-6.53,6.41-6.53,14.51,0,6.62,1.13,14.51,6.53,14.51,4.45,0,6.53-4.61,6.53-14.51s-2.07-14.51-6.53-14.51Z"/>
                </g>
                <g>
                  <path class="cls-4" d="M52.75,61.46l3.56-2.28c0-.1,0-.2,0-.3,0-5.24-1.6-9.49-3.56-9.49s-3.56,4.25-3.56,9.49,1.6,9.49,3.56,9.49c1.52,0,2.82-2.53,3.33-6.09l-3.33-.82Z"/>
                  <path class="cls-4" d="M52.75,68.75c-2.21,0-3.94-4.33-3.94-9.87s1.73-9.87,3.94-9.87,3.94,4.33,3.94,9.87v.3c0,.13-.07.24-.18.31l-2.83,1.81,2.48.61c.19.05.31.23.28.42-.57,3.96-1.99,6.42-3.7,6.42ZM52.75,49.77c-1.51,0-3.19,3.74-3.19,9.12s1.68,9.12,3.19,9.12c1.21,0,2.39-2.22,2.91-5.44l-3-.74c-.15-.04-.26-.15-.28-.3-.02-.15.04-.3.17-.38l3.39-2.17v-.09c0-5.37-1.68-9.12-3.19-9.12Z"/>
                </g>
                <g>
                  <path class="cls-5" d="M55.4,56.12c1.44,0,2.83-.26,4.15-.75-.39-6.61-2.09-11.54-6.81-11.54s-6.3,3.31-6.72,8.15c2.63,2.6,5.87,4.13,9.38,4.13Z"/>
                  <path class="cls-4" d="M55.4,56.5c-3.5,0-6.83-1.47-9.64-4.24-.08-.08-.12-.19-.11-.3.37-4.2,1.5-8.49,7.1-8.49,4.37,0,6.72,3.89,7.18,11.89,0,.17-.09.32-.25.37-1.4.51-2.84.77-4.28.77ZM46.42,51.84c2.64,2.55,5.74,3.9,8.99,3.9,1.27,0,2.53-.21,3.76-.63-.48-7.34-2.58-10.9-6.42-10.9s-5.82,2.21-6.33,7.63Z"/>
                </g>
              </g>
              <g>
                <g>
                  <path class="cls-2" d="M76.81,58.73c0,8.22-1.42,14.89-6.9,14.89-5.13,0-6.9-6.67-6.9-14.89s0-14.89,6.9-14.89c5.49,0,6.9,6.67,6.9,14.89Z"/>
                  <path class="cls-4" d="M69.91,73.99c-4.76,0-7.28-5.28-7.28-15.26,0-8.19,0-15.26,7.28-15.26,6.52,0,7.28,8.71,7.28,15.26s-.75,15.26-7.28,15.26ZM69.91,44.21c-6.53,0-6.53,6.41-6.53,14.51,0,6.62,1.13,14.51,6.53,14.51,4.45,0,6.53-4.61,6.53-14.51s-2.07-14.51-6.53-14.51Z"/>
                </g>
                <g>
                  <path class="cls-4" d="M69.91,61.46l3.56-2.28c0-.1,0-.2,0-.3,0-5.24-1.6-9.49-3.56-9.49s-3.56,4.25-3.56,9.49,1.6,9.49,3.56,9.49c1.52,0,2.82-2.53,3.33-6.09l-3.33-.82Z"/>
                  <path class="cls-4" d="M69.91,68.75c-2.21,0-3.94-4.33-3.94-9.87s1.73-9.87,3.94-9.87,3.94,4.33,3.94,9.87v.3c0,.13-.07.24-.17.31l-2.83,1.81,2.48.61c.19.05.31.23.28.42-.57,3.96-1.99,6.42-3.7,6.42ZM69.91,49.77c-1.51,0-3.19,3.74-3.19,9.12s1.68,9.12,3.19,9.12c1.21,0,2.39-2.22,2.91-5.44l-3-.74c-.15-.04-.26-.15-.28-.3-.02-.15.04-.3.17-.38l3.39-2.17v-.09c0-5.37-1.68-9.12-3.19-9.12Z"/>
                </g>
                <g>
                  <path class="cls-5" d="M72.56,56.12c1.44,0,2.83-.26,4.15-.75-.39-6.61-2.09-11.54-6.81-11.54s-6.3,3.31-6.72,8.15c2.63,2.6,5.87,4.13,9.38,4.13Z"/>
                  <path class="cls-4" d="M72.56,56.5c-3.5,0-6.83-1.47-9.64-4.24-.08-.08-.12-.19-.11-.3.37-4.2,1.5-8.49,7.1-8.49,4.37,0,6.71,3.89,7.18,11.89,0,.17-.09.32-.25.37-1.4.51-2.84.77-4.28.77ZM63.58,51.84c2.64,2.55,5.74,3.9,8.99,3.9,1.27,0,2.53-.21,3.76-.63-.48-7.34-2.58-10.9-6.42-10.9s-5.82,2.21-6.33,7.63Z"/>
                </g>
              </g>
              <g>
                <g>
                  <path class="cls-2" d="M93.97,58.73c0,8.22-1.42,14.89-6.9,14.89-5.13,0-6.9-6.67-6.9-14.89s0-14.89,6.9-14.89c5.48,0,6.9,6.67,6.9,14.89Z"/>
                  <path class="cls-4" d="M87.07,73.99c-4.76,0-7.28-5.28-7.28-15.26,0-8.19,0-15.26,7.28-15.26,6.52,0,7.28,8.71,7.28,15.26s-.75,15.26-7.28,15.26ZM87.07,44.21c-6.53,0-6.53,6.41-6.53,14.51,0,6.62,1.13,14.51,6.53,14.51,4.45,0,6.53-4.61,6.53-14.51s-2.07-14.51-6.53-14.51Z"/>
                </g>
                <g>
                  <path class="cls-4" d="M87.07,61.46l3.56-2.28c0-.1,0-.2,0-.3,0-5.24-1.6-9.49-3.56-9.49s-3.56,4.25-3.56,9.49,1.6,9.49,3.56,9.49c1.52,0,2.82-2.53,3.33-6.09l-3.33-.82Z"/>
                  <path class="cls-4" d="M87.07,68.75c-2.21,0-3.94-4.33-3.94-9.87s1.73-9.87,3.94-9.87,3.94,4.33,3.94,9.87v.3c0,.13-.07.24-.18.31l-2.83,1.81,2.48.61c.19.05.31.23.28.42-.57,3.96-1.99,6.42-3.7,6.42ZM87.07,49.77c-1.51,0-3.19,3.74-3.19,9.12s1.68,9.12,3.19,9.12c1.21,0,2.39-2.22,2.91-5.44l-3-.74c-.15-.04-.26-.15-.28-.3-.02-.15.04-.3.17-.38l3.39-2.17v-.09c0-5.37-1.68-9.12-3.19-9.12Z"/>
                </g>
                <g>
                  <path class="cls-5" d="M89.72,56.12c1.44,0,2.83-.26,4.15-.75-.39-6.61-2.09-11.54-6.81-11.54s-6.3,3.31-6.72,8.15c2.63,2.6,5.87,4.13,9.38,4.13Z"/>
                  <path class="cls-4" d="M89.72,56.5c-3.5,0-6.83-1.47-9.64-4.24-.08-.08-.12-.19-.11-.3.37-4.2,1.5-8.49,7.1-8.49,4.37,0,6.71,3.89,7.18,11.89,0,.17-.09.32-.25.37-1.4.51-2.84.77-4.28.77ZM80.74,51.84c2.64,2.55,5.74,3.9,8.99,3.9,1.27,0,2.53-.21,3.76-.63-.48-7.34-2.58-10.9-6.42-10.9s-5.82,2.21-6.33,7.63Z"/>
                </g>
              </g>
            </g>
            <g>
              <g>
                <path class="cls-2" d="M88.43,81.42c-4.25-.32-8.49,5.57-18.52,5.57s-14.27-5.89-18.52-5.57c-4.25.32-6.26,7,.93,12.1s14.64,5.57,17.59,5.57,10.39-.48,17.59-5.57c7.2-5.09,5.18-11.78.93-12.1Z"/>
                <path class="cls-4" d="M69.91,99.46c-3.67,0-10.87-.73-17.81-5.64-4.51-3.19-5.39-6.93-4.72-9.36.54-1.96,2.07-3.27,3.98-3.41,1.84-.14,3.6.78,5.83,1.95,3.07,1.61,6.9,3.62,12.72,3.62s9.65-2.01,12.72-3.62c2.22-1.17,3.99-2.09,5.83-1.95h0c1.91.14,3.43,1.45,3.98,3.41.67,2.44-.21,6.17-4.72,9.36-6.93,4.91-14.13,5.64-17.81,5.64ZM51.73,81.78c-.1,0-.21,0-.31.01-1.58.12-2.85,1.22-3.31,2.86-.61,2.19.24,5.59,4.43,8.55,6.76,4.79,13.79,5.5,17.37,5.5s10.61-.71,17.37-5.5c4.19-2.97,5.04-6.36,4.43-8.55-.46-1.65-1.73-2.75-3.31-2.86-1.62-.13-3.31.75-5.42,1.87-3.15,1.65-7.06,3.71-13.07,3.71s-9.92-2.06-13.07-3.71c-1.98-1.04-3.58-1.88-5.12-1.88Z"/>
              </g>
              <g>
                <path class="cls-4" d="M86.94,83.99c-3.9-.27-7.81,5.23-17.03,5.23s-13.12-5.49-17.03-5.23c-3.9.27-4.99,4.73,1.63,8.99,6.62,4.26,12.69,4.24,15.4,4.24s8.79.02,15.4-4.24c6.62-4.26,5.53-8.72,1.63-8.99Z"/>
                <path class="cls-4" d="M69.87,96.22h.04c2.84,0,8.55-.02,14.86-4.08,3.63-2.34,4.55-4.56,4.25-5.75-.21-.81-.99-1.32-2.15-1.4h0c-1.31-.08-2.77.69-4.61,1.68-2.81,1.5-6.65,3.55-12.35,3.55s-9.55-2.05-12.35-3.55c-1.84-.99-3.3-1.76-4.61-1.68-1.16.08-1.94.59-2.15,1.4-.31,1.19.62,3.42,4.25,5.75,6.31,4.06,12.01,4.08,14.78,4.08h.04Z"/>
              </g>
              <g>
                <path class="cls-4" d="M58.43,85.52l-4.29,7.27,4.29-7.27Z"/>
                <path class="cls-2" d="M54.14,93.16c-.07,0-.13-.02-.19-.05-.18-.11-.24-.34-.13-.51l4.29-7.27c.11-.18.34-.24.51-.13.18.11.24.34.13.51l-4.29,7.27c-.07.12-.2.18-.32.18Z"/>
              </g>
              <g>
                <path class="cls-4" d="M63.83,88.13l-2.85,8.09,2.85-8.09Z"/>
                <path class="cls-2" d="M60.99,96.59s-.08,0-.12-.02c-.2-.07-.3-.28-.23-.48l2.85-8.09c.07-.2.28-.3.48-.23.2.07.3.28.23.48l-2.85,8.09c-.05.15-.2.25-.35.25Z"/>
              </g>
              <g>
                <path class="cls-4" d="M81.28,85.52l4.29,7.27-4.29-7.27Z"/>
                <path class="cls-2" d="M85.56,93.16c-.13,0-.25-.07-.32-.18l-4.29-7.27c-.1-.18-.05-.41.13-.51.18-.1.41-.05.51.13l4.29,7.27c.1.18.05.41-.13.51-.06.04-.12.05-.19.05Z"/>
              </g>
              <g>
                <path class="cls-4" d="M75.87,88.13l2.85,8.09-2.85-8.09Z"/>
                <path class="cls-2" d="M78.71,96.59c-.15,0-.3-.1-.35-.25l-2.85-8.09c-.07-.2.03-.41.23-.48.2-.07.41.03.48.23l2.85,8.09c.07.2-.03.41-.23.48-.04.01-.08.02-.12.02Z"/>
              </g>
              <g>
                <path class="cls-4" d="M69.79,89.34l.25,8.43-.25-8.43Z"/>
                <path class="cls-2" d="M70.03,98.15c-.2,0-.37-.16-.38-.36l-.25-8.43c0-.21.16-.38.36-.39.2,0,.38.16.39.36l.25,8.43c0,.21-.16.38-.36.39h-.01Z"/>
              </g>
            </g>
          </g>
        </g>
      </g>
    </g>
  </g>
</svg>