<?xml version="1.0" encoding="UTF-8"?>
<svg id="Layer_2" data-name="Layer 2" xmlns="http://www.w3.org/2000/svg" viewBox="0 0 103.95 200.59">
  <defs>
    <style>
      .cls-1 {
        fill: #daded4;
      }

      .cls-2 {
        fill: #58391f;
      }

      .cls-3 {
        fill: #e8e8e9;
      }

      .cls-4 {
        fill: #62bade;
      }

      .cls-5 {
        fill: #fff;
      }

      .cls-6 {
        fill: #ad7f5e;
      }

      .cls-7 {
        fill: #bb3b22;
      }

      .cls-8 {
        fill: #f0ff1b;
      }

      .cls-9 {
        fill: #ff7a9c;
      }

      .cls-10 {
        fill: #aee2f7;
      }

      .cls-11 {
        fill: #8c2c1a;
      }

      .cls-12 {
        fill: #1a1a1a;
      }

      .cls-13 {
        fill: #f3b88d;
      }

      .cls-14 {
        fill: #e55c75;
      }
    </style>
  </defs>
  <g id="_ÎÓÈ_1" data-name="—ÎÓÈ_1">
    <g>
      <path class="cls-13" d="M28.11,100.75c0,7.5-2.28,11.48-3.18,11.04-.83-.41.51-4.29-.03-4.55-.37-.18-1.33,2.48-1.79,4.7-.44,2.14-1.21,4.77-2.04,4.65-.89-.13-1.52-2.77-1.54-3.18-.11-2.41.26-3.5.35-3.96.78-3.91,1.41-9.09,3.5-10.56.89-.63,4.72.97,4.72,1.86Z"/>
      <path class="cls-12" d="M27.94,45.25c-2.56,8.64-2.1,20.38-3.82,33.83-1.16,9.03-4.06,21.96-5.05,30.6,0,0,1.94-.28,4.34-1.34,1.78-.78,3.24-1.24,4.94-3.08,0,0,2.17-6.56,4.81-27.18.9-7,2.36-14.09,2.36-17.1,0-3.5,6.57-.19,3.96,15.46-.88,5.27,7.98-8.76,7.98-8.76l2.88-22.68-22.4.24Z"/>
      <path class="cls-13" d="M75.89,100.75c0,7.5,2.28,11.48,3.18,11.04.83-.41-.51-4.29.03-4.55.37-.18,1.33,2.48,1.79,4.7.44,2.14,1.21,4.77,2.04,4.65.89-.13,1.52-2.77,1.54-3.18.11-2.41-.26-3.5-.35-3.96-.78-3.91-1.41-9.09-3.5-10.56-.89-.63-4.72.97-4.72,1.86Z"/>
      <path class="cls-12" d="M76.07,45.25c2.56,8.64,2.1,20.38,3.82,33.83,1.16,9.03,4.06,21.96,5.05,30.6,0,0-1.93-.28-4.34-1.34-1.78-.78-4.08-1.19-5.78-3.03,0,0-1.33-6.61-3.96-27.23-.9-7-2.36-14.09-2.36-17.1,0-3.5-6.57-.19-3.96,15.46.88,5.27-7.98-8.76-7.98-8.76l-2.88-22.68,22.4.24Z"/>
      <ellipse class="cls-3" cx="51.97" cy="190.45" rx="51.97" ry="10.14"/>
      <path d="M66.49,74.98s18.37,77.41,23.87,106.03c0,0-.65,7.02-12.22,8.21,0,0-10.15,9.78-26.18,5.4l-14.52-119.64h29.04Z"/>
      <path class="cls-12" d="M38.15,78.09s-19.06,74.3-24.57,102.92c0,0,.65,7.02,12.22,8.21,0,0,10.15,9.78,26.18,5.4l-.06-101.62-13.76-14.91Z"/>
      <path d="M37.45,74.98s1.79-6.16,1.7-3.21c-.03.97-1.88,10.15-1.93,11.31-.21,4.58-.62,10.35-1.39,15.25-3.44,21.96-14.1,57.74-17.08,88.97,0,0-4.01-.86-5.17-6.29-1.16-5.43,23.87-106.03,23.87-106.03Z"/>
      <path d="M41.81,44.25c0,6.12,1.07,12.41-4.35,16.57v14.16c7.89,1.97,14.52,1.81,14.52,1.81v-44.24c-5.32,0-10.17,4.82-10.17,11.71Z"/>
      <path d="M62.14,44.25c0,6.12-1.07,11.3,4.35,15.45v15.27c-7.89,1.97-14.52,1.81-14.52,1.81v-44.24c5.32,0,10.17,4.82,10.17,11.71Z"/>
      <path d="M25.8,189.22l12.84-77.23s-5.97,64.07.89,69.33c7.38,5.66,12.44-9.25,12.44-104.53,0,0,6.8,91.11,7.39,92.08.59.98-6.65,25.56-7.39,25.75-.74.19-14.04,4.92-26.18-5.4Z"/>
      <path class="cls-12" d="M51.91,93s.58,6.51,1.83,24.71c.84,12.19.21,53.88,9.34,53.88s.22-57.75.22-66c0,0,11.09,66.91,18.65,66.91s-16.05-94.01-16.05-94.01c-18.09,6.68-28.12-.95-28.12-.95,0,0-1.84,18.93,14.15,15.46Z"/>
      <path class="cls-12" d="M55.46,60.82c5.42,6.88,11.04,4.17,11.04,4.17v7.32c-1.5,2.5-8.01,4.95-14.52,5.23v-22.87s1.19,3.24,3.48,6.16Z"/>
      <path class="cls-12" d="M48.49,60.82c-5.42,6.88-11.04,4.17-11.04,4.17v7.32c1.5,2.5,8.01,4.95,14.52,5.23v-22.87s-1.19,3.24-3.48,6.16Z"/>
      <path class="cls-4" d="M66.49,71.77c-4.58,2.07-9.55,3.09-14.52,3.08v4.23c4.94.04,9.87-.98,14.74-3.18.61-1.03.33-2.92-.22-4.12Z"/>
      <path class="cls-4" d="M37.45,71.77c4.58,2.07,9.55,3.09,14.52,3.08v4.23c-4.94.04-9.87-.98-14.74-3.18-.61-1.03-.33-2.92.22-4.12Z"/>
      <circle class="cls-8" cx="38.89" cy="74.52" r=".78"/>
      <path class="cls-8" d="M46.28,76.45c0,.43-.35.78-.78.78s-.78-.35-.78-.78.35-.78.78-.78.78.35.78.78Z"/>
      <path class="cls-8" d="M64.28,74.52c0,.43.35.78.78.78s.78-.35.78-.78-.35-.78-.78-.78-.78.35-.78.78Z"/>
      <circle class="cls-8" cx="58.45" cy="76.45" r=".78"/>
      <path class="cls-8" d="M52.76,77.05c0,.43-.35.78-.78.78s-.78-.35-.78-.78.35-.78.78-.78.78.35.78.78Z"/>
      <path d="M63.74,65.52s5.6.59,5.6-6.38c0-6.45-1.93-10.24,6.61-14.36l-.36-.87s-11.3,1.51-11.73,18.5l-.12,3.11Z"/>
      <path d="M40.28,65.52s-5.6.59-5.6-6.38c0-6.45,1.93-10.24-6.61-14.36l.36-.87s11.3,1.51,11.73,18.5l.12,3.11Z"/>
      <path class="cls-12" d="M74.03,40.57c-16.18-4.56-18.39,12.68-22,12.68-.02,0-.04,0-.06,0v5.15s.04,0,.06,0c.3,0,.96.41,1.72.85,1.31,2.36,3.83,3.97,6.72,3.97,4.24,0,7.46-3.37,7.46-8.31,0-9.29,8.14-9.65,8.14-9.65-.49-3.26-2.04-4.68-2.04-4.68Z"/>
      <path d="M40.28,65.52s-5.6.59-5.6-6.38c0-6.45,1.79-9.77-6.74-13.89l.49-1.34s11.3,1.51,11.73,18.5l.12,3.11Z"/>
      <path class="cls-12" d="M29.99,40.57c16.18-4.56,18.39,12.68,22,12.68.02,0,.04,0,.06,0v5.15s-.04,0-.06,0c-.3,0-.96.41-1.72.85-1.31,2.36-3.83,3.97-6.72,3.97-4.24,0-7.46-3.37-7.46-8.31,0-9.29-8.14-9.65-8.14-9.65.49-3.26,2.04-4.68,2.04-4.68Z"/>
      <path d="M68.67,36.73c-3.87-1.76-8.43-2.69-9.4-3.83h-7.26l.02,20.36c7.5,0,8.48-3.91,9.44-4.73,1.27-1.09,6.29-.57,8.73-4.01,2.3-3.23,4.57-3.57,5.38-1.24,0,0-.35-3.56-6.91-6.54Z"/>
      <path d="M35.39,36.73c3.87-1.75,8.43-2.69,9.4-3.83h7.26l-.02,20.36c-7.5,0-8.48-3.91-9.44-4.73-1.27-1.09-6.16-.67-8.73-4.01-3.22-4.18-5.22-1.44-5.47.88,0,0-1.01-5.03,7-8.66Z"/>
      <g>
        <path class="cls-9" d="M38.3,16.79c0,9.27,6.16,16.79,13.75,16.79V0c-7.6,0-13.75,7.52-13.75,16.79Z"/>
        <path class="cls-9" d="M52.06,0v33.58c7.6,0,13.75-7.52,13.75-16.79S59.65,0,52.06,0Z"/>
      </g>
      <path class="cls-9" d="M67.1,30.56c0,3.98-2.86,7.21-6.39,7.21s-6.39-3.23-6.39-7.21,2.86-7.21,6.39-7.21,6.39,3.23,6.39,7.21Z"/>
      <path class="cls-9" d="M36.44,34.55c0,3.98,3.34,3.23,6.87,3.23s6.39-3.23,6.39-7.21-2.86-7.21-6.39-7.21-6.87,7.21-6.87,11.19Z"/>
      <path class="cls-9" d="M68.81,34.27s.12-1.73-2.29-2.23c-3.04-.63-14.52-2.45-14.52-2.45v.98s-11.58.47-14.52,1.48-2.81,3.49-2.81,3.49c-3.5.33-4.34,4.63-4.34,4.63,2.36-1.23,3.8,1.23,3.8,1.23,2.28,4.85,8.87,5.77,8.87,5.77,3.13,4.06,6.46,4.48,9,4.48s5.99-.74,9-4.48c0,0,6.59-.91,8.87-5.77,0,0,1.43-2.46,3.8-1.23,0,0-.35-4.55-4.86-5.89Z"/>
      <path class="cls-14" d="M66.93,32.2c-1.7,2.92-5.2,9.47-14.88,9.47s-11.9-4.92-11.9-4.92c1.12,4.49,5.04,8.3,11.85,8.82,7.26.55,17.43-4.23,17.17-11.35-.06-1.73-2.23-2.04-2.24-2.02Z"/>
      <path class="cls-14" d="M64.93,31.3c.29.57-1.77,5.28-7.21,6.91-5.41,1.73-9.77-1-9.85-1.63-.32-.67,3.19.85,8.6-.88,5.44-1.62,8.35-5.13,8.46-4.39Z"/>
      <path class="cls-14" d="M40.13,25.16s2.93,10.36,17.72,6.32c0,0-3.12,3.52-8.76,3.52-6.04,0-9.94-3.35-8.97-9.84Z"/>
      <path class="cls-8" d="M70.2,40.35c0,.24-.19.43-.43.43s-.43-.19-.43-.43.19-.43.43-.43.43.19.43.43Z"/>
      <path class="cls-8" d="M72.44,38.91c0,.24-.19.43-.43.43s-.43-.19-.43-.43.19-.43.43-.43.43.19.43.43Z"/>
      <path class="cls-8" d="M68.51,42.55c0,.24-.19.43-.43.43s-.43-.19-.43-.43.19-.43.43-.43.43.19.43.43Z"/>
      <path class="cls-8" d="M65.83,44.34c0,.24-.19.43-.43.43s-.43-.19-.43-.43.19-.43.43-.43.43.19.43.43Z"/>
      <path class="cls-8" d="M62.34,45.69c0,.24-.19.43-.43.43s-.43-.19-.43-.43.19-.43.43-.43.43.19.43.43Z"/>
      <path class="cls-8" d="M59.54,47.42c0,.24-.19.43-.43.43s-.43-.19-.43-.43.19-.43.43-.43.43.19.43.43Z"/>
      <path class="cls-8" d="M56.25,49.34c0,.24-.19.43-.43.43s-.43-.19-.43-.43.19-.43.43-.43.43.19.43.43Z"/>
      <path class="cls-8" d="M33.81,40.35c0,.24.19.43.43.43s.43-.19.43-.43-.19-.43-.43-.43-.43.19-.43.43Z"/>
      <path class="cls-8" d="M31.6,38.91c0,.24.19.43.43.43s.43-.19.43-.43-.19-.43-.43-.43-.43.19-.43.43Z"/>
      <path class="cls-8" d="M35.51,42.55c0,.24.19.43.43.43s.43-.19.43-.43-.19-.43-.43-.43-.43.19-.43.43Z"/>
      <path class="cls-8" d="M38.19,44.34c0,.24.19.43.43.43s.43-.19.43-.43-.19-.43-.43-.43-.43.19-.43.43Z"/>
      <path class="cls-8" d="M41.68,45.69c0,.24.19.43.43.43s.43-.19.43-.43-.19-.43-.43-.43-.43.19-.43.43Z"/>
      <path class="cls-8" d="M44.48,47.42c0,.24.19.43.43.43s.43-.19.43-.43-.19-.43-.43-.43-.43.19-.43.43Z"/>
      <path class="cls-8" d="M47.77,49.34c0,.24.19.43.43.43s.43-.19.43-.43-.19-.43-.43-.43-.43.19-.43.43Z"/>
      <path class="cls-8" d="M52.44,49.77c0,.24-.19.43-.43.43s-.43-.19-.43-.43.19-.43.43-.43.43.19.43.43Z"/>
      <path class="cls-14" d="M34.4,35.6s.57,4.17,5.35,5.88c0,0-4.47-5.34-3.06-9.09,0,0-1.92.47-2.29,3.21Z"/>
      <g>
        <path class="cls-14" d="M42.2,16.81c0,7.33,4.42,13.28,9.86,13.28V3.53c-5.45,0-9.86,5.94-9.86,13.28Z"/>
        <path class="cls-14" d="M52.06,3.53v26.55c5.45,0,9.86-5.94,9.86-13.28s-4.42-13.28-9.86-13.28Z"/>
      </g>
      <path class="cls-13" d="M52.06,4.59c-4.8,0-8.8,3.92-8.8,9.85,0,7.33,4.28,14.15,8.8,14.15,4.52,0,8.8-6.83,8.8-14.15,0-5.93-4-9.85-8.8-9.85Z"/>
      <g>
        <path class="cls-4" d="M46.66,6.1c-2.13,1.77-3.36,4.67-3.41,8.16.7-.81,1.48-1.51,2.35-2.09-.02-1.27.1-3.68,1.06-6.07Z"/>
        <path class="cls-4" d="M52.06,4.25c-.52,0-1.02.04-1.51.12-.32,1.36-.65,3.47-.48,6.01.65-.11,1.31-.17,1.99-.17,3.44,0,6.59,1.48,8.8,4.05-.08-5.83-3.7-10.01-8.8-10.01Z"/>
        <path class="cls-10" d="M50.55,4.37c-1.5.24-2.81.84-3.89,1.73-.96,2.39-1.08,4.8-1.06,6.07,1.34-.9,2.85-1.51,4.46-1.79-.17-2.54.16-4.66.48-6.01Z"/>
      </g>
      <path class="cls-6" d="M52.57,19.83c.16-.21.75-.83,1.15-.42.41.41-1.59,1-1.15.42Z"/>
      <path class="cls-6" d="M51.59,19.83c-.16-.21-.75-.83-1.15-.42-.41.41,1.59,1,1.15.42Z"/>
      <g>
        <g>
          <path class="cls-7" d="M49.15,22.81s.49,1.82,2.91,1.82v-1.69l-2.91-.13Z"/>
          <path class="cls-7" d="M51.32,22.1c-.43,0-1.8.71-2.17.71,0,0,.07.33,1.33.22.96-.08,1,.32,1.58.32v-.97c-.21,0-.3-.29-.74-.29Z"/>
        </g>
        <g>
          <path class="cls-7" d="M54.97,22.81s-.49,1.82-2.91,1.82v-1.69l2.91-.13Z"/>
          <path class="cls-7" d="M52.8,22.1c.43,0,1.8.71,2.17.71,0,0-.07.33-1.33.22-.96-.08-1,.32-1.58.32v-.97c.21,0,.3-.29.74-.29Z"/>
        </g>
        <path class="cls-11" d="M54.97,22.81s-.41.27-1.17.09-1.17,0-1.74.14v.47s.54-.38,1.78-.25c.83.09,1.13-.45,1.13-.45Z"/>
        <path class="cls-11" d="M49.15,22.81s.41.27,1.17.09,1.17,0,1.74.14v.47s-.54-.38-1.78-.25c-.83.09-1.13-.45-1.13-.45Z"/>
      </g>
      <g>
        <path d="M56.01,12.08c2.66-.33,2.87,1.88,2.87,1.88-1.24-2.31-3.29-.57-4.76-.64-1-.05-1.13-.87,1.88-1.24Z"/>
        <path class="cls-6" d="M53.86,15.59s.12-1.79,2.51-2.1c1.81-.23,1.61,1.85,1.61,1.85,0,0-2.15-1.69-4.13.25Z"/>
        <path class="cls-5" d="M53.86,15.59s.07.35,1.63.82c1.4.42,2.49-1.07,2.49-1.07,0,0-.8-.84-2.38-.73-1.41.1-1.74.98-1.74.98Z"/>
        <g>
          <path class="cls-2" d="M56.94,15.56c-.05.56-.53.97-1.08.92-.55-.05-.96-.54-.91-1.09.05-.56.53-.97,1.08-.92.55.04.96.54.91,1.09Z"/>
          <path class="cls-5" d="M55.58,15.28c-.01.12-.11.21-.23.19-.12,0-.2-.11-.19-.23.01-.12.11-.21.23-.2.12.01.2.11.19.23Z"/>
          <path class="cls-1" d="M56.52,16.07c-.01.12-.11.21-.23.2-.12,0-.2-.11-.19-.23,0-.12.11-.21.23-.2.12.01.2.12.19.23Z"/>
          <path d="M56.26,15.53c-.02.17-.17.31-.34.29-.17-.01-.3-.17-.28-.35.01-.18.17-.31.34-.29.17.02.3.17.29.35Z"/>
        </g>
        <path d="M53.86,15.59s.56-1.3,2.06-1.32c1.68-.03,2.07,1.07,2.07,1.07,0,0-2.15-1.69-4.13.25Z"/>
      </g>
      <g>
        <path d="M48.11,12.08c-2.66-.33-2.87,1.88-2.87,1.88,1.24-2.31,3.29-.57,4.76-.64,1-.05,1.13-.87-1.88-1.24Z"/>
        <path class="cls-6" d="M50.25,15.59s-.12-1.79-2.51-2.1c-1.81-.23-1.61,1.85-1.61,1.85,0,0,2.15-1.69,4.13.25Z"/>
        <path class="cls-5" d="M50.25,15.59s-.07.35-1.63.82c-1.4.42-2.49-1.07-2.49-1.07,0,0,.8-.84,2.38-.73,1.41.1,1.74.98,1.74.98Z"/>
        <g>
          <path class="cls-2" d="M47.18,15.56c.05.56.53.97,1.08.92.55-.05.96-.54.91-1.09-.05-.56-.53-.97-1.08-.92-.55.04-.96.54-.91,1.09Z"/>
          <path class="cls-5" d="M48.54,15.28c.01.12.11.21.23.19.12,0,.2-.11.19-.23-.01-.12-.11-.21-.23-.2-.12.01-.2.11-.19.23Z"/>
          <path class="cls-1" d="M47.6,16.07c.01.12.11.21.23.2.12,0,.2-.11.19-.23,0-.12-.11-.21-.23-.2-.12.01-.2.12-.19.23Z"/>
          <path d="M47.86,15.53c.02.17.17.31.34.29.17-.01.3-.17.28-.35-.01-.18-.17-.31-.34-.29-.17.02-.3.17-.29.35Z"/>
        </g>
        <path d="M50.25,15.59s-.56-1.3-2.06-1.32c-1.68-.03-2.07,1.07-2.07,1.07,0,0,2.15-1.69,4.13.25Z"/>
      </g>
    </g>
  </g>
</svg>