<?xml version="1.0" encoding="UTF-8"?>
<svg id="Layer_2" data-name="Layer 2" xmlns="http://www.w3.org/2000/svg" viewBox="0 0 103.95 201.15">
  <defs>
    <style>
      .cls-1 {
        fill: #daded4;
      }

      .cls-2 {
        fill: #58391f;
      }

      .cls-3 {
        fill: #e8e8e9;
      }

      .cls-4 {
        fill: #fff;
      }

      .cls-5 {
        fill: #666;
      }

      .cls-6 {
        fill: #ad7f5e;
      }

      .cls-7 {
        fill: #f0ff1b;
      }

      .cls-8 {
        fill: #333;
      }

      .cls-9 {
        fill: #484848;
      }

      .cls-10 {
        fill: #1a1a1a;
      }

      .cls-11 {
        fill: #f3b88d;
      }
    </style>
  </defs>
  <g id="_ÎÓÈ_1" data-name="—ÎÓÈ_1">
    <g>
      <g>
        <path class="cls-11" d="M76.76,95.31c.46,7.48,2.97,11.32,3.84,10.82.81-.46-.77-4.25-.25-4.54.36-.2,1.48,2.39,2.07,4.59.57,2.11,1.5,4.69,2.32,4.52.88-.18,1.35-2.86,1.34-3.26-.03-2.41-.47-3.48-.59-3.93-1.02-3.85-1.96-8.99-4.14-10.33-.93-.57-4.65,1.25-4.59,2.14Z"/>
        <path class="cls-10" d="M73.2,48.25c3.08,8.47,3.7,11.86,6.24,25.18,1.7,8.94,5.39,21.68,6.9,30.24,0,0-1.95-.16-4.42-1.08-1.82-.67-4.15-.94-5.96-2.67,0,0-1.72-6.52-5.61-26.93-1.32-6.93-3.21-13.92-3.4-16.92-.21-3.49-6.57.21-3.02,15.67,1.2,5.21-8.5-8.26-8.5-8.26l-4.25-22.46,22.01,7.23Z"/>
      </g>
      <g>
        <path class="cls-11" d="M27.6,95.31c-.46,7.48-2.97,11.32-3.84,10.82-.81-.46.77-4.25.25-4.54-.36-.2-1.48,2.39-2.07,4.59-.57,2.11-1.5,4.69-2.32,4.52-.88-.18-1.35-2.86-1.34-3.26.03-2.41.47-3.48.59-3.93,1.02-3.85,1.96-8.99,4.14-10.33.93-.57,4.65,1.25,4.59,2.14Z"/>
        <path class="cls-10" d="M29.55,49.85c-3.08,8.47-2.09,10.26-4.63,23.58-1.7,8.94-5.39,21.68-6.9,30.24,0,0,1.95-.16,4.42-1.08,1.82-.67,4.15-.94,5.96-2.67,0,0,1.72-6.52,5.61-26.93,1.32-6.93,3.21-13.92,3.4-16.92.21-3.49,6.57.21,3.02,15.67-1.2,5.21,8.5-8.26,8.5-8.26l4.25-22.46-23.62,8.83Z"/>
      </g>
      <path d="M60.07,2.42c-1.56-.96-7.89-2.42-7.89-2.42,0,0-6.33,1.46-7.89,2.42s-2.48,14.23-2.51,14.93c-.27,7.74,4.15,4.9,7.31,1.92,2.27,1.54,13.86,8.88,13.48-1.92-.02-.7-.94-13.97-2.51-14.93Z"/>
      <ellipse class="cls-3" cx="51.97" cy="191.01" rx="51.97" ry="10.14"/>
      <path d="M66.49,75.53s18.37,77.41,23.87,106.03c0,0-.65,7.02-12.22,8.21,0,0-10.15,9.78-26.18,5.4l-14.52-119.64h29.04Z"/>
      <path class="cls-10" d="M38.15,78.64s-19.06,74.3-24.57,102.92c0,0,.65,7.02,12.22,8.21,0,0,10.15,9.78,26.18,5.4l-.06-101.62-13.76-14.91Z"/>
      <path d="M37.45,75.53s1.79-6.16,1.7-3.21c-.03.97-1.88,10.15-1.93,11.31-.21,4.58-.62,10.35-1.39,15.25-3.44,21.96-14.1,57.74-17.08,88.97,0,0-4.01-.86-5.17-6.29-1.16-5.43,23.87-106.03,23.87-106.03Z"/>
      <path d="M41.81,44.81c0,6.12,1.07,12.41-4.35,16.57v14.16c7.89,1.97,14.52,1.81,14.52,1.81v-44.24c-5.32,0-10.17,4.82-10.17,11.71Z"/>
      <path d="M62.14,44.81c0,6.12-1.07,12.41,4.35,16.57v14.16c-7.89,1.97-14.52,1.81-14.52,1.81v-44.24c5.32,0,10.17,4.82,10.17,11.71Z"/>
      <path d="M25.8,189.77l10.28-61.8s-3.4,48.64,3.46,53.9c7.38,5.66,12.44-9.25,12.44-104.53,0,0,6.8,91.11,7.39,92.08s-6.65,25.56-7.39,25.75c-.74.19-14.04,4.92-26.18-5.4Z"/>
      <path class="cls-10" d="M49.68,151.33l1.74-13.86s2.54,34.67,11.66,34.67-.49-63.8-.49-72.05c0,0,11.8,72.96,19.36,72.96s-16.05-94.01-16.05-94.01c-18.09,6.68-28.12-.95-28.12-.95,0,0,5.22,74.89,11.91,73.23Z"/>
      <path class="cls-10" d="M55.46,61.38c5.42,6.88,11.04,4.17,11.04,4.17v7.32c-1.5,2.5-8.01,4.95-14.52,5.23v-22.87s1.19,3.24,3.48,6.16Z"/>
      <path class="cls-10" d="M48.49,61.38c-5.42,6.88-11.04,4.17-11.04,4.17v7.32c1.5,2.5,8.01,4.95,14.52,5.23v-22.87s-1.19,3.24-3.48,6.16Z"/>
      <path class="cls-9" d="M66.49,72.33c-4.58,2.07-9.55,3.09-14.52,3.08v4.23c4.94.04,9.87-.98,14.74-3.18.61-1.03.33-2.92-.22-4.12Z"/>
      <path class="cls-9" d="M37.45,72.33c4.58,2.07,9.55,3.09,14.52,3.08v4.23c-4.94.04-9.87-.98-14.74-3.18-.61-1.03-.33-2.92.22-4.12Z"/>
      <circle class="cls-7" cx="38.89" cy="75.08" r=".78"/>
      <path class="cls-7" d="M46.28,77c0,.43-.35.78-.78.78s-.78-.35-.78-.78.35-.78.78-.78.78.35.78.78Z"/>
      <path class="cls-7" d="M64.28,75.08c0,.43.35.78.78.78s.78-.35.78-.78-.35-.78-.78-.78-.78.35-.78.78Z"/>
      <circle class="cls-7" cx="58.45" cy="77" r=".78"/>
      <circle class="cls-7" cx="51.97" cy="77.6" r=".78"/>
      <path class="cls-10" d="M60.81,17.07c0,5.94-3.94,12.27-8.8,12.27s-8.8-6.34-8.8-12.27,3.94-10.75,8.8-10.75,8.8,4.81,8.8,10.75Z"/>
      <path class="cls-11" d="M52.01,5.37c-4.8,0-8.8,3.92-8.8,9.85,0,7.33,4.28,2.59,8.8,2.59,4.52,0,8.8,4.74,8.8-2.59,0-5.93-4-9.85-8.8-9.85Z"/>
      <path class="cls-6" d="M57.85,15.96s-2.33-1.44-4.07.71l4.07-.71Z"/>
      <g>
        <path d="M55.96,12.94c2.66-.33,2.87,1.88,2.87,1.88-1.24-2.31-3.29-.57-4.76-.64-1-.05-1.13-.87,1.88-1.24Z"/>
        <path class="cls-6" d="M53.81,16.44s.12-1.79,2.51-2.1c1.81-.23,1.61,1.85,1.61,1.85,0,0-2.15-1.69-4.13.25Z"/>
        <path class="cls-4" d="M53.81,16.44s.07.35,1.63.82c1.4.42,2.49-1.07,2.49-1.07,0,0-.8-.84-2.38-.73-1.41.1-1.74.98-1.74.98Z"/>
        <g>
          <path class="cls-2" d="M56.89,16.41c-.05.56-.53.97-1.08.92-.55-.05-.96-.54-.91-1.09.05-.56.53-.97,1.08-.92.55.04.96.54.91,1.09Z"/>
          <path class="cls-4" d="M55.53,16.13c-.01.12-.11.21-.23.19-.12,0-.2-.11-.19-.23.01-.12.11-.21.23-.2.12.01.2.11.19.23Z"/>
          <path class="cls-1" d="M56.47,16.92c-.01.12-.11.21-.23.2-.12,0-.2-.11-.19-.23,0-.12.11-.21.23-.2.12.01.2.12.19.23Z"/>
          <path d="M56.21,16.38c-.02.17-.17.31-.34.29-.17-.01-.3-.17-.28-.35.01-.18.17-.31.34-.29.17.02.3.17.29.35Z"/>
        </g>
        <path d="M53.81,16.44s.56-1.3,2.06-1.32c1.68-.03,2.07,1.07,2.07,1.07,0,0-2.15-1.69-4.13.25Z"/>
      </g>
      <g>
        <path d="M48.06,12.94c-2.66-.33-2.87,1.88-2.87,1.88,1.24-2.31,3.29-.57,4.76-.64,1-.05,1.13-.87-1.88-1.24Z"/>
        <path class="cls-6" d="M50.2,16.44s-.12-1.79-2.51-2.1c-1.81-.23-1.61,1.85-1.61,1.85,0,0,2.15-1.69,4.13.25Z"/>
        <path class="cls-4" d="M50.2,16.44s-.07.35-1.63.82c-1.4.42-2.49-1.07-2.49-1.07,0,0,.8-.84,2.38-.73,1.41.1,1.74.98,1.74.98Z"/>
        <g>
          <path class="cls-2" d="M47.13,16.41c.05.56.53.97,1.08.92.55-.05.96-.54.91-1.09-.05-.56-.53-.97-1.08-.92-.55.04-.96.54-.91,1.09Z"/>
          <path class="cls-4" d="M48.49,16.13c.01.12.11.21.23.19.12,0,.2-.11.19-.23-.01-.12-.11-.21-.23-.2-.12.01-.2.11-.19.23Z"/>
          <path class="cls-1" d="M47.55,16.92c.01.12.11.21.23.2.12,0,.2-.11.19-.23,0-.12-.11-.21-.23-.2-.12.01-.2.12-.19.23Z"/>
          <path d="M47.81,16.38c.02.17.17.31.34.29.17-.01.3-.17.28-.35-.01-.18-.17-.31-.34-.29-.17.02-.3.17-.29.35Z"/>
        </g>
        <path d="M50.2,16.44s-.56-1.3-2.06-1.32c-1.68-.03-2.07,1.07-2.07,1.07,0,0,2.15-1.69,4.13.25Z"/>
      </g>
      <g>
        <path class="cls-8" d="M46.54,6.83c-2.16,1.79-3.41,4.74-3.46,8.28.71-.82,1.51-1.53,2.38-2.12-.02-1.29.1-3.73,1.08-6.16Z"/>
        <path class="cls-8" d="M52.01,4.96c-.53,0-1.04.04-1.53.12-.33,1.38-.66,3.52-.49,6.1.66-.11,1.33-.17,2.02-.17,3.5,0,6.69,1.5,8.93,4.11-.08-5.91-3.76-10.16-8.93-10.16Z"/>
        <path class="cls-5" d="M50.48,5.07c-1.52.24-2.85.85-3.94,1.76-.98,2.43-1.1,4.87-1.08,6.16,1.36-.92,2.89-1.54,4.53-1.82-.17-2.58.16-4.72.49-6.1Z"/>
      </g>
      <g>
        <path d="M62.57,17.35s-3.34,6-10.56,6l.02,70.45s8.47,1.66,14.3-4.98c5.84-6.64,19.68-10.31,18.79-16.49-1.69-11.71-21.27-39.8-22.56-54.98Z"/>
        <path class="cls-10" d="M60.75,18.41s-1.44,2.85-8.65,2.85l-.05,64.99s6.4,1.43,12.24-5.21c5.84-6.64,11.39-3.86,12.77-9.51,3.71-15.16-18.11-37.39-16.3-53.12Z"/>
      </g>
      <g>
        <path d="M41.78,17.35s2.85,9.17,10.07,9.17l.19,67.28s-8.6,1.66-14.43-4.98c-5.84-6.64-19.68-10.31-18.79-16.49,1.69-11.71,21.68-39.8,22.96-54.98Z"/>
        <path class="cls-10" d="M43.2,18.41s1.44,2.85,8.65,2.85l.18,64.99s-6.53,1.43-12.37-5.21c-5.84-6.64-11.39-3.86-12.77-9.51-3.71-15.16,18.11-37.39,16.3-53.12Z"/>
      </g>
      <path class="cls-8" d="M55.92,23.23c-1.96,0-2.52-1.72-3.91-1.72s-1.94,1.72-3.91,1.72c-1.81,0-3.51-1.92-3.33-1.06,2.08,9.99-.67,18.54,1.43,33.93,1.54,11.28,2.75,15.77,5.81,16.56,3.06-.79,3.89-5.34,5.81-16.56,2.7-15.8-.65-23.94,1.43-33.93.18-.86-1.52,1.06-3.33,1.06Z"/>
    </g>
  </g>
</svg>