<?xml version="1.0" encoding="UTF-8"?>
<svg id="Layer_2" data-name="Layer 2" xmlns="http://www.w3.org/2000/svg" viewBox="0 0 103.95 203.99">
  <defs>
    <style>
      .cls-1 {
        fill: #daded4;
      }

      .cls-2 {
        fill: #58391f;
      }

      .cls-3 {
        fill: #e8e8e9;
      }

      .cls-4 {
        fill: #ad7348;
      }

      .cls-5 {
        fill: #fff;
      }

      .cls-6 {
        fill: #e69960;
      }

      .cls-7 {
        fill: #bb3b22;
      }

      .cls-8 {
        fill: #ff7a9c;
      }

      .cls-9 {
        fill: #8c2c1a;
      }

      .cls-10 {
        fill: #1a1a1a;
      }

      .cls-11 {
        fill: #f3b88d;
      }

      .cls-12 {
        fill: #e55c75;
      }
    </style>
  </defs>
  <g id="_ÎÓÈ_1" data-name="—ÎÓÈ_1">
    <g>
      <ellipse class="cls-3" cx="51.97" cy="193.85" rx="51.97" ry="10.14"/>
      <path class="cls-11" d="M75.96,106.73c0,7.5,2.28,11.48,3.18,11.04.83-.41-.51-4.29.03-4.55.37-.18,1.33,2.48,1.79,4.7.44,2.14,1.21,4.77,2.04,4.65.89-.13,1.52-2.77,1.54-3.18.11-2.41-.26-3.5-.35-3.96-.78-3.91-1.41-9.09-3.5-10.56-.89-.63-4.72.97-4.72,1.86Z"/>
      <path class="cls-11" d="M27.97,106.73c0,7.5-2.28,11.48-3.18,11.04-.83-.41.51-4.29-.03-4.55-.37-.18-1.33,2.48-1.79,4.7-.44,2.14-1.21,4.77-2.04,4.65-.89-.13-1.52-2.77-1.54-3.18-.11-2.41.26-3.5.35-3.96.78-3.91,1.41-9.09,3.5-10.56.89-.63,4.72.97,4.72,1.86Z"/>
      <path class="cls-12" d="M66.51,78.38s18.37,77.41,23.87,106.03c0,0-.65,7.02-12.22,8.21,0,0-10.15,9.78-26.18,5.4l-14.52-119.64h29.04Z"/>
      <path class="cls-8" d="M38.17,81.49s-19.06,74.3-24.57,102.92c0,0,.65,7.02,12.22,8.21,0,0,10.15,9.78,26.18,5.4l-.06-101.62-13.76-14.91Z"/>
      <path class="cls-12" d="M37.47,78.38s1.79-6.16,1.7-3.21c-.03.97-1.88,10.15-1.93,11.31-.21,4.58-.62,10.35-1.39,15.25-3.44,21.96-14.1,57.74-17.08,88.97,0,0-4.01-.86-5.17-6.29-1.16-5.43,23.87-106.03,23.87-106.03Z"/>
      <path class="cls-12" d="M79.95,81.85c-1.73-13.45-1.97-29-4.53-37.64l-.11.02c-.65-1.76-2.35-4.12-6.65-6.07-3.87-1.75-8.43-2.69-9.4-3.83h-14.52c-.98,1.14-5.54,2.08-9.4,3.83-4.31,1.95-6.01,4.31-6.66,6.08l-.16-.03c-2.56,8.64-2.81,24.19-4.53,37.64-1.16,9.03-4.06,21.96-5.05,30.6,0,0,1.93-.28,4.34-1.34,1.78-.78,4.08-1.19,5.78-3.03,0,0,1.33-6.61,3.96-27.23.72-5.63,1.81-11.32,2.21-14.89.85,2.27,2.19,3.23,2.19,3.23l.05-.07v9.26c.66.16,1.3.31,1.94.45-.02.13-.04.26-.06.39-.3,1.81.54,1.34,1.79-.05,6.18,1.13,10.86,1.02,10.86,1.02,0,0,4.66.12,10.82-1.01,1.24,1.39,2.08,1.85,1.78.04-.02-.13-.04-.25-.06-.38.65-.14,1.31-.29,1.98-.46v-9.18s1.34-.97,2.19-3.23c.4,3.57,1.49,9.26,2.21,14.89,2.64,20.62,3.96,27.23,3.96,27.23,1.7,1.84,4.01,2.24,5.78,3.03,2.41,1.06,4.34,1.34,4.34,1.34-.99-8.64-3.89-21.57-5.05-30.6Z"/>
      <path class="cls-12" d="M25.82,192.62l12.84-77.23s-5.97,64.07.89,69.33c7.38,5.66,12.44-9.25,12.44-104.53,0,0,6.8,91.11,7.39,92.08.59.98-6.65,25.56-7.39,25.75-.74.19-14.04,4.92-26.18-5.4Z"/>
      <path class="cls-8" d="M51.93,96.4s.58,6.51,1.83,24.71c.84,12.19.21,53.88,9.34,53.88s.22-57.75.22-66c0,0,11.09,66.91,18.65,66.91s-16.05-94.01-16.05-94.01c-18.09,6.68-28.12-.95-28.12-.95,0,0-1.84,18.93,14.15,15.46Z"/>
      <path class="cls-10" d="M66.51,75.17c-4.58,2.07-9.55,3.09-14.52,3.08v4.23c4.94.04,9.87-.98,14.74-3.18.61-1.03.33-2.92-.22-4.12Z"/>
      <path class="cls-10" d="M37.47,75.17c4.58,2.07,9.55,3.09,14.52,3.08v4.23c-4.94.04-9.87-.98-14.74-3.18-.61-1.03-.33-2.92.22-4.12Z"/>
      <circle class="cls-8" cx="38.91" cy="77.92" r=".78"/>
      <circle class="cls-8" cx="45.51" cy="79.85" r=".78"/>
      <circle class="cls-8" cx="65.08" cy="77.92" r=".78"/>
      <circle class="cls-8" cx="58.47" cy="79.85" r=".78"/>
      <path class="cls-8" d="M52.77,80.45c0,.43-.35.78-.78.78s-.78-.35-.78-.78.35-.78.78-.78.78.35.78.78Z"/>
      <g>
        <path class="cls-10" d="M66.34,21.26c0-9.64-6.24-17.73-14.32-21.26v35.07c7.71-.07,14.32-4.17,14.32-13.82Z"/>
        <path class="cls-10" d="M61.9,8.1s5.96,5.86,11.32,33.01c0,0-2.35-.31-6.16,6.16-5.04,8.55-10.3,9.17-15.09,9.17l.05-52.92,9.89,4.58Z"/>
        <path class="cls-10" d="M37.7,21.26c0-9.64,6.24-17.73,14.32-21.26v35.07c-7.71-.07-14.32-4.17-14.32-13.82Z"/>
        <path class="cls-10" d="M42.13,8.1s-5.96,5.86-11.32,33.01c0,0,2.35-.31,6.16,6.16,5.04,8.55,10.3,9.17,15.09,9.17l-.05-52.92-9.89,4.58Z"/>
      </g>
      <path d="M59.4,11.09s3.19,22.76-22.71,30.62c0,0,13.97,2.88,20.83-6.15,10.09-13.27,1.88-24.47,1.88-24.47Z"/>
      <path d="M43.9,13.07s-5.98,20.77,8.09,20.77c10.74,0-8.09-20.77-8.09-20.77Z"/>
      <path class="cls-6" d="M52.02,6.61c-4.8,0-8.8,3.92-8.8,9.85,0,7.33,4.28,14.15,8.8,14.15,4.52,0,8.8-6.83,8.8-14.15,0-5.93-4-9.85-8.8-9.85Z"/>
      <g>
        <path d="M55.55,14.68c2.61-.62,3.05,1.26,3.05,1.26-1.39-1.69-3.33-.2-4.8-.11-1,.06-1.21-.44,1.74-1.15Z"/>
        <path class="cls-4" d="M53.8,18.11s.27-1.67,1.74-1.97c1.79-.37,2.33,1.26,2.33,1.26,0,0-2.33-1.44-4.07.71Z"/>
        <path class="cls-5" d="M53.8,18.11s.11.34,1.71.63c1.44.26,2.36-1.34,2.36-1.34,0,0-.89-.75-2.45-.46-1.39.25-1.62,1.17-1.62,1.17Z"/>
        <g>
          <path class="cls-2" d="M56.85,17.74c.01.56-.42,1.02-.97,1.03-.55.01-1.01-.43-1.02-.98-.01-.56.42-1.02.97-1.03.55-.02,1.01.43,1.02.98Z"/>
          <path class="cls-5" d="M55.47,17.61c0,.12-.09.22-.21.22-.12,0-.21-.09-.22-.21,0-.12.09-.22.21-.22.12,0,.21.09.22.21Z"/>
          <path class="cls-1" d="M56.49,18.29c0,.12-.09.22-.21.22-.12,0-.21-.09-.22-.21,0-.12.09-.22.21-.22.12,0,.21.09.22.21Z"/>
          <path d="M56.17,17.79c0,.18-.13.32-.31.32-.17,0-.32-.13-.32-.31,0-.18.13-.32.31-.33.17,0,.32.14.32.31Z"/>
        </g>
        <path d="M53.8,18.11s.41-1.35,1.9-1.54c1.66-.22,2.17.84,2.17.84,0,0-2.33-1.44-4.07.71Z"/>
      </g>
      <g>
        <path d="M48.5,14.68c-2.61-.62-3.05,1.26-3.05,1.26,1.39-1.69,3.33-.2,4.8-.11,1,.06,1.21-.44-1.75-1.15Z"/>
        <path class="cls-4" d="M50.25,18.11s-.27-1.67-1.74-1.97c-1.79-.37-2.33,1.26-2.33,1.26,0,0,2.33-1.44,4.07.71Z"/>
        <path class="cls-5" d="M50.25,18.11s-.11.34-1.71.63c-1.44.26-2.36-1.34-2.36-1.34,0,0,.89-.75,2.45-.46,1.39.25,1.62,1.17,1.62,1.17Z"/>
        <g>
          <path class="cls-2" d="M47.2,17.74c-.01.56.42,1.02.97,1.03.55.01,1.01-.43,1.02-.98.01-.56-.42-1.02-.97-1.03-.55-.02-1.01.43-1.02.98Z"/>
          <path class="cls-5" d="M48.58,17.61c0,.12.09.22.21.22.12,0,.21-.09.22-.21,0-.12-.09-.22-.21-.22-.12,0-.21.09-.22.21Z"/>
          <path class="cls-1" d="M47.56,18.29c0,.12.09.22.21.22.12,0,.21-.09.22-.21,0-.12-.09-.22-.21-.22-.12,0-.21.09-.22.21Z"/>
          <path d="M47.88,17.79c0,.18.13.32.31.32.17,0,.32-.13.32-.31,0-.18-.13-.32-.31-.33-.17,0-.32.14-.32.31Z"/>
        </g>
        <path d="M50.25,18.11s-.41-1.35-1.9-1.54c-1.66-.22-2.17.84-2.17.84,0,0,2.33-1.44,4.07.71Z"/>
      </g>
      <path class="cls-4" d="M52.53,22.05c.16-.21.75-.83,1.15-.42.41.41-1.59,1-1.15.42Z"/>
      <path class="cls-4" d="M51.56,22.05c-.16-.21-.75-.83-1.15-.42s1.59,1,1.15.42Z"/>
      <g>
        <g>
          <path class="cls-7" d="M49.11,25.02s.49,1.82,2.91,1.82v-1.69l-2.91-.13Z"/>
          <path class="cls-7" d="M51.29,24.31c-.43,0-1.8.71-2.17.71,0,0,.07.33,1.33.22.96-.08,1,.32,1.58.32v-.97c-.21,0-.3-.29-.74-.29Z"/>
        </g>
        <g>
          <path class="cls-7" d="M54.93,25.02s-.49,1.82-2.91,1.82v-1.69l2.91-.13Z"/>
          <path class="cls-7" d="M52.76,24.31c.43,0,1.8.71,2.17.71,0,0-.07.33-1.33.22-.96-.08-1,.32-1.58.32v-.97c.21,0,.3-.29.74-.29Z"/>
        </g>
        <path class="cls-9" d="M54.93,25.02s-.41.27-1.17.09c-.76-.17-1.17,0-1.74.14v.47s.54-.38,1.78-.25c.83.09,1.13-.45,1.13-.45Z"/>
        <path class="cls-9" d="M49.11,25.02s.41.27,1.17.09c.76-.17,1.17,0,1.74.14v.47s-.54-.38-1.78-.25c-.83.09-1.13-.45-1.13-.45Z"/>
      </g>
      <path d="M65.08,24.94s4.93,23.72-21.55,23.72c0,0,6.54,6.61,14.34,2.92s13.4-14.25,7.21-26.63Z"/>
      <path class="cls-8" d="M74.01,42c-2.11,0-4.06,2.91-4.51,3.76-2.48,4.67-6.18,11.65-17.54,11.65s-15.06-6.99-17.54-11.65c-.45-.85-2.39-3.76-4.51-3.76,0,0-2.11,1.89-1.64,4.82h0s7.74.57,7.74,12.65c0,4.94,3.22,8.31,7.46,8.31s7.63-3.39,7.68-7.59c.27-.04.54-.07.81-.07.27,0,.54.03.81.07.05,4.2,3.47,7.59,7.68,7.59s7.46-3.37,7.46-8.31c0-12.08,7.74-12.65,7.74-12.65h0c.47-2.93-1.64-4.82-1.64-4.82Z"/>
      <g>
        <path class="cls-12" d="M46.67,8.44c-2.13,1.77-3.36,4.67-3.41,8.16.7-.81,1.48-1.51,2.35-2.09-.02-1.27,2.37-3.56,1.06-6.07Z"/>
        <path class="cls-12" d="M52.07,6.59c-.52,0-1.02.04-1.51.12-.32,1.36-3.36,3.9-.48,6.01.65-.11,1.31-.17,1.99-.17,3.44,0,6.59,1.48,8.8,4.05-.08-5.83-3.7-10.01-8.8-10.01Z"/>
        <path class="cls-8" d="M50.56,6.7c-1.5.24-2.81.84-3.89,1.73-.96,2.39-1.08,4.8-1.06,6.07,1.34-.9,2.85-1.51,4.46-1.79-.17-2.54.16-4.66.48-6.01Z"/>
      </g>
    </g>
  </g>
</svg>