<?xml version="1.0" encoding="UTF-8"?>
<svg id="Layer_2" data-name="Layer 2" xmlns="http://www.w3.org/2000/svg" viewBox="0 0 71.32 71.32">
  <defs>
    <style>
      .cls-1 {
        fill: #fff;
      }

      .cls-2 {
        fill: #ff5c8e;
      }

      .cls-3 {
        fill: #282828;
      }

      .cls-4 {
        fill: #ffd215;
      }
    </style>
  </defs>
  <g id="Layer_8" data-name="Layer 8">
    <g>
      <g>
        <circle class="cls-1" cx="35.66" cy="35.66" r="30.16"/>
        <path class="cls-1" d="M35.66,71.32C16,71.32,0,55.32,0,35.66S16,0,35.66,0s35.66,16,35.66,35.66-16,35.66-35.66,35.66ZM35.66,11c-13.6,0-24.66,11.06-24.66,24.66s11.06,24.66,24.66,24.66,24.66-11.06,24.66-24.66-11.06-24.66-24.66-24.66Z"/>
      </g>
      <g>
        <g>
          <circle class="cls-4" cx="35.66" cy="35.66" r="30.16" transform="translate(-11.08 16.72) rotate(-22.94)"/>
          <path class="cls-3" d="M35.66,66.2c-16.84,0-30.54-13.7-30.54-30.54S18.82,5.12,35.66,5.12s30.54,13.7,30.54,30.54-13.7,30.54-30.54,30.54ZM35.66,5.88c-16.42,0-29.79,13.36-29.79,29.79s13.36,29.79,29.79,29.79,29.79-13.36,29.79-29.79S52.08,5.88,35.66,5.88Z"/>
        </g>
        <g>
          <g>
            <path class="cls-2" d="M35.66,58.53c-5.11,0-9.91-1.99-13.53-5.6-1.74-1.74-1.74-4.56,0-6.29,1.74-1.74,4.56-1.74,6.29,0,1.93,1.93,4.5,2.99,7.23,2.99s5.3-1.06,7.23-2.99c1.74-1.74,4.56-1.74,6.29,0,1.74,1.74,1.74,4.56,0,6.29-3.61,3.61-8.42,5.6-13.53,5.6Z"/>
            <path class="cls-3" d="M35.66,58.91c-5.21,0-10.11-2.03-13.79-5.71-.91-.91-1.41-2.12-1.41-3.41s.5-2.5,1.41-3.41c1.88-1.88,4.94-1.88,6.83,0,1.86,1.86,4.33,2.89,6.97,2.89s5.1-1.02,6.96-2.89c1.88-1.88,4.94-1.88,6.83,0,.91.91,1.41,2.12,1.41,3.41s-.5,2.5-1.42,3.41c-3.68,3.68-8.58,5.71-13.79,5.71ZM25.28,45.71c-1.04,0-2.09.4-2.88,1.19-1.59,1.59-1.59,4.17,0,5.76,3.54,3.54,8.25,5.49,13.26,5.49s9.72-1.95,13.26-5.49c.77-.77,1.2-1.79,1.2-2.88s-.42-2.11-1.19-2.88c-1.59-1.59-4.17-1.59-5.76,0-2,2-4.66,3.1-7.5,3.1s-5.49-1.1-7.5-3.1c-.79-.79-1.84-1.19-2.88-1.19Z"/>
          </g>
          <path class="cls-3" d="M35.66,54.45c-4.02,0-7.8-1.57-10.64-4.41-.11-.11-.14-.27-.08-.41.06-.14.2-.23.35-.23h20.76c.15,0,.29.09.35.23.06.14.03.3-.08.41-2.84,2.84-6.62,4.41-10.64,4.41ZM26.23,50.16c2.61,2.29,5.92,3.55,9.43,3.55s6.82-1.25,9.43-3.55h-18.86Z"/>
        </g>
        <g>
          <g>
            <path class="cls-3" d="M26.81,25.14c1.98-2.51,4.15-3.73,5.77-4.33,0,0,0-.01,0-.02,1.08-4.19.46-6.33-.92-6.63-4.7-1.03-12.17,11.94-11.11,19.66.82,5.94,5.47,8.91,9.14,4.53,2.63-3.13,1.58-8.75,2.33-14.6-2.7.36-5.21,1.39-5.21,1.39Z"/>
            <path class="cls-3" d="M25.92,40.82c-.38,0-.76-.05-1.14-.16-2.31-.67-4.12-3.33-4.59-6.78-.81-5.92,3.12-14.53,7.18-18.28,1.58-1.46,3.1-2.08,4.38-1.8.51.11.94.43,1.23.91.72,1.18.71,3.31-.03,6.18-.03.12-.12.23-.24.28-1.24.46-2.98,1.36-4.67,3.14,1-.32,2.44-.73,3.94-.92.12-.01.23.02.31.11.08.08.12.2.11.31-.24,1.88-.29,3.72-.35,5.5-.11,3.8-.2,7.08-2.07,9.29-1.23,1.46-2.64,2.23-4.07,2.23ZM31.12,14.48c-.94,0-2.05.57-3.24,1.67-3.84,3.55-7.71,12.02-6.94,17.62.44,3.16,2.03,5.58,4.06,6.16,1.5.43,3.08-.21,4.43-1.82,1.7-2.02,1.79-5.18,1.89-8.83.05-1.65.1-3.34.29-5.08-2.43.39-4.62,1.28-4.64,1.29-.16.07-.34.01-.44-.12-.1-.14-.1-.32,0-.46,2-2.53,4.19-3.77,5.75-4.38.86-3.42.41-4.87.07-5.43-.19-.31-.45-.51-.75-.57-.15-.03-.31-.05-.47-.05Z"/>
          </g>
          <g>
            <path class="cls-3" d="M44.55,25.14c1.98-2.51,4.15-3.73,5.77-4.33,0,0,0-.01,0-.02,1.08-4.19.46-6.33-.92-6.63-4.7-1.03-12.17,11.94-11.11,19.66.82,5.94,5.47,8.91,9.14,4.53,2.63-3.13,1.58-8.75,2.33-14.6-2.7.36-5.21,1.39-5.21,1.39Z"/>
            <path class="cls-3" d="M43.65,40.82c-.38,0-.76-.05-1.14-.16-2.31-.67-4.11-3.33-4.59-6.78-.81-5.92,3.12-14.53,7.18-18.28,1.58-1.46,3.1-2.08,4.38-1.8.51.11.94.43,1.23.91.72,1.18.71,3.31-.03,6.18-.03.12-.12.23-.24.28-1.24.46-2.98,1.36-4.67,3.14,1-.32,2.44-.73,3.94-.92.12-.01.23.02.31.11.08.08.12.2.11.31-.24,1.88-.3,3.72-.35,5.5-.11,3.8-.2,7.08-2.07,9.29-1.23,1.46-2.64,2.23-4.07,2.23ZM48.85,14.48c-.94,0-2.05.57-3.24,1.67-3.84,3.55-7.71,12.02-6.94,17.62.43,3.16,2.03,5.58,4.05,6.16,1.5.43,3.08-.21,4.43-1.82,1.69-2.02,1.79-5.18,1.89-8.83.05-1.65.1-3.34.29-5.09-2.43.39-4.62,1.28-4.64,1.29-.16.07-.34.02-.44-.12-.1-.14-.1-.32,0-.46,2-2.53,4.19-3.77,5.75-4.38.86-3.42.42-4.87.07-5.43-.19-.31-.45-.51-.76-.57-.15-.03-.31-.05-.47-.05Z"/>
          </g>
        </g>
      </g>
    </g>
  </g>
</svg>