<?xml version="1.0" encoding="UTF-8"?>
<svg id="Layer_2" data-name="Layer 2" xmlns="http://www.w3.org/2000/svg" xmlns:xlink="http://www.w3.org/1999/xlink" viewBox="0 0 357.03 357.03">
  <defs>
    <style>
      .cls-1 {
        fill: none;
      }

      .cls-2 {
        fill: #f9f5ee;
      }

      .cls-3 {
        fill: #b4b6da;
      }

      .cls-4 {
        fill: #fdcb11;
      }

      .cls-5 {
        fill: url(#New_Pattern_6);
      }

      .cls-6 {
        fill: #facee2;
      }

      .cls-7 {
        fill: #b9d5ea;
      }

      .cls-8 {
        fill: #cd9eca;
      }

      .cls-9 {
        fill: #ff7d9a;
      }

      .cls-10 {
        fill: #a8d6d0;
      }

      .cls-11 {
        fill: #ffe280;
      }

      .cls-12 {
        fill: #f9a77a;
      }

      .cls-13 {
        fill: #ffd4cb;
      }

      .cls-14 {
        fill: #fcc1a2;
      }
    </style>
    <pattern id="New_Pattern_6" data-name="New Pattern 6" x="0" y="0" width="1200" height="1200" patternTransform="translate(-4512.57 -5873.46) scale(.3)" patternUnits="userSpaceOnUse" viewBox="0 0 1200 1200">
      <g>
        <rect class="cls-1" y="0" width="1200" height="1200"/>
        <g>
          <path class="cls-14" d="M883.74,1165.43c-2.26-5.21-9.28-8.55-14.63-5.76-20.44,10.67-38.43,25.6-49.84,45.88-11.87,21.1-14.62,46.46-6.13,69.26,4.99,13.4,25.38,4.53,20.39-8.86-13.4-35.96,14.13-70.06,44.44-85.89,5.32-2.78,8.27-8.84,5.76-14.63Z"/>
          <path class="cls-7" d="M714.93,1152.1c17.98,3.81,32.57,17.35,35.45,35.71.86,5.48-4.36,10.54-9.5,10.89-5.86.4-10.03-4.05-10.89-9.5-1.27-8.05-8.97-13.95-16.3-16.35-10.38-3.39-21.7-.21-31.25,4.21-17.42,8.06-32.93,21.94-44.6,37.42,25.46,21.23,33.06,60.26,27.05,92.22-3.85,20.48-13.83,39.58-30.03,52.9-15.54,12.77-36.57,18.72-56.38,14.77-12.91-2.57-8.84-22.61,4.08-20.03,17.74,3.53,35.74-4.6,47.2-18.14,12.26-14.48,17.1-34.33,16.68-52.99-.39-17.04-4.77-35.09-16.54-48-1.01-1.11-2.09-2.18-3.21-3.21-7.3,13.36-13.88,27.5-26.83,36.16-13.3,8.89-34.31,9.77-45.88-2.56-15.3-16.29-5.11-41.14,9.68-53.74,15.36-13.08,36.34-15.28,54.9-8.49.58.21,1.14.46,1.71.68,10.56-14.56,23.96-27.28,38.96-37.17,16.09-10.61,36.09-18.93,55.69-14.77ZM605.38,1228.52c1.25-2.32,2.51-4.62,3.8-6.91-6.05-1.96-12.47-2.51-18.73-.98-6.94,1.7-13.22,5.48-17.82,10.96-3.87,4.61-7.37,12.04-5.13,18.08.58,1.56,1.39,2.36,3.4,3.37,1.5.75,4.62,1.36,5.98,1.37,5.85.05,10.17-1.5,14.64-5.62,6.08-5.6,10.01-13.08,13.87-20.27Z"/>
        </g>
        <path class="cls-12" d="M1378.21,537.26c-5.03,17.68-19.52,31.31-38.03,32.94-5.53.49-10.22-5.07-10.22-10.22,0-5.87,4.72-9.74,10.22-10.22,8.12-.72,14.53-8,17.42-15.15,4.09-10.13,1.68-21.64-2.08-31.46-6.86-17.93-19.65-34.34-34.3-47.04-22.91,23.96-62.36,28.89-93.84,20.72-20.17-5.23-38.55-16.48-50.73-33.55-11.69-16.37-16.19-37.75-10.91-57.25,3.44-12.7,23.16-7.28,19.71,5.43-4.73,17.46,2.16,35.97,14.89,48.32,13.61,13.22,33.09,19.4,51.73,20.24,17.03.77,35.33-2.37,49.01-13.24,1.17-.93,2.32-1.93,3.42-2.99-12.83-8.19-26.5-15.72-34.25-29.22-7.97-13.88-7.41-34.89,5.67-45.6,17.29-14.16,41.39-2.31,52.96,13.31,12.01,16.21,12.78,37.29,4.74,55.35-.25.57-.53,1.1-.8,1.66,13.81,11.53,25.59,25.76,34.44,41.4,9.49,16.78,16.43,37.29,10.96,56.56ZM1309.42,422.77c2.23,1.4,4.44,2.82,6.64,4.26,2.37-5.9,3.35-12.27,2.25-18.62-1.22-7.04-4.57-13.57-9.72-18.52-4.34-4.18-11.51-8.17-17.69-6.35-1.59.47-2.45,1.23-3.59,3.16-.85,1.45-1.67,4.51-1.78,5.87-.45,5.83.81,10.25,4.62,14.99,5.18,6.45,12.37,10.87,19.28,15.21Z"/>
        <g>
          <path class="cls-9" d="M277.92,396.68c-5.04,3.84-5.44,10.56-2.1,15.57,18.44,27.71,28.54,61.01,28.64,94.31.1,34.84-11.95,67.77-34.64,94.18-15.48,18.01-34.63,32.47-54.23,45.69-11.86,8.01,1.65,25.66,13.47,17.68,36.21-24.43,70.48-54.64,86.51-96.4,13.58-35.39,13.91-74.46,4.31-110.85-5.47-20.72-14.51-40.25-26.38-58.08-3.33-5-11.02-5.58-15.57-2.1Z"/>
          <path class="cls-11" d="M102.77,1305.5c4.14-4.79,3.16-11.45-1.13-15.67-23.73-23.34-40.44-53.87-47.35-86.44-7.24-34.08-2.19-68.78,14.61-99.28,11.46-20.8,27.25-38.88,43.72-55.83,9.97-10.27-6.87-24.77-16.81-14.54-30.44,31.33-57.79,67.92-64.92,112.08-6.04,37.42,1.64,75.74,18.49,109.38,9.6,19.16,22.45,36.42,37.72,51.44,4.28,4.21,11.93,3.2,15.67-1.13Z"/>
          <path class="cls-6" d="M574.21,352.58c-18.06,11.98-43.82,10.44-60.94-2.43-17.58-13.21-25.7-37.88-18.35-58.86,6.48-18.52,23.69-32.05,42.98-34.22,1.78-1.82,4.34-2.99,7.69-2.91,24.09.6,47.35,18.03,52.03,42.26,4.15,21.5-5.12,44.03-23.41,56.16ZM574.49,296.19c-3.83-9.45-12.53-16.5-22.33-18.91-1.67,1.19-3.85,1.88-6.54,1.75-14.62-.69-28.91,9.42-30.93,24.45-1.73,12.88,4.86,26.04,16.54,31.8,11.15,5.5,25.85,4.17,34.98-4.54,9.05-8.63,13.06-22.73,8.27-34.55Z"/>
          <path class="cls-11" d="M823.51,445.38c-23.47,5.9-47.33,10.07-71.46,12.1-8.4.71-21.43,3.66-28.97-1.53-6.04-4.17-7.88-13.11-9.34-19.81-10.35-47.57-15.87-96.73-19.85-145.2-2.29-27.87-3.71-55.8-4.34-83.76-.32-14.28-22.55-14.33-22.22,0,1.21,54.02,5.57,107.89,12.89,161.43,3.45,25.22,6.68,50.99,12.62,75.77,2.38,9.91,6.46,20.37,14.35,27.23,9.11,7.91,20.64,9.55,32.32,8.99,30.26-1.45,60.55-6.4,89.9-13.78,13.86-3.48,7.99-24.92-5.91-21.43Z"/>
          <path class="cls-10" d="M650.42,463.41c-21.44-12.94-44.46-25.71-69.61-29.25-25.65-3.6-49.31,4.49-67.72,22.66-17.28,17.05-30.33,39.12-42.99,59.67-13.53,21.96-25.95,44.62-37.18,67.84-12.97,26.8-24.38,54.36-34.25,82.44-1.99,5.66,2.28,12.16,7.78,13.66,6.14,1.68,11.66-2.1,13.66-7.78,15.91-45.27,36.15-88.91,60.4-130.32,11.57-19.76,23.65-39.84,37.78-57.9,12.79-16.35,28.79-29.34,50.5-29.09,25.46.3,49.29,14.51,70.44,27.27,12.28,7.41,23.44-11.82,11.19-19.21Z"/>
          <path class="cls-3" d="M914.66,655.5c-47.34-16.66-93.15-37.36-136.94-61.88-7.61-4.26-8.34-13.98-1.38-19.28,12.59-9.59,25.9-18.2,39.77-25.78,1.34-2.18,3.43-3.97,5.94-5.11,9.24-4.19,18.48-8.38,27.72-12.58,7.6-3.45,15.24-7.57,23.37-9.68,8-2.08,16.5-2.33,24.01,1.61,9.35,4.89,13.94,14.6,17.89,23.85,13.55,31.75,18.36,66.58,15.33,100.87-.69,7.86-9.63,10.13-15.71,7.99ZM886.97,542.51c-.99.75-2.18,1.37-3.6,1.81-28.54,8.68-55.36,21.46-80,38.02,34.18,18.21,69.53,34.12,105.81,47.64.31-23.68-3.99-47.38-12.48-69.49-1.95-5.07-4.33-14.45-9.12-17.63-.2-.13-.4-.24-.61-.35Z"/>
          <path class="cls-12" d="M683.57,721.72c-15.77,14.34-39.16,15.93-58.04,7.13-19.94-9.3-29.91-30.33-26.23-51.7,3.47-20.19,19.49-38.8,40.03-42.61,2.68-.5,5.38-.22,7.69.8,19.79-3.87,40.29,10.93,47.88,30.43,7.21,18.52,3.77,42.23-11.33,55.95ZM673.94,672.9c-1.73-4.48-5.45-9.61-9.39-12.29-4.15-2.83-12.34-6.11-16.97-2.44-3.81,3.01-8.66,4.19-12.84,2.09-8.02,5.3-13.47,14.37-14.06,23.89-.74,11.84,5.9,21.55,16.48,25.62,11.06,4.26,23.86,3.22,32.14-5.17,7.94-8.03,8.74-21.09,4.65-31.7Z"/>
          <path class="cls-6" d="M1091.59,334.11c-10.76-38.14-33.76-73.72-69.42-92.69-19.59-10.42-42.1-15.78-64.27-13.06-5.96.73-11.11,4.59-11.11,11.11,0,5.44,5.11,11.85,11.11,11.11,34.4-4.22,67.69,12.89,88.36,40.04,22.53,29.59,30.74,67.43,31.45,103.96.47,24.36-2.05,48.64-5.24,72.75-.79,5.96,5.67,11.11,11.11,11.11,6.66,0,10.32-5.13,11.11-11.11,5.84-44.15,9.14-89.79-3.11-133.22Z"/>
          <path class="cls-8" d="M979.74,404.58c-14.08,13.82-36.6,14.99-52.71,3.92-7.07-4.85-12.42-11.7-15.36-19.28-.59-.93-1.07-2-1.41-3.23-5.87-21.52,6.52-45.22,27.78-52.28,18.13-6.02,39.28,2.96,49.16,18.85,10.18,16.38,6.02,38.79-7.46,52.01ZM970.7,373.3c.05-11.44-11.79-20.35-22.54-19.19-5.13.55-9.35,3.29-12.33,7.06.31,3.23-.83,6.58-3.08,9.23-1.03,1.21-1.55,2.68-1.72,4.24-.03,1.85.18,3.69.66,5.44.02.08.03.15.05.23.67,2.05,1.71,3.96,2.83,5.41,3.52,4.54,9.34,7.54,15.04,8.15,11.35,1.21,21.05-9.16,21.1-20.57Z"/>
          <path class="cls-12" d="M832.72,267.02c-14.85,3.16-30.5-4.47-39.63-16.12-10.18-12.99-12.78-31.05-10.44-47.02,2.77-18.94,13.16-36.7,11.68-56.29-1.33-17.54-10.29-34.22-27.8-39.88-13.64-4.41-19.49,17.05-5.91,21.43,14.22,4.59,12.19,25.47,9.23,36.83-5.13,19.64-11.91,37.87-9.59,58.59,2.14,19.09,10.12,37.69,25.22,50.08,14.99,12.3,34.02,17.89,53.14,13.81,13.98-2.98,8.06-24.41-5.91-21.43Z"/>
          <path class="cls-10" d="M1232.7,632.1c-2.79-10.93-5.48-21.78-11.27-31.56-9.63-16.28-25.75-28.46-43.71-33.88-18.45-5.56-38.38-4.86-55.54,4.19-9.91,5.23-18.74,12.54-29.28,16.54-7.26,2.76-15.29,3.68-23.03,2.97-19.19-1.76-36.26-11.98-46.28-28.7-3.09-5.15-11.26-5.21-15.48-1.85-5.14,4.1-4.81,10.42-1.71,15.58,19.83,33.09,66.14,47.02,100.39,30.18,10.53-5.18,19.67-12.99,30.64-17.31,7.2-2.83,15.15-3.62,22.83-2.77,16.51,1.84,32.4,10.69,41.6,24.89,5.85,9.03,7.77,20.04,10.52,30.26,3.68,13.68,8.48,25.56,18.79,35.58,4.3,4.18,12.19,2.14,15.39-2.22,3.9-5.29,1.99-11.34-2.32-15.53-6.86-6.67-9.24-17.44-11.52-26.37Z"/>
          <path class="cls-4" d="M1073.43,868.72c-2.42-9.59-5.38-19.05-8.74-28.35-6.97-19.25-15.57-37.89-25.05-56.02-10.47-20.03-22-39.48-33.55-58.9-7.3-12.28-26.52-1.12-19.19,11.22,18.62,31.32,37.61,62.87,51.38,96.7,6.97,17.12,13.04,34.97,16.4,53.19,1.58,8.58.71,16.05-3.95,23.47-4.55,7.24-10.63,13.6-16.41,19.85-14.06,15.19-29.52,29.13-46.21,41.38-4.83,3.55-7.24,9.64-3.99,15.2,2.79,4.77,10.34,7.56,15.2,3.99,16.36-12.01,31.81-25.17,45.91-39.77,13.47-13.96,29.66-29.8,32.08-49.97,1.29-10.73-1.26-21.61-3.88-31.97Z"/>
          <path class="cls-6" d="M922.17,744.69c-19.14-11.4-42.29-13.28-62.9-4.73-17.72,7.35-30.72,22.42-41.43,37.8-10.35,14.88-19.12,31.4-32.17,44.18-11.83,11.58-27.31,18.41-43.89,19.2-18.33.87-37.36-4.61-50.9-17.32-4.37-4.1-10.93-5.14-15.69-.9-4.17,3.72-5.3,11.57-.9,15.69,28.12,26.39,72.01,32.54,106.3,14.47,17.21-9.07,29.68-24.14,40.45-39.97,10.17-14.96,19.08-31.53,32.82-43.61,15.61-13.73,37.87-17.12,56.1-6.26,12.27,7.31,24.54-11.23,12.24-18.56Z"/>
          <path class="cls-9" d="M1236.07,751.03c-1.51-5.48-7.99-9.77-13.67-7.76-21.73,7.69-41.65,19.94-55.8,38.42-14.72,19.22-21.01,43.95-15.81,67.71,3.06,13.97,24.49,8.06,21.43-5.91-8.21-37.48,23.84-67.38,56.08-78.78,5.66-2,9.43-7.59,7.76-13.67Z"/>
          <path class="cls-6" d="M121.47,211.54c-.73-5.63-6.55-10.79-12.46-9.59-22.59,4.59-44.01,13.96-60.6,30.28-17.25,16.98-26.92,40.6-25.07,64.85,1.09,14.26,23.13,11.38,22.04-2.87-2.92-38.26,32.98-63.41,66.49-70.22,5.88-1.19,10.4-6.2,9.59-12.46Z"/>
          <path class="cls-14" d="M883.74-34.57c-2.26-5.21-9.28-8.55-14.63-5.76-20.44,10.67-38.43,25.6-49.84,45.88-11.87,21.1-14.62,46.46-6.13,69.26,4.99,13.4,25.38,4.53,20.39-8.86-13.4-35.96,14.13-70.06,44.44-85.89,5.32-2.78,8.27-8.84,5.76-14.63Z"/>
          <path class="cls-4" d="M1187.93,909.65c-14.3,0-14.32,22.22,0,22.22s14.32-22.22,0-22.22Z"/>
          <path class="cls-4" d="M567.58,897.3c-8.98,20.35-32.23,33.51-54.21,32.04-24.72-1.65-45.79-15.88-63.48-32.25-3.28-3.04-6.53-6.22-9.72-9.54-15.01,15.99-26.9,34.28-44.96,47.33-17.49,12.64-38.65,19.8-60.07,21.55-42.67,3.49-84.38-18.83-107.37-54.47-7.78-12.07,11.46-23.2,19.19-11.22,26.65,41.31,81.82,55.68,125.16,32.38,21.44-11.53,34.29-31.17,50.13-48.86,1.09-1.21,2.2-2.4,3.33-3.57-23.52-30.33-38.52-68.17-23.25-105.71,2.27-5.58,7.31-9.51,13.67-7.76,5.3,1.46,10.02,8.11,7.76,13.67-9.58,23.53-4.48,48.93,8.08,70.32,3.03,5.15,6.44,10.23,10.17,15.15,12.44-9.08,26.5-15.83,41.63-19.56,21.25-5.24,45.32-5.27,64.72,6.07,19.19,11.21,28.43,33.58,19.23,54.43ZM543.8,867.27c-11.37-11.94-30.89-13.13-46.21-10.68-14.86,2.38-28.89,8.1-41.08,16.63,7.42,7.59,15.49,14.48,23.84,20.31,14.84,10.35,34.81,19.12,52.23,9.65,13.06-7.11,23.05-23.47,11.22-35.9Z"/>
          <path class="cls-10" d="M333.23,63.44c-12.52-4.14-17.88,15.59-5.43,19.71,19.45,6.44,29.68,28.93,27.01,48.35-3.18,23.14-20.9,41.63-40.71,52.33-23.94,12.93-50.74,15.08-77.1,19.23-25.23,3.97-48.82,13.63-62.78,36.1-13.6,21.89-15.23,50.02-3.67,73.05,5.9,11.76,23.54,1.42,17.65-10.32-8.97-17.87-5.6-40.61,6.34-56.37,15.57-20.55,43.56-22.16,67.05-25.38,27.18-3.73,54.87-10.97,77.05-27.84,20.54-15.62,35.93-38.99,36.96-65.33,1.07-27.53-15.94-54.77-42.38-63.52Z"/>
          <path class="cls-3" d="M1188.59,168.86c-7.75-38.13-19.99-75.14-35.86-110.65-2.25-5.04-9.59-6.24-13.98-3.67-5.19,3.03-5.93,8.92-3.67,13.98,13.83,30.94,24.44,63.33,31.81,96.4,1.54,6.92,4.48,15.25,3.46,22.44-.83,5.84-7.29,7.91-11.95,10.17-15.46,7.5-31.21,14.41-47.19,20.73-5.13,2.03-8.71,6.84-7.14,12.57,1.34,4.88,7.41,9.18,12.57,7.14,18.21-7.2,36.25-14.96,53.82-23.63,8.16-4.03,15.4-9.26,18.64-18.12,3.23-8.84,1.32-18.45-.49-27.36Z"/>
          <path class="cls-9" d="M991.59,171.15c-6.23,1.43-12.17-1.06-18.08-2.87-24.73-7.57-49.45-15.14-74.18-22.71-6.26-1.92-12.71-3.59-15.38-10.32-2.63-6.63,1.42-12.21,5.61-16.93,8.57-9.65,17.21-19.24,25.94-28.76,17.22-18.79,34.74-37.3,52.54-55.55,3.63-3.72,8.79-5.4,13.41-2.57,5.23-1.1,11.36,1.32,12.56,8.09,4.83,27.26,7.99,54.79,9.36,82.45.31,6.35.54,12.71.66,19.08.11,5.32.74,11.02-.32,16.27-1.32,6.57-5.32,12.25-12.12,13.81ZM983.9,150.16c.02-1.52-.04-3.06-.06-4.57-.46-30.3-3.21-60.57-7.94-90.5-11.23,11.62-22.35,23.35-33.35,35.19-6.98,7.52-13.92,15.08-20.8,22.69-3.11,3.44-6.21,6.88-9.3,10.33-1.18,1.32-2.36,2.64-3.54,3.97.72.18,1.39.36,1.96.53l13.66,4.18c8.78,2.69,17.57,5.38,26.35,8.07s17.57,5.38,26.35,8.07c2.22.68,4.44,1.36,6.66,2.04Z"/>
          <path class="cls-12" d="M480.19,96.88c-13.15,0-13.17,20.44,0,20.44s13.17-20.44,0-20.44Z"/>
          <path class="cls-3" d="M442.63,253.25c-15.96-27.18-57.51-27.03-84.28-21.9-5.42,1.04-8.52,7.55-7.14,12.57,1.56,5.68,7.13,8.18,12.57,7.14,13.06-2.51,27.2-2.87,40.21.19,8.11,1.91,18.54,5.69,21.96,14.13,2.16,5.34.84,11.34-.57,16.68-1.94,7.35-4.35,14.59-6.56,21.86-4.56,14.98-9.12,29.95-13.68,44.93-3.84,12.61,15.88,18,19.71,5.43,5.35-17.58,10.71-35.16,16.06-52.75,4.78-15.69,10.76-32.89,1.72-48.29Z"/>
          <path class="cls-13" d="M904.05,968.77c-7.56,20.39-29.54,33.23-51.03,31.61-21.57-1.62-39.09-16.61-45.59-37.05-6.39-20.09.78-41.54,18.4-53.15,16.05-10.57,36.74-10.59,52.43-.08.71.19,1.41.42,2.09.71,21.27,9.05,31.58,36.67,23.69,57.95ZM870.58,928.72c-1.43-.49-2.82-1.25-4.08-2.23-9.22-7.18-24.97-4.31-33.59,3.98-8.69,8.35-9.42,21.48-3.74,32.29,6.12,11.64,17.47,18.51,30.7,17.14,12.34-1.27,24.4-10.11,26.19-22.82,1.61-11.41-4.47-23.36-15.48-28.35Z"/>
          <path class="cls-7" d="M535.07,731.44c-.49-1.73-1.36-3.23-2.63-4.51-2-1.84-4.46-2.99-7.23-2.99h-2.46c-1.41-.05-2.72.24-3.94.88-1.27.41-2.36,1.12-3.29,2.11-1,.93-1.7,2.02-2.11,3.29-.64,1.22-.93,2.53-.88,3.94l.37,2.72c.49,1.73,1.36,3.23,2.63,4.51,2,1.84,4.46,2.99,7.23,2.99h2.46c1.41.05,2.72-.24,3.94-.88,1.27-.41,2.36-1.12,3.29-2.11,1-.93,1.7-2.02,2.11-3.29.64-1.22.93-2.53.88-3.94-.12-.91-.24-1.81-.37-2.72Z"/>
          <path class="cls-7" d="M409.6,453.44c-.49-1.73-1.36-3.23-2.63-4.51-2-1.84-4.46-2.99-7.23-2.99h-2.46c-1.41-.05-2.72.24-3.94.88-1.27.41-2.36,1.12-3.29,2.11-1,.93-1.7,2.02-2.11,3.29-.64,1.22-.93,2.53-.88,3.94.12.91.24,1.81.36,2.72.49,1.73,1.36,3.23,2.63,4.51,2,1.84,4.46,2.99,7.23,2.99h2.46c1.41.05,2.72-.24,3.94-.88,1.27-.41,2.36-1.12,3.29-2.11,1-.93,1.7-2.02,2.11-3.29.64-1.22.93-2.53.88-3.94-.12-.91-.24-1.81-.37-2.72Z"/>
          <path class="cls-8" d="M190.6,994.44c-.49-1.73-1.36-3.23-2.63-4.51-2-1.84-4.46-2.99-7.23-2.99h-2.46c-1.41-.05-2.72.24-3.94.88-1.27.41-2.36,1.12-3.29,2.11-1,.93-1.7,2.02-2.11,3.29-.64,1.22-.93,2.53-.88,3.94.12.91.24,1.81.36,2.72.49,1.73,1.36,3.23,2.63,4.51,2,1.84,4.46,2.99,7.23,2.99h2.46c1.41.05,2.72-.24,3.94-.88,1.27-.41,2.36-1.12,3.29-2.11,1-.93,1.7-2.02,2.11-3.29.64-1.22.93-2.53.88-3.94-.12-.91-.24-1.81-.37-2.72Z"/>
          <path class="cls-10" d="M950.34,1134.64c13.34,9.58,31.26,22.78,48.7,17.44,11.95-3.66,20.74-14.37,30.24-21.92,8.06-6.41,17.41-11.7,27.27-14.81.57-3.37,1.18-6.69,1.82-9.93,4.15-21.13,10.35-42.85,20.71-61.83,9.9-18.15,24.12-34.3,43.86-41.82,18.14-6.91,38.21-5.95,54.6,4.8,4.64,3.04,4.94,10.28,1.75,14.35-3.61,4.6-9.74,4.78-14.35,1.75-12.61-8.27-30.22-5.54-42.54,1.92-17.12,10.37-26.87,29.14-33.6,47.32-4.79,12.95-8.41,26.35-10.87,39.95,12.72-.12,25.23,3.37,35.66,11.56,14.24,11.19,23.59,30.37,18.77,48.53-4.31,16.24-19.11,28.65-35.73,30.74-21.24,2.67-36.27-13.78-40.74-33.15-2.27-9.84-2.7-20.31-2.1-30.8-8.5,4.57-16.02,10.98-23.6,17.5-14.16,12.18-30.68,20.41-49.73,16.32-15.89-3.41-29.69-12.45-42.71-21.8-10.73-7.7,1.95-23.75,12.6-16.1ZM1108.22,1147.18c-7.7-11.04-20.1-15.82-33.11-14.9-.67,6.83-1.06,13.72-.78,20.55.31,7.72,1.17,16.56,5.83,23.04,7,9.72,18.07,7.84,26.42.67,3.31-2.84,6.03-7.32,6.53-12.38.6-6.03-1.47-12.07-4.89-16.97Z"/>
          <path class="cls-7" d="M714.93-47.9c17.98,3.81,32.57,17.35,35.45,35.71.86,5.48-4.36,10.54-9.5,10.89-5.86.4-10.03-4.05-10.89-9.5-1.27-8.05-8.97-13.95-16.3-16.35-10.38-3.39-21.7-.21-31.25,4.21-17.42,8.06-32.93,21.94-44.6,37.42,25.46,21.23,33.06,60.26,27.05,92.22-3.85,20.48-13.83,39.58-30.03,52.9-15.54,12.77-36.57,18.72-56.38,14.77-12.91-2.57-8.84-22.61,4.08-20.03,17.74,3.53,35.74-4.6,47.2-18.14,12.26-14.48,17.1-34.33,16.68-52.99-.39-17.04-4.77-35.09-16.54-48-1.01-1.11-2.09-2.18-3.21-3.21-7.3,13.36-13.88,27.5-26.83,36.16-13.3,8.89-34.31,9.77-45.88-2.56-15.3-16.29-5.11-41.14,9.68-53.74,15.36-13.08,36.34-15.28,54.9-8.49.58.21,1.14.46,1.71.68,10.56-14.56,23.96-27.28,38.96-37.17,16.09-10.61,36.09-18.93,55.69-14.77ZM605.38,28.52c1.25-2.32,2.51-4.62,3.8-6.91-6.05-1.96-12.47-2.51-18.73-.98-6.94,1.7-13.22,5.48-17.82,10.96-3.87,4.61-7.37,12.04-5.13,18.08.58,1.56,1.39,2.36,3.4,3.37,1.5.75,4.62,1.36,5.98,1.37,5.85.05,10.17-1.5,14.64-5.62,6.08-5.6,10.01-13.08,13.87-20.27Z"/>
          <path class="cls-12" d="M178.21,537.26c-5.02,17.68-19.52,31.31-38.03,32.94-5.53.49-10.22-5.07-10.22-10.22,0-5.87,4.72-9.74,10.22-10.22,8.12-.72,14.53-8,17.42-15.15,4.09-10.13,1.68-21.64-2.08-31.46-6.86-17.93-19.65-34.34-34.3-47.04-22.91,23.96-62.36,28.89-93.84,20.72-20.17-5.23-38.55-16.48-50.73-33.55-11.69-16.37-16.19-37.75-10.91-57.25,3.44-12.7,23.15-7.28,19.71,5.43-4.73,17.46,2.16,35.97,14.89,48.32,13.61,13.22,33.09,19.4,51.73,20.24,17.03.77,35.33-2.37,49.01-13.24,1.17-.93,2.32-1.93,3.42-2.99-12.83-8.19-26.5-15.72-34.25-29.22-7.97-13.88-7.41-34.89,5.67-45.6,17.29-14.16,41.39-2.31,52.96,13.31,12.01,16.21,12.78,37.29,4.74,55.35-.25.57-.53,1.1-.8,1.66,13.81,11.53,25.59,25.76,34.44,41.4,9.49,16.78,16.43,37.29,10.96,56.56ZM109.42,422.77c2.23,1.4,4.44,2.82,6.64,4.26,2.37-5.9,3.35-12.27,2.25-18.62-1.22-7.04-4.57-13.57-9.72-18.52-4.34-4.18-11.51-8.17-17.69-6.35-1.59.47-2.45,1.23-3.59,3.16-.85,1.45-1.67,4.51-1.78,5.87-.45,5.83.81,10.25,4.62,14.99,5.18,6.45,12.37,10.87,19.28,15.21Z"/>
          <path class="cls-9" d="M347.1,1059.83c-1.5,18.69-16.02,35.53-34.42,39.64-19.48,4.36-39.75-5.78-49.7-22.76-10.41-17.78-8.61-41.26,6.01-56.14,13.84-14.08,37.25-17.31,52.38-3.71,15.92,7.6,27.16,25.14,25.73,42.97ZM306.43,1033.39c-2.8-.56-4.97-2.55-6.23-5.03-9.27-1.3-19.46,7.06-22.32,15.77-4.7,14.35,4.47,30.83,18.82,35.01,12.72,3.71,26.75-4.83,29.62-17.81,2.9-13.13-7.4-25.45-19.89-27.95Z"/>
          <path class="cls-6" d="M434.72,1210.33c-16.27-13.96-37.85-20.81-59.2-19.19-19.86,1.5-36.98,11.73-54.03,21.04-16.92,9.24-33.69,16.38-53.28,12.28-18.61-3.89-36.23-15.88-48.57-30.13-13-15.02-22-34.16-19.96-54.4,1.32-13.05-18.91-16.02-20.23-2.9-4.3,42.62,25.58,81.25,62.33,99.52,20.62,10.25,43.56,12.61,65.37,4.91,18.61-6.56,34.49-18.92,52.91-25.92,21.24-8.08,44.7-4.01,61.96,10.8,10.01,8.59,22.68-7.46,12.72-16.01Z"/>
          <path class="cls-12" d="M506.63,1106.86c-4.45,7.4-15.56,10.9-23.01,14.31-15.16,6.95-30.79,12.8-46.8,17.45-4.53,7.63-19.08,5.88-19.11-5.22-.05-21.47,3.1-43.4,10.22-63.7,5.05-14.41,17.21-31.43,34.89-25.77,8.4,2.69,14.22,9.63,19.84,16.04,6.08,6.93,11.84,14.14,17.36,21.53,5.46,7.32,12.21,16.04,6.6,25.36ZM485.18,1097.77c.42-.22.91-.53,1.41-.85-1.96-2.98-4.77-5.89-6.55-8.2-3.78-4.89-7.75-9.65-11.83-14.3-2.91-3.31-6.8-9.46-11.17-10.94-1.52-.52-3.15.8-4.58,2.53-6.46,7.81-8.44,20.07-10.51,29.67-1.5,6.95-2.5,13.95-3.1,20.99,7.48-2.35,14.87-4.97,22.16-7.87,5.31-2.12,10.54-4.42,15.71-6.87,2.84-1.34,5.66-2.73,8.46-4.16Z"/>
          <path class="cls-7" d="M58.93,910.9c1.09-8.57,9.85-16.25,15.29-22.38,11.07-12.48,23.01-24.13,35.79-34.84,1.07-8.81,15.09-13.07,19.59-2.93,8.71,19.62,14.66,40.97,16.34,62.41,1.19,15.22-3.08,35.7-21.54,37.65-8.77.93-16.9-3.08-24.62-6.68-8.36-3.89-16.54-8.17-24.57-12.7-7.95-4.49-17.64-9.75-16.27-20.55ZM82.23,910.57c-.3.37-.62.85-.95,1.35,2.99,1.94,6.74,3.47,9.3,4.86,5.43,2.95,10.98,5.71,16.59,8.31,4,1.86,10.03,5.92,14.63,5.51,1.6-.14,2.56-2,3.17-4.17,2.76-9.75-.37-21.77-2.35-31.39-1.43-6.96-3.33-13.77-5.62-20.46-5.9,5.17-11.61,10.54-17.11,16.14-4.01,4.08-7.86,8.3-11.61,12.62-2.06,2.38-4.08,4.78-6.07,7.22Z"/>
          <path class="cls-6" d="M285.4,776.82c-18.24,11.03-36.47,22.05-54.71,33.08-8.65,5.23-17.66,11.27-28.69,8.24-8.93-2.45-13.89-9.91-16.88-17.28-3.03-7.46-5.06-15.23-8.14-22.69-3.27-7.91-7.1-15.59-11.42-23.08-8.49-14.74-18.73-28.65-30.7-41.33-4-4.23-4.68-10.27,0-14.45,4.11-3.67,12.2-4.22,16.19,0,22.97,24.32,40.59,52.18,51.51,82.5,1.96,5.45,4.35,11.47,6.28,16.51.48-.53,2.48-1.35,3-1.64,4.03-2.33,7.97-4.81,11.95-7.22l50.08-30.28c12.24-7.4,23.69,10.31,11.56,17.65ZM209.38,798.77c-.17,0-.29-.03-.39-.06.86,2.01,1.04.1.39.06Z"/>
          <path class="cls-8" d="M804.25,1079.93c-40.5-14.47-80.47-30.4-119.76-47.89-18.03-8.03-36.74-15.62-53.7-25.79-11.3-6.77-24.16-16.45-25.95-30.48-1.37-10.71,4.16-21.27,8.55-30.66,5.39-11.54,10.79-23.07,16.18-34.61,2.34-5,1.4-11.02-3.67-13.98-4.43-2.59-11.63-1.36-13.98,3.67-5.11,10.93-10.22,21.86-15.33,32.78-4.83,10.32-10.03,20.72-11.69,32.1-2.88,19.82,6.77,37.18,21.96,49.33,15.55,12.44,34.1,20.19,52.08,28.4,21.66,9.89,43.52,19.34,65.55,28.36,24.55,10.06,49.34,19.53,74.32,28.46,5.2,1.86,11.19-2.1,12.57-7.14,1.56-5.66-1.92-10.71-7.14-12.57Z"/>
        </g>
        <g>
          <path class="cls-10" d="M32.7,632.1c-2.79-10.93-5.48-21.78-11.27-31.56-9.63-16.28-25.75-28.46-43.71-33.88-18.45-5.56-38.38-4.86-55.54,4.19-9.91,5.23-18.74,12.54-29.28,16.54-7.26,2.76-15.29,3.68-23.03,2.97-19.19-1.76-36.26-11.98-46.28-28.7-3.09-5.15-11.26-5.21-15.48-1.85-5.14,4.1-4.81,10.42-1.71,15.58,19.83,33.09,66.14,47.02,100.39,30.18,10.53-5.18,19.67-12.99,30.64-17.31,7.2-2.83,15.15-3.62,22.83-2.77,16.51,1.84,32.4,10.69,41.6,24.89,5.85,9.03,7.77,20.04,10.52,30.26,3.68,13.68,8.48,25.56,18.79,35.58,4.3,4.18,12.19,2.14,15.39-2.22,3.9-5.29,1.99-11.34-2.32-15.53-6.86-6.67-9.24-17.44-11.52-26.37Z"/>
          <path class="cls-9" d="M36.07,751.03c-1.51-5.48-7.99-9.77-13.67-7.76-21.73,7.69-41.65,19.94-55.8,38.42-14.72,19.22-21.01,43.95-15.81,67.71,3.06,13.97,24.49,8.06,21.43-5.91-8.21-37.48,23.84-67.38,56.08-78.78,5.66-2,9.43-7.59,7.76-13.67Z"/>
        </g>
        <g>
          <path class="cls-11" d="M102.77,105.5c4.14-4.79,3.16-11.45-1.13-15.67C77.91,66.48,61.2,35.96,54.28,3.38c-7.24-34.08-2.19-68.78,14.61-99.28,11.46-20.8,27.25-38.88,43.72-55.83,9.97-10.27-6.87-24.77-16.81-14.54-30.44,31.33-57.79,67.92-64.92,112.08-6.04,37.42,1.64,75.74,18.49,109.38,9.6,19.16,22.45,36.42,37.72,51.44,4.28,4.21,11.93,3.2,15.67-1.13Z"/>
          <path class="cls-10" d="M950.34-65.36c13.34,9.58,31.26,22.78,48.7,17.44,11.95-3.66,20.74-14.37,30.24-21.92,8.06-6.41,17.41-11.7,27.27-14.81.57-3.37,1.18-6.69,1.82-9.93,4.15-21.13,10.35-42.85,20.71-61.83,9.9-18.15,24.12-34.3,43.86-41.82,18.14-6.91,38.21-5.95,54.6,4.8,4.64,3.04,4.94,10.28,1.75,14.35-3.61,4.6-9.74,4.78-14.35,1.75-12.61-8.27-30.22-5.54-42.54,1.92-17.12,10.37-26.87,29.14-33.6,47.32-4.79,12.95-8.41,26.35-10.87,39.95,12.72-.12,25.23,3.37,35.66,11.56,14.24,11.19,23.59,30.37,18.77,48.53-4.31,16.24-19.11,28.65-35.73,30.74-21.24,2.67-36.27-13.78-40.74-33.15-2.27-9.84-2.7-20.31-2.1-30.8-8.5,4.57-16.02,10.98-23.6,17.5-14.16,12.18-30.68,20.41-49.73,16.32-15.89-3.41-29.69-12.45-42.71-21.8-10.73-7.7,1.95-23.75,12.6-16.1ZM1108.22-52.82c-7.7-11.04-20.1-15.82-33.11-14.9-.67,6.83-1.06,13.72-.78,20.55.31,7.72,1.17,16.56,5.83,23.04,7,9.72,18.07,7.84,26.42.67,3.31-2.84,6.03-7.32,6.53-12.38.6-6.03-1.47-12.07-4.89-16.97Z"/>
          <path class="cls-6" d="M434.72,10.33c-16.27-13.96-37.85-20.81-59.2-19.19-19.86,1.5-36.98,11.73-54.03,21.04-16.92,9.24-33.69,16.38-53.28,12.28-18.61-3.89-36.23-15.88-48.57-30.13-13-15.02-22-34.16-19.96-54.4,1.32-13.05-18.91-16.02-20.23-2.9-4.3,42.62,25.58,81.25,62.33,99.52,20.62,10.25,43.56,12.61,65.37,4.91,18.61-6.56,34.49-18.92,52.91-25.92,21.24-8.08,44.7-4.01,61.96,10.8,10.01,8.59,22.68-7.46,12.72-16.01Z"/>
        </g>
      </g>
    </pattern>
  </defs>
  <g id="Layer_7" data-name="Layer 7">
    <g>
      <rect class="cls-2" width="357.03" height="357.03"/>
      <rect class="cls-5" width="357.03" height="357.03"/>
    </g>
  </g>
</svg>