<?xml version="1.0" encoding="UTF-8"?>
<svg id="Layer_2" data-name="Layer 2" xmlns="http://www.w3.org/2000/svg" xmlns:xlink="http://www.w3.org/1999/xlink" viewBox="0 0 250 250">
  <defs>
    <style>
      .cls-1 {
        stroke-width: .52px;
      }

      .cls-1, .cls-2, .cls-3, .cls-4, .cls-5, .cls-6 {
        fill: none;
      }

      .cls-1, .cls-2, .cls-4, .cls-5, .cls-6, .cls-7 {
        stroke: #753225;
        stroke-miterlimit: 10;
      }

      .cls-2 {
        stroke-width: .36px;
      }

      .cls-4 {
        stroke-width: .36px;
      }

      .cls-5 {
        stroke-width: .34px;
      }

      .cls-6 {
        stroke-width: .27px;
      }

      .cls-8 {
        fill: #fcedde;
      }

      .cls-9 {
        fill: #93225d;
      }

      .cls-10, .cls-11, .cls-12, .cls-13 {
        mix-blend-mode: multiply;
      }

      .cls-10, .cls-14, .cls-13 {
        opacity: .3;
      }

      .cls-11 {
        opacity: .5;
      }

      .cls-15 {
        opacity: .1;
      }

      .cls-15, .cls-16 {
        fill: #fff;
      }

      .cls-17 {
        fill: #fed29f;
      }

      .cls-18 {
        fill: #fea801;
      }

      .cls-19 {
        fill: #753225;
      }

      .cls-7 {
        stroke-width: .35px;
      }

      .cls-7, .cls-13 {
        fill: #ff8b0d;
      }

      .cls-20 {
        fill: #ed672d;
      }

      .cls-21 {
        fill: url(#New_Pattern_Swatch_3);
      }

      .cls-22 {
        fill: #fcedde;
      }
    </style>
    <pattern id="New_Pattern_Swatch_3" data-name="New Pattern Swatch 3" x="0" y="0" width="247.5" height="208" patternTransform="translate(-125)" patternUnits="userSpaceOnUse" viewBox="0 0 247.5 208">
      <g>
        <rect class="cls-3" x="0" y="0" width="247.5" height="208"/>
        <g>
          <g>
            <g>
              <g>
                <path class="cls-16" d="M187.32,213.8s-.03.1-.05.14c-.68,1.55-4.7,1.28-8.97-.6-4.28-1.88-7.19-4.66-6.51-6.2.01-.03.03-.06.05-.09h0s6.98-15.88,6.98-15.88l15.51,6.95-7,15.68s0,0,0,0Z"/>
                <path class="cls-19" d="M187.37,213.78v.04c1.33-2.54,2.59-5.11,3.84-7.69,1.23-2.59,2.47-5.17,3.65-7.78l.24-.53-.53-.24c-2.58-1.18-5.18-2.3-7.78-3.42-2.6-1.13-5.21-2.24-7.83-3.3l-.33-.13-.12.31c-1.07,2.69-2.17,5.36-3.34,8.01-.61,1.31-1.18,2.64-1.82,3.94l-1.89,3.91-.17.36.38.18h0s-.15-.63-.15-.63c-.37.61-.27,1.11-.14,1.58.15.46.4.83.65,1.18.52.7,1.16,1.26,1.81,1.77,1.33,1,2.8,1.78,4.3,2.42,1.51.65,3.1,1.1,4.73,1.33.81.11,1.65.16,2.48.04.41-.06.83-.16,1.21-.35.37-.18.74-.55.8-.93.01-.01.02-.04.01-.06ZM185.32,214.72c-.78.02-1.57-.09-2.34-.24-1.55-.32-3.04-.89-4.48-1.53-1.44-.66-2.82-1.45-4.05-2.41-.62-.47-1.19-1-1.67-1.57-.23-.29-.44-.59-.55-.9-.15-.28-.11-.66-.08-.76l.17-.51-.32-.13h0s.21.54.21.54l1.6-4.03c.52-1.35,1.11-2.67,1.67-4,1.16-2.65,2.38-5.27,3.64-7.87l-.45.17c2.54,1.26,5.11,2.46,7.68,3.65,2.57,1.19,5.14,2.39,7.73,3.52l-.29-.77c-1.15,2.62-2.25,5.27-3.36,7.91-1.08,2.65-2.16,5.31-3.16,7.99v.04s0-.04,0-.05c-.33.79-1.21.91-1.96.96Z"/>
              </g>
              <g>
                <path class="cls-16" d="M194.59,198.16c-.68,1.55-4.77,1.25-9.13-.67-4.36-1.92-7.35-4.73-6.67-6.27.68-1.55,4.77-1.25,9.13.67,4.36,1.92,7.35,4.73,6.67,6.27Z"/>
                <path class="cls-19" d="M194.6,196.95c-.13-.4-.37-.74-.59-1.09-.48-.68-1.06-1.28-1.67-1.85-1.23-1.13-2.68-1.97-4.18-2.66-1.51-.67-3.11-1.16-4.76-1.43-.83-.13-1.67-.19-2.53-.11-.43.05-.87.12-1.29.31-.41.18-.86.48-1.06.98-.19.5-.06,1,.12,1.39.18.4.45.73.71,1.06.55.63,1.17,1.17,1.81,1.68,1.28,1.01,2.65,1.95,4.12,2.69,1.48.72,3.08,1.23,4.74,1.38.83.07,1.66.1,2.49-.01.41-.07.82-.13,1.2-.3.38-.15.77-.39.94-.8.19-.4.1-.85-.04-1.23ZM192.48,198.99c-.79-.02-1.58-.18-2.34-.38-1.53-.44-3.01-.97-4.49-1.54-1.48-.57-2.97-1.21-4.28-2.14-.64-.47-1.25-1.01-1.73-1.63-.47-.59-.84-1.42-.57-1.97.3-.52,1.12-.64,1.85-.66.76,0,1.53.11,2.29.26,1.53.33,3.02.88,4.47,1.49,1.45.62,2.85,1.35,4.22,2.16.67.42,1.31.89,1.87,1.46.52.55,1.04,1.33.77,2.09-.37.72-1.3.86-2.06.85Z"/>
              </g>
            </g>
            <g>
              <path class="cls-16" d="M189.09,222.52s-.09-.03-.14-.06c-1.51-.75-1.05-4.75,1.03-8.93s5-6.96,6.51-6.2c.03.01.06.03.08.05h0s15.53,7.74,15.53,7.74l-7.82,15.14-15.2-7.73s0,0,0,0Z"/>
              <path class="cls-19" d="M189.12,222.58h-.04c2.45,1.44,4.94,2.82,7.43,4.19,2.5,1.34,5,2.7,7.53,4.01l.51.26.27-.52c1.32-2.51,2.59-5.05,3.86-7.59,1.27-2.54,2.53-5.08,3.74-7.66l.15-.32-.3-.14c-2.64-1.2-5.25-2.42-7.84-3.72-1.28-.67-2.58-1.31-3.84-2.01l-3.81-2.07-.35-.19-.2.37h0s.64-.12.64-.12c-.59-.4-1.1-.33-1.57-.22-.46.13-.85.36-1.21.59-.72.49-1.31,1.1-1.86,1.73-1.07,1.28-1.91,2.71-2.63,4.18-.72,1.48-1.25,3.05-1.56,4.66-.15.81-.24,1.64-.16,2.47.04.41.12.83.29,1.22.16.38.51.76.89.84.01.01.04.02.06.02ZM188.27,220.48c.02-.78.16-1.56.35-2.32.39-1.53,1.04-2.99,1.74-4.41.73-1.41,1.59-2.74,2.61-3.93.5-.6,1.05-1.14,1.65-1.59.3-.22.61-.41.93-.51.29-.13.66-.08.76-.04l.5.19.14-.31h0s-.55.18-.55.18l3.95,1.8c1.32.59,2.61,1.24,3.92,1.86,2.59,1.28,5.15,2.63,7.69,4.02l-.15-.46c-1.4,2.47-2.74,4.97-4.08,7.48-1.34,2.5-2.68,5.01-3.96,7.54l.78-.25c-2.54-1.28-5.11-2.49-7.67-3.72-2.57-1.21-5.15-2.4-7.77-3.53h-.04s.04,0,.05,0c-.77-.36-.85-1.25-.86-2Z"/>
            </g>
          </g>
          <g>
            <g>
              <g>
                <path class="cls-20" d="M288.32,199.15c-.08.48-19.19-2.21-23.46-2.79-4.21-.92-23.07-4.97-22.99-5.44,0,0-3.15,45.87-3.16,45.9-.44,2.51,4.4,6.51,17.47,9.05,11.68,2.26,17.77-.21,18.22-2.72,0-.04,13.91-43.99,13.91-43.99Z"/>
                <path class="cls-19" d="M278,230.49c-.88,2.65-1.72,5.32-2.57,7.98l-1.26,3.99-.29.9c-.11.25-.27.49-.49.7-.43.43-.98.78-1.59,1.03-2.43,1.04-5.22,1.23-7.92,1.21-2.73-.06-5.45-.42-8.13-.95-2.69-.52-5.36-1.18-7.96-2.04-2.57-.89-5.17-1.93-7.24-3.64-.52-.42-.95-.93-1.28-1.48l-.2-.43c-.04-.15-.07-.3-.1-.45-.01-.15,0-.3,0-.45l.03-.52.25-4.13.52-8.27c.62-11.03,1.56-22.01,2.42-33.02l-.65-.08c-.01.08,0,.19.06.26.05.06.04.05.06.07.04.03.08.06.09.07.04.02.08.05.11.06l.19.08.36.13.72.22,1.43.39,2.88.71,5.76,1.34,11.56,2.49h.01s.01,0,.01,0c3.9.54,7.82,1.01,11.73,1.49,1.96.24,3.92.46,5.88.66l2.95.28,1.48.11.74.03h.37s.19,0,.19,0c.03,0,.06,0,.1-.01.02,0,.03,0,.05-.02.01,0,.02,0,.03-.01,0,0,.03-.03.02-.06-.01-.03-.02-.03-.02-.03-3.27,10.3-6.82,20.77-10.32,31.39ZM282.46,198.54l-5.85-.82-11.7-1.69h.02s-11.54-2.58-11.54-2.58l-5.76-1.31-2.87-.69-1.42-.37-.7-.2-.34-.11-.15-.06-.05-.02s0,0,.01.01l.03.04c.04.06.06.16.04.22l-.65-.08c-.65,11-1.23,22.03-2.12,33.01l-.61,8.24-.31,4.12-.04.52c0,.19-.03.39-.02.59.04.19.07.38.12.56l.22.52c.37.64.84,1.2,1.38,1.66,2.17,1.85,4.79,2.93,7.39,3.89,2.62.93,5.32,1.6,8.03,2.15,2.72.55,5.48.94,8.27,1.03,2.78.04,5.64-.12,8.31-1.27.66-.29,1.3-.68,1.85-1.22.28-.27.51-.6.67-.98l.34-1.07,1.23-3.9c.82-2.6,1.64-5.19,2.42-7.8,3.14-10.42,6.25-20.99,9.63-31.72-1.92-.11-3.9-.39-5.85-.65Z"/>
              </g>
              <g class="cls-10">
                <path class="cls-20" d="M284.92,198.96c-1.93,7.45-3.47,15-5.82,22.33-1.67,5.21-3.62,10.73-7.75,14.54-3.97,3.67-9.1,4.52-14.34,4.16-3.79-.26-7.52-1.13-11.15-2.22-1.51-.45-3.03-.91-4.5-1.47-.9-.34-1.71-.82-2.52-1.3-.08,1.15-.13,1.82-.13,1.82-.44,2.51,4.4,6.51,17.47,9.05,11.68,2.26,17.77-.21,18.22-2.72,0-.04,13.91-43.99,13.91-43.99-.02.12-1.36.03-3.4-.18Z"/>
              </g>
              <g>
                <path class="cls-17" d="M288.53,199.19c-.66,3.75-11.65,4.93-24.53,2.65-12.88-2.29-22.79-7.18-22.12-10.92s11.65-4.93,24.53-2.65c12.88,2.29,22.79,7.18,22.12,10.92Z"/>
                <path class="cls-19" d="M287.31,196.3c-.75-.78-1.65-1.41-2.55-2-1.83-1.16-3.8-2.08-5.81-2.89-4.02-1.61-8.24-2.7-12.49-3.46-4.26-.76-8.59-1.2-12.92-1.13-2.17.03-4.34.2-6.47.65-1.06.24-2.12.53-3.12,1.02-.96.47-2.01,1.2-2.24,2.4-.17,1.2.57,2.23,1.32,2.98.77.78,1.68,1.4,2.6,1.97,1.86,1.12,3.85,1.97,5.86,2.77,4.04,1.53,8.22,2.69,12.47,3.49,4.25.77,8.58,1.22,12.91,1.1,2.16-.07,4.33-.24,6.44-.71,1.05-.25,2.11-.52,3.08-1,.95-.46,1.95-1.17,2.17-2.29.18-1.12-.51-2.14-1.25-2.89ZM286.35,201.39c-.97.45-2.02.74-3.07.93-2.11.39-4.27.49-6.42.48-4.3-.04-8.58-.51-12.82-1.22-4.23-.72-8.45-1.68-12.49-3.19-2.02-.74-3.99-1.63-5.81-2.77-.9-.57-1.78-1.2-2.52-1.96-.72-.74-1.36-1.72-1.19-2.72.21-.99,1.15-1.66,2.08-2.09.95-.44,1.99-.71,3.04-.92,2.1-.4,4.25-.51,6.39-.54,4.29-.01,8.57.46,12.81,1.18,4.23.76,8.41,1.78,12.46,3.21,2.02.72,4.01,1.56,5.86,2.65.92.55,1.81,1.17,2.56,1.93.74.74,1.42,1.72,1.26,2.81-.22,1.07-1.21,1.76-2.15,2.2Z"/>
              </g>
              <g class="cls-12">
                <path class="cls-17" d="M286.34,198.54c-.09.53-.48.98-1.12,1.36-2.96,1.79-11.35,1.98-20.94.28-9.08-1.61-16.56-4.44-19.16-7.03-.75-.73-1.09-1.44-.97-2.1.53-2.97,10.4-3.7,22.04-1.64,11.65,2.07,20.67,6.15,20.15,9.12Z"/>
              </g>
              <path class="cls-19" d="M285.23,199.91c-2.96,1.79-11.35,1.98-20.94.28-9.08-1.61-16.56-4.44-19.16-7.03,2.96-1.77,11.35-1.97,20.94-.27,9.08,1.61,16.55,4.44,19.16,7.02Z"/>
              <g class="cls-14">
                <path class="cls-16" d="M245.91,215.92c-.78,8.45-2.09,15.23-2.92,15.14-.83-.09-.87-6.99-.09-15.42.78-8.43,2.09-15.21,2.92-15.14s.87,6.97.09,15.42Z"/>
              </g>
            </g>
            <path class="cls-19" d="M241.12,201.26c1.47,1.27,3.16,2.21,4.89,3.05,1.73.85,3.53,1.54,5.33,2.24,1.8.7,3.62,1.4,5.49,1.92,1.86.54,3.77.92,5.69,1.23,3.83.59,7.68,1.04,11.53,1.19,1.92.08,3.85.1,5.76-.09.95-.12,1.91-.21,2.82-.48.91-.26,1.84-.57,2.57-1.21l.06.06c-.67.74-1.58,1.21-2.5,1.56-.93.36-1.9.56-2.87.73-1.95.31-3.92.39-5.88.34-3.92-.15-7.8-.73-11.59-1.63-3.78-.94-7.58-1.79-11.32-2.94-1.86-.62-3.66-1.39-5.39-2.32-1.71-.94-3.39-2.06-4.66-3.56l.06-.06Z"/>
            <path class="cls-19" d="M249.92,187.01c-2.14-.35-4.01-1.88-4.96-3.85-1.01-1.95-1.07-4.35-.22-6.4.9-2.02,2.64-3.65,4.71-4.43,1.03-.39,2.14-.64,3.25-.58,1.11.04,2.21.32,3.22.79l-.39.38c-1.09-2.35-1.86-4.96-1.61-7.6.24-2.63,1.54-5.07,3.35-6.92,1.83-1.86,4.19-3.16,6.71-3.77,2.54-.56,5.22-.54,7.73.21,2.5.73,4.88,1.99,6.78,3.81,1.9,1.79,3.43,4.06,4.15,6.61.16.64.36,1.27.42,1.93l.13.98c.01.33.04.66.03.99,0,1.32-.18,2.64-.48,3.91-.59,2.55-1.52,4.96-2.07,7.45l-.67-.14c.09-.32.29-.62.54-.78.25-.18.51-.27.76-.34.51-.13,1.01-.16,1.51-.16.99.02,1.97.1,2.93.43,1.9.67,3.44,2.16,4.21,3.99.76,1.84.66,3.98-.18,5.74-.4.9-1.12,1.66-1.99,2.1-.86.46-1.81.69-2.73.94l-.02-.07c.91-.29,1.84-.56,2.65-1.04.82-.47,1.45-1.2,1.81-2.07.76-1.71.78-3.74.02-5.43-.76-1.67-2.22-3.05-3.96-3.62-.85-.28-1.82-.35-2.74-.35-.46,0-.92.05-1.34.16-.43.11-.74.34-.81.61l-.67-.14c.55-2.56,1.48-4.98,2.04-7.46.28-1.24.45-2.5.46-3.75,0-.31-.02-.63-.02-.94l-.12-.93c-.05-.63-.23-1.23-.38-1.84-1.39-4.86-5.54-8.75-10.4-10.22-2.43-.78-5.06-.89-7.56-.36-2.48.58-4.84,1.84-6.6,3.7-1.77,1.83-2.96,4.26-3.11,6.79-.18,2.54.66,5.02,1.73,7.33l.33.72-.72-.34c-1.87-.87-4.08-.94-6.01-.19-1.95.7-3.59,2.21-4.45,4.09-.84,1.89-.86,4.15.06,6.04.85,1.9,2.56,3.48,4.67,3.93v.07Z"/>
          </g>
          <path class="cls-17" d="M225.53,197.46c0,1.84-1.49,3.33-3.33,3.33s-3.33-1.49-3.33-3.33,1.49-3.33,3.33-3.33,3.33,1.49,3.33,3.33Z"/>
          <circle class="cls-17" cx="207.94" cy="202.33" r="2.56"/>
          <g>
            <g>
              <ellipse class="cls-20" cx="212.7" cy="153.05" rx="19.61" ry="34.21" transform="translate(26.82 337.74) rotate(-80.55)"/>
              <ellipse class="cls-1" cx="212.7" cy="153.05" rx="19.61" ry="34.21" transform="translate(26.82 337.74) rotate(-80.55)"/>
            </g>
            <g class="cls-10">
              <path class="cls-20" d="M183.04,146.75c.4,1.2.98,2.33,1.89,3.25,1.63,1.67,4.02,2.48,6.24,3.03,4.58,1.13,9.36.74,13.95-.08,4.97-.88,10-1.94,14.79-3.53,2.49-.83,4.92-1.85,7.18-3.19,1.62-.96,3.32-2.05,4.46-3.59,1.69-2.3,1.51-5.7.03-8.13,8.15,2.29,13.87,6.88,14.88,12.92,1.78,10.68-11.89,21.86-30.52,24.96-18.64,3.1-35.19-3.05-36.96-13.73-.67-4.06.88-8.18,4.08-11.91Z"/>
            </g>
            <path class="cls-7" d="M178.3,161.31l3.15,5.51,5.8,10.17c7.57,4.09,46.52-2.12,56.09-9.25l2.24-12.13,1.05-5.67-68.32,11.37Z"/>
            <path class="cls-13" d="M178.3,161.31l3.22,5.96c1.64-.82,1.74-1.94,1.74-1.94,0,0,1.66,3.19,6.11,3.58,3.39.29,5.44-.14,8.2-1.92,1.64-1.06,3.11-3.08,3.28-5.49,1.06,1.37,2.89,2.44,4.41,2.95,4.84,1.65,11.14-.02,11.6-4.83,3.53,1.88,5.6,2.79,9.43,1.7,4.73-1.34,5.86-5.66,5.86-5.66,0,0,.94,2.06,2.8,2.87,1.58.69,6.21.61,8.49-2.96.7.23,1.46.38,2.22.45l.98-6.07-68.32,11.37Z"/>
            <g>
              <path class="cls-20" d="M220.18,140.1c1.83.86,2.77.21,3.29-.89.52-1.1.41-2.24-1.41-3.1-1.83-.86-5.2,0-5.2,0,0,0,1.5,3.14,3.33,4Z"/>
              <path class="cls-1" d="M220.18,140.1c1.83.86,2.77.21,3.29-.89.52-1.1.41-2.24-1.41-3.1-1.83-.86-5.2,0-5.2,0,0,0,1.5,3.14,3.33,4Z"/>
            </g>
            <g>
              <path class="cls-20" d="M209.93,142.72c.41,1.98,1.49,2.34,2.69,2.1,1.19-.25,2.04-1.01,1.63-2.99-.41-1.98-3.12-4.17-3.12-4.17,0,0-1.61,3.09-1.2,5.06Z"/>
              <path class="cls-1" d="M209.93,142.72c.41,1.98,1.49,2.34,2.69,2.1,1.19-.25,2.04-1.01,1.63-2.99-.41-1.98-3.12-4.17-3.12-4.17,0,0-1.61,3.09-1.2,5.06Z"/>
            </g>
            <g>
              <path class="cls-20" d="M200.78,138.75c-1.67,1.14-1.59,2.28-.91,3.29.69,1.01,1.72,1.5,3.39.36,1.67-1.14,2.65-4.48,2.65-4.48,0,0-3.47-.31-5.14.83Z"/>
              <path class="cls-1" d="M200.78,138.75c-1.67,1.14-1.59,2.28-.91,3.29.69,1.01,1.72,1.5,3.39.36,1.67-1.14,2.65-4.48,2.65-4.48,0,0-3.47-.31-5.14.83Z"/>
            </g>
            <g>
              <g>
                <path class="cls-22" d="M253.44,148.9c.57-5.83-4.24-9.25-9.17-6.32-1.18.7-1.55,1.04-2.56,1.96-.95.88-.8.99-2.08.24-2.6-1.53-6.61-1.83-9.32,1.18-.42.47-1.49,2.25-1.49,2.25,0,0-1.02-.81-1.8-1.17-6.61-3.02-10.57.17-11.92,3.47-3.5-2.81-6.79-1.88-8.4-1.53-1.93.42-4.46,2.23-5.54,3.88-1.24-.62-3.66-3.24-9.39-1.75-2.11.55-5.89,2.17-6.41,4.8-3.67-2.57-7.4-2.69-10.61-1.87-1.56.4-3.17,1.71-3.8,3.76-.96,3.09,1.18,7.79,6.95,7.7,5.98-.09,6.21-2.81,6.21-2.81,0,0,1.66,3.19,6.11,3.58,3.39.29,5.44-.14,8.2-1.92,1.64-1.06,3.11-3.08,3.28-5.49,1.06,1.37,2.89,2.44,4.4,2.96,4.85,1.65,11.14-.02,11.6-4.83,3.53,1.88,5.6,2.79,9.43,1.7,4.72-1.34,5.86-5.66,5.86-5.66,0,0,.94,2.06,2.81,2.87,1.58.69,6.21.61,8.48-2.97,3.69,1.2,8.74.27,9.16-4.04Z"/>
                <path class="cls-4" d="M253.44,148.9c.57-5.83-4.24-9.25-9.17-6.32-1.18.7-1.55,1.04-2.56,1.96-.95.88-.8.99-2.08.24-2.6-1.53-6.61-1.83-9.32,1.18-.42.47-1.49,2.25-1.49,2.25,0,0-1.02-.81-1.8-1.17-6.61-3.02-10.57.17-11.92,3.47-3.5-2.81-6.79-1.88-8.4-1.53-1.93.42-4.46,2.23-5.54,3.88-1.24-.62-3.66-3.24-9.39-1.75-2.11.55-5.89,2.17-6.41,4.8-3.67-2.57-7.4-2.69-10.61-1.87-1.56.4-3.17,1.71-3.8,3.76-.96,3.09,1.18,7.79,6.95,7.7,5.98-.09,6.21-2.81,6.21-2.81,0,0,1.66,3.19,6.11,3.58,3.39.29,5.44-.14,8.2-1.92,1.64-1.06,3.11-3.08,3.28-5.49,1.06,1.37,2.89,2.44,4.4,2.96,4.85,1.65,11.14-.02,11.6-4.83,3.53,1.88,5.6,2.79,9.43,1.7,4.72-1.34,5.86-5.66,5.86-5.66,0,0,.94,2.06,2.81,2.87,1.58.69,6.21.61,8.48-2.97,3.69,1.2,8.74.27,9.16-4.04Z"/>
              </g>
              <g class="cls-10">
                <path class="cls-17" d="M177.9,165.52c5.98-.09,6.21-2.81,6.21-2.81,0,0,1.66,3.19,6.11,3.58,3.39.29,5.44-.14,8.2-1.92,1.64-1.06,3.11-3.08,3.28-5.49,1.06,1.37,2.89,2.44,4.41,2.95,4.84,1.65,11.14-.02,11.6-4.83,3.53,1.88,5.6,2.79,9.43,1.7,4.73-1.34,5.86-5.66,5.86-5.66,0,0,.94,2.06,2.8,2.87,1.58.69,6.21.61,8.49-2.96,3.69,1.2,8.73.27,9.16-4.05.12-1.19.01-2.27-.28-3.23-.53,4.18-5.5,5.07-9.14,3.88-2.28,3.58-6.9,3.66-8.48,2.97-1.87-.81-2.81-2.87-2.81-2.87,0,0-1.13,4.32-5.86,5.66-3.83,1.08-5.89.18-9.43-1.7-.46,4.82-6.75,6.48-11.6,4.83-1.51-.52-3.34-1.58-4.41-2.96-.17,2.41-1.64,4.43-3.27,5.49-2.76,1.78-4.81,2.21-8.2,1.92-4.45-.39-6.11-3.58-6.11-3.58,0,0-.23,2.72-6.21,2.81-3.71.05-5.92-1.86-6.77-4.06-.77,3.09,1.41,7.53,7.03,7.44Z"/>
              </g>
              <path class="cls-15" d="M187.3,157.06c.32,1.9,2.99,3.04,5.96,2.55,2.98-.5,5.13-2.44,4.82-4.34-.32-1.9-2.99-3.04-5.96-2.55-2.98.5-5.13,2.44-4.82,4.34Z"/>
              <path class="cls-15" d="M218.27,150.25c.2,1.19,1.86,1.9,3.72,1.59,1.85-.31,3.2-1.52,3-2.71-.2-1.19-1.86-1.9-3.72-1.59-1.85.31-3.2,1.52-3,2.71Z"/>
              <path class="cls-15" d="M232.84,146.92c-.19,1.19,1.16,2.39,3.02,2.68,1.86.29,3.52-.43,3.7-1.62.19-1.19-1.16-2.39-3.02-2.68-1.86-.29-3.52.43-3.7,1.62Z"/>
              <path class="cls-15" d="M244.84,144.52c-.19,1.19,1.16,2.39,3.02,2.68,1.86.29,3.52-.43,3.7-1.62.19-1.19-1.16-2.39-3.02-2.68s-3.52.43-3.7,1.62Z"/>
              <path class="cls-15" d="M173.49,157.93c.08,1.25,1.73,2.17,3.69,2.05,1.96-.12,3.49-1.24,3.41-2.49s-1.73-2.17-3.69-2.05c-1.96.12-3.49,1.24-3.41,2.49Z"/>
              <path class="cls-15" d="M204.09,153.53c.1,1.61,2.23,2.79,4.75,2.63,2.52-.16,4.48-1.59,4.38-3.2-.1-1.61-2.23-2.79-4.75-2.63-2.52.16-4.48,1.59-4.38,3.2Z"/>
            </g>
            <g class="cls-14">
              <path class="cls-16" d="M190.27,141.94c1.88-1.38,3.83-2.25,5.32-2.62,1.5-.38,2.49-.26,2.52,0,.04.27-.79.62-2.04,1.29-1.25.66-2.94,1.64-4.66,2.9-3.49,2.54-5.83,5.23-6.28,4.92-.21-.15.11-1.05.97-2.3.86-1.25,2.3-2.8,4.16-4.18Z"/>
            </g>
          </g>
        </g>
        <g>
          <g>
            <g>
              <g>
                <path class="cls-20" d="M35.07,209.03s7.66-9.08,17.85-2.3c9.28,6.18-3.39,29.26-26.34,31.37.72-2.56,2.07-6.82,2.07-6.82,0,0,16.6-3.19,20.98-14.11,2.9-7.23-3.36-8.07-6.84-6.82-4.06,1.46-10.3,6.75-10.3,6.75l2.58-8.07Z"/>
                <path class="cls-19" d="M32.28,217.04l-.24.69.57-.46c1.68-1.35,3.42-2.64,5.21-3.82,1.79-1.16,3.65-2.34,5.64-2.92,1-.26,2.06-.34,3.07-.2,1,.14,1.98.52,2.62,1.23.64.7.86,1.71.78,2.71-.08,1.01-.39,2.02-.81,2.98-1.66,3.89-4.98,6.86-8.62,9.04-3.68,2.16-7.76,3.71-11.91,4.69l-.19.05-.05.17-2,6.85-.1.34.35-.04c5.74-.59,11.3-2.58,16.16-5.67,4.82-3.11,9.09-7.27,11.72-12.48,1.24-2.6,2.16-5.52,1.79-8.5-.19-1.47-.78-2.94-1.8-4.06-.5-.56-1.11-1.04-1.74-1.41-.62-.39-1.26-.74-1.93-1.04-2.64-1.25-5.75-1.59-8.57-.8-2.82.77-5.3,2.47-7.21,4.63l-2.75,8.03ZM42.35,204.81c1.37-.34,2.79-.41,4.18-.25,1.39.17,2.74.61,4.01,1.2.64.3,1.25.64,1.84,1.02.61.36,1.13.79,1.58,1.3.9,1.02,1.42,2.34,1.58,3.7.32,2.75-.48,5.57-1.68,8.1-2.44,5.11-6.47,9.45-11.25,12.55-4.78,3.13-10.37,4.98-16.05,5.43l.25.3,2.14-6.79-.24.22c4.28-.89,8.41-2.4,12.21-4.59,1.89-1.1,3.69-2.4,5.26-3.96,1.56-1.56,2.88-3.4,3.74-5.46.44-1.02.77-2.1.86-3.26.09-1.13-.16-2.42-1.01-3.34-.83-.91-2.02-1.31-3.14-1.45-1.14-.13-2.27-.03-3.36.28-2.17.68-3.99,1.9-5.79,3.12-1.78,1.25-3.49,2.59-5.14,4.01l.34.23,2.42-8.12c1.97-2.04,4.52-3.57,7.25-4.24Z"/>
              </g>
              <g>
                <g>
                  <path class="cls-20" d="M40.82,199.15c-.08.48-19.19-2.21-23.46-2.79-4.21-.92-23.07-4.97-22.99-5.44,0,0-3.15,45.87-3.16,45.9-.44,2.51,4.4,6.51,17.47,9.05,11.68,2.26,17.77-.21,18.22-2.72,0-.04,13.91-43.99,13.91-43.99Z"/>
                  <path class="cls-19" d="M30.5,230.49c-.88,2.65-1.72,5.32-2.57,7.98l-1.26,3.99-.29.9c-.11.25-.27.49-.49.7-.43.43-.98.78-1.59,1.03-2.43,1.04-5.22,1.23-7.92,1.21-2.73-.06-5.45-.42-8.13-.95-2.69-.52-5.36-1.18-7.96-2.04-2.57-.89-5.17-1.93-7.24-3.64-.52-.42-.95-.93-1.28-1.48l-.2-.43c-.04-.15-.07-.3-.1-.45-.01-.15,0-.3,0-.45l.03-.52.25-4.13.52-8.27c.62-11.03,1.56-22.01,2.42-33.02l-.65-.08c-.01.08,0,.19.06.26.05.06.04.05.06.07.04.03.08.06.09.07.04.02.08.05.11.06l.19.08.36.13.72.22,1.43.39,2.88.71,5.76,1.34,11.56,2.49h.01s.01,0,.01,0c3.9.54,7.82,1.01,11.73,1.49,1.96.24,3.92.46,5.88.66l2.95.28,1.48.11.74.03h.37s.19,0,.19,0c.03,0,.06,0,.1-.01.02,0,.03,0,.05-.02.01,0,.02,0,.03-.01,0,0,.03-.03.02-.06-.01-.03-.02-.03-.02-.03-3.27,10.3-6.82,20.77-10.32,31.39ZM34.96,198.54l-5.85-.82-11.7-1.69h.02s-11.54-2.58-11.54-2.58l-5.76-1.31-2.87-.69-1.42-.37-.7-.2-.34-.11-.15-.06-.05-.02s0,0,.01.01l.03.04c.05.06.06.16.04.22l-.65-.08c-.65,11-1.23,22.03-2.12,33.01l-.61,8.24-.31,4.12-.04.52c0,.19-.03.39-.02.59.04.19.07.38.12.56l.22.52c.37.64.84,1.2,1.38,1.66,2.17,1.85,4.79,2.93,7.39,3.89,2.62.93,5.32,1.6,8.03,2.15,2.72.55,5.48.94,8.27,1.03,2.78.04,5.64-.12,8.31-1.27.66-.29,1.3-.68,1.85-1.22.28-.27.51-.6.67-.98l.34-1.07,1.23-3.9c.82-2.6,1.64-5.19,2.42-7.8,3.14-10.42,6.25-20.99,9.63-31.72-1.92-.11-3.9-.39-5.85-.65Z"/>
                </g>
                <g class="cls-10">
                  <path class="cls-20" d="M37.42,198.96c-1.93,7.45-3.47,15-5.82,22.33-1.67,5.21-3.62,10.73-7.75,14.54-3.97,3.67-9.1,4.52-14.34,4.16-3.79-.26-7.52-1.13-11.15-2.22-1.51-.45-3.03-.91-4.5-1.47-.9-.34-1.71-.82-2.52-1.3-.08,1.15-.13,1.82-.13,1.82-.44,2.51,4.4,6.51,17.47,9.05,11.68,2.26,17.77-.21,18.22-2.72,0-.04,13.91-43.99,13.91-43.99-.02.12-1.36.03-3.4-.18Z"/>
                </g>
                <g>
                  <path class="cls-17" d="M41.03,199.19c-.66,3.75-11.65,4.93-24.53,2.65-12.88-2.29-22.79-7.18-22.12-10.92s11.65-4.93,24.53-2.65c12.88,2.29,22.79,7.18,22.12,10.92Z"/>
                  <path class="cls-19" d="M39.81,196.3c-.75-.78-1.65-1.41-2.55-2-1.83-1.16-3.8-2.08-5.81-2.89-4.02-1.61-8.24-2.7-12.49-3.46-4.26-.76-8.59-1.2-12.92-1.13-2.17.03-4.34.2-6.47.65-1.06.24-2.12.53-3.12,1.02-.96.47-2.01,1.2-2.24,2.4-.17,1.2.57,2.23,1.32,2.98.77.78,1.68,1.4,2.6,1.97,1.86,1.12,3.85,1.97,5.86,2.77,4.04,1.53,8.22,2.69,12.47,3.49,4.25.77,8.58,1.22,12.91,1.1,2.16-.07,4.33-.24,6.44-.71,1.05-.25,2.11-.52,3.08-1,.95-.46,1.95-1.17,2.17-2.29.18-1.12-.51-2.14-1.25-2.89ZM38.85,201.39c-.97.45-2.02.74-3.07.93-2.11.39-4.27.49-6.42.48-4.3-.04-8.58-.51-12.82-1.22-4.23-.72-8.45-1.68-12.49-3.19-2.02-.74-3.99-1.63-5.81-2.77-.9-.57-1.78-1.2-2.52-1.96-.72-.74-1.36-1.72-1.19-2.72.21-.99,1.15-1.66,2.08-2.09.95-.44,1.99-.71,3.04-.92,2.1-.4,4.25-.51,6.39-.54,4.29-.01,8.57.46,12.81,1.18,4.23.76,8.41,1.78,12.46,3.21,2.02.72,4.01,1.56,5.86,2.65.92.55,1.81,1.17,2.56,1.93.74.74,1.42,1.72,1.26,2.81-.22,1.07-1.21,1.76-2.15,2.2Z"/>
                </g>
                <g class="cls-12">
                  <path class="cls-17" d="M38.84,198.54c-.09.53-.48.98-1.12,1.36-2.96,1.79-11.35,1.98-20.94.28-9.08-1.61-16.56-4.44-19.16-7.03-.75-.73-1.09-1.44-.97-2.1.53-2.97,10.4-3.7,22.04-1.64,11.65,2.07,20.67,6.15,20.15,9.12Z"/>
                </g>
                <path class="cls-19" d="M37.73,199.91c-2.96,1.79-11.35,1.98-20.94.28-9.08-1.61-16.56-4.44-19.16-7.03,2.96-1.77,11.35-1.97,20.94-.27,9.08,1.61,16.55,4.44,19.16,7.02Z"/>
              </g>
            </g>
            <path class="cls-19" d="M-6.38,201.26c1.47,1.27,3.16,2.21,4.89,3.05,1.73.85,3.53,1.54,5.33,2.24,1.8.7,3.62,1.4,5.49,1.92,1.86.54,3.77.92,5.69,1.23,3.83.59,7.68,1.04,11.53,1.19,1.92.08,3.85.1,5.76-.09.95-.12,1.91-.21,2.82-.48.91-.26,1.84-.57,2.57-1.21l.06.06c-.67.74-1.58,1.21-2.5,1.56-.93.36-1.9.56-2.87.73-1.95.31-3.92.39-5.88.34-3.92-.15-7.8-.73-11.59-1.63-3.78-.94-7.58-1.79-11.32-2.94-1.86-.62-3.66-1.39-5.39-2.32-1.71-.94-3.39-2.06-4.66-3.56l.06-.06Z"/>
            <path class="cls-19" d="M2.42,187.01c-2.14-.35-4.01-1.88-4.96-3.85-1.01-1.95-1.07-4.35-.22-6.4.9-2.02,2.64-3.65,4.71-4.43,1.03-.39,2.14-.64,3.25-.58,1.11.04,2.21.32,3.22.79l-.39.38c-1.09-2.35-1.86-4.96-1.61-7.6.24-2.63,1.54-5.07,3.35-6.92,1.83-1.86,4.19-3.16,6.71-3.77,2.54-.56,5.22-.54,7.73.21,2.5.73,4.88,1.99,6.78,3.81,1.9,1.79,3.43,4.06,4.15,6.61.16.64.36,1.27.42,1.93l.13.98c.01.33.04.66.03.99,0,1.32-.18,2.64-.48,3.91-.59,2.55-1.52,4.96-2.07,7.45l-.67-.14c.09-.32.29-.62.54-.78.25-.18.51-.27.76-.34.51-.13,1.01-.16,1.51-.16.99.02,1.97.1,2.93.43,1.9.67,3.44,2.16,4.21,3.99.76,1.84.66,3.98-.18,5.74-.4.9-1.12,1.66-1.99,2.1-.86.46-1.81.69-2.73.94l-.02-.07c.91-.29,1.84-.56,2.65-1.04.82-.47,1.45-1.2,1.81-2.07.76-1.71.78-3.74.02-5.43-.76-1.67-2.22-3.05-3.96-3.62-.85-.28-1.82-.35-2.74-.35-.46,0-.92.05-1.34.16-.43.11-.74.34-.81.61l-.67-.14c.55-2.56,1.48-4.98,2.04-7.46.28-1.24.45-2.5.46-3.75,0-.31-.02-.63-.02-.94l-.12-.93c-.05-.63-.23-1.23-.38-1.84-1.39-4.86-5.54-8.75-10.4-10.22-2.43-.78-5.06-.89-7.56-.36-2.48.58-4.84,1.84-6.6,3.7-1.77,1.83-2.96,4.26-3.11,6.79-.18,2.54.66,5.02,1.73,7.33l.33.72-.72-.34c-1.87-.87-4.08-.94-6.01-.19-1.95.7-3.59,2.21-4.45,4.09-.84,1.89-.86,4.15.06,6.04.85,1.9,2.56,3.48,4.67,3.93v.07Z"/>
          </g>
          <g>
            <g>
              <path class="cls-9" d="M68.85,135.4c3.29.73,6.11,3.12,7.38,5.87,1.21,2.62,1.39,5.04.22,7.7-.6,1.37-1.87,3.47-3.66,4.11,1.81.99,3.06,3.8,3.56,5.22.97,2.74.61,5.14-.8,7.66-1.47,2.65-4.14,4.14-7.46,4.66-12.09,1.9-20.57-10.95-24.55-14.01-2.39-1.84-4.84-3.65-7.56-5.08l.88-.23c12.18-3.99,14-12.16,20.85-14.85,5.89-2.31,7.16-1.92,11.14-1.05Z"/>
              <path class="cls-19" d="M64.12,134.63c-1.61.06-3.18.49-4.7.98-.76.25-1.51.5-2.27.81-.75.31-1.47.7-2.15,1.15-1.36.89-2.57,1.99-3.7,3.13-2.25,2.28-4.44,4.56-7.01,6.35-2.55,1.8-5.45,3.15-8.44,3.97l-1.29.36,1.18.61c2.26,1.17,4.38,2.63,6.44,4.17.51.39,1.05.77,1.51,1.17.48.4.93.86,1.39,1.31l2.73,2.76c3.65,3.65,7.77,7.14,12.79,8.77,2.49.8,5.17.99,7.75.59,2.56-.41,5.16-1.53,6.82-3.68.8-1.08,1.4-2.27,1.78-3.56.37-1.29.44-2.69.17-4.02-.28-1.33-.8-2.55-1.42-3.73-.64-1.16-1.42-2.33-2.7-3.06l-.06.79c1.03-.39,1.82-1.14,2.44-1.93.62-.81,1.12-1.69,1.48-2.63.76-1.86.86-4.01.25-5.91-.56-1.9-1.65-3.63-3.11-4.95-1.43-1.34-3.22-2.29-5.13-2.71-1.55-.35-3.11-.78-4.73-.72ZM73.86,138.21c1.41,1.33,2.36,3.08,2.83,4.93.49,1.85.3,3.81-.5,5.51-.39.85-.86,1.68-1.45,2.4-.58.72-1.29,1.34-2.1,1.62l-.87.3.81.49c.98.59,1.74,1.64,2.35,2.72.6,1.1,1.11,2.28,1.37,3.48.6,2.41-.17,5.01-1.58,7.08-.73,1.02-1.71,1.85-2.82,2.46-1.12.6-2.35.99-3.61,1.21-2.52.46-5.15.23-7.58-.58-2.44-.8-4.66-2.17-6.69-3.73-2.03-1.58-3.86-3.39-5.64-5.25l-2.67-2.83c-.45-.47-.91-.93-1.42-1.38-.52-.45-1.03-.82-1.54-1.23-2.06-1.58-4.2-3.1-6.52-4.35l-.11.97c3.16-.84,6.11-2.28,8.77-4.15,1.32-.94,2.57-1.99,3.71-3.12,1.15-1.13,2.22-2.33,3.3-3.48,1.09-1.15,2.18-2.29,3.45-3.21.63-.46,1.3-.87,2-1.2.71-.33,1.46-.62,2.2-.9,1.48-.56,3.01-1.06,4.59-1.14,1.58-.08,3.15.31,4.7.63,1.88.45,3.64,1.42,5.02,2.76Z"/>
            </g>
            <path class="cls-6" d="M36.39,151.53c9.82.37,20.7,1.6,30.57,1.56,6.78-.03,13.59-.25,19.71-2.68"/>
            <path class="cls-6" d="M45.2,158.01s5.15-2,8.03-5.45c-4.3-5.04-7.83-5.8-7.83-5.8"/>
            <path class="cls-6" d="M51.83,164.77s7.51-3.16,10-11.7c-2.05-9.21-10.04-12.45-10.04-12.45"/>
            <path class="cls-6" d="M61.7,170.39s8-4.7,9.92-17.27c-2.78-12.86-11.08-17.55-11.08-17.55"/>
          </g>
          <path class="cls-17" d="M63,197.83c0,1.84-1.49,3.33-3.33,3.33s-3.33-1.49-3.33-3.33,1.49-3.33,3.33-3.33,3.33,1.49,3.33,3.33Z"/>
          <circle class="cls-17" cx="3.98" cy="109.49" r="2.56"/>
          <path class="cls-17" d="M22.46,113.6c0,1.84-1.49,3.33-3.33,3.33s-3.33-1.49-3.33-3.33,1.49-3.33,3.33-3.33,3.33,1.49,3.33,3.33Z"/>
          <path class="cls-17" d="M43.55,126.25c0,1.84-1.49,3.33-3.33,3.33s-3.33-1.49-3.33-3.33,1.49-3.33,3.33-3.33,3.33,1.49,3.33,3.33Z"/>
          <circle class="cls-17" cx="12.18" cy="128.21" r="2.56"/>
          <g>
            <g>
              <path class="cls-22" d="M5.94,148.9c.57-5.83-4.24-9.25-9.17-6.32-1.18.7-1.55,1.04-2.56,1.96-.95.88-.8.99-2.08.24-2.6-1.53-6.61-1.83-9.32,1.18-.42.47-1.49,2.25-1.49,2.25,0,0-1.02-.81-1.8-1.17-6.61-3.02-10.57.17-11.92,3.47-3.5-2.81-6.79-1.88-8.4-1.53-1.93.42-4.46,2.23-5.54,3.88-1.24-.62-3.66-3.24-9.39-1.75-2.11.55-5.89,2.17-6.41,4.8-3.67-2.57-7.4-2.69-10.61-1.87-1.56.4-3.17,1.71-3.8,3.76-.96,3.09,1.18,7.79,6.95,7.7,5.98-.09,6.21-2.81,6.21-2.81,0,0,1.66,3.19,6.11,3.58,3.39.29,5.44-.14,8.2-1.92,1.64-1.06,3.11-3.08,3.28-5.49,1.06,1.37,2.89,2.44,4.4,2.96,4.85,1.65,11.14-.02,11.6-4.83,3.53,1.88,5.6,2.79,9.43,1.7,4.72-1.34,5.86-5.66,5.86-5.66,0,0,.94,2.06,2.81,2.87,1.58.69,6.21.61,8.48-2.97,3.69,1.2,8.74.27,9.16-4.04Z"/>
              <path class="cls-4" d="M5.94,148.9c.57-5.83-4.24-9.25-9.17-6.32-1.18.7-1.55,1.04-2.56,1.96-.95.88-.8.99-2.08.24-2.6-1.53-6.61-1.83-9.32,1.18-.42.47-1.49,2.25-1.49,2.25,0,0-1.02-.81-1.8-1.17-6.61-3.02-10.57.17-11.92,3.47-3.5-2.81-6.79-1.88-8.4-1.53-1.93.42-4.46,2.23-5.54,3.88-1.24-.62-3.66-3.24-9.39-1.75-2.11.55-5.89,2.17-6.41,4.8-3.67-2.57-7.4-2.69-10.61-1.87-1.56.4-3.17,1.71-3.8,3.76-.96,3.09,1.18,7.79,6.95,7.7,5.98-.09,6.21-2.81,6.21-2.81,0,0,1.66,3.19,6.11,3.58,3.39.29,5.44-.14,8.2-1.92,1.64-1.06,3.11-3.08,3.28-5.49,1.06,1.37,2.89,2.44,4.4,2.96,4.85,1.65,11.14-.02,11.6-4.83,3.53,1.88,5.6,2.79,9.43,1.7,4.72-1.34,5.86-5.66,5.86-5.66,0,0,.94,2.06,2.81,2.87,1.58.69,6.21.61,8.48-2.97,3.69,1.2,8.74.27,9.16-4.04Z"/>
            </g>
            <g class="cls-10">
              <path class="cls-17" d="M-69.6,165.52c5.98-.09,6.21-2.81,6.21-2.81,0,0,1.66,3.19,6.11,3.58,3.39.29,5.44-.14,8.2-1.92,1.64-1.06,3.11-3.08,3.28-5.49,1.06,1.37,2.89,2.44,4.41,2.95,4.84,1.65,11.14-.02,11.6-4.83,3.53,1.88,5.6,2.79,9.43,1.7,4.73-1.34,5.86-5.66,5.86-5.66,0,0,.94,2.06,2.8,2.87,1.58.69,6.21.61,8.49-2.96,3.69,1.2,8.73.27,9.16-4.05.12-1.19.01-2.27-.28-3.23-.53,4.18-5.5,5.07-9.14,3.88-2.28,3.58-6.9,3.66-8.48,2.97-1.87-.81-2.81-2.87-2.81-2.87,0,0-1.13,4.32-5.86,5.66-3.83,1.08-5.89.18-9.43-1.7-.46,4.82-6.76,6.48-11.6,4.83-1.51-.52-3.34-1.58-4.41-2.96-.17,2.41-1.64,4.43-3.27,5.49-2.76,1.78-4.81,2.21-8.2,1.92-4.45-.39-6.11-3.58-6.11-3.58,0,0-.23,2.72-6.21,2.81-3.71.05-5.92-1.86-6.77-4.06-.77,3.09,1.41,7.53,7.03,7.44Z"/>
            </g>
            <path class="cls-15" d="M-2.66,144.52c-.19,1.19,1.16,2.39,3.02,2.68,1.86.29,3.52-.43,3.7-1.62.19-1.19-1.16-2.39-3.02-2.68s-3.52.43-3.7,1.62Z"/>
          </g>
        </g>
        <g>
          <g>
            <g>
              <path class="cls-20" d="M216.66,124.36c-2.19-.53-4.21-1.35-6.15-2.53-10.35-6.29-10.48-16.86-11.08-20.8-.76-4.97-2.12-11.12-3.95-16.44,1.8,1.34,11.35,4.17,13.9,4.8,3.86.96,7.57,2.15,11.22,3.77,4.26,1.9,8.02,5.39,9.71,9.08,1.69,3.68,2.38,7.42,2.36,11.37,0,2.81-.44,7.5,1.49,9.85-1.53-.17-13.36,1.9-17.51.9Z"/>
              <path class="cls-19" d="M221.04,124.69c1.47-.04,2.93-.14,4.39-.24,1.46-.11,2.92-.25,4.38-.38l2.19-.2c.71-.05,1.49-.13,2.13-.1l.69.04-.41-.55c-.72-.96-1.06-2.2-1.22-3.44-.16-1.25-.17-2.53-.13-3.81.1-2.56.09-5.23-.4-7.81-.48-2.59-1.29-5.1-2.61-7.42-1.37-2.28-3.27-4.18-5.39-5.73-2.13-1.58-4.6-2.57-7.02-3.46-2.44-.89-4.93-1.62-7.45-2.24-2.51-.6-4.99-1.3-7.46-2.08-1.23-.39-2.46-.79-3.67-1.23-1.2-.44-2.44-.9-3.49-1.58l-.36-.23.13.39c1.29,3.8,2.2,7.71,2.95,11.64.36,1.97.7,3.95.94,5.92.23,1.99.46,4.02,1,5.98.52,1.96,1.24,3.89,2.23,5.67.99,1.78,2.26,3.4,3.71,4.81,2.94,2.78,6.57,4.83,10.49,5.74,1.44.31,2.93.31,4.39.29ZM206.42,118.4c-2.77-2.88-4.57-6.55-5.49-10.39-.46-1.93-.77-3.89-1-5.89-.25-2.01-.65-3.98-1.08-5.95-.86-3.93-1.94-7.82-3.25-11.62l-.22.16c1.13.72,2.36,1.12,3.57,1.59,1.21.45,2.44.87,3.67,1.27,2.46.78,4.93,1.59,7.43,2.24,2.49.67,4.94,1.45,7.34,2.39,2.4.94,4.75,1.97,6.78,3.5,2.03,1.51,3.84,3.37,5.11,5.53,1.21,2.19,2.04,4.65,2.5,7.14.24,1.25.37,2.52.43,3.79.06,1.27,0,2.55,0,3.85,0,1.3.04,2.61.24,3.93.21,1.3.58,2.65,1.48,3.73l.28-.51c-.82-.01-1.51.1-2.25.19l-2.18.29c-1.45.2-2.9.39-4.36.55-1.45.17-2.91.3-4.37.35-1.46.04-2.93.07-4.37-.22-3.9-.94-7.49-3.05-10.25-5.92Z"/>
            </g>
            <path class="cls-2" d="M195.88,84.93s19.37,26.69,38.28,38.53c2.99,1.87,5.56,3.39,7.77,4.62"/>
            <path class="cls-2" d="M199.12,98.74s3,2.72,11.18,3.8c3.28-4.06-.93-13.15-.93-13.15"/>
            <path class="cls-2" d="M200.77,108.12s6.12,3.98,16.44,1.34c2.59-5.23,2.8-14.42.16-17.83"/>
            <path class="cls-2" d="M204.4,116.38s7.9,4.26,19.11-.89c1.18-2.51,5.58-10.39,2.46-18.86"/>
          </g>
          <g>
            <g>
              <path class="cls-16" d="M187.32,5.8s-.03.1-.05.14c-.68,1.55-4.7,1.28-8.97-.6-4.28-1.88-7.19-4.66-6.51-6.2.01-.03.03-.06.05-.09h0s6.98-15.88,6.98-15.88l15.51,6.95-7,15.68s0,0,0,0Z"/>
              <path class="cls-19" d="M187.37,5.78v.04c1.33-2.54,2.59-5.11,3.84-7.69,1.23-2.59,2.47-5.17,3.65-7.78l.24-.53-.53-.24c-2.58-1.18-5.18-2.3-7.78-3.42-2.6-1.13-5.21-2.24-7.83-3.3l-.33-.13-.12.31c-1.07,2.69-2.17,5.36-3.34,8.01-.61,1.31-1.18,2.64-1.82,3.94l-1.89,3.91-.17.36.38.18h0s-.15-.63-.15-.63c-.37.61-.27,1.11-.14,1.58.15.46.4.83.65,1.18.52.7,1.16,1.26,1.81,1.77,1.33,1,2.8,1.78,4.3,2.42,1.51.65,3.1,1.1,4.73,1.33.81.11,1.65.16,2.48.04.41-.06.83-.16,1.21-.35.37-.18.74-.55.8-.93.01-.01.02-.04.01-.06ZM185.32,6.72c-.78.02-1.57-.09-2.34-.24-1.55-.32-3.04-.89-4.48-1.53-1.44-.66-2.82-1.45-4.05-2.41-.62-.47-1.19-1-1.67-1.57-.23-.29-.44-.59-.55-.9-.15-.28-.11-.66-.08-.76l.17-.51-.32-.13h0s.21.54.21.54l1.6-4.03c.52-1.35,1.11-2.67,1.67-4,1.16-2.65,2.38-5.27,3.64-7.87l-.45.17c2.54,1.26,5.11,2.46,7.68,3.65,2.57,1.19,5.14,2.39,7.73,3.52l-.29-.77c-1.15,2.62-2.25,5.27-3.36,7.91-1.08,2.65-2.16,5.31-3.16,7.99v.04s0-.04,0-.05c-.33.79-1.21.91-1.96.96Z"/>
            </g>
            <g>
              <g>
                <path class="cls-16" d="M189.09,14.52s-.09-.03-.14-.06c-1.51-.75-1.05-4.75,1.03-8.93,2.08-4.18,5-6.96,6.51-6.2.03.01.06.03.08.05h0s15.53,7.74,15.53,7.74l-7.82,15.14-15.2-7.73s0,0,0,0Z"/>
                <path class="cls-19" d="M189.12,14.58h-.04c2.45,1.44,4.94,2.82,7.43,4.19,2.5,1.34,5,2.7,7.53,4l.51.26.27-.52c1.32-2.51,2.59-5.05,3.86-7.59,1.27-2.54,2.53-5.08,3.74-7.66l.15-.32-.3-.14c-2.64-1.2-5.25-2.42-7.84-3.72-1.28-.67-2.58-1.31-3.84-2.01l-3.81-2.07-.35-.19-.2.37h0s.64-.12.64-.12c-.59-.4-1.1-.33-1.57-.22-.46.13-.85.35-1.21.59-.72.49-1.31,1.1-1.86,1.73-1.07,1.28-1.91,2.71-2.63,4.18-.72,1.48-1.25,3.05-1.56,4.66-.15.81-.24,1.64-.16,2.47.04.41.12.83.29,1.22.16.38.51.76.89.84.01.01.04.02.06.02ZM188.27,12.48c.02-.78.16-1.56.35-2.32.39-1.53,1.04-2.99,1.74-4.41.73-1.41,1.59-2.74,2.61-3.93.5-.59,1.05-1.14,1.65-1.59.3-.22.61-.41.93-.51.29-.13.66-.08.76-.04l.5.19.14-.31h0s-.55.18-.55.18l3.95,1.8c1.32.59,2.61,1.24,3.92,1.86,2.59,1.28,5.15,2.63,7.69,4.02l-.15-.46c-1.4,2.47-2.74,4.97-4.08,7.48-1.34,2.5-2.68,5.01-3.96,7.54l.78-.25c-2.54-1.28-5.11-2.49-7.67-3.72-2.57-1.21-5.15-2.4-7.77-3.53h-.04s.04,0,.05,0c-.77-.36-.85-1.25-.86-2Z"/>
              </g>
              <g>
                <path class="cls-16" d="M204.37,22.54c-1.51-.75-1.01-4.82,1.11-9.09,2.13-4.27,5.08-7.11,6.59-6.36,1.51.75,1.01,4.82-1.11,9.09-2.13,4.27-5.08,7.11-6.59,6.36Z"/>
                <path class="cls-19" d="M205.58,22.61c.41-.11.76-.33,1.12-.54.7-.44,1.33-1,1.92-1.58,1.19-1.17,2.1-2.58,2.86-4.05.75-1.48,1.31-3.05,1.66-4.69.17-.82.27-1.66.23-2.53-.03-.43-.08-.87-.25-1.31-.16-.42-.44-.89-.93-1.1-.49-.22-1-.11-1.39.06-.41.16-.76.41-1.09.66-.65.52-1.22,1.11-1.76,1.72-1.07,1.23-2.07,2.55-2.89,3.99-.79,1.45-1.37,3.02-1.61,4.67-.11.82-.18,1.66-.11,2.48.05.41.09.83.24,1.22.13.38.35.79.75.97.39.2.84.14,1.23.02ZM203.64,20.39c.06-.79.25-1.57.5-2.32.52-1.5,1.12-2.96,1.76-4.41.64-1.45,1.35-2.91,2.34-4.17.5-.62,1.07-1.2,1.71-1.65.61-.44,1.46-.77,1.99-.48.51.33.58,1.15.57,1.88-.03.76-.19,1.52-.37,2.28-.4,1.51-1.02,2.97-1.7,4.4-.69,1.42-1.49,2.78-2.36,4.11-.45.65-.96,1.27-1.55,1.8-.57.49-1.37.98-2.12.67-.7-.41-.8-1.34-.75-2.1Z"/>
              </g>
            </g>
          </g>
          <g>
            <g>
              <path class="cls-17" d="M292.33,37.85c-1.25,7.03-17.7,9.99-36.74,6.62-19.04-3.38-33.47-11.82-32.22-18.85,1.25-7.03,17.7-9.99,36.74-6.62,19.04,3.38,33.47,11.82,32.22,18.85Z"/>
              <path class="cls-19" d="M291.12,33.14c-.94-1.38-2.14-2.55-3.43-3.6-2.6-2.08-5.53-3.69-8.53-5.09-6.04-2.76-12.47-4.61-19-5.75-6.53-1.13-13.19-1.67-19.83-1.22-3.31.24-6.63.75-9.8,1.81-1.58.54-3.12,1.23-4.49,2.21-1.34.98-2.55,2.37-2.84,4.08-.3,1.72.37,3.42,1.31,4.78.96,1.37,2.18,2.54,3.48,3.57,2.63,2.04,5.57,3.61,8.57,5.01,6.04,2.73,12.47,4.55,18.98,5.76,6.52,1.21,13.19,1.69,19.81,1.19,3.3-.27,6.61-.79,9.75-1.85,1.56-.55,3.1-1.22,4.45-2.19,1.33-.96,2.51-2.32,2.79-3.98.31-1.67-.32-3.35-1.24-4.71ZM289.51,41.75c-1.35.94-2.88,1.62-4.44,2.12-3.15.99-6.44,1.43-9.73,1.65-3.29.2-6.6.14-9.88-.11-3.29-.25-6.57-.62-9.82-1.18-6.5-1.13-12.92-2.86-18.97-5.51-3.02-1.33-5.94-2.93-8.52-4.98-1.28-1.03-2.47-2.19-3.39-3.54-.9-1.34-1.51-2.96-1.22-4.56.29-1.59,1.44-2.89,2.75-3.81,1.33-.93,2.85-1.59,4.4-2.09,3.13-.99,6.41-1.45,9.69-1.7,6.57-.44,13.2.11,19.68,1.25,3.25.58,6.46,1.34,9.63,2.23,3.17.89,6.3,1.97,9.32,3.28,3.01,1.32,5.95,2.89,8.56,4.9,1.29,1.01,2.5,2.16,3.45,3.51.92,1.34,1.57,2.98,1.29,4.62-.3,1.64-1.47,2.97-2.79,3.91Z"/>
            </g>
            <g class="cls-11">
              <path class="cls-17" d="M283.69,36.31c-.83,4.67-13.07,6.41-27.34,3.87-14.27-2.53-25.17-8.37-24.34-13.04.83-4.67,13.07-6.41,27.34-3.87,14.27,2.53,25.17,8.37,24.34,13.04Z"/>
            </g>
            <g>
              <g>
                <path class="cls-20" d="M288.32-8.85c-.08.48-19.19-2.21-23.46-2.79-4.21-.92-23.07-4.97-22.99-5.44,0,0-3.15,45.87-3.16,45.9-.44,2.51,4.4,6.51,17.47,9.05,11.68,2.26,17.77-.21,18.22-2.72,0-.04,13.91-43.99,13.91-43.99Z"/>
                <path class="cls-19" d="M278,22.49c-.88,2.65-1.72,5.32-2.57,7.98l-1.26,3.99-.29.9c-.11.25-.27.49-.49.7-.43.43-.98.78-1.59,1.03-2.43,1.04-5.22,1.23-7.92,1.21-2.73-.06-5.45-.42-8.13-.95-2.69-.52-5.36-1.18-7.96-2.04-2.57-.89-5.17-1.93-7.24-3.64-.52-.42-.95-.93-1.28-1.48l-.2-.43c-.04-.15-.07-.3-.1-.45-.01-.15,0-.3,0-.45l.03-.51.25-4.13.52-8.27c.62-11.03,1.56-22.01,2.42-33.02l-.65-.08c-.01.08,0,.19.06.26.05.06.04.05.06.07.04.03.08.06.09.07.04.02.08.05.11.06l.19.08.36.13.72.22,1.43.39,2.88.71,5.76,1.34,11.56,2.49h.01s.01,0,.01,0c3.9.54,7.82,1.01,11.73,1.49,1.96.24,3.92.46,5.88.66l2.95.28,1.48.11.74.03h.37s.19,0,.19,0c.03,0,.06,0,.1-.01.02,0,.03,0,.05-.02.01,0,.02,0,.03-.01,0,0,.03-.03.02-.06-.01-.03-.02-.03-.02-.03-3.27,10.3-6.82,20.77-10.32,31.39ZM282.46-9.46l-5.85-.82-11.7-1.69h.02s-11.54-2.58-11.54-2.58l-5.76-1.31-2.87-.69-1.42-.37-.7-.2-.34-.11-.15-.06-.05-.02s0,0,.01.01l.03.04c.04.06.06.16.04.22l-.65-.08c-.65,11-1.23,22.03-2.12,33.01l-.61,8.24-.31,4.12-.04.52c0,.19-.03.39-.02.59.04.19.07.38.12.56l.22.52c.37.64.84,1.2,1.38,1.66,2.17,1.85,4.79,2.93,7.39,3.89,2.62.93,5.32,1.6,8.03,2.15,2.72.55,5.48.94,8.27,1.03,2.78.04,5.64-.12,8.31-1.27.66-.29,1.3-.68,1.85-1.22.28-.27.51-.6.67-.98l.34-1.07,1.23-3.9c.82-2.6,1.64-5.19,2.42-7.8,3.14-10.42,6.25-20.99,9.63-31.72-1.92-.11-3.9-.39-5.85-.65Z"/>
              </g>
              <g class="cls-10">
                <path class="cls-20" d="M284.92-9.04c-1.93,7.45-3.47,15-5.82,22.33-1.67,5.21-3.62,10.73-7.75,14.54-3.97,3.67-9.1,4.52-14.34,4.16-3.79-.26-7.52-1.13-11.15-2.22-1.51-.45-3.03-.91-4.5-1.47-.9-.34-1.71-.82-2.52-1.3-.08,1.15-.13,1.82-.13,1.82-.44,2.51,4.4,6.51,17.47,9.05,11.68,2.26,17.77-.21,18.22-2.72,0-.04,13.91-43.99,13.91-43.99-.02.12-1.36.03-3.4-.18Z"/>
              </g>
              <g class="cls-14">
                <path class="cls-16" d="M245.91,7.92c-.78,8.45-2.09,15.23-2.92,15.14-.83-.09-.87-6.99-.09-15.42.78-8.43,2.09-15.21,2.92-15.14s.87,6.97.09,15.42Z"/>
              </g>
            </g>
            <path class="cls-19" d="M241.12-6.74c1.47,1.27,3.16,2.21,4.89,3.05,1.73.85,3.53,1.54,5.33,2.24,1.8.7,3.62,1.4,5.49,1.92,1.86.54,3.77.92,5.69,1.23,3.83.59,7.68,1.04,11.53,1.19,1.92.08,3.85.1,5.76-.09.95-.12,1.91-.21,2.82-.48.91-.26,1.84-.57,2.57-1.21l.06.06c-.67.74-1.58,1.21-2.5,1.56-.93.36-1.9.56-2.87.73-1.95.31-3.92.39-5.88.34-3.92-.15-7.8-.73-11.59-1.63-3.78-.94-7.58-1.79-11.32-2.94-1.86-.62-3.66-1.39-5.39-2.32-1.71-.94-3.39-2.06-4.66-3.56l.06-.06Z"/>
            <path class="cls-19" d="M239.3,23.99c2.7,1.64,5.6,2.8,8.54,3.9l2.21.83c.75.25,1.5.49,2.25.71,1.53.39,3.07.7,4.64.89,3.13.39,6.25.69,9.38.77,3.12.1,6.27.09,9.33-.66l.03.08c-2.94,1.28-6.22,1.5-9.38,1.48-3.18-.09-6.35-.51-9.44-1.22l-4.62-1.08c-.77-.19-1.54-.36-2.32-.53l-2.3-.62c-3.01-.99-5.97-2.38-8.36-4.5l.05-.07Z"/>
          </g>
          <g>
            <path class="cls-5" d="M284.43,94.27c-14.17-7.47-34.92-20.78-44.59-30.98-3.9-4.12-6.49-8.38-8.46-13.65"/>
            <g>
              <path class="cls-18" d="M244.52,57.65s1.98,2.57,2.87,3.6c2.11,2.47,4.28,3.45,7.49,3.77,3.62.36,6.34-.45,9.73-1.71,2.16-.8,4.93-2.24,7-3.25-3.02-1.46-8.66-6.04-16.4-6.94-6.17-.72-10.69,4.53-10.69,4.53Z"/>
              <path class="cls-19" d="M250.81,53.84c1.17-.35,2.39-.51,3.6-.45,1.2.07,2.43.32,3.63.59,2.39.61,4.7,1.52,6.91,2.64,1.1.57,2.19,1.17,3.27,1.79,1.09.62,2.15,1.27,3.3,1.82v-.35c-2.29,1.18-4.56,2.44-6.97,3.32-2.41.89-4.92,1.59-7.46,1.61-2.51,0-5.15-.3-7.26-1.68-1.04-.68-1.98-1.58-2.77-2.56l-2.52-2.93c1.76-1.7,3.92-3.11,6.26-3.81ZM246.78,60.77c.78,1.07,1.67,2.04,2.77,2.79,1.09.75,2.36,1.24,3.65,1.51,1.29.26,2.6.35,3.92.3,2.64-.13,5.12-1.05,7.52-1.95,2.41-.95,4.72-2.11,7.06-3.19l.35-.16-.35-.19c-2.17-1.18-4.21-2.68-6.45-3.83-1.11-.59-2.26-1.13-3.43-1.61-1.18-.47-2.39-.84-3.62-1.14-1.24-.26-2.47-.54-3.77-.56-1.29-.03-2.58.18-3.78.59-2.42.85-4.51,2.37-6.17,4.31.74,1.01,1.5,2.07,2.29,3.13Z"/>
            </g>
            <path class="cls-5" d="M271.25,60.13c-24.23-6.56-32.64.1-33.47.65"/>
            <g>
              <path class="cls-18" d="M246.54,77.26s3.11.93,4.39,1.39c3.06,1.09,4.75,2.77,6.19,5.65,1.63,3.25,1.84,6.08,1.88,9.7.02,2.31-.33,5.41-.54,7.7-2.44-2.3-8.73-5.93-12.34-12.85-2.87-5.5.42-11.6.42-11.6Z"/>
              <path class="cls-19" d="M244.7,84.53c.05,1.28.31,2.55.8,3.75.48,1.21,1.18,2.25,1.87,3.32.73,1.04,1.5,2.04,2.36,2.97.87.92,1.77,1.8,2.72,2.63,1.87,1.68,4,3.05,5.88,4.66l.3.26.03-.38c.17-2.57.44-5.14.46-7.73-.01-2.57-.04-5.21-.86-7.72-.42-1.24-.97-2.44-1.67-3.55-.71-1.11-1.62-2.12-2.71-2.87-1.09-.77-2.32-1.24-3.6-1.59-1.27-.37-2.53-.7-3.74-1.02-1.22,2.24-1.89,4.73-1.82,7.3ZM250.18,78.6c1.19.38,2.37.94,3.38,1.67,2.04,1.48,3.27,3.83,4.16,6.18.89,2.38,1.14,4.97,1.16,7.54.03,2.57-.33,5.13-.62,7.69l.33-.12c-.92-.88-1.91-1.64-2.88-2.44-.96-.79-1.92-1.59-2.84-2.42-1.84-1.67-3.51-3.5-4.93-5.51-.68-1.02-1.35-2.08-1.85-3.18-.49-1.1-.78-2.3-.87-3.52-.18-2.43.36-4.96,1.32-7.21l3.63,1.31Z"/>
            </g>
            <path class="cls-5" d="M258.21,100.96c-14.77-20.29-11.36-30.14-11.15-31.12"/>
            <g>
              <path class="cls-18" d="M230.71,59.83s2.81,1.63,3.95,2.37c2.73,1.77,3.98,3.79,4.71,6.94.83,3.54.38,6.35-.43,9.87-.51,2.25-1.58,5.18-2.31,7.37-3.3-3.21-7.88-7.79-9.02-15.36-.92-6.14,3.1-11.19,3.1-11.19Z"/>
              <path class="cls-19" d="M227.45,66.6c-.25,1.25-.34,2.54-.23,3.82.1,1.28.4,2.52.75,3.74.71,2.45,1.9,4.75,3.4,6.79,1.48,2.07,3.3,3.84,5.13,5.55l.23.22.09-.29c.76-2.46,1.62-4.9,2.24-7.41.58-2.5,1.17-5.07.95-7.71-.12-1.31-.38-2.6-.81-3.84-.44-1.24-1.08-2.44-1.97-3.42-.88-1-1.99-1.74-3.11-2.39-1.13-.65-2.23-1.26-3.42-1.86-1.61,1.99-2.72,4.31-3.26,6.81ZM233.94,61.96c1.08.69,2.09,1.47,2.9,2.43,1.64,1.91,2.29,4.49,2.61,6.98.32,2.52-.05,5.1-.62,7.61-.57,2.51-1.52,4.91-2.39,7.34l.32-.08c-1.77-1.77-3.45-3.62-4.88-5.65-1.42-2.03-2.53-4.26-3.25-6.62-.71-2.36-1.1-4.83-.67-7.27.4-2.42,1.4-4.79,2.74-6.84,1.03.7,2.15,1.4,3.22,2.1Z"/>
            </g>
            <path class="cls-5" d="M236.67,86.13c-9.66-23.16-4.16-32.5-3.72-33.4"/>
          </g>
          <path class="cls-17" d="M217.72,66.91c0,1.84-1.49,3.33-3.33,3.33s-3.33-1.49-3.33-3.33,1.49-3.33,3.33-3.33,3.33,1.49,3.33,3.33Z"/>
          <circle class="cls-17" cx="213.98" cy="49.82" r="2.56"/>
        </g>
        <g>
          <g>
            <g>
              <path class="cls-20" d="M92.91,228.36c-2.19-.53-4.21-1.35-6.15-2.53-10.35-6.29-10.48-16.86-11.08-20.8-.76-4.97-2.12-11.12-3.95-16.44,1.8,1.34,11.35,4.17,13.9,4.8,3.86.96,7.57,2.15,11.22,3.77,4.26,1.9,8.02,5.39,9.71,9.08,1.69,3.68,2.38,7.42,2.36,11.37,0,2.81-.44,7.5,1.49,9.85-1.53-.17-13.36,1.9-17.51.9Z"/>
              <path class="cls-19" d="M97.29,228.69c1.47-.04,2.93-.14,4.39-.24,1.46-.11,2.92-.25,4.38-.38l2.19-.2c.71-.05,1.49-.13,2.13-.1l.69.04-.41-.55c-.72-.96-1.06-2.2-1.22-3.44-.16-1.25-.17-2.53-.13-3.81.1-2.56.09-5.23-.4-7.81-.48-2.59-1.29-5.1-2.61-7.42-1.37-2.28-3.27-4.18-5.39-5.73-2.13-1.58-4.6-2.57-7.02-3.46-2.44-.89-4.93-1.62-7.45-2.24-2.51-.6-4.99-1.3-7.46-2.08-1.23-.39-2.46-.79-3.67-1.23-1.2-.44-2.44-.9-3.49-1.58l-.36-.23.13.39c1.29,3.8,2.2,7.71,2.95,11.64.36,1.97.7,3.95.94,5.92.23,1.99.46,4.02,1,5.98.52,1.96,1.24,3.89,2.23,5.67.99,1.78,2.26,3.4,3.71,4.81,2.94,2.78,6.57,4.83,10.49,5.74,1.44.31,2.93.31,4.39.29ZM82.67,222.4c-2.77-2.88-4.57-6.55-5.49-10.39-.46-1.93-.77-3.89-1-5.89-.25-2.01-.65-3.98-1.08-5.95-.86-3.93-1.94-7.82-3.25-11.62l-.22.16c1.13.72,2.36,1.12,3.57,1.59,1.21.45,2.44.87,3.67,1.27,2.46.78,4.93,1.59,7.43,2.24,2.49.67,4.94,1.45,7.34,2.39,2.4.94,4.75,1.97,6.78,3.5,2.03,1.51,3.84,3.37,5.11,5.53,1.21,2.19,2.04,4.65,2.5,7.14.24,1.25.37,2.52.43,3.79.06,1.27,0,2.55,0,3.85,0,1.3.04,2.61.24,3.93.21,1.3.58,2.65,1.48,3.73l.28-.51c-.82-.01-1.51.1-2.25.19l-2.18.29c-1.45.2-2.9.39-4.36.55-1.45.17-2.91.3-4.37.35-1.46.04-2.93.07-4.37-.22-3.9-.94-7.49-3.05-10.25-5.92Z"/>
            </g>
            <path class="cls-2" d="M72.13,188.93s19.37,26.69,38.28,38.53c2.99,1.87,5.56,3.39,7.77,4.62"/>
            <path class="cls-2" d="M75.37,202.74s3,2.72,11.18,3.8c3.28-4.06-.93-13.15-.93-13.15"/>
            <path class="cls-2" d="M77.02,212.12s6.12,3.98,16.44,1.34c2.59-5.23,2.8-14.42.16-17.83"/>
            <path class="cls-2" d="M80.65,220.38s7.9,4.26,19.11-.89c1.18-2.51,5.58-10.39,2.46-18.86"/>
          </g>
          <g>
            <g>
              <g>
                <path class="cls-16" d="M63.57,109.8s-.03.1-.05.14c-.68,1.55-4.7,1.28-8.97-.6-4.28-1.88-7.19-4.66-6.51-6.2.01-.03.03-.06.05-.09h0s6.98-15.88,6.98-15.88l15.51,6.95-7,15.68s0,0,0,0Z"/>
                <path class="cls-19" d="M63.62,109.78v.04c1.33-2.54,2.59-5.11,3.84-7.69,1.23-2.59,2.47-5.17,3.65-7.78l.24-.53-.53-.24c-2.58-1.18-5.18-2.3-7.78-3.42-2.6-1.13-5.21-2.24-7.83-3.3l-.33-.13-.12.31c-1.07,2.69-2.17,5.36-3.34,8.01-.61,1.31-1.18,2.64-1.82,3.94l-1.89,3.91-.17.36.38.18h0s-.15-.63-.15-.63c-.37.61-.27,1.11-.14,1.58.15.46.4.83.65,1.18.52.7,1.16,1.26,1.81,1.77,1.33,1,2.8,1.78,4.3,2.42,1.51.65,3.1,1.1,4.73,1.33.81.11,1.65.16,2.48.04.41-.06.83-.16,1.21-.35.37-.18.74-.55.8-.93.01-.01.02-.04.01-.06ZM61.57,110.72c-.78.02-1.57-.09-2.34-.24-1.55-.32-3.04-.89-4.48-1.53-1.44-.66-2.82-1.45-4.05-2.41-.62-.47-1.19-1-1.67-1.57-.23-.29-.44-.59-.55-.9-.15-.28-.11-.66-.08-.76l.17-.51-.32-.13h0s.21.54.21.54l1.6-4.03c.52-1.35,1.11-2.67,1.67-4,1.16-2.65,2.38-5.27,3.64-7.87l-.45.17c2.54,1.26,5.11,2.46,7.68,3.65,2.57,1.19,5.14,2.39,7.73,3.52l-.29-.77c-1.15,2.62-2.25,5.27-3.36,7.91-1.08,2.65-2.16,5.31-3.16,7.99v.04s0-.04,0-.05c-.33.79-1.21.91-1.96.96Z"/>
              </g>
              <g>
                <path class="cls-16" d="M70.84,94.16c-.68,1.55-4.77,1.25-9.13-.67-4.36-1.92-7.35-4.73-6.67-6.27.68-1.55,4.77-1.25,9.13.67,4.36,1.92,7.35,4.73,6.67,6.27Z"/>
                <path class="cls-19" d="M70.85,92.95c-.13-.4-.37-.74-.59-1.09-.48-.68-1.06-1.28-1.67-1.85-1.23-1.13-2.68-1.97-4.18-2.66-1.51-.67-3.11-1.16-4.76-1.43-.83-.13-1.67-.19-2.53-.11-.43.05-.87.12-1.29.31-.41.18-.86.48-1.06.98-.19.5-.06,1,.12,1.39.18.4.45.73.71,1.06.55.63,1.17,1.17,1.81,1.68,1.28,1.01,2.65,1.95,4.12,2.69,1.48.72,3.08,1.23,4.74,1.38.83.07,1.66.1,2.49-.01.41-.07.82-.13,1.2-.3.38-.15.77-.39.94-.8.19-.4.1-.85-.04-1.23ZM68.73,94.99c-.79-.02-1.58-.18-2.34-.38-1.53-.44-3.01-.97-4.49-1.54-1.48-.57-2.97-1.21-4.28-2.14-.64-.47-1.25-1.01-1.73-1.63-.47-.59-.84-1.42-.57-1.97.3-.52,1.12-.64,1.85-.66.76,0,1.53.11,2.29.26,1.53.33,3.02.88,4.47,1.49,1.45.62,2.85,1.35,4.22,2.16.67.42,1.31.89,1.87,1.46.52.55,1.04,1.33.77,2.09-.37.72-1.3.86-2.06.85Z"/>
              </g>
            </g>
            <g>
              <g>
                <path class="cls-16" d="M65.34,118.52s-.09-.03-.14-.06c-1.51-.75-1.05-4.75,1.03-8.93,2.08-4.18,5-6.96,6.51-6.2.03.01.06.03.08.05h0s15.53,7.74,15.53,7.74l-7.82,15.14-15.2-7.73s0,0,0,0Z"/>
                <path class="cls-19" d="M65.37,118.58h-.04c2.45,1.44,4.94,2.82,7.43,4.19,2.5,1.34,5,2.7,7.53,4l.51.26.27-.52c1.32-2.51,2.59-5.05,3.86-7.59,1.27-2.54,2.53-5.08,3.74-7.66l.15-.32-.3-.14c-2.64-1.2-5.25-2.42-7.84-3.72-1.28-.67-2.58-1.31-3.84-2.01l-3.81-2.07-.35-.19-.2.37h0s.64-.12.64-.12c-.59-.4-1.1-.33-1.57-.22-.46.13-.85.35-1.21.59-.72.49-1.31,1.1-1.86,1.73-1.07,1.28-1.91,2.71-2.63,4.18-.72,1.48-1.25,3.05-1.56,4.66-.15.81-.24,1.64-.16,2.47.04.41.12.83.29,1.22.16.38.51.76.89.84.01.01.04.02.06.02ZM64.52,116.48c.02-.78.16-1.56.35-2.32.39-1.53,1.04-2.99,1.74-4.41.73-1.41,1.59-2.74,2.61-3.93.5-.59,1.05-1.14,1.65-1.59.3-.22.61-.41.93-.51.29-.13.66-.08.76-.04l.5.19.14-.31h0s-.55.18-.55.18l3.95,1.8c1.32.59,2.61,1.24,3.92,1.86,2.59,1.28,5.15,2.63,7.69,4.02l-.15-.46c-1.4,2.47-2.74,4.97-4.08,7.48-1.34,2.5-2.68,5.01-3.96,7.54l.78-.25c-2.54-1.28-5.11-2.49-7.67-3.72-2.57-1.21-5.15-2.4-7.77-3.53h-.04s.04,0,.05,0c-.77-.36-.85-1.25-.86-2Z"/>
              </g>
              <g>
                <path class="cls-16" d="M80.62,126.54c-1.51-.75-1.01-4.82,1.11-9.09,2.13-4.27,5.08-7.11,6.59-6.36,1.51.75,1.01,4.82-1.11,9.09-2.13,4.27-5.08,7.11-6.59,6.36Z"/>
                <path class="cls-19" d="M81.83,126.61c.41-.11.76-.33,1.12-.54.7-.44,1.33-1,1.92-1.58,1.19-1.17,2.1-2.58,2.86-4.05.75-1.48,1.31-3.05,1.66-4.69.17-.82.27-1.66.23-2.53-.03-.43-.08-.87-.25-1.31-.16-.42-.44-.89-.93-1.1-.49-.22-1-.11-1.39.06-.41.16-.76.41-1.09.66-.65.52-1.22,1.11-1.76,1.72-1.07,1.23-2.07,2.55-2.89,3.99-.79,1.45-1.37,3.02-1.61,4.67-.11.82-.18,1.66-.11,2.48.05.41.09.83.24,1.22.13.38.35.79.75.97.39.2.84.14,1.23.02ZM79.89,124.39c.06-.79.25-1.57.5-2.32.52-1.5,1.12-2.96,1.76-4.41.64-1.45,1.35-2.91,2.34-4.17.5-.62,1.07-1.2,1.71-1.65.61-.44,1.46-.77,1.99-.48.51.33.58,1.15.57,1.88-.03.76-.19,1.52-.37,2.28-.4,1.51-1.02,2.97-1.7,4.4-.69,1.42-1.49,2.78-2.36,4.11-.45.65-.96,1.27-1.55,1.8-.57.49-1.37.98-2.12.67-.7-.41-.8-1.34-.75-2.1Z"/>
              </g>
            </g>
          </g>
          <g>
            <g>
              <path class="cls-17" d="M168.58,141.85c-1.25,7.03-17.7,9.99-36.74,6.62-19.04-3.38-33.47-11.82-32.22-18.85,1.25-7.03,17.7-9.99,36.74-6.62,19.04,3.38,33.47,11.82,32.22,18.85Z"/>
              <path class="cls-19" d="M167.37,137.14c-.94-1.38-2.14-2.55-3.43-3.6-2.6-2.08-5.53-3.69-8.53-5.09-6.04-2.76-12.47-4.61-19-5.75-6.53-1.13-13.19-1.67-19.83-1.22-3.31.24-6.63.75-9.8,1.81-1.58.54-3.12,1.23-4.49,2.21-1.34.98-2.55,2.37-2.84,4.08-.3,1.72.37,3.42,1.31,4.78.96,1.37,2.18,2.54,3.48,3.57,2.63,2.04,5.57,3.61,8.57,5.01,6.04,2.73,12.47,4.55,18.98,5.76,6.52,1.21,13.19,1.69,19.81,1.19,3.3-.27,6.61-.79,9.75-1.85,1.56-.55,3.1-1.22,4.45-2.19,1.33-.96,2.51-2.32,2.79-3.98.31-1.67-.32-3.35-1.24-4.71ZM165.76,145.75c-1.35.94-2.88,1.62-4.44,2.12-3.15.99-6.44,1.43-9.73,1.65-3.29.2-6.6.14-9.88-.11-3.29-.25-6.57-.62-9.82-1.18-6.5-1.13-12.92-2.86-18.97-5.51-3.02-1.33-5.94-2.93-8.52-4.98-1.28-1.03-2.47-2.19-3.39-3.54-.9-1.34-1.51-2.96-1.22-4.56.29-1.59,1.44-2.89,2.75-3.81,1.33-.93,2.85-1.59,4.4-2.09,3.13-.99,6.41-1.45,9.69-1.7,6.57-.44,13.2.11,19.68,1.25,3.25.58,6.46,1.34,9.63,2.23,3.17.89,6.3,1.97,9.32,3.28,3.01,1.32,5.95,2.89,8.56,4.9,1.29,1.01,2.5,2.16,3.45,3.51.92,1.34,1.57,2.98,1.29,4.62-.3,1.64-1.47,2.97-2.79,3.91Z"/>
            </g>
            <g class="cls-11">
              <path class="cls-17" d="M159.94,140.31c-.83,4.67-13.07,6.41-27.34,3.87-14.27-2.53-25.17-8.37-24.34-13.04.83-4.67,13.07-6.41,27.34-3.87,14.27,2.53,25.17,8.37,24.34,13.04Z"/>
            </g>
            <g>
              <g>
                <path class="cls-20" d="M158.82,105.03s7.66-9.08,17.85-2.3c9.28,6.18-3.39,29.26-26.34,31.37.72-2.56,2.07-6.82,2.07-6.82,0,0,16.6-3.19,20.98-14.11,2.9-7.23-3.36-8.07-6.84-6.82-4.06,1.46-10.3,6.75-10.3,6.75l2.58-8.07Z"/>
                <path class="cls-19" d="M156.03,113.04l-.24.69.57-.46c1.68-1.35,3.42-2.64,5.21-3.82,1.79-1.16,3.65-2.34,5.64-2.92,1-.26,2.06-.34,3.07-.2,1,.14,1.98.52,2.62,1.23.64.7.86,1.71.78,2.71-.08,1.01-.39,2.02-.81,2.98-1.66,3.89-4.98,6.86-8.62,9.04-3.68,2.16-7.76,3.71-11.91,4.69l-.19.05-.05.17-2,6.85-.1.34.35-.04c5.74-.59,11.3-2.58,16.16-5.67,4.82-3.11,9.09-7.27,11.72-12.48,1.24-2.6,2.16-5.52,1.79-8.5-.19-1.47-.78-2.94-1.8-4.06-.5-.56-1.11-1.04-1.74-1.41-.62-.39-1.26-.74-1.93-1.04-2.64-1.25-5.75-1.59-8.57-.8-2.82.77-5.3,2.47-7.21,4.63l-2.75,8.03ZM166.1,100.81c1.37-.34,2.79-.41,4.18-.25,1.39.17,2.74.61,4.01,1.2.64.3,1.25.64,1.84,1.02.61.36,1.13.79,1.58,1.3.9,1.02,1.42,2.34,1.58,3.7.32,2.75-.48,5.57-1.68,8.1-2.44,5.11-6.47,9.45-11.25,12.55-4.78,3.13-10.37,4.98-16.05,5.43l.25.3,2.14-6.79-.24.22c4.28-.89,8.41-2.4,12.21-4.59,1.89-1.1,3.69-2.4,5.26-3.96,1.56-1.56,2.88-3.4,3.74-5.46.44-1.02.77-2.1.86-3.26.09-1.13-.16-2.42-1.01-3.34-.83-.91-2.02-1.31-3.14-1.45-1.14-.13-2.27-.03-3.36.27-2.17.68-3.99,1.9-5.79,3.12-1.78,1.25-3.49,2.59-5.14,4.01l.34.23,2.42-8.12c1.97-2.04,4.52-3.57,7.25-4.24Z"/>
              </g>
              <g>
                <g>
                  <path class="cls-20" d="M164.57,95.15c-.08.48-19.19-2.21-23.46-2.79-4.21-.92-23.07-4.97-22.99-5.44,0,0-3.15,45.87-3.16,45.9-.44,2.51,4.4,6.51,17.47,9.05,11.68,2.26,17.77-.21,18.22-2.72,0-.04,13.91-43.99,13.91-43.99Z"/>
                  <path class="cls-19" d="M154.25,126.49c-.88,2.65-1.72,5.32-2.57,7.98l-1.26,3.99-.29.9c-.11.25-.27.49-.49.7-.43.43-.98.78-1.59,1.03-2.43,1.04-5.22,1.23-7.92,1.21-2.73-.06-5.45-.42-8.13-.95-2.69-.52-5.36-1.18-7.96-2.04-2.57-.89-5.17-1.93-7.24-3.64-.52-.42-.95-.93-1.28-1.48l-.2-.43c-.04-.15-.07-.3-.1-.45-.01-.15,0-.3,0-.45l.03-.51.25-4.13.52-8.27c.62-11.03,1.56-22.01,2.42-33.02l-.65-.08c-.01.08,0,.19.06.26.05.06.04.05.06.07.04.03.08.06.09.07.04.02.08.05.11.06l.19.08.36.13.72.22,1.43.39,2.88.71,5.76,1.34,11.56,2.49h.01s.01,0,.01,0c3.9.54,7.82,1.01,11.73,1.49,1.96.24,3.92.46,5.88.66l2.95.28,1.48.11.74.03h.37s.19,0,.19,0c.03,0,.06,0,.1-.01.02,0,.03,0,.05-.02.01,0,.02,0,.03-.01,0,0,.03-.03.02-.06-.01-.03-.02-.03-.02-.03-3.27,10.3-6.82,20.77-10.32,31.39ZM158.71,94.54l-5.85-.82-11.7-1.69h.02s-11.54-2.58-11.54-2.58l-5.76-1.31-2.87-.69-1.42-.37-.7-.2-.34-.11-.15-.06-.05-.02s0,0,.01.01l.03.04c.04.06.06.16.04.22l-.65-.08c-.65,11-1.23,22.03-2.12,33.01l-.61,8.24-.31,4.12-.04.52c0,.19-.03.39-.02.59.04.19.07.38.12.56l.22.52c.37.64.84,1.2,1.38,1.66,2.17,1.85,4.79,2.93,7.39,3.89,2.62.93,5.32,1.6,8.03,2.15,2.72.55,5.48.94,8.27,1.03,2.78.04,5.64-.12,8.31-1.27.66-.29,1.3-.68,1.85-1.22.28-.27.51-.6.67-.98l.34-1.07,1.23-3.9c.82-2.6,1.64-5.19,2.42-7.8,3.14-10.42,6.25-20.99,9.63-31.72-1.92-.11-3.9-.39-5.85-.65Z"/>
                </g>
                <path class="cls-16" d="M149.59,116.49c.03-3.08-1.72-4.96-4.77-5.33-2.64-.32-6,.56-6.88,2.83-.36-2.35-3.01-4.12-5.56-4.45-3.05-.4-5.21.98-5.95,3.98-.82,3.32,1.56,6.36,3.58,8.82,2.03,2.48,4.47,5.05,6.07,7.83v.09c2.24-2.31,5.26-4.2,7.85-6.11,2.56-1.89,5.62-4.24,5.66-7.66Z"/>
                <g class="cls-10">
                  <path class="cls-20" d="M161.17,94.96c-1.93,7.45-3.47,15-5.82,22.33-1.67,5.21-3.62,10.73-7.75,14.54-3.97,3.67-9.1,4.52-14.34,4.16-3.79-.26-7.52-1.13-11.15-2.22-1.51-.45-3.03-.91-4.5-1.47-.9-.34-1.71-.82-2.52-1.3-.08,1.15-.13,1.82-.13,1.82-.44,2.51,4.4,6.51,17.47,9.05,11.68,2.26,17.77-.21,18.22-2.72,0-.04,13.91-43.99,13.91-43.99-.02.12-1.36.03-3.4-.18Z"/>
                </g>
                <g>
                  <path class="cls-17" d="M164.78,95.19c-.66,3.75-11.65,4.93-24.53,2.65-12.88-2.29-22.79-7.18-22.12-10.92.66-3.75,11.65-4.93,24.53-2.65,12.88,2.29,22.79,7.18,22.12,10.92Z"/>
                  <path class="cls-19" d="M163.56,92.3c-.75-.78-1.65-1.41-2.55-2-1.83-1.16-3.8-2.08-5.81-2.89-4.02-1.61-8.24-2.7-12.49-3.46-4.26-.76-8.59-1.2-12.92-1.13-2.17.03-4.34.2-6.47.65-1.06.24-2.12.53-3.12,1.02-.96.47-2.01,1.2-2.24,2.4-.17,1.2.57,2.23,1.32,2.98.77.78,1.68,1.4,2.6,1.97,1.86,1.12,3.85,1.97,5.86,2.77,4.04,1.53,8.22,2.69,12.47,3.49,4.25.77,8.58,1.22,12.91,1.1,2.16-.07,4.33-.24,6.44-.71,1.05-.25,2.11-.52,3.08-1,.95-.46,1.95-1.17,2.17-2.29.18-1.12-.51-2.14-1.25-2.89ZM162.6,97.39c-.97.45-2.02.74-3.07.93-2.11.39-4.27.49-6.42.48-4.3-.04-8.58-.51-12.82-1.22-4.23-.72-8.45-1.68-12.49-3.19-2.02-.74-3.99-1.63-5.81-2.77-.9-.57-1.78-1.2-2.52-1.96-.72-.74-1.36-1.72-1.19-2.72.21-.99,1.15-1.66,2.08-2.09.95-.44,1.99-.71,3.04-.92,2.1-.4,4.25-.51,6.39-.54,4.29-.01,8.57.46,12.81,1.18,4.23.76,8.41,1.78,12.46,3.21,2.02.72,4.01,1.56,5.86,2.65.92.55,1.81,1.17,2.56,1.93.74.74,1.42,1.72,1.26,2.81-.22,1.07-1.21,1.76-2.15,2.2Z"/>
                </g>
                <g class="cls-12">
                  <path class="cls-17" d="M162.59,94.54c-.09.53-.48.98-1.12,1.36-2.96,1.79-11.35,1.98-20.94.28-9.08-1.61-16.56-4.44-19.16-7.03-.75-.73-1.09-1.44-.97-2.1.53-2.97,10.4-3.7,22.04-1.64,11.65,2.07,20.67,6.15,20.15,9.12Z"/>
                </g>
                <path class="cls-19" d="M161.48,95.91c-2.96,1.79-11.35,1.98-20.94.28-9.08-1.61-16.56-4.44-19.16-7.03,2.96-1.77,11.35-1.97,20.94-.27,9.08,1.61,16.55,4.44,19.16,7.02Z"/>
                <g class="cls-14">
                  <path class="cls-16" d="M122.16,111.92c-.78,8.45-2.09,15.23-2.92,15.14-.83-.09-.87-6.99-.09-15.42.78-8.43,2.09-15.21,2.92-15.14s.87,6.97.09,15.42Z"/>
                </g>
              </g>
            </g>
            <path class="cls-19" d="M117.37,97.26c1.47,1.27,3.16,2.21,4.89,3.05,1.73.85,3.53,1.54,5.33,2.24,1.8.7,3.62,1.4,5.49,1.92,1.86.54,3.77.92,5.69,1.23,3.83.59,7.68,1.04,11.53,1.19,1.92.08,3.85.1,5.76-.09.95-.12,1.91-.21,2.82-.48.91-.26,1.84-.57,2.57-1.21l.06.06c-.67.74-1.58,1.21-2.5,1.56-.93.36-1.9.56-2.87.73-1.95.31-3.92.39-5.88.34-3.92-.15-7.8-.73-11.59-1.63-3.78-.94-7.58-1.79-11.32-2.94-1.86-.62-3.66-1.39-5.39-2.32-1.71-.94-3.39-2.06-4.66-3.56l.06-.06Z"/>
            <path class="cls-19" d="M115.55,127.99c2.7,1.64,5.6,2.8,8.54,3.9l2.21.83c.75.25,1.5.49,2.25.71,1.53.39,3.07.7,4.64.89,3.13.39,6.25.69,9.38.77,3.12.1,6.27.09,9.33-.66l.03.08c-2.94,1.28-6.22,1.5-9.38,1.48-3.18-.09-6.35-.51-9.44-1.22l-4.62-1.08c-.77-.19-1.54-.36-2.32-.53l-2.3-.62c-3.01-.99-5.97-2.38-8.36-4.5l.05-.07Z"/>
            <path class="cls-19" d="M126.17,83.01c-2.14-.35-4.01-1.88-4.96-3.85-1.01-1.95-1.07-4.35-.22-6.4.9-2.02,2.64-3.65,4.71-4.43,1.03-.39,2.14-.64,3.25-.58,1.11.04,2.21.32,3.22.79l-.39.38c-1.09-2.35-1.86-4.96-1.61-7.6.24-2.63,1.54-5.07,3.35-6.92,1.83-1.86,4.19-3.16,6.71-3.77,2.54-.56,5.22-.54,7.73.21,2.5.73,4.88,1.99,6.78,3.81,1.9,1.79,3.43,4.06,4.15,6.61.16.64.36,1.27.42,1.93l.13.98c.01.33.04.66.03.99,0,1.32-.18,2.64-.48,3.91-.59,2.55-1.52,4.96-2.07,7.45l-.67-.14c.09-.32.29-.62.54-.78.25-.18.51-.27.76-.34.51-.13,1.01-.16,1.51-.16.99.02,1.97.1,2.93.43,1.9.67,3.44,2.16,4.21,3.99.76,1.84.66,3.98-.18,5.74-.4.9-1.12,1.66-1.99,2.1-.86.46-1.81.69-2.73.94l-.02-.07c.91-.29,1.84-.56,2.65-1.04.82-.47,1.45-1.2,1.81-2.07.76-1.71.78-3.74.02-5.43-.76-1.67-2.22-3.05-3.96-3.62-.85-.28-1.82-.35-2.74-.35-.46,0-.92.05-1.34.16-.43.11-.74.34-.81.61l-.67-.14c.55-2.56,1.48-4.98,2.04-7.46.28-1.24.45-2.5.46-3.75,0-.31-.02-.63-.02-.94l-.12-.93c-.05-.63-.23-1.23-.38-1.84-1.39-4.86-5.54-8.75-10.4-10.22-2.43-.78-5.06-.89-7.56-.36-2.48.58-4.84,1.84-6.6,3.7-1.77,1.83-2.96,4.26-3.11,6.79-.18,2.54.66,5.02,1.73,7.33l.33.72-.72-.34c-1.87-.87-4.08-.94-6.01-.19-1.95.7-3.59,2.21-4.45,4.09-.84,1.89-.86,4.15.06,6.04.85,1.9,2.56,3.48,4.67,3.93v.07Z"/>
          </g>
          <g>
            <g>
              <path class="cls-9" d="M192.6,31.4c3.29.73,6.11,3.12,7.38,5.87,1.21,2.62,1.39,5.04.22,7.7-.6,1.37-1.87,3.47-3.66,4.11,1.81.99,3.06,3.8,3.56,5.22.97,2.74.61,5.14-.8,7.66-1.47,2.65-4.14,4.14-7.46,4.66-12.09,1.9-20.57-10.95-24.55-14.01-2.39-1.84-4.84-3.65-7.56-5.08l.88-.23c12.18-3.99,14-12.16,20.85-14.85,5.89-2.31,7.16-1.92,11.14-1.05Z"/>
              <path class="cls-19" d="M187.87,30.63c-1.61.06-3.18.49-4.7.98-.76.25-1.51.5-2.27.81-.75.31-1.47.7-2.15,1.15-1.36.89-2.57,1.99-3.7,3.13-2.25,2.28-4.44,4.56-7.01,6.35-2.55,1.8-5.45,3.15-8.44,3.97l-1.29.36,1.18.61c2.26,1.17,4.38,2.63,6.44,4.17.51.39,1.05.77,1.51,1.17.48.4.93.86,1.39,1.31l2.73,2.76c3.65,3.65,7.77,7.14,12.79,8.77,2.49.8,5.17.99,7.75.59,2.56-.41,5.16-1.53,6.82-3.68.8-1.08,1.4-2.27,1.78-3.56.37-1.29.44-2.69.17-4.02-.28-1.33-.8-2.55-1.42-3.73-.64-1.16-1.42-2.33-2.7-3.06l-.06.79c1.03-.39,1.82-1.14,2.44-1.93.62-.81,1.12-1.69,1.48-2.63.76-1.86.86-4.01.25-5.91-.56-1.9-1.65-3.63-3.11-4.95-1.43-1.34-3.22-2.29-5.13-2.71-1.55-.35-3.11-.78-4.73-.72ZM197.61,34.21c1.41,1.33,2.36,3.08,2.83,4.93.49,1.85.3,3.81-.5,5.51-.39.85-.86,1.68-1.45,2.4-.58.72-1.29,1.34-2.1,1.62l-.87.3.81.49c.98.59,1.74,1.64,2.35,2.72.6,1.1,1.11,2.28,1.37,3.48.6,2.41-.17,5.01-1.58,7.08-.73,1.02-1.71,1.85-2.82,2.46-1.12.6-2.35.99-3.61,1.21-2.52.46-5.15.23-7.58-.58-2.44-.8-4.66-2.17-6.69-3.73-2.03-1.58-3.86-3.39-5.64-5.25l-2.67-2.83c-.45-.47-.91-.93-1.42-1.38-.52-.45-1.03-.82-1.54-1.23-2.06-1.58-4.2-3.1-6.52-4.35l-.11.97c3.16-.84,6.11-2.28,8.77-4.15,1.32-.94,2.57-1.99,3.71-3.12,1.15-1.13,2.22-2.33,3.3-3.48,1.09-1.15,2.18-2.29,3.45-3.21.63-.46,1.3-.87,2-1.2.71-.33,1.46-.62,2.2-.9,1.48-.56,3.01-1.06,4.59-1.14,1.58-.08,3.15.31,4.7.63,1.88.45,3.64,1.42,5.02,2.76Z"/>
            </g>
            <path class="cls-6" d="M160.14,47.53c9.82.37,20.7,1.6,30.57,1.56,6.78-.03,13.59-.25,19.71-2.68"/>
            <path class="cls-6" d="M168.95,54.01s5.15-2,8.03-5.45c-4.3-5.04-7.83-5.8-7.83-5.8"/>
            <path class="cls-6" d="M175.58,60.77s7.51-3.16,10-11.7c-2.05-9.21-10.04-12.45-10.04-12.45"/>
            <path class="cls-6" d="M185.45,66.39s8-4.7,9.92-17.27c-2.78-12.86-11.08-17.55-11.08-17.55"/>
          </g>
          <g>
            <g>
              <path class="cls-18" d="M137.68,184.52s3.12-.91,4.44-1.22c3.16-.75,5.49-.26,8.27,1.37,3.13,1.84,4.86,4.1,6.85,7.12,1.28,1.92,2.67,4.71,3.74,6.75-3.3-.6-10.55-.23-17.34-4.06-5.41-3.05-5.96-9.96-5.96-9.96Z"/>
              <path class="cls-19" d="M140.1,191.62c.74,1.04,1.65,1.97,2.71,2.71,1.06.75,2.22,1.25,3.37,1.77,1.17.48,2.37.89,3.6,1.21,1.23.3,2.47.55,3.71.72,2.49.39,5.02.38,7.46.71l.4.05-.19-.34c-1.25-2.25-2.43-4.55-3.83-6.74-1.41-2.15-2.87-4.35-4.93-6.01-1.03-.81-2.14-1.52-3.34-2.07-1.2-.54-2.51-.9-3.84-.93-1.33-.05-2.62.22-3.88.62-1.27.38-2.5.79-3.7,1.18.19,2.54.99,5,2.44,7.11ZM141.47,183.67c1.21-.33,2.5-.5,3.74-.44,2.52.13,4.83,1.44,6.85,2.92,2.04,1.51,3.66,3.55,5.08,5.69,1.43,2.14,2.51,4.49,3.67,6.79l.21-.28c-1.25-.23-2.5-.33-3.74-.48-1.24-.14-2.47-.29-3.7-.48-2.45-.4-4.85-1.02-7.14-1.94-1.12-.48-2.27-1.01-3.28-1.66-1.01-.66-1.91-1.51-2.64-2.48-1.48-1.94-2.39-4.36-2.81-6.76l3.76-.88Z"/>
            </g>
            <g>
              <path class="cls-18" d="M134.03,174.01s2.02,2.54,2.92,3.56c2.15,2.44,4.33,3.38,7.55,3.65,3.62.3,6.33-.55,9.7-1.86,2.15-.84,4.9-2.31,6.95-3.36-3.04-1.41-8.75-5.9-16.51-6.69-6.18-.63-10.61,4.7-10.61,4.7Z"/>
              <path class="cls-19" d="M140.27,170.11c1.16-.37,2.38-.55,3.59-.5,1.2.05,2.44.28,3.64.53,2.4.57,4.72,1.45,6.95,2.53,1.11.55,2.21,1.14,3.3,1.74,1.1.6,2.17,1.24,3.33,1.77v-.35c-2.28,1.22-4.52,2.51-6.92,3.43-2.39.93-4.9,1.67-7.43,1.72-2.51.04-5.15-.22-7.28-1.57-1.05-.67-2.01-1.55-2.81-2.51l-2.57-2.89c1.73-1.72,3.87-3.17,6.2-3.9ZM136.34,177.1c.8,1.05,1.7,2.02,2.82,2.75,1.11.74,2.38,1.2,3.67,1.45,1.3.24,2.61.31,3.92.24,2.64-.17,5.1-1.13,7.49-2.07,2.4-.98,4.69-2.18,7.01-3.3l.35-.17-.35-.19c-2.18-1.14-4.25-2.61-6.5-3.73-1.12-.57-2.27-1.09-3.45-1.55-1.18-.45-2.4-.8-3.64-1.09-1.25-.24-2.48-.5-3.78-.5-1.29,0-2.57.22-3.77.65-2.41.89-4.48,2.44-6.1,4.4.75,1,1.53,2.05,2.34,3.09Z"/>
            </g>
            <path class="cls-5" d="M160.68,198.27c-14.17-7.47-34.92-20.78-44.59-30.98-3.9-4.12-6.49-8.38-8.46-13.65"/>
            <path class="cls-5" d="M160.79,176.11c-24.32-6.18-32.62.58-33.45,1.14"/>
            <g>
              <path class="cls-18" d="M120.77,161.65s1.98,2.57,2.87,3.6c2.11,2.47,4.28,3.45,7.49,3.77,3.62.36,6.34-.45,9.73-1.71,2.16-.8,4.93-2.24,7-3.25-3.02-1.46-8.66-6.04-16.4-6.94-6.17-.72-10.69,4.53-10.69,4.53Z"/>
              <path class="cls-19" d="M127.06,157.84c1.17-.35,2.39-.51,3.6-.45,1.2.07,2.43.32,3.63.59,2.39.61,4.7,1.52,6.91,2.64,1.1.57,2.19,1.17,3.27,1.79,1.09.62,2.15,1.27,3.3,1.82v-.35c-2.29,1.18-4.56,2.44-6.97,3.32-2.41.89-4.92,1.59-7.46,1.61-2.51,0-5.15-.3-7.26-1.68-1.04-.68-1.98-1.58-2.77-2.56l-2.52-2.93c1.76-1.7,3.92-3.11,6.26-3.81ZM123.03,164.77c.78,1.07,1.67,2.04,2.77,2.79,1.09.75,2.36,1.24,3.65,1.51,1.29.26,2.6.35,3.92.3,2.64-.13,5.12-1.05,7.52-1.95,2.41-.95,4.72-2.11,7.06-3.19l.35-.16-.35-.19c-2.17-1.18-4.21-2.68-6.45-3.83-1.11-.59-2.26-1.13-3.43-1.61-1.18-.47-2.39-.84-3.62-1.14-1.24-.26-2.47-.54-3.77-.56-1.29-.03-2.58.18-3.78.59-2.42.85-4.51,2.37-6.17,4.31.74,1.01,1.5,2.07,2.29,3.13Z"/>
            </g>
            <path class="cls-5" d="M147.5,164.13c-24.23-6.56-32.64.1-33.47.65"/>
            <g>
              <path class="cls-18" d="M122.79,181.26s3.11.93,4.39,1.39c3.06,1.09,4.75,2.77,6.19,5.65,1.63,3.25,1.84,6.08,1.88,9.7.02,2.31-.33,5.41-.54,7.7-2.44-2.3-8.73-5.93-12.34-12.85-2.87-5.5.42-11.6.42-11.6Z"/>
              <path class="cls-19" d="M120.95,188.53c.05,1.28.31,2.55.8,3.75.48,1.21,1.18,2.25,1.87,3.32.73,1.04,1.5,2.04,2.36,2.97.87.92,1.77,1.8,2.72,2.63,1.87,1.68,4,3.05,5.88,4.66l.3.26.03-.38c.17-2.57.44-5.14.46-7.73-.01-2.57-.04-5.21-.86-7.72-.42-1.24-.97-2.44-1.67-3.55-.71-1.11-1.62-2.12-2.71-2.87-1.09-.77-2.32-1.24-3.6-1.59-1.27-.37-2.53-.7-3.74-1.02-1.22,2.24-1.89,4.73-1.82,7.3ZM126.43,182.6c1.19.38,2.37.94,3.38,1.67,2.04,1.48,3.27,3.83,4.16,6.18.89,2.38,1.14,4.97,1.16,7.54.03,2.57-.33,5.13-.62,7.69l.33-.12c-.92-.88-1.91-1.64-2.88-2.44-.96-.79-1.92-1.59-2.84-2.42-1.84-1.67-3.51-3.5-4.93-5.51-.68-1.02-1.35-2.08-1.85-3.18-.49-1.1-.78-2.3-.87-3.52-.18-2.43.36-4.96,1.32-7.21l3.63,1.31Z"/>
            </g>
            <path class="cls-5" d="M134.46,204.96c-14.77-20.29-11.36-30.14-11.15-31.12"/>
            <g>
              <path class="cls-18" d="M106.96,163.83s2.81,1.63,3.95,2.37c2.73,1.77,3.98,3.79,4.71,6.94.83,3.54.38,6.35-.43,9.87-.51,2.25-1.58,5.18-2.31,7.37-3.3-3.21-7.88-7.79-9.02-15.36-.92-6.14,3.1-11.19,3.1-11.19Z"/>
              <path class="cls-19" d="M103.7,170.6c-.25,1.25-.34,2.54-.23,3.82.1,1.28.4,2.52.75,3.74.71,2.45,1.9,4.75,3.4,6.79,1.48,2.07,3.3,3.84,5.13,5.55l.23.22.09-.29c.76-2.46,1.62-4.9,2.24-7.41.58-2.5,1.17-5.07.95-7.71-.12-1.31-.38-2.6-.81-3.84-.44-1.24-1.08-2.44-1.97-3.42-.88-1-1.99-1.74-3.11-2.39-1.13-.65-2.23-1.26-3.42-1.86-1.61,1.99-2.72,4.31-3.26,6.81ZM110.19,165.96c1.08.69,2.09,1.47,2.9,2.43,1.64,1.91,2.29,4.49,2.61,6.98.32,2.52-.05,5.1-.62,7.61-.57,2.51-1.52,4.91-2.39,7.34l.32-.08c-1.77-1.77-3.45-3.62-4.88-5.65-1.42-2.03-2.53-4.26-3.25-6.62-.71-2.36-1.1-4.83-.67-7.27.4-2.42,1.4-4.79,2.74-6.84,1.03.7,2.15,1.4,3.22,2.1Z"/>
            </g>
            <path class="cls-5" d="M112.92,190.13c-9.66-23.16-4.16-32.5-3.72-33.4"/>
          </g>
          <path class="cls-17" d="M93.97,170.91c0,1.84-1.49,3.33-3.33,3.33s-3.33-1.49-3.33-3.33,1.49-3.33,3.33-3.33,3.33,1.49,3.33,3.33Z"/>
          <path class="cls-17" d="M101.78,93.46c0,1.84-1.49,3.33-3.33,3.33s-3.33-1.49-3.33-3.33,1.49-3.33,3.33-3.33,3.33,1.49,3.33,3.33Z"/>
          <path class="cls-17" d="M186.75,93.83c0,1.84-1.49,3.33-3.33,3.33s-3.33-1.49-3.33-3.33,1.49-3.33,3.33-3.33,3.33,1.49,3.33,3.33Z"/>
          <circle class="cls-17" cx="90.23" cy="153.82" r="2.56"/>
          <circle class="cls-17" cx="164.9" cy="164.16" r="2.56"/>
          <circle class="cls-17" cx="127.73" cy="5.49" r="2.56"/>
          <circle class="cls-17" cx="84.19" cy="98.33" r="2.56"/>
          <path class="cls-17" d="M146.21,9.6c0,1.84-1.49,3.33-3.33,3.33s-3.33-1.49-3.33-3.33,1.49-3.33,3.33-3.33,3.33,1.49,3.33,3.33Z"/>
          <path class="cls-17" d="M167.3,22.25c0,1.84-1.49,3.33-3.33,3.33s-3.33-1.49-3.33-3.33,1.49-3.33,3.33-3.33,3.33,1.49,3.33,3.33Z"/>
          <circle class="cls-17" cx="135.93" cy="24.21" r="2.56"/>
          <g>
            <g>
              <ellipse class="cls-20" cx="88.95" cy="49.05" rx="19.61" ry="34.21" transform="translate(25.97 128.74) rotate(-80.55)"/>
              <ellipse class="cls-1" cx="88.95" cy="49.05" rx="19.61" ry="34.21" transform="translate(25.97 128.74) rotate(-80.55)"/>
            </g>
            <g class="cls-10">
              <path class="cls-20" d="M59.29,42.75c.4,1.2.98,2.33,1.89,3.25,1.63,1.67,4.02,2.48,6.24,3.03,4.58,1.13,9.36.74,13.95-.08,4.97-.88,10-1.94,14.79-3.53,2.49-.83,4.92-1.85,7.18-3.19,1.62-.96,3.32-2.05,4.46-3.59,1.69-2.3,1.51-5.7.03-8.13,8.15,2.29,13.87,6.88,14.88,12.92,1.78,10.68-11.89,21.86-30.52,24.96-18.64,3.1-35.19-3.05-36.96-13.73-.67-4.06.88-8.18,4.08-11.91Z"/>
            </g>
            <path class="cls-7" d="M54.55,57.31l3.15,5.51,5.8,10.17c7.57,4.09,46.52-2.12,56.09-9.25l2.24-12.13,1.05-5.67-68.32,11.37Z"/>
            <path class="cls-13" d="M54.55,57.31l3.22,5.96c1.64-.82,1.74-1.94,1.74-1.94,0,0,1.66,3.19,6.11,3.58,3.39.29,5.44-.14,8.2-1.92,1.64-1.06,3.11-3.08,3.28-5.49,1.06,1.37,2.89,2.44,4.41,2.95,4.84,1.65,11.14-.02,11.6-4.83,3.53,1.88,5.6,2.79,9.43,1.7,4.73-1.34,5.86-5.66,5.86-5.66,0,0,.94,2.06,2.8,2.87,1.58.69,6.21.61,8.49-2.96.7.23,1.46.38,2.22.45l.98-6.07-68.32,11.37Z"/>
            <g>
              <path class="cls-20" d="M96.43,36.1c1.83.86,2.77.21,3.29-.89.52-1.1.41-2.24-1.41-3.1-1.83-.86-5.2,0-5.2,0,0,0,1.5,3.14,3.33,4Z"/>
              <path class="cls-1" d="M96.43,36.1c1.83.86,2.77.21,3.29-.89.52-1.1.41-2.24-1.41-3.1-1.83-.86-5.2,0-5.2,0,0,0,1.5,3.14,3.33,4Z"/>
            </g>
            <g>
              <path class="cls-20" d="M86.18,38.72c.41,1.98,1.49,2.34,2.69,2.1,1.19-.25,2.04-1.01,1.63-2.99-.41-1.98-3.12-4.17-3.12-4.17,0,0-1.61,3.09-1.2,5.06Z"/>
              <path class="cls-1" d="M86.18,38.72c.41,1.98,1.49,2.34,2.69,2.1,1.19-.25,2.04-1.01,1.63-2.99-.41-1.98-3.12-4.17-3.12-4.17,0,0-1.61,3.09-1.2,5.06Z"/>
            </g>
            <g>
              <path class="cls-20" d="M77.03,34.75c-1.67,1.14-1.59,2.28-.91,3.29.69,1.01,1.72,1.5,3.39.36,1.67-1.14,2.65-4.48,2.65-4.48,0,0-3.47-.31-5.14.83Z"/>
              <path class="cls-1" d="M77.03,34.75c-1.67,1.14-1.59,2.28-.91,3.29.69,1.01,1.72,1.5,3.39.36,1.67-1.14,2.65-4.48,2.65-4.48,0,0-3.47-.31-5.14.83Z"/>
            </g>
            <g>
              <g>
                <path class="cls-22" d="M129.69,44.9c.57-5.83-4.24-9.25-9.17-6.32-1.18.7-1.55,1.04-2.56,1.96-.95.88-.8.99-2.08.24-2.6-1.53-6.61-1.83-9.32,1.18-.42.47-1.49,2.25-1.49,2.25,0,0-1.02-.81-1.8-1.17-6.61-3.02-10.57.17-11.92,3.47-3.5-2.81-6.79-1.88-8.4-1.53-1.93.42-4.46,2.23-5.54,3.88-1.24-.62-3.66-3.24-9.39-1.75-2.11.55-5.89,2.17-6.41,4.8-3.67-2.57-7.4-2.69-10.61-1.87-1.56.4-3.17,1.71-3.8,3.76-.96,3.09,1.18,7.79,6.95,7.7,5.98-.09,6.21-2.81,6.21-2.81,0,0,1.66,3.19,6.11,3.58,3.39.29,5.44-.14,8.2-1.92,1.64-1.06,3.11-3.08,3.28-5.49,1.06,1.37,2.89,2.44,4.4,2.96,4.85,1.65,11.14-.02,11.6-4.83,3.53,1.88,5.6,2.79,9.43,1.7,4.72-1.34,5.86-5.66,5.86-5.66,0,0,.94,2.06,2.81,2.87,1.58.69,6.21.61,8.48-2.97,3.69,1.2,8.74.27,9.16-4.04Z"/>
                <path class="cls-4" d="M129.69,44.9c.57-5.83-4.24-9.25-9.17-6.32-1.18.7-1.55,1.04-2.56,1.96-.95.88-.8.99-2.08.24-2.6-1.53-6.61-1.83-9.32,1.18-.42.47-1.49,2.25-1.49,2.25,0,0-1.02-.81-1.8-1.17-6.61-3.02-10.57.17-11.92,3.47-3.5-2.81-6.79-1.88-8.4-1.53-1.93.42-4.46,2.23-5.54,3.88-1.24-.62-3.66-3.24-9.39-1.75-2.11.55-5.89,2.17-6.41,4.8-3.67-2.57-7.4-2.69-10.61-1.87-1.56.4-3.17,1.71-3.8,3.76-.96,3.09,1.18,7.79,6.95,7.7,5.98-.09,6.21-2.81,6.21-2.81,0,0,1.66,3.19,6.11,3.58,3.39.29,5.44-.14,8.2-1.92,1.64-1.06,3.11-3.08,3.28-5.49,1.06,1.37,2.89,2.44,4.4,2.96,4.85,1.65,11.14-.02,11.6-4.83,3.53,1.88,5.6,2.79,9.43,1.7,4.72-1.34,5.86-5.66,5.86-5.66,0,0,.94,2.06,2.81,2.87,1.58.69,6.21.61,8.48-2.97,3.69,1.2,8.74.27,9.16-4.04Z"/>
              </g>
              <g class="cls-10">
                <path class="cls-17" d="M54.15,61.52c5.98-.09,6.21-2.81,6.21-2.81,0,0,1.66,3.19,6.11,3.58,3.39.29,5.44-.14,8.2-1.92,1.64-1.06,3.11-3.08,3.28-5.49,1.06,1.37,2.89,2.44,4.41,2.95,4.84,1.65,11.14-.02,11.6-4.83,3.53,1.88,5.6,2.79,9.43,1.7,4.73-1.34,5.86-5.66,5.86-5.66,0,0,.94,2.06,2.8,2.87,1.58.69,6.21.61,8.49-2.96,3.69,1.2,8.73.27,9.16-4.05.12-1.19.01-2.27-.28-3.23-.53,4.18-5.5,5.07-9.14,3.88-2.28,3.58-6.9,3.66-8.48,2.97-1.87-.81-2.81-2.87-2.81-2.87,0,0-1.13,4.32-5.86,5.66-3.83,1.08-5.89.18-9.43-1.7-.46,4.82-6.75,6.48-11.6,4.83-1.51-.52-3.34-1.58-4.41-2.96-.17,2.41-1.64,4.43-3.27,5.49-2.76,1.78-4.81,2.21-8.2,1.92-4.45-.39-6.11-3.58-6.11-3.58,0,0-.23,2.72-6.21,2.81-3.71.05-5.92-1.86-6.77-4.06-.77,3.09,1.41,7.53,7.03,7.44Z"/>
              </g>
              <path class="cls-15" d="M63.55,53.06c.32,1.9,2.99,3.04,5.96,2.55,2.98-.5,5.13-2.44,4.82-4.34-.32-1.9-2.99-3.04-5.96-2.55-2.98.5-5.13,2.44-4.82,4.34Z"/>
              <path class="cls-15" d="M94.52,46.25c.2,1.19,1.86,1.9,3.72,1.59,1.85-.31,3.2-1.52,3-2.71-.2-1.19-1.86-1.9-3.72-1.59-1.85.31-3.2,1.52-3,2.71Z"/>
              <path class="cls-15" d="M109.09,42.92c-.19,1.19,1.16,2.39,3.02,2.68,1.86.29,3.52-.43,3.7-1.62.19-1.19-1.16-2.39-3.02-2.68-1.86-.29-3.52.43-3.7,1.62Z"/>
              <path class="cls-15" d="M121.09,40.52c-.19,1.19,1.16,2.39,3.02,2.68,1.86.29,3.52-.43,3.7-1.62.19-1.19-1.16-2.39-3.02-2.68s-3.52.43-3.7,1.62Z"/>
              <path class="cls-15" d="M49.74,53.93c.08,1.25,1.73,2.17,3.69,2.05,1.96-.12,3.49-1.24,3.41-2.49s-1.73-2.17-3.69-2.05c-1.96.12-3.49,1.24-3.41,2.49Z"/>
              <path class="cls-15" d="M80.34,49.53c.1,1.61,2.23,2.79,4.75,2.63,2.52-.16,4.48-1.59,4.38-3.2-.1-1.61-2.23-2.79-4.75-2.63-2.52.16-4.48,1.59-4.38,3.2Z"/>
            </g>
            <g class="cls-14">
              <path class="cls-16" d="M66.52,37.94c1.88-1.38,3.83-2.25,5.32-2.62,1.5-.38,2.49-.26,2.52,0,.04.27-.79.62-2.04,1.29-1.25.66-2.94,1.64-4.66,2.9-3.49,2.54-5.83,5.23-6.28,4.92-.21-.15.11-1.05.97-2.3.86-1.25,2.3-2.8,4.16-4.18Z"/>
            </g>
          </g>
        </g>
        <g>
          <g>
            <g>
              <path class="cls-17" d="M44.83,37.85c-1.25,7.03-17.7,9.99-36.74,6.62-19.04-3.38-33.47-11.82-32.22-18.85,1.25-7.03,17.7-9.99,36.74-6.62,19.04,3.38,33.47,11.82,32.22,18.85Z"/>
              <path class="cls-19" d="M43.62,33.14c-.94-1.38-2.14-2.55-3.43-3.6-2.6-2.08-5.53-3.69-8.53-5.09-6.04-2.76-12.47-4.61-19-5.75-6.53-1.13-13.19-1.67-19.83-1.22-3.31.24-6.63.75-9.8,1.81-1.58.54-3.12,1.23-4.49,2.21-1.34.98-2.55,2.37-2.84,4.08-.3,1.72.37,3.42,1.31,4.78.96,1.37,2.18,2.54,3.48,3.57,2.63,2.04,5.57,3.61,8.57,5.01,6.04,2.73,12.47,4.55,18.98,5.76,6.52,1.21,13.19,1.69,19.81,1.19,3.3-.27,6.61-.79,9.75-1.85,1.56-.55,3.1-1.22,4.45-2.19,1.33-.96,2.51-2.32,2.79-3.98.31-1.67-.32-3.35-1.24-4.71ZM42.01,41.75c-1.35.94-2.88,1.62-4.44,2.12-3.15.99-6.44,1.43-9.73,1.65-3.29.2-6.6.14-9.88-.11-3.29-.25-6.57-.62-9.82-1.18-6.5-1.13-12.92-2.86-18.97-5.51-3.02-1.33-5.94-2.93-8.52-4.98-1.28-1.03-2.47-2.19-3.39-3.54-.9-1.34-1.51-2.96-1.22-4.56.29-1.59,1.44-2.89,2.75-3.81,1.33-.93,2.85-1.59,4.4-2.09,3.13-.99,6.41-1.45,9.69-1.7,6.57-.44,13.2.11,19.68,1.25,3.25.58,6.46,1.34,9.63,2.23,3.17.89,6.3,1.97,9.32,3.28,3.01,1.32,5.95,2.89,8.56,4.9,1.29,1.01,2.5,2.16,3.45,3.51.92,1.34,1.57,2.98,1.29,4.62-.3,1.64-1.47,2.97-2.79,3.91Z"/>
            </g>
            <g class="cls-11">
              <path class="cls-17" d="M36.19,36.31c-.83,4.67-13.07,6.41-27.34,3.87-14.27-2.53-25.17-8.37-24.34-13.04.83-4.67,13.07-6.41,27.34-3.87,14.27,2.53,25.17,8.37,24.34,13.04Z"/>
            </g>
            <g>
              <g>
                <path class="cls-20" d="M35.07,1.03s7.66-9.08,17.85-2.3c9.28,6.18-3.39,29.26-26.34,31.37.72-2.56,2.07-6.82,2.07-6.82,0,0,16.6-3.19,20.98-14.11,2.9-7.23-3.36-8.07-6.84-6.82-4.06,1.46-10.3,6.75-10.3,6.75l2.58-8.07Z"/>
                <path class="cls-19" d="M32.28,9.04l-.24.69.57-.46c1.68-1.35,3.42-2.64,5.21-3.82,1.79-1.16,3.65-2.34,5.64-2.92,1-.26,2.06-.34,3.07-.2,1,.14,1.98.52,2.62,1.23.64.7.86,1.71.78,2.71-.08,1.01-.39,2.02-.81,2.98-1.66,3.89-4.98,6.86-8.62,9.04-3.68,2.16-7.76,3.71-11.91,4.69l-.19.05-.05.17-2,6.85-.1.34.35-.04c5.74-.59,11.3-2.58,16.16-5.67,4.82-3.11,9.09-7.27,11.72-12.48,1.24-2.6,2.16-5.52,1.79-8.5-.19-1.47-.78-2.94-1.8-4.06-.5-.56-1.11-1.04-1.74-1.41-.62-.39-1.26-.74-1.93-1.04-2.64-1.25-5.75-1.59-8.57-.8-2.82.77-5.3,2.47-7.21,4.63l-2.75,8.03ZM42.35-3.19c1.37-.34,2.79-.41,4.18-.25,1.39.17,2.74.61,4.01,1.2.64.3,1.25.64,1.84,1.02.61.36,1.13.79,1.58,1.3.9,1.02,1.42,2.34,1.58,3.7.32,2.75-.48,5.57-1.68,8.1-2.44,5.11-6.47,9.45-11.25,12.55-4.78,3.13-10.37,4.98-16.05,5.43l.25.3,2.14-6.79-.24.22c4.28-.89,8.41-2.4,12.21-4.59,1.89-1.1,3.69-2.4,5.26-3.96,1.56-1.56,2.88-3.4,3.74-5.46.44-1.02.77-2.1.86-3.26.09-1.13-.16-2.42-1.01-3.34-.83-.91-2.02-1.31-3.14-1.45-1.14-.13-2.27-.03-3.36.27-2.17.68-3.99,1.9-5.79,3.12-1.78,1.25-3.49,2.59-5.14,4.01l.34.23,2.42-8.12c1.97-2.04,4.52-3.57,7.25-4.24Z"/>
              </g>
              <g>
                <g>
                  <path class="cls-20" d="M40.82-8.85c-.08.48-19.19-2.21-23.46-2.79-4.21-.92-23.07-4.97-22.99-5.44,0,0-3.15,45.87-3.16,45.9-.44,2.51,4.4,6.51,17.47,9.05,11.68,2.26,17.77-.21,18.22-2.72,0-.04,13.91-43.99,13.91-43.99Z"/>
                  <path class="cls-19" d="M30.5,22.49c-.88,2.65-1.72,5.32-2.57,7.98l-1.26,3.99-.29.9c-.11.25-.27.49-.49.7-.43.43-.98.78-1.59,1.03-2.43,1.04-5.22,1.23-7.92,1.21-2.73-.06-5.45-.42-8.13-.95-2.69-.52-5.36-1.18-7.96-2.04-2.57-.89-5.17-1.93-7.24-3.64-.52-.42-.95-.93-1.28-1.48l-.2-.43c-.04-.15-.07-.3-.1-.45-.01-.15,0-.3,0-.45l.03-.51.25-4.13.52-8.27c.62-11.03,1.56-22.01,2.42-33.02l-.65-.08c-.01.08,0,.19.06.26.05.06.04.05.06.07.04.03.08.06.09.07.04.02.08.05.11.06l.19.08.36.13.72.22,1.43.39L-.04-15.15l5.76,1.34,11.56,2.49h.01s.01,0,.01,0c3.9.54,7.82,1.01,11.73,1.49,1.96.24,3.92.46,5.88.66l2.95.28,1.48.11.74.03h.37s.19,0,.19,0c.03,0,.06,0,.1-.01.02,0,.03,0,.05-.02.01,0,.02,0,.03-.01,0,0,.03-.03.02-.06-.01-.03-.02-.03-.02-.03-3.27,10.3-6.82,20.77-10.32,31.39ZM34.96-9.46l-5.85-.82-11.7-1.69h.02s-11.54-2.58-11.54-2.58L.13-15.86l-2.87-.69-1.42-.37-.7-.2-.34-.11-.15-.06-.05-.02s0,0,.01.01l.03.04c.05.06.06.16.04.22l-.65-.08c-.65,11-1.23,22.03-2.12,33.01l-.61,8.24-.31,4.12-.04.52c0,.19-.03.39-.02.59.04.19.07.38.12.56l.22.52c.37.64.84,1.2,1.38,1.66,2.17,1.85,4.79,2.93,7.39,3.89,2.62.93,5.32,1.6,8.03,2.15,2.72.55,5.48.94,8.27,1.03,2.78.04,5.64-.12,8.31-1.27.66-.29,1.3-.68,1.85-1.22.28-.27.51-.6.67-.98l.34-1.07,1.23-3.9c.82-2.6,1.64-5.19,2.42-7.8,3.14-10.42,6.25-20.99,9.63-31.72-1.92-.11-3.9-.39-5.85-.65Z"/>
                </g>
                <path class="cls-16" d="M25.84,12.49c.03-3.08-1.72-4.96-4.77-5.33-2.64-.32-6,.56-6.88,2.83-.36-2.35-3.01-4.12-5.56-4.45-3.05-.4-5.21.98-5.95,3.98-.82,3.32,1.56,6.36,3.58,8.82,2.03,2.48,4.47,5.05,6.07,7.83v.09c2.24-2.31,5.26-4.2,7.85-6.11,2.56-1.89,5.62-4.24,5.66-7.66Z"/>
                <g class="cls-10">
                  <path class="cls-20" d="M37.42-9.04c-1.93,7.45-3.47,15-5.82,22.33-1.67,5.21-3.62,10.73-7.75,14.54-3.97,3.67-9.1,4.52-14.34,4.16-3.79-.26-7.52-1.13-11.15-2.22-1.51-.45-3.03-.91-4.5-1.47-.9-.34-1.71-.82-2.52-1.3-.08,1.15-.13,1.82-.13,1.82-.44,2.51,4.4,6.51,17.47,9.05,11.68,2.26,17.77-.21,18.22-2.72,0-.04,13.91-43.99,13.91-43.99-.02.12-1.36.03-3.4-.18Z"/>
                </g>
              </g>
            </g>
            <path class="cls-19" d="M-6.38-6.74c1.47,1.27,3.16,2.21,4.89,3.05C.24-2.85,2.04-2.16,3.84-1.46,5.64-.76,7.46-.06,9.33.46c1.86.54,3.77.92,5.69,1.23,3.83.59,7.68,1.04,11.53,1.19,1.92.08,3.85.1,5.76-.09.95-.12,1.91-.21,2.82-.48.91-.26,1.84-.57,2.57-1.21l.06.06c-.67.74-1.58,1.21-2.5,1.56-.93.36-1.9.56-2.87.73-1.95.31-3.92.39-5.88.34-3.92-.15-7.8-.73-11.59-1.63C11.14,1.2,7.35.35,3.6-.8,1.75-1.42-.06-2.2-1.79-3.12c-1.71-.94-3.39-2.06-4.66-3.56l.06-.06Z"/>
            <path class="cls-19" d="M-8.2,23.99c2.7,1.64,5.6,2.8,8.54,3.9l2.21.83c.75.25,1.5.49,2.25.71,1.53.39,3.07.7,4.64.89,3.13.39,6.25.69,9.38.77,3.12.1,6.27.09,9.33-.66l.03.08c-2.94,1.28-6.22,1.5-9.38,1.48-3.18-.09-6.35-.51-9.44-1.22l-4.62-1.08c-.77-.19-1.54-.36-2.32-.53l-2.3-.62c-3.01-.99-5.97-2.38-8.36-4.5l.05-.07Z"/>
          </g>
          <g>
            <g>
              <path class="cls-18" d="M13.93,80.52s3.12-.91,4.44-1.22c3.16-.75,5.49-.26,8.27,1.37,3.13,1.84,4.86,4.1,6.85,7.12,1.28,1.92,2.67,4.71,3.74,6.75-3.3-.6-10.55-.23-17.34-4.06-5.41-3.05-5.96-9.96-5.96-9.96Z"/>
              <path class="cls-19" d="M16.35,87.62c.74,1.04,1.65,1.97,2.71,2.71,1.06.75,2.22,1.25,3.38,1.77,1.17.48,2.37.89,3.6,1.21,1.23.3,2.47.55,3.71.72,2.49.39,5.02.38,7.46.71l.4.05-.19-.34c-1.25-2.25-2.43-4.55-3.83-6.74-1.41-2.15-2.87-4.35-4.93-6.01-1.03-.81-2.14-1.52-3.34-2.07-1.2-.54-2.51-.9-3.84-.93-1.34-.05-2.62.22-3.88.62-1.27.38-2.5.79-3.7,1.18.19,2.54.99,5,2.44,7.11ZM17.72,79.67c1.21-.33,2.5-.5,3.74-.44,2.52.13,4.83,1.44,6.85,2.92,2.04,1.51,3.66,3.55,5.08,5.69,1.43,2.14,2.51,4.49,3.67,6.79l.21-.28c-1.25-.23-2.5-.33-3.74-.48-1.24-.14-2.47-.29-3.7-.48-2.45-.4-4.85-1.02-7.14-1.94-1.12-.48-2.27-1.01-3.28-1.66-1.01-.66-1.91-1.51-2.64-2.48-1.48-1.94-2.39-4.36-2.81-6.76l3.76-.88Z"/>
            </g>
            <g>
              <path class="cls-18" d="M10.28,70.01s2.02,2.54,2.92,3.56c2.15,2.44,4.33,3.38,7.55,3.65,3.62.3,6.33-.55,9.7-1.86,2.15-.84,4.9-2.31,6.95-3.36-3.04-1.41-8.75-5.9-16.51-6.69-6.18-.63-10.61,4.7-10.61,4.7Z"/>
              <path class="cls-19" d="M16.52,66.11c1.16-.37,2.38-.55,3.59-.5,1.2.05,2.44.28,3.64.53,2.4.57,4.72,1.45,6.95,2.53,1.11.55,2.21,1.14,3.3,1.74,1.1.6,2.17,1.24,3.33,1.77v-.35c-2.28,1.22-4.52,2.51-6.92,3.43-2.39.93-4.9,1.67-7.43,1.72-2.51.04-5.15-.22-7.28-1.57-1.05-.67-2.01-1.55-2.81-2.51l-2.57-2.89c1.73-1.72,3.87-3.17,6.2-3.9ZM12.59,73.1c.8,1.05,1.7,2.02,2.82,2.75,1.11.74,2.38,1.2,3.67,1.45,1.3.24,2.61.31,3.92.24,2.64-.17,5.1-1.13,7.49-2.07,2.4-.98,4.69-2.18,7.01-3.3l.35-.17-.35-.19c-2.18-1.14-4.25-2.61-6.5-3.73-1.12-.57-2.27-1.09-3.45-1.55-1.18-.45-2.4-.8-3.64-1.09-1.25-.24-2.48-.5-3.78-.5-1.29,0-2.57.22-3.78.65-2.41.89-4.48,2.44-6.1,4.4.75,1,1.53,2.05,2.34,3.09Z"/>
            </g>
            <path class="cls-5" d="M36.93,94.27c-14.17-7.47-34.92-20.78-44.59-30.98-3.9-4.12-6.49-8.38-8.46-13.65"/>
            <path class="cls-5" d="M37.04,72.11c-24.32-6.18-32.62.58-33.45,1.14"/>
            <g>
              <path class="cls-18" d="M-2.98,57.65s1.98,2.57,2.87,3.6c2.11,2.47,4.28,3.45,7.49,3.77,3.62.36,6.34-.45,9.73-1.71,2.16-.8,4.93-2.24,7-3.25-3.02-1.46-8.66-6.04-16.4-6.94-6.17-.72-10.69,4.53-10.69,4.53Z"/>
              <path class="cls-19" d="M3.31,53.84c1.17-.35,2.39-.51,3.6-.45,1.2.07,2.43.32,3.63.59,2.39.61,4.7,1.52,6.91,2.64,1.1.57,2.19,1.17,3.27,1.79,1.09.62,2.15,1.27,3.3,1.82v-.35c-2.29,1.18-4.56,2.44-6.97,3.32-2.41.89-4.92,1.59-7.46,1.61-2.51,0-5.15-.3-7.26-1.68-1.04-.68-1.98-1.58-2.77-2.56l-2.52-2.93c1.76-1.7,3.92-3.11,6.26-3.81ZM-.72,60.77c.78,1.07,1.67,2.04,2.77,2.79,1.09.75,2.36,1.24,3.65,1.51,1.29.26,2.6.35,3.92.3,2.64-.13,5.12-1.05,7.52-1.95,2.41-.95,4.72-2.11,7.06-3.19l.35-.16-.35-.19c-2.17-1.18-4.21-2.68-6.45-3.83-1.11-.59-2.26-1.13-3.43-1.61-1.18-.47-2.39-.84-3.62-1.14-1.24-.26-2.47-.54-3.77-.56-1.29-.03-2.58.18-3.78.59-2.42.85-4.51,2.37-6.17,4.31.74,1.01,1.5,2.07,2.29,3.13Z"/>
            </g>
            <path class="cls-5" d="M23.75,60.13c-24.23-6.56-32.64.1-33.47.65"/>
            <g>
              <path class="cls-18" d="M-.96,77.26s3.11.93,4.39,1.39c3.06,1.09,4.75,2.77,6.19,5.65,1.63,3.25,1.84,6.08,1.88,9.7.02,2.31-.33,5.41-.54,7.7-2.44-2.3-8.73-5.93-12.34-12.85-2.88-5.5.42-11.6.42-11.6Z"/>
              <path class="cls-19" d="M-2.8,84.53c.05,1.28.31,2.55.8,3.75.48,1.21,1.18,2.25,1.87,3.32.73,1.04,1.5,2.04,2.36,2.97.87.92,1.77,1.8,2.72,2.63,1.87,1.68,4,3.05,5.88,4.66l.3.26.03-.38c.17-2.57.44-5.14.46-7.73-.01-2.57-.04-5.21-.86-7.72-.42-1.24-.97-2.44-1.67-3.55-.71-1.11-1.62-2.12-2.71-2.87-1.09-.77-2.32-1.24-3.6-1.59-1.27-.37-2.53-.7-3.74-1.02-1.22,2.24-1.89,4.73-1.82,7.3ZM2.68,78.6c1.19.38,2.37.94,3.38,1.67,2.04,1.48,3.27,3.83,4.16,6.18.89,2.38,1.14,4.97,1.16,7.54.03,2.57-.33,5.13-.62,7.69l.33-.12c-.92-.88-1.91-1.64-2.88-2.44-.96-.79-1.92-1.59-2.84-2.42-1.84-1.67-3.51-3.5-4.93-5.51-.68-1.02-1.35-2.08-1.85-3.18-.49-1.1-.78-2.3-.87-3.52-.18-2.43.36-4.96,1.32-7.21l3.63,1.31Z"/>
            </g>
            <path class="cls-5" d="M10.71,100.96C-4.06,80.67-.66,70.82-.44,69.84"/>
          </g>
          <circle class="cls-17" cx="41.15" cy="60.16" r="2.56"/>
        </g>
        <g>
          <g>
            <path class="cls-20" d="M92.91,20.36c-2.19-.53-4.21-1.35-6.15-2.53-10.35-6.29-10.48-16.86-11.08-20.8-.76-4.97-2.12-11.12-3.95-16.44,1.8,1.34,11.35,4.17,13.9,4.8,3.86.96,7.57,2.15,11.22,3.77,4.26,1.9,8.02,5.39,9.71,9.08,1.69,3.68,2.38,7.42,2.36,11.37,0,2.81-.44,7.5,1.49,9.85-1.53-.17-13.36,1.9-17.51.9Z"/>
            <path class="cls-19" d="M97.29,20.69c1.47-.04,2.93-.14,4.39-.24,1.46-.11,2.92-.25,4.38-.38l2.19-.2c.71-.05,1.49-.13,2.13-.1l.69.04-.41-.55c-.72-.96-1.06-2.2-1.22-3.44-.16-1.25-.17-2.53-.13-3.81.1-2.56.09-5.23-.4-7.81-.48-2.59-1.29-5.1-2.61-7.42-1.37-2.28-3.27-4.18-5.39-5.73-2.13-1.58-4.6-2.57-7.02-3.46-2.44-.89-4.93-1.62-7.45-2.24-2.51-.6-4.99-1.3-7.46-2.08-1.23-.39-2.46-.79-3.67-1.23-1.2-.44-2.44-.9-3.49-1.58l-.36-.23.13.39c1.29,3.8,2.2,7.71,2.95,11.64.36,1.97.7,3.95.94,5.92.23,1.99.46,4.02,1,5.98.52,1.96,1.24,3.89,2.23,5.67.99,1.78,2.26,3.4,3.71,4.81,2.94,2.78,6.57,4.83,10.49,5.74,1.44.31,2.93.31,4.39.29ZM82.67,14.4c-2.77-2.88-4.57-6.55-5.49-10.39-.46-1.93-.77-3.89-1-5.89-.25-2.01-.65-3.98-1.08-5.95-.86-3.93-1.94-7.82-3.25-11.62l-.22.16c1.13.72,2.36,1.12,3.57,1.59,1.21.45,2.44.87,3.67,1.27,2.46.78,4.93,1.59,7.43,2.24,2.49.67,4.94,1.45,7.34,2.39,2.4.94,4.75,1.97,6.78,3.5,2.03,1.51,3.84,3.37,5.11,5.53,1.21,2.19,2.04,4.65,2.5,7.14.24,1.25.37,2.52.43,3.79.06,1.27,0,2.55,0,3.85,0,1.3.04,2.61.24,3.93.21,1.3.58,2.65,1.48,3.73l.28-.51c-.82-.01-1.51.1-2.25.19l-2.18.29c-1.45.2-2.9.39-4.36.55-1.45.17-2.91.3-4.37.35-1.46.04-2.93.07-4.37-.22-3.9-.94-7.49-3.05-10.25-5.92Z"/>
          </g>
          <path class="cls-2" d="M72.13-19.07s19.37,26.69,38.28,38.53c2.99,1.87,5.56,3.39,7.77,4.62"/>
          <path class="cls-2" d="M77.02,4.12s6.12,3.98,16.44,1.34c2.59-5.23,2.8-14.42.16-17.83"/>
          <path class="cls-2" d="M80.65,12.38s7.9,4.26,19.11-.89c1.18-2.51,5.58-10.39,2.46-18.86"/>
        </g>
      </g>
    </pattern>
  </defs>
  <g id="Pattern">
    <g>
      <rect class="cls-8" width="250" height="250"/>
      <rect class="cls-21" width="250" height="250"/>
    </g>
  </g>
</svg>