<?xml version="1.0" encoding="UTF-8"?>
<svg id="Layer_2" data-name="Layer 2" xmlns="http://www.w3.org/2000/svg" xmlns:xlink="http://www.w3.org/1999/xlink" viewBox="0 0 250 250">
  <defs>
    <style>
      .cls-1 {
        stroke-width: .38px;
      }

      .cls-1, .cls-2, .cls-3, .cls-4 {
        fill: none;
      }

      .cls-1, .cls-3, .cls-5, .cls-6, .cls-4 {
        stroke: #753225;
        stroke-miterlimit: 10;
      }

      .cls-3 {
        stroke-width: .26px;
      }

      .cls-7 {
        fill: #93225d;
      }

      .cls-8, .cls-9, .cls-5, .cls-10, .cls-11 {
        mix-blend-mode: multiply;
      }

      .cls-8, .cls-12, .cls-10 {
        opacity: .3;
      }

      .cls-13, .cls-6 {
        fill: #ff8b0d;
      }

      .cls-14, .cls-10, .cls-11 {
        fill: #fed29f;
      }

      .cls-5 {
        opacity: .5;
        stroke-width: .46px;
      }

      .cls-5, .cls-15 {
        fill: #771f49;
      }

      .cls-16 {
        fill: #fff;
      }

      .cls-17 {
        fill: #753225;
      }

      .cls-18 {
        fill: #6d8244;
      }

      .cls-6 {
        stroke-width: .34px;
      }

      .cls-19 {
        opacity: .1;
      }

      .cls-20 {
        fill: #ed672d;
      }

      .cls-21 {
        fill: url(#New_Pattern_Swatch_5);
      }

      .cls-4 {
        stroke-width: .75px;
      }
    </style>
    <pattern id="New_Pattern_Swatch_5" data-name="New Pattern Swatch 5" x="0" y="0" width="256.5" height="167" patternTransform="translate(-288 -221)" patternUnits="userSpaceOnUse" viewBox="0 0 256.5 167">
      <g>
        <rect class="cls-2" x="0" y="0" width="256.5" height="167"/>
        <g>
          <g>
            <g>
              <g>
                <path class="cls-20" d="M176.75,136.36c.37,4.52-.11,6.21-2.02,10.31-1.41,3.01-7.16,8.81-6.04,17.3,1.12,8.46,11.74,11.31,18.91,9.97,6.13-1.14,11.22-5.81,12.67-11.76.63-2.58,1.56-9.19-4.16-13.59-4.94-3.8-12.83-2.83-19.37-12.24Z"/>
                <path class="cls-17" d="M181.33,141.46c1.79,1.45,3.84,2.57,5.97,3.43,2.12.89,4.33,1.54,6.36,2.53,2.03.97,3.83,2.44,5.02,4.34,1.24,1.88,1.78,4.15,1.81,6.39.01,2.25-.41,4.53-1.36,6.57-1.86,4.11-5.56,7.35-9.91,8.68-2.17.69-4.48.83-6.75.69-2.27-.15-4.54-.64-6.62-1.57-2.07-.93-3.97-2.31-5.28-4.15-.36-.43-.57-.97-.86-1.45-.22-.52-.41-1.05-.58-1.58-.1-.56-.26-1.1-.3-1.66-.03-.57-.13-1.13-.09-1.69-.01-2.26.47-4.51,1.3-6.62.82-2.12,1.99-4.08,3.24-5.99,1.32-1.88,2.28-4.01,3.02-6.18.76-2.19.71-4.6.45-6.81,1.25,1.88,2.78,3.63,4.58,5.08ZM176.75,139.78c-.08,1.14-.32,2.25-.68,3.33-.77,2.15-1.73,4.22-3.07,6.07-1.27,1.9-2.49,3.87-3.35,6.02-.89,2.14-1.3,4.47-1.28,6.78-.03.58.08,1.15.12,1.73.05.58.23,1.14.33,1.71.18.55.39,1.1.62,1.63.31.49.53,1.04.91,1.48,1.38,1.88,3.34,3.24,5.44,4.16,2.12.89,4.39,1.4,6.68,1.59,2.29.16,4.63.05,6.84-.63,4.43-1.29,8.32-4.51,10.24-8.75.99-2.11,1.43-4.45,1.42-6.76-.03-2.31-.58-4.68-1.87-6.65-.63-.98-1.4-1.88-2.3-2.63-.86-.79-1.89-1.39-2.93-1.88-2.11-.98-4.32-1.59-6.43-2.44-2.13-.81-4.15-1.89-5.95-3.29-1.8-1.39-3.36-3.08-4.75-4.93.04,1.19.1,2.3.01,3.45Z"/>
              </g>
              <g>
                <path class="cls-14" d="M183.39,157.57c-6.79,4.84-8.49,11.63-9.2,14.2,3.95,2.31,9.25,2.94,13.4,2.17,6.13-1.14,11.22-5.81,12.67-11.76.35-1.43.79-4.09.14-6.93-5.65-1.9-12.18-1.14-17.02,2.31Z"/>
                <path class="cls-17" d="M191.64,154.56c2.93-.33,5.91.03,8.69.95l-.17-.19c.66,3.12.26,6.47-1.03,9.39-1.32,2.92-3.54,5.44-6.3,7.12-2.76,1.67-6.04,2.49-9.29,2.32-3.23-.12-6.47-.93-9.24-2.55l.1.24c.74-2.78,1.73-5.48,3.22-7.93.74-1.23,1.6-2.38,2.56-3.45.98-1.06,2.08-1.99,3.23-2.85,2.42-1.72,5.31-2.72,8.24-3.04ZM177.37,163.75c-1.62,2.41-2.68,5.18-3.38,7.97l-.04.16.14.08c2.89,1.63,6.2,2.32,9.45,2.39,3.26.04,6.59-.61,9.43-2.29,2.84-1.64,5.21-4.14,6.6-7.15,1.37-3.01,1.82-6.45,1.1-9.7l-.03-.14-.14-.05c-5.72-1.93-12.28-.93-17.12,2.54-2.35,1.68-4.41,3.77-6,6.19Z"/>
              </g>
              <path class="cls-11" d="M196.03,160.83c-2.69.02-5.35.95-7.65,2.29-3.94,2.3-7.3,6.25-7.16,10.95,2.21.29,4.42.24,6.38-.12,6.13-1.14,11.22-5.81,12.67-11.76.01-.05.02-.1.04-.15-1.24-.75-2.59-1.22-4.28-1.21Z"/>
              <g class="cls-12">
                <path class="cls-16" d="M172.9,158.35c-.41,2.46-.62,4.76-.64,6.37-.03,1.62.13,2.65-.14,2.75-.24.1-.91-.85-1.27-2.62-.35-1.77-.36-4.2.08-6.85.45-2.66,1.49-4.99,2.6-6.41,1.1-1.44,2.12-1.97,2.29-1.79.21.21-.41,1.07-1.09,2.53-.7,1.45-1.42,3.56-1.84,6.01Z"/>
              </g>
            </g>
            <g>
              <g>
                <path class="cls-20" d="M221.98,149.21c-3.62,6.49-13.01,2.51-20.04,15.82-3.99,7.55,2.91,16.11,9.47,19.29,5.61,2.72,12.48,1.97,17.18-1.95,2.04-1.71,6.03-6.32,4.71-13.4-2.34-12.56-11.41-10.75-11.31-19.75Z"/>
                <path class="cls-17" d="M224.08,155.41c1.49,1.69,3.33,2.98,4.79,4.63,1.49,1.62,2.61,3.56,3.32,5.64.68,2.08,1.18,4.26,1.11,6.45-.09,4.37-2.48,8.62-6.15,11.01-3.65,2.42-8.34,3.2-12.62,2.14-2.15-.52-4.16-1.51-5.95-2.81-1.8-1.29-3.42-2.84-4.73-4.63-1.3-1.79-2.31-3.81-2.72-5.98-.44-2.16-.17-4.44.81-6.4,2.01-3.91,4.92-7.46,8.83-9.56,1.93-1.07,4.05-1.76,6.12-2.59,1.03-.41,2.06-.9,2.96-1.58.89-.66,1.67-1.56,2.15-2.51-.14,2.17.57,4.52,2.1,6.18ZM219.72,151.6c-.91.62-1.92,1.08-2.95,1.48-2.06.79-4.21,1.45-6.19,2.51-1.99,1.04-3.79,2.44-5.29,4.12-1.47,1.7-2.7,3.59-3.68,5.6-.99,2.04-1.22,4.41-.74,6.6.45,2.21,1.52,4.24,2.85,6.02,1.33,1.79,2.92,3.39,4.73,4.7,1.8,1.33,3.83,2.36,6,2.92,4.33,1.13,9.18.47,12.95-2.05,3.8-2.46,6.29-6.84,6.39-11.38.08-2.27-.41-4.51-1.16-6.62-.75-2.12-1.95-4.09-3.49-5.72-1.52-1.66-3.38-2.93-4.87-4.55-.73-.82-1.36-1.74-1.72-2.78-.38-1.05-.51-2.12-.55-3.28-.62.98-1.34,1.79-2.26,2.42Z"/>
              </g>
              <g class="cls-12">
                <path class="cls-16" d="M208.82,163.04c-1.79,1.73-3.32,3.46-4.29,4.75-.99,1.29-1.47,2.22-1.75,2.13-.25-.06-.23-1.22.53-2.86.77-1.64,2.2-3.6,4.13-5.47,1.94-1.87,4.16-3.14,5.9-3.62,1.74-.51,2.88-.33,2.91-.08.04.3-.96.62-2.38,1.39-1.43.75-3.25,2.02-5.05,3.75Z"/>
              </g>
            </g>
          </g>
          <g>
            <g>
              <path class="cls-13" d="M257.09,143.78c-.38-2.92,3-24.71,3.77-26.7-12.56-1.43-27.4,10.49-30.37,14.4,2.19.39,25.07,10.95,26.6,12.3Z"/>
              <path class="cls-17" d="M253.92,141.93c-1.08-.57-2.18-1.11-3.27-1.66-2.19-1.08-4.4-2.14-6.61-3.18-2.21-1.05-4.44-2.06-6.68-3.04l-3.37-1.45c-1.14-.46-2.24-.96-3.47-1.29l.11.28c1.81-2.21,4.09-4.03,6.37-5.77,2.31-1.72,4.74-3.29,7.28-4.65,2.56-1.33,5.23-2.46,8.01-3.21,2.78-.73,5.69-1.09,8.55-.76l-.1-.16c-.63,2.2-.95,4.42-1.36,6.64-.4,2.22-.71,4.45-1.03,6.68-.31,2.23-.6,4.46-.87,6.7-.13,1.12-.25,2.24-.34,3.36-.06,1.12-.2,2.27-.08,3.36-.96-.71-2.09-1.25-3.16-1.83ZM257.7,137.07c.29-2.23.6-4.46.94-6.68l1.06-6.66c.38-2.21.69-4.47,1.27-6.6l.04-.15h-.14c-2.9-.31-5.82.1-8.61.87-2.79.75-5.49,1.84-8.07,3.16-2.57,1.33-5.04,2.86-7.38,4.56-2.33,1.72-4.6,3.55-6.47,5.81l-.17.21.28.08c1.12.31,2.27.82,3.39,1.28l3.36,1.45,6.69,3c2.23,1.01,4.45,2.03,6.65,3.08l3.3,1.59c1.1.55,2.19,1.06,3.24,1.74-.02-2.28.35-4.49.6-6.73Z"/>
            </g>
            <path class="cls-1" d="M245.97,124.56c.56.98,11.05,15.13,15.31,30.83"/>
            <path class="cls-1" d="M239.35,129.85l15.1,8.49c-.46-1.32-.4-13.12-.16-17.21"/>
          </g>
          <g class="cls-9">
            <path class="cls-14" d="M240.9,157.44l1.18.4c.15.05.31.02.44-.07l1-.75c.32-.24.77,0,.77.39l-.02,1.25c0,.16.07.31.2.4l1.02.72c.32.23.25.73-.13.85l-1.19.37c-.15.05-.27.16-.32.32l-.37,1.19c-.12.38-.62.46-.85.13l-.72-1.02c-.09-.13-.24-.2-.4-.2l-1.25.02c-.4,0-.63-.45-.39-.77l.75-1c.09-.13.12-.29.07-.44l-.4-1.18c-.13-.38.23-.74.61-.61Z"/>
          </g>
          <g class="cls-9">
            <path class="cls-14" d="M237.4,111.39l1.18.4c.15.05.31.02.44-.07l1-.75c.32-.24.77,0,.77.39l-.02,1.25c0,.16.07.31.2.4l1.02.72c.32.23.25.73-.13.85l-1.19.37c-.15.05-.27.16-.32.32l-.37,1.19c-.12.38-.62.46-.85.13l-.72-1.02c-.09-.13-.24-.2-.4-.2l-1.25.02c-.4,0-.63-.45-.39-.77l.75-1c.09-.13.12-.29.07-.44l-.4-1.18c-.13-.38.23-.74.61-.61Z"/>
          </g>
          <g>
            <g>
              <path class="cls-14" d="M275.44,82.88c.25,1.16.27,2.25-.04,2.96l-2.14.74-5.48,1.9-4.17,1.44-6.73,2.33-4.45,1.54-7.31,2.53-5.01,1.73-9.23,3.19-5.67,1.96-1.65-4.75-1.11-3.2,6.97-2.42,5.89-2.03,8.46-2.93,5.06-1.75,7.55-2.61,4.62-1.61,6.03-2.08,4.43-1.53,1.2-.42c1.23.72,2.36,2.95,2.79,4.99Z"/>
              <path class="cls-17" d="M275.49,82.87c.11.49.19.99.2,1.5.01.5-.03,1.02-.23,1.5v.03s-.04.01-.04.01c-4.18,1.45-8.31,3.05-12.46,4.58-4.15,1.53-8.32,3.02-12.52,4.43-4.19,1.42-8.41,2.76-12.62,4.14l-6.29,2.12-6.26,2.2-.17.06-.06-.18-2.88-7.9-.11-.3.31-.11c4.16-1.53,8.32-3.02,12.5-4.49,4.18-1.47,8.34-2.96,12.54-4.38,4.19-1.44,8.37-2.87,12.58-4.24l12.65-4.05.05-.02.04.02c.86.56,1.39,1.43,1.84,2.3.43.88.75,1.81.95,2.77ZM275.4,82.89c-.21-.95-.55-1.86-.99-2.72-.45-.84-1-1.69-1.8-2.18h.09s-12.45,4.64-12.45,4.64c-4.15,1.54-8.33,2.99-12.52,4.44-4.17,1.47-8.37,2.88-12.57,4.3-4.19,1.42-8.39,2.83-12.6,4.2l.2-.41,2.63,7.99-.24-.12,6.29-2.13,6.26-2.22c4.16-1.52,8.3-3.07,12.47-4.56,4.17-1.49,8.36-2.9,12.58-4.26,4.21-1.36,8.45-2.66,12.63-4.09l-.04.04c.37-.91.25-1.96.06-2.92Z"/>
            </g>
            <g>
              <g>
                <path class="cls-13" d="M267.78,88.48l-4.17,1.44c-2.29-2.21-4.7-4.34-7.23-6.39l4.62-1.61c2.37,2.11,4.64,4.3,6.78,6.55Z"/>
                <path class="cls-17" d="M267.79,88.48c-1.32.5-2.71,1.07-4.14,1.57l-.08.03-.06-.06-3.51-3.31c-1.17-1.1-2.42-2.12-3.69-3.11l-.13-.1.15-.06c1.53-.57,3.06-1.14,4.6-1.68l.09-.03.08.07c1.18,1.04,2.34,2.11,3.45,3.23l1.64,1.69c.55.57,1.06,1.14,1.59,1.76ZM267.76,88.48l-1.69-1.62-1.71-1.62-3.47-3.18.17.03c-1.54.53-3.1,1.03-4.65,1.53l.03-.16,3.69,3.12c1.24,1.03,2.45,2.09,3.59,3.24l-.14-.03c1.35-.46,2.73-.85,4.2-1.32Z"/>
              </g>
              <g>
                <path class="cls-13" d="M256.88,92.25l-4.45,1.54c-2.76-2.08-5.65-4.04-8.66-5.9l5.06-1.75c2.8,1.93,5.48,3.98,8.06,6.11Z"/>
                <path class="cls-17" d="M256.9,92.25c-1.41.53-2.9,1.14-4.43,1.67l-.07.02-.06-.04-4.23-3.09c-1.41-1.03-2.9-1.95-4.4-2.84l-.16-.1.18-.07c1.67-.61,3.35-1.23,5.03-1.82l.08-.03.07.05c1.39.95,2.76,1.94,4.09,2.99l1.97,1.59c.66.54,1.28,1.07,1.92,1.67ZM256.87,92.25l-2.01-1.51-2.03-1.51c-1.36-.99-2.72-1.98-4.1-2.94l.15.02c-1.69.57-3.39,1.12-5.08,1.67l.02-.16,4.4,2.86c1.47.94,2.92,1.93,4.3,3.01l-.13-.02c1.44-.5,2.92-.91,4.48-1.42Z"/>
              </g>
              <g>
                <path class="cls-13" d="M245.11,96.33l-5.01,1.73c-3.43-1.89-6.99-3.63-10.68-5.21l5.89-2.03c3.4,1.7,6.66,3.54,9.8,5.51Z"/>
                <path class="cls-17" d="M245.13,96.33c-1.59.58-3.26,1.27-4.98,1.86l-.06.02-.06-.03-5.25-2.78c-1.76-.92-3.57-1.71-5.41-2.46l-.21-.09.22-.08c1.95-.71,3.9-1.43,5.86-2.11l.07-.02.07.03c1.68.84,3.35,1.71,4.96,2.66.81.47,1.61.96,2.41,1.45.8.5,1.58.99,2.37,1.55ZM245.1,96.32l-2.43-1.38c-.81-.46-1.63-.92-2.46-1.36-1.65-.88-3.3-1.77-4.97-2.61h.13c-1.96.68-3.94,1.32-5.91,1.97v-.17c1.82.8,3.61,1.66,5.42,2.48,1.8.83,3.59,1.7,5.31,2.69h-.11c1.62-.57,3.29-1.04,5.04-1.62Z"/>
              </g>
              <path class="cls-6" d="M230.87,101.25l-5.67,1.96-1.65-4.75c2.49.86,4.93,1.79,7.32,2.79Z"/>
            </g>
            <path class="cls-17" d="M224.99,103.61c-.83.29-2.17-1.39-2.99-3.75-.82-2.36-.8-4.51.03-4.79.83-.29,2.17,1.39,2.99,3.75.82,2.36.8,4.51-.03,4.79Z"/>
          </g>
        </g>
        <g>
          <g>
            <path class="cls-14" d="M147.19,166.38c.25,1.16.27,2.25-.04,2.96l-2.14.74-5.48,1.9-4.17,1.44-6.73,2.33-4.45,1.54-7.31,2.53-5.01,1.73-9.23,3.19-5.67,1.96-1.65-4.75-1.11-3.2,6.97-2.42,5.89-2.03,8.46-2.93,5.06-1.75,7.55-2.61,4.62-1.61,6.03-2.08,4.43-1.53,1.2-.42c1.23.72,2.36,2.95,2.79,4.99Z"/>
            <path class="cls-17" d="M147.24,166.37c.11.49.19.99.2,1.5.01.5-.03,1.02-.23,1.5v.03s-.04.01-.04.01c-4.18,1.45-8.31,3.05-12.46,4.58-4.15,1.53-8.32,3.02-12.52,4.43-4.19,1.42-8.41,2.76-12.62,4.14l-6.29,2.12-6.26,2.2-.17.06-.06-.18-2.88-7.9-.11-.3.31-.11c4.16-1.53,8.32-3.02,12.5-4.49,4.18-1.47,8.34-2.96,12.54-4.38,4.19-1.44,8.37-2.87,12.58-4.24l12.65-4.05.05-.02.04.02c.86.56,1.39,1.43,1.84,2.3.43.88.75,1.81.95,2.77ZM147.15,166.39c-.21-.95-.55-1.86-.99-2.72-.45-.84-1-1.69-1.8-2.18h.09s-12.45,4.64-12.45,4.64c-4.15,1.54-8.33,2.99-12.52,4.44-4.17,1.47-8.37,2.88-12.57,4.3-4.19,1.42-8.39,2.83-12.6,4.2l.2-.41,2.63,7.99-.24-.12,6.29-2.13,6.26-2.22c4.16-1.52,8.3-3.07,12.47-4.56,4.17-1.49,8.36-2.9,12.58-4.26,4.21-1.36,8.45-2.66,12.63-4.09l-.04.04c.37-.91.25-1.96.06-2.92Z"/>
          </g>
          <g>
            <g>
              <path class="cls-13" d="M147.19,166.38c.25,1.16.27,2.25-.04,2.96l-2.14.74c-1.97-2.31-4.05-4.55-6.23-6.74l4.43-1.53c1.38,1.5,2.71,3.02,3.99,4.57Z"/>
              <path class="cls-17" d="M147.21,166.38c.13.49.23.98.26,1.49.02.51,0,1.03-.2,1.53l-.02.05-.06.02-2.13.76-.09.03-.07-.08c-1.05-1.11-2-2.31-3.04-3.43-1.05-1.11-2.11-2.21-3.17-3.31l-.15-.15.2-.07c1.47-.54,2.93-1.07,4.41-1.56l.11-.04.07.08c.67.76,1.32,1.56,1.97,2.33.65.78,1.3,1.56,1.91,2.34ZM147.18,166.39c-.71-.74-1.4-1.48-2.08-2.22-.68-.74-1.37-1.48-2.02-2.23l.18.05c-1.47.52-2.95,1.01-4.44,1.49l.05-.22c1.01,1.15,2.03,2.3,3.06,3.43,1.04,1.13,2.16,2.18,3.19,3.31l-.16-.04,2.14-.72-.07.07c.38-.88.29-1.93.15-2.9Z"/>
            </g>
            <g>
              <path class="cls-13" d="M139.53,171.98l-4.17,1.44c-2.29-2.21-4.7-4.34-7.23-6.39l4.62-1.61c2.37,2.11,4.64,4.3,6.78,6.55Z"/>
              <path class="cls-17" d="M139.54,171.98c-1.32.5-2.71,1.07-4.14,1.57l-.08.03-.06-.06-3.51-3.31c-1.17-1.1-2.42-2.12-3.69-3.11l-.13-.1.15-.06c1.53-.57,3.06-1.14,4.6-1.68l.09-.03.08.07c1.18,1.04,2.34,2.11,3.45,3.23l1.64,1.69c.55.57,1.06,1.14,1.59,1.76ZM139.51,171.98l-1.69-1.62-1.71-1.62-3.47-3.18.17.03c-1.54.53-3.1,1.03-4.65,1.53l.03-.16,3.69,3.12c1.24,1.03,2.45,2.09,3.59,3.24l-.14-.03c1.35-.46,2.73-.85,4.2-1.32Z"/>
            </g>
          </g>
        </g>
        <g>
          <path class="cls-3" d="M84.35,195.39s-.18.03-.54.08c-.35.04-.87.13-1.54.19-1.33.11-3.25.2-5.53,0-2.28-.19-4.9-.68-7.64-1.51-2.74-.82-5.6-2.01-8.47-3.43-5.71-2.87-11.68-6.63-16.99-10.93-1.33-1.07-2.62-2.18-3.85-3.31-1.24-1.13-2.42-2.28-3.45-3.43-2.07-2.3-3.52-4.64-4.14-6.8"/>
          <g>
            <g>
              <g>
                <path class="cls-14" d="M61.97,161.72c-4.03-1.54-7.02-4.06-9.56-7.16-2.83-3.44-4.94-7.6-4.59-12.08.2-2.59,1.51-4.63,3.05-6.68,2.39-3.16,4.78-5.91,8.27-7.88,3.55-2,7.65-3.8,11.8-3.22,3.69.52,7.15,3.12,9.96,5.41,3.79,3.09,11.4,12.37,4.41,23.02-2,3.05-5.88,5.93-9.25,7.35-1.98.83-4.08,1.33-6.2,1.62-2.3.31-5.08.69-7.9-.39Z"/>
                <path class="cls-17" d="M69.41,162.24c2.49-.29,4.98-.85,7.29-1.89,2.3-1.05,4.42-2.47,6.28-4.19.94-.85,1.77-1.82,2.49-2.88.69-1.06,1.29-2.18,1.77-3.36.96-2.35,1.33-4.95,1.01-7.48-.3-2.53-1.25-4.95-2.58-7.1-1.33-2.15-3.02-4.09-5.02-5.64-1.97-1.56-4.02-3.06-6.33-4.1-1.16-.5-2.38-.9-3.64-1.02-1.26-.14-2.54-.08-3.77.16-2.49.46-4.81,1.53-7.02,2.69-2.24,1.14-4.27,2.71-5.99,4.55-.87.91-1.68,1.88-2.45,2.87-.77.99-1.55,1.99-2.21,3.07-.66,1.08-1.19,2.26-1.44,3.52-.24,1.26-.24,2.55-.06,3.81.37,2.53,1.43,4.89,2.82,6.99,2.79,4.17,6.66,7.77,11.42,9.5,2.36.94,4.98.84,7.45.51ZM50.76,152.1c-1.34-2.1-2.35-4.44-2.67-6.9-.15-1.22-.18-2.48.04-3.69.23-1.21.73-2.36,1.37-3.42,2.73-4.13,5.95-8.21,10.45-10.52,2.19-1.21,4.52-2.22,6.98-2.66,2.46-.47,5.03-.16,7.29.91,2.27,1.05,4.28,2.56,6.22,4.14,1.94,1.56,3.59,3.47,4.9,5.58,1.3,2.12,2.22,4.48,2.51,6.94.31,2.46-.06,4.98-1,7.28-.46,1.15-1.06,2.25-1.73,3.29-.69,1.02-1.52,1.96-2.41,2.82-1.8,1.72-3.87,3.16-6.12,4.24-2.26,1.07-4.72,1.66-7.2,1.99-2.46.37-5.05.51-7.41-.4-4.72-1.8-8.52-5.43-11.22-9.6Z"/>
              </g>
              <g>
                <path class="cls-14" d="M64.32,162.12c-4.03-1.54-7.02-4.06-9.56-7.16-2.83-3.44-4.94-7.6-4.59-12.08.2-2.59,1.51-4.63,3.05-6.68,2.39-3.16,4.78-5.91,8.27-7.88,3.55-2,7.65-3.8,11.8-3.22,3.69.52,7.15,3.12,9.96,5.41,3.79,3.09,11.4,12.37,4.41,23.02-2,3.05-5.88,5.93-9.25,7.35-1.98.83-4.08,1.33-6.2,1.62-2.3.31-5.08.69-7.9-.39Z"/>
                <path class="cls-17" d="M71.76,162.64c2.49-.29,4.98-.85,7.29-1.89,2.3-1.05,4.42-2.47,6.28-4.19.94-.85,1.77-1.82,2.49-2.88.69-1.06,1.29-2.19,1.77-3.36.96-2.35,1.33-4.95,1.01-7.48-.3-2.53-1.25-4.95-2.58-7.1-1.33-2.15-3.02-4.09-5.02-5.64-1.97-1.56-4.02-3.06-6.33-4.1-1.16-.5-2.38-.9-3.64-1.02-1.26-.14-2.54-.08-3.77.16-2.49.46-4.81,1.53-7.02,2.69-2.24,1.14-4.27,2.71-5.99,4.55-.87.91-1.68,1.88-2.45,2.87-.77.99-1.55,1.99-2.21,3.07-.66,1.08-1.19,2.26-1.44,3.52-.24,1.26-.24,2.55-.06,3.81.37,2.53,1.43,4.89,2.82,6.99,2.79,4.17,6.66,7.77,11.42,9.5,2.36.94,4.98.84,7.45.51ZM53.1,152.5c-1.34-2.1-2.35-4.44-2.67-6.9-.15-1.22-.18-2.48.04-3.69.23-1.21.73-2.36,1.37-3.42,2.73-4.13,5.95-8.21,10.45-10.52,2.19-1.21,4.52-2.22,6.98-2.66,2.46-.47,5.03-.16,7.29.91,2.27,1.05,4.28,2.56,6.22,4.14,1.94,1.56,3.59,3.47,4.9,5.58,1.3,2.12,2.22,4.48,2.51,6.94.31,2.46-.06,4.98-1,7.28-.46,1.15-1.06,2.25-1.73,3.29-.69,1.02-1.52,1.96-2.41,2.82-1.8,1.72-3.87,3.16-6.12,4.24-2.26,1.07-4.72,1.66-7.2,1.99-2.46.37-5.05.51-7.41-.4-4.72-1.8-8.52-5.43-11.22-9.6Z"/>
              </g>
              <path class="cls-10" d="M53.21,136.21c-1.54,2.04-2.85,4.09-3.05,6.68-.01.18,0,.36,0,.54.63-2.78,1.65-5.93,4.15-7.56.67-.43,1.38-.76,2.18-.77,1.59-.02,2.59,1.28,4.28-.26.47-.42.59-1.05,1.22-1.3.3-.12.63-.06.94-.08,1.07-.06,1.88-.19,2.88-.67,2.28-1.09,4.44-2.07,7.03-2.01,5.49.14,10.39,4.58,13.57,8.69,1.48,1.91,3.12,4.38,3.97,6.96.94-7.5-4.22-13.54-7.14-15.91-2.81-2.29-6.27-4.89-9.96-5.41-4.15-.59-8.25,1.21-11.8,3.22-3.49,1.97-5.89,4.72-8.27,7.88Z"/>
              <path class="cls-17" d="M76.33,138.18c.32.3,1.66-.43,2.5-.63.41-.1.81-.2,1.19-.38.38-.18.9-.48,1.12-.85.63-1.05-.74-2.27-1.45-2.82-.53-.41-1.06-.8-1.66-1.09-.41-.2-.81-.52-1.26-.33-1.01.41-1.04,1.93-1.22,2.84-.21,1.11.46,2.97.78,3.27Z"/>
              <path class="cls-17" d="M78.13,151.13c.11.34,1.36.36,2.04.55.33.09.66.18,1,.2.34.02.83.01,1.14-.16.87-.5.38-1.92.09-2.6-.21-.51-.44-.99-.75-1.44-.21-.3-.37-.69-.76-.74-.89-.11-1.52.96-2,1.54-.6.71-.86,2.31-.75,2.65Z"/>
              <path class="cls-17" d="M61.7,136.09c.25.26,1.38-.29,2.07-.43.34-.07.67-.13.99-.27.31-.14.75-.36.94-.66.55-.84-.52-1.88-1.09-2.36-.42-.36-.84-.69-1.32-.95-.33-.17-.65-.45-1.02-.32-.84.3-.92,1.54-1.1,2.28-.21.9.27,2.45.52,2.71Z"/>
              <path class="cls-17" d="M58.73,154.25c.25.26,1.38-.29,2.07-.43.34-.07.67-.13.99-.27.31-.14.75-.36.94-.66.55-.84-.52-1.88-1.09-2.36-.42-.36-.84-.69-1.32-.95-.33-.17-.65-.45-1.02-.32-.84.3-.92,1.54-1.1,2.28-.21.9.27,2.45.52,2.71Z"/>
              <path class="cls-17" d="M66.87,144.08c.03.28,1.01.5,1.51.75.25.12.49.25.75.32.27.07.65.14.92.06.76-.26.6-1.44.49-2.02-.09-.43-.19-.85-.36-1.25-.12-.27-.18-.6-.48-.7-.68-.23-1.34.51-1.82.89-.58.46-1.04,1.68-1.01,1.96Z"/>
              <path class="cls-17" d="M54.65,142.72c.03.28,1.01.5,1.51.75.24.12.49.25.75.32.27.07.65.14.92.06.76-.26.6-1.44.49-2.02-.09-.43-.19-.85-.36-1.25-.12-.27-.18-.6-.48-.7-.68-.23-1.34.51-1.82.89-.58.46-1.04,1.68-1.01,1.96Z"/>
              <path class="cls-17" d="M69.44,159.62c.27.22,1.31-.45,1.97-.66.32-.1.64-.21.94-.38.29-.17.69-.44.85-.75.44-.89-.73-1.78-1.34-2.19-.45-.3-.9-.58-1.41-.77-.34-.13-.68-.37-1.03-.19-.79.4-.72,1.62-.81,2.36-.1.9.55,2.37.83,2.59Z"/>
              <g>
                <path class="cls-10" d="M67.34,149.69c.9-.77,2.46-.41,3.48.79,1.02,1.2,1.11,2.8.21,3.56-.9.77-2.46.41-3.48-.79-1.02-1.2-1.11-2.8-.21-3.56Z"/>
                <path class="cls-10" d="M62.5,148.35c.46-.39,1.24-.21,1.76.4.51.61.56,1.41.1,1.8-.46.39-1.24.21-1.76-.4-.51-.61-.56-1.41-.1-1.8Z"/>
                <path class="cls-10" d="M70.28,146.13c.46-.39,1.24-.21,1.76.4.51.61.56,1.41.1,1.8-.46.39-1.24.21-1.76-.4-.51-.61-.56-1.41-.1-1.8Z"/>
                <path class="cls-10" d="M72.99,152.3c.46-.39,1.24-.21,1.76.4.51.61.56,1.41.1,1.8-.46.39-1.24.21-1.76-.4-.51-.61-.56-1.41-.1-1.8Z"/>
              </g>
            </g>
            <g>
              <g>
                <path class="cls-14" d="M52.4,126.57c-1.51-1.52-3.58-2.46-5.44-3.54-1.68-.97-3.78-1.8-5.92-2.34-.2,1.85-.68,3.75-1.79,4.93-1.86,1.96-4.86,2.1-7.28,1.64-.98-.19-1.58.03-2.48.3-.53.16-.54.36-1.11.36-.3,0-.53-.21-.82-.26-.5-.43-1.08-.53-1.76-.27-.35.24-.7.47-1.06.69-.88.48-1.74.63-2.47.44-1.76,3.31-2.36,6.82-2.43,8.99-.13,3.62-.11,7.95,1.7,11.21,2.04,3.66,5.95,5.85,9.69,7.47,3.68,1.59,7.32,1.84,11.28,1.84,2.56,0,4.98-.2,7.17-1.6,3.78-2.43,5.82-6.62,6.86-10.95.93-3.9,1.13-7.8-.07-11.94-.84-2.9-2.42-5.32-4.06-6.96Z"/>
                <path class="cls-17" d="M56.93,136.06c.56,3.52.11,7.14-.89,10.53-1.01,3.37-2.65,6.69-5.44,8.9-1.35,1.14-2.99,1.85-4.74,2.11-1.74.27-3.53.23-5.31.2-3.55-.07-7.11-.66-10.32-2.24-3.21-1.46-6.4-3.38-8.31-6.4-.96-1.49-1.48-3.23-1.76-4.98-.28-1.76-.34-3.55-.29-5.33-.01-3.56.85-7.12,2.51-10.26l-.15.07c.66.18,1.35.07,1.96-.16.63-.22,1.14-.64,1.69-.98l-.03.02c.55-.22,1.18-.16,1.6.25l.03.03h.05c.14.03.29.12.48.19.19.09.43.09.62.06.21-.02.42-.13.57-.21.15-.08.31-.13.49-.18.7-.22,1.39-.39,2.09-.26,1.44.3,2.99.36,4.45.02,1.46-.32,2.87-1.16,3.68-2.46.78-1.3,1.07-2.8,1.23-4.27l-.13.09c2.08.51,4.11,1.26,5.97,2.32,1.86,1.06,3.86,1.95,5.4,3.47,2.5,2.56,4.04,5.96,4.54,9.48ZM47.05,123.01c-1.86-1.09-3.89-1.87-5.98-2.42l-.12-.03v.12c-.19,1.45-.5,2.92-1.27,4.14-.78,1.21-2.11,1.99-3.52,2.27-1.42.3-2.88.22-4.32-.05-.77-.14-1.56.06-2.25.29-.17.05-.37.11-.54.21-.18.1-.3.16-.46.18-.17.02-.32.02-.46-.04-.15-.06-.33-.16-.55-.2l.08.04c-.25-.22-.58-.39-.92-.43-.35-.05-.69.02-1,.14h-.01s-.02.02-.02.02c-.54.33-1.03.75-1.61.96-.57.22-1.21.32-1.79.17l-.1-.03-.05.09c-1.65,3.2-2.48,6.8-2.42,10.38-.01,1.79.01,3.58.28,5.36.26,1.77.77,3.54,1.74,5.07,1.93,3.1,5.14,5.08,8.35,6.59,1.61.78,3.32,1.42,5.09,1.77,1.77.37,3.56.52,5.36.57,1.79.03,3.59.09,5.39-.19,1.79-.25,3.55-1.02,4.93-2.19,2.86-2.28,4.6-5.67,5.54-9.12.95-3.46,1.33-7.12.72-10.67-.56-3.54-2.16-6.94-4.7-9.48-1.53-1.54-3.53-2.46-5.37-3.55Z"/>
              </g>
              <g>
                <path class="cls-14" d="M50.91,124.88c-1.51-1.52-3.18-2.89-5.04-3.97-1.36-.79-3-1.48-4.71-2-.08,2.31-.44,5.14-1.91,6.7-1.86,1.96-4.86,2.1-7.28,1.64-.98-.19-1.58.03-2.48.3-.53.16-.54.36-1.11.36-.3,0-.53-.21-.82-.26-.5-.43-1.08-.53-1.76-.27-.35.24-.7.47-1.06.69-1.63.89-3.23.69-3.97-.87-1.44,3.06-1.96,6.19-2.02,8.18-.13,3.62-.11,7.95,1.7,11.21,2.04,3.66,5.95,5.85,9.69,7.47,3.68,1.59,7.32,1.84,11.28,1.84,2.56,0,4.98-.2,7.17-1.6,3.78-2.43,5.82-6.62,6.86-10.95.93-3.9,1.13-7.8-.07-11.94-.84-2.9-2.82-4.89-4.46-6.53Z"/>
                <path class="cls-17" d="M54.24,128.97c.91,1.51,1.32,3.25,1.6,4.98.55,3.48.11,7.05-.86,10.41-.98,3.34-2.58,6.62-5.28,8.86-.67.55-1.39,1.05-2.16,1.43-.78.38-1.61.63-2.46.79-1.71.31-3.48.28-5.24.26-3.51-.05-7.04-.55-10.23-2.04-3.18-1.42-6.37-3.2-8.42-6.08-1.04-1.42-1.65-3.1-1.99-4.82-.34-1.72-.43-3.49-.44-5.25-.07-3.53.6-7.06,2.12-10.24h-.22c.22.46.55.88,1,1.15.45.27.99.36,1.5.31.51-.04,1-.21,1.46-.43.45-.23.84-.53,1.27-.79l-.03.02c.55-.22,1.18-.16,1.6.25l.03.03h.05c.16.03.32.14.54.21.24.08.47.06.69.02.24-.06.41-.19.58-.25.17-.07.37-.12.56-.18.78-.26,1.52-.32,2.31-.12,1.61.28,3.32.26,4.89-.31.78-.28,1.51-.73,2.1-1.32.61-.58,1.01-1.34,1.29-2.11.56-1.56.7-3.2.75-4.82l-.12.09c1.84.55,3.63,1.28,5.26,2.29,1.64,1.01,3.13,2.24,4.49,3.59,1.24,1.25,2.46,2.55,3.34,4.07ZM46.46,121.2c-1.63-1.04-3.43-1.8-5.27-2.38l-.12-.04v.13c-.08,1.61-.25,3.24-.81,4.74-.52,1.52-1.74,2.71-3.26,3.21-1.5.53-3.15.5-4.72.26-.38-.07-.83-.15-1.25-.11-.43.03-.84.14-1.23.26-.19.06-.38.11-.59.2-.21.09-.37.21-.53.24-.17.03-.36.05-.51,0-.17-.05-.35-.17-.6-.21l.08.04c-.25-.22-.58-.39-.92-.43-.35-.05-.69.02-1,.14h-.01s-.02.02-.02.02c-.41.26-.81.56-1.22.78-.42.21-.88.37-1.35.41-.47.05-.94-.03-1.34-.27-.4-.23-.71-.61-.91-1.03l-.11-.23-.11.23c-1.5,3.22-2.14,6.81-2.02,10.34-.01,1.77.07,3.54.4,5.29.32,1.74.93,3.46,1.98,4.91,2.06,2.95,5.27,4.8,8.46,6.27,3.21,1.56,6.84,2.07,10.36,2.13,1.76.02,3.55.07,5.32-.25.88-.16,1.75-.42,2.57-.81.82-.39,1.56-.91,2.25-1.48,2.78-2.31,4.45-5.67,5.36-9.08.93-3.42,1.3-7.04.69-10.54-.3-1.74-.75-3.49-1.69-5.01-.92-1.52-2.16-2.81-3.41-4.04-1.35-1.37-2.83-2.63-4.46-3.66Z"/>
              </g>
              <path class="cls-10" d="M40.48,155.24c-.75-.27-1.44-.64-1.93-1.27-.98-1.26-.55-2.84-2.8-3.25-.62-.11-1.19.16-1.77-.19-.28-.17-.43-.46-.63-.71-.69-.82-1.29-1.38-2.28-1.89-2.25-1.16-4.33-2.29-5.85-4.4-3-4.17-2.68-10.19-1.53-15.06-1.24.32-2.35-.04-2.93-1.26-1.44,3.05-1.96,6.18-2.03,8.17-.13,3.62-.11,7.95,1.7,11.21,2.04,3.66,5.95,5.85,9.69,7.47,3.68,1.59,7.32,1.84,11.28,1.84,2.56,0,4.98-.2,7.17-1.6.15-.1.29-.22.43-.32-2.59,1.18-5.72,2.26-8.53,1.25Z"/>
              <path class="cls-17" d="M29.03,136.29c.05-.43-1.35-1.07-2.01-1.61-.33-.27-.65-.53-1.02-.72-.37-.19-.93-.42-1.35-.38-1.22.14-1.36,1.96-1.38,2.86,0,.67,0,1.32.14,1.98.09.44.08.96.49,1.2.94.55,2.17-.33,3-.74,1.01-.5,2.09-2.16,2.14-2.6Z"/>
              <path class="cls-17" d="M36.2,149.21c.05-.35-1.07-.92-1.59-1.39-.26-.23-.51-.46-.81-.62-.3-.17-.74-.38-1.09-.36-1,.07-1.18,1.56-1.23,2.29-.03.55-.04,1.08.04,1.63.06.36.03.79.36,1,.75.49,1.78-.2,2.48-.5.84-.37,1.79-1.7,1.84-2.05Z"/>
              <path class="cls-17" d="M52.46,140.62c.05-.35-1.07-.92-1.59-1.39-.26-.23-.51-.46-.81-.62-.3-.17-.74-.38-1.09-.36-1,.07-1.18,1.56-1.23,2.29-.03.55-.04,1.08.04,1.63.06.36.03.79.36,1,.75.49,1.78-.2,2.48-.5.84-.37,1.79-1.7,1.84-2.05Z"/>
              <path class="cls-17" d="M39.44,140.27c.21-.2-.21-1.11-.31-1.66-.05-.27-.1-.54-.2-.79-.11-.25-.28-.61-.51-.76-.66-.45-1.51.39-1.91.84-.29.33-.56.66-.78,1.04-.14.26-.37.51-.27.81.23.68,1.22.76,1.81.91.72.18,1.96-.18,2.17-.38Z"/>
              <path class="cls-17" d="M45.73,150.83c.21-.2-.21-1.11-.31-1.66-.05-.27-.1-.54-.2-.79-.11-.25-.28-.61-.51-.76-.66-.45-1.51.39-1.91.84-.29.33-.56.66-.78,1.04-.14.26-.37.51-.27.81.23.68,1.22.76,1.81.91.72.18,1.96-.18,2.17-.38Z"/>
              <path class="cls-17" d="M50.28,128.84c.01-.35-1.15-.78-1.72-1.17-.28-.19-.55-.39-.87-.52-.31-.13-.77-.29-1.11-.22-.97.18-.98,1.66-.93,2.39.03.54.08,1.07.23,1.59.1.35.12.77.47.94.79.39,1.72-.4,2.37-.78.78-.46,1.55-1.87,1.56-2.22Z"/>
              <g>
                <path class="cls-10" d="M43.63,136.5c-1.16-.26-1.82-1.71-1.47-3.25.34-1.54,1.56-2.57,2.72-2.31s1.82,1.71,1.47,3.25c-.34,1.54-1.56,2.57-2.72,2.31Z"/>
                <path class="cls-10" d="M45.48,141.17c-.58-.13-.92-.87-.74-1.64.17-.78.79-1.3,1.37-1.17.58.13.92.87.74,1.64-.17.78-.79,1.3-1.37,1.17Z"/>
                <path class="cls-10" d="M39.02,136.31c-.58-.13-.92-.87-.74-1.64.17-.78.79-1.3,1.37-1.17.58.13.92.87.74,1.64-.17.78-.79,1.3-1.37,1.17Z"/>
                <path class="cls-10" d="M42.3,130.42c-.58-.13-.92-.87-.74-1.64.17-.78.79-1.3,1.37-1.17s.92.87.74,1.64c-.17.78-.79,1.3-1.37,1.17Z"/>
              </g>
            </g>
          </g>
          <g>
            <g>
              <path class="cls-13" d="M.59,143.78c-.38-2.92,3-24.71,3.77-26.7-12.56-1.43-27.4,10.49-30.37,14.4,2.19.39,25.07,10.95,26.6,12.3Z"/>
              <path class="cls-17" d="M-2.58,141.93c-1.08-.57-2.18-1.11-3.27-1.66-2.19-1.08-4.4-2.14-6.61-3.18-2.21-1.05-4.44-2.06-6.68-3.04l-3.37-1.45c-1.14-.46-2.24-.96-3.47-1.29l.11.28c1.81-2.21,4.09-4.03,6.37-5.77,2.31-1.72,4.74-3.29,7.28-4.65,2.56-1.33,5.23-2.46,8.01-3.21,2.78-.73,5.69-1.09,8.55-.76l-.1-.16c-.63,2.2-.95,4.42-1.36,6.64-.4,2.22-.71,4.45-1.03,6.68-.31,2.23-.6,4.46-.87,6.7-.13,1.12-.25,2.24-.34,3.36-.06,1.12-.2,2.27-.08,3.36-.96-.71-2.09-1.25-3.16-1.83ZM1.2,137.07c.29-2.23.6-4.46.94-6.68l1.06-6.66c.38-2.21.69-4.47,1.27-6.6l.04-.15h-.14c-2.9-.31-5.82.1-8.61.87-2.79.75-5.49,1.84-8.07,3.16-2.57,1.33-5.04,2.86-7.38,4.56-2.33,1.72-4.6,3.55-6.47,5.81l-.17.21.28.08c1.12.31,2.27.82,3.39,1.28l3.36,1.45,6.69,3c2.23,1.01,4.45,2.03,6.65,3.08l3.3,1.59c1.1.55,2.19,1.06,3.24,1.74-.02-2.28.35-4.49.6-6.73Z"/>
            </g>
            <path class="cls-1" d="M-10.53,124.56c.56.98,11.05,15.13,15.31,30.83"/>
          </g>
          <g class="cls-9">
            <path class="cls-14" d="M24.07,111.89l1.18.4c.15.05.31.02.44-.07l1-.75c.32-.24.77,0,.77.39l-.02,1.25c0,.16.07.31.2.4l1.02.72c.32.23.25.73-.13.85l-1.19.37c-.15.05-.27.16-.32.32l-.37,1.19c-.12.38-.62.46-.85.13l-.72-1.02c-.09-.13-.24-.2-.4-.2l-1.25.02c-.4,0-.63-.45-.39-.77l.75-1c.09-.13.12-.29.07-.44l-.4-1.18c-.13-.38.23-.74.61-.61Z"/>
          </g>
          <g class="cls-9">
            <path class="cls-14" d="M9.81,97.14l1.18.4c.15.05.31.02.44-.07l1-.75c.32-.24.77,0,.77.39l-.02,1.25c0,.16.07.31.2.4l1.02.72c.32.23.25.73-.13.85l-1.19.37c-.15.05-.27.16-.32.32l-.37,1.19c-.12.38-.62.46-.85.13l-.72-1.02c-.09-.13-.24-.2-.4-.2l-1.25.02c-.4,0-.63-.45-.39-.77l.75-1c.09-.13.12-.29.07-.44l-.4-1.18c-.13-.38.23-.74.61-.61Z"/>
          </g>
          <g>
            <g>
              <path class="cls-14" d="M18.94,82.88c.25,1.16.27,2.25-.04,2.96l-2.14.74-5.48,1.9-4.17,1.44-6.73,2.33-4.45,1.54-7.31,2.53-5.01,1.73-9.23,3.19-5.67,1.96-1.65-4.75-1.11-3.2,6.97-2.42,5.89-2.03,8.46-2.93,5.06-1.75,7.55-2.61,4.62-1.61,6.03-2.08,4.43-1.53,1.2-.42c1.23.72,2.36,2.95,2.79,4.99Z"/>
              <path class="cls-17" d="M18.99,82.87c.11.49.19.99.2,1.5.01.5-.03,1.02-.23,1.5v.03s-.04.01-.04.01c-4.18,1.45-8.31,3.05-12.46,4.58-4.15,1.53-8.32,3.02-12.52,4.43-4.19,1.42-8.41,2.76-12.62,4.14l-6.29,2.12-6.26,2.2-.17.06-.06-.18-2.88-7.9-.11-.3.31-.11c4.16-1.53,8.32-3.02,12.5-4.49,4.18-1.47,8.34-2.96,12.54-4.38,4.19-1.44,8.37-2.87,12.58-4.24l12.65-4.05.05-.02.04.02c.86.56,1.39,1.43,1.84,2.3.43.88.75,1.81.95,2.77ZM18.9,82.89c-.21-.95-.55-1.86-.99-2.72-.45-.84-1-1.69-1.8-2.18h.09s-12.45,4.64-12.45,4.64c-4.15,1.54-8.33,2.99-12.52,4.44-4.17,1.47-8.37,2.88-12.57,4.3-4.19,1.42-8.39,2.83-12.6,4.2l.2-.41,2.63,7.99-.24-.12,6.29-2.13,6.26-2.22c4.16-1.52,8.3-3.07,12.47-4.56,4.17-1.49,8.36-2.9,12.58-4.26,4.21-1.36,8.45-2.66,12.63-4.09l-.04.04c.37-.91.25-1.96.06-2.92Z"/>
            </g>
            <g>
              <g>
                <path class="cls-13" d="M18.94,82.88c.25,1.16.27,2.25-.04,2.96l-2.14.74c-1.97-2.31-4.05-4.55-6.23-6.74l4.43-1.53c1.38,1.5,2.71,3.02,3.99,4.57Z"/>
                <path class="cls-17" d="M18.96,82.88c.13.49.23.98.26,1.49.02.51,0,1.03-.2,1.53l-.02.05-.06.02-2.13.76-.09.03-.07-.08c-1.05-1.11-2-2.31-3.04-3.43-1.05-1.11-2.11-2.21-3.17-3.31l-.15-.15.2-.07c1.47-.54,2.93-1.07,4.41-1.56l.11-.04.07.08c.67.76,1.32,1.56,1.97,2.33.65.78,1.3,1.56,1.91,2.34ZM18.93,82.89c-.71-.74-1.4-1.48-2.08-2.22-.68-.74-1.37-1.48-2.02-2.23l.18.05c-1.47.52-2.95,1.01-4.44,1.49l.05-.22c1.01,1.15,2.03,2.3,3.06,3.43,1.04,1.13,2.16,2.18,3.19,3.31l-.16-.04,2.14-.72-.08.07c.38-.88.29-1.93.15-2.9Z"/>
              </g>
              <g>
                <path class="cls-13" d="M11.28,88.48l-4.17,1.44c-2.29-2.21-4.7-4.34-7.23-6.39l4.62-1.61c2.37,2.11,4.64,4.3,6.78,6.55Z"/>
                <path class="cls-17" d="M11.29,88.48c-1.32.5-2.71,1.07-4.14,1.57l-.08.03-.06-.06-3.51-3.31c-1.17-1.1-2.42-2.12-3.69-3.11l-.13-.1.15-.06c1.53-.57,3.06-1.14,4.6-1.68l.09-.03.08.07c1.18,1.04,2.34,2.11,3.45,3.23l1.64,1.69c.55.57,1.06,1.14,1.59,1.76ZM11.26,88.48l-1.69-1.62-1.71-1.62-3.47-3.18.17.03c-1.54.53-3.1,1.03-4.65,1.53l.03-.16,3.69,3.12c1.24,1.03,2.45,2.09,3.59,3.24l-.14-.03c1.35-.46,2.73-.85,4.2-1.32Z"/>
              </g>
              <g>
                <path class="cls-13" d="M.38,92.25l-4.45,1.54c-2.76-2.08-5.65-4.04-8.66-5.9l5.06-1.75c2.8,1.93,5.48,3.98,8.06,6.11Z"/>
                <path class="cls-17" d="M.4,92.25c-1.41.53-2.9,1.14-4.43,1.67l-.07.02-.06-.04-4.23-3.09c-1.41-1.03-2.9-1.95-4.4-2.84l-.16-.1.18-.07c1.67-.61,3.35-1.23,5.03-1.82l.08-.03.07.05c1.39.95,2.76,1.94,4.09,2.99l1.97,1.59c.66.54,1.28,1.07,1.92,1.67ZM.37,92.25l-2.01-1.51-2.03-1.51c-1.36-.99-2.72-1.98-4.1-2.94l.15.02c-1.69.57-3.39,1.12-5.08,1.67l.02-.16,4.4,2.86c1.47.94,2.92,1.93,4.3,3.01l-.13-.02c1.44-.5,2.92-.91,4.48-1.42Z"/>
              </g>
            </g>
          </g>
        </g>
        <g>
          <g>
            <g>
              <g>
                <path class="cls-20" d="M176.75-30.64c.37,4.52-.11,6.21-2.02,10.31-1.41,3.01-7.16,8.81-6.04,17.3,1.12,8.46,11.74,11.31,18.91,9.97,6.13-1.14,11.22-5.81,12.67-11.76.63-2.58,1.56-9.19-4.16-13.59-4.94-3.8-12.83-2.83-19.37-12.24Z"/>
                <path class="cls-17" d="M181.33-25.54c1.79,1.45,3.84,2.57,5.97,3.43,2.12.89,4.33,1.54,6.36,2.53,2.03.97,3.83,2.44,5.02,4.34,1.24,1.88,1.78,4.15,1.81,6.39.01,2.25-.41,4.53-1.36,6.57-1.86,4.11-5.56,7.35-9.91,8.68-2.17.69-4.48.83-6.75.69-2.27-.15-4.54-.63-6.62-1.57-2.07-.93-3.97-2.31-5.28-4.15-.36-.43-.57-.97-.86-1.45-.22-.52-.41-1.05-.58-1.58-.1-.56-.26-1.1-.3-1.66-.03-.57-.13-1.13-.09-1.69-.01-2.26.47-4.51,1.3-6.62.82-2.12,1.99-4.08,3.24-5.99,1.32-1.88,2.28-4.01,3.02-6.18.76-2.19.71-4.6.45-6.81,1.25,1.88,2.78,3.63,4.58,5.08ZM176.75-27.22c-.08,1.14-.32,2.25-.68,3.33-.77,2.15-1.73,4.22-3.07,6.07-1.27,1.9-2.49,3.87-3.35,6.02-.89,2.14-1.3,4.47-1.28,6.78-.03.58.08,1.15.12,1.73.05.58.23,1.14.33,1.71.18.55.39,1.1.62,1.63.31.49.53,1.04.91,1.48,1.38,1.88,3.34,3.24,5.44,4.16,2.12.89,4.39,1.4,6.68,1.59,2.29.16,4.63.05,6.84-.63,4.43-1.29,8.32-4.51,10.24-8.75.99-2.11,1.43-4.45,1.42-6.76-.03-2.31-.58-4.68-1.87-6.65-.63-.98-1.4-1.88-2.3-2.63-.86-.79-1.89-1.39-2.93-1.88-2.11-.98-4.32-1.59-6.43-2.44-2.13-.81-4.15-1.89-5.95-3.29-1.8-1.39-3.36-3.08-4.75-4.93.04,1.19.1,2.3.01,3.45Z"/>
              </g>
              <g>
                <path class="cls-14" d="M183.39-9.43c-6.79,4.83-8.49,11.63-9.2,14.2,3.95,2.31,9.25,2.94,13.4,2.17,6.13-1.14,11.22-5.81,12.67-11.76.35-1.43.79-4.09.14-6.93-5.65-1.9-12.18-1.14-17.02,2.31Z"/>
                <path class="cls-17" d="M191.64-12.44c2.93-.33,5.91.03,8.69.95l-.17-.19c.66,3.12.26,6.47-1.03,9.39-1.32,2.92-3.54,5.44-6.3,7.12-2.76,1.67-6.04,2.49-9.29,2.32-3.23-.12-6.47-.93-9.24-2.55l.1.24c.74-2.78,1.73-5.48,3.22-7.93.74-1.23,1.6-2.38,2.56-3.45.98-1.06,2.08-1.99,3.23-2.85,2.42-1.72,5.31-2.72,8.24-3.04ZM177.37-3.25c-1.62,2.41-2.68,5.18-3.38,7.97l-.04.16.14.08c2.89,1.63,6.2,2.32,9.45,2.39,3.26.04,6.59-.61,9.43-2.29,2.84-1.64,5.21-4.14,6.6-7.15,1.37-3.01,1.82-6.45,1.1-9.7l-.03-.14-.14-.05c-5.72-1.93-12.28-.93-17.12,2.54-2.35,1.68-4.41,3.77-6,6.19Z"/>
              </g>
              <path class="cls-11" d="M196.03-6.17c-2.69.02-5.35.95-7.65,2.29-3.94,2.3-7.3,6.25-7.16,10.95,2.21.29,4.42.24,6.38-.12,6.13-1.14,11.22-5.81,12.67-11.76.01-.05.02-.1.04-.15-1.24-.75-2.59-1.22-4.28-1.21Z"/>
              <g class="cls-12">
                <path class="cls-16" d="M172.9-8.65c-.41,2.46-.62,4.76-.64,6.37-.03,1.62.13,2.65-.14,2.75-.24.1-.91-.85-1.27-2.62-.35-1.77-.36-4.2.08-6.85.45-2.66,1.49-4.99,2.6-6.41,1.1-1.44,2.12-1.97,2.29-1.79.21.21-.41,1.07-1.09,2.53-.7,1.45-1.42,3.56-1.84,6.01Z"/>
              </g>
            </g>
            <g>
              <g>
                <path class="cls-20" d="M221.98-17.79c-3.62,6.49-13.01,2.51-20.04,15.82-3.99,7.55,2.91,16.11,9.47,19.29,5.61,2.72,12.48,1.97,17.18-1.95,2.04-1.71,6.03-6.32,4.71-13.4-2.34-12.56-11.41-10.75-11.31-19.75Z"/>
                <path class="cls-17" d="M224.08-11.59c1.49,1.69,3.33,2.98,4.79,4.63,1.49,1.62,2.61,3.56,3.32,5.64.68,2.08,1.18,4.26,1.11,6.45-.09,4.37-2.48,8.62-6.15,11.01-3.65,2.42-8.34,3.2-12.62,2.14-2.15-.52-4.16-1.51-5.95-2.81-1.8-1.29-3.42-2.84-4.73-4.63-1.3-1.79-2.31-3.81-2.72-5.98-.44-2.16-.17-4.44.81-6.4,2.01-3.91,4.92-7.46,8.83-9.56,1.93-1.07,4.05-1.76,6.12-2.59,1.03-.41,2.06-.9,2.96-1.58.89-.66,1.67-1.56,2.15-2.51-.14,2.17.57,4.52,2.1,6.18ZM219.72-15.4c-.91.62-1.92,1.08-2.95,1.48-2.06.79-4.21,1.45-6.19,2.51-1.99,1.04-3.79,2.44-5.29,4.12-1.47,1.7-2.7,3.59-3.68,5.6-.99,2.04-1.22,4.41-.74,6.6.45,2.21,1.52,4.24,2.85,6.02,1.33,1.79,2.92,3.39,4.73,4.7,1.8,1.33,3.83,2.36,6,2.92,4.33,1.13,9.18.47,12.95-2.05,3.8-2.46,6.29-6.84,6.39-11.38.08-2.27-.41-4.51-1.16-6.62-.75-2.12-1.95-4.09-3.49-5.72-1.52-1.66-3.38-2.93-4.87-4.55-.73-.82-1.36-1.74-1.72-2.78-.38-1.05-.51-2.12-.55-3.28-.62.98-1.34,1.79-2.26,2.42Z"/>
              </g>
              <g>
                <path class="cls-14" d="M217.73,1.64c-8.33-.13-13.73,4.33-15.83,5.98,1.81,4.2,5.71,7.85,9.51,9.69,5.61,2.72,12.48,1.97,17.18-1.95,1.13-.94,3.06-2.83,4.22-5.49-3.42-4.87-9.13-8.14-15.08-8.23Z"/>
                <path class="cls-17" d="M226.16,4.1c2.56,1.47,4.74,3.53,6.44,5.91l-.03-.25c-1.32,2.91-3.63,5.37-6.4,6.95-2.79,1.57-6.08,2.29-9.3,1.99-3.22-.3-6.34-1.58-8.85-3.64-2.53-2.01-4.66-4.58-5.93-7.54l-.06.25c2.25-1.79,4.64-3.39,7.29-4.48,1.32-.55,2.7-.97,4.11-1.26,1.41-.27,2.85-.37,4.29-.38,2.97.05,5.89.96,8.43,2.44ZM209.22,3.04c-2.73.98-5.23,2.58-7.45,4.41l-.13.11.07.15c1.36,3.02,3.61,5.54,6.19,7.53,2.6,1.97,5.66,3.42,8.95,3.74,3.26.36,6.66-.25,9.55-1.85,2.89-1.61,5.29-4.12,6.63-7.16l.06-.13-.08-.12c-3.46-4.94-9.34-8.03-15.29-8.11-2.88-.04-5.78.42-8.51,1.43Z"/>
              </g>
              <path class="cls-11" d="M225.98,11.75c-2.17-1.58-4.87-2.41-7.52-2.69-4.53-.48-9.59.7-12.26,4.57,1.61,1.54,3.42,2.82,5.21,3.69,5.61,2.72,12.48,1.97,17.18-1.95.04-.03.08-.07.12-.1-.55-1.34-1.36-2.52-2.73-3.51Z"/>
              <g class="cls-12">
                <path class="cls-16" d="M208.82-3.96c-1.79,1.73-3.32,3.46-4.29,4.75-.99,1.29-1.47,2.22-1.75,2.13-.25-.06-.23-1.22.53-2.86.77-1.64,2.2-3.6,4.13-5.47,1.94-1.87,4.16-3.14,5.9-3.62,1.74-.51,2.88-.33,2.91-.08.04.3-.96.62-2.38,1.39-1.43.75-3.25,2.02-5.05,3.75Z"/>
              </g>
            </g>
          </g>
          <g>
            <path class="cls-4" d="M256.9,32.43c-9.36,21.55-9.84,33.31-9.39,36.84"/>
            <path class="cls-4" d="M248.19,20.27c-6.9,14.31,1.6,24.66,3.27,26.34"/>
            <path class="cls-4" d="M268.87,20.87c.15,23.36-14.39,28.99-18.48,29.12"/>
            <g>
              <g>
                <g>
                  <path class="cls-7" d="M256.57,16.63c-.76,3.44-4.16,5.61-7.6,4.85-3.44-.76-5.61-4.16-4.85-7.6.76-3.44,4.16-5.61,7.6-4.85,3.44.76,5.61,4.16,4.85,7.6Z"/>
                  <path class="cls-17" d="M255.88,11.72c-.85-1.5-2.39-2.62-4.1-2.99-1.71-.4-3.57-.05-5.02.92-1.47.95-2.5,2.51-2.8,4.2-.33,1.69.03,3.45.92,4.9.9,1.43,2.34,2.57,4.04,2.98,1.69.41,3.56.07,4.96-.94,1.41-.99,2.38-2.51,2.73-4.15.38-1.63.14-3.42-.72-4.92ZM253.67,20.48c-1.41.81-3.08,1.09-4.65.77-1.57-.3-3.08-1.22-3.97-2.61-.92-1.37-1.19-3.14-.78-4.72.4-1.58,1.43-2.96,2.79-3.8,1.36-.85,3.04-1.12,4.59-.79,1.56.34,2.96,1.28,3.9,2.6.95,1.32,1.34,3.06.99,4.7-.36,1.63-1.45,3.05-2.87,3.85Z"/>
                </g>
                <g class="cls-8">
                  <path class="cls-15" d="M256.04,12.38c.45,8-7.33,8.77-11,6.4.88,1.33,2.26,2.33,3.93,2.7,3.44.76,6.84-1.41,7.6-4.85.33-1.49.11-2.98-.53-4.25Z"/>
                </g>
                <path class="cls-5" d="M254.79,12.64c-.27.55-1.54.47-2.84-.16-1.3-.63-2.14-1.59-1.87-2.13.27-.55,1.54-.47,2.84.16,1.3.63,2.14,1.59,1.87,2.13Z"/>
                <g class="cls-19">
                  <path class="cls-16" d="M245.37,14.57c.1-1.56.98-2.75,1.75-3.32.78-.59,1.41-.64,1.47-.49.08.17-.35.51-.83,1.15-.49.63-1.03,1.6-1.1,2.75-.11,1.21.21,2.24.54,3,.32.76.61,1.19.5,1.33-.1.15-.69-.11-1.28-.86-.29-.37-.59-.87-.8-1.48-.21-.61-.31-1.35-.25-2.08Z"/>
                </g>
              </g>
              <g>
                <g>
                  <path class="cls-7" d="M263.87,30.53c-1.41,3.23-5.17,4.7-8.4,3.29-3.23-1.41-4.7-5.17-3.29-8.4s5.17-4.7,8.4-3.29c3.23,1.41,4.7,5.17,3.29,8.4Z"/>
                  <path class="cls-17" d="M264.14,25.58c-.54-1.64-1.83-3.03-3.44-3.73-1.6-.73-3.49-.74-5.11-.07-1.62.65-2.94,1.98-3.57,3.58-.65,1.59-.64,3.4-.04,4.98.6,1.58,1.8,2.97,3.38,3.71,1.58.73,3.47.75,5.05.04,1.58-.7,2.82-2.01,3.48-3.55.69-1.53.8-3.33.25-4.96ZM260.28,33.74c-1.54.52-3.23.47-4.71-.15-1.48-.6-2.78-1.79-3.39-3.33-.64-1.52-.56-3.31.15-4.78.7-1.47,1.97-2.63,3.47-3.19,1.5-.57,3.19-.51,4.66.12,1.46.64,2.66,1.83,3.33,3.31.68,1.48.72,3.27.06,4.8-.67,1.53-2.01,2.71-3.56,3.22Z"/>
                </g>
                <g class="cls-8">
                  <path class="cls-15" d="M264.17,26.26c-1.1,7.94-8.89,7.19-12.03,4.15.61,1.47,1.76,2.72,3.34,3.41,3.23,1.41,6.99-.06,8.4-3.29.61-1.4.68-2.9.3-4.27Z"/>
                </g>
                <g class="cls-19">
                  <path class="cls-16" d="M253.28,26.34c.4-1.51,1.5-2.51,2.36-2.92.88-.43,1.51-.36,1.54-.2.05.18-.44.44-1.04.97-.6.52-1.32,1.38-1.61,2.49-.34,1.16-.22,2.23-.05,3.05.17.81.36,1.29.24,1.41-.13.13-.66-.24-1.09-1.09-.22-.42-.41-.97-.5-1.61-.09-.64-.04-1.38.16-2.08Z"/>
                </g>
              </g>
            </g>
          </g>
          <g class="cls-9">
            <path class="cls-14" d="M230.57,39.89l1.18.4c.15.05.31.02.44-.07l1-.75c.32-.24.77,0,.77.39l-.02,1.25c0,.16.07.31.2.4l1.02.72c.32.23.25.73-.13.85l-1.19.37c-.15.05-.27.16-.32.32l-.37,1.19c-.12.38-.62.46-.85.13l-.72-1.02c-.09-.13-.24-.2-.4-.2l-1.25.02c-.4,0-.63-.45-.39-.77l.75-1c.09-.13.12-.29.07-.44l-.4-1.18c-.13-.38.23-.74.61-.61Z"/>
          </g>
        </g>
        <g>
          <g>
            <g>
              <path class="cls-18" d="M201.83,107.94c.9.3,2.32.63,3.78.86,1.46.25,2.96.4,3.95.62,2.18.46,3.01,1.55,3.03,2.7.03,1.13-.76,2.32-1.43,2.62-1.83.87-3.94,1.04-5.81.94-1.32-.08-2.61-.27-3.87-.28-.33.13,1.09,1.84,1.36,2.32.56,1.09.15,1.88-.22,2.42-.45.66-1.7.62-2.47.39-3.64-1.01-5.9-3.93-8.76-5.52-1.48-.85-1.65,1.33-1.6,2.36.06,1.17.61,2.37.06,3.46-.64,1.28-2.4.59-3.35-.09-1.86-1.33-2.77-3.91-3.63-5.85-.55-1.24-1.04-2.54-1.62-3.76-.31-.66-.79-1.91-1.14-1.73-1.99.96-.51,4.4-.65,6.06-.16,1.76-2.01,2.04-3.37,1.18-2.5-1.59-3.96-5.07-4.73-7.75-.43-1.47-1.83-5.72-3-9.74-1.19-4.02-2.17-7.81-2.35-8.35,1.31.3,4.53.04,7.63-.56,3.12-.59,6.14-1.52,7.36-2.08,2.26-1.04,4.41-1.03,5.7-.22,1.28.8,1.72,2.43.36,4.6-.59.94-2.21,1.81-3.46,2.5-1.25.69-2.13,1.24-1.17,1.61,1.09.44,3.48-.75,4.52-1.01,1.72-.4,3.69-.91,5.33-.7.89.11,1.71.42,2.25,1.02.53.61.8,1.55.48,2.92-.22.98-1.44,1.85-2.33,2.49-.88.65-1.38,1.12-.02,1.41,1.07.21,2.34-.09,3.67-.51,1.33-.44,2.7-.98,4.05-1.29.4-.08.89-.19,1.38-.22.49-.04.98-.05,1.41.05.71.13,1.23.43,1.6.81.37.37.58.84.67,1.34.18.99-.17,2.08-.7,2.59-.51.52-1.55.93-2.31,1.29-.76.35-1.24.7-.59,1.13Z"/>
              <path class="cls-17" d="M201.84,107.92c2,.62,4.07.89,6.12,1.16,1.02.15,2.07.27,3.06.74.48.24.95.57,1.28,1.06.33.49.44,1.12.36,1.7-.08.58-.32,1.11-.65,1.56-.16.22-.35.43-.58.59-.24.16-.47.24-.72.35-.97.39-1.99.61-3.02.71-2.07.24-4.16-.17-6.2-.21h.06c.08-.04.05-.11.06-.07,0,.03.02.06.04.11.04.08.09.17.14.26.11.18.23.35.35.52l.75,1.05c.26.4.42.86.41,1.35,0,.49-.19.94-.42,1.31-.1.17-.28.4-.48.5-.2.12-.41.18-.61.23-.42.08-.84.07-1.25,0-.82-.17-1.59-.45-2.34-.82-1.5-.74-2.82-1.82-4.12-2.85-.65-.52-1.3-1.03-1.98-1.48-.17-.11-.34-.22-.52-.33-.18-.11-.35-.21-.51-.28-.33-.13-.62-.03-.79.3-.33.67-.36,1.59-.27,2.4.1.83.4,1.74.16,2.66-.12.43-.36.89-.77,1.1-.4.21-.85.21-1.26.12-.82-.18-1.58-.61-2.21-1.19-1.29-1.19-2.02-2.85-2.7-4.43l-2.04-4.79c-.18-.4-.35-.8-.54-1.18-.1-.19-.2-.37-.33-.51-.07-.07-.13-.1-.16-.08l-.24.14c-.31.22-.54.55-.65.94-.11.39-.12.83-.11,1.25.04.86.22,1.72.33,2.59.05.43.1.88,0,1.33-.08.44-.33.84-.67,1.09-.7.5-1.61.43-2.36.1-.76-.37-1.4-.94-1.98-1.57-1.15-1.29-1.96-2.87-2.59-4.5-.32-.81-.57-1.66-.83-2.49l-.78-2.5-1.56-4.99c-.54-1.66-1-3.34-1.48-5.01l-1.44-5.02-.1-.35.33.06c.73.14,1.52.12,2.28.09.77-.04,1.54-.11,2.31-.21,1.53-.19,3.06-.47,4.56-.81,1.51-.35,3-.75,4.46-1.25.36-.13.73-.26,1.07-.41.35-.16.73-.32,1.1-.45.75-.26,1.54-.42,2.34-.45.8-.02,1.63.09,2.4.48.76.37,1.46,1.21,1.53,2.19.09.96-.24,1.83-.64,2.57-.19.37-.47.75-.78,1.02-.31.28-.64.52-.97.75-.67.44-1.36.82-2.04,1.2-.34.19-.68.38-.99.59-.15.1-.3.23-.39.34-.04.06-.02.07-.03.03-.02-.03.03.03.09.06.58.3,1.39.07,2.1-.14.73-.22,1.44-.52,2.21-.76,1.53-.38,3.04-.76,4.64-.8.8,0,1.62.09,2.4.45.38.18.76.44,1.05.81.29.36.47.82.55,1.28.08.46.05.92-.02,1.35-.04.22-.08.43-.16.66-.08.22-.2.41-.32.58-.52.69-1.18,1.15-1.82,1.62-.32.23-.65.45-.89.72-.06.06-.1.14-.1.18,0,.03,0,.05.06.1.12.09.32.15.49.2.73.19,1.51.1,2.26-.05,1.51-.31,2.95-.93,4.44-1.37.37-.11.75-.22,1.13-.3l1.16-.17c.77-.12,1.59-.08,2.35.23.76.3,1.42,1.01,1.59,1.89.18.86,0,1.78-.45,2.48-.5.69-1.27.97-1.97,1.31-.35.16-.72.31-1.05.5-.16.1-.34.21-.42.38-.08.19.12.36.27.47ZM201.82,107.97c-.16-.11-.39-.29-.3-.54.09-.21.28-.31.44-.42.34-.2.7-.35,1.05-.52.69-.34,1.46-.64,1.91-1.3.43-.67.59-1.56.41-2.38-.17-.83-.79-1.48-1.52-1.76-.73-.29-1.51-.32-2.27-.19l-1.14.19c-.37.09-.75.2-1.12.31-1.48.45-2.91,1.09-4.45,1.44-.76.16-1.57.27-2.38.08-.2-.06-.4-.1-.61-.25-.1-.07-.23-.25-.2-.44.03-.17.11-.27.18-.36.29-.33.62-.55.94-.79.63-.47,1.26-.95,1.72-1.57.23-.31.34-.65.4-1.07.06-.4.07-.81,0-1.2-.12-.79-.66-1.42-1.35-1.71-.69-.31-1.46-.39-2.21-.38-1.51.06-3.04.46-4.52.81-.72.23-1.45.53-2.21.76-.38.11-.76.22-1.17.27-.4.05-.86.05-1.29-.18-.11-.08-.24-.13-.34-.36-.09-.25.03-.45.1-.56.16-.21.33-.33.5-.45.34-.23.69-.42,1.03-.62.69-.38,1.37-.75,2.01-1.18.64-.44,1.26-.89,1.6-1.6.38-.69.66-1.47.58-2.24-.06-.77-.58-1.42-1.24-1.75-.67-.35-1.43-.45-2.18-.44-.75.02-1.5.18-2.22.42-.36.12-.7.27-1.07.43-.37.16-.74.29-1.11.42-1.48.51-2.99.91-4.51,1.26-1.52.34-3.06.62-4.61.81-.78.09-1.56.16-2.34.19-.79.02-1.57.04-2.39-.12l.23-.29,1.39,5.05c.47,1.68.91,3.37,1.44,5.03l1.52,5,.76,2.5c.25.83.49,1.67.8,2.47.61,1.61,1.4,3.17,2.51,4.44.55.62,1.19,1.19,1.9,1.53.71.32,1.57.38,2.2-.07.31-.22.54-.57.61-.98.08-.4.05-.84,0-1.27-.11-.86-.3-1.72-.35-2.6-.02-.44-.01-.89.11-1.32.12-.43.37-.82.72-1.06.09-.06.17-.11.27-.17.16-.06.3.05.37.12.16.18.27.37.37.56.2.39.37.79.55,1.18l2.08,4.78c.69,1.57,1.43,3.18,2.66,4.29.6.54,1.33.94,2.07,1.1.37.08.75.07,1.06-.1.31-.16.5-.5.6-.88.2-.77-.07-1.62-.19-2.5-.06-.45-.07-.9-.04-1.35.04-.45.11-.9.33-1.32.11-.21.29-.4.53-.5.24-.11.49-.04.71.02.21.09.4.2.57.3.18.1.36.21.53.33.7.46,1.37.97,2.02,1.48,1.31,1.03,2.62,2.06,4.05,2.78.71.36,1.48.65,2.21.81.37.06.76.08,1.12.01.37-.07.67-.2.85-.55.21-.33.37-.69.37-1.08.01-.38-.12-.79-.33-1.11l-.74-1.05c-.12-.18-.24-.36-.36-.55-.06-.1-.11-.19-.16-.31-.03-.05-.05-.12-.07-.2-.02-.07-.02-.26.14-.34h.02s.03,0,.03,0c2.09.07,4.13.5,6.17.29,1.02-.09,2.02-.29,2.97-.66.99-.26,1.65-1.24,1.84-2.3.08-.53-.01-1.11-.31-1.55-.29-.45-.73-.78-1.2-1.01-.94-.46-1.99-.6-3.01-.76-2.05-.3-4.12-.59-6.13-1.24Z"/>
            </g>
            <path class="cls-3" d="M212.6,111.89s-.18.03-.54.08c-.35.04-.87.13-1.54.19-1.33.11-3.25.2-5.53,0-2.28-.19-4.9-.68-7.64-1.51-2.74-.82-5.6-2.01-8.47-3.43-5.71-2.87-11.68-6.63-16.99-10.93-1.33-1.07-2.62-2.18-3.85-3.31-1.24-1.13-2.42-2.28-3.45-3.43-2.07-2.3-3.52-4.64-4.14-6.8"/>
            <path class="cls-3" d="M202.26,119.91c-4.94-3.55-8.72-7.77-12.01-12.08,3.53-1.67,7.39-2.78,10.23-3.8,1.43-.49,2.61-.92,3.44-1.24.41-.16.74-.28.97-.36.22-.09.34-.14.34-.14"/>
            <path class="cls-3" d="M194.9,96.88c-3.93,2.49-8.63,4.45-13.38,6.23,1.04,3.04,2.16,6.08,3.36,9.1,1.2,3.02,2.49,6.05,3.97,9.04"/>
            <path class="cls-3" d="M187.42,89.34c-4.82,2.69-9.91,5.07-15.26,7.14,0,0,.65,3.9,1.71,8.42,1.05,4.51,2.55,9.62,3.74,12"/>
          </g>
          <g>
            <g>
              <g>
                <path class="cls-20" d="M48.5,52.86c.37,4.52-.11,6.21-2.02,10.31-1.41,3.01-7.16,8.81-6.04,17.3,1.12,8.46,11.74,11.31,18.91,9.97,6.13-1.14,11.22-5.81,12.67-11.76.63-2.58,1.56-9.19-4.16-13.59-4.94-3.8-12.83-2.83-19.37-12.24Z"/>
                <path class="cls-17" d="M53.08,57.96c1.79,1.45,3.84,2.57,5.97,3.43,2.12.89,4.33,1.54,6.36,2.53,2.03.97,3.83,2.44,5.02,4.34,1.24,1.88,1.78,4.15,1.81,6.39.01,2.25-.41,4.53-1.36,6.57-1.86,4.11-5.56,7.35-9.91,8.68-2.17.69-4.48.83-6.75.69-2.27-.15-4.54-.63-6.62-1.57-2.07-.93-3.97-2.31-5.28-4.15-.36-.43-.57-.97-.86-1.45-.22-.52-.41-1.05-.58-1.58-.1-.56-.26-1.1-.3-1.66-.03-.57-.13-1.13-.09-1.69-.01-2.26.47-4.51,1.3-6.62.82-2.12,1.99-4.08,3.24-5.99,1.32-1.88,2.28-4.01,3.02-6.18.76-2.19.71-4.6.45-6.81,1.25,1.88,2.78,3.63,4.58,5.08ZM48.5,56.28c-.08,1.14-.32,2.25-.68,3.33-.77,2.15-1.73,4.22-3.07,6.07-1.27,1.9-2.49,3.87-3.35,6.02-.89,2.14-1.3,4.47-1.28,6.78-.03.58.08,1.15.12,1.73.05.58.23,1.14.33,1.71.18.55.39,1.1.62,1.63.31.49.53,1.04.91,1.48,1.38,1.88,3.34,3.24,5.44,4.16,2.12.89,4.39,1.4,6.68,1.59,2.29.16,4.63.05,6.84-.63,4.43-1.29,8.32-4.51,10.24-8.75.99-2.11,1.43-4.45,1.42-6.76-.03-2.31-.58-4.68-1.87-6.65-.63-.98-1.4-1.88-2.3-2.63-.86-.79-1.89-1.39-2.93-1.88-2.11-.98-4.32-1.59-6.43-2.44-2.13-.81-4.15-1.89-5.95-3.29-1.8-1.39-3.36-3.08-4.75-4.93.04,1.19.1,2.3.01,3.45Z"/>
              </g>
              <g>
                <path class="cls-14" d="M55.14,74.07c-6.79,4.83-8.49,11.63-9.2,14.2,3.95,2.31,9.25,2.94,13.4,2.17,6.13-1.14,11.22-5.81,12.67-11.76.35-1.43.79-4.09.14-6.93-5.65-1.9-12.18-1.14-17.02,2.31Z"/>
                <path class="cls-17" d="M63.39,71.06c2.93-.33,5.91.03,8.69.95l-.17-.19c.66,3.12.26,6.47-1.03,9.39-1.32,2.92-3.54,5.44-6.3,7.12-2.77,1.67-6.04,2.49-9.29,2.32-3.23-.12-6.47-.93-9.24-2.55l.1.24c.74-2.78,1.73-5.48,3.22-7.93.74-1.23,1.6-2.38,2.56-3.45.98-1.06,2.08-1.99,3.23-2.85,2.42-1.72,5.31-2.72,8.24-3.04ZM49.12,80.25c-1.62,2.41-2.68,5.18-3.38,7.97l-.04.16.14.08c2.89,1.63,6.2,2.32,9.45,2.39,3.26.04,6.59-.61,9.43-2.29,2.84-1.64,5.21-4.14,6.6-7.15,1.37-3.01,1.82-6.45,1.1-9.7l-.03-.14-.14-.05c-5.72-1.93-12.28-.93-17.12,2.54-2.35,1.68-4.41,3.77-6,6.19Z"/>
              </g>
              <path class="cls-11" d="M67.78,77.33c-2.69.02-5.35.95-7.65,2.29-3.94,2.3-7.3,6.25-7.16,10.95,2.21.29,4.42.24,6.38-.12,6.13-1.14,11.22-5.81,12.67-11.76.01-.05.02-.1.04-.15-1.24-.75-2.59-1.22-4.28-1.21Z"/>
              <g class="cls-12">
                <path class="cls-16" d="M44.65,74.85c-.41,2.46-.62,4.76-.64,6.37-.03,1.62.13,2.65-.14,2.75-.24.1-.91-.85-1.27-2.62-.35-1.77-.36-4.2.08-6.85.45-2.66,1.49-4.99,2.6-6.41,1.1-1.44,2.12-1.97,2.29-1.79.21.21-.41,1.07-1.09,2.53-.7,1.45-1.42,3.56-1.84,6.01Z"/>
              </g>
            </g>
            <g>
              <g>
                <path class="cls-20" d="M93.73,65.71c-3.62,6.49-13.01,2.51-20.04,15.82-3.99,7.55,2.91,16.11,9.47,19.29,5.61,2.72,12.48,1.97,17.18-1.95,2.04-1.71,6.03-6.32,4.71-13.4-2.34-12.56-11.41-10.75-11.31-19.75Z"/>
                <path class="cls-17" d="M95.83,71.91c1.49,1.69,3.33,2.98,4.79,4.63,1.49,1.62,2.61,3.56,3.32,5.64.68,2.08,1.18,4.26,1.11,6.45-.09,4.37-2.48,8.62-6.15,11.01-3.65,2.42-8.34,3.2-12.62,2.14-2.15-.52-4.16-1.51-5.95-2.81-1.8-1.29-3.42-2.84-4.73-4.63-1.3-1.79-2.31-3.81-2.72-5.98-.44-2.16-.17-4.44.81-6.4,2.01-3.91,4.92-7.46,8.83-9.56,1.93-1.07,4.05-1.76,6.12-2.59,1.03-.41,2.06-.9,2.96-1.58.89-.66,1.67-1.56,2.15-2.51-.14,2.17.57,4.52,2.1,6.18ZM91.47,68.1c-.91.62-1.92,1.08-2.95,1.48-2.06.79-4.21,1.45-6.19,2.51-1.99,1.04-3.79,2.44-5.29,4.12-1.47,1.7-2.7,3.59-3.68,5.6-.99,2.04-1.22,4.41-.74,6.6.45,2.21,1.52,4.24,2.85,6.02,1.33,1.79,2.92,3.39,4.73,4.7,1.8,1.33,3.83,2.36,6,2.92,4.33,1.13,9.18.47,12.95-2.05,3.8-2.46,6.29-6.84,6.39-11.38.08-2.27-.41-4.51-1.16-6.62-.75-2.12-1.95-4.09-3.49-5.72-1.52-1.66-3.38-2.93-4.87-4.55-.73-.82-1.36-1.74-1.72-2.78-.38-1.05-.51-2.12-.55-3.28-.62.98-1.34,1.79-2.26,2.42Z"/>
              </g>
              <g>
                <path class="cls-14" d="M89.48,85.14c-8.33-.13-13.73,4.33-15.83,5.98,1.81,4.2,5.71,7.85,9.51,9.69,5.61,2.72,12.48,1.97,17.18-1.95,1.13-.94,3.06-2.83,4.22-5.49-3.42-4.87-9.13-8.14-15.08-8.23Z"/>
                <path class="cls-17" d="M97.91,87.6c2.56,1.47,4.74,3.53,6.44,5.91l-.03-.25c-1.32,2.91-3.63,5.37-6.4,6.95-2.79,1.57-6.08,2.29-9.3,1.99-3.22-.3-6.34-1.58-8.85-3.64-2.53-2.01-4.66-4.58-5.93-7.54l-.06.25c2.25-1.79,4.64-3.39,7.29-4.48,1.32-.55,2.7-.97,4.11-1.26,1.41-.27,2.85-.37,4.29-.38,2.97.05,5.89.96,8.43,2.44ZM80.97,86.54c-2.73.98-5.23,2.58-7.45,4.41l-.13.11.07.15c1.36,3.02,3.61,5.54,6.19,7.53,2.6,1.97,5.66,3.42,8.95,3.74,3.26.36,6.66-.25,9.55-1.85,2.89-1.61,5.29-4.12,6.63-7.16l.06-.13-.08-.12c-3.46-4.94-9.34-8.03-15.29-8.11-2.88-.04-5.78.42-8.51,1.43Z"/>
              </g>
              <path class="cls-11" d="M97.73,95.25c-2.17-1.58-4.87-2.41-7.52-2.69-4.53-.48-9.59.7-12.26,4.57,1.61,1.54,3.42,2.82,5.21,3.69,5.61,2.72,12.48,1.97,17.18-1.95.04-.03.08-.07.12-.1-.55-1.34-1.36-2.52-2.73-3.51Z"/>
              <g class="cls-12">
                <path class="cls-16" d="M80.57,79.54c-1.79,1.73-3.32,3.46-4.29,4.75-.99,1.29-1.47,2.22-1.75,2.13-.25-.06-.23-1.22.53-2.86.77-1.64,2.2-3.6,4.13-5.47,1.94-1.87,4.16-3.14,5.9-3.62,1.74-.51,2.88-.33,2.91-.08.04.3-.96.62-2.38,1.39-1.43.75-3.25,2.02-5.05,3.75Z"/>
              </g>
            </g>
          </g>
          <g>
            <path class="cls-4" d="M128.65,115.93c-9.36,21.55-9.84,33.31-9.39,36.84"/>
            <path class="cls-4" d="M119.94,103.77c-6.9,14.31,1.6,24.66,3.27,26.34"/>
            <path class="cls-4" d="M140.62,104.37c.15,23.36-14.39,28.99-18.48,29.12"/>
            <g>
              <g>
                <g>
                  <path class="cls-7" d="M128.32,100.13c-.76,3.44-4.16,5.61-7.6,4.85-3.44-.76-5.61-4.16-4.85-7.6.76-3.44,4.16-5.61,7.6-4.85,3.44.76,5.61,4.16,4.85,7.6Z"/>
                  <path class="cls-17" d="M127.63,95.22c-.85-1.5-2.39-2.62-4.1-2.99-1.71-.4-3.57-.05-5.02.92-1.47.95-2.5,2.51-2.8,4.2-.33,1.69.03,3.45.92,4.9.9,1.43,2.34,2.57,4.04,2.98,1.69.41,3.56.07,4.96-.94,1.41-.99,2.38-2.51,2.73-4.15.38-1.63.14-3.42-.72-4.92ZM125.42,103.98c-1.41.81-3.08,1.09-4.65.77-1.57-.3-3.08-1.22-3.97-2.61-.92-1.37-1.19-3.14-.78-4.72.4-1.58,1.43-2.96,2.79-3.8,1.36-.85,3.04-1.12,4.59-.79,1.56.34,2.96,1.28,3.9,2.6.95,1.32,1.34,3.06.99,4.7-.36,1.63-1.45,3.05-2.87,3.85Z"/>
                </g>
                <g class="cls-8">
                  <path class="cls-15" d="M127.79,95.88c.45,8-7.33,8.77-11,6.4.88,1.33,2.26,2.33,3.93,2.7,3.44.76,6.84-1.41,7.6-4.85.33-1.49.11-2.98-.53-4.25Z"/>
                </g>
                <path class="cls-5" d="M126.54,96.14c-.27.55-1.54.47-2.84-.16-1.3-.63-2.14-1.59-1.87-2.13.27-.55,1.54-.47,2.84.16,1.3.63,2.14,1.59,1.87,2.13Z"/>
                <g class="cls-19">
                  <path class="cls-16" d="M117.12,98.07c.1-1.56.98-2.75,1.75-3.32.78-.59,1.41-.64,1.47-.49.08.17-.35.51-.83,1.15-.49.63-1.03,1.6-1.1,2.75-.11,1.21.21,2.24.54,3,.32.76.61,1.19.5,1.33-.1.15-.69-.11-1.28-.86-.29-.37-.59-.87-.8-1.48-.21-.61-.31-1.35-.25-2.08Z"/>
                </g>
              </g>
              <g>
                <g>
                  <path class="cls-7" d="M144.1,94.71c1.95,2.93,1.15,6.89-1.78,8.84-2.93,1.95-6.89,1.15-8.84-1.78-1.95-2.93-1.15-6.89,1.78-8.84,2.93-1.95,6.89-1.15,8.84,1.78Z"/>
                  <path class="cls-17" d="M140.08,91.8c-1.67-.43-3.54-.1-5,.88-1.48.95-2.51,2.54-2.83,4.25-.34,1.71.08,3.54,1.08,4.94.99,1.41,2.51,2.37,4.17,2.73,1.65.35,3.47.1,4.95-.84,1.47-.93,2.51-2.51,2.77-4.22.26-1.7-.16-3.46-1.1-4.84-.91-1.41-2.37-2.47-4.04-2.9ZM144.86,99.47c-.39,1.58-1.35,2.97-2.68,3.89-1.31.92-3.01,1.37-4.63,1.05-1.63-.29-3.09-1.32-3.94-2.71-.86-1.39-1.14-3.08-.8-4.65.33-1.57,1.3-2.96,2.62-3.85,1.33-.88,2.98-1.25,4.58-1,1.61.23,3.14,1.16,4.07,2.55.92,1.39,1.19,3.16.78,4.74Z"/>
                </g>
                <g class="cls-8">
                  <path class="cls-15" d="M140.67,92.15c6.08,5.23,1.23,11.36-3.03,12.36,1.57.29,3.24,0,4.67-.96,2.93-1.95,3.73-5.91,1.78-8.84-.85-1.27-2.07-2.14-3.43-2.56Z"/>
                </g>
                <path class="cls-5" d="M139.99,93.23c.21.57-.72,1.43-2.08,1.93-1.36.5-2.63.44-2.84-.13-.21-.57.72-1.43,2.08-1.93,1.36-.5,2.63-.44,2.84.13Z"/>
                <g class="cls-19">
                  <path class="cls-16" d="M134.84,101.34c-1.05-1.15-1.3-2.62-1.18-3.56.12-.97.51-1.46.66-1.4.18.06.13.6.25,1.4.11.79.44,1.85,1.22,2.7.8.91,1.76,1.4,2.53,1.69.77.29,1.28.39,1.31.56.04.18-.56.42-1.51.33-.47-.05-1.04-.18-1.62-.45-.59-.27-1.18-.71-1.67-1.26Z"/>
                </g>
              </g>
              <g>
                <g>
                  <path class="cls-7" d="M135.62,114.03c-1.41,3.23-5.17,4.7-8.4,3.29-3.23-1.41-4.7-5.17-3.29-8.4s5.17-4.7,8.4-3.29c3.23,1.41,4.7,5.17,3.29,8.4Z"/>
                  <path class="cls-17" d="M135.89,109.08c-.54-1.64-1.83-3.03-3.44-3.73-1.6-.73-3.49-.74-5.11-.07-1.62.65-2.94,1.98-3.57,3.58-.65,1.59-.64,3.4-.04,4.98.6,1.58,1.8,2.98,3.38,3.71,1.58.73,3.47.75,5.05.04,1.58-.7,2.82-2.01,3.48-3.55.69-1.53.8-3.33.25-4.96ZM132.03,117.24c-1.54.52-3.23.47-4.71-.15-1.48-.6-2.78-1.79-3.39-3.33-.64-1.52-.56-3.31.15-4.78.7-1.47,1.97-2.63,3.47-3.19,1.5-.57,3.19-.51,4.66.12,1.46.64,2.66,1.83,3.33,3.31.68,1.48.72,3.27.06,4.8-.67,1.53-2.01,2.72-3.56,3.22Z"/>
                </g>
                <g class="cls-8">
                  <path class="cls-15" d="M135.92,109.76c-1.1,7.94-8.89,7.19-12.03,4.15.61,1.47,1.76,2.72,3.34,3.41,3.23,1.41,6.99-.06,8.4-3.29.61-1.4.68-2.9.3-4.27Z"/>
                </g>
                <path class="cls-5" d="M134.64,109.77c-.37.48-1.6.17-2.75-.71-1.15-.87-1.79-1.97-1.42-2.46.37-.48,1.6-.17,2.75.71s1.79,1.97,1.42,2.46Z"/>
                <g class="cls-19">
                  <path class="cls-16" d="M125.03,109.84c.4-1.51,1.5-2.51,2.36-2.92.88-.43,1.51-.36,1.54-.2.05.18-.44.44-1.04.97-.6.52-1.32,1.38-1.61,2.49-.34,1.16-.22,2.23-.05,3.05.17.81.36,1.29.24,1.41-.13.13-.66-.24-1.09-1.09-.22-.42-.41-.97-.5-1.61-.09-.64-.04-1.38.16-2.08Z"/>
                </g>
              </g>
            </g>
          </g>
          <g>
            <g>
              <g>
                <path class="cls-14" d="M190.22,78.22c-4.03-1.54-7.02-4.06-9.56-7.16-2.83-3.44-4.94-7.6-4.59-12.08.2-2.59,1.51-4.63,3.05-6.68,2.39-3.16,4.78-5.91,8.27-7.88,3.55-2,7.65-3.8,11.8-3.22,3.69.52,7.15,3.12,9.96,5.41,3.79,3.09,11.4,12.37,4.41,23.02-2,3.05-5.88,5.93-9.25,7.35-1.98.83-4.08,1.33-6.2,1.62-2.3.31-5.08.69-7.9-.39Z"/>
                <path class="cls-17" d="M197.66,78.74c2.49-.29,4.98-.85,7.29-1.89,2.3-1.05,4.42-2.47,6.28-4.19.94-.85,1.77-1.82,2.49-2.88.69-1.06,1.29-2.18,1.77-3.36.96-2.35,1.33-4.95,1.01-7.48-.3-2.53-1.25-4.95-2.58-7.1-1.33-2.15-3.02-4.09-5.02-5.64-1.97-1.56-4.02-3.06-6.33-4.1-1.16-.5-2.38-.9-3.64-1.02-1.26-.14-2.54-.08-3.77.16-2.49.46-4.81,1.53-7.02,2.69-2.24,1.14-4.27,2.71-5.99,4.55-.87.91-1.68,1.88-2.45,2.87-.77.99-1.55,1.99-2.21,3.07-.66,1.08-1.19,2.26-1.44,3.52-.24,1.26-.24,2.55-.06,3.81.37,2.53,1.43,4.89,2.82,6.99,2.79,4.17,6.66,7.77,11.42,9.5,2.36.94,4.98.84,7.45.51ZM179.01,68.6c-1.34-2.1-2.35-4.44-2.67-6.9-.15-1.22-.18-2.48.04-3.69.23-1.21.73-2.36,1.37-3.42,2.73-4.13,5.95-8.21,10.45-10.52,2.19-1.21,4.52-2.22,6.98-2.66,2.46-.47,5.03-.16,7.29.91,2.27,1.05,4.28,2.56,6.22,4.14,1.94,1.56,3.59,3.47,4.9,5.58,1.3,2.12,2.22,4.48,2.51,6.94.31,2.46-.06,4.98-1,7.28-.46,1.15-1.06,2.25-1.73,3.29-.69,1.02-1.52,1.96-2.41,2.82-1.8,1.72-3.87,3.16-6.12,4.24-2.26,1.07-4.72,1.66-7.2,1.99-2.46.37-5.05.51-7.41-.4-4.72-1.8-8.52-5.43-11.22-9.6Z"/>
              </g>
              <g>
                <path class="cls-14" d="M192.57,78.62c-4.03-1.54-7.02-4.06-9.56-7.16-2.83-3.44-4.94-7.6-4.59-12.08.2-2.59,1.51-4.63,3.05-6.68,2.39-3.16,4.78-5.91,8.27-7.88,3.55-2,7.65-3.8,11.8-3.22,3.69.52,7.15,3.12,9.96,5.41,3.79,3.09,11.4,12.37,4.41,23.02-2,3.05-5.88,5.93-9.25,7.35-1.98.83-4.08,1.33-6.2,1.62-2.3.31-5.08.69-7.9-.39Z"/>
                <path class="cls-17" d="M200.01,79.14c2.49-.29,4.98-.85,7.29-1.89,2.3-1.05,4.42-2.47,6.28-4.19.94-.85,1.77-1.82,2.49-2.88.69-1.06,1.29-2.18,1.77-3.36.96-2.35,1.33-4.95,1.01-7.48-.3-2.53-1.25-4.95-2.58-7.1-1.33-2.15-3.02-4.09-5.02-5.64-1.97-1.56-4.02-3.06-6.33-4.1-1.16-.5-2.38-.9-3.64-1.02-1.26-.14-2.54-.08-3.77.16-2.49.46-4.81,1.53-7.02,2.69-2.24,1.14-4.27,2.71-5.99,4.55-.87.91-1.68,1.88-2.45,2.87-.77.99-1.55,1.99-2.21,3.07-.66,1.08-1.19,2.26-1.44,3.52-.24,1.26-.24,2.55-.06,3.81.37,2.53,1.43,4.89,2.82,6.99,2.79,4.17,6.66,7.77,11.42,9.5,2.36.94,4.98.84,7.45.51ZM181.35,69c-1.34-2.1-2.35-4.44-2.67-6.9-.15-1.22-.18-2.48.04-3.69.23-1.21.73-2.36,1.37-3.42,2.73-4.13,5.95-8.21,10.45-10.52,2.19-1.21,4.52-2.22,6.98-2.66,2.46-.47,5.03-.16,7.29.91,2.27,1.05,4.28,2.56,6.22,4.14,1.94,1.56,3.59,3.47,4.9,5.58,1.3,2.12,2.22,4.48,2.51,6.94.31,2.46-.06,4.98-1,7.28-.46,1.15-1.06,2.25-1.73,3.29-.69,1.02-1.52,1.96-2.41,2.82-1.8,1.72-3.87,3.16-6.12,4.24-2.26,1.07-4.72,1.66-7.2,1.99-2.46.37-5.05.51-7.41-.4-4.72-1.8-8.52-5.43-11.22-9.6Z"/>
              </g>
              <path class="cls-10" d="M181.46,52.71c-1.54,2.04-2.85,4.09-3.05,6.68-.01.18,0,.36,0,.54.63-2.78,1.65-5.93,4.15-7.56.67-.43,1.38-.76,2.18-.77,1.59-.02,2.59,1.28,4.28-.26.46-.42.59-1.05,1.22-1.3.3-.12.63-.06.94-.08,1.07-.06,1.88-.19,2.88-.67,2.28-1.09,4.44-2.07,7.03-2.01,5.49.14,10.39,4.58,13.57,8.69,1.48,1.91,3.12,4.38,3.97,6.96.94-7.5-4.22-13.54-7.14-15.91-2.81-2.29-6.27-4.89-9.96-5.41-4.15-.59-8.25,1.21-11.8,3.22-3.49,1.97-5.89,4.72-8.27,7.88Z"/>
              <path class="cls-17" d="M204.58,54.68c.32.3,1.66-.43,2.5-.63.41-.1.81-.2,1.19-.38.38-.18.9-.48,1.12-.85.63-1.05-.74-2.27-1.45-2.82-.53-.41-1.06-.8-1.66-1.09-.41-.2-.81-.52-1.26-.33-1.01.41-1.04,1.93-1.22,2.84-.21,1.11.46,2.97.78,3.27Z"/>
              <path class="cls-17" d="M206.38,67.63c.11.34,1.36.36,2.04.55.33.09.66.18,1,.2.34.02.83.01,1.14-.16.87-.5.38-1.92.09-2.6-.21-.51-.44-.99-.75-1.44-.21-.3-.37-.69-.76-.74-.89-.11-1.52.96-2,1.54-.6.71-.86,2.31-.75,2.65Z"/>
              <path class="cls-17" d="M189.95,52.59c.25.26,1.38-.29,2.07-.43.34-.07.67-.13.99-.27.31-.14.75-.36.94-.66.55-.84-.52-1.88-1.09-2.36-.42-.36-.84-.69-1.32-.95-.33-.17-.65-.45-1.02-.32-.84.3-.92,1.54-1.1,2.28-.21.9.27,2.45.52,2.71Z"/>
              <path class="cls-17" d="M186.98,70.75c.25.26,1.38-.29,2.07-.43.34-.07.67-.13.99-.27.31-.14.75-.36.94-.66.55-.84-.52-1.88-1.09-2.36-.42-.36-.84-.69-1.32-.95-.33-.17-.65-.45-1.02-.32-.84.3-.92,1.54-1.1,2.28-.21.9.27,2.45.52,2.71Z"/>
              <path class="cls-17" d="M195.12,60.58c.03.28,1.01.5,1.51.75.25.12.49.25.75.32.27.07.65.14.92.06.76-.26.6-1.44.49-2.02-.09-.43-.19-.85-.36-1.25-.12-.27-.18-.6-.48-.7-.68-.23-1.34.51-1.82.89-.58.46-1.04,1.68-1.01,1.96Z"/>
              <path class="cls-17" d="M182.9,59.22c.03.28,1.01.5,1.51.75.24.12.49.25.75.32.27.07.65.14.92.06.76-.26.6-1.44.49-2.02-.09-.43-.19-.85-.36-1.25-.12-.27-.18-.6-.48-.7-.68-.23-1.34.51-1.82.89-.58.46-1.04,1.68-1.01,1.96Z"/>
              <path class="cls-17" d="M197.69,76.12c.27.22,1.31-.45,1.97-.66.32-.1.64-.21.94-.38.29-.17.69-.44.85-.75.44-.89-.73-1.78-1.34-2.19-.45-.3-.9-.58-1.41-.77-.34-.13-.68-.37-1.03-.19-.79.4-.72,1.62-.81,2.36-.1.9.55,2.37.83,2.59Z"/>
              <g>
                <path class="cls-10" d="M195.59,66.19c.9-.77,2.46-.41,3.48.79,1.02,1.2,1.11,2.8.21,3.56-.9.77-2.46.41-3.48-.79-1.02-1.2-1.11-2.8-.21-3.56Z"/>
                <path class="cls-10" d="M190.75,64.85c.46-.39,1.24-.21,1.76.4.51.61.56,1.41.1,1.8-.46.39-1.24.21-1.76-.4-.51-.61-.56-1.41-.1-1.8Z"/>
                <path class="cls-10" d="M198.53,62.63c.46-.39,1.24-.21,1.76.4.51.61.56,1.41.1,1.8-.46.39-1.24.21-1.76-.4-.51-.61-.56-1.41-.1-1.8Z"/>
                <path class="cls-10" d="M201.24,68.8c.46-.39,1.24-.21,1.76.4.51.61.56,1.41.1,1.8-.46.39-1.24.21-1.76-.4-.51-.61-.56-1.41-.1-1.8Z"/>
              </g>
            </g>
            <g>
              <g>
                <path class="cls-14" d="M180.65,43.07c-1.51-1.52-3.58-2.46-5.44-3.54-1.68-.97-3.78-1.8-5.92-2.34-.2,1.85-.68,3.75-1.79,4.93-1.86,1.96-4.86,2.1-7.28,1.64-.98-.19-1.58.03-2.48.3-.53.16-.54.36-1.11.36-.3,0-.53-.21-.81-.26-.5-.43-1.08-.53-1.76-.27-.35.24-.7.47-1.06.69-.88.48-1.74.63-2.47.44-1.76,3.31-2.36,6.82-2.43,8.99-.13,3.62-.11,7.95,1.7,11.21,2.04,3.66,5.95,5.85,9.69,7.47,3.68,1.59,7.32,1.84,11.28,1.84,2.56,0,4.98-.2,7.17-1.6,3.78-2.43,5.82-6.62,6.86-10.95.93-3.9,1.13-7.8-.07-11.94-.84-2.9-2.42-5.32-4.06-6.96Z"/>
                <path class="cls-17" d="M185.18,52.56c.56,3.52.11,7.14-.89,10.53-1.01,3.37-2.65,6.69-5.44,8.9-1.35,1.14-2.99,1.85-4.74,2.11-1.74.27-3.53.23-5.31.2-3.55-.07-7.11-.66-10.32-2.24-3.21-1.46-6.4-3.38-8.31-6.4-.96-1.49-1.48-3.23-1.76-4.98-.28-1.76-.34-3.55-.29-5.33-.01-3.56.85-7.12,2.51-10.26l-.15.07c.66.18,1.35.07,1.96-.16.63-.22,1.14-.64,1.69-.98l-.03.02c.55-.22,1.18-.16,1.6.25l.03.03h.05c.14.03.29.12.48.19.19.09.43.09.62.06.21-.02.42-.13.57-.21.15-.08.31-.13.49-.18.7-.22,1.39-.39,2.09-.26,1.44.3,2.99.36,4.45.02,1.46-.32,2.87-1.16,3.68-2.46.78-1.3,1.07-2.8,1.23-4.27l-.13.09c2.08.51,4.11,1.26,5.97,2.32,1.86,1.06,3.86,1.95,5.4,3.47,2.5,2.56,4.04,5.96,4.54,9.48ZM175.3,39.51c-1.86-1.09-3.89-1.87-5.98-2.42l-.12-.03v.12c-.19,1.45-.5,2.92-1.27,4.14-.78,1.21-2.11,1.99-3.52,2.27-1.42.3-2.88.22-4.32-.05-.77-.14-1.56.06-2.25.29-.17.05-.37.11-.54.21-.18.1-.3.16-.46.18-.17.02-.31.02-.46-.04-.15-.06-.33-.16-.55-.2l.08.04c-.25-.22-.58-.39-.92-.43-.35-.05-.69.02-1,.14h-.01s-.02.02-.02.02c-.54.33-1.03.75-1.61.96-.57.22-1.21.32-1.79.17l-.1-.03-.05.09c-1.65,3.2-2.48,6.8-2.42,10.38-.01,1.79.01,3.58.28,5.36.26,1.77.77,3.54,1.74,5.07,1.93,3.1,5.14,5.08,8.35,6.59,1.61.78,3.32,1.42,5.09,1.77,1.77.37,3.56.52,5.36.57,1.79.03,3.59.09,5.39-.19,1.79-.25,3.55-1.02,4.93-2.19,2.86-2.28,4.6-5.67,5.54-9.12.95-3.46,1.33-7.12.72-10.67-.56-3.54-2.16-6.94-4.7-9.48-1.53-1.54-3.53-2.46-5.37-3.55Z"/>
              </g>
              <g>
                <path class="cls-14" d="M179.16,41.38c-1.51-1.52-3.18-2.89-5.04-3.97-1.36-.79-3-1.48-4.71-2-.08,2.31-.44,5.14-1.91,6.7-1.86,1.96-4.86,2.1-7.28,1.64-.98-.19-1.58.03-2.48.3-.53.16-.54.36-1.11.36-.3,0-.53-.21-.81-.26-.5-.43-1.08-.53-1.76-.27-.35.24-.7.47-1.06.69-1.63.89-3.23.69-3.97-.87-1.44,3.06-1.96,6.19-2.02,8.18-.13,3.62-.11,7.95,1.7,11.21,2.04,3.66,5.95,5.85,9.69,7.47,3.68,1.59,7.32,1.84,11.28,1.84,2.56,0,4.98-.2,7.17-1.6,3.78-2.43,5.82-6.62,6.86-10.95.93-3.9,1.13-7.8-.07-11.94-.84-2.9-2.82-4.89-4.46-6.53Z"/>
                <path class="cls-17" d="M182.49,45.47c.91,1.51,1.32,3.25,1.6,4.98.55,3.48.11,7.05-.86,10.41-.98,3.34-2.58,6.62-5.28,8.86-.67.55-1.39,1.05-2.16,1.43-.78.38-1.61.63-2.46.79-1.71.31-3.48.28-5.24.26-3.51-.05-7.04-.55-10.23-2.04-3.18-1.42-6.37-3.2-8.42-6.08-1.04-1.42-1.65-3.1-1.99-4.82-.34-1.72-.43-3.49-.44-5.25-.07-3.53.6-7.06,2.12-10.24h-.22c.22.46.55.88,1,1.15.45.27.99.36,1.5.31.51-.04,1-.21,1.46-.43.45-.23.84-.53,1.27-.79l-.03.02c.55-.22,1.18-.16,1.6.25l.03.03h.05c.16.03.32.14.54.21.24.08.47.06.69.02.24-.06.41-.19.58-.25.17-.07.37-.12.56-.18.78-.26,1.52-.32,2.31-.12,1.61.28,3.32.26,4.89-.31.78-.28,1.51-.73,2.1-1.32.61-.58,1.01-1.34,1.29-2.11.56-1.56.7-3.2.75-4.82l-.12.09c1.84.55,3.63,1.28,5.26,2.29,1.64,1.01,3.13,2.24,4.49,3.59,1.24,1.25,2.46,2.55,3.34,4.07ZM174.71,37.7c-1.63-1.04-3.43-1.8-5.27-2.38l-.12-.04v.13c-.08,1.61-.25,3.24-.81,4.74-.52,1.52-1.74,2.71-3.26,3.2-1.5.53-3.15.5-4.72.26-.38-.07-.83-.15-1.25-.11-.43.03-.84.14-1.23.26-.19.06-.38.11-.59.2-.21.09-.37.21-.53.24-.17.03-.36.05-.51,0-.17-.05-.35-.17-.6-.21l.08.04c-.25-.22-.58-.39-.92-.43-.35-.05-.69.02-1,.14h-.01s-.02.02-.02.02c-.41.26-.81.56-1.22.78-.42.21-.88.37-1.35.41-.47.05-.94-.03-1.34-.27-.4-.23-.71-.61-.91-1.03l-.11-.23-.11.23c-1.5,3.22-2.14,6.81-2.02,10.34-.01,1.77.07,3.54.4,5.29.32,1.74.93,3.46,1.98,4.91,2.06,2.95,5.27,4.8,8.46,6.27,3.21,1.56,6.84,2.07,10.36,2.13,1.76.02,3.55.07,5.32-.25.88-.16,1.75-.42,2.57-.81.82-.39,1.56-.91,2.25-1.48,2.78-2.31,4.45-5.67,5.36-9.08.93-3.42,1.3-7.04.69-10.54-.3-1.74-.75-3.49-1.69-5.01-.92-1.52-2.16-2.81-3.41-4.04-1.35-1.37-2.83-2.63-4.46-3.66Z"/>
              </g>
              <path class="cls-10" d="M168.73,71.74c-.75-.27-1.44-.64-1.93-1.27-.98-1.26-.55-2.84-2.8-3.25-.62-.11-1.19.16-1.77-.19-.28-.17-.43-.46-.63-.71-.69-.82-1.29-1.38-2.28-1.89-2.25-1.16-4.33-2.29-5.85-4.4-3-4.17-2.68-10.19-1.53-15.06-1.24.32-2.35-.04-2.93-1.26-1.44,3.05-1.96,6.18-2.03,8.17-.13,3.62-.11,7.95,1.7,11.21,2.04,3.66,5.95,5.85,9.69,7.47,3.68,1.59,7.32,1.84,11.28,1.84,2.56,0,4.98-.2,7.17-1.6.15-.1.29-.22.43-.32-2.59,1.18-5.72,2.26-8.53,1.25Z"/>
              <path class="cls-17" d="M157.28,52.79c.05-.43-1.35-1.07-2.01-1.61-.33-.27-.65-.53-1.02-.72-.37-.19-.93-.42-1.35-.38-1.22.14-1.36,1.96-1.38,2.86,0,.67,0,1.32.14,1.98.09.44.08.96.49,1.2.94.55,2.17-.33,3-.74,1.01-.5,2.09-2.16,2.14-2.6Z"/>
              <path class="cls-17" d="M164.45,65.71c.05-.35-1.07-.92-1.59-1.39-.26-.23-.51-.46-.81-.62-.3-.17-.74-.38-1.09-.36-1,.07-1.18,1.56-1.23,2.29-.03.55-.04,1.08.04,1.63.06.36.03.79.36,1,.75.49,1.78-.2,2.48-.5.84-.37,1.79-1.7,1.84-2.05Z"/>
              <path class="cls-17" d="M180.71,57.12c.05-.35-1.07-.92-1.59-1.39-.26-.23-.51-.46-.81-.62-.3-.17-.74-.38-1.09-.36-1,.07-1.18,1.56-1.23,2.29-.03.55-.04,1.08.04,1.63.06.36.03.79.36,1,.75.49,1.78-.2,2.48-.5.84-.37,1.79-1.7,1.84-2.05Z"/>
              <path class="cls-17" d="M167.69,56.77c.21-.2-.21-1.11-.31-1.66-.05-.27-.1-.54-.2-.79-.11-.25-.28-.61-.51-.76-.66-.45-1.51.39-1.91.84-.29.33-.56.66-.78,1.04-.14.26-.37.51-.27.81.23.68,1.22.76,1.81.91.72.18,1.96-.18,2.17-.38Z"/>
              <path class="cls-17" d="M173.98,67.33c.21-.2-.21-1.11-.31-1.66-.05-.27-.1-.54-.2-.79-.11-.25-.28-.61-.51-.76-.66-.45-1.51.39-1.91.84-.29.33-.56.66-.78,1.04-.14.26-.37.51-.27.81.23.68,1.22.76,1.81.91.71.18,1.96-.18,2.17-.38Z"/>
              <path class="cls-17" d="M178.53,45.34c.01-.35-1.15-.78-1.72-1.17-.28-.19-.55-.39-.87-.52-.31-.13-.77-.29-1.11-.22-.97.18-.98,1.66-.93,2.39.03.54.08,1.07.23,1.59.1.35.12.77.47.94.79.39,1.72-.4,2.37-.78.78-.46,1.55-1.87,1.56-2.22Z"/>
              <g>
                <path class="cls-10" d="M171.88,53c-1.16-.26-1.82-1.71-1.47-3.25.34-1.54,1.56-2.57,2.72-2.31s1.82,1.71,1.47,3.25c-.34,1.54-1.56,2.57-2.72,2.31Z"/>
                <path class="cls-10" d="M173.73,57.67c-.58-.13-.92-.87-.74-1.64.17-.78.79-1.3,1.37-1.17.58.13.92.87.74,1.64-.17.78-.79,1.3-1.37,1.17Z"/>
                <path class="cls-10" d="M167.27,52.81c-.58-.13-.92-.87-.74-1.64.17-.78.79-1.3,1.37-1.17.58.13.92.87.74,1.64-.17.78-.79,1.3-1.37,1.17Z"/>
                <path class="cls-10" d="M170.55,46.92c-.58-.13-.92-.87-.74-1.64.17-.78.79-1.3,1.37-1.17s.92.87.74,1.64c-.17.78-.79,1.3-1.37,1.17Z"/>
              </g>
            </g>
          </g>
          <g>
            <g>
              <path class="cls-13" d="M128.84,60.28c-.38-2.92,3-24.71,3.77-26.7-12.56-1.43-27.4,10.49-30.37,14.4,2.19.39,25.07,10.95,26.6,12.3Z"/>
              <path class="cls-17" d="M125.67,58.43c-1.08-.57-2.18-1.11-3.27-1.66-2.19-1.08-4.4-2.14-6.61-3.18-2.21-1.05-4.44-2.06-6.68-3.04l-3.37-1.45c-1.14-.46-2.24-.96-3.47-1.29l.11.28c1.81-2.21,4.09-4.03,6.37-5.77,2.31-1.72,4.74-3.29,7.28-4.65,2.56-1.33,5.23-2.46,8.01-3.21,2.78-.73,5.69-1.09,8.55-.76l-.1-.16c-.63,2.2-.95,4.42-1.36,6.64-.4,2.22-.71,4.45-1.03,6.68-.31,2.23-.6,4.46-.87,6.7-.13,1.12-.25,2.24-.34,3.36-.06,1.12-.2,2.27-.08,3.36-.96-.71-2.09-1.25-3.16-1.83ZM129.45,53.57c.29-2.23.6-4.46.94-6.68l1.06-6.66c.38-2.21.69-4.47,1.27-6.6l.04-.15h-.14c-2.9-.3-5.82.1-8.61.87-2.79.75-5.49,1.84-8.07,3.16-2.57,1.33-5.04,2.86-7.38,4.56-2.33,1.72-4.6,3.55-6.47,5.81l-.17.21.28.08c1.12.31,2.27.82,3.39,1.28l3.36,1.45,6.69,3c2.23,1.01,4.45,2.03,6.65,3.08l3.3,1.59c1.1.55,2.19,1.06,3.24,1.74-.02-2.28.35-4.49.6-6.73Z"/>
            </g>
            <path class="cls-1" d="M117.72,41.06c.56.98,11.05,15.13,15.31,30.83"/>
            <path class="cls-1" d="M111.1,46.35l15.1,8.49c-.46-1.32-.4-13.12-.16-17.21"/>
          </g>
          <g class="cls-9">
            <path class="cls-14" d="M147.32,91.39l1.18.4c.15.05.31.02.44-.07l1-.75c.32-.24.77,0,.77.39l-.02,1.25c0,.16.07.31.2.4l1.02.72c.32.23.25.73-.13.85l-1.19.37c-.15.05-.27.16-.32.32l-.37,1.19c-.12.38-.62.46-.85.13l-.72-1.02c-.09-.13-.24-.2-.4-.2l-1.25.02c-.4,0-.63-.45-.39-.77l.75-1c.09-.13.12-.29.07-.44l-.4-1.18c-.13-.38.23-.74.61-.61Z"/>
          </g>
          <g class="cls-9">
            <path class="cls-14" d="M155.65,137.05l1.18.4c.15.05.31.02.44-.07l1-.75c.32-.24.77,0,.77.39l-.02,1.25c0,.16.07.31.2.4l1.02.72c.32.23.25.73-.13.85l-1.19.37c-.15.05-.27.16-.32.32l-.37,1.19c-.12.38-.62.46-.85.13l-.72-1.02c-.09-.13-.24-.2-.4-.2l-1.25.02c-.4,0-.63-.45-.39-.77l.75-1c.09-.13.12-.29.07-.44l-.4-1.18c-.13-.38.23-.74.61-.61Z"/>
          </g>
          <g class="cls-9">
            <path class="cls-14" d="M152.32,28.39l1.18.4c.15.05.31.02.44-.07l1-.75c.32-.24.77,0,.77.39l-.02,1.25c0,.16.07.31.2.4l1.02.72c.32.23.25.73-.13.85l-1.19.37c-.15.05-.27.16-.32.32l-.37,1.19c-.12.38-.62.46-.85.13l-.72-1.02c-.09-.13-.24-.2-.4-.2l-1.25.02c-.4,0-.63-.45-.39-.77l.75-1c.09-.13.12-.29.07-.44l-.4-1.18c-.13-.38.23-.74.61-.61Z"/>
          </g>
          <g class="cls-9">
            <path class="cls-14" d="M112.65,73.94l1.18.4c.15.05.31.02.44-.07l1-.75c.32-.24.77,0,.77.39l-.02,1.25c0,.16.07.31.2.4l1.02.72c.32.23.25.73-.13.85l-1.19.37c-.15.05-.27.16-.32.32l-.37,1.19c-.12.38-.62.46-.85.13l-.72-1.02c-.09-.13-.24-.2-.4-.2l-1.25.02c-.4,0-.63-.45-.39-.77l.75-1c.09-.13.12-.29.07-.44l-.4-1.18c-.13-.38.23-.74.61-.61Z"/>
          </g>
          <g class="cls-9">
            <path class="cls-14" d="M102.32,123.39l1.18.4c.15.05.31.02.44-.07l1-.75c.32-.24.77,0,.77.39l-.02,1.25c0,.16.07.31.2.4l1.02.72c.32.23.25.73-.13.85l-1.19.37c-.15.05-.27.16-.32.32l-.37,1.19c-.12.38-.62.46-.85.13l-.72-1.02c-.09-.13-.24-.2-.4-.2l-1.25.02c-.4,0-.63-.45-.39-.77l.75-1c.09-.13.12-.29.07-.44l-.4-1.18c-.13-.38.23-.74.61-.61Z"/>
          </g>
          <g class="cls-9">
            <path class="cls-14" d="M138.06,13.64l1.18.4c.15.05.31.02.44-.07l1-.75c.32-.24.77,0,.77.39l-.02,1.25c0,.16.07.31.2.4l1.02.72c.32.23.25.73-.13.85l-1.19.37c-.15.05-.27.16-.32.32l-.37,1.19c-.12.38-.62.46-.85.13l-.72-1.02c-.09-.13-.24-.2-.4-.2l-1.25.02c-.4,0-.63-.45-.39-.77l.75-1c.09-.13.12-.29.07-.44l-.4-1.18c-.13-.38.23-.74.61-.61Z"/>
          </g>
          <g class="cls-9">
            <path class="cls-14" d="M109.15,27.89l1.18.4c.15.05.31.02.44-.07l1-.75c.32-.24.77,0,.77.39l-.02,1.25c0,.16.07.31.2.4l1.02.72c.32.23.25.73-.13.85l-1.19.37c-.15.05-.27.16-.32.32l-.37,1.19c-.12.38-.62.46-.85.13l-.72-1.02c-.09-.13-.24-.2-.4-.2l-1.25.02c-.4,0-.63-.45-.39-.77l.75-1c.09-.13.12-.29.07-.44l-.4-1.18c-.13-.38.23-.74.61-.61Z"/>
          </g>
          <g>
            <g>
              <path class="cls-14" d="M147.19-.62c.25,1.16.27,2.25-.04,2.96l-2.14.74-5.48,1.9-4.17,1.44-6.73,2.33-4.45,1.54-7.31,2.53-5.01,1.73-9.23,3.19-5.67,1.96-1.65-4.75-1.11-3.2,6.97-2.42,5.89-2.03,8.46-2.93,5.06-1.75L128.12.03l4.62-1.61,6.03-2.08,4.43-1.53,1.2-.42c1.23.72,2.36,2.95,2.79,4.99Z"/>
              <path class="cls-17" d="M147.24-.63c.11.49.19.99.2,1.5.01.5-.03,1.02-.23,1.5v.03s-.04.01-.04.01c-4.18,1.45-8.31,3.05-12.46,4.58-4.15,1.53-8.32,3.02-12.52,4.43-4.19,1.42-8.41,2.76-12.62,4.14l-6.29,2.12-6.26,2.2-.17.06-.06-.18-2.88-7.9-.11-.3.31-.11c4.16-1.53,8.32-3.02,12.5-4.49,4.18-1.47,8.34-2.96,12.54-4.38,4.19-1.44,8.37-2.87,12.58-4.24l12.65-4.05.05-.02.04.02c.86.56,1.39,1.43,1.84,2.3.43.88.75,1.81.95,2.77ZM147.15-.61c-.21-.95-.55-1.86-.99-2.72-.45-.84-1-1.69-1.8-2.18h.09s-12.45,4.64-12.45,4.64c-4.15,1.54-8.33,2.99-12.52,4.44-4.17,1.47-8.37,2.88-12.57,4.3-4.19,1.42-8.39,2.83-12.6,4.2l.2-.41,2.63,7.99-.24-.12,6.29-2.13,6.26-2.22c4.16-1.52,8.3-3.07,12.47-4.56,4.17-1.49,8.36-2.9,12.58-4.26,4.21-1.36,8.45-2.66,12.63-4.09l-.04.04c.37-.91.25-1.96.06-2.92Z"/>
            </g>
            <g>
              <g>
                <path class="cls-13" d="M147.19-.62c.25,1.16.27,2.25-.04,2.96l-2.14.74c-1.97-2.31-4.05-4.55-6.23-6.74l4.43-1.53c1.38,1.5,2.71,3.02,3.99,4.57Z"/>
                <path class="cls-17" d="M147.21-.62c.13.49.23.98.26,1.49.02.51,0,1.03-.2,1.53l-.02.05-.06.02-2.13.76-.09.03-.07-.08c-1.05-1.11-2-2.31-3.04-3.43-1.05-1.11-2.11-2.21-3.17-3.31l-.15-.15.2-.07c1.47-.54,2.93-1.07,4.41-1.56l.11-.04.07.08c.67.76,1.32,1.56,1.97,2.33.65.78,1.3,1.56,1.91,2.34ZM147.18-.61c-.71-.74-1.4-1.48-2.08-2.22-.68-.74-1.37-1.48-2.02-2.23l.18.05c-1.47.52-2.95,1.01-4.44,1.49l.05-.22c1.01,1.15,2.03,2.3,3.06,3.43,1.04,1.13,2.16,2.18,3.19,3.31l-.16-.04,2.14-.72-.07.07c.38-.88.29-1.93.15-2.9Z"/>
              </g>
              <g>
                <path class="cls-13" d="M139.53,4.98l-4.17,1.44c-2.29-2.21-4.7-4.34-7.23-6.39l4.62-1.61c2.37,2.11,4.64,4.3,6.78,6.55Z"/>
                <path class="cls-17" d="M139.54,4.98c-1.32.5-2.71,1.07-4.14,1.57l-.08.03-.06-.06-3.51-3.31c-1.17-1.1-2.42-2.12-3.69-3.11l-.13-.1.15-.06c1.53-.57,3.06-1.14,4.6-1.68l.09-.03.08.07c1.18,1.04,2.34,2.11,3.45,3.23l1.64,1.69c.55.57,1.06,1.14,1.59,1.76ZM139.51,4.98l-1.69-1.62-1.71-1.62-3.47-3.18.17.03c-1.54.53-3.1,1.03-4.65,1.53l.03-.16,3.69,3.12c1.24,1.03,2.45,2.09,3.59,3.24l-.14-.03c1.35-.46,2.73-.85,4.2-1.32Z"/>
              </g>
              <g>
                <path class="cls-13" d="M128.63,8.75l-4.45,1.54c-2.76-2.08-5.65-4.04-8.66-5.9l5.06-1.75c2.8,1.93,5.48,3.98,8.06,6.11Z"/>
                <path class="cls-17" d="M128.65,8.75c-1.41.53-2.9,1.14-4.43,1.67l-.07.02-.06-.04-4.23-3.09c-1.41-1.03-2.9-1.95-4.4-2.84l-.16-.1.18-.07c1.67-.61,3.35-1.23,5.03-1.82l.08-.03.07.05c1.39.95,2.76,1.94,4.09,2.99l1.97,1.59c.66.54,1.28,1.07,1.92,1.67ZM128.62,8.75l-2.01-1.51-2.03-1.51c-1.36-.99-2.72-1.98-4.1-2.94l.15.02c-1.69.57-3.39,1.12-5.08,1.67l.02-.16,4.4,2.86c1.47.94,2.92,1.93,4.3,3.01l-.13-.02c1.44-.5,2.92-.91,4.48-1.42Z"/>
              </g>
              <g>
                <path class="cls-13" d="M116.86,12.83l-5.01,1.73c-3.43-1.89-6.99-3.63-10.68-5.21l5.89-2.03c3.4,1.7,6.66,3.54,9.8,5.51Z"/>
                <path class="cls-17" d="M116.88,12.83c-1.59.58-3.26,1.27-4.98,1.86l-.06.02-.06-.03-5.25-2.78c-1.76-.92-3.57-1.71-5.41-2.46l-.21-.09.22-.08c1.95-.71,3.9-1.43,5.86-2.11l.07-.02.07.03c1.68.84,3.35,1.71,4.96,2.66.81.47,1.61.96,2.41,1.45.8.5,1.58.99,2.37,1.55ZM116.85,12.82l-2.43-1.38c-.81-.46-1.63-.92-2.46-1.36-1.65-.88-3.3-1.77-4.97-2.61h.13c-1.96.68-3.94,1.32-5.91,1.97v-.17c1.82.8,3.61,1.66,5.42,2.48,1.8.83,3.59,1.7,5.31,2.69h-.11c1.62-.57,3.29-1.04,5.04-1.62Z"/>
              </g>
              <path class="cls-6" d="M102.62,17.75l-5.67,1.96-1.65-4.75c2.49.86,4.93,1.79,7.32,2.79Z"/>
            </g>
            <path class="cls-17" d="M96.74,20.11c-.83.29-2.17-1.39-2.99-3.75-.82-2.36-.8-4.51.03-4.79.83-.29,2.17,1.39,2.99,3.75.82,2.36.8,4.51-.03,4.79Z"/>
          </g>
        </g>
        <g>
          <g>
            <g>
              <path class="cls-18" d="M73.58,24.44c.9.3,2.32.63,3.78.86,1.46.25,2.96.4,3.95.62,2.18.46,3.01,1.55,3.03,2.7.03,1.13-.76,2.32-1.43,2.62-1.83.87-3.94,1.04-5.81.94-1.32-.08-2.61-.26-3.87-.28-.33.13,1.09,1.83,1.36,2.32.56,1.09.15,1.88-.22,2.42-.45.66-1.7.62-2.47.39-3.64-1.01-5.9-3.93-8.76-5.52-1.48-.85-1.65,1.33-1.6,2.36.06,1.17.61,2.37.06,3.46-.64,1.28-2.4.59-3.35-.09-1.86-1.33-2.77-3.91-3.63-5.85-.55-1.24-1.04-2.54-1.62-3.76-.31-.66-.79-1.91-1.14-1.73-1.99.96-.51,4.4-.65,6.06-.16,1.76-2.01,2.04-3.37,1.18-2.5-1.59-3.96-5.07-4.73-7.75-.43-1.47-1.83-5.72-3-9.74-1.19-4.02-2.17-7.81-2.35-8.35,1.31.3,4.53.04,7.63-.56,3.12-.59,6.14-1.52,7.36-2.08,2.26-1.04,4.41-1.03,5.7-.22,1.28.8,1.72,2.43.36,4.6-.59.94-2.21,1.81-3.46,2.5-1.25.69-2.13,1.24-1.17,1.61,1.09.44,3.48-.75,4.52-1.01,1.72-.4,3.69-.91,5.33-.7.89.11,1.71.42,2.25,1.02.53.61.8,1.55.48,2.92-.22.98-1.44,1.85-2.33,2.49-.88.65-1.38,1.12-.02,1.41,1.07.21,2.34-.09,3.67-.51,1.33-.44,2.7-.98,4.05-1.29.4-.08.89-.19,1.38-.22.49-.04.98-.05,1.41.05.71.13,1.23.43,1.6.81.37.37.58.84.67,1.34.18.99-.17,2.08-.7,2.59-.51.52-1.55.93-2.31,1.29-.76.35-1.24.7-.59,1.13Z"/>
              <path class="cls-17" d="M73.59,24.42c2,.62,4.07.89,6.12,1.16,1.02.15,2.07.27,3.06.74.48.24.95.57,1.28,1.06.33.49.44,1.12.36,1.7-.08.58-.32,1.11-.65,1.56-.16.22-.35.43-.58.59-.24.16-.47.24-.72.35-.97.39-1.99.61-3.02.71-2.07.24-4.16-.17-6.2-.21h.06c.08-.04.05-.11.06-.07,0,.03.02.06.04.11.04.08.09.17.14.26.11.18.23.35.35.52l.75,1.05c.26.4.42.86.41,1.35,0,.49-.19.94-.42,1.31-.1.17-.28.4-.48.5-.2.12-.41.18-.61.23-.42.08-.84.07-1.25,0-.82-.17-1.59-.45-2.34-.82-1.5-.74-2.82-1.82-4.12-2.85-.65-.52-1.3-1.03-1.98-1.48-.17-.11-.34-.22-.52-.33-.18-.11-.35-.21-.51-.28-.33-.13-.62-.03-.79.3-.33.67-.36,1.59-.27,2.4.1.83.4,1.74.16,2.66-.12.43-.36.89-.77,1.1-.4.21-.85.21-1.26.12-.82-.18-1.58-.61-2.21-1.19-1.29-1.19-2.02-2.85-2.7-4.43l-2.04-4.79c-.18-.4-.35-.8-.54-1.18-.1-.19-.2-.37-.33-.51-.07-.07-.13-.1-.16-.08l-.24.14c-.31.22-.54.55-.65.94-.11.39-.12.83-.11,1.25.04.86.22,1.72.33,2.59.05.43.1.88,0,1.33-.08.44-.33.84-.67,1.09-.7.5-1.61.43-2.36.1-.76-.37-1.4-.94-1.98-1.57-1.15-1.29-1.96-2.87-2.59-4.5-.32-.81-.57-1.66-.83-2.49l-.78-2.5-1.56-4.99c-.54-1.66-1-3.34-1.48-5.01l-1.44-5.02-.1-.35.33.06c.73.14,1.52.12,2.28.09.77-.04,1.54-.11,2.31-.21,1.53-.19,3.06-.47,4.56-.81,1.51-.35,3-.75,4.46-1.25.36-.13.73-.26,1.07-.41.35-.16.73-.32,1.1-.45.75-.26,1.54-.42,2.34-.45.8-.02,1.63.09,2.4.48.76.37,1.46,1.21,1.53,2.19.09.96-.24,1.83-.64,2.57-.19.37-.47.75-.78,1.02-.31.28-.64.52-.97.75-.67.44-1.36.82-2.04,1.2-.34.19-.68.38-.99.59-.15.1-.3.23-.39.34-.04.06-.02.07-.03.03-.02-.03.03.03.09.06.58.3,1.39.07,2.1-.13.73-.22,1.44-.52,2.21-.76,1.53-.38,3.04-.76,4.64-.8.8,0,1.62.09,2.4.45.38.18.76.44,1.05.81.29.36.47.82.55,1.28.08.46.05.92-.02,1.35-.04.22-.08.43-.16.66-.08.22-.2.41-.32.58-.52.69-1.18,1.15-1.82,1.62-.32.23-.65.45-.89.72-.06.06-.1.14-.1.18,0,.03,0,.05.06.1.12.09.32.15.49.2.73.19,1.51.1,2.26-.05,1.51-.31,2.95-.93,4.44-1.37.37-.11.75-.22,1.13-.3l1.16-.17c.77-.12,1.59-.08,2.35.23.76.3,1.42,1.01,1.59,1.89.18.86,0,1.78-.45,2.48-.5.69-1.27.97-1.97,1.31-.35.16-.72.31-1.05.5-.16.1-.34.21-.42.38-.08.19.12.36.27.47ZM73.57,24.47c-.16-.11-.39-.29-.3-.54.09-.21.28-.31.44-.42.34-.2.7-.35,1.05-.52.69-.34,1.46-.64,1.91-1.3.43-.67.59-1.56.41-2.38-.17-.83-.79-1.48-1.52-1.76-.73-.29-1.51-.32-2.27-.19l-1.14.19c-.37.09-.75.2-1.12.31-1.48.45-2.91,1.09-4.45,1.44-.76.16-1.57.27-2.38.08-.2-.06-.4-.1-.61-.25-.1-.07-.23-.25-.2-.44.03-.17.11-.27.18-.36.3-.33.62-.55.94-.79.63-.47,1.26-.95,1.72-1.57.23-.31.34-.65.4-1.07.06-.4.07-.81,0-1.2-.12-.79-.66-1.42-1.35-1.71-.69-.31-1.46-.39-2.21-.38-1.51.06-3.04.46-4.52.81-.72.23-1.45.53-2.21.76-.38.11-.76.22-1.17.27-.4.05-.86.05-1.29-.18-.11-.08-.24-.13-.34-.36-.09-.25.03-.45.1-.56.16-.21.33-.33.5-.45.34-.23.69-.42,1.03-.62.69-.38,1.37-.75,2.02-1.18.64-.44,1.26-.89,1.6-1.6.38-.69.66-1.47.58-2.24-.06-.77-.58-1.42-1.24-1.75-.67-.35-1.43-.45-2.18-.44-.75.02-1.5.18-2.22.42-.36.12-.7.27-1.07.43-.37.16-.74.29-1.11.42-1.48.51-2.99.91-4.51,1.26-1.52.34-3.06.62-4.61.81-.78.09-1.56.16-2.34.19-.79.02-1.57.04-2.39-.12l.23-.29,1.39,5.05c.47,1.68.91,3.37,1.44,5.03l1.52,5,.76,2.5c.25.83.49,1.67.8,2.47.61,1.61,1.4,3.17,2.51,4.44.55.62,1.19,1.19,1.9,1.53.71.32,1.57.38,2.2-.07.31-.22.54-.57.61-.98.08-.4.05-.84,0-1.27-.11-.86-.3-1.72-.35-2.6-.02-.44-.01-.89.11-1.32.12-.43.37-.82.72-1.06.09-.06.17-.11.27-.17.16-.06.3.05.37.12.16.18.27.37.37.56.2.39.37.79.55,1.18l2.08,4.78c.69,1.57,1.43,3.18,2.66,4.29.6.54,1.33.94,2.07,1.1.37.08.75.07,1.06-.1.31-.16.5-.5.6-.88.2-.77-.07-1.62-.19-2.5-.06-.45-.07-.9-.04-1.35.04-.45.11-.9.33-1.32.11-.21.29-.4.53-.5.24-.11.49-.04.71.02.21.09.4.2.57.3.18.1.36.21.53.33.7.46,1.37.97,2.02,1.48,1.31,1.03,2.62,2.06,4.05,2.78.71.36,1.48.65,2.21.81.37.06.76.08,1.12.01.37-.07.67-.2.85-.55.21-.33.37-.69.37-1.08.01-.38-.12-.79-.33-1.11l-.74-1.05c-.12-.18-.24-.36-.36-.55-.06-.1-.11-.19-.16-.31-.03-.05-.05-.12-.07-.2-.02-.07-.02-.26.14-.34h.02s.03,0,.03,0c2.09.06,4.13.5,6.17.29,1.02-.09,2.02-.29,2.97-.66.99-.26,1.65-1.24,1.84-2.3.08-.53-.01-1.11-.31-1.55-.29-.45-.73-.78-1.2-1.01-.94-.46-1.99-.6-3.01-.76-2.05-.3-4.12-.59-6.13-1.24Z"/>
            </g>
            <path class="cls-3" d="M84.35,28.39s-.18.03-.54.08c-.35.04-.87.13-1.54.19-1.33.11-3.25.2-5.53,0-2.28-.19-4.9-.68-7.64-1.51-2.74-.82-5.6-2.01-8.47-3.43-5.71-2.87-11.68-6.63-16.99-10.93-1.33-1.07-2.62-2.18-3.85-3.31-1.24-1.13-2.42-2.28-3.45-3.43-2.07-2.3-3.52-4.64-4.14-6.8"/>
            <path class="cls-3" d="M74.01,36.41c-4.94-3.55-8.72-7.77-12.01-12.08,3.53-1.67,7.39-2.78,10.23-3.8,1.43-.49,2.61-.92,3.44-1.24.41-.16.74-.28.97-.36.22-.09.34-.14.34-.14"/>
            <path class="cls-3" d="M66.65,13.38c-3.93,2.49-8.63,4.45-13.38,6.23,1.04,3.04,2.16,6.08,3.36,9.1,1.2,3.02,2.49,6.05,3.97,9.04"/>
            <path class="cls-3" d="M59.17,5.84c-4.82,2.69-9.91,5.07-15.26,7.14,0,0,.65,3.9,1.71,8.42,1.05,4.51,2.55,9.62,3.74,12"/>
          </g>
          <g>
            <path class="cls-4" d="M.4,32.43c-9.36,21.55-9.84,33.31-9.39,36.84"/>
            <path class="cls-4" d="M12.37,20.87c.15,23.36-14.39,28.99-18.48,29.12"/>
            <g>
              <g>
                <g>
                  <path class="cls-7" d="M.07,16.63c-.76,3.44-4.16,5.61-7.6,4.85-3.44-.76-5.61-4.16-4.85-7.6.76-3.44,4.16-5.61,7.6-4.85C-1.34,9.79.83,13.19.07,16.63Z"/>
                  <path class="cls-17" d="M-.62,11.72c-.85-1.5-2.39-2.62-4.1-2.99-1.71-.4-3.57-.05-5.02.92-1.47.95-2.5,2.51-2.8,4.2-.33,1.69.03,3.45.92,4.9.9,1.43,2.34,2.57,4.04,2.98,1.69.41,3.56.07,4.96-.94,1.41-.99,2.38-2.51,2.73-4.15.38-1.63.14-3.42-.72-4.92ZM-2.82,20.48c-1.41.81-3.08,1.09-4.65.77-1.57-.3-3.08-1.22-3.97-2.61-.92-1.37-1.19-3.14-.78-4.72.4-1.58,1.43-2.96,2.79-3.8,1.36-.85,3.04-1.12,4.59-.79,1.56.34,2.96,1.28,3.9,2.6C0,13.24.39,14.99.04,16.62c-.36,1.63-1.45,3.05-2.87,3.85Z"/>
                </g>
                <g class="cls-8">
                  <path class="cls-15" d="M-.46,12.38C0,20.39-7.79,21.16-11.47,18.78c.88,1.33,2.26,2.33,3.93,2.7,3.44.76,6.84-1.41,7.6-4.85.33-1.49.11-2.98-.53-4.25Z"/>
                </g>
              </g>
              <g>
                <g>
                  <path class="cls-7" d="M15.85,11.21c1.95,2.93,1.15,6.89-1.78,8.84-2.93,1.95-6.89,1.15-8.84-1.78-1.95-2.93-1.15-6.89,1.78-8.84,2.93-1.95,6.89-1.15,8.84,1.78Z"/>
                  <path class="cls-17" d="M11.83,8.3c-1.67-.43-3.54-.1-5,.88-1.48.95-2.51,2.54-2.83,4.25-.34,1.71.08,3.54,1.08,4.94.99,1.41,2.51,2.37,4.17,2.73,1.65.35,3.47.1,4.95-.84,1.47-.93,2.51-2.51,2.77-4.22.26-1.7-.16-3.46-1.1-4.84-.91-1.41-2.37-2.47-4.04-2.9ZM16.61,15.97c-.39,1.58-1.35,2.97-2.68,3.89-1.31.92-3.01,1.37-4.63,1.05-1.63-.29-3.09-1.32-3.94-2.71-.86-1.39-1.14-3.08-.8-4.65.33-1.57,1.3-2.96,2.62-3.85,1.33-.88,2.98-1.25,4.58-1,1.61.23,3.14,1.16,4.07,2.55.92,1.39,1.19,3.16.78,4.74Z"/>
                </g>
                <g class="cls-8">
                  <path class="cls-15" d="M12.42,8.65c6.08,5.23,1.23,11.36-3.03,12.36,1.57.29,3.24,0,4.67-.96,2.93-1.95,3.73-5.91,1.78-8.84-.85-1.27-2.07-2.14-3.43-2.56Z"/>
                </g>
                <path class="cls-5" d="M11.74,9.73c.21.57-.72,1.43-2.08,1.93-1.36.5-2.63.44-2.84-.13-.21-.57.72-1.43,2.08-1.93,1.36-.5,2.63-.44,2.84.13Z"/>
                <g class="cls-19">
                  <path class="cls-16" d="M6.59,17.84c-1.05-1.15-1.3-2.62-1.18-3.56.12-.97.51-1.46.66-1.4.18.06.13.6.25,1.4.11.79.44,1.85,1.22,2.7.8.91,1.76,1.4,2.53,1.69.77.29,1.28.39,1.31.56.04.18-.56.42-1.51.33-.47-.05-1.04-.18-1.62-.45-.59-.27-1.18-.71-1.67-1.26Z"/>
                </g>
              </g>
              <g>
                <g>
                  <path class="cls-7" d="M7.37,30.53c-1.41,3.23-5.17,4.7-8.4,3.29-3.23-1.41-4.7-5.17-3.29-8.4s5.17-4.7,8.4-3.29c3.23,1.41,4.7,5.17,3.29,8.4Z"/>
                  <path class="cls-17" d="M7.64,25.58c-.54-1.64-1.83-3.03-3.44-3.73-1.6-.73-3.49-.74-5.11-.07-1.62.65-2.94,1.98-3.57,3.58-.65,1.59-.64,3.4-.04,4.98.6,1.58,1.8,2.97,3.38,3.71,1.58.73,3.48.75,5.05.04,1.58-.7,2.82-2.01,3.48-3.55.69-1.53.8-3.33.25-4.96ZM3.78,33.74c-1.54.52-3.23.47-4.72-.15-1.48-.6-2.78-1.79-3.39-3.33-.64-1.52-.56-3.31.15-4.78.7-1.47,1.97-2.63,3.47-3.19,1.5-.57,3.19-.51,4.66.12,1.46.64,2.66,1.83,3.33,3.31.68,1.48.72,3.27.06,4.8-.67,1.53-2.01,2.71-3.56,3.22Z"/>
                </g>
                <g class="cls-8">
                  <path class="cls-15" d="M7.67,26.26c-1.1,7.94-8.89,7.19-12.03,4.15.61,1.47,1.76,2.72,3.34,3.41,3.23,1.41,6.99-.06,8.4-3.29.61-1.4.68-2.9.3-4.27Z"/>
                </g>
                <path class="cls-5" d="M6.39,26.27c-.37.48-1.6.17-2.75-.71-1.15-.87-1.79-1.97-1.42-2.46.37-.48,1.6-.17,2.75.71s1.79,1.97,1.42,2.46Z"/>
                <g class="cls-19">
                  <path class="cls-16" d="M-3.22,26.34c.4-1.51,1.5-2.51,2.36-2.92.88-.43,1.51-.36,1.54-.2.05.18-.44.44-1.04.97-.6.52-1.32,1.38-1.61,2.49-.34,1.16-.22,2.23-.05,3.05.17.81.36,1.29.24,1.41-.13.13-.66-.24-1.09-1.09-.22-.42-.41-.97-.5-1.61-.09-.64-.04-1.38.16-2.08Z"/>
                </g>
              </g>
            </g>
          </g>
          <g class="cls-9">
            <path class="cls-14" d="M19.07,7.89l1.18.4c.15.05.31.02.44-.07l1-.75c.32-.24.77,0,.77.39l-.02,1.25c0,.16.07.31.2.4l1.02.72c.32.23.25.73-.13.85l-1.19.37c-.15.05-.27.16-.32.32l-.37,1.19c-.12.38-.62.46-.85.13l-.72-1.02c-.09-.13-.24-.2-.4-.2l-1.25.02c-.4,0-.63-.45-.39-.77l.75-1c.09-.13.12-.29.07-.44l-.4-1.18c-.13-.38.23-.74.61-.61Z"/>
          </g>
          <g class="cls-9">
            <path class="cls-14" d="M27.4,53.55l1.18.4c.15.05.31.02.44-.07l1-.75c.32-.24.77,0,.77.39l-.02,1.25c0,.16.07.31.2.4l1.02.72c.32.23.25.73-.13.85l-1.19.37c-.15.05-.27.16-.32.32l-.37,1.19c-.12.38-.62.46-.85.13l-.72-1.02c-.09-.13-.24-.2-.4-.2l-1.25.02c-.4,0-.63-.45-.39-.77l.75-1c.09-.13.12-.29.07-.44l-.4-1.18c-.13-.38.23-.74.61-.61Z"/>
          </g>
        </g>
      </g>
    </pattern>
  </defs>
  <g id="Pattern">
    <g>
      <rect class="cls-16" width="250" height="250"/>
      <rect class="cls-21" width="250" height="250"/>
    </g>
  </g>
</svg>