<?xml version="1.0" encoding="UTF-8"?>
<svg id="Layer_2" data-name="Layer 2" xmlns="http://www.w3.org/2000/svg" xmlns:xlink="http://www.w3.org/1999/xlink" viewBox="0 0 250 250">
  <defs>
    <style>
      .cls-1, .cls-2, .cls-3, .cls-4 {
        fill: none;
      }

      .cls-2 {
        stroke-width: .35px;
      }

      .cls-2, .cls-3, .cls-4 {
        stroke: #753225;
        stroke-miterlimit: 10;
      }

      .cls-5 {
        fill: #fcedde;
      }

      .cls-6 {
        fill: #ffcebd;
      }

      .cls-7, .cls-8 {
        fill: #93225d;
      }

      .cls-9 {
        fill: #ff8b0d;
      }

      .cls-10, .cls-11, .cls-12 {
        fill: #fed29f;
      }

      .cls-13 {
        fill: #fea801;
      }

      .cls-8, .cls-14, .cls-11, .cls-12 {
        mix-blend-mode: multiply;
      }

      .cls-8, .cls-15, .cls-11 {
        opacity: .3;
      }

      .cls-16 {
        fill: #fff;
      }

      .cls-17 {
        fill: #753225;
      }

      .cls-18 {
        fill: #6d8244;
      }

      .cls-19 {
        opacity: .4;
      }

      .cls-20 {
        opacity: .2;
      }

      .cls-21 {
        fill: #ed672d;
      }

      .cls-22 {
        fill: url(#New_Pattern_Swatch_1);
      }

      .cls-3 {
        stroke-width: .51px;
      }

      .cls-4 {
        stroke-width: .46px;
      }
    </style>
    <pattern id="New_Pattern_Swatch_1" data-name="New Pattern Swatch 1" x="0" y="0" width="289.5" height="168" patternTransform="translate(-145.32 -132)" patternUnits="userSpaceOnUse" viewBox="0 0 289.5 168">
      <g>
        <rect class="cls-1" x="0" y="0" width="289.5" height="168"/>
        <g>
          <g>
            <path class="cls-9" d="M282.08,79.85c.99-2.93,2.25-5.73,3.8-8.4,1.54-2.66,3.37-5.18,5.59-7.35,9.09-6.74,15.79-3.86,17.19-3.19,2.81,1.31,5.38,3.15,7.48,5.44,2.09,2.29,3.7,5.01,4.78,7.89,1.1,2.89,1.73,5.93,2,8.99.26,3.07.2,6.15-.22,9.21v.04s-.03.02-.03.02c-.45.3-.92.23-1.37.25-.45,0-.9-.05-1.35-.1-.89-.1-1.78-.24-2.66-.4-1.76-.32-3.51-.71-5.25-1.13-3.48-.83-6.93-1.81-10.34-2.87-3.41-1.08-6.81-2.19-10.16-3.47-1.67-.64-3.34-1.3-4.97-2.04-.81-.37-1.62-.76-2.41-1.2-.39-.22-.78-.45-1.15-.7-.35-.27-.76-.52-.93-.98Z"/>
            <path class="cls-17" d="M282.15,79.82v.05c.99-2.92,2.36-5.69,3.99-8.29,1.62-2.6,3.54-5,5.75-7.05l-.06.05c1.86-1.3,3.83-2.41,5.93-3.17,2.09-.76,4.33-1.09,6.51-.93,1.09.09,2.17.31,3.2.67,1.01.36,2.04.9,3.01,1.45,1.95,1.13,3.73,2.54,5.27,4.18,3.09,3.29,5.13,7.52,6.19,11.97.55,2.23.82,4.52.9,6.82.1,2.3-.03,4.61-.39,6.88l.11-.17c-.31.21-.68.21-1.13.2-.41,0-.84-.05-1.27-.11-.86-.11-1.7-.27-2.55-.44-1.69-.35-3.38-.76-5.05-1.21-3.35-.88-6.68-1.85-10.01-2.82-3.32-1-6.67-1.93-9.96-3.04-3.27-1.13-6.62-2.23-9.54-4.1-.36-.27-.75-.54-.9-.95ZM287.6,83.32c1.59.71,3.19,1.41,4.8,2.07,3.23,1.32,6.5,2.54,9.82,3.61,3.32,1.07,6.7,1.98,10.12,2.7,1.71.36,3.42.69,5.16.95.86.13,1.74.24,2.61.31.44.03.88.06,1.34.05.41,0,.97-.01,1.38-.32l.1-.07v-.1c.57-4.62.49-9.3-.38-13.89-.45-2.29-1.13-4.54-2.09-6.69-.97-2.15-2.26-4.15-3.83-5.94-1.58-1.77-3.44-3.29-5.47-4.51-1.03-.61-2.05-1.17-3.2-1.61-1.15-.43-2.35-.69-3.56-.78-2.42-.2-4.87.18-7.1,1.04-2.25.83-4.3,2.06-6.18,3.49l-.04.03-.02.02c-2.21,2.25-3.96,4.88-5.42,7.62-1.46,2.74-2.64,5.61-3.62,8.53v.03s0,.03,0,.03c.17.47.61.74.96,1.01,1.46.98,3.05,1.7,4.63,2.44Z"/>
          </g>
          <g>
            <g>
              <path class="cls-21" d="M263.62,104.77c-3.14,7.79-14.93,3.15-29.43-2.68-14.5-5.84-26.22-10.66-23.08-18.46,3.14-7.79,16.87-20.05,35.64-12.73,19.06,7.43,20.02,26.08,16.88,33.87Z"/>
              <path class="cls-17" d="M265.03,95.67c-.1-3.09-.71-6.17-1.8-9.07-1.11-2.89-2.65-5.65-4.74-7.97-.47-.63-1.06-1.13-1.62-1.68-.56-.54-1.11-1.1-1.75-1.54l-1.86-1.41-2-1.19c-5.38-3.09-11.66-4.67-17.87-4.3-6.22.46-12.19,3.17-16.73,7.37-2.27,2.11-4.24,4.58-5.5,7.43-.66,1.41-.84,3.07-.34,4.56.49,1.49,1.49,2.75,2.63,3.8,2.29,2.11,5.05,3.59,7.8,4.99,2.77,1.38,5.61,2.6,8.46,3.78,5.71,2.36,11.41,4.72,17.31,6.61,2.94.92,5.96,1.74,9.07,1.86,1.54.04,3.13-.1,4.54-.78,1.43-.65,2.47-1.94,3.04-3.37,1.11-2.89,1.48-6.02,1.39-9.11ZM260.57,108.08c-1.39.66-2.97.8-4.5.73-3.08-.18-6.06-1.05-8.99-2-2.92-.97-5.8-2.09-8.66-3.24l-8.59-3.44c-2.86-1.16-5.7-2.35-8.48-3.7-2.75-1.36-5.51-2.82-7.8-4.88-.57-.51-1.1-1.07-1.55-1.69-.45-.61-.84-1.29-1.06-2.02-.47-1.46-.29-3.07.37-4.44,1.27-2.8,3.24-5.24,5.5-7.31,4.55-4.14,10.48-6.68,16.59-7.13,6.11-.36,12.31,1.21,17.61,4.27,5.32,3,9.73,7.72,11.94,13.48,1.13,2.85,1.78,5.9,1.92,8.97.13,3.07-.2,6.19-1.27,9.09-.58,1.42-1.61,2.69-3.03,3.32Z"/>
            </g>
            <g>
              <ellipse class="cls-10" cx="237.26" cy="94.46" rx="28.31" ry="13.74" transform="translate(-18.11 95.43) rotate(-21.93)"/>
              <path class="cls-17" d="M264.03,102.96c.05-.71.01-1.43-.11-2.13-.25-1.41-.8-2.74-1.48-3.99-1.4-2.49-3.34-4.63-5.44-6.54-4.25-3.8-9.25-6.7-14.53-8.81-5.28-2.11-10.88-3.53-16.58-3.78-2.84-.11-5.73.1-8.48.92-1.37.43-2.7,1.02-3.86,1.87-.58.43-1.11.93-1.57,1.48-.45.57-.82,1.19-1.09,1.86-.26.68-.41,1.39-.48,2.1-.04.72,0,1.44.13,2.15.27,1.41.83,2.75,1.53,3.99,1.43,2.47,3.39,4.58,5.49,6.49,4.26,3.78,9.26,6.65,14.51,8.81,5.25,2.16,10.87,3.54,16.57,3.75,2.84.09,5.72-.13,8.45-.96,1.35-.43,2.67-1.01,3.83-1.84.57-.42,1.09-.91,1.56-1.45.44-.56.81-1.17,1.08-1.83.26-.66.42-1.36.5-2.07ZM262.41,106.83c-.46.53-.98,1.02-1.55,1.43-1.15.82-2.46,1.39-3.82,1.79-2.73.77-5.58.92-8.4.8-2.82-.13-5.62-.6-8.37-1.26-1.37-.35-2.73-.72-4.08-1.14-1.35-.43-2.68-.9-3.99-1.42-5.24-2.09-10.25-4.9-14.53-8.61-2.13-1.86-4.05-3.99-5.44-6.45-.68-1.23-1.22-2.55-1.47-3.93-.12-.69-.15-1.39-.11-2.09.07-.69.23-1.38.48-2.02.28-.64.64-1.24,1.07-1.78.46-.53.97-1,1.54-1.41,1.14-.81,2.44-1.37,3.78-1.77,2.7-.77,5.55-.94,8.36-.84,5.64.26,11.19,1.68,16.43,3.78,5.22,2.14,10.22,4.91,14.51,8.6,2.12,1.85,4.07,3.96,5.49,6.4.69,1.23,1.25,2.54,1.52,3.93.13.69.17,1.4.14,2.11-.06.7-.21,1.4-.46,2.06-.28.65-.65,1.26-1.09,1.81Z"/>
            </g>
            <path class="cls-11" d="M254.77,101.36c-2.13-4.2-5.6-7.42-9.57-9.87-2.07-1.27-4.24-2.36-6.46-3.34-1.93-.85-3.88-1.59-5.94-2.05-7.51-1.67-15.42.15-20.87,5.53,2.99,5.65,10.46,11.65,20.2,15.57,9.28,3.73,18.37,4.68,24.46,3.03.01-3.07-.43-6.12-1.82-8.88Z"/>
            <path class="cls-17" d="M237.11,94.28c1.41.78,2.65,1.85,3.71,3.06,1.01,1.26,1.87,2.61,2.73,3.97.86,1.36,1.4,2.93,1.68,4.52l.14,1.21-.03,1.22c0,.2,0,.4-.03.6l-.11.6c-.07.4-.16.79-.24,1.18h-.05c.02-.41.02-.81.04-1.2l.03-.59c0-.2-.03-.39-.03-.59l-.06-1.18-.19-1.16c-.28-1.54-.72-3.06-1.41-4.49-.65-1.45-1.66-2.72-2.79-3.82-1.09-1.14-2.22-2.25-3.44-3.28l.03-.04Z"/>
            <path class="cls-17" d="M237.55,93.94c2.43.09,4.84.51,7.18,1.17,2.32.72,4.59,1.58,6.83,2.53,1.12.48,2.21,1.03,3.24,1.68,1.03.65,2.04,1.36,2.92,2.21.9.83,1.71,1.76,2.38,2.79.66,1.03,1.19,2.15,1.55,3.31l-.04.02c-.5-1.1-1.1-2.14-1.81-3.11-.71-.97-1.54-1.83-2.41-2.64-1.77-1.6-3.8-2.92-5.95-4.02-2.13-1.14-4.47-1.86-6.82-2.38-2.34-.58-4.7-1.09-7.08-1.5v-.05Z"/>
            <path class="cls-17" d="M238.51,93.96c1.18-1.08,2.54-1.94,3.97-2.64.72-.34,1.48-.6,2.22-.89.38-.13.74-.29,1.11-.43.38-.12.75-.27,1.12-.41,1.51-.53,3.1-.84,4.72-.87,1.62.04,3.23.4,4.65,1.13l-.02.04c-1.53-.44-3.07-.67-4.63-.66-1.56.03-3.11.27-4.65.61-1.55.34-2.99,1.04-4.35,1.84-1.38.75-2.76,1.51-4.12,2.33l-.03-.04Z"/>
            <path class="cls-17" d="M236.75,93.02l.77-3.62c.15-.6.28-1.2.35-1.82.03-.31.03-.62.04-.92,0-.31-.04-.62-.06-.92-.16-1.22-.4-2.41-.85-3.53-.46-1.12-1.14-2.11-1.98-3.04l.03-.04c1.04.69,1.89,1.71,2.42,2.88.48,1.19.67,2.46.65,3.72,0,.31-.03.63-.03.94-.02.31-.05.62-.05.93-.04.62-.04,1.25-.12,1.87-.18,1.24-.54,2.45-1.12,3.57l-.04-.02Z"/>
            <path class="cls-17" d="M234.86,92.79c-.75-1.78-1.68-3.46-2.73-5.06l-.79-1.2c-.29-.38-.58-.77-.89-1.14-.64-.71-1.34-1.39-2.11-1.96l-.57-.44-.6-.39c-.4-.26-.78-.55-1.2-.78-.84-.46-1.66-.94-2.55-1.29-.85-.43-1.77-.72-2.67-1.04-.45-.18-.92-.27-1.38-.4l-1.4-.39v-.05c.96.14,1.94.22,2.88.48.93.27,1.89.51,2.77.94,1.81.75,3.45,1.87,4.88,3.18,1.42,1.32,2.77,2.72,3.95,4.28,1.13,1.59,1.99,3.38,2.44,5.27h-.05Z"/>
            <path class="cls-17" d="M232.85,92.62c-1.69-.98-3.42-1.87-5.17-2.72-1.72-.9-3.55-1.64-5.46-2.05-1.9-.44-3.82-.72-5.75-.85-1.93-.2-3.87-.07-5.82.03v-.05s1.44-.27,1.44-.27l.73-.12.74-.06,1.48-.09,1.48.05c1.97.14,3.92.49,5.79,1.11,1.86.62,3.72,1.21,5.55,1.94,1.8.79,3.51,1.79,5.03,3.04l-.03.04Z"/>
            <path class="cls-17" d="M232.93,94.53c-1.44-.11-2.86-.17-4.29-.22-.71-.03-1.43-.08-2.15-.04-.72.05-1.43.14-2.13.32-.7.14-1.39.36-2.08.53-.68.23-1.37.41-2.03.68-1.36.44-2.64,1.07-3.96,1.66l-.03-.04c1.16-.85,2.43-1.6,3.81-2.1,1.36-.51,2.79-.84,4.24-.98.72-.09,1.44-.13,2.16-.21.36-.03.72-.07,1.08-.12l1.09-.08c1.45-.03,2.91.14,4.3.57v.05Z"/>
            <g>
              <path class="cls-10" d="M243.81,96.93c-2.96,4.62-6.87,12.03-7.35,17.6-.38,4.32-.18,9.66-3.34,13.14-3.12,3.44-8.89,2.14-12.44.1-4.29-2.47-7.02-5.66-3.88-10.62,1.28-2.02,3.44-3.97,4.92-5.89,4.6-5.96,6.4-12.86,8.69-19.96,4.54-3.46,13.5,2.92,13.4,5.63Z"/>
              <path class="cls-17" d="M243.04,95.07c-.42-.54-.9-1.03-1.41-1.48-1.02-.91-2.19-1.65-3.41-2.25-1.23-.6-2.55-1.04-3.93-1.17-1.37-.14-2.85.11-3.99.98l-.05.04-.02.06c-1.18,3.53-2.22,7.09-3.58,10.53-1.36,3.44-3.06,6.75-5.34,9.65-1.15,1.43-2.48,2.74-3.65,4.21-1.16,1.45-2.16,3.16-2.34,5.08-.08.95.11,1.93.54,2.78.42.86,1.05,1.58,1.74,2.22,1.4,1.25,3.01,2.23,4.73,2.97.86.37,1.75.65,2.66.86.91.21,1.84.36,2.78.35,1.85,0,3.82-.5,5.18-1.86,1.38-1.31,2.21-3.08,2.71-4.88.49-1.82.67-3.69.8-5.54.15-1.86.16-3.71.6-5.5.41-1.8,1.02-3.55,1.7-5.26.69-1.72,1.48-3.4,2.34-5.04.85-1.65,1.76-3.26,2.73-4.86,0-.72-.4-1.32-.79-1.87ZM238.45,106.7c-.73,1.72-1.34,3.48-1.78,5.31-.46,1.83-.51,3.72-.64,5.56-.12,1.85-.3,3.69-.74,5.48-.46,1.77-1.23,3.5-2.53,4.79-.64.64-1.43,1.15-2.3,1.44-.87.3-1.79.42-2.71.43-1.84,0-3.68-.45-5.37-1.19-1.69-.74-3.28-1.74-4.64-2.98-.67-.63-1.27-1.34-1.66-2.16-.39-.82-.56-1.74-.47-2.63.19-1.81,1.17-3.45,2.34-4.85,1.17-1.42,2.5-2.72,3.69-4.17,2.34-2.93,4.1-6.28,5.45-9.76,1.37-3.47,2.4-7.05,3.5-10.59l-.07.1c1.03-.81,2.41-1.08,3.72-.97,1.33.11,2.63.51,3.85,1.08,1.22.57,2.37,1.29,3.41,2.15.52.43,1.01.9,1.44,1.42.4.52.81,1.12.84,1.78-2.04,3.09-3.88,6.35-5.34,9.78Z"/>
            </g>
            <path class="cls-11" d="M221.55,125.38c-1.04-2.93-.07-6.39.95-9.19,1.39-3.81,3.2-7.52,5.33-10.96,1.67-2.69,3.53-5.4,5.6-7.8,1.71-1.99,3.83-4.15,6.49-4.71.06-.05.12-.11.18-.16-2.97-1.97-7.07-3.26-9.7-1.26-2.29,7.1-4.08,14-8.69,19.96-1.48,1.92-3.64,3.86-4.92,5.89-3.14,4.96-.41,8.15,3.88,10.62,1.36.79,3.06,1.46,4.8,1.8-1.76-.93-3.25-2.27-3.93-4.19Z"/>
            <g>
              <path class="cls-16" d="M250.55,74.52c-.57,1.42-2.95,1.3-5.53.26s-4.38-2.6-3.81-4.02,3.29-2.15,5.87-1.11c2.58,1.04,4.03,3.45,3.46,4.87Z"/>
              <path class="cls-17" d="M249.88,71.53c-.62-.88-1.5-1.58-2.49-2.02-.99-.45-2.09-.63-3.17-.56-.54.04-1.08.16-1.58.36-.5.2-.98.52-1.31.98-.17.22-.27.49-.31.77-.04.28.02.56.1.82.2.51.57.91.95,1.28.79.7,1.69,1.28,2.66,1.72.96.43,2,.75,3.07.81.53.03,1.08,0,1.59-.16.51-.15.98-.49,1.18-.99.36-1.03-.09-2.14-.68-3ZM249.35,75.4c-.5.1-1.02.07-1.52-.02-1-.19-1.99-.5-2.95-.88-.96-.37-1.92-.8-2.7-1.48-.39-.33-.73-.74-.9-1.21-.17-.48-.06-1,.26-1.37.65-.75,1.73-.99,2.71-1.05,1.01-.03,2.02.17,2.93.58.93.39,1.76,1,2.45,1.74.34.38.63.81.82,1.29.19.47.25,1.02.07,1.51-.2.48-.67.8-1.17.89Z"/>
            </g>
            <g>
              <path class="cls-16" d="M258.57,85.91c-.81.87-2.5.13-4.09-1.34-1.59-1.47-2.47-3.1-1.66-3.97.81-.87,2.99-.66,4.58.81,1.59,1.47,1.98,3.63,1.18,4.5Z"/>
              <path class="cls-17" d="M258.95,83.54c-.2-.82-.64-1.58-1.25-2.18-.6-.61-1.36-1.04-2.17-1.29-.8-.22-1.75-.3-2.5.2-.38.24-.6.69-.6,1.12.01.43.17.83.34,1.2.38.73.87,1.41,1.45,2.01.58.58,1.25,1.11,2.02,1.43.38.16.79.29,1.21.31.42.03.86-.09,1.14-.4.54-.65.54-1.58.36-2.39ZM257.46,86.21c-.39-.07-.75-.24-1.09-.45-.67-.43-1.29-.92-1.89-1.45-.6-.52-1.19-1.09-1.57-1.8-.2-.35-.32-.74-.32-1.12,0-.39.24-.73.57-.9.67-.35,1.51-.22,2.23,0,.73.26,1.4.68,1.95,1.22.56.53,1,1.19,1.31,1.91.29.7.44,1.62-.09,2.26-.28.3-.7.4-1.09.31Z"/>
            </g>
            <g>
              <path class="cls-16" d="M265.53,95.2c-.86.35-1.82-.75-2.45-2.33-.63-1.57-.7-3.03.16-3.37.86-.35,2.34.54,2.97,2.12.63,1.57.18,3.24-.68,3.58Z"/>
              <path class="cls-17" d="M266.63,93.66c.16-.65.1-1.35-.13-1.99-.22-.64-.62-1.21-1.12-1.66-.5-.43-1.16-.8-1.88-.69-.36.04-.67.3-.81.61-.14.31-.16.65-.16.97.01.65.12,1.3.32,1.92.2.62.51,1.21.96,1.7.22.24.48.47.77.62.29.16.64.22.95.09.61-.28.94-.93,1.09-1.57ZM264.65,95.03c-.25-.19-.44-.43-.6-.69-.32-.53-.58-1.09-.83-1.66-.25-.57-.49-1.16-.54-1.79-.02-.31.02-.63.16-.89.13-.27.41-.42.69-.43.58,0,1.12.36,1.54.76.42.42.75.95.95,1.51.22.56.3,1.16.3,1.77-.02.59-.21,1.3-.8,1.57-.29.11-.63.04-.87-.15Z"/>
            </g>
            <g>
              <path class="cls-16" d="M245.87,79.98c-.35.86-1.8.78-3.37.15-1.57-.64-2.67-1.6-2.32-2.46s2.02-1.31,3.59-.67c1.57.64,2.46,2.12,2.1,2.98Z"/>
              <path class="cls-17" d="M245.52,78.12c-.36-.57-.91-1.01-1.52-1.29-.61-.29-1.3-.39-1.98-.35-.66.06-1.38.28-1.8.87-.22.29-.25.69-.12,1.01.13.32.36.57.59.79.48.44,1.02.82,1.61,1.11.59.28,1.23.47,1.89.49.33,0,.67-.02.98-.13.31-.1.6-.31.73-.62.22-.63-.02-1.32-.37-1.88ZM245.13,80.49c-.3.05-.62.02-.92-.05-.6-.14-1.19-.34-1.77-.55-.58-.21-1.18-.45-1.66-.85-.24-.2-.44-.45-.53-.73-.1-.28-.02-.59.17-.79.4-.42,1.03-.55,1.62-.58.6,0,1.2.12,1.74.36.55.23,1.05.59,1.48,1.02.41.42.79,1.05.58,1.66-.12.29-.41.48-.71.52Z"/>
            </g>
            <g>
              <path class="cls-16" d="M221.94,74.05c.32.87-.8,1.8-2.39,2.38-1.59.59-3.05.62-3.37-.25-.32-.87.61-2.32,2.2-2.91,1.59-.59,3.24-.09,3.56.78Z"/>
              <path class="cls-17" d="M220.42,72.91c-.65-.18-1.35-.13-1.99.08-.65.2-1.23.59-1.69,1.08-.44.49-.83,1.14-.74,1.86.03.36.28.68.59.83.31.15.64.18.97.19.65,0,1.31-.08,1.93-.27.62-.19,1.23-.48,1.73-.92.25-.22.48-.46.64-.76.16-.29.23-.64.12-.95-.26-.61-.91-.96-1.54-1.13ZM221.74,74.92c-.19.24-.44.43-.71.58-.54.3-1.1.55-1.68.79-.57.24-1.17.46-1.8.49-.31.01-.63-.04-.89-.18-.27-.14-.41-.42-.41-.7,0-.58.39-1.1.8-1.52.44-.41.97-.72,1.53-.91.56-.2,1.17-.27,1.78-.25.59.04,1.29.24,1.55.84.11.3.02.63-.18.87Z"/>
            </g>
            <g>
              <path class="cls-16" d="M233.99,73.11c-.17,1.18-1.99,1.52-4.13,1.22-2.14-.31-3.79-1.16-3.62-2.33.17-1.18,2.09-2.23,4.23-1.93s3.69,1.87,3.52,3.04Z"/>
              <path class="cls-17" d="M232.96,70.94c-.63-.56-1.43-.94-2.26-1.09-.84-.16-1.71-.09-2.52.17-.79.27-1.61.74-1.95,1.58-.18.41-.1.91.14,1.26.25.35.6.59.96.8.73.39,1.52.67,2.33.83.81.15,1.66.21,2.48.03.41-.08.82-.21,1.17-.44.36-.21.65-.56.71-.98.08-.84-.45-1.61-1.06-2.17ZM233.24,73.98c-.36.16-.76.23-1.15.25-.79.02-1.59-.02-2.38-.13-.79-.09-1.6-.23-2.31-.59-.36-.17-.68-.42-.9-.74-.21-.32-.22-.73-.04-1.06.36-.67,1.12-1.04,1.84-1.26.75-.2,1.54-.23,2.3-.1.77.12,1.5.42,2.16.84.63.42,1.28,1.09,1.2,1.92-.06.4-.36.73-.72.88Z"/>
            </g>
            <g class="cls-19">
              <path class="cls-5" d="M234.62,117.93c-.08,1.65-.28,3.31-.85,4.73-.54,1.43-1.48,2.59-2.48,3.23-.99.65-1.97.83-2.62.8-.65-.04-.97-.22-.96-.32.02-.11.36-.14.9-.28.54-.15,1.29-.45,2.02-1.08.74-.63,1.39-1.59,1.79-2.83.42-1.24.57-2.71.64-4.32.07-1.6.15-3.23.47-4.67.31-1.44.77-2.69,1.26-3.68.98-1.99,1.97-2.96,2.12-2.85.2.13-.44,1.3-1.11,3.27-.33.99-.66,2.18-.87,3.52-.22,1.34-.25,2.84-.33,4.49Z"/>
            </g>
          </g>
          <g>
            <g>
              <path class="cls-18" d="M300.75,134.91c3.79,2.08,7.53,4.84,10.56,7.88-5.81,2.36-14.99,3.54-20.43-.17-2.01-1.37-9.04-6.15-10.83-7.05,6.81-3.43,16.21-3.13,20.69-.67Z"/>
              <path class="cls-17" d="M300.77,134.87c.97.53,1.92,1.09,2.86,1.66.94.58,1.88,1.17,2.78,1.8.91.63,1.8,1.29,2.67,1.98.86.71,1.68,1.45,2.48,2.22l.38.37-.5.2c-2.67,1.08-5.5,1.71-8.35,1.92-2.85.22-5.74.14-8.51-.6-1.38-.38-2.73-.93-3.94-1.72l-3.58-2.31c-2.39-1.51-4.76-3.14-7.19-4.47l-.7-.38.7-.36c1.62-.83,3.35-1.4,5.11-1.81,1.76-.42,3.56-.62,5.36-.66,1.8-.03,3.6.13,5.36.46,1.75.36,3.5.82,5.07,1.68ZM300.73,134.94c-1.58-.8-3.32-1.26-5.08-1.46-1.76-.22-3.53-.21-5.28-.09-1.76.12-3.5.39-5.2.79-1.7.4-3.36.99-4.92,1.76v-.74c1.3.71,2.45,1.5,3.65,2.28,1.19.78,2.36,1.59,3.52,2.4,1.17.81,2.32,1.64,3.48,2.47,1.14.8,2.41,1.42,3.77,1.81,1.35.41,2.76.61,4.17.66.7.04,1.41.01,2.12,0,.7-.06,1.41-.11,2.11-.21,1.4-.19,2.78-.46,4.14-.84,1.36-.35,2.7-.79,4-1.3l-.12.57c-.76-.79-1.55-1.54-2.37-2.27-.81-.74-1.64-1.46-2.5-2.14-1.72-1.37-3.53-2.63-5.47-3.68Z"/>
            </g>
            <path class="cls-2" d="M280.09,135.85c3.63.26,27.98,4.52,30.85,6.86"/>
          </g>
          <g>
            <g>
              <path class="cls-10" d="M259.83,160.14c.62,3.64-2.27,15.15-2.99,17.11-.39,1.08-1.02,2.67-.56,3.77.32.76,1.5.97,2.24.68,1.18-.45,1.5-1.74,1.76-2.83.42-1.74,2.77-14.15,1.01-18.17-.19-.44-.76-.29-1.46-.55Z"/>
              <path class="cls-17" d="M261.15,160.63c.16.41.31.9.37,1.38.18.96.18,1.94.2,2.92-.01,1.96-.21,3.92-.42,5.87-.24,1.95-.51,3.9-.84,5.84-.18.97-.33,1.94-.57,2.88-.22.92-.7,1.85-1.62,2.09-.86.25-2.07-.16-2.05-1.22-.09-.96.25-1.92.59-2.83.67-1.87,1.19-3.78,1.68-5.69.47-1.92.85-3.86,1.14-5.82.25-1.94.54-3.98.2-5.9.38.23,1.03.16,1.31.47ZM259.24,166c-.34,1.94-.76,3.86-1.17,5.79-.43,1.92-.78,3.87-1.43,5.73-.31.93-.68,1.89-.61,2.91.02.5.28,1.06.78,1.29.47.24,1.01.3,1.53.19.52-.12.98-.44,1.29-.87.31-.42.5-.91.65-1.39.29-.96.48-1.94.67-2.91.37-1.94.68-3.9.89-5.87.22-1.97.35-3.95.29-5.94-.05-.99-.11-1.99-.35-2.97-.09-.5-.27-.95-.51-1.43-.21-.23-.49-.23-.73-.27-.26-.03-.46-.07-.74-.14.12,2.01-.25,3.93-.57,5.88Z"/>
            </g>
            <g>
              <path class="cls-7" d="M250.09,164.92c-.83-1.66,6.65-11.91,8.56-13.55,1.31-1.13,2.8-2.06,4.61-1.83,3.85.48,7.03,8.09,7.92,10.49.78,2.1,2.13,5.24-.9,6.07-3.76,1.03-7.14-1.11-10.8-1.47-2.96-.29-8.56,1.95-9.39.28Z"/>
              <path class="cls-17" d="M250.87,165.48c.32.08.65.1.98.09.66,0,1.31-.1,1.96-.19,1.3-.2,2.58-.46,3.88-.59,1.3-.18,2.58.04,3.84.37,1.26.33,2.51.71,3.79,1.02,1.28.29,2.62.48,3.95.28.65-.1,1.33-.22,1.93-.58.61-.35,1.02-1.02,1.08-1.71.13-1.39-.42-2.65-.87-3.86-.46-1.23-.98-2.44-1.56-3.61-1.17-2.33-2.5-4.68-4.58-6.34-.53-.39-1.12-.73-1.78-.85-.66-.13-1.34-.1-1.98.08-1.3.36-2.39,1.18-3.35,2.09-1.82,1.92-3.32,4.07-4.78,6.25-.72,1.09-1.42,2.2-2.06,3.35-.32.57-.62,1.16-.88,1.76-.13.3-.25.61-.33.93-.08.31-.17.66-.03.98.15.3.47.48.79.55ZM250.16,163.97c.09-.31.22-.61.35-.91.27-.59.58-1.17.91-1.73.66-1.13,1.38-2.22,2.12-3.3.75-1.07,1.52-2.13,2.32-3.16.81-1.03,1.59-2.08,2.48-3.02.91-.9,1.98-1.72,3.22-2.08.61-.18,1.27-.22,1.9-.11.63.11,1.22.42,1.74.8,1.06.76,1.87,1.82,2.59,2.9.72,1.09,1.34,2.24,1.9,3.42.56,1.18,1.05,2.39,1.49,3.62.43,1.22.93,2.48.81,3.74-.07.62-.4,1.18-.94,1.48-.53.32-1.18.44-1.81.53-1.27.18-2.57,0-3.84-.29-2.5-.57-5.05-1.69-7.73-1.27-1.31.17-2.58.46-3.87.68-.64.11-1.29.21-1.94.23-.61,0-1.4,0-1.74-.59-.12-.3-.03-.64.05-.95Z"/>
            </g>
            <path class="cls-8" d="M271.18,160.03c-.31-.84-.9-2.31-1.7-3.9-3.13,6.45-11.56,6.55-17.75,4.55-1.17,1.98-1.92,3.64-1.63,4.23.83,1.66,6.43-.57,9.39-.28,3.65.35,7.03,2.5,10.8,1.47,3.03-.83,1.68-3.96.9-6.07Z"/>
            <g class="cls-15">
              <path class="cls-16" d="M257.82,153.75c.87-1.12,2.1-1.85,3.06-2,.97-.17,1.55.12,1.51.25-.02.16-.56.18-1.3.5-.74.31-1.64.95-2.42,1.95-1.56,2-2.54,3.99-2.87,3.83-.13-.07-.03-.61.28-1.45.32-.83.85-1.97,1.73-3.08Z"/>
            </g>
          </g>
          <g class="cls-14">
            <path class="cls-6" d="M281.2,99.32c1.15-1,1.25-2.85-.1-3.53-1.09-.55-2.13.24-2.57,1.35-.82-1.08-2.38-1.41-3.25-.34-.96,1.17.1,2.72,1.51,3.18-1.23.8-1.62,2.52-.46,3.41,1.13.87,2.54-.06,3.05-1.36.95,1.24,2.85,1.43,3.59.08.67-1.23-.43-2.46-1.77-2.78Z"/>
          </g>
          <g class="cls-14">
            <path class="cls-6" d="M275.28,138.57c.73-.63.79-1.8-.06-2.23-.69-.35-1.35.15-1.62.85-.52-.68-1.5-.89-2.05-.22-.61.74.06,1.71.95,2.01-.77.5-1.02,1.59-.29,2.15.71.55,1.6-.04,1.92-.86.6.79,1.8.9,2.26.05.42-.78-.27-1.55-1.11-1.76Z"/>
          </g>
          <g class="cls-14">
            <path class="cls-6" d="M236.75,142.25c.73-.63.79-1.8-.06-2.23-.69-.35-1.35.15-1.62.85-.52-.68-1.5-.89-2.05-.22-.61.74.06,1.71.95,2.01-.77.5-1.02,1.59-.29,2.15.71.55,1.6-.04,1.92-.86.6.79,1.8.9,2.26.05.42-.78-.27-1.55-1.11-1.76Z"/>
          </g>
        </g>
        <g>
          <g>
            <g>
              <path class="cls-10" d="M154.94,162.43c-1.8,6.39-3.33,12.7-6.04,18.69-1.47,3.24-3.4,6.1-2.39,9.81,1.14,4.15,6.64,5.64,8.5,1.24,1.97-4.66,1.39-10.42,2.55-15.38,1.06-4.53,2.42-8.6,3.87-12.68-1.03.18-5.55-1.03-6.49-1.68Z"/>
              <path class="cls-17" d="M154.95,162.45c-1.37,5.65-2.77,11.41-5.01,16.86-.55,1.36-1.2,2.7-1.87,4-.65,1.31-1.28,2.63-1.57,4.05-.3,1.42-.18,2.92.35,4.26.31.65.72,1.26,1.24,1.75.53.48,1.16.87,1.83,1.1,1.35.44,2.96.18,3.92-.88.13-.11.25-.25.34-.4.1-.15.21-.28.3-.43.15-.32.34-.62.45-.97.26-.67.47-1.37.63-2.08.66-2.83.77-5.76,1.04-8.69.13-1.47.34-2.94.68-4.38.34-1.43.72-2.86,1.13-4.27.85-2.82,1.84-5.59,2.85-8.34l.19.22c-.63.05-1.17-.08-1.73-.18-.56-.12-1.1-.25-1.65-.41-.54-.16-1.08-.33-1.61-.52-.52-.2-1.09-.4-1.52-.7ZM154.93,162.4c.53.28,1.04.45,1.58.62.54.16,1.08.31,1.62.44.55.12,1.09.25,1.64.35.54.09,1.12.19,1.62.14l.27-.03-.09.25c-.94,2.78-1.84,5.57-2.62,8.39-.4,1.41-.77,2.82-1.1,4.24-.33,1.41-.5,2.86-.66,4.31-.32,2.9-.42,5.87-1.19,8.74-.19.72-.42,1.43-.7,2.11-.12.35-.33.68-.5,1.01-.1.16-.23.31-.34.46-.11.16-.23.3-.38.42-1.08,1.13-2.83,1.35-4.23.84-.71-.26-1.35-.66-1.9-1.17-.54-.52-.95-1.15-1.27-1.83-.57-1.38-.7-2.91-.43-4.38.25-1.47.84-2.85,1.46-4.18.62-1.33,1.22-2.66,1.77-4.01,2.21-5.42,3.64-11.09,5.45-16.73Z"/>
            </g>
            <g>
              <path class="cls-9" d="M137.33,163.85c.99-2.93,2.25-5.73,3.8-8.4,1.54-2.66,3.37-5.18,5.59-7.35,9.09-6.74,15.79-3.86,17.19-3.19,2.81,1.31,5.38,3.15,7.48,5.44,2.09,2.29,3.7,5.01,4.78,7.89,1.1,2.89,1.73,5.93,2,8.99.26,3.07.2,6.15-.22,9.21v.04s-.03.02-.03.02c-.45.3-.92.23-1.37.25-.45,0-.9-.05-1.35-.1-.89-.1-1.78-.24-2.66-.4-1.76-.32-3.51-.71-5.25-1.13-3.48-.83-6.93-1.81-10.34-2.87-3.41-1.08-6.81-2.19-10.16-3.47-1.67-.64-3.34-1.3-4.97-2.04-.81-.37-1.62-.76-2.41-1.2-.39-.22-.78-.45-1.15-.7-.35-.27-.76-.52-.93-.98Z"/>
              <path class="cls-17" d="M137.4,163.82v.05c.99-2.92,2.36-5.69,3.99-8.29,1.62-2.6,3.54-5,5.75-7.05l-.06.05c1.86-1.3,3.83-2.41,5.93-3.17,2.09-.76,4.33-1.09,6.51-.93,1.09.09,2.17.31,3.2.67,1.01.36,2.04.9,3.01,1.45,1.95,1.13,3.73,2.54,5.27,4.18,3.09,3.29,5.13,7.52,6.19,11.97.55,2.23.82,4.52.9,6.82.1,2.3-.03,4.61-.39,6.88l.11-.17c-.31.21-.68.21-1.13.2-.41,0-.84-.05-1.27-.11-.86-.11-1.7-.27-2.55-.44-1.69-.35-3.38-.76-5.05-1.21-3.35-.88-6.68-1.85-10.01-2.82-3.32-1-6.67-1.93-9.96-3.04-3.27-1.13-6.62-2.23-9.54-4.1-.36-.27-.75-.54-.9-.95ZM142.85,167.32c1.59.71,3.19,1.41,4.8,2.07,3.23,1.32,6.5,2.54,9.82,3.61,3.32,1.07,6.7,1.98,10.12,2.7,1.71.36,3.42.69,5.16.95.86.13,1.74.24,2.61.31.44.03.88.06,1.34.05.41,0,.97-.01,1.38-.32l.1-.07v-.1c.57-4.62.49-9.3-.38-13.89-.45-2.29-1.13-4.54-2.09-6.69-.97-2.15-2.26-4.15-3.83-5.94-1.58-1.77-3.44-3.29-5.47-4.51-1.03-.61-2.05-1.17-3.2-1.61-1.15-.43-2.35-.69-3.56-.78-2.42-.2-4.87.18-7.1,1.04-2.25.83-4.3,2.06-6.18,3.49l-.04.03-.02.02c-2.21,2.25-3.96,4.88-5.42,7.62-1.46,2.74-2.64,5.61-3.62,8.53v.03s0,.03,0,.03c.17.47.61.74.96,1.01,1.46.98,3.05,1.7,4.63,2.44Z"/>
            </g>
            <path class="cls-8" d="M171.86,154.73c-.39,1.38-2.98,1.85-5.8,1.06-2.82-.79-4.79-2.55-4.4-3.93.39-1.38,2.98-1.85,5.8-1.06,2.82.79,4.79,2.55,4.4,3.93Z"/>
            <path class="cls-8" d="M169.17,161.14c-.21.75-1.62,1-3.15.57-1.53-.43-2.6-1.38-2.39-2.13.21-.75,1.62-1,3.15-.57,1.53.43,2.6,1.38,2.39,2.13Z"/>
            <path class="cls-8" d="M174.08,159.59c-.15.52-1.14.71-2.21.4-1.07-.3-1.82-.97-1.68-1.5.15-.52,1.14-.71,2.21-.4,1.07.3,1.82.97,1.68,1.5Z"/>
            <path class="cls-8" d="M169.35,166.64c-.15.52-1.14.71-2.21.4-1.07-.3-1.82-.97-1.68-1.5.15-.52,1.14-.71,2.21-.4,1.07.3,1.82.97,1.68,1.5Z"/>
            <g class="cls-20">
              <path class="cls-16" d="M152.05,147.43c2.43-1.44,5.03-1.73,6.81-1.54,1.8.19,2.79.79,2.72.96-.07.22-1.11.02-2.75.11-1.63.09-3.9.51-6.01,1.77-2.11,1.31-3.78,2.91-4.77,4.21-1.01,1.31-1.54,2.25-1.75,2.16-.18-.07,0-1.17.85-2.75.85-1.59,2.55-3.48,4.89-4.93Z"/>
            </g>
          </g>
          <g>
            <g>
              <path class="cls-21" d="M118.87,188.77c-3.14,7.79-14.93,3.15-29.43-2.68-14.5-5.84-26.22-10.66-23.08-18.46,3.14-7.79,16.87-20.05,35.64-12.73,19.06,7.43,20.02,26.08,16.88,33.87Z"/>
              <path class="cls-17" d="M120.28,179.67c-.1-3.09-.71-6.17-1.8-9.07-1.11-2.89-2.65-5.65-4.74-7.97-.47-.63-1.06-1.13-1.62-1.68-.56-.54-1.11-1.1-1.75-1.54l-1.86-1.41-2-1.19c-5.38-3.09-11.66-4.67-17.87-4.3-6.22.46-12.19,3.17-16.73,7.37-2.27,2.11-4.24,4.58-5.5,7.43-.66,1.41-.84,3.07-.34,4.56.49,1.49,1.49,2.75,2.63,3.8,2.29,2.11,5.05,3.59,7.8,4.99,2.77,1.38,5.61,2.6,8.46,3.78,5.71,2.36,11.41,4.72,17.31,6.61,2.94.92,5.96,1.74,9.07,1.86,1.54.04,3.13-.1,4.54-.78,1.43-.65,2.47-1.94,3.04-3.37,1.11-2.89,1.48-6.02,1.39-9.11ZM115.82,192.08c-1.39.66-2.97.8-4.5.73-3.08-.18-6.06-1.05-8.99-2-2.92-.97-5.8-2.09-8.66-3.24l-8.59-3.44c-2.86-1.16-5.7-2.35-8.48-3.7-2.75-1.36-5.51-2.82-7.8-4.88-.57-.51-1.1-1.07-1.55-1.69-.45-.61-.84-1.29-1.06-2.02-.47-1.46-.29-3.07.37-4.44,1.27-2.8,3.24-5.24,5.5-7.31,4.55-4.14,10.48-6.68,16.59-7.13,6.11-.36,12.31,1.21,17.61,4.27,5.32,3,9.73,7.73,11.94,13.48,1.13,2.85,1.78,5.9,1.92,8.97.13,3.07-.2,6.19-1.27,9.09-.58,1.42-1.61,2.69-3.03,3.32Z"/>
            </g>
            <g>
              <ellipse class="cls-10" cx="92.51" cy="178.46" rx="28.31" ry="13.74" transform="translate(-59.95 47.46) rotate(-21.93)"/>
              <path class="cls-17" d="M119.28,186.96c.05-.71.01-1.43-.11-2.13-.25-1.41-.8-2.74-1.48-3.99-1.4-2.49-3.34-4.63-5.44-6.54-4.25-3.8-9.25-6.7-14.53-8.81-5.28-2.11-10.88-3.53-16.58-3.78-2.84-.11-5.73.1-8.48.92-1.37.43-2.7,1.02-3.86,1.87-.58.43-1.11.93-1.57,1.48-.45.57-.82,1.19-1.09,1.86-.26.68-.41,1.39-.48,2.1-.04.72,0,1.44.13,2.15.27,1.41.83,2.75,1.53,3.99,1.43,2.47,3.39,4.58,5.49,6.49,4.26,3.78,9.26,6.65,14.51,8.81,5.25,2.16,10.87,3.54,16.57,3.75,2.84.09,5.72-.13,8.45-.96,1.35-.43,2.67-1.01,3.83-1.84.57-.42,1.09-.91,1.56-1.45.44-.56.81-1.17,1.08-1.83.26-.66.42-1.36.5-2.07ZM117.66,190.83c-.46.53-.98,1.02-1.55,1.43-1.15.82-2.46,1.39-3.82,1.79-2.73.77-5.58.92-8.4.8-2.82-.13-5.62-.6-8.37-1.26-1.37-.35-2.73-.72-4.08-1.14-1.35-.43-2.68-.9-3.99-1.42-5.24-2.09-10.25-4.9-14.53-8.61-2.13-1.86-4.05-3.99-5.44-6.45-.68-1.23-1.22-2.55-1.47-3.93-.12-.69-.15-1.39-.11-2.09.07-.69.23-1.38.48-2.02.28-.64.64-1.24,1.07-1.78.46-.53.97-1,1.54-1.41,1.14-.81,2.44-1.37,3.78-1.77,2.7-.77,5.55-.94,8.36-.84,5.64.26,11.19,1.68,16.43,3.78,5.22,2.14,10.22,4.91,14.51,8.6,2.12,1.85,4.07,3.96,5.49,6.4.69,1.23,1.25,2.54,1.52,3.93.13.69.17,1.4.14,2.11-.06.7-.21,1.4-.46,2.06-.28.65-.65,1.26-1.09,1.81Z"/>
            </g>
            <path class="cls-17" d="M92,177.02l.77-3.62c.15-.6.28-1.2.35-1.82.03-.31.03-.62.04-.92,0-.31-.04-.62-.06-.92-.16-1.22-.4-2.41-.85-3.53-.46-1.12-1.14-2.11-1.98-3.04l.03-.04c1.04.69,1.89,1.71,2.42,2.88.48,1.19.67,2.46.65,3.72,0,.31-.03.63-.03.94-.02.31-.05.62-.05.93-.04.62-.04,1.25-.12,1.87-.18,1.24-.54,2.45-1.12,3.57l-.04-.02Z"/>
            <path class="cls-17" d="M90.11,176.79c-.75-1.78-1.68-3.46-2.73-5.06l-.79-1.2c-.29-.38-.58-.77-.89-1.14-.64-.71-1.34-1.39-2.11-1.96l-.57-.44-.6-.39c-.4-.26-.78-.55-1.2-.78-.84-.46-1.66-.94-2.55-1.29-.85-.43-1.77-.72-2.67-1.04-.45-.18-.92-.27-1.38-.4l-1.4-.39v-.05c.96.14,1.94.22,2.88.48.93.27,1.89.51,2.77.94,1.81.75,3.45,1.87,4.88,3.18,1.42,1.32,2.77,2.72,3.95,4.28,1.13,1.59,1.99,3.38,2.44,5.27h-.05Z"/>
            <g>
              <path class="cls-16" d="M105.8,158.52c-.57,1.42-2.95,1.3-5.53.26s-4.38-2.6-3.81-4.02,3.29-2.15,5.87-1.11c2.58,1.04,4.03,3.45,3.46,4.87Z"/>
              <path class="cls-17" d="M105.13,155.53c-.62-.88-1.5-1.58-2.49-2.02-.99-.45-2.09-.63-3.17-.56-.54.04-1.08.16-1.58.36-.5.2-.98.52-1.31.98-.17.22-.27.49-.31.77-.04.28.02.56.1.82.2.51.57.91.95,1.28.79.7,1.69,1.28,2.66,1.72.96.43,2,.75,3.07.81.53.03,1.08,0,1.59-.16.51-.15.98-.49,1.18-.99.36-1.03-.09-2.14-.68-3ZM104.6,159.4c-.5.1-1.02.07-1.52-.02-1-.19-1.99-.5-2.95-.88-.96-.37-1.92-.8-2.7-1.48-.39-.33-.73-.74-.9-1.21-.17-.48-.06-1,.26-1.37.65-.75,1.73-.99,2.71-1.05,1.01-.03,2.02.17,2.93.58.93.39,1.76,1,2.45,1.74.34.38.63.81.82,1.29.19.47.25,1.02.07,1.51-.2.48-.67.8-1.17.89Z"/>
            </g>
            <g>
              <path class="cls-16" d="M113.82,169.91c-.81.87-2.5.13-4.09-1.34-1.59-1.47-2.47-3.1-1.66-3.97.81-.87,2.99-.66,4.58.81,1.59,1.47,1.98,3.63,1.18,4.5Z"/>
              <path class="cls-17" d="M114.2,167.54c-.2-.82-.64-1.58-1.25-2.18-.6-.61-1.36-1.04-2.17-1.29-.8-.22-1.75-.3-2.5.2-.38.24-.6.69-.6,1.12.01.43.17.83.34,1.2.38.73.87,1.41,1.45,2.01.58.58,1.25,1.11,2.02,1.43.38.16.79.29,1.21.31.42.03.86-.09,1.14-.4.54-.65.54-1.58.36-2.39ZM112.71,170.21c-.39-.07-.75-.24-1.09-.45-.67-.43-1.29-.92-1.89-1.45-.6-.52-1.19-1.09-1.57-1.8-.2-.35-.32-.74-.32-1.12,0-.39.24-.73.57-.9.67-.35,1.51-.22,2.23,0,.73.26,1.4.68,1.95,1.22.56.53,1,1.19,1.31,1.91.29.7.44,1.62-.09,2.26-.28.3-.7.4-1.09.31Z"/>
            </g>
            <g>
              <path class="cls-16" d="M101.12,163.98c-.35.86-1.8.78-3.37.15-1.57-.64-2.67-1.6-2.32-2.46s2.02-1.31,3.59-.67c1.57.64,2.46,2.12,2.1,2.98Z"/>
              <path class="cls-17" d="M100.77,162.12c-.36-.57-.91-1.01-1.52-1.29-.61-.29-1.3-.39-1.98-.35-.66.06-1.38.28-1.8.87-.22.29-.25.69-.12,1.01.13.32.36.57.59.79.48.44,1.02.82,1.61,1.11.59.28,1.23.47,1.89.49.33,0,.67-.02.98-.13.31-.1.6-.31.73-.62.22-.63-.02-1.32-.37-1.88ZM100.38,164.49c-.3.05-.62.02-.92-.05-.6-.14-1.19-.34-1.77-.55-.58-.21-1.18-.45-1.66-.86-.24-.2-.44-.45-.53-.73-.1-.28-.02-.59.17-.79.4-.42,1.03-.55,1.62-.58.6,0,1.2.12,1.74.36.55.23,1.05.59,1.48,1.02.41.42.79,1.05.58,1.66-.12.29-.41.48-.71.52Z"/>
            </g>
            <g>
              <path class="cls-16" d="M77.19,158.05c.32.87-.8,1.8-2.39,2.38-1.59.59-3.05.62-3.37-.25-.32-.87.61-2.32,2.2-2.91,1.59-.59,3.24-.09,3.56.78Z"/>
              <path class="cls-17" d="M75.67,156.91c-.65-.18-1.35-.13-1.99.08-.65.2-1.23.59-1.69,1.08-.44.49-.83,1.14-.74,1.86.03.36.28.68.59.83.31.15.64.18.97.19.65,0,1.31-.08,1.93-.27.62-.19,1.23-.48,1.73-.92.25-.22.48-.46.64-.76.16-.29.23-.64.12-.95-.26-.61-.91-.96-1.54-1.13ZM76.99,158.92c-.19.24-.44.43-.71.58-.54.3-1.1.55-1.68.79-.57.24-1.17.46-1.8.49-.31.01-.63-.04-.89-.18-.27-.14-.41-.42-.41-.7,0-.58.39-1.1.8-1.52.44-.41.97-.72,1.53-.91.56-.2,1.17-.27,1.78-.25.59.04,1.29.24,1.55.84.11.3.02.63-.18.87Z"/>
            </g>
            <g>
              <path class="cls-16" d="M89.24,157.11c-.17,1.18-1.99,1.52-4.13,1.22-2.14-.31-3.79-1.16-3.62-2.33.17-1.18,2.09-2.23,4.23-1.93s3.69,1.87,3.52,3.04Z"/>
              <path class="cls-17" d="M88.21,154.94c-.63-.56-1.43-.94-2.26-1.09-.84-.16-1.71-.09-2.52.17-.79.27-1.61.74-1.95,1.58-.18.41-.1.91.14,1.26.25.35.6.59.96.8.73.39,1.52.67,2.33.84.81.15,1.66.21,2.48.03.41-.08.82-.21,1.17-.44.36-.21.65-.56.71-.98.08-.84-.45-1.61-1.06-2.17ZM88.49,157.98c-.36.16-.76.23-1.15.25-.79.02-1.59-.02-2.38-.13-.79-.09-1.6-.23-2.31-.59-.36-.17-.68-.42-.9-.74-.21-.32-.22-.73-.04-1.06.36-.67,1.12-1.04,1.84-1.26.75-.2,1.54-.23,2.3-.1.77.12,1.5.42,2.16.84.63.42,1.28,1.09,1.2,1.92-.06.4-.36.73-.72.88Z"/>
            </g>
          </g>
        </g>
        <g>
          <g>
            <g>
              <path class="cls-10" d="M10.19,78.43c-1.8,6.39-3.33,12.7-6.04,18.69-1.47,3.24-3.4,6.1-2.39,9.81,1.14,4.15,6.64,5.64,8.5,1.24,1.97-4.66,1.39-10.42,2.55-15.38,1.06-4.53,2.42-8.6,3.87-12.68-1.03.18-5.55-1.03-6.49-1.68Z"/>
              <path class="cls-17" d="M10.2,78.45c-1.37,5.65-2.77,11.41-5.01,16.86-.55,1.36-1.2,2.7-1.87,4-.65,1.31-1.28,2.63-1.57,4.05-.3,1.42-.18,2.92.35,4.26.31.65.72,1.26,1.24,1.75.53.48,1.16.87,1.83,1.1,1.35.44,2.96.18,3.92-.88.13-.11.25-.25.34-.4.1-.15.21-.28.3-.43.15-.32.34-.62.45-.97.26-.67.47-1.37.63-2.08.66-2.83.77-5.76,1.04-8.69.13-1.47.34-2.94.68-4.38.34-1.43.72-2.86,1.13-4.27.85-2.82,1.84-5.59,2.85-8.34l.19.22c-.63.05-1.17-.08-1.73-.18-.56-.12-1.1-.25-1.65-.41-.54-.16-1.08-.33-1.61-.52-.52-.2-1.09-.4-1.52-.7ZM10.18,78.4c.53.28,1.04.45,1.58.62.54.16,1.08.31,1.62.44.55.12,1.09.25,1.64.35.54.09,1.12.19,1.62.14l.27-.03-.09.25c-.94,2.78-1.84,5.57-2.62,8.39-.4,1.41-.77,2.82-1.1,4.24-.33,1.41-.5,2.86-.66,4.31-.32,2.9-.42,5.87-1.19,8.74-.19.72-.42,1.43-.7,2.11-.12.35-.33.68-.5,1.01-.1.16-.23.31-.34.46-.11.16-.23.3-.38.42-1.08,1.13-2.83,1.35-4.23.84-.71-.26-1.35-.66-1.9-1.17-.54-.52-.95-1.15-1.27-1.83-.57-1.38-.7-2.91-.43-4.38.25-1.47.84-2.85,1.46-4.18.62-1.33,1.22-2.66,1.77-4.01,2.21-5.42,3.64-11.09,5.45-16.73Z"/>
            </g>
            <path class="cls-12" d="M4.75,105.33c-1.25-2.2-1.33-5.13-.81-7.77-1.43,3.06-3.15,5.83-2.18,9.36,1.14,4.15,6.64,5.64,8.5,1.24.14-.33.27-.67.38-1.02-2.12.85-4.56.53-5.89-1.81Z"/>
            <g>
              <path class="cls-9" d="M-7.42,79.85c.99-2.93,2.25-5.73,3.8-8.4,1.54-2.66,3.37-5.18,5.59-7.35,9.09-6.74,15.79-3.86,17.19-3.19,2.81,1.31,5.38,3.15,7.48,5.44,2.09,2.29,3.7,5.01,4.78,7.89,1.1,2.89,1.73,5.93,2,8.99.26,3.07.2,6.15-.22,9.21v.04s-.03.02-.03.02c-.45.3-.92.23-1.37.25-.45,0-.9-.05-1.35-.1-.89-.1-1.78-.24-2.66-.4-1.76-.32-3.51-.71-5.25-1.13-3.48-.83-6.93-1.81-10.34-2.87-3.41-1.08-6.81-2.19-10.16-3.47-1.67-.64-3.34-1.3-4.97-2.04-.81-.37-1.62-.76-2.41-1.2-.39-.22-.78-.45-1.15-.7-.35-.27-.76-.52-.93-.98Z"/>
              <path class="cls-17" d="M-7.35,79.82v.05c.99-2.92,2.36-5.69,3.99-8.29,1.62-2.6,3.54-5,5.75-7.05l-.06.05c1.86-1.3,3.83-2.41,5.93-3.17,2.09-.76,4.33-1.09,6.51-.93,1.09.09,2.17.31,3.2.67,1.01.36,2.04.9,3.01,1.45,1.95,1.13,3.73,2.54,5.27,4.18,3.09,3.29,5.13,7.52,6.19,11.97.55,2.23.82,4.52.9,6.82.1,2.3-.03,4.61-.39,6.88l.11-.17c-.31.21-.68.21-1.13.2-.41,0-.84-.05-1.27-.11-.86-.11-1.7-.27-2.55-.44-1.69-.35-3.38-.76-5.05-1.21-3.35-.88-6.68-1.85-10.01-2.82-3.32-1-6.67-1.93-9.96-3.04-3.27-1.13-6.62-2.23-9.54-4.1-.36-.27-.75-.54-.9-.95ZM-1.9,83.32c1.59.71,3.19,1.41,4.8,2.07,3.23,1.32,6.5,2.54,9.82,3.61,3.32,1.07,6.7,1.98,10.12,2.7,1.71.36,3.43.69,5.16.95.86.13,1.74.24,2.61.31.44.03.88.06,1.34.05.41,0,.97-.01,1.38-.32l.1-.07v-.1c.57-4.62.49-9.3-.38-13.89-.45-2.29-1.13-4.54-2.09-6.69-.97-2.15-2.26-4.15-3.83-5.94-1.58-1.77-3.44-3.29-5.47-4.51-1.03-.61-2.05-1.17-3.2-1.61-1.15-.43-2.35-.69-3.56-.78-2.42-.2-4.87.18-7.1,1.04-2.25.83-4.3,2.06-6.18,3.49l-.04.03-.02.02c-2.21,2.25-3.96,4.88-5.42,7.62-1.46,2.74-2.64,5.61-3.62,8.53v.03s0,.03,0,.03c.17.47.61.74.96,1.01,1.46.98,3.05,1.7,4.63,2.44Z"/>
            </g>
            <path class="cls-8" d="M27.11,70.73c-.39,1.38-2.98,1.85-5.8,1.06-2.82-.79-4.79-2.55-4.4-3.93s2.98-1.85,5.8-1.06c2.82.79,4.79,2.55,4.4,3.93Z"/>
            <path class="cls-8" d="M24.42,77.14c-.21.75-1.62,1-3.15.57-1.53-.43-2.6-1.38-2.39-2.13.21-.75,1.62-1,3.15-.57,1.53.43,2.6,1.38,2.39,2.13Z"/>
            <path class="cls-8" d="M29.33,75.59c-.15.52-1.14.71-2.21.4-1.07-.3-1.82-.97-1.68-1.5.15-.52,1.14-.71,2.21-.4,1.07.3,1.82.97,1.68,1.5Z"/>
            <path class="cls-8" d="M24.6,82.64c-.15.52-1.14.71-2.21.4-1.07-.3-1.82-.97-1.68-1.5.15-.52,1.14-.71,2.21-.4,1.07.3,1.82.97,1.68,1.5Z"/>
            <g class="cls-20">
              <path class="cls-16" d="M7.3,63.43c2.43-1.44,5.03-1.73,6.81-1.53,1.8.19,2.79.79,2.72.96-.07.22-1.11.02-2.75.11-1.63.09-3.9.51-6.01,1.77-2.11,1.31-3.78,2.91-4.77,4.21-1.01,1.31-1.54,2.25-1.75,2.16-.18-.07,0-1.17.85-2.75.85-1.59,2.55-3.48,4.89-4.93Z"/>
            </g>
            <g class="cls-20">
              <path class="cls-16" d="M10.67,99.88c-.35,3.12-.71,5.67-1.14,5.67-.41,0-.73-2.63-.37-5.84.35-3.21,1.24-5.7,1.64-5.61.42.09.21,2.66-.13,5.78Z"/>
            </g>
          </g>
          <g>
            <g>
              <path class="cls-18" d="M34.85,138.49c-3.88,1.93-8.27,3.43-12.5,4.18,1.37-6.12,5.65-14.33,11.79-16.68,2.27-.87,10.21-3.91,11.97-4.87-1.06,7.55-6.68,15.1-11.26,17.37Z"/>
              <path class="cls-17" d="M34.87,138.53c-.99.49-1.99.95-3,1.4-1.01.45-2.03.87-3.07,1.26-1.04.39-2.09.74-3.15,1.06-1.07.3-2.15.55-3.24.77l-.52.1.12-.52c.64-2.81,1.74-5.49,3.19-7.96,1.44-2.46,3.16-4.79,5.35-6.65,1.1-.91,2.32-1.71,3.66-2.26l3.94-1.62c2.6-1.1,5.3-2.11,7.77-3.35l.72-.36-.11.78c-.25,1.8-.77,3.55-1.43,5.23-.66,1.68-1.52,3.28-2.52,4.78-1,1.5-2.16,2.88-3.44,4.14-1.29,1.23-2.67,2.41-4.27,3.21ZM34.83,138.46c1.56-.84,2.93-2.01,4.1-3.34,1.18-1.32,2.19-2.78,3.09-4.29.9-1.51,1.67-3.1,2.32-4.72.64-1.63,1.1-3.33,1.36-5.05l.61.42c-1.32.66-2.63,1.16-3.96,1.69-1.32.53-2.65,1.03-3.98,1.52-1.33.5-2.67.97-4.01,1.45-1.31.48-2.54,1.17-3.64,2.06-1.1.88-2.07,1.92-2.92,3.05-.44.55-.82,1.15-1.21,1.74-.35.61-.72,1.22-1.03,1.85-.64,1.25-1.21,2.55-1.67,3.88-.49,1.32-.89,2.67-1.21,4.03l-.4-.42c1.08-.17,2.15-.4,3.21-.65,1.07-.24,2.13-.52,3.18-.83,2.11-.63,4.17-1.4,6.14-2.39Z"/>
            </g>
            <g>
              <path class="cls-18" d="M11.25,134.91c3.79,2.08,7.53,4.84,10.56,7.88-5.81,2.36-14.99,3.54-20.43-.17-2.01-1.37-9.04-6.15-10.83-7.05,6.81-3.43,16.21-3.13,20.69-.67Z"/>
              <path class="cls-17" d="M11.27,134.87c.97.53,1.92,1.09,2.86,1.66.94.58,1.88,1.17,2.78,1.8.91.63,1.8,1.29,2.67,1.98.86.71,1.68,1.45,2.48,2.22l.38.37-.5.2c-2.67,1.08-5.5,1.71-8.35,1.92-2.85.22-5.74.14-8.51-.6-1.38-.38-2.73-.93-3.94-1.72l-3.58-2.31c-2.39-1.51-4.76-3.14-7.19-4.47l-.7-.38.7-.36c1.62-.83,3.35-1.4,5.11-1.81,1.76-.42,3.56-.62,5.36-.66,1.8-.03,3.6.13,5.36.46,1.75.36,3.5.82,5.07,1.68ZM11.23,134.94c-1.58-.8-3.32-1.26-5.08-1.46-1.76-.22-3.53-.21-5.28-.09-1.76.12-3.5.39-5.2.79-1.7.4-3.36.99-4.92,1.76v-.74c1.3.71,2.45,1.5,3.65,2.28,1.19.78,2.36,1.59,3.52,2.4,1.17.81,2.32,1.64,3.48,2.47,1.14.8,2.41,1.42,3.77,1.81,1.35.41,2.76.61,4.17.66.7.04,1.41.01,2.12,0,.7-.06,1.41-.11,2.11-.21,1.4-.19,2.78-.46,4.14-.84,1.36-.35,2.7-.79,4-1.3l-.12.57c-.76-.79-1.55-1.54-2.37-2.27-.81-.74-1.64-1.46-2.5-2.14-1.72-1.37-3.53-2.63-5.47-3.68Z"/>
            </g>
            <g>
              <path class="cls-18" d="M24.93,155c-.4-4.31-1.44-8.84-3.03-12.82-4.48,4.39-9.21,12.35-7.97,18.81.46,2.39,2.05,10.74,2.16,12.74,5.86-4.88,9.32-13.63,8.84-18.72Z"/>
              <path class="cls-17" d="M24.89,155c-.2-2.19-.63-4.36-1.21-6.48-.29-1.06-.61-2.11-.97-3.14-.34-1.04-.72-2.07-1.14-3.08l.57.12c-.99.99-1.93,2.04-2.79,3.15-.89,1.09-1.69,2.25-2.42,3.46-.38.6-.7,1.22-1.03,1.85-.29.64-.6,1.28-.84,1.94-.51,1.31-.89,2.69-1.05,4.08-.18,1.4-.12,2.81.16,4.18.3,1.39.61,2.78.88,4.17.28,1.39.56,2.79.8,4.19.24,1.41.51,2.78.64,4.26l-.68-.3c1.33-1.13,2.53-2.41,3.57-3.82,1.04-1.41,1.98-2.9,2.79-4.46.81-1.56,1.52-3.19,2.02-4.88.51-1.69.78-3.47.68-5.24ZM24.97,154.99c.17,1.79-.1,3.57-.47,5.32-.4,1.75-.96,3.46-1.71,5.1-.75,1.64-1.65,3.21-2.74,4.65-1.08,1.45-2.29,2.81-3.69,3.97l-.61.5-.07-.8c-.25-2.75-.81-5.58-1.24-8.37l-.69-4.2c-.24-1.43-.2-2.88,0-4.3.43-2.84,1.5-5.52,2.83-8.05,1.33-2.53,3.04-4.88,5.08-6.9l.38-.38.19.5c.39,1.04.75,2.09,1.05,3.16.29,1.07.54,2.15.76,3.24.22,1.08.39,2.18.54,3.27.15,1.09.29,2.19.39,3.29Z"/>
            </g>
            <g>
              <path class="cls-18" d="M18.13,140.31c-4.57-3.56-4.46-11.82-3.64-16.87.69-4.27,2.04-8.72,3.89-12.59,4.17,4.68,7.43,11.57,5.69,19.44-1.31,5.91-1.78,10.44-2.02,12.43-1-.52-3.04-1.72-3.91-2.4Z"/>
              <path class="cls-17" d="M18.11,140.34c-2.07-1.64-3.24-4.17-3.83-6.71-.3-1.28-.48-2.59-.53-3.91-.06-1.31-.04-2.63.1-3.94.24-2.62.89-5.18,1.64-7.68.76-2.5,1.67-4.95,2.76-7.32l.09-.2.15.16c1.89,2.08,3.55,4.42,4.69,7.03.57,1.3,1.02,2.66,1.33,4.06.29,1.4.44,2.83.45,4.26,0,1.43-.2,2.86-.49,4.26-.31,1.36-.57,2.73-.85,4.1-.54,2.74-1.05,5.49-1.45,8.27l-.03.18-.15-.09c-1.33-.78-2.66-1.54-3.88-2.48ZM18.16,140.28c.61.45,1.27.85,1.93,1.24.66.39,1.33.77,2.02,1.09l-.17.09c.23-2.79.47-5.6.94-8.38.22-1.39.51-2.77.8-4.14.27-1.35.43-2.71.46-4.09.01-1.37-.11-2.75-.36-4.1-.28-1.35-.67-2.67-1.18-3.96-1.03-2.57-2.5-4.97-4.31-7.09l.24-.03c-1.14,2.33-2.03,4.78-2.68,7.3-.64,2.51-1.06,5.08-1.3,7.64-.2,2.57-.23,5.16.17,7.7.22,1.27.55,2.52,1.09,3.7.55,1.17,1.34,2.23,2.36,3.04Z"/>
            </g>
            <g>
              <path class="cls-18" d="M23.16,147.26c2.16,5.37,10.13,7.56,15.21,8.17,4.3.51,8.94.45,13.18-.25-3.35-5.31-10.02-10.85-16.6-11-2.43-.06-4.87.06-7.28,0-2.04-.05-3.76-1.03-5.73-1.34.22,1.1.82,3.4,1.23,4.43Z"/>
              <path class="cls-17" d="M23.19,147.25c.49,1.2,1.3,2.26,2.26,3.11.97.85,2.09,1.52,3.25,2.07,2.34,1.09,4.83,1.77,7.36,2.29,2.53.48,5.11.78,7.7.86,2.59.08,5.2-.1,7.75-.55l-.1.22c-1.54-2.34-3.51-4.38-5.68-6.12-2.18-1.72-4.61-3.17-7.25-3.95-1.32-.38-2.66-.62-4.05-.61-1.4-.03-2.81.02-4.22,0-.71,0-1.41-.02-2.12-.05-.7,0-1.46-.11-2.15-.31-1.39-.38-2.66-.99-4.03-1.26l.13-.14c.12.75.31,1.5.49,2.24.19.74.39,1.48.66,2.2ZM23.12,147.28c-.56-1.44-.93-2.93-1.31-4.42l-.04-.16.18.02c1.42.18,2.76.71,4.12.98.68.14,1.34.17,2.04.16.7,0,1.4-.02,2.1-.04,1.41-.05,2.82-.06,4.24-.06,1.43-.01,2.91.2,4.28.63,2.76.88,5.25,2.4,7.42,4.25,2.17,1.85,4.02,4.05,5.52,6.46l.12.19-.21.03c-2.58.39-5.19.59-7.8.63-2.61.03-5.24-.05-7.83-.55-1.3-.23-2.57-.56-3.82-.99-1.25-.41-2.46-.95-3.61-1.59-2.28-1.28-4.38-3.09-5.39-5.54Z"/>
            </g>
            <g>
              <path class="cls-2" d="M21.32,142.54c-2.41,2.73-6.02,6.29-13.38,7.98"/>
              <path class="cls-2" d="M45.64,121.68c-1.28,1.37-2.73,2.6-4.13,3.86-1.88,1.7-3.56,3.58-5.44,5.28-2.68,2.43-12.86,11.7-13.52,11.78"/>
              <path class="cls-2" d="M51.5,155.33c-1.27-.66-3.14-1.01-4.57-1.31-1.37-.29-2.73-.59-4.1-.9-3.85-.87-7.39-1.87-10.99-3.47-3.9-1.74-6.99-4.12-9.83-7.26"/>
              <path class="cls-2" d="M16.23,173.6c1.32-.95,5.52-29.13,5.81-31.04"/>
              <path class="cls-2" d="M18.46,111.03c-.65,9.35-.89,24.43,3.75,31.77"/>
              <path class="cls-2" d="M-9.41,135.85c3.63.26,27.98,4.52,30.85,6.86"/>
            </g>
          </g>
          <g class="cls-14">
            <path class="cls-6" d="M44.03,94.07c.73-.63.79-1.8-.06-2.23-.69-.35-1.35.15-1.62.85-.52-.68-1.5-.89-2.05-.22-.61.74.06,1.71.95,2.01-.78.5-1.02,1.59-.29,2.15.71.55,1.6-.04,1.92-.86.6.79,1.8.9,2.26.05.42-.78-.27-1.55-1.11-1.76Z"/>
          </g>
        </g>
        <g>
          <g>
            <g>
              <path class="cls-13" d="M229.96,24.17c1.13-4.44,1.41-8.03,1.3-12.62-.07-2.8-1.23-8.25-4.7-8.62-2.84-.31-4.73,2.55-5.54,4.83-1.28,3.6-1.68,9.28-2.21,10.48-2.41-3.34-4.54-7.58-8.03-10.08-1.85-1.33-4.76-2.34-7.07-.35-2.39,2.05-1.7,5.09-.59,7.11,2.07,3.77,6.04,6.38,9.06,9.17-1.26.39-8.6.28-10.67.95-2.31.75-5.43,2.07-5.46,4.93-.04,3.49,5.23,5.29,8,5.68,4.55.65,7.63,1.31,12.17.72-3.67,2.74-9.72,9.6-7.2,14.56,3.56,7.02,12.06-2,14.73-5.86,2.46-3.55,5.51-8.64,5.95-9.17.23-.28,5.75-1.41,8.08-2.33,5.38-2.11,13.71-8.99,7.17-13.35-4.63-3.09-11.84.62-15,3.94Z"/>
              <path class="cls-17" d="M234.57,20.86c1.69-.86,3.51-1.49,5.39-1.66,1.87-.17,3.84.21,5.31,1.4.74.56,1.4,1.27,1.72,2.14.34.86.28,1.83-.02,2.7-.62,1.76-1.98,3.18-3.38,4.41-1.44,1.21-3.05,2.24-4.74,3.05-1.69.82-3.55,1.23-5.39,1.71l-2.77.7c-.23.06-.46.12-.7.2-.13.05-.21.05-.4.17-.17.17-.18.23-.27.34l-.78,1.21-3.05,4.81c-1.05,1.59-2.05,3.2-3.26,4.64-1.21,1.45-2.53,2.81-3.99,4-1.45,1.16-3.08,2.25-4.89,2.55-.9.14-1.82-.02-2.55-.53-.74-.5-1.27-1.3-1.65-2.12-.76-1.68-.49-3.65.21-5.36.69-1.74,1.77-3.31,2.96-4.76,1.21-1.44,2.56-2.79,4.05-3.93l.65-.49-.8.12c-3.4.51-6.85.13-10.25-.4-.85-.13-1.72-.23-2.55-.38-.84-.16-1.66-.4-2.47-.69-1.58-.59-3.18-1.42-4.15-2.81-.47-.69-.68-1.54-.56-2.38.12-.83.54-1.6,1.16-2.17,1.23-1.17,2.9-1.81,4.52-2.29,3.38-.63,6.86-.39,10.31-.87l.17-.02-.13-.12c-2.53-2.34-5.38-4.35-7.55-7.02-1.06-1.33-2-2.82-2.32-4.49-.17-.83-.16-1.69.06-2.49.24-.8.72-1.51,1.35-2.06.63-.55,1.4-.91,2.22-1.05.82-.11,1.67-.01,2.47.26,1.61.52,2.96,1.63,4.14,2.85,2.37,2.47,4,5.54,6.02,8.35l.25.35.14-.39c.32-.9.39-1.75.55-2.62l.41-2.59c.29-1.72.61-3.44,1.15-5.08.54-1.62,1.43-3.2,2.79-4.21,1.34-1.04,3.39-1.03,4.6.2,1.23,1.19,1.84,2.9,2.23,4.57.41,1.69.41,3.44.41,5.19.03,3.5-.39,6.95-1.22,10.4,1.39-1.37,2.93-2.46,4.62-3.33ZM231.4,13.79c.03-1.74.03-3.52-.38-5.25-.39-1.7-.99-3.45-2.29-4.74-1.29-1.35-3.57-1.37-5.01-.26-1.46,1.08-2.37,2.71-2.95,4.37-.57,1.68-.9,3.41-1.2,5.13-.32,1.7-.48,3.52-.96,5.1l.39-.04c-1.99-2.78-3.66-5.85-6.1-8.37-1.21-1.23-2.62-2.38-4.32-2.91-.84-.28-1.74-.38-2.63-.26-.88.15-1.72.55-2.38,1.14-.67.59-1.18,1.36-1.43,2.22-.23.86-.23,1.77-.05,2.63.35,1.74,1.33,3.25,2.41,4.59,2.22,2.69,5.08,4.68,7.62,6.99l.03-.15c-3.38.51-6.88.22-10.3.85-1.66.48-3.33,1.11-4.63,2.32-.64.6-1.11,1.42-1.24,2.3-.14.88.09,1.81.59,2.55,1.02,1.48,2.66,2.32,4.26,2.94.82.31,1.65.55,2.51.72.86.17,1.71.27,2.56.41,3.39.56,6.9.98,10.36.49l-.15-.37c-1.54,1.15-2.92,2.5-4.15,3.97-1.22,1.48-2.32,3.08-3.04,4.88-.73,1.77-1.04,3.88-.21,5.73.42.88.97,1.74,1.81,2.32.84.59,1.91.77,2.89.61,1.98-.33,3.63-1.46,5.12-2.65,1.49-1.22,2.83-2.59,4.06-4.06,1.24-1.47,2.25-3.1,3.3-4.68l3.06-4.82.77-1.19c.16-.25.13-.23.41-.32l.67-.2,2.76-.72c1.83-.5,3.71-.94,5.45-1.8,1.72-.85,3.34-1.9,4.79-3.15,1.42-1.26,2.79-2.72,3.43-4.58.31-.91.37-1.97,0-2.88-.35-.93-1.05-1.66-1.82-2.23-1.54-1.21-3.58-1.58-5.47-1.38-1.91.19-3.74.85-5.43,1.74-1.67.89-3.29,2.01-4.55,3.38.93-3.32,1.38-6.86,1.42-10.36Z"/>
            </g>
            <path class="cls-3" d="M203.43,8.14c4.14,4.1,7.63,8.87,11.74,13.03,3.74,3.79,7.36,7.69,11.2,11.38,5.99,5.77,8.41,8.09,15.68,12.15"/>
            <path class="cls-3" d="M196.01,29.13s16.71,2.61,26.29-.74c4.29-4.88,4.27-25.47,4.27-25.47"/>
            <path class="cls-3" d="M209.96,52.16s14.39-13.68,16.63-19.34c7.09-2.69,19.58-11.3,19.58-11.3"/>
          </g>
          <g>
            <path class="cls-10" d="M259.83-7.86c.62,3.64-2.27,15.15-2.99,17.11-.39,1.08-1.02,2.67-.56,3.77.32.76,1.5.97,2.24.68,1.18-.45,1.5-1.74,1.76-2.83.42-1.74,2.77-14.15,1.01-18.17-.19-.44-.76-.29-1.46-.55Z"/>
            <path class="cls-17" d="M261.15-7.37c.16.41.31.9.37,1.38.18.96.18,1.94.2,2.92-.01,1.96-.21,3.92-.42,5.87-.24,1.95-.51,3.9-.84,5.84-.18.97-.33,1.94-.57,2.88-.22.92-.7,1.85-1.62,2.09-.86.25-2.07-.16-2.05-1.22-.09-.96.25-1.92.59-2.83.67-1.87,1.19-3.78,1.68-5.69.47-1.92.85-3.86,1.14-5.82.25-1.94.54-3.98.2-5.9.38.23,1.03.16,1.31.47ZM259.24-2c-.34,1.94-.76,3.86-1.17,5.79-.43,1.92-.78,3.87-1.43,5.73-.31.93-.68,1.89-.61,2.91.02.5.28,1.06.78,1.29.47.24,1.01.3,1.53.19.52-.12.98-.44,1.29-.87.31-.42.5-.91.65-1.39.29-.96.48-1.94.67-2.91.37-1.94.68-3.9.89-5.87.22-1.97.35-3.95.29-5.94-.05-.99-.11-1.99-.35-2.97-.09-.5-.27-.95-.51-1.43-.21-.23-.49-.23-.73-.27-.26-.03-.46-.07-.74-.14.12,2.01-.25,3.93-.57,5.88Z"/>
          </g>
          <g>
            <g>
              <path class="cls-10" d="M280.08,12.91c-2.78,2.42-14.12,5.93-16.17,6.34-1.13.22-2.82.51-3.51,1.48-.48.67-.04,1.79.58,2.27,1,.78,2.26.38,3.33.03,1.7-.55,13.53-4.99,16.05-8.59.27-.39-.15-.8-.28-1.53Z"/>
              <path class="cls-17" d="M280.35,14.3c-.27.35-.61.74-.99,1.04-.72.65-1.57,1.16-2.39,1.69-1.68,1.01-3.45,1.86-5.23,2.7-1.79.81-3.6,1.59-5.43,2.32-.92.35-1.83.73-2.76,1.01-.9.29-1.94.37-2.63-.3-.66-.61-.94-1.85-.03-2.39.77-.58,1.77-.78,2.73-.96,1.94-.4,3.84-.95,5.74-1.52,1.89-.6,3.74-1.28,5.57-2.05,1.79-.79,3.68-1.61,5.14-2.9,0,.45.4.97.27,1.36ZM274.77,15.46c-1.83.72-3.69,1.36-5.55,2.01-1.86.63-3.71,1.35-5.63,1.76-.96.22-1.97.4-2.81,1-.41.28-.76.79-.7,1.34.04.53.27,1.02.63,1.41.37.38.89.61,1.42.65.53.05,1.04-.04,1.53-.17.97-.25,1.9-.6,2.83-.94,1.85-.7,3.69-1.44,5.48-2.29,1.8-.83,3.55-1.76,5.22-2.84.82-.56,1.64-1.13,2.35-1.84.38-.34.68-.72.96-1.18.09-.3-.06-.54-.15-.76-.11-.23-.17-.43-.26-.71-1.66,1.15-3.49,1.83-5.32,2.57Z"/>
            </g>
            <g>
              <path class="cls-7" d="M270.93,7.08c.99-1.58,13.63-.51,16.02.27,1.65.53,3.21,1.32,3.96,2.98,1.59,3.54-3.25,10.21-4.84,12.22-1.39,1.76-3.37,4.54-5.65,2.38-2.84-2.68-2.77-6.68-4.36-9.98-1.29-2.68-6.11-6.3-5.12-7.87Z"/>
              <path class="cls-17" d="M270.86,8.04c.1.32.26.61.43.89.35.56.76,1.07,1.18,1.57.84,1,1.74,1.96,2.52,3,.82,1.02,1.3,2.23,1.68,3.47.38,1.24.7,2.52,1.11,3.77.42,1.25.96,2.49,1.81,3.52.42.51.87,1.02,1.5,1.35.61.34,1.4.34,2.02.04,1.25-.61,2.04-1.73,2.85-2.75.81-1.03,1.57-2.11,2.27-3.21,1.38-2.21,2.69-4.57,3.03-7.21.06-.65.04-1.34-.2-1.97-.23-.63-.61-1.19-1.1-1.65-.98-.92-2.25-1.43-3.52-1.77-2.58-.56-5.2-.72-7.82-.84-1.31-.05-2.62-.07-3.93-.02-.65.03-1.31.07-1.96.17-.32.05-.65.11-.97.2-.31.1-.65.2-.85.48-.18.29-.17.66-.06.97ZM271.79,6.64c.31-.08.64-.13.96-.18.65-.08,1.3-.11,1.95-.12,1.31-.03,2.61.02,3.92.1,1.3.08,2.61.19,3.91.34,1.3.16,2.6.28,3.87.55,1.24.31,2.5.8,3.45,1.67.47.43.85.97,1.08,1.57.24.6.27,1.26.22,1.9-.1,1.3-.58,2.54-1.13,3.72-.56,1.18-1.22,2.31-1.94,3.4-.72,1.09-1.49,2.14-2.32,3.15-.82,1-1.64,2.08-2.77,2.63-.56.26-1.21.27-1.76-.03-.55-.28-.99-.78-1.39-1.27-.82-.99-1.34-2.2-1.75-3.43-.81-2.44-1.19-5.19-2.93-7.27-.82-1.03-1.74-1.97-2.6-2.95-.43-.49-.85-.99-1.21-1.54-.32-.52-.73-1.19-.4-1.8.19-.26.53-.36.84-.45Z"/>
            </g>
            <path class="cls-8" d="M286.07,22.56c.56-.7,1.51-1.98,2.44-3.48-7.14.68-11.6-6.47-13.12-12.8-2.3.03-4.11.25-4.46.81-.99,1.58,3.83,5.19,5.12,7.87,1.59,3.3,1.52,7.31,4.36,9.98,2.28,2.15,4.26-.63,5.65-2.38Z"/>
            <g class="cls-15">
              <path class="cls-16" d="M284.5,7.88c1.41.16,2.67.84,3.3,1.57.65.74.7,1.38.57,1.42-.15.07-.45-.38-1.1-.85-.65-.47-1.66-.9-2.92-1.05-2.52-.29-4.73-.1-4.76-.46,0-.15.5-.34,1.38-.52.88-.16,2.12-.3,3.53-.12Z"/>
            </g>
          </g>
          <g class="cls-14">
            <path class="cls-6" d="M254.62,53.82c1.15-1,1.25-2.85-.1-3.53-1.09-.55-2.13.24-2.57,1.35-.82-1.08-2.38-1.41-3.25-.34-.96,1.17.1,2.72,1.51,3.18-1.23.8-1.62,2.52-.46,3.41,1.13.87,2.54-.06,3.05-1.36.95,1.24,2.85,1.43,3.59.08.67-1.23-.43-2.46-1.77-2.78Z"/>
          </g>
          <g class="cls-14">
            <path class="cls-6" d="M274.5,56c.73-.63.79-1.8-.06-2.23-.69-.35-1.35.15-1.62.85-.52-.68-1.5-.89-2.05-.22-.61.74.06,1.71.95,2.01-.77.5-1.02,1.59-.29,2.15.71.55,1.6-.04,1.92-.86.6.79,1.8.9,2.26.05.42-.78-.27-1.55-1.11-1.76Z"/>
          </g>
        </g>
        <g>
          <g>
            <g>
              <path class="cls-10" d="M154.94-5.57c-1.8,6.39-3.33,12.7-6.04,18.69-1.47,3.24-3.4,6.1-2.39,9.81,1.14,4.15,6.64,5.64,8.5,1.24,1.97-4.66,1.39-10.42,2.55-15.38,1.06-4.53,2.42-8.6,3.87-12.68-1.03.18-5.55-1.03-6.49-1.68Z"/>
              <path class="cls-17" d="M154.95-5.55c-1.37,5.65-2.77,11.41-5.01,16.86-.55,1.36-1.2,2.7-1.87,4-.65,1.31-1.28,2.63-1.57,4.05-.3,1.42-.18,2.92.35,4.26.31.65.72,1.26,1.24,1.75.53.48,1.16.87,1.83,1.1,1.35.44,2.96.18,3.92-.88.13-.11.25-.25.34-.4.1-.15.21-.28.3-.43.15-.32.34-.62.45-.97.26-.67.47-1.37.63-2.08.66-2.83.77-5.76,1.04-8.69.13-1.47.34-2.94.68-4.38.34-1.43.72-2.86,1.13-4.27.85-2.82,1.84-5.59,2.85-8.34l.19.22c-.63.05-1.17-.08-1.73-.18-.56-.12-1.1-.25-1.65-.41-.54-.16-1.08-.33-1.61-.52-.52-.2-1.09-.4-1.52-.7ZM154.93-5.6c.53.28,1.04.45,1.58.62.54.16,1.08.31,1.62.44.55.12,1.09.25,1.64.35.54.09,1.12.19,1.62.14l.27-.03-.09.25c-.94,2.78-1.84,5.57-2.62,8.39-.4,1.41-.77,2.82-1.1,4.24-.33,1.41-.5,2.86-.66,4.31-.32,2.9-.42,5.87-1.19,8.74-.19.72-.42,1.43-.7,2.11-.12.35-.33.68-.5,1.01-.1.16-.23.31-.34.46-.11.16-.23.3-.38.42-1.08,1.13-2.83,1.35-4.23.84-.71-.26-1.35-.66-1.9-1.17-.54-.52-.95-1.15-1.27-1.83-.57-1.38-.7-2.91-.43-4.38.25-1.47.84-2.85,1.46-4.18.62-1.33,1.22-2.66,1.77-4.01,2.21-5.42,3.64-11.09,5.45-16.73Z"/>
            </g>
            <path class="cls-12" d="M149.5,21.33c-1.25-2.2-1.33-5.13-.81-7.77-1.43,3.06-3.15,5.83-2.18,9.36,1.14,4.15,6.64,5.64,8.5,1.24.14-.33.27-.67.38-1.02-2.12.85-4.56.53-5.89-1.81Z"/>
            <g>
              <path class="cls-9" d="M137.33-4.15c.99-2.93,2.25-5.73,3.8-8.4,1.54-2.66,3.37-5.18,5.59-7.35,9.09-6.74,15.79-3.86,17.19-3.19,2.81,1.31,5.38,3.15,7.48,5.44,2.09,2.29,3.7,5.01,4.78,7.89,1.1,2.89,1.73,5.93,2,8.99.26,3.07.2,6.15-.22,9.21v.04s-.03.02-.03.02c-.45.3-.92.23-1.37.25-.45,0-.9-.05-1.35-.1-.89-.1-1.78-.24-2.66-.4-1.76-.32-3.51-.71-5.25-1.13-3.48-.83-6.93-1.81-10.34-2.87-3.41-1.08-6.81-2.19-10.16-3.47-1.67-.64-3.34-1.3-4.97-2.04-.81-.37-1.62-.76-2.41-1.2-.39-.22-.78-.45-1.15-.7-.35-.27-.76-.52-.93-.98Z"/>
              <path class="cls-17" d="M137.4-4.18v.05c.99-2.92,2.36-5.69,3.99-8.29,1.62-2.6,3.54-5,5.75-7.05l-.06.05c1.86-1.3,3.83-2.41,5.93-3.17,2.09-.76,4.33-1.09,6.51-.93,1.09.09,2.17.31,3.2.67,1.01.36,2.04.9,3.01,1.45,1.95,1.13,3.73,2.54,5.27,4.18,3.09,3.29,5.13,7.52,6.19,11.97.55,2.23.82,4.52.9,6.82.1,2.3-.03,4.61-.39,6.88l.11-.17c-.31.21-.68.21-1.13.2-.41,0-.84-.05-1.27-.11-.86-.11-1.7-.27-2.55-.44-1.69-.35-3.38-.76-5.05-1.21-3.35-.88-6.68-1.85-10.01-2.82-3.32-1-6.67-1.93-9.96-3.04-3.27-1.13-6.62-2.23-9.54-4.1-.36-.27-.75-.54-.9-.95ZM142.85-.68c1.59.71,3.19,1.41,4.8,2.07,3.23,1.32,6.5,2.54,9.82,3.61,3.32,1.07,6.7,1.98,10.12,2.7,1.71.36,3.42.69,5.16.95.86.13,1.74.24,2.61.31.44.03.88.06,1.34.05.41,0,.97-.01,1.38-.32l.1-.07v-.1c.57-4.62.49-9.3-.38-13.89-.45-2.29-1.13-4.54-2.09-6.69-.97-2.15-2.26-4.15-3.83-5.94-1.58-1.77-3.44-3.29-5.47-4.51-1.03-.61-2.05-1.17-3.2-1.61-1.15-.43-2.35-.69-3.56-.78-2.42-.2-4.87.18-7.1,1.04-2.25.83-4.3,2.06-6.18,3.49l-.04.03-.02.02c-2.21,2.25-3.96,4.88-5.42,7.62-1.46,2.74-2.64,5.61-3.62,8.53v.03s0,.03,0,.03c.17.47.61.74.96,1.01,1.46.98,3.05,1.7,4.63,2.44Z"/>
            </g>
            <path class="cls-8" d="M171.86-13.27c-.39,1.38-2.98,1.85-5.8,1.06-2.82-.79-4.79-2.55-4.4-3.93.39-1.38,2.98-1.85,5.8-1.06,2.82.79,4.79,2.55,4.4,3.93Z"/>
            <path class="cls-8" d="M169.17-6.86c-.21.75-1.62,1-3.15.57-1.53-.43-2.6-1.38-2.39-2.13.21-.75,1.62-1,3.15-.57,1.53.43,2.6,1.38,2.39,2.13Z"/>
            <path class="cls-8" d="M174.08-8.41c-.15.52-1.14.71-2.21.4-1.07-.3-1.82-.97-1.68-1.5.15-.52,1.14-.71,2.21-.4,1.07.3,1.82.97,1.68,1.5Z"/>
            <path class="cls-8" d="M169.35-1.36c-.15.52-1.14.71-2.21.4-1.07-.3-1.82-.97-1.68-1.5.15-.52,1.14-.71,2.21-.4,1.07.3,1.82.97,1.68,1.5Z"/>
            <g class="cls-20">
              <path class="cls-16" d="M152.05-20.57c2.43-1.44,5.03-1.73,6.81-1.53,1.8.19,2.79.79,2.72.96-.07.22-1.11.02-2.75.11-1.63.09-3.9.51-6.01,1.77-2.11,1.31-3.78,2.91-4.77,4.21-1.01,1.31-1.54,2.25-1.75,2.16-.18-.07,0-1.17.85-2.75.85-1.59,2.55-3.48,4.89-4.93Z"/>
            </g>
            <g class="cls-20">
              <path class="cls-16" d="M155.42,15.88c-.35,3.12-.71,5.67-1.14,5.67-.41,0-.73-2.63-.37-5.84.35-3.21,1.24-5.7,1.64-5.61.42.09.21,2.66-.13,5.78Z"/>
            </g>
          </g>
          <g>
            <g>
              <path class="cls-21" d="M118.87,20.77c-3.14,7.79-14.93,3.15-29.43-2.68-14.5-5.84-26.22-10.66-23.08-18.46,3.14-7.79,16.87-20.05,35.64-12.73,19.06,7.43,20.02,26.08,16.88,33.87Z"/>
              <path class="cls-17" d="M120.28,11.67c-.1-3.09-.71-6.17-1.8-9.07-1.11-2.89-2.65-5.65-4.74-7.97-.47-.63-1.06-1.13-1.62-1.68-.56-.54-1.11-1.1-1.75-1.54l-1.86-1.41-2-1.19c-5.38-3.09-11.66-4.67-17.87-4.3-6.22.46-12.19,3.17-16.73,7.37-2.27,2.11-4.24,4.58-5.5,7.43-.66,1.41-.84,3.07-.34,4.56.49,1.49,1.49,2.75,2.63,3.8,2.29,2.11,5.05,3.59,7.8,4.99,2.77,1.38,5.61,2.6,8.46,3.78,5.71,2.36,11.41,4.72,17.31,6.61,2.94.92,5.96,1.74,9.07,1.86,1.54.04,3.13-.1,4.54-.78,1.43-.65,2.47-1.94,3.04-3.37,1.11-2.89,1.48-6.02,1.39-9.11ZM115.82,24.08c-1.39.66-2.97.8-4.5.73-3.08-.18-6.06-1.05-8.99-2-2.92-.97-5.8-2.09-8.66-3.24l-8.59-3.44c-2.86-1.16-5.7-2.35-8.48-3.7-2.75-1.36-5.51-2.82-7.8-4.88-.57-.51-1.1-1.07-1.55-1.69-.45-.61-.84-1.29-1.06-2.02-.47-1.46-.29-3.07.37-4.44,1.27-2.8,3.24-5.24,5.5-7.31,4.55-4.14,10.48-6.68,16.59-7.13,6.11-.36,12.31,1.21,17.61,4.27,5.32,3,9.73,7.72,11.94,13.48,1.13,2.85,1.78,5.9,1.92,8.97.13,3.07-.2,6.19-1.27,9.09-.58,1.42-1.61,2.69-3.03,3.32Z"/>
            </g>
            <g>
              <ellipse class="cls-10" cx="92.51" cy="10.46" rx="28.31" ry="13.74" transform="translate(2.79 35.3) rotate(-21.93)"/>
              <path class="cls-17" d="M119.28,18.96c.05-.71.01-1.43-.11-2.13-.25-1.41-.8-2.74-1.48-3.99-1.4-2.49-3.34-4.63-5.44-6.54-4.25-3.8-9.25-6.7-14.53-8.81-5.28-2.11-10.88-3.53-16.58-3.78-2.84-.11-5.73.1-8.48.92-1.37.43-2.7,1.02-3.86,1.87-.58.43-1.11.93-1.57,1.48-.45.57-.82,1.19-1.09,1.86-.26.68-.41,1.39-.48,2.1-.04.72,0,1.44.13,2.15.27,1.41.83,2.75,1.53,3.99,1.43,2.47,3.39,4.58,5.49,6.49,4.26,3.78,9.26,6.65,14.51,8.81,5.25,2.16,10.87,3.54,16.57,3.75,2.84.09,5.72-.13,8.45-.96,1.35-.43,2.67-1.01,3.83-1.84.57-.42,1.09-.91,1.56-1.45.44-.56.81-1.17,1.08-1.83.26-.66.42-1.36.5-2.07ZM117.66,22.83c-.46.53-.98,1.02-1.55,1.43-1.15.82-2.46,1.39-3.82,1.79-2.73.77-5.58.92-8.4.8-2.82-.13-5.62-.6-8.37-1.26-1.37-.35-2.73-.72-4.08-1.14-1.35-.43-2.68-.9-3.99-1.42-5.24-2.09-10.25-4.9-14.53-8.61-2.13-1.86-4.05-3.99-5.44-6.45-.68-1.23-1.22-2.55-1.47-3.93-.12-.69-.15-1.39-.11-2.09.07-.69.23-1.38.48-2.02.28-.64.64-1.24,1.07-1.78.46-.53.97-1,1.54-1.41,1.14-.81,2.44-1.37,3.78-1.77,2.7-.77,5.55-.94,8.36-.84,5.64.26,11.19,1.68,16.43,3.78,5.22,2.14,10.22,4.91,14.51,8.6,2.12,1.85,4.07,3.96,5.49,6.4.69,1.23,1.25,2.54,1.52,3.93.13.69.17,1.4.14,2.11-.06.7-.21,1.4-.46,2.06-.28.65-.65,1.26-1.09,1.81Z"/>
            </g>
            <path class="cls-11" d="M110.02,17.36c-2.13-4.2-5.6-7.42-9.57-9.87-2.07-1.27-4.24-2.36-6.46-3.34-1.93-.85-3.88-1.59-5.94-2.05-7.51-1.67-15.42.15-20.87,5.53,2.99,5.65,10.46,11.65,20.2,15.57,9.28,3.73,18.37,4.68,24.46,3.03.01-3.07-.43-6.12-1.82-8.88Z"/>
            <path class="cls-17" d="M92.36,10.28c1.41.78,2.65,1.85,3.71,3.06,1.01,1.26,1.87,2.61,2.73,3.97.86,1.36,1.4,2.93,1.68,4.52l.14,1.21-.03,1.22c0,.2,0,.4-.03.6l-.11.6c-.07.4-.16.79-.24,1.18h-.05c.02-.41.02-.81.04-1.2l.03-.59c0-.2-.03-.39-.03-.59l-.06-1.18-.19-1.16c-.28-1.54-.72-3.06-1.41-4.49-.65-1.45-1.66-2.72-2.79-3.82-1.09-1.14-2.22-2.25-3.44-3.28l.03-.04Z"/>
            <path class="cls-17" d="M92.8,9.94c2.43.09,4.84.51,7.18,1.17,2.32.72,4.59,1.58,6.83,2.53,1.12.48,2.21,1.03,3.24,1.68,1.03.65,2.04,1.36,2.92,2.21.9.83,1.71,1.76,2.38,2.79.66,1.03,1.19,2.15,1.55,3.31l-.04.02c-.5-1.1-1.1-2.14-1.81-3.11-.71-.97-1.54-1.83-2.41-2.64-1.77-1.6-3.8-2.92-5.95-4.02-2.13-1.14-4.47-1.86-6.82-2.38-2.34-.58-4.7-1.09-7.08-1.5v-.05Z"/>
            <path class="cls-17" d="M93.76,9.96c1.18-1.08,2.54-1.94,3.97-2.64.72-.34,1.48-.6,2.22-.89.38-.13.74-.29,1.11-.43.38-.12.75-.27,1.12-.41,1.51-.53,3.1-.84,4.72-.87,1.62.04,3.23.4,4.65,1.13l-.02.04c-1.53-.44-3.07-.67-4.63-.66-1.56.03-3.11.27-4.65.61-1.55.34-2.99,1.04-4.35,1.84-1.38.75-2.76,1.51-4.12,2.33l-.03-.04Z"/>
            <path class="cls-17" d="M92,9.02l.77-3.62c.15-.6.28-1.2.35-1.82.03-.31.03-.62.04-.92,0-.31-.04-.62-.06-.92-.16-1.22-.4-2.41-.85-3.53-.46-1.12-1.14-2.11-1.98-3.04l.03-.04c1.04.69,1.89,1.71,2.42,2.88.48,1.19.67,2.46.65,3.72,0,.31-.03.63-.03.94-.02.31-.05.62-.05.93-.04.62-.04,1.25-.12,1.87-.18,1.24-.54,2.45-1.12,3.57l-.04-.02Z"/>
            <path class="cls-17" d="M90.11,8.79c-.75-1.78-1.68-3.46-2.73-5.06l-.79-1.2c-.29-.38-.58-.77-.89-1.14-.64-.71-1.34-1.39-2.11-1.96l-.57-.44-.6-.39c-.4-.26-.78-.55-1.2-.78-.84-.46-1.66-.94-2.55-1.29-.85-.43-1.77-.72-2.67-1.04-.45-.18-.92-.27-1.38-.4l-1.4-.39v-.05c.96.14,1.94.22,2.88.48.93.27,1.89.51,2.77.94,1.81.75,3.45,1.87,4.88,3.18,1.42,1.32,2.77,2.72,3.95,4.28,1.13,1.59,1.99,3.38,2.44,5.27h-.05Z"/>
            <path class="cls-17" d="M88.1,8.62c-1.69-.98-3.42-1.87-5.17-2.72-1.72-.9-3.55-1.64-5.46-2.05-1.9-.44-3.82-.72-5.75-.85-1.93-.2-3.87-.07-5.82.03v-.05s1.44-.27,1.44-.27l.73-.12.74-.06,1.48-.09,1.48.05c1.97.14,3.92.49,5.79,1.11,1.86.62,3.72,1.21,5.55,1.94,1.8.79,3.51,1.79,5.03,3.04l-.03.04Z"/>
            <path class="cls-17" d="M88.18,10.53c-1.44-.11-2.86-.17-4.29-.22-.71-.03-1.43-.08-2.15-.04-.72.05-1.43.14-2.13.32-.7.14-1.39.36-2.08.53-.68.23-1.37.41-2.03.68-1.36.44-2.64,1.07-3.96,1.66l-.03-.04c1.16-.85,2.43-1.6,3.81-2.1,1.36-.51,2.79-.84,4.24-.98.72-.09,1.44-.13,2.16-.21.36-.03.72-.07,1.08-.12l1.09-.08c1.45-.03,2.91.14,4.3.57v.05Z"/>
            <g>
              <path class="cls-10" d="M99.06,12.93c-2.96,4.62-6.87,12.03-7.35,17.6-.38,4.32-.18,9.66-3.34,13.14-3.12,3.44-8.89,2.14-12.44.1-4.29-2.47-7.02-5.66-3.88-10.62,1.28-2.02,3.44-3.97,4.92-5.89,4.6-5.96,6.4-12.86,8.69-19.96,4.54-3.46,13.5,2.92,13.4,5.63Z"/>
              <path class="cls-17" d="M98.29,11.07c-.42-.54-.9-1.03-1.41-1.48-1.02-.91-2.19-1.65-3.41-2.25-1.23-.6-2.55-1.04-3.93-1.17-1.37-.14-2.85.11-3.99.98l-.05.04-.02.06c-1.18,3.53-2.22,7.09-3.58,10.53-1.36,3.44-3.06,6.75-5.34,9.65-1.15,1.43-2.48,2.74-3.65,4.21-1.16,1.45-2.16,3.16-2.34,5.08-.08.95.11,1.93.54,2.78.42.86,1.05,1.58,1.74,2.22,1.4,1.25,3.01,2.23,4.73,2.97.86.37,1.75.65,2.66.86.91.21,1.84.36,2.78.35,1.85,0,3.82-.5,5.18-1.86,1.38-1.31,2.21-3.08,2.71-4.88.49-1.82.67-3.69.8-5.54.15-1.86.16-3.71.6-5.5.41-1.8,1.02-3.55,1.7-5.26.69-1.72,1.48-3.4,2.34-5.04.85-1.65,1.76-3.26,2.73-4.86,0-.72-.4-1.32-.79-1.87ZM93.7,22.7c-.73,1.72-1.34,3.48-1.78,5.31-.46,1.83-.51,3.72-.64,5.56-.12,1.85-.3,3.69-.74,5.48-.46,1.77-1.23,3.5-2.53,4.79-.64.64-1.43,1.15-2.3,1.44-.87.3-1.79.42-2.71.43-1.84,0-3.68-.45-5.37-1.19-1.69-.74-3.28-1.74-4.64-2.98-.67-.63-1.27-1.34-1.66-2.16-.39-.82-.56-1.74-.47-2.63.19-1.81,1.18-3.45,2.34-4.85,1.17-1.42,2.5-2.72,3.69-4.17,2.34-2.93,4.1-6.28,5.45-9.76,1.37-3.47,2.4-7.05,3.5-10.59l-.07.1c1.03-.81,2.41-1.08,3.72-.97,1.33.11,2.63.51,3.85,1.08,1.22.57,2.37,1.29,3.41,2.15.52.43,1.01.9,1.44,1.42.4.52.81,1.12.84,1.78-2.04,3.09-3.88,6.35-5.34,9.78Z"/>
            </g>
            <path class="cls-11" d="M76.8,41.38c-1.04-2.93-.07-6.39.95-9.19,1.39-3.81,3.2-7.52,5.33-10.96,1.67-2.69,3.53-5.4,5.6-7.8,1.71-1.99,3.83-4.15,6.49-4.71.06-.05.12-.11.18-.16-2.97-1.97-7.07-3.26-9.7-1.26-2.29,7.1-4.08,14-8.69,19.96-1.48,1.92-3.64,3.86-4.92,5.89-3.14,4.96-.41,8.15,3.88,10.62,1.37.79,3.06,1.46,4.8,1.8-1.76-.93-3.25-2.27-3.93-4.19Z"/>
            <g>
              <path class="cls-16" d="M105.8-9.48c-.57,1.42-2.95,1.3-5.53.26s-4.38-2.6-3.81-4.02,3.29-2.15,5.87-1.11c2.58,1.04,4.03,3.45,3.46,4.87Z"/>
              <path class="cls-17" d="M105.13-12.47c-.62-.88-1.5-1.58-2.49-2.02-.99-.45-2.09-.63-3.17-.56-.54.04-1.08.16-1.58.36-.5.2-.98.52-1.31.98-.17.22-.27.49-.31.77-.04.28.02.56.1.82.2.51.57.91.95,1.28.79.7,1.69,1.28,2.66,1.72.96.43,2,.75,3.07.81.53.03,1.08,0,1.59-.16.51-.15.98-.49,1.18-.99.36-1.03-.09-2.14-.68-3ZM104.6-8.6c-.5.1-1.02.07-1.52-.02-1-.19-1.99-.5-2.95-.88-.96-.37-1.92-.8-2.7-1.48-.39-.33-.73-.74-.9-1.21-.17-.48-.06-1,.26-1.37.65-.75,1.73-.99,2.71-1.05,1.01-.03,2.02.17,2.93.58.93.39,1.76,1,2.45,1.74.34.38.63.81.82,1.29.19.47.25,1.02.07,1.51-.2.48-.67.8-1.17.89Z"/>
            </g>
            <g>
              <path class="cls-16" d="M113.82,1.91c-.81.87-2.5.13-4.09-1.34-1.59-1.47-2.47-3.1-1.66-3.97.81-.87,2.99-.66,4.58.81,1.59,1.47,1.98,3.63,1.18,4.5Z"/>
              <path class="cls-17" d="M114.2-.46c-.2-.82-.64-1.58-1.25-2.18-.6-.61-1.36-1.04-2.17-1.29-.8-.22-1.75-.3-2.5.2-.38.24-.6.69-.6,1.12.01.43.17.83.34,1.2.38.73.87,1.41,1.45,2.01.58.58,1.25,1.11,2.02,1.43.38.16.79.29,1.21.31.42.03.86-.09,1.14-.4.54-.65.54-1.58.36-2.39ZM112.71,2.21c-.39-.07-.75-.24-1.09-.45-.67-.43-1.29-.92-1.89-1.45-.6-.52-1.19-1.09-1.57-1.8-.2-.35-.32-.74-.32-1.12,0-.39.24-.73.57-.9.67-.35,1.51-.22,2.23,0,.73.26,1.4.68,1.95,1.22.56.53,1,1.19,1.31,1.91.29.7.44,1.62-.09,2.26-.28.3-.7.4-1.09.31Z"/>
            </g>
            <g>
              <path class="cls-16" d="M120.78,11.2c-.86.35-1.82-.75-2.45-2.33-.63-1.57-.7-3.03.16-3.37.86-.35,2.34.54,2.97,2.12.63,1.57.18,3.24-.68,3.58Z"/>
              <path class="cls-17" d="M121.88,9.66c.16-.65.1-1.35-.13-1.99-.22-.64-.62-1.21-1.12-1.66-.5-.43-1.16-.8-1.88-.69-.36.04-.67.3-.81.61-.14.31-.16.65-.16.97.01.65.12,1.3.32,1.92.2.62.51,1.21.96,1.7.22.24.48.47.77.62.29.16.64.22.95.09.61-.28.94-.93,1.09-1.57ZM119.9,11.03c-.25-.19-.44-.43-.6-.69-.32-.53-.58-1.09-.83-1.66-.25-.57-.49-1.16-.54-1.79-.02-.31.02-.63.16-.89.13-.27.41-.42.69-.43.58,0,1.12.36,1.54.76.42.42.75.95.95,1.51.22.56.3,1.16.3,1.77-.02.59-.21,1.3-.8,1.57-.29.11-.63.04-.87-.15Z"/>
            </g>
            <g>
              <path class="cls-16" d="M101.12-4.02c-.35.86-1.8.78-3.37.15-1.57-.64-2.67-1.6-2.32-2.46s2.02-1.31,3.59-.67c1.57.64,2.46,2.12,2.1,2.98Z"/>
              <path class="cls-17" d="M100.77-5.88c-.36-.57-.91-1.01-1.52-1.29-.61-.29-1.3-.39-1.98-.35-.66.06-1.38.28-1.8.87-.22.29-.25.69-.12,1.01.13.32.36.57.59.79.48.44,1.02.82,1.61,1.11.59.28,1.23.47,1.89.49.33,0,.67-.02.98-.13.31-.1.6-.31.73-.62.22-.63-.02-1.32-.37-1.88ZM100.38-3.5c-.3.05-.62.02-.92-.05-.6-.14-1.19-.34-1.77-.55-.58-.21-1.18-.45-1.66-.85-.24-.2-.44-.45-.53-.73-.1-.28-.02-.59.17-.79.4-.42,1.03-.55,1.62-.58.6,0,1.2.12,1.74.36.55.23,1.05.59,1.48,1.02.41.42.79,1.05.58,1.66-.12.29-.41.48-.71.52Z"/>
            </g>
            <g>
              <path class="cls-16" d="M77.19-9.95c.32.87-.8,1.8-2.39,2.38-1.59.59-3.05.62-3.37-.25-.32-.87.61-2.32,2.2-2.91,1.59-.59,3.24-.09,3.56.78Z"/>
              <path class="cls-17" d="M75.67-11.09c-.65-.18-1.35-.13-1.99.08-.65.2-1.23.59-1.69,1.08-.44.49-.83,1.14-.74,1.86.03.36.28.68.59.83.31.15.64.18.97.19.65,0,1.31-.08,1.93-.27.62-.19,1.23-.48,1.73-.92.25-.22.48-.46.64-.76.16-.29.23-.64.12-.95-.26-.61-.91-.96-1.54-1.13ZM76.99-9.08c-.19.24-.44.43-.71.58-.54.3-1.1.55-1.68.79-.57.24-1.17.46-1.8.49-.31.01-.63-.04-.89-.18-.27-.14-.41-.42-.41-.7,0-.58.39-1.1.8-1.52.44-.41.97-.72,1.53-.91.56-.2,1.17-.27,1.78-.25.59.04,1.29.24,1.55.84.11.3.02.63-.18.87Z"/>
            </g>
            <g>
              <path class="cls-16" d="M89.24-10.89c-.17,1.18-1.99,1.52-4.13,1.22-2.14-.31-3.79-1.16-3.62-2.33.17-1.18,2.09-2.23,4.23-1.93s3.69,1.87,3.52,3.04Z"/>
              <path class="cls-17" d="M88.21-13.06c-.63-.56-1.43-.94-2.26-1.09-.84-.16-1.71-.09-2.52.17-.79.27-1.61.74-1.95,1.58-.18.41-.1.91.14,1.26.25.35.6.59.96.8.73.39,1.52.67,2.33.83.81.15,1.66.21,2.48.03.41-.08.82-.21,1.17-.44.36-.21.65-.56.71-.98.08-.84-.45-1.61-1.06-2.17ZM88.49-10.02c-.36.16-.76.23-1.15.25-.79.02-1.59-.02-2.38-.13-.79-.09-1.6-.23-2.31-.59-.36-.17-.68-.42-.9-.74-.21-.32-.22-.73-.04-1.06.36-.67,1.12-1.04,1.84-1.26.75-.2,1.54-.23,2.3-.1.77.12,1.5.42,2.16.84.63.42,1.28,1.09,1.2,1.92-.06.4-.36.73-.72.88Z"/>
            </g>
            <g class="cls-19">
              <path class="cls-5" d="M89.87,33.93c-.08,1.65-.28,3.31-.85,4.73-.54,1.43-1.48,2.59-2.48,3.23-.99.65-1.97.83-2.62.8-.65-.04-.97-.22-.96-.32.02-.11.36-.14.9-.28.54-.15,1.29-.45,2.02-1.08.74-.63,1.39-1.59,1.79-2.83.42-1.24.57-2.71.64-4.32.07-1.6.15-3.23.47-4.67.31-1.44.77-2.69,1.26-3.68.98-1.99,1.97-2.96,2.12-2.85.2.13-.44,1.3-1.11,3.27-.33.99-.66,2.18-.87,3.52-.22,1.34-.25,2.84-.33,4.49Z"/>
            </g>
          </g>
          <g>
            <g>
              <path class="cls-18" d="M179.6,54.49c-3.88,1.93-8.27,3.43-12.5,4.18,1.37-6.12,5.65-14.33,11.79-16.68,2.27-.87,10.21-3.91,11.97-4.87-1.06,7.55-6.68,15.1-11.26,17.37Z"/>
              <path class="cls-17" d="M179.62,54.53c-.99.49-1.99.95-3,1.4-1.01.45-2.03.87-3.07,1.26-1.04.39-2.09.74-3.15,1.06-1.07.3-2.15.55-3.24.77l-.52.1.12-.52c.64-2.81,1.74-5.49,3.19-7.96,1.44-2.46,3.16-4.79,5.35-6.65,1.1-.91,2.32-1.71,3.66-2.26l3.94-1.62c2.6-1.1,5.3-2.11,7.77-3.35l.72-.36-.11.78c-.25,1.8-.77,3.55-1.43,5.23-.66,1.68-1.52,3.28-2.52,4.78-1,1.5-2.16,2.88-3.44,4.14-1.29,1.23-2.67,2.41-4.27,3.21ZM179.58,54.46c1.56-.84,2.93-2.01,4.1-3.34,1.18-1.32,2.19-2.78,3.09-4.29.9-1.51,1.67-3.09,2.32-4.72.64-1.63,1.1-3.33,1.36-5.05l.61.42c-1.32.66-2.63,1.16-3.96,1.69-1.32.53-2.65,1.03-3.98,1.52-1.33.5-2.67.97-4.01,1.45-1.31.48-2.54,1.17-3.64,2.06-1.1.87-2.07,1.92-2.92,3.05-.44.55-.82,1.15-1.21,1.74-.35.61-.72,1.22-1.03,1.85-.64,1.25-1.21,2.55-1.67,3.88-.49,1.32-.89,2.67-1.21,4.03l-.4-.42c1.08-.17,2.15-.4,3.21-.65,1.07-.24,2.13-.52,3.18-.83,2.11-.63,4.17-1.4,6.14-2.39Z"/>
            </g>
            <g>
              <path class="cls-18" d="M156,50.91c3.79,2.08,7.53,4.84,10.56,7.88-5.81,2.36-14.99,3.54-20.43-.17-2.01-1.37-9.04-6.15-10.83-7.05,6.81-3.43,16.21-3.13,20.69-.67Z"/>
              <path class="cls-17" d="M156.02,50.87c.97.53,1.92,1.09,2.86,1.66.94.58,1.88,1.17,2.78,1.8.91.63,1.8,1.29,2.67,1.98.86.71,1.68,1.45,2.48,2.22l.38.37-.5.2c-2.67,1.08-5.5,1.71-8.35,1.92-2.85.22-5.74.14-8.51-.6-1.38-.38-2.73-.93-3.94-1.72l-3.58-2.31c-2.39-1.51-4.76-3.14-7.19-4.47l-.7-.38.7-.36c1.62-.83,3.35-1.4,5.11-1.81,1.76-.42,3.56-.62,5.36-.66,1.8-.03,3.6.13,5.36.46,1.75.36,3.5.82,5.07,1.68ZM155.98,50.94c-1.58-.8-3.32-1.26-5.08-1.46-1.76-.22-3.53-.21-5.28-.09-1.76.12-3.5.39-5.2.79-1.7.4-3.36.99-4.92,1.76v-.74c1.3.71,2.45,1.5,3.65,2.28,1.19.78,2.36,1.59,3.52,2.4,1.17.81,2.32,1.64,3.48,2.47,1.14.8,2.41,1.42,3.77,1.81,1.35.41,2.76.61,4.17.66.7.04,1.41.01,2.12,0,.7-.06,1.41-.11,2.11-.21,1.4-.19,2.78-.46,4.14-.84,1.36-.35,2.7-.79,4-1.3l-.12.57c-.76-.79-1.55-1.54-2.37-2.27-.81-.74-1.64-1.46-2.5-2.14-1.72-1.37-3.53-2.63-5.47-3.68Z"/>
            </g>
            <g>
              <path class="cls-18" d="M169.68,71c-.4-4.31-1.44-8.84-3.03-12.82-4.48,4.39-9.21,12.35-7.97,18.81.46,2.39,2.05,10.74,2.16,12.74,5.86-4.88,9.32-13.63,8.84-18.72Z"/>
              <path class="cls-17" d="M169.64,71c-.2-2.19-.63-4.36-1.21-6.48-.29-1.06-.61-2.11-.97-3.14-.34-1.04-.72-2.07-1.14-3.08l.57.12c-.99.99-1.93,2.04-2.79,3.15-.89,1.09-1.69,2.25-2.42,3.46-.38.6-.7,1.22-1.03,1.85-.29.64-.6,1.28-.84,1.94-.51,1.31-.89,2.69-1.05,4.08-.18,1.4-.12,2.81.16,4.18.3,1.39.61,2.78.88,4.17.28,1.39.56,2.79.8,4.19.24,1.41.51,2.78.64,4.26l-.68-.3c1.33-1.13,2.53-2.41,3.57-3.82,1.04-1.41,1.98-2.9,2.79-4.46.81-1.56,1.52-3.19,2.02-4.88.51-1.69.78-3.47.68-5.24ZM169.72,70.99c.17,1.79-.1,3.57-.47,5.32-.4,1.75-.96,3.46-1.71,5.1-.75,1.64-1.65,3.21-2.74,4.65-1.08,1.45-2.29,2.81-3.69,3.97l-.61.5-.07-.8c-.25-2.75-.81-5.58-1.24-8.37l-.69-4.2c-.24-1.43-.2-2.88,0-4.3.43-2.84,1.5-5.52,2.83-8.05,1.33-2.53,3.04-4.88,5.08-6.9l.38-.38.19.5c.39,1.04.75,2.09,1.05,3.16.29,1.07.54,2.15.76,3.24.22,1.08.39,2.18.54,3.27.15,1.09.29,2.19.39,3.29Z"/>
            </g>
            <g>
              <path class="cls-18" d="M162.88,56.31c-4.57-3.56-4.46-11.82-3.64-16.87.69-4.27,2.04-8.72,3.89-12.59,4.17,4.68,7.43,11.57,5.69,19.44-1.31,5.91-1.78,10.44-2.02,12.43-1-.52-3.04-1.72-3.91-2.4Z"/>
              <path class="cls-17" d="M162.86,56.34c-2.07-1.64-3.24-4.17-3.83-6.71-.3-1.28-.48-2.59-.53-3.91-.06-1.31-.04-2.63.1-3.94.24-2.62.89-5.18,1.64-7.68.76-2.5,1.67-4.95,2.76-7.32l.09-.2.15.16c1.89,2.08,3.55,4.42,4.69,7.03.57,1.3,1.02,2.66,1.33,4.06.29,1.4.44,2.83.45,4.26,0,1.43-.2,2.86-.49,4.26-.31,1.36-.57,2.73-.85,4.1-.54,2.74-1.05,5.49-1.45,8.27l-.03.18-.15-.09c-1.33-.78-2.66-1.54-3.88-2.48ZM162.91,56.28c.61.45,1.27.85,1.93,1.24.66.39,1.33.77,2.02,1.09l-.17.09c.23-2.79.47-5.6.94-8.38.22-1.39.51-2.77.8-4.14.27-1.35.43-2.71.46-4.09.01-1.37-.11-2.75-.36-4.1-.28-1.35-.67-2.67-1.18-3.96-1.03-2.57-2.5-4.97-4.31-7.09l.24-.03c-1.14,2.33-2.03,4.78-2.68,7.3-.63,2.51-1.06,5.08-1.3,7.64-.2,2.57-.23,5.16.17,7.7.22,1.27.55,2.52,1.09,3.7.55,1.17,1.34,2.23,2.36,3.04Z"/>
            </g>
            <g>
              <path class="cls-18" d="M167.9,63.26c2.16,5.37,10.13,7.56,15.21,8.17,4.3.51,8.94.45,13.17-.25-3.35-5.31-10.02-10.85-16.6-11-2.43-.06-4.87.06-7.28,0-2.04-.05-3.76-1.03-5.73-1.34.22,1.1.82,3.4,1.23,4.43Z"/>
              <path class="cls-17" d="M167.94,63.25c.49,1.2,1.3,2.26,2.26,3.11.97.85,2.09,1.52,3.25,2.07,2.34,1.09,4.83,1.77,7.36,2.29,2.53.48,5.11.78,7.7.86,2.59.08,5.2-.1,7.75-.55l-.1.22c-1.54-2.34-3.51-4.38-5.68-6.12-2.18-1.72-4.61-3.17-7.25-3.95-1.32-.38-2.66-.62-4.05-.61-1.4-.03-2.81.02-4.22,0-.71,0-1.41-.02-2.12-.05-.7,0-1.46-.11-2.15-.31-1.39-.38-2.66-.99-4.03-1.26l.13-.14c.12.75.3,1.5.49,2.24.19.74.39,1.48.66,2.2ZM167.87,63.28c-.56-1.44-.93-2.93-1.31-4.42l-.04-.16.18.02c1.42.18,2.76.71,4.12.97.68.14,1.34.17,2.04.16.7,0,1.4-.02,2.1-.04,1.41-.05,2.82-.06,4.24-.06,1.43-.01,2.91.2,4.28.63,2.76.88,5.25,2.4,7.42,4.25,2.17,1.85,4.02,4.05,5.52,6.46l.12.19-.21.03c-2.58.39-5.19.59-7.8.63-2.61.03-5.24-.05-7.83-.55-1.3-.23-2.57-.56-3.82-.99-1.25-.41-2.46-.95-3.61-1.59-2.28-1.28-4.38-3.09-5.39-5.54Z"/>
            </g>
            <g>
              <path class="cls-2" d="M166.07,58.54c-2.41,2.72-6.02,6.29-13.37,7.98"/>
              <path class="cls-2" d="M190.39,37.68c-1.28,1.37-2.73,2.6-4.13,3.86-1.88,1.7-3.56,3.58-5.44,5.28-2.68,2.43-12.86,11.7-13.52,11.78"/>
              <path class="cls-2" d="M196.25,71.33c-1.27-.66-3.14-1.01-4.57-1.31-1.37-.29-2.73-.59-4.1-.9-3.85-.87-7.39-1.87-10.99-3.47-3.9-1.74-6.99-4.12-9.83-7.26"/>
              <path class="cls-2" d="M160.98,89.6c1.32-.95,5.52-29.13,5.81-31.04"/>
              <path class="cls-2" d="M163.21,27.03c-.65,9.35-.89,24.43,3.75,31.77"/>
              <path class="cls-2" d="M135.34,51.85c3.63.26,27.98,4.52,30.85,6.86"/>
            </g>
          </g>
          <g>
            <g>
              <path class="cls-13" d="M85.21,108.17c1.13-4.44,1.41-8.03,1.3-12.62-.07-2.8-1.23-8.25-4.7-8.62-2.84-.31-4.73,2.55-5.54,4.83-1.28,3.6-1.68,9.28-2.21,10.48-2.41-3.34-4.54-7.58-8.03-10.08-1.85-1.33-4.76-2.34-7.07-.35-2.39,2.05-1.7,5.09-.59,7.11,2.07,3.77,6.04,6.38,9.06,9.17-1.26.39-8.6.28-10.67.95-2.31.75-5.43,2.07-5.46,4.93-.04,3.49,5.23,5.29,8,5.68,4.55.65,7.63,1.31,12.17.72-3.67,2.74-9.72,9.6-7.2,14.56,3.56,7.02,12.06-2,14.73-5.86,2.46-3.55,5.51-8.64,5.95-9.17.23-.28,5.75-1.41,8.08-2.33,5.38-2.11,13.71-8.99,7.17-13.35-4.63-3.09-11.84.62-15,3.94Z"/>
              <path class="cls-17" d="M89.82,104.86c1.69-.86,3.51-1.49,5.39-1.66,1.87-.17,3.84.21,5.31,1.4.74.56,1.4,1.27,1.72,2.14.34.86.28,1.83-.02,2.7-.62,1.76-1.98,3.18-3.38,4.41-1.44,1.22-3.05,2.24-4.74,3.05-1.69.82-3.55,1.23-5.39,1.71l-2.77.7c-.23.06-.46.12-.7.2-.13.05-.21.05-.4.17-.17.17-.18.23-.27.34l-.78,1.21-3.05,4.81c-1.05,1.59-2.05,3.2-3.26,4.64-1.21,1.45-2.53,2.81-3.99,4-1.45,1.16-3.08,2.25-4.89,2.55-.9.14-1.82-.02-2.56-.53-.74-.5-1.27-1.3-1.65-2.12-.76-1.68-.49-3.65.21-5.36.69-1.74,1.77-3.31,2.96-4.76,1.21-1.44,2.56-2.79,4.05-3.93l.65-.49-.8.12c-3.4.51-6.85.13-10.25-.4-.85-.13-1.72-.23-2.55-.38-.84-.16-1.66-.4-2.47-.69-1.58-.59-3.18-1.42-4.15-2.81-.47-.69-.68-1.54-.56-2.38.12-.83.54-1.6,1.16-2.17,1.23-1.17,2.9-1.81,4.52-2.29,3.38-.63,6.86-.39,10.31-.87l.17-.02-.13-.12c-2.53-2.34-5.38-4.35-7.55-7.02-1.06-1.33-2-2.82-2.32-4.49-.17-.83-.16-1.69.06-2.49.24-.8.72-1.51,1.35-2.06.63-.55,1.4-.91,2.22-1.05.82-.11,1.67-.01,2.47.26,1.61.52,2.96,1.63,4.14,2.85,2.37,2.47,4,5.54,6.02,8.35l.25.35.14-.39c.32-.9.39-1.75.55-2.62l.41-2.59c.29-1.72.61-3.44,1.15-5.08.54-1.62,1.43-3.2,2.79-4.21,1.34-1.04,3.39-1.03,4.6.2,1.23,1.19,1.84,2.9,2.23,4.57.41,1.69.41,3.44.41,5.19.03,3.5-.39,6.95-1.22,10.4,1.39-1.37,2.93-2.46,4.62-3.33ZM86.65,97.79c.03-1.74.03-3.52-.38-5.25-.39-1.7-.99-3.45-2.29-4.74-1.29-1.35-3.57-1.37-5.01-.26-1.46,1.08-2.37,2.71-2.95,4.37-.57,1.68-.9,3.41-1.2,5.13-.32,1.7-.48,3.52-.96,5.1l.39-.04c-1.99-2.78-3.66-5.85-6.1-8.37-1.21-1.23-2.62-2.38-4.32-2.91-.84-.28-1.74-.38-2.63-.26-.88.15-1.72.55-2.38,1.14-.67.59-1.18,1.36-1.43,2.22-.23.86-.23,1.77-.05,2.63.35,1.74,1.33,3.25,2.41,4.59,2.22,2.69,5.08,4.68,7.62,6.99l.03-.15c-3.38.51-6.88.22-10.3.85-1.66.49-3.33,1.11-4.63,2.32-.64.6-1.11,1.42-1.24,2.3-.14.88.09,1.81.59,2.55,1.02,1.48,2.66,2.32,4.26,2.94.82.31,1.65.55,2.51.72.86.17,1.71.27,2.56.41,3.39.56,6.9.98,10.36.49l-.15-.37c-1.54,1.15-2.92,2.5-4.15,3.97-1.22,1.48-2.32,3.08-3.04,4.88-.73,1.77-1.04,3.88-.21,5.73.42.88.97,1.74,1.81,2.32.84.59,1.91.77,2.89.61,1.98-.33,3.63-1.46,5.12-2.65,1.49-1.22,2.83-2.59,4.06-4.06,1.24-1.47,2.25-3.1,3.3-4.68l3.06-4.82.77-1.19c.16-.25.13-.23.41-.32l.67-.2,2.76-.72c1.83-.5,3.71-.94,5.45-1.8,1.72-.85,3.34-1.9,4.79-3.15,1.42-1.26,2.79-2.72,3.43-4.58.31-.91.37-1.97,0-2.88-.35-.93-1.05-1.66-1.82-2.23-1.54-1.21-3.58-1.58-5.47-1.38-1.91.19-3.74.85-5.43,1.74-1.67.89-3.29,2.01-4.55,3.38.93-3.32,1.38-6.86,1.42-10.36Z"/>
            </g>
            <path class="cls-3" d="M58.68,92.14c4.15,4.1,7.63,8.87,11.74,13.03,3.74,3.79,7.36,7.69,11.2,11.38,5.99,5.77,8.41,8.09,15.68,12.15"/>
            <path class="cls-3" d="M51.26,113.13s16.71,2.61,26.29-.74c4.29-4.88,4.27-25.47,4.27-25.47"/>
            <path class="cls-3" d="M65.21,136.16s14.39-13.68,16.63-19.34c7.09-2.69,19.58-11.3,19.58-11.3"/>
          </g>
          <g>
            <g>
              <path class="cls-21" d="M176.9,109.42c-4.08-.94-7.36-1.13-11.56-.94-2.56.12-7.51,1.29-7.78,4.46-.22,2.6,2.42,4.27,4.53,4.96,3.32,1.1,8.51,1.35,9.62,1.81-3,2.27-6.83,4.3-9.05,7.54-1.18,1.72-2.04,4.4-.18,6.47,1.92,2.14,4.68,1.45,6.5.39,3.4-1.97,5.7-5.64,8.19-8.46.38,1.14.43,7.85,1.08,9.72.73,2.09,2,4.91,4.61,4.88,3.19-.04,4.73-4.88,5.03-7.42.5-4.17,1.05-6.99.41-11.13,2.58,3.3,8.96,8.69,13.45,6.29,6.34-3.39-2.07-10.97-5.65-13.34-3.29-2.18-8-4.86-8.49-5.25-.26-.2-1.4-5.22-2.29-7.34-2.03-4.87-8.48-12.35-12.33-6.28-2.73,4.29.8,10.81,3.9,13.62Z"/>
              <path class="cls-17" d="M173.79,105.27c-.82-1.52-1.43-3.17-1.63-4.89-.2-1.7.12-3.51,1.17-4.88.5-.69,1.13-1.3,1.92-1.61.78-.33,1.67-.29,2.47-.03,1.62.53,2.95,1.74,4.09,3,1.14,1.29,2.11,2.74,2.88,4.27.78,1.53,1.2,3.22,1.67,4.89l.69,2.52c.06.21.12.42.2.63.05.12.05.19.17.36.16.15.21.16.32.24l1.12.68,4.46,2.69c1.47.93,2.96,1.81,4.3,2.89,1.35,1.07,2.62,2.26,3.73,3.56,1.09,1.3,2.12,2.77,2.43,4.41.15.82.02,1.66-.43,2.34-.44.69-1.16,1.18-1.9,1.55-1.52.73-3.33.52-4.9-.08-1.6-.6-3.06-1.55-4.41-2.61-1.34-1.08-2.6-2.28-3.67-3.62l-.46-.58.13.73c.54,3.1.26,6.25-.16,9.37-.1.78-.18,1.57-.3,2.34-.13.77-.33,1.53-.58,2.27-.51,1.46-1.23,2.94-2.48,3.85-.62.45-1.4.66-2.16.56-.76-.09-1.47-.47-2.01-1.01-1.09-1.1-1.71-2.61-2.18-4.09-.64-3.08-.5-6.26-1-9.4l-.02-.15-.11.13c-2.09,2.36-3.86,5-6.26,7.03-1.19.99-2.53,1.88-4.05,2.21-.75.17-1.54.18-2.27,0-.73-.2-1.39-.62-1.91-1.19-.52-.56-.86-1.26-1-2.01-.12-.75-.05-1.53.19-2.26.44-1.48,1.43-2.74,2.52-3.84,2.21-2.22,4.98-3.76,7.51-5.67l.31-.23-.36-.12c-.83-.27-1.6-.32-2.4-.45l-2.37-.32c-1.57-.23-3.15-.49-4.66-.95-1.49-.46-2.95-1.24-3.91-2.47-.97-1.2-1.01-3.08.09-4.21,1.06-1.14,2.61-1.74,4.13-2.13,1.54-.41,3.13-.45,4.73-.48,3.2-.1,6.36.22,9.53.9-1.28-1.24-2.3-2.62-3.13-4.16ZM167.39,108.31c-1.59.01-3.22.04-4.79.45-1.55.39-3.13.97-4.28,2.18-1.21,1.21-1.18,3.29-.13,4.58,1.02,1.32,2.52,2.11,4.05,2.61,1.54.49,3.13.75,4.71,1,1.56.26,3.22.36,4.67.77l-.04-.35c-2.5,1.88-5.27,3.46-7.52,5.74-1.1,1.13-2.12,2.44-2.58,4-.24.77-.32,1.6-.18,2.41.15.8.53,1.56,1.09,2.15.55.6,1.27,1.05,2.06,1.26.79.2,1.62.18,2.4-.01,1.58-.36,2.94-1.28,4.14-2.29,2.41-2.08,4.17-4.74,6.23-7.1l-.14-.03c.53,3.07.34,6.28.98,9.4.48,1.51,1.08,3.02,2.21,4.19.56.58,1.32.99,2.13,1.09.81.11,1.66-.12,2.32-.59,1.33-.96,2.06-2.48,2.6-3.95.26-.75.47-1.52.61-2.31.13-.79.21-1.57.32-2.35.44-3.11.76-6.32.24-9.47l-.34.15c1.09,1.38,2.34,2.62,3.71,3.72,1.37,1.09,2.86,2.06,4.52,2.68,1.63.63,3.57.87,5.23.08.8-.4,1.57-.92,2.08-1.7.52-.78.67-1.76.5-2.65-.34-1.8-1.41-3.29-2.52-4.63-1.14-1.34-2.43-2.53-3.79-3.63-1.37-1.1-2.88-2-4.34-2.92l-4.46-2.7-1.1-.68c-.23-.14-.22-.11-.3-.37l-.19-.61-.72-2.5c-.49-1.66-.93-3.37-1.75-4.94-.81-1.56-1.8-3.01-2.98-4.32-1.18-1.27-2.54-2.5-4.25-3.04-.84-.27-1.81-.3-2.63.07-.84.34-1.5.99-2,1.71-1.07,1.43-1.37,3.3-1.15,5.02.21,1.74.85,3.4,1.69,4.92.85,1.51,1.9,2.97,3.18,4.09-3.05-.79-6.3-1.13-9.49-1.09Z"/>
            </g>
            <path class="cls-4" d="M162.8,133.97c3.66-3.87,7.95-7.14,11.66-10.98,3.38-3.49,6.87-6.88,10.17-10.45,5.15-5.58,7.22-7.84,10.79-14.57"/>
            <path class="cls-4" d="M182.11,140.33s2.05-15.32-1.2-24c-4.55-3.82-23.35-3.39-23.35-3.39"/>
            <path class="cls-4" d="M202.87,127.13s-12.78-12.87-18-14.8c-2.6-6.42-10.71-17.66-10.71-17.66"/>
          </g>
          <g>
            <g>
              <path class="cls-10" d="M115.08,76.14c.62,3.64-2.27,15.15-2.99,17.11-.39,1.08-1.02,2.67-.56,3.77.32.76,1.5.97,2.24.68,1.18-.45,1.5-1.74,1.76-2.83.42-1.74,2.77-14.15,1.01-18.17-.19-.44-.76-.29-1.46-.55Z"/>
              <path class="cls-17" d="M116.4,76.63c.16.41.31.9.37,1.38.18.96.18,1.94.2,2.92-.01,1.96-.21,3.92-.42,5.87-.24,1.95-.51,3.9-.84,5.84-.18.97-.33,1.94-.57,2.88-.22.92-.7,1.85-1.62,2.09-.86.25-2.07-.16-2.05-1.22-.09-.96.25-1.92.59-2.83.67-1.87,1.19-3.78,1.68-5.69.47-1.92.85-3.86,1.14-5.82.25-1.94.54-3.98.2-5.9.38.23,1.03.16,1.31.47ZM114.49,82c-.34,1.94-.76,3.86-1.17,5.79-.43,1.92-.78,3.87-1.43,5.73-.31.93-.68,1.89-.61,2.91.02.5.28,1.06.78,1.29.47.24,1.01.3,1.53.19.52-.12.98-.44,1.29-.87.31-.42.5-.91.65-1.39.29-.96.48-1.94.67-2.91.37-1.94.68-3.9.89-5.87.22-1.97.35-3.95.29-5.94-.05-.99-.11-1.99-.35-2.97-.09-.5-.27-.95-.51-1.43-.21-.23-.49-.23-.73-.27-.26-.03-.46-.07-.74-.14.12,2.01-.25,3.93-.57,5.88Z"/>
            </g>
            <g>
              <path class="cls-7" d="M105.34,80.92c-.83-1.66,6.65-11.91,8.56-13.55,1.31-1.13,2.8-2.06,4.61-1.83,3.85.48,7.03,8.09,7.92,10.49.78,2.1,2.13,5.24-.9,6.07-3.76,1.03-7.14-1.11-10.8-1.47-2.96-.29-8.56,1.95-9.39.28Z"/>
              <path class="cls-17" d="M106.12,81.48c.32.08.65.1.98.09.66,0,1.31-.1,1.96-.19,1.3-.2,2.58-.46,3.88-.59,1.3-.18,2.58.04,3.84.37,1.26.33,2.51.71,3.79,1.02,1.28.29,2.62.48,3.95.28.65-.1,1.33-.22,1.93-.58.61-.35,1.02-1.02,1.08-1.71.13-1.39-.42-2.65-.87-3.86-.46-1.23-.98-2.44-1.56-3.61-1.17-2.33-2.5-4.68-4.58-6.34-.53-.39-1.12-.73-1.78-.85-.66-.13-1.34-.1-1.98.08-1.3.36-2.39,1.18-3.35,2.09-1.82,1.92-3.32,4.07-4.78,6.25-.72,1.09-1.42,2.2-2.06,3.35-.32.57-.62,1.16-.88,1.76-.13.3-.25.61-.33.93-.08.31-.17.66-.03.98.15.3.47.48.79.55ZM105.41,79.97c.09-.31.22-.61.35-.91.27-.59.58-1.17.91-1.73.66-1.13,1.38-2.22,2.12-3.3.75-1.07,1.52-2.13,2.32-3.16.81-1.03,1.59-2.08,2.48-3.02.91-.9,1.98-1.72,3.22-2.08.61-.18,1.27-.22,1.9-.11.63.11,1.22.42,1.74.8,1.06.76,1.87,1.82,2.59,2.9.72,1.09,1.34,2.24,1.9,3.42.56,1.18,1.05,2.39,1.49,3.62.43,1.22.93,2.48.81,3.74-.07.62-.4,1.18-.94,1.48-.53.32-1.18.44-1.81.53-1.27.18-2.57,0-3.84-.29-2.5-.57-5.05-1.69-7.73-1.27-1.31.17-2.58.46-3.87.68-.64.11-1.29.21-1.94.23-.61,0-1.4,0-1.74-.59-.12-.3-.03-.64.05-.95Z"/>
            </g>
            <path class="cls-8" d="M126.43,76.03c-.31-.84-.9-2.31-1.7-3.9-3.13,6.45-11.56,6.55-17.75,4.55-1.17,1.98-1.92,3.64-1.63,4.23.83,1.66,6.43-.57,9.39-.28,3.65.35,7.03,2.5,10.8,1.47,3.03-.83,1.68-3.96.9-6.07Z"/>
            <g class="cls-15">
              <path class="cls-16" d="M113.07,69.75c.87-1.12,2.1-1.85,3.06-2,.97-.17,1.55.12,1.51.25-.02.16-.56.18-1.3.5-.74.31-1.64.95-2.42,1.95-1.56,2-2.54,3.99-2.87,3.83-.13-.07-.03-.61.28-1.45.32-.83.85-1.97,1.73-3.08Z"/>
            </g>
          </g>
          <g>
            <g>
              <path class="cls-10" d="M135.33,96.91c-2.78,2.42-14.12,5.93-16.17,6.34-1.13.22-2.82.51-3.51,1.48-.48.67-.04,1.79.58,2.27,1,.78,2.26.38,3.33.03,1.7-.55,13.53-4.99,16.05-8.59.27-.39-.15-.8-.28-1.53Z"/>
              <path class="cls-17" d="M135.6,98.3c-.27.35-.61.74-.99,1.04-.72.65-1.57,1.16-2.39,1.69-1.68,1.01-3.45,1.86-5.23,2.7-1.79.81-3.6,1.59-5.43,2.32-.92.35-1.83.73-2.76,1.01-.9.29-1.94.37-2.63-.3-.66-.61-.94-1.85-.03-2.39.77-.58,1.77-.78,2.73-.96,1.94-.4,3.84-.95,5.74-1.52,1.89-.6,3.74-1.28,5.57-2.05,1.79-.79,3.68-1.61,5.14-2.9,0,.45.4.97.27,1.36ZM130.02,99.46c-1.83.72-3.69,1.36-5.55,2.01-1.86.63-3.71,1.35-5.63,1.76-.96.22-1.97.4-2.81,1-.41.28-.76.79-.7,1.34.04.53.27,1.02.63,1.41.37.38.89.61,1.42.65.53.05,1.04-.04,1.53-.17.97-.25,1.9-.6,2.83-.94,1.85-.7,3.69-1.44,5.48-2.29,1.8-.83,3.55-1.76,5.22-2.84.82-.56,1.64-1.13,2.35-1.84.38-.34.68-.72.96-1.18.09-.3-.06-.54-.15-.76-.11-.23-.17-.43-.26-.71-1.66,1.15-3.49,1.83-5.32,2.57Z"/>
            </g>
            <g>
              <path class="cls-7" d="M126.18,91.08c.99-1.58,13.63-.51,16.02.27,1.65.53,3.21,1.32,3.96,2.98,1.59,3.54-3.25,10.21-4.84,12.22-1.39,1.76-3.37,4.54-5.65,2.38-2.84-2.68-2.77-6.68-4.36-9.98-1.29-2.68-6.11-6.3-5.12-7.87Z"/>
              <path class="cls-17" d="M126.11,92.04c.1.32.26.61.43.89.35.56.76,1.07,1.18,1.57.84,1,1.74,1.96,2.52,3,.82,1.02,1.3,2.23,1.68,3.47.38,1.24.7,2.52,1.11,3.77.42,1.25.96,2.49,1.81,3.52.42.51.87,1.02,1.5,1.35.61.34,1.4.34,2.02.04,1.25-.61,2.04-1.73,2.85-2.75.81-1.03,1.57-2.11,2.27-3.21,1.38-2.21,2.69-4.57,3.03-7.21.06-.65.04-1.34-.2-1.97-.23-.63-.61-1.19-1.1-1.65-.98-.92-2.25-1.43-3.52-1.77-2.58-.56-5.2-.72-7.82-.84-1.31-.05-2.62-.07-3.93-.02-.65.03-1.31.07-1.96.17-.32.05-.65.11-.97.2-.31.1-.65.2-.85.48-.18.29-.17.66-.06.97ZM127.04,90.64c.31-.08.64-.13.96-.18.65-.08,1.3-.11,1.95-.12,1.31-.03,2.61.02,3.92.1,1.3.08,2.61.19,3.91.34,1.3.16,2.6.28,3.87.55,1.24.31,2.5.8,3.45,1.67.47.43.85.97,1.08,1.57.24.6.27,1.26.22,1.9-.1,1.3-.58,2.54-1.13,3.72-.56,1.18-1.22,2.31-1.94,3.4-.72,1.09-1.49,2.14-2.32,3.15-.82,1-1.64,2.08-2.77,2.63-.56.26-1.21.27-1.76-.03-.55-.28-.99-.78-1.39-1.27-.82-.99-1.34-2.2-1.75-3.43-.81-2.44-1.19-5.19-2.93-7.27-.82-1.03-1.74-1.97-2.6-2.95-.43-.49-.85-.99-1.21-1.54-.32-.52-.73-1.19-.4-1.8.19-.26.53-.36.84-.45Z"/>
            </g>
            <path class="cls-8" d="M141.32,106.56c.56-.7,1.51-1.98,2.44-3.48-7.14.68-11.6-6.47-13.12-12.8-2.3.03-4.11.25-4.46.81-.99,1.58,3.83,5.19,5.12,7.87,1.59,3.3,1.52,7.31,4.36,9.98,2.28,2.15,4.26-.63,5.65-2.38Z"/>
            <g class="cls-15">
              <path class="cls-16" d="M139.75,91.88c1.41.16,2.67.84,3.3,1.57.65.74.7,1.38.57,1.42-.15.07-.45-.38-1.1-.85-.65-.47-1.66-.9-2.92-1.05-2.52-.29-4.73-.1-4.76-.46,0-.15.5-.34,1.38-.52.88-.16,2.12-.3,3.53-.12Z"/>
            </g>
          </g>
          <g class="cls-14">
            <path class="cls-6" d="M203.95,141.73c1.15-1,1.25-2.85-.1-3.53-1.09-.55-2.13.24-2.57,1.35-.82-1.08-2.38-1.41-3.25-.34-.96,1.17.1,2.72,1.51,3.18-1.23.8-1.62,2.52-.46,3.41,1.13.87,2.54-.06,3.05-1.36.95,1.24,2.85,1.43,3.59.08.67-1.23-.43-2.46-1.77-2.78Z"/>
          </g>
          <g class="cls-14">
            <path class="cls-6" d="M109.87,137.82c1.15-1,1.25-2.85-.1-3.53-1.09-.55-2.13.24-2.57,1.35-.82-1.08-2.38-1.41-3.25-.34-.96,1.17.1,2.72,1.51,3.18-1.23.8-1.62,2.52-.46,3.41,1.13.87,2.54-.06,3.05-1.36.95,1.24,2.85,1.43,3.59.08.67-1.23-.43-2.46-1.77-2.78Z"/>
          </g>
          <g class="cls-14">
            <path class="cls-6" d="M136.45,15.32c1.15-1,1.25-2.85-.1-3.53-1.09-.55-2.13.24-2.57,1.35-.82-1.08-2.38-1.41-3.25-.34-.96,1.17.1,2.72,1.51,3.18-1.23.8-1.62,2.52-.46,3.41,1.13.87,2.54-.06,3.05-1.36.95,1.24,2.85,1.43,3.59.08.67-1.23-.43-2.46-1.77-2.78Z"/>
          </g>
          <g class="cls-14">
            <path class="cls-6" d="M130.53,54.57c.73-.63.79-1.8-.06-2.23-.69-.35-1.35.15-1.62.85-.52-.68-1.5-.89-2.05-.22-.61.74.06,1.71.95,2.01-.77.5-1.02,1.59-.29,2.15.71.55,1.6-.04,1.92-.86.6.79,1.8.9,2.26.05.42-.78-.27-1.55-1.11-1.76Z"/>
          </g>
          <g class="cls-14">
            <path class="cls-6" d="M188.78,10.07c.73-.63.79-1.8-.06-2.23-.69-.35-1.35.15-1.62.85-.52-.68-1.5-.89-2.05-.22-.61.74.06,1.71.95,2.01-.77.5-1.02,1.59-.29,2.15.71.55,1.6-.04,1.92-.86.6.79,1.8.9,2.26.05.42-.78-.27-1.55-1.11-1.76Z"/>
          </g>
          <g class="cls-14">
            <path class="cls-6" d="M215.32,155.94c.73-.63.79-1.8-.06-2.23-.69-.35-1.35.15-1.62.85-.52-.68-1.5-.89-2.05-.22-.61.74.06,1.71.95,2.01-.77.5-1.02,1.59-.29,2.15.71.55,1.6-.04,1.92-.86.6.79,1.8.9,2.26.05.42-.78-.27-1.55-1.11-1.76Z"/>
          </g>
          <g class="cls-14">
            <path class="cls-6" d="M129.75,140c.73-.63.79-1.8-.06-2.23-.69-.35-1.35.15-1.62.85-.52-.68-1.5-.89-2.05-.22-.61.74.06,1.71.95,2.01-.77.5-1.02,1.59-.29,2.15.71.55,1.6-.04,1.92-.86.6.79,1.8.9,2.26.05.42-.78-.27-1.55-1.11-1.76Z"/>
          </g>
          <g class="cls-14">
            <path class="cls-6" d="M92,58.25c.73-.63.79-1.8-.06-2.23-.69-.35-1.35.15-1.62.85-.52-.68-1.5-.89-2.05-.22-.61.74.06,1.71.95,2.01-.77.5-1.02,1.59-.29,2.15.71.55,1.6-.04,1.92-.86.6.79,1.8.9,2.26.05.42-.78-.27-1.55-1.11-1.76Z"/>
          </g>
        </g>
        <g>
          <g>
            <g>
              <path class="cls-18" d="M24.93-13c-.4-4.31-1.44-8.84-3.03-12.82-4.48,4.39-9.21,12.35-7.97,18.81.46,2.39,2.05,10.74,2.16,12.74C21.95.84,25.41-7.91,24.93-13Z"/>
              <path class="cls-17" d="M24.89-13c-.2-2.19-.63-4.36-1.21-6.48-.29-1.06-.61-2.11-.97-3.14-.34-1.04-.72-2.07-1.14-3.08l.57.12c-.99.99-1.93,2.04-2.79,3.15-.89,1.09-1.69,2.25-2.42,3.46-.38.6-.7,1.22-1.03,1.85-.29.64-.6,1.28-.84,1.94-.51,1.31-.89,2.69-1.05,4.08-.18,1.4-.12,2.81.16,4.18.3,1.39.61,2.78.88,4.17.28,1.39.56,2.79.8,4.19.24,1.41.51,2.78.64,4.26l-.68-.3c1.33-1.13,2.53-2.41,3.57-3.82,1.04-1.41,1.98-2.9,2.79-4.46.81-1.56,1.52-3.19,2.02-4.88.51-1.69.78-3.47.68-5.24ZM24.97-13.01c.17,1.79-.1,3.57-.47,5.32-.4,1.75-.96,3.46-1.71,5.1-.75,1.64-1.65,3.21-2.74,4.65-1.08,1.45-2.29,2.81-3.69,3.97l-.61.5-.07-.8c-.25-2.75-.81-5.58-1.24-8.37l-.69-4.2c-.24-1.43-.2-2.88,0-4.3.43-2.84,1.5-5.52,2.83-8.05,1.33-2.53,3.04-4.88,5.08-6.9l.38-.38.19.5c.39,1.04.75,2.09,1.05,3.16.29,1.07.54,2.15.76,3.24.22,1.08.39,2.18.54,3.27.15,1.09.29,2.19.39,3.29Z"/>
            </g>
            <path class="cls-2" d="M16.23,5.6c1.32-.95,5.52-29.13,5.81-31.04"/>
          </g>
          <g>
            <g>
              <path class="cls-21" d="M32.15,25.42c-4.08-.94-7.36-1.13-11.56-.94-2.56.12-7.51,1.29-7.78,4.46-.22,2.6,2.43,4.27,4.53,4.96,3.32,1.1,8.51,1.35,9.62,1.81-3,2.27-6.83,4.3-9.05,7.54-1.18,1.72-2.04,4.4-.18,6.47,1.92,2.14,4.68,1.45,6.5.39,3.4-1.97,5.7-5.64,8.19-8.46.38,1.14.43,7.85,1.08,9.72.73,2.09,2,4.91,4.61,4.88,3.19-.04,4.73-4.88,5.03-7.42.5-4.17,1.05-6.99.41-11.13,2.58,3.3,8.96,8.69,13.45,6.29,6.34-3.39-2.07-10.97-5.65-13.34-3.29-2.18-8-4.86-8.49-5.25-.26-.2-1.4-5.22-2.29-7.34-2.03-4.87-8.48-12.35-12.33-6.28-2.73,4.29.8,10.81,3.9,13.62Z"/>
              <path class="cls-17" d="M29.04,21.27c-.82-1.52-1.43-3.17-1.63-4.89-.2-1.7.12-3.51,1.17-4.88.5-.69,1.13-1.3,1.92-1.61.78-.33,1.67-.29,2.47-.03,1.62.53,2.95,1.74,4.09,3,1.14,1.29,2.11,2.74,2.88,4.27.78,1.53,1.2,3.22,1.67,4.89l.69,2.52c.06.21.12.42.2.63.05.12.05.19.17.36.16.15.21.16.32.24l1.12.68,4.46,2.69c1.47.93,2.96,1.81,4.3,2.89,1.35,1.07,2.62,2.25,3.73,3.56,1.09,1.3,2.12,2.77,2.43,4.41.15.82.02,1.66-.43,2.34-.44.69-1.16,1.18-1.9,1.55-1.52.73-3.33.52-4.9-.08-1.6-.6-3.06-1.55-4.41-2.61-1.34-1.08-2.6-2.28-3.67-3.62l-.46-.58.13.73c.54,3.1.26,6.25-.16,9.37-.1.78-.18,1.57-.3,2.34-.13.77-.33,1.53-.58,2.27-.51,1.46-1.23,2.94-2.48,3.85-.62.45-1.4.66-2.16.56-.76-.09-1.47-.47-2.01-1.01-1.09-1.1-1.71-2.61-2.19-4.09-.64-3.08-.5-6.26-1-9.4l-.02-.15-.11.13c-2.09,2.36-3.86,5-6.26,7.03-1.19.99-2.53,1.88-4.05,2.21-.75.17-1.54.18-2.27,0-.73-.2-1.39-.62-1.91-1.19-.52-.56-.86-1.26-1-2.01-.12-.75-.05-1.53.19-2.26.44-1.48,1.43-2.74,2.52-3.84,2.21-2.22,4.98-3.76,7.51-5.67l.31-.23-.36-.12c-.83-.27-1.6-.32-2.4-.45l-2.37-.32c-1.57-.23-3.15-.49-4.66-.95-1.49-.46-2.95-1.24-3.91-2.47-.97-1.2-1.01-3.08.09-4.21,1.06-1.14,2.61-1.74,4.13-2.13,1.54-.41,3.13-.45,4.73-.48,3.2-.1,6.36.22,9.53.9-1.28-1.24-2.3-2.62-3.13-4.16ZM22.64,24.31c-1.59.01-3.22.04-4.79.45-1.55.39-3.13.97-4.28,2.18-1.21,1.21-1.18,3.29-.13,4.58,1.02,1.32,2.52,2.11,4.05,2.61,1.54.49,3.13.75,4.71,1,1.56.26,3.22.36,4.67.77l-.05-.35c-2.5,1.88-5.27,3.46-7.52,5.74-1.1,1.13-2.12,2.44-2.58,4-.24.77-.32,1.6-.18,2.41.15.8.53,1.56,1.09,2.15.55.6,1.27,1.05,2.06,1.26.79.2,1.62.18,2.4-.01,1.58-.36,2.94-1.28,4.14-2.29,2.41-2.08,4.17-4.74,6.23-7.1l-.14-.03c.53,3.07.34,6.28.98,9.4.48,1.51,1.08,3.02,2.21,4.19.56.58,1.32.99,2.13,1.09.81.11,1.66-.12,2.32-.59,1.33-.96,2.06-2.48,2.6-3.95.26-.75.47-1.52.61-2.3.13-.79.21-1.57.32-2.35.44-3.11.76-6.32.24-9.47l-.34.15c1.09,1.38,2.34,2.62,3.71,3.72,1.37,1.09,2.86,2.06,4.52,2.68,1.63.63,3.57.87,5.23.08.8-.4,1.57-.92,2.08-1.7.52-.78.67-1.76.5-2.65-.34-1.8-1.41-3.29-2.52-4.63-1.14-1.34-2.43-2.53-3.79-3.63-1.37-1.1-2.88-2-4.34-2.92l-4.46-2.7-1.1-.68c-.23-.14-.22-.11-.3-.37l-.19-.61-.72-2.5c-.5-1.66-.93-3.37-1.75-4.94-.81-1.56-1.8-3.01-2.98-4.32-1.18-1.27-2.54-2.5-4.25-3.04-.84-.27-1.81-.3-2.63.07-.84.34-1.5.99-2,1.71-1.07,1.43-1.37,3.3-1.15,5.02.21,1.74.85,3.4,1.69,4.92.85,1.51,1.9,2.97,3.18,4.09-3.05-.79-6.3-1.13-9.49-1.09Z"/>
            </g>
            <path class="cls-4" d="M18.05,49.97c3.66-3.87,7.95-7.14,11.66-10.98,3.38-3.49,6.87-6.88,10.17-10.45,5.15-5.58,7.22-7.84,10.79-14.57"/>
            <path class="cls-4" d="M37.36,56.33s2.05-15.32-1.2-24c-4.55-3.82-23.35-3.39-23.35-3.39"/>
            <path class="cls-4" d="M58.12,43.13s-12.78-12.87-18-14.8c-2.6-6.42-10.71-17.66-10.71-17.66"/>
          </g>
          <g>
            <path class="cls-7" d="M-18.57,7.08c.99-1.58,13.63-.51,16.02.27,1.65.53,3.21,1.32,3.96,2.98,1.59,3.54-3.25,10.21-4.84,12.22-1.39,1.76-3.37,4.54-5.65,2.38-2.84-2.68-2.77-6.68-4.36-9.98-1.29-2.68-6.11-6.3-5.12-7.87Z"/>
            <path class="cls-17" d="M-18.64,8.04c.1.32.26.61.43.89.35.56.76,1.07,1.18,1.57.84,1,1.74,1.96,2.52,3,.82,1.02,1.3,2.23,1.68,3.47.38,1.24.7,2.52,1.11,3.77.42,1.25.96,2.49,1.81,3.52.42.51.87,1.02,1.5,1.35.61.34,1.4.34,2.02.04,1.25-.61,2.04-1.73,2.85-2.75.81-1.03,1.57-2.11,2.27-3.21C.11,17.48,1.43,15.12,1.77,12.48c.06-.65.04-1.34-.2-1.97-.23-.63-.61-1.19-1.1-1.65-.98-.92-2.25-1.43-3.52-1.77-2.58-.56-5.2-.72-7.82-.84-1.31-.05-2.62-.07-3.93-.02-.65.03-1.31.07-1.96.17-.32.05-.65.11-.97.2-.31.1-.65.2-.85.48-.18.29-.17.66-.06.97ZM-17.71,6.64c.31-.08.64-.13.96-.18.65-.08,1.3-.11,1.95-.12,1.31-.03,2.61.02,3.92.1,1.3.08,2.61.19,3.91.34,1.3.16,2.6.28,3.87.55,1.24.31,2.5.8,3.45,1.67.47.43.85.97,1.08,1.57.24.6.27,1.26.22,1.9-.1,1.3-.58,2.54-1.13,3.72-.56,1.18-1.22,2.31-1.94,3.4-.72,1.09-1.49,2.14-2.32,3.15-.82,1-1.64,2.08-2.77,2.63-.56.26-1.21.27-1.76-.03-.55-.28-.99-.78-1.39-1.27-.82-.99-1.34-2.2-1.75-3.43-.81-2.44-1.19-5.19-2.93-7.27-.82-1.03-1.74-1.97-2.6-2.95-.43-.49-.85-.99-1.21-1.54-.32-.52-.73-1.19-.4-1.8.19-.26.53-.36.84-.45Z"/>
          </g>
          <g class="cls-14">
            <path class="cls-6" d="M59.2,57.73c1.15-1,1.25-2.85-.1-3.53-1.09-.55-2.13.24-2.57,1.35-.82-1.08-2.38-1.41-3.26-.34-.96,1.17.1,2.72,1.51,3.18-1.23.8-1.62,2.52-.46,3.41,1.13.87,2.54-.06,3.05-1.36.95,1.24,2.85,1.43,3.59.08.67-1.23-.43-2.46-1.77-2.78Z"/>
          </g>
          <g class="cls-14">
            <path class="cls-6" d="M70.57,71.94c.73-.63.79-1.8-.06-2.23-.69-.35-1.35.15-1.62.85-.52-.68-1.5-.89-2.05-.22-.61.74.06,1.71.95,2.01-.77.5-1.02,1.59-.29,2.15.71.55,1.6-.04,1.92-.86.6.79,1.8.9,2.26.05.42-.78-.27-1.55-1.11-1.76Z"/>
          </g>
        </g>
      </g>
    </pattern>
  </defs>
  <g id="Pattern">
    <g>
      <rect class="cls-6" width="250" height="250"/>
      <rect class="cls-22" width="250" height="250"/>
    </g>
  </g>
</svg>