<?xml version="1.0" encoding="UTF-8"?>
<svg id="Layer_2" data-name="Layer 2" xmlns="http://www.w3.org/2000/svg" xmlns:xlink="http://www.w3.org/1999/xlink" viewBox="0 0 250 250">
  <defs>
    <style>
      .cls-1, .cls-2, .cls-3 {
        fill: none;
      }

      .cls-2 {
        stroke-width: .4px;
      }

      .cls-2, .cls-3, .cls-4 {
        stroke-miterlimit: 10;
      }

      .cls-2, .cls-3, .cls-4, .cls-5, .cls-6 {
        stroke: #753225;
      }

      .cls-3 {
        stroke-width: .28px;
      }

      .cls-7 {
        fill: #93225d;
      }

      .cls-4, .cls-8, .cls-9, .cls-6 {
        fill: #ed672d;
      }

      .cls-4, .cls-5, .cls-6 {
        stroke-width: .21px;
      }

      .cls-10, .cls-8, .cls-11, .cls-12 {
        mix-blend-mode: multiply;
      }

      .cls-10, .cls-8, .cls-13, .cls-12 {
        opacity: .3;
      }

      .cls-14, .cls-12 {
        fill: #ff8b0d;
      }

      .cls-15, .cls-5 {
        fill: #fed29f;
      }

      .cls-5, .cls-6 {
        stroke-linecap: round;
        stroke-linejoin: round;
      }

      .cls-16 {
        fill: #fff;
      }

      .cls-17 {
        fill: #753225;
      }

      .cls-18 {
        fill: #6d8244;
      }

      .cls-19 {
        opacity: .4;
      }

      .cls-20 {
        fill: #f4d590;
      }

      .cls-21 {
        fill: url(#New_Pattern_Swatch_6);
      }
    </style>
    <pattern id="New_Pattern_Swatch_6" data-name="New Pattern Swatch 6" x="0" y="0" width="208.5" height="162" patternTransform="translate(-338.68 -95.01)" patternUnits="userSpaceOnUse" viewBox="0 0 208.5 162">
      <g>
        <rect class="cls-1" x="0" width="208.5" height="162"/>
        <g>
          <g class="cls-11">
            <circle class="cls-20" cx="164.14" cy="118.45" r="2.56"/>
          </g>
          <g>
            <g>
              <path class="cls-18" d="M187.01,97.68c-1.49.97-3.07,1.69-4.8,2.17-9.24,2.54-15.4-3.12-18-4.92-3.28-2.26-7.56-4.82-11.61-6.65,1.75-.31,8.57-4.27,10.32-5.4,2.65-1.7,5.35-3.2,8.27-4.42,3.41-1.42,7.46-1.69,10.5-.66,3.04,1.03,5.56,2.66,7.83,4.81,1.61,1.53,4.08,4.33,6.48,4.49-.93.79-6.17,8.73-8.99,10.57Z"/>
              <path class="cls-17" d="M187.03,97.71c-2.65,1.77-5.81,2.74-9,2.91-1.6.06-3.22-.09-4.77-.49-1.56-.4-3.05-1.03-4.46-1.8-1.42-.76-2.71-1.72-3.98-2.67-1.27-.93-2.6-1.81-3.93-2.67-2.68-1.7-5.43-3.29-8.32-4.61l-.25-.11.27-.07c.96-.24,1.9-.7,2.81-1.15.91-.46,1.81-.95,2.7-1.44,1.79-.99,3.54-2.04,5.25-3.16,1.72-1.11,3.5-2.15,5.34-3.06.92-.46,1.85-.89,2.81-1.28.96-.39,1.97-.67,2.99-.87,2.04-.38,4.16-.44,6.21,0,1.03.24,2,.6,2.95,1.03.95.43,1.86.93,2.73,1.49.87.56,1.69,1.2,2.48,1.87.78.68,1.51,1.42,2.23,2.13.72.71,1.46,1.41,2.28,1.99.81.58,1.71,1.07,2.67,1.16l.46.05-.34.32c-.38.36-.74.84-1.1,1.29l-1.07,1.37c-.71.92-1.42,1.83-2.15,2.74-.73.9-1.47,1.8-2.24,2.67-.78.86-1.58,1.72-2.55,2.37ZM187,97.66c.95-.66,1.73-1.53,2.5-2.39.76-.87,1.48-1.78,2.18-2.71.7-.93,1.38-1.86,2.06-2.8l1.02-1.41c.36-.47.66-.93,1.12-1.39l.12.37c-1.1-.06-2.07-.59-2.93-1.17-.86-.59-1.63-1.29-2.38-2-.74-.72-1.45-1.44-2.22-2.1-.77-.66-1.57-1.27-2.42-1.82-1.69-1.09-3.56-1.95-5.49-2.44-1.95-.45-4-.41-5.98-.06-.99.18-1.96.46-2.91.81-.94.36-1.88.78-2.8,1.21-1.84.87-3.62,1.87-5.36,2.94-1.73,1.09-3.53,2.08-5.32,3.07-.9.49-1.8.97-2.72,1.43-.93.44-1.83.93-2.85,1.19l.02-.18c2.9,1.31,5.72,2.81,8.44,4.46,1.36.83,2.71,1.67,4,2.62,1.27.95,2.57,1.85,3.94,2.63,2.73,1.55,5.83,2.51,8.99,2.46,3.16-.04,6.32-.96,8.98-2.7Z"/>
            </g>
            <path class="cls-3" d="M153.02,88.23s25.89,3.34,42.98-1.12c2.7-.7,4.97-1.36,6.88-1.97"/>
            <path class="cls-3" d="M162.73,93.87s3.2-.25,8.26-4.37c-.56-4.09-8.08-6.61-8.08-6.61"/>
            <path class="cls-3" d="M169.02,98.01s5.62-1.36,9.7-8.74c-1.6-4.33-6.78-9.44-10.18-9.77"/>
            <path class="cls-3" d="M175.75,100.41s6.74-2.24,9.87-11.49c-.8-2.05-2.96-8.85-9.53-11.66"/>
          </g>
          <g>
            <g>
              <path class="cls-7" d="M161.69,147.34c-.63-.71-2.13-5.78,1.75-10.58,3.4-4.2,7.01-5.12,7.98-5.75.03,2.26.63,10.39-5.84,15.21-1.23.92-3.44,1.26-3.89,1.12Z"/>
              <path class="cls-17" d="M166.57,145.59c1.36-1.15,2.49-2.58,3.28-4.19.81-1.6,1.3-3.34,1.54-5.1.26-1.76.24-3.55.15-5.3v-.2s-.18.1-.18.1c-.74.43-1.59.75-2.36,1.19-.78.42-1.54.9-2.26,1.41-1.44,1.05-2.76,2.27-3.84,3.7-1.09,1.43-1.79,3.15-2.05,4.93-.14.89-.12,1.8-.01,2.69.13.88.33,1.78.86,2.53,1.77.13,3.62-.51,4.9-1.77ZM161.04,144.81c-.07-.87-.03-1.75.12-2.61.29-1.72,1-3.36,2.02-4.78,1-1.43,2.22-2.74,3.64-3.79,1.41-1.1,3.05-1.73,4.67-2.52l-.18-.1c.03,1.76-.03,3.51-.31,5.24-.27,1.72-.78,3.4-1.54,4.96-.77,1.55-1.8,2.97-3.08,4.15-.33.28-.65.58-.99.84-.35.25-.74.44-1.14.6-.8.29-1.68.58-2.53.53-.45-.74-.57-1.66-.66-2.51Z"/>
            </g>
            <path class="cls-2" d="M176.2,143.97c-6.23,2.5-12.81,3.81-19.48,3.45-2.78-.15-5.22-.69-7.9-1.14"/>
            <g>
              <path class="cls-7" d="M168.84,146.29c-.07-.95,1.83-5.88,7.83-7.32,5.25-1.26,8.68.21,9.83.3-1.35,1.81-5.83,8.62-13.9,8.51-1.53-.02-3.49-1.1-3.76-1.48Z"/>
              <path class="cls-17" d="M173.78,147.88c1.78-.09,3.55-.53,5.15-1.33,1.61-.77,3.06-1.85,4.33-3.1,1.28-1.24,2.35-2.67,3.35-4.11l.11-.16-.2-.03c-.85-.11-1.72-.37-2.6-.5-.88-.14-1.77-.22-2.66-.26-1.78-.04-3.57.11-5.3.6-1.74.47-3.34,1.41-4.63,2.66-.65.62-1.19,1.35-1.65,2.12-.43.78-.83,1.61-.86,2.53,1.32,1.18,3.18,1.8,4.96,1.58ZM169.87,143.89c.48-.74,1.04-1.41,1.68-2,1.28-1.19,2.84-2.06,4.51-2.56,1.67-.52,3.43-.82,5.2-.79,1.79-.02,3.47.48,5.24.84l-.09-.19c-1.05,1.42-2.17,2.77-3.44,3.96-1.26,1.2-2.69,2.23-4.24,3-1.56.76-3.24,1.26-4.98,1.42-.43.02-.87.06-1.3.06-.42-.02-.85-.1-1.27-.22-.81-.26-1.68-.57-2.33-1.12.09-.86.55-1.66,1.01-2.39Z"/>
            </g>
            <g>
              <path class="cls-7" d="M157.12,147.65c-.49.81-1.04,6.07,3.64,10.09,4.1,3.52,7.82,3.76,8.89,4.21-.38-2.23-1.27-10.33-8.51-13.9-1.37-.68-3.61-.61-4.03-.4Z"/>
              <path class="cls-17" d="M159.72,147.72c.43.08.84.2,1.23.38.38.19.75.43,1.13.65,1.47.93,2.75,2.14,3.79,3.52,1.03,1.39,1.84,2.95,2.41,4.6.59,1.64.97,3.35,1.26,5.09l.16-.13c-1.74-.48-3.47-.8-5.05-1.63-1.59-.77-3.02-1.84-4.27-3.07-1.26-1.21-2.25-2.69-2.85-4.33-.3-.82-.5-1.68-.59-2.55-.07-.86-.12-1.78.19-2.59.83-.2,1.74-.08,2.59.06ZM156.72,150.27c.06.89.2,1.79.5,2.64.58,1.7,1.58,3.27,2.92,4.48,1.32,1.22,2.85,2.17,4.45,2.94.81.37,1.63.71,2.48.98.84.28,1.74.45,2.54.74l.19.07-.03-.2c-.23-1.74-.53-3.5-1.11-5.18-.55-1.69-1.35-3.31-2.44-4.73-1.07-1.44-2.44-2.64-3.98-3.52-1.49-1-3.42-1.3-5.14-.85-.39.83-.42,1.75-.39,2.64Z"/>
            </g>
          </g>
          <g>
            <path class="cls-17" d="M201.04,150.29l3.14,7.33s4.24-.58,10.98-3.2c6.74-2.62,14.76-4.7,20.82-6.61,12.34-3.89,20.05-9.36,22.21-15.33-.44-1.25-1.6-3.81-1.6-3.81l-30.41,13.47-25.14,8.15Z"/>
            <g>
              <path class="cls-14" d="M213.81,103.78s2.54,11.94,6.08,18.19c2.78,4.91,8.14,8.78,15.47,7.38,7.33-1.41,10.56-7.69,16.37-5.39,4.08,1.61,4.91,4.84,4.91,4.84,0,0-6.11,9.76-19.1,13.54-12.32,3.58-19.42,2.52-25.92,4.82-8.5,3.02-10.32,3.71-10.32,3.71,0,0-2.34-2.65-2.52-10.89-.18-8.24-.36-10.4-1.53-14.04-1.18-3.64-6.33-12.84-6.33-12.84,0,0,17.97-9.04,22.9-9.32Z"/>
              <path class="cls-17" d="M213.84,103.75c.65,2.59,1.32,5.05,2.11,7.55.79,2.48,1.62,4.94,2.65,7.32,1.02,2.38,2.27,4.65,4.06,6.47,1.78,1.82,4.03,3.16,6.48,3.76,2.46.59,5.07.42,7.5-.26,2.45-.71,4.64-2.06,6.87-3.44,1.12-.67,2.3-1.32,3.6-1.71,1.3-.4,2.74-.41,4.04,0,2.56.8,4.85,2.68,5.7,5.3l.03.1-.06.08c-2.99,4.22-6.96,7.61-11.37,10.2-4.41,2.67-9.45,4-14.43,5.08-2.51.52-5.04.91-7.57,1.23-2.53.33-5.07.58-7.56,1.04-1.24.24-2.47.52-3.65.94-1.19.4-2.39.86-3.59,1.29l-7.18,2.62-.34.12-.2-.25c-.6-.78-.91-1.54-1.24-2.35-.3-.8-.53-1.62-.72-2.45-.38-1.66-.57-3.34-.66-5.01-.13-3.35-.1-6.65-.41-9.93-.16-1.63-.46-3.22-.95-4.78-.46-1.55-1.15-3.04-1.84-4.54-1.41-2.99-2.94-5.93-4.52-8.84l-.18-.34.34-.16c3.72-1.81,7.48-3.54,11.28-5.17,1.9-.81,3.82-1.59,5.77-2.28.98-.34,1.95-.68,2.95-.96.99-.29,2-.54,3.08-.61ZM213.78,103.82c-1.97.29-3.96,1.06-5.86,1.8-1.92.76-3.8,1.6-5.69,2.44-3.76,1.7-7.48,3.5-11.15,5.37l.15-.5c1.64,2.9,3.23,5.81,4.71,8.8.73,1.5,1.47,3.02,1.95,4.65.51,1.61.84,3.29,1,4.97.33,3.34.31,6.68.45,9.97.1,1.63.27,3.26.62,4.85.17.79.39,1.57.66,2.33.27.73.63,1.52,1.04,2.06l-.53-.13,7.22-2.56c1.21-.42,2.39-.87,3.63-1.26,1.24-.41,2.51-.68,3.78-.9,2.54-.43,5.09-.63,7.62-.91,2.53-.28,5.05-.61,7.55-1.1,4.97-1.01,9.97-2.26,14.37-4.85,2.22-1.24,4.27-2.77,6.15-4.47,1.87-1.7,3.62-3.59,5-5.7l-.03.18c-.83-2.37-3.05-4.13-5.44-4.8-1.2-.35-2.46-.31-3.64.08-1.19.38-2.29,1.04-3.4,1.71-2.19,1.37-4.46,2.81-7.04,3.58-2.57.74-5.33.86-7.94.22-2.61-.66-4.98-2.12-6.82-4.04-1.88-1.92-3.1-4.34-4.07-6.76-1.96-4.85-3.24-9.98-4.27-15.02Z"/>
            </g>
            <path class="cls-12" d="M219.02,144.76c-4.29-.26-9.49-1.15-12.38-4.68-1.5-1.83-2.14-4.14-2.58-6.41-.55-2.77-1.02-5.53-1.84-8.24-.87-2.86-1.98-5.58-3.63-8.08-1.35-2.04-2.92-3.92-4.47-5.81-1.93.93-3.19,1.56-3.19,1.56,0,0,5.15,9.2,6.33,12.84,1.18,3.64,1.35,5.8,1.53,14.04.18,8.24,2.52,10.89,2.52,10.89,0,0,1.82-.69,10.32-3.71,3.96-1.41,8.15-1.56,13.62-2.28-2.08.04-4.16,0-6.22-.12Z"/>
          </g>
        </g>
        <g>
          <g>
            <path class="cls-18" d="M82.76,178.68c-1.49.97-3.07,1.69-4.8,2.17-9.24,2.54-15.4-3.12-18-4.92-3.28-2.26-7.56-4.82-11.61-6.65,1.75-.31,8.57-4.27,10.32-5.4,2.65-1.7,5.35-3.2,8.27-4.42,3.41-1.42,7.46-1.69,10.5-.66,3.04,1.03,5.56,2.66,7.83,4.81,1.61,1.53,4.08,4.33,6.48,4.49-.93.79-6.17,8.73-8.99,10.57Z"/>
            <path class="cls-17" d="M82.78,178.71c-2.65,1.77-5.81,2.74-9,2.91-1.6.06-3.22-.09-4.77-.49-1.56-.4-3.05-1.03-4.46-1.8-1.42-.76-2.71-1.72-3.98-2.67-1.27-.93-2.6-1.81-3.93-2.67-2.68-1.7-5.43-3.29-8.32-4.61l-.25-.11.28-.07c.96-.24,1.9-.7,2.81-1.15.91-.46,1.81-.95,2.7-1.44,1.79-.99,3.54-2.04,5.25-3.16,1.72-1.11,3.5-2.15,5.34-3.06.92-.46,1.85-.89,2.81-1.28.96-.39,1.97-.67,2.99-.87,2.04-.38,4.16-.44,6.21,0,1.03.24,2,.6,2.95,1.03.95.43,1.86.93,2.73,1.49.87.56,1.69,1.2,2.48,1.87.78.68,1.51,1.42,2.23,2.13.72.71,1.46,1.41,2.28,1.99.81.58,1.71,1.07,2.67,1.16l.46.05-.34.32c-.38.36-.74.84-1.1,1.29l-1.07,1.37c-.71.92-1.42,1.83-2.15,2.74-.73.9-1.47,1.8-2.24,2.67-.78.86-1.58,1.72-2.55,2.37ZM82.75,178.66c.95-.66,1.73-1.53,2.5-2.39.76-.87,1.48-1.78,2.18-2.71.7-.93,1.38-1.86,2.06-2.8l1.02-1.41c.36-.47.66-.93,1.12-1.39l.12.37c-1.1-.06-2.07-.59-2.93-1.17-.86-.59-1.63-1.29-2.38-2-.74-.72-1.45-1.44-2.22-2.1-.77-.66-1.57-1.27-2.42-1.82-1.69-1.09-3.56-1.95-5.49-2.44-1.95-.45-4-.41-5.98-.06-.99.18-1.96.46-2.91.81-.94.36-1.88.78-2.8,1.21-1.84.87-3.62,1.87-5.36,2.94-1.73,1.09-3.53,2.08-5.32,3.07-.9.49-1.8.97-2.72,1.43-.93.44-1.83.93-2.85,1.19l.02-.18c2.9,1.31,5.72,2.81,8.44,4.46,1.36.83,2.71,1.67,4,2.62,1.27.95,2.57,1.85,3.94,2.63,2.73,1.55,5.83,2.51,8.99,2.46,3.16-.04,6.32-.96,8.98-2.7Z"/>
          </g>
          <path class="cls-3" d="M64.77,179.01s5.62-1.36,9.7-8.74c-1.6-4.33-6.78-9.44-10.18-9.77"/>
          <path class="cls-3" d="M71.51,181.41s6.74-2.24,9.87-11.49c-.8-2.05-2.96-8.85-9.53-11.66"/>
        </g>
        <g>
          <g class="cls-11">
            <circle class="cls-20" cx="31.39" cy="162.7" r="2.56"/>
          </g>
          <g>
            <path class="cls-17" d="M-7.46,150.29l3.14,7.33s4.24-.58,10.98-3.2c6.74-2.62,14.76-4.7,20.82-6.61,12.34-3.89,20.05-9.36,22.21-15.33-.44-1.25-1.6-3.81-1.6-3.81l-30.41,13.47-25.14,8.15Z"/>
            <g>
              <path class="cls-14" d="M5.31,103.78s2.54,11.94,6.08,18.19c2.78,4.91,8.14,8.78,15.47,7.38,7.33-1.41,10.56-7.69,16.37-5.39,4.08,1.61,4.91,4.84,4.91,4.84,0,0-6.11,9.76-19.1,13.54-12.32,3.58-19.42,2.52-25.92,4.82-8.5,3.02-10.32,3.71-10.32,3.71,0,0-2.34-2.65-2.52-10.89s-.36-10.4-1.53-14.04c-1.18-3.64-6.33-12.84-6.33-12.84,0,0,17.97-9.04,22.9-9.32Z"/>
              <path class="cls-17" d="M5.34,103.75c.65,2.59,1.32,5.05,2.11,7.55.79,2.48,1.62,4.94,2.65,7.32,1.02,2.38,2.27,4.65,4.06,6.47,1.78,1.82,4.03,3.16,6.48,3.76,2.46.59,5.07.42,7.5-.26,2.45-.71,4.64-2.06,6.87-3.44,1.12-.67,2.3-1.32,3.6-1.71,1.3-.4,2.74-.41,4.04,0,2.56.8,4.85,2.68,5.7,5.3l.03.1-.06.08c-2.99,4.22-6.96,7.61-11.37,10.2-4.41,2.67-9.45,4-14.43,5.08-2.51.52-5.04.91-7.57,1.23-2.53.33-5.07.58-7.56,1.04-1.24.24-2.47.52-3.65.94-1.19.4-2.39.86-3.59,1.29l-7.18,2.62-.34.12-.2-.25c-.6-.78-.91-1.54-1.24-2.35-.3-.8-.53-1.62-.72-2.45-.38-1.66-.57-3.34-.66-5.01-.13-3.35-.1-6.65-.41-9.93-.16-1.63-.46-3.22-.95-4.78-.46-1.55-1.15-3.04-1.84-4.54-1.41-2.99-2.94-5.93-4.52-8.84l-.18-.34.34-.16c3.72-1.81,7.48-3.54,11.28-5.17,1.9-.81,3.82-1.59,5.77-2.28.98-.34,1.95-.68,2.95-.96.99-.29,2-.54,3.08-.61ZM5.28,103.82c-1.97.29-3.96,1.06-5.86,1.8-1.92.76-3.8,1.6-5.69,2.44-3.76,1.7-7.48,3.5-11.15,5.37l.15-.5c1.64,2.9,3.23,5.81,4.71,8.8.73,1.5,1.47,3.02,1.95,4.65.51,1.61.84,3.29,1,4.97.33,3.34.31,6.68.45,9.97.1,1.63.27,3.26.62,4.85.17.79.39,1.57.66,2.33.27.73.63,1.52,1.04,2.06l-.53-.13,7.22-2.56c1.21-.42,2.39-.87,3.63-1.26,1.24-.41,2.51-.68,3.78-.9,2.54-.43,5.09-.63,7.62-.91,2.53-.28,5.05-.61,7.55-1.1,4.97-1.01,9.97-2.26,14.37-4.85,2.22-1.24,4.27-2.77,6.15-4.47,1.87-1.7,3.62-3.59,5-5.7l-.03.18c-.83-2.37-3.05-4.13-5.44-4.8-1.2-.35-2.46-.31-3.64.08-1.19.38-2.29,1.04-3.4,1.71-2.19,1.37-4.46,2.81-7.04,3.58-2.57.74-5.33.86-7.94.22-2.61-.66-4.98-2.12-6.82-4.04-1.88-1.92-3.1-4.34-4.07-6.76-1.96-4.85-3.24-9.98-4.27-15.02Z"/>
            </g>
            <path class="cls-12" d="M10.52,144.76c-4.29-.26-9.49-1.15-12.38-4.68-1.5-1.83-2.14-4.14-2.58-6.41-.55-2.77-1.02-5.53-1.84-8.24-.87-2.86-1.98-5.58-3.63-8.08-1.35-2.04-2.92-3.92-4.47-5.81-1.93.93-3.19,1.56-3.19,1.56,0,0,5.15,9.2,6.33,12.84,1.18,3.64,1.35,5.8,1.53,14.04s2.52,10.89,2.52,10.89c0,0,1.82-.69,10.32-3.71,3.96-1.41,8.15-1.56,13.62-2.28-2.08.04-4.16,0-6.22-.12Z"/>
            <g class="cls-19">
              <path class="cls-16" d="M37.63,127.89c-1.12.63-2.15,1.37-3.14,2.01-.99.64-1.96,1.17-2.82,1.5-1.74.64-2.88.63-2.92.45-.05-.21,1-.57,2.48-1.38.74-.41,1.57-.98,2.5-1.67.93-.68,1.96-1.48,3.19-2.17,1.22-.69,2.56-1.19,3.85-1.27,1.3-.11,2.48.25,3.31.75.85.5,1.35,1.16,1.57,1.65.22.5.21.8.12.83-.21.1-.66-.96-2.16-1.56-.73-.3-1.68-.48-2.71-.33-1.04.14-2.15.58-3.27,1.21Z"/>
            </g>
          </g>
        </g>
        <g>
          <g class="cls-11">
            <path class="cls-20" d="M147.1,18.11c0,.81-.66,1.47-1.47,1.47s-1.47-.66-1.47-1.47.66-1.47,1.47-1.47,1.47.66,1.47,1.47Z"/>
          </g>
          <g class="cls-11">
            <circle class="cls-20" cx="198.24" cy="62.31" r="2.56"/>
          </g>
          <g class="cls-11">
            <circle class="cls-20" cx="134.25" cy="29.5" r="2.56"/>
          </g>
          <g class="cls-11">
            <circle class="cls-20" cx="156.75" cy="46" r="2.56"/>
          </g>
          <g>
            <g>
              <g>
                <path class="cls-15" d="M169.97,18.24s.41-3.7,6.71-5.94c5.84-2.07,8.8-.71,9.8.7,1,1.41-4.12,9.7-4.12,9.7l-12.38-4.45Z"/>
                <path class="cls-17" d="M169.95,18.26c.17-1.32.95-2.43,1.86-3.34.92-.92,2.03-1.61,3.19-2.17,1.16-.56,2.39-.97,3.64-1.26,1.25-.28,2.55-.43,3.83-.34.64.03,1.28.13,1.89.34.61.2,1.21.48,1.7.91.12.11.24.22.34.35l.16.19c.04.08.1.16.11.25.09.34.04.68-.02,1-.13.64-.34,1.25-.57,1.85-.94,2.39-2.2,4.61-3.49,6.81l-.12.2-.22-.08c-2.1-.74-4.18-1.52-6.24-2.32-2.07-.78-4.09-1.6-6.07-2.39ZM169.99,18.23c2.15.69,4.25,1.36,6.31,2.06,2.07.69,4.11,1.4,6.14,2.14l-.34.12c.67-1.07,1.31-2.17,1.93-3.27.62-1.11,1.2-2.23,1.73-3.38.26-.57.49-1.16.64-1.77.07-.3.12-.61.06-.89,0-.07-.05-.12-.07-.19l-.14-.18c-.09-.12-.21-.22-.32-.34-.94-.83-2.24-1.15-3.48-1.18-1.26-.03-2.51.2-3.72.54-1.22.32-2.4.77-3.54,1.27-1.14.51-2.21,1.18-3.15,2-.46.42-.89.88-1.24,1.39-.36.5-.65,1.1-.8,1.67Z"/>
              </g>
              <g>
                <path class="cls-15" d="M181.43,19.55c-.34-.73-.82-3.72,3.49-6.78,6.78-4.81,13.27.8,13.7,2.18-.65,1.38-4.5,1.41-5.61,2.39-.44.38-.87.81-1.37,1.11-.52.31-1.13.46-1.66.73-1.38.71-3.1,1.48-4.65,1.64-1.24.13-3.34-.1-3.89-1.28Z"/>
                <path class="cls-17" d="M181.4,19.56c-.37-.94-.23-1.99.08-2.92.33-.95.91-1.79,1.58-2.53.68-.73,1.44-1.4,2.32-1.9l.64-.39c.22-.12.46-.21.69-.31.23-.1.46-.21.69-.29l.73-.19c1.95-.51,4.02-.28,5.88.38.93.35,1.82.79,2.65,1.34l.61.44c.2.15.38.32.58.48.35.36.74.68.97,1.23l.03.07-.04.08c-.21.45-.61.69-.97.88-.38.19-.76.33-1.15.44-.77.23-1.55.4-2.3.63-.37.12-.73.25-1.02.44-.07.05-.13.09-.2.15l-.22.2-.45.4c-.31.26-.67.52-1.06.69-.38.17-.76.29-1.11.44-1.4.69-2.92,1.38-4.53,1.59-.81.11-1.63.06-2.41-.11-.39-.09-.78-.21-1.13-.41-.35-.19-.67-.47-.85-.84ZM181.45,19.54c.17.35.49.61.83.79.35.18.73.28,1.12.35.78.12,1.58.1,2.33-.06.76-.16,1.5-.45,2.22-.75.73-.31,1.4-.68,2.14-1.04.38-.17.76-.3,1.1-.46.34-.15.63-.36.93-.61l.44-.39.22-.2c.08-.07.18-.14.28-.2.39-.23.78-.36,1.17-.48.78-.22,1.56-.38,2.31-.59.38-.1.75-.22,1.09-.38.34-.15.66-.36.8-.65v.15c-.15-.38-.5-.76-.82-1.11-.18-.16-.35-.34-.53-.49l-.57-.46c-.78-.58-1.65-1.04-2.56-1.39l-.69-.23c-.23-.07-.48-.11-.71-.16-.47-.12-.96-.13-1.45-.19-.97,0-1.95.1-2.86.41l-.69.22-.66.3c-.22.1-.44.19-.65.31l-.61.39-.61.38-.58.43c-.38.3-.76.6-1.1.94-.7.67-1.31,1.43-1.7,2.33-.38.88-.54,1.93-.19,2.84Z"/>
              </g>
              <g>
                <path class="cls-15" d="M178.74,20.82c-.14-.8-1.02-1.55-1.58-2.07-.37-.33-1.65-1.56-4.78-1.58-8.31-.04-10.47,8.2-10.04,9.58,1.32.77,12.91-1.96,14.29-2.72,1.09-.6,2.33-1.93,2.11-3.21Z"/>
                <path class="cls-17" d="M178.71,20.83c-.09-.47-.4-.87-.72-1.22-.33-.35-.71-.66-1.08-.96-.75-.59-1.67-.92-2.59-1.08-.93-.16-1.89-.18-2.83-.1-.24.02-.48,0-.71.05l-.7.13c-.47.06-.92.22-1.37.36-.11.04-.23.06-.34.11l-.32.15-.65.3c-.21.11-.41.25-.61.37-.2.13-.42.24-.59.4-.37.31-.74.6-1.06.97-.35.33-.63.73-.91,1.11-.53.8-.98,1.66-1.29,2.56l-.2.69c-.06.23-.1.47-.15.7-.06.45-.13.97-.03,1.35l-.09-.12c.25.1.68.1,1.04.08.38-.02.76-.06,1.15-.11.77-.09,1.53-.22,2.29-.36,1.53-.29,3.05-.62,4.56-.95,1.51-.35,3.04-.68,4.52-1.11.73-.19,1.37-.67,1.9-1.22.52-.55.92-1.31.8-2.08ZM178.77,20.82c.13.8-.26,1.57-.76,2.17-.5.6-1.13,1.15-1.89,1.42-.74.29-1.48.53-2.23.75-.75.22-1.51.43-2.27.61-1.52.37-3.05.69-4.6.95-.77.13-1.55.24-2.33.32-.39.04-.79.07-1.19.07-.2,0-.4,0-.61-.02-.21-.03-.41-.04-.66-.16l-.08-.04-.02-.08c-.12-.57.01-1.04.1-1.53.07-.24.12-.48.2-.71l.24-.69c.37-.91.84-1.77,1.39-2.57.58-.78,1.22-1.53,1.98-2.15.17-.18.39-.3.58-.45.2-.14.4-.29.61-.42l.65-.35.33-.17c.11-.05.23-.09.35-.13.46-.16.92-.37,1.41-.44l.73-.15c.24-.06.49-.04.74-.07.49-.04.99-.06,1.48-.03.49.04.99.1,1.47.23.96.24,1.89.66,2.62,1.33.35.34.71.67,1.03,1.03.31.37.63.77.72,1.26Z"/>
              </g>
              <g>
                <path class="cls-18" d="M174.02,20.91c.08-1.84,2.38-3.17,4.06-3.47-.81-1.69-1.33-3.68-.84-5.66.32-1.3,1.16-2.56,2.26-3.31,1.91-1.3,3.89-1.4,5.23-.29.59.49,1.09,1.16,1.37,1.74-.35.11-1.25.8-1.48,1.11-.35-.63-1.46-1.51-2.39-1.37-1.25.19-2.16.77-2.67,1.96-.66,1.55.22,3.42.61,4.93,1.43-.48,4.43-2.49,5.43-.17-1.31,1.82-3.75,2.64-5.72,3.45-1.67.69-4.05,1.31-5.87,1.07Z"/>
                <path class="cls-17" d="M174,20.92c0-.51.17-.96.43-1.38.26-.41.61-.76.99-1.06.77-.58,1.67-.99,2.63-1.19l-.1.2c-.66-1.34-1.11-2.82-1.07-4.35.02-1.52.65-3.04,1.72-4.12.54-.55,1.2-.94,1.89-1.25.69-.3,1.45-.48,2.21-.44.76.04,1.51.31,2.09.8.57.49,1.04,1.09,1.38,1.76l.03.06-.07.03c-.27.11-.52.3-.77.48-.24.19-.49.39-.67.61l-.07.08-.06-.09c-.24-.39-.6-.71-1-.95-.39-.24-.85-.41-1.29-.35-.92.12-1.81.57-2.29,1.36-.25.39-.41.82-.47,1.27-.06.45-.02.91.07,1.37.17.92.52,1.8.78,2.74l-.26-.14c.46-.16.92-.39,1.39-.6.47-.21.95-.41,1.47-.54.51-.13,1.07-.21,1.63-.06.57.15,1,.64,1.2,1.14l.04.11-.07.09c-.66.91-1.57,1.56-2.53,2.06-.96.51-1.96.89-2.95,1.27-.99.4-2.02.73-3.08.94-1.06.2-2.12.31-3.21.14ZM174.03,20.9c1.04.09,2.12-.06,3.14-.31,1.03-.24,2.03-.6,3-1.03.99-.41,1.97-.81,2.89-1.32.91-.51,1.77-1.14,2.37-1.97l-.02.2c-.19-.43-.51-.78-.94-.9-.43-.12-.93-.06-1.4.07-.48.13-.94.32-1.41.51-.47.2-.92.42-1.43.6l-.2.07-.05-.21c-.24-.91-.58-1.81-.75-2.78-.08-.48-.11-.98-.04-1.48.07-.5.27-.97.55-1.38.28-.41.66-.77,1.1-1,.44-.24.92-.36,1.41-.42.52-.05,1.01.15,1.41.41.41.27.77.6,1.03,1.04h-.12c.21-.26.46-.45.71-.64.25-.18.5-.37.81-.49l-.04.09c-.32-.66-.79-1.25-1.35-1.71-.56-.46-1.28-.72-2-.73-.73-.01-1.45.18-2.1.49-.65.32-1.27.72-1.76,1.25-.49.53-.89,1.14-1.16,1.81-.27.67-.4,1.38-.44,2.1-.06,1.45.36,2.89.98,4.22l.08.17-.18.03c-.91.16-1.8.53-2.57,1.07-.38.27-.73.59-1.01.97-.28.37-.46.84-.5,1.28Z"/>
              </g>
              <g>
                <path class="cls-15" d="M176.12,21.18c-1.59-.47-3.43-.63-5.04-.29-2.6.54-5.06,1.19-6.94,3.17-3.01,3.17-3.6,8.57-2.17,12.58,1.64,4.62,5.17,9.02,9.72,11.04,2.87,1.28,5.61,1.68,8.69.84,1.73-.47,4.08-1.45,3.92-3.7-.07-1.05-1.97-2.01-2.7-2.95-8.43-10.88-5.22-19-5.48-20.68Z"/>
                <path class="cls-17" d="M176.1,21.2c-1.62-.43-3.39-.53-5.03-.17-1.66.37-3.33.81-4.79,1.64-.73.41-1.39.93-1.97,1.54-.56.62-1.04,1.31-1.44,2.05-.77,1.49-1.23,3.14-1.36,4.82-.15,1.68-.02,3.4.46,5.02.48,1.63,1.22,3.18,2.12,4.63.91,1.44,2,2.78,3.27,3.92,1.25,1.16,2.69,2.11,4.24,2.81,1.55.7,3.2,1.17,4.89,1.26,1.68.09,3.37-.22,4.94-.81.77-.3,1.52-.71,2.03-1.31.25-.3.45-.64.52-1.02.03-.19.07-.38.06-.57,0-.21-.02-.33-.1-.5-.16-.32-.46-.61-.77-.88-.31-.28-.65-.54-.98-.82-.17-.14-.33-.29-.49-.45-.16-.16-.32-.35-.43-.52l-.76-1.05c-.52-.69-.96-1.43-1.42-2.17l-.34-.55-.3-.58-.59-1.16c-.7-1.58-1.35-3.19-1.71-4.89-.39-1.69-.57-3.42-.53-5.14,0-.86.09-1.72.2-2.57l.18-1.27c.06-.42.13-.85.12-1.26ZM176.14,21.16c.05.46,0,.88-.05,1.3l-.13,1.28c-.03.43-.07.85-.08,1.28-.02.43-.03.85-.02,1.28.02,1.7.26,3.4.67,5.04.38,1.66,1.05,3.23,1.77,4.77.78,1.51,1.62,2.99,2.63,4.36l.75,1.03c.24.35.52.6.85.88.32.27.66.53.99.83.33.29.66.61.89,1.06.11.22.17.53.15.74.01.23-.03.47-.08.7-.1.47-.35.89-.65,1.24-.62.7-1.44,1.13-2.25,1.44-1.64.61-3.4.88-5.15.75-1.74-.14-3.43-.66-4.98-1.41-3.14-1.49-5.66-4.03-7.54-6.89-.92-1.46-1.71-3-2.25-4.64-.53-1.65-.72-3.41-.61-5.14.13-1.73.56-3.46,1.39-5.01.42-.77.93-1.49,1.53-2.13.61-.63,1.32-1.17,2.09-1.59,1.54-.85,3.26-1.22,4.94-1.56.86-.17,1.73-.19,2.59-.12.87.08,1.7.24,2.54.52Z"/>
              </g>
              <g class="cls-10">
                <path class="cls-9" d="M181.2,44.33c-2.06.62-4.28,1.11-6.44,1.14-2.07.03-4.41-.15-6.36-.88-.99-.37-1.89-.92-2.74-1.55,1.67,1.97,3.72,3.61,6.03,4.64,2.87,1.28,5.61,1.68,8.69.84,1.73-.47,4.08-1.45,3.92-3.7-.03-.45-.4-.89-.88-1.32-.72.33-1.46.61-2.23.84Z"/>
              </g>
              <g>
                <path class="cls-15" d="M185.58,16.55c5.58-5.51,11.65-3.12,14.51-.99,2.53,1.88,3.91,4.74,4.82,7.65,1.52,4.89,2.27,10.94-2.34,15.53-1.23,1.22-5.93,3.38-7.87,3.17.87-2.66.2-5.61-.45-8.26-.78-3.18-2.18-5.98-3.98-8.68-1.2-1.81-2.67-3.48-3.79-5.33-.29-.48-1.4-2.59-.91-3.08Z"/>
                <path class="cls-17" d="M185.56,16.53c1.48-1.48,3.32-2.65,5.37-3.2,2.06-.51,4.29-.36,6.28.41,1,.38,1.95.87,2.83,1.49.88.62,1.64,1.39,2.3,2.23,1.3,1.71,2.11,3.71,2.7,5.73.58,2.02,1.04,4.1,1.1,6.21.05,1.05-.02,2.11-.21,3.15-.08.52-.23,1.03-.37,1.54-.18.5-.34,1.01-.58,1.48-.21.49-.5.94-.77,1.39-.15.22-.31.43-.47.65-.15.22-.32.43-.5.62l-.53.59c-.19.2-.41.37-.62.53-.44.31-.89.59-1.36.85-.93.51-1.9.95-2.89,1.32-.5.18-1.01.34-1.53.46-.53.12-1.06.23-1.64.18l-.32-.03.1-.31c.33-1.07.44-2.21.36-3.34-.07-1.13-.26-2.27-.51-3.39-.26-1.13-.52-2.25-.89-3.33-.37-1.09-.81-2.15-1.31-3.18-1.01-2.07-2.24-4.03-3.62-5.9-.68-.94-1.35-1.89-1.96-2.89-.3-.5-.56-1.03-.77-1.57-.11-.27-.2-.55-.27-.83-.05-.28-.12-.61.08-.86ZM185.6,16.57c-.17.22-.12.54-.06.81.07.28.17.55.28.82.22.53.48,1.05.79,1.54.61.98,1.34,1.89,2.05,2.81,1.45,1.81,2.81,3.73,3.88,5.82,1.1,2.07,1.82,4.34,2.31,6.62.25,1.14.48,2.3.52,3.49.06,1.18-.06,2.39-.43,3.53l-.22-.34c.47.05.98-.04,1.48-.15.5-.11.99-.27,1.48-.43.98-.34,1.94-.75,2.86-1.23.46-.24.91-.5,1.33-.79.21-.15.41-.3.59-.47l.53-.57c.18-.18.35-.38.5-.59.16-.21.32-.41.47-.62.27-.44.57-.87.78-1.34.25-.45.42-.95.61-1.43.15-.5.31-1,.39-1.51.2-1.02.28-2.07.23-3.11-.08-2.09-.54-4.15-1.2-6.14-.65-1.98-1.52-3.91-2.8-5.53-1.27-1.63-3.02-2.83-4.93-3.6-1.91-.78-4.04-1.05-6.08-.62-2.04.44-3.88,1.6-5.38,3.05Z"/>
              </g>
              <g class="cls-10">
                <path class="cls-9" d="M202.58,34.35c-2.16,1.84-4.84,2.63-7.59,3,.19,1.54.18,3.1-.3,4.57,1.94.21,6.64-1.95,7.87-3.17,3.02-3.01,3.75-6.64,3.46-10.17-.59,2.19-1.59,4.2-3.44,5.77Z"/>
              </g>
              <g>
                <path class="cls-15" d="M181,22.08c-.74-2.01,1.08-4.24,2.67-5.2,1.98-1.2,4.18-1.45,6.31-.6,4.21,1.69,6.42,5.14,8.1,9.16,1.92,4.59,2.96,9.86.89,14.32-1.25,2.69-3.6,4.68-6.65,5.32-1,.21-2.21.1-3.16-.2-1.24-.39-1.56-1.49-2.11-2.59-.91-1.84-2.81-9.7-3.44-11.6-.58-1.75-2.27-7.71-2.61-8.61Z"/>
                <path class="cls-17" d="M180.97,22.09c-.13-.38-.19-.79-.17-1.19.03-.41.14-.8.28-1.17.31-.75.81-1.4,1.37-1.98.57-.58,1.24-1.05,1.97-1.4.73-.36,1.52-.6,2.34-.7.82-.09,1.65-.05,2.45.16.4.11.79.24,1.16.41.38.15.74.34,1.1.53,1.44.77,2.68,1.89,3.7,3.15,1.01,1.28,1.79,2.7,2.45,4.17.65,1.47,1.22,2.97,1.67,4.52.88,3.07,1.28,6.38.44,9.54-.24.77-.5,1.54-.88,2.27-.38.72-.84,1.4-1.39,2.01-1.09,1.22-2.5,2.17-4.07,2.67-.39.13-.78.23-1.19.32-.42.07-.83.1-1.25.09-.42-.01-.83-.06-1.24-.14-.2-.04-.41-.09-.61-.15-.21-.06-.42-.15-.61-.26-.39-.23-.7-.57-.93-.93-.23-.36-.4-.74-.57-1.1l-.25-.54c-.09-.19-.17-.38-.24-.57-.15-.38-.27-.77-.4-1.15-.97-3.07-1.7-6.19-2.51-9.28-.9-3.07-1.68-6.18-2.64-9.23ZM181.02,22.07c.52,1.52.95,3.06,1.44,4.59.48,1.53.97,3.05,1.49,4.57.96,3.06,1.74,6.17,2.7,9.21.12.38.25.76.39,1.12.07.19.14.36.22.53l.26.54c.34.72.67,1.43,1.28,1.79.29.18.66.27,1.04.36.38.08.76.13,1.14.15.38.02.77,0,1.14-.06.37-.07.76-.17,1.13-.29,1.49-.47,2.85-1.33,3.92-2.47.54-.57,1-1.21,1.38-1.9.38-.69.66-1.43.91-2.18.91-3.05.59-6.37-.34-9.4-.22-.77-.5-1.52-.78-2.26-.31-.74-.62-1.47-.98-2.18-.7-1.43-1.52-2.8-2.52-4.02-.5-.61-1.05-1.17-1.65-1.68-.6-.51-1.26-.94-1.93-1.34-.34-.19-.69-.37-1.05-.53-.36-.17-.72-.3-1.09-.41-.75-.2-1.53-.29-2.31-.23-.78.06-1.55.26-2.27.58-.72.32-1.4.74-1.98,1.29-.58.54-1.07,1.19-1.38,1.92-.15.37-.26.75-.3,1.14-.03.39.02.79.15,1.17Z"/>
              </g>
              <g class="cls-10">
                <path class="cls-9" d="M199.51,31.93c-.28,4.23-3.12,7.8-6.89,9.57-1.68.79-3.48,1.23-5.32,1.35.42.9.82,1.72,1.85,2.04.96.3,2.17.41,3.16.2,3.05-.65,5.4-2.63,6.65-5.32,1.47-3.17,1.37-6.74.51-10.18.07.78.09,1.56.04,2.35Z"/>
              </g>
              <g>
                <path class="cls-15" d="M182.87,19.8c-1.3-1-4.22-1.52-7.77.9-1.75,1.19-2.28,2.32-3.12,4.28-.9,2.12-.67,5.47-.08,7.67,2.34,8.8,5.67,11.46,7.75,12.93,1.99,1.41,5.32,2.21,7.5,1.02,2.24-1.22,2.52-3.52,2.56-5.51.11-4.8-1.26-9.38-2.78-13.84-.56-1.65-2.83-6.49-4.07-7.44Z"/>
                <path class="cls-17" d="M182.85,19.82c-.62-.45-1.37-.69-2.13-.78-.76-.07-1.53-.01-2.27.19-1.48.39-2.83,1.18-3.98,2.15-1.16.98-1.77,2.41-2.33,3.82-.51,1.39-.59,2.95-.5,4.46.05.76.13,1.52.28,2.26.14.74.37,1.48.56,2.23.43,1.47.93,2.93,1.57,4.33.63,1.4,1.41,2.73,2.36,3.94.95,1.21,2.11,2.23,3.38,3.07,1.26.83,2.75,1.33,4.24,1.44.75.05,1.5,0,2.2-.22.69-.22,1.34-.61,1.84-1.14.5-.53.84-1.19,1.04-1.9.2-.71.27-1.46.3-2.22.05-1.52-.04-3.05-.25-4.56-.42-3.03-1.28-5.99-2.18-8.93-.42-1.47-1.05-2.88-1.7-4.27-.33-.7-.69-1.38-1.08-2.04-.39-.65-.8-1.33-1.37-1.84ZM182.89,19.78c.59.51,1,1.18,1.41,1.83.4.66.76,1.34,1.13,2.02.71,1.37,1.4,2.76,1.9,4.23,1.05,2.9,1.96,5.88,2.39,8.96.21,1.54.33,3.1.26,4.66-.04.78-.12,1.57-.35,2.35-.23.77-.61,1.51-1.19,2.1-.57.58-1.29,1.01-2.07,1.24-.78.22-1.59.25-2.37.18-1.57-.16-3.08-.72-4.38-1.61-.63-.45-1.24-.93-1.81-1.47-.56-.54-1.08-1.12-1.56-1.73-.94-1.23-1.71-2.58-2.38-3.98-.65-1.4-1.2-2.85-1.69-4.32-.22-.74-.47-1.47-.64-2.24-.17-.76-.3-1.53-.36-2.31-.06-.78-.06-1.56,0-2.34.06-.78.21-1.57.51-2.31.3-.72.61-1.43,1.01-2.11.39-.69.92-1.3,1.54-1.8,1.24-.96,2.65-1.7,4.17-2.03.76-.16,1.54-.23,2.31-.14.77.1,1.53.35,2.15.82Z"/>
              </g>
              <g class="cls-10">
                <path class="cls-9" d="M188.88,40.16c-2.54,3.92-8.32,5.06-12.25,2.69,1.11,1.33,2.17,2.13,3.02,2.72,1.99,1.41,5.32,2.21,7.5,1.02,2.24-1.22,2.52-3.52,2.56-5.51.02-.84-.01-1.67-.07-2.5-.19.55-.44,1.08-.76,1.58Z"/>
              </g>
              <g>
                <g class="cls-13">
                  <path class="cls-16" d="M203.83,24.67c.24,1.03.35,2.04.37,2.95,0,.92-.07,1.74-.2,2.41-.26,1.36-.67,2.12-.8,2.08-.17-.05-.06-.87-.01-2.17.03-.65.01-1.42-.05-2.27-.08-.85-.21-1.78-.43-2.73-.23-.95-.54-1.84-.85-2.63-.33-.79-.67-1.48-.99-2.05-.63-1.14-1.1-1.82-.97-1.94.1-.1.81.4,1.66,1.49.43.54.87,1.24,1.28,2.06.4.82.75,1.77,1.01,2.8Z"/>
                </g>
                <g class="cls-13">
                  <path class="cls-16" d="M198.68,16.09c.46.55.41,1.12.14,1.26-.29.15-.72-.15-1.01-.5-.15-.17-.25-.33-.33-.49-.07-.16-.14-.32-.09-.48.04-.15.21-.27.48-.25.26.01.59.18.82.45Z"/>
                </g>
              </g>
              <g class="cls-13">
                <path class="cls-16" d="M191.67,18.79c1.72,1.25,2.74,2.87,3.34,4.04.6,1.18.83,1.97.69,2.04-.15.08-.63-.58-1.39-1.61-.76-1.02-1.82-2.44-3.33-3.53-.75-.55-1.54-.96-2.3-1.21-.75-.25-1.47-.36-2.07-.37-1.21-.03-1.92.36-2.01.22-.04-.06.08-.26.4-.48.32-.22.86-.46,1.55-.56.69-.1,1.54-.07,2.44.16.89.23,1.82.68,2.67,1.29Z"/>
              </g>
              <g class="cls-13">
                <path class="cls-16" d="M174.52,27.05c-.34,1.67-.18,3.3-.05,4.46.14,1.17.27,1.9.11,1.96-.14.05-.55-.61-.91-1.79-.34-1.18-.67-2.92-.28-4.86.09-.48.25-.95.43-1.38.18-.42.38-.8.6-1.16.42-.72.9-1.31,1.36-1.75.92-.88,1.69-1.14,1.76-1.02.09.14-.47.63-1.14,1.56-.33.47-.7,1.04-1.04,1.72-.17.34-.34.71-.48,1.08-.14.37-.27.76-.35,1.18Z"/>
              </g>
              <g class="cls-13">
                <path class="cls-16" d="M175.89,35.52c.19.67.17,1.3-.13,1.42-.29.12-.77-.36-.99-1.1-.21-.74-.06-1.41.25-1.46.32-.05.67.47.86,1.14Z"/>
              </g>
              <g class="cls-13">
                <path class="cls-16" d="M163.17,28.61c.92-1.96,2.43-3.3,3.63-3.97,1.21-.69,2.08-.8,2.12-.66.06.16-.67.54-1.66,1.34-.99.79-2.23,2.07-3.04,3.79-.81,1.72-1.01,3.49-.99,4.76.02,1.27.19,2.08.02,2.13-.13.05-.6-.69-.84-2.06-.24-1.35-.17-3.37.76-5.33Z"/>
              </g>
              <g class="cls-13">
                <path class="cls-16" d="M181.36,8.13c.57-.16,1.16-.17,1.66-.08.25.04.48.11.69.18.22.08.42.18.58.29.33.22.53.49.62.69.09.2.09.33.04.35-.1.05-.34-.32-.93-.56-.14-.06-.31-.11-.49-.15-.2-.04-.4-.08-.62-.1-.42-.04-.89-.01-1.36.12-.47.13-.9.34-1.26.58-.38.24-.67.47-.89.72-.45.5-.71.87-.81.82-.09-.04-.01-.49.37-1.15.19-.33.53-.68.92-.97.39-.3.89-.58,1.47-.74Z"/>
              </g>
            </g>
            <path class="cls-18" d="M174.68,13.09c.25.66.2,1.42-.07,2.04-.27.63-.72,1.14-1.24,1.52-1.07.77-2.37.92-3.5.82-2.3-.21-4.21-1.24-5.43-2.46-1.23-1.23-1.77-2.59-1.98-3.51-.11-.47-.14-.84-.15-1.09,0-.25,0-.38.02-.38.04,0,.05.53.3,1.43.26.89.82,2.17,2.03,3.32,1.19,1.14,3.05,2.09,5.23,2.27,1.07.08,2.26-.08,3.19-.76.46-.34.85-.79,1.08-1.33.23-.53.27-1.14.06-1.69-.2-.55-.61-1.03-1.12-1.25-.5-.23-1.1-.16-1.62.06-.27.11-.52.24-.68.42-.17.18-.25.41-.26.66-.02.52.18,1.04.43,1.52.49.96,1.2,1.76,2,2.28.8.53,1.69.76,2.52.85,1.66.16,3.03-.03,3.97-.08.95-.05,1.35-.44,1.37-.41,0,0-.07.13-.29.26-.22.14-.58.27-1.06.34-.47.07-1.05.14-1.72.2-.67.06-1.45.1-2.31.03-.85-.07-1.82-.29-2.7-.85-.87-.55-1.64-1.39-2.18-2.41-.26-.5-.52-1.08-.49-1.75.01-.33.13-.69.38-.95.24-.26.55-.41.84-.53.58-.25,1.33-.36,1.99-.06.65.28,1.13.86,1.37,1.52Z"/>
          </g>
          <path class="cls-17" d="M159.72-14.28c.43.08.84.2,1.23.38.38.19.75.43,1.13.65,1.47.93,2.75,2.14,3.79,3.52,1.03,1.39,1.84,2.95,2.41,4.6.59,1.64.97,3.35,1.26,5.09l.16-.13c-1.74-.48-3.47-.8-5.05-1.63-1.59-.77-3.02-1.84-4.27-3.07-1.26-1.21-2.25-2.69-2.85-4.33-.3-.82-.5-1.68-.59-2.55-.07-.86-.12-1.78.19-2.59.83-.2,1.74-.08,2.59.06ZM156.72-11.73c.06.89.2,1.79.5,2.64.58,1.7,1.58,3.27,2.92,4.48,1.32,1.22,2.85,2.17,4.45,2.94.81.37,1.63.71,2.48.98.84.28,1.74.45,2.54.74l.19.07-.03-.2c-.23-1.74-.53-3.5-1.11-5.18-.55-1.69-1.35-3.31-2.44-4.73-1.07-1.44-2.44-2.64-3.98-3.52-1.49-1-3.42-1.3-5.14-.85-.39.83-.42,1.75-.39,2.64Z"/>
        </g>
        <g>
          <g class="cls-11">
            <path class="cls-20" d="M125.46,92.86c0,1.84-1.49,3.33-3.33,3.33s-3.33-1.49-3.33-3.33,1.49-3.33,3.33-3.33,3.33,1.49,3.33,3.33Z"/>
          </g>
          <g class="cls-11">
            <path class="cls-20" d="M42.85,99.11c0,.81-.66,1.47-1.47,1.47s-1.47-.66-1.47-1.47.66-1.47,1.47-1.47,1.47.66,1.47,1.47Z"/>
          </g>
          <g class="cls-11">
            <circle class="cls-20" cx="135.64" cy="81.7" r="2.56"/>
          </g>
          <g class="cls-11">
            <circle class="cls-20" cx="93.99" cy="143.31" r="2.56"/>
          </g>
          <g class="cls-11">
            <circle class="cls-20" cx="59.89" cy="37.45" r="2.56"/>
          </g>
          <g class="cls-11">
            <circle class="cls-20" cx="30" cy="110.5" r="2.56"/>
          </g>
          <g class="cls-11">
            <circle class="cls-20" cx="52.5" cy="127" r="2.56"/>
          </g>
          <g>
            <g>
              <path class="cls-18" d="M82.76,16.68c-1.49.97-3.07,1.69-4.8,2.17-9.24,2.54-15.4-3.12-18-4.92-3.28-2.26-7.56-4.82-11.61-6.65,1.75-.31,8.57-4.27,10.32-5.4,2.65-1.7,5.35-3.2,8.27-4.42,3.41-1.42,7.46-1.69,10.5-.66,3.04,1.03,5.56,2.66,7.83,4.81,1.61,1.53,4.08,4.33,6.48,4.49-.93.79-6.17,8.73-8.99,10.57Z"/>
              <path class="cls-17" d="M82.78,16.71c-2.65,1.77-5.81,2.74-9,2.91-1.6.06-3.22-.09-4.77-.49-1.56-.4-3.05-1.03-4.46-1.8-1.42-.76-2.71-1.72-3.98-2.67-1.27-.93-2.6-1.81-3.93-2.67-2.68-1.7-5.43-3.29-8.32-4.61l-.25-.11.28-.07c.96-.24,1.9-.7,2.81-1.15.91-.46,1.81-.95,2.7-1.44,1.79-.99,3.54-2.04,5.25-3.16,1.72-1.11,3.5-2.15,5.34-3.06.92-.46,1.85-.89,2.81-1.28.96-.39,1.97-.67,2.99-.87,2.04-.38,4.16-.44,6.21,0,1.03.24,2,.6,2.95,1.03.95.43,1.86.93,2.73,1.49.87.56,1.69,1.2,2.48,1.87.78.68,1.51,1.42,2.23,2.13.72.71,1.46,1.41,2.28,1.99.81.58,1.71,1.07,2.67,1.16l.46.05-.34.32c-.38.36-.74.84-1.1,1.29l-1.07,1.37c-.71.92-1.42,1.83-2.15,2.74-.73.9-1.47,1.8-2.24,2.67-.78.86-1.58,1.72-2.55,2.37ZM82.75,16.66c.95-.66,1.73-1.53,2.5-2.39.76-.87,1.48-1.78,2.18-2.71.7-.93,1.38-1.86,2.06-2.8l1.02-1.41c.36-.47.66-.93,1.12-1.39l.12.37c-1.1-.06-2.07-.59-2.93-1.17-.86-.59-1.63-1.29-2.38-2-.74-.72-1.45-1.44-2.22-2.1-.77-.66-1.57-1.27-2.42-1.82-1.69-1.09-3.56-1.95-5.49-2.44-1.95-.45-4-.41-5.98-.06-.99.18-1.96.46-2.91.81-.94.36-1.88.78-2.8,1.21-1.84.87-3.62,1.87-5.36,2.94-1.73,1.09-3.53,2.08-5.32,3.07-.9.49-1.8.97-2.72,1.43-.93.44-1.83.93-2.85,1.19l.02-.18c2.9,1.31,5.72,2.81,8.44,4.46,1.36.83,2.71,1.67,4,2.62,1.27.95,2.57,1.85,3.94,2.63,2.73,1.55,5.83,2.51,8.99,2.46,3.16-.04,6.32-.96,8.98-2.7Z"/>
            </g>
            <path class="cls-3" d="M48.77,7.23s25.89,3.34,42.98-1.12c2.7-.7,4.97-1.36,6.88-1.97"/>
            <path class="cls-3" d="M58.48,12.87s3.2-.25,8.26-4.37c-.56-4.09-8.08-6.61-8.08-6.61"/>
            <path class="cls-3" d="M64.77,17.01s5.62-1.36,9.7-8.74c-1.6-4.33-6.78-9.44-10.18-9.77"/>
            <path class="cls-3" d="M71.51,19.41s6.74-2.24,9.87-11.49c-.8-2.05-2.96-8.85-9.53-11.66"/>
          </g>
          <g>
            <g>
              <g>
                <path class="cls-15" d="M65.72,99.24s.41-3.7,6.71-5.94c5.84-2.07,8.8-.71,9.8.7,1,1.41-4.12,9.7-4.12,9.7l-12.38-4.45Z"/>
                <path class="cls-17" d="M65.7,99.26c.17-1.32.95-2.43,1.86-3.34.92-.92,2.03-1.61,3.19-2.17,1.16-.56,2.39-.97,3.64-1.26,1.25-.28,2.55-.43,3.83-.34.64.03,1.28.13,1.89.34.61.2,1.21.48,1.7.91.12.11.24.22.34.35l.16.19c.04.08.1.16.11.25.09.34.04.68-.02,1-.13.64-.34,1.25-.57,1.85-.94,2.39-2.2,4.61-3.49,6.81l-.12.2-.22-.08c-2.1-.74-4.18-1.52-6.24-2.32-2.07-.78-4.09-1.6-6.07-2.39ZM65.74,99.23c2.15.69,4.25,1.36,6.31,2.06,2.07.69,4.11,1.4,6.14,2.14l-.34.12c.67-1.07,1.31-2.17,1.93-3.27.62-1.11,1.2-2.23,1.73-3.38.26-.57.49-1.16.64-1.77.07-.3.12-.61.06-.89,0-.07-.05-.12-.07-.19l-.14-.18c-.09-.12-.21-.22-.32-.34-.94-.83-2.24-1.15-3.48-1.18-1.26-.03-2.51.2-3.72.54-1.22.32-2.4.77-3.54,1.27-1.14.51-2.21,1.18-3.15,2-.46.42-.89.88-1.24,1.39-.36.5-.65,1.1-.8,1.67Z"/>
              </g>
              <g>
                <path class="cls-15" d="M77.18,100.55c-.34-.73-.82-3.72,3.49-6.78,6.78-4.81,13.27.8,13.7,2.18-.65,1.38-4.5,1.41-5.61,2.39-.44.38-.87.81-1.37,1.11-.52.31-1.13.46-1.66.73-1.38.71-3.1,1.48-4.65,1.64-1.24.13-3.34-.1-3.89-1.28Z"/>
                <path class="cls-17" d="M77.15,100.56c-.37-.94-.23-1.99.08-2.92.33-.95.91-1.79,1.58-2.53.68-.73,1.44-1.4,2.32-1.9l.64-.39c.22-.12.46-.21.69-.31.23-.1.46-.21.69-.29l.73-.19c1.95-.51,4.02-.28,5.88.38.93.35,1.82.79,2.65,1.34l.61.44c.2.15.38.32.58.48.35.36.74.68.97,1.23l.03.07-.04.08c-.21.45-.61.69-.97.88-.38.19-.76.33-1.15.44-.77.23-1.55.4-2.3.63-.37.12-.73.25-1.02.44-.07.05-.13.09-.2.15l-.22.2-.45.4c-.31.26-.67.52-1.06.69-.38.17-.76.29-1.11.44-1.4.69-2.92,1.38-4.53,1.59-.81.11-1.63.06-2.41-.11-.39-.09-.78-.21-1.13-.41-.35-.19-.67-.47-.85-.84ZM77.2,100.54c.17.35.49.61.83.79.35.18.73.28,1.12.35.78.12,1.58.1,2.33-.06.76-.16,1.5-.45,2.22-.75.73-.31,1.4-.68,2.14-1.04.38-.17.76-.3,1.1-.46.34-.15.63-.36.93-.61l.44-.39.22-.2c.08-.07.18-.14.28-.2.39-.23.78-.36,1.17-.48.78-.22,1.56-.38,2.31-.59.38-.1.75-.22,1.09-.38.34-.15.66-.36.8-.65v.15c-.15-.38-.5-.76-.82-1.11-.18-.16-.35-.34-.53-.49l-.57-.46c-.78-.58-1.65-1.04-2.56-1.39l-.69-.23c-.23-.07-.48-.11-.71-.16-.47-.12-.96-.13-1.45-.19-.97,0-1.95.1-2.86.41l-.69.22-.66.3c-.22.1-.44.19-.65.31l-.61.39-.61.38-.58.43c-.38.3-.76.6-1.1.94-.7.67-1.31,1.43-1.7,2.33-.38.88-.54,1.93-.19,2.84Z"/>
              </g>
              <g>
                <path class="cls-15" d="M74.49,101.82c-.14-.8-1.02-1.55-1.58-2.07-.37-.33-1.65-1.56-4.78-1.58-8.31-.04-10.47,8.2-10.04,9.58,1.32.77,12.91-1.96,14.29-2.72,1.09-.6,2.33-1.93,2.11-3.21Z"/>
                <path class="cls-17" d="M74.46,101.83c-.09-.47-.4-.87-.72-1.22-.33-.35-.71-.66-1.08-.96-.75-.59-1.67-.92-2.59-1.08-.93-.16-1.89-.18-2.83-.1-.24.02-.48,0-.71.05l-.7.13c-.47.06-.92.22-1.37.36-.11.04-.23.06-.34.11l-.32.15-.65.3c-.21.11-.41.25-.61.37-.2.13-.42.24-.59.4-.37.31-.74.6-1.06.97-.35.33-.63.73-.91,1.11-.53.8-.98,1.66-1.29,2.56l-.2.69c-.06.23-.1.47-.15.7-.06.45-.14.97-.03,1.35l-.09-.12c.25.1.68.1,1.04.08.38-.02.76-.06,1.15-.11.77-.09,1.53-.22,2.29-.36,1.53-.29,3.05-.62,4.56-.95,1.51-.35,3.04-.68,4.52-1.11.73-.19,1.37-.67,1.9-1.22.52-.55.92-1.31.8-2.08ZM74.52,101.82c.13.8-.26,1.57-.76,2.17-.5.6-1.13,1.15-1.89,1.42-.74.29-1.48.53-2.23.75-.75.22-1.51.43-2.27.61-1.52.37-3.05.69-4.6.95-.77.13-1.55.24-2.33.32-.39.04-.79.07-1.19.07-.2,0-.4,0-.61-.02-.21-.03-.41-.04-.66-.16l-.08-.04-.02-.08c-.12-.57.01-1.04.1-1.53.07-.24.12-.48.2-.71l.24-.69c.37-.91.84-1.77,1.39-2.57.58-.78,1.22-1.53,1.98-2.15.17-.18.39-.3.58-.45.2-.14.4-.29.61-.42l.65-.35.33-.17c.11-.05.23-.09.35-.13.46-.16.92-.37,1.41-.44l.73-.15c.24-.06.49-.04.74-.07.49-.04.99-.06,1.48-.03.49.04.99.1,1.47.23.96.24,1.89.66,2.62,1.33.35.34.71.67,1.03,1.03.31.37.63.77.72,1.26Z"/>
              </g>
              <g>
                <path class="cls-18" d="M69.77,101.91c.08-1.84,2.38-3.17,4.06-3.47-.81-1.69-1.33-3.68-.84-5.66.32-1.3,1.16-2.56,2.26-3.31,1.91-1.3,3.89-1.4,5.23-.29.59.49,1.09,1.16,1.37,1.74-.35.11-1.25.8-1.48,1.11-.35-.63-1.46-1.51-2.39-1.37-1.25.19-2.16.77-2.67,1.96-.66,1.55.22,3.42.61,4.93,1.43-.48,4.43-2.49,5.43-.17-1.31,1.82-3.75,2.64-5.72,3.45-1.67.69-4.05,1.31-5.87,1.07Z"/>
                <path class="cls-17" d="M69.75,101.92c0-.51.17-.96.43-1.38.26-.41.61-.76.99-1.06.77-.58,1.67-.99,2.63-1.19l-.1.2c-.66-1.34-1.11-2.82-1.07-4.35.02-1.52.65-3.04,1.72-4.12.54-.55,1.2-.94,1.89-1.25.69-.3,1.45-.48,2.21-.44.76.04,1.51.31,2.09.8.57.49,1.04,1.09,1.38,1.76l.03.06-.07.03c-.27.11-.52.3-.77.48-.24.19-.49.39-.67.61l-.07.08-.06-.09c-.24-.39-.6-.71-1-.95-.39-.24-.85-.41-1.29-.35-.92.12-1.81.57-2.29,1.36-.25.39-.41.82-.47,1.27-.06.45-.02.91.07,1.37.17.92.52,1.8.78,2.74l-.26-.14c.46-.16.92-.39,1.39-.6.47-.21.95-.41,1.47-.54.51-.13,1.07-.21,1.63-.06.57.15,1,.64,1.2,1.14l.04.11-.07.09c-.66.91-1.57,1.56-2.53,2.06-.96.51-1.96.89-2.95,1.27-.99.4-2.02.73-3.08.94-1.06.2-2.12.31-3.21.14ZM69.78,101.9c1.04.09,2.12-.06,3.14-.31,1.03-.24,2.03-.6,3-1.03.99-.41,1.97-.81,2.89-1.32.91-.51,1.77-1.14,2.37-1.97l-.02.2c-.19-.43-.51-.78-.94-.9-.43-.12-.93-.06-1.4.07-.48.13-.94.32-1.41.51-.47.2-.92.42-1.43.6l-.2.07-.05-.21c-.24-.91-.58-1.81-.75-2.78-.08-.48-.11-.98-.04-1.48.07-.5.27-.97.55-1.38.28-.41.66-.77,1.1-1,.44-.24.92-.36,1.41-.42.52-.05,1.01.15,1.41.41.41.27.77.6,1.03,1.04h-.12c.21-.26.46-.45.71-.64.25-.18.5-.37.81-.49l-.04.09c-.32-.66-.79-1.25-1.35-1.71-.56-.46-1.28-.72-2-.73-.73-.01-1.45.18-2.1.49-.65.32-1.27.72-1.76,1.25-.49.53-.89,1.14-1.16,1.81-.27.67-.4,1.38-.44,2.1-.06,1.45.36,2.89.98,4.22l.08.17-.18.03c-.91.16-1.8.53-2.57,1.07-.38.27-.73.59-1.01.97-.28.37-.46.84-.5,1.28Z"/>
              </g>
              <g>
                <path class="cls-15" d="M71.87,102.18c-1.59-.47-3.43-.63-5.04-.3-2.6.54-5.06,1.19-6.94,3.17-3.01,3.17-3.6,8.57-2.17,12.58,1.64,4.62,5.17,9.02,9.72,11.04,2.87,1.28,5.61,1.68,8.69.84,1.73-.47,4.08-1.45,3.92-3.7-.07-1.05-1.97-2.01-2.7-2.95-8.43-10.88-5.22-19-5.48-20.68Z"/>
                <path class="cls-17" d="M71.85,102.2c-1.62-.43-3.39-.53-5.03-.17-1.66.37-3.33.81-4.79,1.64-.73.41-1.39.93-1.97,1.54-.56.62-1.04,1.31-1.44,2.05-.77,1.49-1.23,3.14-1.36,4.82-.15,1.68-.02,3.4.46,5.02.48,1.63,1.22,3.18,2.12,4.63.91,1.44,2,2.78,3.27,3.92,1.25,1.16,2.69,2.11,4.24,2.81,1.55.7,3.2,1.17,4.89,1.26,1.68.09,3.37-.22,4.94-.81.77-.3,1.52-.71,2.03-1.31.25-.3.45-.64.52-1.02.03-.19.07-.38.06-.57,0-.21-.02-.33-.1-.5-.16-.32-.46-.61-.77-.88-.31-.28-.65-.54-.98-.82-.17-.14-.33-.29-.49-.45-.16-.16-.32-.35-.43-.52l-.76-1.05c-.52-.69-.96-1.43-1.42-2.17l-.34-.55-.3-.58-.59-1.16c-.7-1.58-1.35-3.19-1.71-4.89-.39-1.69-.57-3.42-.53-5.14,0-.86.09-1.72.2-2.57l.18-1.27c.06-.42.13-.85.12-1.26ZM71.89,102.16c.05.46,0,.88-.05,1.3l-.13,1.28c-.03.43-.07.85-.08,1.28-.02.43-.03.85-.02,1.28.02,1.7.26,3.4.67,5.04.38,1.66,1.05,3.23,1.77,4.77.78,1.51,1.62,2.99,2.63,4.36l.75,1.03c.24.35.52.6.85.88.32.27.66.53.99.83.33.29.66.61.89,1.06.11.22.17.53.15.74.01.23-.03.47-.08.7-.1.47-.35.89-.65,1.24-.62.7-1.44,1.13-2.25,1.44-1.64.61-3.4.88-5.15.75-1.74-.14-3.43-.66-4.98-1.41-3.14-1.49-5.66-4.03-7.54-6.89-.92-1.46-1.71-3-2.25-4.64-.53-1.65-.72-3.41-.61-5.14.13-1.73.56-3.46,1.39-5.01.42-.77.93-1.49,1.53-2.13.61-.63,1.32-1.17,2.09-1.59,1.54-.85,3.26-1.22,4.94-1.56.86-.17,1.73-.19,2.59-.12.87.08,1.7.24,2.54.52Z"/>
              </g>
              <g class="cls-10">
                <path class="cls-9" d="M76.95,125.33c-2.06.62-4.28,1.11-6.44,1.14-2.07.03-4.41-.15-6.36-.88-.99-.37-1.89-.92-2.74-1.55,1.67,1.97,3.72,3.61,6.03,4.64,2.87,1.28,5.61,1.68,8.69.84,1.73-.47,4.08-1.45,3.92-3.7-.03-.45-.4-.89-.88-1.32-.72.33-1.46.61-2.23.84Z"/>
              </g>
              <g>
                <path class="cls-15" d="M81.33,97.55c5.58-5.51,11.65-3.12,14.51-.99,2.53,1.88,3.91,4.74,4.82,7.65,1.52,4.89,2.27,10.94-2.34,15.53-1.23,1.22-5.93,3.38-7.87,3.17.87-2.66.2-5.61-.45-8.26-.78-3.18-2.18-5.98-3.98-8.68-1.2-1.81-2.67-3.48-3.79-5.33-.29-.48-1.4-2.59-.91-3.08Z"/>
                <path class="cls-17" d="M81.31,97.53c1.48-1.48,3.32-2.65,5.37-3.2,2.06-.51,4.29-.36,6.28.41,1,.38,1.95.87,2.83,1.49.88.62,1.64,1.39,2.3,2.23,1.3,1.71,2.11,3.71,2.7,5.73.58,2.02,1.04,4.1,1.1,6.21.05,1.05-.02,2.11-.21,3.15-.08.52-.23,1.03-.37,1.54-.18.5-.34,1.01-.58,1.48-.21.49-.5.94-.77,1.39-.15.22-.31.43-.47.65-.15.22-.32.43-.5.62l-.53.6c-.19.2-.41.37-.62.53-.44.31-.89.59-1.36.85-.93.51-1.9.95-2.89,1.32-.5.18-1.01.34-1.53.46-.53.12-1.06.23-1.64.18l-.32-.03.1-.31c.33-1.07.44-2.21.36-3.34-.07-1.13-.26-2.27-.51-3.39-.26-1.13-.52-2.25-.89-3.33-.37-1.09-.81-2.15-1.31-3.18-1.01-2.07-2.24-4.03-3.62-5.9-.68-.94-1.35-1.89-1.96-2.89-.3-.5-.56-1.03-.77-1.57-.11-.27-.2-.55-.27-.83-.05-.28-.12-.61.08-.86ZM81.35,97.57c-.17.22-.12.54-.06.81.07.28.17.55.28.82.22.53.48,1.05.79,1.54.61.98,1.34,1.89,2.05,2.81,1.45,1.81,2.81,3.73,3.88,5.82,1.1,2.07,1.82,4.34,2.31,6.62.25,1.14.48,2.3.52,3.49.06,1.18-.06,2.39-.43,3.53l-.22-.34c.47.05.98-.04,1.48-.15.5-.11.99-.27,1.48-.43.98-.34,1.94-.75,2.86-1.23.46-.24.91-.5,1.33-.79.21-.15.41-.3.59-.47l.53-.57c.18-.18.35-.38.5-.59.16-.21.32-.41.47-.62.27-.44.57-.87.78-1.34.25-.45.42-.95.61-1.43.15-.5.31-1,.39-1.51.2-1.02.28-2.07.23-3.11-.08-2.09-.54-4.15-1.2-6.14-.65-1.98-1.52-3.91-2.8-5.53-1.27-1.63-3.02-2.83-4.93-3.6-1.91-.78-4.04-1.05-6.08-.62-2.04.44-3.88,1.6-5.38,3.05Z"/>
              </g>
              <g class="cls-10">
                <path class="cls-9" d="M98.33,115.35c-2.16,1.84-4.84,2.63-7.59,3,.19,1.55.18,3.1-.3,4.57,1.94.21,6.64-1.95,7.87-3.17,3.02-3.01,3.75-6.64,3.46-10.17-.59,2.19-1.59,4.2-3.44,5.78Z"/>
              </g>
              <g>
                <path class="cls-15" d="M76.75,103.08c-.74-2.01,1.08-4.24,2.67-5.2,1.98-1.2,4.18-1.45,6.31-.6,4.21,1.69,6.42,5.14,8.1,9.16,1.92,4.59,2.96,9.86.89,14.32-1.25,2.69-3.6,4.68-6.65,5.32-1,.21-2.21.1-3.16-.2-1.24-.39-1.56-1.49-2.11-2.59-.91-1.84-2.81-9.7-3.44-11.6-.58-1.75-2.27-7.71-2.61-8.61Z"/>
                <path class="cls-17" d="M76.72,103.09c-.13-.38-.19-.79-.17-1.19.03-.41.14-.8.28-1.17.31-.75.81-1.4,1.37-1.98.57-.58,1.24-1.05,1.97-1.4.73-.36,1.52-.6,2.34-.7.82-.09,1.65-.05,2.45.16.4.11.79.24,1.16.41.38.15.74.34,1.1.53,1.44.77,2.68,1.89,3.7,3.15,1.01,1.28,1.79,2.7,2.45,4.17.65,1.47,1.22,2.97,1.67,4.52.88,3.07,1.28,6.38.44,9.54-.24.77-.5,1.54-.88,2.27-.38.72-.84,1.4-1.39,2.01-1.09,1.22-2.5,2.17-4.07,2.67-.39.13-.78.23-1.19.32-.42.07-.83.1-1.25.09-.42-.01-.83-.06-1.24-.14-.2-.04-.41-.09-.61-.15-.21-.06-.42-.15-.61-.26-.39-.23-.7-.57-.93-.93-.23-.36-.4-.74-.57-1.1l-.25-.54c-.09-.19-.17-.38-.24-.57-.15-.38-.27-.77-.4-1.15-.97-3.07-1.7-6.19-2.51-9.28-.9-3.07-1.68-6.18-2.64-9.23ZM76.77,103.07c.52,1.52.95,3.06,1.44,4.59.48,1.53.97,3.05,1.49,4.57.96,3.06,1.74,6.17,2.7,9.21.12.38.25.76.39,1.12.07.19.14.36.22.53l.26.54c.34.72.67,1.43,1.28,1.79.29.18.66.27,1.04.36.38.08.76.13,1.14.15.38.02.77,0,1.14-.06.37-.07.76-.17,1.13-.29,1.49-.47,2.85-1.33,3.92-2.47.54-.57,1-1.21,1.38-1.9.38-.69.66-1.43.91-2.18.91-3.05.59-6.37-.34-9.4-.22-.77-.5-1.52-.78-2.26-.31-.74-.62-1.47-.98-2.18-.7-1.43-1.52-2.8-2.52-4.02-.5-.61-1.05-1.17-1.65-1.68-.6-.51-1.26-.94-1.93-1.34-.34-.19-.69-.37-1.05-.53-.36-.17-.72-.3-1.09-.41-.75-.2-1.53-.29-2.31-.23-.78.06-1.55.26-2.27.58-.72.32-1.4.74-1.98,1.29-.58.54-1.07,1.19-1.38,1.92-.15.37-.26.75-.3,1.14-.03.39.02.79.15,1.17Z"/>
              </g>
              <g class="cls-10">
                <path class="cls-9" d="M95.26,112.93c-.28,4.23-3.12,7.8-6.89,9.57-1.68.79-3.48,1.23-5.32,1.35.42.9.82,1.72,1.85,2.04.96.3,2.17.41,3.16.2,3.05-.65,5.4-2.63,6.65-5.32,1.47-3.17,1.37-6.74.51-10.18.07.78.09,1.56.04,2.35Z"/>
              </g>
              <g>
                <path class="cls-15" d="M78.62,100.8c-1.3-1-4.22-1.52-7.78.9-1.75,1.19-2.28,2.32-3.12,4.28-.9,2.12-.67,5.47-.08,7.67,2.34,8.8,5.67,11.46,7.75,12.93,1.99,1.41,5.32,2.21,7.5,1.02,2.24-1.22,2.52-3.52,2.56-5.51.11-4.8-1.26-9.38-2.78-13.84-.56-1.65-2.83-6.49-4.07-7.44Z"/>
                <path class="cls-17" d="M78.6,100.82c-.62-.45-1.37-.69-2.13-.78-.76-.07-1.53-.01-2.27.19-1.48.39-2.83,1.18-3.98,2.15-1.16.98-1.77,2.41-2.33,3.82-.51,1.39-.59,2.95-.5,4.46.05.76.13,1.52.28,2.26.14.74.37,1.48.56,2.23.43,1.47.93,2.93,1.57,4.33.63,1.4,1.41,2.73,2.36,3.94.95,1.21,2.11,2.23,3.38,3.07,1.26.83,2.75,1.33,4.24,1.44.75.05,1.5,0,2.2-.22.69-.22,1.34-.61,1.84-1.14.5-.53.84-1.19,1.04-1.9.2-.71.27-1.46.3-2.22.05-1.52-.04-3.05-.25-4.56-.42-3.03-1.28-5.99-2.18-8.93-.42-1.47-1.05-2.88-1.7-4.27-.33-.7-.69-1.38-1.08-2.04-.39-.65-.8-1.33-1.37-1.84ZM78.64,100.78c.59.51,1,1.18,1.41,1.83.4.66.76,1.34,1.13,2.02.71,1.37,1.4,2.76,1.9,4.23,1.05,2.9,1.96,5.88,2.39,8.96.21,1.54.33,3.1.26,4.66-.04.78-.12,1.57-.35,2.35-.23.77-.61,1.51-1.19,2.1-.57.58-1.29,1.01-2.07,1.24-.78.22-1.59.25-2.37.18-1.57-.16-3.08-.72-4.38-1.61-.63-.45-1.24-.93-1.81-1.47-.56-.54-1.08-1.12-1.56-1.73-.94-1.23-1.71-2.58-2.38-3.98-.65-1.4-1.2-2.85-1.69-4.32-.22-.74-.47-1.47-.64-2.24-.17-.76-.3-1.53-.36-2.31-.06-.78-.06-1.56,0-2.34.06-.78.21-1.57.51-2.31.3-.72.61-1.43,1.01-2.11.39-.69.92-1.3,1.54-1.8,1.24-.96,2.65-1.7,4.17-2.03.76-.16,1.54-.23,2.31-.14.77.1,1.53.35,2.15.82Z"/>
              </g>
              <g class="cls-10">
                <path class="cls-9" d="M84.63,121.16c-2.54,3.92-8.32,5.06-12.25,2.69,1.11,1.33,2.17,2.13,3.02,2.72,1.99,1.41,5.32,2.21,7.5,1.02,2.24-1.22,2.52-3.52,2.56-5.51.02-.84-.01-1.67-.07-2.5-.19.55-.44,1.08-.76,1.58Z"/>
              </g>
              <g>
                <g class="cls-13">
                  <path class="cls-16" d="M99.58,105.67c.24,1.03.35,2.04.37,2.95,0,.92-.07,1.74-.2,2.41-.26,1.36-.67,2.12-.8,2.08-.17-.05-.06-.87-.01-2.17.03-.65.01-1.42-.05-2.27-.08-.85-.21-1.78-.43-2.73-.23-.95-.54-1.84-.85-2.63-.33-.79-.67-1.48-.99-2.05-.63-1.14-1.1-1.82-.97-1.94.1-.1.81.4,1.66,1.49.43.54.87,1.24,1.28,2.06.4.82.75,1.77,1.01,2.8Z"/>
                </g>
                <g class="cls-13">
                  <path class="cls-16" d="M94.43,97.09c.46.55.41,1.12.14,1.26-.29.15-.72-.15-1.01-.5-.15-.17-.25-.33-.33-.49-.07-.16-.14-.32-.09-.48.04-.15.21-.27.48-.25.26.01.59.18.82.45Z"/>
                </g>
              </g>
              <g class="cls-13">
                <path class="cls-16" d="M87.42,99.79c1.72,1.25,2.74,2.87,3.34,4.04.6,1.18.83,1.97.69,2.04-.15.08-.63-.58-1.39-1.61-.76-1.02-1.82-2.44-3.33-3.53-.75-.55-1.54-.96-2.3-1.21-.75-.26-1.47-.36-2.07-.37-1.21-.03-1.92.36-2.01.22-.04-.06.08-.26.4-.48.32-.22.86-.46,1.55-.56.69-.1,1.54-.07,2.44.16.89.23,1.82.68,2.67,1.29Z"/>
              </g>
              <g class="cls-13">
                <path class="cls-16" d="M70.27,108.05c-.34,1.67-.18,3.3-.05,4.46.14,1.17.27,1.9.11,1.96-.14.05-.55-.61-.91-1.79-.34-1.18-.67-2.92-.28-4.86.09-.48.25-.95.43-1.38.18-.42.38-.8.6-1.16.42-.72.9-1.31,1.36-1.75.92-.88,1.69-1.14,1.76-1.02.09.14-.47.63-1.14,1.56-.34.47-.7,1.04-1.04,1.72-.17.34-.34.71-.48,1.08-.14.37-.27.76-.35,1.18Z"/>
              </g>
              <g class="cls-13">
                <path class="cls-16" d="M71.64,116.52c.19.67.17,1.3-.13,1.42-.29.12-.77-.36-.99-1.1-.21-.74-.06-1.41.25-1.46.32-.05.67.47.86,1.14Z"/>
              </g>
              <g class="cls-13">
                <path class="cls-16" d="M58.92,109.61c.92-1.96,2.43-3.3,3.63-3.97,1.21-.69,2.08-.8,2.12-.66.06.16-.67.54-1.66,1.34-.99.79-2.23,2.07-3.04,3.79-.81,1.72-1.01,3.49-.99,4.76.02,1.27.19,2.08.02,2.13-.13.05-.6-.69-.84-2.06-.24-1.35-.17-3.37.76-5.33Z"/>
              </g>
              <g class="cls-13">
                <path class="cls-16" d="M77.11,89.13c.57-.16,1.16-.17,1.66-.08.25.04.48.11.69.18.22.08.42.18.58.29.33.22.53.49.62.69.09.2.09.33.04.35-.1.05-.34-.32-.93-.56-.14-.06-.31-.11-.49-.15-.2-.04-.4-.08-.62-.1-.42-.04-.89-.01-1.36.12-.47.13-.9.34-1.26.58-.38.24-.67.47-.89.72-.45.5-.71.87-.81.82-.09-.04-.01-.49.37-1.15.19-.33.53-.68.92-.97.4-.3.89-.58,1.47-.74Z"/>
              </g>
            </g>
            <path class="cls-18" d="M70.43,94.09c.25.66.2,1.42-.07,2.04-.27.63-.72,1.14-1.24,1.52-1.07.77-2.37.92-3.5.82-2.3-.21-4.21-1.24-5.43-2.46-1.23-1.23-1.77-2.59-1.98-3.51-.11-.47-.14-.84-.15-1.09,0-.25,0-.38.02-.38.04,0,.05.53.3,1.43.26.89.82,2.17,2.03,3.32,1.19,1.14,3.05,2.09,5.23,2.27,1.07.08,2.26-.08,3.19-.76.46-.34.85-.79,1.08-1.33.23-.53.27-1.14.06-1.69-.2-.55-.61-1.03-1.12-1.25-.5-.23-1.1-.16-1.62.06-.27.11-.52.24-.68.42-.17.18-.25.41-.26.66-.02.52.18,1.04.43,1.52.49.96,1.2,1.76,2,2.28.8.53,1.69.76,2.52.85,1.66.16,3.03-.03,3.97-.08.95-.05,1.35-.44,1.37-.41,0,0-.07.13-.29.26-.22.14-.58.27-1.06.34-.47.07-1.05.14-1.72.2-.67.06-1.45.1-2.31.03-.85-.07-1.82-.29-2.7-.85-.87-.55-1.64-1.39-2.18-2.41-.26-.5-.52-1.08-.49-1.75.01-.33.13-.69.38-.95.24-.26.55-.41.84-.53.58-.25,1.33-.36,1.99-.06.65.28,1.13.86,1.37,1.52Z"/>
          </g>
          <g>
            <g>
              <path class="cls-7" d="M57.44,66.34c-.63-.71-2.13-5.78,1.75-10.58,3.4-4.2,7.01-5.12,7.98-5.75.03,2.26.63,10.39-5.84,15.21-1.23.92-3.44,1.26-3.89,1.12Z"/>
              <path class="cls-17" d="M62.32,64.59c1.36-1.15,2.49-2.58,3.28-4.19.81-1.6,1.3-3.34,1.54-5.1.26-1.76.24-3.55.15-5.3v-.2s-.18.1-.18.1c-.74.43-1.59.75-2.36,1.19-.78.42-1.54.9-2.26,1.41-1.44,1.05-2.76,2.27-3.84,3.7-1.09,1.43-1.79,3.15-2.05,4.93-.14.89-.12,1.8-.02,2.69.13.88.33,1.78.86,2.53,1.77.13,3.62-.51,4.9-1.77ZM56.79,63.81c-.07-.87-.03-1.75.12-2.61.29-1.72,1-3.36,2.02-4.78,1-1.43,2.22-2.74,3.64-3.79,1.41-1.1,3.05-1.73,4.67-2.52l-.18-.1c.03,1.76-.03,3.51-.31,5.24-.27,1.72-.78,3.4-1.54,4.96-.77,1.55-1.8,2.97-3.08,4.15-.33.28-.65.58-.99.84-.35.25-.74.44-1.14.6-.8.29-1.68.58-2.53.53-.45-.74-.57-1.66-.66-2.51Z"/>
            </g>
            <path class="cls-2" d="M71.95,62.97c-6.23,2.5-12.81,3.81-19.48,3.45-2.78-.15-5.22-.69-7.9-1.14"/>
            <g>
              <path class="cls-7" d="M64.59,65.29c-.07-.95,1.83-5.88,7.83-7.32,5.25-1.26,8.68.21,9.83.3-1.35,1.81-5.83,8.62-13.9,8.5-1.53-.02-3.49-1.1-3.76-1.48Z"/>
              <path class="cls-17" d="M69.53,66.88c1.78-.09,3.55-.53,5.15-1.33,1.61-.77,3.06-1.85,4.33-3.1,1.28-1.24,2.35-2.67,3.35-4.11l.11-.16-.2-.03c-.85-.11-1.72-.37-2.6-.5-.88-.14-1.77-.22-2.66-.26-1.78-.04-3.57.11-5.3.6-1.74.47-3.34,1.41-4.63,2.66-.65.62-1.19,1.35-1.65,2.12-.43.78-.83,1.61-.86,2.53,1.32,1.18,3.18,1.8,4.96,1.58ZM65.62,62.89c.48-.74,1.04-1.41,1.68-2,1.28-1.19,2.84-2.06,4.51-2.56,1.67-.52,3.43-.82,5.2-.79,1.79-.02,3.47.48,5.24.84l-.09-.19c-1.05,1.42-2.17,2.76-3.44,3.96-1.26,1.2-2.69,2.23-4.24,3-1.56.76-3.24,1.26-4.98,1.42-.43.02-.87.06-1.3.06-.42-.02-.85-.1-1.27-.22-.82-.26-1.68-.57-2.33-1.12.09-.86.55-1.66,1.01-2.39Z"/>
            </g>
            <g>
              <path class="cls-7" d="M52.87,66.65c-.49.81-1.04,6.07,3.64,10.09,4.1,3.52,7.82,3.76,8.89,4.21-.38-2.23-1.27-10.33-8.51-13.9-1.37-.68-3.61-.61-4.03-.4Z"/>
              <path class="cls-17" d="M55.47,66.72c.43.08.84.2,1.23.38.38.19.75.43,1.13.65,1.47.93,2.75,2.14,3.79,3.52,1.03,1.39,1.84,2.95,2.41,4.6.59,1.64.97,3.35,1.26,5.09l.16-.13c-1.74-.48-3.47-.8-5.05-1.63-1.59-.77-3.02-1.84-4.27-3.07-1.26-1.21-2.25-2.69-2.85-4.33-.3-.82-.5-1.68-.59-2.55-.07-.86-.12-1.78.19-2.59.83-.2,1.74-.08,2.59.06ZM52.47,69.27c.06.89.2,1.79.5,2.64.58,1.7,1.58,3.27,2.92,4.48,1.32,1.22,2.85,2.17,4.45,2.94.81.37,1.63.71,2.48.98.84.28,1.74.45,2.54.74l.19.07-.03-.2c-.23-1.74-.53-3.5-1.11-5.18-.55-1.69-1.35-3.31-2.44-4.73-1.07-1.44-2.44-2.64-3.98-3.52-1.49-1-3.42-1.3-5.14-.85-.39.83-.42,1.75-.39,2.64Z"/>
            </g>
          </g>
          <g>
            <path class="cls-17" d="M96.79,69.29l3.14,7.33s4.24-.58,10.98-3.2c6.74-2.62,14.76-4.7,20.82-6.61,12.34-3.89,20.05-9.36,22.21-15.33-.44-1.25-1.6-3.81-1.6-3.81l-30.41,13.47-25.14,8.15Z"/>
            <g>
              <path class="cls-14" d="M109.56,22.78s2.54,11.94,6.08,18.19c2.78,4.91,8.14,8.78,15.47,7.38,7.33-1.41,10.56-7.69,16.37-5.39,4.08,1.61,4.91,4.84,4.91,4.84,0,0-6.11,9.76-19.1,13.54-12.32,3.58-19.42,2.52-25.92,4.82-8.5,3.02-10.32,3.71-10.32,3.71,0,0-2.34-2.65-2.52-10.89-.18-8.24-.36-10.4-1.53-14.04-1.18-3.64-6.33-12.84-6.33-12.84,0,0,17.97-9.04,22.9-9.32Z"/>
              <path class="cls-17" d="M109.59,22.75c.65,2.59,1.32,5.05,2.11,7.55.79,2.48,1.62,4.94,2.65,7.32,1.02,2.38,2.27,4.65,4.06,6.47,1.78,1.82,4.03,3.16,6.48,3.76,2.46.59,5.07.42,7.5-.26,2.45-.71,4.64-2.06,6.87-3.44,1.12-.67,2.3-1.32,3.6-1.71,1.3-.4,2.74-.41,4.04,0,2.56.8,4.85,2.68,5.7,5.3l.03.1-.06.08c-2.99,4.22-6.96,7.61-11.37,10.2-4.41,2.67-9.45,4-14.43,5.08-2.51.52-5.04.91-7.57,1.23-2.53.33-5.07.58-7.56,1.04-1.24.24-2.47.52-3.65.94-1.19.4-2.39.86-3.59,1.29l-7.18,2.62-.34.12-.2-.25c-.6-.78-.91-1.54-1.24-2.35-.3-.8-.53-1.62-.72-2.45-.38-1.66-.57-3.34-.66-5.01-.13-3.35-.1-6.65-.41-9.93-.16-1.63-.46-3.22-.95-4.78-.46-1.55-1.15-3.04-1.84-4.54-1.41-2.99-2.94-5.93-4.52-8.84l-.18-.34.34-.16c3.72-1.81,7.48-3.54,11.28-5.17,1.9-.81,3.82-1.59,5.77-2.28.98-.34,1.95-.68,2.95-.96.99-.29,2-.54,3.08-.61ZM109.53,22.82c-1.97.29-3.96,1.06-5.86,1.8-1.92.76-3.8,1.6-5.69,2.44-3.76,1.7-7.48,3.5-11.15,5.37l.15-.5c1.64,2.9,3.23,5.81,4.71,8.8.73,1.5,1.47,3.02,1.95,4.65.51,1.61.84,3.29,1,4.97.33,3.34.31,6.68.45,9.97.1,1.63.27,3.26.62,4.85.17.79.39,1.57.66,2.33.27.73.63,1.52,1.04,2.06l-.53-.13,7.22-2.56c1.21-.42,2.39-.87,3.63-1.26,1.24-.41,2.51-.68,3.78-.9,2.54-.43,5.09-.63,7.62-.91,2.53-.28,5.05-.61,7.55-1.09,4.97-1.01,9.97-2.26,14.37-4.85,2.22-1.24,4.27-2.77,6.15-4.47,1.87-1.7,3.62-3.59,5-5.7l-.03.18c-.83-2.37-3.05-4.13-5.44-4.8-1.2-.35-2.46-.31-3.64.08-1.19.38-2.29,1.04-3.4,1.71-2.19,1.37-4.46,2.81-7.04,3.58-2.57.74-5.33.86-7.94.22-2.61-.66-4.98-2.12-6.82-4.04-1.88-1.92-3.1-4.34-4.07-6.76-1.96-4.85-3.24-9.98-4.27-15.02Z"/>
            </g>
            <path class="cls-12" d="M114.77,63.76c-4.29-.26-9.49-1.15-12.38-4.68-1.5-1.83-2.14-4.14-2.58-6.41-.55-2.77-1.02-5.53-1.84-8.24-.87-2.86-1.98-5.58-3.63-8.08-1.35-2.04-2.92-3.92-4.47-5.81-1.93.93-3.19,1.56-3.19,1.56,0,0,5.15,9.2,6.33,12.84,1.18,3.64,1.35,5.8,1.53,14.04.18,8.24,2.52,10.89,2.52,10.89,0,0,1.82-.69,10.32-3.71,3.96-1.41,8.15-1.56,13.62-2.28-2.08.04-4.16,0-6.22-.12Z"/>
            <g class="cls-19">
              <path class="cls-16" d="M141.88,46.89c-1.12.63-2.15,1.37-3.14,2.01-.99.64-1.96,1.17-2.82,1.5-1.74.64-2.88.63-2.92.45-.05-.21,1-.57,2.48-1.38.74-.41,1.57-.98,2.5-1.67.93-.68,1.96-1.48,3.19-2.17,1.22-.69,2.56-1.19,3.85-1.27,1.3-.11,2.48.25,3.31.75.85.5,1.35,1.16,1.57,1.65.22.5.21.8.12.83-.21.1-.66-.96-2.16-1.56-.73-.3-1.68-.48-2.71-.33-1.04.14-2.15.58-3.27,1.21Z"/>
            </g>
          </g>
          <g>
            <path class="cls-6" d="M123.05,136.58c-5.31,11.37,3.45,19.27,4.2,22.24,1.4,5.58-1.17,9.83-5.15,13.4,5.9-.09,9.73.25,12.97,1.57-.18-3.68,6.49-12.43-.83-23.96-2.13-3.36-6.96-9.88-5.61-14.07-4.18,3.89-3.81,2.33-5.58.82Z"/>
            <path class="cls-5" d="M126.52,166.64c1.1-2.3,1.48-4.87.73-7.82-.07-.26-.21-.57-.38-.91,3.44-.51,6.91-.8,10.42-.8.73,3.5.35,6.6-.29,9.23-3.39-.55-6.97-.35-10.48.29Z"/>
            <path class="cls-5" d="M133.11,148.09c-3.6.22-7.07,1.06-10.42,2.29-1.49-3.7-2.18-8.35.36-13.8,1.77,1.51,1.4,3.07,5.58-.82-1.14,3.56,2.16,8.78,4.48,12.34Z"/>
            <path class="cls-8" d="M123.84,137.46c1.24,3.28,2.52,6.51,4.18,9.6,1.87,3.48,3.22,7,3.56,10.96.45,5.27-1.12,9.92-3.5,14.31-1.74-.12-3.7-.16-5.98-.12,3.98-3.57,6.56-7.82,5.15-13.4-.75-2.97-9.51-10.87-4.2-22.24.31.27.56.53.77.77,0,.04,0,.07.02.11Z"/>
            <path class="cls-4" d="M152.95,101.95c-4.06-.54-45.03,23.99-47.2,30.48-2.33,6.94,25.45-1.31,30.24-6.72,4.79-5.42,21.02-23.22,16.96-23.76Z"/>
            <path class="cls-5" d="M146.89,104.19c3.05-1.49,5.27-2.35,6.06-2.24,1.67.22-.09,3.36-3.07,7.35-.68-1.88-1.6-3.65-2.99-5.11Z"/>
            <path class="cls-5" d="M130.35,113.5c2.81-1.73,5.61-3.38,8.23-4.87,1.54,2.01,3.17,3.98,4.38,6.2.34.63.62,1.29.86,1.96-2.42,2.84-4.81,5.52-6.54,7.46-1.22-4.19-3.13-8.44-6.94-10.75Z"/>
            <path class="cls-5" d="M116.59,122.56c1.83-1.31,3.81-2.67,5.87-4.03,2.42,3.7,4.81,7.41,7.03,11.24-2.71,1.23-3.77,1.66-6.93,2.59-2.54-2.7-5.26-6.31-5.97-9.79Z"/>
            <path class="cls-5" d="M105.74,132.43c.33-.99,1.56-2.39,3.42-4.06.27,2.42,1.14,4.6,2.4,6.59-4,.41-6.61-.2-5.83-2.53Z"/>
            <path class="cls-8" d="M126.68,120.2c5.24-3.38,10.25-6.75,15.63-9.9,3.17-1.86,6.86-3.98,10.42-5.25-3.02,5.46-13.13,16.58-16.74,20.66-3.94,4.45-23.4,10.81-28.91,9.08,5.74-5.75,12.94-10.29,19.6-14.59Z"/>
            <path class="cls-6" d="M153.11,101.88c1.72.88-1.52,7.06-10.89,14.58-5.41,4.34-12.4,9.66-22.56,13.6-4.26,1.66-12.95,4.12-13.75,1.88-2.32,1.81,2.74,5.67,4.1,8.5,1.23,2.57-.71,6.92,2.69,7.63,5.77.61,12.09-1.66,17.27-3.98,8.23-3.69,16.23-8.62,23.37-13.99,4.52-3.4,9.4-8.6,9-13.93-.12-1.63-.98-3.99-3.03-3.74-1.4.17-2.17-.89-3.31-2.84-1.37-2.33,1.3-6.57-2.9-7.71Z"/>
            <path class="cls-5" d="M148.06,124.66c-.68-.63-1.49-1.15-2.14-1.82-.98-1.01-1.05-1.98-1.35-3.25-.32-1.35-.95-2.54-1.61-3.73,2.87-2.37,5.13-4.58,6.81-6.53.45,1.73-.14,3.28.04,5.15.12,1.2.81,1.88,1.76,2.59,3.26,2.45,5.57,5.29,6.21,9.08-1.38,1.48-2.93,2.82-4.44,3.95-.44.33-.89.65-1.34.98-.55-2.48-1.99-4.61-3.94-6.43Z"/>
            <path class="cls-5" d="M117.63,147.97c-.92-1.81-1.78-3.64-2.5-5.54-1.26-3.29-2.27-6.67-3.36-10.02,2.68-.54,5.7-1.5,7.76-2.29,1.94,5.34,3.92,10.69,7.11,15.38-2.87,1.12-5.95,2.07-9,2.47Z"/>
            <path class="cls-5" d="M132.33,134.87c-1.69-2.7-3.62-5.51-5.76-7.92,2.45-1.26,4.69-2.59,6.74-3.93,1.38.89,2.61,2.97,3.46,4.2.99,1.42,1.88,2.92,2.76,4.41,1.13,1.91,2.04,3.89,2.76,5.94-2.27,1.38-4.58,2.67-6.93,3.89-.74-2.3-1.71-4.5-3.03-6.6Z"/>
            <path class="cls-8" d="M118.33,142.34c3.72-.59,7.31-1.93,10.85-3.17,5.99-2.1,11.69-5.12,16.8-8.88,3.41-2.51,7.07-5.97,8.11-10.28.2-.83.32-1.93-.7-2.2-.59-.16-1.35.25-1.87.48-.41.18-.85.5-1.28.62-.55.15-1.69.15-1.57-.65.09-.65,1.28-1.55,1.75-2.02.91-.9,1.85-1.77,2.71-2.72,1.19-1.32,2.09-2.73,2.68-4.33.05.14.11.28.19.41,1.14,1.95,1.91,3.01,3.31,2.84,2.04-.25,2.91,2.1,3.03,3.74.39,5.33-4.48,10.52-9,13.93-7.14,5.38-15.15,10.3-23.37,13.99-5.18,2.33-11.5,4.6-17.27,3.98-2.48-.52-2.12-2.97-2.22-5.26,2.63,0,5.26-.07,7.86-.48Z"/>
            <path class="cls-6" d="M120.49,129.61c-1.56.8-1.21,4.72-.76,6.15.52,1.66,1.65,3.51,2.64,4.94,8.87,12.81,7.21,18.38,6.15,21.34-2.87,7.97-9.18,13.52-11.31,14.94-.49-1.2-.56-2.43-1.16-3.67-1.01-2.09-2.37-3.81-4.26-5.17-1.68-1.21-3.5-2.51-5.59-2.77.66-.84,9.03-6.71,9.93-13.44.4-3.02-1.22-5.95-2.34-8.58-1.12-2.64-2.51-5.5-3.3-8.26-.28-.96-.43-2.03-.05-2.97.64-1.55,7.35-2.61,10.05-2.5Z"/>
            <path class="cls-5" d="M122.36,140.69c.05.07.09.14.14.21-3.07,0-5.94,1.18-8.75,2.39-.63-1.48-1.34-3.04-1.98-4.6,2.43-1.51,5.05-2.65,7.92-3.03,0,.03.02.07.03.1.52,1.66,1.65,3.51,2.64,4.94Z"/>
            <path class="cls-5" d="M120.39,155.47c-1.91-.18-3.72-.05-5.53.23.63-1.21,1.08-2.48,1.26-3.79.11-.82.06-1.63-.08-2.43.94-.24,1.88-.46,2.85-.6,2.74-.39,5.52-.23,8.25.16.03,0,.06,0,.09,0,1.53,3.38,2.07,5.98,2.14,8.02-2.97-.63-5.94-1.31-8.97-1.59Z"/>
            <path class="cls-5" d="M114.66,164.25c3.07,1.71,6.61,3.77,9.05,6.31-2.58,3.32-5.26,5.58-6.51,6.41-.49-1.2-.56-2.43-1.16-3.67-1.01-2.09-2.37-3.81-4.26-5.17-1.68-1.21-3.5-2.51-5.59-2.77.25-.32,1.61-1.37,3.25-2.91,1.79.33,3.53.86,5.21,1.79Z"/>
          </g>
        </g>
        <g>
          <g class="cls-11">
            <path class="cls-20" d="M21.21,11.86c0,1.84-1.49,3.33-3.33,3.33s-3.33-1.49-3.33-3.33,1.49-3.33,3.33-3.33,3.33,1.49,3.33,3.33Z"/>
          </g>
          <g class="cls-11">
            <circle class="cls-20" cx="31.39" cy=".7" r="2.56"/>
          </g>
          <g>
            <path class="cls-6" d="M18.8,55.58c-5.31,11.37,3.45,19.27,4.2,22.24,1.4,5.58-1.17,9.83-5.15,13.4,5.9-.09,9.73.25,12.97,1.57-.18-3.68,6.49-12.43-.83-23.96-2.13-3.36-6.96-9.88-5.61-14.07-4.18,3.89-3.81,2.33-5.58.82Z"/>
            <path class="cls-5" d="M22.27,85.64c1.1-2.3,1.48-4.87.73-7.82-.07-.26-.21-.57-.38-.91,3.44-.51,6.91-.8,10.42-.8.73,3.5.35,6.6-.29,9.23-3.39-.55-6.97-.35-10.48.29Z"/>
            <path class="cls-5" d="M28.86,67.09c-3.6.22-7.07,1.06-10.42,2.29-1.49-3.7-2.18-8.35.36-13.8,1.77,1.51,1.4,3.07,5.58-.82-1.14,3.55,2.16,8.78,4.48,12.34Z"/>
            <path class="cls-8" d="M19.59,56.46c1.24,3.28,2.52,6.51,4.18,9.6,1.87,3.48,3.22,7,3.56,10.96.45,5.27-1.12,9.92-3.5,14.31-1.74-.12-3.7-.16-5.98-.12,3.98-3.57,6.56-7.82,5.15-13.4-.75-2.97-9.51-10.87-4.2-22.24.31.27.56.53.77.77,0,.04,0,.07.02.11Z"/>
            <path class="cls-4" d="M48.7,20.95c-4.06-.54-45.03,23.99-47.2,30.48-2.33,6.94,25.45-1.31,30.24-6.72,4.79-5.42,21.02-23.22,16.96-23.76Z"/>
            <path class="cls-5" d="M42.64,23.19c3.05-1.49,5.27-2.35,6.06-2.24,1.67.22-.09,3.36-3.07,7.35-.68-1.88-1.6-3.65-2.99-5.11Z"/>
            <path class="cls-5" d="M26.1,32.5c2.81-1.73,5.61-3.38,8.23-4.87,1.54,2.01,3.17,3.98,4.38,6.2.34.63.62,1.29.86,1.96-2.42,2.84-4.81,5.52-6.54,7.46-1.22-4.19-3.13-8.44-6.94-10.75Z"/>
            <path class="cls-5" d="M12.34,41.56c1.83-1.31,3.81-2.67,5.87-4.03,2.42,3.7,4.81,7.41,7.03,11.24-2.71,1.23-3.77,1.66-6.93,2.59-2.54-2.7-5.26-6.31-5.97-9.79Z"/>
            <path class="cls-5" d="M1.49,51.43c.33-.99,1.57-2.39,3.42-4.06.27,2.42,1.14,4.6,2.4,6.59-4,.41-6.61-.2-5.83-2.53Z"/>
            <path class="cls-8" d="M22.43,39.2c5.24-3.38,10.25-6.75,15.63-9.9,3.17-1.86,6.86-3.98,10.42-5.25-3.02,5.46-13.13,16.58-16.74,20.66-3.94,4.45-23.4,10.81-28.91,9.08,5.74-5.75,12.94-10.29,19.6-14.59Z"/>
            <path class="cls-6" d="M48.86,20.88c1.72.88-1.52,7.06-10.89,14.58-5.41,4.34-12.4,9.66-22.56,13.6-4.26,1.66-12.95,4.12-13.75,1.88-2.32,1.81,2.74,5.67,4.1,8.5,1.23,2.57-.71,6.92,2.69,7.63,5.77.61,12.09-1.66,17.27-3.98,8.23-3.69,16.23-8.62,23.37-13.99,4.52-3.4,9.4-8.6,9-13.93-.12-1.63-.98-3.99-3.03-3.74-1.4.17-2.17-.89-3.31-2.84-1.37-2.33,1.3-6.57-2.9-7.71Z"/>
            <path class="cls-5" d="M43.81,43.66c-.68-.63-1.49-1.15-2.14-1.82-.98-1.01-1.05-1.98-1.35-3.25-.32-1.35-.95-2.54-1.61-3.73,2.87-2.37,5.13-4.58,6.81-6.53.45,1.73-.14,3.28.04,5.15.12,1.2.81,1.88,1.76,2.59,3.26,2.45,5.57,5.29,6.21,9.08-1.38,1.48-2.93,2.82-4.44,3.95-.44.33-.89.65-1.34.98-.55-2.48-1.99-4.61-3.94-6.43Z"/>
            <path class="cls-5" d="M13.38,66.97c-.92-1.81-1.78-3.64-2.5-5.54-1.26-3.29-2.27-6.67-3.36-10.02,2.68-.54,5.7-1.5,7.76-2.29,1.94,5.34,3.92,10.69,7.11,15.38-2.87,1.12-5.95,2.07-9,2.47Z"/>
            <path class="cls-5" d="M28.08,53.87c-1.69-2.7-3.62-5.51-5.76-7.92,2.45-1.26,4.69-2.59,6.74-3.93,1.38.89,2.61,2.97,3.46,4.2.99,1.42,1.88,2.92,2.76,4.41,1.13,1.91,2.04,3.89,2.76,5.94-2.27,1.38-4.59,2.67-6.93,3.89-.74-2.3-1.72-4.5-3.03-6.6Z"/>
            <path class="cls-8" d="M14.08,61.34c3.72-.59,7.31-1.93,10.85-3.17,5.99-2.1,11.69-5.12,16.81-8.88,3.41-2.51,7.07-5.97,8.11-10.28.2-.83.32-1.93-.7-2.2-.59-.16-1.35.25-1.87.48-.41.18-.85.5-1.28.62-.55.15-1.69.15-1.57-.65.09-.65,1.28-1.55,1.75-2.02.91-.9,1.85-1.77,2.71-2.72,1.19-1.32,2.09-2.73,2.68-4.33.05.14.11.28.19.41,1.14,1.95,1.91,3.01,3.31,2.84,2.04-.25,2.91,2.1,3.03,3.74.39,5.33-4.48,10.52-9,13.93-7.14,5.38-15.15,10.3-23.37,13.99-5.18,2.33-11.5,4.6-17.27,3.98-2.48-.52-2.12-2.97-2.22-5.26,2.63,0,5.26-.07,7.86-.48Z"/>
            <path class="cls-6" d="M16.24,48.61c-1.56.8-1.21,4.72-.76,6.15.52,1.66,1.65,3.51,2.64,4.94,8.87,12.81,7.21,18.38,6.15,21.34-2.87,7.97-9.18,13.52-11.31,14.94-.49-1.2-.56-2.43-1.16-3.67-1.01-2.09-2.37-3.81-4.26-5.17-1.68-1.21-3.5-2.51-5.59-2.77.66-.84,9.03-6.71,9.93-13.44.4-3.02-1.22-5.95-2.34-8.58-1.12-2.64-2.51-5.5-3.3-8.26-.28-.96-.43-2.03-.05-2.97.64-1.55,7.35-2.61,10.05-2.5Z"/>
            <path class="cls-5" d="M18.11,59.69c.05.07.09.14.14.21-3.07,0-5.94,1.18-8.75,2.39-.63-1.48-1.34-3.04-1.98-4.6,2.43-1.51,5.05-2.65,7.92-3.03,0,.03.02.07.03.1.52,1.66,1.65,3.51,2.64,4.94Z"/>
            <path class="cls-5" d="M16.14,74.47c-1.91-.18-3.72-.05-5.53.23.63-1.21,1.08-2.48,1.26-3.79.11-.82.06-1.63-.08-2.43.94-.24,1.88-.46,2.85-.6,2.74-.39,5.52-.23,8.25.16.03,0,.06,0,.09,0,1.53,3.38,2.07,5.98,2.14,8.02-2.97-.63-5.94-1.31-8.97-1.59Z"/>
            <path class="cls-5" d="M10.41,83.25c3.07,1.71,6.61,3.77,9.05,6.31-2.58,3.32-5.26,5.58-6.51,6.41-.49-1.2-.56-2.43-1.16-3.67-1.01-2.09-2.37-3.81-4.26-5.17-1.68-1.21-3.5-2.51-5.59-2.77.25-.32,1.61-1.37,3.25-2.91,1.79.33,3.53.86,5.21,1.79Z"/>
          </g>
        </g>
        <g>
          <path class="cls-6" d="M123.05-25.42c-5.31,11.37,3.45,19.27,4.2,22.24,1.4,5.58-1.17,9.83-5.15,13.4,5.9-.09,9.73.25,12.97,1.57-.18-3.68,6.49-12.43-.83-23.96-2.13-3.36-6.96-9.88-5.61-14.07-4.18,3.89-3.81,2.33-5.58.82Z"/>
          <path class="cls-5" d="M126.52,4.64c1.1-2.3,1.48-4.87.73-7.82-.07-.26-.21-.57-.38-.91,3.44-.51,6.91-.8,10.42-.8.73,3.5.35,6.6-.29,9.23-3.39-.55-6.97-.35-10.48.29Z"/>
          <path class="cls-8" d="M123.84-24.54c1.24,3.28,2.52,6.51,4.18,9.6,1.87,3.48,3.22,7,3.56,10.96.45,5.27-1.12,9.92-3.5,14.31-1.74-.12-3.7-.16-5.98-.12,3.98-3.57,6.56-7.82,5.15-13.4-.75-2.97-9.51-10.87-4.2-22.24.31.27.56.53.77.77,0,.04,0,.07.02.11Z"/>
          <path class="cls-6" d="M120.49-32.39c-1.56.8-1.21,4.72-.76,6.15.52,1.66,1.65,3.51,2.64,4.94,8.87,12.81,7.21,18.38,6.15,21.34-2.87,7.97-9.18,13.52-11.31,14.94-.49-1.2-.56-2.43-1.16-3.67-1.01-2.09-2.37-3.81-4.26-5.17-1.68-1.21-3.5-2.51-5.59-2.77.66-.84,9.03-6.71,9.93-13.44.4-3.02-1.22-5.95-2.34-8.58-1.12-2.64-2.51-5.5-3.3-8.26-.28-.96-.43-2.03-.05-2.97.64-1.55,7.35-2.61,10.05-2.5Z"/>
          <path class="cls-5" d="M114.66,2.25c3.07,1.71,6.61,3.77,9.05,6.31-2.58,3.32-5.26,5.58-6.51,6.41-.49-1.2-.56-2.43-1.16-3.67-1.01-2.09-2.37-3.81-4.26-5.17-1.68-1.21-3.5-2.51-5.59-2.77.25-.32,1.61-1.37,3.25-2.91,1.79.33,3.53.86,5.21,1.79Z"/>
        </g>
      </g>
    </pattern>
  </defs>
  <g id="Pattern">
    <g>
      <rect class="cls-20" width="250" height="250"/>
      <rect class="cls-21" width="250" height="250"/>
    </g>
  </g>
</svg>