<?xml version="1.0" encoding="UTF-8"?>
<svg id="Layer_2" data-name="Layer 2" xmlns="http://www.w3.org/2000/svg" xmlns:xlink="http://www.w3.org/1999/xlink" viewBox="0 0 357.03 357.03">
  <defs>
    <style>
      .cls-1 {
        fill: none;
      }

      .cls-2 {
        fill: url(#New_Pattern_5);
      }

      .cls-3 {
        fill: #fff;
      }

      .cls-4 {
        fill: #cce3f5;
      }
    </style>
    <pattern id="New_Pattern_5" data-name="New Pattern 5" x="0" y="0" width="1200" height="1200" patternTransform="translate(-3570.31 -4998.43) scale(.3)" patternUnits="userSpaceOnUse" viewBox="0 0 1200 1200">
      <g>
        <rect class="cls-1" x="0" width="1200" height="1200"/>
        <g>
          <path class="cls-3" d="M877.45,1247.05c10.32,25.5,1.45,56.86-23.3,71.22-21.52,12.49-49.09,6.86-66.55-9.51-14.26,17.62-37.96,27.65-60.6,22.72-23.29-5.08-40.93-23.29-46.88-45.47-9.48,1.96-19.9-.19-28.52-4.92-28.37-15.54-34.26-53.75-19.32-80.77,12.79-23.12,39.85-34.83,65.27-30.84,9.82-21.24,32.77-36.22,56.69-33.97,22.84,2.14,41.63,19.63,48.22,40.9,20.95-13.07,47.5-15.79,68.82.39,23.04,17.48,25.48,50.77,6.17,70.27Z"/>
          <path class="cls-3" d="M486.44,1217.27c.54,25.63-14.29,51.09-38.43,61.35-22.99,9.77-49.91,4.09-68.11-12.06-12.79,17.52-35.07,27.33-57.14,23.31-22.77-4.14-40.83-24.69-44.6-47.25-25.44,5.18-54.22-1.07-65.79-26.99-6.2-13.9-4.76-29.24,5.27-40.95,6.1-7.13,14.98-11.9,24.22-12.69-1.7-4.32-2.6-8.99-2.64-13.74-.1-13.07,6.7-24.49,17.15-31.97,17.79-12.74,39.01-10.02,57-.61,4.91-15.14,19.08-27.71,34.79-30.47,18.42-3.24,35.78,4.98,48.54,17.83.94-1.15,1.96-2.23,3.06-3.24,8.47-7.72,19.47-10.28,30.63-8,20.71,4.23,31.83,22.14,39.52,40.29,14.01-3.47,28.99-4.53,42.58.66,13.86,5.29,25.43,17.11,28.76,31.83,7.21,31.88-26.5,50.41-54.82,52.71Z"/>
          <path class="cls-3" d="M1252.42,1217.27c.54,25.63-14.29,51.09-38.43,61.35-22.99,9.77-49.91,4.09-68.11-12.06-12.79,17.52-35.07,27.33-57.14,23.31-22.77-4.14-40.83-24.69-44.6-47.25-25.44,5.18-54.22-1.07-65.79-26.99-6.2-13.9-4.76-29.24,5.27-40.95,6.1-7.13,14.98-11.9,24.22-12.69-1.7-4.32-2.6-8.99-2.64-13.74-.1-13.07,6.7-24.49,17.15-31.97,17.79-12.74,39.01-10.02,57-.61,4.91-15.14,19.08-27.71,34.79-30.47,18.42-3.24,35.78,4.98,48.54,17.83.94-1.15,1.96-2.23,3.06-3.24,8.47-7.72,19.47-10.28,30.63-8,20.71,4.23,31.83,22.14,39.52,40.29,14.01-3.47,28.99-4.53,42.58.66,13.86,5.29,25.43,17.11,28.76,31.83,7.21,31.88-26.5,50.41-54.82,52.71Z"/>
        </g>
        <path class="cls-3" d="M52.42,1217.27c.54,25.63-14.29,51.09-38.43,61.35-22.99,9.77-49.91,4.09-68.11-12.06-12.79,17.52-35.07,27.33-57.14,23.31-22.77-4.14-40.83-24.69-44.59-47.25-25.44,5.18-54.22-1.07-65.79-26.99-6.2-13.9-4.76-29.24,5.27-40.95,6.1-7.13,14.98-11.9,24.22-12.69-1.7-4.32-2.6-8.99-2.64-13.74-.1-13.07,6.7-24.49,17.15-31.97,17.79-12.74,39.01-10.02,57-.61,4.91-15.14,19.08-27.71,34.79-30.47,18.42-3.24,35.78,4.98,48.54,17.83.94-1.15,1.96-2.23,3.06-3.24,8.47-7.72,19.47-10.28,30.63-8,20.71,4.23,31.83,22.14,39.52,40.29,14.01-3.47,28.99-4.53,42.58.66,13.86,5.29,25.43,17.11,28.76,31.83,7.21,31.88-26.5,50.41-54.82,52.71Z"/>
        <g>
          <path class="cls-3" d="M1156.04,182.01c13.63-26.31,45.29-32.51,67.58-17.97,13.43-18.9,31.28-34.65,53.06-38.11,18.67-2.97,39.26,3.61,52.03,19.22,20.05-20.06,46.22-32.93,73.44-25.03,13.92,4.04,27.18,13.9,33.17,28.95,12.13,30.48,55.26,41.6,46.18,88.95-8.3,43.28-62.88,52.49-97.09,42.6-5.75-1.66-11.2-4.22-16.15-7.65-3.54,7.74-9.59,14.21-16.67,18.3-.91.73-1.97,1.29-3.18,1.64-3.28,1.49-6.73,2.49-10.21,2.86-15.23,1.61-28.85-8.13-38.24-21.26-10.56,13.24-26.31,21.02-42.63,18.69-17.65-2.52-31.89-15.58-38.88-32.92-10.5,5.17-22.47,6.27-33.85,2.95-31.08-9.07-44.36-50.7-28.55-81.22Z"/>
          <path class="cls-3" d="M1418.48,725.46c-13.63,26.31-45.29,32.51-67.58,17.97-13.43,18.9-31.28,34.65-53.06,38.11-18.67,2.97-39.26-3.61-52.03-19.22-20.05,20.06-46.22,32.93-73.44,25.03-13.92-4.04-27.18-13.9-33.17-28.95-12.13-30.48-55.26-41.6-46.18-88.95,8.3-43.28,62.88-52.49,97.09-42.6,5.75,1.66,11.2,4.22,16.15,7.65,3.54-7.74,9.59-14.21,16.67-18.3.91-.73,1.97-1.29,3.18-1.64,3.28-1.49,6.73-2.49,10.21-2.86,15.23-1.61,28.85,8.13,38.24,21.26,10.56-13.24,26.31-21.02,42.63-18.69,17.65,2.52,31.89,15.58,38.88,32.92,10.5-5.17,22.47-6.27,33.85-2.95,31.08,9.07,44.36,50.7,28.55,81.22Z"/>
        </g>
        <g>
          <path class="cls-3" d="M-43.96,182.01c13.63-26.31,45.29-32.51,67.58-17.97,13.43-18.9,31.28-34.65,53.06-38.11,18.67-2.97,39.26,3.61,52.03,19.22,20.05-20.06,46.22-32.93,73.44-25.03,13.92,4.04,27.18,13.9,33.17,28.95,12.13,30.48,55.26,41.6,46.18,88.95-8.3,43.28-62.88,52.49-97.09,42.6-5.75-1.66-11.2-4.22-16.15-7.65-3.54,7.74-9.59,14.21-16.67,18.3-.91.73-1.97,1.29-3.18,1.64-3.28,1.49-6.73,2.49-10.21,2.86-15.23,1.61-28.85-8.13-38.24-21.26-10.56,13.24-26.31,21.02-42.63,18.69-17.65-2.52-31.89-15.58-38.88-32.92-10.5,5.17-22.47,6.27-33.85,2.95-31.08-9.07-44.36-50.7-28.55-81.22Z"/>
          <path class="cls-3" d="M1113.86,360.49c-2.14,20.62-15.08,37.08-34.16,44.91-14.15,5.81-30.69,5.98-44.58-.26-1.76,2.33-3.59,4.6-5.54,6.78-19.84,22.21-48.93,33.75-78.48,29.21-23.55-3.61-44.67-17.72-56.81-37.84-13.39,8.77-27.59,16.65-43.24,20.27-28.18,6.52-63.81-3.32-74.19-33.17-4.45-12.79-1.35-28.1,6.52-38.92,2.18-3,4.62-5.64,7.26-7.88-6.51-6.11-11.53-13.91-14.65-22.33-11.91-32.16,10.74-66.9,40.59-78.87,21.13-8.48,48.3-5.63,65.11,9.89,12.19-12.52,31.51-18.44,48.32-13.2,12.52,3.91,22.2,12.77,27.85,23.78,12.74-14.03,31.98-21.97,51.21-17.1,20.01,5.06,35.26,24.81,35.86,45.19,13.47-1,26.96-.23,39.52,5.61,13.88,6.45,25.22,19.54,27.2,34.97.33,2.53.38,5.02.18,7.47,2.02,6.95,2.77,14.26,2.02,21.49ZM822.89,326.85c-.41-.62-.76-1.28-1.05-1.98-.49.29-1.01.53-1.54.73.84.56,1.71.96,2.59,1.25ZM855.27,352.36c-.3-.34-.61-.67-.95-.96-.31-.26-.59-.48-.85-.65-1.28,1.74-2.79,3.08-4.48,4.07-.1.53-.17,1.07-.21,1.62,2.06-1.54,4.24-2.93,6.49-4.08ZM866.81,267.51c-8.52-7.84-21-9.99-32.96-7.83,1.33.14,2.65.34,3.96.62,4.41-.84,8.97-.77,13.36.43,3.49.96,6.43,2.42,8.91,4.26,1.05.42,2.09.87,3.11,1.37.62.3,1.18.67,1.69,1.1.65.02,1.29.04,1.94.05ZM942.35,282.03c-.11-.84-.26-1.67-.45-2.49-.27.88-.54,1.77-.81,2.65.41-.08.83-.13,1.26-.16ZM968.07,331.2l-.26-4.42c-.49.54-1,1.07-1.5,1.61.67.84,1.26,1.79,1.75,2.81ZM1047.28,311.81c-1.99.14-3.96.34-5.92.56.07.19.13.38.19.58,1.47.12,2.95.57,4.36,1.44.12.08.24.16.36.24.24-.99.58-1.94,1.01-2.82Z"/>
          <path class="cls-3" d="M877.45,47.05c10.32,25.5,1.45,56.86-23.3,71.22-21.52,12.49-49.09,6.86-66.55-9.51-14.26,17.62-37.96,27.65-60.6,22.72-23.29-5.08-40.93-23.29-46.88-45.47-9.48,1.96-19.9-.19-28.52-4.92-28.37-15.54-34.26-53.75-19.32-80.77,12.79-23.12,39.85-34.83,65.27-30.84,9.82-21.24,32.77-36.22,56.69-33.97,22.84,2.14,41.63,19.63,48.22,40.9,20.95-13.07,47.5-15.79,68.82.39,23.04,17.48,25.48,50.77,6.17,70.27Z"/>
          <path class="cls-3" d="M486.44,17.27c.54,25.63-14.29,51.09-38.43,61.35-22.99,9.77-49.91,4.09-68.11-12.06-12.79,17.52-35.07,27.33-57.14,23.31-22.77-4.14-40.83-24.69-44.6-47.25-25.44,5.18-54.22-1.07-65.79-26.99-6.2-13.9-4.76-29.24,5.27-40.95,6.1-7.13,14.98-11.9,24.22-12.69-1.7-4.32-2.6-8.99-2.64-13.74-.1-13.07,6.7-24.49,17.15-31.97,17.79-12.74,39.01-10.02,57-.61,4.91-15.14,19.08-27.71,34.79-30.47,18.42-3.24,35.78,4.98,48.54,17.83.94-1.15,1.96-2.23,3.06-3.24,8.47-7.72,19.47-10.28,30.63-8,20.71,4.23,31.83,22.14,39.52,40.29,14.01-3.47,28.99-4.53,42.58.66,13.86,5.29,25.43,17.11,28.76,31.83,7.21,31.88-26.5,50.41-54.82,52.71Z"/>
          <path class="cls-3" d="M877.45,1229.84c10.32,25.5,1.45,56.86-23.3,71.22-21.52,12.49-49.09,6.86-66.55-9.51-14.26,17.62-37.96,27.65-60.6,22.72-23.29-5.08-40.93-23.29-46.88-45.47-9.48,1.96-19.9-.19-28.52-4.92-28.37-15.54-34.26-53.75-19.32-80.77,12.79-23.12,39.85-34.83,65.27-30.84,9.82-21.24,32.77-36.22,56.69-33.97,22.84,2.14,41.63,19.63,48.22,40.9,20.95-13.07,47.5-15.79,68.82.39,23.04,17.48,25.48,50.77,6.17,70.27Z"/>
          <path class="cls-3" d="M486.44,1200.06c.54,25.63-14.29,51.09-38.43,61.35-22.99,9.77-49.91,4.09-68.11-12.06-12.79,17.52-35.07,27.33-57.14,23.31-22.77-4.14-40.83-24.69-44.6-47.25-25.44,5.18-54.22-1.07-65.79-26.99-6.2-13.9-4.76-29.24,5.27-40.95,6.1-7.13,14.98-11.9,24.22-12.69-1.7-4.32-2.6-8.99-2.64-13.74-.1-13.07,6.7-24.49,17.15-31.97,17.79-12.74,39.01-10.02,57-.61,4.91-15.14,19.08-27.71,34.79-30.47,18.42-3.24,35.78,4.98,48.54,17.83.94-1.15,1.96-2.23,3.06-3.24,8.47-7.72,19.47-10.28,30.63-8,20.71,4.23,31.83,22.14,39.52,40.29,14.01-3.47,28.99-4.53,42.58.66,13.86,5.29,25.43,17.11,28.76,31.83,7.21,31.88-26.5,50.41-54.82,52.71Z"/>
          <path class="cls-3" d="M1252.42,17.27c.54,25.63-14.29,51.09-38.43,61.35-22.99,9.77-49.91,4.09-68.11-12.06-12.79,17.52-35.07,27.33-57.14,23.31-22.77-4.14-40.83-24.69-44.6-47.25-25.44,5.18-54.22-1.07-65.79-26.99-6.2-13.9-4.76-29.24,5.27-40.95,6.1-7.13,14.98-11.9,24.22-12.69-1.7-4.32-2.6-8.99-2.64-13.74-.1-13.07,6.7-24.49,17.15-31.97,17.79-12.74,39.01-10.02,57-.61,4.91-15.14,19.08-27.71,34.79-30.47,18.42-3.24,35.78,4.98,48.54,17.83.94-1.15,1.96-2.23,3.06-3.24,8.47-7.72,19.47-10.28,30.63-8,20.71,4.23,31.83,22.14,39.52,40.29,14.01-3.47,28.99-4.53,42.58.66,13.86,5.29,25.43,17.11,28.76,31.83,7.21,31.88-26.5,50.41-54.82,52.71Z"/>
          <path class="cls-3" d="M1252.42,1200.06c.54,25.63-14.29,51.09-38.43,61.35-22.99,9.77-49.91,4.09-68.11-12.06-12.79,17.52-35.07,27.33-57.14,23.31-22.77-4.14-40.83-24.69-44.6-47.25-25.44,5.18-54.22-1.07-65.79-26.99-6.2-13.9-4.76-29.24,5.27-40.95,6.1-7.13,14.98-11.9,24.22-12.69-1.7-4.32-2.6-8.99-2.64-13.74-.1-13.07,6.7-24.49,17.15-31.97,17.79-12.74,39.01-10.02,57-.61,4.91-15.14,19.08-27.71,34.79-30.47,18.42-3.24,35.78,4.98,48.54,17.83.94-1.15,1.96-2.23,3.06-3.24,8.47-7.72,19.47-10.28,30.63-8,20.71,4.23,31.83,22.14,39.52,40.29,14.01-3.47,28.99-4.53,42.58.66,13.86,5.29,25.43,17.11,28.76,31.83,7.21,31.88-26.5,50.41-54.82,52.71Z"/>
          <path class="cls-3" d="M636.58,295.5c-19.04,12.15-43.51,9.88-62.55-1.02-12.71,20.26-35.8,32.52-60.4,29.23-13.88-1.86-27.37-8.3-37.02-18.57-4.82-5.13-8.7-12.13-9.79-19.19-19.95.74-40.24-13.83-42.71-34.69-2.13-18.01,10.97-34.49,27.42-40.63.31-4.78,1.23-9.41,2.28-13.02,6.5-22.35,27.19-38.49,50.87-33.35,3.41.74,6.75,1.95,9.88,3.56.25-.66.53-1.31.83-1.96,4.47-9.65,14.27-15.25,24.72-15.69,11.29-.47,21.87,5.3,28.36,14.33,1.74,2.43,3.11,5.02,4.16,7.72,12.88-11.17,29.73-17.25,46.77-10.61,11.03,4.3,20.64,12.99,23.38,24.88,2.46,10.65-.49,21.06-5.51,30.4,7.73,4.01,14.18,10.71,18.06,18.39,11.19,22.16,1.52,47.29-18.77,60.23Z"/>
          <path class="cls-3" d="M215.62,455.5c-7.48,5.49-17.29,6.02-26.15,4.61-.68-.1-1.36-.22-2.03-.36-.35,1.26-.88,2.55-1.34,3.75-1.67,4.33-4.21,8.34-7.69,11.44-7.25,6.47-16.84,9.09-26.35,6.91-4.67-1.07-9.04-3.43-12.66-6.55-1.6-1.38-2.86-2.95-4.17-4.58-.2-.25-.54-.58-.91-.93-.31.44-.63.87-.95,1.3-1.45,1.94-3.01,3.67-4.87,5.22-3.63,3.03-7.92,5.44-12.57,6.49-9.01,2.04-18.39-.53-24.26-7.86-3.19-3.99-5.08-8.77-5.31-13.63-5.08.16-10.1-.57-14.85-3.04-7.08-3.67-12.32-11.27-11.54-19.43.82-8.63,7.59-15.49,15.65-18.05,6.11-1.94,12.34-1.21,18.32.57,3.01-7.26,8.74-13.13,16.46-16.06,7.54-2.86,16.18-1.87,23.22,1.95.84-2.62,1.68-5.42,3.08-7.5,4.55-6.74,11.9-7.79,19.43-6.26,10.75,2.18,20.56,9.02,26.74,18.12,7.51-3.12,16.15-3.85,23.83-1.18,9.46,3.29,16.54,11.35,18.13,21.3,1.47,9.2-1.56,18.14-9.19,23.74Z"/>
          <path class="cls-3" d="M734.18,993.4c-15.28,11.22-35.31,12.29-53.41,9.42-1.39-.21-2.77-.45-4.15-.73-.72,2.57-1.79,5.21-2.73,7.65-3.41,8.84-8.6,17.03-15.72,23.38-14.81,13.21-34.4,18.57-53.83,14.11-9.55-2.19-18.47-7.01-25.87-13.37-3.26-2.81-5.84-6.03-8.53-9.36-.41-.51-1.11-1.19-1.85-1.91-.63.89-1.28,1.77-1.94,2.65-2.97,3.95-6.15,7.5-9.95,10.67-7.42,6.18-16.19,11.11-25.67,13.26-18.41,4.16-37.56-1.08-49.56-16.06-6.52-8.15-10.37-17.91-10.84-27.83-10.37.32-20.63-1.16-30.34-6.2-14.47-7.51-25.16-23.02-23.58-39.68,1.68-17.63,15.51-31.63,31.97-36.86,12.48-3.97,25.21-2.48,37.41,1.16,6.14-14.83,17.85-26.81,33.63-32.8,15.39-5.84,33.04-3.81,47.43,3.99,1.71-5.36,3.43-11.07,6.29-15.32,9.28-13.76,24.31-15.91,39.68-12.78,21.95,4.46,42,18.43,54.62,37.02,15.34-6.37,32.99-7.86,48.67-2.4,19.32,6.72,33.78,23.18,37.03,43.51,3.01,18.8-3.19,37.05-18.77,48.49Z"/>
          <path class="cls-3" d="M218.48,725.46c-13.63,26.31-45.29,32.51-67.58,17.97-13.43,18.9-31.28,34.65-53.06,38.11-18.67,2.97-39.26-3.61-52.03-19.22-20.05,20.06-46.22,32.93-73.44,25.03-13.92-4.04-27.18-13.9-33.17-28.95-12.13-30.48-55.26-41.6-46.18-88.95,8.3-43.28,62.88-52.49,97.09-42.6,5.75,1.66,11.2,4.22,16.15,7.65,3.54-7.74,9.59-14.21,16.67-18.3.91-.73,1.97-1.29,3.18-1.64,3.28-1.49,6.73-2.49,10.21-2.86,15.23-1.61,28.85,8.13,38.24,21.26,10.56-13.24,26.31-21.02,42.63-18.69,17.65,2.52,31.89,15.58,38.88,32.92,10.5-5.17,22.47-6.27,33.85-2.95,31.08,9.07,44.36,50.7,28.55,81.22Z"/>
          <path class="cls-3" d="M774.95,845.59c2.48-23.83,17.43-42.86,39.48-51.91,16.36-6.71,35.48-6.92,51.53.3,2.03-2.69,4.15-5.32,6.4-7.84,22.94-25.67,56.56-39,90.71-33.76,27.22,4.17,51.63,20.48,65.66,43.74,15.48-10.14,31.89-19.25,49.98-23.43,32.57-7.54,73.76,3.84,85.75,38.34,5.14,14.78,1.56,32.48-7.54,44.98-2.53,3.47-5.33,6.52-8.39,9.11,7.52,7.07,13.32,16.08,16.93,25.81,13.76,37.17-12.42,77.32-46.92,91.16-24.43,9.8-55.82,6.51-75.26-11.43-14.09,14.47-36.42,21.31-55.84,15.25-14.47-4.52-25.65-14.75-32.19-27.48-14.73,16.22-36.97,25.39-59.19,19.77-23.12-5.85-40.75-28.67-41.45-52.23-15.56,1.16-31.15.27-45.67-6.48-16.04-7.46-29.14-22.59-31.44-40.42-.38-2.92-.43-5.81-.21-8.64-2.34-8.03-3.21-16.48-2.34-24.84ZM1111.24,884.47c.48.72.88,1.48,1.21,2.29.57-.33,1.16-.61,1.78-.84-.97-.64-1.98-1.11-3-1.45ZM1073.82,854.99c.35.4.71.77,1.1,1.1.36.31.68.55.98.75,1.48-2.01,3.23-3.56,5.18-4.7.12-.61.2-1.23.25-1.87-2.38,1.78-4.9,3.39-7.5,4.71ZM1060.48,953.06c9.85,9.06,24.27,11.54,38.1,9.05-1.54-.17-3.07-.39-4.58-.72-5.1.97-10.37.9-15.44-.5-4.03-1.11-7.44-2.79-10.29-4.92-1.21-.49-2.41-1.01-3.6-1.59-.71-.35-1.36-.78-1.95-1.27-.75-.02-1.49-.04-2.24-.06ZM973.18,936.28c.13.97.3,1.93.52,2.88.31-1.02.62-2.04.94-3.06-.48.09-.96.15-1.46.18ZM943.45,879.45l.3,5.11c.57-.63,1.15-1.24,1.73-1.87-.78-.98-1.46-2.06-2.03-3.24ZM851.89,901.85c2.3-.16,4.58-.39,6.84-.65-.08-.22-.15-.44-.23-.66-1.7-.14-3.41-.66-5.04-1.67-.14-.09-.28-.19-.42-.28-.28,1.14-.67,2.24-1.16,3.26Z"/>
          <path class="cls-3" d="M900.79,614.95c10.32,25.5,1.45,56.86-23.3,71.22-21.52,12.49-49.09,6.86-66.55-9.51-14.26,17.62-37.96,27.65-60.6,22.72-23.29-5.08-40.93-23.29-46.88-45.47-9.48,1.96-19.9-.19-28.52-4.92-28.37-15.54-34.26-53.75-19.32-80.77,12.79-23.12,39.85-34.83,65.27-30.84,9.82-21.24,32.77-36.22,56.69-33.97,22.84,2.14,41.63,19.63,48.22,40.9,20.95-13.07,47.5-15.79,68.82.39,23.04,17.48,25.48,50.77,6.17,70.27Z"/>
          <path class="cls-3" d="M529.07,544.57c.54,25.63-14.29,51.09-38.43,61.35-22.99,9.77-49.91,4.09-68.11-12.06-12.79,17.52-35.07,27.33-57.14,23.31-22.77-4.14-40.83-24.69-44.59-47.25-25.44,5.18-54.22-1.07-65.79-26.99-6.2-13.9-4.76-29.24,5.27-40.95,6.1-7.13,14.98-11.9,24.22-12.69-1.7-4.32-2.6-8.99-2.64-13.74-.1-13.07,6.7-24.49,17.15-31.97,17.79-12.74,39.01-10.02,57-.61,4.91-15.14,19.08-27.71,34.79-30.47,18.42-3.24,35.78,4.98,48.54,17.83.94-1.15,1.96-2.23,3.06-3.24,8.47-7.72,19.47-10.28,30.63-8,20.71,4.23,31.83,22.14,39.52,40.29,14.01-3.47,28.99-4.53,42.58.66,13.86,5.29,25.43,17.11,28.76,31.83,7.21,31.88-26.5,50.41-54.82,52.71Z"/>
          <path class="cls-3" d="M515.48,809.4c-13.59,8.67-31.06,7.06-44.65-.73-9.08,14.46-25.56,23.22-43.11,20.86-9.91-1.33-19.54-5.93-26.43-13.26-3.44-3.66-6.21-8.66-6.99-13.7-14.24.53-28.73-9.88-30.49-24.76-1.52-12.86,7.83-24.62,19.57-29,.22-3.42.88-6.72,1.63-9.29,4.64-15.95,19.41-27.48,36.31-23.81,2.44.53,4.82,1.39,7.06,2.54.18-.47.37-.94.59-1.4,3.19-6.89,10.19-10.89,17.65-11.2,8.06-.34,15.61,3.78,20.25,10.23,1.25,1.73,2.22,3.58,2.97,5.51,9.19-7.98,21.22-12.32,33.39-7.57,7.88,3.07,14.73,9.27,16.69,17.76,1.75,7.6-.35,15.03-3.93,21.7,5.52,2.86,10.13,7.64,12.9,13.13,7.99,15.82,1.09,33.76-13.4,43Z"/>
          <path class="cls-3" d="M1208.26,564.01c-9.63,7.06-22.24,7.74-33.63,5.93-.87-.13-1.75-.29-2.61-.46-.45,1.62-1.13,3.28-1.72,4.82-2.15,5.57-5.42,10.72-9.9,14.72-9.32,8.32-21.66,11.69-33.9,8.89-6.01-1.38-11.63-4.41-16.29-8.42-2.06-1.77-3.68-3.8-5.37-5.9-.26-.32-.7-.75-1.17-1.2-.4.56-.8,1.12-1.22,1.67-1.87,2.49-3.87,4.73-6.27,6.72-4.67,3.89-10.19,7-16.17,8.35-11.59,2.62-23.66-.68-31.21-10.11-4.11-5.13-6.53-11.28-6.83-17.53-6.53.2-12.99-.73-19.1-3.9-9.11-4.73-15.85-14.49-14.85-24.99,1.06-11.1,9.77-19.92,20.13-23.21,7.86-2.5,15.88-1.56,23.56.73,3.87-9.34,11.24-16.89,21.18-20.66,9.69-3.68,20.81-2.4,29.87,2.51,1.08-3.38,2.16-6.97,3.96-9.65,5.85-8.67,15.31-10.02,24.99-8.05,13.82,2.81,26.45,11.61,34.4,23.31,9.66-4.01,20.77-4.95,30.65-1.51,12.16,4.23,21.27,14.6,23.32,27.4,1.9,11.84-2.01,23.33-11.82,30.53Z"/>
          <path class="cls-3" d="M301.43,989.82c-10.35,7.6-23.91,8.32-36.17,6.38-.94-.14-1.88-.31-2.81-.49-.49,1.74-1.21,3.53-1.85,5.18-2.31,5.99-5.82,11.53-10.64,15.83-10.03,8.94-23.29,12.58-36.45,9.56-6.46-1.48-12.51-4.74-17.52-9.06-2.21-1.9-3.95-4.08-5.77-6.34-.28-.35-.75-.81-1.26-1.29-.43.61-.86,1.2-1.31,1.8-2.01,2.68-4.17,5.08-6.74,7.23-5.03,4.18-10.96,7.52-17.39,8.98-12.47,2.82-25.44-.73-33.56-10.88-4.41-5.52-7.02-12.13-7.34-18.85-7.03.21-13.97-.79-20.54-4.2-9.8-5.08-17.04-15.59-15.97-26.87,1.14-11.94,10.5-21.42,21.65-24.96,8.45-2.69,17.07-1.68,25.34.78,4.16-10.05,12.09-18.16,22.77-22.21,10.42-3.95,22.38-2.58,32.12,2.7,1.16-3.63,2.32-7.5,4.26-10.37,6.29-9.32,16.47-10.77,26.87-8.66,14.87,3.02,28.44,12.48,36.99,25.07,10.39-4.31,22.34-5.32,32.96-1.63,13.08,4.55,22.87,15.7,25.08,29.47,2.04,12.73-2.16,25.09-12.71,32.84Z"/>
        </g>
        <g>
          <path class="cls-3" d="M52.42,17.27c.54,25.63-14.29,51.09-38.43,61.35-22.99,9.77-49.91,4.09-68.11-12.06-12.79,17.52-35.07,27.33-57.14,23.31-22.77-4.14-40.83-24.69-44.59-47.25-25.44,5.18-54.22-1.07-65.79-26.99-6.2-13.9-4.76-29.24,5.27-40.95,6.1-7.13,14.98-11.9,24.22-12.69-1.7-4.32-2.6-8.99-2.64-13.74-.1-13.07,6.7-24.49,17.15-31.97,17.79-12.74,39.01-10.02,57-.61,4.91-15.14,19.08-27.71,34.79-30.47,18.42-3.24,35.78,4.98,48.54,17.83.94-1.15,1.96-2.23,3.06-3.24,8.47-7.72,19.47-10.28,30.63-8,20.71,4.23,31.83,22.14,39.52,40.29,14.01-3.47,28.99-4.53,42.58.66,13.86,5.29,25.43,17.11,28.76,31.83,7.21,31.88-26.5,50.41-54.82,52.71Z"/>
          <path class="cls-3" d="M52.42,1200.06c.54,25.63-14.29,51.09-38.43,61.35-22.99,9.77-49.91,4.09-68.11-12.06-12.79,17.52-35.07,27.33-57.14,23.31-22.77-4.14-40.83-24.69-44.59-47.25-25.44,5.18-54.22-1.07-65.79-26.99-6.2-13.9-4.76-29.24,5.27-40.95,6.1-7.13,14.98-11.9,24.22-12.69-1.7-4.32-2.6-8.99-2.64-13.74-.1-13.07,6.7-24.49,17.15-31.97,17.79-12.74,39.01-10.02,57-.61,4.91-15.14,19.08-27.71,34.79-30.47,18.42-3.24,35.78,4.98,48.54,17.83.94-1.15,1.96-2.23,3.06-3.24,8.47-7.72,19.47-10.28,30.63-8,20.71,4.23,31.83,22.14,39.52,40.29,14.01-3.47,28.99-4.53,42.58.66,13.86,5.29,25.43,17.11,28.76,31.83,7.21,31.88-26.5,50.41-54.82,52.71Z"/>
          <path class="cls-3" d="M8.26,564.01c-9.63,7.06-22.24,7.74-33.63,5.93-.87-.13-1.75-.29-2.61-.46-.45,1.62-1.13,3.28-1.72,4.82-2.15,5.57-5.42,10.72-9.9,14.72-9.32,8.32-21.66,11.69-33.9,8.89-6.01-1.38-11.63-4.41-16.29-8.42-2.06-1.77-3.68-3.8-5.37-5.9-.26-.32-.7-.75-1.17-1.2-.4.56-.8,1.12-1.22,1.67-1.87,2.49-3.87,4.73-6.27,6.72-4.67,3.89-10.19,7-16.17,8.35-11.59,2.62-23.66-.68-31.21-10.11-4.11-5.13-6.53-11.28-6.83-17.53-6.53.2-12.99-.73-19.1-3.9-9.11-4.73-15.85-14.49-14.85-24.99,1.06-11.1,9.77-19.92,20.13-23.21,7.86-2.5,15.88-1.56,23.56.73,3.87-9.34,11.24-16.89,21.18-20.66,9.69-3.68,20.81-2.4,29.87,2.51,1.08-3.38,2.16-6.97,3.96-9.65,5.85-8.67,15.31-10.02,24.99-8.05,13.82,2.81,26.45,11.61,34.4,23.31,9.66-4.01,20.77-4.95,30.65-1.51,12.16,4.23,21.27,14.6,23.32,27.4,1.9,11.84-2.01,23.33-11.82,30.53Z"/>
        </g>
        <g>
          <path class="cls-3" d="M877.45,29.84c10.32,25.5,1.45,56.86-23.3,71.22-21.52,12.49-49.09,6.86-66.55-9.51-14.26,17.62-37.96,27.65-60.6,22.72-23.29-5.08-40.93-23.29-46.88-45.47-9.48,1.96-19.9-.19-28.52-4.92-28.37-15.54-34.26-53.75-19.32-80.77,12.79-23.12,39.85-34.83,65.27-30.84,9.82-21.24,32.77-36.22,56.69-33.97,22.84,2.14,41.63,19.63,48.22,40.9,20.95-13.07,47.5-15.79,68.82.39,23.04,17.48,25.48,50.77,6.17,70.27Z"/>
          <path class="cls-3" d="M486.44.06c.54,25.63-14.29,51.09-38.43,61.35-22.99,9.77-49.91,4.09-68.11-12.06-12.79,17.52-35.07,27.33-57.14,23.31-22.77-4.14-40.83-24.69-44.6-47.25-25.44,5.18-54.22-1.07-65.79-26.99-6.2-13.9-4.76-29.24,5.27-40.95,6.1-7.13,14.98-11.9,24.22-12.69-1.7-4.32-2.6-8.99-2.64-13.75-.1-13.07,6.7-24.49,17.15-31.97,17.79-12.74,39.01-10.02,57-.61,4.91-15.14,19.08-27.71,34.79-30.47,18.42-3.24,35.78,4.98,48.54,17.83.94-1.15,1.96-2.23,3.06-3.24,8.47-7.72,19.47-10.28,30.63-8,20.71,4.23,31.83,22.14,39.52,40.29,14.01-3.47,28.99-4.53,42.58.66,13.86,5.29,25.43,17.11,28.76,31.83,7.21,31.88-26.5,50.41-54.82,52.71Z"/>
          <path class="cls-3" d="M1252.42.06c.54,25.63-14.29,51.09-38.43,61.35-22.99,9.77-49.91,4.09-68.11-12.06-12.79,17.52-35.07,27.33-57.14,23.31-22.77-4.14-40.83-24.69-44.6-47.25-25.44,5.18-54.22-1.07-65.79-26.99-6.2-13.9-4.76-29.24,5.27-40.95,6.1-7.13,14.98-11.9,24.22-12.69-1.7-4.32-2.6-8.99-2.64-13.75-.1-13.07,6.7-24.49,17.15-31.97,17.79-12.74,39.01-10.02,57-.61,4.91-15.14,19.08-27.71,34.79-30.47,18.42-3.24,35.78,4.98,48.54,17.83.94-1.15,1.96-2.23,3.06-3.24,8.47-7.72,19.47-10.28,30.63-8,20.71,4.23,31.83,22.14,39.52,40.29,14.01-3.47,28.99-4.53,42.58.66,13.86,5.29,25.43,17.11,28.76,31.83,7.21,31.88-26.5,50.41-54.82,52.71Z"/>
        </g>
        <path class="cls-3" d="M52.42.06c.54,25.63-14.29,51.09-38.43,61.35-22.99,9.77-49.91,4.09-68.11-12.06-12.79,17.52-35.07,27.33-57.14,23.31-22.77-4.14-40.83-24.69-44.59-47.25-25.44,5.18-54.22-1.07-65.79-26.99-6.2-13.9-4.76-29.24,5.27-40.95,6.1-7.13,14.98-11.9,24.22-12.69-1.7-4.32-2.6-8.99-2.64-13.75-.1-13.07,6.7-24.49,17.15-31.97,17.79-12.74,39.01-10.02,57-.61,4.91-15.14,19.08-27.71,34.79-30.47,18.42-3.24,35.78,4.98,48.54,17.83.94-1.15,1.96-2.23,3.06-3.24,8.47-7.72,19.47-10.28,30.63-8,20.71,4.23,31.83,22.14,39.52,40.29,14.01-3.47,28.99-4.53,42.58.66,13.86,5.29,25.43,17.11,28.76,31.83C114.45-20.77,80.74-2.24,52.42.06Z"/>
      </g>
    </pattern>
  </defs>
  <g id="Layer_8" data-name="Layer 8">
    <g>
      <rect class="cls-4" width="357.03" height="357.03"/>
      <rect class="cls-2" width="357.03" height="357.03"/>
    </g>
  </g>
</svg>