<?xml version="1.0" encoding="UTF-8"?>
<svg id="Layer_2" data-name="Layer 2" xmlns="http://www.w3.org/2000/svg" xmlns:xlink="http://www.w3.org/1999/xlink" viewBox="0 0 357.03 357.03">
  <defs>
    <style>
      .cls-1 {
        fill: none;
      }

      .cls-2 {
        fill: #fdcb11;
      }

      .cls-3 {
        fill: #ffe0d2;
      }

      .cls-4 {
        fill: url(#New_Pattern_9);
      }

      .cls-5 {
        fill: #fff;
      }

      .cls-6 {
        fill: #ffc1ca;
      }

      .cls-7 {
        fill: #f9a77a;
      }
    </style>
    <pattern id="New_Pattern_9" data-name="New Pattern 9" x="0" y="0" width="1200" height="1200" patternTransform="translate(-4450.09 -4834.5) scale(.3)" patternUnits="userSpaceOnUse" viewBox="0 0 1200 1200">
      <g>
        <rect class="cls-1" x="0" y="0" width="1200" height="1200"/>
        <path class="cls-6" d="M883.09,1246.24c-13.28,3.57-32.1,8.5-41.86-4.8-4.2-5.72-2.52-11.62-.17-17.73,2.46-6.39,4.46-12.22,3.16-19.13-.61-3.24-4.74-4.48-7.35-2.99-13.63,7.82-29.86,13.69-45.76,13.64-3.93-.01-8.2-.51-11.96-2.04.9-9.8-.96-19.79-8.62-26.48-2.63-2.3-5.84-1.67-7.85,1.01-4.82,6.42-4.55,14.97-1.15,21.97,1.64,3.38,3.97,6.21,6.77,8.48-.5,2.23-1.12,4.39-1.78,6.39-3.35,10.25-9.57,20.42-18.67,26.52-8.66,5.8-18.86,7.28-28.39,2.59-8.27-4.07-15.62-12.48-13.91-22.26,1.08-6.23-7.94-8.99-9.64-2.66-4.29,15.89-5,32.55-1.74,48.71,1.11,5.5,3.09,11.98,8.97,14.05,5.55,1.95,10.84-.58,12.98-5.91,2.39-5.97-7.27-8.57-9.64-2.66.54-1.36-.09-.68-1.1-2.34-.96-1.59-1.21-4.01-1.57-5.79-.96-4.74-1.48-9.53-1.66-14.36-.1-2.68-.07-5.34.06-7.99,2.69,3.37,6.06,6.3,9.95,8.61,12,7.15,26.28,7.05,38.35.13,12.67-7.27,21.18-20.35,25.65-33.98.43-1.32.83-2.68,1.2-4.07,1.42.49,2.88.89,4.36,1.18,17.21,3.4,36.4-2.09,52.39-9.95-1.42,5.42-4.66,10.84-5.37,16.14-1.01,7.54,1.88,14.74,7.21,20.07,13.54,13.54,33.2,9.75,49.78,5.3,6.21-1.67,3.57-11.32-2.66-9.64Z"/>
        <path class="cls-5" d="M1365.74,616.49c-6.62,3.85-14.32,5.98-22.45,6.08-18.81.24-36.78-9.79-46.42-25.91-1.24-2.08-2.34-4.22-3.3-6.42-.93,1.25-1.9,2.47-2.98,3.63-2.43,2.63-5.27,4.96-8.38,6.91-1.69,18.71-7.19,37.06-16.7,53.32-3.71,6.34-8.72,12.92-16.03,15.22-8.14,2.56-15.4-1.45-21.39-6.75-13.15-11.65-23.91-26.3-32.01-41.83-3.73-7.14,7.08-13.47,10.82-6.32,7.23,13.84,16.44,26.43,27.78,37.19,5.56,5.28,10.57,8.44,16.34,1.65,4.49-5.28,7.65-12.35,10.27-18.71,3.74-9.06,6.3-18.6,7.73-28.31-7.38,1.64-15.13,1.17-21.99-2.21-15.2-7.48-21.23-27.47-23.83-42.92-2.56-15.2-3.82-35.52,4.8-49.21,3.5-5.56,9.03-10.06,15.9-9.87,7.96.21,13.16,6.63,17.23,12.68,9.08,13.48,15.39,29.01,18.72,44.89,1.67,7.98,2.63,16.12,2.89,24.3,2.55-3.51,4.5-7.64,5.97-12.07-1.21-10.99.29-22.32,4.2-32.61,2.46-6.46,12.08-5.69,12.3,1.66.32,10.52-.25,21.7-3.23,32.01,3.11,19.07,15.75,35.64,37.89,37.07,6.59.43,13.05-.83,18.59-3.7-9.3-17.81-7.2-41.66,7.62-56.87,2.43-2.49,6.41-2.29,8.86,0,12.41,11.62,15.07,30.34,9.01,45.85-2,5.12-4.86,9.6-8.37,13.39,7.54,7.04,18.3,9.99,28.94,8.39,14.98-2.26,27.03-20.94,28.52-35.19.34-3.22.43-6.56,1.74-9.52,1.31-2.96,4.24-5.5,7.45-5.18,9.58.98,2.56,30.49.27,36.13-9.01,22.19-40.97,31.75-62.04,23.2-5.8-2.35-10.7-5.8-14.71-9.98ZM1270.23,593.36c.44-10.53-.44-21.12-2.67-31.38-2.62-12.07-6.95-23.71-13.16-34.4-2.04-3.52-6.62-13.68-11.63-12.98-4.06.57-6.26,7.96-7.01,11.16-3.16,13.43-1.98,28.45,1.63,41.64,3.1,11.31,8.36,26.22,22.04,27.21,4.06.29,7.64-.19,10.81-1.25ZM1368.23,598.11c1.43-1.87,2.67-3.95,3.65-6.26,3.87-9.08,3.68-19.72-1.3-28-6.28,10.1-7.1,23.25-2.35,34.26Z"/>
        <g>
          <path class="cls-7" d="M600.5,74c-12.96,12.16-32,15.42-48.23,9.8,3.91,9.42,6.25,19.47,6.93,29.73.98,14.8-1.06,30.78-10.66,42.63-8.05,9.94-22.55,14.61-32.4,4.18-2.73-2.89-4.42-6.23-5.62-9.79-3.04,13.48-8.42,26.43-16.1,37.98-9.51,14.3-23.81,27.64-41.34,30.53-17.52,2.89-34.29-5.49-44.96-19.24-1.88-2.43-3.52-4.99-4.98-7.64-9.22,11.31-20.78,20.07-34.7,22.82-16.32,3.22-32.18-2.89-44.66-13.32-13.9-11.61-22.47-28.16-30.61-43.98-2.94-5.72,5.69-10.77,8.63-5.05,7.97,15.5,16.24,32.02,30.29,42.98,11.31,8.82,25.88,13.12,39.73,8.05,11.04-4.04,19.8-12.88,26.57-22.39-3.77-11.29-4.76-23.61-4.05-35.4,1.14-18.86,6.56-37.29,18.83-51.95,2.22-2.65,6.18-1.4,7.85,1.01,10.62,15.37,9.96,34.78,4.95,52.07-3.36,11.59-8.77,24.52-16.21,36.02,2.34,5.37,5.5,10.36,9.7,14.65,10.48,10.7,25.38,15.08,39.55,9.34,14.72-5.96,25.32-19.55,32.47-33.23,8.05-15.39,12.01-32.57,11.96-49.9-.01-4.7,7.13-7.15,9.32-2.52,4.26,9.02,3.97,19.41,8.16,28.34,1.93,4.09,5.72,7.39,10.53,6.59,5.1-.85,9.14-5.62,11.71-9.76,6.53-10.51,7.02-24.3,5.74-36.29-1.43-13.38-6.3-26.1-13.75-37.25-3.27-4.9,3.87-9.79,7.85-6.06,13.69,12.84,36.72,12.83,50.41,0,4.69-4.4,11.77,2.66,7.07,7.07ZM404.13,152.59c-.01,5.69.46,11.49,1.57,17.15,10.65-18.77,19.07-43.31,10.39-63.1-8.74,13.44-11.92,30.07-11.96,45.96Z"/>
          <path class="cls-5" d="M881.68,322.61c-13.48,10.26-28.74,18.68-44.97,23.7-6.26,1.94-12.98,3.24-19.67,3.42-9.62,15.16-26.58,25-45.22,22.23-17.97-2.67-33.57-15.98-39.7-32.81-7.21,13.55-16.06,26.61-29.54,34.15-14.5,8.11-34.54,9.28-47.65-2.19-.93-.81-1.78-1.66-2.58-2.55-2.27,2.53-4.65,4.93-7.13,7.18-12.43,11.27-29.13,18.61-45.93,13.43-16.67-5.14-28.28-19.87-33.17-36.14-5.46-18.14-3.85-38.48.73-56.63,4.64-18.38,13.27-35.35,24.88-50.28,3.95-5.08,10.98,2.05,7.07,7.07-20.31,26.11-33.03,65.38-22.79,98,4.17,13.28,14.05,25.5,28.04,28.91,13.78,3.36,26.83-4.26,36.37-13.59,2.18-2.13,4.27-4.4,6.27-6.76-5.12-11.66-4.17-26.12-2.18-38.32,1.6-9.82,4.2-20.22,8.7-29.15,3.1-6.16,10.02-13.16,17.61-11.13,8.64,2.31,9.52,13.31,9.77,20.66.32,9.5-1.73,19.09-5.06,27.95-3.99,10.64-9.6,21.21-16.56,30.63,3.18,4.25,7.73,7.39,13.96,8.61,29.85,5.86,46.4-25.9,57.09-47.98,2.22-4.59,9.34-2.2,9.32,2.52-.08,20.28,18.19,38.68,38.52,38.95,11.05.14,20.86-5.46,27.63-13.72-4.99-1.01-9.79-2.87-14.17-5.81-9.55-6.43-16.97-17.36-15.88-29.29.97-10.57,9.22-19.68,19.34-22.55,12.37-3.51,22.48,4.18,27.09,15.34,4.19,10.15,4.1,21.79.52,32.11-.1.3-.22.59-.33.89,19.75-2.12,39.47-14.03,54.55-25.5,5.13-3.9,10.1,4.79,5.05,8.63ZM654.16,349.84c4.46-6.69,8.23-13.85,11.12-21.1,2.88-7.23,4.97-14.89,5.29-22.69.17-3.99.04-8.14-.88-12.04-.99-4.15-2.93-3.24-5.39-.42-4.8,5.5-6.59,14.52-8.28,21.42-1.92,7.87-3.15,15.99-3.13,24.11.01,3.66.41,7.3,1.26,10.72ZM811.27,339.59c.91-1.97,1.68-4.01,2.27-6.09,2.3-8.03,2.22-16.98-1.45-24.61-4.07-8.48-12.18-11.14-19.96-5.48-7.62,5.55-8.45,14.96-3.69,22.73,4.9,8,13.69,12.5,22.82,13.45Z"/>
          <path class="cls-7" d="M716.13,487.07c-24.56,6.58-45.12,25.27-54.92,48.56,1.22,6.84-.6,14.03-6.54,18.54-3.25,2.47-8.99-.02-8.1-4.51,1-5.01,2.42-9.88,4.2-14.59-1.34-3.32-3.97-6.3-6.93-7.69-9.36-4.38-21.26-.84-30.15,3.17-10.04,4.53-21.65,13.17-26.98,23.88,3.44,7.93,3.4,17.15-2.29,24.39-2.13,2.71-7.36,2.8-8.59-.95-2.6-7.92-2.3-15.54.01-22.56-3.4-4.65-8.86-8.15-14.2-8.8-16.61-2.03-32.46,11.01-42.04,23.24-2.63,3.36-4.98,6.93-7,10.67,2.25,3.85,4.31,7.81,6.21,11.76,3.88,8.07,8.11,17.45,5.26,26.53-2.06,6.56-8.28,11.56-15.22,11.88-19.14.9-14.54-28.34-11.37-39.52,1-3.51,2.28-6.96,3.78-10.32-3.79-5.75-8.19-11.03-13.37-15.35-10.24-8.53-25.27-13.39-38.09-7.84-13.38,5.79-18.63,22.41-21.84,35.43-3.37,13.69-4.41,27.99-3.15,42.02,2.56,28.59,14.13,55.82,33.54,77.02,4.36,4.76-3.48,10.98-7.8,6.26-27.68-30.23-40.52-72.96-34.98-113.5,2.32-17.01,7.27-37.12,19.96-49.51,12.78-12.47,33.07-12.34,48.26-4.55,9.27,4.76,16.62,11.98,22.68,20.27,5.63-9.03,12.99-17.03,21.43-23.23,13.57-9.97,33.9-16.87,48.93-5.83,1.37,1,2.65,2.14,3.83,3.37,8-12.41,22.02-21.98,35.55-26.45,12.55-4.15,29.01-6.13,39,4.59.19.21.38.42.57.64,12.16-22.74,33.45-40.1,58.89-46.92,6.22-1.67,7.61,8.24,1.47,9.89ZM507.68,591.91c-1.63,5.06-2.65,10.31-2.93,15.68-.19,3.81-1.1,15.15,5.56,12.59,7.41-2.84,4.35-12.59,2.09-17.98-1.43-3.42-3-6.88-4.72-10.3Z"/>
          <path class="cls-2" d="M432,413.98c-7.12,1.23-14.02.37-20.36-2.15-11.47,6.97-24.47,10.73-37.47,9.54,1.44,6.04.5,13.02-1.91,18.88-9.95,24.17-42.41,36.96-66.62,29.25-9.21-2.94-17.23-8.76-23.21-16.2-14.02,9.09-31.3,5.85-45.13-2.82-2.52,14.48-10.38,29.39-25.45,32.85-14.82,3.4-32.9-6.2-32.9-22.66,0-6.45,10-6.43,10,0,0,10.6,13.69,15.75,22.48,12.37,12.22-4.69,16.51-19.93,16.78-31.71.1-4.53,5.29-6.33,8.54-3.54,10.89,9.37,27.06,15.53,40.2,7.16-5.83-11-7.71-24.01-3.77-36.22.78-2.43,3.52-4.41,6.15-3.49,17.38,6.06,21.37,27.91,10.66,41.36,7.77,9.49,19.79,15.65,32.76,15.15,12.96-.5,25.52-6.7,34.24-16.22,4-4.38,7.04-9.48,7.82-15.45.58-4.45.08-10.37-4.83-12.06v-.02c-.39-.16-.79-.31-1.19-.48-5.25-2.22-1.43-10.95,3.85-9.14.69.24,1.34.51,1.97.81,12.1,4.79,25.14,2.44,36.63-3.36-1.15-.89-2.26-1.84-3.34-2.85-10.27-9.62-15.06-22.86-16.33-36.63-1.2-13.09.65-27.07,3.79-39.8,2.41-9.78,7.15-20.3,17.13-24.26,11.18-4.44,23.51,1.25,31.71,9,7.91,7.47,13.02,17.92,14.81,28.59,3.95,23.5-8.29,48.59-27.26,64.67,2.43.3,4.96.26,7.61-.2,6.3-1.09,8.99,8.55,2.66,9.64ZM286.13,428.46c-.3-3.96-1.94-7.9-4.75-10.64-.89,6.8.23,13.45,2.86,19.43,1.4-2.65,2.13-5.64,1.89-8.79ZM410.37,400.29c3.83-2.72,7.35-5.76,10.45-8.94,12.91-13.26,22.07-32.14,18.13-50.96-1.74-8.32-5.61-16.16-11.84-22.04-6.4-6.05-17.5-11.33-24.99-4.14-5.97,5.73-7.43,15.39-8.79,23.14-1.88,10.75-3.09,22.07-1.29,32.92,1.86,11.26,8.48,23.6,18.33,30.02Z"/>
          <path class="cls-5" d="M165.74,616.49c-6.62,3.85-14.32,5.98-22.45,6.08-18.81.24-36.78-9.79-46.42-25.91-1.24-2.08-2.34-4.22-3.3-6.42-.93,1.25-1.9,2.47-2.98,3.63-2.43,2.63-5.27,4.96-8.38,6.91-1.69,18.71-7.19,37.06-16.7,53.32-3.71,6.34-8.72,12.92-16.03,15.22-8.14,2.56-15.4-1.45-21.39-6.75-13.15-11.65-23.91-26.3-32.01-41.83-3.73-7.14,7.08-13.47,10.82-6.32,7.23,13.84,16.44,26.43,27.78,37.19,5.56,5.28,10.57,8.44,16.34,1.65,4.49-5.28,7.65-12.35,10.27-18.71,3.74-9.06,6.3-18.6,7.73-28.31-7.38,1.64-15.13,1.17-21.99-2.21-15.2-7.48-21.23-27.47-23.83-42.92-2.56-15.2-3.82-35.52,4.8-49.21,3.5-5.56,9.03-10.06,15.9-9.87,7.96.21,13.16,6.63,17.23,12.68,9.08,13.48,15.39,29.01,18.72,44.89,1.67,7.98,2.63,16.12,2.89,24.3,2.55-3.51,4.5-7.64,5.97-12.07-1.21-10.99.29-22.32,4.2-32.61,2.46-6.46,12.08-5.69,12.3,1.66.32,10.52-.25,21.7-3.23,32.01,3.11,19.07,15.75,35.64,37.89,37.07,6.59.43,13.05-.83,18.59-3.7-9.3-17.81-7.2-41.66,7.62-56.87,2.43-2.49,6.41-2.29,8.86,0,12.41,11.62,15.07,30.34,9.01,45.85-2,5.12-4.86,9.6-8.37,13.39,7.54,7.04,18.3,9.99,28.94,8.39,14.98-2.26,27.03-20.94,28.52-35.19.34-3.22.43-6.56,1.74-9.52,1.31-2.96,4.24-5.5,7.45-5.18,9.58.98,2.56,30.49.27,36.13-9.01,22.19-40.97,31.75-62.04,23.2-5.8-2.35-10.7-5.8-14.71-9.98ZM70.23,593.36c.44-10.53-.44-21.12-2.67-31.38-2.62-12.07-6.95-23.71-13.16-34.4-2.04-3.52-6.62-13.68-11.63-12.98-4.06.57-6.26,7.96-7.01,11.16-3.16,13.43-1.98,28.45,1.63,41.64,3.1,11.31,8.36,26.22,22.04,27.21,4.06.29,7.64-.19,10.81-1.25ZM168.23,598.11c1.43-1.87,2.67-3.95,3.65-6.26,3.87-9.08,3.68-19.72-1.3-28-6.28,10.1-7.1,23.25-2.35,34.26Z"/>
          <path class="cls-2" d="M388.35,827.14c-13.39,5.01-30.63,4.64-41.86-4.68-9.8,10.44-24.7,14.41-38.65,11.88-21.19-3.84-33.07-21.84-37.84-42.01-3.14,6.65-7.25,12.75-12.86,17.77-11.96,10.72-29.84,16.1-44.47,8.23-3.75,10.4-8.49,20.48-15,28.94-9.51,12.36-25.87,21.47-41.72,16.41-16.49-5.26-25.86-24.95-33.25-39.17-8.87-17.05-15.61-35.15-20.16-53.82-1.71-7.03,9.12-10,10.83-2.98,4.09,16.79,9.9,33.07,17.68,48.51,3.84,7.62,8.09,15.05,12.78,22.19,3.82,5.81,8.26,12.08,15.11,14.45,13.64,4.73,26.58-6.45,33.17-17.23,4.65-7.6,8.2-16.01,11.14-24.6-9.81-10.09-15.22-24.83-17.07-38.34-1.2-8.75-.96-17.55.68-26.24,1.48-7.86,4.04-17.47,9.63-23.49,13.6-14.65,26.75,6.53,29.07,19.03,3.24,17.47-1.28,36.26-5.8,53.11-1.08,4.04-2.24,8.19-3.5,12.35,2.53,1.64,5.33,2.8,8.43,3.28,12.71,1.98,25.18-6.8,31.71-17.06,7.15-11.23,9.87-24.54,12.25-37.49.18-1.09.37-2.17.59-3.22,1.48-7.12,12.11-4.04,10.83,2.98-.15.85-.31,1.7-.47,2.56-3.79,22.85,2.59,57.36,28.05,64.3,12.51,3.41,24.18-1.11,31.48-9.52-6.3-12.36-3.54-29.07,8.87-36.47,3.2-1.91,7.19-.06,8.25,3.35,3.42,11.06,2.09,23.06-3.26,33.14,8.42,7.86,22.35,6.76,32.37,3.01,6.79-2.54,9.69,8.32,2.98,10.83ZM207.23,798.26c.49-1.72.97-3.44,1.43-5.14,3.62-13.28,7.1-27.44,6.7-41.3-.19-6.62-1.5-13.53-5.39-19.05-2.08-2.95-3.56-4.54-6.01-1.19-1.91,2.61-2.98,5.86-3.98,8.9-4.52,13.81-4.47,28.81.02,42.62,1.61,4.96,3.99,10.41,7.22,15.17Z"/>
          <path class="cls-2" d="M899.61,972.09c-5.3,5.35-13.21,6.59-19.45,2.13-6.33-4.52-9.13-12.61-11.79-19.57-4.07-10.65-7.07-21.69-9.05-32.92-10.67-1.13-21.72-.04-30.41,2.13-23.25,5.81-44.36,21.79-52.41,44.9-3.6,10.33-4.81,21.99-3.27,33.16,4.39-.38,8.77-.15,12.98.75,13.42,2.88,29.22,15.07,25.09,30.58-1.78,6.7-7.21,12.75-14.16,14.1-8.24,1.6-14.7-4.33-19.42-10.29-5.61-7.08-9.63-15.17-12.11-23.72-.75.22-1.49.46-2.22.72-2.91,1.04-5.71,2.43-8.34,4.1,2.87,2.56,5.4,5.48,7.43,8.77,7.42,12.01,6.08,28.73-6.04,37.22-5.9,4.13-13.64,4.97-19.82.92-5.93-3.89-8.43-11.09-8.75-17.88-.5-10.71,3.69-20.33,10.5-27.93-4.15-1.75-8.59-2.77-12.93-2.91-25.44-.78-45.58,23.54-60.16,41.34-17.19,20.99-34.52,47.47-30.39,75.94.91,6.31-8.72,9-9.64,2.66-1.25-8.62-1.15-17.08.5-25.64,3.39-17.63,12.69-33.79,23.2-48.11,10.33-14.07,21.84-28.18,35.4-39.27,12.1-9.88,27.56-18.29,43.7-16.74,6.32.6,12.62,2.52,18.29,5.57,5.16-3.74,11.04-6.6,17.16-8.35-2.8-18.18.89-37.48,10.71-53.08,16.77-26.62,49.35-41,80.31-39.15,1.1.07,2.21.15,3.32.26-.53-4.35-.91-8.72-1.14-13.09-.92-17.95.04-37.91,5.8-55.08,2.48-7.4,6.96-14.57,14.71-17.19,6.4-2.16,14.07-.97,18.4,4.53,3.93,5.01-3.1,12.13-7.07,7.07-4.74-6.03-12.07-.83-14.79,4.38-3.57,6.83-4.58,15.46-5.65,22.99-2.24,15.82-2.23,32.12-.02,47.94,11.52,2.47,22.63,7.5,30.13,16.63,9.42,11.46,12.79,30.65,1.41,42.14ZM753.18,1030.94c-1.63-2.38-3.65-4.51-5.92-6.36-2.67,2.82-4.91,6.03-6.57,9.53-2.36,4.96-3.64,10.78-2.39,16.22,1.04,4.52,4.35,8.6,9.46,7.12,11.6-3.34,10.9-18.52,5.42-26.51ZM775.36,1011.71c2.48,8.26,6.68,15.92,12.76,22.15,2.38,2.43,5.27,4.83,8.76,3.12,2.41-1.17,4.17-3.84,4.78-6.38,1.42-5.86-3.3-11.2-7.86-14.14-5.55-3.59-12-5-18.45-4.75ZM894.57,942.79c-4.58-10.32-13.97-16.22-24.82-19.15,2.35,12.47,5.95,25.13,11.59,36.22,1.25,2.46,3.09,6.14,5.98,7,3.14.94,5.64-1.91,7.09-4.32,3.57-5.91,2.87-13.66.16-19.75Z"/>
          <path class="cls-6" d="M853.12,674.39c-5.03,3.93-11.2,6.32-17.51,6.98.8,7.63-.71,15.44-5.11,21.91-7.86,11.55-23.71,17.79-36.87,11.78-3.78-1.72-7.07-4.36-9.66-7.55-1.58,7.32-3.43,14.56-6.09,21.39-4.31,11.07-12.64,21.07-25.13,22.5-12.66,1.45-21.06-8.32-26.23-18.62-6.48-12.92-10.8-26.82-13.01-41.09-.98-6.31,8.66-9,9.64-2.66,1.84,11.9,5.07,23.59,10.04,34.58,3.58,7.92,9,19.84,19.67,17.69,11.09-2.23,15.59-14.06,18.07-23.74,2.53-9.86,4.62-19.85,6.8-29.79.19-1.93.6-3.86,1.27-5.73,2.16-6.03,11.07-3.67,9.64,2.66-.29,1.3-.57,2.6-.85,3.92-.76,8.3,4.84,16.82,13.41,18.5,10.98,2.15,21.85-6.32,24.09-16.89.65-3.05.67-6.21.19-9.31-5.8-1.17-11.26-3.94-15.55-8.49-4.55-4.81-6.41-13.79,1.05-16.99,5.92-2.54,12.67,1.21,16.37,5.8,2.49,3.09,4.49,6.63,5.91,10.4,4.44.03,8.88-1.29,12.76-4.32,5.02-3.92,12.14,3.11,7.07,7.07ZM818.57,666.33c-.28-.24-.66-.42-1.06-.6.6.48,1.22.94,1.86,1.37-.26-.27-.52-.54-.8-.77Z"/>
          <path class="cls-2" d="M1125.59,648.47c-23.26-12.63-40.94-35.01-47.25-60.8-.55-2.24-1-4.49-1.37-6.75-1.36.27-2.74.5-4.13.66-27.49,3.11-49.3-16.39-54.61-40.8-5.84,8.99-13.17,16.83-23,21.81-15.62,7.92-34.43,7.09-47.24-5.63-1.92-1.91-3.62-3.94-5.17-6.05-7.84,10.21-17.7,18.87-29.28,24.23-19.24,8.91-40.06,6.04-56.39-7.37-15.76-12.95-24.64-32.75-26.28-52.83-2.2-27.02,7.09-53.39,16.09-78.42,2.46-6.85,13.46-3.88,10.97,3.03-8.77,24.38-18.14,50.11-15.6,76.46,1.68,17.33,10.43,34.94,24.81,45.19,15.46,11.02,33.77,9.58,49.24-.72,8.14-5.42,14.95-12.35,20.41-20.24-11-26.4-1.45-61.42,12.72-83.96,2.62-4.17,8.95-3.39,10.4,1.36,7.07,23.16,5.48,48.35-3.94,70.62-1.77,4.18-3.85,8.29-6.19,12.29,1.01,1.78,2.13,3.51,3.41,5.18,9.32,12.13,24.95,13.38,37.88,6.18,14.15-7.88,22.03-23.14,28.01-37.56,2.72-6.56,13.07-4.21,10.97,3.02-7.62,26.31,11.08,54.71,39.57,53.1,2.09-.12,4.15-.42,6.17-.87-.91-22.07,5.97-44.35,19.46-61.97,1.97-2.58,6.38-4.33,8.94-1.15,10.59,13.16,13.17,31,6.92,46.74-4.41,11.12-12.82,19.46-23.21,24.2.36,2.41.82,4.82,1.41,7.21,5.65,23.08,21.22,42.7,42.03,54,6.44,3.5.69,13.32-5.74,9.83ZM944.55,526.47c7.07-15.76,9.68-33.7,7.56-50.78-6.94,15.63-10.99,34.29-7.56,50.78ZM1087.05,565.08c5.64-3.46,10.27-8.47,13.04-14.8,4.03-9.21,4.15-20.35-.09-29.5-8.21,13.34-12.81,28.73-12.94,44.31Z"/>
          <path class="cls-5" d="M680.1,850.16c.31,15.3-4.7,30.57-14.01,42.69-3.29,4.28-10.63,2.01-9.14-3.85,1.41-5.54,2.82-11.08,4.23-16.62.81-3.2,3.73-4.05,6.18-3.3,1.46-4.55,2.38-9.28,2.65-14.13.63-11.18-1.55-24.21-9.37-32.75-10.65-11.63-32-6.45-37.42,7.7-.39,2.2-.84,4.38-1.39,6.52-1.37,5.38-10.32,4.34-9.82-1.33.19-2.15.62-4.23,1.25-6.22,4.15-22.02-.74-47.18-22.59-57.92-5.74-2.82-12.22-3.99-18.41-3.01.97,3.03,1.67,6.23,2.14,9.51,1.86,12.97,2.45,30.04-12.4,35.59-13.75,5.13-22.87-8.75-22.43-21.06.44-12.32,8.32-23.61,18.88-29.62-9.6-10.87-29.09-9.07-39.23.03-14.68,13.17-13.76,36.89-6.61,53.62,2.5,5.86-6.11,10.95-8.63,5.05-10.71-25.04-8.84-61.73,20.32-73.19,10.05-3.95,21.81-3.97,31.67.57,5.24,2.42,9.1,5.96,11.94,10.22,9.25-2.18,19.11-.65,27.82,3.67,19.93,9.87,28.32,30.04,28.8,50.76,10.98-8.58,26.96-10.88,38.9-1.81,11.75,8.92,16.4,24.67,16.69,38.88ZM564.23,776.73c-.32-1.81-.7-3.65-1.2-5.45-7.64,4.53-13.71,12.92-13.48,22.06.1,4.01,1.66,10.66,6.7,10.84,4.84.17,8.02-5.07,8.88-9.13,1.24-5.86.13-12.5-.9-18.32Z"/>
          <path class="cls-7" d="M1169.02,1139.36c-6.47,12.91-16.77,24.13-29.39,31.22-11.62,6.52-27.37,11.04-39.5,3.17-8.29-5.38-11.36-14.82-11.31-24.29-3.26,2.05-6.72,3.84-10.39,5.29-17.57,6.97-38.83,5.58-52.94-7.94-10.13-9.71-15.07-23.15-17.38-36.76-6.36,4.62-13.06,8.77-20.03,12.31-14.74,7.5-34.87,12.69-50.26,4.01-15.55-8.77-19.12-28.31-19-44.77.12-16,4.76-33.58,20.9-40.19,5.97-2.45,9.39,6.95,3.44,9.39-14.4,5.9-15.29,25.51-13.97,38.71.76,7.59,2.01,15.78,6.63,22.1,4.62,6.31,12.04,9.02,19.66,9.18,14.93.32,28.91-6.93,41.03-14.93,3.49-2.3,6.88-4.76,10.17-7.32-1.37-15.4-1.12-32.41,4.83-46.56,3.2-7.61,8.68-14.21,16.24-17.76,7.92-3.72,17.08-2.31,22.31,5.07,11.73,16.55-5.64,36.14-16.42,47.92-5.14,5.61-10.68,10.93-16.55,15.85,2.14,18.55,8.83,37.12,26.97,43.77,17.85,6.55,34.07-.4,47.18-12.01,4.15-12.96,12.84-24.11,24.6-31.09,3.87-2.3,10.05,1.54,7.39,6.21-6.34,11.15-13.88,22.18-23.34,30.97-.17.71-.32,1.42-.45,2.14-2.27,12.57,2.18,25.59,17.01,24.82,12.9-.67,25.16-8.97,33.6-18.3,4.29-4.74,7.86-10.02,10.59-15.8,1.37-2.91,2.56-5.92,3.45-9.01.38-1.31.53-2.66.84-3.96l-.08-.34c-4,.57-7.34-5.8-3.38-9.38,5.4-4.87,11.46.97,12.94,6.38,1.91,6.99-2.32,15.8-5.39,21.93ZM1016.25,1090.42c5.06-4.63,9.83-9.57,14.26-14.84,5.08-6.04,11.2-12.92,12.99-20.78,1.75-7.67-3.35-15.29-11.6-11.56-13.32,6.02-15.22,24.53-15.61,37.23-.1,3.16-.13,6.5-.05,9.95Z"/>
          <path class="cls-6" d="M221.95,1066.64c-16.58-1.75-30.04-12.57-38.9-26.25-8.36,14.72-22.22,28.85-38.95,24.69-1.73,3.79-3.79,7.43-6.14,10.89-9.09,13.35-22.75,27-38.34,32.3-16.45,5.59-35.7-2-49.41-11.22-13.3-8.95-24.03-21.4-30.62-36.03-2.62-5.83,6-10.91,8.63-5.05,6.3,14.01,16.44,25.93,29.53,34.06,12.2,7.57,28.62,13.87,42.48,7.25,12.42-5.93,23.59-17.41,30.8-28.98,1.49-2.39,2.83-4.88,3.99-7.44-8.21-6-13.9-17.02-17.84-25.61-5.43-11.85-8.27-25-3.57-37.59.89-2.37,3.45-4.46,6.15-3.49,15.85,5.65,26.49,20.19,29.31,36.56,1.44,8.33.78,16.68-1.44,24.64,1.12.15,2.29.18,3.53.04,11.36-1.25,18.34-11.24,23.32-20.5.63-1.17,1.7-3.03,2.8-5.2-.77-1.75-1.47-3.52-2.1-5.3-1.69-4.79-3.44-10.27-1.69-15.29,1.57-4.51,6.11-7.33,10.58-4.84,8.55,4.76,7.55,16.14,4.63,24.01-.16.42-.32.85-.49,1.27,1.73,3.36,3.75,6.59,6.05,9.57,6.14,7.94,14.47,14.32,24.31,16.8,17.63,4.45,39.85-8.66,38.93-28.16-.3-6.44,9.7-6.41,10,0,1.11,23.58-23.37,41.2-45.57,38.86ZM138.59,1050.64c1.6-6.7,1.85-13.68.17-20.58-2.39-9.85-8.18-19.09-16.99-24.1-1.7,9.95,1.57,19.89,6.37,28.89,2.71,5.08,5.95,11.47,10.44,15.79Z"/>
          <path class="cls-5" d="M525.93,1139.89c-.54.4-1.29.62-2.07.68-.19.4-.38.81-.57,1.21-1.04,2.17-2.11,4.33-3.21,6.48-2.2,4.29-4.51,8.52-6.94,12.68-4.86,8.33-10.16,16.39-15.9,24.14-9.61,13-20.81,27.94-38.22,29.51-7.02.63-14.39-1.4-19.56-6.32-6.39-6.09-8.89-15.75-11.28-23.94-4.38-15.02-6.78-30.58-7.28-46.2-11.51,13.44-23.21,29.24-42.25,27.42-11.75-1.12-20.16-7.53-26.16-16.2-.02.04-.05.09-.07.13-10.8,19.89-25.67,37.5-43.51,51.41-5.02,3.91-12.14-3.12-7.07-7.07,15.97-12.45,29.44-27.72,39.62-45.24,1.86-3.2,3.61-6.47,5.24-9.8-3.01-6.94-5-14.43-6.3-21.44-1.89-10.22-4.19-23.06,4.54-30.91,6.53-5.88,17.54-6.47,22.49,1.75,5.26,8.75.68,21.33-2,30.2-2.1,6.95-4.69,13.78-7.69,20.41,6.74,11.85,18.45,21.46,32.56,14.81,13.56-6.38,21.42-21.76,32.07-31.71,3.05-2.85,8.69-.96,8.54,3.54-.69,20.29,1.91,40.46,8.01,59.84,2.57,8.17,5.35,17.94,15.16,19.31,8.31,1.16,15.83-3.47,21.55-9.03,13.24-12.87,23.62-29.85,32.43-45.95,2.31-4.23,4.51-8.52,6.59-12.87,1.52-3.17,2.91-6.9,6.6-8.07,7.51-2.38,10.12,7.2,4.68,11.21ZM352.42,1125.63c.21-.55.42-1.1.62-1.65,2.84-7.8,5.98-16.5,6.62-24.82.25-3.26-.15-7.89-4.5-7.16-3.71.61-5.75,4.23-6.34,7.61-1.4,8.05,1.25,17.97,3.6,26.03Z"/>
          <path class="cls-7" d="M469.87,947.49c-14.69,6.14-30.06-2.11-33.9-15.56.44-5.02.49-10.01.2-14.75-.34-5.46-8.28-6.99-9.82-1.33-1.53,5.61-1.63,11.58-.39,17.24-1.55,15.83-7.63,31.41-23.6,37.52-8.22,3.14-17.52,2.32-23.67-4.39-5.36-5.84-7.48-14.45-2.97-21.35,3.53-5.4-5.12-10.42-8.63-5.05-6.06,9.27-4.52,21.28,1.75,30.05,7.14,9.99,18.7,14.06,30.66,11.9,18.62-3.36,28.89-17.5,33.61-33.96,1,1.18,2.08,2.31,3.26,3.34,9.79,8.6,24.15,11.01,36.18,5.98,5.85-2.44,3.28-12.12-2.66-9.64Z"/>
          <path class="cls-7" d="M1193.32,348.73c-8.32,7.11-17.16,13.6-26.55,19.23-7.92,4.74-18.27,12.08-27.99,9.78-8.17-1.93-13.15-9.5-16.07-16.84-2.54-6.4-3.49-14.8-8.53-19.83-9.4,9.11-15.45,20.66-17.63,33.74-1.02,6.11-9.2,3.68-9.82-1.33-1.39-11.25-4-22.34-7.7-33.05-2.03-5.88-6.22-23.55-15.1-21.12-7.5,2.06-14.28,10.1-18.62,16.14-3.65,5.09-6.7,10.58-9.47,16.2,2.82,2.33,5.29,5.07,7.24,8.22,5.45,8.81,6.64,21.83-2.27,28.86-8.01,6.33-20.03,3.58-23.04-6.6-2.7-9.13,1.63-18.58,5.34-26.78-6.22-2.77-13.47-3.72-19.68-2.99-17.13,2.02-31.03,14.88-42.39,26.81-4.45,4.67-11.51-2.41-7.07-7.07,17.14-18.01,40.26-35.52,66.6-28.27,2.33.64,4.61,1.48,6.81,2.5,3.73-7.47,7.95-14.66,13.31-21.13,6.29-7.59,16.94-17.82,27.75-16.08,11.19,1.8,15.28,15.26,18.71,24.37,2.42,6.41,4.38,12.95,5.96,19.58,4.16-8.4,10.02-15.94,17.27-22.05,1.72-1.45,4-1.97,6.06-.78,6.62,3.83,10,10.29,12.43,17.31,2.18,6.32,3.45,14.77,9.27,18.98,6.92,5.01,18.34-4.04,24.37-7.69,8.39-5.08,16.3-10.84,23.75-17.2,4.87-4.16,11.97,2.89,7.07,7.07ZM1037.2,371.78c-.77-4.36-2.86-7.95-5.76-10.83-2.47,5.21-4.95,10.94-4.4,16.52.33,3.34,2.4,5.75,5.97,4.41,4.05-1.52,4.87-6.3,4.2-10.1Z"/>
          <path class="cls-2" d="M1184.5,121.87c-10.14,7.82-13.77,21.29-22.88,30.14-8.75,8.5-20.94,12.15-31.93,5.51-10.56-6.37-17.86-18.31-22.81-29.27-2.69-5.97-4.72-12.19-6.08-18.55-6.77,6.34-16.72,9.76-26.1,8.26-10.97-1.76-18.52-8.98-23.01-18.2-9.37,24.49-29.62,44.72-56.6,48.16-5.41.69-10.97.52-16.29-.58-.21,1.2-.44,2.39-.67,3.59-3.82,19.25-10.5,37.81-17.63,56.05-2.92,7.46-5.26,18.86-14.6,20.4-8.57,1.42-16.56-5.81-22.76-10.72-29.64-23.51-49.95-58.42-55.95-95.74-1.01-6.28,8.58-9.14,9.6-2.8,5.54,34.47,23.32,66.22,50.08,88.7,3.32,2.79,14.76,13.96,18.91,9.49,2.39-2.57,3.36-7.56,4.64-10.81,1.46-3.71,2.9-7.44,4.29-11.18,5.49-14.68,10.43-29.64,13.55-45.02.35-1.72.67-3.45.97-5.19-4.42-2.14-8.43-5.11-11.71-9.04-6.37-7.62-9.05-17.17-9.95-26.92-.5-5.42-.4-10.89-.16-16.32.18-4.16.07-8.76,2.02-12.56,3.55-6.92,11.43-8.03,17.61-3.94,6.73,4.45,9.89,11.81,11.57,19.4,3.12,14.1,3.33,28.55,1.64,42.81,9.25,2.09,19.43.24,27.98-3.39,21.59-9.15,35.26-31.73,38.47-54.63-.22-4.46.07-8.86.88-12.93,1.12-5.68,9.75-4.4,9.85,1.14.08,4.26-.2,8.55-.79,12.8.87,11.89,6.38,24.3,18.35,27.3,8.77,2.2,21.58-3.51,23.87-12.73-.12-2.28-.16-4.57-.11-6.86.11-5.43,8.61-7.18,9.8-1.47.56,2.71.63,5.34.3,7.85.51,9.62,2.6,19.06,6.39,28,4,9.43,10.27,20.63,19.25,26.13,10.79,6.61,20.59-2.86,26.27-11.6,5.59-8.6,10.19-17.42,18.47-23.81,5.11-3.94,10.29,4.63,5.25,8.51ZM970.68,133.56c1.03-10.07,1.02-20.25-.56-30.25-1.03-6.52-2.09-14.28-7.47-18.79-3.03-2.54-4.37-1.99-4.97,2.1-.54,3.71-.41,7.67-.45,11.42-.12,13.15,2.15,27.99,13.45,35.51Z"/>
          <path class="cls-6" d="M240.86,291.4c-3.65,12.8-9.26,25.93-19.63,34.75-8.8,7.49-20.46,12.13-32.12,10.85-14.45-1.58-26.69-14.29-28.22-28.15-5.02,3.71-10.49,6.81-16.31,9.21-9.02,3.72-19.93,6.69-29.56,3.48-11.68-3.89-13.3-14.69-9.16-25.14,3.05-7.69,6.66-15.12,10.81-22.24-14.79,2.36-30.86-3.43-40.11-15.55-1.08-1.41-2.04-2.89-2.89-4.42-3.22,1.79-6.48,3.49-9.8,5.08-10.75,5.16-22.04,9.52-33.61,12.47-9.6,2.45-20.58,3.1-28.07-4.49-1.7-1.72-1.68-3.96-.78-6.06,1.51-3.54,3.02-7.07,4.52-10.61,2.52-5.91,11.13-.81,8.63,5.05-.92,2.16-1.84,4.31-2.76,6.47,6.7,3.64,16.56-.06,23.16-2.11,9.55-2.97,18.84-6.73,27.75-11.27,2.45-1.25,4.86-2.57,7.25-3.93-3.15-12.61-.25-26.75,7.54-37.23,5.04-6.79,13.92-15.08,23.17-12.79,8.85,2.19,14.21,12.03,13.14,20.72-1.31,10.71-10.04,18.21-18.12,24.34-4.32,3.28-8.79,6.35-13.38,9.24,1.79,3.35,4.25,6.38,7.45,8.85,10.49,8.08,25.57,9.22,36.72,1.96,4.06-2.64,9.75,2.74,6.84,6.84-6.01,8.5-11.26,17.49-15.55,26.98-1.67,3.69-6.01,11.1-3.98,15.16,1.29,2.59,4.65,3.51,7.3,3.87,7.99,1.08,16.9-2.26,23.91-5.77,8.15-4.07,15.15-9.67,21.09-16.56,3.71-4.3,11.06,1.43,7.85,6.06-4.38,6.32-3.73,14.04.17,20.48,4.18,6.9,11.33,10.43,19.33,10.29,21.27-.36,32.64-20.48,37.78-38.49,1.77-6.19,11.41-3.54,9.64,2.66ZM79.1,239.26c2.24-1.45,4.47-2.93,6.65-4.48,6.4-4.54,14.7-9.99,17.49-17.73,2.35-6.52-2.37-15.68-9.79-11.09-5.73,3.55-10.04,9.46-12.4,15.71-2.13,5.64-2.82,11.76-1.94,17.58Z"/>
          <path class="cls-2" d="M220.01,130.12c-.17,12.91-15.52,18.07-25.96,13.22-13.41-6.23-12.65-22.62-8.29-34.91-15.26-7.32-24.97-22.62-27.53-39.24-3.84-.04-7.64-.47-11.26-1.25-10.71-2.32-22.02-8.88-28.38-18.22-4.5,12.89-10.94,25.06-19.15,36.06-3.81,5.1-12.49.11-8.63-5.05,11.45-15.33,19.24-32.7,23.02-51.46,1.11-5.5,10.47-4.25,9.82,1.33-1.92,16.42,15.71,26.66,29.91,28.38,1.31.16,2.65.26,4,.3.14-10.09,2.61-20.08,6.44-29.37,3.08-7.48,7.78-21.21,17.65-21.54,8.82-.3,15.28,9.68,17.18,17.22,2.06,8.15.68,16.94-3.18,24.35-5.57,10.69-16.09,16.49-27.48,18.47.21,1.25.45,2.5.76,3.75,3.21,12.77,11.9,24.46,24.68,28.74,3.22,1.08,4.45,4.34,2.99,7.34-3.28,6.74-7.39,20.34.73,25.56,3.65,2.35,12.62,2.07,12.7-3.68.08-6.44,10.08-6.44,10,0ZM167.52,58.42c8.55-1.79,16.37-6.4,20.07-14.73,2.37-5.33,3.02-11.74,1.03-17.29-.94-2.62-2.9-6.59-5.79-7.39-2-.56-2.45.62-3.54,2.36-1.05,1.68-1.96,3.46-2.86,5.22-4.95,9.72-8.57,20.77-8.92,31.83Z"/>
          <path class="cls-6" d="M883.09,46.24c-13.28,3.57-32.1,8.5-41.86-4.8-4.2-5.72-2.52-11.62-.17-17.73,2.46-6.39,4.46-12.22,3.16-19.13-.61-3.24-4.74-4.48-7.35-2.99-13.63,7.82-29.86,13.69-45.76,13.64-3.93-.01-8.2-.51-11.96-2.04.9-9.8-.96-19.79-8.62-26.48-2.63-2.3-5.84-1.67-7.85,1.01-4.82,6.42-4.55,14.97-1.15,21.97,1.64,3.38,3.97,6.21,6.77,8.48-.5,2.23-1.12,4.39-1.78,6.39-3.35,10.25-9.57,20.42-18.67,26.52-8.66,5.8-18.86,7.28-28.39,2.59-8.27-4.07-15.62-12.48-13.91-22.26,1.08-6.23-7.94-8.99-9.64-2.66-4.29,15.89-5,32.55-1.74,48.71,1.11,5.5,3.09,11.98,8.97,14.05,5.55,1.95,10.84-.58,12.98-5.91,2.39-5.97-7.27-8.57-9.64-2.66.54-1.36-.09-.68-1.1-2.34-.96-1.59-1.21-4.01-1.57-5.79-.96-4.74-1.48-9.53-1.66-14.36-.1-2.68-.07-5.34.06-7.99,2.69,3.37,6.06,6.3,9.95,8.61,12,7.15,26.28,7.05,38.35.13,12.67-7.27,21.18-20.35,25.65-33.98.43-1.32.83-2.68,1.2-4.07,1.42.49,2.88.89,4.36,1.18,17.21,3.4,36.4-2.09,52.39-9.95-1.42,5.42-4.66,10.84-5.37,16.14-1.01,7.54,1.88,14.73,7.21,20.07,13.54,13.54,33.2,9.75,49.78,5.3,6.21-1.67,3.57-11.32-2.66-9.64Z"/>
          <path class="cls-5" d="M1196.09,845.72c-10.75-10.21-28.71-10.89-40.65-2.26-5.71,4.13-9.05,13.06-17.16,12.65-7.52-.38-11.08-8.23-12.77-14.54-.73-2.72-1.51-5.4-2.35-8.04-6.85,11-16.93,20.52-29.05,22.12-10.23,1.35-17.4-5.92-17.93-15.86-.56-10.56,3.9-22.08,8.17-31.52,3.71-8.18,9.48-20.71,20.64-17.92,7.95,1.98,13.58,10.15,17.74,17.55,2.21-11.9.48-24.24-5.69-34.89-7.34-12.68-19.86-22.22-34.08-25.79-17.69-4.44-36.11,1.72-51.56,10.27-13.53,7.49-26.02,17.7-34.94,30.43-4.26,6.07-7.78,12.67-9.98,19.77-1.16,3.74-2.02,7.6-2.38,11.5-.16,1.71-.24,3.43-.24,5.15,0,.08,0,.17,0,.26,5.01,1.53,7.49,11.59-.14,13.14-12.43,2.53-9.98-17.64-8.9-24.22,3.61-22.07,18.54-40.94,35.84-54.3,17.51-13.52,40.11-24.39,62.7-23.41,19.16.84,36.98,10.94,48.37,26.22,11.49,15.41,14.76,35.42,9.39,53.82-.5,1.72-1.1,3.48-1.8,5.27,1.24,2.92,2.36,5.89,3.34,8.9,1.43,4.41,1.9,9.6,4.17,13.68,1.46,2.61,1.9,2.85,3.87.68,1.5-1.65,2.68-3.51,4.26-5.1,2.83-2.84,6.19-5.26,9.77-7.06,15.69-7.89,35.54-5.8,48.4,6.42,4.68,4.44-2.41,11.5-7.07,7.07ZM1118.44,821.33c-.75-1.61-1.54-3.21-2.41-4.79-2.29-4.17-10.42-20.53-16.42-15.13-5.54,4.97-21.85,44.88-7.65,44.47,7.18-.21,13.87-6.84,18.31-11.89,3.31-3.77,6.05-8.07,8.17-12.65Z"/>
        </g>
        <path class="cls-5" d="M-3.91,845.72c-10.75-10.21-28.71-10.89-40.65-2.26-5.71,4.13-9.05,13.06-17.16,12.65-7.52-.38-11.08-8.23-12.77-14.54-.73-2.72-1.51-5.4-2.35-8.04-6.85,11-16.93,20.52-29.05,22.12-10.23,1.35-17.4-5.92-17.93-15.86-.56-10.56,3.9-22.08,8.17-31.52,3.71-8.18,9.48-20.71,20.64-17.92,7.95,1.98,13.58,10.15,17.74,17.55,2.21-11.9.48-24.24-5.69-34.89-7.34-12.68-19.86-22.22-34.08-25.79-17.69-4.44-36.11,1.72-51.56,10.27-13.53,7.49-26.02,17.7-34.94,30.43-4.26,6.07-7.78,12.67-9.98,19.77-1.16,3.74-2.02,7.6-2.38,11.5-.16,1.71-.24,3.43-.24,5.15,0,.08,0,.17,0,.26,5.01,1.53,7.49,11.59-.14,13.14-12.43,2.53-9.98-17.64-8.9-24.22,3.61-22.07,18.54-40.94,35.84-54.3,17.51-13.52,40.11-24.39,62.7-23.41,19.16.84,36.98,10.94,48.37,26.22,11.49,15.41,14.76,35.42,9.39,53.82-.5,1.72-1.1,3.48-1.8,5.27,1.24,2.92,2.36,5.89,3.34,8.9,1.43,4.41,1.9,9.6,4.17,13.68,1.46,2.61,1.9,2.85,3.87.68,1.5-1.65,2.68-3.51,4.26-5.1,2.83-2.84,6.19-5.26,9.77-7.06,15.69-7.89,35.54-5.8,48.4,6.42,4.68,4.44-2.41,11.5-7.07,7.07ZM-81.56,821.33c-.75-1.61-1.54-3.21-2.41-4.79-2.29-4.17-10.42-20.53-16.42-15.13-5.54,4.97-21.85,44.88-7.65,44.47,7.18-.21,13.87-6.84,18.31-11.89,3.31-3.77,6.05-8.07,8.17-12.65Z"/>
        <path class="cls-5" d="M525.93-60.11c-.54.4-1.29.62-2.07.68-.19.4-.38.81-.57,1.21-1.04,2.17-2.11,4.33-3.21,6.48-2.2,4.29-4.51,8.52-6.94,12.68-4.86,8.33-10.16,16.39-15.9,24.14-9.61,13-20.81,27.94-38.22,29.51-7.02.63-14.39-1.4-19.56-6.32-6.39-6.09-8.89-15.75-11.28-23.94-4.38-15.02-6.78-30.58-7.28-46.2-11.51,13.44-23.21,29.24-42.25,27.42-11.75-1.12-20.16-7.53-26.16-16.2-.02.04-.05.09-.07.13-10.8,19.89-25.67,37.5-43.51,51.41-5.02,3.91-12.14-3.12-7.07-7.07,15.97-12.45,29.44-27.72,39.62-45.24,1.86-3.2,3.61-6.47,5.24-9.8-3.01-6.94-5-14.43-6.3-21.44-1.89-10.22-4.19-23.06,4.54-30.91,6.53-5.88,17.54-6.47,22.49,1.75,5.26,8.75.68,21.33-2,30.2-2.1,6.95-4.69,13.78-7.69,20.41,6.74,11.85,18.45,21.46,32.56,14.81,13.56-6.38,21.42-21.76,32.07-31.71,3.05-2.85,8.69-.96,8.54,3.54-.69,20.29,1.91,40.46,8.01,59.84,2.57,8.17,5.35,17.94,15.16,19.31,8.31,1.16,15.83-3.47,21.55-9.03,13.24-12.87,23.62-29.85,32.43-45.95,2.31-4.23,4.51-8.52,6.59-12.87,1.52-3.17,2.91-6.9,6.6-8.07,7.51-2.38,10.12,7.2,4.68,11.21ZM352.42-74.37c.21-.55.42-1.1.62-1.65,2.84-7.8,5.98-16.5,6.62-24.82.25-3.26-.15-7.89-4.5-7.16-3.71.61-5.75,4.23-6.34,7.61-1.4,8.05,1.25,17.97,3.6,26.03Z"/>
      </g>
    </pattern>
  </defs>
  <g id="Layer_6" data-name="Layer 6">
    <g>
      <rect class="cls-3" width="357.03" height="357.03"/>
      <rect class="cls-4" width="357.03" height="357.03"/>
    </g>
  </g>
</svg>