<?xml version="1.0" encoding="UTF-8"?>
<svg id="Layer_2" data-name="Layer 2" xmlns="http://www.w3.org/2000/svg" xmlns:xlink="http://www.w3.org/1999/xlink" viewBox="0 0 357.03 357.03">
  <defs>
    <style>
      .cls-1 {
        fill: none;
      }

      .cls-2 {
        fill: url(#New_Pattern_8);
      }

      .cls-3 {
        fill: #f9a77a;
      }

      .cls-4 {
        fill: #ffd4cb;
      }
    </style>
    <pattern id="New_Pattern_8" data-name="New Pattern 8" x="0" y="0" width="1200" height="1200" patternTransform="translate(-3959.06 -4099.09) scale(.15)" patternUnits="userSpaceOnUse" viewBox="0 0 1200 1200">
      <g>
        <rect class="cls-1" width="1200" height="1200"/>
        <g>
          <path class="cls-4" d="M123.98,1213.31c-1.31,23.76-8.69,46.86-16.26,69.26-8.06,23.84-17.32,47.25-26.58,70.64-1.95,4.92-7.68,5.72-10.84,1.42-.06-.08-.11-.15-.16-.23-.48-.26-.94-.58-1.35-1.01-21.83-22.84-38.67-50-49.36-79.73-8.02-22.3-15.92-51.15-7.79-74.76.07-.34.12-.68.2-1.02,1.86-8.02,5.61-19.14,15.41-19.67,9.74-.53,16.62,8.58,21.4,15.79,3.95,5.95,7.11,12.42,9.68,19.09.16-.5.31-1,.48-1.5,5.41-15.81,16.82-41.29,36.37-42.33,9.12-.48,17.79,5.14,22.68,12.55,6.06,9.18,6.7,20.85,6.12,31.5ZM22.45,1213.55c-.15-.72-.28-1.45-.37-2.19-.04,1.87,0,3.73.13,5.59.02-1.14.1-2.28.25-3.4ZM25.13,1233.65c-.03-.71-.06-1.42-.08-2.13-.32-.88-.6-1.7-.85-2.43-.24-.7-.45-1.4-.65-2.1.45,2.23.98,4.45,1.58,6.66ZM35,1194.65c-1.34-1.49-2.79-2.73-4.36-3.53-.52-.27-1-.44-1.42-.52-.17.39-.39.78-.67,1.18-.27.39-.52.79-.78,1.18,2.14-.89,4.81-.35,6.68,1.22.19.15.36.32.55.48ZM37.19,1286.06c-.11-.3-.22-.6-.33-.9-.31-.86-.62-1.72-.92-2.58-.26-.36-.51-.72-.76-1.08.65,1.53,1.32,3.05,2.01,4.56ZM39.39,1227.93c-.09-1.4-.28-2.79-.54-4.16-.47,1.06-1.19,1.99-2.08,2.71,0,.33-.02.65-.02.98.94.03,1.82.2,2.64.47ZM84.5,1188.03c1.4-1.51,2.94-2.85,4.64-3.87-.05-.12-.11-.23-.16-.35-1.63,1.17-3.11,2.61-4.48,4.22ZM101.98,1262.11c-.67.81-1.34,1.62-2.05,2.4-.31.35-.64.65-.97.89-2.9,10.48-6.67,20.71-11.18,30.65-.34.75-.76,1.35-1.24,1.81-1.17,3.24-2.34,6.48-3.51,9.72-.01,1.07-.03,2.14-.07,3.21.1,1.57.19,3.14.24,4.72,4.02-10.53,7.92-21.11,11.6-31.77,2.46-7.15,4.92-14.36,7.18-21.63Z"/>
          <path class="cls-4" d="M901.61,1134.08c2.36-.6,5.02.39,6.24,2.54,5.36,9.39,9.86,19.16,13.51,29.22.37-2.17.8-4.34,1.27-6.5,2.06-9.35,5.09-18.52,9.04-27.25,2.68-5.95,7.66-12.97,15.01-12.85,2.03.03,3.7.55,5.08,1.41,1.28-.24,2.69.11,3.66,1.4,13.75,18.37,10.17,44.3,6.25,65.34-2.33,12.54-5.74,24.87-10.17,36.82-3.65,9.83-7.64,20.16-15.04,27.79-.65,1.25-1.46,2.39-2.55,3.28-6.32,5.15-12.98-.43-16.45-5.92-4.83-7.63-8.86-15.84-12.42-24.12-6.97-16.21-11.86-33.2-14.32-50.69-1.75-12.46-6.03-36.17,10.89-40.48ZM941.66,1136.22c1.29-.66,2.76-.5,3.8.24.08-1.03.16-2.07.21-3.11.05-.86.35-1.55.8-2.07-.22-.3-.46-.49-.73-.53-1.37-.19-2.94,2.39-4.37,5.62.09-.05.18-.11.28-.16ZM938.22,1200.44c.44-3.04.84-6.09,1.15-9.14-.56,3.25-1.03,6.51-1.44,9.78.09-.21.19-.42.29-.64ZM920.43,1213.59c.29.96,1.05,3.73,1.93,6.65-1.52-6.66-3.31-13.25-5.39-19.74.99,4.4,2.14,8.77,3.46,13.09ZM900.32,1161.52c.43,5.53,1.15,11.02,2.09,16.47-.43-5.09-.67-10.2-.7-15.3-.02-2.72,2.01-4.67,4.34-5.28-1.51-3.34-3.12-6.63-4.83-9.88-2.02,3.89-1.16,10.61-.89,13.99Z"/>
        </g>
        <g>
          <path class="cls-4" d="M525.86,13.92c4.08-1.2,7.36,1.48,8.84,5.02,6.04,14.42,10.05,29.35,12.76,44.55,1.83-7.61,3.97-15.15,6.44-22.59C559.92,22.78,570,.38,592.21.02c4.43-.07,6.74,3.19,6.92,6.63,3.6.13,6.97,2.62,6.86,6.93-.1,3.76-.3,7.51-.6,11.25.13.65.24,1.32.32,1.99,1.4,11.02-2.32,21.56-5.94,31.87-2.44,9.6-5.57,18.99-9.36,28.13-.57,1.73-1.14,3.46-1.71,5.19-4.93,18.48-10.93,36.66-17.97,54.49-2.03,6.15-4.06,12.3-6.08,18.46-.8,2.42-2.44,3.88-4.33,4.54-.96,2.4-2.14,4.72-3.53,6.93-.28.45-.64.84-1.03,1.17-.84,6.18-10.13,7.8-13.34,2.26-17.58-30.26-30.1-63.45-36.32-97.92-4.04-22.36-8.83-59.61,19.76-68ZM580.22,21.77c.08-.74.15-1.49.23-2.23-3.05,2.92-5.54,6.83-7.61,11.11,2.36-3.04,4.8-6.02,7.38-8.88ZM554.06,116.68c-.09,1.47-.19,2.93-.25,4.4-.03.69-.15,1.33-.32,1.92,1.06-1.4,2.11-2.79,3.13-4.22-.96-.52-1.83-1.24-2.55-2.11ZM556.96,138.71c.24.49.48.99.73,1.49.19-.57.38-1.15.57-1.72-.43.14-.86.21-1.3.23ZM524.06,31.03c-3.36,3.19-5.14,7.93-6.03,12.77,2.44-2.5,6.95-3.16,9.83-1.11-1.14-3.92-2.4-7.81-3.8-11.67ZM522.5,90.58c3.89,17.23,9.37,33.98,16.3,50.13-.02-.36-.04-.73-.06-1.09-.26-2.68-.53-5.35-.83-8.02-10.39-24.28-17.33-49.86-20.74-76.19.12,11.81,2.75,23.76,5.33,35.17Z"/>
          <path class="cls-4" d="M405.8,1099.79c-10.36,35.82-24.46,70.5-41.62,103.59-.32.61-.71,1.16-1.14,1.65-2.34,4.94-4.68,9.88-7.02,14.82-1.89,4-5.87,3.92-8.66,1.9-2.68,1.35-5.98,1.61-8.69.48-1.92-2.55-3.88-5.06-5.9-7.53-19.96-41.04-36.16-83.88-47.84-128.01-5.3-20.02-14.44-44.92-8.99-65.71,3.65-13.92,15.7-25.1,29.68-25.66,8.69,2.89,16.79,7.31,24.6,12.21,13.75,17.48,23.09,37.99,27.5,59.62,5.94-19.59,15.12-37.88,30-53.15,3.65-3.75,9.83-3.55,13.5,0,23.37,22.62,12.4,58.76,4.58,85.81ZM298.18,1037.19c-.34,2.19-.49,4.39-.46,6.6.61-.41,1.26-.79,1.96-1.07-.52-1.84-1.01-3.69-1.49-5.53ZM318.13,1130.09c-4.83-18.06-10.38-35.95-16.15-53.74,2.51,9.78,5.21,19.51,8.14,29.17,2.51,8.25,5.19,16.43,8.01,24.57ZM323.75,1038.06c-2.35-4.4-5.11-8.17-8.36-10.49,1.17,4.65,2.43,9.27,3.77,13.86,1.22-1.52,2.83-2.68,4.59-3.37ZM395.72,1064.79c-10,23.15-20,46.29-30,69.44-.05.63-.11,1.26-.16,1.89,2.53-.28,5.21.32,7.3,1.81,4.19-10.89,8.04-21.91,11.51-33.07,3.29-10.59,8.99-25.51,11.36-40.06Z"/>
          <path class="cls-4" d="M810.51,509.11c5.26-5.09,14.13-5.38,19.37,0,21.36,21.92,34.53,48.17,43.06,76.28,6.33-31.04,19.74-60.48,39.47-85.55,11.21-7.04,22.83-13.37,35.3-17.52,20.07.81,37.36,16.85,42.6,36.83,7.82,29.84-5.3,65.57-12.9,94.3-16.76,63.33-40.01,124.81-68.65,183.7-2.89,3.55-5.71,7.15-8.47,10.81-3.89,1.63-8.63,1.25-12.48-.68-4,2.91-9.72,3.01-12.43-2.72-3.36-7.09-6.72-14.18-10.07-21.27-.62-.7-1.18-1.48-1.64-2.36-24.63-47.49-44.85-97.26-59.73-148.67-11.23-38.81-26.97-90.68,6.57-123.14ZM956.24,550.35c1,.4,1.93.93,2.81,1.53.04-3.17-.17-6.34-.66-9.47-.7,2.65-1.41,5.3-2.15,7.94ZM941.24,640.47c4.21-13.86,8.09-27.82,11.69-41.86-8.28,25.53-16.25,51.2-23.18,77.12,4.05-11.67,7.89-23.42,11.49-35.26ZM928.28,548.49c1.92-6.59,3.73-13.22,5.41-19.89-4.66,3.32-8.63,8.73-12,15.05,2.52,1,4.84,2.65,6.58,4.84ZM834.71,639.51c4.98,16.02,10.5,31.84,16.51,47.46,3-2.13,6.85-2.99,10.48-2.59-.08-.9-.16-1.81-.23-2.71-14.35-33.22-28.71-66.43-43.06-99.65,3.4,20.89,11.58,42.29,16.3,57.49Z"/>
          <path class="cls-4" d="M624.77,771.25c2.75-2.67,7.39-2.81,10.14,0,11.18,11.47,18.07,25.21,22.53,39.92,3.31-16.25,10.33-31.65,20.66-44.77,5.86-3.68,11.95-7,18.48-9.17,10.51.42,19.55,8.82,22.29,19.27,4.09,15.62-2.77,34.32-6.75,49.35-8.77,33.14-20.94,65.31-35.93,96.14-1.51,1.86-2.99,3.74-4.43,5.66-2.04.85-4.52.66-6.53-.36-2.1,1.52-5.09,1.58-6.51-1.43-1.76-3.71-3.51-7.42-5.27-11.13-.33-.37-.62-.77-.86-1.24-12.89-24.85-23.47-50.9-31.26-77.8-5.88-20.31-14.12-47.46,3.44-64.44ZM701.04,792.84c.53.21,1.01.49,1.47.8.02-1.66-.09-3.32-.35-4.96-.36,1.39-.74,2.77-1.12,4.16ZM693.19,840c2.2-7.25,4.23-14.56,6.12-21.91-4.33,13.36-8.5,26.8-12.13,40.36,2.12-6.11,4.13-12.26,6.01-18.45ZM686.4,791.86c1.01-3.45,1.95-6.92,2.83-10.41-2.44,1.74-4.52,4.57-6.28,7.88,1.32.52,2.53,1.39,3.45,2.53ZM637.44,839.5c2.61,8.38,5.5,16.66,8.64,24.84,1.57-1.12,3.58-1.57,5.48-1.36-.04-.47-.08-.95-.12-1.42-7.51-17.38-15.02-34.77-22.53-52.15,1.78,10.93,6.06,22.13,8.53,30.09Z"/>
          <path class="cls-4" d="M476.96,324.2c-1.84,33.41-12.22,65.88-22.86,97.37-11.32,33.52-24.35,66.43-37.36,99.31-2.73,6.91-10.8,8.04-15.24,1.99-.08-.11-.15-.22-.23-.32-.67-.36-1.32-.81-1.9-1.42-30.69-32.11-54.36-70.29-69.39-112.09-11.27-31.35-22.38-71.91-10.95-105.11.1-.48.18-.96.29-1.44,2.61-11.27,7.89-26.91,21.66-27.66,13.69-.74,23.36,12.06,30.09,22.2,5.55,8.36,10,17.46,13.61,26.84.23-.7.43-1.41.67-2.11,7.61-22.22,23.64-58.05,51.13-59.51,12.82-.68,25.01,7.22,31.89,17.64,8.52,12.91,9.42,29.31,8.6,44.29ZM334.23,324.54c-.22-1.02-.4-2.04-.53-3.07-.05,2.63,0,5.24.18,7.85.03-1.6.14-3.2.35-4.78ZM338,352.8c-.05-1-.09-2-.12-2.99-.45-1.24-.85-2.39-1.19-3.41-.33-.98-.63-1.96-.91-2.95.63,3.14,1.37,6.26,2.22,9.36ZM351.88,297.96c-1.89-2.09-3.92-3.84-6.12-4.96-.74-.38-1.4-.61-2-.74-.24.55-.55,1.1-.94,1.66-.39.54-.74,1.1-1.1,1.66,3.01-1.25,6.76-.49,9.4,1.71.26.22.51.45.77.67ZM354.96,426.48c-.15-.42-.31-.85-.46-1.27-.44-1.2-.87-2.41-1.3-3.62-.36-.5-.71-1.01-1.07-1.52.91,2.15,1.86,4.28,2.83,6.41ZM358.04,344.76c-.13-1.97-.39-3.92-.76-5.84-.66,1.49-1.68,2.8-2.92,3.8,0,.46-.02.92-.03,1.38,1.33.04,2.56.28,3.71.66ZM421.46,288.67c1.97-2.12,4.13-4,6.52-5.44-.08-.16-.15-.33-.22-.49-2.29,1.64-4.38,3.67-6.3,5.93ZM446.04,392.81c-.94,1.14-1.89,2.27-2.88,3.38-.44.49-.9.91-1.36,1.26-4.07,14.74-9.38,29.11-15.72,43.09-.48,1.06-1.07,1.9-1.74,2.54-1.64,4.56-3.29,9.11-4.94,13.67-.02,1.5-.05,3.01-.09,4.51.14,2.21.26,4.42.34,6.63,5.65-14.81,11.14-29.68,16.3-44.67,3.46-10.05,6.91-20.18,10.1-30.41Z"/>
          <path class="cls-4" d="M123.98,13.31c-1.31,23.76-8.69,46.86-16.26,69.26-8.06,23.84-17.32,47.25-26.58,70.64-1.95,4.91-7.68,5.72-10.84,1.42-.06-.08-.11-.15-.16-.23-.48-.26-.94-.58-1.35-1.01-21.83-22.84-38.67-50-49.36-79.73C11.4,51.36,3.5,22.51,11.63-1.11c.07-.34.12-.68.2-1.02,1.86-8.02,5.61-19.14,15.41-19.67,9.74-.53,16.62,8.58,21.4,15.79,3.95,5.95,7.11,12.42,9.68,19.09.16-.5.31-1,.48-1.5,5.41-15.81,16.82-41.29,36.37-42.33,9.12-.49,17.79,5.14,22.68,12.55,6.06,9.18,6.7,20.85,6.12,31.5ZM22.45,13.55c-.15-.72-.28-1.45-.37-2.19-.04,1.87,0,3.73.13,5.59.02-1.14.1-2.28.25-3.4ZM25.13,33.65c-.03-.71-.06-1.42-.08-2.13-.32-.88-.6-1.7-.85-2.43-.24-.7-.45-1.4-.65-2.1.45,2.23.98,4.45,1.58,6.66ZM35-5.35c-1.34-1.49-2.79-2.73-4.36-3.53-.52-.27-1-.44-1.42-.52-.17.39-.39.78-.67,1.18-.27.39-.52.79-.78,1.18,2.14-.89,4.81-.35,6.68,1.22.19.15.36.32.55.48ZM37.19,86.06c-.11-.3-.22-.6-.33-.9-.31-.86-.62-1.72-.92-2.58-.26-.36-.51-.72-.76-1.08.65,1.53,1.32,3.05,2.01,4.56ZM39.39,27.93c-.09-1.4-.28-2.79-.54-4.16-.47,1.06-1.19,1.99-2.08,2.71,0,.33-.02.65-.02.98.94.03,1.82.2,2.64.47ZM84.5-11.97c1.4-1.51,2.94-2.85,4.64-3.87-.05-.12-.11-.23-.16-.35-1.63,1.17-3.11,2.61-4.48,4.22ZM101.98,62.11c-.67.81-1.34,1.62-2.05,2.4-.31.35-.64.65-.97.89-2.9,10.48-6.67,20.71-11.18,30.65-.34.75-.76,1.35-1.24,1.81-1.17,3.24-2.34,6.48-3.51,9.72-.01,1.07-.03,2.14-.07,3.21.1,1.57.19,3.14.24,4.72,4.02-10.53,7.92-21.11,11.6-31.77,2.46-7.15,4.92-14.36,7.18-21.63Z"/>
          <path class="cls-4" d="M750.84,1079.03c-3.31,36.64-22.32,70.08-40.24,101.38-1.44,2.51-4.32,3.18-6.69,2.25-1.68.68-3.58.9-5.49.46-6.95-1.62-10.42-10.51-13.49-16.07-8.07-14.64-14.9-29.98-20.43-45.76-5.59-15.95-9.79-32.39-12.52-49.07-1.71-10.46-4.1-26.12,6.66-31.97,1.04-1.23,2.45-2.17,4.35-2.66,8.06-2.09,15.85,8.57,20.52,13.63,5.67,6.14,10.88,12.76,15.54,19.72,1.09-3.43,2.44-6.81,4-10.1,5.48-11.55,17.71-30.54,33.2-24.64,14.9,5.67,15.78,29.77,14.6,42.84ZM668.38,1051.48c-.4-.31-.97-.74-1.49-1.18.01.9.04,1.81.08,2.71.38-.59.86-1.11,1.41-1.53ZM683.78,1079.9c-1.07-2.24-2.18-4.46-3.42-6.62-1.09-1.9-2.27-3.71-3.57-5.38,1.95,4.04,3.84,8.12,5.66,12.22.43-.12.88-.19,1.33-.22ZM697.15,1113.36c-1.52-3.76-3.38-7.35-5.54-10.75,1.58,4.25,3.09,8.53,4.53,12.84.16.08.33.15.49.22.16-.77.34-1.54.52-2.3ZM737.54,1053.75c-.92-2.91-2.3-6.09-4.75-7.24-1.6-.74-3.22-.67-4.79-.07.27,1.6.47,3.19.59,4.78,1.67-1.07,3.78-1.35,5.61-.18,1.25.8,2.36,1.71,3.35,2.7Z"/>
          <path class="cls-4" d="M1079,394.69c20.38-7.75,36.46,17.21,43.67,32.41,2.05,4.33,3.82,8.77,5.26,13.28,6.12-9.15,12.98-17.85,20.43-25.93,6.14-6.66,16.39-20.68,26.99-17.93,2.49.65,4.34,1.88,5.72,3.5,14.15,7.7,11.02,28.29,8.76,42.05-3.59,21.93-9.11,43.56-16.47,64.53-7.27,20.75-16.25,40.93-26.87,60.18-4.03,7.31-8.6,19.01-17.75,21.14-2.52.59-5.02.3-7.23-.6-3.11,1.22-6.91.35-8.8-2.95-23.56-41.16-48.56-85.15-52.92-133.33-1.55-17.19-.4-48.89,19.2-56.35ZM1170.11,416.82c.05-1.19.09-2.38.1-3.56-.69.57-1.44,1.14-1.96,1.55.73.55,1.36,1.24,1.86,2.02ZM1149.75,452.47c2.39-5.4,4.88-10.75,7.44-16.07-1.72,2.2-3.26,4.58-4.7,7.08-1.63,2.83-3.09,5.75-4.49,8.7.59.04,1.18.13,1.75.29ZM1131.09,499.21c.22-.1.44-.19.65-.29,1.89-5.66,3.87-11.29,5.96-16.88-2.85,4.47-5.3,9.19-7.29,14.14.24,1.01.47,2.02.68,3.03ZM1081.69,414.23c2.4-1.54,5.18-1.17,7.37.23.15-2.09.41-4.18.77-6.28-2.08-.79-4.2-.89-6.3.09-3.23,1.51-5.05,5.69-6.25,9.52,1.31-1.3,2.77-2.5,4.41-3.55Z"/>
          <path class="cls-4" d="M255.93,100.9c-2.46,27.15-16.54,51.93-29.82,75.12-1.06,1.86-3.2,2.35-4.96,1.66-1.24.51-2.65.67-4.07.34-5.15-1.2-7.72-7.79-10-11.91-5.98-10.85-11.04-22.22-15.14-33.91-4.14-11.82-7.25-24-9.28-36.36-1.27-7.75-3.04-19.36,4.94-23.69.77-.91,1.82-1.61,3.22-1.97,5.97-1.55,11.75,6.35,15.21,10.1,4.2,4.55,8.06,9.46,11.51,14.61.81-2.54,1.8-5.04,2.96-7.48,4.06-8.56,13.12-22.63,24.6-18.26,11.04,4.2,11.69,22.06,10.82,31.75ZM194.83,80.49c-.3-.23-.72-.55-1.11-.87,0,.67.03,1.34.06,2.01.28-.44.64-.82,1.05-1.14ZM206.24,101.55c-.79-1.66-1.61-3.31-2.53-4.9-.81-1.41-1.68-2.75-2.65-3.99,1.45,3,2.85,6.01,4.19,9.06.32-.09.65-.14.98-.16ZM216.15,126.34c-1.12-2.79-2.5-5.45-4.11-7.97,1.17,3.15,2.29,6.32,3.36,9.51.12.06.24.11.37.16.12-.57.25-1.14.38-1.71ZM246.08,82.16c-.68-2.16-1.7-4.52-3.52-5.36-1.18-.55-2.38-.5-3.55-.05.2,1.18.35,2.37.44,3.54,1.23-.79,2.8-1,4.15-.13.92.59,1.75,1.27,2.48,2Z"/>
          <path class="cls-4" d="M182.78,396.7c-2.42,16.64-8.54,32.7-15.45,48.1-7.41,16.52-16.31,32.43-26.48,47.66-3.55,5.31-9.55,11.33-16.62,5.44-3.12-2.59-4.4-6.66-5.94-10.07-1.65-3.65-3.29-7.31-4.91-10.98-2.08-4.71-4.12-9.44-6.11-14.18-1.49-2.33-2.59-5.2-3.4-8.3-1.04-2.6-2.07-5.2-3.06-7.81-1.1-.46-2.05-1.31-2.67-2.6-10.28-21.71-17.05-44.69-19.77-68-1.14-9.83-1.57-19.71-1.33-29.55.21-8.62-.01-18.31,4.52-26.07,3.54-6.06,10.59-10.27,18.48-7.68,9.17,3.02,15.29,13.26,20.22,20.28,5.43,7.74,10.14,15.83,14.13,24.16,1.79-3.55,3.85-6.98,6.2-10.26,3.89-5.43,10.06-9.68,17.73-8.68,7.44.97,13.46,6.31,17.26,11.89,9.18,13.46,9.37,31.71,7.2,46.63ZM97.7,348.59c-.73-1.63-1.49-3.26-2.27-4.88-.94,6.28-1.41,12.59-1.47,18.91.67-3.6,1.54-7.16,2.64-10.69.03-.3.05-.61.08-.91.09-.93.46-1.71.99-2.34.01-.03.02-.06.03-.09ZM113.49,419.41c-.04-3.47-.19-6.94-.44-10.4-.22,2.24-.4,4.48-.53,6.72.32,1.23.63,2.45.97,3.68ZM116.76,447.7c-.92-.32-1.81-.79-2.69-1.42.37,2.87.8,5.47,1.31,7.51.49-2.01.95-4.04,1.38-6.09ZM128.85,371.24c-4.22-10.79-9.72-21.24-16.38-30.95-2.57-3.74-5.3-7.4-8.2-10.95-1.78-2.18-5.1-7.43-8.56-7.45-1.22,0-2.23.43-3.06,1.16,2.07-.16,4.27.76,5.59,3.02,3.36,5.74,6.4,11.61,9.13,17.57,1.85,0,3.78.72,4.9,1.96,7.1,7.87,12.63,16.73,16.45,26.11.04-.16.09-.31.14-.47ZM136.71,398.96c.08,2.15.25,4.3.51,6.44.03-.85.08-1.71.14-2.56-.2-1.3-.41-2.59-.65-3.88ZM124.24,474.62c.52-5.12.94-10.29,1.21-15.47-.41,1.56-.82,3.12-1.25,4.66-.51,1.81-1.44,3-3.07,3.71,1.03,2.37,2.06,4.74,3.11,7.1ZM152.71,450.67c-2.41.49-5.11-.41-6.36-2.92-.36-.72-.7-1.44-1.03-2.17-1.28.2-2.69,0-3.93-.57-.46,1.78-.9,3.57-1.32,5.36,1.07,1.08,1.63,2.55,1.6,4.11-.12,6.3-2.22,12.13-5.75,17.41-.29,1.98-.57,3.96-.82,5.94-.49,3.91-4.73,4.86-7.82,3.57.66,1.47,1.31,2.94,1.98,4.4.07.16.69,1.4,1.26,2.56.14-.21.28-.41.42-.62,2.28-3.32,4.44-6.72,6.54-10.13,5.34-8.65,10.53-17.67,15.24-26.95ZM150.14,426.02c.5,2.22,1.11,4.43,1.81,6.62,1.72-3.84,3.27-7.75,4.61-11.7-.56.75-1.13,1.5-1.73,2.23-1.13,1.38-2.92,1.94-4.68,1.8,0,.35,0,.7,0,1.05ZM170.34,363.74c-.79-2.38-1.78-4.69-3.03-6.86-2.58-4.51-8.72-11.61-14.66-7.45-1.38.97-2.59,2.27-3.68,3.76,1.89.26,3.67,1.29,4.42,3.01.2.46.38.92.57,1.39.08-.11.16-.22.24-.33,2.27-3.09,8.07-2.08,9.53,1.3.81,1.88,1.52,3.78,2.15,5.69,1.39-.63,3.03-.82,4.47-.5Z"/>
          <path class="cls-4" d="M798.83,154.21c5.66-1.66,10.21,2.06,12.27,6.97,8.39,20.02,13.94,40.75,17.71,61.85,2.55-10.56,5.51-21.03,8.94-31.35,8.35-25.16,22.33-56.26,53.17-56.75,6.15-.1,9.35,4.43,9.61,9.2,4.99.18,9.67,3.64,9.52,9.63-.13,5.22-.42,10.43-.84,15.61.18.91.33,1.83.45,2.76,1.95,15.29-3.22,29.92-8.24,44.24-3.38,13.32-7.73,26.36-12.99,39.04-.79,2.4-1.58,4.8-2.37,7.2-6.84,25.65-15.17,50.88-24.94,75.65-2.82,8.54-5.63,17.08-8.45,25.62-1.11,3.36-3.39,5.38-6.01,6.3-1.34,3.34-2.97,6.56-4.89,9.62-.39.63-.88,1.16-1.43,1.62-1.16,8.58-14.06,10.82-18.52,3.14-24.41-42.01-41.78-88.08-50.41-135.92-5.6-31.03-12.25-82.74,27.43-94.4ZM874.28,165.1c.12-1.03.2-2.06.31-3.09-4.24,4.05-7.69,9.48-10.56,15.42,3.28-4.22,6.66-8.35,10.25-12.33ZM837.98,296.85c-.12,2.04-.27,4.07-.35,6.11-.04.96-.21,1.85-.45,2.67,1.47-1.94,2.93-3.88,4.34-5.86-1.34-.72-2.54-1.72-3.54-2.92ZM842.01,327.43c.34.69.67,1.38,1.01,2.06.26-.8.52-1.59.79-2.39-.6.19-1.2.29-1.8.32ZM796.33,177.96c-4.67,4.43-7.13,11.01-8.37,17.73,3.39-3.47,9.65-4.39,13.64-1.54-1.58-5.44-3.33-10.84-5.27-16.2ZM794.16,260.62c5.4,23.91,13.01,47.17,22.63,69.58-.03-.5-.06-1.01-.09-1.51-.35-3.71-.74-7.42-1.15-11.13-14.42-33.7-24.06-69.21-28.79-105.76.17,16.39,3.82,32.98,7.39,48.82Z"/>
          <path class="cls-4" d="M901.61-65.92c2.36-.6,5.02.39,6.24,2.54,5.36,9.39,9.86,19.16,13.51,29.22.37-2.17.8-4.34,1.27-6.5,2.06-9.35,5.09-18.52,9.04-27.25,2.68-5.95,7.66-12.97,15.01-12.85,2.03.03,3.7.55,5.08,1.41,1.28-.24,2.69.11,3.66,1.4,13.75,18.37,10.17,44.3,6.25,65.34-2.33,12.54-5.74,24.87-10.17,36.82-3.65,9.83-7.64,20.16-15.04,27.79-.65,1.25-1.46,2.39-2.55,3.28-6.32,5.15-12.98-.43-16.45-5.92-4.83-7.63-8.86-15.84-12.42-24.12-6.97-16.21-11.86-33.2-14.32-50.69-1.75-12.46-6.03-36.17,10.89-40.48ZM941.66-63.78c1.29-.66,2.76-.5,3.8.24.08-1.03.16-2.07.21-3.11.05-.86.35-1.55.8-2.07-.22-.3-.46-.49-.73-.53-1.37-.19-2.94,2.39-4.37,5.62.09-.05.18-.11.28-.16ZM938.22.44c.44-3.04.84-6.09,1.15-9.14-.56,3.25-1.03,6.51-1.44,9.78.09-.21.19-.42.29-.64ZM920.43,13.59c.29.96,1.05,3.73,1.93,6.65-1.52-6.66-3.31-13.25-5.39-19.74.99,4.4,2.14,8.77,3.46,13.09ZM900.32-38.48c.43,5.53,1.15,11.02,2.09,16.47-.43-5.09-.67-10.2-.7-15.3-.02-2.72,2.01-4.67,4.34-5.28-1.51-3.34-3.12-6.63-4.83-9.88-2.02,3.89-1.16,10.61-.89,13.99Z"/>
          <path class="cls-4" d="M518.37,778.84c-11.37,39.29-26.83,77.34-45.65,113.64-.35.67-.77,1.27-1.25,1.8-2.57,5.42-5.13,10.84-7.7,16.26-2.08,4.38-6.44,4.3-9.5,2.08-2.94,1.48-6.56,1.77-9.54.52-2.1-2.79-4.26-5.55-6.47-8.26-21.89-45.02-39.66-92.01-52.47-140.42-5.81-21.96-15.84-49.28-9.86-72.08,4-15.27,17.22-27.53,32.56-28.15,9.53,3.17,18.42,8.01,26.99,13.39,15.08,19.17,25.33,41.67,30.17,65.4,6.52-21.48,16.58-41.55,32.91-58.31,4.01-4.11,10.78-3.89,14.8,0,25.64,24.81,13.61,64.46,5.02,94.13ZM400.31,710.17c-.38,2.4-.54,4.82-.51,7.24.67-.46,1.38-.86,2.15-1.17-.57-2.02-1.11-4.04-1.64-6.07ZM422.2,812.07c-5.3-19.81-11.39-39.43-17.72-58.95,2.75,10.73,5.71,21.4,8.93,32,2.75,9.05,5.69,18.03,8.78,26.95ZM428.36,711.11c-2.57-4.83-5.61-8.97-9.17-11.5,1.29,5.1,2.67,10.17,4.14,15.2,1.33-1.67,3.11-2.94,5.03-3.7ZM507.31,740.44c-10.97,25.39-21.94,50.78-32.91,76.17-.06.69-.12,1.39-.18,2.08,2.78-.31,5.71.35,8.01,1.98,4.6-11.94,8.82-24.03,12.62-36.28,3.61-11.62,9.86-27.98,12.46-43.95Z"/>
          <path class="cls-4" d="M173.89,847.98c-1.72,31.14-11.39,61.4-21.31,90.75-10.55,31.24-22.69,61.91-34.82,92.56-2.55,6.44-10.07,7.5-14.21,1.86-.07-.1-.14-.2-.21-.3-.63-.34-1.23-.76-1.77-1.32-28.6-29.92-50.67-65.5-64.67-104.46-10.5-29.22-20.86-67.02-10.21-97.96.09-.45.16-.89.27-1.34,2.43-10.51,7.35-25.08,20.19-25.78,12.76-.69,21.77,11.24,28.04,20.69,5.17,7.79,9.32,16.27,12.68,25.02.21-.65.4-1.31.63-1.96,7.09-20.71,22.04-54.1,47.65-55.46,11.94-.64,23.31,6.73,29.72,16.44,7.94,12.03,8.78,27.31,8.01,41.27ZM40.86,848.29c-.2-.95-.37-1.9-.49-2.87-.05,2.45,0,4.89.17,7.32.02-1.5.13-2.98.32-4.45ZM44.38,874.64c-.05-.93-.08-1.86-.11-2.79-.42-1.15-.79-2.23-1.11-3.18-.31-.91-.59-1.83-.85-2.75.58,2.93,1.28,5.84,2.07,8.72ZM57.32,823.53c-1.76-1.95-3.66-3.57-5.71-4.62-.69-.35-1.31-.57-1.87-.69-.22.51-.51,1.03-.88,1.54-.36.51-.69,1.03-1.03,1.54,2.81-1.17,6.3-.45,8.76,1.6.24.2.48.42.72.62ZM60.18,943.3c-.14-.39-.29-.79-.43-1.18-.41-1.12-.81-2.25-1.21-3.37-.34-.47-.66-.95-1-1.42.85,2,1.73,3.99,2.63,5.97ZM63.06,867.15c-.12-1.84-.36-3.66-.71-5.45-.61,1.39-1.57,2.61-2.72,3.55,0,.43-.02.85-.03,1.28,1.24.04,2.38.26,3.46.62ZM122.16,814.87c1.83-1.98,3.85-3.73,6.07-5.07-.07-.15-.14-.3-.21-.46-2.13,1.53-4.08,3.42-5.87,5.53ZM145.07,911.93c-.87,1.07-1.76,2.12-2.68,3.15-.41.46-.83.85-1.27,1.17-3.79,13.73-8.74,27.13-14.65,40.16-.45.99-1,1.77-1.63,2.37-1.53,4.25-3.07,8.49-4.6,12.74-.02,1.4-.04,2.8-.09,4.2.13,2.06.24,4.12.32,6.18,5.27-13.8,10.38-27.66,15.2-41.63,3.23-9.37,6.44-18.81,9.41-28.34Z"/>
          <path class="cls-4" d="M1068.63,145.06c2.66-4.03,7.37-7.08,12.33-6.82,10.62.57,16.82,14.41,19.76,23,.09.27.17.54.26.81,1.4-3.63,3.12-7.14,5.26-10.37,2.6-3.92,6.34-8.87,11.63-8.58,5.32.29,7.36,6.33,8.37,10.69.04.18.07.37.11.56,4.42,12.83.12,28.51-4.23,40.62-5.81,16.16-14.96,30.91-26.82,43.32-.22.23-.47.41-.73.55-.03.04-.06.08-.09.12-1.72,2.34-4.83,1.9-5.89-.77-5.03-12.71-10.06-25.43-14.44-38.38-4.11-12.17-8.12-24.72-8.84-37.63-.32-5.79.03-12.13,3.32-17.12ZM1120.6,164.15c.07-1.01.09-2.02.07-3.03-.05.4-.12.79-.2,1.19.08.61.12,1.23.13,1.85ZM1119.87,169.62c-.11.38-.22.76-.35,1.14-.13.4-.29.84-.46,1.32-.01.39-.03.77-.05,1.16.33-1.2.62-2.4.86-3.62ZM1113.94,151.78c1.02-.85,2.47-1.15,3.63-.66-.14-.21-.28-.43-.43-.64-.15-.21-.27-.43-.36-.64-.23.05-.49.14-.77.28-.85.44-1.64,1.11-2.37,1.92.1-.09.2-.17.3-.26ZM1113.55,199.23c-.14.2-.27.39-.41.59-.17.47-.33.93-.5,1.4-.06.16-.12.33-.18.49.37-.82.74-1.65,1.09-2.48ZM1112.7,169.87c0-.18,0-.35-.01-.53-.48-.39-.88-.89-1.13-1.47-.14.74-.24,1.5-.29,2.26.45-.15.92-.24,1.43-.26ZM1084.32,146.15c-.03.06-.06.13-.09.19.92.56,1.76,1.28,2.52,2.1-.74-.87-1.55-1.66-2.43-2.29ZM1081.16,200.45c2,5.79,4.12,11.54,6.3,17.26.03-.86.08-1.71.13-2.56-.02-.58-.03-1.16-.04-1.74-.64-1.76-1.27-3.52-1.91-5.28-.26-.25-.49-.57-.67-.98-2.45-5.4-4.5-10.96-6.08-16.65-.18-.13-.36-.3-.53-.49-.38-.43-.75-.86-1.11-1.31,1.23,3.95,2.56,7.87,3.9,11.75Z"/>
          <path class="cls-4" d="M1060.12,716.05c3.82-5.79,10.6-10.18,17.72-9.8,15.27.81,24.18,20.72,28.41,33.06.13.39.25.78.37,1.17,2.01-5.21,4.48-10.27,7.56-14.91,3.74-5.64,9.11-12.75,16.72-12.34,7.65.41,10.59,9.1,12.04,15.37.06.27.1.53.16.8,6.35,18.44.18,40.98-6.08,58.4-8.35,23.23-21.5,44.44-38.55,62.28-.32.34-.68.59-1.06.79-.04.06-.08.12-.13.18-2.47,3.36-6.95,2.73-8.47-1.11-7.23-18.27-14.47-36.56-20.76-55.18-5.91-17.5-11.68-35.54-12.7-54.1-.46-8.32.04-17.43,4.78-24.6ZM1134.84,743.5c.09-1.45.13-2.9.1-4.36-.07.57-.17,1.14-.29,1.71.11.88.18,1.76.19,2.65ZM1133.79,751.35c-.15.55-.32,1.1-.51,1.64-.19.57-.41,1.21-.66,1.89-.02.55-.04,1.11-.07,1.66.47-1.72.89-3.45,1.24-5.2ZM1125.27,725.71c1.47-1.22,3.55-1.65,5.22-.95-.2-.31-.4-.62-.61-.92-.22-.31-.39-.62-.52-.92-.33.07-.7.2-1.11.41-1.22.63-2.35,1.59-3.4,2.76.14-.12.28-.25.43-.37ZM1124.7,793.93c-.2.28-.39.57-.59.84-.24.67-.48,1.34-.72,2.01-.09.23-.17.47-.26.7.54-1.18,1.06-2.37,1.57-3.56ZM1123.48,751.71c0-.25-.01-.51-.02-.76-.69-.56-1.26-1.28-1.62-2.11-.21,1.07-.35,2.15-.42,3.25.64-.21,1.33-.34,2.06-.37ZM1082.68,717.62c-.04.09-.08.18-.12.27,1.32.8,2.53,1.85,3.62,3.02-1.07-1.26-2.23-2.39-3.5-3.3ZM1078.14,795.67c2.87,8.33,5.92,16.59,9.06,24.82.04-1.23.11-2.46.19-3.68-.03-.83-.04-1.67-.05-2.5-.92-2.53-1.83-5.06-2.74-7.59-.37-.36-.7-.82-.97-1.41-3.52-7.77-6.47-15.75-8.73-23.94-.26-.19-.51-.42-.76-.7-.55-.61-1.08-1.24-1.6-1.88,1.77,5.68,3.69,11.31,5.61,16.89Z"/>
          <path class="cls-4" d="M920.11,926.18c-.71,12.91-4.72,25.46-8.84,37.63-4.38,12.95-9.41,25.67-14.44,38.38-1.06,2.67-4.18,3.11-5.89.77-.03-.04-.06-.08-.09-.12-.26-.14-.51-.31-.73-.55-11.86-12.41-21.01-27.16-26.82-43.32-4.36-12.12-8.65-27.79-4.23-40.62.04-.18.07-.37.11-.56,1.01-4.36,3.05-10.4,8.37-10.69,5.29-.29,9.03,4.66,11.63,8.58,2.14,3.23,3.86,6.75,5.26,10.37.09-.27.17-.54.26-.81,2.94-8.59,9.14-22.43,19.76-23,4.95-.26,9.67,2.79,12.33,6.82,3.29,4.99,3.64,11.33,3.32,17.12ZM864.95,926.31c-.08-.39-.15-.79-.2-1.19-.02,1.01,0,2.03.07,3.03,0-.62.05-1.24.13-1.85ZM866.4,937.23c-.02-.39-.03-.77-.05-1.16-.17-.48-.33-.92-.46-1.32-.13-.38-.25-.76-.35-1.14.24,1.21.53,2.42.86,3.62ZM871.77,916.04c-.73-.81-1.52-1.48-2.37-1.92-.29-.15-.54-.24-.77-.28-.09.21-.21.43-.36.64-.15.21-.28.43-.43.64,1.16-.48,2.61-.19,3.63.66.1.08.2.17.3.26ZM872.96,965.71c-.06-.16-.12-.33-.18-.49-.17-.47-.34-.93-.5-1.4-.14-.19-.27-.39-.41-.59.35.83.72,1.66,1.09,2.48ZM874.15,934.13c-.05-.76-.15-1.52-.29-2.26-.25.58-.65,1.08-1.13,1.47,0,.18,0,.35-.01.53.51.02.99.11,1.43.26ZM898.66,912.45c.76-.82,1.6-1.55,2.52-2.1-.03-.06-.06-.13-.09-.19-.88.63-1.69,1.42-2.43,2.29ZM908.16,952.7c-.36.44-.73.88-1.11,1.31-.17.19-.35.35-.53.49-1.57,5.7-3.62,11.25-6.08,16.65-.19.41-.41.73-.67.98-.64,1.76-1.27,3.52-1.91,5.28,0,.58-.02,1.16-.04,1.74.05.85.1,1.71.13,2.56,2.18-5.72,4.31-11.47,6.3-17.26,1.34-3.88,2.67-7.8,3.9-11.75Z"/>
          <path class="cls-4" d="M675.9,404.99c-2.79,30.82-18.78,58.95-33.84,85.27-1.21,2.11-3.64,2.67-5.63,1.89-1.41.57-3.01.76-4.62.38-5.85-1.36-8.77-8.84-11.35-13.52-6.79-12.31-12.53-25.22-17.18-38.49-4.7-13.41-8.23-27.24-10.53-41.27-1.44-8.8-3.45-21.97,5.6-26.9.88-1.04,2.06-1.82,3.66-2.24,6.78-1.76,13.33,7.21,17.26,11.47,4.77,5.17,9.15,10.73,13.07,16.58.92-2.88,2.05-5.72,3.36-8.49,4.61-9.72,14.9-25.69,27.93-20.73,12.53,4.77,13.27,25.04,12.28,36.04ZM606.54,381.82c-.34-.26-.81-.62-1.26-.99.01.76.03,1.52.07,2.28.32-.5.72-.94,1.19-1.29ZM619.49,405.73c-.9-1.89-1.83-3.75-2.87-5.56-.92-1.6-1.91-3.12-3.01-4.53,1.64,3.4,3.23,6.83,4.76,10.28.36-.1.74-.16,1.12-.18ZM630.74,433.87c-1.27-3.16-2.84-6.18-4.66-9.04,1.33,3.58,2.6,7.18,3.81,10.8.14.06.28.12.41.18.14-.65.28-1.29.44-1.94ZM664.71,383.73c-.77-2.45-1.93-5.13-4-6.09-1.34-.63-2.7-.56-4.03-.06.23,1.34.4,2.69.49,4.02,1.4-.9,3.18-1.13,4.72-.15,1.05.67,1.98,1.44,2.82,2.27Z"/>
          <path class="cls-4" d="M288.89,596.1c-2.85,31.51-19.2,60.28-34.61,87.2-1.24,2.16-3.72,2.73-5.75,1.93-1.44.59-3.08.78-4.73.39-5.98-1.39-8.97-9.04-11.61-13.83-6.95-12.59-12.81-25.79-17.57-39.36-4.81-13.72-8.42-27.86-10.77-42.2-1.47-9-3.53-22.47,5.73-27.5.9-1.06,2.11-1.87,3.74-2.29,6.93-1.8,13.63,7.37,17.65,11.73,4.88,5.29,9.36,10.98,13.36,16.96.94-2.95,2.09-5.85,3.44-8.68,4.71-9.94,15.23-26.27,28.56-21.2,12.81,4.88,13.57,25.61,12.56,36.85ZM217.96,572.41c-.34-.27-.83-.64-1.28-1.01.01.78.03,1.55.07,2.33.33-.51.74-.96,1.22-1.32ZM231.21,596.85c-.92-1.93-1.87-3.84-2.94-5.69-.94-1.64-1.95-3.19-3.07-4.63,1.68,3.48,3.31,6.98,4.87,10.51.37-.11.75-.17,1.14-.19ZM242.71,625.63c-1.3-3.24-2.9-6.32-4.77-9.25,1.36,3.66,2.66,7.34,3.9,11.04.14.07.28.12.42.19.14-.66.29-1.32.45-1.98ZM277.45,574.36c-.79-2.51-1.97-5.24-4.09-6.23-1.37-.64-2.77-.58-4.12-.06.24,1.37.41,2.75.51,4.11,1.43-.92,3.26-1.16,4.82-.15,1.07.69,2.03,1.47,2.88,2.32Z"/>
          <path class="cls-4" d="M1155.43,1125.59c-3.58,24.8-12.11,48.8-21.69,71.85-10.27,24.72-22.53,48.56-36.46,71.41-4.86,7.97-13.03,17.04-22.39,8.43-4.12-3.79-5.76-9.81-7.76-14.85-2.14-5.4-4.27-10.81-6.36-16.22-2.69-6.96-5.33-13.95-7.9-20.96-1.95-3.43-3.36-7.68-4.39-12.28-1.34-3.84-2.66-7.7-3.95-11.56-1.46-.67-2.73-1.9-3.52-3.81-13.34-32.07-21.95-66.12-25.11-100.73-1.33-14.59-1.7-29.28-1.18-43.91.45-12.83.35-27.23,6.59-38.86,4.87-9.09,14.41-15.5,24.93-11.8,12.23,4.3,20.23,19.41,26.69,29.76,7.12,11.4,13.28,23.33,18.45,35.65,2.48-5.31,5.3-10.46,8.52-15.38,5.33-8.16,13.68-14.6,23.94-13.26,9.96,1.3,17.91,9.11,22.9,17.33,12.03,19.83,11.91,46.97,8.7,69.2ZM1042.36,1055.77c-.94-2.42-1.93-4.82-2.94-7.21-1.39,9.35-2.15,18.75-2.36,28.15.97-5.36,2.22-10.69,3.76-15.96.05-.45.08-.9.12-1.35.15-1.39.65-2.55,1.38-3.5.01-.04.03-.09.04-.13ZM1062.09,1160.77c.01-5.16-.12-10.31-.38-15.46-.34,3.33-.63,6.67-.84,10.01.4,1.82.79,3.64,1.23,5.45ZM1065.9,1202.78c-1.22-.46-2.42-1.14-3.57-2.06.44,4.26.96,8.12,1.6,11.14.69-3,1.35-6.03,1.97-9.08ZM1083.66,1088.83c-5.43-15.95-12.6-31.38-21.33-45.7-3.36-5.52-6.96-10.9-10.77-16.11-2.34-3.2-6.69-10.94-11.33-10.9-1.64.01-3,.68-4.12,1.79,2.78-.29,5.71,1.05,7.43,4.37,4.39,8.47,8.34,17.13,11.88,25.94,2.48-.03,5.05.99,6.53,2.81,9.36,11.55,16.59,24.63,21.52,38.5.06-.23.13-.46.19-.7ZM1093.63,1129.89c.07,3.19.25,6.39.55,9.57.06-1.27.14-2.54.24-3.81-.24-1.92-.5-3.84-.79-5.76ZM1075.37,1242.66c.81-7.63,1.47-15.32,1.93-23.03-.58,2.33-1.16,4.65-1.78,6.95-.72,2.7-2,4.5-4.18,5.58,1.33,3.5,2.67,7,4.03,10.5ZM1114.03,1206.46c-3.24.78-6.84-.5-8.47-4.22-.46-1.06-.9-2.13-1.34-3.2-1.72.32-3.6.06-5.26-.76-.65,2.66-1.28,5.33-1.88,8,1.41,1.58,2.13,3.76,2.06,6.08-.29,9.37-3.22,18.09-8.06,26.01-.43,2.95-.85,5.9-1.22,8.86-.73,5.82-6.44,7.32-10.56,5.46.86,2.17,1.7,4.34,2.56,6.51.1.24.9,2.06,1.64,3.78.19-.31.38-.62.57-.92,3.12-4.99,6.08-10.08,8.98-15.2,7.33-12.97,14.47-26.49,20.97-40.39ZM1111.08,1169.85c.63,3.29,1.39,6.57,2.29,9.81,2.39-5.75,4.53-11.58,6.41-17.5-.77,1.13-1.55,2.25-2.36,3.36-1.54,2.08-3.96,2.95-6.32,2.78,0,.52-.01,1.04-.02,1.56ZM1139.43,1076.83c-1.01-3.53-2.29-6.94-3.92-10.15-3.37-6.65-11.45-17.09-19.5-10.78-1.87,1.47-3.52,3.44-5.01,5.67,2.53.35,4.89,1.84,5.86,4.39.26.68.49,1.37.74,2.05.11-.17.21-.33.32-.5,3.11-4.64,10.86-3.26,12.75,1.73,1.05,2.78,1.97,5.59,2.76,8.42,1.88-.96,4.07-1.28,6-.84Z"/>
        </g>
        <g>
          <path class="cls-4" d="M405.8-100.21c-10.36,35.82-24.46,70.5-41.62,103.59-.32.61-.71,1.16-1.14,1.65-2.34,4.94-4.68,9.88-7.02,14.82-1.89,4-5.87,3.92-8.66,1.9-2.68,1.35-5.98,1.61-8.69.48-1.92-2.55-3.88-5.06-5.9-7.53-19.96-41.04-36.16-83.88-47.84-128.01-5.3-20.02-14.44-44.92-8.99-65.71,3.65-13.92,15.7-25.1,29.68-25.66,8.69,2.89,16.79,7.31,24.6,12.21,13.75,17.48,23.09,37.99,27.5,59.62,5.94-19.59,15.12-37.88,30-53.15,3.65-3.75,9.83-3.55,13.5,0,23.37,22.62,12.4,58.76,4.58,85.81ZM298.18-162.81c-.34,2.19-.49,4.39-.46,6.6.61-.42,1.26-.79,1.96-1.07-.52-1.84-1.01-3.69-1.49-5.53ZM318.13-69.91c-4.83-18.06-10.38-35.95-16.15-53.74,2.51,9.78,5.21,19.51,8.14,29.17,2.51,8.25,5.19,16.43,8.01,24.57ZM323.75-161.94c-2.35-4.4-5.11-8.17-8.36-10.49,1.17,4.65,2.43,9.27,3.77,13.86,1.22-1.52,2.83-2.68,4.59-3.37ZM395.72-135.21c-10,23.15-20,46.29-30,69.44-.05.63-.11,1.26-.16,1.89,2.53-.28,5.21.32,7.3,1.81,4.19-10.89,8.04-21.91,11.51-33.07,3.29-10.59,8.99-25.51,11.36-40.06Z"/>
          <path class="cls-4" d="M1155.43-74.41c-3.58,24.8-12.11,48.8-21.69,71.85-10.27,24.72-22.53,48.56-36.46,71.41-4.86,7.97-13.03,17.04-22.39,8.43-4.12-3.79-5.76-9.81-7.76-14.85-2.14-5.4-4.27-10.81-6.36-16.22-2.69-6.96-5.33-13.95-7.9-20.96-1.95-3.43-3.36-7.68-4.39-12.28-1.34-3.84-2.66-7.7-3.95-11.56-1.46-.67-2.73-1.9-3.52-3.81-13.34-32.07-21.95-66.12-25.11-100.73-1.33-14.59-1.7-29.28-1.18-43.91.45-12.83.35-27.23,6.59-38.86,4.87-9.09,14.41-15.5,24.93-11.8,12.23,4.3,20.23,19.41,26.69,29.76,7.12,11.4,13.28,23.33,18.45,35.65,2.48-5.31,5.3-10.46,8.52-15.38,5.33-8.16,13.68-14.6,23.94-13.26,9.96,1.3,17.91,9.11,22.9,17.33,12.03,19.83,11.91,46.97,8.7,69.2ZM1042.36-144.23c-.94-2.42-1.93-4.82-2.94-7.21-1.39,9.35-2.15,18.75-2.36,28.15.97-5.36,2.22-10.69,3.76-15.96.05-.45.08-.9.12-1.35.15-1.39.65-2.55,1.38-3.5.01-.04.03-.09.04-.13ZM1062.09-39.23c.01-5.16-.12-10.31-.38-15.46-.34,3.33-.63,6.67-.84,10.01.4,1.82.79,3.64,1.23,5.45ZM1065.9,2.78c-1.22-.46-2.42-1.14-3.57-2.06.44,4.26.96,8.12,1.6,11.14.69-3,1.35-6.03,1.97-9.08ZM1083.66-111.17c-5.43-15.96-12.6-31.38-21.33-45.7-3.36-5.52-6.96-10.9-10.77-16.11-2.34-3.2-6.69-10.94-11.33-10.9-1.64.01-3,.68-4.12,1.79,2.78-.29,5.71,1.05,7.43,4.37,4.39,8.47,8.34,17.13,11.88,25.94,2.48-.03,5.05.99,6.53,2.81,9.36,11.55,16.59,24.63,21.52,38.5.06-.23.13-.46.19-.7ZM1093.63-70.11c.07,3.19.25,6.39.55,9.57.06-1.27.14-2.54.24-3.81-.24-1.92-.5-3.84-.79-5.76ZM1075.37,42.66c.81-7.63,1.47-15.32,1.93-23.03-.58,2.33-1.16,4.65-1.78,6.95-.72,2.7-2,4.5-4.18,5.58,1.33,3.5,2.67,7,4.03,10.5ZM1114.03,6.46c-3.24.78-6.84-.5-8.47-4.22-.46-1.06-.9-2.13-1.34-3.2-1.72.32-3.6.06-5.26-.76-.65,2.66-1.28,5.33-1.88,8,1.41,1.58,2.13,3.76,2.06,6.08-.29,9.37-3.22,18.09-8.06,26.01-.43,2.95-.85,5.9-1.22,8.86-.73,5.82-6.44,7.32-10.56,5.46.86,2.17,1.7,4.34,2.56,6.51.1.24.9,2.06,1.64,3.78.19-.31.38-.62.57-.92,3.12-4.99,6.08-10.08,8.98-15.2,7.33-12.97,14.47-26.49,20.97-40.39ZM1111.08-30.15c.63,3.29,1.39,6.57,2.29,9.81,2.39-5.75,4.53-11.58,6.41-17.5-.77,1.13-1.55,2.25-2.36,3.36-1.54,2.08-3.96,2.95-6.32,2.78,0,.52-.01,1.04-.02,1.56ZM1139.43-123.17c-1.01-3.53-2.29-6.94-3.92-10.15-3.37-6.65-11.45-17.09-19.5-10.78-1.87,1.47-3.52,3.44-5.01,5.67,2.53.35,4.89,1.84,5.86,4.39.26.68.49,1.37.74,2.05.11-.17.21-.33.32-.5,3.11-4.64,10.86-3.26,12.75,1.73,1.05,2.78,1.97,5.59,2.76,8.42,1.88-.96,4.07-1.28,6-.84Z"/>
        </g>
      </g>
    </pattern>
  </defs>
  <g id="Layer_5" data-name="Layer 5">
    <g>
      <rect class="cls-3" width="357.03" height="357.03"/>
      <rect class="cls-2" width="357.03" height="357.03"/>
    </g>
  </g>
</svg>