<?xml version="1.0" encoding="UTF-8"?>
<svg id="Layer_2" data-name="Layer 2" xmlns="http://www.w3.org/2000/svg" xmlns:xlink="http://www.w3.org/1999/xlink" viewBox="0 0 357.03 357.03">
  <defs>
    <style>
      .cls-1 {
        fill: none;
      }

      .cls-2 {
        fill: #c19ec8;
      }

      .cls-3, .cls-4 {
        fill: #fae285;
      }

      .cls-5 {
        opacity: .59;
      }

      .cls-5, .cls-6 {
        fill: #e6a67b;
      }

      .cls-7 {
        fill: #fbe9e6;
      }

      .cls-8, .cls-9 {
        fill: #fff;
      }

      .cls-8, .cls-4, .cls-10 {
        opacity: .8;
      }

      .cls-11 {
        opacity: .87;
      }

      .cls-11, .cls-12, .cls-13 {
        fill: #efcee1;
      }

      .cls-12 {
        opacity: .9;
      }

      .cls-14, .cls-15, .cls-16 {
        fill: #f4d4cb;
      }

      .cls-17, .cls-18 {
        fill: #f1cb34;
      }

      .cls-19 {
        fill: #b6d6d0;
      }

      .cls-20 {
        fill: url(#New_Pattern_10);
      }

      .cls-18 {
        opacity: .67;
      }

      .cls-21 {
        fill: #c1d5ea;
      }

      .cls-22 {
        fill: #e47c98;
      }

      .cls-23 {
        fill: #f2adad;
      }

      .cls-24 {
        fill: #b4b6d9;
      }

      .cls-15 {
        opacity: .54;
      }

      .cls-16 {
        opacity: .6;
      }
    </style>
    <pattern id="New_Pattern_10" data-name="New Pattern 10" x="0" y="0" width="1200" height="1200" patternTransform="translate(-4033.96 -5113.37) scale(.3)" patternUnits="userSpaceOnUse" viewBox="0 0 1200 1200">
      <g>
        <rect class="cls-1" x="0" width="1200" height="1200"/>
        <g>
          <path class="cls-2" d="M521.83,1388.37c-1.01-.23-2.02-.47-3.01-.79-.26-.08-1.82-.7-1.16-.4-.27-.12-.6-.27-.71-.32-.55-.24-1.09-.5-1.63-.77-.31-.16-1.91-1.11-.95-.49.96.62-.61-.39-.91-.59-.44-.29-.88-.58-1.31-.88-.4-.28-.78-.57-1.17-.86-.2-.17-.43-.34-.61-.49-.89-.76-1.75-1.55-2.58-2.37-.44-.43-.97-.86-1.33-1.36.82,1.16.01,0-.39-.47-1.55-1.8-2.95-3.72-4.27-5.69-.14-.22-.51-.8-.63-1.01-.28-.48-.56-.96-.83-1.45-.63-1.14-1.23-2.3-1.79-3.48-.52-1.09-1-2.2-1.45-3.33-.14-.34-.27-.69-.41-1.04,0,0-.08-.21-.13-.36-.05-.15-.12-.36-.13-.36-.11-.35-.23-.7-.35-1.06-3.48-11-3.25-22.79-2.04-34.14,1.33-12.51,3.99-24.83,5.69-37.28,1.33-9.74,1.99-19.9-1.13-29.4-3.38-10.27-11.09-19.34-22.1-21.61-5.82-1.2-11.39-.26-17.11.98-2.42.52-4.85,1.02-7.33,1.22-.11,0-.82.03-.99.02-.64-.02-1.28-.13-1.92-.15t0,0c-.18-.04-.36-.09-.55-.14-.02,0-.19-.05-.37-.1-.13-.06-.25-.11-.37-.17-.02,0-.04-.02-.06-.03-.32-.26-.45-.35-.47-.36-.17-.14-.31-.25-.4-.31-.34-.39-.62-.86-.92-1.26-.07-.1-.12-.16-.16-.21-.03-.05-.05-.1-.09-.18-.3-.55-.6-1.1-.86-1.67-.23-.48-.43-.97-.63-1.46-.13-.4-.25-.81-.37-1.22-1.49-5.45-.77-11.09.43-16.53,1.37-6.23,3.33-12.31,4.8-18.52,1.49-6.3,2.7-12.67,3.65-19.07.87-5.88,1.5-11.8,1.9-17.73-4.45-3.98-8.75-8.09-12.94-12.33-.24,5.56-.67,11.12-1.31,16.65-1.53,13.24-4.45,26.1-7.94,38.94-1.77,6.52-3.11,13.03-2.61,19.82.41,5.65,2.65,11.22,6.05,15.73,4.14,5.48,10.26,9.53,17.03,10.8,5.78,1.08,11.4-.2,17.05-1.39,1.22-.26,2.43-.5,3.66-.69.65-.1,1.31-.19,1.97-.25.28-.03.56-.05.84-.07.1,0,.19-.02.26-.02.03,0,.11,0,.24.01.65.01,1.3.06,1.95.11.17.01.27.02.33.02.05.01.08.03.15.05.34.09.69.21,1.04.31.22.11.57.25.73.31.04.03.08.06.12.09.27.26.62.5.86.73.02.02.03.02.05.04.01.02.01.02.02.03.31.41.63.81.94,1.22.03.04.09.12.16.19.02.03.02.06.05.09.51.94,1.02,1.88,1.45,2.86.08.18.32.76.43,1.04.09.26.35,1.02.39,1.15.33,1.09.62,2.19.86,3.3.49,2.27.81,4.59.98,6.91,0,.13.04.78.05.9.02.53.03,1.06.04,1.58.01,1.23-.02,2.47-.08,3.7-.14,2.7-.48,5.38-.82,8.06-1.67,12.93-4.48,25.7-5.88,38.67-1.3,12.01-1.61,24.81,1.96,36.49,3.33,10.88,9.31,20.87,17.52,28.78,4.84,4.66,10.65,8.66,16.98,11.25.17-.33.34-.65.51-.98.51-.99,1.14-1.77,1.85-2.38.97-1.59,1.98-3.15,2.97-4.72-.29-.04-.63-.1-.76-.13Z"/>
          <path class="cls-13" d="M1069.5,1245.77c3.64-8.84,6.7-18.29,5.07-28.47-1.51-9.38-8.64-18.77-17.95-20.97-4.38-1.03-8.63-.57-12.44.95-3.69.44-7.13,2.03-9.96,4.3-3.82,3.06-6.18,7.19-7.78,11.75-.67-.52-1.36-.99-2.08-1.43-2.96-3.58-6.91-6.12-11.6-7-5.62-1.05-11.33.45-16.1,3.5-9.45,6.05-17.03,18.33-14.9,29.81-.08,2.79.43,5.46,1.39,7.96,1.41,5.31,4.65,9.91,9.33,13.13.47.33.96.63,1.44.93,3.93,3.92,8.91,6.24,14.16,7.71.13.07.27.13.4.2,7.63,3.76,15.57,6.87,23.74,9.24,2.33.68,4.69,1.3,7.05,1.85,1.78.42,3.57.92,5.4.9.74.21,1.5.37,2.31.42,1.4.07,2.67-.15,3.84-.59.93.81,2.04,1.13,2.58.14.75-1.36,1.48-2.73,2.2-4.11.14-.21.29-.4.42-.62,1.08-1.8,1.95-3.77,2.73-5.78,1.54-3.3,2.96-6.65,4.28-10.04,2.37-4.47,4.54-9.07,6.48-13.79Z"/>
        </g>
        <g>
          <path class="cls-22" d="M1373.29,590.36c4.08-3.63,7.21-8.13,9.67-12.97,4.85-9.53,7.57-20.04,13.65-28.94,9.75-14.28,25.91-23.98,43-26.5.3-1.29.59-2.59.93-3.87.33-1.64.66-3.29.99-4.94-1.07-1.81-1.18-3.65-.68-5.29-16.91.82-33.27,8.72-44.59,21.37-3.26,3.64-6.12,7.62-8.42,11.94-2.58,4.84-4.5,9.99-6.58,15.06-2.08,5.1-4.33,10.19-7.52,14.72-3.22,4.56-7.48,8.21-12.36,10.89-10.04,5.5-21.84,6.98-33.12,7.22-11.7.25-23.41-.64-35.07-1.52-22.79-1.71-46.1-3.88-68.69.75-20.78,4.25-41.46,14.15-54.03,31.82-1.11,1.57-2.12,3.2-3.08,4.86-.59-.47-1.1-.44-1.19.89-.04.66-.09,1.32-.13,1.98-.04.6,0,1.23.07,1.85,3.54.71,7.07,1.44,10.61,2.19,10.97-14.58,28-23.69,45.56-28.4,22.09-5.93,45.18-4.65,67.74-2.98,11.59.86,23.18,1.84,34.81,2.09,11.43.24,23.18-.19,34.07-4.01,5.24-1.83,10.21-4.5,14.36-8.2Z"/>
          <circle class="cls-19" cx="1217.02" cy="50.55" r="30.22"/>
          <circle class="cls-3" cx="1217.02" cy="387.85" r="30.22" transform="translate(-46.41 199.95) rotate(-9.22)"/>
          <polygon class="cls-22" points="1224.14 228.81 1239.93 246.06 1263.08 242.83 1251.55 263.17 1261.77 284.2 1238.87 279.52 1222.03 295.74 1219.4 272.51 1198.77 261.5 1220.05 251.82 1224.14 228.81"/>
        </g>
        <g>
          <path class="cls-14" d="M425.16,248.97c-6.38,1.41-12.5,3.55-18.32,6.52-11.2,5.71-21,13.98-28.71,23.87,9.67,7.17,16.46,17.72,19.98,29.45,4.14,13.78,5.96,32.12-2.15,44.85-9.93,15.58-32.61,10.07-41.49-3.71-9.14-14.17-6.74-33.83-1.68-49.07,2.38-7.17,5.71-13.99,9.79-20.34-5.13-1.72-10.69-2.14-16.06-1.88-17.9.88-36.43,8.83-49.33,21.81,11.46,7.67,20.34,19.67,23.95,32.94,4.03,14.79,1.99,32.8-11.1,42.52-7.29,5.42-17.03,5.37-24.38.08-6.79-4.89-11.56-12.93-14.22-20.75-5.25-15.42-3.26-33.25,4.95-47.28,1.27-2.17,2.69-4.22,4.18-6.22-2.95-.99-6.04-1.7-9.23-2.07-22.11-2.57-42.4,9.1-55.13,26.33,4.03,4.05,7.46,8.86,10.22,14.2,3.58,6.93,6.04,14.38,8.17,21.86,2.6,9.18,5.67,19,4.82,28.64-.73,8.27-4.53,15.97-11.6,20.62-6.95,4.56-16.16,4.14-23.14-.1-13.89-8.42-16.01-27.31-15.42-41.99.62-15.34,4.75-30.51,12.66-43.66-9.67-5.63-21.89-4.01-31.47,1.95-12.31,7.65-19.37,22.04-21.51,36.02-.44,2.91-3.05,3.85-5.8,3.4-2.21-.36-6.46-2.51-6.03-5.37,1.27-8.32,3.64-16.35,7.9-23.66,8.75-15.03,24.47-25.54,42.29-24.86,7.19.28,13.65,2.27,19.33,5.53,15.27-20,41.5-31.08,66.11-27.46,1.99,1.55,4.77,2.16,7.22,1.52,2.2.6,4.39,1.31,6.54,2.17,7.68-7.91,17.11-14.1,27.37-18.29,16.66-6.81,36.63-10.1,53.79-3.1,12.84-16.39,31.07-28.56,51.48-33.09,2.87-.64,6.4.51,8.1,2.99,1.51,2.19.64,5.01-2.07,5.61ZM211,334.14c-1.46,2.64-2.75,5.36-3.86,8.14-5.4,13.61-7.3,28.69-5.58,43.23.67,5.71,2.4,11.83,5.99,16.42.77.99,1.67,1.96,2.7,2.67.44.3,1.54.78,1.6.8,2.39.66,4.74-.02,6.83-1.26,14.32-8.48,8.2-28.68,4.65-41.27-2.75-9.76-6.09-20.42-12.34-28.73ZM291.34,307.19c-4.28,5.73-7.54,12.19-9.36,19.27-3.34,12.95-1.79,27.77,6.08,38.82,1.43,2.01,3.46,5.09,6.05,5.72,2.34.57,4.97-.91,6.8-2.21,5.45-3.87,8.44-10.27,9.69-16.66,2.36-12.09-1.53-24.89-8.69-34.67-3-4.09-6.57-7.51-10.57-10.27ZM373.02,286.64c-5.63,8.95-9.66,18.91-11.6,29.35-2.12,11.42-3.15,30.9,9.34,37.08,12.97,6.41,18.38-11.92,18.75-21.19.51-12.72-2.19-26.26-9.25-37.01-2.04-3.1-4.47-5.85-7.24-8.23Z"/>
          <path class="cls-9" d="M928.43,698.85c5.67,2.72,11.57,4.75,17.74,5.96,11.87,2.34,24.2,1.91,35.91-.99-3.05-11.17-1.92-23.18,2.39-34.16,5.06-12.88,14.59-27.84,28.28-32.64,16.78-5.88,30.65,11.77,29.18,27.47-1.51,16.15-15.01,29.6-27.89,38.11-6.06,4.01-12.64,7.19-19.5,9.56,2.86,4.35,6.81,7.97,11.03,10.97,14.07,9.97,32.81,14.97,50.27,12.82-4.1-12.61-3.69-26.97,1.46-39.15,5.74-13.59,17.99-25.99,33.68-25.57,8.73.24,16.08,6.06,18.49,14.43,2.23,7.74,1.06,16.65-1.58,24.15-5.2,14.79-17.3,27.09-31.85,32.82-2.25.89-4.54,1.6-6.86,2.22,1.64,2.51,3.56,4.87,5.76,7.05,15.19,15.08,37.48,18.32,57.35,12.85-.64-5.46-.38-11.14.71-16.82,1.42-7.37,3.98-14.47,6.82-21.39,3.49-8.49,7-17.74,13.38-24.53,5.47-5.82,12.92-9.39,21.03-8.7,7.97.68,14.68,6.47,17.45,13.83,5.5,14.63-4.13,30.18-13.29,40.92-9.58,11.24-21.73,20.26-35.53,25.5,3.97,10.01,14.17,16.04,24.96,17.24,13.86,1.53,27.76-5.16,37.68-14.46,2.07-1.94,4.6-1.1,6.41.87,1.46,1.59,3.39,5.74,1.37,7.64-5.91,5.54-12.47,10.2-20.03,13.2-15.55,6.17-33.69,4.78-46.76-6.33-5.28-4.49-8.98-9.83-11.33-15.67-23.44,6.05-49.86-1.15-66.33-18.53-.58-2.36-2.32-4.47-4.56-5.44-1.31-1.77-2.54-3.6-3.65-5.53-10.51,1.42-21.32.49-31.58-2.43-16.65-4.75-33.72-14.13-42.53-29.63-19.45,4.76-40.48,3.14-58.61-5.57-2.55-1.23-4.54-4.19-4.35-7.08.16-2.55,2.49-4.17,4.9-3.01ZM1141.05,761.72c2.67-1.13,5.27-2.41,7.76-3.86,12.18-7.09,22.57-17.36,29.92-29.38,2.88-4.72,5.21-10.38,5.23-15.98,0-1.2-.1-2.47-.46-3.63-.15-.49-.7-1.51-.74-1.55-1.42-1.92-3.6-2.8-5.92-3.11-15.87-2.1-23.25,16.82-28.05,28.45-3.72,9.02-7.53,19.06-7.74,29.07ZM1064.26,734.35c6.65-1.79,12.95-4.74,18.54-9.01,10.22-7.81,17.86-19.94,18.48-32.98.11-2.37.41-5.91-1.18-7.93-1.43-1.83-4.3-2.26-6.46-2.37-6.42-.31-12.49,2.75-17.23,6.85-8.97,7.74-13.64,19.73-14.03,31.39-.16,4.88.51,9.59,1.89,14.05ZM990.26,701.35c9.58-3.43,18.54-8.56,26.22-15.31,8.39-7.38,20.75-21.5,14.97-33.6-6-12.56-20.99-1.91-26.78,4.88-7.95,9.32-13.95,21.17-15,33.49-.3,3.55-.1,7.08.58,10.53Z"/>
          <path class="cls-22" d="M391.52,108.03c-5.47,15.19-11.28,30.24-17.43,45.16,5.18,2.25,10.33,4.57,15.44,6.98,5.45-13.73,10.63-27.58,15.53-41.53-4.66-3.35-9.19-6.87-13.53-10.61Z"/>
          <path class="cls-3" d="M480.69,656.36c12.09,16.56,24.66,32.79,37.7,48.63,4.5-3.34,8.95-6.77,13.34-10.26-12.23-15.28-24.01-30.9-35.36-46.84-5.23,2.82-10.45,5.64-15.67,8.48Z"/>
          <path class="cls-23" d="M798.44,649.64c-15.68,13.22-30.99,26.88-45.88,40.99,3.65,4.26,7.38,8.45,11.17,12.59,14.39-13.26,29.15-26.11,44.27-38.54-3.17-5.02-6.36-10.03-9.55-15.05Z"/>
          <path class="cls-17" d="M583.67,1225.25c24.3-30.69,48.15-62.11,71.48-94.25-4.48-6.91-9.09-13.67-13.79-20.29-22.48,30.33-45.43,60.01-68.8,88.99,3.69,8.52,7.39,17.04,11.11,25.55Z"/>
          <path class="cls-24" d="M1052.17,922.57c13.13-25.5,27.69-50.27,43.6-74.16,1.84-2.76-.32-8.11-1.53-10.74-.51-1.11-3.7-7.14-5.45-4.5-17.58,26.39-33.47,53.84-47.61,82.17,3.67,2.4,7.33,4.82,10.99,7.24Z"/>
          <path class="cls-2" d="M521.83,188.37c-1.01-.23-2.02-.47-3.01-.79-.26-.08-1.82-.7-1.16-.4-.27-.12-.6-.27-.71-.32-.55-.24-1.09-.5-1.63-.77-.31-.16-1.91-1.11-.95-.49.96.62-.61-.39-.91-.59-.44-.29-.88-.58-1.31-.88-.4-.28-.78-.57-1.17-.86-.2-.17-.43-.34-.61-.49-.89-.76-1.75-1.55-2.58-2.37-.44-.43-.97-.86-1.33-1.36.82,1.16.01,0-.39-.47-1.55-1.8-2.95-3.72-4.27-5.69-.14-.22-.51-.8-.63-1.01-.28-.48-.56-.96-.83-1.45-.63-1.14-1.23-2.3-1.79-3.48-.52-1.09-1-2.2-1.45-3.33-.14-.34-.27-.69-.41-1.04,0,0-.08-.21-.13-.36-.05-.15-.12-.36-.13-.36-.11-.35-.23-.7-.35-1.06-3.48-11-3.25-22.79-2.04-34.14,1.33-12.51,3.99-24.83,5.69-37.28,1.33-9.74,1.99-19.9-1.13-29.4-3.38-10.27-11.09-19.34-22.1-21.61-5.82-1.2-11.39-.26-17.11.98-2.42.52-4.85,1.02-7.33,1.22-.11,0-.82.03-.99.02-.64-.02-1.28-.13-1.92-.15t0,0c-.18-.04-.36-.09-.55-.14-.02,0-.19-.05-.37-.1-.13-.06-.25-.11-.37-.17-.02,0-.04-.02-.06-.03-.32-.26-.45-.35-.47-.36-.17-.14-.31-.25-.4-.31-.34-.39-.62-.86-.92-1.26-.07-.1-.12-.16-.16-.21-.03-.05-.05-.1-.09-.18-.3-.55-.6-1.1-.86-1.67-.23-.48-.43-.97-.63-1.46-.13-.4-.25-.81-.37-1.22-1.49-5.45-.77-11.09.43-16.53,1.37-6.23,3.33-12.31,4.8-18.52,1.49-6.3,2.7-12.67,3.65-19.07.87-5.88,1.5-11.8,1.9-17.73-4.45-3.98-8.75-8.1-12.94-12.33-.24,5.56-.67,11.12-1.31,16.65-1.53,13.24-4.45,26.1-7.94,38.94-1.77,6.52-3.11,13.03-2.61,19.82.41,5.65,2.65,11.22,6.05,15.73,4.14,5.48,10.26,9.53,17.03,10.8,5.78,1.08,11.4-.2,17.05-1.39,1.22-.26,2.43-.5,3.66-.69.65-.1,1.31-.19,1.97-.25.28-.03.56-.05.84-.07.1,0,.19-.02.26-.02.03,0,.11,0,.24.01.65.01,1.3.06,1.95.11.17.01.27.02.33.02.05.01.08.03.15.05.34.09.69.21,1.04.31.22.11.57.25.73.31.04.03.08.06.12.09.27.26.62.5.86.73.02.02.03.02.05.04.01.02.01.02.02.03.31.41.63.81.94,1.22.03.04.09.12.16.19.02.03.02.06.05.09.51.94,1.02,1.88,1.45,2.86.08.18.32.77.43,1.04.09.26.35,1.02.39,1.15.33,1.09.62,2.19.86,3.3.49,2.27.81,4.59.98,6.91,0,.13.04.78.05.9.02.53.03,1.06.04,1.58.01,1.23-.02,2.47-.08,3.7-.14,2.7-.48,5.38-.82,8.06-1.67,12.93-4.48,25.7-5.88,38.67-1.3,12.01-1.61,24.81,1.96,36.49,3.33,10.88,9.31,20.87,17.52,28.78,4.84,4.66,10.65,8.66,16.98,11.25.17-.33.34-.65.51-.98.51-.99,1.14-1.77,1.85-2.38.97-1.59,1.98-3.15,2.97-4.72-.29-.04-.63-.1-.76-.13Z"/>
          <path class="cls-19" d="M980.49,500.44c-.19-1.02-.37-2.04-.47-3.07-.03-.28-.08-1.95-.1-1.22,0-.3,0-.66,0-.77,0-.6.03-1.2.06-1.8.02-.34.25-2.19.07-1.07-.18,1.13.12-.71.17-1.07.09-.52.18-1.04.29-1.55.1-.48.21-.95.32-1.42.08-.25.14-.52.21-.76.34-1.12.72-2.22,1.15-3.3.22-.57.4-1.23.72-1.76-.73,1.21,0,.01.27-.55,1.04-2.14,2.24-4.18,3.52-6.18.15-.21.53-.79.67-.98.33-.45.66-.9,1-1.34.79-1.03,1.62-2.04,2.48-3.02.8-.91,1.62-1.8,2.47-2.66.26-.26.53-.52.79-.79,0,0,.16-.15.28-.27.12-.11.28-.25.28-.26.28-.25.55-.49.83-.74,8.71-7.57,19.62-12.04,30.51-15.45,12.01-3.76,24.36-6.21,36.47-9.61,9.47-2.65,19.05-6.08,26.52-12.73,8.08-7.18,13.34-17.87,11.04-28.87-1.21-5.82-4.29-10.55-7.7-15.31-1.44-2.01-2.87-4.05-4.03-6.24-.04-.1-.35-.74-.41-.9-.24-.6-.39-1.23-.62-1.83t0,0c-.03-.18-.07-.37-.09-.55,0-.02-.03-.2-.05-.38,0-.14,0-.28,0-.41,0-.02,0-.05,0-.07.11-.4.15-.55.14-.57.07-.21.11-.39.13-.49.23-.46.54-.91.79-1.34.06-.11.1-.17.12-.23.04-.05.07-.08.13-.16.39-.49.77-.99,1.18-1.46.35-.4.72-.78,1.09-1.16.32-.28.64-.56.97-.82,4.41-3.54,9.86-5.12,15.33-6.18,6.26-1.22,12.62-1.84,18.9-2.96,6.37-1.14,12.7-2.56,18.95-4.24,5.74-1.54,11.42-3.32,17.02-5.3,1.88-5.66,3.95-11.25,6.16-16.77-5.2,1.99-10.47,3.81-15.8,5.42-12.75,3.86-25.71,6.3-38.88,8.2-6.68.97-13.19,2.33-19.22,5.49-5.02,2.62-9.25,6.89-12.03,11.81-3.39,5.98-4.66,13.21-3.13,19.92,1.31,5.73,4.72,10.38,8.06,15.09.72,1.01,1.43,2.03,2.09,3.09.35.56.69,1.13,1.01,1.71.14.25.27.49.4.74.05.09.09.16.12.23,0,.03.03.1.08.23.25.61.46,1.22.67,1.83.05.16.09.25.12.31,0,.05,0,.08.02.16.05.35.08.72.13,1.08-.02.25,0,.62,0,.79-.01.05-.02.1-.03.15-.13.35-.22.77-.33,1.08-.01.03-.01.04-.02.06,0,.02-.01.02-.02.04-.25.45-.5.9-.75,1.35-.03.05-.07.13-.11.22-.02.03-.04.05-.07.08-.66.84-1.32,1.68-2.05,2.47-.13.14-.58.59-.78.81-.21.18-.8.72-.9.81-.86.74-1.76,1.44-2.69,2.1-1.89,1.36-3.89,2.56-5.95,3.64-.12.06-.7.35-.8.41-.48.23-.96.45-1.44.66-1.13.5-2.27.97-3.42,1.4-2.53.94-5.13,1.7-7.72,2.45-12.53,3.61-25.36,6.11-37.82,9.98-11.54,3.58-23.41,8.39-32.7,16.31-8.66,7.39-15.44,16.85-19.44,27.52-2.36,6.29-3.71,13.22-3.57,20.05.37.03.73.06,1.1.08,1.11.07,2.07.34,2.91.75,1.84.26,3.68.56,5.52.84-.08-.28-.16-.62-.19-.75Z"/>
          <path class="cls-22" d="M173.29,590.36c4.08-3.63,7.21-8.13,9.67-12.97,4.85-9.53,7.57-20.04,13.65-28.94,9.75-14.28,25.91-23.98,43-26.5.3-1.29.59-2.59.93-3.87.33-1.64.66-3.29.99-4.94-1.07-1.81-1.18-3.65-.68-5.29-16.91.82-33.27,8.72-44.59,21.37-3.26,3.64-6.12,7.62-8.42,11.94-2.58,4.84-4.5,9.99-6.58,15.06-2.08,5.1-4.33,10.19-7.52,14.72-3.22,4.56-7.48,8.21-12.36,10.89-10.04,5.5-21.84,6.98-33.12,7.22-11.7.25-23.41-.64-35.07-1.52-22.79-1.71-46.1-3.88-68.69.75-20.78,4.25-41.46,14.15-54.03,31.82-1.11,1.57-2.12,3.2-3.08,4.86-.59-.47-1.1-.44-1.19.89-.04.66-.09,1.32-.13,1.98-.04.6,0,1.23.07,1.85,3.54.71,7.07,1.44,10.61,2.19,10.97-14.58,28-23.69,45.56-28.4,22.09-5.93,45.18-4.65,67.74-2.98,11.59.86,23.18,1.84,34.81,2.09,11.43.24,23.18-.19,34.07-4.01,5.24-1.83,10.21-4.5,14.36-8.2Z"/>
          <path class="cls-24" d="M300.2,461.77c-4.08.59-8.09,1.64-11.96,3.07-1.88-3.9-3.78-7.79-5.73-11.66.19-.06.38-.12.57-.18,4.71-1.33,9.53-2.15,14.43-2.31,5.48-.19,10.96.35,16.42.71,5.5.37,11.06.59,16.52-.29,5.51-.89,10.66-3.11,15.21-6.32,9.35-6.6,15.87-16.55,21.04-26.58,2.93-5.69,5.56-11.54,8.05-17.44,2.98,4.23,5.99,8.44,9.03,12.63-1.11,2.58-2.25,5.15-3.44,7.7-4.8,10.37-10.36,20.74-18.57,28.85-3.95,3.9-8.53,7.19-13.68,9.3-5.05,2.07-10.47,2.9-15.9,2.99-10.69.17-21.32-2.01-32-.46Z"/>
          <path class="cls-3" d="M774.39,542.73c1.58,10.7,3.91,21.51,9.1,31.08,2.65,4.88,6.07,9.36,10.39,12.87,4.23,3.45,9.17,5.82,14.35,7.48,10.18,3.27,20.99,4.28,30.75,8.86,15.65,7.35,27.8,21.76,33.01,38.23,1.32.09,2.65.17,3.97.3,1.68.07,3.35.13,5.03.19,1.61-1.34,3.41-1.74,5.12-1.52-3.5-16.57-13.91-31.45-28.21-40.62-4.12-2.64-8.5-4.82-13.13-6.41-5.19-1.77-10.58-2.85-15.92-4.09-5.37-1.25-10.75-2.65-15.73-5.08-5.01-2.45-9.3-6.08-12.72-10.47-7.03-9.03-10.37-20.45-12.41-31.54-.38-2.07-.71-4.14-1.02-6.22-4.18,2.33-8.38,4.64-12.59,6.93Z"/>
          <g>
            <path class="cls-21" d="M506.78,512.6c-.51-.46-.68-.45-.51-.29.16.08.31.17.44.26.02.01.04.02.07.03Z"/>
            <path class="cls-21" d="M650.79,484.43c-1.87,4.11-3.89,8.15-6.14,12.07-8.86,15.39-20.9,28.88-35.13,39.5-7.13,5.32-15.6,9.93-24.72,9.98-9.22.05-17.96-3.7-24.93-9.63-8.21-6.98-13.96-15.96-17.78-25.79-2.07,2.47-4.33,4.77-6.87,6.82-6.55,5.29-14.63,8.28-23.09,6.42-8.54-1.88-15.6-7.41-20.49-14.55-9.26-13.53-10.13-30.73-10.13-46.56,0-20.66,2.5-41.26,7.62-61.28,1.52-5.96,13.56,1.67,12.24,6.83-1.14,4.46-2.16,8.94-3.05,13.45-3.6,18.33-5.08,37.07-4.27,55.74.16,3.69.37,7.37.9,11.02.24,1.64.53,3.28.88,4.91.17.78.35,1.55.54,2.32,0-.02.11.43.19.71.08.28.21.72.2.7.84,2.8,1.91,5.5,3.19,8.12.12.22.49.91.59,1.08.15.25.31.51.46.76.39.62.8,1.23,1.23,1.82.1.13.89,1.32.24.34-.63-.96.14.15.27.3.43.49.88.95,1.33,1.41.25.2.49.41.75.6.02.01.04.02.05.04.09.09.23.2.4.29.01,0,.03.01.04.02.12.08.24.17.34.27-.09-.08-.15-.14-.22-.21.26.12.56.25.85.4.08.07.23.17.44.26.06.05.14.09.19.14-.05-.04-.08-.07-.12-.11.02,0,.03.01.05.02.26.1.53.19.79.28.13.04.27.08.4.12.32.03.66.14.98.19.37.06.73.11,1.1.14.14.02.62.05.73.07,1.59.03,3.23-.19,4.76-.59-.02,0,.95-.31.92-.3.41-.14.81-.3,1.21-.47.81-.34,1.6-.72,2.36-1.13,1.49-.8,2.93-1.74,4.26-2.79,2.82-2.22,5.45-5.13,7.72-8.02,1.86-2.36,3.58-4.83,5.21-7.37-.26-1.57-.5-3.13-.68-4.7-2.29-19.21.63-38.79,5.89-57.29,1.37-4.82,2.9-9.58,4.56-14.3,1.35-3.84,2.96-7.84,6.05-10.62,3.98-3.58,8.93-3.63,13.55-1.04,4.78,2.68,8,7.57,8.43,13.04.34,4.34-.39,8.87-.95,13.17-.63,4.8-1.47,9.57-2.5,14.29-1.98,9.04-4.68,17.92-8.07,26.54-3.49,8.86-7.66,17.46-12.51,25.66-.35.59-.71,1.18-1.07,1.77.38,2.04.83,4.07,1.36,6.09.83,3.21,2.21,7.22,3.73,10.57.4.89.84,1.77,1.27,2.64.05.09.08.17.12.24.04.07.09.15.15.25.18.31.35.62.53.93.9,1.54,1.87,3.04,2.91,4.49.18.24.36.48.54.72-.15-.2.5.65.64.82.56.67,1.14,1.33,1.74,1.97.53.57,1.16,1.48,1.84,1.84-.13-.07-1.3-1.12-.26-.25.33.27.65.56.98.83.53.44,1.54,1.57,2.23,1.69-.9-.59-1.01-.66-.33-.23.14.09.29.18.43.26.29.17.57.34.87.51.44.25.88.47,1.32.71.09.05.21.12.3.19.57.25,1.22.43,1.76.61.29.1.58.18.86.26.12.02.82.21.97.24.82.16,1.66.28,2.49.36.22.02.44.03.66.05,0,0,.65.02.81.02,1-.02,1.99-.09,2.98-.22,3.86-.5,7.46-1.94,10.93-3.81,7.03-3.79,13.29-9.07,19.02-14.59,11.49-11.06,21.1-24.31,27.72-38.84,1.36-2.99,4.61-2.15,7.07-.88,1.55.81,3.15,2.27,4.1,3.74.53.83,1.58,2.87,1.08,3.97ZM550.91,453.51c-1.17,5.99-1.99,12.05-2.4,18.13,2.3-5.18,4.36-10.46,6.14-15.84,2.7-8.19,4.8-16.58,6.26-25.08.73-4.25,1.3-8.53,1.7-12.82.04-.46.08-.92.12-1.38-.22.28-.43.57-.64.88-2.09,3.03-3.05,6.59-4.26,10.21-2.82,8.49-5.21,17.13-6.92,25.91Z"/>
            <path class="cls-21" d="M505.42,511.91c-.68-.63-.77-.58-.56-.37.14.1.29.21.44.31.04.02.08.04.12.06Z"/>
          </g>
          <g>
            <path class="cls-22" d="M417.2,1101.9c.21-.45.32-.48.26-.33-.09.1-.16.2-.22.3-.01.01-.02.03-.04.04Z"/>
            <path class="cls-22" d="M314.22,1120.13c.22-1.23.87-2.64,1.67-3.59,1.26-1.52,3.17-2.96,4.9-1.37,8.36,7.74,18.34,13.82,28.96,17.94,5.3,2.05,10.87,3.81,16.55,4.36,2.8.27,5.56.23,8.25-.5.69-.19,1.36-.41,2.02-.68.1-.04.53-.24.53-.24.14-.07.28-.14.42-.21.53-.28,1.04-.59,1.54-.93.09-.06.5-.38.57-.42.17-.14.33-.27.5-.41.3-.27.68-.57.99-.89.04-.07.1-.15.15-.21.22-.28.46-.55.68-.83.15-.19.29-.38.43-.57.07-.1.14-.19.21-.29.33-.47.27-.39-.15.24.42-.27.78-1.29,1.01-1.73.14-.27.28-.54.42-.81.44-.86-.04.16-.1.24.35-.43.51-1.2.7-1.72.22-.59.42-1.18.61-1.78.05-.15.24-.89.2-.72.05-.21.11-.42.15-.63.29-1.24.51-2.49.68-3.76.03-.25.06-.51.09-.76.01-.08.02-.15.03-.2,0-.05,0-.11.01-.19.04-.7.09-1.39.11-2.09.07-2.63-.12-5.65-.46-7.99-.21-1.48-.48-2.94-.79-4.39-.4-.29-.8-.58-1.19-.87-5.45-4.06-10.57-8.58-15.31-13.45-4.61-4.74-8.84-9.84-12.63-15.25-1.98-2.83-3.85-5.74-5.59-8.72-1.56-2.67-3.29-5.45-4.26-8.41-1.22-3.72-.45-7.82,1.96-10.91,2.33-2.98,5.6-4.31,9.21-3.05,2.8.98,4.97,3.17,6.91,5.33,2.4,2.65,4.72,5.37,6.95,8.16,8.56,10.74,15.88,22.82,19.67,36.11.31,1.09.59,2.18.85,3.29,1.77,1.23,3.59,2.38,5.46,3.42,2.29,1.27,4.83,2.47,7.3,3.15,1.17.32,2.37.54,3.57.66.62.06,1.24.09,1.87.09.31,0,.62,0,.93-.03-.02,0,.7-.07.69-.06,1.12-.16,2.26-.47,3.3-.93.07-.04.37-.2.46-.25.23-.13.46-.26.69-.4.2-.12.39-.28.6-.4.08-.06.16-.12.23-.19.15-.13.3-.26.45-.4.01,0,.02-.02.03-.03-.02.04-.03.06-.05.1.02-.05.06-.1.09-.14.12-.12.19-.23.22-.3.15-.17.31-.34.45-.49-.03.06-.06.12-.09.2.04-.09.1-.18.15-.27,0,0,.01-.02.02-.02.09-.11.15-.22.18-.3,0-.01.02-.03.02-.04.11-.2.22-.4.33-.6.17-.43.34-.86.49-1.3.04-.13.25-1.08.1-.27-.16.83.04-.17.06-.29.12-.51.22-1.02.31-1.53.03-.21.07-.42.1-.63.02-.14.07-.69.09-.87.12-2.08.08-4.15-.14-6.23,0,.02-.04-.31-.06-.52-.03-.2-.07-.53-.07-.52-.08-.56-.18-1.12-.28-1.68-.22-1.17-.48-2.32-.77-3.47-.66-2.55-1.53-5.04-2.45-7.51-4.62-12.52-10.75-24.45-18.18-35.53-1.83-2.73-3.74-5.4-5.71-8.02-2.29-3.04,3.53-11.38,6.18-7.87,8.89,11.78,16.21,24.65,21.91,38.26,4.36,10.43,8.53,22,6.16,33.46-1.25,6.05-4.38,11.63-9.48,15.23-5.06,3.56-11.2,3.82-16.98,2.14-2.23-.65-4.36-1.54-6.4-2.6.2,7.53-1.11,15.02-4.6,21.88-2.96,5.83-7.69,10.7-13.77,13.21-6.02,2.48-12.87,1.78-19.03.24-12.3-3.07-23.95-8.64-34.02-16.33-2.57-1.96-5-4.06-7.37-6.26-.63-.59-.51-2.22-.38-2.91ZM360.15,1059.98c-1.79-2.05-3.4-4.13-5.62-5.55-.22-.14-.44-.27-.66-.4.15.29.31.58.46.88,1.45,2.72,3,5.38,4.65,7.97,3.3,5.2,6.99,10.15,11.03,14.79,2.65,3.05,5.46,5.97,8.41,8.74-1.94-3.89-4.16-7.65-6.58-11.28-3.55-5.31-7.5-10.35-11.7-15.16Z"/>
            <path class="cls-22" d="M417.91,1101.07c.27-.61.35-.59.27-.4-.06.11-.13.22-.2.32-.02.02-.04.05-.06.07Z"/>
          </g>
          <path class="cls-2" d="M628.6,636.15c-.13-4.51,1.56-9.02,5.3-11.73,3.85-2.78,8.82-3.34,12.88-.66,1.44.96,2.61,2.28,3.39,3.79,1.92-1.7,4.1-3.04,6.72-3.59,1.94-.41,4.01-.38,5.91.22,2.23.14,4.41.85,6.27,2.25,3.96,2.99,5.06,8.74,3.44,13.27-1.76,4.92-5.62,8.5-9.61,11.68-4.86,3.88-10.12,7.27-15.69,10.05-1.36.68-2.96.26-3.93-.86-3.24-3.69-6.69-7.28-9.57-11.27-2.77-3.84-4.98-8.34-5.12-13.16Z"/>
          <path class="cls-14" d="M1069.64,550.37c-.25-8.61,2.97-17.23,10.12-22.4,7.35-5.3,16.85-6.38,24.6-1.25,2.76,1.83,4.99,4.36,6.48,7.24,3.67-3.24,7.84-5.81,12.84-6.86,3.71-.78,7.66-.73,11.29.41,4.26.27,8.42,1.62,11.98,4.31,7.56,5.71,9.67,16.69,6.57,25.35-3.37,9.39-10.73,16.23-18.35,22.31-9.29,7.41-19.34,13.88-29.96,19.2-2.6,1.3-5.64.49-7.51-1.64-6.19-7.05-12.78-13.91-18.27-21.53-5.28-7.34-9.51-15.93-9.78-25.13Z"/>
          <path class="cls-13" d="M890,584.38c-3.4-2.97-5.57-7.27-5.01-11.85.57-4.71,3.54-8.75,8.26-9.9,1.68-.41,3.45-.37,5.09.09.06-2.56.55-5.08,1.93-7.38,1.02-1.7,2.44-3.2,4.17-4.19,1.62-1.54,3.62-2.66,5.91-3.07,4.88-.88,9.85,2.22,12.08,6.49,2.41,4.63,2.42,9.9,2.05,14.98-.45,6.21-1.54,12.37-3.27,18.34-.42,1.46-1.82,2.34-3.3,2.31-4.91-.13-9.89-.03-14.77-.63-4.7-.58-9.5-2.01-13.13-5.18Z"/>
          <path class="cls-6" d="M1148.26,974.99c-4.62-7.98-5.96-17.74-1.85-26.23,4.22-8.73,12.62-14.58,22.53-13.68,3.52.32,6.92,1.57,9.78,3.53,1.81-4.92,4.43-9.46,8.6-12.99,3.1-2.62,6.84-4.58,10.84-5.35,4.15-1.91,8.75-2.76,13.47-2.04,10.02,1.53,17.59,10.8,19.06,20.53,1.6,10.55-1.86,20.74-5.94,30.33-4.98,11.7-11.15,22.9-18.45,33.31-1.79,2.55-5.06,3.33-7.91,2.28-9.41-3.49-19.11-6.6-28.15-10.99-8.7-4.22-17.05-10.17-21.98-18.69Z"/>
          <path class="cls-13" d="M1069.5,45.77c3.64-8.84,6.7-18.29,5.07-28.47-1.51-9.38-8.64-18.77-17.95-20.97-4.38-1.03-8.63-.57-12.44.95-3.69.44-7.13,2.03-9.96,4.3-3.82,3.06-6.18,7.19-7.78,11.75-.67-.52-1.36-.99-2.08-1.43-2.96-3.58-6.91-6.12-11.6-7-5.62-1.05-11.33.45-16.1,3.5-9.45,6.05-17.03,18.33-14.9,29.81-.08,2.79.43,5.46,1.39,7.96,1.41,5.31,4.65,9.91,9.33,13.13.47.33.96.63,1.44.94,3.93,3.92,8.91,6.24,14.16,7.71.13.07.27.13.4.2,7.63,3.76,15.57,6.87,23.74,9.24,2.33.68,4.69,1.3,7.05,1.85,1.78.42,3.57.92,5.4.9.74.21,1.5.37,2.31.42,1.4.07,2.67-.15,3.84-.59.93.81,2.04,1.13,2.58.14.75-1.36,1.48-2.73,2.2-4.11.14-.21.29-.4.42-.62,1.08-1.8,1.95-3.77,2.73-5.78,1.54-3.3,2.96-6.65,4.28-10.04,2.37-4.47,4.54-9.07,6.48-13.79Z"/>
          <path class="cls-19" d="M641.2,961.36c7.07-5.77,13.93-12.31,17.17-21.6,2.99-8.56,1.26-19.68-5.55-25.74-3.21-2.85-6.98-4.39-10.88-4.85-3.3-1.31-6.9-1.53-10.31-.91-4.59.83-8.45,3.23-11.86,6.33-.33-.73-.69-1.45-1.1-2.14-.86-4.35-3.02-8.27-6.56-11.13-4.24-3.43-9.71-4.77-15.1-4.37-10.68.79-22.61,7.66-26.04,18.26-1.33,2.31-2.11,4.78-2.44,7.32-1.23,5.09-.59,10.43,1.88,15.25.25.49.51.97.79,1.44,1.52,5.07,4.65,9.28,8.39,12.89.08.12.16.23.24.35,4.7,6.62,9.95,12.83,15.73,18.53,1.65,1.63,3.35,3.21,5.08,4.76,1.31,1.16,2.58,2.4,4.12,3.21.53.52,1.09,1,1.75,1.39,1.14.69,2.31,1.09,3.49,1.24.41,1.1,1.2,1.87,2.1,1.29,1.25-.8,2.48-1.62,3.71-2.46.21-.11.42-.21.63-.33,1.73-1.02,3.35-2.28,4.91-3.61,2.79-2.07,5.5-4.24,8.15-6.49,4.02-2.68,7.92-5.56,11.69-8.63Z"/>
          <path class="cls-9" d="M420.85,735.02c2.66-5.57,4.96-11.55,4.26-18.16-.64-6.1-4.91-12.39-10.82-14.13-2.78-.82-5.54-.67-8.05.17-2.39.15-4.66,1.06-6.57,2.42-2.57,1.83-4.23,4.41-5.42,7.29-.41-.36-.84-.69-1.29-.99-1.78-2.41-4.23-4.18-7.22-4.91-3.58-.87-7.31-.11-10.49,1.69-6.3,3.57-11.61,11.21-10.65,18.68-.15,1.8.09,3.53.62,5.18.72,3.47,2.65,6.55,5.55,8.78.29.23.59.44.9.65,2.39,2.66,5.52,4.33,8.85,5.46.08.05.17.1.25.14,4.78,2.69,9.79,4.97,14.97,6.79,1.48.52,2.97,1,4.48,1.44,1.13.33,2.27.72,3.44.77.47.16.95.29,1.47.35.9.1,1.73,0,2.49-.25.57.55,1.27.8,1.66.18.53-.85,1.05-1.71,1.56-2.57.1-.13.2-.25.29-.39.76-1.12,1.39-2.36,1.96-3.63,1.1-2.07,2.14-4.18,3.11-6.32,1.68-2.8,3.24-5.68,4.66-8.65Z"/>
          <path class="cls-19" d="M625.89,204.19c1.02-5.8,4.15-11.1,9.18-13.53,5.17-2.5,11.07-1.87,15.06,2.67,1.42,1.62,2.42,3.63,2.93,5.77,2.67-1.64,5.54-2.77,8.71-2.76,2.35,0,4.74.6,6.78,1.89,2.54.79,4.88,2.28,6.66,4.59,3.8,4.9,3.57,12.54.51,17.89-3.32,5.8-8.71,9.32-14.15,12.3-6.63,3.63-13.6,6.52-20.75,8.56-1.75.5-3.48-.48-4.32-2.17-2.78-5.6-5.84-11.13-8.12-17.01-2.19-5.66-3.58-12.01-2.49-18.2Z"/>
          <path class="cls-9" d="M987.87,993.06c.02-5.62,2.1-11.11,6.44-14.22,4.46-3.19,10.11-3.55,14.59.07,1.6,1.29,2.87,3.02,3.69,4.95,2.24-1.98,4.76-3.5,7.74-4,2.21-.37,4.55-.2,6.68.67,2.52.33,4.96,1.36,7.01,3.23,4.37,3.99,5.4,11.21,3.39,16.73-2.18,5.99-6.68,10.18-11.31,13.86-5.65,4.49-11.73,8.34-18.12,11.42-1.57.75-3.35.12-4.42-1.34-3.53-4.81-7.29-9.51-10.39-14.67-2.98-4.97-5.31-10.71-5.29-16.71Z"/>
          <path class="cls-13" d="M708.26,271.79c-4.81-.84-9.6-1.83-14.4-2.79-2.53-.34-5.06-.71-7.58-1.1-1.5,4.39-2.36,8.98-3.02,13.61-.14.08-.14.21-.05.36-.58,4.13-1.02,8.29-1.64,12.37-.9,5.87-2.45,11.38-4.7,16.66-2.36,4.49-4.95,8.86-7.69,13.13-.92,1.44-1.87,2.86-2.81,4.28-9.37,12.26-20.79,22.97-28.81,36.23-3.23,5.34-5.74,11.12-6.98,17.2-.19.17-.33.37-.38.61,0,.05-.02.1-.03.14,8.83,1.6,17.69,3.06,26.56,4.43,2.14-3.44,3.24-7.54,4.11-11.47,1.26-5.68,2.19-11.4,4.63-16.73,4.58-10.01,12.58-17.87,19.78-25.99,7.6-8.57,13.85-17.92,17.84-28.71,3.79-10.27,5.56-21.28,5.16-32.22Z"/>
          <path class="cls-21" d="M182.08,218.71c-.84-1.16-1.73-2.28-2.66-3.37-3.62-4.2-7.87-7.85-12.09-11.47-7.6-6.52-15.21-13.04-22.81-19.55-6.75-5.78-12.68-9.22-21.69-8.84-7.95.34-16.01,3.45-23.95,2.77-6.56,1.09-13.22.31-19.44-3.84-4.7-3.14-8.03-7.87-11.11-12.51-1.96-2.97-3.76-6.78-6.51-9.25-7.81,6.14-15.5,12.56-23.08,18.88,5.69,8.68,20.4,16.07,29.5,20.52,4.88,2.38,10.3,4.17,15.69,3.47,10.06-1.31,17.84-10.89,27.98-11.22,5.85-.19,11.42,2.88,15.55,7.03,8.36,8.43,14.22,18.95,22.37,27.47,8.2,8.57,15.23,16.12,19.91,27.48,4.17-7.2,8.35-14.39,12.52-21.59.56-.96,1.13-1.99,1.09-3.1-.05-1.06-.66-2.01-1.28-2.88Z"/>
          <path class="cls-9" d="M865.13,234.7c-.84-1.16-1.73-2.28-2.66-3.37-3.62-4.2-7.87-7.85-12.09-11.47-7.6-6.52-15.21-13.04-22.81-19.55-6.75-5.78-12.68-9.22-21.69-8.84-7.95.34-16.01,3.45-23.95,2.77-6.56,1.09-13.22.31-19.44-3.84-4.7-3.14-8.03-7.87-11.11-12.51-1.96-2.97-3.76-6.78-6.51-9.25-7.81,6.14-15.5,12.56-23.08,18.88,5.69,8.68,20.4,16.07,29.5,20.52,4.88,2.38,10.3,4.17,15.69,3.47,10.06-1.31,17.84-10.89,27.98-11.22,5.85-.19,11.42,2.88,15.55,7.03,8.36,8.43,14.22,18.95,22.37,27.47,8.2,8.57,15.23,16.12,19.91,27.48,4.17-7.2,8.35-14.39,12.52-21.59.56-.96,1.13-1.99,1.09-3.1-.05-1.06-.66-2.01-1.28-2.88Z"/>
          <circle class="cls-19" cx="17.02" cy="50.55" r="30.22"/>
          <circle class="cls-3" cx="17.02" cy="387.85" r="30.22" transform="translate(-59.64 7.27) rotate(-8.88)"/>
          <circle class="cls-22" cx="758.76" cy="455.5" r="30.22"/>
          <circle class="cls-21" cx="476.19" cy="277.42" r="30.22"/>
          <circle class="cls-21" cx="153.74" cy="1179.96" r="30.22" transform="translate(-175.37 36.45) rotate(-8.63)"/>
          <circle class="cls-19" cx="153.74" cy="673.98" r="25.79" transform="translate(-99.43 30.71) rotate(-8.63)"/>
          <circle class="cls-6" cx="380.45" cy="585.67" r="28.83" transform="translate(-88.9 68.5) rotate(-9.22)"/>
          <circle class="cls-19" cx="959.99" cy="736.59" r="34.4"/>
          <circle class="cls-17" cx="818.99" cy="334.7" r="30.22" transform="translate(-54.99 197.12) rotate(-13.28)"/>
          <circle class="cls-18" cx="361.51" cy="1029.19" r="26.09" transform="translate(-519.93 386.55) rotate(-34.55)"/>
          <circle class="cls-16" cx="409.28" cy="556.84" r="28.83" transform="translate(-181.74 914.99) rotate(-84.9)"/>
          <circle class="cls-24" cx="1055.55" cy="199.46" r="28.83"/>
          <g>
            <path class="cls-6" d="M851.09,393.23s-.04,0-.05,0c0,.01,0,.02,0,.03,0,0,0,0,0,0,.01-.01.03-.02.04-.04,0,0,0,0,.01,0,0,0,0,0,0,0,0,0-.01,0-.02,0,0,0,0,0,0,0,0,0-.01,0-.02,0,0,0,0,0,.02,0Z"/>
            <polygon class="cls-6" points="851.04 393.22 851.04 393.23 851.04 393.22 851.04 393.22"/>
            <path class="cls-6" d="M851.03,393.18s0,0,0,.01c0,0-.02,0-.02,0,0,0,0,0,0,0,0,0,.01,0,.02,0,0,0,0,0,0,0,.01,0,.02,0,.03,0,.02,0,.03,0,.05-.01h.02s0-.02,0-.02c0,0,0,0,0,0,.02,0,.03,0,.04,0,0,0,0,0,0,0-.01,0-.03,0-.04,0,.01,0,.02-.02.03-.03,0,0,0,0-.01,0,.07-.09.15-.18.22-.27-.12-.08-.38-.04-.36.28-.05,0-.09,0-.13,0,.02,0,.04.01.06.02.03,0,.04,0,.08,0Z"/>
            <path class="cls-6" d="M934.78,418.84c-.26,2.65-3.38,4.79-5.86,4.97-1.18.09-2.97.03-4.05.55.19-.04.37-.08.56-.11-.26.06-.52.12-.78.19-.26.07-.52.14-.78.21-.58.16-1.15.35-1.72.54-.57.2-1.13.4-1.69.63-.07.03-.21.08-.35.13-.17.08-.35.16-.51.24-1.17.54-2.31,1.14-3.43,1.77-1.14.64-2.25,1.32-3.34,2.03-.52.34-1.04.68-1.56,1.03-.29.19-.58.39-.86.59-.49.33-.4.27-.22.14-2.09,1.39-4.07,3-6.08,4.5-4.1,3.08-8.21,6.19-12.6,8.85-5.11,3.11-12.88,5.92-17.56.51-3.37-3.89-4.3-9.72-4.98-14.68-.72-5.22-.78-10.53-.58-15.79.39-10.35,2.03-20.6,2.68-30.94.09-1.36.15-2.72.2-4.08.02-.6.03-1.2.04-1.81,0-.16,0-.26,0-.34,0-.26,0-.52,0-.79-.01-2.51-.13-5.02-.38-7.51-.61,1.58-1.23,3.16-1.84,4.74-1.32,3.4-2.65,6.8-3.97,10.2-1.13,2.91-2.11,5.98-3.6,8.73-3.17,5.87-9.34,10.16-16.19,8.26-4.47-1.24-7.63-5.46-9.56-9.45-2.49-5.17-3.41-11.01-4.61-16.57-1.34-6.22-2.58-12.45-3.71-18.71-4.58-25.39-7.4-51.08-8.46-76.86-.12-2.83,1.95-4.89,4.51-5.81,1.94-.69,5.7-.21,5.81,2.49.56,13.69,1.61,27.36,3.17,40.98,1.37,12.01,3.14,23.98,5.29,35.88,1.08,5.99,2.26,11.97,3.54,17.92.64,2.98,1.3,5.95,1.99,8.92.29,1.24.58,2.46.95,3.68,0,.03.01.04.02.07.08.23.17.45.26.68.19.48.39.95.6,1.42.48,1.04,1.02,2.06,1.63,3.03.26.42.54.83.84,1.23.09.12.19.24.28.36.06.06.12.13.16.17.65.63,1.29,1.22,2.02,1.74.14.06.49.25.69.33-.01,0,.06.02.15.06-.11,0-.14.01.06.02.02,0,.04.01.06.02-.05.02-.08.04-.11.06.02,0,.07-.02.14-.03,0,0,0,0,0,.01-.07.01-.12.02-.15.02-.04.03-.07.07-.04.1,0,0,.09-.04.19-.1,0,0,0,0,0,0,0,0,0,0,0,0,.02-.01.04-.02.06-.03h0s.01,0,.02,0c0,0,0,0,0,0,0,0,0,0,0,0,0,0,0,0,0,0,0,0,0,0-.01,0,0,0,.01-.01.02-.02,0,0,0,0,.01,0,0,0,0,0,.01-.01.02,0,.03,0,.05,0,0,0,0,0,0,0,0,0,0,0,.01,0,0,0,0,0,0,0,0,0,0,0,0,0h0s0,0,0,0h0s0,0,0,0c.4-.09.29-.1.09-.06-.03.02-.06.04-.09.06,0,0,0,0-.01,0,.03-.02.07-.04.1-.06-.03,0-.07.01-.11.02,0,0,.01,0,.02-.01.28-.08.28-.19.19-.25.06-.08.12-.14.14-.17.12-.17.75-1.25.19-.21.13-.23.26-.46.38-.7.24-.47.47-.96.68-1.45.48-1.11.91-2.24,1.34-3.36,4.5-11.56,9-23.12,13.5-34.69.75-1.92,2.91-3.28,4.84-3.69,1.47-.31,4.07-.14,4.78,1.59,4.46,10.88,4.89,22.47,4.08,34.07-.71,10.1-2.28,20.13-2.62,30.25-.08,2.42-.09,4.11.04,6.82.12,2.47.35,4.94.73,7.38.38,2.44.97,4.8,1.59,7.18.03.1.04.17.06.23.02.05.05.12.08.2.1.24.19.48.3.72.21.47.44.93.71,1.37.12.2.26.39.39.58.02.02.03.03.06.05.19.16.37.33.55.49,0,0,0,0,.01,0-.01,0-.02,0-.03,0,0,0,.02,0,.03,0,.29.25.28.14.17.05.09.05.13.11.05.11.1.02.2.04.31.06.02-.01.09-.03.17-.04-.02.03.04.04.23-.03.05,0,.1,0,.1,0-.01-.01-.03-.01-.04-.02.02,0,.04-.01.07-.02.19-.07.38-.14.57-.21.11-.04.24-.1.32-.14.54-.3,1.09-.59,1.62-.9,1.08-.64,2.14-1.31,3.18-2,.47-.31.93-.62,1.39-.94.04-.03.11-.07.19-.12.05-.04.14-.11.34-.25,3.78-2.73,7.46-5.6,11.24-8.33,8.12-5.85,16.96-11.11,27.18-11.85,2.49-.18,4.73,1.17,4.46,3.89Z"/>
            <polygon class="cls-6" points="851.21 393.19 851.21 393.19 851.21 393.19 851.21 393.19 851.21 393.19"/>
            <path class="cls-6" d="M851.04,393.22s0,0,0-.01c0,0-.01,0-.02,0-.02,0-.04,0-.04.01,0,0,.02,0,.06,0Z"/>
            <path class="cls-6" d="M884.22,439.7c-.11-.06-.27,0-.3.05.08-.01.17-.02.23-.03.02,0,.04-.01.06-.02Z"/>
            <path class="cls-6" d="M883.39,439.62s-.11-.06-.17-.05c0,0,0,0,0,0,.05,0,.12.02.17.05Z"/>
            <path class="cls-6" d="M851.08,393.22s0,0-.01,0c0,0-.01,0-.02,0,0,0,.02,0,.03,0Z"/>
          </g>
          <polygon class="cls-6" points="604.31 88.15 598.69 112.15 615.27 130.39 590.71 132.46 578.49 153.87 568.93 131.15 544.79 126.14 563.45 110.03 560.75 85.52 581.84 98.29 604.31 88.15"/>
          <polygon class="cls-9" points="655.2 513.74 641.12 532.58 648.66 554.86 626.39 547.29 607.52 561.34 607.84 537.83 588.65 524.23 611.12 517.27 618.12 494.81 631.68 514.03 655.2 513.74"/>
          <polygon class="cls-9" points="207.75 1026.26 198.65 997.12 169.48 988.09 194.39 970.43 193.96 939.9 218.45 958.13 247.35 948.29 237.58 977.22 255.88 1001.66 225.35 1001.31 207.75 1026.26"/>
          <polygon class="cls-21" points="137.33 467.91 120.95 477.39 119.48 496.26 105.4 483.61 87 488.04 94.68 470.74 84.78 454.61 103.61 456.57 115.89 442.17 119.84 460.68 137.33 467.91"/>
          <polygon class="cls-21" points="1016.19 279.66 993.81 292.61 991.8 318.38 972.57 301.11 947.43 307.16 957.92 283.53 944.4 261.49 970.11 264.17 986.89 244.5 992.3 269.78 1016.19 279.66"/>
          <polygon class="cls-4" points="949.69 816.78 930.82 796.01 903.01 799.77 916.94 775.41 904.76 750.12 932.24 755.84 952.53 736.45 955.58 764.34 980.29 777.64 954.71 789.17 949.69 816.78"/>
          <polygon class="cls-22" points="922.46 951.77 899.78 943 879.7 956.71 881.03 932.43 861.79 917.56 885.29 911.33 893.48 888.43 906.68 908.86 930.98 909.57 915.63 928.43 922.46 951.77"/>
          <g class="cls-10">
            <path class="cls-19" d="M868.61,92.97s.04-.02,0,0h0Z"/>
            <path class="cls-19" d="M879.53,105.27c0-.11,0-.3.01-.44,0-.03,0-.07,0-.1-.07.1-.04.43,0,.54Z"/>
            <path class="cls-19" d="M954.48,19.17s0,0,0,0c.02.04.05.07.07.1-.02-.03-.04-.07-.06-.1Z"/>
            <path class="cls-19" d="M836.36,148.9c-.18-.84-.35-1.69-.53-2.53-.58-3.45-1.23-6.9-1.92-10.36.51.13,1.02.27,1.53.36.1,0,.83.1,1.05.12.38.03.77.06,1.15.07.86.04,1.72.02,2.55-.04,2.1-.16,4.15-.48,6.17-.85,2.3-.42,3.09-.61,5.42-1.29,4.05-1.2,7.91-2.78,11.47-4.81.93-.53,1.83-1.08,2.71-1.67.35-.23.7-.47,1.04-.72.21-.15.43-.31.64-.46,1.57-1.23,3.04-2.57,4.39-4.03.64-.69,1.24-1.42,1.82-2.16-.12-.09-.24-.17-.36-.26-5.47-4.24-10.15-9.29-13.4-15.36-3.27-6.11-4.23-12.85-2.35-18.23,1.52-4.34,5.45-7.81,10.6-7.33,5.68.53,10.85,4.54,14.42,9.8,6.03,8.88,7.35,18.59,5.75,27.09.37.12.74.25,1.11.36,1.15.35,2.3.65,3.45.91.58.13,1.15.25,1.73.36.14.03.93.15,1.1.18,4.66.64,9.22.59,13.53-.12,2.27-.37,3.23-.63,5.53-1.42,2.04-.7,4.01-1.54,5.89-2.51,3.99-2.04,7.02-4.21,10-6.85,3.16-2.8,6.02-5.91,8.67-9.21,1.37-1.71,2.68-3.47,3.95-5.27.61-.87,1.21-1.76,1.8-2.65.29-.45.59-.9.87-1.35.16-.26.33-.52.49-.78,0,0,.09-.14.16-.26.09-.14.27-.45.29-.49.16-.27.31-.53.47-.8.27-.47.54-.94.81-1.42.49-.88.97-1.78,1.44-2.68,1.04-2.01,2.02-4.07,2.93-6.18.8-1.85,1.53-3.73,2.21-5.65-8.49-5.16-15.84-12.38-20.83-21.37-5.67-10.21-6.86-21.97-3.91-31,1.41-4.31,4.01-7.79,7.5-10.3,3.71-2.67,9.35-4.08,14.74-1.82,7.27,3.04,10.62,10.24,12.77,17.07,1.87,5.95,3.05,12.01,3.63,17.89.79,8.05.34,15.79-.95,23.19,1.16.32,2.32.6,3.47.83.21.04,1.34.22,1.28.22.47.06.94.12,1.41.17,1.02.1,2.04.16,3.05.19,2.22.06,4.41-.05,6.54-.32,1.14-.14,2.26-.33,3.36-.56.06-.01.39-.09.56-.12.12-.03.27-.07.27-.07.5-.13,1.01-.27,1.51-.42,4.01-1.18,7.74-2.9,11.19-5.01.93-.57,1.83-1.17,2.72-1.79.41-.29.81-.58,1.2-.87.22-.17.44-.35.66-.53,1.6-1.29,3.13-2.67,4.58-4.13,3.14-3.16,5.95-6.66,8.39-10.46.22-.34.43-.68.64-1.02.28-.46.05-.09,0,0,.29-.49.57-.98.85-1.48.55-.99,1.09-2,1.59-3.03,1.02-2.05,1.94-4.17,2.76-6.34.83-2.18,1.56-4.41,2.19-6.69.1-.35.19-.71.29-1.07,0-.02,0-.04.02-.07.13-.59.27-1.16.4-1.75.26-1.17.49-2.36.69-3.55.05-.29.09-.59.13-.89,3.2,2.34,6.43,4.62,9.68,6.87-.96,5.57-2.48,10.92-4.34,15.86-7.15,19.02-21.64,35.08-42.11,39.43-7.91,1.68-16.9,1.1-25.67-2.09-2.86,9.42-7.18,17.99-12.35,25.85-5.4,8.21-11.82,15.59-19.74,21.28-7.7,5.53-17.21,9.05-27.82,8.89-6.64-.1-13.79-1.55-20.61-4.53-3.8,6.78-9.7,11.96-16.46,15.61-3.99,2.16-8.34,3.79-12.91,4.94-4.42,1.12-9.14,2.27-14.04,2.07-1.6-.07-3.25-.26-4.91-.59ZM945.4,50.21c.81.91,1.66,1.79,2.53,2.64.5.48,1.01.96,1.53,1.42.15.13.79.68.9.78.78.62,1.57,1.22,2.38,1.8,1.66,1.18,3.38,2.23,5.13,3.19.16-.81.33-1.61.47-2.43.4-2.32.71-4.68.92-7.08.1-1.15.17-2.31.22-3.48.02-.44.03-.88.04-1.32,0-.06,0-.85,0-1.14-.02-2.36-.15-4.74-.39-7.14-.13-1.29-.29-2.58-.49-3.87-.09-.6-.2-1.21-.3-1.82,0-.06-.01-.09-.02-.13-.02-.08-.04-.16-.05-.23-.51-2.53-1.16-5.08-1.94-7.61-.22-.7-.44-1.41-.68-2.11-.08-.25-.18-.5-.26-.75-.26-.79.17.47.18.46.11-.16-.68-1.47-.77-1.72,0,0,0,0,0-.01-.09-.12-.18-.25-.26-.38.2.28.3.3-.06-.1-.01-.02-.03-.05-.05-.07.01.02.03.04.04.07-.01-.01-.02-.02-.03-.04-.07-.07-.11-.12-.16-.17-.15-.11-.3-.22-.46-.31-.07-.04-.36-.2-.53-.29-.1-.04-.18-.08-.2-.08-.31-.1-.61-.21-.92-.3-.16-.04-.68-.13-.82-.16-1.13-.09-2.22-.04-3.27.14-.04,0-.07.01-.1.02-.24.07-.47.14-.7.22-.39.14-.77.29-1.14.46-.85.39-1.58.91-2.37,1.37-.12.12-.27.22-.39.34-.31.28-.61.57-.9.88-.62.65-1.16,1.37-1.69,2.11-.04.06-.06.08-.09.12-.02.03-.02.05-.05.09-.2.38-.4.76-.59,1.16-.4.85-.74,1.73-1.02,2.65-.04.13-.08.27-.12.41-.06.38-.16.74-.22,1.12-.17.99-.29,2-.35,3.02-.01.19.01.51-.01.71,0,.36.01.72.03,1.09.06,1,.16,2,.31,3.01,0-.02,0,.09.03.22,0,0,0,0,0,.01.12.51.22,1.02.36,1.53.26,1.01.59,2.02.93,3.03.1.24.21.49.19.46.18.43.37.85.58,1.28.27.56.55,1.12.85,1.68.07.14.16.28.25.42.61.9,1.17,1.82,1.82,2.7.41.56.84,1.11,1.27,1.66,0,0,0,0,0,.01.15.17.29.33.44.5ZM870.43,104.74c.43.48.87.94,1.33,1.39.9.9,1.85,1.77,2.82,2.58.15.11.6.47.76.58.51.39,1.03.76,1.55,1.13.52.36,1.05.72,1.59,1.06.09-.28.18-.56.26-.84.05-.2.09-.4.14-.6.09-.43.18-.87.25-1.31.19-1.11.33-2.24.4-3.39,0,0,0-.05,0-.08.02.08.04.04.02-.33,0-.04,0-.08,0-.11,0-.08.01-.13.02-.14-.01,0-.02.02-.03.04-.02-.45-.04-.91-.09-1.36-.02-.2-.14-.98-.19-1.32-.06-.27-.13-.58-.16-.69-.14-.55-.29-1.1-.47-1.64-.05-.16-.22-.55-.29-.78-.2-.47-.4-.94-.62-1.4-.18-.36-.56-.91-.73-1.32-.07-.11-.13-.21-.2-.31-.28-.42-.61-.81-.9-1.23-.03-.02-.04-.03-.07-.06-.16-.16-.32-.33-.48-.49-.25-.24-.65-.55-.73-.62-.28-.19-.55-.39-.84-.57-.11-.07-.22-.13-.33-.19-.04-.01-.06-.02-.11-.04-.53-.17-1.06-.32-1.59-.48.81.24.01,0-.4,0-.43-.01-.91.14-1.34.08-.15.05-.3.09-.44.15-.44.18-.82.45-1.24.65.15-.07.23-.11.27-.13-.08.05-.3.17-.45.33-.29.29-.55.61-.81.94-.04.05-.12.19-.19.31,0,.02-.02.04-.02.05-.07.17-.29.52-.43.85,0,.03,0,.08-.02.15-.03.26-.1.51-.14.77-.03.19-.04.4-.07.59-.02.11-.03.18-.05.23.04.26.09.54.1.66,0,.03,0,.04,0,.07.04.17.08.33.12.5.08.28.47,1.3.43,1.3.15.31.32.67.39.8.11.22.24.44.34.66.68,1.02,1.38,1.99,2.1,2.98,0,.01,0,.01.02.02.17.19.34.38.51.57Z"/>
          </g>
          <g>
            <path class="cls-21" d="M183.52,807.42s-.04.02,0,0h0Z"/>
            <path class="cls-21" d="M173.34,795.23c0,.1-.01.29-.03.43,0,.03,0,.06,0,.1.07-.09.05-.42.02-.52Z"/>
            <path class="cls-21" d="M98.5,876.05s0,0,0,0c-.02-.04-.04-.07-.06-.1.02.03.04.07.06.1Z"/>
            <path class="cls-21" d="M216.28,754.43c.15.82.29,1.64.44,2.46.46,3.34.98,6.69,1.55,10.05-.49-.14-.97-.29-1.46-.39-.09,0-.8-.12-1.01-.15-.37-.04-.74-.08-1.11-.11-.83-.06-1.65-.07-2.46-.04-2.03.09-4.02.34-5.98.64-2.23.34-2.99.49-5.26,1.09-3.94,1.03-7.71,2.45-11.2,4.3-.91.48-1.8.99-2.67,1.53-.35.22-.69.44-1.03.66-.21.14-.42.28-.63.43-1.55,1.14-3.01,2.39-4.36,3.76-.64.65-1.24,1.33-1.82,2.03.11.09.23.17.34.27,5.15,4.25,9.51,9.26,12.47,15.22,2.97,5.99,3.7,12.52,1.72,17.65-1.59,4.14-5.49,7.37-10.45,6.75-5.46-.68-10.33-4.7-13.61-9.88-5.55-8.75-6.53-18.15-4.74-26.3-.35-.13-.71-.26-1.06-.38-1.1-.37-2.2-.7-3.3-.98-.55-.14-1.11-.27-1.66-.39-.14-.03-.89-.17-1.05-.21-4.47-.76-8.88-.84-13.05-.29-2.2.29-3.14.51-5.38,1.2-1.99.61-3.91,1.37-5.76,2.24-3.91,1.85-6.9,3.85-9.85,6.31-3.13,2.6-5.98,5.52-8.64,8.63-1.37,1.61-2.69,3.27-3.96,4.97-.62.82-1.22,1.66-1.81,2.51-.3.42-.59.85-.88,1.28-.17.25-.33.49-.5.74,0,0-.09.14-.16.24-.09.14-.27.42-.3.46-.16.25-.32.51-.48.76-.28.45-.55.89-.82,1.34-.5.84-.99,1.68-1.47,2.54-1.07,1.91-2.07,3.87-3.01,5.87-.82,1.76-1.58,3.56-2.3,5.39,8.04,5.23,14.91,12.41,19.46,21.23,5.17,10.02,5.97,21.39,2.85,30.01-1.49,4.11-4.1,7.4-7.54,9.71-3.66,2.46-9.14,3.65-14.27,1.32-6.92-3.15-9.94-10.19-11.81-16.84-1.63-5.8-2.59-11.67-2.97-17.36-.52-7.79.14-15.24,1.6-22.34-1.11-.34-2.22-.65-3.33-.9-.2-.05-1.28-.25-1.23-.25-.45-.07-.9-.15-1.35-.2-.98-.13-1.96-.22-2.94-.27-2.14-.12-4.25-.08-6.31.11-1.1.1-2.19.25-3.26.44-.05,0-.38.07-.54.1-.12.03-.26.06-.27.06-.49.11-.98.23-1.46.36-3.9,1.02-7.56,2.57-10.94,4.5-.91.52-1.8,1.07-2.67,1.65-.4.26-.8.53-1.19.81-.22.16-.44.32-.65.49-1.58,1.2-3.09,2.48-4.54,3.85-3.13,2.95-5.94,6.25-8.4,9.84-.22.32-.44.64-.65.97-.29.44-.05.09,0,0-.29.46-.58.93-.86,1.4-.56.94-1.11,1.9-1.63,2.87-1.04,1.95-1.99,3.96-2.85,6.04-.86,2.07-1.63,4.21-2.31,6.39-.11.34-.21.68-.31,1.02,0,.02,0,.04-.02.07-.14.56-.3,1.11-.44,1.67-.28,1.12-.54,2.26-.77,3.4-.06.28-.1.57-.15.85-3.02-2.35-6.06-4.65-9.13-6.91,1.09-5.35,2.72-10.45,4.66-15.17,7.46-18.13,21.91-33.19,41.79-36.78,7.68-1.39,16.33-.56,24.69,2.78,3.04-9,7.46-17.14,12.68-24.57,5.46-7.76,11.86-14.68,19.67-19.94,7.59-5.11,16.87-8.22,27.1-7.75,6.4.29,13.25,1.91,19.74,4.98,3.86-6.43,9.71-11.24,16.34-14.57,3.91-1.96,8.16-3.41,12.59-4.38,4.29-.95,8.89-1.92,13.6-1.58,1.54.11,3.13.35,4.72.72ZM108.18,846.38c-.75-.9-1.54-1.78-2.36-2.62-.47-.48-.95-.95-1.43-1.41-.14-.13-.74-.68-.84-.78-.73-.62-1.48-1.23-2.24-1.8-1.57-1.19-3.2-2.25-4.86-3.23-.18.77-.36,1.54-.53,2.33-.46,2.23-.83,4.5-1.1,6.8-.13,1.11-.23,2.22-.32,3.35-.03.42-.05.85-.08,1.28,0,.06-.03.82-.04,1.1-.05,2.27,0,4.57.17,6.9.09,1.24.2,2.49.36,3.75.07.59.16,1.17.23,1.76,0,.06.01.09.02.13.02.07.03.15.04.22.42,2.46.97,4.93,1.64,7.4.19.69.38,1.37.59,2.06.07.24.16.49.23.73.22.77-.15-.46-.16-.45-.11.15.61,1.44.69,1.69,0,0,0,0,0,0,.08.12.16.25.24.37-.18-.28-.28-.3.06.1.01.02.03.05.04.07-.01-.02-.03-.04-.04-.07.01.01.02.02.03.04.06.07.11.12.15.17.14.11.29.22.43.32.07.05.34.2.5.3.09.04.18.08.19.08.3.1.58.22.88.31.16.05.65.14.78.18,1.08.12,2.14.1,3.15-.04.04,0,.07,0,.1-.01.23-.06.46-.12.68-.19.38-.12.75-.26,1.12-.41.83-.35,1.55-.83,2.33-1.25.12-.11.26-.21.39-.31.31-.26.61-.53.9-.82.62-.61,1.16-1.29,1.69-1.99.04-.05.06-.08.09-.11.02-.03.02-.05.05-.09.21-.36.41-.72.6-1.1.41-.81.76-1.65,1.06-2.53.04-.13.08-.26.13-.39.07-.36.17-.71.25-1.07.19-.95.34-1.92.42-2.91.02-.18,0-.49.03-.69,0-.35,0-.7,0-1.05-.02-.96-.09-1.94-.21-2.92,0,.01,0-.08-.02-.22,0,0,0,0,0-.01-.1-.49-.19-.99-.3-1.48-.22-.99-.51-1.96-.81-2.95-.09-.23-.19-.48-.17-.45-.16-.42-.34-.83-.52-1.25-.24-.55-.5-1.1-.77-1.64-.07-.13-.15-.27-.23-.42-.56-.89-1.08-1.79-1.67-2.66-.38-.55-.78-1.1-1.18-1.64,0,0,0,0,0-.01-.14-.16-.27-.33-.41-.49ZM182.1,796.01c-.4-.47-.82-.93-1.24-1.38-.84-.9-1.73-1.76-2.65-2.57-.14-.11-.57-.47-.71-.59-.48-.39-.97-.77-1.46-1.14-.49-.37-.99-.72-1.5-1.07-.09.27-.19.54-.28.8-.05.19-.1.38-.15.57-.1.41-.19.83-.28,1.25-.22,1.06-.38,2.15-.49,3.26,0,0,0,.05,0,.08-.02-.08-.04-.04-.03.32,0,.04,0,.07,0,.11,0,.07-.02.13-.03.13.01,0,.02-.02.03-.03,0,.44.02.87.05,1.32.01.19.11.94.14,1.28.05.26.11.57.13.67.12.53.25,1.07.4,1.6.04.15.2.53.25.76.18.46.35.92.56,1.37.16.35.51.9.66,1.3.06.1.12.21.19.31.26.41.56.8.83,1.21.03.02.03.03.07.06.15.15.3.33.45.49.23.24.61.55.68.62.26.19.52.39.79.57.1.07.21.13.31.19.04.01.06.02.11.04.51.18,1.01.34,1.52.51-.78-.26,0,0,.38.02.42.03.88-.11,1.29-.03.14-.04.29-.08.43-.13.43-.16.8-.41,1.22-.59-.14.06-.22.1-.26.12.08-.04.29-.16.45-.3.29-.27.55-.57.81-.88.04-.05.13-.18.19-.29,0-.02.02-.04.02-.05.07-.16.3-.49.44-.8,0-.03,0-.07.02-.14.04-.25.11-.49.15-.74.03-.19.05-.38.09-.57.02-.1.04-.18.05-.22-.03-.26-.07-.52-.07-.64,0-.03,0-.04,0-.07-.03-.16-.07-.32-.1-.49-.06-.27-.41-1.27-.38-1.26-.13-.3-.29-.66-.35-.79-.1-.22-.22-.43-.31-.65-.62-1-1.28-1.96-1.94-2.94,0-.01,0-.01-.02-.02-.16-.19-.31-.38-.47-.57Z"/>
          </g>
          <path class="cls-21" d="M743.21,947.65c1.49-.66,2.95-1.39,4.38-2.17,5.53-3.04,10.6-6.92,15.62-10.76,9.05-6.93,18.1-13.87,27.16-20.8,8.03-6.15,13.26-11.95,14.95-22.08,1.5-8.93-.07-18.65,2.56-27.32.33-7.57,2.77-14.8,8.86-20.74,4.61-4.5,10.65-7.1,16.56-9.42,3.77-1.49,8.44-2.59,11.83-5.07-5-10.15-10.34-20.23-15.59-30.15-11.01,4.29-22.7,18.93-29.81,28.02-3.81,4.88-7.07,10.49-7.56,16.66-.91,11.51,7.93,22.44,5.9,33.81-1.17,6.56-5.9,12.05-11.49,15.66-11.36,7.33-24.46,11.37-35.86,18.44-11.47,7.11-21.54,13.17-35.3,15.7,7.03,6.35,14.07,12.69,21.1,19.04.94.85,1.95,1.73,3.2,1.94,1.19.2,2.39-.26,3.5-.74Z"/>
          <path class="cls-24" d="M395.27,895.62c.4,1.31.87,2.59,1.39,3.85,2,4.89,4.74,9.49,7.46,14.04,4.9,8.2,9.8,16.41,14.7,24.61,4.35,7.28,8.68,12.19,16.94,14.58,7.29,2.11,15.53,1.74,22.5,4.76,6.27,1,12.05,3.73,16.42,9.37,3.3,4.27,4.88,9.55,6.25,14.69.87,3.28,1.34,7.27,3.08,10.34,8.93-3.19,17.84-6.66,26.61-10.08-2.51-9.58-13.58-20.73-20.46-27.51-3.7-3.64-8.05-6.9-13.14-7.9-9.5-1.87-19.45,4.44-28.72,1.66-5.35-1.6-9.46-6.07-11.93-11.08-5.01-10.16-7.11-21.46-11.9-31.64-4.82-10.24-8.89-19.2-9.67-30.9-5.96,5.24-11.92,10.49-17.88,15.73-.8.7-1.63,1.46-1.92,2.48-.28.98-.02,2.02.28,2.99Z"/>
          <path class="cls-23" d="M934.63,1126.4c3.79,2.15,7.74,3.49,10.92,1.8,5.94-3.15,7.96-16.04,14.25-18.01,3.62-1.14,8.05,1.74,11.89,6.16,7.79,8.97,14.64,20.9,22.32,30.01.46.54.9,1.07,1.35,1.61,3-3.35,5.99-6.69,8.99-10.04,1.71-1.91,3.78-2.49,5.73-2.21-3.09-3.74-6.32-7.03-9.53-10.25-6.74-6.77-13.48-13.53-20.22-20.3-5.98-6-10.75-9.27-16.3-7.41-4.9,1.64-9.04,6.68-14.24,7.09-3.8,2.35-8.23,2.42-13.39-1.67-3.9-3.1-7.42-8.34-10.75-13.53-2.13-3.31-4.4-7.68-6.87-10.26-3.08,8.7-5.99,17.71-8.86,26.59,6.18,9.7,17.66,16.42,24.72,20.44Z"/>
          <polygon class="cls-12" points="53.26 641.6 39.72 630.22 22.67 634.92 29.31 618.53 19.57 603.76 37.21 605.01 48.25 591.19 52.51 608.36 69.07 614.58 54.06 623.93 53.26 641.6"/>
          <circle class="cls-15" cx="251.81" cy="993.87" r="32.32" transform="translate(-162.89 56.21) rotate(-9.64)"/>
          <polygon class="cls-21" points="1083.08 1130.13 1102.29 1106.41 1093.63 1077.13 1122.14 1088.07 1147.31 1070.79 1145.71 1101.28 1169.92 1119.88 1140.43 1127.78 1130.23 1156.56 1113.6 1130.95 1083.08 1130.13"/>
          <circle class="cls-15" cx="1094.18" cy="182.45" r="32.32" transform="translate(13.47 432.61) rotate(-22.5)"/>
          <g>
            <path class="cls-6" d="M606.09,752.64c8.13,1.85,16.33,3.41,24.57,4.63,4.76.7,9.53,1.3,14.31,1.8,2.34.24,4.7.4,7,.88,1.02.21,1.52.35,2.57.84.14.07.28.14.42.21.09.07.31.21.34.25.05.05.15.15.22.23.05.06.1.12.15.18.01.02.03.04.05.06.01.03.03.05.04.08.02.04.04.12.07.19.03.15.07.29.1.44.02.06.04.13.07.2,0-.01-.01-.02-.02-.04-.02-.05-.04-.08-.06-.11.03.08.06.18.06.28,0,.15.02.31.03.46.01.37,0,.73,0,1.1-.01.36-.15,1.17-.01.38-.07.43-.13.87-.21,1.3-.33,1.69-.85,3.34-1.46,4.95-.15.38-.3.76-.45,1.14-.01.03-.02.05-.03.07-.07.16-.14.33-.22.49-.35.79-.72,1.56-1.09,2.33-4.03,8.24-7.69,16.71-6.33,26.1,1.31,9.06,7.74,18,16.98,20.03,6.7,1.47,13.15-1.75,18.68-5.19,5.69-3.54,11.53-8.51,18.23-9.04.82-.06,1.18-.04,2.23.16.2.04.39.08.59.13,0,0,0,0,0,0,.03.01.05.03.11.05.17.07.34.13.51.21.06.03.33.16.5.24,0,0,.02.01.02.02.18.13.37.27.56.4,0,0,.02.02.03.02.06.06.11.12.14.15.06.06.11.12.17.19.1.16.35.47.53.72.01.02.01.03.03.05.08.16.16.32.23.49.18.39.32.79.49,1.18.02.05.03.08.05.11.03.12.06.23.07.25.14.49.27.98.38,1.47.2.87.34,1.76.48,2.64,0,0,0,0,0,.02.02.2.04.39.06.59.05.52.09,1.04.12,1.56.29,4.59.08,9.23.06,13.83-.03,5.03-.06,10.06-.09,15.09-.01,2.22-.03,4.45-.04,6.67,2.7.35,5.4.73,8.1,1.15.05-8.96.1-17.93.16-26.89.05-8.57-.55-17.76-6.46-24.54-3.1-3.56-7.44-5.51-12.14-5.44-3.89.06-7.61,1.69-10.97,3.54-5.63,3.1-10.69,7.39-16.68,9.81-.13.05-.53.19-.65.23-.34.12-.69.23-1.04.33-.74.21-1.49.38-2.25.5-.35.05-.7.1-1.06.13-.13.01-.55.03-.74.04-.19,0-.62-.02-.74-.04-.41-.03-.83-.09-1.24-.16-.36-.06-.73-.21-1.09-.23,0,0,0,0,0,0-.17-.06-.33-.11-.5-.17-.42-.16-.82-.39-1.24-.56,0,0-.01,0-.02,0-.2-.13-.41-.26-.6-.4-.16-.11-.31-.23-.47-.34-.2-.15-.3-.21-.34-.23-.2-.21-.4-.46-.54-.61-.09-.09-.17-.19-.25-.28,0,0,0,.02,0,.03,0,0,0-.03-.01-.04-.04-.05-.08-.09-.13-.14-.37-.4-.16-.26,0-.08-.23-.36-.7-.96-.75-1.04-.04-.07-.07-.11-.1-.14-.03-.05-.06-.11-.09-.19-.21-.42-.4-.84-.57-1.27-.08-.19-.17-.46-.22-.59-.14-.47-.28-.94-.39-1.42-.1-.46-.17-.92-.26-1.38.15.76-.01-.09-.03-.4-.09-1.15-.07-2.3,0-3.45,0,.02.02-.21.03-.35.02-.13.04-.36.04-.35.07-.51.15-1.02.24-1.53.2-1.09.46-2.17.76-3.24.53-1.88,1.32-4.03,2.02-5.62,2.92-6.68,7.19-13.24,7.01-20.81-.1-4.28-1.82-8.5-4.85-11.56-3.94-3.97-9.16-5.03-14.51-5.56-9.57-.94-19.1-2.28-28.56-4.05-2.94-.55-5.87-1.16-8.79-1.79-.43,2.89-.87,5.78-1.33,8.66Z"/>
            <path class="cls-6" d="M655.95,762.48c-.05-.14-.09-.19,0,0h0Z"/>
            <path class="cls-6" d="M656.59,808.95c0-.06-.06-.15-.13-.23.07.1.11.17.12.22,0,0,0,0,0,0Z"/>
          </g>
          <g>
            <path class="cls-9" d="M329.59,38.37c.34,8.33.98,16.65,1.96,24.93.56,4.78,1.24,9.54,2.01,14.28.38,2.32.85,4.64.99,6.99.06,1.04.06,1.56-.14,2.7-.03.15-.06.31-.09.46-.04.1-.13.35-.15.4-.03.06-.1.18-.16.28-.05.06-.09.13-.13.19-.02.02-.03.04-.05.06-.02.02-.04.04-.07.06-.04.03-.1.07-.17.12-.13.07-.26.14-.39.21-.05.03-.12.07-.17.12.01-.01.02-.02.03-.03.04-.04.07-.06.09-.08-.07.05-.16.11-.26.14-.15.05-.29.1-.44.15-.35.11-.71.2-1.06.28-.35.08-1.17.16-.37.09-.44.04-.87.1-1.31.14-1.72.12-3.45.05-5.16-.12-.41-.04-.81-.09-1.22-.14-.03,0-.05,0-.07,0-.18-.03-.36-.05-.53-.08-.85-.13-1.7-.28-2.54-.45-9.01-1.73-18.14-3.04-26.84.72-8.4,3.63-15.35,12.18-14.88,21.63.34,6.85,5.13,12.24,9.9,16.67,4.91,4.56,11.23,8.89,13.5,15.22.28.78.35,1.13.43,2.2.02.2.02.4.03.6,0,0,0,0,0,0,0,.03-.01.06-.02.12-.02.18-.04.36-.07.55-.01.07-.07.36-.1.54,0,0,0,.02,0,.03-.08.21-.17.43-.24.65,0,0,0,.02-.01.03-.04.07-.08.14-.11.18-.05.07-.09.14-.14.22-.13.14-.36.46-.56.7-.02.02-.02.02-.05.04-.14.12-.27.24-.41.35-.33.27-.67.52-1.01.78-.04.03-.07.05-.1.07-.1.06-.2.12-.22.13-.43.26-.88.51-1.32.75-.79.42-1.61.79-2.42,1.15,0,0,0,0-.02,0-.18.07-.37.14-.55.21-.49.18-.98.36-1.47.53-4.36,1.48-8.89,2.5-13.34,3.67-4.86,1.29-9.72,2.58-14.58,3.86-2.15.57-4.3,1.14-6.45,1.71.37,2.7.71,5.41,1.01,8.12,8.67-2.3,17.33-4.59,26-6.89,8.29-2.2,17-5.18,21.99-12.65,2.62-3.93,3.37-8.62,2.08-13.14-1.08-3.74-3.62-6.9-6.29-9.66-4.47-4.63-9.93-8.38-13.84-13.53-.08-.12-.33-.46-.39-.56-.2-.3-.4-.61-.59-.92-.4-.66-.76-1.34-1.07-2.04-.14-.33-.28-.65-.4-.99-.04-.12-.17-.52-.23-.7-.04-.18-.14-.6-.16-.73-.08-.41-.13-.82-.17-1.23-.03-.36,0-.76-.06-1.11,0,0,0,0,0,0,.01-.18.02-.35.04-.53.05-.45.16-.9.21-1.35,0,0,0-.01,0-.02.07-.23.14-.46.23-.69.07-.18.14-.36.21-.54.09-.24.12-.35.13-.39.15-.25.34-.51.45-.68.07-.11.14-.21.21-.32,0,0-.02.01-.03.01,0,0,.02-.01.04-.02.03-.05.07-.11.1-.16.29-.46.21-.22.08-.01.28-.32.74-.92.81-1,.05-.06.09-.1.11-.13.04-.04.1-.08.16-.14.35-.31.71-.6,1.08-.89.17-.13.4-.29.51-.37.42-.26.84-.51,1.27-.75.41-.22.84-.41,1.26-.61-.69.35.08-.03.38-.14,1.09-.39,2.2-.67,3.33-.9-.02,0,.21-.04.34-.07.13-.02.36-.06.35-.05.51-.07,1.02-.12,1.54-.17,1.11-.09,2.21-.12,3.32-.11,1.95.02,4.24.22,5.95.48,7.21,1.07,14.66,3.48,21.92,1.31,4.11-1.22,7.73-3.98,9.88-7.7,2.8-4.84,2.46-10.16,1.57-15.46-1.6-9.49-2.8-19.03-3.56-28.62-.24-2.98-.42-5.97-.57-8.95-2.9.34-5.8.68-8.71.99Z"/>
            <path class="cls-9" d="M333.15,89.06c.12-.08.16-.14,0,0h0Z"/>
            <path class="cls-9" d="M288.46,101.85c.06-.02.13-.09.19-.18-.08.09-.14.15-.18.17,0,0,0,0,0,.01Z"/>
          </g>
          <path class="cls-13" d="M269.3,621.71c.92.35,1.84.73,2.73,1.16.24.12,1.62.91,1.04.53.24.15.53.34.62.4.49.31.96.62,1.43.95.27.19,1.65,1.31.83.59-.82-.72.52.45.78.68.38.33.75.67,1.11,1.01.34.32.66.65.99.97.16.19.36.38.51.55.73.84,1.43,1.7,2.11,2.59.35.47.8.94,1.07,1.47-.62-1.2-.01,0,.31.49,1.21,1.92,2.27,3.92,3.25,5.96.1.23.37.83.46,1.04.2.49.4.99.59,1.49.44,1.16.84,2.34,1.21,3.53.34,1.1.64,2.22.91,3.34.08.34.16.69.24,1.04,0,0,.04.21.08.36.03.15.07.35.07.36.06.35.12.7.18,1.04,1.77,10.87-.08,21.96-2.78,32.52-2.98,11.63-7.19,22.89-10.51,34.42-2.6,9.01-4.63,18.51-2.99,27.91,1.77,10.16,7.8,19.79,17.88,23.45,5.33,1.94,10.72,1.81,16.29,1.43,2.36-.16,4.72-.3,7.09-.14.11.02.78.09.94.12.61.11,1.19.3,1.79.41t0,0c.17.07.33.13.5.2.02,0,.17.08.33.15.11.07.22.14.33.21.02.01.04.03.05.04.27.29.37.4.39.4.14.16.26.28.33.35.26.42.47.9.7,1.31.06.1.09.16.12.22.02.05.03.1.06.18.21.56.41,1.12.59,1.69.15.48.28.97.39,1.47.07.4.13.8.18,1.2.66,5.35-.8,10.57-2.68,15.54-2.15,5.69-4.84,11.17-7.08,16.82-2.27,5.75-4.3,11.59-6.08,17.5-1.63,5.43-3.04,10.93-4.24,16.47,3.65,4.37,7.15,8.85,10.52,13.42.99-5.22,2.17-10.41,3.53-15.54,3.27-12.29,7.8-24.02,12.86-35.67,2.57-5.91,4.73-11.87,5.2-18.35.39-5.39-.95-10.96-3.54-15.69-3.15-5.75-8.37-10.41-14.59-12.54-5.31-1.82-10.79-1.38-16.29-1.04-1.18.07-2.37.14-3.55.15-.63,0-1.26,0-1.89-.03-.27-.01-.54-.03-.8-.05-.1,0-.18-.01-.25-.02-.03,0-.1-.02-.23-.05-.62-.1-1.22-.24-1.82-.38-.15-.03-.25-.05-.31-.06-.04-.02-.07-.04-.14-.06-.31-.14-.62-.29-.94-.44-.19-.14-.5-.31-.65-.39-.03-.03-.07-.07-.1-.1-.22-.28-.52-.56-.71-.81-.02-.02-.02-.03-.04-.05,0-.02,0-.02-.02-.04-.23-.43-.48-.86-.71-1.28-.02-.05-.07-.12-.12-.2-.01-.03-.02-.06-.03-.1-.35-.96-.7-1.91-.97-2.9-.05-.18-.19-.77-.26-1.04-.04-.26-.19-1.01-.21-1.14-.17-1.07-.28-2.15-.36-3.23-.15-2.22-.13-4.44.03-6.66,0-.12.06-.74.07-.86.05-.5.12-1,.18-1.5.16-1.17.36-2.33.59-3.48.51-2.53,1.19-5.02,1.89-7.5,3.36-11.98,7.77-23.65,10.89-35.7,2.89-11.16,4.94-23.21,3.18-34.72-1.65-10.73-5.92-20.99-12.57-29.59-3.92-5.07-8.86-9.64-14.48-12.96-.2.28-.41.57-.62.85-.62.86-1.32,1.51-2.07,1.99-1.14,1.36-2.3,2.7-3.45,4.05.26.08.58.19.7.22Z"/>
          <circle class="cls-13" cx="506.49" cy="821.9" r="28.83"/>
          <circle class="cls-24" cx="747.74" cy="1233.6" r="39.25"/>
          <circle class="cls-3" cx="830.02" cy="1111.29" r="28.83" transform="translate(-64.62 51.33) rotate(-3.41)"/>
          <path class="cls-9" d="M834.34,1052.82c5.39,12,6.51,26.2,2.73,38.76-4.22,14.01-14.98,27.54-30.49,28.79-8.64.7-16.5-4.27-19.77-12.26-3.03-7.39-2.81-16.31-1.01-23.98,3.55-15.13,14.18-28.55,27.91-35.75,2.12-1.11,4.31-2.06,6.53-2.92-1.89-2.3-4.03-4.42-6.43-6.34-16.59-13.26-38.91-14.08-57.92-6.57,1.22,5.32,1.56,10.94,1.09,16.66-.61,7.42-2.38,14.69-4.45,21.82-2.53,8.74-5.01,18.24-10.59,25.61-4.78,6.32-11.74,10.63-19.81,10.82-7.93.18-15.16-4.82-18.68-11.78-6.98-13.84.86-30.2,8.75-41.77,8.26-12.1,19.27-22.29,32.32-28.93-4.98-9.45-15.68-14.31-26.45-14.34-13.83-.04-26.82,8.04-35.62,18.27-1.83,2.13-4.42,1.57-6.41-.18-1.61-1.41-3.96-5.3-2.16-7.39,5.24-6.09,11.21-11.39,18.35-15.15,14.68-7.74,32.71-8.3,46.79,1.27,5.68,3.86,9.9,8.74,12.84,14.25,22.47-8.46,49.29-4.17,67.38,11.21.82,2.26,2.77,4.16,5.08,4.88,1.48,1.6,2.89,3.28,4.19,5.06,10.21-2.52,20.97-2.76,31.4-.96,7.11,1.22,14.38,3.26,21.19,6.26-2.54,2.19-5,4.48-7.32,6.88-12.54-4.26-26.57-5.23-39.44-2.21ZM747.57,1036.48c-2.51,1.4-4.94,2.94-7.24,4.64-11.25,8.29-20.41,19.52-26.38,32.16-2.34,4.96-4.04,10.79-3.45,16.32.12,1.19.36,2.43.84,3.53.2.46.85,1.41.89,1.45,1.6,1.75,3.85,2.38,6.16,2.43,15.88.38,21.14-19.06,24.63-31.04,2.71-9.29,5.4-19.6,4.54-29.49ZM829.56,1068.95c-.36-4.83-1.52-9.4-3.36-13.66-6.37,2.47-12.27,6.06-17.32,10.86-9.25,8.79-15.49,21.56-14.71,34.49.14,2.35.23,5.87,2.01,7.69,1.61,1.65,4.48,1.77,6.62,1.65,6.36-.38,12.02-4.04,16.27-8.59,8.02-8.59,11.35-20.91,10.5-32.45Z"/>
          <path class="cls-3" d="M140.47,1063.63c-10.81-.3-21.86.12-32.18,3.57-5.26,1.76-10.27,4.35-14.48,7.99-4.13,3.57-7.32,8.02-9.86,12.83-4.99,9.46-7.85,19.93-14.06,28.74-9.96,14.14-26.25,23.6-43.38,25.88-.32,1.29-.62,2.58-.98,3.86-.36,1.64-.71,3.28-1.06,4.92,1.04,1.82,1.12,3.66.61,5.3,16.92-.58,33.39-8.24,44.9-20.73,3.31-3.6,6.23-7.53,8.59-11.82,2.65-4.8,4.65-9.93,6.79-14.97,2.16-5.07,4.47-10.13,7.73-14.61,3.28-4.51,7.6-8.1,12.52-10.71,10.11-5.36,21.94-6.67,33.22-6.74,2.1-.01,4.2.02,6.3.07-1.57-4.52-3.12-9.06-4.64-13.6Z"/>
          <path class="cls-5" d="M37.79,1080.96c1-6.68,4.43-12.85,10.12-15.79,5.85-3.02,12.63-2.47,17.34,2.61,1.68,1.81,2.89,4.09,3.53,6.52,3.01-1.96,6.27-3.34,9.9-3.42,2.7-.06,5.45.55,7.82,1.96,2.94.83,5.66,2.47,7.78,5.06,4.5,5.5,4.47,14.27,1.12,20.49-3.63,6.75-9.71,10.94-15.85,14.52-7.5,4.36-15.39,7.88-23.53,10.44-1.99.62-4.01-.44-5.02-2.36-3.36-6.33-7.02-12.58-9.81-19.25-2.69-6.42-4.46-13.66-3.4-20.79Z"/>
          <polygon class="cls-22" points="24.14 228.81 39.93 246.06 63.08 242.83 51.55 263.17 61.77 284.2 38.87 279.52 22.03 295.74 19.4 272.51 -1.23 261.5 20.05 251.82 24.14 228.81"/>
          <polygon class="cls-13" points="556.08 1029.7 562.57 1058.38 589.88 1069.29 564.61 1084.33 562.67 1113.67 540.56 1094.28 512.05 1101.51 523.66 1074.49 507.98 1049.61 537.26 1052.3 556.08 1029.7"/>
          <path class="cls-8" d="M557.86,306.65c1.36-8.34-.44-17.04-6.26-22.78-5.98-5.9-14.47-7.92-22.18-3.72-2.74,1.49-5.1,3.73-6.83,6.37-2.91-3.52-6.36-6.44-10.76-7.97-3.27-1.13-6.86-1.49-10.31-.75-3.91-.17-7.86.71-11.45,2.96-7.62,4.78-10.97,15.22-9.29,23.94,1.83,9.46,7.62,16.85,13.74,23.53,7.47,8.14,15.74,15.44,24.7,21.69,2.19,1.53,5.06,1.05,7.04-.83,6.54-6.21,13.43-12.21,19.41-19.05,5.76-6.59,10.72-14.5,12.17-23.41Z"/>
          <path class="cls-11" d="M247.47,1200.74c1.52-9.35-.49-19.09-7.01-25.53-6.7-6.61-16.21-8.87-24.85-4.17-3.07,1.67-5.72,4.18-7.66,7.14-3.26-3.95-7.13-7.22-12.06-8.93-3.66-1.27-7.69-1.67-11.55-.84-4.38-.19-8.81.8-12.83,3.32-8.54,5.35-12.29,17.05-10.4,26.83,2.05,10.6,8.54,18.88,15.4,26.36,8.37,9.12,17.64,17.31,27.67,24.31,2.45,1.71,5.67,1.18,7.89-.93,7.33-6.96,15.05-13.68,21.76-21.35,6.45-7.38,12.02-16.25,13.64-26.23Z"/>
        </g>
        <g>
          <path class="cls-9" d="M-271.57,698.85c5.67,2.72,11.57,4.75,17.74,5.96,11.87,2.34,24.2,1.91,35.91-.99-3.05-11.17-1.92-23.18,2.39-34.16,5.06-12.88,14.59-27.84,28.28-32.64,16.78-5.88,30.65,11.77,29.18,27.47-1.51,16.15-15.01,29.6-27.89,38.11-6.06,4.01-12.64,7.19-19.5,9.56,2.86,4.35,6.81,7.97,11.03,10.97,14.07,9.97,32.81,14.97,50.27,12.82-4.1-12.61-3.69-26.97,1.46-39.15,5.74-13.59,17.99-25.99,33.68-25.57,8.73.24,16.08,6.06,18.49,14.43,2.23,7.74,1.06,16.65-1.58,24.15-5.2,14.79-17.3,27.09-31.85,32.82-2.25.89-4.54,1.6-6.86,2.22,1.64,2.51,3.56,4.87,5.76,7.05,15.19,15.08,37.48,18.32,57.35,12.85-.64-5.46-.38-11.14.71-16.82,1.42-7.37,3.98-14.47,6.82-21.39,3.49-8.49,7-17.74,13.38-24.53,5.47-5.82,12.92-9.39,21.03-8.7,7.97.68,14.68,6.47,17.45,13.83,5.5,14.63-4.13,30.18-13.29,40.92-9.58,11.24-21.73,20.26-35.53,25.5,3.97,10.01,14.17,16.04,24.96,17.24,13.86,1.53,27.76-5.16,37.68-14.46,2.07-1.94,4.6-1.1,6.41.87,1.46,1.59,3.39,5.74,1.37,7.64-5.91,5.54-12.47,10.2-20.03,13.2-15.55,6.17-33.69,4.78-46.76-6.33-5.28-4.49-8.98-9.83-11.33-15.67-23.44,6.05-49.86-1.15-66.33-18.53-.58-2.36-2.32-4.47-4.56-5.44-1.31-1.77-2.54-3.6-3.65-5.53-10.51,1.42-21.32.49-31.58-2.43-16.65-4.75-33.72-14.13-42.53-29.63-19.45,4.76-40.48,3.14-58.61-5.57-2.55-1.23-4.54-4.19-4.35-7.08.16-2.55,2.49-4.17,4.9-3.01ZM-58.95,761.72c2.67-1.13,5.27-2.41,7.76-3.86,12.18-7.09,22.57-17.36,29.92-29.38,2.88-4.72,5.21-10.38,5.23-15.98,0-1.2-.1-2.47-.46-3.63-.15-.49-.7-1.51-.74-1.55-1.42-1.92-3.6-2.8-5.92-3.11-15.87-2.1-23.25,16.82-28.05,28.45-3.72,9.02-7.53,19.06-7.74,29.07ZM-135.74,734.35c6.65-1.79,12.95-4.74,18.54-9.01,10.22-7.81,17.86-19.94,18.48-32.98.11-2.37.41-5.91-1.18-7.93-1.43-1.83-4.3-2.26-6.46-2.37-6.42-.31-12.49,2.75-17.23,6.85-8.97,7.74-13.64,19.73-14.03,31.39-.16,4.88.51,9.59,1.89,14.05ZM-209.74,701.35c9.58-3.43,18.54-8.56,26.22-15.31,8.39-7.38,20.75-21.5,14.97-33.6-6-12.56-20.99-1.91-26.78,4.88-7.95,9.32-13.95,21.17-15,33.49-.3,3.55-.1,7.08.58,10.53Z"/>
          <path class="cls-6" d="M-51.74,974.99c-4.62-7.98-5.96-17.74-1.85-26.23,4.22-8.73,12.62-14.58,22.53-13.68,3.52.32,6.92,1.57,9.78,3.53,1.81-4.92,4.43-9.46,8.6-12.99,3.1-2.62,6.84-4.58,10.84-5.35,4.15-1.91,8.75-2.76,13.47-2.04,10.02,1.53,17.59,10.8,19.06,20.53,1.6,10.55-1.86,20.74-5.94,30.33-4.98,11.7-11.15,22.9-18.45,33.31-1.79,2.55-5.06,3.33-7.91,2.28-9.41-3.49-19.11-6.6-28.15-10.99-8.7-4.22-17.05-10.17-21.98-18.69Z"/>
        </g>
        <g>
          <path class="cls-17" d="M583.67,25.25c24.3-30.69,48.15-62.11,71.48-94.25-4.48-6.91-9.09-13.67-13.79-20.29-22.48,30.33-45.43,60.01-68.8,88.99,3.69,8.52,7.39,17.04,11.11,25.55Z"/>
          <circle class="cls-21" cx="153.74" cy="-20.04" r="30.22" transform="translate(4.81 23.05) rotate(-8.71)"/>
          <circle class="cls-24" cx="747.74" cy="33.6" r="39.25"/>
          <path class="cls-11" d="M247.47.74c1.52-9.35-.49-19.09-7.01-25.53-6.7-6.61-16.21-8.87-24.85-4.17-3.07,1.67-5.72,4.18-7.66,7.14-3.26-3.95-7.13-7.22-12.06-8.93-3.66-1.27-7.69-1.67-11.55-.84-4.38-.19-8.81.8-12.83,3.32-8.54,5.35-12.29,17.05-10.4,26.83,2.05,10.6,8.54,18.88,15.4,26.36,8.37,9.12,17.64,17.31,27.67,24.31,2.45,1.71,5.67,1.18,7.89-.93,7.33-6.96,15.05-13.68,21.76-21.35,6.45-7.38,12.02-16.25,13.64-26.23Z"/>
        </g>
      </g>
    </pattern>
  </defs>
  <g id="Layer_3" data-name="Layer 3">
    <g>
      <rect class="cls-7" width="357.03" height="357.03"/>
      <rect class="cls-20" width="357.03" height="357.03"/>
    </g>
  </g>
</svg>