<?xml version="1.0" encoding="UTF-8"?>
<svg id="Layer_2" data-name="Layer 2" xmlns="http://www.w3.org/2000/svg" xmlns:xlink="http://www.w3.org/1999/xlink" viewBox="0 0 357.03 357.03">
  <defs>
    <style>
      .cls-1 {
        fill: none;
      }

      .cls-2 {
        fill: #b4b6da;
      }

      .cls-3 {
        fill: #facee2;
      }

      .cls-4 {
        fill: #fff;
      }

      .cls-5 {
        fill: #b9d5ea;
      }

      .cls-6 {
        fill: #cd9eca;
      }

      .cls-7 {
        fill: #ffe8f6;
      }

      .cls-8 {
        fill: url(#New_Pattern);
      }

      .cls-9 {
        fill: #ffaeae;
      }

      .cls-10 {
        fill: #a8d6d0;
      }

      .cls-11 {
        fill: #ffe280;
      }

      .cls-12 {
        fill: #ffd4cb;
      }
    </style>
    <pattern id="New_Pattern" data-name="New Pattern" x="0" y="0" width="1342" height="1298" patternTransform="translate(-3516.89 -4966.82) scale(.19)" patternUnits="userSpaceOnUse" viewBox="0 0 1342 1298">
      <g>
        <rect class="cls-1" width="1342" height="1298"/>
        <g>
          <path class="cls-5" d="M660.63,1381.07c-11.5,3.04-23.23,5.8-35.12,6.75-5.5.44-12.08,1.13-17.3-1.11-5.23-2.25-8.1-7.95-10.14-12.93-7.49-18.37-3.39-40.59,9.84-55.17,8.6-18.16,17.21-36.32,25.81-54.48.62-1.31,1.63-2.51,3.2-2.51,24.86.04,49.74,8.61,69.11,24.31,9.04,7.33,15.6,16.96,16.98,28.68,1.17,9.95-1.14,20.32-5.75,29.14-11.28,21.58-34.19,31.39-56.63,37.32Z"/>
          <path class="cls-6" d="M248.13,1343.23c.16,3.45-2.91,3.49-5.59,3.67-7.11.47-14.25.56-21.37.3-3.58-.13-7.15-.36-10.71-.67-3.41-.3-6.91-.53-10.16-1.7-2.92-1.05-5.53-2.69-7.2-5.36-1.44-2.29-2.05-5.03-2.19-7.7-.22-4.23.87-8.4,3.09-11.92.82-5.66,2.08-11.32,5.25-16.14,3.38-5.13,8.65-8.77,14.92-8.86,6.03-.08,12.11,2.39,16.9,5.93,4.77,3.53,8.06,8.62,10.3,14.05,2.46,5.97,3.85,12.38,5.12,18.69.63,3.16,1.49,6.49,1.63,9.72Z"/>
          <path class="cls-3" d="M1119.43,1338.55c-.51,3.81-2.39,7.31-4.26,10.61-1.87,3.29-3.8,6.55-5.81,9.76-4.01,6.42-8.28,12.68-12.82,18.74-8.92,11.94-18.77,23.28-29.58,33.56-5.08,4.84-10.79,9.55-17.51,11.87-7.95,2.74-16.05,1.43-24.07-.24-8.29-1.73-16.58-3.47-24.86-5.21-4.1-.86-8.19-1.72-12.29-2.57-3.74-.78-7.54-1.44-11.21-2.54-7.03-2.11-12.64-6.43-15.6-13.26-2.9-6.69-3.74-14.3-4.57-21.47-.47-4.06-.8-8.13-1.01-12.22-.19-3.91-.47-7.92-.06-11.83.37-3.53,1.57-6.8,3.96-9.46,2.21-2.47,5.26-4.12,8.21-5.55,14.59-7.08,29.41-13.7,44.13-20.5,1.57-1.73,3.16-3.44,4.79-5.11,9.24-9.47,20.26-18.74,33.6-21.35,15.42-3.02,28.98,5.61,41.02,14.13,6.2,4.39,12.13,9.17,17.74,14.3,5.32,4.87,11.26,10.44,10.2,18.35Z"/>
        </g>
        <path class="cls-11" d="M1507.17,630.97c-.67,4.11-3.4,7.45-5.94,10.6-2.8,3.48-5.68,6.9-8.63,10.27-5.65,6.44-11.57,12.65-17.72,18.62-12.44,12.06-25.86,23.11-40.08,33-3.58,2.49-7.22,4.91-10.89,7.25-3.71,2.37-7.51,4.78-11.93,5.51-4.37.73-8.59-.67-12.46-2.61-4.15-2.09-8.18-4.44-12.23-6.72-16.8-9.46-33.28-19.5-49.39-30.11-6.61-4.36-13.7-8.89-18.12-15.65-4.3-6.58-5-14.35-1.27-21.38,3.9-7.34,10.49-12.68,16.81-17.85,7.04-5.76,14.26-11.29,21.66-16.58,14.85-10.62,30.39-20.28,46.49-28.9.4-.22.88-.22,1.38-.07,11.46-7.15,23.54-13.32,36.07-18.37,4.29-1.72,8.78-3.31,13.46-2.6,3.84.58,7.23,2.68,10.08,5.23,2.94,2.63,5.3,5.88,7.49,9.14,2.71,4.03,5.39,8.08,8.08,12.12,5.51,8.26,11.01,16.53,16.52,24.79,2.65,3.98,5.53,7.89,7.81,12.1,2.02,3.72,3.49,7.94,2.79,12.22Z"/>
        <g>
          <path class="cls-10" d="M512.03,132.45c12.08-4.77,29.86,7.49,39.41,11.55,14.78,6.28,29.57,12.55,44.35,18.83,3.13,1.33,6.42,2.78,8.45,5.51,3.98,5.36,3.28,18.98,4.14,25.39.96,7.16-.37,14.36-.26,21.54.2,12.4,3.34,26.58.04,38.56-.47,1.68-1.07,3.41-2.32,4.63-2.58,2.52-6.74,2.02-10.28,1.33-21.96-4.26-43.82-8.98-65.58-14.15-9.98-2.37-46.5-5.41-50.26-15.68-1.4-3.83-.67-8.07.15-12.07,5.31-26.12,13.3-51.69,23.8-76.19.96-2.24,1.98-4.52,3.72-6.22,1.42-1.39,2.99-2.38,4.66-3.04Z"/>
          <path class="cls-10" d="M337.02,1001.72c-1.49,12.91-20.69,22.79-28.77,29.3-12.51,10.08-25.01,20.15-37.52,30.23-2.65,2.14-5.48,4.35-8.84,4.85-6.6.98-18.28-6.05-24.34-8.32-6.76-2.53-12.48-7.1-18.87-10.38-11.03-5.67-25.02-9.58-34.02-18.15-1.27-1.2-2.5-2.55-2.99-4.23-1.01-3.46,1.4-6.9,3.67-9.69,14.11-17.35,28.59-34.41,43.4-51.16,6.8-7.69,26.7-38.46,37.52-36.93,4.04.57,7.43,3.22,10.57,5.82,20.53,17,39.31,36.1,55.97,56.91,1.52,1.9,3.05,3.88,3.73,6.21.55,1.91.69,3.75.48,5.54Z"/>
          <path class="cls-10" d="M994.7,658.91c.04,7.21-9.88,13.95-13.9,18.07-6.22,6.39-12.44,12.78-18.66,19.17-1.32,1.35-2.73,2.76-4.55,3.26-3.57.98-10.48-2.12-13.97-2.96-3.9-.94-7.36-3.08-11.09-4.46-6.46-2.39-14.43-3.61-19.97-7.73-.78-.58-1.55-1.24-1.93-2.13-.79-1.84.31-3.9,1.38-5.59,6.62-10.51,13.46-20.88,20.5-31.1,3.23-4.69,12.15-22.98,18.21-22.86,2.26.04,4.31,1.28,6.22,2.5,12.45,8,24.08,17.27,34.65,27.63.96.95,1.94,1.93,2.47,3.17.43,1.01.63,2.02.64,3.02Z"/>
          <path class="cls-11" d="M687.04,371.6s0,.05.01.07c1.15,6.08,2.27,12.51.16,18.33-1.83,5.05-5.85,8.95-9.79,12.61-21.89,20.33-45.08,40.03-69.83,56.83-11.19,7.59-16.73,12.6-28,2.28-9.23-8.45-17.23-18.26-23.74-28.94-3.82-6.26-7.58-13.01-10.01-19.95-3.02-8.64-1.75-9.86,5.05-16.09,23.59-21.63,47.43-43.13,73.6-61.55,8.29-5.83,16.21-12.07,24.61-17.75,1.46-.99,3-1.96,4.74-2.25,4.22-.7,7.91,2.7,10.76,5.89,14.57,16.33,18.48,29.44,22.45,50.52Z"/>
          <path class="cls-5" d="M249.31,127.78c7.48,2.56,14.9,6.05,22.13,8.27,9.39,2.89,19,6.04,28.05,9.86,8.86,3.73,9.72,7.74,13.03,17.29.5,1.43.98,2.9.99,4.42,0,1.67-.57,3.27-1.12,4.84-10.44,30.07-17.53,62.58-39.31,87.1-2.57,2.89-5.43,5.75-9.1,6.95-3.54,1.16-7.39.63-11.06-.03-25.41-4.54-49.47-14.51-73.31-24.41-2.78-1.16-5.7-2.42-7.51-4.83-4.59-6.12,11.48-34.61,14.45-41.6,5.12-12.03,9.89-24.25,15.38-36.1,4.44-9.59,8.39-24.12,17.03-30.74,4.93-3.78,11.55-4.8,17.72-4.1,4.2.48,8.41,1.63,12.61,3.06Z"/>
          <path class="cls-4" d="M1083.59,1106.81c-.44,3.38-2.5,6.31-4.22,9.1-3.6,5.85-7.35,11.61-11.25,17.25-7.78,11.27-16.14,22.11-25,32.48-3.82,4.46-7.88,10.54-14.11,10.98-3.48.25-6.85-1.09-10.07-2.29-3.19-1.19-6.37-2.42-9.53-3.7-12.73-5.16-25.21-11.04-37.33-17.62-5.71-3.1-11.47-6.25-16.93-9.83-5.01-3.28-14.01-11.92-12.69-18.82.2-1.07.81-2.03,1.42-2.93,10.34-15.2,21.97-28.35,35.93-40.78,4.85-4.32,9.86-8.43,15.01-12.34,4.83-3.66,10.41-8.9,16.71-8.88,6.65.02,13.3,3.83,19.23,6.62,5.91,2.78,11.7,5.85,17.35,9.17,5.65,3.33,11.15,6.93,16.5,10.74,5.29,3.77,10.87,7.66,15.51,12.29,2.24,2.24,3.92,5.19,3.48,8.55Z"/>
          <path class="cls-4" d="M197.91,510.66c-1.48,2.12-3.12,4.22-5.36,5.51-3.39,1.96-7.57,1.75-11.46,1.27-4.33-.54-8.77-1.1-13.04-2.02-5.76-1.23-11.35-3.34-16.94-5.18-6.4-2.1-12.8-4.2-19.21-6.29-6.4-2.1-12.8-4.2-19.21-6.29-3.26-1.07-6.53-2.14-9.79-3.21-2.84-.93-6.17-1.6-8.58-3.46-5.4-4.18-3.39-11.31-1.87-16.86,1.7-6.2,3.6-12.34,5.69-18.42,2.1-6.11,4.4-12.16,6.9-18.12,2.28-5.43,5.27-10.67,8.1-15.86,1.15-2.12,3.49-8.57,5.6-9.66,2.11-1.08,7.48,1.51,9.79,2.2,3.65,1.1,7.28,2.27,10.89,3.48,14.47,4.85,28.7,10.4,43.14,15.32,13.69,4.67,27.95,9.71,40.28,17.33.88.54,1.8,1.15,2.21,2.11.53,1.23.06,2.63-.42,3.88-3.67,9.54-7.43,19.09-12.34,28.07-3.63,6.64-6.8,13.67-10.63,20.25-1.18,2.03-2.42,4.01-3.76,5.93Z"/>
          <path class="cls-4" d="M1352.98,1110.94c-1.48,2.12-3.12,4.22-5.36,5.51-3.39,1.96-7.57,1.75-11.46,1.27-4.33-.54-8.77-1.1-13.04-2.02-5.76-1.23-11.35-3.34-16.94-5.18-6.4-2.1-12.8-4.2-19.21-6.29-6.4-2.1-12.8-4.2-19.21-6.29-3.26-1.07-6.53-2.14-9.79-3.21-2.84-.93-6.17-1.6-8.57-3.46-5.4-4.18-3.39-11.31-1.87-16.86,1.7-6.2,3.6-12.34,5.69-18.42,2.1-6.11,4.4-12.16,6.9-18.12,2.28-5.43,5.27-10.67,8.1-15.86,1.15-2.12,3.49-8.57,5.6-9.66,2.11-1.08,7.48,1.51,9.79,2.2,3.65,1.1,7.28,2.27,10.89,3.48,14.47,4.85,28.7,10.4,43.14,15.33,13.69,4.67,27.95,9.71,40.28,17.33.88.54,1.8,1.15,2.21,2.11.53,1.23.06,2.63-.42,3.88-3.67,9.54-7.43,19.09-12.34,28.07-3.63,6.64-6.8,13.67-10.63,20.25-1.18,2.03-2.42,4.01-3.76,5.93Z"/>
          <path class="cls-12" d="M360.56,169.79c-.75,2.75-2.65,4.88-4.75,6.72-5.08,4.44-10.78,8.29-16.16,12.36l-8.7,6.59c-1.45,1.1-2.9,2.2-4.35,3.3-1.08.82-2.16,1.64-3.48,2.02-3.06.89-6.6-.75-9-2.58-2.56-1.96-4.75-4.54-7.02-6.82-10.07-10.07-20.14-20.15-30.21-30.22-5-5-10-10-14.99-15-4.55-4.55-9.41-8.94-13.47-13.94-3.46-4.27-6.19-9.27-6.01-14.9.18-5.84,3.5-11,6.97-15.48,3.35-4.31,7.04-9.39,12.65-10.68.96-.22,1.94-.34,2.92-.4.07-.27.41-.43,1.04-.34.77.11,1.54.22,2.31.33,1.09.05,2.17.13,3.24.21,3.39.26,6.78.59,10.15,1,7.17.87,14.29,2.09,21.35,3.63,4.76.59,9.56,1.23,14.09,2.63,2.35.72,4.52,1.72,6.51,2.95.62.29,1.22.66,1.55,1.05,2.54,1.84,4.76,4.1,6.67,6.76,3.7,5.17,6.88,10.77,10.07,16.26,3.4,5.85,6.65,11.79,9.75,17.82,1.52,2.97,3.01,5.95,4.45,8.96,1.43,2.97,2.93,5.94,3.91,9.09.86,2.78,1.29,5.83.51,8.68Z"/>
          <path class="cls-12" d="M889.06,1231.77c-.75,2.75-2.65,4.88-4.75,6.72-5.08,4.44-10.78,8.29-16.16,12.36l-8.7,6.59c-1.45,1.1-2.9,2.2-4.35,3.3-1.08.82-2.16,1.64-3.48,2.02-3.06.89-6.6-.75-9-2.58-2.56-1.96-4.75-4.54-7.02-6.82-10.07-10.07-20.14-20.15-30.21-30.22-5-5-10-10-14.99-15-4.55-4.55-9.41-8.94-13.47-13.94-3.46-4.27-6.19-9.27-6.01-14.9.18-5.84,3.5-11,6.97-15.48,3.35-4.31,7.04-9.39,12.65-10.68.96-.22,1.94-.34,2.92-.4.07-.27.41-.43,1.04-.34.77.11,1.54.22,2.31.33,1.09.05,2.17.13,3.24.21,3.39.26,6.78.59,10.15,1,7.17.87,14.29,2.09,21.35,3.63,4.76.59,9.55,1.23,14.09,2.63,2.35.72,4.52,1.72,6.51,2.95.62.29,1.22.66,1.55,1.05,2.54,1.84,4.76,4.1,6.67,6.76,3.7,5.17,6.88,10.77,10.07,16.26,3.4,5.85,6.65,11.79,9.75,17.82,1.52,2.97,3.01,5.95,4.45,8.96,1.43,2.97,2.93,5.94,3.91,9.09.86,2.78,1.29,5.83.51,8.68Z"/>
          <path class="cls-12" d="M944.41,351.09c2.13,1.9,3.19,4.55,3.9,7.25,1.71,6.53,2.61,13.35,3.87,19.98l2.03,10.72c.34,1.79.68,3.57,1.01,5.36.25,1.33.51,2.66.26,4.01-.56,3.13-3.61,5.58-6.32,6.91-2.89,1.42-6.18,2.23-9.23,3.25-13.51,4.53-27.01,9.05-40.52,13.58-6.7,2.25-13.41,4.49-20.11,6.74-6.1,2.04-12.2,4.44-18.49,5.84-5.36,1.19-11.05,1.41-16.02-1.26-5.15-2.77-8.29-8.03-10.75-13.14-2.36-4.92-5.27-10.48-3.93-16.08.23-.96.56-1.89.94-2.8-.21-.19-.2-.56.16-1.08.44-.64.88-1.28,1.32-1.92.53-.95,1.08-1.88,1.64-2.81,1.74-2.92,3.55-5.8,5.42-8.64,3.98-6.03,8.24-11.86,12.76-17.5,2.65-4,5.36-8,8.63-11.45,1.69-1.78,3.55-3.28,5.54-4.51.54-.42,1.13-.8,1.63-.92,2.77-1.45,5.79-2.44,9.03-2.96,6.27-1.01,12.71-1.36,19.04-1.77,6.76-.44,13.52-.7,20.29-.78,3.33-.04,6.67-.04,10,0,3.29.04,6.62.02,9.88.56,2.87.47,5.8,1.44,8,3.41Z"/>
          <path class="cls-5" d="M701.27,577.56c-2.33,8.05-5.76,15.85-9.24,23.46-3.18,6.96-6.42,13.95-10.02,20.71-2.92,5.49-6.26,10.89-10.66,15.34-4.46,4.51-9.81,7.8-16.1,8.97-7.56,1.42-15.29-.81-21.99-4.25-6.97-3.58-13.17-8.51-19.4-13.22-6.23-4.7-12.53-9.33-18.6-14.24-10.97-8.88-21.77-19.36-27.13-32.7-4.57-11.38-5.15-25.01.61-36.07,6.49-12.47,20.13-17.39,33.43-18.35,8.54-.61,17.29.31,25.93.39,2.65-.34,5.31-.65,7.97-.92,3.19-.32,6.42-.65,9.67-.92.92-.25,1.83-.52,2.74-.83,1.07-.36,2.36-.18,3.37.42,3.2-.15,6.4-.19,9.57-.05,4.01.18,8.1,1.02,11.6,3.03,3.37,1.94,6.1,4.69,8.63,7.61,5.37,6.2,10.42,12.72,15.12,19.44,2.11,3.02,4.17,6.24,5.11,9.84,1.08,4.12.56,8.28-.61,12.33Z"/>
          <path class="cls-11" d="M1198.07,988.64c-2.33,8.05-5.76,15.85-9.24,23.46-3.18,6.96-6.42,13.95-10.02,20.71-2.92,5.49-6.26,10.89-10.66,15.34-4.46,4.51-9.81,7.8-16.1,8.97-7.56,1.42-15.29-.81-21.99-4.25-6.97-3.58-13.17-8.51-19.4-13.22-6.23-4.7-12.53-9.33-18.6-14.24-10.97-8.88-21.77-19.36-27.13-32.7-4.57-11.38-5.15-25.01.61-36.07,6.49-12.47,20.13-17.39,33.43-18.35,8.54-.61,17.29.31,25.93.39,2.65-.34,5.31-.65,7.97-.92,3.19-.32,6.42-.65,9.67-.92.92-.25,1.83-.52,2.74-.83,1.07-.36,2.36-.18,3.37.42,3.2-.15,6.4-.19,9.57-.05,4.01.18,8.1,1.02,11.6,3.03,3.37,1.94,6.1,4.69,8.63,7.61,5.37,6.2,10.42,12.72,15.12,19.44,2.11,3.02,4.17,6.24,5.11,9.84,1.08,4.12.56,8.28-.61,12.33Z"/>
          <path class="cls-2" d="M851.49,290.62c-5.68-.5-11.34-1.29-16.93-2.4-2.8-.55-5.57-1.18-8.33-1.89-2.64-.68-5.3-1.38-6.99-3.61-1.53-2.03-2.09-4.63-2.81-6.99-.8-2.65-1.57-5.31-2.3-7.98-1.42-5.19-2.7-10.41-3.85-15.67-2.32-10.62-4.07-21.36-5.27-32.14-.59-5.3-1.09-10.61-1.35-15.93-.11-2.34-.05-4.93,1.25-6.99,1.32-2.08,3.56-3.18,5.86-4.03,9.87-3.64,20.62-5.33,31.21-4.96,2.74.1,5.48.34,8.2.7,2.46.32,4.97.69,7.29,1.57,4.85,1.83,7.86,5.62,9.69,10.16,1.97,4.9,3.34,10.05,4.93,15.06,6.22,19.62,9.42,39.45,12.69,59.53.73,4.45,2.12,10.41-2.27,13.59-3.72,2.69-9.25,2.42-13.69,2.53-5.78.14-11.57-.04-17.33-.55Z"/>
          <path class="cls-6" d="M359.24,487.54c-.99-1.16-1.91-2.38-2.81-3.59-15.67-21.54-31.76-42.78-47.64-64.17-10.86-14.63-40.08-41.07-40.42-60.27-.1-5.4,2.36-10.48,4.9-15.25,9.64-18.1,21.26-35.06,32.85-51.98,3.43-5,6.95-10.1,11.87-13.65,10.26-7.4,25.02-6.95,36.94-10.14,18.52-4.97,36.73-10.85,55.39-15.36,5.91-1.43,12.03-2.8,18.03-1.82,13.4,2.19,22.03,15,29.02,26.64,5.72,9.52,15.26,21.9,13.87,33.12-1.37,11.07-11.15,24.97-14.83,35.92-8.01,23.87-12.67,48.66-15.09,73.69-.96,9.94-1.98,20.09-6.09,29.19-9.15,20.26-31.14,30.91-51.45,39.95-5.72,2.55-12.23,5.12-18.04,2.78-2.59-1.04-4.66-2.93-6.49-5.06Z"/>
          <path class="cls-2" d="M993.45,845.67c-.5,1.44-1.1,2.85-1.7,4.24-10.77,24.36-21.06,48.94-31.59,73.41-7.21,16.74-15.41,55.28-31.84,65.21-4.62,2.79-10.25,3.22-15.65,3.42-20.49.75-40.99-.79-61.44-2.33-6.04-.45-12.23-.94-17.76-3.42-11.55-5.16-18.56-18.15-27.31-26.86-13.59-13.52-27.82-26.32-41.09-40.2-4.2-4.4-8.46-9-10.63-14.68-4.83-12.69,1.91-26.58,8.48-38.47,5.37-9.73,11.28-24.19,21.69-28.62,10.26-4.37,27.2-2.89,38.51-5.2,24.66-5.05,48.45-13.47,71.31-23.93,9.08-4.16,18.37-8.37,28.31-9.38,22.12-2.26,42.37,11.42,60.38,24.45,5.07,3.67,10.57,8.01,11.46,14.21.4,2.76-.19,5.5-1.12,8.16Z"/>
          <path class="cls-2" d="M219.41,372.1c-.46,2.3-2.19,4.18-3.53,6.03-1.6,2.2-3.19,4.4-4.79,6.61-1.32,1.82-2.58,4.18-4.39,5.57-1.93,1.48-4.5,1.2-6.6.25-2.23-1.01-4.03-2.75-5.79-4.42-1.63-1.55-3.21-3.16-4.71-4.84-6.28-6.98-11.43-14.84-15.28-23.41-.19-.43-.15-.76.02-1.01-5.92-5.73-11.26-12.05-15.87-18.88-.35-.52-.7-1.44,0-1.89,4.54-2.9,9.53-5.73,15.1-5.31,5.97.46,10.32,4.73,14.57,8.48,7.89,6.95,15.63,14.06,23.22,21.33,1.87,1.79,3.81,3.55,5.59,5.43,1.58,1.67,2.94,3.65,2.47,6.05Z"/>
          <path class="cls-3" d="M313.71,642.34c.13,2.87-1.04,5.45-2.39,7.91-1.41,2.56-2.9,5.09-4.37,7.62-3.08,5.28-6.23,10.52-9.45,15.72-3.22,5.2-6.51,10.35-9.87,15.46-1.63,2.48-3.28,4.95-4.94,7.41-1.51,2.23-2.91,4.72-4.97,6.49-2.33,2-5.36,2.08-8.24,1.54-2.89-.55-5.73-1.48-8.56-2.25-5.24-1.42-10.55-2.71-15.7-4.44-9.14-3.07-18.09-8.24-21.1-18-3.31-10.71,1.51-22.06,5.83-31.75,3.42-7.66,7.31-15.1,11.64-22.28,2.07-4.33,4.28-8.59,6.63-12.77,2.74-4.85,5.58-9.75,8.85-14.27,1.53-2.11,3.39-4.01,5.91-4.87,2.68-.91,5.75-.68,8.53-.58,5.99.21,12.1.89,17.93,2.31,2.81.68,5.25,2.03,6.99,4.39,1.65,2.24,2.59,5.01,3.67,7.55,2.49,5.88,4.98,11.76,7.47,17.64,1.21,2.86,2.42,5.71,3.63,8.57,1.17,2.76,2.39,5.54,2.52,8.58Z"/>
          <path class="cls-12" d="M521.85,639.75c-.69,5.01-3.11,9.72-5.01,14.35-4,9.7-8.02,19.4-12.19,29.03-3.92,9.07-7.87,18.16-12.28,27.01-3.69,7.41-7.85,14.72-13.48,20.84-5.93,6.43-13.18,11-21.66,13.17-8.98,2.3-18.47,1.89-27.61.92-10.18-1.08-20.32-2.59-30.46-3.92-5.25-.69-10.5-1.32-15.74-2.08-4.53-.65-8.85-1.94-11.66-5.82-1.26-1.74-2.03-3.82-2.68-5.85-.75-2.36-1.42-4.76-2.09-7.15-1.39-4.98-2.66-9.99-3.81-15.03-2.31-10.11-4.13-20.32-5.49-30.6-.65-4.91-1.24-9.94.02-14.8.95-3.67,3.09-6.88,5.65-9.62,2.86-3.07,6.37-5.74,9.42-8.76,1.11-1.76,2.26-3.51,3.37-5.24,2.65-4.15,5.38-8.25,8.19-12.3,5.62-8.09,11.55-15.97,17.78-23.6,5.77-7.07,11.63-14.55,18.86-20.19,3.29-2.56,6.97-4.75,10.99-5.91,4.31-1.24,8.74-1.25,13.06-.06,4.34,1.2,8.33,3.53,12.01,6.09,4.05,2.82,7.9,5.94,11.81,8.95,8.51,6.56,17.03,13.11,25.54,19.67,4.23,3.26,8.46,6.51,12.69,9.77,3.62,2.79,7.57,5.43,10.61,8.89,3.03,3.43,4.78,7.6,4.14,12.24Z"/>
          <path class="cls-6" d="M1295.19,768.46c-.69,5.01-3.11,9.72-5.01,14.35-4,9.7-8.02,19.4-12.19,29.03-3.92,9.07-7.87,18.16-12.28,27.01-3.69,7.41-7.85,14.72-13.48,20.84-5.93,6.43-13.18,11-21.66,13.17-8.98,2.3-18.47,1.89-27.61.92-10.18-1.08-20.32-2.59-30.46-3.92-5.25-.69-10.5-1.32-15.74-2.08-4.53-.65-8.85-1.94-11.66-5.82-1.26-1.74-2.03-3.82-2.68-5.85-.75-2.36-1.42-4.76-2.09-7.15-1.39-4.98-2.66-9.99-3.81-15.03-2.31-10.11-4.13-20.32-5.49-30.6-.65-4.91-1.24-9.94.02-14.8.95-3.67,3.09-6.88,5.65-9.62,2.86-3.07,6.37-5.73,9.42-8.76,1.11-1.76,2.26-3.51,3.37-5.24,2.65-4.15,5.38-8.25,8.19-12.3,5.62-8.09,11.55-15.97,17.78-23.6,5.77-7.07,11.63-14.55,18.86-20.19,3.29-2.56,6.97-4.75,10.99-5.91,4.31-1.24,8.74-1.25,13.06-.06,4.34,1.2,8.33,3.53,12.01,6.09,4.05,2.82,7.9,5.94,11.81,8.95,8.51,6.56,17.03,13.11,25.54,19.67,4.23,3.26,8.46,6.51,12.69,9.77,3.62,2.79,7.57,5.43,10.61,8.89,3.03,3.43,4.78,7.6,4.14,12.24Z"/>
          <path class="cls-10" d="M699.99,1150.95c-4.65-1.98-8.56-5.56-12.52-8.62-8.3-6.42-16.59-12.86-24.79-19.42-7.72-6.18-15.44-12.39-22.81-18.97-6.17-5.52-12.13-11.46-16.54-18.5-4.64-7.41-7.13-15.61-6.99-24.37.15-9.27,3.06-18.31,6.4-26.87,3.73-9.53,7.86-18.91,11.83-28.34,2.05-4.88,4.05-9.78,6.16-14.63,1.82-4.2,4.2-8.03,8.69-9.71,2.01-.75,4.22-.95,6.35-1.04,2.48-.1,4.96-.11,7.44-.13,5.17-.02,10.34.07,15.5.29,10.36.44,20.69,1.38,30.96,2.78,4.91.67,9.91,1.42,14.27,3.93,3.28,1.89,5.82,4.8,7.79,7.99,2.2,3.57,3.85,7.66,5.96,11.4,1.41,1.54,2.79,3.1,4.17,4.63,3.31,3.65,6.54,7.37,9.7,11.15,6.32,7.56,12.35,15.36,18.07,23.38,5.3,7.43,10.96,15.06,14.5,23.52,1.6,3.85,2.74,7.98,2.79,12.16.06,4.48-1.1,8.76-3.39,12.62-2.3,3.87-5.6,7.11-9.05,9.97-3.79,3.16-7.81,6.05-11.75,9.02-8.57,6.48-17.14,12.96-25.72,19.45-4.26,3.22-8.51,6.44-12.77,9.66-3.65,2.76-7.24,5.87-11.37,7.89-4.11,2.01-8.59,2.6-12.9.77Z"/>
          <path class="cls-11" d="M165.17,630.97c-.67,4.11-3.4,7.45-5.94,10.6-2.8,3.48-5.68,6.9-8.63,10.27-5.65,6.44-11.57,12.65-17.72,18.62-12.44,12.06-25.86,23.11-40.08,33-3.58,2.49-7.22,4.91-10.89,7.25-3.71,2.37-7.51,4.78-11.93,5.51-4.37.73-8.59-.67-12.46-2.61-4.15-2.09-8.18-4.44-12.23-6.72-16.8-9.46-33.28-19.5-49.39-30.11-6.61-4.36-13.7-8.89-18.12-15.65-4.3-6.58-5-14.35-1.27-21.38,3.9-7.34,10.49-12.68,16.81-17.85,7.04-5.76,14.26-11.29,21.66-16.58,14.85-10.62,30.39-20.28,46.49-28.9.4-.22.88-.22,1.38-.07,11.46-7.15,23.54-13.32,36.07-18.37,4.29-1.72,8.78-3.31,13.46-2.6,3.84.58,7.23,2.68,10.08,5.23,2.94,2.63,5.3,5.88,7.49,9.14,2.71,4.03,5.39,8.08,8.08,12.12,5.51,8.26,11.01,16.53,16.52,24.79,2.65,3.98,5.53,7.89,7.81,12.1,2.02,3.72,3.49,7.94,2.79,12.22Z"/>
          <path class="cls-10" d="M1242.5,416.12s.04-.04.05-.05c4.37-4.39,9.03-8.95,15.03-10.51,5.2-1.35,10.69-.24,15.93.94,29.15,6.55,58.52,14.52,86.37,25.42,12.59,4.93,19.86,6.66,17.72,21.8-1.75,12.39-5.31,24.54-10.42,35.95-3,6.69-6.43,13.61-10.79,19.54-5.41,7.38-7.14,7.02-16.13,4.94-31.18-7.22-62.4-14.7-92.4-25.86-9.5-3.53-19.12-6.53-28.56-10.25-1.64-.65-3.31-1.37-4.53-2.63-2.96-3.08-2.25-8.05-1.23-12.2,5.22-21.25,13.82-31.89,28.95-47.09Z"/>
          <path class="cls-4" d="M1250.32,594.76c-.67,4.11-3.4,7.45-5.94,10.6-2.8,3.48-5.68,6.91-8.63,10.27-5.65,6.44-11.57,12.65-17.72,18.62-12.44,12.06-25.86,23.11-40.08,33-3.58,2.49-7.22,4.91-10.89,7.25-3.71,2.37-7.51,4.78-11.93,5.51-4.37.73-8.59-.67-12.46-2.61-4.15-2.09-8.18-4.44-12.23-6.72-16.8-9.46-33.28-19.5-49.39-30.11-6.61-4.36-13.7-8.89-18.12-15.65-4.3-6.58-5-14.35-1.27-21.38,3.9-7.34,10.49-12.68,16.81-17.85,7.04-5.76,14.26-11.29,21.66-16.58,14.85-10.62,30.39-20.28,46.49-28.9.4-.22.88-.22,1.38-.07,11.46-7.15,23.54-13.32,36.07-18.37,4.29-1.72,8.78-3.31,13.46-2.6,3.84.58,7.23,2.68,10.08,5.23,2.94,2.63,5.3,5.88,7.49,9.14,2.71,4.03,5.39,8.08,8.08,12.12,5.51,8.26,11.01,16.53,16.52,24.79,2.65,3.98,5.53,7.89,7.81,12.1,2.02,3.72,3.49,7.94,2.79,12.22Z"/>
          <path class="cls-6" d="M211.6,802.84c-.8,3.09-1.98,6.12-2.99,9.15-2.03,6.13-3.9,12.34-6.1,18.42-1.76,4.88-5.04,9.07-10.48,9.84-2.87.41-5.68-.19-8.5-.66-2.62-.43-5.24-.87-7.86-1.32-5.82-.99-11.63-2.01-17.44-3.06-4.66-.84-9.87-1.47-13.66-4.6-3.87-3.19-5.31-7.97-6.27-12.71-1.13-5.57-2.18-11.15-3.27-16.72-1.16-5.94-2.32-11.87-3.48-17.81-.75-3.85-1.34-7.84-.97-11.77.39-4.07,1.76-8.16,4.82-11,4.07-3.78,9.45-4.51,14.7-3.16,5.44,1.4,10.69,4.11,15.87,6.25,5.45,2.25,10.91,4.5,16.36,6.75,8.72,3.6,18.6,7.61,23.87,15.94,1.38,2.18,2.36,4.55,2.95,6.98.55.38,1.05.82,1.49,1.36,1.89,2.32,1.65,5.39.94,8.1Z"/>
          <path class="cls-3" d="M891.08,667.52c-1.59,4.07-4.32,7.62-6.81,11.17-2.59,3.7-5.24,7.36-7.93,10.98-10.9,14.66-22.62,28.71-35.07,42.08-3.08,3.3-6.2,6.57-9.37,9.79-3.02,3.07-6,6.55-10.02,8.33-7.96,3.54-16.42-1.77-23.08-5.88-12.04-7.42-22.43-17.48-30.51-29.07-13.62-19.54-20.92-43.54-19.6-67.3-.04-.08-.08-.14-.11-.23-1.34-4.74-2.69-9.48-4.03-14.22-2.68-9.44-5.48-18.85-8.03-28.33-.52-1.93-.99-4.1-.41-6.08.55-1.89,1.88-3.31,3.45-4.42,3.72-2.65,8.26-4.49,12.36-6.46,8.33-4.01,16.85-7.63,25.53-10.83,4.4-1.62,8.84-3.22,13.35-4.53,4.64-1.35,9.68-2.02,14.38-.53,4.08,1.29,7.49,3.87,10.78,6.53,3.45,2.79,6.86,5.64,10.22,8.54,6.76,5.81,13.35,11.81,19.75,18.01,12.95,12.52,25.17,25.8,36.55,39.77,5.24,6.42,12.07,13.8,8.59,22.69Z"/>
          <path class="cls-10" d="M481.7,522.22c.14,4.55-1.01,9.35-4.63,12.39-3.77,3.17-9.19,3.61-13.68,1.81-4.23-1.7-7.48-5.27-10.28-8.74-.03-.04-.06-.08-.08-.13-5.24-4.84-7.69-12.36-5.53-19.47,1.26-4.13,3.92-7.75,6.86-10.85,1.56-1.64,3.23-3.17,4.95-4.65,1.74-1.5,3.52-3.18,5.53-4.31,4.07-2.29,10.21-2.28,12.2,2.66.82,2.04,1.02,4.25,1.33,6.4.4,2.82.81,5.63,1.21,8.45.78,5.42,1.95,10.96,2.12,16.44Z"/>
          <path class="cls-10" d="M146.36,93.79c-.82,5.5-1.85,10.97-3.12,16.39-1.04,4.47-2.16,8.99-5.25,12.54-6.28,7.23-17.38,6.45-25.88,4.98-10.03-1.73-19.9-4.39-29.48-7.83-2.22-.2-4.42-.82-6.38-1.82-4.43-2.26-7.27-6.34-8.72-11.02-1.63-5.25-1.96-10.88-2.61-16.31-.72-6.03-1.49-12.06-2.15-18.1-.78-7.2-1.02-15.71,3.33-21.92,5.93-8.45,17.37-7.5,26.49-7.19,11.24.38,22.47,1.58,33.54,3.6,5.18.94,10.7,1.76,15.68,3.52,4.73,1.68,6.57,5.36,6.73,10.17.35,10.99-.58,22.13-2.19,32.99Z"/>
          <path class="cls-11" d="M553.95,119.55c-9.62-3.32-19.18-7.24-28.75-10.9-2.56-.98-5.11-1.95-7.67-2.93-1.82-.7-3.79-1.24-5.5-2.42-4.07-2.82-2.65-8.36-1.16-12.11,2.04-5.15,4.25-10.2,6.47-15.22,2.17-4.88,4.28-9.88,6.75-14.49,2.47-4.6,6.27-7.81,10.78-8.68,4.46-.86,9.06-1.19,13.6-1.53,9.43-.71,18.95-.71,28.49.01,4.77.36,9.55.9,14.33,1.61,3.95.59,8.09,1.03,11.91,2.93,3.55,1.76,6.31,4.77,7.58,9.39.8,2.91,1.06,5.91,1.5,8.87,5.11,10.51-.92,21.39-6.58,27.81-3.65,4.14-7.67,7.88-11.77,11.31-4.12,3.45-8.57,6.44-13.43,8.22-8.5,3.11-17.72,1.19-26.56-1.86Z"/>
          <path class="cls-4" d="M406.21,214.09c-5.99,3.98-14.75,5.26-20.42,0-4.22-3.92-6.07-10.43-4.21-15.93,2.36-6.98,9.8-10.99,16.84-11.66,2.54-1.92,5.99-2.58,9.09-1.75,4.02,1.08,6.2,4.99,7,8.8,1.59,7.61-1.82,16.23-8.31,20.55Z"/>
          <g>
            <path class="cls-3" d="M50.47,402.76s.03.02.04.03c.05,0,.08,0,.15,0,.03,0,.05,0,.08,0-.08-.02-.18-.03-.28-.03Z"/>
            <path class="cls-3" d="M94.3,338.29c-.98,5.61-2,11.21-3,16.82-.99,5.56-1.98,11.11-2.97,16.67-.47,2.62-.75,5.37-1.67,7.88-.82,2.24-2.36,3.94-4.04,5.58-4.04,3.95-8.13,7.85-12.19,11.78-3.23,3.13-6.66,6.79-11.27,7.69-4.23.82-8.89-.53-12.71-2.3-3.51-1.62-6.52-4.21-8.6-7.47-5.29-8.31-3-18.73-.17-27.48,3.43-10.59,7.27-21.07,10.92-31.58,3.74-10.77,7.47-21.55,11.21-32.32.94-2.72,1.86-5.45,2.83-8.16.6-1.67,1.35-3.32,2.42-4.75.93-1.25,2.21-2.46,3.79-2.8,2.16-.47,4.66.36,6.66,1.13,2.15.83,3.7,2.05,4.84,4.07,1.06,1.88,1.92,3.89,2.81,5.87.1.11.21.22.31.34,6.01,6.74,11.31,14.45,12.08,23.7.42,5.14-.36,10.29-1.24,15.35Z"/>
          </g>
          <path class="cls-9" d="M105.24,222.04c-.02.94-.04,1.87-.06,2.81-.02.84.09,1.79-.06,2.61-.2,1.08-2.16,1.81-3.12,2.15-2.84,1.01-5.87,1.07-8.81.5-5.24-1.02-10.46-4.54-11.31-10.14-.49-3.18.28-6.37,2.04-8.92-.29-.13-.57-.28-.81-.46-.21-.16-.93-.79-.71-1.19,3.1-5.65,11.07-5.04,16.52-4.18,1.68.27,3.51.78,4.85,1.86,1.38,1.11,1.71,2.49,1.71,4.19-.01,3.59-.16,7.18-.24,10.77Z"/>
          <path class="cls-11" d="M698.96,793.6c-3.12,4.73-8.3,7.41-13.56,9.06-6.08,1.91-12.39,3.26-18.67,4.37-6.25,1.1-13.06,2.5-19.42,1.8-6.12-.67-11.07-4.05-15.43-8.2-9.6-9.13-18.7-18.83-28.02-28.24-2.05-2.08-4.23-4.18-5.24-6.99-1.11-3.09-.18-6.33,1.19-9.17,2.32-4.78,5.14-9.33,8.33-13.57,10.87-14.48,26.05-25.43,43.1-31.33,1.16-.73,2.32-1.43,3.51-2.1,5.18-2.91,11.63-4.63,17.1-1.43,5.08,2.97,7.03,9.11,9.2,14.21,5.34,12.52,10.7,25.03,16.03,37.55,4.52,10.6,8.87,23.42,1.88,34.03Z"/>
          <path class="cls-5" d="M1013.05,295c-.27,7.03-1.19,14.02-2.46,20.94-2.57,14.02-6.61,27.7-9.88,41.55-1.62,6.87-3.07,13.78-4.03,20.78-.46,3.33-.78,6.68-.98,10.03-.2,3.45-.12,6.91-.42,10.35-.3,3.4-.96,6.67-2.6,9.69-1.52,2.81-3.99,5.08-6.6,6.86-5.81,3.96-12.43,6.97-19.02,9.35-3.46,1.25-6.98,2.33-10.55,3.22-3.57.89-7.35,1.58-11.03,1.06-5.89-.83-10.65-4.47-13.41-9.68-2.6-4.91-3.71-10.38-4.42-15.84-.98-7.61-1.73-15.26-2.53-22.89-1.66-15.81-3.13-31.64-4.42-47.49-.64-7.87-1.24-15.74-1.79-23.62-.24-3.44-.33-7.03,1.5-10.1,1.63-2.73,4.58-4.37,7.38-5.65,13.57-6.19,27.71-11.21,42.01-15.42.08-.53.36-1.05.93-1.53,2.5-2.1,5.01-4.2,7.71-6.03,5.3-3.58,11.4-6.22,17.92-5.62,6.07.56,11.91,3.6,14.55,9.29,1.49,3.21,1.81,6.81,2.03,10.3.22,3.48.25,6.98.12,10.47Z"/>
          <path class="cls-5" d="M660.63,83.07c-11.5,3.04-23.23,5.8-35.12,6.75-5.5.44-12.08,1.13-17.3-1.11-5.23-2.25-8.1-7.95-10.14-12.93-7.49-18.37-3.39-40.59,9.84-55.17,8.6-18.16,17.21-36.32,25.81-54.48.62-1.31,1.63-2.51,3.2-2.51,24.86.04,49.74,8.61,69.11,24.31,9.04,7.33,15.6,16.96,16.98,28.68,1.17,9.95-1.14,20.32-5.75,29.14-11.28,21.58-34.19,31.39-56.63,37.32Z"/>
          <path class="cls-9" d="M998.54,777.12c-3.7-5.75-7.28-11.68-9.91-18.01-1.22-2.93-2.76-6.4-2.46-9.65.3-3.25,2.91-5.83,5.28-7.81,8.72-7.32,21.59-8.99,31.91-4.32,11.45,1.51,22.91,3.02,34.36,4.53.83.11,1.66.45,1.94,1.31,4.38,13.59,4.1,28.7-1.05,42.05-2.41,6.23-6.51,11.51-12.68,14.32-5.23,2.39-11.31,2.95-16.95,1.98-13.8-2.37-23.22-13.17-30.44-24.39Z"/>
          <path class="cls-6" d="M722.15,203.77c-5.55,8.89-11.09,17.79-16.65,26.68-2.27,3.62-4.71,7.05-8.95,8.42-4.26,1.38-9.02.53-13.28-.38-9.1-1.95-18.52-4.16-26.07-9.9-6.35-4.83-11.3-12.95-9.44-21.15,1.88-8.29,9.91-13.2,17.15-16.32,4.43-1.91,8.97-3.53,13.23-5.81,3.9-2.09,7.61-4.49,11.46-6.66,3.68-2.08,7.53-4.02,11.64-5.09,1.6-.42,3.21-.66,4.82-.75,3.68-2.66,7.64-3.95,12.22-2.44,4.25,1.4,7.93,4.62,9.8,8.7,3.94,8.63-1.42,17.49-5.92,24.7Z"/>
          <path class="cls-6" d="M248.13,45.23c.16,3.45-2.91,3.49-5.59,3.67-7.11.47-14.25.56-21.37.3-3.58-.13-7.15-.36-10.71-.67-3.41-.3-6.91-.53-10.16-1.7-2.92-1.05-5.53-2.69-7.2-5.36-1.44-2.29-2.05-5.03-2.19-7.7-.22-4.23.87-8.4,3.09-11.92.82-5.66,2.08-11.32,5.25-16.14,3.38-5.13,8.65-8.77,14.92-8.86,6.03-.08,12.11,2.39,16.9,5.93,4.77,3.53,8.06,8.62,10.3,14.05,2.46,5.97,3.85,12.38,5.12,18.69.63,3.16,1.49,6.49,1.63,9.72Z"/>
          <path class="cls-3" d="M1119.43,40.55c-.51,3.81-2.39,7.31-4.26,10.61-1.87,3.29-3.8,6.55-5.81,9.76-4.01,6.42-8.28,12.68-12.82,18.74-8.92,11.94-18.77,23.28-29.58,33.56-5.08,4.84-10.79,9.55-17.51,11.87-7.95,2.74-16.05,1.43-24.07-.24-8.29-1.73-16.58-3.47-24.86-5.21-4.1-.86-8.19-1.72-12.29-2.57-3.74-.78-7.54-1.44-11.21-2.54-7.03-2.11-12.64-6.43-15.6-13.26-2.9-6.69-3.74-14.3-4.57-21.47-.47-4.06-.8-8.13-1.01-12.22-.19-3.91-.47-7.92-.06-11.83.37-3.53,1.57-6.8,3.96-9.46,2.21-2.47,5.26-4.12,8.21-5.55,14.59-7.08,29.41-13.7,44.13-20.51,1.57-1.73,3.16-3.44,4.79-5.11,9.24-9.47,20.26-18.74,33.6-21.35,15.42-3.02,28.98,5.61,41.02,14.13,6.2,4.39,12.13,9.17,17.74,14.3,5.32,4.87,11.26,10.44,10.2,18.35Z"/>
          <path class="cls-4" d="M891.36,139.2c-2.7,4.88-8.47,4.75-13.31,4.06-12.42-1.78-24.7-4.79-36.63-8.62-12.25-3.93-24.18-8.9-35.61-14.8-4.83-2.49-10.18-5.12-13.38-9.7-3.4-4.86-2.6-11.44-2.56-17.05.11-13.81.22-27.63.33-41.44,0,0,.08-10.18.08-10.28.03-3.74-1.48-14.3,2.43-16.86,1.47-.96,3.34-1.02,5.09-1.05l21.91-.36c1.57-.03,3.22-.03,4.58.75,1.51.87,2.35,2.53,3.05,4.12,6.89,15.5,11.38,30.02,20.19,45.04,5.79,9.86,12.04,19.5,19.32,28.34,3.6,4.38,7.45,8.56,11.57,12.46,4.1,3.88,8.85,7.31,11.89,12.16,2.42,3.85,3.33,9.1,1.04,13.23Z"/>
          <path class="cls-2" d="M1303.06,268.17c-15.2,9.9-30.41,19.8-45.61,29.7-7.69,5.01-15.38,10.02-23.07,15.02-3.76,2.45-7.51,4.89-11.27,7.34-3.35,2.18-6.65,4.67-10.56,5.75-7.17,1.98-14.07-2.42-20.02-5.84-7.88-4.53-15.69-9.17-23.44-13.92-3.78-2.32-7.55-4.66-11.3-7.03-3.62-2.29-7.69-4.43-10.56-7.68-4.69-5.31-4.88-12.4-2.58-18.83,2.46-6.87,6.98-12.85,11.06-18.82,5.01-7.32,10.14-14.56,15.4-21.7,10.67-14.48,21.86-28.58,33.53-42.27,5.12-6.02,10.42-12.2,18.5-13.94,6.28-1.35,12.85.31,18.58,2.91,11.77,5.35,20.6,16.47,32.73,20.94.43-.25.96-.35,1.6-.23,3.71.7,7.33,1.75,10.86,3.1,14.07,5.37,26.35,16.08,33.29,29.48,3.59,6.93,4.96,14.67.48,21.57-4.18,6.44-11.35,10.36-17.62,14.44Z"/>
          <path class="cls-11" d="M1375.6,80.05c-1.21,2.67-3.52,4.93-5.37,7.17-1.91,2.32-3.83,4.63-5.77,6.93-3.94,4.68-7.94,9.31-11.99,13.89-3.99,4.5-8.03,8.96-12.12,13.36-3.61,3.88-7.55,7.9-13.21,8.07-5.97.18-11.69-3.14-16.99-5.49-5.64-2.5-11.28-4.99-16.92-7.49-5.74-2.54-11.48-5.08-17.21-7.62-5.02-2.22-10.26-4.21-15.07-6.88-4.22-2.33-8.14-5.55-9.88-10.19-1.54-4.12-1.23-8.46.2-12.56,4.89-14.05,11.66-15.98,3.24-29.96-.4-.67-.83-1.42-.7-2.19.14-.92.99-1.55,1.78-2.06,12.99-8.5,27.08-15.32,41.81-20.23,2.72-.91,5.53-1.76,8.4-1.71,3.32.06,6.48,1.32,9.56,2.57,10.27,4.15,18.32,9.67,26.83,16.78,4.55,3.81,9.02,7.71,13.41,11.69,4.32,3.92,8.56,7.92,12.71,12.01,3.58,3.52,9.94,8.14,7.32,13.91Z"/>
          <path class="cls-6" d="M1163.91,134.47c-1.98,4.37-1.35,9.49-2.87,14.03-2.88,8.59-13.19,6.26-19.99,4.94-3.98-.77-7.72-2.68-10.51-5.66-5.97-6.37-6.3-15.94-3.7-23.96.11-2.24.42-4.47.95-6.67.6-2.5,1.35-5.85,3.27-7.71,2.13-2.06,6.1-1.49,8.75-1.14,2.65.34,4.8,1.6,7.05,2.98,8.06,4.93,18.02,8.95,18.42,16.97.09,1.84-.32,3.89-1.37,6.21Z"/>
          <path class="cls-10" d="M1003.26,212.95c-.26,3.12.09,7.46-2.12,9.99-2.21,2.53-6.13,2.51-9.19,2.8-7.94.76-15.87,1.52-23.81,2.28-1.54.15-4-.54-4.55-2.24-2.95-9.12-18.35-37.88-6.86-45.24,3.48-2.23,7.88-2.28,12.02-2.25,9.71.06,19.41.12,29.12.18,6.83.04,8.77,5.11,8.76,11.53,0,7.87-2.94,17.78-3.37,22.96Z"/>
          <path class="cls-11" d="M1012.91,508.82c-.23,2.28-.96,4.52-1.51,6.73-.58,2.3-1.15,4.6-1.73,6.9l-3.59,14.38c-1.75,7.02-3.17,16.8-10.58,19.94-8.34,3.53-17.13-3.15-23.8-7.61-7.59-5.07-14.89-10.59-21.87-16.51-3.21-2.72-7.07-5.47-9.42-9.07-1.21-1.85-1.84-4.12-1.4-6.33.4-2.03,1.61-3.7,2.9-5.23,10.01-11.92,26.27-17.87,41.34-15.87.03,0,.07.02.1.02,3.05.05,6.1.3,9.12.71,4.65.62,9.32,1.5,13.87,2.67,2.1.54,4.22,1.53,5.45,3.47,1.12,1.76,1.32,3.76,1.11,5.81Z"/>
          <path class="cls-6" d="M1143.56,424.29c-2.4,6.13-5.48,12.06-8.39,17.96-2.95,5.97-6.01,11.87-9.17,17.72-3.14,5.79-6.36,11.54-9.73,17.19-2.76,4.62-6.14,9.35-11.5,11.08-10.33,3.34-21.48-3.75-27.59-11.67-3.71-4.81-6.28-10.39-8.84-15.86-2.47-5.28-5.14-10.27-8.56-15-3.3-4.56-6.75-9.18-8.31-14.67-1.2-4.23-.94-8.7.63-12.8,3.01-7.88,9.26-13.94,14.2-20.6-.02-3.34.05-6.68.16-10.02.23-6.65-4.16-13.75,2.43-18.42,2.57-1.82,5.68-2.65,8.74-3.4,5.44-1.32,10.92-2.45,16.44-3.4,1.84-.32,3.79-.6,5.54.07,1.68.65,2.91,2.08,4.07,3.46,9.93,11.86,18.97,25.74,31.16,35.3,2.35,1.84,4.82,3.64,6.76,5.93,2,2.35,3.47,5.13,3.66,8.25.19,3.07-.59,6.05-1.7,8.89Z"/>
          <path class="cls-5" d="M1336.56,652.13c-17.48,16.85-32.12,1.78-46.99-13.21-3.72-3.75-7.27-7.94-8.74-13.01-3.66-12.6,6.34-24.72,15.71-33.91,2.99-2.93,6.35-6.02,10.53-6.36,5.06-.41,9.43,3.32,13,6.93,9.89,9.97,21.78,21.3,25.17,33.42,2.35,8.4.62,17.17-8.69,26.14Z"/>
          <path class="cls-2" d="M574.31,928.47c-3.74,5.19-7.77,10.62-13.67,13.08-16.33,6.84-25.38-19.08-28.97-30.28-1.36-4.25-2.53-8.56-3.67-12.88-1.13-4.31-2.56-8.94-1.24-13.37,2.48-8.33,12.84-11.03,20.43-11.76,2.3-.22,4.62-.15,6.79.71,1.95.77,3.64,2.08,5.15,3.51,3.54,3.34,6.59,7.29,9.79,10.95,3.72,4.29,16.14,14.1,17.09,19.51.21,1.18.1,2.41-.23,3.67-1.56,5.82-8.1,12.18-11.47,16.86Z"/>
          <path class="cls-4" d="M606.55,882.79c-.93,4.4-4.93,6.6-9.16,6.82-2.17.11-4.35-.27-6.48-.66-2.47-.45-4.95-.88-7.43-1.26-5.04-.79-10.1-1.44-15.17-1.95-19.83-2.01-39.96-1.88-59.76.38-9.98,1.14-19.9,2.8-29.7,4.99-8.98,2-17.75,4.83-26.74,6.74-7.96,1.7-16.56,2.78-24.56.69-3.95-1.03-7.7-2.78-10.85-5.41-3.5-2.92-6.04-6.65-8.23-10.6-2.39-4.3-4.48-8.78-6.67-13.18-2.35-4.71-4.7-9.43-7.05-14.14-2.32-4.65-4.79-9.26-6.95-13.98-1.93-4.22-2.77-9.04.64-12.76,1.46-1.59,3.23-2.78,5.02-3.96,2-1.32,4.01-2.63,6.03-3.91,4.11-2.6,8.28-5.12,12.49-7.55,8.34-4.81,16.86-9.3,25.56-13.43,15.77-7.48,32.09-13.75,48.79-18.83,4.36-1.41,8.72-2.82,13.08-4.23,10.18-3.29,20.36-6.58,30.54-9.87,2.53-.82,5.05-1.63,7.58-2.45,2.37-.76,4.73-1.63,7.18-2.08,4.94-.91,9.51.27,12.76,4.23,1.47,1.8,2.68,3.84,3.93,5.8,1.29,2.02,2.56,4.06,3.81,6.1,2.51,4.11,4.94,8.27,7.28,12.47,4.67,8.38,9,16.95,12.98,25.68,7.99,17.53,14.56,35.7,19.6,54.3,1.06,3.89,2.33,7.99,1.47,12.04Z"/>
          <path class="cls-6" d="M924.21,1019.87c-2.34,3.45-5.76,5.97-8.76,8.8-3.43,3.23-5.7,6.92-7.51,11.26-1.84,4.44-3.41,9.1-6.81,12.64-3,3.11-7.09,5.12-11.44,4.04-5.41-1.34-9.77-5.07-14.09-8.38-4.44-3.4-8.82-6.88-13.14-10.43-4.01-3.3-8.14-6.57-11.84-10.22-3.21-3.16-6-7.04-6.03-11.72-.03-5.01,2.67-9.84,5.5-13.81,3.54-4.96,8.16-9.08,13.43-12.09,1.43-1.17,3.03-2.17,4.63-3.03,4.43-2.37,9.18-4.23,13.8-6.17,5.23-2.2,10.5-4.31,15.8-6.32,1.24-.47,2.48-.98,3.84-.84,1.35.13,2.69.72,3.89,1.31,2.25,1.11,3.79,2.78,5.4,4.65,3.34,3.86,6.31,8.03,8.86,12.44,2.55,4.4,4.93,9.11,6.23,14.05,1.25,4.76,1.05,9.67-1.77,13.83Z"/>
          <path class="cls-6" d="M576.99,1092.78c-.81,2.12-2.3,3.85-3.71,5.6-1.46,1.81-2.94,3.59-4.45,5.35-12.2,14.19-26.13,26.9-41.44,37.67-7.77,5.47-16.08,11.04-25.43,13.32-4.56,1.11-9.35,1.38-13.95.35-4.12-.92-8.01-2.77-11.44-5.21-7.23-5.14-12.61-12.31-18.05-19.21-6.65-8.44-13.29-16.89-19.94-25.33-6.59-8.37-13.22-16.7-19.76-25.11-2.91-3.74-5.75-7.68-7.44-12.15-1.73-4.58-2.12-9.43-1.97-14.29.16-4.98.86-9.94,1.51-14.87.69-5.2,1.47-10.39,2.34-15.56,1.73-10.26,3.83-20.47,6.29-30.58,2.01-8.28,3.77-17.03,8.14-24.46,3.61-6.14,9.37-11.08,16.9-10.08,4.35.58,8.17,3.22,11.27,6.19,3.53,3.38,6.6,7.28,9.8,10.97,6.99,8.05,13.98,16.1,20.97,24.15.25.29.39.64.42,1,12.82,7.51,25.44,15.39,37.36,24.27,13.34,9.94,25.84,21.11,36.13,34.23,5.09,6.48,9.57,13.43,13.33,20.76,1.99,3.88,4.8,8.55,3.1,13Z"/>
          <path class="cls-5" d="M172.66,849.46c-2.69,7.62-5.71,15.14-8.56,22.69l-4.23,11.19c-1.13,2.99-2.3,6.21-5.59,7.35-3.23,1.11-7.1.56-10.45.43-3.92-.15-7.84-.38-11.75-.67-15.38-1.16-30.69-3.34-45.77-6.59-15.17-3.26-30.1-7.54-44.69-12.83-3.25-1.18-6.75-2.22-9.7-4.07-2.98-1.87-4.69-4.58-5.08-8.07-.39-3.53-.05-7.17.04-10.7.11-4.15.21-8.31.32-12.46.42-16.28.83-32.57,1.25-48.85.08-3.22-.24-6.9,1.13-9.9,1.19-2.59,3.51-4.01,6.23-4.52,2.64-.5,5.37-.21,8.03-.05,1.39.08,2.86.16,4.28,0,1.06-.31,2.12-.61,3.19-.9.07-.04.14-.06.21-.1.39-.22.84-.3,1.29-.3,13.07-3.36,26.86-4.5,39.45,1.39,6.48,3.03,12.16,7.41,17.58,12.03,6.03,5.14,11.99,10.37,17.99,15.56,12.28,10.64,24.57,21.28,36.85,31.92,2.59,2.25,5.79,4.43,7.69,7.34,2.07,3.19,1.51,6.7.31,10.1Z"/>
          <path class="cls-6" d="M1240.55,1206.76c-.84,2.41-1.78,4.78-2.67,7.17l-1.32,3.54c-.35.94-.72,1.96-1.75,2.32-1.01.35-2.22.18-3.26.14-1.22-.05-2.45-.12-3.67-.21-4.8-.37-9.58-1.06-14.29-2.08-4.74-1.03-9.4-2.38-13.96-4.06-1.02-.37-2.11-.7-3.03-1.29-.93-.59-1.46-1.45-1.59-2.55-.12-1.11-.02-2.26.01-3.38l.1-3.94.39-15.44c.03-1.02-.08-2.18.35-3.13.37-.82,1.1-1.27,1.95-1.43.82-.16,1.68-.06,2.51-.02.43.03.89.05,1.34,0,.33-.1.66-.19,1-.29.02-.01.04-.02.06-.03.12-.07.26-.1.4-.09,4.08-1.06,8.39-1.42,12.32.44,2.03.96,3.8,2.34,5.49,3.8,1.88,1.62,3.75,3.28,5.62,4.92,3.84,3.36,7.67,6.73,11.51,10.09.81.71,1.81,1.4,2.4,2.32.65,1.01.47,2.12.1,3.19Z"/>
          <path class="cls-11" d="M347.14,905.46c-.75,1.77-3.55,1.98-5.18,2.19-2.44.31-4.91.33-7.36.17-5.1-.34-10.19-1.16-15.25-1.86-5.05-.7-10.09-1.44-15.12-2.22-10.13-1.57-20.23-3.29-30.31-5.17-4.93-.92-9.87-1.84-14.78-2.87-3.88-.81-8.12-1.92-10.92-4.92-2.92-3.12-3.2-8.12-3.96-12.11-.46-2.44-.92-4.88-1.38-7.31-.38-1.99-.76-4.02-.61-6.05.14-1.92.87-3.75,2.3-5.08,1.66-1.54,3.91-2.46,5.89-3.5,4.49-2.34,8.98-4.69,13.47-7.03.43-.22,1.01-.26,1.61-.21,6.5-3.97,14.09-5.61,21.6-6.34,4.14-.4,8.3-.49,12.46-.49,4.32,0,9-.3,13.13,1.18,4.38,1.57,6.33,5.48,8.51,9.28,2.46,4.29,4.87,8.61,7.22,12.96,4.75,8.76,9.29,17.64,13.62,26.62,1.07,2.23,2.13,4.46,3.18,6.7.53,1.13,1.1,2.25,1.57,3.4.34.83.68,1.79.31,2.66Z"/>
          <path class="cls-3" d="M107.08,1084.58c-3.57,5.06-9.59,7.37-15.28,9.17-6.89,2.18-13.91,3.94-21.01,5.28-6.53,1.23-13.25,2.35-19.9,2.47-5.97.12-12.34-1.1-16.55-5.68-2.12-2.31-3.55-5.19-5.01-7.94-1.72-3.26-3.41-6.54-5.06-9.84-3.18-6.37-6.24-12.81-9.13-19.32-2.82-6.33-5.43-12.79-7.12-19.53-1.66-6.66-2.45-13.6-1.37-20.42,1.05-6.61,3.72-12.76,6.94-18.58,3.35-6.06,7.11-11.9,10.72-17.8,3.88-6.34,7.75-12.7,11.65-19.03,4.93-8.02,10.97-16.77,20.06-20.02,6.79-4.45,15.05-6.5,23.07-4.25.78.22,1.77.58,1.82,1.55.15,3.43.35,6.86.61,10.29,2.08,27.9,7.62,55.51,16.46,82.06,2.21,6.64,4.64,13.2,7.24,19.7,2.11,5.27,4.04,10.68,4.85,16.32.77,5.39.22,11.02-2.99,15.57Z"/>
          <path class="cls-10" d="M1136.72,1241.64c5.14,3.47,7.57,9.43,9.49,15.08,2.32,6.84,4.24,13.82,5.73,20.89,1.37,6.5,2.63,13.2,2.9,19.85.24,5.96-.84,12.36-5.33,16.66-2.26,2.17-5.12,3.66-7.84,5.17-3.22,1.79-6.47,3.55-9.73,5.27-6.3,3.32-12.67,6.51-19.12,9.54-6.27,2.95-12.67,5.7-19.37,7.53-6.62,1.81-13.54,2.74-20.38,1.8-6.63-.91-12.84-3.45-18.73-6.54-6.13-3.22-12.05-6.85-18.02-10.34-6.43-3.75-12.86-7.48-19.28-11.24-8.13-4.76-17-10.62-20.44-19.63-4.6-6.69-6.81-14.91-4.74-22.98.2-.78.55-1.79,1.51-1.85,3.43-.23,6.85-.5,10.27-.83,27.85-2.67,55.34-8.8,81.69-18.19,6.59-2.35,13.1-4.92,19.54-7.66,5.23-2.22,10.59-4.27,16.22-5.2,5.37-.89,11.01-.45,15.63,2.66Z"/>
          <path class="cls-4" d="M159.53,968.72c-3.39,4.59-6.78,9.18-10.17,13.77-1.27,1.72-2.76,3.57-4.87,3.88-4.8.7-11.81-3.44-14.61-6.94-1.51-1.88-2.76-3.96-3.82-6.12-2.16-4.43-3.55-9.19-4.65-13.98-.58-2.5-1.13-5.02-1.57-7.55-.49-2.85-.55-5.74.93-8.32,1.3-2.28,3.43-4.17,5.41-5.86,2.04-1.73,4.25-3.29,6.57-4.63,2.33-1.35,4.79-2.49,7.33-3.41,1.26-.45,2.54-.84,3.83-1.18,1.38-.37,2.79-.75,4.24-.58,1.38.16,2.4.93,3.27,1.97.89,1.07,1.72,2.2,2.56,3.31,1.72,2.27,3.38,4.59,4.83,7.05,4.93,8.4,6.88,20.25.72,28.59Z"/>
          <path class="cls-2" d="M301.49,1164.85c-10.98,8.21-21.96,16.42-32.93,24.62l-14.57,10.89c-4.49,3.36-8.91,6.93-13.73,9.82-4.81,2.89-10.01,4.56-15.48,5.69-5.57,1.15-11.11,2.39-16.66,3.59-5.59,1.21-11.34,2.23-17.08,1.89-5.31-.32-10.42-1.74-15.07-4.33-8.6-4.8-15.15-12.37-21.39-19.82-.3-.35-.43-.77-.44-1.19-6.1-4.34-12.09-9.53-15.44-16.36-1.63-3.33-2.38-6.98-2.16-10.68.26-4.38,2.1-8.49,4.16-12.31,8.5-15.8,18.94-30.67,30.55-44.33,2.88-3.39,5.85-6.71,8.9-9.95,2.95-3.13,5.92-6.31,9.31-8.97,3.42-2.68,7.25-4.86,11.57-5.68,4.36-.83,8.84-.54,13.12.57,8.69,2.24,16.48,7.22,23.43,12.76,7.19,5.74,13.73,12.28,20.38,18.63,14.57,13.89,29.14,27.78,43.72,41.68,1.18,1.12,1.1,2.49-.19,3.46Z"/>
          <path class="cls-4" d="M106.54,1249.68c-1.34,9.3-8.05,16.03-16.13,20.21-4.54,2.35-9.48,3.87-14.38,5.29-2.56.74-5.12,1.44-7.67,2.22-1.96.6-4.24,1.16-5.72,2.68-1.39,1.43-2.09,3.43-3.03,5.16-1.07,1.96-2.45,3.58-4.45,4.63-4.03,2.13-9.18,1.42-13.24-.26-7.77-3.22-13.48-10.61-14.33-19.01-.81-1.16-1.52-2.4-2.09-3.7-3.46-7.94-2.17-17.26.12-25.33.3-1.06.62-2.12.96-3.18-.04-.76-.09-1.53-.13-2.29-.05-.89.61-1.47,1.47-1.72,2.58-7.28,5.92-14.4,10.06-20.79,2.67-4.12,6.1-7.64,10.61-9.7,4.4-2.02,9.28-2.69,14.07-2.98,8.89-.55,18.69-.86,27.06,2.7,4.06,1.73,7.67,4.41,10.28,7.99,2.43,3.34,4,7.16,4.97,11.16,1.01,4.16,1.49,8.41,1.71,12.68.25,4.71.54,9.57-.13,14.25Z"/>
          <path class="cls-5" d="M408.7,1153.23c-2.33,4.84-7.2,5.67-10.24,10.14-2.54,3.73-4.1,8.32-7.77,10.93-1.55,1.1-3.36,1.75-5.14,2.39-16.81,6-36.75,14.04-45.25-6.56-3.79-9.17-6.59-18.72-8.27-28.5-.83-4.81-1.41-9.67-1.72-14.55-.3-4.82-.52-9.79-.06-14.6.22-2.27.73-4.45,2.07-6.34,1.24-1.76,3.07-3.08,4.86-4.24,4.22-2.71,8.61-5.19,13.04-7.52,4.41-2.32,8.91-4.5,13.51-6.44,2.31-.98,4.7-1.79,7.24-1.37,2.17.36,4.07,1.51,5.63,3.03,3.38,3.28,5.5,7.9,7.88,11.9l8.12,13.66c2.75,4.63,5.49,9.25,8.24,13.88,1.35,2.28,2.71,4.55,4.06,6.83,1.29,2.16,2.65,4.31,3.63,6.64,1.44,3.46,1.86,7.28.2,10.74Z"/>
          <path class="cls-9" d="M590.79,1240.24c-.26,3.93-.66,7.92-1.53,11.76-.71,3.14-1.87,6.28-4.05,8.71-2.63,2.93-6.31,4.32-10.06,5.12-4.07.87-8.19,1.54-12.29,2.29-7.75,1.43-16.13,2.94-23.73.03-3.09-1.18-5.9-2.97-7.99-5.56-5.36-6.64-4.94-19.14-7.75-27.18-1.3-3.72-2.62-7.67-1.84-11.54,1.44-7.09,18.2-20.69,25.01-22.48,8.12-2.14,16.3.19,24,2.83,4.07,1.39,8.14,2.8,12.21,4.2,1.55.53,3.28,1.05,4.49,2.22,1.28,1.24,1.85,2.89,2.19,4.6,1.61,8.15,1.9,16.72,1.35,24.99Z"/>
          <path class="cls-4" d="M770.46,440.63c-.26,3.93-.66,7.92-1.53,11.76-.71,3.14-1.87,6.28-4.05,8.71-2.63,2.93-6.31,4.32-10.06,5.12-4.07.87-8.19,1.54-12.29,2.29-7.75,1.43-16.13,2.94-23.73.03-3.09-1.18-5.9-2.97-7.99-5.56-5.36-6.64-4.94-19.14-7.75-27.18-1.3-3.73-2.62-7.67-1.84-11.54,1.44-7.09,18.2-20.69,25.01-22.48,8.12-2.14,16.3.19,24,2.83,4.07,1.39,8.14,2.8,12.21,4.2,1.55.54,3.28,1.05,4.49,2.22,1.28,1.24,1.85,2.89,2.19,4.6,1.61,8.15,1.9,16.72,1.35,24.99Z"/>
          <path class="cls-4" d="M438.93,1235.03c.84,3.01.54,6.24.22,9.3-.32,3.07-.83,6.13-1.53,9.14-1.38,5.89-3.5,11.6-6.3,16.96-10.01,19.16-27.69,31.48-46.15,41.82.2.33.21.75-.08,1.21-1.56,2.53-3.83,4.42-6.47,5.74-5.85,2.95-12.96,2.96-19.33,2.41-7.24-.62-14.47-1.66-21.69-2.52-3.71-.44-7.42-.88-11.13-1.31-3.29-.39-6.62-.69-9.87-1.37-3.04-.64-6.04-1.72-8.52-3.63-2.59-1.98-4.42-4.86-5.58-7.87-8.06-20.91,7.33-42.23,22.02-55.69,10.53-9.65,22.26-18.02,34.69-25.05,6.18-3.5,12.47-7.32,19.86-6.28,7.27,1.02,14.49,2.7,21.7,4.08,7.31,1.39,14.62,2.79,21.93,4.18,6.19,1.18,14.24,1.65,16.25,8.87Z"/>
        </g>
        <g>
          <path class="cls-4" d="M10.98,1110.94c-1.48,2.12-3.12,4.22-5.36,5.51-3.39,1.96-7.57,1.75-11.46,1.27-4.33-.54-8.77-1.1-13.04-2.02-5.76-1.23-11.35-3.34-16.94-5.18-6.4-2.1-12.8-4.2-19.21-6.29-6.4-2.1-12.8-4.2-19.21-6.29-3.26-1.07-6.53-2.14-9.79-3.21-2.84-.93-6.17-1.6-8.57-3.46-5.4-4.18-3.39-11.31-1.87-16.86,1.7-6.2,3.6-12.34,5.69-18.42,2.1-6.11,4.4-12.16,6.9-18.12,2.28-5.43,5.27-10.67,8.1-15.86,1.15-2.12,3.49-8.57,5.6-9.66,2.11-1.08,7.48,1.51,9.79,2.2,3.65,1.1,7.28,2.27,10.89,3.48,14.47,4.85,28.7,10.4,43.14,15.33,13.69,4.67,27.95,9.71,40.28,17.33.88.54,1.8,1.15,2.21,2.11.53,1.23.06,2.63-.42,3.88-3.67,9.54-7.43,19.09-12.34,28.07-3.63,6.64-6.8,13.67-10.63,20.25-1.18,2.03-2.42,4.01-3.76,5.93Z"/>
          <path class="cls-10" d="M-99.5,416.12s.04-.04.05-.05c4.37-4.39,9.03-8.95,15.03-10.51,5.2-1.35,10.69-.24,15.93.94,29.15,6.55,58.52,14.52,86.37,25.42,12.59,4.93,19.86,6.66,17.72,21.8-1.75,12.39-5.31,24.54-10.42,35.95-3,6.69-6.43,13.61-10.79,19.54-5.41,7.38-7.14,7.02-16.13,4.94-31.18-7.22-62.4-14.7-92.4-25.86-9.5-3.53-19.12-6.53-28.56-10.25-1.64-.65-3.31-1.37-4.53-2.63-2.96-3.08-2.25-8.05-1.23-12.2,5.22-21.25,13.82-31.89,28.95-47.09Z"/>
          <path class="cls-11" d="M33.6,80.05c-1.21,2.67-3.52,4.93-5.37,7.17-1.91,2.32-3.83,4.63-5.77,6.93-3.94,4.68-7.94,9.31-11.99,13.89-3.99,4.5-8.03,8.96-12.12,13.36-3.61,3.88-7.55,7.9-13.21,8.07-5.97.18-11.69-3.14-16.99-5.49-5.64-2.5-11.28-4.99-16.92-7.49-5.74-2.54-11.48-5.08-17.21-7.62-5.02-2.22-10.26-4.21-15.07-6.88-4.22-2.33-8.14-5.55-9.88-10.19-1.54-4.12-1.23-8.46.2-12.56,4.89-14.05,11.66-15.98,3.24-29.96-.41-.67-.83-1.42-.7-2.19.14-.92.99-1.55,1.78-2.06,12.99-8.5,27.08-15.32,41.81-20.23,2.72-.91,5.53-1.76,8.4-1.71,3.32.06,6.48,1.32,9.56,2.57C-16.4,29.81-8.35,35.33.16,42.44c4.55,3.81,9.02,7.71,13.41,11.69,4.32,3.92,8.56,7.92,12.71,12.01,3.58,3.52,9.94,8.14,7.32,13.91Z"/>
          <path class="cls-5" d="M-5.44,652.13c-17.48,16.85-32.12,1.78-46.99-13.21-3.72-3.75-7.27-7.94-8.74-13.01-3.66-12.6,6.34-24.72,15.71-33.91,2.99-2.93,6.35-6.02,10.53-6.36,5.06-.41,9.43,3.32,13,6.93,9.89,9.97,21.78,21.3,25.17,33.42,2.35,8.4.62,17.17-8.69,26.14Z"/>
        </g>
        <g>
          <path class="cls-10" d="M1136.72-56.36c5.14,3.47,7.57,9.43,9.49,15.08,2.32,6.84,4.24,13.82,5.73,20.89,1.37,6.5,2.63,13.2,2.9,19.85.24,5.96-.84,12.36-5.33,16.66-2.26,2.17-5.12,3.66-7.84,5.17-3.22,1.79-6.47,3.55-9.73,5.27-6.3,3.32-12.67,6.51-19.12,9.54-6.27,2.95-12.67,5.7-19.37,7.53-6.62,1.81-13.54,2.74-20.38,1.8-6.63-.91-12.84-3.45-18.73-6.54-6.13-3.22-12.05-6.85-18.02-10.34-6.43-3.75-12.86-7.48-19.28-11.24-8.13-4.76-17-10.62-20.44-19.63-4.6-6.69-6.81-14.91-4.74-22.98.2-.78.55-1.79,1.51-1.85,3.43-.23,6.85-.5,10.27-.83,27.85-2.67,55.34-8.8,81.69-18.19,6.59-2.35,13.1-4.92,19.54-7.66,5.23-2.22,10.59-4.27,16.22-5.2,5.37-.89,11.01-.45,15.63,2.66Z"/>
          <path class="cls-4" d="M438.93-62.97c.84,3.01.54,6.24.22,9.3-.32,3.07-.83,6.13-1.53,9.14-1.38,5.89-3.5,11.6-6.3,16.96-10.01,19.16-27.69,31.48-46.15,41.82.2.33.21.75-.08,1.21-1.56,2.53-3.83,4.42-6.47,5.74-5.85,2.95-12.96,2.96-19.33,2.41-7.24-.62-14.47-1.66-21.69-2.52-3.71-.44-7.42-.88-11.13-1.31-3.29-.39-6.62-.69-9.87-1.37-3.04-.64-6.04-1.72-8.52-3.63-2.59-1.98-4.42-4.86-5.58-7.87-8.06-20.91,7.33-42.23,22.02-55.69,10.53-9.65,22.26-18.02,34.69-25.05,6.18-3.5,12.47-7.32,19.86-6.28,7.27,1.02,14.49,2.7,21.7,4.08,7.31,1.39,14.62,2.79,21.93,4.18,6.19,1.18,14.24,1.65,16.25,8.87Z"/>
        </g>
      </g>
    </pattern>
  </defs>
  <g id="Layer_11" data-name="Layer 11">
    <g>
      <rect class="cls-7" width="357.03" height="357.03"/>
      <rect class="cls-8" width="357.03" height="357.03"/>
    </g>
  </g>
</svg>