<?xml version="1.0" encoding="UTF-8"?>
<svg xmlns="http://www.w3.org/2000/svg" viewBox="0 0 160.11 153.59">
  <defs>
    <style>
      .cls-1 {
        fill: #383738;
        font-size: 31.34px;
      }

      .cls-1, .cls-2 {
        font-family: BebasNeueBook, 'Bebas Neue';
      }

      .cls-2 {
        font-size: 22.99px;
      }

      .cls-2, .cls-3 {
        fill: #b2711b;
      }

      .cls-4 {
        fill: #f4b045;
      }

      .cls-5 {
        isolation: isolate;
      }

      .cls-6 {
        fill: #fff;
      }

      .cls-7 {
        fill: #d6dee5;
        mix-blend-mode: multiply;
      }

      .cls-8 {
        letter-spacing: 0em;
      }

      .cls-9 {
        fill: #ffd69f;
      }
    </style>
  </defs>
  <g class="cls-5">
    <g id="Layer_2" data-name="Layer 2">
      <g id="Objects">
        <g>
          <path class="cls-7" d="M148.85,104.89h-1.82c-.16-.49-.32-.99-.48-1.48-1.73-5.34-9.11-5.34-10.85,0-.16.5-.32.99-.48,1.48h-1.82c-3.47,0-5.31,2.49-5.4,5.19-.61-.88-1.22-1.77-1.83-2.65-1.62-2.36-5.04-3.84-7.7-2.02-.36.25-.72.5-1.08.75-.48.33-.87.69-1.2,1.08-.61.52-1.1,1.15-1.41,1.86-1.03.01-2.06.28-2.81.79-.52.36-1.03.71-1.55,1.07-.64.44-1.21,1.01-1.67,1.66-.85-.06-1.76.08-2.7.4v-1.89c0-.21,0-.44,0-.66.1-.22.16-.47.24-.69,1.17-2.84,2.12-5.79,3.18-8.68.14-.39.22-.77.25-1.16h15.94c3.04,0,5.62-2.58,5.62-5.62,0-7.95,0-15.9,0-23.85.01-.25.02-.51,0-.78,0-.48-.05-.92-.14-1.34-.85-6.25-4.7-11.61-10.39-13.77v-7.27c4.3-1.93,7.7-5.66,8.99-10.35.8-2.93.58-6.11.58-9.12V8.06c0-3.04-2.58-5.62-5.62-5.62-12.07,0-35.28-3.69-39.93,10.53h-7.06c-1.95-4.35-5.78-7.76-10.51-9.03-2.76-.74-5.73-.54-8.56-.54h-20.21c-3.04,0-5.62,2.58-5.62,5.62v20.2c0,2.85-.18,5.79.54,8.57,1.23,4.75,4.71,8.59,9.09,10.53v8.17c-4.29,2.29-7.44,6.24-8.37,11.28-.49,2.65-.29,5.44-.29,8.12,0,6.47,0,12.93,0,19.4,0,3.04,2.58,5.62,5.62,5.62h15.33v9.26c-1.59-1.51-3.55-2.75-5.21-4.01-2.62-1.99-6.05-.16-7.7,2.02-1.25,1.65-2.5,3.3-3.76,4.95,1.76-3.49.09-8.25-4.73-8.25h-1.82c-.16-.49-.32-.99-.48-1.48-1.73-5.34-9.11-5.34-10.85,0-.16.5-.32.99-.48,1.48h-1.82c-5.97,0-7.13,7.37-2.84,10.48.34.25.68.49,1.01.74-.22.66-.43,1.33-.65,1.99-1.44,4.42,4.26,9.26,8.26,6.35.65-.47,1.29-.94,1.94-1.41.65.47,1.29.94,1.94,1.41.45.33.93.55,1.41.69-.13.17-.27.35-.4.53-1.99,2.62-.16,6.05,2.02,7.7.38.29.77.58,1.15.87.91.69,1.92.91,2.92.83.45,1.32,1.42,2.46,2.55,3.32.4.3.8.61,1.2.91.68.52,1.42.78,2.17.85.47.8,1.23,1.5,2.37,1.99.4.17.81.35,1.21.52,2.1.91,4.04.87,5.69-.14.28,1.58,1.08,3.08,2.59,3.74.44.19.88.38,1.32.57,1.28.55,2.8.74,4.2.48.64.82,1.54,1.43,2.72,1.61.42.07.85.13,1.27.2.89.14,1.87.11,2.82-.09.51.39,1.1.67,1.77.77.48.07.95.15,1.42.22.97.15,1.85.12,2.65-.05.52.39,1.14.67,1.87.78.45.07.91.14,1.36.21,1.15.18,2.48.09,3.66-.33.79.49,1.74.76,2.85.71.44-.02.88-.04,1.31-.06,1.72-.08,3.67-.98,4.72-2.47,1.06,1.26,2.65,2.13,4.29,2.06.48-.02.96-.05,1.44-.07,1.14-.05,2.2-.41,3.08-1,.98.27,2.03.31,3.01.09,3.6-.81,7.16-1.87,9.57-4,1.71.8,3.91.72,5.64-.03.4-.17.81-.35,1.21-.52,1.52-.65,2.32-2.14,2.59-3.71,1.65,1.01,3.59,1.06,5.7.15.44-.19.88-.38,1.32-.57.76-.33,1.38-.93,1.85-1.67.84-.03,1.67-.28,2.44-.81.36-.25.72-.5,1.08-.75,1.08-.74,1.97-1.87,2.45-3.12,1.16.06,2.36-.2,3.2-.78.44-.3.88-.6,1.32-.91,2.36-1.62,3.84-5.04,2.02-7.7-.12-.18-.24-.35-.36-.53.32-.13.63-.3.93-.52.65-.47,1.29-.94,1.94-1.41.65.47,1.29.94,1.94,1.41,3.99,2.9,9.71-1.91,8.26-6.35-.22-.67-.43-1.33-.65-1.99.34-.25.68-.49,1.01-.74,4.29-3.11,3.14-10.48-2.84-10.48ZM35.36,116.71c-.06-.2-.13-.4-.2-.6.34-.25.68-.49,1.01-.74.2-.15.38-.31.56-.48-.46.6-.92,1.21-1.38,1.82ZM87.73,93.99c-.83,0-1.57.15-2.21.42-1.97-.55-4.12-.42-6.16-.42-.92,0-1.8.24-2.57.65-.02,0-.04-.02-.06-.03.78-1.02,1.45-2.14,1.97-3.33h8.15c.51.96,1.1,1.86,1.77,2.7-.3,0-.6,0-.9,0ZM95.94,53.56h-5.41c-1.73,0-3.03.64-3.94,1.62-1.01.9-1.69,2.24-1.69,4.01v7.28h-4.74v-6.31c0-3.04-2.58-5.62-5.62-5.62h-7.28v-4.74h6.31c3.04,0,5.62-2.58,5.62-5.62,0-2.13,0-4.25,0-6.38h4.74v5.41c0,3.04,2.58,5.62,5.62,5.62h6.38v4.74ZM106.05,110.21s0-.02,0-.04c-.1-.93.17-.24,0,.04Z"/>
          <g>
            <path class="cls-6" d="M146.85,102.89h-1.82c-.16-.49-.32-.99-.48-1.48-1.73-5.34-9.11-5.34-10.85,0-.16.5-.32.99-.48,1.48h-1.82c-3.47,0-5.31,2.49-5.4,5.19-.61-.88-1.22-1.77-1.83-2.65-1.62-2.36-5.04-3.84-7.7-2.02-.36.25-.72.5-1.08.75-.48.33-.87.69-1.2,1.08-.61.52-1.1,1.15-1.41,1.86-1.03.01-2.06.28-2.81.79-.52.36-1.03.71-1.55,1.07-.64.44-1.21,1.01-1.67,1.66-.85-.06-1.76.08-2.7.4v-1.89c0-.21,0-.44,0-.66.1-.22.16-.47.24-.69,1.17-2.84,2.12-5.79,3.18-8.68.14-.39.22-.77.25-1.16h15.94c3.04,0,5.62-2.58,5.62-5.62,0-7.95,0-15.9,0-23.85.01-.25.02-.51,0-.78,0-.48-.05-.92-.14-1.34-.85-6.25-4.7-11.61-10.39-13.77v-7.27c4.3-1.93,7.7-5.66,8.99-10.35.8-2.93.58-6.11.58-9.12V6.06c0-3.04-2.58-5.62-5.62-5.62-12.07,0-35.28-3.69-39.93,10.53h-7.06c-1.95-4.35-5.78-7.76-10.51-9.03-2.76-.74-5.73-.54-8.56-.54h-20.21c-3.04,0-5.62,2.58-5.62,5.62v20.2c0,2.85-.18,5.79.54,8.57,1.23,4.75,4.71,8.59,9.09,10.53v8.17c-4.29,2.29-7.44,6.24-8.37,11.28-.49,2.65-.29,5.44-.29,8.12,0,6.47,0,12.93,0,19.4,0,3.04,2.58,5.62,5.62,5.62h15.33v9.26c-1.59-1.51-3.55-2.75-5.21-4.01-2.62-1.99-6.05-.16-7.7,2.02-1.25,1.65-2.5,3.3-3.76,4.95,1.76-3.49.09-8.25-4.73-8.25h-1.82c-.16-.49-.32-.99-.48-1.48-1.73-5.34-9.11-5.34-10.85,0-.16.5-.32.99-.48,1.48h-1.82c-5.97,0-7.13,7.37-2.84,10.48.34.25.68.49,1.01.74-.22.66-.43,1.33-.65,1.99-1.44,4.42,4.26,9.26,8.26,6.35.65-.47,1.29-.94,1.94-1.41.65.47,1.29.94,1.94,1.41.45.33.93.55,1.41.69-.13.17-.27.35-.4.53-1.99,2.62-.16,6.05,2.02,7.7.38.29.77.58,1.15.87.91.69,1.92.91,2.92.83.45,1.32,1.42,2.46,2.55,3.32.4.3.8.61,1.2.91.68.52,1.42.78,2.17.85.47.8,1.23,1.5,2.37,1.99.4.17.81.35,1.21.52,2.1.91,4.04.87,5.69-.14.28,1.58,1.08,3.08,2.59,3.74.44.19.88.38,1.32.57,1.28.55,2.8.74,4.2.48.64.82,1.54,1.43,2.72,1.61.42.07.85.13,1.27.2.89.14,1.87.11,2.82-.09.51.39,1.1.67,1.77.77.48.07.95.15,1.42.22.97.15,1.85.12,2.65-.05.52.39,1.14.67,1.87.78.45.07.91.14,1.36.21,1.15.18,2.48.09,3.66-.33.79.49,1.74.76,2.85.71.44-.02.88-.04,1.31-.06,1.72-.08,3.67-.98,4.72-2.47,1.06,1.26,2.65,2.13,4.29,2.06.48-.02.96-.05,1.44-.07,1.14-.05,2.2-.41,3.08-1,.98.27,2.03.31,3.01.09,3.6-.81,7.16-1.87,9.57-4,1.71.8,3.91.72,5.64-.03.4-.17.81-.35,1.21-.52,1.52-.65,2.32-2.14,2.59-3.71,1.65,1.01,3.59,1.06,5.7.15.44-.19.88-.38,1.32-.57.76-.33,1.38-.93,1.85-1.67.84-.03,1.67-.28,2.44-.81.36-.25.72-.5,1.08-.75,1.08-.74,1.97-1.87,2.45-3.12,1.16.06,2.36-.2,3.2-.78.44-.3.88-.6,1.32-.91,2.36-1.62,3.84-5.04,2.02-7.7-.12-.18-.24-.35-.36-.53.32-.13.63-.3.93-.52.65-.47,1.29-.94,1.94-1.41.65.47,1.29.94,1.94,1.41,3.99,2.9,9.71-1.91,8.26-6.35-.22-.67-.43-1.33-.65-1.99.34-.25.68-.49,1.01-.74,4.29-3.11,3.14-10.48-2.84-10.48ZM33.36,114.71c-.06-.2-.13-.4-.2-.6.34-.25.68-.49,1.01-.74.2-.15.38-.31.56-.48-.46.6-.92,1.21-1.38,1.82ZM85.73,91.99c-.83,0-1.57.15-2.21.42-1.97-.55-4.12-.42-6.16-.42-.92,0-1.8.24-2.57.65-.02,0-.04-.02-.06-.03.78-1.02,1.45-2.14,1.97-3.33h8.15c.51.96,1.1,1.86,1.77,2.7-.3,0-.6,0-.9,0ZM93.94,51.56h-5.41c-1.73,0-3.03.64-3.94,1.62-1.01.9-1.69,2.24-1.69,4.01v7.28h-4.74v-6.31c0-3.04-2.58-5.62-5.62-5.62h-7.28v-4.74h6.31c3.04,0,5.62-2.58,5.62-5.62,0-2.13,0-4.25,0-6.38h4.74v5.41c0,3.04,2.58,5.62,5.62,5.62h6.38v4.74ZM104.05,108.21s0-.02,0-.04c-.1-.93.17-.24,0,.04Z"/>
            <g>
              <text class="cls-2" transform="translate(57.44 113.71)"><tspan x="0" y="0">Hap</tspan><tspan class="cls-8" x="27.38" y="0">p</tspan><tspan x="35.7" y="0">y</tspan></text>
              <g>
                <g>
                  <path class="cls-3" d="M71.58,42.17h-24.62c-5.8,0-10.52-4.72-10.52-10.52V7.02h24.64c5.79,0,10.51,4.71,10.51,10.51v24.64ZM38.91,9.5v22.15c0,4.44,3.61,8.04,8.05,8.05h22.15s0-22.16,0-22.16c0-4.43-3.6-8.03-8.03-8.03h-22.16Z"/>
                  <path class="cls-3" d="M69.46,90.22c-1.99,1.99-4.63,3.08-7.44,3.08h-24.62v-24.63c0-2.81,1.09-5.44,3.08-7.43,1.98-1.98,4.62-3.08,7.43-3.08h24.63v24.62c0,2.81-1.09,5.45-3.08,7.44ZM39.87,90.83h22.15c2.15,0,4.17-.84,5.69-2.36,1.52-1.52,2.36-3.54,2.36-5.69v-22.15h-22.16c-2.15,0-4.16.84-5.68,2.35s-2.35,3.53-2.35,5.68v22.16Z"/>
                  <path class="cls-3" d="M123.68,92.33h-24.64c-5.79,0-10.51-4.71-10.51-10.5v-24.64h24.62c2.81,0,5.45,1.09,7.44,3.08,1.99,1.99,3.08,4.63,3.08,7.44v24.62ZM91.01,59.66v22.16c0,4.43,3.6,8.03,8.03,8.03h22.16v-22.15c0-2.15-.84-4.17-2.36-5.69s-3.54-2.36-5.69-2.36h-22.15Z"/>
                  <path class="cls-3" d="M119.63,38.12c-1.9,1.9-4.53,3.08-7.43,3.08h-24.64v-24.62c0-5.8,4.72-10.52,10.52-10.52h24.62v24.63c0,2.9-1.18,5.52-3.08,7.42ZM90.04,38.73h22.16c4.43,0,8.03-3.6,8.03-8.03V8.53h-22.15c-4.44,0-8.04,3.61-8.05,8.05v22.15Z"/>
                </g>
                <g>
                  <path class="cls-9" d="M98.77,79.61c-2.61,2.61-6.09,4.05-9.78,4.05h-42.92v-42.93c0-7.62,6.2-13.82,13.82-13.82h42.93s0,42.92,0,42.92c0,3.69-1.44,7.17-4.05,9.78ZM49.32,80.41h39.67c2.83,0,5.48-1.1,7.48-3.1,2-2,3.1-4.66,3.1-7.48V30.16h-39.68c-5.83,0-10.57,4.74-10.57,10.57v39.68Z"/>
                  <path class="cls-4" d="M109.09,69.29c-2.5,2.5-5.96,4.05-9.77,4.05h-42.93V30.42c0-7.63,6.2-13.83,13.83-13.83h42.92v42.93c0,3.81-1.55,7.26-4.05,9.77ZM59.64,70.09h39.68c5.83,0,10.57-4.74,10.57-10.57V19.84h-39.67c-5.83,0-10.58,4.75-10.58,10.58v39.67Z"/>
                  <path class="cls-9" d="M113.14,83.66H46.07V16.59h67.07v67.07ZM49.32,80.41h60.57V19.84h-60.57v60.57Z"/>
                </g>
              </g>
              <g>
                <text class="cls-1" transform="translate(30.42 125.75) rotate(37.18)"><tspan x="0" y="0">R</tspan></text>
                <text class="cls-1" transform="translate(42.92 134.91) rotate(23.46)"><tspan x="0" y="0">A</tspan></text>
                <text class="cls-1" transform="translate(58.93 141.31) rotate(8.84)"><tspan x="0" y="0">M</tspan></text>
                <text class="cls-1" transform="translate(77.41 143.78) rotate(-2.65)"><tspan x="0" y="0">A</tspan></text>
                <text class="cls-1" transform="translate(93.5 142.75) rotate(-12.71)"><tspan x="0" y="0">D</tspan></text>
                <text class="cls-1" transform="translate(107.72 139.39) rotate(-23.28)"><tspan x="0" y="0">A</tspan></text>
                <text class="cls-1" transform="translate(122.66 132.6) rotate(-34.55)"><tspan x="0" y="0">N</tspan></text>
                <g>
                  <polygon class="cls-4" points="139.12 102.9 140.94 108.52 146.85 108.52 142.07 111.99 143.89 117.6 139.12 114.13 134.34 117.6 136.17 111.99 131.39 108.52 137.29 108.52 139.12 102.9"/>
                  <polygon class="cls-4" points="23.61 102.9 25.44 108.52 31.34 108.52 26.57 111.99 28.39 117.6 23.61 114.13 18.84 117.6 20.66 111.99 15.89 108.52 21.79 108.52 23.61 102.9"/>
                </g>
              </g>
            </g>
          </g>
        </g>
      </g>
    </g>
  </g>
</svg>