<?xml version="1.0" encoding="UTF-8"?>
<svg xmlns="http://www.w3.org/2000/svg" viewBox="0 0 150.73 153.23">
  <defs>
    <style>
      .cls-1, .cls-2 {
        fill: #326393;
      }

      .cls-3 {
        fill: #f5ae3a;
      }

      .cls-4 {
        isolation: isolate;
      }

      .cls-5 {
        font-size: 30.97px;
      }

      .cls-5, .cls-2 {
        font-family: BebasNeueBook, 'Bebas Neue';
      }

      .cls-6 {
        fill: #fff;
      }

      .cls-7 {
        letter-spacing: 0em;
      }

      .cls-2 {
        font-size: 21.24px;
      }

      .cls-8 {
        fill: #d6dee5;
        mix-blend-mode: multiply;
      }

      .cls-9 {
        letter-spacing: 0em;
      }
    </style>
  </defs>
  <g class="cls-4">
    <g id="Layer_2" data-name="Layer 2">
      <g id="Objects">
        <g>
          <path class="cls-8" d="M25.5,88.2c-5.28,4.37-9.76,8.24-9.85,16.06-.02,1.77-.02,3.54-.02,5.32-1.83-1.34-3.64-2.69-5.47-4.03-4.24-3.12-10.45,3.09-7.33,7.33,6.58,8.95,13.04,17.56,21.99,24.37,12.19,9.27,26.96,14.71,42.22,15.8,27.7,1.98,54.69-11.68,70.25-34.49,8.79-12.89,13.28-28.29,13.42-43.84-.17-16.27-5.12-32.39-14.69-45.62-7.05-9.75-16.1-16.71-25.67-23.74-2.25-1.65-5.05-.68-6.72,1.23-.41-2.53-2.66-4.54-5.29-4.54h-1.3c-1.21,0-2.35.44-3.26,1.15-.89-.72-1.99-1.15-3.24-1.15h-1.86c-1.31,0-2.53.51-3.47,1.33-.99-.84-2.27-1.36-3.53-1.36h-2.07c-1.82,0-3.74,1.1-4.67,2.72-2.91-2.45-7.33-2.69-11.65-2.69-1.31,0-2.53.51-3.47,1.33-.99-.84-2.27-1.36-3.53-1.36h-2.07c-1.22,0-2.49.5-3.48,1.32-.94-.8-2.14-1.29-3.43-1.29h-2.04c-1.76,0-3.56,1-4.54,2.51-.97-1.51-2.76-2.51-4.54-2.51h-2.04c-1.31,0-2.53.51-3.48,1.33-.99-.84-2.27-1.36-3.53-1.36h-2.07c-1.83,0-3.77,1.11-4.69,2.76-2.9-2.72-7.52-2.73-11.69-2.73-2.9,0-5.36,2.45-5.36,5.36v21.68c0,.98.29,1.91.77,2.71-.45.75-.72,1.67-.72,2.76v14.87c0,2.9,2.45,5.36,5.36,5.36h.98c.99,0,1.93-.29,2.74-.79.91.5,2,.79,3.4.79.2,0,.39-.02.58-.04.22.03.44.04.67.04h.89c1.06,0,2.15-.38,3.06-1,.91.62,1.99,1,3.06,1h.98c.26,0,.51-.02.76-.06.24.03.48.06.72.06h.98c.83,0,1.62-.21,2.33-.56.68.35,1.44.56,2.32.56h1.02c.26,0,.51-.03.76-.07.26.04.52.07.79.07h5.86c.27,0,.53-.03.8-.07.26.04.53.07.8.07h5.86c.27,0,.53-.03.79-.07.26.04.52.07.8.07h.87c.56,0,1.11-.1,1.63-.27.49.15,1,.25,1.51.25h.98c.5,0,1-.09,1.49-.24.51.17,1.05.26,1.61.26h.93c.08,0,.16,0,.25-.01-.14,1.37-.28,2.75-.42,4.12-.02.16-.04.33-.05.5-.05.75-.09,1.49-.14,2.24-1.24,1.7-1.48,3.9-.7,5.81-.42.98-.6,2.02-.5,3.04-1.96,2.58-1.93,6.12.09,8.69-.08.22-.19.43-.32.64-1.55.28-3.01.8-4.16,2.02-.95,1.02-1.43,2.15-1.52,3.28-.9.71-1.79,1.42-2.68,2.13-.23-.73-.68-1.42-1.41-2-1.05-.84-2.03-1.31-3.08-1.62,1.35-2.34,1.36-5.18-.24-7.32.05-.65.05-1.31-.08-1.79-.02-.07-.05-.13-.07-.2.46-1.63.23-3.42-.71-4.86-.03-.46-.06-.92-.09-1.39,0-.15-.03-.29-.05-.44-.12-1.15-.23-2.31-.35-3.46-.29-2.88-2.22-5.36-5.36-5.36h-.05c-3.11,0-5.06,2.47-5.36,5.36-.12,1.17-.24,2.33-.35,3.5-.02.13-.03.26-.04.39-.03.46-.06.92-.09,1.38-.94,1.44-1.17,3.23-.71,4.86-.02.07-.05.13-.07.2-.19.67-.27,1.31-.23,1.98-1.46,2.12-1.41,4.86-.1,7.13-1.05.31-2.03.79-3.08,1.62-1.04.83-1.51,1.89-1.59,2.99ZM88.17,59.7c-.22,0-.45,0-.67,0-.03-.03-.07-.06-.1-.1.26.05.52.07.78.08,0,0,0,0-.01.01ZM103.72,29.06v-15.47c5.69,7.72,11.3,15.33,14.44,24.55,4.29,12.62,4.48,25.87,1.07,38.52-2.42-2.09-4.42-4.47-5.13-7.54,2.93-3.15,2.98-7.37.1-10.49.53-1.68.22-3.47-.67-5.06,1.33-2.29,1.1-5.15-.72-7.2-.08-1.31-.16-2.63-.24-3.94-.01-.18-.03-.37-.06-.55-.21-2.08-.42-4.16-.63-6.24-.29-2.88-2.22-5.36-5.36-5.36h-.08c-1.33,0-2.46.46-3.32,1.2.38-.73.61-1.56.61-2.42ZM86.53,34.42c.38,0,.74-.05,1.09-.12.35.08.71.12,1.08.12h1.3c1.28,0,2.48-.48,3.41-1.27.91.78,2.06,1.27,3.37,1.27h1.58c1.31,0,2.53-.51,3.48-1.33-.41.76-.67,1.63-.76,2.55-.21,2.08-.42,4.16-.63,6.24-.03.18-.05.36-.06.55-.08,1.31-.16,2.63-.24,3.94-1.82,2.05-2.05,4.91-.72,7.2-.89,1.59-1.19,3.38-.67,5.06-2.88,3.12-2.83,7.35.1,10.5-.9,3.91-3.93,6.99-7.38,9.71v-4.52c2.75-2.53,2.75-7.01,0-9.55v-4c1.48-.77,2.57-2.09,2.91-4.31.33-2.08-.33-4.14-1.66-5.56-1-1.97-2.57-3.42-4.28-4.84-.27-.85-.79-1.64-1.62-2.26.05-.99-.15-1.99-.59-2.9,0-.02,0-.04,0-.06.26-1.28.11-2.68-.48-3.79-.06-.57-.12-1.14-.17-1.71-.03-.31-.08-.61-.15-.91h1.11ZM72.91,59.7c-.22,0-.45,0-.67,0,0,0,0,0-.01-.01.26,0,.52-.03.78-.08-.03.03-.07.07-.1.1ZM71.16,33.98c.34-.1.66-.21.98-.33.78.48,1.71.77,2.75.77h.11c-.07.3-.12.6-.15.91-.06.57-.12,1.14-.17,1.71-.59,1.1-.74,2.51-.48,3.79,0,.02,0,.03,0,.05-.45.92-.64,1.91-.59,2.91-.83.62-1.35,1.42-1.63,2.27-1.59,1.32-3.06,2.67-4.06,4.43-.89-.83-2.06-1.34-3.49-1.34h-.06c-.09,0-.18,0-.27.01v-14.62s0-.07,0-.11c2.35.04,4.84.18,7.08-.45Z"/>
          <g>
            <path class="cls-6" d="M65.05,151.04c27.7,1.98,54.69-11.68,70.25-34.49,8.79-12.89,13.28-28.29,13.42-43.84-.17-16.27-5.12-32.39-14.69-45.62-7.05-9.75-16.1-16.71-25.67-23.74-2.25-1.65-5.05-.68-6.72,1.23-.41-2.53-2.66-4.54-5.29-4.54h-1.3c-1.21,0-2.35.44-3.26,1.15-.89-.72-1.99-1.15-3.24-1.15h-1.86c-1.31,0-2.53.51-3.47,1.33-.99-.84-2.27-1.36-3.53-1.36h-2.08c-1.82,0-3.74,1.1-4.67,2.72C70.04.27,65.62.03,61.31.03c-1.31,0-2.53.51-3.47,1.33-.99-.84-2.27-1.36-3.52-1.36h-2.08c-1.22,0-2.49.5-3.48,1.32-.94-.8-2.14-1.29-3.43-1.29h-2.04c-1.76,0-3.56,1-4.54,2.51C37.77,1.03,35.98.03,34.21.03h-2.04c-1.31,0-2.53.51-3.48,1.33-.99-.84-2.27-1.36-3.53-1.36h-2.07c-1.83,0-3.77,1.11-4.69,2.76C15.5.04,10.88.03,6.71.03,3.81.03,1.35,2.48,1.35,5.39v21.68c0,.98.29,1.91.77,2.71-.45.75-.72,1.67-.72,2.76v14.87c0,2.9,2.45,5.36,5.36,5.36h.98c.99,0,1.93-.29,2.74-.79.91.5,2,.79,3.4.79.2,0,.39-.02.58-.04.22.03.44.04.67.04h.89c1.06,0,2.15-.38,3.06-1,.91.62,1.99,1,3.06,1h.98c.26,0,.51-.02.76-.06.24.03.48.06.72.06h.98c.83,0,1.62-.21,2.33-.56.68.35,1.44.56,2.32.56h1.02c.26,0,.51-.03.76-.07.26.04.52.07.79.07h5.86c.27,0,.53-.03.8-.07.26.04.53.07.8.07h5.86c.27,0,.53-.03.79-.07.26.04.52.07.8.07h.87c.57,0,1.11-.1,1.63-.27.49.15,1,.25,1.51.25h.98c.5,0,1-.09,1.49-.24.51.17,1.05.26,1.61.26h.93c.08,0,.16,0,.25-.01-.14,1.37-.28,2.75-.42,4.12-.02.16-.04.33-.05.5-.05.75-.09,1.49-.14,2.24-1.24,1.7-1.48,3.9-.7,5.81-.42.98-.6,2.02-.5,3.04-1.96,2.58-1.93,6.12.09,8.69-.08.22-.19.43-.32.64-1.55.28-3.01.8-4.16,2.02-.95,1.02-1.43,2.15-1.52,3.28-.9.71-1.79,1.42-2.68,2.13-.23-.73-.68-1.42-1.41-2-1.05-.84-2.03-1.31-3.08-1.62,1.35-2.34,1.36-5.18-.24-7.32.05-.65.06-1.31-.08-1.79-.02-.07-.05-.13-.07-.2.46-1.63.23-3.42-.71-4.86-.03-.46-.06-.92-.09-1.39,0-.15-.03-.29-.05-.44-.12-1.15-.23-2.31-.35-3.46-.29-2.88-2.22-5.36-5.36-5.36h-.05c-3.11,0-5.06,2.47-5.36,5.36-.12,1.17-.24,2.33-.35,3.5-.02.13-.03.26-.04.39-.03.46-.06.92-.09,1.38-.94,1.44-1.17,3.23-.71,4.86-.02.07-.05.13-.07.2-.19.67-.27,1.31-.23,1.98-1.46,2.12-1.41,4.86-.1,7.13-1.05.31-2.03.79-3.08,1.62-1.04.83-1.51,1.89-1.59,2.99-5.28,4.37-9.76,8.24-9.85,16.06-.02,1.77-.02,3.54-.02,5.32-1.83-1.34-3.64-2.69-5.47-4.03-4.24-3.12-10.45,3.09-7.33,7.33,6.58,8.95,13.04,17.56,21.99,24.37,12.19,9.27,26.96,14.71,42.22,15.8ZM86.17,57.7c-.22,0-.45,0-.67,0-.03-.03-.07-.06-.1-.1.26.05.52.07.78.08,0,0,0,0-.01.01ZM101.72,27.06v-15.47c5.69,7.72,11.3,15.33,14.44,24.55,4.29,12.62,4.48,25.87,1.07,38.52-2.42-2.09-4.42-4.47-5.13-7.54,2.93-3.15,2.98-7.37.1-10.49.53-1.68.22-3.47-.67-5.06,1.33-2.29,1.1-5.15-.72-7.2-.08-1.31-.16-2.63-.24-3.94-.01-.18-.03-.37-.06-.55-.21-2.08-.42-4.16-.63-6.24-.29-2.88-2.22-5.36-5.36-5.36h-.08c-1.33,0-2.46.46-3.32,1.2.38-.73.61-1.56.61-2.42ZM84.53,32.42c.38,0,.74-.05,1.09-.12.35.08.71.12,1.08.12h1.3c1.28,0,2.48-.48,3.41-1.27.91.78,2.06,1.27,3.37,1.27h1.58c1.31,0,2.53-.51,3.48-1.33-.41.76-.67,1.63-.76,2.55-.21,2.08-.42,4.16-.63,6.24-.03.18-.05.36-.06.55-.08,1.31-.16,2.63-.24,3.94-1.82,2.05-2.05,4.91-.72,7.2-.89,1.59-1.19,3.38-.67,5.06-2.88,3.12-2.83,7.35.1,10.5-.9,3.91-3.93,6.99-7.38,9.71v-4.52c2.75-2.53,2.75-7.01,0-9.55v-4c1.48-.77,2.57-2.09,2.91-4.31.33-2.08-.33-4.14-1.66-5.56-1-1.97-2.57-3.42-4.28-4.84-.27-.85-.79-1.64-1.62-2.26.05-.99-.15-1.99-.59-2.9,0-.02,0-.04,0-.06.26-1.28.11-2.68-.48-3.79-.06-.57-.12-1.14-.17-1.71-.03-.31-.08-.61-.15-.91h1.11ZM70.91,57.7c-.22,0-.45,0-.67,0,0,0,0,0-.01-.01.26,0,.52-.03.78-.08-.03.03-.07.07-.1.1ZM69.16,31.98c.34-.1.66-.21.98-.33.78.48,1.71.77,2.75.77h.11c-.07.3-.12.6-.15.91-.06.57-.12,1.14-.17,1.71-.59,1.1-.74,2.51-.48,3.79,0,.02,0,.03,0,.05-.45.92-.64,1.91-.59,2.91-.83.62-1.35,1.42-1.63,2.27-1.59,1.32-3.06,2.67-4.06,4.43-.89-.83-2.06-1.34-3.49-1.34h-.06c-.09,0-.18,0-.27.01v-14.62s0-.07,0-.11c2.35.04,4.84.18,7.08-.45Z"/>
            <g>
              <g>
                <g>
                  <path class="cls-1" d="M123.36,86.16c-1.68-1.39-3.56-2.85-5.66-4.46-9.49-7.27-11.23-10.44-11.23-16.13,0-.23,0-.49,0-.76,1.7-.51,2.89-1.64,2.89-2.96s-1.29-2.54-3.1-3.02c-.04-.91-.09-1.85-.14-2.81.66-.33,1.1-.85,1.1-1.45,0-.64-.5-1.2-1.25-1.52-.06-1.12-.12-2.24-.19-3.32.85-.24,1.44-.7,1.44-1.25,0-.57-.65-1.06-1.59-1.29-.23-3.88-.42-6.78-.42-6.78h-.42v-.45h.37l-.64-6.34h-.08l-.64,6.34h.37v.45h-.42s-.19,2.9-.42,6.78c-.94.23-1.59.72-1.59,1.29,0,.54.59,1,1.44,1.25-.06,1.08-.12,2.19-.19,3.32-.75.32-1.25.88-1.25,1.52,0,.59.43,1.12,1.1,1.45-.05.96-.09,1.9-.14,2.81-1.82.47-3.1,1.64-3.1,3.02s1.19,2.45,2.89,2.96c0,.27,0,.53,0,.76,0,5.69-1.74,8.86-11.23,16.13-2.74,2.1-5.12,3.95-7.14,5.71v-18.57h1.43c.46,0,.84-.38.84-.84v-.93c0-.46-.38-.84-.84-.84h-1.43v-11.83h2.35c.37,0,.66-.3.66-.66v-.73c0-.36-.3-.66-.66-.66h-.12c-.22-1.81-1.73-3.07-4.28-5.02-.54-.42-1-.79-1.38-1.12.43-.07.7-.16.7-.26,0-.14-.52-.26-1.32-.34-1.03-1.06-1.26-1.85-1.26-2.98,0-.06,0-.15,0-.22.5-.15.84-.48.84-.86s-.38-.74-.9-.88c-.01-.27-.03-.54-.04-.83.19-.1.32-.24.32-.41,0-.18-.15-.34-.36-.43-.02-.33-.04-.66-.05-.98.25-.07.42-.2.42-.36,0-.17-.19-.31-.46-.37-.07-1.13-.12-1.97-.12-1.97h-.12v-.13h.11l-.19-1.84h-.02l-.19,1.84h.11v.13h-.12s-.05.85-.12,1.97c-.27.07-.46.21-.46.37,0,.16.17.29.42.36-.02.32-.04.65-.05.98-.21.1-.36.25-.36.43,0,.17.13.32.32.41-.01.28-.03.56-.04.83-.53.14-.9.48-.9.88s.35.71.84.86c0,.08,0,.16,0,.22,0,1.13-.24,1.92-1.27,2.98-.8.08-1.32.2-1.32.34,0,.1.27.19.7.26-.38.34-.83.71-1.38,1.12-2.55,1.96-4.06,3.21-4.28,5.02h-.12c-.37,0-.66.3-.66.66v.73c0,.36.3.66.66.66h2.35v11.83h-1.43c-.46,0-.84.38-.84.84v.93c0,.46.38.84.84.84h1.43v18.49c-.14-.11-.28-.21-.42-.33-1.34-1.03-2.45-1.93-3.4-2.77,1.07-.17,1.72-.4,1.72-.64,0-.34-1.29-.64-3.27-.83-2.53-2.61-3.12-4.56-3.12-7.35,0-.17,0-.35,0-.55,1.22-.36,2.08-1.17,2.08-2.12s-.93-1.82-2.23-2.16c-.03-.65-.06-1.33-.1-2.02.48-.24.79-.61.79-1.04,0-.46-.36-.86-.9-1.09-.04-.81-.09-1.61-.13-2.38.61-.17,1.03-.51,1.03-.89,0-.41-.47-.76-1.14-.92-.17-2.79-.3-4.87-.3-4.87h-.3v-.32h.27l-.46-4.55h-.06l-.46,4.55h.27v.32h-.3s-.14,2.08-.3,4.87c-.67.16-1.14.51-1.14.92,0,.39.42.72,1.03.89-.04.77-.09,1.58-.13,2.38-.54.23-.9.63-.9,1.09,0,.43.31.8.79,1.04-.04.69-.07,1.37-.1,2.02-1.3.34-2.23,1.18-2.23,2.16s.85,1.76,2.08,2.12c0,.2,0,.38,0,.55,0,2.79-.58,4.73-3.12,7.35-1.98.19-3.27.49-3.27.83,0,.24.65.46,1.72.64-.94.83-2.06,1.74-3.39,2.77-2.7,2.07-4.93,3.82-6.65,5.5-1.03-.86-2.2-1.77-3.52-2.78-1.07-.82-1.96-1.55-2.71-2.21.86-.14,1.38-.32,1.38-.51,0-.27-1.03-.52-2.61-.66-2.02-2.09-2.49-3.64-2.49-5.87,0-.13,0-.28,0-.44.98-.29,1.66-.94,1.66-1.7s-.74-1.46-1.78-1.73c-.02-.52-.05-1.06-.08-1.62.38-.19.63-.49.63-.83,0-.37-.29-.69-.72-.88-.04-.65-.07-1.29-.11-1.9.49-.14.83-.4.83-.71,0-.33-.37-.61-.91-.74-.13-2.23-.24-3.89-.24-3.89h-.24v-.26h.21l-.37-3.64h-.05l-.37,3.64h.21v.26h-.24s-.11,1.66-.24,3.89c-.54.13-.91.41-.91.74,0,.31.34.58.83.71-.04.62-.07,1.26-.11,1.9-.43.19-.72.51-.72.88,0,.34.25.64.63.83-.03.55-.05,1.09-.08,1.62-1.04.27-1.78.94-1.78,1.73s.68,1.41,1.66,1.7c0,.16,0,.31,0,.44,0,2.23-.47,3.78-2.49,5.87-1.58.15-2.61.39-2.61.66,0,.19.52.37,1.38.51-.75.67-1.65,1.39-2.71,2.21-5.45,4.17-8.53,6.72-8.53,10.8v20.12c11.17,8.22,24.97,13.07,39.9,13.07,30.32,0,55.97-20.02,64.44-47.56Z"/>
                  <path class="cls-3" d="M113.5,13.74l-7.84-5.76,5.76,7.84c8.9,12.1,13.61,26.47,13.61,41.54,0,38.71-31.49,70.2-70.19,70.2-15.07,0-29.44-4.71-41.54-13.61l-7.84-5.76,5.76,7.84c13.75,18.7,35.8,29.87,58.98,29.87,40.34,0,73.16-32.82,73.16-73.16,0-23.18-11.16-45.23-29.87-58.98Z"/>
                </g>
                <text class="cls-5" transform="translate(5.47 27.06)"><tspan x="0" y="0">rAMA</tspan><tspan class="cls-9" x="54.6" y="0">D</tspan><tspan class="cls-7" x="66.49" y="0">AN</tspan></text>
              </g>
              <text class="cls-2" transform="translate(5.9 47.4)"><tspan x="0" y="0">KAREEM</tspan></text>
            </g>
          </g>
        </g>
      </g>
    </g>
  </g>
</svg>