<?xml version="1.0" encoding="UTF-8"?>
<svg xmlns="http://www.w3.org/2000/svg" viewBox="0 0 127.55 153.6">
  <defs>
    <style>
      .cls-1 {
        fill: #383738;
        font-family: BebasNeueBook, 'Bebas Neue';
        font-size: 30.06px;
      }

      .cls-2 {
        fill: #f5ae3a;
      }

      .cls-3 {
        isolation: isolate;
      }

      .cls-4 {
        font-family: Sofia-Regular, Sofia;
        font-size: 26.81px;
      }

      .cls-5 {
        fill: #fff;
      }

      .cls-6 {
        fill: #d6dee5;
        mix-blend-mode: multiply;
      }
    </style>
  </defs>
  <g class="cls-3">
    <g id="Layer_2" data-name="Layer 2">
      <g id="Objects">
        <g>
          <path class="cls-6" d="M3.19,22.65c-1.64,2.5-1.51,6.4-.07,8.96,1.01,1.82,2.46,2.96,4.15,3.69-.97.26-1.76.76-2.37,1.41-1.01.9-1.69,2.24-1.69,4.01v21.04c0,3.04,2.58,5.62,5.62,5.62h1.38c1.45,0,2.79-.59,3.8-1.53,1.19.98,2.68,1.53,4.89,1.53.3,0,.6-.03.89-.08.29.04.58.08.89.08h1.26c1.6,0,3.25-.8,4.33-2.05,1.08,1.25,2.72,2.05,4.33,2.05h1.38c.37,0,.72-.04,1.05-.11.34.07.69.11,1.05.11h1.38c1.23,0,2.37-.42,3.31-1.12.89.7,1.97,1.12,3.27,1.12h1.44c.36,0,.71-.05,1.06-.12.37.08.75.12,1.13.12h8.3c.37,0,.73-.04,1.08-.11.37.07.76.11,1.17.11h7.74c-1.2.41-2.27,1.21-2.97,2.42-.1.18-.2.35-.31.53h-.58c-4.28,0-6.99,4.77-4.86,8.46.09.16.18.32.27.48-.09.16-.18.32-.27.48-2.13,3.69.58,8.46,4.86,8.46h.58c.1.18.2.35.31.53.01.02.03.04.04.06-.25.44-.5.87-.76,1.31h-2.02c-.77,0-1.5.16-2.15.44-.96-1.61-2.67-2.76-4.78-2.76h-4.7c-.79-1.37-1.58-2.73-2.37-4.1-2.11-3.65-7.61-3.65-9.71,0-.79,1.37-1.58,2.73-2.37,4.1h-4.7c-4.28,0-6.99,4.77-4.86,8.46.78,1.35,1.56,2.7,2.34,4.05-.78,1.35-1.56,2.7-2.34,4.05-2.13,3.69.58,8.46,4.86,8.46h4.7c.79,1.37,1.58,2.73,2.37,4.1.64,1.1,1.59,1.87,2.65,2.3-8.24-.28-16.48-2.41-24.04-6.48-4.9-2.64-10.55,2.71-7.7,7.7,16.24,28.42,51.62,40.96,81.96,28.12,28.75-12.18,44.87-44.03,37.88-74.45-3.73-16.23-13.91-30.28-27.65-39.45.89-.1,1.78-.31,2.63-.65,1.91.82,4.06,1.01,6.07.48,2.12.73,4.53.46,6.46-1.19,3.94,2.63,9.64,1.82,12.56-2.02,3.01-3.95,3.46-12.25-2.44-13.88-.46-.13-.93-.17-1.41-.18-.54-1.39-1.39-2.62-2.65-3.66-2.71-2.23-5.89-2.55-8.75-1.58-1.85-.75-3.94-.78-5.68.2-1.29-.65-2.76-.87-4.21-.6-1.23-.35-2.46-.42-3.66-.27.04-.85-.01-1.72-.19-2.61-.83-4.14-4.07-7.08-8.42-6.66-5.7.55-7.32,5.03-7.78,9.79-1.09.25-2.14.69-3.11,1.3-1.6-1.39-3.89-1.89-6.02-1.45-3.39-.8-7.34.18-9.86,2.44-2.69-2.34-6.43-3.29-9.71-1.98-1.86-.72-3.91-.86-5.82-.35-1.72-.57-3.63-.48-5.32.47-1.37-.76-2.98-1.05-4.56-.69-1.62-.38-3.29-.31-4.87.12-1.12-3.35-3.78-6.05-7.4-7.25-5.39-1.77-12.22-1.18-16.64,2.6-3.83,3.26-5.59,10.06-1.03,13.22-1.05.53-1.98,1.34-2.67,2.39ZM54.13,99.84c.09.16.18.31.27.47-.09.16-.18.31-.27.47-.09-.16-.18-.31-.27-.47.09-.16.18-.31.27-.47ZM41.68,119.19c1.04-.44,1.97-1.19,2.59-2.27.79-1.37,1.58-2.73,2.37-4.1h4.7c2.1,0,3.82-1.15,4.78-2.76.65.28,1.37.44,2.15.44h2.02c.34.59.68,1.18,1.02,1.78.37.65.86,1.17,1.4,1.59-6.59,3.2-13.76,4.99-21.03,5.34ZM39.96,34.79c.73,0,1.46-.1,2.17-.29,1.21.39,2.56.45,3.93.08.59-.16,1.1-.36,1.55-.6.47.25.99.46,1.57.61,2.33.61,4.46.1,6.01-1.16.12.08.24.16.38.24,2.7,1.53,5.78,1.53,8.36.37,2.31.93,4.92.9,7.26-.04,2.35.98,5.03.99,7.35,0,2.29.92,4.86.91,7.18-.02.18.08.36.14.54.2-.61.89-.96,1.94-.95,3.08-.03,1.09.26,2.18.96,3.12,10.52,20.02,7.65,44.71-7.48,61.42-.29-.5-.57-.99-.86-1.49.33-.57.66-1.15.99-1.72,2.13-3.69-.58-8.46-4.86-8.46h-2.02c-.34-.59-.68-1.18-1.02-1.78-.01-.02-.03-.04-.04-.06.01-.02.03-.04.04-.07h.58c4.28,0,6.99-4.77,4.86-8.46-.09-.16-.18-.32-.27-.48.09-.16.18-.32.27-.48,2.13-3.69-.58-8.46-4.86-8.46h-.58c-.1-.18-.2-.35-.31-.53-.7-1.21-1.77-2.01-2.97-2.42h.27c.81,0,1.58-.19,2.28-.51.69.3,1.43.48,2.17.48h1.38c.72,0,1.45-.18,2.13-.47.69.32,1.46.5,2.25.5h1.32c1.72,0,3.03-.64,3.94-1.61,1.01-.91,1.69-2.24,1.69-4.01v-21.04c0-3.04-2.58-5.62-5.62-5.62h-1.98c-1.66,0-3.33.84-4.4,2.15-1.07-1.3-2.74-2.15-4.4-2.15h-1.98c-.38,0-.76.04-1.13.12-.37-.08-.74-.12-1.13-.12h-8.3c-.38,0-.76.04-1.13.12-.37-.08-.74-.12-1.13-.12h-8.3c-1.04,0-2.02.31-2.87.83-.94-.38-1.94-.59-2.95-.7.04-.15.08-.29.11-.44ZM14.86,35.69c2.36-.83,4.03-2.35,5.13-4.33.79,1.49,1.58,2.94,2.63,4.24-.33.15-.65.33-.95.55-.9-.64-1.98-1.04-3.18-1.04-2.06,0-3.5.51-4.66,1.38-.1-.09-.21-.17-.32-.25.5-.12.94-.3,1.34-.54ZM8.07,25.09c.01.12.03.25.03.34-.05.05-.1.12-.14.19,0-.15.04-.34.11-.53Z"/>
          <g>
            <path class="cls-5" d="M1.19,20.65c-1.64,2.5-1.51,6.4-.07,8.96,1.01,1.82,2.46,2.96,4.15,3.69-.97.26-1.76.76-2.37,1.41-1.01.9-1.69,2.24-1.69,4.01v21.04c0,3.04,2.58,5.62,5.62,5.62h1.38c1.45,0,2.79-.59,3.8-1.53,1.19.98,2.68,1.53,4.89,1.53.3,0,.6-.03.89-.08.29.04.58.08.89.08h1.26c1.6,0,3.25-.8,4.33-2.05,1.08,1.25,2.72,2.05,4.33,2.05h1.38c.37,0,.72-.04,1.05-.11.34.07.69.11,1.05.11h1.38c1.23,0,2.37-.42,3.31-1.12.89.7,1.97,1.12,3.27,1.12h1.44c.36,0,.71-.05,1.06-.12.37.08.75.12,1.13.12h8.3c.37,0,.73-.04,1.08-.11.37.07.76.11,1.17.11h7.74c-1.2.41-2.27,1.21-2.97,2.42-.1.18-.2.35-.31.53h-.58c-4.28,0-6.99,4.77-4.86,8.46.09.16.18.32.27.48-.09.16-.18.32-.27.48-2.13,3.69.58,8.46,4.86,8.46h.58c.1.18.2.35.31.53.01.02.03.04.04.06-.25.44-.5.87-.76,1.31h-2.02c-.77,0-1.5.16-2.15.44-.96-1.61-2.67-2.76-4.78-2.76h-4.7c-.79-1.37-1.58-2.73-2.37-4.1-2.11-3.65-7.61-3.65-9.71,0-.79,1.37-1.58,2.73-2.37,4.1h-4.7c-4.28,0-6.99,4.77-4.86,8.46.78,1.35,1.56,2.7,2.34,4.05-.78,1.35-1.56,2.7-2.34,4.05-2.13,3.69.58,8.46,4.86,8.46h4.7c.79,1.37,1.58,2.73,2.37,4.1.64,1.1,1.59,1.87,2.65,2.3-8.24-.28-16.48-2.41-24.04-6.48-4.9-2.64-10.55,2.71-7.7,7.7,16.24,28.42,51.62,40.96,81.96,28.12,28.75-12.18,44.87-44.03,37.88-74.45-3.73-16.23-13.91-30.28-27.65-39.45.89-.1,1.78-.31,2.63-.65,1.91.82,4.06,1.01,6.07.48,2.12.73,4.53.46,6.46-1.19,3.94,2.63,9.64,1.82,12.56-2.02,3.01-3.95,3.46-12.25-2.44-13.88-.46-.13-.93-.17-1.41-.18-.54-1.39-1.39-2.62-2.65-3.66-2.71-2.23-5.89-2.55-8.75-1.58-1.85-.75-3.94-.78-5.68.2-1.29-.65-2.76-.87-4.21-.6-1.23-.35-2.46-.42-3.66-.27.04-.85-.01-1.72-.19-2.61-.83-4.14-4.07-7.08-8.42-6.66-5.7.55-7.32,5.03-7.78,9.79-1.09.25-2.14.69-3.11,1.3-1.6-1.39-3.89-1.89-6.02-1.45-3.39-.8-7.34.18-9.86,2.44-2.69-2.34-6.43-3.29-9.71-1.98-1.86-.72-3.91-.86-5.82-.35-1.72-.57-3.63-.48-5.32.47-1.37-.76-2.98-1.05-4.56-.69-1.62-.38-3.29-.31-4.87.12-1.12-3.35-3.78-6.05-7.4-7.25-5.39-1.77-12.22-1.18-16.64,2.6-3.83,3.27-5.59,10.06-1.03,13.22-1.05.53-1.98,1.34-2.67,2.39ZM52.13,97.84c.09.16.18.31.27.47-.09.16-.18.31-.27.47-.09-.16-.18-.31-.27-.47.09-.16.18-.31.27-.47ZM39.68,117.19c1.04-.44,1.97-1.19,2.59-2.27.79-1.37,1.58-2.73,2.37-4.1h4.7c2.1,0,3.82-1.15,4.78-2.76.65.28,1.37.44,2.15.44h2.02c.34.59.68,1.18,1.02,1.77.37.65.86,1.17,1.4,1.59-6.59,3.2-13.76,4.99-21.03,5.34ZM37.96,32.79c.73,0,1.46-.1,2.17-.29,1.21.39,2.56.45,3.93.08.59-.16,1.1-.36,1.55-.6.47.25.99.46,1.57.61,2.33.61,4.46.1,6.01-1.16.12.08.24.16.38.24,2.7,1.53,5.78,1.53,8.36.37,2.31.93,4.92.9,7.26-.04,2.35.98,5.03.99,7.35,0,2.29.92,4.86.91,7.18-.02.18.08.36.14.54.2-.61.89-.96,1.94-.95,3.08-.03,1.09.26,2.18.96,3.12,10.52,20.02,7.65,44.71-7.48,61.42-.29-.5-.57-.99-.86-1.49.33-.57.66-1.15.99-1.72,2.13-3.69-.58-8.46-4.86-8.46h-2.02c-.34-.59-.68-1.18-1.02-1.78-.01-.02-.03-.04-.04-.06.01-.02.03-.04.04-.07h.58c4.28,0,6.99-4.77,4.86-8.46-.09-.16-.18-.32-.27-.48.09-.16.18-.32.27-.48,2.13-3.69-.58-8.46-4.86-8.46h-.58c-.1-.18-.2-.35-.31-.53-.7-1.21-1.77-2.01-2.97-2.42h.27c.81,0,1.58-.19,2.28-.51.69.3,1.43.48,2.17.48h1.38c.72,0,1.45-.18,2.13-.46.69.31,1.46.5,2.25.5h1.32c1.72,0,3.03-.64,3.94-1.61,1.01-.9,1.69-2.24,1.69-4.01v-21.04c0-3.04-2.58-5.62-5.62-5.62h-1.98c-1.66,0-3.33.84-4.4,2.15-1.07-1.3-2.74-2.15-4.4-2.15h-1.98c-.38,0-.76.04-1.13.12-.37-.08-.74-.12-1.13-.12h-8.3c-.38,0-.76.04-1.13.12-.37-.08-.74-.12-1.13-.12h-8.3c-1.04,0-2.02.31-2.87.83-.94-.38-1.94-.59-2.95-.71.04-.15.08-.29.11-.44ZM12.86,33.69c2.36-.83,4.03-2.35,5.13-4.33.79,1.49,1.58,2.94,2.63,4.24-.33.15-.65.33-.95.55-.9-.64-1.98-1.04-3.18-1.04-2.06,0-3.5.51-4.66,1.38-.1-.09-.21-.17-.32-.25.5-.12.94-.3,1.34-.54ZM6.07,23.09c.01.12.03.25.03.34-.05.05-.1.12-.14.19,0-.15.04-.34.11-.53Z"/>
            <g>
              <g>
                <polygon class="cls-2" points="37.41 84.53 41.39 91.42 49.34 91.42 45.36 98.31 49.34 105.19 41.39 105.19 37.41 112.08 33.43 105.19 25.48 105.19 29.46 98.31 25.48 91.42 33.43 91.42 37.41 84.53"/>
                <polygon class="cls-2" points="63.86 70.65 65.77 73.97 69.6 73.97 67.68 77.28 69.6 80.6 65.77 80.6 63.86 83.91 61.94 80.6 58.11 80.6 60.03 77.28 58.11 73.97 61.94 73.97 63.86 70.65"/>
                <polygon class="cls-2" points="64.16 89.19 66.8 93.75 72.06 93.75 69.43 98.31 72.06 102.87 66.8 102.87 64.16 107.43 61.53 102.87 56.26 102.87 58.9 98.31 56.26 93.75 61.53 93.75 64.16 89.19"/>
                <path class="cls-2" d="M88.88,35.05c4.73,8.51,7.43,18.31,7.43,28.74,0,32.72-26.52,59.24-59.24,59.24-10.43,0-20.23-2.7-28.74-7.43,10.11,18.19,29.52,30.5,51.81,30.5,32.72,0,59.24-26.52,59.24-59.24,0-22.29-12.31-41.7-30.5-51.81Z"/>
              </g>
              <text class="cls-4" transform="translate(8.01 27.17)"><tspan x="0" y="0">Ramadan</tspan></text>
              <text class="cls-1" transform="translate(5.63 59.77)"><tspan x="0" y="0">kareem</tspan></text>
            </g>
          </g>
        </g>
      </g>
    </g>
  </g>
</svg>