<?xml version="1.0" encoding="UTF-8"?>
<svg xmlns="http://www.w3.org/2000/svg" viewBox="0 0 137.18 147.8">
  <defs>
    <style>
      .cls-1 {
        fill: #939393;
      }

      .cls-2 {
        fill: #326393;
      }

      .cls-3 {
        fill: #082b42;
      }

      .cls-4 {
        fill: #f5ae3a;
      }

      .cls-5 {
        font-family: BebasNeueBook, 'Bebas Neue';
        font-size: 27.09px;
      }

      .cls-5, .cls-6 {
        fill: #fff;
      }

      .cls-7 {
        fill: #d8912a;
      }

      .cls-8 {
        isolation: isolate;
      }

      .cls-9 {
        fill: #4f4f4f;
      }

      .cls-10 {
        fill: #515151;
      }

      .cls-11 {
        fill: #fff2a6;
      }

      .cls-12 {
        fill: #d6dee5;
        mix-blend-mode: multiply;
      }

      .cls-13 {
        fill: #383738;
      }

      .cls-14 {
        fill: #163f60;
      }
    </style>
  </defs>
  <g class="cls-8">
    <g id="Layer_2" data-name="Layer 2">
      <g id="Objects">
        <g>
          <path class="cls-12" d="M137.02,88.66c-.45-2.11-.89-4.22-1.34-6.34-.28-1.33-.56-2.65-.84-3.98-.05-.22-.1-.59-.16-.96.02-.15.05-.28.08-.39.35-1.44.61-2.91.92-4.36.45-2.11.89-4.23,1.34-6.34.23-1.11.16-2.11-.12-3-.33-2.45-2.08-4.5-5.3-4.12-.27.03-.54.06-.8.09-.28.01-.55.04-.82.1-2.97.35-5.94.7-8.91,1.05-1.34-.94-3.13-1.3-4.92-1.04-.67.1-1.34.2-2.01.3v-30.97c0-2.31-1.73-4.95-4.13-5.42-1.75-.34-3.5-.69-5.25-1.03-2.95-8.07-10.27-15.03-18.21-17.72-2.71-.92-5.46-2.2-8.32-2.43-3.25-.27-6.65,0-9.91,0s-6.65-.25-9.91,0c-2.86.22-5.62,1.51-8.32,2.43-8.3,2.81-15.41,9.34-18.27,17.65-1.86.37-3.72.73-5.58,1.09-2.4.47-4.13,3.09-4.13,5.42v44.71c-.25.02-.48.06-.71.11-2.93.15-5.5,2.25-5.5,5.53v25.48c0,1.75.69,3.11,1.76,4.04-.39.4-.73.87-1,1.37-3.53.52-7.06,1.03-10.59,1.55-3.13.46-4.49,4.25-3.93,6.92.45,2.11.89,4.23,1.34,6.34.28,1.33.56,2.65.84,3.98.05.22.1.59.16.96-.03.15-.05.28-.08.39-.35,1.44-.61,2.91-.92,4.36-.45,2.11-.89,4.23-1.34,6.34-.96,4.53,2.62,7.55,6.92,6.92,4.65-.68,9.3-1.36,13.96-2.04,1.45-.21,2.65-1.33,3.38-2.68,26.85-4.02,53.7-8.04,80.56-12.07,4.06-.61,8.11-1.21,12.17-1.82,2.4-.36,4.13-3.17,4.13-5.42v-25.86c0-.35-.05-.7-.12-1.05,2.82-.33,5.64-.66,8.46-.99,3.75-.44,6.25-3.23,5.42-7.12ZM21.29,110.15c-.71.02-.71-.07,0,0h0Z"/>
          <g>
            <path class="cls-6" d="M135.02,86.66c-.45-2.11-.89-4.22-1.34-6.34-.28-1.33-.56-2.65-.84-3.98-.05-.22-.1-.59-.16-.96.02-.15.05-.28.08-.39.35-1.44.61-2.91.92-4.36.45-2.11.89-4.23,1.34-6.34.23-1.11.16-2.11-.12-3-.33-2.45-2.08-4.5-5.3-4.12-.27.03-.54.06-.8.09-.28.01-.55.04-.82.1-2.97.35-5.94.7-8.91,1.05-1.34-.94-3.13-1.3-4.92-1.04-.67.1-1.34.2-2.01.3v-30.97c0-2.31-1.73-4.95-4.13-5.42-1.75-.34-3.5-.69-5.25-1.03-2.95-8.07-10.27-15.03-18.21-17.72-2.71-.92-5.46-2.2-8.32-2.43-3.25-.27-6.65,0-9.91,0s-6.65-.25-9.91,0c-2.86.22-5.62,1.51-8.32,2.43-8.3,2.81-15.41,9.34-18.27,17.65-1.86.37-3.72.73-5.58,1.09-2.4.47-4.13,3.09-4.13,5.42v44.71c-.25.02-.48.06-.71.11-2.93.15-5.5,2.25-5.5,5.53v25.48c0,1.75.69,3.11,1.76,4.04-.39.4-.73.87-1,1.37-3.53.52-7.06,1.03-10.59,1.55-3.13.46-4.49,4.25-3.93,6.92.45,2.11.89,4.23,1.34,6.34.28,1.33.56,2.65.84,3.98.05.22.1.59.16.96-.03.15-.05.28-.08.39-.35,1.44-.61,2.91-.92,4.36-.45,2.11-.89,4.23-1.34,6.34-.96,4.53,2.62,7.55,6.92,6.92,4.65-.68,9.3-1.36,13.96-2.04,1.45-.21,2.65-1.33,3.38-2.68,26.85-4.02,53.7-8.04,80.55-12.07,4.06-.61,8.11-1.21,12.17-1.82,2.4-.36,4.13-3.17,4.13-5.42v-25.86c0-.35-.05-.7-.12-1.05,2.82-.33,5.64-.66,8.46-.99,3.75-.44,6.25-3.23,5.42-7.12ZM19.29,108.15c-.71.02-.71-.07,0,0h0Z"/>
            <g>
              <polygon class="cls-3" points="19.54 102.42 115.64 121.18 115.64 95.83 19.54 77.07 19.54 102.42"/>
              <polygon class="cls-14" points="115.64 89.8 129.6 88.16 126.92 75.48 129.6 62.81 115.64 64.45 115.64 89.8"/>
              <g>
                <g>
                  <g>
                    <path class="cls-13" d="M49.79,92.07h0c-.59.02-1.17.05-1.73.08h0c-.52.02-1.04.05-1.54.08-.08,0-.16,0-.24.01-.48.03-.96.05-1.42.08-.02,0-.04,0-.05,0-.51.03-1,.06-1.47.1h0c-.44.03-.87.06-1.28.09-.08,0-.15.01-.23.02-.37.03-.72.06-1.06.09-.05,0-.11,0-.17.01-.78.07-1.49.14-2.14.22-.08,0-.15.02-.22.03-.25.03-.5.06-.73.09-.06,0-.13.02-.19.02-.28.04-.55.08-.8.12-.01,0-.02,0-.04,0-.23.04-.44.08-.64.11-.06.01-.11.02-.17.03-.15.03-.3.06-.43.1-.05.01-.09.02-.14.03-.17.04-.32.08-.45.13,0,0-.01,0-.02,0-.12.04-.22.08-.3.12-.03.01-.05.03-.07.04-.06.03-.11.06-.14.1-.02.01-.03.03-.04.04-.04.04-.07.09-.07.14,0,.1,0,.2,0,.3.09,10.04,4.37,13.01,8.79,17.2.04.03.07.07.11.1.66.62,1.32,1.19,1.96,1.72.34.28.68.55,1.01.81.23.18.44.34.67.51l9.63,3.26c-3.19-4.9-6.23-12.13-6.38-25.78Z"/>
                    <path class="cls-13" d="M86.1,114.6c.22-.17.44-.33.67-.51,5.3-4.13,11.87-7.53,11.88-20.12h0s-.03-.09-.07-.14c-.01-.01-.03-.03-.04-.04-.04-.03-.08-.07-.14-.1-.02-.01-.05-.03-.07-.04-.08-.04-.18-.08-.3-.12,0,0-.01,0-.02,0-.13-.04-.28-.09-.45-.13-.04-.01-.09-.02-.14-.03-.13-.03-.28-.06-.43-.1-.06-.01-.11-.02-.17-.03-.2-.04-.41-.08-.64-.11-.01,0-.02,0-.04,0-.25-.04-.52-.08-.8-.12-.06,0-.13-.02-.19-.02-.23-.03-.47-.06-.73-.09-.07,0-.15-.02-.22-.03-.65-.08-1.37-.15-2.14-.22-.05,0-.11,0-.16-.01-.34-.03-.7-.06-1.06-.09-.08,0-.15-.01-.23-.02-.41-.03-.84-.06-1.28-.09h0c-.48-.03-.97-.06-1.47-.1-.02,0-.04,0-.06,0-.46-.03-.93-.05-1.41-.08-.08,0-.16,0-.24-.01-.5-.03-1.01-.05-1.53-.08h-.01c-.56-.03-1.14-.05-1.73-.08h0c-.15,13.65-3.19,20.88-6.38,25.78l9.63-3.26Z"/>
                    <path class="cls-9" d="M76.47,117.86c3.19-4.9,6.23-12.13,6.38-25.78-4.84-.2-10.49-.31-16.53-.31s-11.69.11-16.53.31c.15,13.65,3.18,20.88,6.38,25.78h20.3Z"/>
                  </g>
                  <g>
                    <path class="cls-13" d="M82.85,31.53s0,0,0,0c.59-.02,1.17-.05,1.73-.08h0c.52-.02,1.04-.05,1.54-.08.08,0,.16,0,.24-.01.48-.03.96-.05,1.42-.08.02,0,.04,0,.05,0,.5-.03,1-.06,1.47-.1h0c.44-.03.87-.06,1.28-.09.08,0,.15-.01.23-.02.37-.03.72-.06,1.06-.09.05,0,.11,0,.16-.01.78-.07,1.49-.14,2.14-.22.08,0,.15-.02.22-.03.25-.03.5-.06.73-.09.06,0,.13-.02.19-.03.28-.04.55-.08.8-.12.01,0,.02,0,.04,0,.23-.04.44-.08.64-.11.06-.01.11-.02.17-.03.15-.03.3-.06.43-.09.05-.01.1-.02.14-.03.17-.04.32-.08.45-.13,0,0,.01,0,.02,0,.12-.04.22-.08.3-.12.03-.01.05-.03.07-.04.06-.03.11-.07.14-.1.02-.01.03-.03.04-.04.04-.04.07-.09.07-.13,0-.1,0-.2-.01-.3-.09-10.04-4.37-13.01-8.79-17.2-.04-.03-.07-.07-.11-.1-.66-.62-1.32-1.19-1.96-1.72-.34-.28-.68-.55-1.01-.81-.23-.18-.44-.34-.67-.51l-9.63-3.26c3.19,4.91,6.23,12.13,6.38,25.79Z"/>
                    <path class="cls-13" d="M46.54,9c-.22.17-.44.33-.67.51-5.3,4.13-11.88,7.52-11.88,20.12h0s.03.09.07.13c.01.01.03.03.04.04.04.03.09.07.14.1.02.01.05.03.07.04.08.04.18.08.3.12,0,0,.01,0,.02,0,.13.04.28.09.45.13.04.01.09.02.14.03.13.03.28.06.43.09.06.01.11.02.17.03.2.04.41.08.64.11.01,0,.03,0,.04,0,.25.04.52.08.8.12.06,0,.13.02.19.03.23.03.47.06.73.09.07,0,.15.02.22.03.65.08,1.37.15,2.14.22.05,0,.11,0,.17.01.34.03.7.06,1.06.09.08,0,.15.01.23.02.42.03.84.06,1.28.09h0c.48.03.97.06,1.47.09.02,0,.04,0,.06,0,.46.03.93.05,1.41.08.08,0,.16,0,.24.01.5.03,1.01.05,1.53.08h.01c.56.03,1.14.05,1.73.08,0,0,0,0,0,0,.15-13.65,3.18-20.88,6.38-25.79l-9.63,3.26Z"/>
                    <path class="cls-9" d="M56.17,5.74c-3.19,4.91-6.23,12.13-6.38,25.79,4.84.2,10.49.31,16.53.31s11.69-.11,16.53-.31c-.15-13.65-3.18-20.88-6.38-25.79h-20.3Z"/>
                  </g>
                  <path class="cls-10" d="M25.74,26.72v71.29l19.19,3.24V22.95l-19.19,3.77ZM41.65,97.57l-13.79-2.14V28.59l13.79-2.18v71.15Z"/>
                  <polygon class="cls-7" points="27.85 95.43 41.65 97.57 41.65 26.42 27.85 28.59 27.85 95.43"/>
                  <polygon class="cls-1" points="66.12 22.95 44.93 22.95 44.93 101.25 66.12 101.25 87.31 101.25 87.31 22.95 66.12 22.95"/>
                  <polygon class="cls-4" points="66.12 26.88 49.45 26.88 49.45 97.32 66.12 97.32 82.8 97.32 82.8 26.88 66.12 26.88"/>
                  <path class="cls-10" d="M87.31,22.95v78.3l19.19-3.24V26.72l-19.19-3.77ZM90.6,26.42l13.79,2.18v66.85l-13.79,2.12V26.42Z"/>
                  <polygon class="cls-7" points="104.39 95.44 90.6 97.57 90.6 26.42 104.39 28.59 104.39 95.44"/>
                </g>
                <circle class="cls-11" cx="66.32" cy="62.1" r="13.99"/>
              </g>
              <polygon class="cls-2" points="115.64 88.16 19.54 102.55 19.54 77.2 115.64 62.81 115.64 88.16"/>
              <polygon class="cls-2" points="115.64 121.69 19.54 136.08 19.54 110.73 115.64 96.33 115.64 121.69"/>
              <polygon class="cls-14" points="19.54 138.25 5.58 140.29 8.25 127.62 5.58 114.94 19.54 112.9 19.54 138.25"/>
              <g>
                <text class="cls-5" transform="translate(30.88 98.12) rotate(-8.44)"><tspan x="0" y="0">r</tspan></text>
                <text class="cls-5" transform="translate(41.23 96.58) rotate(-8.44)"><tspan x="0" y="0">a</tspan></text>
                <text class="cls-5" transform="translate(52.9 94.85) rotate(-8.44)"><tspan x="0" y="0">m</tspan></text>
                <text class="cls-5" transform="translate(66.44 92.84) rotate(-8.44)"><tspan x="0" y="0">a</tspan></text>
                <text class="cls-5" transform="translate(78.11 91.11) rotate(-8.44)"><tspan x="0" y="0">d</tspan></text>
                <text class="cls-5" transform="translate(88.41 89.58) rotate(-8.44)"><tspan x="0" y="0">a</tspan></text>
                <text class="cls-5" transform="translate(100.12 87.84) rotate(-8.44)"><tspan x="0" y="0">n</tspan></text>
              </g>
              <g>
                <text class="cls-5" transform="translate(35.87 130.97) rotate(-8.44)"><tspan x="0" y="0">k</tspan></text>
                <text class="cls-5" transform="translate(46.69 129.36) rotate(-8.44)"><tspan x="0" y="0">a</tspan></text>
                <text class="cls-5" transform="translate(58.38 127.63) rotate(-8.44)"><tspan x="0" y="0">r</tspan></text>
                <text class="cls-5" transform="translate(68.72 126.09) rotate(-8.44)"><tspan x="0" y="0">e</tspan></text>
                <text class="cls-5" transform="translate(78.14 124.7) rotate(-8.44)"><tspan x="0" y="0">e</tspan></text>
                <text class="cls-5" transform="translate(87.54 123.3) rotate(-8.44)"><tspan x="0" y="0">m</tspan></text>
              </g>
            </g>
          </g>
        </g>
      </g>
    </g>
  </g>
</svg>