<?xml version="1.0" encoding="UTF-8"?>
<svg xmlns="http://www.w3.org/2000/svg" viewBox="0 0 157.87 156.99">
  <defs>
    <style>
      .cls-1 {
        fill: #326393;
      }

      .cls-2 {
        font-family: BebasNeueBook, 'Bebas Neue';
        font-size: 29.49px;
      }

      .cls-2, .cls-3 {
        fill: #fff;
      }

      .cls-4 {
        isolation: isolate;
      }

      .cls-5 {
        font-family: Sofia-Regular, Sofia;
        font-size: 24.6px;
      }

      .cls-6 {
        fill: #d6dee5;
        mix-blend-mode: multiply;
      }

      .cls-7 {
        letter-spacing: 0em;
      }

      .cls-8 {
        fill: #163f60;
      }
    </style>
  </defs>
  <g class="cls-4">
    <g id="Layer_2" data-name="Layer 2">
      <g id="Objects">
        <g>
          <path class="cls-6" d="M151.47,111.36c-.34-1.21-1.12-2.31-2.4-3.12.19-1.34-.01-2.71-.59-3.96-.03-.34-.09-.68-.17-1.02.31-1.54.1-3.23-.66-4.53,0-.01,0-.03,0-.04,0-.1-.02-.2-.03-.3-.08-.81-.16-1.62-.25-2.43-.34-3.38-2.6-6.27-6.27-6.27h-.03c-3.64,0-5.93,2.89-6.27,6.27-.08.81-.16,1.63-.25,2.44-.01.1-.02.19-.03.29,0,.01,0,.03,0,.04-.76,1.31-.97,3.01-.65,4.56-.08.32-.13.63-.16.95-.55,1.18-.76,2.46-.63,3.73-.49-.94-1.28-1.78-2.44-2.39-.14-.08-.28-.14-.42-.21.51-1.78.33-3.66-.54-5.34,0-.57-.11-1.14-.27-1.7.44-1.74.21-3.72-.75-5.14-.01-.19-.02-.39-.04-.58,0-.13-.03-.26-.04-.39-.1-1.01-.2-2.02-.31-3.03-.34-3.38-2.6-6.27-6.27-6.27h-.04c-.54,0-1.05.07-1.53.19-.5-.58-1.06-1.12-1.66-1.66-.18-.43-.43-.82-.72-1.19-.07-.48-.17-.96-.35-1.42.05-.8-.03-1.62-.26-2.37h11.42c.95,2.27,3.22,3.92,5.79,3.92h15.92c4.27,0,6.88-3.99,6.05-7.94-.51-2.41-1.02-4.82-1.52-7.23-.32-1.51-.64-3.02-.96-4.54-.05-.25-.12-.69-.18-1.13.03-.18.06-.35.09-.48.4-1.64.7-3.32,1.05-4.97.51-2.41,1.02-4.82,1.52-7.23.83-3.95-1.78-7.94-6.05-7.94h-10.12c-.95-2.27-3.22-3.92-5.79-3.92h-15.39c.02-.06.04-.13.06-.19.81-.78,1.46-1.78,1.92-2.92.96-2.39.31-4.55-1.12-6.13.1-2.95.23-5.94-.08-8.8-.61-5.72-6.64-8.02-10.82-5.73-2.23-.91-5.11-.78-8.07-.21-2.33-.94-4.9-.97-7.24-.18-1.66-.5-3.43-.51-4.95.02-.42.06-.83.12-1.25.19-2.16-.89-4.52-.99-6.71-.38-1.69-.67-3.58-.72-5.37.12-.07-.03-.15-.04-.22-.07-1.23-.66-2.69-.86-4.23-.35-1.56-.3-3.06-.25-4.46.12-.43-4.31-1.98-8-6.62-8.46-3.38-.33-5.45.93-6.7,3-.36-.19-.75-.35-1.17-.49-1.14-.51-2.51-.65-4.06-.23-6.39,1.74-6.16,8.82-5.91,14.63-4.54,4.37-6.21,12.1-1.06,16.07h-16.14c-2.57,0-4.84,1.65-5.79,3.92h-10.12c-4.27,0-6.88,3.99-6.05,7.94.51,2.41,1.02,4.82,1.52,7.23.32,1.51.64,3.02.96,4.54.05.25.12.69.18,1.13-.03.18-.06.35-.09.48-.4,1.64-.7,3.32-1.05,4.97-.51,2.41-1.02,4.82-1.52,7.23-.83,3.95,1.78,7.94,6.05,7.94h15.92c2.57,0,4.84-1.65,5.79-3.92h32.86c-.22.75-.31,1.57-.26,2.37-.18.46-.28.94-.35,1.42-.29.37-.54.77-.72,1.19-1.13,1-2.08,2.02-2.84,3.29-1.2,1.33-1.9,3.12-1.81,5.02-.31-.05-.64-.08-.98-.08h-.03c-3.64,0-5.93,2.89-6.27,6.27-.08.82-.16,1.63-.25,2.45,0,.09-.02.19-.03.28,0,.01,0,.03,0,.04-.76,1.31-.97,3.01-.65,4.56-.08.32-.13.64-.16.96-.59,1.26-.79,2.64-.61,3.99-.19.12-.38.25-.55.38-1.25-2.32-2.87-4.47-4.93-6.37-2.02-1.87-4.33-3.28-6.54-4.89-1.23-.89-2.29-1.63-3.13-2.96-.49-.78-.65-2.41-.62-1.54-.29-8.07-12.26-8.08-12.55,0,0-.16.21-.46.04,0h-.04s0,.05,0,.08c-.03.08-.07.17-.12.29-.49,1.13-.97,2.02-1.9,2.89-1.63,1.54-3.85,2.61-5.64,3.97-4.62,3.53-8.07,8.03-9.81,13.63-.98,3.17-1.72,6.65.26,9.52,1.99,2.88,5.12,5.36,7.74,7.65,5.47,4.78,11.43,9.08,17.76,12.65,25.97,14.63,58.06,17.59,86.18,7.56,15.59-5.56,29.58-14.67,41.08-26.56,1.77-1.83,2.62-5.37.98-7.6-1.63-2.22-3.41-3.9-5.52-5.58ZM52.95,35.02c.44-.33.85-.7,1.22-1.11.47.44,1.04.82,1.72,1.11h-2.94ZM62.34,35.02c.97-.47,1.73-1.18,2.31-2.06,2.12.9,4.52,1.04,6.79.31.01.59.05,1.17.1,1.75h-9.2ZM85.77,80.27c-.02.16-.04.31-.05.47-.04.6-.07,1.19-.11,1.79-1.15,1.72-1.42,3.88-.84,5.83-.04.11-.08.2-.11.32-.21.71-.18,1.52-.09,2.29-1.98,2.68-2.08,6.31-.29,9.11-.67,1.31-1.88,2.29-3.18,3.33,1.42-2.44,1.28-5.66-.4-7.96v-.97c1.2-1.06,1.98-2.57,2.11-4.63.12-1.93-.59-3.75-1.81-5.1-.75-1.27-1.71-2.29-2.84-3.29-.18-.43-.43-.82-.72-1.19-.07-.48-.17-.96-.35-1.42.05-.81-.03-1.62-.26-2.37h9.33c-.13,1.26-.26,2.53-.38,3.79ZM99.83,33.91v-.03c.21-.04.41-.08.61-.14-.06.43-.08.85-.07,1.28h-.58c.03-.37.04-.74.04-1.11ZM104.1,78.85c-.18.46-.28.94-.35,1.42-.29.37-.54.77-.72,1.19-1.07.95-1.99,1.93-2.72,3.11-.19-.72-.49-1.4-.91-2.03-.04-.6-.07-1.19-.11-1.79-.01-.17-.03-.34-.05-.5-.13-1.25-.25-2.51-.38-3.76h5.5c-.22.75-.31,1.57-.26,2.37Z"/>
          <g>
            <path class="cls-3" d="M149.47,109.36c-.34-1.21-1.12-2.31-2.4-3.12.19-1.34-.01-2.71-.59-3.96-.03-.34-.09-.68-.17-1.02.31-1.54.1-3.23-.66-4.53,0-.01,0-.03,0-.04,0-.1-.02-.2-.03-.3-.08-.81-.16-1.62-.25-2.43-.34-3.38-2.6-6.27-6.27-6.27h-.03c-3.64,0-5.93,2.89-6.27,6.27-.08.81-.16,1.63-.25,2.44-.01.1-.02.19-.03.29,0,.01,0,.03,0,.04-.76,1.31-.97,3.01-.65,4.56-.08.32-.13.63-.16.95-.55,1.18-.76,2.46-.63,3.73-.49-.94-1.28-1.78-2.44-2.39-.14-.08-.28-.14-.42-.21.51-1.78.33-3.66-.53-5.34,0-.57-.11-1.14-.27-1.7.44-1.74.21-3.72-.75-5.14-.01-.19-.02-.39-.04-.58,0-.13-.03-.26-.04-.39-.1-1.01-.2-2.02-.31-3.03-.34-3.38-2.6-6.27-6.27-6.27h-.04c-.54,0-1.05.07-1.53.19-.5-.58-1.06-1.12-1.66-1.66-.18-.43-.43-.82-.72-1.19-.07-.48-.17-.96-.35-1.42.05-.8-.03-1.62-.26-2.37h11.42c.95,2.27,3.22,3.92,5.79,3.92h15.92c4.27,0,6.88-3.99,6.05-7.94-.51-2.41-1.02-4.82-1.52-7.23-.32-1.51-.64-3.02-.96-4.54-.05-.25-.12-.69-.18-1.13.03-.18.06-.35.09-.48.4-1.64.7-3.32,1.05-4.97.51-2.41,1.02-4.82,1.52-7.23.83-3.95-1.78-7.94-6.05-7.94h-10.12c-.95-2.27-3.22-3.92-5.79-3.92h-15.39c.02-.06.04-.13.06-.19.81-.78,1.46-1.78,1.92-2.92.96-2.39.31-4.55-1.12-6.13.1-2.95.23-5.94-.08-8.8-.61-5.72-6.64-8.02-10.82-5.73-2.23-.91-5.11-.78-8.07-.21-2.33-.94-4.9-.97-7.24-.18-1.66-.5-3.43-.51-4.95.02-.42.06-.83.12-1.25.19-2.16-.89-4.52-.99-6.71-.38-1.69-.67-3.58-.72-5.37.12-.07-.03-.15-.04-.22-.07-1.23-.66-2.69-.86-4.23-.35-1.55-.3-3.06-.25-4.46.12-.43-4.31-1.98-8-6.62-8.46-3.38-.33-5.45.93-6.7,3-.36-.19-.75-.35-1.17-.49-1.14-.51-2.51-.65-4.06-.23-6.39,1.74-6.16,8.82-5.91,14.63-4.54,4.37-6.21,12.1-1.06,16.07h-16.14c-2.57,0-4.84,1.65-5.79,3.92H7.17c-4.27,0-6.88,3.99-6.05,7.94.51,2.41,1.02,4.82,1.52,7.23.32,1.51.64,3.02.96,4.54.05.25.12.69.18,1.13-.03.18-.06.35-.09.48-.4,1.64-.7,3.32-1.05,4.97-.51,2.41-1.02,4.82-1.52,7.23-.83,3.95,1.78,7.94,6.05,7.94h15.92c2.57,0,4.84-1.65,5.79-3.92h32.86c-.22.75-.31,1.57-.26,2.37-.18.46-.28.94-.35,1.42-.29.37-.54.77-.72,1.19-1.13,1-2.08,2.02-2.84,3.29-1.2,1.33-1.9,3.12-1.81,5.02-.31-.05-.64-.08-.98-.08h-.03c-3.64,0-5.93,2.89-6.27,6.27-.08.82-.16,1.63-.25,2.45,0,.09-.02.19-.03.28,0,.01,0,.03,0,.04-.76,1.31-.97,3.01-.65,4.56-.08.32-.13.64-.16.96-.59,1.26-.79,2.64-.61,3.99-.19.12-.38.25-.55.38-1.25-2.32-2.87-4.47-4.93-6.37-2.02-1.87-4.33-3.29-6.54-4.89-1.23-.89-2.29-1.63-3.13-2.96-.49-.78-.65-2.41-.62-1.54-.29-8.07-12.26-8.08-12.55,0,0-.16.21-.46.04,0h-.04s0,.05,0,.08c-.03.08-.07.17-.12.29-.49,1.13-.97,2.02-1.9,2.89-1.63,1.54-3.85,2.61-5.64,3.97-4.62,3.53-8.07,8.03-9.81,13.63-.98,3.17-1.72,6.65.26,9.52,1.99,2.88,5.12,5.36,7.74,7.65,5.47,4.78,11.43,9.08,17.76,12.65,25.97,14.63,58.06,17.59,86.18,7.56,15.59-5.56,29.58-14.67,41.08-26.56,1.77-1.83,2.62-5.37.98-7.6-1.63-2.22-3.41-3.9-5.52-5.58ZM50.95,33.02c.44-.33.85-.7,1.22-1.11.47.44,1.04.82,1.72,1.11h-2.94ZM60.34,33.02c.97-.47,1.73-1.18,2.31-2.06,2.12.9,4.52,1.04,6.79.31.01.59.05,1.17.1,1.75h-9.2ZM83.77,78.27c-.02.16-.04.31-.05.47-.04.6-.07,1.19-.11,1.79-1.15,1.72-1.42,3.88-.84,5.83-.04.11-.08.2-.11.32-.21.71-.18,1.52-.09,2.29-1.98,2.68-2.08,6.31-.29,9.11-.67,1.31-1.88,2.29-3.18,3.33,1.42-2.44,1.28-5.66-.4-7.96v-.97c1.2-1.06,1.98-2.57,2.11-4.63.12-1.93-.59-3.75-1.81-5.1-.75-1.27-1.71-2.29-2.84-3.29-.18-.43-.43-.82-.72-1.19-.07-.48-.17-.96-.35-1.42.05-.81-.03-1.62-.26-2.37h9.33c-.13,1.26-.26,2.53-.38,3.79ZM97.83,31.91v-.03c.21-.04.41-.08.61-.14-.06.43-.08.85-.07,1.28h-.58c.03-.37.04-.74.04-1.11ZM102.1,76.85c-.18.46-.28.94-.35,1.42-.29.37-.54.77-.72,1.19-1.07.95-1.99,1.93-2.72,3.11-.19-.72-.49-1.4-.91-2.03-.04-.6-.07-1.19-.11-1.79-.01-.17-.03-.34-.05-.5-.13-1.25-.25-2.51-.38-3.76h5.5c-.22.75-.31,1.57-.26,2.37Z"/>
            <g>
              <g>
                <g>
                  <text class="cls-5" transform="translate(40.93 25.63)"><tspan x="0" y="0">Happy</tspan></text>
                  <g>
                    <rect class="cls-1" x="23.09" y="39.3" width="109.58" height="28.91"/>
                    <polygon class="cls-8" points="23.09 72.12 7.17 72.12 10.22 57.67 7.17 43.22 23.09 43.22 23.09 72.12"/>
                    <polygon class="cls-8" points="132.67 43.22 148.58 43.22 145.54 57.67 148.58 72.12 132.67 72.12 132.67 43.22"/>
                  </g>
                  <text class="cls-2" transform="translate(34.03 63.63)"><tspan x="0" y="0">rama</tspan><tspan class="cls-7" x="51.98" y="0">d</tspan><tspan x="63.31" y="0">an</tspan></text>
                </g>
                <path class="cls-1" d="M144.41,113.29c-.75-.57-1.37-1.08-1.9-1.55.6-.1.96-.22.96-.36,0-.19-.72-.36-1.83-.46-1.42-1.46-1.75-2.55-1.75-4.11,0-.09,0-.2,0-.31.68-.2,1.16-.66,1.16-1.19s-.52-1.02-1.25-1.21c-.02-.37-.04-.75-.06-1.13.27-.13.44-.34.44-.58,0-.26-.2-.48-.5-.61-.02-.45-.05-.9-.07-1.33.34-.1.58-.28.58-.5,0-.23-.26-.43-.64-.52-.09-1.56-.17-2.73-.17-2.73h-.17v-.18h.15l-.26-2.55h-.03l-.26,2.55h.15v.18h-.17s-.08,1.17-.17,2.73c-.38.09-.64.29-.64.52,0,.22.24.4.58.5-.03.43-.05.88-.08,1.33-.3.13-.5.36-.5.61,0,.24.17.45.44.58-.02.39-.04.77-.05,1.13-.73.19-1.25.66-1.25,1.21s.48.98,1.16,1.19c0,.11,0,.21,0,.31,0,1.56-.33,2.65-1.75,4.11-1.11.1-1.83.27-1.83.46,0,.13.36.26.96.36-.53.47-1.15.98-1.9,1.55-.92.71-1.75,1.35-2.47,1.95-1.2-1.17-2.76-2.4-4.66-3.85-.94-.72-1.72-1.35-2.38-1.94.75-.12,1.21-.28,1.21-.45,0-.24-.91-.45-2.29-.58-1.77-1.83-2.18-3.19-2.18-5.15,0-.12,0-.25,0-.38.86-.25,1.46-.82,1.46-1.49s-.65-1.28-1.56-1.52c-.02-.46-.04-.93-.07-1.41.33-.17.55-.43.55-.73,0-.32-.25-.6-.63-.77-.03-.57-.06-1.13-.09-1.67.43-.12.72-.36.72-.63,0-.29-.33-.53-.8-.65-.12-1.95-.21-3.41-.21-3.41h-.21v-.23h.19l-.32-3.19h-.04l-.32,3.19h.19v.23h-.21s-.09,1.46-.21,3.41c-.47.11-.8.36-.8.65,0,.27.29.51.72.63-.03.54-.06,1.1-.09,1.67-.38.16-.63.45-.63.77,0,.3.22.56.55.73-.02.48-.05.96-.07,1.41-.91.24-1.56.83-1.56,1.52s.6,1.23,1.46,1.49c0,.14,0,.27,0,.38,0,1.95-.41,3.32-2.18,5.15-1.39.13-2.29.34-2.29.58,0,.17.45.33,1.21.45-.66.59-1.44,1.22-2.38,1.94-.1.08-.2.15-.3.23v-12.96h1.14c.25,0,.45-.2.45-.45v-.93c0-.25-.2-.45-.45-.45h-1.14v-8.61h1.75c.2,0,.36-.16.36-.36v-.73c0-.2-.16-.36-.36-.36h-.18c-.15-1.27-1.22-2.15-3.01-3.52-.38-.29-.7-.55-.97-.79.3-.05.49-.11.49-.18,0-.1-.37-.18-.93-.24-.72-.74-.89-1.29-.89-2.09,0-.05,0-.1,0-.16.35-.1.59-.33.59-.6s-.26-.52-.63-.61c0-.19-.02-.38-.03-.58.13-.07.22-.17.22-.29,0-.13-.1-.24-.25-.3-.01-.23-.03-.46-.04-.69.17-.05.29-.14.29-.25,0-.12-.13-.21-.32-.26-.05-.79-.09-1.38-.09-1.38h-.09v-.09h.08l-.13-1.29h-.02l-.13,1.29h.08v.09h-.09s-.04.59-.08,1.38c-.19.05-.32.14-.32.26,0,.11.12.2.29.25-.01.22-.03.45-.04.69-.15.07-.25.17-.25.3,0,.12.09.22.22.29,0,.2-.02.39-.03.58-.37.1-.63.33-.63.61s.24.5.59.6c0,.05,0,.11,0,.16,0,.79-.17,1.34-.89,2.09-.56.05-.93.14-.93.24,0,.07.19.13.49.18-.27.24-.59.5-.97.79-1.79,1.37-2.86,2.25-3.01,3.52h-.18c-.2,0-.36.16-.36.36v.73c0,.2.16.36.36.36h1.75v8.61h-1.14c-.25,0-.45.2-.45.45v.93c0,.25.2.45.45.45h1.14v13.01c-1.42-1.23-3.08-2.53-5-4-6.65-5.1-7.87-7.31-7.87-11.3,0-.16,0-.34,0-.53,1.19-.35,2.03-1.15,2.03-2.07s-.9-1.78-2.17-2.11c-.03-.64-.06-1.3-.1-1.97.46-.23.77-.6.77-1.01,0-.45-.35-.84-.88-1.07-.04-.79-.09-1.57-.13-2.33.6-.17,1.01-.49,1.01-.87,0-.4-.46-.74-1.11-.9-.16-2.72-.29-4.75-.29-4.75h-.3v-.31h.26l-.45-4.44h-.06l-.45,4.44h.26v.31h-.3s-.13,2.03-.29,4.75c-.66.16-1.11.5-1.11.9,0,.38.41.7,1.01.87-.04.76-.09,1.54-.13,2.33-.53.23-.88.62-.88,1.07,0,.42.3.78.77,1.01-.03.67-.07,1.33-.1,1.97-1.27.33-2.17,1.15-2.17,2.11s.83,1.72,2.03,2.07c0,.19,0,.37,0,.53,0,3.99-1.22,6.21-7.87,11.3-4.12,3.16-7.12,5.55-8.82,8.09v-17.1h1.14c.25,0,.45-.2.45-.45v-.93c0-.25-.2-.45-.45-.45h-1.14v-8.61h1.75c.2,0,.36-.16.36-.36v-.73c0-.2-.16-.36-.36-.36h-.18c-.15-1.27-1.22-2.15-3.01-3.52-.38-.29-.7-.55-.97-.79.3-.05.49-.11.49-.18,0-.1-.37-.18-.93-.24-.72-.74-.89-1.29-.89-2.09,0-.05,0-.1,0-.16.35-.1.59-.33.59-.6s-.26-.52-.63-.61c0-.19-.02-.38-.03-.58.13-.07.22-.17.22-.29,0-.13-.1-.24-.26-.3-.01-.23-.03-.46-.04-.69.17-.05.29-.14.29-.25,0-.12-.13-.21-.32-.26-.05-.79-.09-1.38-.09-1.38h-.09v-.09h.08l-.13-1.29h-.02l-.13,1.29h.08v.09h-.09s-.04.59-.09,1.38c-.19.05-.32.14-.32.26,0,.11.12.2.29.25-.01.22-.03.45-.04.69-.15.07-.25.17-.25.3,0,.12.09.22.22.29-.01.2-.02.39-.03.58-.37.1-.63.33-.63.61s.24.5.59.6c0,.05,0,.11,0,.16,0,.79-.17,1.34-.89,2.09-.56.05-.93.14-.93.24,0,.07.19.13.49.18-.27.24-.59.5-.97.79-1.79,1.37-2.86,2.25-3.01,3.52h-.18c-.2,0-.36.16-.36.36v.73c0,.2.16.36.36.36h1.75v8.61h-1.14c-.25,0-.45.2-.45.45v.93c0,.25.2.45.45.45h1.14v18.05c-1-1.04-2.36-2.12-4.06-3.42-.75-.57-1.37-1.08-1.9-1.55.6-.1.96-.22.96-.36,0-.19-.72-.36-1.83-.46-1.42-1.46-1.75-2.55-1.75-4.11,0-.09,0-.2,0-.31.68-.2,1.16-.66,1.16-1.19s-.52-1.02-1.25-1.21c-.02-.37-.04-.75-.06-1.13.27-.13.44-.34.44-.58,0-.26-.2-.48-.5-.61-.02-.45-.05-.9-.07-1.33.34-.1.58-.28.58-.5,0-.23-.26-.43-.64-.52-.09-1.56-.17-2.73-.17-2.73h-.17v-.18h.15l-.26-2.55h-.03l-.26,2.55h.15v.18h-.17s-.08,1.17-.17,2.73c-.38.09-.64.29-.64.52,0,.22.24.4.58.5-.03.43-.05.88-.08,1.33-.3.13-.5.36-.5.61,0,.24.17.45.44.58-.02.39-.04.77-.06,1.13-.73.19-1.25.66-1.25,1.21s.48.98,1.16,1.19c0,.11,0,.21,0,.31,0,1.56-.33,2.65-1.75,4.11-1.11.1-1.83.27-1.83.46,0,.13.36.26.96.36-.53.47-1.15.98-1.9,1.55-3.81,2.92-5.98,4.71-5.98,7.57,0-13.97-9.11-18.04-13.46-21.13-5.28-3.75-5.28-8.86-5.28-8.86,0,0,0,5.11-5.28,8.86-3.98,2.82-11.92,6.47-13.26,17.73,17.98,19.25,43.58,31.3,72,31.3s53.45-11.77,71.4-30.65c-.95-1.53-2.72-2.94-5.17-4.82Z"/>
              </g>
              <polygon class="cls-3" points="77.88 126.76 79.5 131.74 84.74 131.74 80.5 134.82 82.12 139.81 77.88 136.73 73.64 139.81 75.26 134.82 71.02 131.74 76.26 131.74 77.88 126.76"/>
            </g>
          </g>
        </g>
      </g>
    </g>
  </g>
</svg>