<?xml version="1.0" encoding="UTF-8"?>
<svg xmlns="http://www.w3.org/2000/svg" viewBox="0 0 96.5 178.5">
  <defs>
    <style>
      .cls-1 {
        fill: #e4efee;
      }

      .cls-2 {
        fill: #727272;
      }

      .cls-3 {
        fill: #707070;
      }

      .cls-4, .cls-5 {
        fill: #326393;
      }

      .cls-6 {
        fill: #c1c1c1;
      }

      .cls-7 {
        fill: #f5ae3a;
      }

      .cls-8 {
        fill: #e5e5e5;
      }

      .cls-9 {
        isolation: isolate;
      }

      .cls-10 {
        font-size: 29.04px;
      }

      .cls-10, .cls-5 {
        font-family: BebasNeueBook, 'Bebas Neue';
      }

      .cls-11 {
        fill: #fff;
      }

      .cls-12 {
        fill: #565656;
      }

      .cls-5 {
        font-size: 20.92px;
      }

      .cls-13 {
        fill: none;
        stroke: #282828;
        stroke-miterlimit: 10;
        stroke-width: .25px;
      }

      .cls-14 {
        fill: #d6dee5;
        mix-blend-mode: multiply;
      }

      .cls-15 {
        fill: #494949;
      }

      .cls-16 {
        fill: #9e9e9e;
      }

      .cls-17 {
        letter-spacing: 0em;
      }

      .cls-18 {
        fill: #353535;
      }

      .cls-19 {
        fill: #d3d3d3;
      }
    </style>
  </defs>
  <g class="cls-9">
    <g id="Layer_2" data-name="Layer 2">
      <g id="Objects">
        <g>
          <path class="cls-14" d="M5.64,160.06c-.87.68-1.53,1.61-1.83,2.69-.57,2.08.24,3.97,1.72,5.33-1.3,4.09,3.96,8.55,7.66,5.86.05-.04.1-.08.16-.11.05.04.1.08.16.11,1.93,1.4,4.29.85,5.92-.58.05,2.78,2.41,5.13,5.21,5.13h.96c.98,0,1.9-.29,2.7-.79.89.5,1.96.79,3.35.79.2,0,.39-.02.58-.04.21.03.43.04.66.04h.88c1.05,0,2.12-.37,3.01-1,.89.62,1.96,1,3.02,1h.96c.26,0,.51-.02.75-.06.23.03.47.06.71.06h.96c.79,0,1.54-.19,2.23-.53.55.28,1.19.45,1.91.5.14.01.29.02.44.02,0,0,0,0,.01,0h1c.25,0,.5-.03.75-.07.26.04.51.07.78.07h5.77c.27,0,.53-.03.78-.07.26.04.52.07.78.07h5.77c.27,0,.53-.03.78-.07.26.04.52.07.78.07h.86c.55,0,1.09-.1,1.6-.27.49.15.99.25,1.5.25h.96c.49,0,.99-.09,1.47-.24.5.17,1.04.26,1.59.26h.92c1.6,0,2.81-.6,3.65-1.5.92-.82,1.54-2.04,1.56-3.63,1.63,1.42,3.98,1.98,5.91.58.05-.04.11-.08.16-.11.05.04.1.08.16.11,3.68,2.68,8.97-1.75,7.66-5.86,1.48-1.36,2.29-3.24,1.72-5.33-.29-1.06-.94-1.99-1.79-2.66.84-.25,1.53-.7,2.07-1.27.94-.84,1.56-2.08,1.56-3.72v-20.33c0-2.82-2.39-5.21-5.21-5.21h-1.22c-1.13,0-2.19.39-3.06,1.03-.84-.64-1.87-1.03-3.04-1.03h-1.74c-1.22,0-2.36.45-3.26,1.18-.95-.75-2.14-1.21-3.31-1.21h-1.95c-1.7,0-3.49.98-4.44,2.46-.37-.29-.75-.56-1.16-.78.22-.43.42-.88.62-1.32.84-.28,1.68-.56,2.53-.84,1.62-.54,3.32-1.83,3.64-3.64,3.83-21.36,7.66-42.72,11.49-64.07,1.29.1,2.59.2,3.88.31,3.66.29,5.56-3.54,5.03-6.6-.17-.96-.34-1.91-.51-2.87-.3-1.72-2.02-3.22-3.64-3.64-2.35-.61-13.19-3.35-13.41-6.33-.16-2.21-1.5-4.5-3.83-5.03-1.33-.3-2.67-.6-4-.9-1.77-5.61-6.02-9.86-11.74-11.31-.73-2.03-1.94-3.77-3.6-4.96V7.21c0-2.82-2.39-5.21-5.21-5.21h-.23c-2.82,0-5.21,2.39-5.21,5.21v12.81c-1.66,1.18-2.87,2.93-3.6,4.95-5.73,1.45-9.98,5.71-11.75,11.32-1.33.3-2.67.6-4,.9-2.35.53-3.66,2.8-3.83,5.03-.22,2.98-11.06,5.71-13.41,6.33-1.62.42-3.34,1.92-3.64,3.64-.17.96-.34,1.91-.51,2.87-.54,3.05,1.36,6.89,5.03,6.6,1.29-.1,2.59-.2,3.88-.31,3.83,21.36,7.66,42.72,11.49,64.07.44,2.45,2.1,3.6,3.96,3.75.66.22,1.32.44,1.99.66-.62.2-1.19.52-1.69.93-.95-.75-2.14-1.21-3.31-1.21h-1.95c-1.71,0-3.51.99-4.45,2.48-2.76-2.42-7.03-2.46-10.91-2.46-2.82,0-5.21,2.39-5.21,5.21v20.33c0,2.27,1.56,4.27,3.64,4.96Z"/>
          <g>
            <path class="cls-11" d="M3.64,158.06c-.87.68-1.53,1.61-1.83,2.69-.57,2.08.24,3.97,1.72,5.33-1.3,4.09,3.96,8.55,7.66,5.86.05-.04.1-.08.16-.11.05.04.1.08.16.11,1.93,1.4,4.29.85,5.92-.58.05,2.78,2.41,5.13,5.21,5.13h.96c.98,0,1.9-.29,2.7-.79.89.5,1.96.79,3.35.79.2,0,.39-.02.58-.04.21.03.43.04.66.04h.88c1.05,0,2.12-.37,3.01-1,.89.62,1.96,1,3.02,1h.96c.26,0,.51-.02.75-.06.23.03.47.06.71.06h.96c.79,0,1.55-.19,2.23-.53.55.28,1.19.45,1.91.5.14.01.29.02.44.02,0,0,0,0,.01,0h1c.25,0,.5-.03.75-.07.26.04.51.07.78.07h5.77c.27,0,.53-.03.78-.07.26.04.52.07.78.07h5.77c.27,0,.53-.03.78-.07.26.04.52.07.78.07h.86c.55,0,1.09-.1,1.6-.27.49.15.99.25,1.5.25h.96c.49,0,.99-.09,1.47-.24.5.17,1.04.26,1.59.26h.92c1.6,0,2.81-.6,3.65-1.5.92-.82,1.54-2.04,1.56-3.63,1.63,1.42,3.98,1.98,5.91.58.05-.04.11-.08.16-.11.05.04.1.08.16.11,3.68,2.68,8.97-1.75,7.66-5.86,1.48-1.36,2.29-3.24,1.72-5.33-.29-1.06-.94-1.99-1.79-2.66.84-.25,1.53-.7,2.07-1.27.94-.84,1.56-2.07,1.56-3.72v-20.33c0-2.82-2.39-5.21-5.21-5.21h-1.22c-1.13,0-2.19.39-3.06,1.03-.84-.64-1.87-1.03-3.04-1.03h-1.74c-1.22,0-2.36.45-3.26,1.18-.95-.75-2.14-1.21-3.31-1.21h-1.95c-1.7,0-3.49.98-4.44,2.46-.37-.29-.75-.56-1.16-.78.22-.43.42-.88.62-1.32.84-.28,1.68-.56,2.53-.84,1.62-.54,3.32-1.83,3.64-3.64,3.83-21.36,7.66-42.72,11.49-64.07,1.29.1,2.59.2,3.88.31,3.66.29,5.56-3.55,5.03-6.6-.17-.96-.34-1.91-.51-2.87-.3-1.72-2.02-3.22-3.64-3.64-2.35-.61-13.19-3.35-13.41-6.33-.16-2.21-1.5-4.5-3.83-5.03-1.33-.3-2.67-.6-4-.9-1.77-5.61-6.02-9.86-11.74-11.31-.73-2.03-1.94-3.77-3.6-4.96V5.21c0-2.82-2.39-5.21-5.21-5.21h-.23c-2.82,0-5.21,2.39-5.21,5.21v12.81c-1.66,1.18-2.87,2.93-3.6,4.95-5.73,1.45-9.98,5.71-11.75,11.32-1.33.3-2.67.6-4,.9-2.35.53-3.66,2.8-3.83,5.03-.22,2.98-11.06,5.71-13.41,6.33-1.62.42-3.34,1.92-3.64,3.64-.17.96-.34,1.91-.51,2.87-.54,3.05,1.36,6.89,5.03,6.6,1.29-.1,2.59-.21,3.88-.31,3.83,21.36,7.66,42.72,11.49,64.07.44,2.45,2.1,3.6,3.96,3.75.66.22,1.32.44,1.99.66-.62.2-1.19.52-1.69.93-.95-.75-2.14-1.21-3.31-1.21h-1.95c-1.71,0-3.51.99-4.45,2.48-2.76-2.42-7.03-2.46-10.91-2.46-2.82,0-5.21,2.39-5.21,5.21v20.33c0,2.27,1.56,4.27,3.64,4.96Z"/>
            <g>
              <g>
                <polygon class="cls-18" points="31.5 123.66 33.52 127.78 39.72 130.21 38.32 125.12 31.5 123.66"/>
                <polygon class="cls-18" points="62.96 123.66 60.94 127.78 54.75 130.21 56.15 125.12 62.96 123.66"/>
                <polygon class="cls-12" points="47.23 125.12 38.32 125.12 39.72 130.21 47.23 130.21 54.75 130.21 56.15 125.12 47.23 125.12"/>
                <polygon class="cls-1" points="27.63 52.74 14.36 53.77 26.6 122.03 35.88 125.12 27.63 52.74"/>
                <polygon class="cls-15" points="35.88 125.12 27.63 52.74 14.36 53.77 14.73 55.85 25.95 54.92 33.16 122.32 26.21 119.85 26.6 122.03 35.88 125.12"/>
                <polygon class="cls-7" points="25.95 54.92 14.73 55.85 26.21 119.85 33.16 122.32 25.95 54.92"/>
                <polygon class="cls-19" points="27.63 52.74 27.63 50.04 6.71 51.56 6.2 54.43 27.63 52.74"/>
                <path d="M27.63,50.04c8.11-8.01,5.53-11.89,5.53-11.89l-9.21,2.06c0,3.98-5.9,8.55-17.23,11.35l20.92-1.53Z"/>
                <path class="cls-3" d="M33.16,38.14l-9.21,2.06c0,3.98-5.9,8.55-17.23,11.35l20.92-1.53c8.11-8.01,5.53-11.89,5.53-11.89Z"/>
                <polygon class="cls-1" points="66.84 52.74 80.11 53.77 67.87 122.03 58.58 125.12 66.84 52.74"/>
                <path class="cls-3" d="M47.23,52.74h-19.61l8.26,72.38h22.7l8.26-72.38h-19.61ZM56.45,122.94h-18.43l-7.76-68.03h33.95l-7.76,68.03Z"/>
                <polygon class="cls-7" points="47.23 54.92 30.26 54.92 38.02 122.94 47.23 122.94 56.45 122.94 64.21 54.92 47.23 54.92"/>
                <polygon class="cls-15" points="58.58 125.12 66.84 52.74 80.11 53.77 79.74 55.85 68.52 54.92 61.31 122.32 68.26 119.85 67.87 122.03 58.58 125.12"/>
                <polygon class="cls-7" points="68.52 54.92 79.74 55.85 68.26 119.85 61.31 122.32 68.52 54.92"/>
                <polygon class="cls-19" points="66.84 52.74 66.84 50.04 87.76 51.56 88.27 54.43 66.84 52.74"/>
                <polygon class="cls-8" points="47.23 50.04 27.63 50.04 27.63 52.74 47.23 52.74 66.84 52.74 66.84 50.04 47.23 50.04"/>
                <path d="M66.84,50.04c-8.11-8.01-5.53-11.89-5.53-11.89l9.21,2.06c0,3.98,5.9,8.55,17.23,11.35l-20.92-1.53Z"/>
                <path class="cls-6" d="M61.31,38.14h-28.16s2.58,3.88-5.53,11.89h39.21c-8.11-8.01-5.53-11.89-5.53-11.89Z"/>
                <path class="cls-3" d="M61.31,38.14l9.21,2.06c0,3.98,5.9,8.55,17.23,11.35l-20.92-1.53c-8.11-8.01-5.53-11.89-5.53-11.89Z"/>
                <g>
                  <path class="cls-2" d="M35.24,38.31h2.32c0-10.3,7.91-10.69,7.91-10.69h-2.76s-11.82.02-11.82,11.67h0l4.35-.98Z"/>
                  <path class="cls-16" d="M42.71,27.62s-11.82.02-11.82,11.67l4.35-.98h2.32c0-7.66,4.37-8.78,6.62-10.06l1.29-.63h-2.76Z"/>
                  <path class="cls-2" d="M59.22,38.31h-2.32c0-10.3-7.91-10.69-7.91-10.69h2.76s11.82.02,11.82,11.67h0l-4.35-.98Z"/>
                  <path class="cls-2" d="M50.29,28.25l-1.29-.63h-3.52l-1.29.63c-2.24,1.29-6.62,2.41-6.62,10.06h19.33c0-7.66-4.37-8.78-6.62-10.06Z"/>
                  <path class="cls-16" d="M51.75,27.62s11.82.02,11.82,11.67l-4.35-.98h-2.32c0-7.66-4.37-8.78-6.62-10.06l-1.29-.63h2.76Z"/>
                  <polygon class="cls-19" points="47.23 27 42.72 27 42.72 27.62 47.23 27.62 51.75 27.62 51.75 27 47.23 27"/>
                  <path class="cls-16" d="M48.99,21.6h-3.52s-2.76,2.01-2.76,5.4h9.03c0-3.39-2.76-5.4-2.76-5.4Z"/>
                  <line class="cls-13" x1="47.23" y1="21.6" x2="47.23" y2="5.21"/>
                </g>
              </g>
              <text class="cls-10" transform="translate(4.05 153.1)"><tspan x="0" y="0">Rama</tspan><tspan class="cls-17" x="51.2" y="0">d</tspan><tspan x="62.35" y="0">an</tspan></text>
              <text class="cls-5" transform="translate(21.79 171.29)"><tspan x="0" y="0">kAREEM</tspan></text>
              <g>
                <polygon class="cls-4" points="11.35 158.86 12.41 162.14 15.86 162.14 13.07 164.17 14.13 167.44 11.35 165.42 8.56 167.44 9.62 164.17 6.83 162.14 10.28 162.14 11.35 158.86"/>
                <polygon class="cls-4" points="83.12 158.86 84.19 162.14 87.63 162.14 84.85 164.17 85.91 167.44 83.12 165.42 80.34 167.44 81.4 164.17 78.61 162.14 82.06 162.14 83.12 158.86"/>
              </g>
            </g>
          </g>
        </g>
      </g>
    </g>
  </g>
</svg>