<?xml version="1.0" encoding="UTF-8"?>
<svg id="Layer_2" data-name="Layer 2" xmlns="http://www.w3.org/2000/svg" xmlns:xlink="http://www.w3.org/1999/xlink" viewBox="0 0 357.03 357.03">
  <defs>
    <style>
      .cls-1 {
        fill: none;
      }

      .cls-2 {
        fill: #fdcb11;
      }

      .cls-3 {
        fill: #ffa4b8;
      }

      .cls-4 {
        fill: url(#New_Pattern_7);
      }

      .cls-5 {
        fill: #facee2;
      }

      .cls-6 {
        fill: #fff;
      }

      .cls-7 {
        fill: #b9d5ea;
      }

      .cls-8 {
        fill: #ff7d9a;
      }

      .cls-9 {
        fill: #302e2a;
      }

      .cls-10 {
        fill: #fde4d9;
      }

      .cls-11 {
        fill: #ffaeae;
      }

      .cls-12 {
        fill: #ffe280;
      }

      .cls-13 {
        fill: #f9a77a;
      }

      .cls-14 {
        fill: #ffd4cb;
      }
    </style>
    <pattern id="New_Pattern_7" data-name="New Pattern 7" x="0" y="0" width="1200" height="1200" patternTransform="translate(-3322.77 -4772.31) scale(.3)" patternUnits="userSpaceOnUse" viewBox="0 0 1200 1200">
      <g>
        <rect class="cls-1" y="0" width="1200" height="1200"/>
        <g>
          <path class="cls-8" d="M749.5,1409.33c6.92-1.68,13.91-3.15,20.94-4.45,1.91-35.42,3.51-70.99,11.61-105.68,2.24-9.62,4.49-19.87,8.39-29.01.07-.17.12-.28.18-.43.11-.09.29-.31.58-.72.95-1.36,2.07-2.48,2.85-3.97,1.79-3.38,2.44-7.3,3.71-10.87,5.53-15.61,14.96-30.07,26.89-41.86,23.1-22.83,57.22-34.73,88.66-20.69,17.89,8,29.54,22.71,40.01,38.28,10.61,15.78,19.78,32.48,27.43,49.78,13.72,31.01,22.63,63.73,29.85,96.7,6.8-1.06,13.6-2.12,20.41-3.15-7.31-33.44-16.33-66.53-29.98-98.16-8.29-19.22-18.09-37.79-29.84-55.26-11.21-16.67-23.71-32.54-41.86-42.63-33.38-18.55-73.63-13.62-103.96,8.14-14.96,10.74-27.48,24.55-36.71,40.18-4.37,7.4-8.01,15.28-10.86,23.34-.59,1.67-3.97,9.88-1.95,6.76-2.95,4.55-4.82,7.48-6.61,12.85-15.2,45.5-17.06,93.43-19.73,140.83Z"/>
          <g>
            <path class="cls-11" d="M348.11,1380.08c6.92-1.68,13.91-3.15,20.94-4.45,1.91-35.42,3.51-70.99,11.61-105.68,2.24-9.62,4.49-19.87,8.39-29.01.07-.17.12-.28.18-.43.11-.09.29-.31.58-.72.95-1.36,2.07-2.48,2.85-3.97,1.79-3.38,2.44-7.3,3.71-10.87,5.53-15.61,14.96-30.07,26.89-41.86,23.1-22.83,57.22-34.73,88.66-20.69,17.89,8,29.54,22.71,40.01,38.28,10.61,15.78,19.78,32.48,27.43,49.78,13.72,31.01,22.63,63.73,29.85,96.7,6.8-1.06,13.6-2.12,20.41-3.15-7.31-33.44-16.33-66.53-29.98-98.16-8.29-19.22-18.09-37.79-29.84-55.26-11.21-16.67-23.71-32.54-41.86-42.63-33.38-18.55-73.63-13.62-103.96,8.14-14.96,10.74-27.48,24.55-36.71,40.18-4.37,7.4-8.01,15.28-10.86,23.34-.59,1.67-3.97,9.88-1.95,6.76-2.95,4.55-4.82,7.48-6.61,12.85-15.2,45.5-17.06,93.43-19.73,140.83Z"/>
            <path class="cls-5" d="M392.44,1371.88c4.15-.57,8.3-1.11,12.46-1.62,1.03-18.81,2.54-37.58,5.4-56.21,1.43-9.33,3.2-18.61,5.37-27.8,1.79-7.58,5.14-14.09,6.95-21.58,3.56-14.68,9.59-28.69,18.28-41.24,15.02-21.68,42.04-39,67.39-21.14,13.61,9.59,21.2,25.5,28.27,39.77,7.87,15.89,14.26,32.4,19.64,49.22,6.48,20.25,11.43,40.87,15.55,61.66,6.8-1.01,13.6-2.05,20.41-3.11-4.31-22.11-9.55-44.04-16.52-65.52-5.99-18.44-13.26-36.52-21.98-53.91-8.16-16.27-17.33-32.58-32.56-43.67-26.25-19.1-58.37-13.48-81.45,7.3-12.03,10.83-21.22,24.75-27.8,39.21-3.62,7.96-6.66,16.14-8.82,24.59-2.16,8.44-5.75,16.24-7.75,24.96-6.82,29.72-9.51,59.97-11.14,90.3,2.76-.42,5.53-.83,8.3-1.21Z"/>
          </g>
        </g>
        <g>
          <g>
            <path class="cls-8" d="M1082.86,1212.45c6.92-1.68,13.91-3.15,20.94-4.45,1.91-35.42,3.51-70.99,11.6-105.68,2.25-9.62,4.49-19.87,8.39-29.01.07-.17.12-.28.18-.43.11-.09.29-.31.58-.72.95-1.36,2.07-2.48,2.85-3.97,1.79-3.38,2.44-7.3,3.71-10.87,5.53-15.61,14.96-30.07,26.89-41.86,23.1-22.83,57.22-34.73,88.66-20.69,17.89,8,29.54,22.71,40.01,38.28,10.61,15.78,19.78,32.48,27.43,49.78,13.72,31.01,22.63,63.73,29.85,96.7,6.8-1.06,13.6-2.12,20.41-3.15-7.31-33.44-16.33-66.53-29.98-98.16-8.29-19.22-18.09-37.79-29.84-55.26-11.21-16.67-23.71-32.54-41.86-42.63-33.38-18.55-73.63-13.62-103.96,8.14-14.96,10.74-27.48,24.55-36.71,40.18-4.37,7.4-8.01,15.28-10.86,23.34-.59,1.67-3.97,9.88-1.95,6.76-2.95,4.55-4.82,7.48-6.61,12.85-15.2,45.5-17.06,93.43-19.73,140.83Z"/>
            <path class="cls-7" d="M1127.19,1204.25c4.15-.57,8.3-1.11,12.46-1.62,1.03-18.81,2.54-37.58,5.4-56.21,1.43-9.33,3.2-18.61,5.37-27.8,1.79-7.58,5.14-14.09,6.95-21.58,3.56-14.68,9.59-28.69,18.28-41.24,15.02-21.68,42.04-39,67.39-21.14,13.61,9.59,21.2,25.5,28.27,39.77,7.87,15.89,14.26,32.4,19.64,49.22,6.48,20.25,11.43,40.87,15.55,61.66,6.8-1.01,13.6-2.05,20.41-3.11-4.31-22.11-9.55-44.04-16.52-65.52-5.99-18.44-13.26-36.52-21.98-53.91-8.16-16.27-17.33-32.58-32.56-43.67-26.25-19.1-58.37-13.48-81.45,7.3-12.03,10.83-21.22,24.75-27.8,39.21-3.62,7.96-6.66,16.14-8.82,24.59-2.16,8.44-5.75,16.24-7.75,24.96-6.82,29.72-9.51,59.97-11.14,90.3,2.76-.42,5.53-.83,8.3-1.21Z"/>
            <path class="cls-13" d="M1184.37,1197.98c-.12-14.08.85-28.15,3.18-42.07,1.75-10.41,4.19-20.73,7.23-30.86,2.59-8.63,5.22-20.85,13.19-26.51,10.71-7.61,15.61,4.96,19.13,12.87,4.39,9.89,8.22,20.04,11.63,30.28,5.48,16.5,9.64,33.33,12.67,50.38,6.84-.67,13.68-1.39,20.51-2.17-4.2-24.78-10.84-49.1-20.15-72.58-7.71-19.45-18.34-48.44-46.02-39.95-24.22,7.43-30.43,37.83-35.22,58.6-4.85,21.02-7.08,42.49-6.79,63.97,6.88-.7,13.76-1.35,20.65-1.96Z"/>
          </g>
          <g>
            <circle class="cls-2" cx="1254.53" cy="170.64" r="56.68"/>
            <path class="cls-2" d="M1202.11,115.27c-7.55-7.38-15.09-14.76-22.64-22.15-3.58-3.5-8.55,2.47-4.99,5.95,7.55,7.38,15.09,14.76,22.64,22.15,3.58,3.5,8.55-2.47,4.99-5.95Z"/>
            <path class="cls-2" d="M1201.98,230.8c-4.44,5.15-8.89,10.3-13.33,15.45-3.25,3.77,2.22,9.28,5.49,5.49,4.44-5.15,8.89-10.3,13.33-15.45,3.25-3.77-2.22-9.28-5.49-5.49Z"/>
            <path class="cls-2" d="M1177.19,195.35c-9.39,1.1-18.63,2.89-27.72,5.5-4.79,1.38-2.76,8.87,2.06,7.49,8.41-2.41,16.97-4.2,25.66-5.23,4.9-.58,4.96-8.35,0-7.76Z"/>
            <path class="cls-2" d="M1178.89,158.13c-9.76-1.38-19.35-3.48-28.79-6.32-4.8-1.44-6.84,6.05-2.06,7.49,9.43,2.84,19.03,4.95,28.79,6.32,4.89.69,7-6.79,2.06-7.49Z"/>
          </g>
        </g>
        <g>
          <g>
            <path class="cls-5" d="M197.16,977.92c6.92-1.68,13.91-3.15,20.94-4.45,1.91-35.42,3.51-70.99,11.61-105.68,2.24-9.62,4.49-19.87,8.39-29.01.07-.17.12-.28.18-.43.11-.09.29-.31.58-.72.95-1.36,2.07-2.48,2.85-3.97,1.79-3.38,2.44-7.3,3.71-10.87,5.53-15.61,14.96-30.07,26.89-41.86,23.1-22.83,57.22-34.73,88.66-20.69,17.89,8,29.54,22.71,40.01,38.28,10.61,15.78,19.78,32.48,27.43,49.78,13.72,31.01,22.63,63.73,29.85,96.7,6.8-1.06,13.6-2.12,20.41-3.15-7.31-33.44-16.33-66.53-29.98-98.16-8.29-19.22-18.09-37.79-29.84-55.26-11.21-16.67-23.71-32.54-41.86-42.63-33.38-18.55-73.63-13.62-103.96,8.14-14.96,10.74-27.48,24.55-36.71,40.18-4.37,7.4-8.01,15.28-10.86,23.34-.59,1.67-3.97,9.88-1.95,6.76-2.95,4.55-4.82,7.48-6.61,12.85-15.2,45.5-17.06,93.43-19.73,140.83Z"/>
            <path class="cls-12" d="M241.49,969.71c4.15-.57,8.3-1.11,12.46-1.62,1.03-18.81,2.54-37.58,5.4-56.21,1.43-9.33,3.2-18.61,5.37-27.8,1.79-7.58,5.14-14.09,6.95-21.58,3.56-14.68,9.59-28.69,18.28-41.24,15.02-21.68,42.04-39,67.39-21.14,13.61,9.59,21.2,25.5,28.27,39.77,7.87,15.89,14.26,32.4,19.64,49.22,6.48,20.25,11.43,40.87,15.55,61.66,6.8-1.01,13.6-2.05,20.41-3.11-4.31-22.11-9.54-44.04-16.52-65.52-5.99-18.44-13.26-36.52-21.98-53.91-8.16-16.27-17.33-32.58-32.56-43.67-26.25-19.1-58.37-13.48-81.45,7.3-12.03,10.83-21.22,24.75-27.8,39.21-3.62,7.96-6.66,16.14-8.82,24.59-2.16,8.44-5.75,16.24-7.75,24.96-6.82,29.72-9.51,59.97-11.14,90.3,2.76-.42,5.53-.83,8.3-1.21Z"/>
            <path class="cls-14" d="M298.67,963.45c-.12-14.08.85-28.15,3.18-42.07,1.75-10.41,4.19-20.73,7.23-30.86,2.59-8.63,5.22-20.85,13.19-26.51,10.71-7.61,15.61,4.96,19.13,12.87,4.39,9.89,8.22,20.04,11.63,30.28,5.48,16.5,9.64,33.33,12.67,50.38,6.84-.67,13.68-1.39,20.51-2.17-4.2-24.78-10.84-49.1-20.15-72.58-7.71-19.45-18.34-48.44-46.02-39.95-24.22,7.43-30.43,37.83-35.22,58.6-4.85,21.02-7.08,42.49-6.79,63.97,6.88-.7,13.76-1.35,20.65-1.96Z"/>
          </g>
          <g>
            <path class="cls-8" d="M749.5,209.33c6.92-1.68,13.91-3.15,20.94-4.45,1.91-35.42,3.51-70.99,11.61-105.68,2.24-9.62,4.49-19.87,8.39-29.01.07-.17.12-.28.18-.43.11-.09.29-.31.58-.72.95-1.36,2.07-2.48,2.85-3.97,1.79-3.38,2.44-7.3,3.71-10.87,5.53-15.61,14.96-30.07,26.89-41.86,23.1-22.83,57.22-34.73,88.66-20.69,17.89,8,29.54,22.71,40.01,38.28,10.61,15.78,19.78,32.48,27.43,49.78,13.72,31.01,22.63,63.73,29.85,96.7,6.8-1.06,13.6-2.12,20.41-3.15-7.31-33.44-16.33-66.53-29.98-98.16-8.29-19.22-18.09-37.79-29.84-55.26-11.21-16.67-23.71-32.54-41.86-42.63-33.38-18.55-73.63-13.62-103.96,8.14-14.96,10.74-27.48,24.55-36.71,40.18-4.37,7.4-8.01,15.28-10.86,23.34-.59,1.67-3.97,9.88-1.95,6.76-2.95,4.55-4.82,7.48-6.61,12.85-15.2,45.5-17.06,93.43-19.73,140.83Z"/>
            <path class="cls-5" d="M793.83,201.13c4.15-.57,8.3-1.11,12.46-1.62,1.03-18.81,2.54-37.58,5.4-56.21,1.43-9.33,3.2-18.61,5.37-27.8,1.79-7.58,5.14-14.09,6.95-21.58,3.56-14.68,9.59-28.69,18.28-41.24,15.02-21.68,42.04-39,67.39-21.14,13.61,9.59,21.2,25.5,28.27,39.77,7.87,15.89,14.26,32.4,19.64,49.22,6.48,20.25,11.43,40.87,15.55,61.66,6.8-1.01,13.6-2.05,20.41-3.11-4.31-22.11-9.55-44.04-16.52-65.52-5.99-18.44-13.26-36.52-21.98-53.91-8.16-16.27-17.33-32.58-32.56-43.67-26.25-19.1-58.37-13.48-81.45,7.3-12.03,10.83-21.22,24.75-27.8,39.21-3.62,7.96-6.66,16.14-8.82,24.59-2.16,8.44-5.75,16.24-7.75,24.96-6.82,29.72-9.51,59.97-11.14,90.3,2.76-.42,5.53-.83,8.3-1.21Z"/>
            <path class="cls-7" d="M851.01,194.86c-.12-14.08.85-28.15,3.18-42.07,1.75-10.41,4.19-20.73,7.23-30.86,2.59-8.63,5.22-20.85,13.19-26.51,10.71-7.61,15.61,4.96,19.13,12.87,4.39,9.89,8.22,20.04,11.63,30.28,5.48,16.5,9.64,33.33,12.67,50.38,6.84-.67,13.68-1.39,20.51-2.17-4.2-24.78-10.84-49.1-20.15-72.58-7.71-19.45-18.34-48.44-46.02-39.95-24.22,7.43-30.43,37.83-35.22,58.6-4.85,21.02-7.08,42.49-6.79,63.97,6.88-.7,13.76-1.35,20.65-1.96Z"/>
          </g>
          <g>
            <path class="cls-7" d="M861.5,487.33c6.92-1.68,13.91-3.15,20.94-4.45,1.91-35.42,3.51-70.99,11.61-105.68,2.24-9.62,4.49-19.87,8.39-29.01.07-.17.12-.28.18-.43.11-.09.29-.31.58-.72.95-1.36,2.07-2.48,2.85-3.97,1.79-3.38,2.44-7.3,3.71-10.87,5.53-15.61,14.96-30.07,26.89-41.86,23.1-22.83,57.22-34.73,88.66-20.69,17.89,8,29.54,22.71,40.01,38.28,10.61,15.78,19.78,32.48,27.43,49.78,13.72,31.01,22.63,63.73,29.85,96.7,6.8-1.06,13.6-2.12,20.41-3.15-7.31-33.44-16.33-66.53-29.98-98.16-8.29-19.22-18.09-37.79-29.84-55.26-11.21-16.67-23.71-32.54-41.86-42.63-33.38-18.55-73.63-13.62-103.96,8.14-14.96,10.74-27.48,24.55-36.71,40.18-4.37,7.4-8.01,15.28-10.86,23.34-.59,1.67-3.97,9.88-1.95,6.76-2.95,4.55-4.82,7.48-6.61,12.85-15.2,45.5-17.06,93.43-19.73,140.83Z"/>
            <path class="cls-11" d="M905.83,479.13c4.15-.57,8.3-1.11,12.46-1.62,1.03-18.81,2.54-37.58,5.4-56.21,1.43-9.33,3.2-18.61,5.37-27.8,1.79-7.58,5.14-14.09,6.95-21.58,3.56-14.68,9.59-28.69,18.28-41.24,15.02-21.68,42.04-39,67.39-21.14,13.61,9.59,21.2,25.5,28.27,39.77,7.87,15.89,14.26,32.4,19.64,49.22,6.48,20.25,11.43,40.87,15.55,61.66,6.8-1.01,13.6-2.05,20.41-3.11-4.31-22.11-9.55-44.04-16.52-65.52-5.99-18.44-13.26-36.52-21.98-53.91-8.16-16.27-17.33-32.58-32.56-43.67-26.25-19.1-58.37-13.48-81.45,7.3-12.03,10.83-21.22,24.75-27.8,39.21-3.62,7.96-6.66,16.14-8.82,24.59-2.16,8.44-5.75,16.24-7.75,24.96-6.82,29.72-9.51,59.97-11.14,90.3,2.76-.42,5.53-.83,8.3-1.21Z"/>
            <path class="cls-5" d="M963.99,473.39c-.35-14.07.39-28.16,2.5-42.12,1.58-10.44,3.85-20.79,6.73-30.97,2.45-8.67,4.89-20.93,12.76-26.72,10.58-7.78,15.69,4.7,19.33,12.56,4.55,9.82,8.55,19.9,12.12,30.09,5.75,16.41,10.18,33.17,13.48,50.17,6.83-.78,13.65-1.61,20.47-2.5-4.6-24.71-11.64-48.91-21.33-72.24-8.03-19.32-19.13-48.13-46.67-39.2-24.1,7.82-29.81,38.32-34.27,59.16-4.51,21.09-6.39,42.6-5.75,64.08,6.87-.81,13.74-1.57,20.61-2.3Z"/>
          </g>
          <g>
            <path class="cls-7" d="M609.21,1051.6c6.92-1.68,13.91-3.15,20.94-4.45,1.91-35.42,3.51-70.99,11.61-105.68,2.24-9.62,4.49-19.87,8.39-29.01.07-.17.12-.28.18-.43.11-.09.29-.31.58-.72.95-1.36,2.07-2.48,2.85-3.97,1.79-3.38,2.44-7.3,3.71-10.87,5.53-15.61,14.96-30.07,26.89-41.86,23.1-22.83,57.22-34.73,88.66-20.69,17.89,8,29.54,22.71,40.01,38.28,10.61,15.78,19.78,32.48,27.43,49.78,13.72,31.01,22.63,63.73,29.85,96.7,6.8-1.06,13.6-2.12,20.41-3.15-7.31-33.44-16.33-66.53-29.98-98.16-8.29-19.22-18.09-37.79-29.84-55.26-11.21-16.67-23.71-32.54-41.86-42.63-33.38-18.55-73.63-13.62-103.96,8.14-14.96,10.74-27.48,24.55-36.71,40.18-4.37,7.4-8.01,15.28-10.86,23.34-.59,1.67-3.97,9.88-1.95,6.76-2.95,4.55-4.82,7.48-6.61,12.85-15.2,45.5-17.06,93.43-19.73,140.83Z"/>
            <path class="cls-5" d="M653.54,1043.4c4.15-.57,8.3-1.11,12.46-1.62,1.03-18.81,2.54-37.58,5.4-56.21,1.43-9.33,3.2-18.61,5.37-27.8,1.79-7.58,5.14-14.09,6.95-21.58,3.56-14.68,9.59-28.69,18.28-41.24,15.02-21.68,42.04-39,67.39-21.14,13.61,9.59,21.2,25.5,28.27,39.77,7.87,15.89,14.26,32.4,19.64,49.22,6.48,20.25,11.43,40.87,15.55,61.66,6.8-1.01,13.6-2.05,20.41-3.11-4.31-22.11-9.55-44.04-16.52-65.52-5.99-18.44-13.26-36.52-21.98-53.91-8.16-16.27-17.33-32.58-32.56-43.67-26.25-19.1-58.37-13.48-81.45,7.3-12.03,10.83-21.22,24.75-27.8,39.21-3.62,7.96-6.66,16.14-8.82,24.59-2.16,8.44-5.75,16.24-7.75,24.96-6.82,29.72-9.51,59.97-11.14,90.3,2.76-.42,5.53-.83,8.3-1.21Z"/>
            <path class="cls-11" d="M710.72,1037.13c-.12-14.08.85-28.15,3.18-42.07,1.75-10.41,4.19-20.73,7.23-30.86,2.59-8.63,5.22-20.85,13.19-26.51,10.71-7.61,15.61,4.96,19.13,12.87,4.39,9.89,8.22,20.04,11.63,30.28,5.48,16.5,9.64,33.33,12.67,50.38,6.84-.67,13.68-1.39,20.51-2.17-4.2-24.78-10.84-49.1-20.15-72.58-7.71-19.45-18.34-48.44-46.02-39.95-24.22,7.43-30.43,37.83-35.22,58.6-4.85,21.02-7.08,42.49-6.79,63.97,6.88-.7,13.76-1.35,20.65-1.96Z"/>
          </g>
          <g>
            <path class="cls-5" d="M436.88,472.73c6.92-1.68,13.91-3.15,20.94-4.45,1.91-35.42,3.51-70.99,11.61-105.68,2.25-9.62,4.49-19.87,8.39-29.01.07-.17.12-.28.18-.43.11-.09.29-.31.58-.72.95-1.36,2.07-2.48,2.85-3.97,1.79-3.38,2.44-7.3,3.71-10.87,5.53-15.61,14.96-30.07,26.89-41.86,23.1-22.83,57.22-34.73,88.66-20.69,17.89,8,29.54,22.71,40.01,38.28,10.61,15.78,19.78,32.48,27.43,49.78,13.72,31.01,22.63,63.73,29.85,96.7,6.8-1.06,13.6-2.12,20.41-3.15-7.31-33.44-16.33-66.53-29.98-98.16-8.29-19.22-18.08-37.79-29.84-55.26-11.21-16.67-23.71-32.54-41.86-42.63-33.38-18.55-73.63-13.62-103.96,8.14-14.96,10.74-27.48,24.55-36.71,40.18-4.37,7.4-8.01,15.28-10.86,23.34-.59,1.67-3.97,9.88-1.95,6.76-2.95,4.55-4.82,7.48-6.61,12.85-15.2,45.5-17.06,93.43-19.73,140.83Z"/>
            <path class="cls-7" d="M481.21,464.52c4.15-.57,8.3-1.11,12.46-1.62,1.03-18.81,2.54-37.58,5.4-56.21,1.43-9.33,3.2-18.61,5.37-27.8,1.79-7.58,5.14-14.09,6.95-21.58,3.56-14.68,9.59-28.69,18.28-41.24,15.02-21.68,42.04-39,67.39-21.14,13.61,9.59,21.2,25.5,28.27,39.77,7.87,15.89,14.26,32.4,19.64,49.22,6.48,20.25,11.43,40.87,15.55,61.66,6.8-1.01,13.6-2.05,20.41-3.11-4.31-22.11-9.54-44.04-16.52-65.52-5.99-18.44-13.26-36.52-21.98-53.91-8.16-16.27-17.33-32.58-32.56-43.67-26.25-19.1-58.37-13.48-81.45,7.3-12.02,10.83-21.22,24.75-27.8,39.21-3.62,7.96-6.66,16.14-8.82,24.59-2.16,8.44-5.75,16.24-7.75,24.96-6.82,29.72-9.51,59.97-11.14,90.3,2.76-.42,5.53-.83,8.3-1.21Z"/>
            <path class="cls-12" d="M538.39,458.26c-.12-14.08.85-28.15,3.18-42.07,1.75-10.41,4.19-20.73,7.23-30.86,2.59-8.63,5.22-20.85,13.19-26.51,10.71-7.61,15.61,4.96,19.13,12.87,4.39,9.89,8.22,20.04,11.63,30.28,5.48,16.5,9.64,33.33,12.67,50.38,6.84-.67,13.68-1.39,20.51-2.17-4.2-24.78-10.84-49.1-20.15-72.58-7.71-19.45-18.34-48.44-46.02-39.95-24.22,7.43-30.43,37.83-35.22,58.6-4.85,21.02-7.08,42.49-6.79,63.97,6.88-.7,13.76-1.35,20.65-1.96Z"/>
          </g>
          <g>
            <path class="cls-11" d="M94.11,626.08c6.92-1.68,13.91-3.15,20.94-4.45,1.91-35.42,3.51-70.99,11.61-105.68,2.24-9.62,4.49-19.87,8.39-29.01.07-.17.12-.28.18-.43.11-.09.29-.31.58-.72.95-1.36,2.07-2.48,2.85-3.97,1.79-3.38,2.44-7.3,3.71-10.87,5.53-15.61,14.96-30.07,26.89-41.86,23.1-22.83,57.22-34.73,88.66-20.69,17.89,8,29.54,22.71,40.01,38.28,10.61,15.78,19.78,32.48,27.43,49.78,13.72,31.01,22.63,63.73,29.85,96.7,6.8-1.06,13.6-2.12,20.41-3.15-7.31-33.44-16.33-66.53-29.98-98.16-8.29-19.22-18.09-37.79-29.84-55.26-11.21-16.67-23.71-32.54-41.86-42.63-33.38-18.55-73.63-13.62-103.96,8.14-14.96,10.74-27.48,24.55-36.71,40.18-4.37,7.4-8.01,15.28-10.86,23.34-.59,1.67-3.97,9.88-1.95,6.76-2.95,4.55-4.82,7.48-6.61,12.85-15.2,45.5-17.06,93.43-19.73,140.83Z"/>
            <path class="cls-5" d="M138.44,617.88c4.15-.57,8.3-1.11,12.46-1.62,1.03-18.81,2.54-37.58,5.4-56.21,1.43-9.33,3.2-18.61,5.37-27.8,1.79-7.58,5.14-14.09,6.95-21.58,3.56-14.68,9.59-28.69,18.28-41.24,15.02-21.68,42.04-39,67.39-21.14,13.61,9.59,21.2,25.5,28.27,39.77,7.87,15.89,14.26,32.4,19.64,49.22,6.48,20.25,11.43,40.87,15.55,61.66,6.8-1.01,13.6-2.05,20.41-3.11-4.31-22.11-9.55-44.04-16.52-65.52-5.99-18.44-13.26-36.52-21.98-53.91-8.16-16.27-17.33-32.58-32.56-43.67-26.25-19.1-58.37-13.48-81.45,7.3-12.03,10.83-21.22,24.75-27.8,39.21-3.62,7.96-6.66,16.14-8.82,24.59-2.16,8.44-5.75,16.24-7.75,24.96-6.82,29.72-9.51,59.97-11.14,90.3,2.76-.42,5.53-.83,8.3-1.21Z"/>
            <path class="cls-8" d="M195.62,611.61c-.12-14.08.85-28.15,3.18-42.07,1.75-10.41,4.19-20.73,7.23-30.86,2.59-8.63,5.22-20.85,13.19-26.51,10.71-7.61,15.61,4.96,19.13,12.87,4.39,9.89,8.22,20.04,11.63,30.28,5.48,16.5,9.64,33.33,12.67,50.38,6.84-.67,13.68-1.39,20.51-2.17-4.2-24.78-10.84-49.1-20.15-72.58-7.71-19.45-18.34-48.44-46.02-39.95-24.22,7.43-30.43,37.83-35.22,58.6-4.85,21.02-7.08,42.49-6.79,63.97,6.88-.7,13.76-1.35,20.65-1.96Z"/>
          </g>
          <g>
            <path class="cls-11" d="M348.11,180.08c6.92-1.68,13.91-3.15,20.94-4.45,1.91-35.42,3.51-70.99,11.61-105.68,2.24-9.62,4.49-19.87,8.39-29.01.07-.17.12-.28.18-.43.11-.09.29-.31.58-.72.95-1.36,2.07-2.48,2.85-3.97,1.79-3.38,2.44-7.3,3.71-10.87,5.53-15.61,14.96-30.07,26.89-41.86,23.1-22.83,57.22-34.73,88.66-20.69,17.89,8,29.54,22.71,40.01,38.28,10.61,15.78,19.78,32.48,27.43,49.78,13.72,31.01,22.63,63.73,29.85,96.7,6.8-1.06,13.6-2.12,20.41-3.15-7.31-33.44-16.33-66.53-29.98-98.16-8.29-19.22-18.09-37.79-29.84-55.26-11.21-16.67-23.71-32.54-41.86-42.63-33.38-18.55-73.63-13.62-103.96,8.14-14.96,10.74-27.48,24.55-36.71,40.18-4.37,7.4-8.01,15.28-10.86,23.34-.59,1.67-3.97,9.88-1.95,6.76-2.95,4.55-4.82,7.48-6.61,12.85-15.2,45.5-17.06,93.43-19.73,140.83Z"/>
            <path class="cls-5" d="M392.44,171.88c4.15-.57,8.3-1.11,12.46-1.62,1.03-18.81,2.54-37.58,5.4-56.21,1.43-9.33,3.2-18.61,5.37-27.8,1.79-7.58,5.14-14.09,6.95-21.58,3.56-14.68,9.59-28.69,18.28-41.24,15.02-21.68,42.04-39,67.39-21.14,13.61,9.59,21.2,25.5,28.27,39.77,7.87,15.89,14.26,32.4,19.64,49.22,6.48,20.25,11.43,40.87,15.55,61.66,6.8-1.01,13.6-2.05,20.41-3.11-4.31-22.11-9.55-44.04-16.52-65.52-5.99-18.44-13.26-36.52-21.98-53.91-8.16-16.27-17.33-32.58-32.56-43.67-26.25-19.1-58.37-13.48-81.45,7.3-12.03,10.83-21.22,24.75-27.8,39.21-3.62,7.96-6.66,16.14-8.82,24.59-2.16,8.44-5.75,16.24-7.75,24.96-6.82,29.72-9.51,59.97-11.14,90.3,2.76-.42,5.53-.83,8.3-1.21Z"/>
            <path class="cls-8" d="M449.62,165.61c-.12-14.08.85-28.15,3.18-42.07,1.75-10.41,4.19-20.73,7.23-30.86,2.59-8.63,5.22-20.85,13.19-26.51,10.71-7.61,15.61,4.96,19.13,12.87,4.39,9.89,8.22,20.04,11.63,30.28,5.48,16.5,9.64,33.33,12.67,50.38,6.84-.67,13.68-1.39,20.51-2.17-4.2-24.78-10.84-49.1-20.15-72.58-7.71-19.45-18.34-48.44-46.02-39.95-24.22,7.43-30.43,37.83-35.22,58.6-4.85,21.02-7.08,42.49-6.79,63.97,6.88-.7,13.76-1.35,20.65-1.96Z"/>
          </g>
          <g>
            <path class="cls-8" d="M-117.14,1212.45c6.92-1.68,13.91-3.15,20.94-4.45,1.91-35.42,3.51-70.99,11.6-105.68,2.25-9.62,4.49-19.87,8.39-29.01.07-.17.12-.28.18-.43.11-.09.29-.31.58-.72.95-1.36,2.07-2.48,2.85-3.97,1.79-3.38,2.44-7.3,3.71-10.87,5.53-15.61,14.96-30.07,26.89-41.86,23.1-22.83,57.22-34.73,88.66-20.69,17.89,8,29.54,22.71,40.01,38.28,10.61,15.78,19.78,32.48,27.43,49.78,13.72,31.01,22.63,63.73,29.85,96.7,6.8-1.06,13.6-2.12,20.41-3.15-7.31-33.44-16.33-66.53-29.98-98.16-8.29-19.22-18.09-37.79-29.84-55.26-11.21-16.67-23.71-32.54-41.86-42.63-33.38-18.55-73.63-13.62-103.96,8.14-14.96,10.74-27.48,24.55-36.71,40.18-4.37,7.4-8.01,15.28-10.86,23.34-.59,1.67-3.97,9.88-1.95,6.76-2.95,4.55-4.82,7.48-6.61,12.85-15.2,45.5-17.06,93.43-19.73,140.83Z"/>
            <path class="cls-7" d="M-72.81,1204.25c4.15-.57,8.3-1.11,12.46-1.62,1.03-18.81,2.54-37.58,5.4-56.21,1.43-9.33,3.2-18.61,5.37-27.8,1.79-7.58,5.14-14.09,6.95-21.58,3.56-14.68,9.59-28.69,18.28-41.24,15.02-21.68,42.04-39,67.39-21.14,13.61,9.59,21.2,25.5,28.27,39.77,7.87,15.89,14.26,32.4,19.64,49.22,6.48,20.25,11.43,40.87,15.55,61.66,6.8-1.01,13.6-2.05,20.41-3.11-4.31-22.11-9.54-44.04-16.52-65.52-5.99-18.44-13.26-36.52-21.98-53.91-8.16-16.27-17.33-32.58-32.56-43.67-26.25-19.1-58.37-13.48-81.45,7.3-12.03,10.83-21.22,24.75-27.8,39.21-3.62,7.96-6.66,16.14-8.82,24.59-2.16,8.44-5.75,16.24-7.75,24.96-6.82,29.72-9.51,59.97-11.14,90.3,2.76-.42,5.53-.83,8.3-1.21Z"/>
            <path class="cls-13" d="M-15.63,1197.98c-.12-14.08.85-28.15,3.18-42.07,1.75-10.41,4.19-20.73,7.23-30.86,2.59-8.63,5.22-20.85,13.19-26.51,10.71-7.61,15.61,4.96,19.13,12.87,4.39,9.89,8.22,20.04,11.63,30.28,5.48,16.5,9.64,33.33,12.67,50.38,6.84-.67,13.68-1.39,20.51-2.17-4.2-24.78-10.84-49.1-20.15-72.58-7.71-19.45-18.34-48.44-46.02-39.95-24.22,7.43-30.43,37.83-35.22,58.6-4.85,21.02-7.08,42.49-6.79,63.97,6.88-.7,13.76-1.35,20.65-1.96Z"/>
          </g>
          <g>
            <circle class="cls-2" cx="620.47" cy="637.04" r="56.68"/>
            <g>
              <path class="cls-9" d="M632.53,622.49c3.47,0,3.47,5.39,0,5.39s-3.47-5.39,0-5.39Z"/>
              <path class="cls-9" d="M611.84,623.2c3.47,0,3.47,5.39,0,5.39s-3.47-5.39,0-5.39Z"/>
              <path class="cls-9" d="M612.44,641.78c1.89,4.25,5.9,7.37,10.68,7.38,4.66,0,9.03-3.14,10.68-7.47,1.22-3.21,6.43-1.82,5.2,1.43-2.43,6.39-8.17,11-15.1,11.4-6.77.39-13.38-3.9-16.11-10.03-1.4-3.14,3.24-5.88,4.65-2.72Z"/>
            </g>
            <path class="cls-2" d="M672.89,581.66c7.55-7.38,15.09-14.76,22.64-22.15,3.58-3.5,8.55,2.47,4.99,5.95-7.55,7.38-15.09,14.76-22.64,22.15-3.58,3.5-8.55-2.47-4.99-5.95Z"/>
            <path class="cls-2" d="M623.14,564.18l3.96-22.65c.86-4.91,8.34-2.83,7.49,2.06l-3.96,22.65c-.86,4.91-8.34,2.83-7.49-2.06Z"/>
            <path class="cls-2" d="M573.19,568.72l-9.38-20.99c-2.03-4.55,5.33-7.01,7.36-2.47l9.38,20.99c2.03,4.55-5.33,7.01-7.36,2.47Z"/>
            <path class="cls-2" d="M533.53,574.69c6.11,6.48,12.69,12.5,19.77,17.91,3.92,2.99.06,9.74-3.92,6.7-7.62-5.82-14.76-12.14-21.34-19.12-3.43-3.63,2.05-9.13,5.49-5.49Z"/>
            <path class="cls-2" d="M514.16,627.99l21.53,2.56c4.9.58,4.96,8.35,0,7.76l-21.53-2.56c-4.9-.58-4.96-8.35,0-7.76Z"/>
            <path class="cls-2" d="M525.47,682.54c7.96-3.5,16.08-6.53,24.41-9.03,4.8-1.44,6.85,6.06,2.06,7.49-7.68,2.3-15.21,5.02-22.55,8.24-4.53,1.99-8.49-4.7-3.92-6.7Z"/>
            <path class="cls-2" d="M572.86,732.35c5.78-9.97,11.56-19.94,17.33-29.9,2.5-4.32,9.22-.42,6.7,3.92-5.78,9.97-11.56,19.94-17.33,29.9-2.5,4.32-9.22.42-6.7-3.92Z"/>
            <path class="cls-2" d="M637.99,715.34l6.13,28.8c1.04,4.87-6.45,6.96-7.49,2.06l-6.13-28.8c-1.04-4.87,6.45-6.96,7.49-2.06Z"/>
            <path class="cls-2" d="M673.02,697.19c4.44,5.15,8.89,10.3,13.33,15.45,3.25,3.77-2.22,9.28-5.49,5.49-4.44-5.15-8.89-10.3-13.33-15.45-3.25-3.77,2.22-9.28,5.49-5.49Z"/>
            <path class="cls-2" d="M697.8,661.75c9.39,1.1,18.63,2.89,27.72,5.5,4.79,1.38,2.76,8.87-2.06,7.49-8.41-2.41-16.97-4.2-25.66-5.23-4.9-.58-4.96-8.35,0-7.76Z"/>
            <path class="cls-2" d="M696.1,624.52c9.76-1.38,19.35-3.48,28.79-6.32,4.8-1.44,6.84,6.05,2.06,7.49-9.43,2.84-19.03,4.95-28.79,6.32-4.89.69-7-6.79-2.06-7.49Z"/>
          </g>
          <g>
            <path class="cls-5" d="M932.21,856.6c6.92-1.68,13.91-3.15,20.94-4.45,1.91-35.42,3.51-70.99,11.61-105.68,2.25-9.62,4.49-19.87,8.39-29.01.07-.17.12-.28.18-.43.11-.09.29-.31.58-.72.95-1.36,2.07-2.48,2.85-3.97,1.79-3.38,2.44-7.3,3.71-10.87,5.53-15.61,14.96-30.07,26.89-41.86,23.1-22.83,57.22-34.73,88.66-20.69,17.89,8,29.54,22.71,40.01,38.28,10.61,15.78,19.78,32.48,27.43,49.78,13.72,31.01,22.63,63.73,29.85,96.7,6.8-1.06,13.6-2.12,20.41-3.15-7.31-33.44-16.33-66.53-29.98-98.16-8.29-19.22-18.09-37.79-29.84-55.26-11.21-16.67-23.71-32.54-41.86-42.63-33.38-18.55-73.63-13.62-103.96,8.14-14.96,10.74-27.48,24.55-36.71,40.18-4.37,7.4-8.01,15.28-10.86,23.34-.59,1.67-3.97,9.88-1.95,6.76-2.95,4.55-4.82,7.48-6.61,12.85-15.2,45.5-17.06,93.43-19.73,140.83Z"/>
            <path class="cls-8" d="M976.54,848.4c4.15-.57,8.3-1.11,12.46-1.62,1.03-18.81,2.54-37.58,5.4-56.21,1.43-9.33,3.2-18.61,5.37-27.8,1.79-7.58,5.14-14.09,6.95-21.58,3.56-14.68,9.59-28.69,18.28-41.24,15.02-21.68,42.04-39,67.39-21.14,13.61,9.59,21.2,25.5,28.27,39.77,7.87,15.89,14.26,32.4,19.64,49.22,6.48,20.25,11.43,40.87,15.55,61.66,6.8-1.01,13.6-2.05,20.41-3.11-4.31-22.11-9.55-44.04-16.52-65.52-5.99-18.44-13.26-36.52-21.98-53.91-8.16-16.27-17.33-32.58-32.56-43.67-26.25-19.1-58.37-13.48-81.45,7.3-12.03,10.83-21.22,24.75-27.8,39.21-3.62,7.96-6.66,16.14-8.82,24.59-2.16,8.44-5.75,16.24-7.75,24.96-6.82,29.72-9.51,59.97-11.14,90.3,2.76-.42,5.53-.83,8.3-1.21Z"/>
            <path class="cls-3" d="M1033.72,842.13c-.12-14.08.85-28.15,3.18-42.07,1.75-10.41,4.19-20.73,7.23-30.86,2.59-8.63,5.22-20.85,13.19-26.51,10.71-7.61,15.61,4.96,19.13,12.87,4.39,9.89,8.22,20.04,11.63,30.28,5.48,16.5,9.64,33.33,12.67,50.38,6.84-.67,13.68-1.39,20.51-2.17-4.2-24.78-10.84-49.1-20.15-72.58-7.71-19.45-18.34-48.44-46.02-39.95-24.22,7.43-30.43,37.83-35.22,58.6-4.85,21.02-7.08,42.49-6.79,63.97,6.88-.7,13.76-1.35,20.65-1.96Z"/>
          </g>
          <path class="cls-6" d="M44.77,586.87c11.76-13.49,33.58-14.63,47.94-4.84,3.54-17.64,22.87-29.47,40.3-31.65,11.4-1.42,23.11,1.08,32.11,8.44,6.51,5.33,11.08,12.95,12.36,21.2,10.31-4.27,21.99-5.61,32.69-2.01,18.99,6.4,31.89,30.26,19.74,48.35-11.09,16.51-30.64,17.91-47.85,12.39-.91,5.46-3.55,11-5.96,15.35-5.29,9.53-13.15,18.09-23.26,22.51-15.19,6.64-35,1.08-42.48-13.27-4.56,6.27-10.2,11.7-16.69,16.03-8.68,5.78-19.92,10.53-30.47,7.71-9.39-2.51-16.64-10.71-19.36-19.86-2.93-9.89-.6-20.44,4.21-29.34-13.87-12.94-16.11-36.31-3.28-51.02Z"/>
          <path class="cls-6" d="M987.85,526.82c-24.85,18.31-55.06,6.95-76.94-10.3-5.39,18.3-24.17,32.1-43.74,28.97-17.87-2.86-30.94-19.01-32.56-36.39-8.49,3.76-18.98,3.08-26.98-1.83-12.14-7.45-16.66-22.7-14.47-36.18,2.32-14.28,13.74-27.99,29.35-26.07,3.85.48,7.5,1.64,10.88,3.34,3.73-13.03,9.17-28.59,23.18-33.44,7.7-2.67,16.9-1.53,22.98,3.47,1.96-7.69,1.7-16.17,6.5-22.96,5.36-7.57,14.62-10.61,23.61-9.72,19.61,1.93,29.14,18.49,35.24,35.3,4.44-4.09,10.3-6.53,16.69-6.83,10.98-.51,21.55,5.56,28.91,13.31,7.25,7.64,12.55,18.36,10.34,29.11-1.21,5.91-4.54,11.03-9.15,14.4,6.36,5.42,10.31,13.41,11.38,22.03,1.67,13.48-4.4,25.82-15.23,33.8Z"/>
          <path class="cls-6" d="M771.26,1008.23c16.78-20,43.88-16.68,65.3-6.85.79-16.12,13.47-31.2,30.19-32.52,15.26-1.2,29.21,9.46,34.01,23.43,6.23-4.78,14.99-6.31,22.54-3.86,11.46,3.71,18.21,15.35,19.09,26.86.93,12.2-5.73,25.75-18.93,27.27-3.26.38-6.5.14-9.61-.58-.47,11.46-1.85,25.33-12.39,32.1-5.79,3.72-13.59,4.62-19.58,1.72-.08,6.71,1.83,13.63-.78,20.17-2.9,7.29-9.9,11.63-17.48,12.69-16.51,2.32-27.64-9.39-36-22-2.84,4.24-7.16,7.42-12.36,8.94-8.92,2.61-18.82-.28-26.41-5.19-7.48-4.84-13.97-12.59-14.3-21.87-.18-5.1,1.53-9.97,4.65-13.66-6.31-3.19-11.14-8.97-13.74-15.84-4.05-10.75-1.52-22.1,5.79-30.81Z"/>
          <path class="cls-6" d="M236.59,191.12c-17.08,12.29-42.39,7.74-56.2-7.33-8.8,19.25-34.11,27.61-54.65,25.43-13.44-1.43-26.18-7.44-34.51-18.28-6.03-7.85-9.21-17.81-8.46-27.6-12.96,2.12-26.69.53-37.98-6.48-20.03-12.43-28.4-43.22-9.63-60.67,17.14-15.93,39.9-12.28,58.13-1.34,2.51-6.01,7.02-11.65,10.95-15.98,8.62-9.49,19.92-17.19,32.69-19.54,19.18-3.53,40.37,8.16,45.09,26.61,6.91-5.95,14.82-10.67,23.42-13.87,11.49-4.29,25.65-6.71,36.96-.66,10.08,5.39,16.18,16.74,16.84,27.94.7,12.11-4.8,23.57-12.7,32.47,12.41,18.55,8.7,45.9-9.94,59.31Z"/>
          <g>
            <circle class="cls-2" cx="54.53" cy="170.64" r="56.68"/>
            <g>
              <path class="cls-9" d="M42.47,156.09c-3.47,0-3.47,5.39,0,5.39s3.47-5.39,0-5.39Z"/>
              <path class="cls-9" d="M63.16,156.81c-3.47,0-3.47,5.39,0,5.39s3.47-5.39,0-5.39Z"/>
              <path class="cls-9" d="M62.56,175.39c-1.89,4.25-5.9,7.37-10.68,7.38-4.66,0-9.03-3.14-10.68-7.47-1.22-3.21-6.43-1.82-5.2,1.43,2.43,6.39,8.17,11,15.1,11.4,6.77.39,13.38-3.9,16.11-10.03,1.4-3.14-3.24-5.88-4.65-2.72Z"/>
            </g>
            <path class="cls-2" d="M2.11,115.27c-7.55-7.38-15.09-14.76-22.64-22.15-3.58-3.5-8.55,2.47-4.99,5.95,7.55,7.38,15.09,14.76,22.64,22.15,3.58,3.5,8.55-2.47,4.99-5.95Z"/>
            <path class="cls-2" d="M51.86,97.78l-3.96-22.65c-.86-4.91-8.34-2.83-7.49,2.06l3.96,22.65c.86,4.91,8.34,2.83,7.49-2.06Z"/>
            <path class="cls-2" d="M101.81,102.33l9.38-20.99c2.03-4.55-5.33-7.01-7.36-2.47l-9.38,20.99c-2.03,4.55,5.33,7.01,7.36,2.47Z"/>
            <path class="cls-2" d="M141.47,108.3c-6.11,6.48-12.69,12.5-19.77,17.91-3.92,2.99-.06,9.74,3.92,6.7,7.62-5.82,14.76-12.14,21.34-19.12,3.43-3.63-2.05-9.13-5.49-5.49Z"/>
            <path class="cls-2" d="M160.83,161.59l-21.53,2.56c-4.9.58-4.96,8.35,0,7.76l21.53-2.56c4.9-.58,4.96-8.35,0-7.76Z"/>
            <path class="cls-2" d="M149.52,216.15c-7.96-3.5-16.08-6.53-24.41-9.03-4.8-1.44-6.85,6.06-2.06,7.49,7.68,2.3,15.21,5.02,22.55,8.24,4.53,1.99,8.49-4.7,3.92-6.7Z"/>
            <path class="cls-2" d="M102.14,265.95c-5.78-9.97-11.56-19.94-17.33-29.9-2.5-4.32-9.22-.42-6.7,3.92,5.78,9.97,11.56,19.94,17.33,29.9,2.5,4.32,9.22.42,6.7-3.92Z"/>
            <path class="cls-2" d="M37,248.95l-6.13,28.8c-1.04,4.87,6.45,6.96,7.49,2.06l6.13-28.8c1.04-4.87-6.45-6.96-7.49-2.06Z"/>
            <path class="cls-2" d="M1.98,230.8c-4.44,5.15-8.89,10.3-13.33,15.45-3.25,3.77,2.22,9.28,5.49,5.49,4.44-5.15,8.89-10.3,13.33-15.45,3.25-3.77-2.22-9.28-5.49-5.49Z"/>
            <path class="cls-2" d="M-22.81,195.35c-9.39,1.1-18.63,2.89-27.72,5.5-4.79,1.38-2.76,8.87,2.06,7.49,8.41-2.41,16.97-4.2,25.66-5.23,4.9-.58,4.96-8.35,0-7.76Z"/>
            <path class="cls-2" d="M-21.11,158.13c-9.76-1.38-19.35-3.48-28.79-6.32-4.8-1.44-6.84,6.05-2.06,7.49,9.43,2.84,19.03,4.95,28.79,6.32,4.89.69,7-6.79,2.06-7.49Z"/>
          </g>
        </g>
        <path class="cls-5" d="M-267.79,856.6c6.92-1.68,13.91-3.15,20.94-4.45,1.91-35.42,3.51-70.99,11.61-105.68,2.25-9.62,4.49-19.87,8.39-29.01.07-.17.12-.28.18-.43.11-.09.29-.31.58-.72.95-1.36,2.07-2.48,2.85-3.97,1.79-3.38,2.44-7.3,3.71-10.87,5.53-15.61,14.96-30.07,26.89-41.86,23.1-22.83,57.22-34.73,88.66-20.69,17.89,8,29.54,22.71,40.01,38.28,10.61,15.78,19.78,32.48,27.43,49.78,13.72,31.01,22.63,63.73,29.85,96.7,6.8-1.06,13.6-2.12,20.41-3.15-7.31-33.44-16.33-66.53-29.98-98.16-8.29-19.22-18.09-37.79-29.84-55.26-11.21-16.67-23.71-32.54-41.86-42.63-33.38-18.55-73.63-13.62-103.96,8.14-14.96,10.74-27.48,24.55-36.71,40.18-4.37,7.4-8.01,15.28-10.86,23.34-.59,1.67-3.97,9.88-1.95,6.76-2.95,4.55-4.82,7.48-6.61,12.85-15.2,45.5-17.06,93.43-19.73,140.83Z"/>
        <g>
          <path class="cls-8" d="M1082.86,12.45c6.92-1.68,13.91-3.15,20.94-4.45,1.91-35.42,3.51-70.99,11.6-105.68,2.25-9.62,4.49-19.87,8.39-29.01.07-.17.12-.28.18-.43.11-.09.29-.31.58-.72.95-1.36,2.07-2.48,2.85-3.97,1.79-3.38,2.44-7.3,3.71-10.87,5.53-15.61,14.96-30.07,26.89-41.86,23.1-22.83,57.22-34.73,88.66-20.69,17.89,8,29.54,22.71,40.01,38.28,10.61,15.78,19.78,32.48,27.43,49.78,13.72,31.01,22.63,63.73,29.85,96.7,6.8-1.06,13.6-2.12,20.41-3.15-7.31-33.44-16.33-66.53-29.98-98.16-8.29-19.22-18.09-37.79-29.84-55.26-11.21-16.67-23.71-32.54-41.86-42.63-33.38-18.55-73.63-13.62-103.96,8.14-14.96,10.74-27.48,24.55-36.71,40.18-4.37,7.4-8.01,15.28-10.86,23.34-.59,1.67-3.97,9.88-1.95,6.76-2.95,4.55-4.82,7.48-6.61,12.85-15.2,45.5-17.06,93.43-19.73,140.83Z"/>
          <path class="cls-7" d="M1127.19,4.25c4.15-.57,8.3-1.11,12.46-1.62,1.03-18.81,2.54-37.58,5.4-56.21,1.43-9.33,3.2-18.61,5.37-27.8,1.79-7.58,5.14-14.09,6.95-21.58,3.56-14.68,9.59-28.69,18.28-41.24,15.02-21.68,42.04-39,67.39-21.14,13.61,9.59,21.2,25.5,28.27,39.77,7.87,15.89,14.26,32.4,19.64,49.22,6.48,20.25,11.43,40.87,15.55,61.66,6.8-1.01,13.6-2.05,20.41-3.11-4.31-22.11-9.55-44.04-16.52-65.52-5.99-18.44-13.26-36.52-21.98-53.91-8.16-16.27-17.33-32.58-32.56-43.67-26.25-19.1-58.37-13.48-81.45,7.3-12.03,10.83-21.22,24.75-27.8,39.21-3.62,7.96-6.66,16.14-8.82,24.59-2.16,8.44-5.75,16.24-7.75,24.96-6.82,29.72-9.51,59.97-11.14,90.3,2.76-.42,5.53-.83,8.3-1.21Z"/>
        </g>
        <g>
          <path class="cls-8" d="M-117.14,12.45c6.92-1.68,13.91-3.15,20.94-4.45,1.91-35.42,3.51-70.99,11.6-105.68,2.25-9.62,4.49-19.87,8.39-29.01.07-.17.12-.28.18-.43.11-.09.29-.31.58-.72.95-1.36,2.07-2.48,2.85-3.97,1.79-3.38,2.44-7.3,3.71-10.87,5.53-15.61,14.96-30.07,26.89-41.86,23.1-22.83,57.22-34.73,88.66-20.69,17.89,8,29.54,22.71,40.01,38.28,10.61,15.78,19.78,32.48,27.43,49.78,13.72,31.01,22.63,63.73,29.85,96.7,6.8-1.06,13.6-2.12,20.41-3.15-7.31-33.44-16.33-66.53-29.98-98.16-8.29-19.22-18.09-37.79-29.84-55.26-11.21-16.67-23.71-32.54-41.86-42.63-33.38-18.55-73.63-13.62-103.96,8.14-14.96,10.74-27.48,24.55-36.71,40.18-4.37,7.4-8.01,15.28-10.86,23.34-.59,1.67-3.97,9.88-1.95,6.76-2.95,4.55-4.82,7.48-6.61,12.85-15.2,45.5-17.06,93.43-19.73,140.83Z"/>
          <path class="cls-7" d="M-72.81,4.25c4.15-.57,8.3-1.11,12.46-1.62,1.03-18.81,2.54-37.58,5.4-56.21,1.43-9.33,3.2-18.61,5.37-27.8,1.79-7.58,5.14-14.09,6.95-21.58,3.56-14.68,9.59-28.69,18.28-41.24,15.02-21.68,42.04-39,67.39-21.14,13.61,9.59,21.2,25.5,28.27,39.77,7.87,15.89,14.26,32.4,19.64,49.22,6.48,20.25,11.43,40.87,15.55,61.66,6.8-1.01,13.6-2.05,20.41-3.11-4.31-22.11-9.54-44.04-16.52-65.52-5.99-18.44-13.26-36.52-21.98-53.91-8.16-16.27-17.33-32.58-32.56-43.67-26.25-19.1-58.37-13.48-81.45,7.3-12.03,10.83-21.22,24.75-27.8,39.21-3.62,7.96-6.66,16.14-8.82,24.59-2.16,8.44-5.75,16.24-7.75,24.96-6.82,29.72-9.51,59.97-11.14,90.3,2.76-.42,5.53-.83,8.3-1.21Z"/>
        </g>
      </g>
    </pattern>
  </defs>
  <g id="Layer_4" data-name="Layer 4">
    <g>
      <rect class="cls-10" width="357.03" height="357.03"/>
      <rect class="cls-4" width="357.03" height="357.03"/>
    </g>
  </g>
</svg>