<?xml version="1.0" encoding="UTF-8"?>
<svg id="Layer_2" data-name="Layer 2" xmlns="http://www.w3.org/2000/svg" xmlns:xlink="http://www.w3.org/1999/xlink" viewBox="0 0 357.03 357.03">
  <defs>
    <style>
      .cls-1 {
        fill: none;
      }

      .cls-2 {
        fill: #b4b6da;
      }

      .cls-3 {
        fill: url(#New_Pattern_4);
      }

      .cls-4 {
        fill: #facee2;
      }

      .cls-5 {
        fill: #b9d5ea;
      }

      .cls-6 {
        fill: #cd9eca;
      }

      .cls-7 {
        fill: #ff7d9a;
      }

      .cls-8 {
        fill: #ffaeae;
      }

      .cls-9 {
        fill: #a8d6d0;
      }

      .cls-10 {
        fill: #ffe280;
      }

      .cls-11 {
        fill: #f9a77a;
      }

      .cls-12 {
        fill: #f9f7f6;
      }

      .cls-13 {
        fill: #ffd4cb;
      }
    </style>
    <pattern id="New_Pattern_4" data-name="New Pattern 4" x="0" y="0" width="1200" height="1200" patternTransform="translate(-2499.22 -2856.25) scale(.3)" patternUnits="userSpaceOnUse" viewBox="0 0 1200 1200">
      <g>
        <rect class="cls-1" x="0" width="1200" height="1200"/>
        <polygon class="cls-4" points="811.63 1249.17 789.7 1290.55 648.51 1215.72 670.44 1174.34 811.63 1249.17"/>
        <polygon class="cls-11" points="1344.86 913.59 1331.59 958.5 1178.34 913.22 1191.61 868.31 1344.86 913.59"/>
        <g>
          <polygon class="cls-9" points="270.74 48.67 301.03 12.94 422.92 116.26 392.64 151.99 270.74 48.67"/>
          <polygon class="cls-9" points="880.26 1091.71 925.35 1079.04 968.6 1232.87 923.51 1245.55 880.26 1091.71"/>
          <polygon class="cls-11" points="78.85 390.89 55.1 350.52 192.84 269.5 216.58 309.87 78.85 390.89"/>
          <polygon class="cls-5" points="521.04 764.19 565.01 748.04 620.12 898.03 576.16 914.18 521.04 764.19"/>
          <polygon class="cls-10" points="155.13 1071.96 167.8 1117.05 13.97 1160.3 1.3 1115.21 155.13 1071.96"/>
          <polygon class="cls-6" points="131.23 7.87 177.41 15.67 150.8 173.24 104.61 165.44 131.23 7.87"/>
          <polygon class="cls-11" points="708.88 266.34 739.16 230.61 861.06 333.93 830.77 369.66 708.88 266.34"/>
          <polygon class="cls-9" points="919.86 438.53 964.77 451.8 919.49 605.05 874.58 591.77 919.86 438.53"/>
          <polygon class="cls-13" points="1054.98 347.67 1031.23 307.3 1168.96 226.27 1192.71 266.64 1054.98 347.67"/>
          <polygon class="cls-4" points="539.93 490.75 522.94 447.1 671.85 389.14 688.84 432.79 539.93 490.75"/>
          <polygon class="cls-7" points="1017.78 160.88 1015.43 207.66 855.84 199.65 858.19 152.87 1017.78 160.88"/>
          <polygon class="cls-10" points="646.79 215.13 601.17 225.73 564.99 70.09 610.61 59.48 646.79 215.13"/>
          <polygon class="cls-4" points="811.63 49.17 789.7 90.55 648.51 15.72 670.44 -25.66 811.63 49.17"/>
          <polygon class="cls-6" points="408.39 369.62 365.37 351.12 428.48 204.32 471.51 222.82 408.39 369.62"/>
          <polygon class="cls-2" points="784.97 643.68 761.55 684.24 623.16 604.34 646.58 563.78 784.97 643.68"/>
          <polygon class="cls-9" points="419.89 777 386.77 810.12 273.78 697.13 306.9 664.01 419.89 777"/>
          <polygon class="cls-4" points="261.72 1017.12 217.67 1001.19 272.02 850.92 316.07 866.85 261.72 1017.12"/>
          <polygon class="cls-5" points="1055.46 77.31 1071.39 33.27 1221.66 87.62 1205.73 131.66 1055.46 77.31"/>
          <polygon class="cls-4" points="1173.1 705.39 1154.64 748.43 1007.78 685.45 1026.24 642.41 1173.1 705.39"/>
          <polygon class="cls-2" points="1213.87 579.27 1173.31 602.69 1093.41 464.3 1133.98 440.88 1213.87 579.27"/>
          <polygon class="cls-7" points="63.5 622.9 109.12 612.3 145.3 767.94 99.68 778.55 63.5 622.9"/>
          <polygon class="cls-8" points="415.74 967.16 458 987.35 389.09 1131.53 346.83 1111.33 415.74 967.16"/>
          <polygon class="cls-6" points="633.55 1014.75 652.99 1057.36 507.62 1123.69 488.17 1081.08 633.55 1014.75"/>
          <polygon class="cls-11" points="144.86 913.59 131.59 958.5 -21.66 913.22 -8.39 868.31 144.86 913.59"/>
          <polygon class="cls-11" points="335.56 574.6 344.38 528.6 501.32 558.68 492.5 604.68 335.56 574.6"/>
          <polygon class="cls-13" points="220.18 402.72 266.75 407.77 249.51 566.64 202.95 561.59 220.18 402.72"/>
          <polygon class="cls-10" points="924.17 953.25 934.78 998.87 779.14 1035.06 768.53 989.44 924.17 953.25"/>
          <polygon class="cls-8" points="805.49 851.73 767.84 823.87 862.89 695.42 900.54 723.28 805.49 851.73"/>
          <polygon class="cls-7" points="1129.83 996.98 1091.27 1023.58 1000.55 892.03 1039.1 865.44 1129.83 996.98"/>
        </g>
        <g>
          <polygon class="cls-5" points="-144.54 77.31 -128.61 33.27 21.66 87.62 5.73 131.66 -144.54 77.31"/>
          <polygon class="cls-2" points="13.87 579.27 -26.69 602.69 -106.59 464.3 -66.02 440.88 13.87 579.27"/>
        </g>
        <polygon class="cls-9" points="880.26 -108.29 925.35 -120.96 968.6 32.87 923.51 45.55 880.26 -108.29"/>
      </g>
    </pattern>
  </defs>
  <g id="Layer_10" data-name="Layer 10">
    <g>
      <rect class="cls-12" width="357.03" height="357.03"/>
      <rect class="cls-3" width="357.03" height="357.03"/>
    </g>
  </g>
</svg>