<?xml version="1.0" encoding="UTF-8"?>
<svg id="Layer_2" data-name="Layer 2" xmlns="http://www.w3.org/2000/svg" viewBox="0 0 231.68 297.65">
  <defs>
    <style>
      .cls-1 {
        fill: #c8d6da;
      }

      .cls-2 {
        fill: #eeebe7;
      }
    </style>
  </defs>
  <g id="Seamless_Floral_Pattern_8" data-name="Seamless Floral Pattern 8">
    <path class="cls-1" d="M5.75,3.62C2.85,2.75,1.15,1.49,0,0h4.7c.25,1.28.53,2.63,1.05,3.62Z"/>
    <g>
      <rect class="cls-2" x="63.3" width="168.38" height="297.65" transform="translate(294.98 297.65) rotate(180)"/>
      <g>
        <path class="cls-1" d="M88.18,62.22c-3.38,3.33-3.29,9.3.44,12.37,3.74,3.09,9.94,1.85,12.73-1.89,2.99-4.01,2.42-9.65-.08-13.74-3.1-5.07-9.16-7.91-15.03-7.37-6.01.56-11.58,4.59-14.38,9.88-2.23,4.22-2.84,9.31-1.8,13.96,1.02,4.59,3.6,9.22,6.66,12.75,3.11,3.58,7.16,6.04,11.68,7.43,6.59,2.03,14.06,2.22,20.58-.19,5.75-2.13,9.53-6.98,13.88-11.02.8-.75,1.56-.02.74.74-4.31,4.01-8.1,8.79-13.65,11.18-6.35,2.74-13.7,2.93-20.37,1.35-5.23-1.24-10.08-3.71-13.73-7.71-1.88-2.06-3.41-4.42-4.67-6.9-1.21-2.37-2.28-4.84-2.74-7.47-.91-5.2.01-10.68,2.77-15.2,3.31-5.44,9.17-9.57,15.57-10.24,6.31-.66,12.78,2.44,16.01,7.93,2.69,4.57,2.86,10.48-.29,14.88-2.93,4.09-8.78,6.2-13.5,4-4.53-2.11-5.8-7.94-3.84-12.25.55-1.21,1.35-2.28,2.29-3.2.79-.77,1.53-.05.74.74h0Z"/>
        <path class="cls-1" d="M206.91,99.09c-5.45,1.6-9.35,6.46-10.17,12.03-.89,6.1,2.61,12.95,9.14,14.02,5.09.83,10.18-4.93,8.47-9.88-.42-1.21-1.24-2.15-2.26-2.89-.33-.24.81-.43.88-.44.48-.05,1.15-.07,1.56.23,4.24,3.09,2.89,8.98-.96,11.78-4.42,3.2-11.06,2.44-15.13-.97-4.7-3.95-5.45-10.62-2.99-16.02,2.25-4.95,6.93-8.11,12.25-8.86,5.93-.83,12.36.87,16.95,4.76,3.17,2.69,5.34,6.28,7.03,10.08v6.7c-1.93-5.37-3.87-10.81-7.87-15.05-4.14-4.39-10.9-7.23-16.89-5.47Z"/>
        <g>
          <path class="cls-1" d="M96.7,16.85c9.08,2.55,17.22,7.73,23.32,14.95,2.75,3.26,5,6.91,6.61,10.87,1.59,3.92,2.4,7.99,3.17,12.14,1.53,8.27,3.17,17.37,8.23,24.34,5.15,7.08,14.73,10.66,23.25,8.83,4.08-.88,8.01-2.73,11.21-5.42,3.61-3.02,5.76-6.93,6.92-11.45,1.13-4.43,1.13-9.18-.61-13.46-1.57-3.86-4.43-7.46-7.97-9.7-3.64-2.31-8.16-3.33-12.44-2.96-4.11.35-7.69,2.3-10.42,5.39-2.94,3.33-4.41,7.97-3.93,12.39.48,4.51,3.24,9.34,7.45,11.34,4.08,1.93,9.15,1.87,12.69-1.11.65-.55,2.48-.02,1.54.78-3.56,3-8.44,3.61-12.86,2.42-4.45-1.21-7.84-4.43-9.64-8.65-3.63-8.54.91-18.71,9.25-22.44,7.77-3.47,17.78-1.05,23.57,4.97,2.94,3.06,5.07,6.84,5.84,11.04.89,4.84,0,10.02-1.95,14.5-3.42,7.9-11.94,12.88-20.23,14.01-8.74,1.19-18.21-2.61-23.48-9.73-5.44-7.35-7.06-17.18-8.66-25.94-.81-4.42-1.85-8.72-3.78-12.8-2.06-4.34-4.93-8.24-8.37-11.6-3.71-3.62-7.98-6.76-12.71-8.92-4.36-1.99-9.05-3.26-13.77-3.98-8.14-1.23-17.3-1.26-25.08,1.8-.19.07-.37.16-.55.23v-1.41c2.52-.95,5.15-1.66,7.88-2.07,8.43-1.27,17.32-.64,25.53,1.66Z"/>
          <path class="cls-1" d="M68.53,94.58c5.33.49,10.71-.03,15.96-.91,4.82-.8,9.51-1.35,14.4-.81,8.62.95,17.07,4.69,22.49,11.64,6.19,7.94,7.48,19.16,3.69,28.42-3.73,9.11-12.15,15.26-21.8,16.84-8.76,1.43-19.93-1.58-23.45-10.63-3.22-8.3,2.78-18.44,11.78-19.13,3.93-.3,8.14.83,10.69,3.97.58.71-1.37,1.24-1.91.58-2.56-3.14-7.6-4.02-11.31-2.68-4.17,1.51-7.21,5.74-7.97,10.01-.81,4.53.99,8.97,4.34,12.03,3.46,3.16,8.05,4.67,12.67,4.85,9.7.38,19.35-5.08,23.88-13.66,4.61-8.73,4.17-19.78-1.17-28.09-4.68-7.29-12.86-11.51-21.29-12.68-4.51-.62-9.01-.38-13.48.42-5.03.9-10.16,1.49-15.28,1.33-2.48-.08-5-.4-7.49-.92v-1.47c1.72.42,3.47.73,5.23.89Z"/>
        </g>
        <path class="cls-1" d="M135.35,98.65c3.56,1.1,5.86,4.19,5.84,7.93-.02,3.66-2.02,7.2-5.37,8.77-3.64,1.71-8.07,1.08-11.58-.63-4.22-2.05-7.11-5.83-8.13-10.4-2.17-9.78,3.87-21.12,13.09-24.99,4.36-1.83,9.47-2.37,14.09-1.3,4.89,1.13,9.17,4.01,12.49,7.72,7.21,8.07,6.38,20.72,15.22,27.62,1,.78-.63.98-1.23.51-3.29-2.57-5.56-5.96-7.17-9.78-1.57-3.73-2.59-7.66-4.2-11.37-3.63-8.39-11.59-14.86-21.09-13.96-4.57.43-8.78,2.12-12.17,5.24-3.39,3.12-5.93,7.25-7,11.74-1.11,4.62-.78,9.85,1.9,13.9,2.2,3.31,6.1,5.42,10.07,5.5,4.12.08,7.64-2.34,8.83-6.31,1.09-3.61-.02-8-3.94-9.2-1.13-.35-.75-1.33.36-.98h0Z"/>
        <path class="cls-1" d="M169.05,23.09c5.28-3.23,12.39-2.02,16.66,2.36,3.73,3.82,4.55,9.91,2.79,14.84-2.21,6.19-8.98,10.74-15.44,11.16-6.22.41-12.31-2.25-16.53-6.76-2.27-2.43-4.1-5.37-4.95-8.6-.72-2.72-.58-5.68-.17-8.44.96-6.36,4.16-12.68,9.43-16.52,5.09-3.71,11.77-5.32,18-5.31,5.78,0,11.06,1.84,15.77,5.13,9.95,6.96,14.91,18.59,13.45,30.6-.22,1.83-.75,3.63-1.19,5.42-.21.87-2.08.94-1.82-.11,1.5-6.11,1.56-12.47-.36-18.51-1.53-4.81-4.25-9.28-7.78-12.8-3.11-3.1-6.97-5.82-11.17-7.23-5.45-1.82-11.71-1.34-17.07.54-5.56,1.95-9.86,5.79-12.42,11.12-2.25,4.69-3.5,10.7-2.14,15.82,1.51,5.7,6.41,11.15,12,13.09,2.42.84,5.04,1.38,7.61,1.07,3.26-.39,6.25-2.19,8.65-4.36,4.4-3.97,5.72-10.72,3.31-16.13-2.35-5.27-9.43-8.87-14.73-5.62-.48.3-1.26.47-1.79.19-.43-.23-.6-.68-.1-.98h0Z"/>
        <path class="cls-1" d="M104.59,21.49c-8.09-3.68-18.1-4.73-25.87.37-6.88,4.51-11.05,13.48-9.7,21.66,1.3,7.89,8.42,14.46,16.62,13.81,3.82-.3,7.23-2.21,9.67-5.14,1.98-2.38,3.57-5.56,3.56-8.72-.01-4.29-2.64-8.09-6.93-9.04-4.19-.93-9.3,3-7.64,7.54.29.78-1.34,1.6-1.62.85-1.44-3.93,1.48-7.8,5.04-9.27,3.91-1.61,8.57-.06,11,3.34,4.88,6.83-.55,16.28-6.94,19.84-7.65,4.26-17.27,1.33-21.9-5.91-5.35-8.39-2.53-20.14,4.28-26.87,3.73-3.68,8.6-6.1,13.81-6.72,5.98-.72,12.21.67,17.65,3.15.91.41-.35,1.42-1.05,1.11h0Z"/>
        <g>
          <path class="cls-1" d="M214.77,65.33c.01-3.48,2.14-7.1,5.44-8.44,2.9-1.17,6.69-.16,7.4,3.17.11.5-1.67,1.71-1.74,1.37-.53-2.5-3.03-3.65-5.42-3.38-1.58.18-2.49.87-3.16,2.31-.63,1.37-.86,2.93-.73,4.43.58,6.6,8.37,9.33,14.02,7.79.38-.1.75-.23,1.11-.38v.96c-.24.13-.48.26-.73.37-6.32,2.8-16.21-.14-16.17-8.19Z"/>
          <path class="cls-1" d="M224.25,45.9c-3.46-.52-7.2-.23-10.45,1.1-3.5,1.43-7.1,4.01-8.42,7.7-.16.44-.71.89-1.1,1.13-.17.1-.73.44-.57-.01,1.23-3.42,4.26-6.17,7.2-8.13,3.24-2.16,6.87-3.41,10.76-3.58,3.48-.15,6.99.49,10,2.24v2.64c-2.21-1.6-4.8-2.69-7.43-3.08Z"/>
        </g>
        <path class="cls-1" d="M156.55,122.59c3.25-2.75,8.01-1.04,9.08,3.07,1.12,4.29-.8,8.69-4.72,10.75-3.41,1.79-7.77,1.16-11.06-.63-4.02-2.19-6.5-6.47-6.52-11.04-.02-4.85,2.47-9.48,6.35-12.33,3.57-2.62,8.24-3.49,12.59-3.02,4.66.5,8.81,2.72,11.93,6.2,3.35,3.74,4.92,8.01,5.08,13.01.36,11.03-3.5,22.01-8.75,31.59-.7,1.28-1.93.66-1.22-.63,2.09-3.81,3.82-7.83,5.24-11.93,1.3-3.75,2.45-7.63,2.89-11.59.44-3.93.52-8.41-.73-12.2-1.25-3.77-4.17-7.26-7.46-9.44-6.49-4.3-17.02-4.11-21.97,2.51-2.45,3.28-2.95,7.63-1.31,11.38,1.6,3.67,5.17,6.14,9.07,6.79,3.46.58,8.12-.41,9.08-4.37.5-2.05.04-4.47-1.53-5.95-1.49-1.4-3.86-1.89-5.52-.49-1.2,1.02-1.29-.98-.51-1.64h0Z"/>
        <path class="cls-1" d="M192.77,84.95c1.1,2.63,4.68,2.62,6.88,1.55,2.31-1.13,3.66-3.58,3.81-6.1.36-5.91-5.62-10.38-11.19-9.82-5.62.57-9.81,5.65-10.64,11-.72,4.68.81,10.52,4.33,13.81,4.98,4.66,12.64,5.31,18.83,3.38.82-.25,2.08.27.98.65-6.83,2.35-14.23,2.06-20.1-2.4-4.75-3.6-7.13-10.6-6.11-16.41,1.16-6.57,6.75-12.03,13.67-11.67,6.35.34,13.21,5.91,12.28,12.76-.48,3.53-3.01,6.32-6.55,6.94-3.22.57-6.95-.82-8.27-3.96-.21-.51.42-.69.79-.67.54.04,1.07.43,1.27.92h0Z"/>
        <path class="cls-1" d="M135.21,47.76c-2.38-2.65-6.18-3.26-9.38-1.77-3.49,1.63-5.15,5.39-5.03,9.11.24,7.16,5.85,12.02,12.64,13.16,9.1,1.52,19.14-1.65,23.69-10.09,2.2-4.08,3.07-8.92,2.12-13.47-1.1-5.29-4.73-9.69-9.55-12.06-5.78-2.85-11.86-2.27-18.05-1.6-3.06.33-6.11.54-9.16.06-3.03-.48-5.91-1.56-8.54-3.13-.5-.3.68-1.4,1.12-1.14,2.63,1.57,5.64,2.58,8.67,3.07,3.26.52,6.54.18,9.79-.18,6.04-.67,12.01-1.01,17.6,1.82,5.05,2.55,8.73,7.23,9.71,12.83.84,4.79-.27,9.82-2.69,14-4.98,8.63-15.15,12.43-24.78,11.27-4.08-.49-8.12-2.06-10.85-5.25-2.05-2.4-3.18-5.55-3.21-8.7-.05-4.42,2.37-8.42,6.28-10.48,3.64-1.91,8.18-1.72,11.03,1.46.33.37-1.05,1.5-1.41,1.09h0Z"/>
        <path class="cls-1" d="M205.93,156.81c1.64-3.5-.37-6.96-3.48-8.78-3.26-1.91-6.94-1.89-9.94.46-3.07,2.4-4.93,6.12-5.38,9.95-.48,4.11.72,8.11,2.89,11.58,1.79,2.86,3.97,4.78,7.22,5.82,3.05.98,6.37,1.17,9.54.81,5.78-.66,11.09-3.71,14.62-8.33,4.3-5.62,4.98-13.14,2.97-19.8-1.94-6.42-6.68-11.24-12.63-14.14-6.53-3.19-14.48-3.41-21.13-.41-6.27,2.83-10.19,8.7-13.5,14.47-3.7,6.46-6.94,13.23-11.56,19.12-4.25,5.42-9.62,9.99-15.92,12.84-6.9,3.12-14.59,4.14-22.11,3.76-6.99-.36-14.19-1.89-20.44-5.12-5.41-2.8-9.37-7.35-11.67-12.99-2.76-6.77-2.27-14.27,1.1-20.73,2.94-5.62,7.6-9.93,13.46-12.36,5.23-2.17,11.12-2.76,16.7-1.96,5.21.74,10.37,2.73,14.37,6.22,4.81,4.19,7.36,10.86,6.47,17.2-.87,6.19-4.88,11.99-10.61,14.63-5.25,2.41-13.08,1.95-16.46-3.37-1.53-2.41-1.55-5.25-.56-7.88.3-.79,2.21-1.39,1.77-.2-1.13,2.98-.59,6.07,1.74,8.31,2.4,2.31,6,3.12,9.24,2.79,6.7-.68,11.75-6.54,12.92-12.94,1.18-6.46-1.44-13.27-6.46-17.45-4.22-3.52-9.75-5.34-15.17-5.82-5.73-.51-11.71.51-16.73,3.38-6.1,3.47-10.45,9.97-11.5,16.9-1.06,7.01,1.37,14.06,5.89,19.42,4.02,4.77,10.21,7.24,16.12,8.71,14.67,3.66,31.22,1.64,42.38-9.25,5.29-5.16,8.88-11.52,12.41-17.94,3.28-5.96,6.49-12.1,11.46-16.85,10.17-9.71,27.34-8.42,36.88,1.48,4.48,4.65,6.6,11.09,6.46,17.5-.14,6.48-3.15,12.45-8.01,16.67-4.36,3.79-9.82,5.89-15.59,5.99-3.08.05-6.21-.36-9.07-1.55-3.07-1.28-5.06-3.48-6.71-6.33-3.81-6.57-3.69-14.62,1.17-20.64,2.02-2.5,4.94-4.66,8.21-5.04,3.21-.38,6.67,1.06,8.88,3.37,2.18,2.27,2.87,5.41,1.52,8.29-.21.44-.64.92-1.17.94-.41.02-.81-.28-.59-.74h0Z"/>
        <path class="cls-1" d="M75.05,131.97c9.02,4.17,15.63,11.58,18.73,21.05,3.05,9.3,2.61,19.81-1.82,28.6-4.28,8.51-12.25,15.41-21.22,18.6-2.43.86-4.91,1.32-7.44,1.52v-.84c4.03-.49,7.94-2.05,11.45-4.06,8.56-4.89,15.26-12.88,17.84-22.46,2.49-9.24,1.3-19.39-3.19-27.84-5.19-9.76-14.77-16.11-25.73-17.53-.12-.02-.24-.02-.36-.04v-.53c4.06.62,8.01,1.8,11.75,3.53Z"/>
        <path class="cls-1" d="M66.3,190.6c5.09,2.36,10.2,5.3,13.81,9.68,3.23,3.92,4.78,8.79,4.81,13.85.07,10.36-8.84,18.92-18.75,20.6-.94.16-1.9.21-2.87.18v-1.72c.5.06,1,.09,1.49.09,4.69,0,9.55-2.26,12.98-5.39,4.36-3.99,5.91-9.42,5.26-15.2-1.23-10.86-10.39-17.11-19.73-21.15v-2.22c1.01.41,2.01.83,3,1.28Z"/>
        <path class="cls-1" d="M203.41,232.92c3.92,2.94,2.15,8.89-.76,11.88-3.99,4.09-10.72,4.29-15.03.6-4.22-3.62-5.27-9.36-3.68-14.51,1.69-5.46,6.04-9.46,11.54-10.9,6.4-1.68,13.57-.35,18.9,3.59,4.99,3.69,7.75,9.38,8,15.53.46,11.39-6.7,21.84-17.02,26.32-6.47,2.8-13.85,3.51-20.72,1.93-6.55-1.51-11.42-5.57-16.19-10.19-1.04-1.01-2.07-2.02-3.13-3.01-.36-.33.39-.96.95-.44,4.08,3.79,8.42,7.74,13.51,10.22,6.04,2.94,13.27,3.57,19.84,2.23,5.19-1.06,10.11-3.46,13.75-7.36,3.34-3.58,5.6-8.24,6.5-13.05.89-4.76.52-9.83-1.68-14.19-2.7-5.35-7.94-9.06-13.74-10.36-5.36-1.2-11.96-.67-15.71,3.79-2.86,3.41-4.24,8.51-3.1,12.87,1.48,5.62,7.59,10.69,13.58,8.26,4.11-1.67,6.26-8.96,2.36-11.88-.57-.43,1.31-1.7,1.83-1.31h0Z"/>
        <path class="cls-1" d="M210.48,280.78c-.27-3.09-2.45-5.65-5.54-6.21-2.83-.51-5.67.67-7.71,2.62-4.3,4.09-3.85,11.13.2,15.24,4.85,4.93,12.88,3.38,18.07-.19,5.39-3.71,7.69-10.59,6.42-16.89-1.34-6.6-6.68-10.75-13.22-12.16-.29-.06-.94-.58-.88-.91.11-.7.91-.72,1.23-.65,6.57,1.42,11.83,5.37,14.12,11.96,2.44,7.03.26,15.29-6.04,19.53-5.96,4.01-14.39,4.62-20.22.03-5.32-4.19-6.43-12.58-.99-17.16,2.84-2.39,6.4-2.89,9.89-1.78,3.43,1.09,6.24,3.5,6.56,7.25.01.14-1.83-.11-1.88-.68h0Z"/>
        <path class="cls-1" d="M191.06,21.52c-5.36.13-10.97-1.33-15.43-4.33-4.57-3.08-8.01-8.11-9.83-13.26-.46-1.28-.81-2.6-1.08-3.93h1.75c.97,3.99,2.8,7.78,5.38,10.97,3.24,4.01,7.42,6.67,12.41,7.98,4.3,1.13,9.01,1.39,13.22-.22,4.79-1.83,9.17-5.67,10.2-10.88.53-2.65.15-5.41-.93-7.85h1.97c.04.12.09.23.12.35,3.47,11.08-7.25,20.91-17.77,21.16Z"/>
        <path class="cls-1" d="M150.48,271.15c-2.86,2.17-2.97,6.46-1.73,9.53,1.5,3.73,5.2,5.84,9.13,5.91,9.87.18,15.03-10.39,14.43-19.09-.33-4.78-2.66-8.85-5.94-12.25-1.8-1.86-3.87-3.55-6.2-4.7-1.94-.96-4.11-1.46-6.24-1.77-9-1.33-18.17,2.03-23.46,9.56-5.76,8.2-8.29,18.79-9.76,28.55-.07.49-1.4.23-1.32-.28,1.47-9.74,3.8-20.2,9.45-28.45,5.6-8.17,15.45-11.47,25.05-10.11,4.95.7,9.17,2.65,12.83,6.07,3.69,3.46,6.5,7.77,7.05,12.88.56,5.26-.93,11.42-4.42,15.49-2.63,3.07-6.56,4.8-10.58,4.86-4.25.07-8.77-1.71-10.94-5.53-1.98-3.49-2.04-8.67,1.4-11.27.36-.28,1.8.19,1.26.6h0Z"/>
        <path class="cls-1" d="M75.05,12.24c7.98,3.57,18.07,3.38,26.13.18,6.14-2.44,11.11-6.85,14.35-12.42h1.02c-1.85,2.98-4.19,5.66-6.95,7.88-7.57,6.08-17.42,8.75-27.05,7.69-7.19-.8-14.1-4.26-19.26-9.38v-2.58c3.24,3.69,7.37,6.68,11.75,8.64Z"/>
        <path class="cls-1" d="M120.42,196.32c-2.56-1.55-5.72-1.14-8.19.4-2.28,1.42-3.65,3.64-4.02,6.27-.37,2.68.22,5.6,1.94,7.74,2.09,2.6,5.71,4.15,8.99,4.29,6.49.28,12.12-4.37,13.76-10.55,1.64-6.17-.48-12.92-5.31-17.06-4.38-3.75-11.32-5.01-16.88-3.94-4.58.89-8.7,3.79-11.49,7.48-3.32,4.39-4.89,9.8-5.35,15.23-.49,5.82.13,11.63,2.08,17.13,4.01,11.34,12.51,21.21,22.81,27.32,1.42.84,2.87,1.61,4.36,2.3,1.35.63.33,2.07-.86,1.52-12.46-5.82-22.87-16.49-27.93-29.34-2.41-6.12-3.27-12.55-2.75-19.11.48-6,2.31-11.97,6.17-16.68,3.48-4.25,8.42-7.15,13.9-7.77,6.35-.71,13.75,1.04,18.43,5.56,4.99,4.82,7.03,12.45,4.66,19.05-2.36,6.57-8.63,10.9-15.63,10.54-3.67-.19-7.44-1.72-10.09-4.31-2.17-2.13-3.21-5.12-3.2-8.12,0-2.82.98-5.52,3.02-7.49,2.24-2.17,5.42-3.35,8.53-3.13,1.57.11,3.05.59,4.4,1.41,1.28.78-.38,1.87-1.37,1.26h0Z"/>
        <path class="cls-1" d="M94.03,171.07c-1.86,5.31-5.98,9.9-11.73,10.86-4.91.82-10.23-1.24-13.28-5.17-3.61-4.64-3.44-11.29-.5-16.21,1.44-2.41,3.57-4.6,6.34-5.4,2.66-.77,5.76-.09,7.86,1.72,4.02,3.46,3.29,11.69-2.52,12.8-.46.09.26-1.89.93-2.02,2.21-.42,3.05-2.12,2.81-4.26-.24-2.18-1.53-4.14-3.39-5.27-4.39-2.69-9.77-.72-11.84,3.87-2.01,4.44-1.1,10.02,2.17,13.62,2.62,2.89,6.59,4.55,10.48,4.48,5.27-.09,9.74-3.44,11.48-8.38.12-.34.5-1.23.92-1.28.43-.05.42.25.28.64h0Z"/>
        <g>
          <path class="cls-1" d="M65.67,253.32c9.56,4.23,22-.21,24.94-10.65,1.48-5.24-.44-12.07-6.19-13.85-4.57-1.42-10.71,2.06-9.74,7.3.1.53-1.75.27-1.83-.22-.89-4.86,3.65-7.93,8.02-8.17,5.3-.29,10.41,3.28,11.77,8.47,1.34,5.12-.92,10.7-4.59,14.31-4.07,4.01-9.86,5.46-15.45,5.07-3.27-.23-6.44-1.08-9.29-2.57v-.99c.75.47,1.53.92,2.37,1.29Z"/>
          <path class="cls-1" d="M94.19,208.86c5.77,2.62,11.32,6.88,14.87,12.18.74,1.11,1.38,2.28,1.82,3.54.16.44-1.66.29-1.83-.22-1.79-5.1-6.43-9.24-10.77-12.19-5.17-3.52-11.11-5.57-17.4-5.44-6.6.13-12.78,2.62-17.58,6.73v-2.05c3.42-2.46,7.38-4.13,11.58-4.94,6.47-1.25,13.32-.33,19.31,2.39Z"/>
        </g>
        <path class="cls-1" d="M99.23,255.39c-2.17,3.1-5.89,4.87-9.63,3.56-3.36-1.18-5.39-4.46-5.61-7.92-.48-7.6,6.75-13.91,14.11-13.25,7.74.69,13.35,7.46,13.94,14.95.53,6.73-2.58,13.58-8.18,17.36-3.65,2.47-7.92,3.62-12.3,2.85-5.16-.91-9.94-4.08-13.11-8.2-.27-.36.7-1.87.99-1.5,4.55,5.92,12.73,9.91,20.16,7.63,2.94-.9,5.86-2.71,7.9-5.04,2.06-2.36,3.11-5.52,3.47-8.6.71-6.15-2.11-12.49-7.46-15.71-3.11-1.87-6.81-2.65-10.37-1.76-3.36.85-6.61,3.22-7.71,6.61-1.09,3.35-.09,7.4,2.69,9.64,3.27,2.64,8.35,2.2,10.82-1.33.73-1.04.72.1.29.71h0Z"/>
        <path class="cls-1" d="M145.5,200.14c4.29-4.37,12.04-2.63,15.56,1.81,3.7,4.66,2.88,11.79-.24,16.5-8.36,12.62-30.47,10.7-35.14-4.13-2.28-7.23-1.54-15.87,2.33-22.43,3.49-5.91,9.75-8.91,16.07-10.96,3.44-1.12,7.19-1.13,10.76-.8,4.53.42,9,1.51,13.34,2.82,4.48,1.35,8.77,3.39,13.51,3.59,4.2.18,8.04-.84,10.71-4.26,4.82-6.16,4.04-15.72-2.91-19.91-3.3-1.99-7.48-2.44-10.73-.13-3.22,2.29-4.61,6.85-3.24,10.56.63,1.71,1.88,3.04,3.53,3.79.71.32-.08.97-.44,1.14-.7.33-1.56.34-2.26.02-3.36-1.52-4.94-5.2-4.53-8.74.43-3.69,2.68-6.74,5.95-8.43,6.72-3.48,15.88-.87,19.46,5.88,3.36,6.35.92,15.14-5.02,19.11-3.4,2.27-7.79,2.78-11.78,2.55-4.54-.27-8.54-1.91-12.82-3.28-4.39-1.4-8.88-2.57-13.46-3.08-3.49-.39-6.85-.28-10.15.97-3.12,1.17-6.31,2.48-8.92,4.59-2.34,1.89-3.97,4.43-5.21,7.14-1.64,3.61-2.21,7.63-2.13,11.57.08,3.8.71,7.87,2.67,11.18,3.5,5.95,11.21,9.38,17.94,7.54,6.37-1.74,11.36-6.89,11.86-13.63.21-2.9-.31-5.9-2.12-8.24-1.59-2.06-4.32-3.83-7.02-3.64-1.04.07-1.92.55-2.64,1.28-.52.53-1.47.69-2.18.58-.45-.07-1.26-.44-.73-.98h0Z"/>
        <g>
          <path class="cls-1" d="M116.25,10.58c2.99,3.63,7.79,4.96,11.95,2.51.59-.35,2.46.7,1.95,1.01-7.38,4.35-16.66-1.46-18.45-9.18-.37-1.6-.49-3.27-.38-4.91h2.19c-.39,3.69.36,7.69,2.75,10.58Z"/>
          <path class="cls-1" d="M151.02,13.38c-2.26,9.12-9.49,15.52-18.54,17.55-.48.11-1.12-.09-1.5-.39-.2-.16-.68-.39-.16-.51,7.08-1.59,13.25-6.13,16.42-12.75,2.52-5.27,3.29-11.64,1.6-17.28h1.95c.11.31.22.63.3.95,1.13,4.05.93,8.38-.07,12.43Z"/>
        </g>
        <path class="cls-1" d="M218.42,25.43c3.93-3.55,8.39-6.34,13.26-8.17v1.41c-17.13,7.07-28.17,26.24-26.42,44.55.82,8.53,3.91,17.29,10.57,22.98,2.78,2.37,6.02,4.12,9.41,5.45,2.08.82,4.24,1.52,6.43,2.05v1.47c-4.83-1-9.55-2.8-13.66-5.32-6.28-3.86-10.53-9.76-12.78-16.74-5.46-16.97.01-35.78,13.18-47.68Z"/>
        <path class="cls-1" d="M69.26,57.3c-.91-3.37-3.13-6.27-5.96-8.32v-2.64c.37.22.74.44,1.1.69,3.14,2.21,5.73,5.29,6.65,9.08,1.6,6.59-1.74,13.94-7.76,17.05v-.96c5.46-2.28,7.43-9.44,5.96-14.9Z"/>
        <g>
          <path class="cls-1" d="M172.12,104.29c.83-4.31,2.67-9.04,6.53-11.48,6.57-4.14,18.21.11,17.64,8.77-.11,1.64-.65,3.26-1.72,4.52-.3.35-1.91-.59-1.88-.63,2.51-2.97,2.2-7.72-.24-10.62-3.43-4.06-9.67-3.64-13.42-.27-3.59,3.23-5.17,8.81-5.43,13.47-.29,5.21,1.66,10.21,5.15,14.07,8.23,9.1,22.12,8.6,33.21,6.99,5.13-.75,10.31-1.38,15.51-1.09,1.41.08,2.81.22,4.2.44v.53c-10.98-1.3-21.72,2.43-32.7,1.7-9.03-.6-19.18-3.89-24.23-11.93-2.77-4.4-3.6-9.35-2.63-14.45Z"/>
          <path class="cls-1" d="M226.81,199.82c-4.52-.16-9.1-.91-13.28-2.71-3.93-1.7-7.3-4.47-8.53-8.72-1.15-3.97-.11-8.46,3.31-10.99,3.89-2.88,9.26-2.29,13.27.03,4.09,2.37,6.51,7.08,3.89,11.51-1.18,1.99-3.13,3.44-5.39,3.95-.37.08-.86-.12-1.2-.26-.07-.03-.78-.4-.58-.44,4.86-1.09,8.05-6.8,5.5-11.34-2.85-5.07-9.76-6.14-14.14-2.4-3.35,2.86-4,7.73-2.39,11.68,1.77,4.35,5.87,6.84,10.27,7.95,4.48,1.13,9.4,1.36,13.99.83.05,0,.1-.02.15-.02v.84c-1.61.12-3.23.14-4.87.09Z"/>
        </g>
        <path class="cls-1" d="M226.64,216.13c1.48-1.81,3.18-3.37,5.04-4.71v2.05c-4.1,3.51-7.19,8.2-8.63,13.66-2.4,9.1.55,19.8,8.63,24.9v.99c-1.89-.99-3.64-2.25-5.17-3.83-3.91-4.04-5.98-9.53-6.16-15.11-.21-6.52,2.17-12.92,6.28-17.95Z"/>
        <path class="cls-1" d="M117.65,219.54c4.27-4.62,10.6-7.28,16.9-6.91,6.27.36,12.19,4.25,14.94,9.92,1.33,2.75,2.02,5.98,1.7,9.03-.34,3.31-1.94,6.45-4.07,8.96-3.49,4.13-8.49,6.31-13.89,5.25-2.39-.47-4.64-1.69-5.77-3.93-.33-.66,1.39-2.01,1.62-1.56,2.32,4.6,9.41,5.02,13.56,2.89,2.9-1.49,5.07-4.52,6.14-7.53,1.16-3.26.85-6.86-.31-10.09-2.18-6.06-8.07-10.51-14.43-11.19-6.62-.71-13.62,2.22-17.3,7.84-4.04,6.18-4.39,14.18-1.84,20.99,2.12,5.66,7.34,9.61,12.81,11.76,5.48,2.16,11.37,2.52,17.05.88,5.81-1.67,10.69-5.83,13.33-11.28,2.7-5.56,3.69-11.95,4.97-17.95,1.29-6.04,2.65-12.06,5.49-17.6,5.85-11.39,17.03-20.23,29.56-22.95,11.2-2.44,22.98-1.01,33.55,3.24v2.22c-1.07-.46-2.14-.9-3.2-1.3-11.72-4.5-26.04-5.23-37.8-.55-6.44,2.56-12.27,7.19-16.57,12.6-3.81,4.79-6.2,10.45-7.73,16.34-1.72,6.65-2.68,13.49-4.69,20.07-1.65,5.41-4.41,10.2-8.75,13.92-9.07,7.76-22.63,7.66-32.28,1.04-5.51-3.78-8.51-9.47-9.03-16.12-.51-6.5,1.58-13.18,6.03-18Z"/>
        <g>
          <path class="cls-1" d="M118.18,291.75c2.62-8.01,2.43-19.24-5.05-24.7-3.29-2.41-8.87-4.04-12.3-.97-2.69,2.41-3.32,6.48-2.3,9.82.42,1.39,1.13,2.69,2.18,3.7.1.09-1.25,1.22-1.52.96-2.51-2.41-3.2-6.48-2.25-9.75,1.05-3.59,4.42-6.35,8.02-7.14,4.27-.94,8.85,1.11,11.73,4.23,3.3,3.57,4.53,8.79,4.54,13.53.01,5.75-1.68,11.38-4.68,16.22h-1.02c1.08-1.85,1.97-3.83,2.64-5.9Z"/>
          <path class="cls-1" d="M71.01,257.35c7.54-1.86,15.86.89,20.03,7.62,4.35,7.02,4.42,17.8-2.46,23.28-2.94,2.34-6.75,3.62-10.47,2.72-3.89-.93-7.41-3.97-8.27-7.96-.45-2.08-.08-4.17.81-6.09.14-.31.58-.54.87-.7.06-.03.73-.33.65-.15-1.7,3.67-1.06,7.72,1.74,10.66,2.61,2.74,6.63,4.14,10.35,3.28,8.64-2,9.41-13.55,7.02-20.37-2.44-6.95-8.73-11.56-16.08-11.85-3.49-.14-7.34.6-10.26,2.61-.58.4-1.12.85-1.64,1.33v-.52c2.21-1.79,4.8-3.13,7.71-3.85Z"/>
        </g>
        <path class="cls-1" d="M223.74,273.81c1.32-4.96,4.06-9.47,7.94-12.6v.52c-2.41,2.2-4.19,5.12-5.38,8.12-3.12,7.83-2.62,17.23.99,24.82.49,1.03,1.06,2.03,1.69,2.99h-2.12c-4.11-7.06-5.18-16-3.11-23.84Z"/>
        <path class="cls-1" d="M231.68,3.6v2.58c-1.1-1.09-2.12-2.25-3.05-3.48-.65-.86-1.24-1.77-1.78-2.7h2.12c.81,1.26,1.71,2.46,2.71,3.6Z"/>
        <path class="cls-1" d="M65.49,118.46c1.11,3.14,2.08,6.31,4.05,9.05,1.86,2.6,4.28,4.88,7.24,6.14,6.41,2.71,14.26.27,17.84-5.78,3.57-6.04,1.21-14.4-5.05-17.63-6.59-3.4-13.59,4.13-11.53,10.7.49,1.57,1.51,2.8,2.86,3.71.34.23-.82.43-.88.44-.49.05-1.13.06-1.56-.23-2.56-1.74-3.66-4.68-3.2-7.7.45-2.97,2.13-5.4,4.72-6.9,5.57-3.24,12.76-1.51,16.43,3.68,3.88,5.5,2.97,12.99-2.12,17.39-4.8,4.15-11.9,5.2-17.88,3.36-6.07-1.88-10.1-6.94-12.25-12.73-.29-.78-.58-1.57-.86-2.36v-6.7c.82,1.83,1.54,3.71,2.19,5.56Z"/>
        <path class="cls-1" d="M147.13,293.65c-1.82-3.19-4.57-6.04-7.71-7.96-3.14-1.92-6.96-2.57-10.59-2.36-3.44.2-7.01,1.22-9.72,3.41-2.91,2.35-4.75,5.99-5.42,9.63-.08.42-.13.86-.18,1.29h-2.19c.17-2.64.94-5.25,2.23-7.54,1.96-3.45,4.94-5.82,8.71-7.01,7.96-2.53,16.57-.23,22.57,5.43,2.68,2.53,4.8,5.63,5.97,9.13h-1.95c-.42-1.39-.98-2.73-1.71-4Z"/>
        <g>
          <path class="cls-1" d="M173.48,269.76c9.65-8.83,24.04-10.89,36.46-7.96.85.2-.18,1.65-.96,1.47-10.24-2.42-21.58-1.26-30.61,4.37-3.94,2.45-7.36,5.84-9.5,9.99-2.67,5.17-3.71,11.34-2.96,17.1.13.98.33,1.95.56,2.92h-1.75c-2.02-9.99,1.17-20.94,8.76-27.88Z"/>
          <path class="cls-1" d="M200.37,291.17c-4.23-1.85-10.36-1.08-12.14,3.74-.3.81-1.88,1.22-1.44.04,1.7-4.59,6.41-6.8,11.11-6.28,5,.55,9.18,4.28,10.8,8.98h-1.97c-1.25-2.82-3.46-5.21-6.37-6.48Z"/>
        </g>
        <path class="cls-1" d="M217.18,219.14c.46-1.95,1.44-3.75,2.77-5.24.2-.22.85-.93,1.22-.73.38.2.02.73-.18.95-2.92,3.3-3.01,8.22-.82,11.93,2.29,3.87,6.97,6.65,11.51,7.15v1.72c-8.08-.3-16.54-7.1-14.5-15.78Z"/>
      </g>
      <path class="cls-1" d="M121.24,156.17c.8-3.63,2.22-5.14,4.85-6.28,1.62-.7,3.85-2.55,4.59-3.85.33,3.99-1.09,6.67-2.95,8.34-1.86,1.67-4.04,1.78-6.49,1.78Z"/>
      <path class="cls-1" d="M98.54,186.92c-2.59-2.66-3.08-4.68-2.59-7.49.3-1.73-.02-4.61-.7-5.95,3.51,1.91,4.98,4.57,5.36,7.04.38,2.47-.73,4.36-2.07,6.4Z"/>
      <path class="cls-1" d="M164.48,205.78c-1.52-4.15-1.07-6.57.83-9.4,1.17-1.74,2.22-5.02,2.13-6.8,2.88,3.78,3.18,7.38,2.39,10.25-.79,2.87-2.91,4.38-5.36,5.94Z"/>
      <path class="cls-1" d="M193.08,211.91c.71-4.07,2.38-6.1,5.57-7.66,1.62-.79,3.94-2.6,4.7-3.94.33,4.08-1.09,6.53-3,8.24s-4.56,2.68-7.27,3.35Z"/>
      <path class="cls-1" d="M165.25,163.61c-2.96-2.75-3.6-4.92-3.22-8.01.23-1.9-.27-5.01-1.08-6.43,3.92,1.89,5.66,4.7,6.21,7.37.55,2.67-.56,4.78-1.9,7.07Z"/>
      <path class="cls-1" d="M159.44,180.03c.89-3.28,2.25-4.61,4.7-5.54,1.51-.57,3.63-2.16,4.37-3.32.13,3.66-1.29,6.06-3.06,7.51-1.77,1.45-3.78,1.45-6.01,1.35Z"/>
      <path class="cls-1" d="M117.95,160.64c-.19-4.79-4.16-7.79-8.39-9.06.6,3.3.82,5.8,2.92,7.57,1.26,1.06,3.67,1.5,5.47,1.5Z"/>
      <path class="cls-1" d="M90.41,205.94c-.19-4.79-4.16-7.79-8.39-9.06.6,3.3.82,5.8,2.92,7.57,1.26,1.06,3.67,1.5,5.47,1.5Z"/>
      <path class="cls-1" d="M192.66,211.59c1.14-4.78,1.6-9.48-.62-13.05-1.65,2.73-3.07,4.67-2.68,7.25.23,1.55,1.44,4.2,3.3,5.81Z"/>
      <path class="cls-1" d="M121.97,162.08c4.4,1.75,8.13.64,11.12-2.82-3.29-.6-5.81-1.44-8-.69-1.44.49-2.8,2.04-3.12,3.51Z"/>
      <path class="cls-1" d="M205.22,243.25c2.66-1.62,4.4-1.65,6.62-.72,1.36.57,3.78.85,5,.54-2.22,2.52-4.67,3.22-6.77,3.07-2.09-.15-3.43-1.41-4.85-2.89Z"/>
      <path class="cls-1" d="M202.57,246.52c1.26,3.09,3.65,4.45,6.87,4.28-1.31-1.97-2.11-3.66-3.56-4.41-.96-.49-2.41-.42-3.31.13Z"/>
      <path class="cls-1" d="M69.69,158.11c-2.92-2.19-3.7-4.07-3.65-6.89.03-1.73-.72-4.48-1.58-5.67,3.7,1.33,5.53,3.69,6.27,6.03.74,2.34-.05,4.34-1.04,6.53Z"/>
      <path class="cls-1" d="M126.71,181.14c-3.11-.37-5.13-1.26-7.05-3.32-1.16-1.24-3.26-3.15-4.67-3.59,3.76-1.16,6.63-.37,8.63,1.06s2.57,3.5,3.08,5.85Z"/>
      <path class="cls-1" d="M73.94,154.13c3.41-3.28,3.94-7.14,2.03-11.29-1.9,2.75-3.71,4.7-3.93,7-.15,1.52.71,3.39,1.91,4.29Z"/>
      <path class="cls-1" d="M97.24,161.34c4.66-.84,7.23-3.76,7.95-8.27-3.11,1.23-5.69,1.85-7.16,3.64-.96,1.18-1.29,3.22-.79,4.62Z"/>
      <path class="cls-1" d="M149.47,151.27c5.47-1.69,8.15-5.57,8.35-11.1-3.56,1.94-6.57,3.05-8.07,5.42-.99,1.56-1.09,4.05-.28,5.67Z"/>
      <path class="cls-1" d="M200.65,232.67c-3.41-3.76-7.53-4.45-12.04-2.53,2.89,2.13,4.9,3.34,7.36,3.65,1.62.21,3.37-.22,4.68-1.12Z"/>
      <path class="cls-1" d="M193.58,212.22c3.68,2.28,10.19,2.77,12.76-.2-2.83-.51-5.78-1.53-7.96-1.25-1.3.17-3.02,1-4.81,1.45Z"/>
      <path class="cls-1" d="M185.09,225.7c-4.4-.67-6.64-2.42-8.39-5.82-.89-1.73-2.9-4.18-4.36-4.97,4.39-.46,7.07,1.03,8.96,3.04,1.89,2.01,2.99,4.85,3.79,7.76Z"/>
      <path class="cls-1" d="M184.75,226.17c-5.18-1.12-10.26-1.5-14.06.98,2.99,1.71,5.11,3.2,7.88,2.71,1.66-.29,4.5-1.65,6.18-3.69Z"/>
      <path class="cls-1" d="M97.97,194.25c3.23,1.15,4.93,2.55,5.54,5.15.34,1.45.11,3.7.28,5.14-2.71-1.55-4.76-3.37-5.36-5.09-.64-1.81-.61-2.88-.45-5.2Z"/>
      <path class="cls-1" d="M105.29,225.89c2.27,2.56,3.09,4.61,2.37,7.18-.4,1.44-1.69,3.3-2.24,4.64-1.63-2.66-2.54-5.25-2.25-7.04.31-1.9.85-2.81,2.11-4.78Z"/>
      <path class="cls-1" d="M99.44,192.55c4.46,1.51,8.9,2.36,12.5.55-2.46-1.81-4.18-3.33-6.68-3.18-1.5.09-4.13,1.01-5.82,2.63Z"/>
      <path class="cls-1" d="M172.88,205.6c4.46,1.51,8.9,2.36,12.5.55-2.46-1.81-4.18-3.33-6.68-3.18-1.5.09-4.13,1.01-5.82,2.63Z"/>
      <path class="cls-1" d="M204.91,193.51c-4.05-2.39-8.22-4.13-12.12-3.1,2.04,2.27,3.41,4.12,5.88,4.48,1.48.22,4.25-.14,6.24-1.39Z"/>
      <path class="cls-1" d="M92.81,170.22c-3.34-.74-5.21-1.92-6.13-4.42-.52-1.4-.57-3.66-.91-5.07,2.88,1.2,5.13,2.76,5.95,4.39.86,1.72.96,2.78,1.09,5.11Z"/>
      <path class="cls-1" d="M91.56,172.09c-4.61-.95-9.12-1.24-12.47.99,2.67,1.49,4.56,2.79,7.02,2.34,1.47-.27,3.97-1.51,5.45-3.33Z"/>
      <path class="cls-1" d="M185.41,225.15c2.38-4.02,2.74-11.05-.52-13.76-.49,3.07-1.52,6.27-1.16,8.61.21,1.4,1.15,3.23,1.68,5.15Z"/>
      <path class="cls-1" d="M225.06,267.62c-3.26-.5-4.91-1.79-6.21-4.31-.66-1.28-2.15-3.1-3.22-3.68,3.25-.34,5.23.76,6.63,2.25,1.4,1.49,2.21,3.59,2.8,5.74Z"/>
      <path class="cls-1" d="M225.95,266.35c1.76-2.97,2.03-8.18-.38-10.18-.36,2.27-1.12,4.64-.86,6.37.16,1.04.85,2.39,1.24,3.81Z"/>
      <path class="cls-1" d="M114.66,90.73c-4.2-2.33-5.8-4.93-6.3-9.02-.25-2.08-1.37-5.31-2.54-6.66,4.61,1.18,6.76,3.68,7.92,6.42,1.16,2.74,1.21,6.02.93,9.26Z"/>
      <path class="cls-1" d="M113.77,91.29c-4.82-3.07-9.8-5.36-14.58-4.27,2.38,2.85,3.97,5.14,6.95,5.69,1.79.33,5.16.01,7.63-1.42Z"/>
      <path class="cls-1" d="M115.77,89.76c3.9-3.17,6.91-10.14,4.62-14.1-1.64,2.92-3.88,5.77-4.39,8.27-.31,1.49-.05,3.7-.23,5.83Z"/>
      <path class="cls-1" d="M119.5,15.74c.74,3.03.2,4.94-1.53,6.98-.88,1.04-1.93,2.99-2.06,4.14-1.46-2.72-1.22-4.84-.42-6.6.8-1.76,2.34-3.23,4.01-4.51Z"/>
      <path class="cls-1" d="M119.9,15.83c.65,3.65,1.75,7.04,4.37,8.84.31-2.39.71-4.15-.34-5.82-.63-1-2.26-2.47-4.03-3.02Z"/>
      <path class="cls-1" d="M73.14,42.41c3.22,1.02,6.41,1.57,8.97.23-1.79-1.26-3.04-2.33-4.83-2.19-1.07.08-2.95.78-4.14,1.97Z"/>
      <path class="cls-1" d="M119.06,15.67c-3.23-.47-7.88,1.16-8.76,3.99,2.11-.5,4.46-.69,5.88-1.54.85-.51,1.79-1.6,2.88-2.45Z"/>
      <path class="cls-1" d="M166.03,72.28c-1.18-2.88-.94-4.85.47-7.13.71-1.16,1.46-3.25,1.41-4.4,1.85,2.47,1.93,4.61,1.41,6.46-.52,1.86-1.83,3.54-3.29,5.06Z"/>
      <path class="cls-1" d="M206.87,68.16c-.21-3.11.64-4.9,2.69-6.61,1.04-.87,2.41-2.62,2.73-3.73.98,2.93.38,4.98-.71,6.58s-2.85,2.78-4.72,3.77Z"/>
      <path class="cls-1" d="M165.1,72.07c-1.2-3.51-2.79-6.69-5.65-8.08.05,2.41-.08,4.21,1.21,5.7.77.89,2.61,2.1,4.44,2.38Z"/>
      <path class="cls-1" d="M206.7,97.38c-1.18-2.88-.94-4.85.47-7.13.71-1.16,1.46-3.25,1.41-4.4,1.85,2.47,1.93,4.61,1.41,6.46-.52,1.86-1.83,3.54-3.29,5.06Z"/>
      <path class="cls-1" d="M205.77,97.18c-1.2-3.51-2.79-6.69-5.65-8.08.05,2.41-.08,4.21,1.21,5.7.77.89,2.61,2.1,4.44,2.38Z"/>
      <path class="cls-1" d="M166.94,72.43c3.26-.02,7.61-2.34,8.06-5.27-2.01.81-4.3,1.35-5.58,2.41-.76.63-1.52,1.85-2.48,2.86Z"/>
      <path class="cls-1" d="M71.63,253.95c-1.18-2.88-.94-4.85.47-7.13.71-1.16,1.46-3.25,1.41-4.4,1.85,2.47,1.93,4.61,1.41,6.46-.52,1.86-1.83,3.54-3.29,5.06Z"/>
      <path class="cls-1" d="M70.7,253.75c-1.2-3.51-2.79-6.69-5.65-8.08.05,2.41-.08,4.21,1.21,5.7.77.89,2.61,2.1,4.44,2.38Z"/>
      <path class="cls-1" d="M68.96,259.74c2.89,2.33,5.94,4.16,9.09,3.81-1.33-2.01-2.19-3.6-4.07-4.17-1.13-.34-3.33-.38-5.02.36Z"/>
      <path class="cls-1" d="M72.55,254.1c3.26-.02,7.61-2.34,8.06-5.27-2.01.81-4.3,1.35-5.58,2.41-.76.63-1.52,1.85-2.48,2.86Z"/>
      <path class="cls-1" d="M87.26,272.68c1.06,2.93.73,4.89-.78,7.1-.76,1.12-1.6,3.18-1.6,4.34-1.75-2.55-1.73-4.69-1.12-6.52.6-1.83,1.98-3.46,3.5-4.92Z"/>
      <path class="cls-1" d="M86.35,272.49c-3.26-.12-7.71,2-8.28,4.91,2.05-.72,4.36-1.16,5.68-2.16.79-.6,1.6-1.79,2.6-2.75Z"/>
      <path class="cls-1" d="M124.86,263.83c-2.89,1.17-4.85.91-7.12-.51-1.15-.72-3.24-1.48-4.39-1.44,2.48-1.84,4.62-1.9,6.47-1.37,1.86.53,3.53,1.85,5.05,3.31Z"/>
      <path class="cls-1" d="M125.02,262.92c0-3.26-2.29-7.63-5.22-8.09.8,2.02,1.32,4.31,2.38,5.59.63.76,1.84,1.54,2.85,2.5Z"/>
      <path class="cls-1" d="M108.47,250c-2.14,2.27-4.03,2.86-6.68,2.52-1.35-.17-3.56,0-4.59.53,1.48-2.71,3.4-3.66,5.31-3.95,1.91-.29,3.98.2,5.97.9Z"/>
      <path class="cls-1" d="M108.66,250.93c-2.7,2.54-4.94,5.31-5.02,8.48,2.17-1.04,3.87-1.67,4.69-3.46.49-1.07.83-3.24.33-5.02Z"/>
      <path class="cls-1" d="M108.23,249.1c-1.37-2.96-5.27-5.97-8.12-5.17,1.57,1.5,3.01,3.36,4.5,4.09.89.43,2.32.62,3.63,1.08Z"/>
      <path class="cls-1" d="M117.45,275.23c-2.39-4.09-8.36-4.01-11.93-3.26,2.31,1.31,4.4,2.86,7.31,3.06,1.21.08,2.93.05,4.62.2Z"/>
      <path class="cls-1" d="M71.89,289.28c-3.42,1.42-6.5,3.22-7.7,6.16,2.4-.21,4.21-.2,5.61-1.58.84-.83,1.93-2.74,2.08-4.58Z"/>
      <path class="cls-1" d="M70.97,275.74c1.33-2.98,1.36-8.09-1.13-9.7-.09,2.17-.45,4.14-.11,6.07.17.98.72,2.34,1.24,3.63Z"/>
      <path class="cls-1" d="M69.83,277.19c-.46-3.23-2.76-5.31-5.87-6.18.62,2.07,1.08,3.28,2.49,4.52.74.66,1.82,1.41,3.39,1.66Z"/>
      <path class="cls-1" d="M149.52,177.58c-3.11-2.03-4.31-3.79-4.69-6.39-.24-1.6-.28-3.59-.5-5.42,3.43,1.88,4.53,3.32,4.99,4.62.75,2.17.6,4.71.21,7.19Z"/>
      <path class="cls-1" d="M147.86,178.45c-4.41-2.63-9.02-4.67-13.67-4.1,2.08,2.33,3.45,4.18,6.26,4.77,1.69.35,4.94.29,7.4-.67Z"/>
      <path class="cls-1" d="M151.4,176.45c4.63-3.24,8.55-10.81,6.3-15.42-2.07,3.14-4.81,6.15-5.58,8.91-.46,1.65-.35,4.14-.72,6.51Z"/>
      <path class="cls-1" d="M133.99,285.66c.85,2.68.7,4.29-.32,6-.63,1.05-1.57,2.24-2.31,3.41-1.1-2.75-1.06-4.12-.7-5.1.6-1.63,1.91-3.05,3.33-4.31Z"/>
      <path class="cls-1" d="M135.38,285.95c1.32,3.66,3.04,7.07,6.04,8.97-.1-2.36,0-4.11-1.38-5.8-.82-1.02-2.75-2.55-4.66-3.16Z"/>
      <path class="cls-1" d="M132.35,285.42c-4.27-.33-10.2,2.22-11.1,6,2.72-.84,5.77-1.29,7.55-2.54,1.06-.74,2.19-2.26,3.55-3.47Z"/>
      <path class="cls-1" d="M163.19,254.8c.85,2.68.7,4.29-.32,6-.63,1.05-1.57,2.24-2.31,3.41-1.1-2.75-1.06-4.12-.7-5.1.6-1.64,1.91-3.05,3.33-4.31Z"/>
      <path class="cls-1" d="M162.12,253.48c-4.27-.33-10.2,2.22-11.1,6,2.72-.84,5.77-1.29,7.55-2.54,1.06-.74,2.19-2.26,3.55-3.47Z"/>
      <path class="cls-1" d="M153.83,284.8c-2.01-1.96-2.64-3.45-2.55-5.44.06-1.22.32-2.71.43-4.1,2.27,1.9,2.88,3.13,3.03,4.17.24,1.73-.24,3.59-.9,5.37Z"/>
      <path class="cls-1" d="M155.39,285.46c3.91-1.73,7.94-6.78,6.95-10.53-2,2.03-4.48,3.86-5.46,5.8-.59,1.16-.87,3.02-1.5,4.73Z"/>
      <path class="cls-1" d="M119.6,50.24c-3.05.63-4.94.03-6.92-1.78-1-.91-2.92-2.04-4.07-2.2,2.77-1.37,4.88-1.05,6.61-.19,1.73.86,3.14,2.45,4.37,4.16Z"/>
      <path class="cls-1" d="M224.87,111c-3.05.63-4.94.03-6.92-1.78-1-.91-2.92-2.04-4.07-2.2,2.77-1.37,4.88-1.05,6.61-.19,1.73.86,3.14,2.45,4.37,4.16Z"/>
      <path class="cls-1" d="M119.23,51.11c-3.67.53-7.09,1.51-8.98,4.06,2.37.4,4.13.85,5.83-.14,1.02-.59,2.54-2.18,3.16-3.92Z"/>
      <path class="cls-1" d="M155.78,91.76c-1.72,2.6-3.48,3.51-6.15,3.63-1.36.06-3.51.62-4.43,1.31,1-2.92,2.72-4.19,4.55-4.8,1.83-.61,3.96-.48,6.04-.14Z"/>
      <path class="cls-1" d="M156.13,92.64c-2.23,2.96-3.96,6.08-3.49,9.22,1.96-1.4,3.52-2.31,4.03-4.21.3-1.14.27-3.34-.53-5.01Z"/>
      <path class="cls-1" d="M119.92,49.37c.58-3.21-.89-7.91-3.69-8.89.43,2.13.53,4.48,1.33,5.93.48.87,1.54,1.84,2.35,2.97Z"/>
      <path class="cls-1" d="M137.73,47c-.17-3.11.71-4.89,2.78-6.58,1.05-.86,2.45-2.59,2.78-3.69.94,2.94.31,4.98-.79,6.57-1.11,1.58-2.89,2.74-4.77,3.71Z"/>
      <path class="cls-1" d="M138.54,47.45c3.09,1.05,7.96.29,9.34-2.33-2.17.11-4.51-.14-6.06.44-.93.35-2.05,1.25-3.28,1.89Z"/>
      <path class="cls-1" d="M162.24,13.68c2.69,1.57,3.54,3.04,4.09,5.33.32,1.32.81,3.47,1.55,4.36-2.97-.84-4.33-2.49-5.04-4.29-.71-1.8-.71-3.52-.6-5.4Z"/>
      <path class="cls-1" d="M160.52,15.73c-2.04,2.67-2.57,7.81-1.02,10.72.97-1.69,1.88-4.65,1.85-6.3-.02-.99-.65-3.04-.84-4.41Z"/>
      <path class="cls-1" d="M142.03,58.13c-2.86,1.22-4.84,1.01-7.13-.37-1.17-.7-3.27-1.42-4.42-1.35,2.44-1.89,4.58-2,6.44-1.5,1.87.5,3.57,1.78,5.11,3.21Z"/>
      <path class="cls-1" d="M202.58,50.42c-3.01-.79-4.23-1.63-5.48-3.74-.69-1.17-1.86-4.31-2.99-5.85,3.56,1.29,5.23,2.38,6.4,3.92s1.73,3.59,2.07,5.67Z"/>
      <path class="cls-1" d="M142.16,57.21c-.07-3.26-2.44-7.58-5.38-7.98.84,2,1.41,4.29,2.49,5.54.64.75,1.87,1.5,2.89,2.44Z"/>
      <path class="cls-1" d="M204.79,11.68c-3.11-.15-4.79-1.21-6.25-3.45-.74-1.14-2.32-2.7-3.39-3.15,3.02-.63,4.99.21,6.45,1.47,1.46,1.26,2.43,3.16,3.19,5.13Z"/>
      <path class="cls-1" d="M205.32,10.91c1.37-2.96,1.12-7.89-1.35-9.53-.12,2.17-.61,4.47-.19,6.07.25.96,1.03,2.17,1.54,3.46Z"/>
      <path class="cls-1" d="M161.7,76.84c2.98-.92,4.91-.5,7.06,1.11,1.09.81,3.1,1.75,4.26,1.8-2.62,1.63-4.76,1.51-6.56.82-1.8-.69-3.36-2.14-4.75-3.73Z"/>
      <path class="cls-1" d="M160.93,77.15c-1.52,2.89-1.54,7.81.83,9.59.24-2.16.85-4.43.51-6.05-.2-.97-.91-2.22-1.35-3.54Z"/>
      <path class="cls-1" d="M182.97,59.26c2.74-3.02,5.21-3.84,8.69-3.45,1.77.19,4.66-.1,6-.8-1.88,3.58-4.36,4.87-6.85,5.3s-5.21-.17-7.84-1.04Z"/>
      <path class="cls-1" d="M182.79,58.27c3.48-3.39,6.34-7.06,6.37-11.22-2.82,1.41-5.02,2.28-6.06,4.64-.62,1.42-1.02,4.27-.31,6.58Z"/>
      <path class="cls-1" d="M222.24,89.73c3.48-3.39,6.34-7.06,6.37-11.22-2.82,1.41-5.02,2.28-6.06,4.64-.62,1.42-1.02,4.27-.31,6.58Z"/>
      <path class="cls-1" d="M183.52,60.21c1.86,3.85,7.04,7.69,10.76,6.57-2.09-1.92-4.01-4.33-5.98-5.24-1.18-.54-3.05-.76-4.78-1.33Z"/>
      <path class="cls-1" d="M131.08,13.39c1.22-3.89,3.12-5.67,6.44-6.78,1.69-.57,4.19-2.04,5.11-3.25-.2,4.04-1.91,6.25-4,7.68-2.08,1.43-4.8,2.03-7.55,2.35Z"/>
      <path class="cls-1" d="M131.51,14.31c3.3,2.71,9.62,4.02,12.52,1.45-2.71-.87-5.46-2.25-7.63-2.25-1.3,0-3.09.59-4.89.8Z"/>
      <path class="cls-1" d="M133.4,99.25c-2.34,2.18-4.32,2.66-7.02,2.14-1.37-.27-3.65-.23-4.75.24,1.7-2.68,3.73-3.53,5.71-3.7,1.98-.17,4.07.47,6.06,1.32Z"/>
      <path class="cls-1" d="M134.1,98.19c-1.57-3.97-6.46-8.19-10.24-7.34,1.95,2.07,3.68,4.62,5.58,5.67,1.13.63,2.98.98,4.67,1.67Z"/>
      <path class="cls-1" d="M211.35,112.3c-2.11,1.97-3.9,2.4-6.34,1.93-1.24-.24-3.3-.21-4.28.22,1.54-2.42,3.37-3.18,5.15-3.34,1.78-.15,3.67.43,5.47,1.19Z"/>
      <path class="cls-1" d="M211.92,111.39c-1.39-3.6-5.76-7.44-9.18-6.71,1.74,1.89,3.29,4.2,4.99,5.16,1.02.58,2.68.91,4.2,1.55Z"/>
      <path class="cls-1" d="M101.47,38.22c-1.93-2.1-2.34-3.87-1.85-6.28.25-1.22.23-3.25-.18-4.23,2.37,1.54,3.11,3.35,3.25,5.11.14,1.76-.45,3.62-1.23,5.39Z"/>
      <path class="cls-1" d="M95.66,141.83c-1.11-2.49-.83-5.36-.15-7.47.38-1.18.7-2.48.92-4.13,1.9,2.1,2.14,4.04,1.82,5.78-.32,1.74-1.43,3.78-2.59,5.82Z"/>
      <path class="cls-1" d="M69.54,190.43c1.44-2.75,4.21-4.54,6.58-5.43,1.33-.5,2.72-1.13,4.35-2.1-.53,3.18-2.1,4.78-3.88,5.72-1.79.94-4.39,1.4-7.04,1.81Z"/>
      <path class="cls-1" d="M100.93,230.99c-1.72-2.59-1.96-5.87-1.61-8.37.2-1.41.32-2.93.24-4.83,2.54,2,3.19,4.13,3.15,6.15-.03,2.02-.88,4.52-1.79,7.05Z"/>
      <path class="cls-1" d="M82.52,43.43c.08,3.2-.87,5-3.05,6.67-1.11.85-2.59,2.58-2.97,3.71-.88-3.05-.17-5.13,1.01-6.72,1.18-1.59,3.05-2.73,5.01-3.66Z"/>
      <path class="cls-1" d="M79.32,34.26c-.1-3.37-.63-6.57-2.75-8.54-.6,2.11-1.2,3.64-.48,5.28.43.98,1.71,2.53,3.22,3.26Z"/>
      <path class="cls-1" d="M77.2,25.07c2.99-1.13,5.01-.83,7.31.68,1.17.77,3.29,1.59,4.48,1.57-2.59,1.84-4.79,1.85-6.68,1.26-1.89-.59-3.59-1.98-5.11-3.52Z"/>
      <path class="cls-1" d="M80.55,3.95c-1.67,2.93-2.88,5.94-2.11,8.72,1.61-1.48,2.92-2.48,3.16-4.26.14-1.06-.14-3.04-1.05-4.46Z"/>
      <path class="cls-1" d="M76.92,12.1c-3-1.11-4.33-2.66-5.08-5.3-.38-1.34-1.44-3.36-2.36-4.13,3.16.31,4.83,1.74,5.87,3.42,1.04,1.69,1.41,3.84,1.56,6.01Z"/>
      <path class="cls-1" d="M99.43,99.39c.08,3.2-.87,5-3.05,6.67-1.11.85-2.59,2.58-2.97,3.71-.88-3.05-.17-5.13,1.01-6.72,1.18-1.59,3.05-2.73,5.01-3.66Z"/>
      <path class="cls-1" d="M92.37,48.32c-2.2-2.68-4.65-4.94-7.61-5.21.84,2.09,1.32,3.71,2.94,4.59.97.53,2.98.98,4.67.62Z"/>
      <path class="cls-1" d="M84.85,42.15c1.36-2.22,2.81-3.03,5.04-3.2,1.13-.09,2.91-.62,3.67-1.22-.75,2.47-2.15,3.58-3.67,4.14-1.51.56-3.29.51-5.04.28Z"/>
      <path class="cls-1" d="M96.57,67.23c-2.2-2.68-4.65-4.94-7.61-5.21.84,2.09,1.32,3.71,2.94,4.59.97.53,2.98.98,4.67.62Z"/>
      <path class="cls-1" d="M89.05,61.07c1.36-2.22,2.81-3.03,5.04-3.2,1.13-.09,2.91-.62,3.67-1.22-.75,2.47-2.15,3.58-3.67,4.14-1.51.56-3.29.51-5.04.28Z"/>
      <path class="cls-1" d="M101.05,44.84c4-1.5,8.3-6.31,7.53-10.11-2.11,1.91-4.68,3.6-5.77,5.47-.65,1.12-1.04,2.97-1.76,4.63Z"/>
      <path class="cls-1" d="M129.59,29.43c4-1.5,8.3-6.31,7.53-10.11-2.11,1.91-4.68,3.6-5.77,5.47-.65,1.12-1.04,2.97-1.76,4.63Z"/>
      <path class="cls-1" d="M122.4,65.76c-3.11-2.45-7.84-3.57-12.36-2.12,3.36.79,5.1,2.24,7.82,2.75,1.27.24,3.21-.09,4.54-.63Z"/>
      <path class="cls-1" d="M135.62,97.73c1.49-4,.68-10.4-2.7-12.31.06,2.84-.35,5.9.35,7.95.42,1.23,1.56,2.73,2.35,4.37Z"/>
      <path class="cls-1" d="M172.58,99.37c-2.46-2.77-7.22-4.1-10.01-3.46,1.77,1.96,3.87,2.79,5.91,3.02,1.07.12,2.61.21,4.1.44Z"/>
      <path class="cls-1" d="M173.14,98.26c.64-3.76-1.23-8.93-4.34-9.81.6,2.29.87,4.84,1.84,6.36.58.91,1.48,2.27,2.5,3.46Z"/>
      <path class="cls-1" d="M95.01,78.91c.42,3.17-.34,5.07-2.33,6.96-1.01.96-2.3,2.84-2.56,4.01-1.2-2.94-.71-5.08.3-6.79,1.01-1.71,2.74-3.04,4.59-4.17Z"/>
      <path class="cls-1" d="M90.74,79.06c-4.14-1.06-10.42.42-11.96,3.98,2.82-.36,5.9-.27,7.86-1.19,1.18-.55,2.55-1.84,4.09-2.79Z"/>
      <path class="cls-1" d="M122.91,115.77c.42,3.17-.34,5.07-2.33,6.96-1.01.96-2.3,2.84-2.56,4.01-1.2-2.94-.71-5.08.3-6.79,1.01-1.71,2.74-3.04,4.59-4.17Z"/>
      <path class="cls-1" d="M70.48,105.54c.42,3.17-.34,5.07-2.33,6.96-1.01.96-2.3,2.84-2.56,4.01-1.2-2.94-.71-5.08.3-6.79,1.01-1.71,2.74-3.04,4.59-4.17Z"/>
      <path class="cls-1" d="M107.6,98.44c1.55,2.8,1.53,4.84.36,7.33-.59,1.26-1.11,3.49-.92,4.66-2.18-2.3-2.51-4.48-2.2-6.43.32-1.96,1.45-3.83,2.76-5.56Z"/>
      <path class="cls-1" d="M120.09,115.81c-4.14-1.06-10.42.42-11.96,3.98,2.82-.36,5.9-.27,7.86-1.19,1.18-.55,2.55-1.84,4.09-2.79Z"/>
      <path class="cls-1" d="M136.75,137.4c2.51,1.98,3.29,3.87,3.18,6.62-.06,1.4.33,3.64.96,4.65-2.91-1.27-4.05-3.15-4.52-5.08-.47-1.93-.15-4.09.39-6.19Z"/>
      <path class="cls-1" d="M131.66,134.75c-3.71,2.12-7.18,7.56-5.81,11.19,1.78-2.22,4.04-4.3,4.82-6.33.46-1.21.55-3.09.99-4.86Z"/>
      <path class="cls-1" d="M92.51,100.32c-4.14-1.06-10.42.42-11.96,3.98,2.82-.36,5.9-.27,7.86-1.19,1.18-.55,2.55-1.84,4.09-2.79Z"/>
      <path class="cls-1" d="M85.29,77.27c-3.33-2.68-9.66-3.93-12.53-1.33,2.72.84,5.48,2.2,7.65,2.18,1.3-.01,3.08-.62,4.88-.85Z"/>
      <path class="cls-1" d="M116.57,32.97c-3.33-2.68-9.66-3.93-12.53-1.33,2.72.84,5.48,2.2,7.65,2.18,1.3-.01,3.08-.62,4.88-.85Z"/>
      <path class="cls-1" d="M134.92,38.38c-3.77-2.24-8.7-6.16-12.25-4.6,1.76,1.91,3.55,3.19,5.62,3.85,1.23.4,4.23.83,6.64.75Z"/>
      <path class="cls-1" d="M188.45,127.43c-.31-4.26-3.71-9.74-7.58-10.07,1.24,2.56,2.14,5.51,3.63,7.08.89.94,2.55,1.83,3.95,2.99Z"/>
      <path class="cls-1" d="M190.04,127.45c2.62-3.38,3.76-9.72,1.1-12.56-.79,2.73-2.1,5.52-2.04,7.69.03,1.3.67,3.07.93,4.87Z"/>
      <path class="cls-1" d="M168.58,25.53c2.8,2.97,3.42,5.49,2.77,8.93-.33,1.75-.27,4.65.34,6.04-3.42-2.15-4.52-4.72-4.75-7.24-.23-2.52.57-5.19,1.64-7.73Z"/>
      <path class="cls-1" d="M167.56,25.46c-3.98,1.56-8.21,6.43-7.38,10.22,2.08-1.94,4.63-3.67,5.69-5.56.63-1.13.99-2.98,1.69-4.66Z"/>
      <path class="cls-1" d="M95.31,13.36c4.05-1.36,8.52-6,7.89-9.83-2.18,1.83-4.81,3.43-5.96,5.26-.69,1.1-1.14,2.93-1.92,4.57Z"/>
      <path class="cls-1" d="M114.75,6.75c4.09,1.23,10.43.02,12.11-3.48-2.83.24-5.91.03-7.91.86-1.2.5-2.62,1.73-4.21,2.62Z"/>
      <path class="cls-1" d="M199.82,31.91c-4.26.38-9.68,3.87-9.94,7.75,2.54-1.28,5.47-2.23,7.02-3.75.92-.91,1.79-2.58,2.93-4Z"/>
      <path class="cls-1" d="M223.47,34.07c-4.2-.8-10.37,1.05-11.69,4.7,2.79-.53,5.87-.63,7.78-1.67,1.14-.62,2.43-1.99,3.92-3.04Z"/>
      <path class="cls-1" d="M76.28,21.02c-4.18-.88-10.39.87-11.77,4.5,2.8-.48,5.88-.53,7.81-1.53,1.15-.6,2.47-1.95,3.97-2.97Z"/>
      <path class="cls-1" d="M209.81,12.78c-3.02,3.02-4.95,9.18-2.67,12.32,1.13-2.61,2.77-5.21,2.99-7.37.13-1.29-.28-3.13-.32-4.95Z"/>
      <path class="cls-1" d="M204.92,31.95c-1.28-4.08-5.85-8.63-9.69-8.06,1.79,2.21,3.34,4.87,5.16,6.06,1.08.71,2.91,1.2,4.53,2.01Z"/>
      <path class="cls-1" d="M223.29,20.26c-3.62-1.87-5.05-4.04-5.57-7.51-.27-1.76-1.29-4.48-2.32-5.59,3.94.89,5.83,2.96,6.88,5.26,1.05,2.3,1.17,5.08,1.01,7.84Z"/>
      <path class="cls-1" d="M224.27,19.99c3.24-2.79,5.62-8.78,3.58-12.08-1.32,2.52-3.15,4.99-3.53,7.13-.22,1.28.05,3.14-.05,4.96Z"/>
      <path class="cls-1" d="M93.81,283.03c3.74-1.63,6.32-1.36,9.34.41,1.53.9,4.29,1.82,5.8,1.72-3.18,2.5-5.97,2.66-8.42,2.02-2.45-.63-4.69-2.29-6.72-4.16Z"/>
      <path class="cls-1" d="M93.4,283.96c.12,4.27,3.27,9.9,7.12,10.4-1.12-2.61-1.89-5.6-3.31-7.23-.85-.98-2.47-1.94-3.81-3.17Z"/>
      <path class="cls-1" d="M185.08,244.89c-1.34,3.85-3.29,5.57-6.65,6.58-1.7.51-4.25,1.91-5.21,3.09.33-4.03,2.11-6.19,4.24-7.55,2.13-1.37,4.87-1.88,7.62-2.11Z"/>
      <path class="cls-1" d="M185.77,246.02c-1.88,4.48-3.08,8.98-1.48,12.82,2.04-2.4,3.73-4.06,3.76-6.64.02-1.55-.73-4.32-2.28-6.18Z"/>
      <path class="cls-1" d="M219.92,200.53c-.48,4.38-.35,8.62,2.04,11.55,1.16-2.62,2.21-4.5,1.57-6.75-.39-1.35-1.76-3.57-3.6-4.79Z"/>
      <path class="cls-1" d="M184.14,243.93c-3.22-2.81-9.49-4.32-12.47-1.84,2.68.95,5.39,2.42,7.55,2.49,1.3.04,3.1-.49,4.91-.65Z"/>
      <path class="cls-1" d="M145.19,201.41c3.6,1.91,5,4.1,5.49,7.57.25,1.76,1.24,4.49,2.26,5.61-3.93-.93-5.8-3.02-6.82-5.33-1.03-2.31-1.12-5.1-.93-7.85Z"/>
      <path class="cls-1" d="M144.74,201.78c-3.27,2.75-5.71,8.72-3.71,12.05,1.35-2.5,3.21-4.96,3.6-7.09.24-1.27-.02-3.14.1-4.96Z"/>
      <path class="cls-1" d="M223.73,156.98c-2.26,3.01-4.46,3.98-7.7,3.93-1.64-.03-4.28.49-5.45,1.26,1.42-3.46,3.59-4.86,5.85-5.47,2.26-.61,4.81-.29,7.3.28Z"/>
      <path class="cls-1" d="M223.86,155.49c-2.04-3.38-7.14-6.47-10.47-5.12,2.09,1.59,4.07,3.64,5.96,4.31,1.13.4,2.87.44,4.51.81Z"/>
      <path class="cls-1" d="M146.27,272.53c-4.07.24-6.4-.9-8.63-3.6-1.13-1.37-3.4-3.19-4.85-3.62,3.84-1.25,6.52-.44,8.6,1,2.08,1.44,3.61,3.77,4.88,6.22Z"/>
      <path class="cls-1" d="M146.06,273.02c-4.85,0-9.47.62-12.4,3.57,3,.96,5.18,1.88,7.57.92,1.43-.58,3.71-2.34,4.83-4.49Z"/>
      <path class="cls-1" d="M215.07,266.71c-4.85,0-9.47.62-12.4,3.57,3,.96,5.18,1.88,7.57.92,1.43-.58,3.71-2.34,4.83-4.49Z"/>
      <path class="cls-1" d="M146.62,271.57c1.36-4.05.34-10.42-3.1-12.22.15,2.84-.16,5.9.61,7.93.46,1.21,1.65,2.68,2.49,4.29Z"/>
      <path class="cls-1" d="M127.53,240.01c-4.07.24-6.4-.9-8.63-3.6-1.13-1.37-3.4-3.19-4.85-3.62,3.84-1.25,6.52-.44,8.6,1,2.08,1.44,3.61,3.77,4.88,6.22Z"/>
      <path class="cls-1" d="M127.87,239.05c1.36-4.05.34-10.42-3.1-12.22.15,2.84-.16,5.9.61,7.93.46,1.21,1.65,2.68,2.49,4.29Z"/>
      <path class="cls-1" d="M156.53,244.96c.83-4.19-.95-9.12-4.62-11.73.51,2.8.59,5.88,1.61,7.79.61,1.14,1.97,2.44,3.01,3.94Z"/>
      <path class="cls-1" d="M159.06,237.1c1.46-4.16-.2-8.81-2.98-11.4.13,2.48.14,5.89.81,7.66.4,1.06,1.3,2.27,2.17,3.74Z"/>
      <path class="cls-1" d="M162.02,241.44c2.13-3.7,7.16-6.09,11.2-5.78-2.23,1.77-4.31,4.03-6.34,4.8-1.21.46-3.1.54-4.86.98Z"/>
      <path class="cls-1" d="M158.58,247.29c3.17-2.86,10.1-3.56,13.54-1.82-2.16,1.99-5.84,2.87-8,2.97-1.29.06-3.57-.4-5.54-1.15Z"/>
      <path class="cls-1" d="M168.32,134.26c-.39,4.72,1.77,7.96,5.95,9.81-.39-3.32-.32-5.98-1.68-7.85-.89-1.24-2.77-2.08-4.27-1.95Z"/>
      <path class="cls-1" d="M198.19,221.52c-1.29,4.19.43,8.19,3.84,10.7.83-3.04.97-5.52.11-7.49-.56-1.3-2.57-2.74-3.95-3.21Z"/>
      <path class="cls-1" d="M198.4,167.13c4.64-.91,7.18-3.87,7.82-8.39-3.09,1.28-5.66,1.94-7.1,3.76-.95,1.2-1.24,3.24-.72,4.64Z"/>
      <path class="cls-1" d="M203.72,232.28c3.95-.78,6.78-3.42,7.33-7.27-2.63,1.09-4.82,1.65-6.05,3.2-.81,1.02-1.23,2.77-1.28,4.07Z"/>
      <path class="cls-1" d="M143.72,104.34c2.38,4.09,7.43,5.59,11.92,4.71-2.22-2.5-3.91-3.83-6.05-4.71-1.6-.66-4.15-.44-5.86,0Z"/>
      <path class="cls-1" d="M150.63,185.91c1.55,5.2,6.53,10.4,10.06,13.6.9-3.53-.57-7.1-2.21-8.74-2.43-2.43-5.53-3.87-7.85-4.87Z"/>
      <path class="cls-1" d="M134.54,118.89c4.56,1.25,9.22-1.22,11.8-4.99-3.34-.23-5.47.01-7.62.88-1.61.65-3.27,2.59-4.18,4.11Z"/>
      <path class="cls-1" d="M120.31,167.17c-2.88-2.98-6.26-2.76-9.92-1.99,2.12,1.72,4.14,3.48,6.16,3.67,1.33.13,2.97-.62,3.75-1.68Z"/>
      <path class="cls-1" d="M156.16,125.42c-.82,1.39-1.8,3.41-1.38,4.94s1.27,2.72,2.15,3.64c.48-1.74,1.5-2.89,1.45-4.4-.05-1.71-.95-2.97-2.23-4.18Z"/>
      <path class="cls-1" d="M155.48,124.63c-1.98-.14-4.21.11-5.45,1.12s-1.98,2.25-2.47,3.43c1.79-.26,3.25.22,4.62-.43,1.55-.73,2.18-2.69,3.3-4.11Z"/>
      <path class="cls-1" d="M155.22,123.57c-.58-1.62-2.27-3.14-3.81-3.54-1.54-.41-2.99-.28-4.23.01,1.26,1.3,1.87,2.28,3.19,3.01,1.5.82,2.91.59,4.84.52Z"/>
      <path class="cls-1" d="M164.29,122.53c1.31-1.11,2.2-2.88,2.05-4.47-.15-1.59-.77-2.9-1.47-3.96-.78,1.63-1.99,2.58-2.21,4.08-.25,1.69.58,2.93,1.63,4.35Z"/>
      <path class="cls-1" d="M172.14,119.34c-1.72-.05-3.56.68-4.5,1.97-.94,1.29-1.35,2.68-1.54,3.94,1.67-.7,3.2-.61,4.36-1.58,1.31-1.1,1.52-2.58,1.68-4.33Z"/>
      <path class="cls-1" d="M184.23,184.72c-.11-1.72-1-3.48-2.37-4.3-1.37-.82-2.79-1.1-4.06-1.17.84,1.6.89,3.13,1.97,4.2,1.21,1.21,2.7,1.28,4.47,1.28Z"/>
      <path class="cls-1" d="M189.14,176.83c-1.57.71-2.9,2.17-3.19,3.73-.29,1.57-.05,3,.33,4.21,1.2-1.35,2.62-1.94,3.24-3.32.7-1.56.24-2.98-.38-4.63Z"/>
      <path class="cls-1" d="M201.95,134.81c-2.13.61-4.87,2.23-5.54,4.17-.66,1.94-.63,3.81-.36,5.43,1.78-1.5,3.69-1.98,4.75-3.62,1.19-1.85,1.21-3.88,1.15-5.98Z"/>
      <path class="cls-1" d="M210.74,138.79c-2.15-.51-5.75-.14-7.28,1.23-1.53,1.37-2.41,3.02-2.97,4.56,2.28-.44,4.06-.23,5.91-.84,2.07-.69,3.56-2.96,4.34-4.95Z"/>
      <path class="cls-1" d="M79.33,218.34c-2.2-.26-5.16-1.44-6.12-3.25s-1.21-3.67-1.21-5.3c1.99,1.2,3.96,1.38,5.25,2.83,1.46,1.64,1.8,3.64,2.08,5.72Z"/>
      <path class="cls-1" d="M69.22,211.02c.89,2.02,1.19,5.63.11,7.38-1.07,1.75-2.53,2.92-3.94,3.75.02-2.32-.52-4.03-.25-5.96.3-2.16,2.26-4.04,4.08-5.17Z"/>
      <path class="cls-1" d="M180.31,288.3c1.73,1.37,4.65,2.65,6.62,2.06,1.96-.6,3.46-1.72,4.62-2.87-2.25-.57-3.76-1.84-5.71-1.74-2.2.12-3.85,1.28-5.53,2.56Z"/>
      <path class="cls-1" d="M184.63,275.48c-.31,2.19.38,5.74,1.88,7.14s3.22,2.12,4.81,2.54c-.64-2.23-.59-4.02-1.37-5.81-.87-2-3.27-3.28-5.32-3.87Z"/>
      <path class="cls-1" d="M93.52,13.69c-3.07-3.6-3.64-6.55-2.69-10.5.21-.88.35-2.03.38-3.18h3.28c.94,1.59,1.31,3.23,1.38,4.83.12,2.93-.97,5.97-2.35,8.86Z"/>
      <path class="cls-1" d="M90.79,293.81c1.74,1.22,2.92,2.51,3.7,3.84h-3.28c.04-1.46-.07-2.92-.42-3.84Z"/>
      <path class="cls-1" d="M223.82,90.38c1.46-2.08,4.53-3.55,7.86-4.33v4.24c-2.8,1.01-5.38.72-7.86.08Z"/>
      <path class="cls-1" d="M70.12,85.43c-1.78,1.25-4.01,3.55-5.36,4.24-.49.25-.98.45-1.45.62v-4.24c2.29-.54,4.7-.75,6.82-.62Z"/>
      <path class="cls-1" d="M70.91,134.31c-2.7,2.82-4.92,3.84-7.6,3.88v-6.41c2.81-.23,5.12,1.03,7.6,2.53Z"/>
      <path class="cls-1" d="M230.8,131.88c.3-.06.59-.08.88-.1v6.41c-.67,0-1.37-.04-2.11-.15-2.29-.32-5.29-.01-7.12.73,2.42-4.47,5.12-6.29,8.35-6.9Z"/>
      <path class="cls-1" d="M69.25,28.83c-1.18,3.61-2.95,5.32-5.95,6.37v-4.94c1.78-.82,3.86-1.21,5.95-1.43Z"/>
      <path class="cls-1" d="M230.28,31.02c.44-.29.91-.54,1.4-.77v4.94c-.13.04-.24.09-.37.14-1.64.53-4.09,1.94-4.99,3.1.24-3.91,1.92-6.04,3.96-7.41Z"/>
      <path class="cls-1" d="M163.13,292.54c.05,1.99-.2,3.65-.69,5.11h-6.29s0-.02.01-.03c1.45-2.6,4.22-4.14,6.97-5.08Z"/>
      <path class="cls-1" d="M159.73,4.41c-1.43,1.52-3.35,4.35-3.69,6.1-1.9-4.35-1.34-7.9.09-10.5h6.29c-.57,1.67-1.47,3.09-2.7,4.4Z"/>
      <path class="cls-1" d="M166.39,289.09c3.42,1.31,4.5,2.64,5.94,5.73.33.7.53,1.74.74,2.83h-4.7c-.29-.37-.55-.76-.77-1.16-1.13-2-1.32-4.68-1.21-7.41Z"/>
      <path class="cls-1" d="M66.67,180.4c1.59.26,3.32.42,5.47.38-2.32,2.84-4.76,3.53-7.04,3.45-.57-.02-1.17-.1-1.79-.22v-3.79c1.19-.06,2.34.02,3.36.18Z"/>
      <path class="cls-1" d="M226.44,182.05c1.89-1.21,3.16-1.73,5.24-1.83v3.79c-1.9-.37-3.27-.91-5.24-1.96Z"/>
      <path class="cls-1" d="M65.83,284.94c1.89.4,3.65,1.6,5.27,2.95-2.8,1.37-4.78,1.25-7.14,0-.19-.1-.42-.2-.65-.3v-2.72c.88-.14,1.73-.09,2.52.08Z"/>
      <path class="cls-1" d="M227.84,286.77c1.35-1.16,2.63-1.71,3.84-1.9v2.72c-1.22-.51-2.87-.93-3.84-.82Z"/>
      <path class="cls-1" d="M228.56,206.51c.75-.29,1.88-.49,3.12-.51v3.41c-2.54,1.83-5.21,3.04-8.04,2.92,1.55-2.74,2.52-4.91,4.93-5.82Z"/>
      <path class="cls-1" d="M66.8,206.51c-1.13,1.05-2.29,2.04-3.48,2.9v-3.41c1.15-.02,2.38.12,3.48.51Z"/>
      <path class="cls-1" d="M145.13,239.34c-4.29,2.58-7.9,2.21-10.24.85.32-1.61-1.52-2.25-2.28-1.45-.6.62-.67,1.56.44,2.39s4.33,1.78,6.63,1.34,3.98-1.36,5.44-3.14Z"/>
      <path class="cls-1" d="M77.1,288.04c-3-4.01-2.99-7.64-1.88-10.1,1.63.16,2.09-1.74,1.21-2.41-.68-.53-1.62-.5-2.34.68-.72,1.18-1.34,4.49-.67,6.74.67,2.25,1.75,3.82,3.67,5.1Z"/>
      <path class="cls-1" d="M72.82,158.53c2.41-.25,4.49.26,5.91,1.31,1.28.95,2.03,2.35,2.01,4.06-1.35.94-.7,2.59.4,2.54.86-.04,1.54-.96,1.58-2.35.06-2.1-1.52-4.4-3.64-5.41-2.07-.98-3.93-1.05-6.26-.15Z"/>
      <path class="cls-1" d="M108.93,206.17c.78-2.29,2.1-3.97,3.65-4.83,1.4-.77,2.98-.87,4.53-.14.29,1.61,2.06,1.72,2.47.69.32-.8-.24-1.8-1.48-2.41-1.89-.92-4.64-.45-6.43,1.06-1.76,1.48-2.59,3.13-2.74,5.63Z"/>
      <path class="cls-1" d="M195.75,282.49c1.3-2.04,2.99-3.36,4.7-3.81,1.54-.41,3.1-.13,4.43.95-.1,1.64,1.59,2.16,2.24,1.26.51-.7.2-1.81-.86-2.7-1.61-1.35-4.39-1.55-6.49-.51-2.06,1.01-3.26,2.42-4.01,4.81Z"/>
      <path class="cls-1" d="M76.74,241.54c2.41.25,4.49-.26,5.91-1.31,1.28-.95,2.03-2.35,2.01-4.06-1.35-.94-.7-2.59.4-2.54.86.04,1.54.96,1.58,2.35.06,2.1-1.52,4.4-3.64,5.41-2.07.98-3.93,1.05-6.26.15Z"/>
      <path class="cls-1" d="M191.15,244.36c2.41.25,4.49-.26,5.91-1.31,1.28-.95,2.03-2.35,2.01-4.06-1.35-.94-.7-2.59.4-2.54.86.04,1.54.96,1.58,2.35.06,2.1-1.52,4.4-3.64,5.41-2.07.98-3.93,1.05-6.26.15Z"/>
      <path class="cls-1" d="M198.19,73.2c2.56,2.94,2.34,6.25,1.18,8.15-1.32-.29-1.88,1.22-1.24,1.86.51.5,1.25.55,1.98-.33.94-1.11,1.63-3.6,1.08-5.46-.54-1.86-1.43-3.16-3.01-4.23Z"/>
      <path class="cls-1" d="M196.86,147.65c3.7,1.21,5.21,4.17,5.19,6.4-1.29.43-1,2.01-.11,2.23.69.17,1.3-.18,1.54-1.29.43-2.01-.45-3.93-1.86-5.24-1.42-1.32-2.85-1.98-4.75-2.09Z"/>
      <path class="cls-1" d="M215.44,176.77c3.7,1.21,5.21,4.17,5.19,6.4-1.29.43-1,2.01-.11,2.23.69.17,1.31-.17,1.54-1.3.38-1.86-.45-3.93-1.86-5.24-1.42-1.32-2.85-1.98-4.75-2.09Z"/>
      <path class="cls-1" d="M224.99,71.92c-3.18-2.25-3.74-5.52-3.06-7.65,1.36-.03,1.55-1.62.76-2.1-.61-.37-1.34-.24-1.85.78-.65,1.3-.74,3.88.23,5.56.97,1.68,2.14,2.74,3.92,3.4Z"/>
      <path class="cls-1" d="M134.4,112.14c2.56-2.94,2.34-6.25,1.18-8.15-1.32.29-1.88-1.22-1.24-1.86.51-.5,1.25-.55,1.98.33.94,1.11,1.63,3.6,1.08,5.46-.54,1.86-1.43,3.16-3.01,4.23Z"/>
      <path class="cls-1" d="M81.89,111.51c-1.69,3.51-.6,6.64,1.02,8.18,1.2-.63,2.14.67,1.68,1.47-.35.62-1.06.86-2,.21-1.2-.82-2.52-3.04-2.49-4.98s.54-3.43,1.79-4.88Z"/>
      <path class="cls-1" d="M180.03,163.13c-1.69,3.51-.6,6.64,1.02,8.18,1.2-.63,2.14.67,1.68,1.47-.35.62-1.06.86-2,.21-1.2-.82-2.52-3.04-2.49-4.98.03-1.94.54-3.43,1.79-4.88Z"/>
      <path class="cls-1" d="M185.32,36.54c-1.26-5.46-5.3-7.99-8.5-8.25-.77,1.79-3,1.17-3.21-.13-.16-1.01.41-1.91,2.05-2.04,2.08-.15,5.56,1.14,7.27,3.34,1.7,2.2,2.47,4.33,2.38,7.07Z"/>
      <path class="cls-1" d="M181.61,109.13c3.29,2.09,6.53,1.37,8.24-.07-.49-1.26.92-2.05,1.65-1.5.57.42.73,1.15-.02,2.01-.96,1.09-3.31,2.15-5.23,1.9-1.92-.26-3.34-.94-4.64-2.34Z"/>
      <path class="cls-1" d="M65.52,175.37c-.68,0-1.46-.07-2.22-.2v-5.17c1.29,1.43,2.14,3.22,2.22,5.37Z"/>
      <path class="cls-1" d="M231.68,170v5.17c-1.24-.22-2.47-.64-3.25-1.3-2.1-1.76-2.32-4.27-2.92-7.57,2.33.7,4.58,1.93,6.17,3.69Z"/>
    </g>
  </g>
</svg>