<?xml version="1.0" encoding="UTF-8"?>
<svg id="Layer_2" data-name="Layer 2" xmlns="http://www.w3.org/2000/svg" viewBox="0 0 168.38 297.63">
  <defs>
    <style>
      .cls-1 {
        fill: #eceff2;
      }

      .cls-2 {
        fill: #c9c9df;
      }

      .cls-3 {
        fill: #fcfcfc;
      }

      .cls-4 {
        fill: #dcdcdc;
      }
    </style>
  </defs>
  <g id="Seamless_Floral_Pattern_6" data-name="Seamless Floral Pattern 6">
    <g>
      <rect class="cls-1" y="0" width="168.38" height="297.62" transform="translate(168.38 297.63) rotate(180)"/>
      <g>
        <g>
          <g>
            <path class="cls-3" d="M121.36,100.21c-.22-.38-1.3-.9-1.87-.68-1.22.48-2.52.36-3.05,1.75-.53,1.39-1.02,2.81-1.17,4.03-.15,1.19-.12,2.21.07,2.74.85.87,2.05,2.02,4.11,2.41.06-.76.22-1.28.46-1.74-1.26-1.46-1.88-1.76-1.88-3.35s.15-2.77.8-3.49c.69-.77,1.62-1.47,2.54-1.67Z"/>
            <path class="cls-3" d="M122.48,104.39c.39-.88.94-1.04,1.83-.6.9.45,1.89,1.74,1.99,2.64-1.14,1.14-2.89,1.44-3.63,1.39-.7-1.19-.51-2.7-.19-3.43Z"/>
            <path class="cls-3" d="M124.36,103.15c1.1.23,2.45,1.57,3.02,2.19.75-.85,1.51-1.54.86-2.59s-2.39-1.34-3.18-1.14c-.7-.42-1.81-.75-2.64-.7-1.3.08-1.95.11-2.74,1.74-.86,1.79-1.06,2.61-.56,3.46.44.75.87,1.78.97,2.23.41-.42,1.01-.53,1.47-.51-.53-1.65-.33-2.99.46-3.93.8-.95,1.38-.95,2.34-.75Z"/>
            <path class="cls-3" d="M122.33,99.94c.95-.07,2.15.31,2.69.85,2.02-.56,3.23.2,3.83.87.64.72.7,1.77.25,2.86-.45,1.09-2.4,2.81-3.19,3.06-.8.25-2.31.71-3.36.68-.95-.02-1.32.17-1.74.57-.46.44-.83,1.18-.98,1.68,2.09.41,4.6,2.2,7.04,1.62.62-.15,2.25-.51,3.31-.44-.02-1.28.2-2.41.7-3.19.72-1.12,1.05-2.07,1.02-2.69-.07-1.79-.97-4.33-1.45-6.18-.4-1.53-.95-2.52-2.59-3.32-1.64-.8-2.95-.08-3.65.56-.7.65-1.58,2.09-1.87,3.06Z"/>
            <path class="cls-3" d="M121.71,99.59c.3-.75,1.41-2.07,1.71-2.46-.9-1.49-1.64-1.94-3.13-1.54s-3.53,1.64-4.73,2.79c-1.19,1.14-1.98,2.81-2.19,4.43-.14,1.09-.15,2.99.7,4.03.21-1.64.41-2.75.85-4.01.41-1.14,1.14-2.41,1.98-2.96.85-.55,1.53-1.12,2.62-1.02.86.08,1.67.3,2.19.75Z"/>
            <path class="cls-3" d="M132.43,113.31c-1.23,1.36-2.22,2.44-3.78,3.01-3.52,1.13-9.22-.85-11.16-2.35-2-1.54-3.38-3.78-3.63-6.32,2.04,2.71,4.33,3.11,5.82,3.36,1.59.26,3.18,1.63,5.34,2.13,1.37.32,2.69.02,4.23-.66.82-.36,1.78-.11,2.26.12.61.29.81.43.93.72Z"/>
          </g>
          <g>
            <path class="cls-3" d="M112.65,31.94c.04-.44-.55-1.49-1.14-1.63-1.27-.31-2.27-1.15-3.5-.32-1.23.84-2.45,1.72-3.27,2.63-.8.89-1.37,1.74-1.51,2.28.19,1.2.52,2.83,1.98,4.33.49-.59.92-.92,1.38-1.16-.2-1.92-.53-2.52.38-3.82.91-1.3,1.71-2.18,2.65-2.4,1.01-.24,2.17-.27,3.03.09Z"/>
            <path class="cls-3" d="M111.17,36.01c.83-.5,1.37-.32,1.84.56.48.88.55,2.51.12,3.3-1.59.28-3.19-.47-3.77-.94.11-1.38,1.13-2.51,1.81-2.92Z"/>
            <path class="cls-3" d="M113.42,36.07c.77.82,1.1,2.69,1.22,3.53,1.1-.26,2.12-.4,2.19-1.62s-1.19-2.47-1.95-2.76c-.33-.75-1.06-1.65-1.76-2.08-1.11-.68-1.66-1.03-3.24-.14-1.73.97-2.37,1.53-2.45,2.51-.07.87-.31,1.96-.48,2.38.58-.11,1.13.14,1.49.42.51-1.66,1.44-2.64,2.64-2.95,1.19-.32,1.67.02,2.34.73Z"/>
            <path class="cls-3" d="M113.6,32.27c.82.48,1.58,1.49,1.72,2.23,1.97.7,2.54,2.02,2.64,2.91.11.96-.44,1.85-1.44,2.49-.99.64-3.58.93-4.37.67-.79-.25-2.3-.74-3.15-1.37-.77-.56-1.18-.61-1.75-.53-.63.09-1.36.49-1.77.81,1.48,1.54,2.5,4.44,4.84,5.36.6.23,2.13.87,2.96,1.54.71-1.06,1.54-1.87,2.4-2.22,1.23-.5,2.04-1.09,2.38-1.62.97-1.51,1.69-4.1,2.36-5.89.55-1.48.67-2.61-.22-4.2-.89-1.59-2.37-1.76-3.31-1.63s-2.5.8-3.28,1.44Z"/>
            <path class="cls-3" d="M113.29,31.63c.67-.44,2.34-.88,2.81-1.04.12-1.74-.23-2.53-1.68-3.06-1.45-.53-3.84-.68-5.47-.43-1.63.25-3.24,1.17-4.33,2.37-.74.81-1.83,2.36-1.74,3.7,1.11-1.23,1.91-2.02,3-2.79.99-.7,2.32-1.32,3.32-1.29,1.01.04,1.9-.04,2.73.67.66.55,1.19,1.2,1.37,1.87Z"/>
            <path class="cls-3" d="M114.2,49.02c-1.79.41-3.22.72-4.82.29-3.53-1.09-7.06-5.99-7.8-8.33-.76-2.41-.6-5.04.65-7.26.12,3.39,1.76,5.03,2.84,6.09,1.15,1.13,1.67,3.17,3.15,4.81.94,1.05,2.19,1.55,3.84,1.88.88.18,1.52.93,1.78,1.39.33.59.42.82.35,1.12Z"/>
            <path class="cls-3" d="M114.9,48.85c.39.09,1.46-.03,1.94-.12,3.05-.54,3.14-1.93,3.72-3.47.59-1.53,1.04-2.18,1.95-4.06.91-1.87-.38-4.39-1.64-5.02-.19,1.45-.45,2.67-.67,3.91-.21,1.16-.34,2.92-1.72,4.23-.64.61-1.71.73-2.58.88-.69.12-1.58,1.11-1.99,1.78.54.61.88,1.23.97,1.87Z"/>
          </g>
          <g>
            <path class="cls-3" d="M1.19,95.85c-.16-1.31.38-1.89,1.75-1.98s3.45.74,4.19,1.72c-.55,2.15-2.4,3.71-3.32,4.18-1.65-.92-2.49-2.83-2.62-3.92Z"/>
            <path class="cls-3" d="M19.34,98.48c.34-.44.79-1.84.96-2.49,1.06-4.11-.64-5.01-2.22-6.61-1.58-1.6-2.13-2.54-3.96-4.74-1.83-2.2-5.69-2.01-7.2-.81,1.69,1.06,3.08,2.08,4.49,3.05,1.33.92,3.45,2.08,4.31,4.54.4,1.15-.06,2.55-.36,3.72-.24.93.49,2.6,1.09,3.49,1.06-.32,2.03-.4,2.88-.16Z"/>
          </g>
          <g>
            <path class="cls-3" d="M31.86,19.74c-.27-1.22-.87-2.28-2.81-2.01s-3.95,0-5.29,1.79c-1.35,1.79-2.55,2.38-3.15,4.07-.59,1.7-1.22,4.22-1.15,5.07.74,1.51,3.43,2.85,5.3,4.64.32-1.34.55-1.75,1.19-2.19-1.15-1.57-2.11-3.27-1.45-5.57.66-2.3,1.45-3.88,2.74-4.75s3.05-1.38,4.61-1.06Z"/>
            <path class="cls-3" d="M34.58,24.99c.09-1.92-.02-3.43-1.87-4.04-1.55-.51-3.07-.61-4.68,1.38-1.71,2.12-2.75,3.33-2.42,4.6.34,1.26,1.05,3,1.01,3.69.9-.47,1.62.07,2.77.35-1.82-3.57-.27-5.37,1.27-6.41,1.54-1.03,3.32-.43,3.92.44Z"/>
            <path class="cls-3" d="M31.17,26.03c1.18-.97,2.17-.97,3.07-.13,1.1,1.02,1.81,3.39,1.58,4.73-2.13,1.18-4.47.79-5.65.57-.51-2.02.17-4.5.99-5.17Z"/>
            <path class="cls-3" d="M37.44,29.94c1.43-.91,3.42-2.13,2.92-3.91s-3.27-3.11-4.5-3.16c.17,1,.15,2.12-.24,2.88.83,1.72,1.87,3.5,1.83,4.19Z"/>
            <path class="cls-3" d="M33.41,20.2c.99.36,2.02.75,2.42,1.8,2.25.57,5.23,1.5,5.99,3.14.61,1.32.17,2.87-1.01,4.05-1.26,1.26-4.31,2.58-5.84,2.83-1.24.2-3.62.12-5.02-.13-1.41-.25-2.01-.58-2.79-.03-.78.55-1.35,1.17-1.77,1.82,2.6,2.31,6.49,5.3,10.2,4.58,3.71-.72,8.49-3.24,9.07-5.25s-.31-7.37-.24-10.24c.06-2.37,1.06-5.2-.98-7.03-2.04-1.83-5.19-.54-6.47.11-1.28.64-3.09,3.27-3.54,4.34Z"/>
            <path class="cls-3" d="M32.29,18.57c.84-1.08,2.66-2.41,3.44-2.68-.67-2.53-1.56-3.49-3.89-3.53-2.32-.05-5.79.9-7.99,2.05s-4.23,3.37-5.01,5.48c-.57,1.55-1.4,4.24-.67,6.11,1.05-2.79,1.98-4.52,3.29-6.18.95-1.2,2.29-2.04,3.71-2.7,1.37-.64,3.15-.89,4.38-.61,1.26.29,2.26.96,2.74,2.04Z"/>
            <path class="cls-3" d="M45.2,23.07c2.1.29,4.71,1.51,4.33,4.62-.38,3.11-.71,4.26-.8,6.72-.09,2.47.47,4.49-3.61,6.74-4.07,2.25-8.28,2.8-11.78,3.04-3.01-2.97-6.61-4.86-9.72-6.09-3.02-1.2-3.57-3.72-3.12-6.41,1.55.95,2.76,1.7,4.17,2.94,1.41,1.24,5.33,4.55,7.43,4.84,2.1.29,5.24.19,7.83-.94,2.11-.92,4.1-1.9,5.38-4.18,1.18-2.09,1.07-6.23.73-7.57-.34-1.34-.74-2.65-.85-3.72Z"/>
            <path class="cls-3" d="M32.88,44.76c-1.52,1.87-2.8,2.26-5.69,1.85-2.89-.42-5.76-1.07-7.97-3.48-2.05-2.23-2.9-5.5-2.99-7.61-.08-1.74.06-4.88-.45-6.17-.93-2.3-.45-3.58.55-4.54.86,1.7,1.13,2.86,1.65,5.39.51,2.54.3,4.68,2.49,7.27,1.94,2.29,3.61,2.7,6.53,3.69,2.49.85,4.29,2.24,5.88,3.59Z"/>
            <path class="cls-3" d="M28.12,12.32c-.67-2.37-3.21-5.44-5.56-5.19-2.36.25-6.24,4.01-7.55,6.02-1.31,2.01-2.49,3.95-2.3,5.46-1.52.6-2.24.91-2.53,2.28-.29,1.37-.31,3.96.99,5.58,1.3,1.62,2.6,1.79,3.6,3.01-1.02-2.88-.99-4.2-.37-5.27.62-1.07,1.64-1.63,2.6-2.08.79-2.31.76-5.17,3.34-7.64,2.58-2.47,4.95-2.73,7.8-2.17Z"/>
            <path class="cls-3" d="M14.68,32.55c-.89-1.61-3.24-4.98-4.09-5.64-1.71.54-2.11,1.29-3.57,2.74-1.46,1.45-1.88,1.84-1.01,3.86s.57,3.07.88,4.51c.31,1.44,3.32,3.24,5.09,3.96,1.77.72,3.86.46,5.07.09-2.17-3.24-2.47-5.78-2.37-9.53Z"/>
          </g>
          <path class="cls-3" d="M6.09,233.77c.93.39,1.51,1.64,1.44,2.7-.18,2.49.41,3.31,1.2,4.69,1.02,1.78,1.57,3.92.89,5.56s-2.86,3.77-5.53,4.91c3.2-3.27,3.91-6.62,2.95-9.38-.87-2.49-3.87-5.73-4.02-7.92.85.07,1.95-1.04,3.09-.56Z"/>
          <g>
            <path class="cls-3" d="M106,137.34c.19-.4,1.25-1.01,1.84-.82,1.26.39,2.57.18,3.21,1.55.63,1.37,1.23,2.77,1.47,3.99.23,1.19.28,2.22.12,2.77-.79.94-1.93,2.18-3.98,2.73-.12-.76-.32-1.28-.59-1.73,1.17-1.56,1.77-1.91,1.66-3.52-.11-1.61-.35-2.79-1.05-3.47-.75-.73-1.74-1.37-2.68-1.5Z"/>
            <path class="cls-3" d="M105.17,141.64c-.46-.87-1.02-.99-1.89-.47-.87.52-1.79,1.89-1.82,2.8,1.24,1.07,3.02,1.25,3.77,1.15.62-1.26.33-2.76-.05-3.48Z"/>
            <path class="cls-3" d="M103.18,140.52c-1.1.31-2.36,1.76-2.89,2.42-.81-.8-1.63-1.45-1.05-2.55.58-1.1,2.32-1.53,3.14-1.38.68-.48,1.78-.88,2.61-.89,1.31-.01,1.98-.03,2.89,1.57,1,1.75,1.26,2.56.81,3.45-.39.79-.75,1.86-.82,2.32-.44-.4-1.06-.47-1.52-.41.42-1.71.12-3.04-.75-3.94-.87-.9-1.46-.86-2.41-.59Z"/>
            <path class="cls-3" d="M105,137.13c-.96,0-2.15.47-2.65,1.04-2.07-.42-3.25.43-3.81,1.15-.6.77-.58,1.83-.05,2.91.53,1.07,2.62,2.67,3.44,2.86s2.38.55,3.44.45c.96-.09,1.34.08,1.8.45.5.41.93,1.13,1.11,1.63-2.08.56-4.49,2.55-7,2.13-.64-.11-2.31-.35-3.37-.21-.07-1.29-.37-2.42-.93-3.18-.81-1.08-1.2-2.01-1.22-2.64-.05-1.81.67-4.44,1.03-6.34.29-1.57.78-2.61,2.38-3.53,1.6-.92,2.98-.29,3.73.31.75.6,1.75,2,2.1,2.96Z"/>
            <path class="cls-3" d="M105.6,136.73c-.35-.73-1.57-1.99-1.9-2.37.8-1.57,1.52-2.08,3.06-1.78,1.54.3,3.68,1.41,4.97,2.48,1.29,1.07,2.2,2.7,2.52,4.32.22,1.09.36,3-.42,4.12-.33-1.64-.61-2.75-1.15-3.99-.49-1.13-1.32-2.36-2.21-2.85-.89-.49-1.63-1.02-2.72-.84-.86.14-1.66.42-2.16.91Z"/>
            <path class="cls-3" d="M95.75,151.35c1.34,1.29,2.42,2.31,4.03,2.77,3.63.89,9.25-1.52,11.11-3.16,1.92-1.7,3.15-4.06,3.22-6.64-1.87,2.88-4.15,3.45-5.64,3.8-1.58.38-3.1,1.88-5.24,2.53-1.36.42-2.71.21-4.32-.37-.86-.31-1.81.02-2.27.28-.6.34-.79.49-.89.79Z"/>
            <path class="cls-3" d="M95.23,150.84c-.39-.12-1.25-.79-1.63-1.11-2.37-2.06-1.71-3.31-1.42-4.95.29-1.64.23-2.44.42-4.54.19-2.1,2.62-3.61,4.04-3.51-.59,1.35-1,2.55-1.45,3.74-.43,1.12-1.22,2.71-.72,4.57.24.87,1.1,1.53,1.78,2.11.54.47.79,1.79.8,2.58-.78.25-1.4.61-1.82,1.11Z"/>
          </g>
          <g>
            <path class="cls-2" d="M0,187.93v5.03c.82,2.24,1.79,4.41,2.79,5.93.33-.14.68-.24,1.05-.27.14-.01.29-.03.43-.05,0-.14-.03-.28-.12-.41-.23-.34-.46-.73-.69-1.15,8.39-3.97,14.31-14.95,14.84-27.78.48-11.54,1.72-24.63,10.56-33.78,6.14-6.36,20.05-12.75,31.72-14.71-.03-.05-.07-.11-.09-.15-.2-.32-.37-.65-.49-1-11.13,1.96-24.17,7.83-30.85,13.89-.19-2.2-.82-4.79-1.55-7.32.24-1.09,1.37-3.48,2.95-4.47,1.8.49,4.72.69,6.47-.39,2-1.23,3.25-2.71,4-4.44.68-1.57,1.31-3.29.98-5.28-1.11,1.33-2.74,1.99-4.47,2.2-1.73.2-3.65,1.19-5.13,2.72-1.36,1.41-2,2.86-2.24,4.66-1.25.83-2.38,2.25-3.02,3.5-.13-.42-.27-.84-.4-1.23-.26-.77-.77-2-1.42-3.46-.26-1.19-.42-2.86-.33-4.31,3.9-1.4,8.51-3.75,10.83-5.32,1.48-.99,3.45-2.58,5.07-4.24.81-.25,2.79-.31,4,.36.18,1.39.66,2.5,1.71,3.56,1.11,1.12,2.53,1.83,3.81,1.97,1.28.14,2.49.61,3.32,1.58.22-1.47-.25-2.74-.77-3.89-.57-1.26-1.5-2.35-2.99-3.24-1.33-.79-3.34-.76-4.66-.36-1.01-.61-2.48-.86-3.63-.81.23-.24.45-.48.65-.72.52-.59,1.21-1.42,1.95-2.37.99-.78,2.6-1.59,3.53-1.8,1.34,1.86,4.21,3.04,6.25,2.16,2.15-.92,3.36-2.39,4.97-5.61-1.85.61-4.75-.51-7.36.27-1.86.56-3.35,1.78-3.93,2.67-.6.07-1.43.27-2.26.71,1.27-1.75,2.4-3.85,3.22-5.52.12-.24.38-.78.52-1.08.06.67.23,1.7.3,2.26.3-1.44.59-2.6.79-2.91,1.11,1.83,3.78,2.77,5.26,2.82-2.01-.88-2.86-1.96-2.97-2.53-.07-.35-.06-1.07.27-1.34-.53-.35-1.42-1.1-1.73-1.41-1.25.58-3.49.72-3.49.72-.81.14-1.34.64-1.83,1.37-.55.82-.97,1.68-2.84,2.45,1.7.45,3.66-.06,4.45-.82.36-.34.92-.98,1.38-1.5-.27.6-.54,1.2-.77,1.66-1.6,3.25-4.79,7.36-6.42,9.19-.51.57-1.09,1.18-1.7,1.79.43-1.44.74-3.24.74-4.77,1.32-1.96,2.11-3.85,1.76-6.1-.37-2.36-1.6-5.54-3.7-7.33-.67,2.75-1.61,3.36-2.5,5.49-.89,2.13-1.12,4.8.25,6.16,1.25,1.25,2.43,1.55,3.69,1.96-.05,1.94-.78,4.38-1.38,5.71-1.18,1.1-2.44,2.02-3.43,2.68-2.62,1.75-6.78,3.74-10.23,5.03.06-.29.12-.57.22-.81,2.21-.31,4.74-1.93,4.98-4.07.25-2.3-.42-4.05-2.41-7.01-.37,1.89-2.75,3.84-3.35,6.46-.37,1.63-.17,3.26.21,4.27-.16.35-.29.85-.39,1.43-.45.16-.87.3-1.28.43-1.18-2.35-2.47-4.75-3.64-6.64,1.55.67,2.87,1.41,4.32,2.03.07-1.84-1.8-6.05-2.09-6.62,2.16-.17,4.46-2.24,5.73-4.25-2.58,1.6-3.88,2.2-4.93,2.32-1.49.17-3.08-.04-3.58-.5.11,1.12-.09,2.45-.83,3.7-1.19,1.99-4.37,3.46-4.37,3.46.12.83-.1,2.24-1,3.13-1.22,1.21-2.88,1.42-3.3,3.04,1.27-1.25,4.19-1.31,6.41-3.1.82-.66,1.98-2.63,2.19-3.61,3.01,4.56,6.63,12.93,7.54,15.62.33.98.67,2.07.98,3.2-1.48-1.53-3.53-3.22-5.41-4.22-1.33-2.62-2.91-4.63-5.58-5.62-2.84-1.06-7.12-1.7-10.41-.49,2.61,2.46,2.71,3.88,4.5,6.2,1.79,2.32,4.61,4.24,6.97,3.58,2.07-.57,3.41-1.79,4.44-2.91,2.33,1.3,4.84,3.93,6.03,5.56.48,1.99.81,3.95.86,5.52-9.08,9.45-10.36,22.77-10.84,34.51-.51,12.4-6.17,22.98-14.17,26.74-.5-1.04-.97-2.19-1.41-3.38.16-2.06.98-5.3,2.1-7.53,1.57.24,3.03.51,5.06-.18,2.32-.78,3.58-3.95,3.76-6.87.18-2.92-.53-4.15.25-7.66-3.4.85-6.59,3.77-8.34,6.25-1.65,2.32-1.83,4.87-1.46,7.78-.95,1.8-1.68,4.2-2.06,6.25-.3-.92-.57-1.82-.81-2.66ZM24.24,115.95c-.04.49-.07,1.01-.07,1.53-.2-.43-.42-.87-.63-1.31.23-.07.47-.14.7-.22Z"/>
            <g>
              <path class="cls-3" d="M50.67,74.33c.51-.56,1.15-.94,2.09-.21.94.73,2.07,1.2,2.24,2.55s.62,2.02.42,3.1-.64,2.59-.93,3.01c-.84.57-2.67.46-4.2.84.24-.8.24-1.09.03-1.51,1.08-.48,2.1-1.08,2.45-2.49.35-1.41.41-2.48,0-3.33s-1.19-1.65-2.11-1.95Z"/>
              <path class="cls-3" d="M47.65,76.26c.54-1.04,1.05-1.8,2.21-1.56.97.2,1.8.61,2.04,2.14.26,1.63.44,2.59-.12,3.15-.56.56-1.46,1.26-1.65,1.63-.33-.52-.88-.45-1.56-.65,2.04-1.32,1.77-2.74,1.27-3.76-.5-1.01-1.61-1.23-2.2-.95Z"/>
              <path class="cls-3" d="M49.13,77.84c-.33-.86-.85-1.16-1.58-1-.89.21-1.98,1.23-2.26,2.01.76,1.26,2.11,1.77,2.8,2.01.88-.91,1.27-2.42,1.04-3.02Z"/>
              <path class="cls-3" d="M44.65,78c-.48-.91-1.15-2.15-.35-2.94.8-.78,2.66-.65,3.33-.3-.39.47-.72,1.07-.74,1.59-.96.65-2.04,1.27-2.23,1.65Z"/>
              <path class="cls-3" d="M49.71,74.1c-.63-.11-1.29-.22-1.82.21-1.36-.38-3.2-.79-4.1-.16-.72.51-.96,1.46-.69,2.44.28,1.04,1.49,2.66,2.22,3.26.59.48,1.86,1.16,2.68,1.46s1.23.3,1.48.83c.24.53.36,1.02.38,1.5-2.07.43-5.02.82-6.75-.68-1.73-1.5-3.48-4.27-3.18-5.51.3-1.23,2.4-3.78,3.23-5.31.69-1.26,1.02-3.05,2.65-3.4,1.63-.35,2.89,1.29,3.37,2.01s.64,2.66.55,3.35Z"/>
              <path class="cls-3" d="M50.8,73.58c-.11-.83-.67-2.07-1-2.45,1.12-1.13,1.88-1.36,3.11-.68,1.24.68,2.77,2.23,3.58,3.5.81,1.27,1.21,3.05.97,4.4-.17.99-.55,2.65-1.5,3.42.29-1.79.33-2.98.14-4.25-.14-.92-.59-1.77-1.13-2.54-.53-.75-1.39-1.42-2.12-1.64-.75-.23-1.48-.18-2.06.24Z"/>
              <path class="cls-3" d="M42.64,72.04c-1.19-.48-2.93-.63-3.68,1.12-.74,1.75-.92,2.45-1.62,3.78-.7,1.32-1.61,2.22-.15,4.64,1.46,2.42,3.51,3.98,5.27,5.16,2.48-.65,4.95-.55,6.95-.26,1.95.28,3-.87,3.58-2.43-1.1.03-1.97.06-3.08.28-1.11.22-4.18.78-5.37.3-1.19-.48-2.81-1.49-3.83-2.86-.83-1.13-1.58-2.24-1.56-3.83.01-1.46,1.32-3.6,1.91-4.21s1.19-1.17,1.57-1.7Z"/>
              <path class="cls-3" d="M42.55,87.18c.23,1.44.78,2.04,2.43,2.69,1.65.66,3.35,1.18,5.25.59,1.76-.55,3.19-2.01,3.88-3.1.57-.89,1.44-2.59,2.11-3.11,1.18-.93,1.32-1.75,1.09-2.55-.97.63-1.46,1.16-2.5,2.34-1.04,1.18-1.57,2.37-3.51,3.07-1.71.62-2.72.32-4.55-.04-1.57-.31-2.94-.12-4.18.11Z"/>
              <path class="cls-3" d="M54.88,71.56c1.07-1.05,3.33-1.89,4.5-1.04,1.16.85,2.07,4,2.15,5.45.08,1.45.11,2.83-.44,3.57.62.78.9,1.16.64,1.97-.26.81-1.03,2.18-2.21,2.64s-1.91.15-2.8.49c1.41-1.2,1.79-1.91,1.79-2.66,0-.75-.37-1.35-.74-1.88.28-1.45,1.17-2.95.56-5.03-.61-2.08-1.78-2.94-3.44-3.5Z"/>
              <path class="cls-3" d="M55.83,86.27c.95-.58,3.21-1.64,3.86-1.73.74.8.72,1.32,1.05,2.52.33,1.2.43,1.54-.64,2.34-1.07.8-1.23,1.44-1.83,2.11-.6.66-2.73.7-3.87.54s-2.17-.93-2.69-1.49c2.12-1.05,3.05-2.29,4.13-4.29Z"/>
            </g>
          </g>
          <g>
            <path class="cls-3" d="M11.58,215.56c-1.11-.21-1.96-1.46-2.68-2.76-.72-1.3-1.06-1.81-1.08-3.11-.03-1.25.08-2.18.72-2.6.84-.55,1.59-.65,1.81-1.74.22-1.08.65-2.31,2.1-2.1s2.1,1.3,2.97,1.59c.87.29,1.23,1.33,1.01,2.68.36-.94.51-1.59,1.08-1.45.58.14,1.16.22,1.3,1.66.14,1.45.07,2.39-.14,3.4-.22,1.01-2.31,2.75-3.4,3.47-1.08.72-2.83,1.12-3.68.95Z"/>
            <path class="cls-3" d="M12.34,202.09c.07-1.16-.13-2.82.2-3.08.62-.48,1.27-.83,1.92.11.65.94.87,1.3,1.59,1.45s1.23.65,1.66,1.3c.43.65,1.08,2.24,1.08,3.69-.82-.47-1.46-.6-2.03-.16-.35-.87-1.09-1.28-1.44-1.65-.47-.49-.92-.99-1.3-1.23-.52-.33-1.08-.58-1.69-.43Z"/>
            <path class="cls-3" d="M8.25,206.21c-.87-.14-3.22.02-4.41.65-.76.4-1.38,1.39-1.52,1.95-.18.76.02,1.45.23,2.1,1.28-.18,1.99-.78,2.66-.87.72-.1,1.16.07,1.74.65-.24-2.37.19-4.05,1.3-4.48Z"/>
            <path class="cls-3" d="M10.89,217.7c1.18-.94,1.84-1.43,2.21-1.72,2.35-.56,3.42-1.52,4.48-2.33.73-.55,1.81-1.66,2.02-2.78.16-.81.19-2.67.12-3.53.95-1.14,2.22-1.41,2.78-.39.65,1.21,1.09,2.74.15,4.19-.94,1.45-3.63,2.97-4.78,3.99-1.16,1.01-1.74,2.17-2.89,2.53-1.16.36-2.91.33-4.09.05Z"/>
          </g>
          <g>
            <path class="cls-3" d="M140.64,53.74c-.81,1.35-1.52,2.93-2.17,5.32-.65,2.39-.76,4.56,0,6.51.76,1.95,3.81,3.09,5.77,3.74.98-2.93,2.48-5.26,1.61-7.54-.87-2.28-1.25-3.31-1.19-4.23.05-.92.22-1.84-.11-2.5-.33-.65-1.57-2.12-2.22-2.22-.65-.11-1.19.11-1.68.92Z"/>
            <path class="cls-3" d="M147.12,54.55c-.98.95-1.33,2.34-1.6,3.31.43,1.79,1.19,3.53,1.46,4.61.27,1.08.24,2.66-.49,3.96-.39.7-1.37,2.37-1.75,3.02.76.49,1.81.83,3.22.18,1.41-.65,3.31-3.31,3.42-4.61.11-1.3,1.14-4.29,1.46-5.26.33-.98.43-2.06-.05-2.93-.49-.87-1.25-1.68-1.9-2.33s-1.25-.81-1.9-.76c-.65.05-1.46.41-1.87.81Z"/>
            <path class="cls-3" d="M140.23,51.85c1.03-1.03,1.76-1.31,2.66-1.36.84-.04,1.23.23,1.71.84.3.38.91.61,1.08,1.11.76-.22,1.68-.6,2.17-.27.49.33.54.6.6.87-1.25.54-2.71,1.23-3.2,2.85-.22-2.43-1.5-3.36-2.06-3.61-.68-.31-1.42-.37-2.22.11-.43-.33-.73-.54-.73-.54Z"/>
            <path class="cls-3" d="M140.15,52.82c-.49-.49-.89-1.12-1.1-1.39-.22-.27-1.19-.65-1.75-.2-.56.45-1.08,1.43-.76,2.46.33,1.03.69,1.52.09,3.09-.6,1.57-1.48,2.48-2.01,4.18-.56,1.81.43,4.72,1.08,5.8.65,1.08,1.97,2.39,2.77,2.82-.67-1.16-1.3-1.99-1.75-3.02,1.68.99,2.89,1.92,3.44,2.4.54.49,1.39,1.07,1.61,1.34.87.05,1.88-.51,2.31-.67-2.04-.72-3-1.03-4.19-1.9-1.19-.87-2.04-1.61-2.57-3.62-.48-1.83.07-4.45.65-6.07.58-1.63,1.52-4.23,2.19-5.23Z"/>
            <path class="cls-3" d="M133.96,55.12c-.65.33-1.01,1.27-.9,2.02.26,1.79-.13,2.41-.63,3.45-.65,1.34-.94,2.91-.36,4.07.58,1.16,2.26,2.59,4.25,3.27-2.48-2.21-3.16-4.59-2.6-6.64.51-1.84,2.51-4.34,2.51-5.93-.61.09-1.46-.65-2.26-.25Z"/>
          </g>
          <g>
            <path class="cls-3" d="M5.4,145.01c.26-.54,1.7-1.35,2.51-1.09,1.71.55,3.48.27,4.32,2.13.84,1.86,1.63,3.76,1.94,5.41.3,1.61.36,3.01.13,3.75-1.08,1.26-2.63,2.93-5.41,3.65-.15-1.03-.42-1.73-.78-2.34,1.6-2.1,2.42-2.56,2.29-4.74-.14-2.18-.44-3.78-1.39-4.71-1.01-1-2.34-1.87-3.61-2.06Z"/>
            <path class="cls-3" d="M4.87,144.19c-.47-1-2.1-2.71-2.55-3.22,1.1-2.12,2.08-2.79,4.16-2.38,2.08.42,4.97,1.95,6.7,3.41,1.73,1.46,2.95,3.68,3.37,5.87.28,1.48.46,4.07-.61,5.57-.42-2.23-.79-3.72-1.51-5.41-.65-1.53-1.76-3.2-2.96-3.88-1.2-.68-2.19-1.4-3.67-1.17-1.16.18-2.26.55-2.93,1.21Z"/>
          </g>
          <g>
            <path class="cls-3" d="M36.36,148.62c-.07-.51.57-1.79,1.27-1.99,1.49-.43,2.62-1.48,4.12-.55,1.5.93,2.98,1.91,4,2.94.99,1.01,1.7,1.98,1.9,2.62-.17,1.43-.47,3.37-2.12,5.22-.6-.67-1.13-1.04-1.69-1.3.13-2.28.5-3-.65-4.5s-2.13-2.49-3.26-2.7c-1.2-.23-2.57-.21-3.58.26Z"/>
            <path class="cls-3" d="M38.32,153.35c-1-.55-1.63-.31-2.15.76-.52,1.06-.52,3,.03,3.91,1.9.25,3.75-.72,4.41-1.31-.21-1.62-1.46-2.9-2.29-3.36Z"/>
            <path class="cls-3" d="M35.65,153.54c-.87,1.01-1.17,3.23-1.26,4.23-1.31-.26-2.53-.36-2.67-1.81-.14-1.45,1.28-2.98,2.17-3.37.35-.9,1.16-2.01,1.97-2.55,1.27-.86,1.91-1.3,3.82-.33,2.1,1.06,2.88,1.69,3.02,2.84.13,1.02.46,2.3.69,2.79-.69-.1-1.33.22-1.75.58-.69-1.94-1.84-3.04-3.27-3.36-1.43-.31-1.97.1-2.73.98Z"/>
            <path class="cls-3" d="M35.25,149.07c-.94.61-1.8,1.84-1.91,2.73-2.29.92-2.89,2.51-2.97,3.57-.08,1.14.62,2.16,1.83,2.87s4.27.91,5.2.58c.93-.34,2.67-.99,3.65-1.78.88-.7,1.36-.79,2.05-.72.75.08,1.63.51,2.13.87-1.67,1.89-2.73,5.38-5.45,6.59-.69.31-2.47,1.14-3.42,1.97-.9-1.22-1.92-2.13-2.95-2.5-1.48-.53-2.47-1.19-2.89-1.79-1.22-1.74-2.21-4.76-3.08-6.84-.72-1.72-.93-3.05.04-4.98.97-1.93,2.71-2.2,3.83-2.1,1.12.11,2.99.82,3.95,1.53Z"/>
            <path class="cls-3" d="M35.59,148.29c-.82-.49-2.81-.92-3.38-1.08-.23-2.05.15-3,1.83-3.7s4.5-1,6.44-.79c1.94.21,3.88,1.21,5.24,2.58.91.92,2.29,2.7,2.25,4.29-1.38-1.39-2.36-2.29-3.68-3.15-1.21-.78-2.8-1.45-3.99-1.35-1.19.09-2.25.05-3.19.93-.75.69-1.35,1.48-1.52,2.28Z"/>
            <path class="cls-3" d="M35.4,168.88c2.14.39,3.84.69,5.72.1,4.11-1.47,8.04-7.44,8.79-10.24.77-2.89.45-5.99-1.14-8.55.04,4.01-1.83,6.03-3.05,7.34-1.3,1.39-1.81,3.83-3.48,5.84-1.06,1.28-2.51,1.95-4.45,2.42-1.04.25-1.75,1.18-2.03,1.73-.37.71-.45.99-.36,1.34Z"/>
            <path class="cls-3" d="M34.56,168.73c-.46.13-1.72.04-2.3-.04-3.63-.48-3.81-2.13-4.58-3.91s-1.35-2.53-2.51-4.7.23-5.2,1.68-6.02c.3,1.7.67,3.13.99,4.58.3,1.36.55,3.43,2.25,4.91.79.69,2.06.78,3.09.91.83.11,1.93,1.23,2.44,2-.6.75-.97,1.5-1.05,2.25Z"/>
          </g>
          <g>
            <path class="cls-2" d="M95.45,2.58c-.12,2.07-.4,4.28-1.85,6.27-.47-2.05-1.87-3.67-3.63-4.85-1.32-.88-2.52-2.3-3.36-4h8.69c.15.87.2,1.73.14,2.58Z"/>
            <g>
              <path class="cls-3" d="M117.72,249.49c1.04-.38,2.11-.43,2.83,1.14.72,1.58,1.86,2.94,1.17,4.79-.7,1.85-.56,3.03-1.54,4.27-.98,1.24-2.56,2.9-3.23,3.25-1.47.17-3.74-1.2-5.97-1.75.84-.87,1.04-1.23,1.06-1.92,1.71.11,3.43.02,4.83-1.56,1.4-1.58,2.2-2.92,2.24-4.29.04-1.37-.42-2.93-1.39-3.93Z"/>
              <path class="cls-3" d="M112.53,249.94c1.39-.97,2.56-1.61,3.89-.52,1.12.91,1.91,1.99,1.19,4.13-.77,2.28-1.18,3.62-2.28,3.97s-2.73.64-3.22,1c-.07-.89-.82-1.17-1.57-1.89,3.51-.33,4.13-2.34,4.17-3.98s-1.25-2.67-2.18-2.71Z"/>
              <path class="cls-3" d="M113.37,252.98c.16-1.33-.31-2.07-1.36-2.35-1.28-.34-3.38.26-4.27,1.06.13,2.14,1.53,3.7,2.25,4.47,1.74-.58,3.27-2.26,3.38-3.18Z"/>
              <path class="cls-3" d="M107.49,250.16c0-1.5-.03-3.55,1.53-4.02s3.86.96,4.48,1.86c-.82.34-1.65.89-2.03,1.54-1.67.2-3.49.26-3.98.62Z"/>
              <path class="cls-3" d="M116.64,248.55c-.74-.56-1.52-1.15-2.49-.95-1.49-1.4-3.59-3.18-5.17-2.97-1.27.17-2.22,1.23-2.54,2.67-.34,1.53.12,4.42.66,5.68.43,1.02,1.62,2.75,2.47,3.68.85.93,1.38,1.22,1.34,2.07-.04.84-.23,1.56-.52,2.18-2.95-.85-7.01-2.32-8.23-5.42-1.22-3.1-1.61-7.84-.39-9.23,1.22-1.38,5.63-3.26,7.73-4.67,1.73-1.17,3.37-3.25,5.7-2.6,2.33.65,2.86,3.61,2.98,4.86s-.97,3.85-1.55,4.69Z"/>
              <path class="cls-3" d="M118.38,248.61c.41-1.14.54-3.12.36-3.82,2.2-.7,3.33-.49,4.47,1.22,1.13,1.71,2.07,4.73,2.25,6.92.18,2.19-.5,4.75-1.71,6.32-.88,1.15-2.5,3.05-4.23,3.39,1.58-2.1,2.43-3.61,3.04-5.38.44-1.27.44-2.67.25-4.04-.18-1.32-.83-2.77-1.62-3.54-.81-.8-1.78-1.22-2.82-1.07Z"/>
              <path class="cls-3" d="M108.93,241.14c-1.21-1.42-3.35-2.79-5.48-1.04-2.13,1.75-2.83,2.54-4.63,3.78-1.79,1.23-3.57,1.78-3.31,5.88.25,4.1,1.84,7.49,3.31,10.2,3.64.83,6.74,2.62,9.13,4.35,2.32,1.68,4.45.9,6.24-.71-1.44-.7-2.58-1.25-4.16-1.71-1.59-.46-5.91-1.81-7.12-3.23-1.21-1.42-2.62-3.81-3.01-6.27-.31-2.01-.52-3.95.56-5.98,1-1.87,4.13-3.75,5.29-4.13s2.32-.7,3.17-1.13Z"/>
              <path class="cls-3" d="M98.61,260.57c-.67,2.02-.36,3.15,1.32,5.1,1.68,1.95,3.52,3.78,6.36,4.29,2.63.47,5.46-.45,7.08-1.37,1.33-.77,3.6-2.36,4.8-2.58,2.15-.4,2.88-1.36,3.12-2.56-1.67.17-2.66.51-4.79,1.33s-3.62,1.99-6.59,1.59c-2.62-.36-3.72-1.41-5.84-3.11-1.81-1.45-3.7-2.13-5.46-2.68Z"/>
              <path class="cls-3" d="M125.01,248.77c2.08-.63,5.56-.19,6.49,1.68.93,1.87-.03,6.54-.91,8.47-.88,1.92-1.76,3.72-2.97,4.3.27,1.42.38,2.1-.5,2.96-.88.86-2.8,2.11-4.62,1.91-1.82-.2-2.56-1.09-3.94-1.25,2.62-.6,3.6-1.25,4.1-2.22s.44-1.99.32-2.92c1.34-1.68,3.49-3.01,4.11-6.1.62-3.09-.31-4.98-2.08-6.83Z"/>
              <path class="cls-3" d="M116.32,268.33c1.61-.1,5.24.06,6.13.38.41,1.53.04,2.18-.35,3.95-.39,1.77-.48,2.27-2.39,2.58s-2.55,1.03-3.77,1.48c-1.22.45-3.98-.94-5.35-1.91-1.37-.97-2.17-2.66-2.47-3.73,3.44.08,5.47-.9,8.21-2.74Z"/>
            </g>
          </g>
          <g>
            <path class="cls-3" d="M71.67,89.08c-.06-1.07-.13-1.83.63-2.46.76-.63,1.9-.77,3.01-.56,1.11.21,2.16.48,3.06.12.89-.35,1.77-.53,2.27,0s1.21,1.56,2.33,2.59c.72.67,1.21.66,1.9.67-1.35,1.25-2.59,2.5-3.64,2.91-1.25.48-3.26,1.1-5.25.55-2-.55-3.14-1.21-3.59-1.93s-.69-1.44-.71-1.9Z"/>
            <path class="cls-3" d="M84.78,88.95c-.89-.1-1.63-1.04-2.28-2.03-.65-.99-.94-1.37-1.04-2.4-.09-.99-.06-1.73.42-2.1.64-.48,1.22-.61,1.33-1.48.11-.87.38-1.87,1.54-1.78,1.16.09,1.73.91,2.44,1.09.7.18,1.05.98.95,2.06.23-.76.31-1.29.78-1.21s.93.11,1.13,1.24c.2,1.14.19,1.88.08,2.7-.11.81-1.67,2.31-2.49,2.94-.82.63-2.17,1.05-2.86.97Z"/>
            <path class="cls-3" d="M84.61,78.25c0-.92-.27-2.22-.02-2.45.46-.41.96-.73,1.53-.02.57.71.76.98,1.34,1.05.58.07,1.01.44,1.39.93s.99,1.71,1.07,2.86c-.68-.33-1.19-.39-1.61-.01-.33-.67-.94-.95-1.23-1.22-.4-.36-.78-.73-1.1-.9-.43-.23-.89-.4-1.36-.25Z"/>
            <path class="cls-3" d="M82.16,80.86c.31-.48.49-1.32.98-1.7s.52-.73.48-1.3c-.04-.57-.33-1.41-.77-1.96-.44-.54-1.01-1.19-1.84-.84s-2.19.73-3.33.93c-1.14.2-2.05,1.13-2.39,1.9-.35.77-.89,1.27-1.3,1.88-.42.61-.62,1.02-.5,1.82.12.8.74,1.5,1.25,2.15.51.65.85.97,1.49,1.1-.05-1.22.68-2.65,1.47-3.13.95-.57,3.63-1.26,4.47-.86Z"/>
            <path class="cls-3" d="M81.61,81.75c-.69-.06-2.55.2-3.45.77-.58.36-1.02,1.18-1.09,1.63-.1.61.1,1.14.31,1.65,1.01-.22,1.53-.73,2.05-.84.56-.12.92,0,1.41.42-.33-1.86-.08-3.21.77-3.62Z"/>
            <path class="cls-3" d="M76.3,85.14c-.88-.22-2.7-1.14-3.08-1.69s-.99-1.71-1.66-1.43c-.67.28-1.1.71-1.32,1.65-.22.94-.53,1.48-.7,2.24s.25,1.88.47,2.5c.22.62.71.83,1.18,1.02-.35-1.23-.49-2.13-.06-2.83.43-.71,1.28-1.23,2.52-1.1.75.08,2.48.38,3.18.45-.45-.31-.53-.8-.53-.8Z"/>
            <path class="cls-3" d="M71.49,90.54c-.78.4-1.5.68-1.61,1.55s-.07,2.19,1.16,2.56,2.8-.26,3.53.26c.73.52,1.98,1.06,2.87.77.9-.3,3.98-1.5,4.86-2.02s1.77-1.75,1.75-2.79c-1.84,2.05-2.97,2.09-4.48,2.47-1.68.42-2.73.49-4.14.07s-2.38-.76-2.93-1.23c-.55-.48-.8-.98-1.02-1.64Z"/>
            <path class="cls-3" d="M84.35,90.68c.88-.81,1.38-1.24,1.65-1.49,1.83-.58,2.62-1.4,3.41-2.1.54-.48,1.34-1.42,1.44-2.32.08-.65,0-2.12-.11-2.8.69-.96,1.68-1.24,2.17-.47.58.92,1.02,2.1.36,3.3-.66,1.2-2.7,2.56-3.55,3.43-.86.87-1.25,1.82-2.14,2.17s-2.28.42-3.23.28Z"/>
          </g>
          <g>
            <g>
              <path class="cls-2" d="M38.61,207.84c-.64.79-1.95,1.31-2.81,1.18-.14.86-.7,1.18-1.44,1.37-.59.15-1.49.47-2.1,1.08,1.36-.67,2.78.01,4.13-.52.98-.38,1.76-.98,2.21-3.11Z"/>
              <path class="cls-2" d="M38.61,207.84c.58.58,2.24,1.38,2.81,1.41.12.62.86,1.14,1.52,1.51.66.37,1.4,1.02,1.54,1.8-.32-.47-1.06-.89-1.85-1.05-.79-.15-1.77-.47-2.44-1.08-.78-.7-1.49-1.8-1.57-2.59Z"/>
              <path class="cls-2" d="M38.38,208.08l.22-.24s.09.15.16.27c.08.12.11.49.18.82.07.33-.63,1.58-1.41,2.31-.54.5-1.45.95-2.23.97.85-.6,1.09-.84,1.51-1.64.24-.46.04-.66.38-1.11.35-.45,1.18-1.38,1.18-1.38Z"/>
              <path class="cls-2" d="M43.8,214.9c1.05-1.25,3.04-2.47,5.23-2.19,2.2.27,4.05,1.69,6.49,5.26-3.12-.79-4.79.42-7.06.1-1.87-.26-3.39-1.15-4.66-3.17Z"/>
              <path class="cls-2" d="M36.94,216.85c-.26-.86-.87-1.84-2.36-2.49-1.21-.53-2.51-.36-3.98.53-.85.51-1.29,1.12-2.46,1.29,1.03.71,2.13,1,3.02,1.35,1.15.45,2.47,1.09,3.68.71,1-.32,1.62-1.02,2.1-1.38Z"/>
              <path class="cls-2" d="M43.53,223.59c1.5-.12,2.83.08,3.9.81,1.46,1,2.43,3.3,1.73,6.28-1.22-1.28-2.16-1.63-3.69-2.32s-2.75-2.55-1.95-4.77Z"/>
            </g>
            <g>
              <path class="cls-3" d="M30.19,199.98c.48-.82.8-1.41,1.66-1.5.87-.09,1.77.36,2.48,1.06.71.69,1.36,1.41,2.18,1.59.83.18,1.56.48,1.66,1.12.1.64.12,1.73.44,3.04.21.84.57,1.08,1.07,1.42-1.6.26-3.13.57-4.1.35-1.15-.26-2.93-.79-4.13-2.16-1.2-1.38-1.71-2.42-1.69-3.17s.2-1.39.41-1.75Z"/>
              <path class="cls-3" d="M39.89,206.3c-.6-.51-.69-1.57-.68-2.61s-.02-1.46.41-2.27c.41-.77.8-1.3,1.34-1.34.7-.05,1.19.15,1.7-.43.51-.59,1.19-1.19,2-.55s.83,1.52,1.26,1.99c.43.48.29,1.24-.31,1.98.54-.45.86-.79,1.16-.51s.63.53.22,1.46c-.41.93-.78,1.48-1.26,2.02-.48.54-2.36.88-3.27.94-.91.07-2.11-.3-2.57-.69Z"/>
              <path class="cls-3" d="M45,198.36c.44-.68.89-1.76,1.19-1.8.54-.08,1.06-.07,1.13.73.07.8.08,1.09.47,1.43.39.34.52.82.56,1.37.04.55-.11,1.74-.61,2.62-.34-.57-.68-.87-1.18-.8.08-.65-.22-1.16-.31-1.5-.12-.46-.22-.92-.37-1.2-.2-.38-.46-.73-.88-.85Z"/>
              <path class="cls-3" d="M41.92,199.08c.46-.2,1.01-.72,1.55-.76.55-.04.74-.28.99-.72.25-.44.45-1.2.39-1.82-.06-.62-.16-1.37-.94-1.52-.79-.15-1.97-.53-2.9-.94-.93-.41-2.05-.17-2.69.22-.63.4-1.27.5-1.87.74-.6.24-.95.45-1.26,1.09-.31.64-.19,1.46-.14,2.19.05.73.15,1.13.56,1.54.56-.92,1.79-1.61,2.61-1.58.98.04,3.28.86,3.7,1.56Z"/>
              <path class="cls-3" d="M41.08,199.46c-.48-.39-1.97-1.1-2.91-1.13-.6-.02-1.32.37-1.6.67-.37.4-.49.89-.58,1.36.84.33,1.48.21,1.92.39.47.19.68.44.83,1,.67-1.53,1.51-2.4,2.34-2.28Z"/>
              <path class="cls-3" d="M35.53,199.35c-.54-.59-1.42-2.16-1.44-2.75s.11-1.74-.52-1.86c-.63-.12-1.16-.01-1.77.57-.62.58-1.11.83-1.61,1.3-.5.47-.74,1.5-.88,2.06-.14.56.11.95.37,1.33.34-1.07.69-1.8,1.34-2.11.67-.31,1.54-.28,2.39.42.51.42,1.64,1.49,2.12,1.88-.18-.45,0-.84,0-.84Z"/>
              <path class="cls-3" d="M29.35,200.96c-.77-.08-1.44-.23-1.95.35-.51.59-1.12,1.57-.4,2.45s2.18,1.18,2.46,1.92.93,1.75,1.73,1.97c.8.22,3.65.85,4.56.89.9.05,2.16-.42,2.65-1.19-2.35.6-3.21.08-4.5-.38-1.44-.51-2.24-.98-3.07-1.97s-1.38-1.72-1.55-2.34c-.17-.62-.11-1.11.06-1.71Z"/>
              <path class="cls-3" d="M38.73,207.36c1.04-.17,1.62-.23,1.94-.29,1.62.47,2.61.25,3.54.13.63-.09,1.68-.39,2.19-1,.37-.44,1.04-1.56,1.29-2.11.97-.37,1.84-.09,1.82.72-.02.96-.28,2.05-1.35,2.6s-3.23.56-4.29.78c-1.05.22-1.81.72-2.64.54s-1.89-.81-2.51-1.38Z"/>
            </g>
          </g>
          <g>
            <path class="cls-3" d="M65.7,183.04c-.31-.9-.55-1.52-.06-2.24.49-.72,1.43-1.11,2.42-1.2s1.95-.11,2.63-.63c.68-.51,1.38-.88,1.93-.54.55.34,1.4,1.03,2.6,1.64.77.39,1.19.27,1.78.11-.85,1.38-1.6,2.75-2.4,3.34-.94.71-2.5,1.71-4.33,1.73s-2.95-.28-3.51-.77c-.56-.5-.93-1.06-1.06-1.45Z"/>
            <path class="cls-3" d="M76.8,179.79c-.78.12-1.64-.49-2.42-1.18-.79-.68-1.13-.94-1.46-1.79-.32-.81-.47-1.46-.14-1.89.42-.56.89-.81.78-1.57-.12-.77-.12-1.68.88-1.88,1-.2,1.69.36,2.33.34.64-.02,1.13.58,1.3,1.52.01-.7-.05-1.17.37-1.21.42-.04.81-.13,1.25.78.44.92.62,1.55.71,2.27.1.72-.87,2.36-1.41,3.09-.54.73-1.6,1.41-2.2,1.51Z"/>
            <path class="cls-3" d="M74.09,170.74c-.23-.78-.76-1.83-.6-2.07.29-.46.64-.85,1.29-.38.65.46.88.65,1.39.57.51-.08.96.14,1.4.46.44.32,1.25,1.22,1.59,2.17-.65-.12-1.1-.04-1.37.38-.44-.49-1.03-.58-1.34-.74-.43-.21-.84-.43-1.15-.5-.42-.09-.85-.13-1.22.12Z"/>
            <path class="cls-3" d="M72.64,173.55c.15-.48.1-1.24.43-1.68.32-.44.27-.74.1-1.22-.17-.48-.62-1.12-1.13-1.48-.51-.36-1.14-.77-1.77-.27-.63.5-1.68,1.15-2.6,1.59-.92.44-1.47,1.45-1.58,2.19-.11.74-.45,1.29-.66,1.91s-.28,1.02.01,1.67c.29.65.99,1.1,1.58,1.53.59.43.95.62,1.53.58-.33-1.02-.06-2.41.5-3.01.67-.71,2.78-1.94,3.59-1.8Z"/>
            <path class="cls-3" d="M72.38,174.43c-.61.11-2.11.78-2.75,1.48-.4.45-.58,1.24-.53,1.65.06.54.36.95.65,1.32.8-.42,1.12-.99,1.54-1.2.45-.23.78-.23,1.3.01-.73-1.5-.84-2.71-.21-3.26Z"/>
            <path class="cls-3" d="M68.69,178.58c-.8.02-2.57-.32-3.02-.69-.46-.37-1.25-1.22-1.75-.82-.5.4-.76.87-.72,1.72.04.85-.09,1.38-.06,2.07.03.69.66,1.54,1,2.01s.8.53,1.25.58c-.59-.96-.92-1.69-.73-2.39.2-.71.79-1.35,1.88-1.54.66-.11,2.2-.27,2.81-.38-.46-.16-.64-.55-.64-.55Z"/>
            <path class="cls-3" d="M65.89,184.32c-.56.53-1.11.94-1,1.71s.46,1.88,1.6,1.9c1.14.02,2.32-.89,3.06-.62.74.27,1.93.43,2.63-.04.69-.47,3.02-2.22,3.64-2.88.62-.66,1.08-1.91.82-2.79-1.07,2.18-2.03,2.49-3.21,3.17-1.33.76-2.2,1.07-3.5,1.05-1.3-.01-2.2-.07-2.78-.34-.58-.27-.92-.64-1.26-1.15Z"/>
            <path class="cls-3" d="M76.85,181.36c.55-.9.87-1.38,1.04-1.66,1.41-.93,1.89-1.81,2.4-2.6.35-.54.79-1.53.67-2.32-.09-.57-.51-1.8-.77-2.35.35-.98,1.13-1.46,1.73-.92.72.64,1.37,1.54,1.1,2.72s-1.68,2.82-2.2,3.76c-.52.94-.63,1.84-1.3,2.36-.68.51-1.84.91-2.68,1.01Z"/>
          </g>
          <g>
            <path class="cls-3" d="M144.53,165.14c.71-.63,1.23-1.06,1.15-1.92-.08-.87-.7-1.67-1.52-2.23-.82-.56-1.64-1.06-1.98-1.84s-.77-1.44-1.42-1.42c-.65.02-1.73.22-3.07.16-.87-.04-1.17-.35-1.6-.77.06,1.62.05,3.18.45,4.09.47,1.08,1.34,2.72,2.92,3.63,1.58.91,2.71,1.21,3.44,1.05.73-.16,1.33-.47,1.63-.74Z"/>
            <path class="cls-3" d="M136.45,156.86c.62.49,1.67.37,2.69.16,1.02-.21,1.44-.26,2.15-.84.67-.56,1.12-1.04,1.05-1.57-.09-.7-.38-1.14.1-1.75.48-.61.93-1.4.15-2.07-.78-.67-1.65-.52-2.2-.85-.55-.33-1.27-.05-1.88.69.33-.62.61-1,.27-1.24-.34-.24-.64-.51-1.48.07-.83.58-1.3,1.05-1.74,1.63-.44.58-.4,2.48-.29,3.39.11.91.7,2.01,1.18,2.39Z"/>
            <path class="cls-3" d="M143.25,150.31c.58-.57,1.56-1.22,1.54-1.51-.03-.55-.14-1.05-.94-.97-.8.08-1.09.13-1.49-.18-.41-.32-.91-.35-1.45-.29-.54.07-1.68.45-2.45,1.11.63.22.98.5,1.01,1,.62-.21,1.18,0,1.53.01.47.03.94.04,1.25.13.41.12.8.31,1,.7Z"/>
            <path class="cls-3" d="M143.14,153.46c.11-.49.51-1.13.45-1.67-.07-.54.13-.78.51-1.11.38-.33,1.09-.67,1.71-.73.61-.06,1.37-.11,1.68.63.3.74.9,1.83,1.49,2.66.58.83.57,1.98.3,2.68-.27.7-.24,1.35-.36,1.98s-.26,1.02-.83,1.45c-.57.42-1.4.47-2.12.56-.72.09-1.14.08-1.61-.25.79-.73,1.24-2.07,1.04-2.87-.23-.95-1.48-3.05-2.25-3.33Z"/>
            <path class="cls-3" d="M142.93,154.36c.47.39,1.46,1.72,1.67,2.64.13.59-.1,1.37-.34,1.7-.32.44-.78.65-1.22.83-.49-.76-.5-1.41-.75-1.81-.28-.42-.57-.58-1.14-.62,1.37-.95,2.06-1.95,1.78-2.74Z"/>
            <path class="cls-3" d="M144.11,159.79c.69.41,2.39.98,2.98.88.58-.1,1.68-.45,1.93.14.24.59.24,1.13-.21,1.85-.45.72-.6,1.25-.96,1.83-.37.58-1.33,1.01-1.85,1.26-.52.25-.96.07-1.37-.1.98-.55,1.64-1.02,1.81-1.72.17-.71-.03-1.57-.88-2.26-.52-.42-1.78-1.32-2.26-1.71.48.09.83-.16.83-.16Z"/>
            <path class="cls-3" d="M143.74,166.16c.23.74.51,1.37.03,1.98-.48.61-1.33,1.41-2.33.87-1-.54-1.58-1.91-2.36-2.04-.78-.13-1.9-.57-2.27-1.32-.38-.75-1.54-3.42-1.76-4.3s0-2.2.65-2.83c-.14,2.42.55,3.16,1.25,4.34.78,1.31,1.39,2.01,2.53,2.63,1.14.62,1.95,1.02,2.59,1.06.64.05,1.11-.11,1.66-.39Z"/>
            <path class="cls-3" d="M135.63,158.21c-.04-1.05-.08-1.63-.1-1.95-.78-1.5-.76-2.51-.81-3.44-.04-.64.06-1.72.55-2.35.36-.45,1.33-1.32,1.82-1.68.17-1.02-.27-1.82-1.06-1.65-.94.21-1.95.67-2.29,1.83-.34,1.16.08,3.28.07,4.36,0,1.08-.36,1.91-.02,2.69.34.78,1.16,1.69,1.84,2.19Z"/>
          </g>
          <g>
            <path class="cls-3" d="M125.94,185.19c1.45.1,2.48.13,3.2,1.26s.71,2.68.25,4.13-1,2.82-.68,4.08c.32,1.26.41,2.47-.39,3.05-.81.58-2.3,1.36-3.87,2.69-1.02.86-1.09,1.52-1.22,2.44-1.45-2.02-2.92-3.91-3.29-5.38-.44-1.76-.93-4.56.14-7.14,1.07-2.59,2.16-4.01,3.19-4.5,1.04-.49,2.05-.68,2.68-.64Z"/>
            <path class="cls-3" d="M123.91,202.82c.29-1.17,1.68-2.02,3.11-2.72s2-1.03,3.4-.99c1.34.04,2.34.21,2.75.92.54.93.61,1.74,1.76,2.04,1.15.29,2.44.83,2.13,2.37-.31,1.54-1.51,2.17-1.87,3.09-.36.91-1.5,1.25-2.93.93.99.44,1.68.63,1.49,1.24-.19.61-.3,1.23-1.86,1.3-1.56.07-2.56-.06-3.64-.35s-2.81-2.64-3.53-3.84-1.04-3.1-.81-4Z"/>
            <path class="cls-3" d="M138.3,204.4c1.24.14,3.03.02,3.29.39.48.69.81,1.41-.23,2.05-1.04.64-1.44.86-1.64,1.62-.2.77-.77,1.28-1.49,1.71-.72.43-2.46,1.04-4.02.95.56-.85.72-1.53.29-2.17.95-.33,1.44-1.1,1.85-1.45.55-.48,1.11-.93,1.39-1.33.38-.53.69-1.12.56-1.79Z"/>
            <path class="cls-3" d="M135.21,200.67c.6.5,1.68.89,2.11,1.61.43.72.89.82,1.66.87s1.95-.21,2.76-.71c.8-.5,1.77-1.15,1.44-2.33-.33-1.18-.62-3.06-.69-4.62-.07-1.56-1.17-2.94-2.15-3.53-.98-.6-1.56-1.4-2.3-2.07-.74-.66-1.27-1-2.36-.98-1.09.02-2.14.74-3.1,1.31-.96.57-1.45.97-1.73,1.81,1.64.15,3.44,1.36,3.95,2.5.61,1.37,1.07,5.09.39,6.14Z"/>
            <path class="cls-3" d="M134.11,199.77c.2-.92.16-3.45-.45-4.77-.39-.84-1.41-1.56-2.01-1.74-.8-.24-1.55-.06-2.26.13.12,1.39.72,2.18.78,2.9.06.77-.14,1.24-.8,1.82,2.55-.13,4.33.43,4.73,1.65Z"/>
            <path class="cls-3" d="M130.46,192.08c.45-1.14,1.99-3.43,2.79-3.86.8-.42,2.46-1.04,2.2-1.98-.26-.95-.77-1.6-1.99-2.05-1.22-.45-1.89-.96-2.88-1.32-.99-.36-2.57.02-3.43.21s-1.23.81-1.57,1.41c1.7-.26,2.95-.29,3.81.4.88.7,1.44,1.93,1.05,3.57-.23.99-.93,3.27-1.14,4.19.5-.56,1.16-.58,1.16-.58Z"/>
            <path class="cls-3" d="M124.02,184.7c-.41-1.11-.66-2.13-1.82-2.43-1.15-.29-2.93-.47-3.64,1.13s-.12,3.8-.95,4.69c-.82.89-1.76,2.47-1.52,3.73.24,1.26,1.34,5.59,1.89,6.86.55,1.27,2.05,2.67,3.45,2.83-2.44-2.81-2.3-4.35-2.56-6.43-.29-2.33-.19-3.74.61-5.57.8-1.82,1.42-3.06,2.15-3.72.73-.66,1.45-.91,2.38-1.09Z"/>
            <path class="cls-3" d="M121.65,201.95c.94,1.31,1.43,2.06,1.72,2.46.47,2.55,1.43,3.75,2.25,4.94.55.81,1.68,2.03,2.87,2.33.86.21,2.85.35,3.78.33,1.17,1.08,1.39,2.46.26,3-1.33.63-3,1.02-4.5-.07-1.5-1.09-2.98-4.05-4-5.35-1.02-1.3-2.23-1.98-2.55-3.24-.32-1.26-.18-3.14.17-4.38Z"/>
          </g>
          <g>
            <g>
              <path class="cls-3" d="M1.84,105.13c-.64.23-1.26.37-1.84.45v-3.2c.35.11.73.22,1.17.37.04.71.22,1.44.67,2.38Z"/>
              <path class="cls-3" d="M6.85,89.9c1.49.78,1.08,2.14.79,3.65-1.11-.34-3.63-.98-5.09-.48-1.27.44-1.96.84-2.24,2.51-.28,1.67.41,3.38,2.19,4.96-.56.29-1.19.84-1.38,1.63-.22-.23-.63-.58-1.12-.94v-10.06c.77-.26,1.61-.42,2.29-.41.8-.79,3.06-1.65,4.56-.87Z"/>
              <path class="cls-3" d="M7.26,84.69c1.86,1.85,4.68,4.22,6.02,6.28.46.71.74,2.06.67,3.88-.05,1.27.48,2.76,1.4,4.25-1.3.66-2.97,2.22-3.6,2.83-2.48,2.4-6.68,2.03-9.44,3-.17-.69-.25-1.83-.01-2.67.22-.76.52-1.25,1.66-1.89,1.27-.71,2.73-2.3,3.49-3.15.77-.85,1.87-4.23,1.63-5.84s-1.03-2.8-2.29-3.2c-1.17-.38-3.14-.42-5.13,1.64-.46-.12-1.06-.1-1.67.03v-6.7c.52-.3,1.13-.51,1.89-.58,2.49-.21,3.83.59,5.37,2.11Z"/>
              <path class="cls-3" d="M10.28,104.41c1.84-.58,3.18-1.85,4.53-3.73.72-1,2.03-1.37,2.74-1.44.92-.08,1.26-.06,1.6.2-.5,2.47-.92,4.43-2.37,6.19-3.36,3.78-11.48,5.42-14.81,5.01-.67-.08-1.33-.23-1.97-.4v-3.82c.97-.21,1.8-.53,2.49-.79,2.06-.79,4.9-.29,7.79-1.21Z"/>
              <path class="cls-2" d="M50,3.32c-2.31.2-4.34-.33-6.08-.58-2.25-.33-4.97-.5-6.56-2.22-.16-.17-.28-.35-.41-.52h10.76c.54,1.19.93,2.27,2.29,3.32Z"/>
              <path class="cls-3" d="M.89,248.57c-.17.56-.49,1.08-.89,1.57v-11.26c.09.24.18.48.27.74,1.12,3.22,1.48,6.2.62,8.95Z"/>
              <path class="cls-3" d="M1.14,228.74c.81.57,1.63,1.86,1.28,3.31-.35,1.45-.8,2.16.17,4.26.97,2.11,2.28,3.27,3.16,5.55.94,2.44-.15,6.53-.94,8.09-.79,1.55-2.48,3.47-3.54,4.14.81-1.66,1.6-2.86,2.12-4.32-1.41.97-2.56,1.89-3.4,2.61v-1.44c1.11-1.05,1.91-2.21,2.34-4.47.48-2.56-.52-6.11-1.48-8.3-.25-.58-.55-1.26-.87-1.96v-7.68c.39-.07.8-.04,1.14.2Z"/>
              <path class="cls-2" d="M.05,255.23c1.67-.47,3.45-1.44,4.44-2.26-.21.56-.9,1.75-1.42,2.24,2.27-.46,3.31-.73,4.5-1.1,1.13-.35,3.02-1.16,4.2-2.84-1.34,2.24-2.84,3.63-4.69,4.47-.88.4-4.94,1.24-6.22,1.78-.28.12-.58.3-.86.52v-4.9c.82-.79,1.63-1.54,2.27-2.01.16-.28-1.54,2.62-2.21,4.1Z"/>
              <path class="cls-2" d="M2.37,283.11c-.83-1.97-1.6-3.9-2.04-5.7-.12-.49-.23-.99-.34-1.48v-7.16c.44,2.69,1.03,5.42,1.81,8.22.16-1.2.42-2.42.72-3.45-.59-1.75-.78-3.78-.15-5.51,1.13-3.1,4.73-5.35,7.71-6.68-.69,2-.71,6.37-.92,8.31-.3,2.79-2.69,4.94-6.07,4.46-.46,1.8-.56,3.88-.38,5.67,1.97,5.43,6.22,13.22,8.71,16.61.25.34.18.82-.16,1.07-.12.09-.26.14-.4.15-.25.02-.51-.09-.67-.31-1.16-1.58-3.35-5.17-4.68-7.64-1.17-1.32-3.45-2.54-5.52-1.94v-.8c1.51-.37,3.17.09,4.5.77-.23-.45-.45-.91-.67-1.37-.85-1.06-2.26-2.76-3.83-4.34v-1.16c.84.74,1.65,1.52,2.37,2.27Z"/>
              <path class="cls-3" d="M3.76,211.49c1.16-.36,2.28-.51,2.86.22.58.72,1.38,2.07,2.69,3.47.85.9,1.46.94,2.33,1.01-1.81,1.45-3.49,2.91-4.85,3.33-1.61.5-4.19,1.08-6.65.22-.05-.02-.1-.04-.15-.06v-8.6c1.35.36,2.63.77,3.76.42Z"/>
              <path class="cls-3" d="M4.27,198.57c1.35-.17,2.85-.49,3.83-.82,1.08-.36,1.74.51,2.24,1.23.51.72.8,1.81.8,2.53s-.07,1.16-.72,1.59c-.65.43-.96,1.46-1.39,2.04-1.01-.58-4.45.04-5.7.67-1.04.53-2.08,2.26-2.13,3.8-.51-.14-.86-.39-1.2-.76v-7.12c.23-.28.46-.58.65-.93.38-.7,1.16-1.48,2.13-1.89"/>
              <path class="cls-3" d="M1.86,211.04c-.42-.07-1.13-.23-1.86-.4v-1.24c.47.25.93.47,1.27.58,0,0,.05.61.59,1.05Z"/>
              <path class="cls-3" d="M4.63,220.61c1.93-.34,3.36-.29,5.86-2.69-.07,1.3-1.3,2.77-2.46,3.34-1.16.58-5.13,1.81-6.29,2.1-.54.13-1.15.03-1.74-.19v-2.66c1.47.45,2.72.43,4.63.09Z"/>
              <path class="cls-2" d="M3.7,170.57c1.69.31,3.18-.44,4.44.67-1.75-.32-4.2,1.26-7.04,1.03-.32-.03-.7-.12-1.1-.26v-3.34c.67-.05,1.12-.12,1.12-.12.37.75,1.34,1.8,2.59,2.03Z"/>
              <path class="cls-2" d="M2.79,198.9c.33-.14.68-.24,1.05-.27.14-.01.29-.03.43-.05"/>
              <path class="cls-3" d="M1.66,150.16c1.19-.69,1.95-.52,2.56.66.5.98.88,3.02.03,4.71-.86.11-2.7-.07-4.25-1v-2.7c.47-.7,1.07-1.33,1.66-1.67Z"/>
              <path class="cls-3" d="M.46,147.23c.92-.64,2.42-1.18,3.55-1.18,1.78,0,2.68-.02,3.89,2.15,1.33,2.38,1.67,3.48,1.07,4.68-.54,1.06-1.04,2.51-1.14,3.13-.6-.54-1.42-.65-2.05-.57.59-2.31.2-4.11-.97-5.34-1.17-1.23-1.96-1.18-3.26-.82-.5.14-1.03.46-1.54.85v-2.94c.17,0,.32.01.46.04Z"/>
              <path class="cls-3" d="M4.05,144.72c-1.3-.02-2.92.61-3.6,1.39-.16-.03-.29-.04-.44-.06v-6.08c.49.2.91.47,1.23.73,1.01.83,2.34,2.72,2.81,4.03Z"/>
              <path class="cls-3" d="M4.46,156.12c1.3-.11,1.82.13,2.43.63.67.56,1.24,1.55,1.49,2.21-2.51.66-5.39,2.84-8.38,2.89v-6.34c1.15.28,3.1.72,4.46.6Z"/>
              <path class="cls-3" d="M8.63,159.64c2.02-.47,5.12-1.21,7.68-5.09-.12,3.49-1.82,6.67-4.43,8.95-2.02,1.77-7.32,4.16-11.88,4.41v-4.64c.5-.03,1-.11,1.5-.26,2.91-.86,4.98-2.87,7.13-3.37Z"/>
              <path class="cls-3" d="M126.17,9.08c-2.3,1.67-6.03,4.18-8.83,3.46-2.8-.72-5.15-2.58-7.3-5.23-2.15-2.65-3.35-4.7-4.22-6.7-.1-.22-.16-.42-.21-.62h9.23c.94.37,2.23.71,4.16,1.22,3.25.86,4.66,4.41,7.16,7.86Z"/>
              <path class="cls-3" d="M129.52,5.17c-.4,2.1-1.63,3-2.79,3.46-.43-.95-1.51-3.39-1.98-4.39-.88-1.86-2.61-3.16-4.05-3.73-.42-.17-.96-.33-1.54-.51h9.42c.72,1.71,1.19,3.85.94,5.16Z"/>
            </g>
            <path class="cls-3" d="M104.4.43c-.94.16-1.97.09-2.45.12s-1.69.81-1.63,1.81c.06.99.73,2.36,2.15,2.83,1.42.46,2.25.45,3.54,2.38,1.28,1.93,1.59,3.65,3.07,5.6,1.58,2.08,5.64,3.3,7.38,3.44,1.74.14,4.26-.29,5.38-.84-1.83-.18-3.28-.14-4.79-.46,2.46-1.09,4.47-1.71,5.45-1.92.98-.22,2.31-.7,2.79-.73.76-.93.94-2.51,1.11-3.13-2.45,1.71-3.56,2.54-5.5,3.18-1.93.64-3.45.99-6.12-.02-2.43-.93-4.93-3.65-6.29-5.61-1.36-1.96-3.53-5.1-4.1-6.65Z"/>
            <path class="cls-3" d="M102.01,9.21c-.16.99.61,2.15,1.55,2.64,2.21,1.15,2.61,2.08,3.36,3.48.98,1.8,2.51,3.39,4.27,3.67,1.76.28,4.71-.46,7.08-2.14-4.46,1.01-7.69-.14-9.53-2.41-1.66-2.05-2.85-6.3-4.63-7.58-.39.76-1.9,1.11-2.1,2.33Z"/>
          </g>
          <g>
            <path class="cls-3" d="M67.36,213.04c-.64-.41-1.36-.61-2.08.35-.72.96-1.7,1.71-1.51,3.06.19,1.36-.07,2.13.4,3.12.48.99,1.3,2.35,1.7,2.68.97.33,2.71-.26,4.3-.29-.44-.72-.52-.99-.43-1.46-1.17-.18-2.32-.5-3.03-1.78s-1.05-2.3-.87-3.24c.18-.93.72-1.92,1.53-2.45Z"/>
            <path class="cls-3" d="M70.8,214.12c-.79-.87-1.49-1.47-2.56-.94-.89.45-1.59,1.06-1.42,2.62.18,1.65.25,2.63.95,3.03.69.4,1.75.84,2.03,1.15.18-.59.73-.67,1.34-1.05-2.33-.75-2.44-2.2-2.22-3.31.22-1.11,1.24-1.62,1.88-1.5Z"/>
            <path class="cls-3" d="M69.78,216.05c.09-.93.52-1.35,1.27-1.38.92-.03,2.25.68,2.73,1.35-.41,1.43-1.59,2.27-2.19,2.69-1.09-.65-1.87-2.02-1.81-2.66Z"/>
            <path class="cls-3" d="M74.17,215.02c.22-1.01.55-2.4-.43-2.95-.98-.55-2.76.07-3.31.59.51.35.98.85,1.14,1.35,1.1.38,2.32.7,2.6,1.01Z"/>
            <path class="cls-3" d="M68.23,212.56c.58-.27,1.2-.55,1.82-.27,1.22-.73,2.9-1.61,3.94-1.23.83.31,1.32,1.17,1.32,2.19,0,1.09-.74,2.98-1.3,3.75-.45.62-1.51,1.62-2.22,2.12-.72.5-1.12.62-1.22,1.2s-.08,1.09.02,1.55c2.12-.13,5.09-.52,6.38-2.44s2.26-5.07,1.64-6.19c-.62-1.12-3.32-3.04-4.53-4.32-1-1.05-1.79-2.7-3.47-2.61-1.67.09-2.47,2.01-2.74,2.84-.27.83.08,2.75.35,3.4Z"/>
            <path class="cls-3" d="M67.04,212.35c-.11-.83.1-2.19.32-2.64-1.38-.8-2.18-.83-3.2.16-1.02.98-2.11,2.89-2.56,4.34-.45,1.45-.37,3.29.21,4.53.43.91,1.23,2.43,2.35,2.93-.76-1.66-1.1-2.81-1.25-4.09-.11-.93.11-1.87.43-2.77.32-.87.97-1.75,1.63-2.16.67-.42,1.39-.56,2.07-.3Z"/>
            <path class="cls-3" d="M74.55,208.7c1.03-.78,2.68-1.39,3.87.12,1.18,1.5,1.54,2.14,2.56,3.25s2.15,1.74,1.36,4.47c-.78,2.73-2.36,4.79-3.77,6.41-2.58.02-4.95.76-6.83,1.58-1.82.79-3.15-.06-4.12-1.42,1.08-.26,1.93-.46,3.07-.54s4.27-.34,5.3-1.12,2.34-2.18,2.97-3.79c.51-1.31.94-2.6.51-4.13-.4-1.41-2.23-3.15-2.96-3.58-.73-.43-1.47-.82-1.98-1.24Z"/>
            <path class="cls-3" d="M78.63,223.39c.15,1.46-.23,2.19-1.65,3.26-1.43,1.07-2.95,2.03-4.94,1.95-1.85-.08-3.63-1.12-4.58-1.99-.79-.72-2.08-2.13-2.86-2.46-1.39-.59-1.75-1.35-1.73-2.19,1.11.36,1.72.74,3.04,1.62,1.32.87,2.15,1.89,4.22,2.06,1.83.15,2.73-.4,4.41-1.23,1.44-.71,2.82-.89,4.09-1Z"/>
            <path class="cls-3" d="M62.53,211.46c-1.31-.74-3.74-.96-4.64.17-.91,1.13-.96,4.43-.65,5.86.31,1.43.64,2.78,1.37,3.35-.4.92-.57,1.36-.1,2.08s1.58,1.84,2.84,1.98c1.26.14,1.89-.35,2.85-.26-1.69-.8-2.25-1.38-2.44-2.11-.19-.73,0-1.41.22-2.02-.66-1.34-1.91-2.56-1.87-4.74s.95-3.32,2.43-4.31Z"/>
            <path class="cls-3" d="M65.49,225.99c-1.08-.31-3.55-.74-4.2-.66-.5.98-.35,1.47-.35,2.72,0,1.25-.01,1.61,1.23,2.1s1.57,1.08,2.33,1.57c.76.49,2.83-.04,3.91-.49,1.07-.45,1.86-1.48,2.23-2.15-2.34-.46-3.57-1.43-5.14-3.08Z"/>
          </g>
          <g>
            <path class="cls-3" d="M68.67,24.28c.97-.65,1.63-1.14,2.64-.77,1.01.36,1.77,1.35,2.19,2.49.42,1.15.75,2.28,1.57,2.92.82.64,1.47,1.36,1.25,2.12-.23.76-.79,1.99-1.13,3.6-.22,1.04.05,1.5.43,2.14-1.91-.57-3.77-1.04-4.73-1.79-1.14-.9-2.82-2.43-3.42-4.59s-.6-3.59-.19-4.41c.42-.82.97-1.44,1.38-1.72Z"/>
            <path class="cls-3" d="M76.04,36.43c-.39-.88.07-2.1.64-3.25.56-1.15.76-1.63,1.66-2.29.87-.63,1.58-1.01,2.19-.77.8.32,1.24.8,2.11.43.87-.38,1.95-.68,2.51.45.56,1.13.11,2.12.33,2.87.22.75-.34,1.53-1.39,2.03.84-.21,1.37-.42,1.55.06.18.48.41.92-.54,1.73s-1.65,1.22-2.47,1.56c-.82.34-3.08-.29-4.12-.7-1.04-.41-2.18-1.45-2.48-2.13Z"/>
            <path class="cls-3" d="M85.92,30.36c.85-.52,1.93-1.48,2.27-1.37.64.2,1.21.49.86,1.41-.34.92-.49,1.25-.24,1.83.25.58.14,1.19-.1,1.81s-1.05,1.87-2.07,2.57c-.07-.81-.29-1.32-.88-1.51.44-.67.37-1.4.45-1.83.11-.57.25-1.13.23-1.52-.02-.52-.12-1.05-.52-1.41Z"/>
            <path class="cls-3" d="M82.13,29.52c.62.02,1.5-.27,2.13-.02s.97.09,1.48-.27c.51-.35,1.13-1.09,1.4-1.8.26-.71.56-1.6-.23-2.19-.79-.59-1.89-1.64-2.71-2.59s-2.18-1.29-3.09-1.18c-.91.1-1.68-.12-2.47-.18-.79-.05-1.29,0-1.97.54-.68.55-.99,1.52-1.32,2.35-.33.83-.44,1.33-.2,2,1.11-.72,2.84-.83,3.73-.36,1.06.57,3.18,2.69,3.27,3.69Z"/>
            <path class="cls-3" d="M81,29.49c-.32-.68-1.59-2.26-2.62-2.8-.66-.34-1.66-.3-2.12-.11-.62.24-1.01.72-1.37,1.19.76.82,1.52,1.02,1.92,1.45.42.46.52.85.39,1.54,1.55-1.33,2.95-1.85,3.8-1.28Z"/>
            <path class="cls-3" d="M74.91,26.42c-.28-.94-.43-3.15-.13-3.81.3-.66,1.05-1.87.42-2.34-.63-.47-1.27-.63-2.27-.32-.99.31-1.67.32-2.47.58-.81.26-1.61,1.27-2.07,1.82-.46.54-.38,1.12-.3,1.67.95-1,1.72-1.63,2.6-1.62.9.01,1.86.51,2.42,1.74.34.74,1.02,2.53,1.34,3.21.04-.6.45-.93.45-.93Z"/>
            <path class="cls-3" d="M67.22,24.91c-.8-.5-1.47-1.02-2.34-.65-.87.38-2.08,1.14-1.75,2.5.34,1.36,1.79,2.47,1.7,3.43-.09.97.1,2.43.87,3.11.77.68,3.59,2.88,4.57,3.41.98.53,2.61.68,3.57.1-2.92-.58-3.59-1.62-4.78-2.82-1.32-1.33-1.96-2.27-2.35-3.82-.39-1.54-.61-2.63-.47-3.41.14-.78.47-1.29.97-1.86Z"/>
            <path class="cls-3" d="M74.19,36.99c1.24.37,1.91.6,2.29.72,1.55,1.38,2.75,1.67,3.85,2.02.75.24,2.06.46,2.96.06.65-.29,1.98-1.17,2.55-1.65,1.27.11,2.09.88,1.64,1.77-.53,1.05-1.4,2.12-2.88,2.16-1.48.05-3.88-1.1-5.16-1.42-1.28-.32-2.38-.16-3.21-.8-.82-.64-1.66-1.9-2.04-2.86Z"/>
          </g>
          <g>
            <path class="cls-3" d="M70.95,111.9c1.11,1.13,2.16,2.49,3.35,4.66,1.19,2.17,1.8,4.25,1.52,6.33-.28,2.08-2.99,3.9-4.74,4.98-1.63-2.62-3.64-4.54-3.32-6.96.31-2.42.44-3.51.17-4.39s-.64-1.74-.48-2.45c.16-.71,1.04-2.42,1.64-2.68.61-.26,1.19-.17,1.85.5Z"/>
            <path class="cls-3" d="M64.84,114.2c1.17.7,1.84,1.96,2.33,2.85,0,1.84-.34,3.71-.35,4.82-.01,1.12.39,2.64,1.4,3.74.54.59,1.89,1.98,2.41,2.53-.62.65-1.56,1.23-3.09.93s-3.99-2.45-4.4-3.69-2.11-3.9-2.65-4.77c-.54-.87-.9-1.9-.63-2.86s.82-1.93,1.3-2.71c.48-.78,1.02-1.08,1.67-1.18.65-.1,1.51.06,2.01.35Z"/>
            <path class="cls-3" d="M70.91,109.96c-1.24-.76-2.02-.87-2.9-.7-.83.16-1.14.51-1.47,1.22-.2.44-.74.81-.8,1.33-.79-.03-1.77-.19-2.17.24s-.39.71-.38.98c1.34.24,2.92.56,3.78,2.03-.35-2.42.68-3.61,1.16-4,.59-.46,1.3-.69,2.19-.41.35-.42.59-.7.59-.7Z"/>
            <path class="cls-3" d="M71.21,110.89c.36-.59.6-1.3.75-1.61.15-.31,1.01-.91,1.66-.6.65.31,1.39,1.14,1.31,2.21-.08,1.08-.31,1.64.63,3.03.95,1.39,2.02,2.06,2.93,3.59.97,1.63.68,4.69.3,5.9-.38,1.21-1.36,2.78-2.03,3.39.38-1.28.8-2.24,1-3.35-1.4,1.36-2.37,2.54-2.78,3.14s-1.11,1.36-1.25,1.68c-.83.26-1.95-.05-2.41-.11,1.82-1.18,2.68-1.7,3.64-2.82s1.61-2.05,1.65-4.12c.04-1.89-1.11-4.31-2.05-5.76s-2.46-3.76-3.35-4.57Z"/>
            <path class="cls-3" d="M77.76,111.68c.71.16,1.28.99,1.35,1.76.17,1.8.69,2.32,1.42,3.21.94,1.15,1.59,2.61,1.3,3.87-.29,1.26-1.59,3.04-3.37,4.17,1.89-2.72,2.01-5.21.98-7.06-.92-1.68-3.46-3.63-3.83-5.18.62-.06,1.27-.98,2.14-.77Z"/>
          </g>
          <g>
            <path class="cls-2" d="M11.47,296.62c1.66-.14,3.27.25,4.88,1.01h-7.99c1.02-.59,2.09-.92,3.11-1.01Z"/>
            <path class="cls-3" d="M60.14,269.1c1.31.94,1.29,2.18,1.31,3.93.01.75-.28,1.97-.94,3.18s-2.43,2.43-5.62,3.56c-3.18,1.12-6.52.36-8.61-.28-1.75-.54-3.93-2.43-6.27-4.3,1.12-.09,1.92-.14,3.02-1.31,1.71-1.82,2.74-3.56,3.49-4.49.75-.94,2.2-.75,3.7-.28s3.18-.09,4.96-.56c1.78-.47,3.65-.37,4.96.56Z"/>
            <path class="cls-3" d="M44.04,263.39c.83.54.97,1.75.94,3.37-.04,1.69-.47,2.34-1.4,4.02-.94,1.68-2.04,3.3-3.47,3.57-1.1.21-3.36-.3-4.76-1.24-1.4-.94-4.12-3.18-4.4-4.49-.28-1.31-.37-2.53-.19-4.4.19-1.87.94-1.97,1.68-2.15.75-.19.94.66,1.4,1.87-.29-1.74.19-3.09,1.31-3.46,1.12-.37,1.97-1.78,3.84-2.06,1.87-.28,2.43,1.31,2.71,2.71.28,1.4,1.25,1.53,2.34,2.25Z"/>
            <path class="cls-3" d="M36.93,257.5c-.5.32-1.08.96-1.68,1.59-.45.47-1.41,1.01-1.87,2.13-.74-.56-1.56-.4-2.63.21,0-1.87.84-3.93,1.4-4.77.56-.84,1.22-1.5,2.15-1.68.94-.19,1.22-.66,2.06-1.87s1.68-.76,2.49-.15c.43.33.17,2.49.26,3.98-.79-.19-1.52.14-2.19.56Z"/>
            <path class="cls-3" d="M44.41,262.27c1.12-.19,4.16.02,5.71.84.98.52,1.79,1.8,1.97,2.53.23.98-.02,1.87-.3,2.71-1.66-.23-2.57-1.01-3.44-1.12-.93-.13-1.5.09-2.25.84.32-3.07-.25-5.24-1.68-5.8Z"/>
            <path class="cls-3" d="M63.13,282.02c-1.97.75-4.59-.09-5.71.84-1.12.94-3.09,1.97-4.59,1.59-1.5-.37-6.64-1.97-8.14-2.71s-3.09-2.64-3.18-4.33c3.23,3.11,5.09,3.05,7.58,3.49,2.78.49,4.49.47,6.74-.37,2.25-.84,3.78-1.51,4.62-2.35s1.19-1.68,1.46-2.8c1.31.56,2.53.94,2.81,2.34.28,1.4.37,3.56-1.59,4.3Z"/>
            <path class="cls-3" d="M32.34,271.89c1.38,1.05,2.76,2.29,5.8,3.02.47.37,1.33,1.01,2.85,2.22-1.52.35-3.79.4-5.29-.07-1.5-.47-2.25-1.97-3.74-3.28-1.5-1.31-4.97-3.29-6.19-5.16-1.22-1.87-.64-3.85.2-5.42.71-1.32,2.36-.97,3.59.5-.09,1.12-.05,3.53.15,4.57.28,1.45,1.68,2.89,2.62,3.6Z"/>
          </g>
          <g>
            <path class="cls-3" d="M106.14,295.62c.64-.64,3.29-.87,4.28-.71.99.16,1.89,1.08,2.88,1.88.4.33.89.59,1.54.84h-9.23c-.22-.86,0-1.49.52-2.01Z"/>
            <path class="cls-3" d="M114.36,296.08c-.88-1.09-2.15-2.6-2.43-4.46-.12-.79.13-1.97.6-2.74.46-.77,1.12-1.31,2.38-1.52s2.77-.41,4.14-.26c1.37.15,2.49,1.14,3.33,2.29.83,1.15,3.35,4.7,4.72,5.87.52.44,1.05,1.33,1.49,2.37h-9.42c-1.4-.42-3.14-.88-4.8-1.55Z"/>
            <path class="cls-3" d="M111.93,294.8c-2.91-1.7-4.97-1.01-5.71-.59-.89.51-1.55,1.3-1.66,2.58-.71.23-1.2.39-1.2.39-.33-1.98-.06-3.02.61-4.07.63-.98,1.24-1.19,2.31-1.24.67-.03,1.41-.53,2.12-.32.37-1.03.68-2.36,1.44-2.65.76-.29,1.1-.13,1.45.03-.39,1.83-.8,4.03.63,5.88Z"/>
          </g>
          <path class="cls-2" d="M163.57,73.29c.9-2.29,2.61-3.71,4.3-4.92.17-.12.34-.23.51-.34v5.28c-1.58-.48-3.24-.57-4.81-.01Z"/>
          <g>
            <path class="cls-3" d="M163.69,105.15c-.6-.49-1.34-1.68-2-3.18-.67-1.54-1.08-3.56-1.43-5.57-.34-2.01,1.28-2.78,2.38-4.19.52-.66,2.17-.8,2.69-.5-.95.88-1.55,2.34-1.83,3.74-.26,1.3.38,2.8,1.49,4.68.91,1.55,1.73,1.77,3.38,2.27v3.2c-1.88.27-3.46-.11-4.68-.44Z"/>
            <path class="cls-3" d="M166.8,100.22c-1.18-.65-1.51-1.76-1.75-4.47-.21-2.47.54-2.97,2.02-3.96.36-.24.82-.44,1.3-.6v10.06c-.49-.36-1.05-.73-1.57-1.02Z"/>
            <path class="cls-3" d="M166.29,90.7c-.34-1.34-.3-3.66.07-4.91.26-.87.85-1.96,2.02-2.63v6.7c-.74.15-1.51.44-2.09.85Z"/>
            <path class="cls-3" d="M165.31,90.72c-.93-.16-2.04.14-3.1.65-1.35.64-1.76,1.8-2.38,3.03-.62,1.24-.59,3.24-.28,4.88.35,1.8.88,3.24,1.78,5.32-1.73-.64-3.04-2.89-3.63-4.27-.88-2.05-1.11-4.57-.5-6.75s2.15-5.07,3.64-6.58c1.48-1.51,2.68-1.5,4.77-.36-.07.68-.47,3.01-.3,4.1Z"/>
            <path class="cls-3" d="M161.66,105.72c2.76,1.14,4.98,1.08,6.72.7v3.82c-2.67-.73-5.06-2.25-6.72-4.52Z"/>
          </g>
          <g>
            <path class="cls-2" d="M166.05,170.78c.07,5.22,1.5,14.15,2.24,16.85.03.09.06.2.08.29v5.03c-.29-.8-.57-1.61-.83-2.41-.96-.74-3.12-1.62-4.84-1.55-1.21,1.41-3.43,2.92-5.49,3.01-2.34.11-4.21-.42-5.8-1.43-1.44-.91-2.93-1.99-3.78-3.82,1.66.48,3.39.11,4.93-.69,1.55-.8,3.69-1.06,5.78-.62,1.91.4,3.26,1.25,4.47,2.6,1.43-.01,3.07.48,4.3,1.12-.11-.38-.22-.76-.32-1.13-.25-.9-.56-2.41-.87-4.22-.8-1.63-2.36-3.64-3.33-4.3-2,.98-4.95.75-6.34-.89-1.5-1.76-1.92-3.59-1.94-7.15,1.37,1.36,4.43,1.63,6.4,3.47,1.22,1.14,1.97,2.6,2.22,3.65.71.42,1.71,1.51,2.58,2.74-.34-3.36-.56-7.16-.6-10.08-1.05,1.57-2.33,2.42-3.53,3.25.33-2.86-1.58-4.02-.79-5.43-1.88,1.07-5.32.69-7.49-.27,3.03-.12,4.44-.35,5.38-.85,1.32-.7,2.38-1.54,2.7-2.1.6.97,1.43,1.66,2.75,2.28,1.35.63,3.25.62,4.44.53v3.34c-.85-.29-1.79-.78-2.32-1.23Z"/>
            <path class="cls-3" d="M168.38,151.83v2.7c-.29-.17-.57-.37-.84-.6.03-.62.36-1.4.84-2.11Z"/>
            <path class="cls-3" d="M165.97,152.53c-1.09-1.09-2.2-1.98-1.4-3.47.7-1.3,2.6-1.89,3.8-1.88v2.94c-1,.76-1.92,1.81-2.4,2.41Z"/>
            <path class="cls-3" d="M163.65,147.62c-.82,1.04-.8,2.48-.1,3.94.71,1.46,3.52,3.64,4.63,3.92.06.01.13.03.19.05v6.34c-.37,0-.74-.01-1.11-.08-.86-.15-3.12-.5-4.56-.32-.07-1.75-.47-3.29-1.22-4.31-1.08-1.47-1.61-2.74-1.62-3.59-.05-2.46.96-6,1.46-8.58.41-2.12,1.08-3.53,3.26-4.76,1.47-.83,2.79-.7,3.81-.27v6.08c-2.52-.38-4.01.67-4.72,1.58Z"/>
            <path class="cls-3" d="M165.18,167.66c-2.19-.64-3.63-2.03-5.43-3.79.14-.4.4-.61,1.21-1.06.63-.35,1.92-.78,3.08-.35,1.58.58,2.98.89,4.34.81v4.64c-1.13.06-2.22,0-3.2-.25Z"/>
            <path class="cls-3" d="M161.11,144.09c-.81,1.83-1.38,3.45-2.01,5.04-.59,1.51-1.69,3.66-1.02,6.18.31,1.18,1.48,2.08,2.38,2.88.72.64,1.06,2.43,1.05,3.5-1.06.33-1.91.81-2.47,1.49-.52-.17-1.68-1.08-2.19-1.53-3.18-2.81-2.28-4.5-1.87-6.72.41-2.21.34-3.3.62-6.14.28-2.84,3.58-4.86,5.5-4.7Z"/>
          </g>
          <g>
            <path class="cls-3" d="M164.19,216.99c-.51-.94-.73-1.88-.72-2.46.02-1.36,0-2.31,1.01-3.04,1.01-.72,2.46-.8,3.83-.43.02,0,.05.01.07.02v8.6c-2.36-.85-3.7-1.77-4.19-2.69Z"/>
            <path class="cls-3" d="M167.8,208.1c-.58-.87-1.3-1.81-1.37-2.82s.22-1.52.8-2.24c.36-.45.77-.85,1.15-1.31v7.12c-.19-.21-.37-.45-.58-.75Z"/>
            <path class="cls-3" d="M166.28,210.19c-1.55-.28-2.66.3-3.27,1.16-.6.84-.51,1.99-.18,3.56-.58-.29-1.18-.6-1.39-1.39s-.65-2.24-.36-3.18.72-1.59,1.08-2.75c.36-1.16.94-1.66,1.81-1.95.87-.29,1.52,1.23,1.95,1.95.3.5,1.42,1.27,2.46,1.82v1.24c-.79-.18-1.61-.37-2.09-.45Z"/>
            <path class="cls-3" d="M166.57,222.13c-.87-.72-2.89-.07-4.41-.65-1.52-.58-1.45-2.24-1.23-3.33.22-1.08,1.16-1.37,2.17-1.81.21.86.48,1.51,1.13,2.16.65.65,1.84,1.17,3.57,1.82.2.07.39.14.58.2v2.66c-.68-.25-1.34-.65-1.8-1.04Z"/>
          </g>
          <g>
            <path class="cls-3" d="M161.69,254.27c-1.62-3.94-3.91-7-2.93-10.22.98-3.22,1.4-4.67,1.24-5.93-.16-1.26-.47-2.52-.09-3.44.39-.93,1.96-3.06,2.85-3.27.89-.21,1.65.04,2.4,1.11,1.15,1.64,2.19,3.56,3.22,6.37v11.26c-1.58,1.91-4.6,3.27-6.69,4.13Z"/>
            <path class="cls-3" d="M155.08,231.04c.64-.49,1.95-.06,3.01.17.19-.71,1.01-1.08,1.39-1.63.6-.89,1.11-1.3,2.27-1.32,1.24-.03,2.27.29,3.79,1.61,0,0-.39.33-.96.82-1.15-.58-2.17-.43-3.07.06-.75.41-2.41,1.8-2.49,5.17-.83-2.19-2.91-3-4.68-3.62.05-.38.1-.76.74-1.25Z"/>
            <path class="cls-3" d="M167.28,253.41c-.7.72-1.81,1.6-2.09,1.99-1.19.16-2.64-.52-3.25-.7,2.74-1.19,4.03-1.7,5.59-3.01.3-.25.58-.5.84-.75v1.44c-.47.41-.85.76-1.1,1.03Z"/>
            <path class="cls-3" d="M165.74,231.2c.63-.72,1.11-1.63,1.38-2.02.16-.23.69-.54,1.26-.64v7.68c-.87-1.93-1.9-4.06-2.64-5.02Z"/>
            <path class="cls-2" d="M167.24,288.27c.5,3.46-2.01,5.55-4.35,6.76-2.47,1.28-4.76,1.66-7.75,1.66.8-.78,1.59-2.55,1.88-3.48.3-.94.89-3.15,1.77-4.38.87-1.23,2.85-2.51,4.66-2,1.4.39,2.01,1.19,3.07,1.17.02-.04.04-.08.08-.11.54-.5,1.14-.78,1.77-.94v.8c-.39.11-.77.28-1.14.53Z"/>
            <path class="cls-2" d="M148.01,270.05c1.89-.39,4.05-.48,6.39-.14,2.64.38,5.89,1.51,7.39,2.97,1.34,1.32,3.11,3.86,3.54,5.56.99.65,2.04,1.5,3.05,2.4v1.16c-1.09-1.1-2.26-2.15-3.37-2.89-1.12.7-2.8,2.36-4.1,3.02-1.6.81-4.88.8-6.27,0-1.41-.82-3.1-1.75-4.54-2.08-1.77-.4-2.71-1.99-3.21-3-.75-1.51-2.49-3.96-4.86-4.15,1.43-1.36,4.09-2.46,5.98-2.85Z"/>
            <path class="cls-2" d="M167.51,258.9c.03,3.26.33,6.53.87,9.87v7.16c-1.23-5.56-1.92-11.32-2.01-16.77-.67-.46-1.93-.68-2.63-.8-1.06-.18-2.47-.95-3.15-1.41-1.24.09-3.66.58-4.23,1.02.72-1.2,1.86-2.03,2.5-2.17,1,.03,2.03-.34,2.55-.68,1.04.58,2.98,1.09,3.96.92.78-.71,1.9-1.85,2.99-2.9v4.9c-.31.24-.61.53-.87.86Z"/>
          </g>
          <path class="cls-2" d="M119.7,275.23c.67-.11,1.11-.24,1.43-.45,9.9.69,18.46-8.43,21.73-16.06,1.05-2.46,1.96-5.81,3.01-9.69,2.78-10.23,6.23-22.87,14.99-29.25.08.52.29,1,.72,1.35-8.21,6.11-11.55,18.37-14.25,28.3-1.07,3.93-1.99,7.33-3.09,9.89-3.34,7.79-11.93,17.03-22.08,17.03-1.41,0-2.85-.19-4.31-.58.48-.22,1.05-.41,1.83-.54Z"/>
          <path class="cls-2" d="M4.32,278.88c5.74,1.58,7.31,5.04,11.27,6.6,3.05,1.2,6.11,1.21,9.69-.51.36.23.72.49,1.08.79,1.58,1.3,2.77,4.49,2.68,6.66-.95,1.83-1.75,3.56-2.44,5.21h1.62s.03-.08.05-.13c.97-.88,2.72-2,4.71-2.43.59-.13,1.47-.27,2.52-.33.3.84.69,1.9,1.44,2.88h10.76c-.15-.32-.3-.65-.49-.99-1.55-2.76-3.48-4.22-5.92-4.48-2.9-.3-4.75.65-5.94,1.75-1.06.06-1.94.21-2.54.34-1.38.29-2.64.74-3.63,1.25.53-1.13,1.11-2.28,1.76-3.49,2.17-4.04,4.64-8.26,8.03-11.84-.15,1.03-.05,2.87.4,4.28.41,1.3,1.47,2.85,2.71,3.6-.72-1.53-.94-2.19-.94-3.47.11.15.22.3.34.45,1.69,2.08,4.6,2.28,6.18,4.6-.42-1.54-1.57-2.87-2.39-3.65-.6-.58-1.05-1.18-1.21-1.89,7.47,3.09,13.79,3.8,19.23,3.8,2.32,0,4.48-.13,6.49-.25.04,0,.08.02.12.02,0,0,.02,0,.03,0,2.93-.11,7.02-1.14,10.66-2.32,1.36.29,4.19,1.46,5.55,3.56-.81,2.18-.68,4.01-.19,6.41.13.63.38,1.76.65,2.32h8.69c-.25-1.44-.93-3.32-1.86-4.83-1.33-2.17-4.19-3.68-6.41-4.11-1-1.66-2.97-3.15-4.66-3.95.51-.18,1.01-.36,1.49-.54,1.17-.44,2.68-1.1,4.36-1.91,2.06-.45,4.88-.66,6.77-.34.37,3.84,3.75,7.99,7.52,8.28,3.85.3,6.73-.93,11.54-4.39-3.18-.52-6.54-4.38-10.95-5.23-2.89-.56-5.76-.05-7.38.69-1.03-.35-2.8-.52-4.58-.48,3.17-1.66,6.55-3.64,9.17-5.55.53-.39,1.18-.88,1.84-1.4-.59,1.21-1.02,2.61-1.44,3.7,1.54-1.88,2.85-3.35,3.38-3.64.23,3.52,3.41,6.94,5.52,8.13-2.26-2.82-2.67-5.05-2.4-5.97.17-.57.73-1.61,1.42-1.75-.51-.91-1.24-2.68-1.44-3.38-2.28-.1-5.65-1.62-5.65-1.62-1.29-.41-2.45-.09-3.72.6-1.42.77-2.69,1.71-6.02,1.41,2.13,1.96,5.39,2.7,7.13,2.2.78-.22,2.1-.73,3.16-1.14-.85.68-1.71,1.33-2.4,1.84-4.82,3.52-12.61,7.09-16.39,8.51-1.17.44-2.48.89-3.83,1.32,1.72-1.77,3.57-4.18,4.73-6.41,3.41-1.85,6.01-4.01,7.21-7.56,1.26-3.73,1.9-9.31.19-13.53-3.08,3.5-4.92,3.68-7.84,6.11-2.93,2.42-5.3,6.16-4.35,9.19.87,2.77,2.35,4.11,3.87,5.65-1.59,2.79-4.44,5.81-6.32,7.29-.72.2-1.43.38-2.14.54-11.38-26.36-36.84-36.56-55.83-40.49,3.72-1.44,6.81-3.03,10.23-5.74.43-.34.85-.69,1.27-1.04,1.07.76,2.37,1.09,3.57.99,2.39-.22,3.79-.45,6.21.29-.98-3.36-2.99-5.39-5.04-6.19,1.38-1.84,2.6-3.99,3.55-6.63,1.14-3.19,1.72-7.13,1.78-9.44.06-2.57.05-5.12-.7-7.98-.09-.36-.46-.57-.81-.47-.36.09-.57.46-.47.81.71,2.69.71,5.14.66,7.61-.01.56-.06,1.22-.14,1.94-5.46-2.66-8.74-3.1-11.64-1.9-2.85,1.18-4.44,3.97-4.92,6.22-.25.17-.51.34-.76.55-1.15.95-2.18,2.87-2.42,4.48-1.39-2.38-3.56-5.53-5.8-8.2.3.11,1,.28,1.3.35,1.27.28,2.71-.02,3.8-.38s2.31-.36,3.04,0c-.72-.87-2.1-1.16-3.18-1.16s-2.38-.12-2.96-.8c-.52.26-2.02.42-3.25.38-.05,0-.1-.01-.15,0-.42-.02-.8-.07-1.08-.15-.24,1.44-1.5,3.01-2.66,3.44.42,1.17-.04,1.95-.82,2.71-.63.61-1.52,1.63-1.84,2.82,1.22-1.79,3.46-1.94,4.77-3.55.09-.11.18-.23.26-.35,0,.99-.17,1.5-.73,2.68.95-.58,1.77-1.77,2.09-2.78.38-1.2.43-2.8.26-3.53,2.69,2.93,4.94,6.64,6.37,9.31.54,1,1,1.95,1.44,2.87-.79-.45-1.84-.83-3-1.08-.47-.1-1.15-.21-1.97-.26-.93-.85-2.35-1.58-4.59-1.35-1.88.19-3.38,1.32-4.57,3.46-.17.3-.31.6-.43.88.15.01.29.05.44.11.75.31,1.27,1.19,1.4,2.08.39-.07.78-.14,1.14-.19,1.74-.25,3.84-.38,5.07-1.71.81-.87,1.15-1.86,1.43-2.63.81.04,1.49.16,1.95.26,1.8.38,3.12,1.06,3.67,1.62,1.41,3.23,2.18,6,2.3,8.38-2.03,1.07-4.14,1.93-6.56,2.79-2.43-.45-4.72-.79-6.85-1.06.15.53.24,1.05.26,1.57,18.58,2.4,50.34,10.93,63.41,40.8-1.21.23-2.34.39-3.33.43h-.07c-6.71.42-15.05.93-25.71-3.61,0-.01,0-.02,0-.03-1.5-.56-3.14-2.59-3.44-4.45-1.47.41-4.86.17-5.79-.3-.75.89-2.42,1.04-3.83,1.04s-3.18.37-4.12,1.5c.94-.47,2.53-.47,3.93,0s3.27.86,4.91.49c.42-.09.86-.23,1.29-.39-2.91,3.24-5.23,6.75-7.18,10.3-.44-2.08-1.73-4.44-3.07-5.55-.33-.27-.66-.51-.99-.73-.62-2.92-2.68-6.52-6.36-8.04-3.79-1.57-8.06-.98-15.24,2.54ZM28.55,234.32c-2.53-.83-3.94-.27-4.68.39-.5.45-.8,1.02-.98,1.6-.64-2-1.59-4.21-2.84-6.63-.51-1.35.79-4.2,2.13-5.31.28-.23.56-.43.84-.61,2.77,1.33,5.13,1.32,7.49.39,3.02-1.19,4.25-3.82,8.56-5.06-.24,2.11-.74,4.73-1.55,6.97-.96,2.69-2.2,4.84-3.69,6.72-.05,0-.1-.02-.14-.03-1.76-.15-3.46.46-5.15,1.56ZM24.31,235.19c.86-.77,2.28-.85,4.09-.24.22.88.62,1.6,1.11,2.19-.37.31-.74.62-1.12.92-1.53,1.22-3,2.2-4.49,3.05-.08-.99-.25-2.04-.53-3.15-.07-.84.12-2.03.94-2.77Z"/>
          <path class="cls-3" d="M55.83,264.7c-.75,1.12-1.26,1.68-2.29,1.97-.07-1.99-1.41-4.23-2.76-4.91-1.61-.82-6.06-1.61-7.37-.87-.56-.75-.96-2.08-1.8-2.64-.84-.56-.94-1.12-.94-2.06s.37-2.34,1.03-3.28c.65-.94,1.5-2.06,2.9-1.59s3.65.94,5.52,1.12c1.87.19,3.46,1.59,4.12,2.81.66,1.22,1.59,1.97,2.34,2.9.75.94,1.12,1.59,1.03,2.9-.09,1.31-1.03,2.53-1.78,3.65Z"/>
          <path class="cls-3" d="M62.26,273.52c.42-2.04.54-3.53-.23-4.61-.79-1.11-2.23-1.85-4.23-1.5-1.21.22-3.99.91-5.12,1.1.7-.56.77-1.36.77-1.36,1.4-.47,4.26-2.18,4.82-3.11.56-.94,1.4-2.9,2.53-2.53,1.12.37,1.87,1.03,2.34,2.53.47,1.5,1.03,2.34,1.4,3.56s-.19,3.09-.47,4.12c-.28,1.03-1.05,1.43-1.8,1.8Z"/>
          <path class="cls-3" d="M161.01,254.52c-1,.74-2.41,1.32-4.41.56-2-.76-4.87-4.24-5.14-6.02-.27-1.78-1.98-5.79-2.52-7.1s-.79-2.79-.2-4.03c.59-1.24,1.56-2.43,2.39-3.39.83-.96,1.64-1.24,2.54-1.23.9.01,2.04.42,2.65.93,1.44,1.21,2.05,3.09,2.52,4.41-.43,2.5-1.31,4.96-1.57,6.48-.27,1.52-.07,3.68,1.05,5.4.6.93,2.12,3.13,2.7,3.99Z"/>
          <path class="cls-3" d="M132.9,112.78c.37-.15,1.18-.86,1.53-1.21,2.19-2.19,1.46-3.38,1.06-4.98-.4-1.59-.4-2.39-.73-4.45s-2.83-3.38-4.22-3.18c.67,1.29,1.16,2.45,1.69,3.58.5,1.07,1.39,2.59,1.02,4.45-.17.87-.98,1.58-1.6,2.2-.5.5-.66,1.82-.61,2.6.79.19,1.42.5,1.87.97Z"/>
          <path class="cls-2" d="M0,68.03v5.28c.41.13.83.27,1.23.45,1.94.86,4.56,1.01,7.06.32,2.25-.62,3.81-1.72,5.15-3.4,2.29-.04,5.23,1.44,6.21,2.46.94,3.66,2.4,7.98,3.87,10.53-2.39,1.23-5.22,1.84-8.94,1.53.39.48.72.9,1.02,1.27.28.01.58.04.85.04,7.96,0,11.86-4.44,16.29-9.47,3.68-4.19,7.85-8.94,15.23-11.76,5.2-1.99,14-1.24,23.49-.28.79.97,1.38,1.85,1.87,3.36.81-1,1.34-2.02,1.67-3,6.27.64,12.6,1.22,18.39,1.12,0,0,0,0,0,0,3.44-.06,6.7-.37,9.61-1.07.15-.04.3-.08.45-.12.38.89.91,1.74,1.61,2.21,1.42.96,2.78,1.34,4.15,1.32,1.25-.02,2.58-.12,3.81-.94-1.22-.33-2.15-1.22-2.81-2.31-.43-.71-1.11-1.35-1.93-1.87,6.01-2.44,11.86-6.56,17.46-12.32,8.98-9.23,18.83-11.25,26.43-5.47,5.01,11.63,4.34,22.63-2.09,34.4-1.85.43-4.01,1.37-4.98,2.47-.9,1.01-2.04,2.92-2.28,4.17-1.21.87-2.48,2.07-3.54,3.26.5-1.47.77-2.5,1.04-3.81.95-4.65,1.3-9.02,1.06-13.32.46-.36,1.08-.59,1.57-.71.76-.18,1.74-.81,2.21-1.18.9,0,2.68.24,3.11.52-.58-.83-1.45-1.37-1.92-1.45-.72.07-1.48-.14-1.88-.36-.72.47-2.1.94-2.82.87-1.05-.83-2.93-2.57-4.05-3.29-.13-.19,1.25,1.82,1.81,2.86-1.23-.25-2.57-.87-3.33-1.41.18.4.74,1.22,1.14,1.55-1.66-.22-2.43-.36-3.31-.57-.84-.2-2.24-.69-3.18-1.84,1.08,1.55,2.23,2.48,3.62,3,.66.25,3.63.65,4.59.98.6.21,1.26.75,1.67,1.39.15,4.1-.4,8.3-1.38,12.74-.18-.86-.43-1.73-.7-2.45.34-1.29.37-2.78-.17-4-.98-2.19-3.69-3.63-5.91-4.45.6,1.41.83,4.57,1.08,5.97.36,1.99,1.97,3.65,4.37,3.15.4,1.38.68,3.2.68,4.18-1.09,3.78-3.41,8.8-5.03,11.53.3.26.55.56.75.9.78-1.27,2.07-3.71,2.87-5.47,1.36-1.43,3.03-2.15,4.46-1.2-.18,2.53,1.07,3.93,2.61,5.06,1.63,1.19,3.42,2.01,5.29,2.58-.49-.65-.81-1.9-.92-2.6-.11-.71-.24-2.98-.73-3.96-.49-.98-1.76-2.12-3.12-1.95-1.27.15-1.76.6-2.86.46-1.33-.85-2.87-.59-4.08.15.14-.34.28-.68.42-1.03.96-1.38,3.2-4.02,5.07-5.44.84.45,1.92,1.42,2.9,1.83,1.2.5,3.57.34,4.53-.31.98-.66,2.15-1.42,3.18-1.73,1.26-.38,1.86-1.57,2.17-2.33.47-1.13,1.61-2.99,3.31-3.24-1.1-.91-3.09-1.57-4.47-1.76-.91-.12-1.92-.13-2.97-.03,6.22-12,6.61-23.67,1.22-35.58-.02-.04-.05-.08-.08-.11-.74-1.77-1.85-3.96-3.18-6.27-.26-1.62-.15-5.5,2.39-6.47,2.7,2.26,5.1,2.47,7.61,1.64,2.64-.87,4.99-2.22,7.13-3.86-1.12.02-2.78-.61-3.66-1.06-.88-.44-3.54-2.12-5.03-2.36-1.49-.24-3.79.28-4.69,1.93-.7,1.28-.74,2.12-1.32,3.01-.04,0-.09,0-.13,0-2.39.66-3.27,3.14-3.43,5.26-.27-.43-.54-.87-.82-1.3-1.13-2.81-2.25-6.64-2.35-9.89,1.18-.59,3.45-1.18,4.69-1.95,1.53-.94,3.24-3.74,3.29-5.34.04-1.63.13-3.56.61-4.96.59-1.72-.27-3.35-.87-4.31-.89-1.43-2.06-4.2-.98-6.31-1.91.5-4.24,2.2-5.57,3.6-1.32,1.4-2.53,3.2-3.47,5.37-1.06,2.45-1.81,5.81-1.35,7.85.42,1.83,1.65,4.67,2.87,5.93.07,2.17.57,4.84,1.13,7.07-1.24-1.74-2.51-3.39-3.78-4.72-4.35-4.56-9.41-8.25-14.42-11.44-.04-.81.53-2.13.8-2.78.41-1,.48-2.6.45-3.42.73-1.01,2.41-2.81,3.08-3.07-1.4-.02-2.7.52-3.16.99-.5.87-1.35,1.55-1.91,1.82-.05,1.19-.63,3.11-1.29,3.86-1.77.51-5.23,1.22-6.94,1.9-.32,0,3.04.06,4.65.27-1.27,1.18-3.03,2.18-4.25,2.6.59.12,1.96.15,2.65-.04-1.58,1.69-2.36,2.43-3.29,3.25-.89.78-2.57,1.96-4.62,2.09,2.61.03,4.58-.51,6.27-1.65.8-.54,3.64-3.56,4.78-4.37.53-.38,1.31-.64,2.11-.73,4.97,3.13,9.55,6.98,13.96,11.74-1.64-.72-3.48-1.32-4.67-1.48-.01,0-.02,0-.04,0-1.51-1.25-3.51-2.23-5.49-2.18-3.3.07-6.59,2.74-8.82,5.14,2.11,0,6.26,1.39,8.16,1.81,2.66.6,5.51-.91,6.26-4.06,2.38.48,4.91,1.84,6.51,3.03,3.19,4.02,6.42,9.4,8.22,13.29-7.86-4.7-17.52-2.29-26.32,6.75-5.8,5.96-11.85,10.12-18.06,12.44-1.32-.46-2.47-.45-3.71-.07-.93-.58-2.22-.9-3.25-.95.24-.22.48-.43.7-.64.43-.4,1.1-1.11,1.87-1.98,1.06-.79,3.16-1.79,4.11-1.85.87,1.38,2.74,2.55,4.24,2.06,1.61-.53,2.57-1.5,3.93-3.71-1.37.32-3.38-.67-5.3-.28-1.19.24-2.22.87-2.77,1.42-.65,0-1.79.34-2.87.82,1.56-1.84,3.26-4.02,4.44-5.8.02,1.23-.07,2.34-.05,3.49,1.24-.51,3.47-3.02,3.77-3.39.76,1.38,2.83,2.29,4.55,2.52-1.84-1.23-2.63-1.91-3.03-2.57-.56-.94-.9-2.06-.75-2.53-.71.41-1.65.68-2.7.57-1.68-.19-3.62-1.86-3.62-1.86-.51.33-1.52.61-2.38.28-1.17-.45-1.82-1.48-3.02-1.27,1.21.47,2.14,2.39,3.99,3.32.69.35,2.34.68,3.05.53-2.01,3.23-6.59,8.14-8.1,9.56-.55.52-1.18,1.07-1.83,1.62.57-1.45,1.07-3.31,1.17-4.87,1.34-1.67,2.2-3.33,2.05-5.4-.15-2.21-1.02-5.24-2.81-7.07-.85,2.48-1.76,2.97-2.76,4.86-1,1.89-1.42,4.34-.28,5.71,1,1.2,2.25,1.64,3.32,2.08-.16,1.94-1.2,4.39-1.93,5.68-1.01.78-2.03,1.49-2.95,2-5.8.15-12.23-.43-18.6-1.08.23-1.41,0-2.7-.55-3.67-.75-1.31-2.02-2.21-3.63-2.87-.66-2.2-1.74-2.92-2.57-3.11-.53-.13-1.06-.07-1.54.07,1.11-1.46,2.22-3.24,3.33-5.36.83-.93,3.3-1.48,4.69-1.09.3.08.57.16.83.27.42,2.61,1.59,4.42,3.4,5.63,2.35,1.57,4.84,1.11,7.87,3.65-.8-5.25-2.1-7.8-4.39-9.28-2.23-1.43-4.98-1.19-6.8-.42-.24-.1-.49-.19-.76-.27-1.21-.34-3.03-.14-4.28.46,1.08-2.41,2.15-5.33,2.85-8.12.07.23.33.91.41,1.12.42,1.04,1.34,1.91,2.13,2.49.79.59,1.39,1.46,1.49,2.14.26-.94-.21-2.05-.74-2.81-.53-.77-1.08-1.74-.88-2.48-.61-.33-2.02-2.1-2.36-3.05-1.13.54-2.86.41-3.74-.19-.62.87-1.4.93-2.32.75-.74-.15-1.89-.27-2.9.08,1.86-.02,3.07,1.49,4.85,1.63.13,0,.25.01.37.01-.7.49-1.14.62-2.25.8.87.39,2.12.38,2.99.11.98-.3,2.06-.99,2.54-1.46-.67,3.29-2.03,6.25-3.41,8.96-.43.85-.86,1.62-1.29,2.37-.08-.76-.32-1.66-.7-2.57-.16-.38-.41-.92-.78-1.52.15-1.07-.04-2.43-1.3-3.9-1.06-1.24-2.59-1.73-4.69-1.53-1.21.12-2.02.56-3.41.11.77,1.34,1.82,2.24,2.62,3.1,1.03,1.1,2.15,2.52,3.7,2.74,1.01.14,1.98-.04,2.66-.22.37.6.62,1.08.74,1.47.47,1.48.57,2.69.4,3.53-1.62,2.65-3.03,4.31-4.67,5.57-.06.05-.1.12-.13.19-2.75,2.45-6.82,4.53-9.76,5.49-2.2.18-4.16.55-5.8,1.18-7.66,2.93-11.94,7.8-15.71,12.09-2.31,2.63-4.41,5-6.96,6.66-.98-1.71-2.04-4.45-2.81-6.95.25-2.39,1.48-6.42,3.04-9.2,2.01.44,3.88.89,6.56.17,3.06-.82,4.95-4.83,5.42-8.6.47-3.77-.35-5.42.94-9.9-4.48.82-8.84,4.36-11.31,7.42-2.35,2.91-2.78,6.26-2.51,10.13-1.3,2.15-2.45,4.54-3.08,6.64-.28-1.09-.52-2.15-.73-3.14-.83-3.95-2-12.44-1.61-18.4.06-.86.15-1.93.26-3.01.23,1.12.51,2.51.74,3.29.51,1.74,2.89,4.09,5.69,4.84-2.04-2.64-1.93-4.22-2.04-5.83-.1-1.45-.45-2.59-1.49-3.46,0,0-3.09-2.03-4.4-3.89-.7.2-2.58.54-3.63.6.24.65-.33,1.69-.72,2.14-.63.72-2.73,1.58-6.32,1.18,2.14,1.15,6.73,1.99,9.82.3.04.6-.5,2.49-1.25,4.8.66-.9,1.55-1.95,2.24-3.04-.08.77-.14,1.49-.19,2.1-.25,3.06-.11,6.7.19,10.09-.87-1.16-1.89-2.22-2.72-2.9-.23-1.77-1.35-4.48-3.38-6.63-3.09-3.26-8.15-4.03-10.29-6.43-.34,5.92.17,9,2.49,12.09,2.24,2.99,7.45,3.64,10.89,1.97,1.56,1.34,2.72,3.17,3.35,5.16.26,2.13.57,4.01.86,5.38.06.3.13.61.2.92-1.52-.8-3.77-1.33-5.71-1.21-1.56-1.64-4.4-3.34-6.94-3.3-2.59.04-4.67.7-6.41,1.83ZM73.64,38.71s0-.01,0-.02c0,0,0,.01,0,.02,0,0,0,0,0,0ZM95.79,65.16c1.07-.73,2.19-1.6,3.21-2.48.81-.16,2.72-.16,3.85.59.04.26.11.55.19.85-.11.03-.22.06-.33.09-2.13.51-4.46.8-6.92.94ZM56.05,62.82c2.69-1.18,5.7-2.94,7.84-4.92l-.03-.03c.78-.61,1.55-1.37,2.32-2.27.57-.4,1.55-.76,2.39-.6,1.03.19,1.76,1.12,2.23,2.71-1.68,1.93-1.58,4.43-.44,5.96-5.15-.51-10.06-.93-14.31-.84Z"/>
          <path class="cls-2" d="M8.36,0h7.99c.6.29,1.19.62,1.79,1.01,3.3-1.09,5.27-.45,6.14.31.57.5.97,1.01,1.24,1.51.31-.91.68-1.86,1.09-2.83h1.62c-1.35,3.14-2.21,5.93-2.59,8.42-.43-.39-.89-.71-1.36-.94.15-.8.33-1.63.57-2.49-.06-.98-.38-2.1-1.22-2.85-1.11-1-2.93-1.1-5.26-.32-.97,3.89-4.41,5.58-7.36,5.31-3.09-.28-4.91-.58-8.04.37C4.05,3.78,6.12,1.29,8.36,0Z"/>
        </g>
        <path class="cls-2" d="M35.17,176.96c1.72,2.54,2.91,3.65,4.83,4.19,1.79.5,4.01-.75,4.97-2.42,1.08.03,3.38.81,4.71,1.64.98,1.08,1.83,1.95,2.4,2.44.25.22.52.44.8.67-1.14.14-2.5.58-3.5,1.28-1.57-.43-2.98-.4-4.59.25-1.71.69-3.12,1.91-3.84,3.23-.72,1.32-1.78,2.41-3.2,2.87,1.49.9,3.07.96,4.55.92,1.62-.04,3.21-.57,4.84-1.77,1.51-1.12,2.38-3.45,2.5-5.06,1.22-.79,3.15-1.06,4.18-.97,2.18,1.73,4.68,3.22,7.05,4.22,2.85,1.2,8.15,3.23,13.6,4.59.86.21,1.76.43,2.69.64-.05.47-.15.93-.5,1.47.92-.24,1.67-.67,2.35-1.06,4.99,1.08,10.24,2.03,12.5,2.45,1.8,3.87,3.73,8.25,3.54,14.65-.77,4.56-1.22,8.92-1.26,12.89-.07,6.72.57,14.01,1.71,20.02-1.78-.24-3.27-.66-4-.85-1.19-.32-2.61-.95-4.04-1.7-1.12-1.31-2.39-3.27-2.92-5.16,1.05-.68,2.3-1.42,3.15-2.89.96-1.68.05-4.22-1.38-6.05-1.43-1.83-2.5-2.18-3.87-4.68-1.57,2.29-1.93,5.7-1.67,8.09.25,2.28,1.51,3.91,3.31,5.46.4,1.49,1.19,3.16,1.98,4.45-.75-.43-1.48-.88-2.12-1.3-2.07-1.35-6.24-4.5-8.65-7.24-.35-.39-.77-.9-1.19-1.41.58.38,1.3.86,1.74,1.1.97.53,3.02.51,4.55-.37-2.03-.26-2.66-.98-3.41-1.63-.67-.58-1.32-.92-2.14-.85,0,0-2.21.46-3.58.22-.21.39-.88,1.35-1.31,1.83.39.18.59.87.61,1.23.04.58-.49,1.86-2.22,3.24,1.42-.43,3.77-2.05,4.37-4.12.28.24.86,1.29,1.54,2.61-.09-.57-.23-1.71-.35-2.37.21.25.42.49.6.7,1.28,1.45,3.36,3.49,4.82,4.82-.99-.23-1.97-.34-2.59-.27-.87-.66-2.51-1.34-4.31-1.39-2.74-.07-5.26,1.79-7.22,1.68,2.41,2.7,3.97,3.81,6.3,4.14,2.22.31,4.64-1.84,5.45-4,.95-.04,2.53.39,3.94,1.07.98.74,1.86,1.36,2.53,1.79.26.17.54.35.82.52-1.12.25-2.48.88-3.29,1.74-1.39-.04-3.37.45-4.45,1.58-1.21,1.25-1.83,2.56-2.05,3.93-.2,1.25-.33,2.61.28,3.98.55-1.16,1.6-1.94,2.8-2.41s2.4-1.53,3.18-2.91c.7-1.24.95-2.55.7-3.89.97-1.02,2.68-1.49,3.81-1.42,2.01,1.18,4.26,2.17,6.09,2.72,1.36.41,3.79.91,4.4,1.03.09.44.18.87.28,1.3.23-.48.54-.84.88-1.16-1.29-6.18-2.03-14-1.96-21.18.03-2.92.29-6.06.74-9.34,1.23-.02,2.55-.18,3.97-.48.84.05,1.86.35,2.49,1.13.75.93,1.02,2.44.35,4.29-3.44.53-5.08,3.39-4.99,5.91.1,2.57.27,4.09-.66,6.64,4.57-1.08,7.05-3.98,7.43-6.68.26-1.85-.29-3.69-1.34-5.54,1.07-2.73.53-4.31-.14-5.15-.38-.48-.88-.81-1.39-1.04,2.25-.62,4.74-1.56,7.5-2.82,1.57-.03,4.03,1.35,5.02,2.68.23.31.43.62.61.93-1.58,2.89-1.71,5.42-.85,8.01,1.12,3.35,3.92,4.8,4.98,9.62,3.23-5.79,3.9-9.31,2.77-12.51-1.1-3.11-3.99-4.97-6.38-5.62-.17-.28-.35-.57-.56-.85-.9-1.22-2.52-2.48-4.11-3,2.85-1.37,5.7-3.17,8.64-5.61-.21.45-.4.92-.52,1.38-.38,1.35-.13,2.91.19,4.09.33,1.18.26,2.5-.17,3.26.97-.73,1.36-2.18,1.42-3.35.06-1.16.26-2.54,1.03-3.12-.35-.8-.39-3.62,0-4.81-1.53-.34-3.14-1.78-3.54-3.05-1.27.39-2.09-.15-2.86-1.04-.61-.71-1.66-1.72-2.92-2.14,1.85,1.41,1.89,3.82,3.54,5.32.12.11.24.2.36.3-1.06-.05-1.6-.27-2.83-.93.57,1.05,1.8,2,2.86,2.4,1.26.47,2.95.62,3.74.48-3.34,2.88-7.3,4.72-10.38,6.17-1,.47-1.95.88-2.87,1.26.46-.79.87-1.79,1.16-2.89.14-.51.31-1.27.4-2.18.93-.95,1.75-2.42,1.63-4.77-.1-2.03-1.23-3.69-3.45-5.1-1.28-.81-2.42-1-3.45-2.49-.27,1.91.08,3.61.22,5.06.17,1.88.19,4.14,1.55,5.53.95.98,2.08,1.4,2.9,1.75-.06.72-.17,1.33-.29,1.76-.47,1.77-1.51,3.29-2.12,3.91-3.4,1.29-6.29,1.96-8.77,2.03,1.83-12.36,6.19-26.56,11.02-38.98,0,0,0,0,0,0,2.29-4.44,6.05-8.59,10.59-11.71,1.81-1.24,4.01-2.11,5.81-2.68.57.13,1.37.51,2.22,1.15.26.2.63.52,1.02.92-.28.5-.65,1.13-.74,1.95-.14,1.26.75,2.43,1.41,3.47.51.81,1.01,1.82,1.91,2.7-.07-1.18.45-1.73.78-2.66.59-1.61.5-2.92-.25-4.01-.9-1.3-1.95-1.72-2.82-1.82-.39-.4-.77-.72-1.03-.92-.58-.44-1.19-.8-1.73-1.02.82-.24,1.52-.41,1.99-.51,2.02-.45,4.92-.94,7.64-.88-.48.32-1.16.98-1.57,1.64-.39.63-.65,1.61-.52,2.38.37-.84.56-1.16,1.09-1.61-.02.1-.05.2-.07.3-.26,1.43.69,2.69.3,4.15.48-.72.62-1.66.65-2.27.04-.76.25-1.37,1.06-1.68-.3-.81-.05-2.2.61-2.98-.68-.46-1.79-1.93-1.92-2.48-.63,0-1.28-.63-1.78-1.2-.5-.58-1.28-1.17-2.07-1.16.52.22,1.08.87,1.39,1.61.3.74.8,1.64,1.53,2.19.12.09.27.17.4.26-2.36,0-4.63.4-6.51.8.68-.87,1.18-2.2,1.16-3.19,0-.23-.03-.44-.05-.65.98-1.29,1.73-3.4,1.06-5.45-.68-2.05-2.37-3.57-6.14-5.22,2.86-3.87,6.25-7.82,9.94-11.63.97.75,2.23,1.43,3.34,1.41,1.71-.03,3.05-.5,4.16-1.3,1.01-.73,2.04-1.58,2.58-2.95-1.19.42-2.46.24-3.62-.28-.82-.36-1.84-.5-2.9-.42,9.36-9.02,20.01-16.85,28.49-20.47-.34-.24-.66-.5-.97-.78-8.9,3.94-20.02,12.29-29.61,21.75-.97.4-1.72.99-2.37,1.82-1.09.06-2.33.53-3.2,1.09.07-.32.14-.63.21-.92.12-.58.26-1.54.39-2.7.42-1.26,1.56-3.28,2.31-3.88,1.5.63,3.71.52,4.65-.74,1.01-1.35,1.24-2.7,1.09-5.29-.94,1.05-3.15,1.39-4.5,2.82-.84.88-1.32,1.98-1.45,2.76-.53.37-1.28,1.3-1.88,2.32.22-2.4.37-5.16.31-7.3.73.99,1.28,1.95,1.96,2.88.73-1.13,1.11-4.47,1.14-4.93,1.42.7,3.63.25,5.17-.55-2.21.05-3.25-.06-3.96-.37-1-.45-1.92-1.17-2.06-1.64-.35.75-.96,1.51-1.89,2.02-1.48.81-4.03.55-4.03.55-.23.56-.9,1.37-1.79,1.59-1.22.3-2.34-.17-3.2.69,1.26-.32,3.12.73,5.17.43.76-.11,2.31-.78,2.8-1.32.2,3.8-.72,10.45-1.15,12.47-.15.74-.35,1.55-.57,2.37-.36-1.51-1.02-3.33-1.83-4.66.14-2.14-.11-3.99-1.42-5.6-1.39-1.72-3.84-3.71-6.36-4.17.73,2.52.26,3.44.53,5.56.26,2.12,1.32,4.37,3.05,4.84,1.51.41,2.78.05,3.91-.2.98,1.68,1.53,4.29,1.68,5.76-.47,1.52-1.02,2.98-1.62,3.99,0,0,0,0,0,0-1.95,2.36-3.75,4.72-5.33,7.04-1.11,1.63-2.35,3.71-3.66,6.14-1.33-.49-3.09-.48-5.04.4,1.5.95,2.02,1.8,2.99,3.16.04.05.08.09.12.14-.8,1.59-1.61,3.29-2.44,5.07-.02-1.65-.36-2.63.12-4.89-2.51.65-4.84,2.83-6.13,4.66-1.2,1.72-1.33,3.61-1.04,5.76-.72,1.4-1.26,3.28-1.52,4.83-.28-.82-.53-1.62-.74-2.36-.57-2.01-1.69-8.7-1.76-12.55.53.5,1.86,1.11,2.64,1.17,2.1.16,3.9-1.03,5.2-.8-.93-.81-2.03-.25-3.28-.47-.92-.16-1.65-.93-1.92-1.48,0,0-2.55.45-4.11-.27-.97-.45-1.65-1.17-2.05-1.9-.12.49-1,1.28-1.97,1.8-.69.37-1.73.55-3.97.66,1.61.69,3.88.99,5.27.19.07.47.69,3.82,1.51,4.9.62-.99,1.3-2.35,1.96-3.4.03,2.24.35,5.28.65,7.71-.69-.99-1.5-1.88-2.07-2.21-.19-.77-.76-1.85-1.67-2.69-1.47-1.34-3.73-1.53-4.75-2.52,0,.35.01.67.03.98-.98-.81-2.48-2.01-3.47-3.04-1.72-1.67-4.08-4.62-6.01-7.58,5.52-5.32,10.8-14.42,12.57-19.92,1.78-5.52,2.24-12.14,1.3-18.63-.15-1.07-.46-2.16-.84-3.24-.01-.6.13-1.32.62-1.82.64-.66,1.76-.79,3.23-.41.77,2.31,2.93,3.2,4.71,2.91,1.88-.31,2.97-.57,4.93-.13-1.21-3.25-3.57-4.8-5.58-4.83-1.4-.02-2.71.56-3.99,1.53-2.05-.51-3.13.01-3.68.57-.32.33-.52.73-.64,1.14-.81-1.98-1.85-3.86-2.79-5.38-.12-1.16.64-3.02,1.51-3.85.21-.2.42-.37.63-.53,2.27.89,4.13.75,5.95-.12,2.35-1.13,3.16-3.32,6.6-4.54-4.54-1.83-7.18-2-9.43-.88-2.18,1.1-3.28,3.39-3.53,5.21-.19.15-.38.3-.57.48-.8.77-1.48,2.21-1.63,3.45-1.12-1.74-2.69-3.92-4.5-5.81.16.04.31.07.46.09,1.02.15,2.14-.17,2.98-.52.84-.35,1.81-.42,2.4-.17-.62-.65-1.73-.8-2.58-.73-.86.06-1.89.04-2.38-.47-.36.21-1.34.41-2.25.47,0,0,0,0-.01-.01-.2-.18-.5-.16-.69.03-.22,0-.42-.02-.59-.05-.1,1.15-1.02,2.47-1.91,2.88.4.9.08,1.55-.5,2.19-.46.52-1.11,1.37-1.3,2.34.86-1.49,2.63-1.74,3.57-3.08.07-.1.13-.19.19-.29.06.78-.05,1.19-.42,2.16.72-.51,1.3-1.51,1.49-2.32.2-.84.19-1.91.07-2.55,2.22,2.13,4.14,4.84,5.39,6.82.38.61.79,1.28,1.2,2.01-.62-.26-1.38-.46-2.21-.58-.37-.05-.92-.1-1.56-.09-.78-.62-1.95-1.12-3.72-.81-1.48.26-2.6,1.24-3.42,3-.48,1.02-.51,1.87-1.51,2.76,1.42.02,2.64-.39,3.69-.63,1.36-.3,3.01-.52,3.91-1.65.59-.73.8-1.53.98-2.16.64-.01,1.19.03,1.56.08,1.2.17,2.15.51,2.71.86,1.12,2.11,2.14,4.53,2.46,6.79.92,6.35.47,12.81-1.26,18.19-1.72,5.34-6.82,14.14-12.17,19.37-.31-.5-.61-1-.89-1.49-.22-.95-.28-2.62-.16-3.97,2.47-.07,3.67-2.04,3.55-4.06-.08-1.41-.59-4.54-.34-6.05-1.97,1.31-4.27,3.35-4.71,5.7-.26,1.41.2,2.96.92,4.18-.11.71-.21,1.51-.25,2.29-2.15-4.07-3.54-8.03-4.32-12.07.25-.72.77-1.4,1.3-1.74.85-.54,3.66-1.63,4.24-2.02,1.22-.83,2.12-2,2.82-3.76-.64,1.34-2.26,2.52-3.03,2.9-.81.41-1.31.56-2.72.96.31-.41.66-1.34.75-1.77-.61.7-1.77,1.61-2.91,2.15.3-1.14,1.17-3.42,1.09-3.2-.92.96-2.35,3.09-3.17,4.14-.69.24-2.13.1-2.95-.19-.34.3-1.02.69-1.74.79-.44.18-1.16.91-1.53,1.85.35-.38,1.71-1.3,2.94-1.42.54.24,1.61.63,2.38.81.5.12,1.22.23,1.7.32.77,4.24,2.13,8.41,4.14,12.71.57,1.21,1.31,2.52,2.14,3.83-1.35-.99-3-2.05-4.44-2.69-.51-1.16-2.08-2.77-3.2-3.55-1.24-.87-3.71-1.28-5.64-1.24-1.71.04-3.25.36-4.55.87-1.3.51-3.08,1.61-3.94,2.76,1.71-.15,3.25,1.39,3.97,2.38.48.66,1.34,1.69,2.66,1.76,1.07.06,2.39.53,3.5.94,1.09.41,3.44.02,4.48-.75.93-.68,1.82-2.05,2.58-2.61,2.11,1.01,4.77,3.17,6.01,4.27.21.3.43.6.65.9-1.47-.47-3.37-.55-4.47.87-.02.03-.03.06-.04.09-.75.15-1.33-.06-2.38.07-1.36.16-2.33,1.56-2.58,2.63-.25,1.06.15,3.31.21,4.02.06.71.03,2-.29,2.75,1.69-.99,3.24-2.2,4.54-3.74,1.27-1.5,2.19-3.22,1.28-5.77,1.24-1.14,3.54-.38,4.69.37,1.25,1.61,2.48,3.02,3.51,4.02,1.18,1.19,3.21,2.8,4.39,3.69.2,1.17.59,2.02,1.3,2.84,1.04,1.2,3.34,1.24,4.81.5.8.53,2.03,2.42,2.55,3.67.22,1.16.42,2.11.59,2.69.08.3.18.61.28.93-.92-.5-2.21-.91-3.33-.88-.9-.98-1.89-1.6-3.29-1.89-1.55-.31-3.13-.11-4.26.49s-2.41.88-3.64.54c.64,1.35,1.74,2.13,2.81,2.8,1.18.73,2.56,1.11,4.29,1.02,1.52-.08,3.2-1.4,4.09-2.45,1.66-.04,3.08.88,3.68,1.45.71,2.13,1.77,4.7,2.75,6.2-3.61,9.68-6.84,20.2-8.81,29.99-.5-4.77-2.16-8.34-3.67-11.57-.29-.63-.58-1.24-.85-1.85-.39-.88-.93-1.75-1.53-2.59-.18-.5-.24-1.09-.03-1.65.31-.82,1.16-1.43,2.49-1.83,1.64,1.39,3.67,1.08,4.88.04,1.28-1.09,1.98-1.79,3.67-2.35-2.4-1.9-4.89-2-6.42-1.1-1.06.62-1.78,1.66-2.3,2.97-1.46.44-2.39,1.15-2.75,2.1-.12.33-.16.66-.15.98-1.14-1.45-2.43-2.75-3.57-3.79-.4-.95-.2-2.74.35-3.66.13-.22.26-.42.41-.6,2.14.22,3.69-.35,5.02-1.53,1.73-1.52,1.89-3.57,4.52-5.43-4.3-.47-6.58.02-8.22,1.52-1.59,1.45-1.98,3.67-1.75,5.27-.13.17-.25.35-.37.55-.5.85-.73,2.26-.56,3.35-1.44-1.27-3.31-2.7-5.32-3.88.17,0,.35-.02.51-.04.91-.12,1.78-.66,2.41-1.15.63-.5,1.44-.79,2-.72-.68-.4-1.66-.26-2.37,0-.71.26-1.59.49-2.14.17-.39.41-2.07,1.15-2.89,1.22.19,1-.27,2.34-.93,2.9.56.67.44,1.29.1,1.98-.27.55-.61,1.43-.54,2.3.38-1.47,1.82-2.11,2.29-3.48.03-.1.06-.19.09-.29.24.65.25,1.03.16,1.94.49-.61.74-1.59.71-2.33-.03-.78-.31-1.7-.57-2.2,2.4,1.28,4.69,3.13,6.23,4.51.48.43.99.91,1.51,1.43-.59-.07-1.3-.07-2.04.04-.33.05-.81.14-1.35.3-.81-.34-1.93-.48-3.35.2-1.19.58-1.91,1.68-2.19,3.37,0,.04,0,.08-.02.11-.92-.21-1.81-.41-2.63-.62-4.16-1.04-10.33-3.28-13.57-4.64-1.35-.57-3.02-1.59-4.63-2.76-.92-1.53-2.04-4.16-2.32-6.28,1.32-.63,2.57-1.12,3.77-2.68,1.28-1.67.66-4.55-.62-6.73s-2.38-2.72-3.51-5.6c-2.03,2.25-2.9,5.88-2.97,8.49-.06,2.46,1.04,4.38,2.7,6.28.19,1.75.82,3.82,1.53,5.46-.73-.57-1.44-1.14-2.06-1.68-1.83-1.58-7.28-7.3-9.86-11.01.85.14,2.52-.12,3.31-.56,2.15-1.2,3.14-3.52,4.55-4.13-1.43-.19-2.14,1.07-3.5,1.66-1,.43-2.2.16-2.83-.21,0,0-2.2,2.08-4.18,2.39-1.24.19-2.36-.08-3.23-.53.2.55-.14,1.89-.76,3.03-.43.8-1.33,1.65-3.45,3.2,2.02-.36,4.42-1.54,5.25-3.21.37.41,3.13,3.28,4.63,3.81-.04-1.5-.22-2.94-.23-4.58,1.51,2.17,3.7,4.92,5.67,7.2-1.25-.47-2.57-.76-3.36-.74-.62-.67-1.98-1.49-3.56-1.74-2.3-.37-4.62.91-6.25.6ZM126.84,136.46c.37-1.04.7-2.16.97-3.23.57-.6,2.14-1.69,3.49-1.72.02.02.04.03.05.05-1.57,1.62-3.07,3.26-4.52,4.91ZM120.32,160.27c.21-.35.35-.74.36-1.18.01-.69-.33-1.7-1.94-2.66-.19-1.4-.64-2.58-1.52-3.44-.14-.14-.3-.26-.47-.38,1.29-2.38,2.51-4.43,3.59-6.02.56-.82,1.15-1.64,1.75-2.46,1.16,2.72.41,4.54,1.14,6.62.58,1.68,1.66,2.93,3.63,3.79.03.23.05.47.06.72.02,1.07-.68,2.72-1.49,3.35-1.31.31-3.2.83-5.13,1.66ZM108.57,170.13c2.05-4.99,4.13-9.59,6.11-13.54,1.01.68,2.39.91,3.79.21,1.15.68,1.76,1.47,1.74,2.28-.01.68-.44,1.26-.87,1.63-.83.4-1.65.86-2.41,1.38-3.27,2.24-6.13,5.02-8.36,8.04ZM105.01,176.17c-.57-.94-1.12-2.15-1.61-3.43.04-1.49.45-4.19,1.32-5.95,1.16.17,2.44.46,3.93-.06.07-.02.13-.07.19-.1-1.29,3.03-2.58,6.22-3.83,9.53ZM80.54,193.25c.84-.46,1.67-1,2.04-1.86.32-.76.31-1.49.31-2.07.54-.16,1.02-.26,1.35-.3,1.08-.15,1.98-.08,2.54.09,1.45,1.52,2.89,3.32,3.7,5.16.14.31.29.62.43.93-1.1-.19-5.74-1.01-10.36-1.96Z"/>
        <path class="cls-4" d="M126.34,218.97c.99,1.72,2.6,3.06,4.2,4.2,1.99,1.42,4.24,2.62,6.59,3.32,3.97,1.19,8.46.87,12.09-1.2,3.78-2.15,6.76-6.31,6.05-10.81-.59-3.79-4.66-7.98-8.62-5.38-1.69,1.11-2.85,3.28-3.02,5.28-.2,2.41,2,5.27,4.51,5.27.6,0,1.34.55.34.55-2.44,0-4.71-1.27-5.8-3.51-.92-1.9-.4-3.98.64-5.72,2.39-4.01,8.12-4.11,11.23-.86,3.68,3.85,2.45,9.66-1.01,13.18-3.61,3.69-8.96,4.91-13.96,4.28-2.92-.37-5.67-1.42-8.22-2.89-2.4-1.39-5.01-3.22-6.43-5.68-.17-.3,1.2-.38,1.41-.02h0Z"/>
        <path class="cls-4" d="M60.81,257.65c1.1-1.48,1.63-3.39,1.97-5.19.4-2.09.54-4.28.24-6.39-.47-3.27-2.02-6.52-4.52-8.71-2.91-2.54-7.28-3.72-10.55-1.16-2.38,1.86-3.37,5.34-1.51,7.92,1.17,1.62,3.55,2.22,5.39,1.44,2.1-.89,2.99-3.75,2.15-5.75-.15-.36,1.26-.39,1.41-.02.84,2.01.12,4.46-1.65,5.75-1.33.97-3.28,1.03-4.84.77-1.91-.31-3.58-1.28-4.39-3.1-.71-1.59-.62-3.37.15-4.92,1.84-3.71,6.35-4.72,10.08-3.74,4.21,1.11,7.4,4.31,8.9,8.35.86,2.33,1.11,4.77.92,7.24-.2,2.61-.76,5.61-2.36,7.76-.24.32-1.6.03-1.38-.26h0Z"/>
        <path class="cls-4" d="M100.5,75.44c.45,3.53,3.28,7.14,5.89,9.37,3.31,2.82,7.94,4.26,12.14,2.76,3.26-1.16,5.93-3.94,5.91-7.56-.02-2.9-2.54-6.7-5.87-5.31-1.54.64-3.18,2.18-3.42,3.91-.26,1.91.75,4.03,2.56,4.78.31.13.15.26-.03.38-.25.15-.78.01-1.02-.09-1.8-.75-2.93-2.55-2.98-4.49-.05-1.82,1.21-3.33,2.66-4.3,3.06-2.06,7.51-.84,9,2.55,1.51,3.43-.16,7.31-3.15,9.29-4.18,2.78-9.74,2.47-14.07.23-2.38-1.24-4.35-3.06-5.96-5.19-1.4-1.85-2.79-4.1-3.09-6.46-.04-.31,1.39-.31,1.45.12h0Z"/>
        <path class="cls-4" d="M137.26,275.12c-2.07,2.37-2.8,6.35-2.68,9.41.1,2.69,1.04,5.4,2.77,7.47,2.15,2.58,5.93,4.35,9.1,2.53,2.38-1.37,3.67-4.49,2.08-6.95-.88-1.37-2.79-2.04-4.36-1.58-1.88.56-2.87,2.99-2.29,4.76.11.33-1.1.33-1.2.02-.58-1.76.18-3.78,1.75-4.78,1.17-.75,2.78-.7,4.09-.43,1.59.33,2.99,1.21,3.61,2.76.59,1.48.39,3.12-.45,4.46-1.93,3.09-6.03,3.54-9.19,2.32-3.39-1.3-5.73-4.24-6.68-7.7-.55-2-.58-4.03-.26-6.07.35-2.2,1.02-4.74,2.53-6.46.23-.27,1.38,0,1.18.22h0Z"/>
        <path class="cls-4" d="M53.25,148.9c.96-1.32,1.4-3.03,1.68-4.62.3-1.74.39-3.55.13-5.3-.42-2.79-1.77-5.56-3.94-7.41-2.51-2.15-6.28-3.13-9.04-.89-2.01,1.63-2.82,4.57-1.22,6.77,1,1.38,3.06,1.86,4.62,1.18,1.78-.78,2.53-3.23,1.8-4.94-.13-.3,1.07-.33,1.2-.02.73,1.71.13,3.81-1.37,4.93-1.13.84-2.8.9-4.14.69-1.63-.25-3.06-1.07-3.77-2.6-.63-1.36-.56-2.9.1-4.24,1.52-3.12,5.28-4.05,8.44-3.28,3.67.9,6.48,3.61,7.81,7.11.73,1.93.97,3.95.85,6-.13,2.29-.59,4.94-1.97,6.84-.2.28-1.37.03-1.18-.22h0Z"/>
        <path class="cls-4" d="M162.44,129.58c-1.28-1.03-2.98-1.54-4.56-1.86-1.69-.34-3.45-.48-5.16-.21-2.75.44-5.41,1.8-7.2,3.96-1.91,2.32-2.91,5.7-1.53,8.52,1.23,2.51,4.48,4.24,6.8,1.94,1.05-1.03,1.38-2.66,1.22-4.08-.21-1.98-2.18-3.68-4.2-2.93-.28.1-1.44-.18-.85-.4,1.71-.63,3.79-.19,5.13,1.04,1.16,1.07,1.38,2.68,1.08,4.18-.66,3.41-4.47,4.52-7.39,3.19-3.51-1.6-4.38-5.76-3-9.11,1.42-3.44,4.63-5.71,8.19-6.55,2.05-.49,4.15-.47,6.22-.16,2.15.32,4.59.92,6.32,2.32.32.26-.84.34-1.09.14h0Z"/>
        <path class="cls-4" d="M69.11,196.68c-1.03-.83-2.41-1.24-3.68-1.5-1.36-.28-2.79-.39-4.17-.17-2.22.35-4.37,1.45-5.81,3.2-1.54,1.87-2.35,4.6-1.23,6.88.99,2.03,3.62,3.42,5.5,1.57.85-.83,1.11-2.15.99-3.29-.17-1.6-1.76-2.97-3.4-2.37-.23.08-1.16-.14-.68-.32,1.38-.51,3.06-.15,4.14.84.94.87,1.11,2.17.88,3.38-.54,2.76-3.61,3.66-5.97,2.58-2.84-1.29-3.54-4.66-2.42-7.36,1.15-2.78,3.74-4.61,6.62-5.3,1.65-.39,3.35-.38,5.03-.13,1.74.26,3.71.74,5.11,1.87.26.21-.68.27-.88.11h0Z"/>
        <path class="cls-4" d="M57.39,50.03c-1.03-.83-2.41-1.24-3.68-1.51-1.36-.28-2.79-.39-4.17-.17-2.22.35-4.37,1.45-5.81,3.2-1.54,1.87-2.35,4.6-1.23,6.88.99,2.03,3.62,3.42,5.5,1.57.85-.83,1.11-2.15.99-3.29-.17-1.6-1.76-2.97-3.4-2.37-.23.08-1.16-.14-.69-.32,1.38-.51,3.06-.15,4.14.84.94.87,1.11,2.17.88,3.38-.54,2.76-3.61,3.66-5.97,2.58-2.84-1.29-3.54-4.66-2.42-7.36,1.15-2.78,3.74-4.61,6.62-5.3,1.65-.39,3.35-.38,5.03-.13,1.74.26,3.71.74,5.11,1.87.26.21-.68.27-.88.11h0Z"/>
        <path class="cls-4" d="M17.06,139.97c.25-1.15.07-2.39-.18-3.53-.33-1.5-.89-2.99-1.72-4.29-1.44-2.27-3.87-4.17-6.61-4.42-2.42-.21-4.95.9-5.89,3.24-.7,1.74-.3,3.89,1.38,4.93,1.29.79,3.38.03,4.14-1.24.71-1.2.5-2.95-.54-3.89-.26-.23.69-.28.88-.11,1.03.92,1.34,2.43.84,3.72-.49,1.26-1.88,1.95-3.15,2.17-2.53.44-4.89-1.33-4.88-3.95.01-2.54,2.07-4.52,4.45-5.05,3.15-.71,6.43.36,8.73,2.58,1.35,1.31,2.28,2.9,2.89,4.67.56,1.62,1.04,3.54.68,5.25-.06.28-1.05.15-1-.09h0Z"/>
        <path class="cls-4" d="M15.89,190.25c1.71,1.84,4.9,2.78,7.33,2.82,2.16.03,4.4-.66,6.07-2.05,1.88-1.56,3.21-4.11,2.59-6.58-.57-2.26-3.22-4.51-5.43-2.65-.85.72-1.26,1.9-1.3,2.99-.06,1.52,1.3,3.31,2.98,2.95.23-.05,1.17.22.68.32-1.4.3-2.87-.09-3.86-1.15-.92-.99-.97-2.3-.57-3.54.87-2.67,4.09-3.31,6.34-1.9,2.84,1.78,2.78,5.51,1.06,8.05-1.62,2.4-4.44,3.68-7.27,3.9-1.69.13-3.38-.12-5-.62-1.63-.5-3.41-1.25-4.59-2.52-.12-.13.77-.24.97-.01h0Z"/>
        <path class="cls-4" d="M15.78,271.33c2.24-.94,4.06-3.39,5.09-5.5,1.07-2.19,1.4-4.87.67-7.22-.75-2.43-2.94-5.13-5.74-4.91-2.16.18-4.05,2.12-3.68,4.37.21,1.31,1.46,2.53,2.75,2.83,1.48.34,2.9-1.25,3.07-2.57.04-.27,1.03-.17,1,.09-.19,1.41-1.33,2.48-2.68,2.81-1.11.28-2.25-.04-3.21-.63-1.21-.74-2.05-1.93-1.95-3.39.08-1.19.72-2.26,1.69-2.94,2.15-1.53,5.29-1.11,7.24.54,2.55,2.15,3.35,5.64,2.65,8.82-.38,1.72-1.21,3.29-2.28,4.69-.98,1.29-2.24,2.65-3.77,3.29-.23.1-1.14-.14-.85-.26h0Z"/>
        <path class="cls-4" d="M99.27,127.65c1.23.3,2.69,0,3.89-.31,1.38-.36,2.73-.9,3.91-1.7,2.1-1.43,3.74-3.67,4.13-6.22.36-2.34-.29-5-2.4-6.32-1.65-1.04-3.71-.69-4.83.95-.88,1.3-.53,3.06.33,4.28.92,1.3,2.73,1.3,3.8.18.2-.21,1.11.02.96.18-.97,1.02-2.49,1.21-3.81.89-1.36-.33-2.2-1.32-2.59-2.63-.86-2.83,1.5-4.97,4.21-4.84,2.52.12,4.6,1.88,5.21,4.33.82,3.34-.76,6.73-3.33,8.84-1.46,1.2-3.2,1.96-5.02,2.42-1.6.4-3.37.64-4.99.24-.17-.04-.28-.13-.16-.27.12-.14.55-.04.69,0h0Z"/>
        <path class="cls-4" d="M137.82,249.16c1.63-1.99,2.11-5.27,1.92-7.75-.17-2.2-1.05-4.41-2.56-6.03-1.84-1.97-4.86-3.15-7.32-1.61-1.85,1.16-2.75,3.62-1.51,5.55.73,1.14,2.34,1.66,3.62,1.22,1.5-.52,2.23-2.49,1.72-3.91-.09-.26.88-.27.97-.01.51,1.41-.05,3.05-1.29,3.9-.95.65-2.3.63-3.39.42-2.67-.52-4.02-3.29-2.66-5.7,1.41-2.5,4.62-3.04,7.17-2.21,2.87.94,4.93,3.28,5.81,6.13.49,1.6.57,3.24.37,4.89-.22,1.79-.71,3.85-1.88,5.28-.18.22-1.11,0-.96-.18h0Z"/>
        <path class="cls-4" d="M158.91,54.89c2.32-.81,4.37-3.29,5.48-5.39,1.17-2.2,1.59-4.94.87-7.35-.72-2.41-2.85-5.08-5.64-4.84-2.09.18-3.88,2.04-3.6,4.2.17,1.3,1.36,2.56,2.61,2.93,1.43.42,2.91-1.06,3.16-2.35.05-.28,1.05-.15,1,.09-.28,1.41-1.5,2.41-2.88,2.66-1.13.2-2.21-.14-3.14-.78-1.16-.8-1.93-2.05-1.75-3.49.15-1.18.84-2.2,1.83-2.83,2.19-1.42,5.31-.88,7.16.85,2.47,2.3,3.08,5.87,2.17,9.03-.51,1.78-1.5,3.36-2.73,4.73-1.05,1.18-2.35,2.36-3.87,2.89-.23.08-1.17-.15-.68-.32h0Z"/>
        <path class="cls-4" d="M94.1,33.21c2.32-.81,4.37-3.29,5.48-5.39,1.17-2.2,1.59-4.94.87-7.35-.72-2.41-2.85-5.08-5.64-4.84-2.09.18-3.88,2.04-3.6,4.2.16,1.3,1.36,2.56,2.61,2.93,1.43.42,2.91-1.06,3.16-2.35.05-.28,1.05-.15,1,.09-.28,1.41-1.5,2.41-2.88,2.66-1.13.2-2.21-.14-3.14-.78-1.16-.8-1.93-2.05-1.75-3.49.15-1.18.84-2.2,1.83-2.83,2.19-1.42,5.31-.88,7.16.85,2.47,2.3,3.08,5.87,2.17,9.03-.51,1.78-1.5,3.36-2.73,4.73-1.05,1.18-2.35,2.36-3.87,2.89-.23.08-1.17-.15-.69-.32h0Z"/>
        <path class="cls-4" d="M79.45,12.5c-.95-1.74-2.52-3.13-4.09-4.3-2-1.5-4.25-2.78-6.64-3.54-3.97-1.26-8.45-1.03-12.13,1-3.82,2.11-6.84,6.23-6.15,10.76.57,3.74,4.51,7.88,8.45,5.44,1.72-1.06,2.93-3.21,3.15-5.2.26-2.38-1.86-5.34-4.36-5.4-.59-.02-1.34-.57-.34-.55,2.45.07,4.68,1.35,5.72,3.64.87,1.92.3,3.99-.78,5.7-2.43,3.85-7.98,3.96-11.06.81-3.82-3.91-2.46-9.86,1.14-13.35,3.68-3.57,8.99-4.67,13.95-3.96,2.86.41,5.53,1.48,8.01,2.95,2.45,1.46,5.14,3.41,6.53,5.98.17.31-1.21.38-1.41.02h0Z"/>
        <path class="cls-4" d="M54.63,29.2c1.05,2.87.28,7.58-1.78,10.91-1.25-3.68-.04-6.96,1.78-10.91Z"/>
        <path class="cls-4" d="M81.95,257.1c.15,3.05-1.96,7.33-4.91,9.91-.11-3.88,2-6.67,4.91-9.91Z"/>
        <path class="cls-4" d="M72.8,261.21c1.52,2.31,1.56,6.45.1,9.62-1.86-2.97-1.22-5.96-.1-9.62Z"/>
        <path class="cls-4" d="M66.83,250.9c2.15,1.22,3.55,4.45,3.24,7.5-2.68-1.6-3.08-4.19-3.24-7.5Z"/>
        <path class="cls-4" d="M3.8,121.67c1.14,1.72.57,4.19-1.32,5.74-1.37-2.19-.31-3.82,1.32-5.74Z"/>
        <path class="cls-4" d="M150.96,260.04c-.85,2.15-3.64,4.42-6.47,5.28,1.14-2.7,3.46-3.95,6.47-5.28Z"/>
        <path class="cls-4" d="M136.27,258.79c1.06,1.79.95,4.92-.26,7.26-1.3-2.3-.72-4.54.26-7.26Z"/>
        <path class="cls-4" d="M62.29,32.64c-.2,2.08-2.13,4.54-4.48,5.72.31-2.62,2.09-4.09,4.48-5.72Z"/>
        <path class="cls-4" d="M122.7,60.57c.23,2.07-1.16,4.88-3.22,6.51-.23-2.63,1.21-4.43,3.22-6.51Z"/>
        <path class="cls-4" d="M163.98,115.42c-.83,1.67-3.21,2.85-5.52,2.74,1.1-2.08,3.04-2.49,5.52-2.74Z"/>
        <path class="cls-4" d="M144.6,108.03c.86,1.62.41,4.16-1.05,5.89-1.03-2.07-.21-3.81,1.05-5.89Z"/>
        <path class="cls-4" d="M126.75,67.57c-.63,1.72-2.82,3.08-5.08,3.15.85-2.15,2.69-2.7,5.08-3.15Z"/>
        <path class="cls-4" d="M139.47,104.38c1.41.66,2.01,2.48,1.4,4.22-1.74-.88-1.7-2.34-1.4-4.22Z"/>
        <path class="cls-4" d="M127.88,280.34c-.36,2.28-2.58,5.11-5.15,6.57.51-2.89,2.51-4.62,5.15-6.57Z"/>
        <path class="cls-4" d="M57.18,291.16c-.55,2.01-2.87,4.11-5.4,4.86.75-2.53,2.76-3.67,5.4-4.86Z"/>
        <path class="cls-4" d="M25.5,251.14c1.16,1.47,1.21,4.12.12,6.17-1.42-1.89-.95-3.81-.12-6.17Z"/>
        <path class="cls-4" d="M87.15,203.23c.37,1.79-.77,4.1-2.65,5.36-.41-2.27.86-3.72,2.65-5.36Z"/>
        <path class="cls-4" d="M108.39,230.77c.37,1.79-.77,4.1-2.65,5.36-.41-2.27.86-3.72,2.65-5.36Z"/>
        <path class="cls-4" d="M82.2,202.49c.53,1.46-.32,3.18-1.97,3.98-.62-1.85.44-2.86,1.97-3.98Z"/>
        <path class="cls-4" d="M26.39,73.15c.67,1.84.19,4.85-1.13,6.99-.8-2.36-.03-4.46,1.13-6.99Z"/>
        <path class="cls-4" d="M120.16,135.9c.69,1.63.25,4.24-1.03,6.07-.83-2.08-.09-3.89,1.03-6.07Z"/>
        <path class="cls-4" d="M3.33,16.63c.95,1.49.95,4.14,0,6.16-1.17-1.91-.74-3.82,0-6.16Z"/>
        <path class="cls-4" d="M22.46,167c.3,1.56-.7,3.58-2.32,4.69-.33-1.97.77-3.24,2.32-4.69Z"/>
        <path class="cls-4" d="M64.27,99.98c.3,1.56-.7,3.58-2.32,4.69-.33-1.97.77-3.24,2.32-4.69Z"/>
        <path class="cls-4" d="M71.78,72.73c.3,1.56-.7,3.58-2.32,4.69-.33-1.97.77-3.24,2.32-4.69Z"/>
        <path class="cls-4" d="M59.17,150.7c.3,1.56-.7,3.58-2.32,4.69-.33-1.97.77-3.24,2.32-4.69Z"/>
        <path class="cls-4" d="M163.74,201.64c-.23,1.57-1.84,3.14-3.73,3.66.34-1.97,1.8-2.8,3.73-3.66Z"/>
        <path class="cls-4" d="M90.59,69.45c.3,1.56-.7,3.58-2.32,4.69-.33-1.97.77-3.24,2.32-4.69Z"/>
        <path class="cls-4" d="M38.6,4.38c.3,1.56-.7,3.58-2.32,4.69-.33-1.97.77-3.24,2.32-4.69Z"/>
        <path class="cls-4" d="M10.73,11.68c.3,1.56-.7,3.58-2.32,4.69-.33-1.97.77-3.24,2.32-4.69Z"/>
        <path class="cls-4" d="M89.81,122.04c1.27.9,1.89,3,1.45,4.86-1.57-1.17-1.61-2.8-1.45-4.86Z"/>
        <path class="cls-4" d="M159.19.92c.71,1.38.3,3.53-.95,4.98-.85-1.77-.14-3.23.95-4.98Z"/>
        <path class="cls-4" d="M25.22,174.04c-.29,1.29-1.69,2.12-3.24,1.93.41-1.6,1.63-1.83,3.24-1.93Z"/>
        <path class="cls-4" d="M60.42,160.43c-.29,1.29-1.69,2.12-3.24,1.93.41-1.6,1.63-1.83,3.24-1.93Z"/>
        <path class="cls-4" d="M114.14,233.44c-.29,1.29-1.69,2.12-3.24,1.93.41-1.6,1.63-1.83,3.24-1.93Z"/>
        <path class="cls-4" d="M142.57,176.05c.1,1.96-1.26,4.69-3.14,6.34-.07-2.49,1.28-4.27,3.14-6.34Z"/>
        <path class="cls-4" d="M107.2,183.14c1.63.68,3.14,2.86,3.51,5.07-2.05-.91-2.79-2.72-3.51-5.07Z"/>
        <path class="cls-4" d="M111.43,177.36c1.31.89,2.04,3.02,1.69,4.95-1.63-1.16-1.75-2.83-1.69-4.95Z"/>
        <path class="cls-4" d="M77.69,161.73c1.22.97,1.72,3.09,1.18,4.93-1.5-1.26-1.46-2.89-1.18-4.93Z"/>
        <path class="cls-4" d="M84.01,163.43c.45,1.24-.27,2.7-1.67,3.38-.53-1.57.37-2.43,1.67-3.38Z"/>
        <path class="cls-4" d="M133.87,7.74c1.39,1.37,2.25,4.3,1.97,6.8-1.73-1.78-1.94-4.01-1.97-6.8Z"/>
        <path class="cls-4" d="M163.17,9.54c.2,1.76-.98,4.14-2.73,5.52-.2-2.23,1.03-3.76,2.73-5.52Z"/>
        <path class="cls-4" d="M89.23,11.22c-.71,1.41-2.74,2.41-4.7,2.3.94-1.76,2.59-2.1,4.7-2.3Z"/>
        <path class="cls-4" d="M86.41,4.99c-.13,1.55-1.62,3.15-3.46,3.71.22-1.95,1.6-2.81,3.46-3.71Z"/>
        <path class="cls-4" d="M82.17,3.37c.45,1.24-.27,2.7-1.67,3.38-.53-1.57.37-2.43,1.67-3.38Z"/>
        <path class="cls-4" d="M66.58,73.66c1.49,2.32,1.49,6.47,0,9.62-1.82-2.99-1.16-5.97,0-9.62Z"/>
      </g>
    </g>
  </g>
</svg>