<?xml version="1.0" encoding="UTF-8"?>
<svg id="Layer_2" data-name="Layer 2" xmlns="http://www.w3.org/2000/svg" viewBox="0 0 168.41 297.62">
  <defs>
    <style>
      .cls-1 {
        fill: #fdfbed;
      }

      .cls-2 {
        fill: #eee9ed;
      }

      .cls-3 {
        fill: #c8c7e3;
      }

      .cls-4 {
        fill: #c4d1e4;
      }

      .cls-5 {
        fill: #edede2;
      }

      .cls-6 {
        fill: #fcfcfc;
      }

      .cls-7 {
        fill: #dbdad8;
      }
    </style>
  </defs>
  <g id="Seamless_Floral_Pattern_5" data-name="Seamless Floral Pattern 5">
    <g>
      <rect class="cls-2" x=".03" width="168.38" height="297.62" transform="translate(168.43 297.62) rotate(180)"/>
      <g>
        <g>
          <g>
            <path class="cls-4" d="M120.67,64.3c-.74-1.72-2.83-6.34-3.35-8.56-.51-2.17-1.64-1.97-1.68.14-.05,2.52.91,4.44,1.41,5.61.5,1.17,1.78,3.11,2.68,4.06.7.74,1.79.7.94-1.25Z"/>
            <path class="cls-4" d="M119.06,66.48c-1.35-.8-4.29-2.25-6.01-3.67-.99-.82-1.77-1.6-2.31-2.24-.67-.79-1.58-.05-.99,1.17.71,1.46,2.11,2.98,3.29,3.73.97.62,3.92,1.93,5.26,2.04,1.06.09,1.5-.59.76-1.03Z"/>
            <path class="cls-4" d="M118.33,68.62c-1.3-.23-2.85.01-4.1.39-1.32.4-2.4,1.07-3.26,1.7-1.07.78-.86,1.96.11,1.57,1.19-.48,3.5-1.23,4.66-1.49,1.02-.23,1.97-.55,2.79-.93.94-.44.52-1.11-.21-1.24Z"/>
            <path class="cls-4" d="M122.07,65.12c.13-1.32,1.46-4.78,2.03-5.85.6-1.14,1.43-2.34,1.91-2.93.66-.83,1.56-.59,1.27.71-.3,1.3-.69,2.5-1.24,3.72-.52,1.13-2.18,4.14-2.7,4.83-.52.69-1.37.66-1.26-.47Z"/>
            <path class="cls-4" d="M123.8,66.72c.88-.96,2.85-2.14,4.62-2.58,1.04-.26,2.57-.23,3.89.48,1.19.64,1.11,1.77-.28,1.9-2.14.21-4.02.58-5.77,1-.7.17-1.5.46-2.07.64-.72.23-1.08-.67-.38-1.44Z"/>
            <path class="cls-4" d="M124.08,69.57c.92,0,1.67.13,2.95.82,1.21.65,2.42,1.69,2.9,2.84.41.98-.46,1.46-1.64.92-1.29-.59-2.02-1.07-2.84-1.62-1.08-.73-1.83-1.26-2.41-1.78-.57-.51.03-1.18,1.03-1.18Z"/>
            <path class="cls-4" d="M118.86,70.81c-1.63.77-2.49,2.19-3.05,3.26-.5.95-.85,2.47-.44,3.92.3,1.07,1.5,1.14,1.76-.14.18-.9.6-2.68,1.01-3.66.33-.79,1.16-2.1,1.56-2.62.4-.53-.2-1.05-.83-.76Z"/>
            <path class="cls-4" d="M120.77,71.81c-.45,1.14-.41,2.39-.14,3.83.18.98.68,2.1,1.09,2.67.62.85,1.49,1.03,1.5-.11.02-1.08-.11-1.73-.37-3.28s-.68-2.83-.89-3.31c-.21-.48-.92-.48-1.2.21Z"/>
            <path class="cls-4" d="M121.47,62.92c-.72-1.42-1.42-3.92-1.57-5.39-.09-.91-.04-1.85.47-3.26.3-.82,1.4-.97,1.53.09.16,1.27.39,2.59.36,3.82-.03,1.08-.3,3.04-.78,4.75Z"/>
            <path class="cls-4" d="M117.78,64.44c-.74-1.26-1.77-3.63-2.54-4.42-.76-.78-1.62-1.28-2.05-.92-.44.36-.2,1.59.52,2.48.65.79,2.68,2.48,4.07,2.86Z"/>
            <path class="cls-4" d="M115.3,67.64c-1.11-.33-4.04-1.32-5.49-.9-1.4.4-1.4,1.55-.23,1.93,1.52.49,4.22-.67,5.72-1.02Z"/>
            <path class="cls-4" d="M116.12,71.82c-1.63.48-2.98,1.33-3.71,2.14-1.12,1.25-.59,2.68.32,2.08,1.28-.85,2.08-2.94,3.4-4.22Z"/>
            <path class="cls-4" d="M125.8,63.83c.52-.98,1.35-2.52,2.21-3.12.77-.54,2.14-.93,2.71-.4.47.44-.32,1.78-1.42,2.37-1.1.6-2.37.53-3.5,1.15Z"/>
            <path class="cls-4" d="M126.43,68.65c.56-.09,2.72-.52,3.67-.2,1.86.63,1.76,2.35.1,2.07-1.66-.28-2.57-1.67-3.77-1.88Z"/>
            <path class="cls-4" d="M123.65,72.93c.97.73,2.77,2.43,3.15,3.32.49,1.15-.36,2.38-1.51,1.15-1.14-1.23-1.31-3.53-1.64-4.46Z"/>
            <path class="cls-4" d="M119.41,74.03c-.66,1.06-1.14,2.44-.94,3.39s.99,1.13,1.22.04c.22-1.02-.2-2.07-.28-3.43Z"/>
          </g>
          <path class="cls-4" d="M120.54,69.77c.63.32,1.45-.03,1.83-.79.38-.75.18-1.62-.45-1.94-.63-.32-1.45.03-1.83.79-.38.75-.18,1.62.45,1.94Z"/>
        </g>
        <g>
          <g>
            <path class="cls-4" d="M103.28,108.39c-.62-1.72-2.38-6.38-2.81-8.44-.43-2.01-1.37-2.26-1.41-.51-.04,2.1.77,4.07,1.18,5.24.42,1.17,1.49,3.28,2.25,4.41.59.89,1.5,1.25.79-.7Z"/>
            <path class="cls-4" d="M101.93,109.62c-1.14-1.18-3.6-3.49-5.05-5.33-.83-1.05-1.49-2.01-1.94-2.74-.56-.92-1.33-.63-.83.61.6,1.49,1.77,3.29,2.76,4.36.81.88,3.29,3.08,4.42,3.68.89.47,1.26.06.64-.58Z"/>
            <path class="cls-4" d="M101.33,111.15c-1.09-.68-2.39-1.05-3.44-1.2-1.11-.16-2.01,0-2.73.21-.9.26-.72,1.32.09,1.36,1,.05,2.94.28,3.91.49.86.19,1.65.28,2.34.26.79-.02.44-.74-.18-1.12Z"/>
            <path class="cls-4" d="M104.46,109.61c.11-1.06,1.23-3.46,1.7-4.15.51-.73,1.2-1.43,1.6-1.75.56-.45,1.31.09,1.06,1.07-.25.98-.58,1.84-1.04,2.65-.43.75-1.83,2.66-2.26,3.05-.44.38-1.15.04-1.06-.87Z"/>
            <path class="cls-4" d="M105.91,111.59c.74-.48,2.39-.73,3.87-.44.87.17,2.16.77,3.27,1.86,1,.98.94,1.9-.24,1.49-1.8-.62-3.38-1.01-4.84-1.32-.59-.12-1.26-.17-1.74-.23-.61-.08-.91-.97-.32-1.35Z"/>
            <path class="cls-4" d="M106.15,114.09c.78.35,1.4.73,2.48,1.79,1.02,1,2.03,2.32,2.44,3.47.34.97-.38,1.06-1.38.16-1.09-.98-1.69-1.65-2.38-2.42-.91-1.02-1.54-1.74-2.02-2.39-.48-.64.03-.98.86-.61Z"/>
            <path class="cls-4" d="M101.77,113.18c-1.37.04-2.09.9-2.56,1.59-.42.61-.71,1.76-.37,3.12.26,1.01,1.26,1.52,1.47.54.15-.69.5-2.02.85-2.69.28-.54.97-1.33,1.31-1.62.33-.29-.17-.96-.7-.95Z"/>
            <path class="cls-4" d="M103.37,114.73c-.38.79-.34,1.85-.12,3.16.15.89.57,2.02.92,2.65.52.95,1.25,1.42,1.26.47.01-.9-.09-1.49-.31-2.89-.22-1.4-.57-2.63-.75-3.11-.17-.48-.78-.75-1-.27Z"/>
            <path class="cls-4" d="M103.96,107.54c-.61-1.46-1.19-3.82-1.32-5.11-.08-.8-.03-1.57.4-2.56.25-.57,1.17-.29,1.28.64.13,1.12.33,2.31.3,3.34-.02.89-.25,2.44-.66,3.69Z"/>
            <path class="cls-4" d="M100.86,107.43c-.62-1.34-1.49-3.7-2.13-4.66-.64-.94-1.36-1.68-1.72-1.54-.37.14-.17,1.26.44,2.28.55.91,2.25,3.09,3.41,3.92Z"/>
            <path class="cls-4" d="M98.78,109.19c-.93-.7-3.39-2.62-4.61-2.81-1.17-.19-1.17.78-.19,1.53,1.28.98,3.55,1.01,4.8,1.28Z"/>
            <path class="cls-4" d="M99.47,113.01c-1.37-.2-2.5,0-3.12.41-.94.63-.49,2.03.27,1.86,1.07-.23,1.74-1.69,2.85-2.27Z"/>
            <path class="cls-4" d="M107.59,109.92c.44-.63,1.13-1.61,1.86-1.79.65-.16,1.8.02,2.27.67.4.55-.27,1.37-1.19,1.46-.92.09-1.99-.45-2.94-.34Z"/>
            <path class="cls-4" d="M108.12,114.19c.47.13,2.28.58,3.08,1.21,1.56,1.23,1.48,2.63.09,1.78-1.39-.85-2.15-2.36-3.16-2.98Z"/>
            <path class="cls-4" d="M105.78,116.75c.82.98,2.32,3.07,2.64,3.96.41,1.15-.31,1.86-1.26.4-.96-1.45-1.1-3.45-1.38-4.36Z"/>
            <path class="cls-4" d="M102.23,116.09c-.56.64-.96,1.62-.79,2.5.17.87.83,1.32,1.03.49.19-.77-.16-1.81-.24-2.99Z"/>
          </g>
          <path class="cls-4" d="M103.17,112.94c.53.5,1.22.51,1.54.02s.15-1.3-.38-1.8c-.53-.5-1.22-.51-1.54-.02-.32.49-.15,1.3.38,1.8Z"/>
        </g>
        <g>
          <g>
            <path class="cls-6" d="M46.77,249.95c1.57.95,5.86,3.48,7.49,4.8,1.59,1.3,2.49.9,1.41-.49-1.28-1.66-3.15-2.69-4.21-3.33-1.06-.65-3.22-1.61-4.52-2.02-1.02-.32-1.95-.03-.18,1.04Z"/>
            <path class="cls-6" d="M47.05,248.15c1.62.2,5,.46,7.27.98,1.31.3,2.42.63,3.23.92,1.01.36,1.43-.34.26-1-1.4-.79-3.45-1.45-4.88-1.66-1.19-.18-4.5-.34-5.75-.09-.99.19-1.02.74-.13.85Z"/>
            <path class="cls-6" d="M46.56,246.58c1.28-.16,2.52-.68,3.43-1.22.96-.57,1.56-1.26,2-1.88.54-.76-.27-1.48-.93-1-.81.59-2.46,1.63-3.35,2.07-.78.39-1.46.82-1.99,1.27-.6.51.12.85.84.76Z"/>
            <path class="cls-6" d="M45.09,249.75c.58.89,1.22,3.47,1.28,4.3.07.89-.04,1.87-.15,2.37-.15.7-1.08.76-1.5-.16-.42-.92-.71-1.8-.85-2.72-.14-.86-.25-3.22-.15-3.79.1-.57.87-.75,1.37.01Z"/>
            <path class="cls-6" d="M42.71,249.11c-.27.83-1.4,2.07-2.74,2.77-.79.42-2.16.75-3.71.6-1.4-.13-1.92-.89-.75-1.31,1.79-.64,3.27-1.33,4.6-2.01.53-.27,1.09-.65,1.5-.91.52-.32,1.32.19,1.1.85Z"/>
            <path class="cls-6" d="M40.96,247.31c-.82.22-1.55.31-3.05.16-1.42-.14-3.04-.53-4.07-1.17-.88-.54-.37-1.06.97-.99,1.46.08,2.35.22,3.37.39,1.35.22,2.29.39,3.07.59.77.2.6.78-.29,1.01Z"/>
            <path class="cls-6" d="M44.94,245.27c1.04-.89,1.06-2.02.99-2.85-.06-.74-.55-1.82-1.67-2.66-.83-.63-1.93-.39-1.49.5.31.63.88,1.89,1.03,2.63.12.59.08,1.64,0,2.08-.08.44.73.64,1.14.3Z"/>
            <path class="cls-6" d="M42.72,245.07c-.2-.85-.9-1.66-1.89-2.54-.68-.59-1.71-1.21-2.38-1.49-1-.41-1.86-.33-1.28.43.56.71,1.01,1.1,2.06,2.05s2.1,1.69,2.54,1.96c.44.26,1.08.1.95-.42Z"/>
            <path class="cls-6" d="M46.78,251.04c1.39.76,3.32,2.22,4.24,3.15.56.57,1.01,1.2,1.3,2.24.17.6-.73.97-1.4.3-.8-.79-1.71-1.6-2.33-2.41-.54-.71-1.34-2.06-1.8-3.29Z"/>
            <path class="cls-6" d="M49.26,249.18c1.32.65,3.48,1.95,4.58,2.29,1.09.33,2.11.46,2.31.12.2-.34-.66-1.09-1.77-1.5-1-.37-3.69-.99-5.12-.91Z"/>
            <path class="cls-6" d="M49.77,246.51c1.16-.04,4.28-.09,5.35-.71,1.03-.59.42-1.34-.81-1.31-1.61.04-3.4,1.44-4.54,2.02Z"/>
            <path class="cls-6" d="M46.84,243.96c1.19-.7,1.95-1.57,2.17-2.28.34-1.08-.89-1.89-1.38-1.28-.69.85-.3,2.41-.79,3.56Z"/>
            <path class="cls-6" d="M42.46,251.46c.05.76.13,1.97-.32,2.56-.4.53-1.41,1.11-2.19.9-.65-.18-.65-1.24,0-1.88s1.83-.9,2.5-1.58Z"/>
            <path class="cls-6" d="M39.36,248.47c-.44.19-2.14.98-3.15.99-1.99.03-2.8-1.12-1.18-1.33,1.62-.21,3.16.48,4.34.34Z"/>
            <path class="cls-6" d="M39.58,245.02c-1.25-.25-3.74-.94-4.54-1.42-1.04-.64-.93-1.64.73-1.11,1.66.53,3.02,2,3.81,2.53Z"/>
            <path class="cls-6" d="M42.76,243.3c.03-.85-.27-1.86-.95-2.44-.68-.57-1.47-.51-1.11.26.34.72,1.26,1.31,2.06,2.18Z"/>
          </g>
          <path class="cls-6" d="M44,246.34c-.73-.06-1.27.36-1.21.95.06.58.7,1.1,1.42,1.16.73.06,1.27-.36,1.21-.95-.06-.58-.7-1.1-1.42-1.16Z"/>
        </g>
        <g>
          <g>
            <path class="cls-6" d="M116.86,143.75c-.67-1.55-2.55-5.71-3.07-7.82-.5-2.06-1.4-1.58-1.33.56.07,2.56.93,4.26,1.38,5.32.45,1.06,1.56,2.7,2.32,3.44.6.58,1.46.26.7-1.5Z"/>
            <path class="cls-6" d="M115.67,146.35c-1.12-.47-3.53-1.22-4.97-2.23-.83-.58-1.49-1.18-1.95-1.69-.57-.64-1.27.34-.74,1.42.63,1.3,1.82,2.49,2.79,2.96.8.39,3.22.98,4.3.77.85-.17,1.17-.97.56-1.22Z"/>
            <path class="cls-6" d="M115.19,148.7c-1.05.09-2.27.71-3.26,1.41-1.04.73-1.87,1.67-2.52,2.52-.82,1.06-.6,2.19.16,1.56.93-.77,2.74-2.1,3.66-2.65.8-.48,1.55-1.04,2.19-1.63.73-.67.37-1.25-.22-1.2Z"/>
            <path class="cls-6" d="M118.02,144.24c.05-1.36.95-5.19,1.35-6.41.43-1.3,1.04-2.72,1.39-3.43.49-1,1.22-.98,1.04.4-.18,1.39-.44,2.7-.82,4.06-.36,1.26-1.55,4.72-1.94,5.54-.39.83-1.07,1-1.03-.17Z"/>
            <path class="cls-6" d="M119.47,145.43c.66-1.18,2.18-2.86,3.57-3.74.82-.52,2.04-.86,3.13-.47.98.35.97,1.51-.14,1.99-1.7.74-3.19,1.58-4.57,2.43-.55.34-1.18.83-1.63,1.16-.57.41-.89-.41-.37-1.36Z"/>
            <path class="cls-6" d="M119.83,148.23c.74-.23,1.34-.28,2.4.1,1,.36,2.01,1.11,2.45,2.16.37.89-.3,1.59-1.27,1.33-1.06-.28-1.66-.58-2.34-.94-.9-.47-1.52-.82-2-1.2-.48-.37-.03-1.2.77-1.45Z"/>
            <path class="cls-6" d="M115.71,150.78c-1.27,1.18-1.89,2.82-2.29,4.04-.35,1.08-.57,2.71-.17,4.06.29,1,1.25.78,1.4-.57.1-.96.35-2.85.64-3.94.23-.88.83-2.4,1.13-3.03.29-.63-.21-1.01-.7-.56Z"/>
            <path class="cls-6" d="M117.28,151.31c-.31,1.26-.22,2.52.06,3.9.19.94.64,1.95.99,2.43.53.71,1.23.68,1.2-.48-.04-1.1-.17-1.72-.44-3.22-.28-1.5-.67-2.69-.86-3.13s-.76-.26-.95.5Z"/>
            <path class="cls-6" d="M117.44,142.16c-.64-1.26-1.31-3.61-1.5-5.06-.12-.9-.12-1.86.23-3.41.2-.9,1.07-1.33,1.22-.29.18,1.24.43,2.52.46,3.77.03,1.09-.1,3.14-.41,4.99Z"/>
            <path class="cls-6" d="M114.56,144.61c-.65-1.09-1.58-3.23-2.23-3.84-.64-.6-1.35-.89-1.68-.43-.33.47-.09,1.66.53,2.38.56.64,2.26,1.85,3.38,1.89Z"/>
            <path class="cls-6" d="M112.73,148.45c-.9-.06-3.29-.34-4.43.44-1.1.75-1.05,1.91-.09,2,1.24.12,3.35-1.72,4.52-2.44Z"/>
            <path class="cls-6" d="M113.57,152.47c-1.28.89-2.32,2.08-2.87,3.08-.84,1.54-.35,2.85.35,2.02.98-1.17,1.53-3.48,2.52-5.1Z"/>
            <path class="cls-6" d="M120.94,142.02c.37-1.11.97-2.88,1.63-3.7.59-.73,1.67-1.46,2.14-1.07.4.33-.17,1.87-1.02,2.75-.85.87-1.87,1.12-2.74,2.02Z"/>
            <path class="cls-6" d="M121.67,146.72c.44-.23,2.15-1.19,2.92-1.1,1.52.18,1.51,1.94.18,2.07s-2.13-1.05-3.1-.97Z"/>
            <path class="cls-6" d="M119.63,151.73c.81.5,2.32,1.77,2.66,2.57.44,1.04-.18,2.49-1.15,1.53-.97-.96-1.2-3.24-1.51-4.11Z"/>
            <path class="cls-6" d="M116.3,153.89c-.48,1.24-.8,2.75-.6,3.66s.84.9.98-.26c.13-1.08-.25-2.04-.38-3.4Z"/>
          </g>
          <path class="cls-6" d="M117.01,149.31c.52.17,1.16-.39,1.43-1.25.27-.86.07-1.68-.45-1.85-.52-.17-1.16.39-1.43,1.25-.27.86-.07,1.68.45,1.85Z"/>
        </g>
        <g>
          <path class="cls-4" d="M161.32,190.36c.17-1.29.87-3.52,1.46-4.64.59-1.12,1.48-3.08,3.47-4.63,1.67-1.3,2.53-.55,1.17,1.21-1.4,1.8-3.67,6.34-4.54,7.99-.98,1.88-1.7,1.07-1.57.06Z"/>
          <path class="cls-4" d="M158.9,190.48c-.76-1.11-1.6-4.23-1.73-5.38-.16-1.38.14-3.43.83-4.9.57-1.23,1.73-.99,1.53.03-.16.82-.28,1.92-.29,3.2-.02,2.23.7,5.43.93,6.99.13.85-.68.94-1.28.06Z"/>
          <path class="cls-4" d="M157.23,192.16c-.82-.4-1.66-.94-2.48-1.58-.93-.74-2.97-2.06-4.09-2.68-.91-.51-.13-1.42,1.15-1.08,1.03.27,2.23.69,3.37,1.46,1.09.74,2.25,1.78,2.89,2.94.36.65.1,1.39-.83.94Z"/>
          <path class="cls-4" d="M163.13,191.92c.97-.64,3.78-1.59,5.27-1.98v2.45c-1.48.32-4.1.78-4.85.8-.87.03-1.38-.65-.43-1.28Z"/>
          <path class="cls-4" d="M163.9,196.67c-.57-.44-1.3-.87-1.81-1.21-.63-.42-.16-1.26.88-1.2,1.3.08,3.46.87,4.91,1.96.17.13.34.28.51.46v3.93s-.06-.04-.09-.08c-1.51-1.53-2.99-2.76-4.41-3.86Z"/>
          <path class="cls-4" d="M160.94,196.28c.58.72.95,1.38,1.23,2.81.26,1.35.21,2.95-.38,4.05-.5.93-1.43.57-1.75-.69-.35-1.38-.44-2.24-.53-3.22-.11-1.3-.17-2.22-.14-2.99.03-.76.94-.72,1.57.05Z"/>
          <path class="cls-4" d="M152.24,192.68c1.18-.24,2.83-.46,4.45.32.63.3.6,1.1-.06,1.12-.66.02-2.2.2-3.02.44-1.02.3-2.66,1.09-3.48,1.52-1.15.6-1.85-.37-1.21-1.28.86-1.23,2.27-1.91,3.32-2.12Z"/>
          <path class="cls-4" d="M154.05,197.42c.95-1.12,1.9-1.94,3.06-2.3.71-.22,1.15.34.91.8-.24.46-.97,1.6-2.01,2.78-1.04,1.18-1.46,1.68-2.31,2.35-.9.71-1.31-.08-1.03-1.1.18-.68.74-1.77,1.38-2.53Z"/>
          <path class="cls-4" d="M167.66,185.45c.22-.22.47-.44.74-.64v3.05c-.9.65-2.45,1.57-3.94,2.2.65-1.46,2.15-3.57,3.2-4.62Z"/>
          <path class="cls-4" d="M160.96,188.15c-.58-1.31-.54-3.96-.34-4.96.23-1.13,1.04-2.08,1.6-1.97.55.11.71,1.09.58,2.18-.13,1.1-1.32,3.39-1.84,4.76Z"/>
          <path class="cls-4" d="M152.52,184.44c-.45-1.15.44-1.87,1.64-1.04,1.24.87,2.32,3.76,2.76,4.84-1.21-.94-3.82-2.31-4.4-3.8Z"/>
          <path class="cls-4" d="M150.18,189.98c1.09.06,2.6.57,4,1.54-1.83-.22-3.96.48-5.42.02-1.03-.32-.26-1.64,1.42-1.55Z"/>
          <path class="cls-4" d="M168.41,193.69v1.59c-.61-.46-1.18-.98-1.93-1.28.54-.11,1.24-.24,1.93-.31Z"/>
          <path class="cls-4" d="M165.6,200.25c.68,1.84-.72,2.85-1.54,1.39-.83-1.46-.32-3.04-.92-4.11.42.37,2.11,1.79,2.46,2.73Z"/>
          <path class="cls-4" d="M158.06,198.05c.04,1.22-.15,3.68-.6,4.53-.59,1.1-2.08,1.21-1.84-.45.23-1.66,1.92-3.24,2.44-4.08Z"/>
          <path class="cls-4" d="M154.54,195.45c-1,.93-1.56,1.91-2.49,2.38-1,.5-1.35-.22-.74-.98.61-.76,1.99-1.25,3.23-1.41Z"/>
          <path class="cls-4" d="M159.78,192.08c.83-.18,1.62.24,1.77.93.15.69-.4,1.39-1.22,1.57-.83.18-1.62-.24-1.77-.93-.15-.69.4-1.39,1.22-1.57Z"/>
        </g>
        <g>
          <g>
            <path class="cls-4" d="M74.61,175.95c.94-1.57,3.46-5.87,4.78-7.5,1.29-1.6.89-2.49-.49-1.41-1.66,1.29-2.68,3.16-3.32,4.22-.64,1.06-1.6,3.22-2.01,4.52-.32,1.02-.03,1.95,1.04.17Z"/>
            <path class="cls-4" d="M72.81,175.67c.2-1.62.45-5,.96-7.28.3-1.31.62-2.42.91-3.23.36-1.01-.34-1.43-1-.26-.78,1.4-1.44,3.45-1.65,4.89-.17,1.19-.32,4.5-.08,5.75.19.99.74,1.02.85.13Z"/>
            <path class="cls-4" d="M71.24,176.16c-.16-1.28-.69-2.52-1.23-3.43-.58-.96-1.27-1.56-1.88-1.99-.77-.54-1.48.27-1,.93.59.8,1.63,2.46,2.08,3.35.39.78.82,1.46,1.27,1.99.51.6.85-.12.76-.84Z"/>
            <path class="cls-4" d="M74.41,177.63c.89-.58,3.46-1.23,4.3-1.29.89-.07,1.87.03,2.37.14.7.15.76,1.07-.16,1.5-.92.42-1.8.71-2.72.86-.86.14-3.22.26-3.79.16-.57-.1-.76-.87,0-1.37Z"/>
            <path class="cls-4" d="M73.78,180.01c.83.27,2.07,1.4,2.78,2.73.42.79.76,2.16.61,3.71-.13,1.4-.89,1.92-1.31.75-.65-1.79-1.34-3.26-2.02-4.59-.27-.53-.66-1.08-.91-1.5-.32-.52.18-1.32.85-1.1Z"/>
            <path class="cls-4" d="M71.99,181.76c.22.82.31,1.55.17,3.05-.14,1.42-.53,3.04-1.16,4.08-.54.88-1.06.37-.99-.97.08-1.46.22-2.36.38-3.37.22-1.35.39-2.29.58-3.08.19-.77.78-.6,1.02.29Z"/>
            <path class="cls-4" d="M69.94,177.79c-.89-1.04-2.02-1.05-2.85-.99-.74.06-1.81.55-2.66,1.68-.62.83-.38,1.93.51,1.49.63-.32,1.89-.89,2.62-1.04.59-.12,1.64-.08,2.08,0,.44.07.64-.74.3-1.14Z"/>
            <path class="cls-4" d="M69.74,180.01c-.85.2-1.66.9-2.53,1.9-.59.68-1.21,1.71-1.48,2.38-.41,1-.32,1.87.43,1.28.71-.56,1.1-1.01,2.05-2.06.95-1.05,1.68-2.1,1.95-2.54.26-.44.1-1.08-.42-.95Z"/>
            <path class="cls-4" d="M75.7,175.94c.75-1.39,2.22-3.33,3.14-4.25.57-.56,1.2-1.01,2.24-1.31.6-.17.97.73.31,1.4-.79.81-1.59,1.71-2.41,2.34-.71.54-2.05,1.34-3.28,1.81Z"/>
            <path class="cls-4" d="M73.83,173.46c.65-1.33,1.94-3.49,2.28-4.59.33-1.09.45-2.11.11-2.31-.34-.2-1.09.66-1.49,1.78-.36,1-.98,3.69-.9,5.12Z"/>
            <path class="cls-4" d="M71.16,172.95c-.05-1.16-.1-4.28-.72-5.35-.6-1.03-1.34-.42-1.31.82.05,1.61,1.44,3.39,2.03,4.53Z"/>
            <path class="cls-4" d="M68.62,175.89c-.7-1.19-1.58-1.94-2.28-2.16-1.08-.34-1.89.9-1.28,1.38.86.68,2.41.29,3.56.78Z"/>
            <path class="cls-4" d="M76.14,180.25c.76-.06,1.97-.13,2.56.31.53.4,1.11,1.41.91,2.19-.18.66-1.23.66-1.88,0-.65-.66-.91-1.83-1.58-2.5Z"/>
            <path class="cls-4" d="M73.15,183.36c.19.44.98,2.14,1,3.15.03,1.99-1.11,2.8-1.33,1.19-.21-1.62.48-3.16.33-4.34Z"/>
            <path class="cls-4" d="M69.7,183.15c-.25,1.25-.93,3.74-1.41,4.54-.63,1.04-1.64.93-1.11-.73.53-1.66,1.99-3.02,2.52-3.81Z"/>
            <path class="cls-4" d="M67.97,179.97c-.85-.03-1.86.28-2.44.96-.57.68-.51,1.47.27,1.11.72-.34,1.3-1.27,2.17-2.07Z"/>
          </g>
          <path class="cls-4" d="M71.01,178.72c-.06.73.37,1.27.95,1.21.58-.06,1.1-.7,1.16-1.43.06-.73-.37-1.27-.95-1.21-.58.06-1.1.7-1.16,1.43Z"/>
        </g>
        <g>
          <path class="cls-6" d="M97.78,5.09c.09-1.05.67-2.96,1.21-3.97.16-.31.36-.69.59-1.12h2.29c-1,1.76-2,3.74-2.49,4.68-.89,1.7-1.67,1.23-1.6.4Z"/>
          <path class="cls-6" d="M96.61,5.4c.18.64-.63.89-1.3.34-.85-.7-1.9-2.95-2.11-3.82-.12-.52-.14-1.2-.05-1.91h2.07s0,.09,0,.13c.12,1.76,1.06,4.1,1.4,5.27Z"/>
          <path class="cls-6" d="M93.7,7.43c-.86-.12-1.76-.36-2.64-.68-1-.36-3.18-.94-4.36-1.17-.97-.19-.23-1.08,1.11-1.11,1.07-.02,2.32.03,3.54.38,1.16.33,2.42.88,3.15,1.65.41.43.19,1.07-.79.93Z"/>
          <path class="cls-6" d="M100.25,6.79c-.88.22-1.45-.2-.52-.9,1.09-.82,4.63-2.53,5.83-2.98,1.28-.49,2.76-.9,3.54-1.08,1.09-.25,1.53.33.34,1.07-1.19.74-2.37,1.36-3.67,1.92-1.21.52-4.64,1.77-5.53,1.99Z"/>
          <path class="cls-6" d="M98.9,8.91c-.67-.18-.24-.96.83-1.14,1.33-.23,3.6-.11,5.16.42.92.31,1.95,1.05,2.34,2.14.35.98-.56,1.7-1.64,1.14-1.64-.86-3.23-1.48-4.76-2.02-.61-.21-1.39-.39-1.93-.53Z"/>
          <path class="cls-6" d="M97.77,9.81c.64.43,1.06.87,1.43,1.92.35,1,.4,2.26-.13,3.26-.46.84-1.42.77-1.84-.15-.45-1-.59-1.66-.74-2.41-.2-1-.32-1.7-.33-2.31-.01-.61.92-.78,1.61-.31Z"/>
          <path class="cls-6" d="M88.62,8.98c1.2-.46,2.87-1.01,4.58-.76.66.09.68.73,0,.89-.67.17-2.24.66-3.07,1.04-1.03.46-2.66,1.46-3.47,1.98-1.14.73-1.92.13-1.32-.73.81-1.16,2.2-2.02,3.27-2.42Z"/>
          <path class="cls-6" d="M90.78,12.28c.9-1.09,1.82-1.95,2.99-2.51.71-.34,1.2,0,.99.42-.22.42-.89,1.48-1.89,2.64-.99,1.16-1.39,1.65-2.22,2.37-.88.76-1.34.24-1.13-.63.14-.57.65-1.56,1.26-2.3Z"/>
          <path class="cls-6" d="M105.12,1.31c-.83.71-2.5,1.9-4.14,2.82.54-1.21,1.8-3.03,2.79-4.13h2.69c-.43.46-.87.91-1.35,1.31Z"/>
          <path class="cls-6" d="M96.57,0h2.11c-.33,1.02-1.07,2.49-1.41,3.43-.59-.78-.76-2.46-.7-3.43Z"/>
          <path class="cls-6" d="M88.39,2.45c-.53-.8.34-1.57,1.61-1.19,1.33.4,2.61,2.42,3.13,3.16-1.3-.46-4.06-.94-4.75-1.98Z"/>
          <path class="cls-6" d="M86.34,7.32c1.12-.21,2.7-.14,4.2.29-1.89.25-4.03,1.28-5.55,1.25-1.08-.02-.37-1.23,1.35-1.54Z"/>
          <path class="cls-6" d="M106.59,7.62c-1.21-.11-2.05-.75-3.3-.86,1.1-.41,2.85-1.06,3.9-1.06.94,0,2.19.37,2.18.99,0,.52-1.56,1.04-2.78.93Z"/>
          <path class="cls-6" d="M102.79,11.86c.82,1.29-.56,2.4-1.5,1.44s-.52-2.31-1.2-3.02c.46.2,2.28.92,2.69,1.58Z"/>
          <path class="cls-6" d="M94.6,15.55c-.53,1-2.05,1.42-1.91.07.14-1.35,1.76-2.98,2.24-3.76.12.94.08,2.92-.32,3.69Z"/>
          <path class="cls-6" d="M91.15,10.62c-.97.96-1.48,1.86-2.4,2.44-.99.62-1.4.14-.82-.6.58-.73,1.95-1.43,3.22-1.84Z"/>
          <path class="cls-6" d="M96.31,6.78c.83-.33,1.67-.18,1.87.32.2.51-.32,1.18-1.15,1.51-.83.33-1.67.18-1.87-.32-.2-.51.32-1.18,1.15-1.51Z"/>
        </g>
        <g>
          <path class="cls-5" d="M2.91,103.08c-.75.02-1.81.22-2.88.57v-.58c1.02-.13,1.94-.12,2.88.01Z"/>
          <path class="cls-5" d="M.03,113.4v-1.28c.48,1.15.81,2.29.92,3.49-.19-.6-.52-1.37-.92-2.21Z"/>
          <path class="cls-3" d="M1.72,79.44c-.66.65-1.19,1.41-1.69,2.19v-2.21c.56-.01,1.13-.02,1.69.01Z"/>
          <path class="cls-3" d="M.03,96.76v-5.71c1.92.13,4.29,1.14,6.43,2.59-2.28.71-4.12,2.72-6.43,3.12Z"/>
          <path class="cls-3" d="M.95,115.62c-.11-1.2-.44-2.35-.92-3.49v-1.97c2.22,1.7,4.11,4.36,4.48,7.11.46,3.4-.81,5.83-1.63,7.69-.94-1.28-1.93-2.34-2.84-3.42v-8.13c.41.84.73,1.61.92,2.21Z"/>
          <path class="cls-3" d="M9.68,102.95c-1.42.5-3.91,2.8-5.71,3.28-1.52.41-2.82.3-3.94-.08v-2.51c1.07-.34,2.14-.55,2.88-.57-.94-.13-1.86-.14-2.88-.01v-1.48c1.08-.64,2.23-1.06,3.33-1.11,2.03-.09,4.21,1.01,6.32,2.47Z"/>
        </g>
        <g>
          <path class="cls-3" d="M82.33,136.84c.44-2.28.65-6.15-.74-8.61-1.39-2.45-2.76-3.18-4.23-3.98.5,2.7-.08,4.7.62,7.2.65,2.31,3.19,5.14,3.77,5.58-.15-2.09-.56-4.46-1.01-5.71.98,1.57,1.39,3.38,1.58,5.52Z"/>
          <path class="cls-3" d="M92.21,145.92c-.65-2.86-2-5.56-3.68-6.58-1.68-1.02-3-.99-4.56-.95,1.43.7,2.69,1.71,3.63,2.79-1.18-.83-2.7-1.7-3.89-2.18.34,1.56,1.1,3.45,2.31,4.4,1.74,1.37,4.24,1.41,6.2,2.52Z"/>
          <path class="cls-3" d="M82.03,152.85c.87-2.63,1.07-5.4.16-6.9-.92-1.5-2.05-1.99-3.38-2.57.86,1.14,1.42,2.47,1.68,3.74-.59-1.15-1.44-2.47-2.21-3.33-.49,1.43-.78,3.29-.23,4.55.79,1.82,2.88,2.83,3.98,4.52Z"/>
          <path class="cls-3" d="M76.84,141.01c.15-1.95-.21-4.01-1.25-5.32s-2.9-2.06-4.95-2.58c.46,1.15.38,3.94,1.05,5.31,1.05,2.15,2.81,2.93,4.38,3.16-.22-1.52-1.14-3.35-1.85-4.21,1.04.9,1.8,1.94,2.62,3.64Z"/>
          <path class="cls-3" d="M67.99,149.95c-.52,2.59-2.5,5.52-5.09,6.64-2.59,1.12-4.8.67-6.45.43,1.66-2.13,2.51-4.24,4.57-5.81,1.91-1.46,4.92-1.89,6.63-1.75-1.37,1.58-3.14,3.23-4.25,3.95,1.72-.67,3.14-1.86,4.59-3.45Z"/>
          <path class="cls-3" d="M62.52,139.23c2.72.48,5.26,1.62,6.15,3.14.89,1.52.78,2.75.66,4.19-.59-1.29-1.5-2.42-2.49-3.25.73,1.06,1.75,2.78,2.14,3.86-1.48-.25-3.53-1.22-4.38-2.3-1.22-1.56-1.12-3.88-2.09-5.65Z"/>
          <path class="cls-3" d="M72.15,147.98c1.72.94,3.24,2.36,3.77,3.95.53,1.59.14,3.56-.54,5.56-.71-1.02-3.09-2.47-3.88-3.78-1.23-2.06-.92-3.95-.26-5.39,1.16,1.02,2.19,2.79,2.52,3.85-.19-1.36-.64-2.57-1.62-4.18Z"/>
          <path class="cls-3" d="M83.91,118.9c2.36,1.44,4.31,3.43,4.58,5.17.27,1.74-.2,3.14-.84,4.45-.08-1.42-.59-3.1-1.21-4.24.29,1.26.59,3.43.56,4.59-1.29-.77-2.81-2.63-3.21-3.95-.57-1.9.37-4.02.12-6.02Z"/>
          <path class="cls-3" d="M88.75,130.54c1.95-.13,4,.25,5.3,1.31,1.3,1.06,2.03,2.93,2.52,4.98-1.15-.48-3.93-.43-5.3-1.12-2.14-1.08-2.89-2.84-3.11-4.41,1.52.24,3.34,1.18,4.19,1.9-.89-1.05-1.92-1.82-3.6-2.66Z"/>
        </g>
        <g>
          <path class="cls-7" d="M81.1,53.32c2.8.29,7.5.13,10.31-1.81,2.82-1.94,3.54-3.67,4.36-5.52-3.21.89-5.68.4-8.63,1.51-2.72,1.03-5.86,4.39-6.34,5.14,2.5-.4,5.33-1.15,6.79-1.82-1.79,1.34-3.94,2.03-6.5,2.49Z"/>
          <path class="cls-7" d="M70.98,65.82c3.38-1.09,6.51-3,7.56-5.14,1.05-2.14.87-3.73.66-5.61-.69,1.8-1.78,3.42-2.99,4.68.87-1.52,1.77-3.44,2.22-4.93-1.84.57-4.04,1.7-5.07,3.25-1.47,2.24-1.25,5.27-2.39,7.75Z"/>
          <path class="cls-7" d="M60.29,52.66c3.15,1.14,6.5,1.48,8.36.42s2.48-2.41,3.23-4.01c-1.4,1-3.04,1.64-4.58,1.91,1.41-.67,3.04-1.66,4.11-2.56-1.71-.64-3.96-1.05-5.51-.43-2.23.89-3.52,3.39-5.6,4.67Z"/>
          <path class="cls-7" d="M75.28,47.35c2.36.17,4.85-.28,6.43-1.55,1.58-1.27,2.48-3.53,3.09-6.02-1.39.57-4.77.49-6.43,1.31-2.6,1.29-3.53,3.42-3.8,5.33,1.85-.28,4.06-1.41,5.09-2.27-1.08,1.26-2.34,2.19-4.39,3.2Z"/>
          <path class="cls-7" d="M65.97,35.6c-2.86-1.44-5.64-4.69-6.13-8.08s.76-5.82,1.57-7.68c1.96,2.62,4.15,4.29,5.33,7.21,1.09,2.7.64,6.36-.08,8.31-1.4-2.11-2.76-4.7-3.26-6.23.23,2.23,1.17,4.27,2.57,6.47Z"/>
          <path class="cls-7" d="M80.04,31.98c-1.28,3.1-3.29,5.8-5.33,6.45-2.03.65-3.46.21-5.14-.32,1.69-.36,3.26-1.14,4.5-2.1-1.45.59-3.74,1.34-5.13,1.53.68-1.69,2.36-3.85,3.87-4.58,2.16-1.04,4.88-.31,7.23-.99Z"/>
          <path class="cls-7" d="M67.18,41.08c-1.56,1.79-3.64,3.22-5.66,3.43-2.02.21-4.25-.77-6.43-2.1,1.39-.58,3.73-3.01,5.49-3.59,2.75-.92,4.92-.05,6.45,1.11-1.51,1.1-3.87,1.86-5.22,1.97,1.66.14,3.21-.09,5.37-.82Z"/>
          <path class="cls-7" d="M102.62,52.19c-1.29,3.1-3.3,5.8-5.33,6.45-2.03.65-3.8.35-5.48-.17,1.69-.36,3.6-1.29,4.85-2.24-1.45.59-4,1.35-5.39,1.53.68-1.69,2.62-3.86,4.12-4.59,2.16-1.04,4.88-.31,7.23-.99Z"/>
          <path class="cls-7" d="M89.58,60.17c.52,2.31.45,4.84-.58,6.59-1.02,1.75-3.13,2.97-5.49,3.95.36-1.46-.22-4.79.34-6.56.89-2.76,2.86-4,4.7-4.55,0,1.87-.79,4.22-1.49,5.37,1.09-1.26,1.82-2.64,2.51-4.81Z"/>
        </g>
        <g>
          <path class="cls-7" d="M128.27,233.74c.85,2.27,2.78,5.83,5.36,7.25,2.58,1.42,4.19,1.32,5.93,1.24-1.91-2.13-2.49-4.22-4.48-6.07-1.84-1.7-5.64-2.83-6.4-2.91,1.27,1.77,2.94,3.66,4.02,4.53-1.72-.87-3.08-2.25-4.42-4.05Z"/>
          <path class="cls-7" d="M114.75,230.74c2.14,2.19,4.81,3.86,6.87,3.85,2.05-.01,3.21-.76,4.58-1.64-1.65.16-3.32-.05-4.75-.5,1.5.09,3.33.04,4.65-.19-1.15-1.2-2.86-2.46-4.45-2.65-2.29-.27-4.54,1.06-6.89,1.14Z"/>
          <path class="cls-7" d="M120.77,217.44c.33,2.87,1.36,5.58,2.89,6.6,1.53,1.02,2.81.99,4.33.95-1.31-.7-2.43-1.71-3.23-2.8,1.06.83,2.45,1.7,3.55,2.18-.17-1.56-.71-3.46-1.79-4.41-1.55-1.37-3.97-1.41-5.75-2.52Z"/>
          <path class="cls-7" d="M130.63,226.95c.78,1.89,2.08,3.63,3.67,4.36,1.59.73,3.67.55,5.83.07-.97-.85-2.21-3.49-3.48-4.45-1.99-1.51-3.99-1.4-5.57-.88.92,1.32,2.64,2.58,3.71,3.05-1.39-.35-2.59-.96-4.15-2.15Z"/>
          <path class="cls-7" d="M136.1,215.26c0-2.75,1.45-6.15,3.87-7.83,2.42-1.67,4.77-1.65,6.52-1.74-1.27,2.52-1.71,4.85-3.51,6.88-1.66,1.88-4.66,2.93-6.43,3.13,1.09-1.89,2.56-3.94,3.55-4.91-1.63,1.03-2.84,2.54-4,4.46Z"/>
          <path class="cls-7" d="M144.3,224.71c-2.88.2-5.74-.31-7.02-1.62-1.28-1.31-1.49-2.58-1.73-4.08.93,1.16,2.13,2.07,3.35,2.66-1.01-.89-2.47-2.37-3.15-3.37,1.57-.12,3.88.34,5.01,1.22,1.63,1.27,2.12,3.64,3.54,5.19Z"/>
          <path class="cls-7" d="M132.34,218.3c-1.98-.51-3.88-1.57-4.82-3.05-.94-1.47-1.04-3.57-.86-5.76.98.85,3.75,1.72,4.88,2.85,1.77,1.77,1.93,3.77,1.63,5.4-1.43-.74-2.92-2.27-3.53-3.26.53,1.33,1.3,2.44,2.69,3.82Z"/>
          <path class="cls-7" d="M137.41,249.88c-2.88.2-5.74-.31-7.02-1.63-1.28-1.32-1.73-2.79-1.98-4.29.93,1.16,2.38,2.28,3.59,2.87-1.01-.89-2.58-2.56-3.25-3.56,1.57-.12,3.98.54,5.12,1.41,1.63,1.27,2.11,3.64,3.54,5.19Z"/>
          <path class="cls-7" d="M126.25,242.9c-1.58,1.29-3.56,2.2-5.3,2.09s-3.49-1.27-5.16-2.71c1.26-.29,3.6-2.01,5.18-2.26,2.47-.38,4.18.67,5.32,1.87-1.44.72-3.55,1.02-4.71.92,1.39.36,2.73.39,4.67.08Z"/>
        </g>
        <g>
          <path class="cls-3" d="M87.9,208.76c-1.03,2.6-2.15,7.13-1.06,10.35,1.09,3.22,2.55,4.38,4.1,5.66.02-3.3,1.15-5.54.88-8.66-.25-2.88-2.62-6.79-3.2-7.45-.29,2.5-.34,5.41-.09,6.98-.8-2.08-.88-4.31-.63-6.88Z"/>
          <path class="cls-3" d="M78.69,195.71c.13,3.53,1.11,7.03,2.87,8.61,1.76,1.58,3.33,1.84,5.18,2.15-1.53-1.14-2.79-2.62-3.67-4.12,1.21,1.25,2.81,2.62,4.12,3.45-.05-1.92-.53-4.32-1.74-5.72-1.75-2.01-4.7-2.62-6.76-4.38Z"/>
          <path class="cls-3" d="M94.14,189.05c-1.94,2.71-3.17,5.82-2.66,7.88.51,2.06,1.64,3.02,2.96,4.17-.58-1.61-.75-3.35-.59-4.9.26,1.53.76,3.35,1.34,4.62,1.07-1.46,2.07-3.5,1.9-5.15-.25-2.37-2.29-4.28-2.95-6.62Z"/>
          <path class="cls-3" d="M95.18,204.81c-.8,2.21-1.04,4.71-.25,6.57.79,1.86,2.71,3.32,4.92,4.58-.17-1.48.82-4.69.48-6.5-.53-2.83-2.32-4.3-4.07-5.07-.23,1.84.25,4.26.8,5.48-.92-1.38-1.47-2.83-1.87-5.06Z"/>
          <path class="cls-3" d="M108.92,199.08c2.14-2.34,6.01-4.13,9.38-3.67,3.37.45,5.36,2.3,6.92,3.57-3.04,1.16-5.22,2.81-8.33,3.15-2.88.31-6.25-1.11-7.92-2.32,2.4-.77,5.24-1.37,6.83-1.44-2.19-.38-4.4-.03-6.88.71Z"/>
          <path class="cls-3" d="M108.58,213.51c-2.61-2.06-4.66-4.71-4.73-6.83-.08-2.12.74-3.36,1.69-4.82-.11,1.71.21,3.42.79,4.87-.17-1.54-.27-3.94-.07-5.32,1.43,1.11,3.05,3.3,3.33,4.93.41,2.35-1.02,4.75-1,7.18Z"/>
          <path class="cls-3" d="M103.35,198.75c-1.29-1.97-2.09-4.35-1.75-6.34.34-1.99,1.88-3.85,3.74-5.58.18,1.48,1.87,4.38,1.95,6.22.13,2.88-1.28,4.71-2.8,5.87-.65-1.74-.73-4.2-.48-5.52-.58,1.55-.78,3.09-.67,5.35Z"/>
          <path class="cls-3" d="M83.17,229.64c-2.61-2.07-4.65-4.72-4.73-6.84-.07-2.12.69-3.73,1.64-5.19-.11,1.71.26,3.79.84,5.24-.17-1.54-.21-4.19-.01-5.56,1.43,1.11,2.98,3.55,3.27,5.18.41,2.35-1.02,4.75-1.01,7.18Z"/>
          <path class="cls-3" d="M79.06,215.02c-2.35-.12-4.75-.88-6.15-2.33-1.4-1.45-2-3.79-2.3-6.32,1.3.73,4.64,1.08,6.17,2.1,2.4,1.59,3.05,3.81,3.08,5.72-1.78-.5-3.82-1.89-4.74-2.87.91,1.38,2.03,2.45,3.92,3.7Z"/>
        </g>
        <g>
          <path class="cls-1" d="M147.3,157.75c-.07,1.95.03,3.56.39,3.59.36.03.77-1.53,1.02-3.47.26-1.97.16-3.54-.39-3.59-.55-.05-.95,1.46-1.02,3.47Z"/>
          <path class="cls-1" d="M144.21,159.12c1.24,1.51,2.37,2.66,2.66,2.45.29-.21-.43-1.66-1.52-3.28-1.1-1.65-2.21-2.77-2.66-2.45-.45.33.25,1.73,1.52,3.28Z"/>
          <path class="cls-1" d="M142.75,161.8c1.88.53,3.47.81,3.58.47.12-.35-1.3-1.11-3.13-1.81-1.85-.71-3.41-.99-3.58-.47-.18.52,1.2,1.27,3.13,1.81Z"/>
          <path class="cls-1" d="M143.19,164.86c1.82-.71,3.26-1.43,3.15-1.78s-1.71-.1-3.59.43c-1.91.54-3.32,1.25-3.15,1.78.17.53,1.72.29,3.59-.43Z"/>
          <path class="cls-1" d="M145.52,167.11c.97-1.7,1.63-3.16,1.33-3.36-.31-.2-1.39,1-2.52,2.59-1.14,1.62-1.79,3.06-1.33,3.36.47.3,1.52-.85,2.52-2.59Z"/>
          <path class="cls-1" d="M148.42,167.51c-.16-1.95-.44-3.53-.81-3.52-.36.01-.58,1.61-.61,3.56-.03,1.98.25,3.54.81,3.52.55-.02.77-1.57.61-3.56Z"/>
          <path class="cls-1" d="M151.33,166.04c-1.35-1.41-2.57-2.46-2.85-2.22s.56,1.62,1.78,3.15c1.23,1.55,2.43,2.59,2.85,2.22.42-.36-.39-1.7-1.78-3.15Z"/>
          <path class="cls-1" d="M152.59,163.51c-1.9-.47-3.49-.7-3.6-.35-.11.35,1.34,1.06,3.19,1.71,1.87.65,3.44.88,3.6.35.16-.53-1.24-1.23-3.19-1.71Z"/>
          <path class="cls-1" d="M152.28,160.59c-1.84.66-3.3,1.35-3.19,1.7.1.35,1.7.14,3.6-.34,1.92-.49,3.35-1.17,3.19-1.7-.16-.53-1.71-.34-3.6.34Z"/>
          <path class="cls-1" d="M150.12,158.42c-1.1,1.61-1.88,3.03-1.59,3.25.29.22,1.47-.88,2.72-2.39,1.27-1.52,2.03-2.91,1.59-3.25-.44-.34-1.59.73-2.72,2.39Z"/>
          <path class="cls-1" d="M147.73,161.81c-.17-.02-.32-.03-.47.06-.13.08-.24.21-.32.34-.2.32-.18.72.07,1,.29.33.77.4,1.16.21.17-.08.26-.22.32-.39.05-.16.1-.33.09-.5,0-.19-.09-.39-.22-.53-.13-.15-.3-.18-.48-.19-.04,0-.07.02-.14.01Z"/>
        </g>
        <g>
          <path class="cls-1" d="M44.12,134.89c-.05,1.38.02,2.51.27,2.54s.54-1.08.72-2.45c.18-1.39.12-2.5-.27-2.54-.39-.03-.67,1.03-.72,2.45Z"/>
          <path class="cls-1" d="M41.93,135.86c.87,1.07,1.67,1.88,1.88,1.73s-.3-1.17-1.07-2.32c-.78-1.16-1.56-1.96-1.88-1.73-.32.23.18,1.22,1.07,2.32Z"/>
          <path class="cls-1" d="M40.91,137.75c1.33.37,2.45.57,2.53.33.08-.24-.92-.78-2.21-1.28-1.31-.5-2.41-.7-2.53-.33-.13.37.85.9,2.21,1.28Z"/>
          <path class="cls-1" d="M41.22,139.91c1.29-.5,2.3-1.01,2.22-1.26-.08-.24-1.21-.07-2.53.31-1.35.38-2.34.88-2.22,1.26.12.37,1.22.21,2.53-.31Z"/>
          <path class="cls-1" d="M42.86,141.5c.69-1.2,1.15-2.24.94-2.37-.22-.14-.98.7-1.78,1.83-.81,1.14-1.27,2.16-.94,2.37.33.21,1.08-.6,1.78-1.83Z"/>
          <path class="cls-1" d="M44.91,141.79c-.11-1.38-.31-2.5-.57-2.49-.26,0-.41,1.13-.43,2.52-.02,1.4.18,2.5.57,2.49.39-.01.55-1.11.43-2.52Z"/>
          <path class="cls-1" d="M46.96,140.75c-.96-1-1.82-1.74-2.01-1.57-.2.17.4,1.14,1.25,2.22.87,1.1,1.72,1.83,2.01,1.57.3-.26-.27-1.2-1.25-2.22Z"/>
          <path class="cls-1" d="M47.85,138.96c-1.34-.33-2.47-.49-2.54-.25-.07.25.95.75,2.25,1.2,1.32.46,2.43.62,2.54.25.11-.37-.88-.87-2.25-1.21Z"/>
          <path class="cls-1" d="M47.63,136.9c-1.3.47-2.33.95-2.25,1.2.07.25,1.2.1,2.54-.24,1.36-.35,2.37-.82,2.25-1.2-.11-.37-1.21-.24-2.54.24Z"/>
          <path class="cls-1" d="M46.11,135.37c-.78,1.14-1.33,2.14-1.12,2.29.2.16,1.03-.62,1.92-1.69.89-1.08,1.43-2.05,1.12-2.29-.31-.24-1.12.52-1.92,1.68Z"/>
          <path class="cls-1" d="M44.42,137.76c-.12-.01-.23-.02-.33.04-.09.06-.17.15-.23.24-.14.23-.13.51.05.71.2.23.55.28.82.15.12-.06.18-.16.22-.28.04-.11.07-.24.07-.35,0-.14-.07-.27-.15-.38-.09-.11-.21-.13-.34-.14-.03,0-.05.01-.1,0Z"/>
        </g>
        <g>
          <path class="cls-1" d="M103.82,257.19c-.05,1.38.02,2.51.27,2.54.26.02.54-1.08.72-2.45.18-1.39.12-2.5-.27-2.54-.39-.03-.67,1.03-.72,2.45Z"/>
          <path class="cls-1" d="M101.63,258.16c.87,1.07,1.67,1.88,1.88,1.73s-.3-1.17-1.07-2.32c-.78-1.16-1.56-1.96-1.88-1.73-.32.23.18,1.22,1.07,2.32Z"/>
          <path class="cls-1" d="M100.61,260.05c1.33.37,2.45.57,2.53.33.08-.24-.92-.78-2.21-1.28-1.31-.5-2.41-.7-2.53-.33-.13.37.85.9,2.21,1.28Z"/>
          <path class="cls-1" d="M100.92,262.21c1.29-.5,2.3-1.01,2.22-1.26-.08-.24-1.21-.07-2.53.31-1.35.38-2.34.88-2.22,1.26.12.37,1.22.21,2.53-.31Z"/>
          <path class="cls-1" d="M102.56,263.8c.69-1.2,1.15-2.23.94-2.37-.22-.14-.98.7-1.78,1.83-.81,1.14-1.27,2.16-.94,2.37.33.21,1.08-.6,1.78-1.83Z"/>
          <path class="cls-1" d="M104.61,264.09c-.11-1.38-.31-2.5-.57-2.49-.26,0-.41,1.14-.43,2.52-.02,1.4.18,2.5.57,2.49.39-.01.55-1.11.43-2.52Z"/>
          <path class="cls-1" d="M106.67,263.05c-.96-1-1.82-1.74-2.01-1.57-.2.17.4,1.14,1.25,2.22.87,1.1,1.72,1.83,2.01,1.57.3-.26-.27-1.2-1.25-2.22Z"/>
          <path class="cls-1" d="M107.55,261.26c-1.34-.33-2.47-.49-2.54-.25-.07.25.95.75,2.25,1.2,1.32.46,2.43.62,2.54.25.11-.37-.88-.87-2.25-1.21Z"/>
          <path class="cls-1" d="M107.34,259.2c-1.3.47-2.33.95-2.25,1.2.07.25,1.2.1,2.54-.24,1.36-.35,2.37-.82,2.25-1.2-.11-.37-1.21-.24-2.54.24Z"/>
          <path class="cls-1" d="M105.81,257.67c-.78,1.14-1.33,2.14-1.12,2.29.2.16,1.03-.62,1.92-1.69.89-1.08,1.43-2.05,1.12-2.29-.31-.24-1.12.52-1.92,1.68Z"/>
          <path class="cls-1" d="M104.12,260.06c-.12-.01-.23-.02-.33.04-.09.06-.17.15-.23.24-.14.23-.13.51.05.71.2.23.55.28.82.15.12-.06.18-.16.22-.28.04-.11.07-.24.07-.35,0-.14-.07-.27-.15-.38-.09-.11-.21-.13-.34-.14-.03,0-.05.01-.1,0Z"/>
        </g>
        <g>
          <path class="cls-1" d="M59.55,276.88c-.05,1.38.02,2.51.27,2.54.26.02.54-1.08.72-2.45.18-1.39.12-2.5-.27-2.54s-.67,1.03-.72,2.45Z"/>
          <path class="cls-1" d="M57.36,277.85c.87,1.07,1.67,1.88,1.88,1.73.21-.15-.3-1.17-1.07-2.32-.78-1.16-1.56-1.96-1.88-1.73-.32.23.18,1.22,1.07,2.32Z"/>
          <path class="cls-1" d="M56.34,279.75c1.33.37,2.45.57,2.53.33.08-.24-.92-.78-2.21-1.28-1.31-.5-2.41-.7-2.53-.33-.13.37.85.9,2.21,1.28Z"/>
          <path class="cls-1" d="M56.65,281.91c1.29-.5,2.3-1.01,2.22-1.26-.08-.24-1.21-.07-2.53.31-1.35.38-2.34.88-2.22,1.26.12.37,1.22.21,2.53-.31Z"/>
          <path class="cls-1" d="M58.29,283.5c.69-1.2,1.15-2.23.94-2.37-.22-.14-.98.7-1.78,1.83-.81,1.14-1.27,2.16-.94,2.37.33.21,1.08-.6,1.78-1.83Z"/>
          <path class="cls-1" d="M60.34,283.78c-.11-1.38-.31-2.5-.57-2.49-.26,0-.41,1.14-.43,2.52-.02,1.4.18,2.5.57,2.49.39-.01.55-1.11.43-2.52Z"/>
          <path class="cls-1" d="M62.4,282.74c-.96-1-1.82-1.74-2.01-1.57-.19.17.4,1.14,1.25,2.22.87,1.1,1.72,1.83,2.01,1.57.3-.26-.27-1.2-1.25-2.22Z"/>
          <path class="cls-1" d="M63.28,280.96c-1.34-.33-2.47-.49-2.54-.25-.07.25.95.75,2.25,1.2,1.32.46,2.43.62,2.54.25s-.88-.87-2.25-1.21Z"/>
          <path class="cls-1" d="M63.07,278.89c-1.3.47-2.33.95-2.25,1.2.07.25,1.2.1,2.54-.24,1.36-.35,2.37-.82,2.25-1.2-.11-.37-1.21-.24-2.54.24Z"/>
          <path class="cls-1" d="M61.54,277.36c-.78,1.14-1.33,2.14-1.12,2.29s1.03-.62,1.92-1.69c.89-1.08,1.43-2.05,1.12-2.29-.31-.24-1.12.52-1.92,1.68Z"/>
          <path class="cls-1" d="M59.85,279.75c-.12-.01-.23-.02-.33.04-.09.06-.17.15-.23.24-.14.23-.13.51.05.71.2.23.55.28.82.15.12-.06.18-.16.22-.28.03-.11.07-.24.07-.35,0-.14-.07-.27-.15-.38-.09-.11-.21-.13-.34-.14-.03,0-.05.01-.1,0Z"/>
        </g>
        <g>
          <path class="cls-1" d="M88.12,22.8c-.05,1.38.02,2.51.27,2.54.26.02.54-1.08.72-2.45.18-1.39.12-2.5-.27-2.54-.39-.03-.67,1.03-.72,2.45Z"/>
          <path class="cls-1" d="M85.94,23.77c.87,1.07,1.67,1.88,1.88,1.73.21-.15-.3-1.17-1.07-2.32-.78-1.16-1.56-1.96-1.88-1.73-.32.23.18,1.22,1.07,2.32Z"/>
          <path class="cls-1" d="M84.91,25.66c1.33.37,2.45.57,2.53.33.08-.24-.92-.78-2.21-1.28-1.31-.5-2.4-.7-2.53-.33-.13.37.85.9,2.21,1.28Z"/>
          <path class="cls-1" d="M85.22,27.82c1.29-.5,2.3-1.01,2.22-1.26-.08-.24-1.21-.07-2.53.31-1.35.38-2.34.88-2.22,1.26.12.37,1.22.21,2.53-.31Z"/>
          <path class="cls-1" d="M86.86,29.41c.69-1.2,1.15-2.23.94-2.37-.22-.14-.98.7-1.78,1.83-.81,1.14-1.27,2.16-.94,2.37.33.21,1.08-.6,1.78-1.83Z"/>
          <path class="cls-1" d="M88.92,29.7c-.11-1.38-.31-2.5-.57-2.49-.26,0-.41,1.13-.43,2.52-.02,1.4.18,2.5.57,2.49.39-.01.55-1.11.43-2.52Z"/>
          <path class="cls-1" d="M90.97,28.66c-.96-1-1.82-1.74-2.01-1.57-.19.17.4,1.14,1.25,2.22.87,1.1,1.72,1.83,2.01,1.57.3-.26-.27-1.2-1.25-2.22Z"/>
          <path class="cls-1" d="M91.86,26.87c-1.34-.33-2.47-.49-2.54-.25-.07.25.95.75,2.25,1.2,1.32.46,2.43.62,2.54.25.11-.37-.88-.87-2.25-1.21Z"/>
          <path class="cls-1" d="M91.64,24.81c-1.3.47-2.33.95-2.25,1.2.07.25,1.2.1,2.54-.24,1.36-.35,2.37-.82,2.25-1.2-.11-.37-1.21-.24-2.54.24Z"/>
          <path class="cls-1" d="M90.11,23.27c-.78,1.14-1.33,2.14-1.12,2.29.2.16,1.03-.62,1.92-1.69.89-1.08,1.43-2.05,1.12-2.29-.31-.24-1.12.52-1.92,1.68Z"/>
          <path class="cls-1" d="M88.43,25.67c-.12-.01-.23-.02-.33.04-.09.06-.17.15-.23.24-.14.23-.13.51.05.71.2.23.55.28.82.15.12-.06.18-.16.22-.28.04-.11.07-.24.07-.35,0-.14-.07-.27-.15-.38-.09-.11-.21-.13-.34-.14-.03,0-.05.01-.1,0Z"/>
        </g>
        <g>
          <path class="cls-1" d="M36.58,42.93c-.05,1.38.02,2.51.27,2.54.26.02.54-1.08.72-2.45.18-1.39.12-2.5-.27-2.54-.39-.03-.67,1.03-.72,2.45Z"/>
          <path class="cls-1" d="M34.39,43.9c.87,1.07,1.67,1.88,1.88,1.73.21-.15-.3-1.17-1.07-2.32-.78-1.16-1.56-1.96-1.88-1.73-.32.23.18,1.22,1.07,2.32Z"/>
          <path class="cls-1" d="M33.36,45.8c1.33.37,2.45.57,2.53.33.08-.24-.92-.78-2.21-1.28-1.31-.5-2.4-.7-2.53-.33-.13.37.85.9,2.21,1.28Z"/>
          <path class="cls-1" d="M33.67,47.96c1.29-.5,2.3-1.01,2.22-1.26-.08-.24-1.21-.07-2.53.31-1.35.38-2.34.88-2.22,1.26.12.37,1.22.21,2.53-.31Z"/>
          <path class="cls-1" d="M35.32,49.55c.69-1.2,1.15-2.23.94-2.37-.22-.14-.98.7-1.78,1.83-.81,1.14-1.27,2.16-.94,2.37.33.21,1.08-.6,1.78-1.83Z"/>
          <path class="cls-1" d="M37.37,49.83c-.11-1.38-.31-2.5-.57-2.49-.26,0-.41,1.14-.43,2.52-.02,1.4.18,2.5.57,2.49.39-.01.55-1.11.43-2.52Z"/>
          <path class="cls-1" d="M39.42,48.79c-.96-1-1.82-1.74-2.01-1.57-.19.17.4,1.14,1.25,2.22.87,1.1,1.72,1.83,2.01,1.57.3-.26-.27-1.2-1.25-2.22Z"/>
          <path class="cls-1" d="M40.31,47.01c-1.34-.33-2.47-.49-2.54-.25-.07.25.95.75,2.25,1.2,1.32.46,2.43.62,2.54.25.11-.37-.88-.87-2.25-1.21Z"/>
          <path class="cls-1" d="M40.09,44.94c-1.3.47-2.33.95-2.25,1.2.07.25,1.2.1,2.54-.24,1.36-.35,2.37-.82,2.25-1.2-.11-.37-1.21-.24-2.54.24Z"/>
          <path class="cls-1" d="M38.56,43.41c-.78,1.14-1.33,2.14-1.12,2.29.2.16,1.03-.62,1.92-1.69.89-1.08,1.43-2.05,1.12-2.29-.31-.24-1.12.52-1.92,1.68Z"/>
          <path class="cls-1" d="M36.88,45.8c-.12-.01-.23-.02-.33.04-.09.06-.17.15-.23.24-.14.23-.13.51.05.71.2.23.55.28.82.15.12-.06.18-.16.22-.28.04-.11.07-.24.07-.35,0-.14-.07-.27-.15-.38-.09-.11-.21-.13-.34-.14-.03,0-.05.01-.1,0Z"/>
        </g>
        <g>
          <path class="cls-1" d="M62.08,224.07c-.05,1.38.02,2.51.27,2.54.26.02.54-1.08.72-2.45.18-1.39.12-2.5-.27-2.54-.39-.03-.67,1.03-.72,2.45Z"/>
          <path class="cls-1" d="M59.89,225.04c.87,1.07,1.67,1.88,1.88,1.73.21-.15-.3-1.17-1.07-2.32-.78-1.16-1.56-1.96-1.88-1.73-.32.23.18,1.22,1.07,2.32Z"/>
          <path class="cls-1" d="M58.87,226.93c1.33.37,2.45.57,2.53.33.08-.24-.92-.78-2.21-1.28-1.31-.5-2.41-.7-2.53-.33-.13.37.85.9,2.21,1.28Z"/>
          <path class="cls-1" d="M59.18,229.09c1.29-.5,2.3-1.01,2.22-1.26-.08-.24-1.21-.07-2.53.31-1.35.38-2.34.88-2.22,1.26.12.37,1.22.21,2.53-.31Z"/>
          <path class="cls-1" d="M60.82,230.68c.69-1.2,1.15-2.23.94-2.37-.22-.14-.98.7-1.78,1.83-.81,1.14-1.27,2.16-.94,2.37s1.08-.6,1.78-1.83Z"/>
          <path class="cls-1" d="M62.87,230.97c-.11-1.38-.31-2.5-.57-2.49-.26,0-.41,1.13-.43,2.52-.02,1.4.18,2.5.57,2.49.39-.01.55-1.11.43-2.52Z"/>
          <path class="cls-1" d="M64.93,229.93c-.96-1-1.82-1.74-2.01-1.57-.19.17.4,1.14,1.25,2.22.87,1.1,1.72,1.83,2.01,1.57.3-.26-.27-1.2-1.25-2.22Z"/>
          <path class="cls-1" d="M65.81,228.14c-1.34-.33-2.47-.49-2.54-.25-.07.25.95.75,2.25,1.2,1.32.46,2.43.62,2.54.25.11-.37-.88-.87-2.25-1.21Z"/>
          <path class="cls-1" d="M65.6,226.08c-1.3.47-2.33.95-2.25,1.2s1.2.1,2.54-.24c1.36-.35,2.37-.82,2.25-1.2-.11-.37-1.21-.24-2.54.24Z"/>
          <path class="cls-1" d="M64.07,224.54c-.78,1.14-1.33,2.14-1.12,2.29.2.16,1.03-.62,1.92-1.69.89-1.08,1.43-2.05,1.12-2.29-.31-.24-1.12.52-1.92,1.68Z"/>
          <path class="cls-1" d="M62.39,226.94c-.12-.01-.23-.02-.33.04-.09.06-.17.15-.23.24-.14.23-.13.51.05.71.2.23.55.28.82.15.12-.06.18-.16.22-.28.03-.11.07-.24.07-.35,0-.14-.07-.27-.15-.38-.09-.11-.21-.13-.34-.14-.03,0-.05.01-.1,0Z"/>
        </g>
        <g>
          <path class="cls-1" d="M159.39,25.58c-.05,1.38.02,2.51.27,2.54.26.02.54-1.08.72-2.45.18-1.39.12-2.5-.27-2.54-.39-.03-.67,1.03-.72,2.45Z"/>
          <path class="cls-1" d="M157.2,26.55c.87,1.07,1.67,1.88,1.88,1.73.21-.15-.3-1.17-1.07-2.32-.78-1.16-1.56-1.96-1.88-1.73-.32.23.18,1.22,1.07,2.32Z"/>
          <path class="cls-1" d="M156.18,28.44c1.33.37,2.45.57,2.53.33.08-.24-.92-.78-2.21-1.28-1.31-.5-2.4-.7-2.53-.33-.13.37.85.9,2.21,1.28Z"/>
          <path class="cls-1" d="M156.49,30.6c1.29-.5,2.3-1.01,2.22-1.26-.08-.24-1.21-.07-2.53.31-1.35.38-2.34.88-2.22,1.26.12.37,1.22.21,2.53-.31Z"/>
          <path class="cls-1" d="M158.13,32.19c.69-1.2,1.15-2.23.94-2.37-.22-.14-.98.7-1.78,1.83-.81,1.14-1.27,2.16-.94,2.37.33.21,1.08-.6,1.78-1.83Z"/>
          <path class="cls-1" d="M160.18,32.48c-.11-1.38-.31-2.5-.57-2.49-.26,0-.41,1.14-.43,2.52-.02,1.4.18,2.5.57,2.49.39-.01.55-1.11.43-2.52Z"/>
          <path class="cls-1" d="M162.23,31.43c-.96-1-1.82-1.74-2.01-1.57-.2.17.4,1.14,1.25,2.22.87,1.1,1.72,1.83,2.01,1.57.3-.26-.27-1.2-1.25-2.22Z"/>
          <path class="cls-1" d="M163.12,29.65c-1.34-.33-2.47-.49-2.54-.25-.07.25.95.75,2.25,1.2,1.32.46,2.43.62,2.54.25.11-.37-.88-.87-2.25-1.21Z"/>
          <path class="cls-1" d="M162.9,27.58c-1.3.47-2.33.95-2.25,1.2.07.25,1.2.1,2.54-.24,1.36-.35,2.37-.82,2.25-1.2-.11-.37-1.21-.24-2.54.24Z"/>
          <path class="cls-1" d="M161.38,26.05c-.78,1.14-1.33,2.14-1.12,2.29.2.16,1.03-.62,1.92-1.69.89-1.08,1.43-2.05,1.12-2.29-.31-.24-1.12.52-1.92,1.68Z"/>
          <path class="cls-1" d="M159.69,28.45c-.12-.01-.23-.02-.33.04-.09.06-.17.15-.23.24-.14.23-.13.51.05.71.2.23.55.28.82.15.12-.06.18-.16.22-.28.04-.11.07-.24.07-.35,0-.14-.07-.27-.15-.38-.09-.11-.21-.13-.34-.14-.03,0-.05.01-.1,0Z"/>
        </g>
        <g>
          <path class="cls-6" d="M152.4,53.61c-.07,1.95.03,3.56.39,3.59.36.03.77-1.53,1.02-3.47.26-1.96.16-3.54-.39-3.59-.55-.05-.95,1.46-1.02,3.47Z"/>
          <path class="cls-6" d="M149.3,54.99c1.24,1.51,2.37,2.66,2.66,2.45.29-.21-.43-1.66-1.52-3.28-1.1-1.65-2.21-2.77-2.66-2.45-.45.33.25,1.73,1.52,3.28Z"/>
          <path class="cls-6" d="M147.85,57.67c1.88.53,3.47.81,3.58.47.12-.35-1.3-1.11-3.13-1.81-1.85-.71-3.41-.99-3.58-.47-.18.52,1.2,1.27,3.13,1.81Z"/>
          <path class="cls-6" d="M148.29,60.73c1.82-.71,3.26-1.43,3.15-1.78-.11-.35-1.71-.1-3.59.43-1.91.54-3.32,1.25-3.15,1.78.17.53,1.72.29,3.59-.43Z"/>
          <path class="cls-6" d="M150.61,62.98c.97-1.7,1.63-3.16,1.33-3.36-.31-.2-1.39,1-2.52,2.59-1.14,1.62-1.79,3.06-1.33,3.36.47.3,1.52-.85,2.52-2.59Z"/>
          <path class="cls-6" d="M153.52,63.38c-.16-1.95-.44-3.53-.81-3.52-.36.01-.58,1.61-.61,3.56-.03,1.98.25,3.54.81,3.52.55-.02.77-1.57.61-3.56Z"/>
          <path class="cls-6" d="M156.43,61.91c-1.35-1.41-2.57-2.46-2.85-2.22s.56,1.62,1.78,3.15c1.23,1.55,2.43,2.59,2.85,2.22.42-.36-.39-1.7-1.78-3.15Z"/>
          <path class="cls-6" d="M157.68,59.38c-1.9-.47-3.49-.7-3.6-.35-.11.35,1.34,1.06,3.19,1.71,1.87.65,3.44.88,3.6.35.16-.53-1.24-1.23-3.19-1.71Z"/>
          <path class="cls-6" d="M157.38,56.45c-1.84.66-3.3,1.35-3.19,1.7.1.35,1.7.14,3.6-.34,1.92-.49,3.35-1.17,3.19-1.7-.16-.53-1.71-.34-3.6.34Z"/>
          <path class="cls-6" d="M155.21,54.28c-1.1,1.61-1.88,3.02-1.59,3.25.29.22,1.47-.88,2.72-2.39,1.27-1.52,2.03-2.91,1.59-3.25-.44-.34-1.59.73-2.72,2.39Z"/>
          <path class="cls-6" d="M152.83,57.68c-.17-.02-.32-.03-.47.06-.13.08-.24.21-.32.34-.2.32-.18.72.07,1,.29.33.77.4,1.16.21.17-.08.26-.22.32-.39.05-.16.1-.33.09-.5,0-.19-.09-.39-.22-.53-.13-.15-.3-.18-.48-.19-.04,0-.07.02-.14.01Z"/>
        </g>
        <g>
          <path class="cls-6" d="M54.34,62.25c-.07,1.95.03,3.56.39,3.59.36.03.77-1.53,1.02-3.47.26-1.97.16-3.54-.39-3.59-.55-.05-.95,1.46-1.02,3.47Z"/>
          <path class="cls-6" d="M51.24,63.62c1.24,1.51,2.37,2.66,2.66,2.45.29-.21-.43-1.66-1.52-3.28-1.1-1.65-2.21-2.77-2.66-2.45-.45.33.25,1.73,1.52,3.28Z"/>
          <path class="cls-6" d="M49.79,66.3c1.88.53,3.47.81,3.58.47.12-.34-1.3-1.11-3.13-1.81-1.85-.71-3.41-.99-3.58-.47-.18.52,1.2,1.27,3.13,1.81Z"/>
          <path class="cls-6" d="M50.23,69.36c1.82-.71,3.26-1.43,3.15-1.78-.11-.35-1.71-.1-3.59.43-1.91.54-3.32,1.25-3.15,1.78.17.53,1.72.29,3.59-.43Z"/>
          <path class="cls-6" d="M52.55,71.62c.97-1.7,1.63-3.16,1.33-3.36-.31-.2-1.39,1-2.52,2.59-1.14,1.62-1.79,3.06-1.33,3.36.47.3,1.52-.85,2.52-2.59Z"/>
          <path class="cls-6" d="M55.46,72.02c-.16-1.95-.44-3.53-.81-3.52-.36.01-.58,1.61-.61,3.56-.03,1.98.25,3.54.81,3.52.55-.02.77-1.57.61-3.56Z"/>
          <path class="cls-6" d="M58.37,70.55c-1.35-1.41-2.57-2.46-2.85-2.22-.28.24.56,1.62,1.78,3.15,1.23,1.55,2.43,2.59,2.85,2.22.42-.36-.39-1.7-1.78-3.15Z"/>
          <path class="cls-6" d="M59.62,68.02c-1.9-.47-3.49-.7-3.6-.35-.11.35,1.34,1.06,3.19,1.71,1.87.65,3.44.88,3.6.35.16-.53-1.24-1.23-3.19-1.71Z"/>
          <path class="cls-6" d="M59.32,65.09c-1.84.66-3.3,1.35-3.19,1.7.1.35,1.7.14,3.6-.34,1.92-.49,3.35-1.17,3.19-1.7-.16-.53-1.71-.34-3.6.34Z"/>
          <path class="cls-6" d="M57.15,62.92c-1.1,1.61-1.88,3.02-1.59,3.25.29.22,1.47-.88,2.72-2.39,1.27-1.52,2.03-2.91,1.59-3.25-.44-.34-1.59.73-2.72,2.39Z"/>
          <path class="cls-6" d="M54.77,66.32c-.17-.02-.32-.03-.47.06-.13.08-.24.21-.32.34-.2.32-.18.72.07,1,.29.33.77.4,1.16.21.17-.08.26-.22.32-.39.05-.16.1-.33.09-.5,0-.19-.09-.39-.22-.53-.13-.15-.3-.18-.48-.19-.04,0-.07.02-.14.01Z"/>
        </g>
        <g>
          <path class="cls-1" d="M55.58,197.4c-.07,1.95.03,3.56.39,3.59.36.03.77-1.53,1.02-3.47.26-1.97.16-3.54-.39-3.59-.55-.05-.95,1.46-1.02,3.47Z"/>
          <path class="cls-1" d="M52.48,198.77c1.24,1.51,2.37,2.66,2.66,2.45.29-.21-.43-1.66-1.52-3.28-1.1-1.65-2.21-2.77-2.66-2.45-.45.33.25,1.73,1.52,3.28Z"/>
          <path class="cls-1" d="M51.03,201.45c1.88.53,3.47.81,3.58.47.12-.35-1.3-1.11-3.13-1.81-1.85-.71-3.41-.99-3.58-.47-.18.52,1.2,1.27,3.13,1.81Z"/>
          <path class="cls-1" d="M51.47,204.51c1.82-.71,3.26-1.43,3.15-1.78s-1.71-.1-3.59.43c-1.91.54-3.32,1.25-3.15,1.78.17.53,1.72.29,3.59-.43Z"/>
          <path class="cls-1" d="M53.8,206.77c.97-1.7,1.63-3.16,1.33-3.36-.31-.2-1.39,1-2.52,2.59-1.14,1.62-1.79,3.06-1.33,3.36.47.3,1.52-.85,2.52-2.59Z"/>
          <path class="cls-1" d="M56.7,207.17c-.16-1.95-.44-3.53-.81-3.52-.36.01-.58,1.61-.61,3.56-.03,1.98.25,3.54.81,3.52.55-.02.77-1.57.61-3.56Z"/>
          <path class="cls-1" d="M59.61,205.7c-1.35-1.41-2.57-2.46-2.85-2.22-.28.24.56,1.62,1.78,3.15,1.23,1.55,2.43,2.59,2.85,2.22.42-.36-.39-1.7-1.78-3.15Z"/>
          <path class="cls-1" d="M60.86,203.17c-1.9-.47-3.49-.7-3.6-.35-.11.35,1.34,1.06,3.19,1.71,1.87.65,3.44.88,3.6.35.16-.53-1.24-1.23-3.19-1.71Z"/>
          <path class="cls-1" d="M60.56,200.24c-1.84.66-3.3,1.35-3.19,1.7.1.35,1.7.14,3.6-.34,1.92-.49,3.35-1.17,3.19-1.7-.16-.53-1.71-.34-3.6.34Z"/>
          <path class="cls-1" d="M58.4,198.07c-1.1,1.61-1.88,3.02-1.59,3.25.29.22,1.47-.88,2.72-2.39,1.27-1.52,2.03-2.91,1.59-3.25-.44-.34-1.59.73-2.72,2.39Z"/>
          <path class="cls-1" d="M56.01,201.47c-.17-.02-.32-.03-.47.06-.13.08-.24.21-.32.34-.2.32-.18.72.07,1,.29.33.77.4,1.16.21.17-.08.26-.22.32-.39.05-.16.1-.33.09-.5,0-.19-.09-.39-.22-.53-.13-.15-.3-.18-.48-.19-.04,0-.07.02-.14.01Z"/>
        </g>
        <g>
          <path class="cls-1" d="M157.61,234.37c-.07,1.95.03,3.56.39,3.59.36.03.77-1.53,1.02-3.47.26-1.97.16-3.54-.39-3.59-.55-.05-.95,1.46-1.02,3.47Z"/>
          <path class="cls-1" d="M154.52,235.75c1.24,1.51,2.37,2.66,2.66,2.45.29-.21-.43-1.66-1.52-3.28-1.1-1.65-2.21-2.77-2.66-2.45-.45.33.25,1.73,1.52,3.28Z"/>
          <path class="cls-1" d="M153.07,238.42c1.88.53,3.47.81,3.58.47.12-.35-1.3-1.11-3.13-1.81-1.85-.71-3.41-.99-3.58-.47-.18.52,1.2,1.27,3.13,1.81Z"/>
          <path class="cls-1" d="M153.5,241.48c1.82-.71,3.26-1.43,3.15-1.78-.11-.35-1.71-.1-3.59.43-1.91.54-3.32,1.25-3.15,1.78.17.53,1.72.29,3.59-.43Z"/>
          <path class="cls-1" d="M155.83,243.74c.97-1.7,1.63-3.16,1.33-3.36-.31-.2-1.39,1-2.52,2.59-1.14,1.62-1.79,3.06-1.33,3.36.47.3,1.52-.85,2.52-2.59Z"/>
          <path class="cls-1" d="M158.74,244.14c-.16-1.95-.44-3.53-.81-3.52s-.58,1.61-.61,3.56c-.03,1.98.25,3.54.81,3.52.55-.02.77-1.57.61-3.56Z"/>
          <path class="cls-1" d="M161.64,242.67c-1.35-1.41-2.57-2.46-2.85-2.22s.56,1.62,1.78,3.15c1.23,1.55,2.43,2.59,2.85,2.22.42-.36-.39-1.7-1.78-3.15Z"/>
          <path class="cls-1" d="M162.9,240.14c-1.9-.47-3.49-.7-3.6-.35-.11.35,1.34,1.06,3.19,1.71,1.87.65,3.44.88,3.6.35.16-.53-1.24-1.23-3.19-1.71Z"/>
          <path class="cls-1" d="M162.59,237.21c-1.84.66-3.3,1.35-3.19,1.7.1.35,1.7.14,3.6-.34,1.92-.49,3.35-1.17,3.19-1.7-.16-.53-1.71-.34-3.6.34Z"/>
          <path class="cls-1" d="M160.43,235.04c-1.1,1.61-1.88,3.02-1.59,3.25.29.22,1.47-.88,2.72-2.39,1.27-1.52,2.03-2.91,1.59-3.25-.44-.34-1.59.73-2.72,2.39Z"/>
          <path class="cls-1" d="M158.04,238.44c-.17-.02-.32-.03-.47.06-.13.08-.24.21-.32.34-.2.32-.18.72.07,1,.29.33.77.4,1.16.21.17-.08.26-.22.32-.39.05-.16.1-.33.09-.5,0-.19-.09-.39-.22-.53-.13-.15-.3-.18-.48-.19-.04,0-.07.02-.14.01Z"/>
        </g>
        <g>
          <path class="cls-1" d="M127.35,99.76c1.01.32,1.51,2.12.95,3.09-.57.99-1.79,1.77-2.64,3.27-.94-1.51-1.23-2.92-1-4.22.26-1.5,1.72-2.45,2.69-2.15Z"/>
          <path class="cls-1" d="M117.09,109.95c.74.76,2.2.91,3.23.48,1.34-.56,2-2.17,3.52-3.3-1.69-.56-3.78-.44-5.03-.02-1.59.55-2.55,1.99-1.72,2.84Z"/>
          <path class="cls-1" d="M121.86,113.94c.47.95,2,1.24,3.32.66,1.04-.46,1.89-1.56,2.81-3.12-1.62.31-3.07-.75-4.32-.32-1.44.49-2.27,1.88-1.81,2.79Z"/>
          <path class="cls-1" d="M134.82,104.71c.79.71.47,2.16-.46,3.03-1.06,1-2.85,1.21-4.4,2.31-.01-1.78.74-3.73,1.53-4.79,1.01-1.35,2.51-1.3,3.33-.55Z"/>
          <path class="cls-1" d="M149.45,124.12c.85.78.51,2.79-.49,3.5-1.02.72-2.59.92-4.12,2.01-.23-1.92.13-3.45.96-4.63.95-1.36,2.83-1.63,3.65-.88Z"/>
          <path class="cls-1" d="M134.6,129.45c.38,1.09,1.75,1.91,2.97,1.97,1.58.07,2.98-1.22,5.01-1.64-1.41-1.33-3.53-2.19-4.96-2.34-1.83-.2-3.44.79-3.01,2.01Z"/>
          <path class="cls-1" d="M136.75,136.33c.05,1.22,1.52,2.24,3.18,2.25,1.31,0,2.72-.75,4.42-1.96-1.84-.44-2.87-2.24-4.39-2.37-1.74-.16-3.27.91-3.22,2.08Z"/>
          <path class="cls-1" d="M154.52,132.42c.46,1.05-.49,2.34-1.8,2.79-1.48.52-3.35-.07-5.37.33.77-1.76,2.38-3.36,3.63-4.06,1.6-.89,3.06-.17,3.54.93Z"/>
          <path class="cls-1" d="M140.46,110.86c.68.86.28,2.77-.59,3.33-.89.57-2.23.57-3.58,1.44-.09-1.89.29-3.33,1.05-4.37.87-1.2,2.47-1.22,3.12-.4Z"/>
          <path class="cls-1" d="M128.04,118.71c.81.8,2.26,1.04,3.24.67,1.27-.48,1.76-2.05,3.15-3.09-1.72-.66-3.77-.67-4.97-.31-1.52.45-2.32,1.84-1.42,2.73Z"/>
          <path class="cls-1" d="M133.06,126.05c.84.85,2.49.82,3.6-.05.88-.68,1.31-1.97,1.65-3.73-1.51.65-3.38-.1-4.48.6-1.26.8-1.57,2.37-.77,3.19Z"/>
          <path class="cls-1" d="M146.59,118.51c.34,1.15-.6,2.36-1.8,2.66-1.36.35-2.98-.49-4.81-.33.81-1.73,2.36-3.18,3.52-3.74,1.48-.72,2.74.21,3.09,1.41Z"/>
        </g>
        <g>
          <path class="cls-1" d="M107.38,77.9c-.75-.36-1.99.41-2.19,1.25-.2.86.08,1.97-.23,3.27,1.34-.36,2.25-1.01,2.81-1.87.65-.99.32-2.31-.39-2.65Z"/>
          <path class="cls-1" d="M107.81,89.16c-.83.04-1.74-.65-2.1-1.44-.47-1.03.01-2.3-.25-3.75,1.26.58,2.39,1.76,2.88,2.66.62,1.16.39,2.49-.53,2.53Z"/>
          <path class="cls-1" d="M102.97,88.9c-.77.29-1.8-.36-2.24-1.39-.35-.82-.25-1.9.06-3.28.76,1.04,2.15,1.2,2.64,2.11.56,1.04.29,2.28-.45,2.56Z"/>
          <path class="cls-1" d="M100.48,76.75c-.83-.01-1.41.98-1.35,1.98.07,1.13.98,2.21,1.28,3.65.95-1.01,1.56-2.52,1.68-3.54.14-1.31-.74-2.08-1.61-2.09Z"/>
          <path class="cls-1" d="M81.83,80.04c-.9,0-1.78,1.32-1.58,2.25.2.95.99,1.91,1.28,3.34,1.16-.97,1.76-2.04,1.92-3.15.18-1.28-.75-2.43-1.61-2.44Z"/>
          <path class="cls-1" d="M87.46,90.98c-.8.42-2.02.16-2.74-.46-.94-.8-1.05-2.28-1.98-3.59,1.51-.01,3.17.63,4.07,1.3,1.15.86,1.54,2.28.65,2.75Z"/>
          <path class="cls-1" d="M82.58,93.76c-.68.67-2.06.47-3.01-.41-.75-.69-1.15-1.88-1.48-3.47,1.28.73,2.83.25,3.76.98,1.07.84,1.38,2.26.73,2.89Z"/>
          <path class="cls-1" d="M74.52,82.08c-.82.35-.96,1.59-.46,2.55.57,1.08,1.95,1.74,2.88,3.04.5-1.42.43-3.18.09-4.24-.44-1.35-1.65-1.72-2.51-1.35Z"/>
          <path class="cls-1" d="M94,77.26c-.84.13-1.63,1.43-1.43,2.21.21.8.97,1.52,1.27,2.72,1.06-1.03,1.6-2.05,1.72-3.05.14-1.15-.76-2.01-1.57-1.89Z"/>
          <path class="cls-1" d="M96.9,88.34c-.88.03-1.84-.61-2.2-1.34-.47-.95.08-2.1-.15-3.44,1.33.54,2.51,1.63,3,2.46.63,1.07.35,2.28-.64,2.31Z"/>
          <path class="cls-1" d="M90.14,89.85c-.93.04-1.85-.86-2.02-1.94-.14-.86.3-1.82,1.05-3,.52,1.18,1.98,1.74,2.23,2.72.29,1.13-.37,2.19-1.26,2.22Z"/>
          <path class="cls-1" d="M86.44,78.36c-.8.47-.91,1.66-.39,2.48.59.92,1.96,1.31,2.91,2.37.45-1.42.35-3.07-.02-4.01-.46-1.2-1.67-1.34-2.51-.84Z"/>
        </g>
        <g>
          <path class="cls-1" d="M92.16,172.81c.72.75,2.52.41,3.13-.49.63-.92.79-2.34,1.74-3.73-1.73-.18-3.1.17-4.14.93-1.2.87-1.42,2.57-.73,3.29Z"/>
          <path class="cls-1" d="M96.71,159.4c.99.33,1.75,1.54,1.81,2.64.09,1.42-1.05,2.69-1.39,4.52-1.22-1.24-2.02-3.14-2.18-4.42-.2-1.64.66-3.1,1.76-2.74Z"/>
          <path class="cls-1" d="M102.27,161.87c1.04,0,1.95,1.23,2.01,2.64.04,1.12-.56,2.34-1.54,3.82-.43-1.56-1.99-2.38-2.14-3.67-.18-1.48.68-2.81,1.68-2.8Z"/>
          <path class="cls-1" d="M99.73,177.26c.96.38,2.1-.52,2.47-1.71.42-1.36-.16-3.03.14-4.86-1.57.75-2.97,2.25-3.56,3.41-.75,1.47-.06,2.77.95,3.17Z"/>
          <path class="cls-1" d="M123.11,181.78c1.06.41,2.68-.76,2.87-1.93.19-1.2-.3-2.68,0-4.49-1.79.62-2.98,1.6-3.66,2.84-.79,1.42-.21,3.19.8,3.59Z"/>
          <path class="cls-1" d="M121.4,166.41c1.13-.13,2.44.72,3.01,1.77.74,1.36.21,3.15.71,5.11-1.78-.67-3.44-2.17-4.2-3.36-.96-1.52-.79-3.37.47-3.52Z"/>
          <path class="cls-1" d="M128.39,165.34c1.09-.48,2.63.37,3.35,1.83.57,1.15.51,2.72.18,4.73-1.18-1.44-3.21-1.57-3.98-2.84-.89-1.46-.6-3.27.44-3.73Z"/>
          <path class="cls-1" d="M132.6,182.67c1.12-.05,1.84-1.44,1.68-2.79-.18-1.53-1.5-2.92-2.02-4.87-1.22,1.44-1.94,3.54-2.01,4.94-.09,1.79,1.17,2.76,2.34,2.71Z"/>
          <path class="cls-1" d="M107.57,179.58c1.05.22,2.56-.94,2.67-1.95.12-1.03-.46-2.21-.27-3.77-1.71.73-2.8,1.69-3.39,2.81-.68,1.28-.01,2.7.99,2.92Z"/>
          <path class="cls-1" d="M109.14,165.26c1.05.37,1.88,1.54,1.98,2.56.13,1.32-1.04,2.43-1.36,4.1-1.32-1.23-2.21-3.04-2.41-4.24-.26-1.53.62-2.84,1.79-2.43Z"/>
          <path class="cls-1" d="M117.75,166.52c1.11.37,1.79,1.84,1.5,3.19-.23,1.06-1.17,2-2.58,3.06-.08-1.61-1.54-2.93-1.4-4.2.17-1.45,1.41-2.4,2.48-2.05Z"/>
          <path class="cls-1" d="M116.94,181.68c1.15-.2,1.81-1.55,1.57-2.73-.28-1.35-1.71-2.41-2.36-4.09-1.17,1.46-1.79,3.44-1.78,4.71,0,1.61,1.36,2.32,2.57,2.11Z"/>
        </g>
        <g>
          <g>
            <path class="cls-4" d="M16.19,29.19c-.02-1.83-.15-6.81.11-8.89.26-2.04-.55-2.59-1.16-.94-.73,1.97-.61,4.1-.6,5.34.01,1.24.34,3.58.68,4.9.27,1.03,1.01,1.67.98-.4Z"/>
            <path class="cls-4" d="M14.51,29.9c-.69-1.48-2.25-4.48-3.02-6.69-.44-1.27-.75-2.39-.93-3.23-.23-1.05-1.05-1.03-.98.31.07,1.6.59,3.69,1.17,5.02.48,1.1,2.1,3.99,2.96,4.93.69.74,1.17.47.79-.34Z"/>
            <path class="cls-4" d="M13.44,31.15c-.81-1-1.91-1.78-2.86-2.26-.99-.51-1.9-.66-2.65-.7-.94-.05-1.12,1.01-.36,1.31.93.37,2.68,1.23,3.53,1.75.75.46,1.47.8,2.13,1.02.75.24.65-.55.2-1.11Z"/>
            <path class="cls-4" d="M16.91,30.72c.45-.96,2.3-2.87,2.97-3.36.72-.53,1.6-.96,2.09-1.13.67-.24,1.21.51.65,1.36-.56.85-1.15,1.55-1.85,2.17-.66.57-2.6,1.92-3.14,2.13-.54.22-1.1-.34-.71-1.17Z"/>
            <path class="cls-4" d="M17.62,33.07c.85-.21,2.5.09,3.8.85.77.45,1.78,1.44,2.48,2.83.63,1.26.26,2.1-.71,1.33-1.49-1.18-2.86-2.07-4.14-2.84-.51-.31-1.13-.58-1.57-.79-.55-.27-.54-1.21.14-1.38Z"/>
            <path class="cls-4" d="M17.03,35.51c.62.58,1.09,1.15,1.75,2.5.63,1.28,1.16,2.86,1.16,4.08,0,1.03-.71.87-1.35-.3-.7-1.28-1.06-2.11-1.45-3.07-.52-1.26-.88-2.15-1.12-2.92-.24-.76.35-.92,1.01-.29Z"/>
            <path class="cls-4" d="M13.19,33.21c-1.3-.41-2.27.17-2.94.66-.59.44-1.25,1.42-1.37,2.83-.09,1.04.69,1.84,1.21,1,.37-.6,1.14-1.75,1.68-2.26.44-.42,1.36-.93,1.77-1.1.41-.17.15-.96-.35-1.12Z"/>
            <path class="cls-4" d="M14.19,35.2c-.61.62-.93,1.64-1.15,2.95-.15.89-.12,2.09,0,2.8.18,1.07.71,1.75,1.04.86.31-.85.4-1.44.65-2.83s.32-2.68.32-3.19c0-.51-.49-.96-.86-.59Z"/>
            <path class="cls-4" d="M17.11,28.6c-.09-1.58.13-4,.43-5.26.19-.78.48-1.49,1.22-2.29.42-.46,1.2.11,1,1.03-.24,1.1-.45,2.29-.81,3.25-.31.84-1.04,2.23-1.83,3.27Z"/>
            <path class="cls-4" d="M14.22,27.48c-.15-1.47-.19-3.99-.48-5.1-.29-1.1-.73-2.03-1.12-2.02-.39,0-.58,1.13-.33,2.3.22,1.04,1.11,3.66,1.94,4.83Z"/>
            <path class="cls-4" d="M11.68,28.46c-.65-.96-2.34-3.58-3.43-4.17-1.05-.56-1.36.35-.68,1.38.89,1.34,3.02,2.12,4.11,2.78Z"/>
            <path class="cls-4" d="M11.07,32.29c-1.22-.64-2.36-.82-3.08-.64-1.09.28-1.13,1.75-.36,1.85,1.09.13,2.2-1.02,3.44-1.21Z"/>
            <path class="cls-4" d="M19.75,32.04c.62-.45,1.6-1.15,2.34-1.08.67.06,1.69.61,1.92,1.38.2.65-.7,1.21-1.6.99-.9-.22-1.74-1.08-2.66-1.29Z"/>
            <path class="cls-4" d="M18.86,36.25c.4.28,1.96,1.3,2.51,2.15,1.08,1.67.53,2.97-.5,1.71-1.03-1.26-1.26-2.93-2.01-3.86Z"/>
            <path class="cls-4" d="M15.81,37.9c.45,1.19,1.19,3.67,1.19,4.6.01,1.22-.9,1.65-1.33-.04-.43-1.69.1-3.62.13-4.57Z"/>
            <path class="cls-4" d="M12.67,36.1c-.74.43-1.44,1.22-1.57,2.1-.13.88.35,1.52.81.8.43-.67.44-1.76.76-2.9Z"/>
          </g>
          <path class="cls-4" d="M14.6,33.44c.33.65.98.88,1.44.53.46-.36.57-1.17.23-1.82s-.98-.88-1.44-.53c-.46.36-.57,1.17-.23,1.82Z"/>
        </g>
        <g>
          <g>
            <path class="cls-6" d="M136.34,266.44c1.53,1.01,5.72,3.7,7.29,5.09,1.54,1.36,2.45.99,1.43-.44-1.22-1.71-3.05-2.81-4.08-3.49s-3.15-1.74-4.43-2.19c-1-.36-1.95-.11-.22,1.03Z"/>
            <path class="cls-6" d="M136.69,264.64c1.61.27,4.97.65,7.23,1.26,1.29.35,2.39.72,3.19,1.04,1,.4,1.44-.28.3-.99-1.37-.84-3.39-1.58-4.81-1.85-1.18-.22-4.48-.51-5.74-.32-.99.15-1.05.7-.17.84Z"/>
            <path class="cls-6" d="M136.26,263.05c1.28-.11,2.54-.58,3.48-1.09.98-.54,1.61-1.2,2.07-1.8.57-.74-.21-1.49-.89-1.04-.83.56-2.52,1.53-3.43,1.94-.8.36-1.49.76-2.04,1.19-.62.48.09.85.81.79Z"/>
            <path class="cls-6" d="M134.67,266.17c.54.91,1.08,3.51,1.11,4.35.03.89-.11,1.86-.24,2.36-.18.69-1.1.71-1.49-.22-.39-.94-.64-1.82-.75-2.75-.1-.86-.12-3.23,0-3.8.12-.57.9-.72,1.37.06Z"/>
            <path class="cls-6" d="M132.32,265.44c-.31.82-1.48,2.01-2.84,2.67-.8.38-2.19.67-3.73.46-1.39-.19-1.88-.96-.7-1.34,1.81-.57,3.32-1.2,4.67-1.83.54-.25,1.11-.61,1.54-.85.53-.3,1.31.24,1.06.89Z"/>
            <path class="cls-6" d="M130.64,263.57c-.83.19-1.57.25-3.06.04-1.41-.19-3.02-.65-4.03-1.33-.85-.58-.32-1.08,1.01-.95,1.46.14,2.34.31,3.35.52,1.34.28,2.27.48,3.05.71.77.23.57.8-.33,1Z"/>
            <path class="cls-6" d="M134.7,261.69c1.08-.85,1.14-1.97,1.1-2.81-.03-.74-.47-1.84-1.57-2.73-.81-.66-1.91-.46-1.51.44.29.65.81,1.92.93,2.66.1.6.01,1.65-.08,2.08-.09.43.71.67,1.12.34Z"/>
            <path class="cls-6" d="M132.49,261.4c-.17-.85-.83-1.69-1.79-2.61-.65-.62-1.66-1.28-2.32-1.58-.98-.45-1.85-.4-1.29.38.53.73.96,1.14,1.97,2.13,1.01.99,2.03,1.77,2.46,2.05.43.28,1.07.14.97-.38Z"/>
            <path class="cls-6" d="M136.31,267.52c1.36.81,3.24,2.35,4.11,3.32.54.59.96,1.24,1.21,2.29.14.61-.77.94-1.41.25-.77-.82-1.64-1.66-2.24-2.5-.51-.73-1.26-2.11-1.68-3.36Z"/>
            <path class="cls-6" d="M138.86,265.76c1.3.7,3.4,2.09,4.49,2.47,1.07.37,2.09.54,2.3.21.21-.33-.61-1.11-1.71-1.56-.98-.4-3.65-1.13-5.08-1.11Z"/>
            <path class="cls-6" d="M139.48,263.11c1.16,0,4.28.08,5.37-.5,1.05-.55.48-1.33-.76-1.34-1.61-.02-3.45,1.3-4.61,1.84Z"/>
            <path class="cls-6" d="M136.64,260.45c1.22-.65,2.01-1.5,2.26-2.19.38-1.07-.82-1.92-1.33-1.34-.72.83-.39,2.39-.93,3.53Z"/>
            <path class="cls-6" d="M131.98,267.78c.02.76.05,1.97-.42,2.55-.42.52-1.45,1.06-2.22.81-.65-.2-.61-1.26.08-1.88.69-.62,1.87-.83,2.56-1.48Z"/>
            <path class="cls-6" d="M129,264.67c-.45.17-2.18.89-3.19.87-1.99-.05-2.76-1.23-1.13-1.37,1.62-.15,3.14.61,4.32.5Z"/>
            <path class="cls-6" d="M129.35,261.23c-1.24-.3-3.7-1.08-4.48-1.6-1.01-.68-.86-1.67.77-1.08,1.64.6,2.94,2.11,3.71,2.68Z"/>
            <path class="cls-6" d="M132.6,259.63c.06-.85-.2-1.87-.86-2.47-.66-.6-1.45-.57-1.12.22.31.73,1.21,1.35,1.97,2.25Z"/>
          </g>
          <path class="cls-6" d="M133.72,262.72c-.72-.09-1.28.32-1.25.9s.65,1.13,1.38,1.22c.72.09,1.28-.32,1.25-.9-.04-.58-.65-1.13-1.38-1.22Z"/>
        </g>
        <g>
          <g>
            <path class="cls-6" d="M63.58,114.77c-.13-1.69-.54-6.23-.33-8.39.2-2.11-.8-1.95-1.44.09-.77,2.44-.52,4.33-.44,5.48s.59,3.07,1.07,4.01c.37.74,1.29.73,1.15-1.19Z"/>
            <path class="cls-6" d="M61.6,116.83c-.9-.81-2.93-2.31-3.96-3.74-.59-.82-1.02-1.61-1.28-2.24-.33-.79-1.31-.09-1.16,1.1.17,1.44.9,2.95,1.67,3.71.63.63,2.72,1.99,3.81,2.13.86.12,1.42-.53.93-.97Z"/>
            <path class="cls-6" d="M60.38,118.89c-1.02-.26-2.38-.07-3.54.26-1.22.35-2.31.97-3.21,1.55-1.12.73-1.28,1.87-.36,1.53,1.13-.43,3.28-1.09,4.33-1.31.92-.19,1.8-.47,2.6-.82.91-.4.76-1.06.18-1.21Z"/>
            <path class="cls-6" d="M64.52,115.61c.49-1.27,2.6-4.59,3.38-5.61.83-1.09,1.87-2.23,2.44-2.79.79-.78,1.48-.53.85.72-.62,1.25-1.3,2.41-2.11,3.56-.76,1.08-3.01,3.95-3.65,4.6-.64.65-1.34.6-.92-.5Z"/>
            <path class="cls-6" d="M65.5,117.2c1.01-.9,3-1.99,4.6-2.36.94-.22,2.21-.14,3.11.58.81.65.42,1.74-.79,1.83-1.85.14-3.53.44-5.11.79-.63.14-1.38.4-1.92.56-.67.2-.71-.69.1-1.41Z"/>
            <path class="cls-6" d="M64.91,119.97c.77.03,1.36.18,2.23.88.83.67,1.54,1.71,1.61,2.84.06.96-.8,1.41-1.64.84-.91-.61-1.38-1.09-1.9-1.66-.69-.74-1.16-1.28-1.5-1.79-.33-.51.37-1.15,1.2-1.12Z"/>
            <path class="cls-6" d="M60.19,121.02c-1.58.7-2.71,2.04-3.49,3.06-.69.91-1.43,2.37-1.5,3.78-.05,1.04.92,1.15,1.51-.08.41-.87,1.27-2.58,1.9-3.51.51-.76,1.57-2,2.06-2.5.48-.5.13-1.03-.48-.76Z"/>
            <path class="cls-6" d="M61.5,122.05c-.7,1.09-1.03,2.31-1.22,3.71-.13.95-.04,2.05.14,2.62.27.85.94,1.05,1.29-.06.33-1.05.41-1.68.64-3.19.23-1.51.25-2.77.21-3.24-.04-.47-.63-.5-1.06.16Z"/>
            <path class="cls-6" d="M64.65,113.46c-.2-1.4-.06-3.84.24-5.27.18-.88.5-1.79,1.34-3.15.48-.78,1.45-.9,1.25.13-.24,1.23-.42,2.52-.8,3.71-.33,1.04-1.13,2.94-2.03,4.58Z"/>
            <path class="cls-6" d="M61.13,114.82c-.26-1.24-.43-3.57-.84-4.36-.41-.78-.98-1.29-1.45-.95-.47.33-.63,1.54-.28,2.42.31.79,1.53,2.49,2.57,2.89Z"/>
            <path class="cls-6" d="M58.13,117.84c-.83-.36-2.99-1.4-4.33-1.04-1.29.35-1.62,1.46-.75,1.86,1.13.52,3.72-.53,5.07-.82Z"/>
            <path class="cls-6" d="M57.61,121.92c-1.5.42-2.88,1.2-3.72,1.97-1.3,1.18-1.26,2.58-.34,2.02,1.31-.78,2.58-2.78,4.06-3.99Z"/>
            <path class="cls-6" d="M68,114.47c.72-.93,1.86-2.4,2.75-2.96.8-.5,2.06-.84,2.38-.31.27.44-.78,1.71-1.87,2.26-1.09.55-2.14.44-3.26,1.01Z"/>
            <path class="cls-6" d="M67.14,119.15c.49-.07,2.42-.42,3.12-.08,1.38.67.79,2.33-.51,2.01-1.3-.32-1.66-1.69-2.61-1.93Z"/>
            <path class="cls-6" d="M63.58,123.22c.6.74,1.61,2.44,1.67,3.31.08,1.13-.99,2.29-1.59,1.07-.6-1.22-.07-3.46-.08-4.37Z"/>
            <path class="cls-6" d="M59.72,124.15c-.86,1.01-1.66,2.33-1.77,3.26-.11.93.5,1.13,1.01.07.48-.98.43-2.01.75-3.33Z"/>
          </g>
          <path class="cls-6" d="M61.89,120.07c.43.33,1.22,0,1.76-.71.54-.72.62-1.57.18-1.89-.43-.33-1.22,0-1.76.71-.54.72-.62,1.57-.18,1.89Z"/>
        </g>
        <g>
          <g>
            <path class="cls-6" d="M23.25,115.48c1.41-1.17,5.19-4.4,6.98-5.51,1.74-1.08,1.66-2.06,0-1.5-1.99.67-3.57,2.1-4.52,2.89-.95.79-2.57,2.52-3.38,3.61-.63.86-.67,1.84.93.51Z"/>
            <path class="cls-6" d="M21.63,114.62c.72-1.47,2.06-4.57,3.3-6.56.71-1.14,1.38-2.08,1.92-2.75.67-.84.14-1.46-.86-.57-1.2,1.07-2.49,2.79-3.16,4.07-.55,1.07-1.78,4.14-1.96,5.4-.14,1,.37,1.2.76.4Z"/>
            <path class="cls-6" d="M19.99,114.57c.27-1.26.18-2.6-.04-3.65-.23-1.09-.69-1.89-1.12-2.5-.55-.76-1.49-.23-1.25.55.3.95.74,2.86.87,3.85.11.87.3,1.65.55,2.29.28.73.84.16.99-.54Z"/>
            <path class="cls-6" d="M22.5,117c1.03-.25,3.68-.02,4.48.19.86.23,1.75.64,2.19.91.61.37.36,1.26-.64,1.36-1.01.1-1.93.08-2.85-.08-.85-.15-3.12-.81-3.63-1.1-.51-.28-.43-1.07.46-1.29Z"/>
            <path class="cls-6" d="M21.13,119.04c.7.53,1.5,2,1.73,3.49.14.88,0,2.29-.64,3.7-.58,1.28-1.47,1.52-1.48.28-.02-1.9-.19-3.52-.4-5-.08-.59-.26-1.24-.37-1.72-.13-.6.6-1.18,1.16-.76Z"/>
            <path class="cls-6" d="M18.86,120.1c-.06.85-.21,1.57-.84,2.94-.59,1.3-1.5,2.7-2.44,3.47-.8.65-1.13,0-.62-1.24.55-1.36.98-2.15,1.47-3.06.65-1.2,1.12-2.04,1.56-2.71.44-.67.93-.31.87.6Z"/>
            <path class="cls-6" d="M18.23,115.68c-.5-1.27-1.56-1.66-2.37-1.87-.72-.19-1.89-.08-3.06.71-.86.58-1,1.7-.01,1.57.7-.09,2.07-.22,2.82-.12.6.08,1.58.46,1.97.68.39.21.84-.49.65-.98Z"/>
            <path class="cls-6" d="M17.31,117.71c-.87-.09-1.86.31-3.02.96-.78.45-1.7,1.22-2.18,1.76-.71.81-.91,1.66-.01,1.35.86-.29,1.37-.59,2.61-1.27,1.24-.68,2.28-1.43,2.68-1.76.39-.33.44-.98-.08-1.04Z"/>
            <path class="cls-6" d="M24.28,115.82c1.17-1.07,3.19-2.42,4.36-2.98.72-.34,1.46-.56,2.55-.5.62.04.68,1-.17,1.43-1.01.5-2.07,1.09-3.04,1.42-.85.28-2.38.6-3.7.64Z"/>
            <path class="cls-6" d="M23.33,112.87c1.05-1.04,2.98-2.66,3.66-3.59.67-.92,1.12-1.84.86-2.14-.25-.3-1.24.27-1.99,1.19-.67.82-2.14,3.17-2.53,4.54Z"/>
            <path class="cls-6" d="M20.97,111.51c.34-1.11,1.31-4.08,1.08-5.29-.22-1.17-1.13-.84-1.5.34-.49,1.53.25,3.68.43,4.95Z"/>
            <path class="cls-6" d="M17.61,113.46c-.27-1.35-.85-2.35-1.44-2.79-.91-.67-2.07.23-1.66.88.58.93,2.18,1.06,3.11,1.91Z"/>
            <path class="cls-6" d="M23.27,120.04c.74.2,1.9.52,2.32,1.14.37.55.59,1.7.14,2.36-.38.56-1.38.22-1.78-.62-.4-.84-.26-2.03-.67-2.88Z"/>
            <path class="cls-6" d="M19.43,122c.04.48.23,2.34-.09,3.3-.62,1.89-1.97,2.28-1.64.69.33-1.6,1.49-2.83,1.73-3.99Z"/>
            <path class="cls-6" d="M16.24,120.67c-.64,1.1-2.1,3.23-2.83,3.83-.94.78-1.85.34-.81-1.05,1.04-1.39,2.87-2.2,3.63-2.77Z"/>
            <path class="cls-6" d="M15.65,117.09c-.8-.31-1.85-.35-2.62.11-.77.46-.96,1.23-.11,1.13.79-.09,1.65-.77,2.73-1.24Z"/>
          </g>
          <path class="cls-6" d="M18.93,116.92c-.29.67-.07,1.32.5,1.45.57.13,1.27-.3,1.56-.97.29-.67.07-1.32-.5-1.45-.57-.13-1.27.3-1.56.97Z"/>
        </g>
        <g>
          <g>
            <path class="cls-4" d="M90.52,280.98c1.24,1.34,4.66,4.97,5.86,6.69,1.17,1.69,2.14,1.56,1.49-.08-.77-1.95-2.28-3.46-3.12-4.37-.83-.91-2.64-2.44-3.78-3.19-.89-.59-1.87-.58-.46.95Z"/>
            <path class="cls-4" d="M91.29,279.32c1.5.65,4.67,1.83,6.71,2.97,1.17.65,2.15,1.28,2.85,1.78.87.63,1.47.07.53-.89-1.13-1.14-2.91-2.35-4.23-2.95-1.09-.5-4.23-1.57-5.5-1.69-1-.09-1.18.43-.36.78Z"/>
            <path class="cls-4" d="M91.26,277.68c1.27.21,2.61.05,3.64-.22,1.08-.28,1.85-.78,2.44-1.25.73-.58.15-1.5-.61-1.22-.94.34-2.82.88-3.8,1.06-.86.16-1.63.38-2.26.66-.72.32-.12.85.59.96Z"/>
            <path class="cls-4" d="M88.96,280.31c.31,1.02.21,3.67.04,4.49-.18.87-.56,1.78-.8,2.23-.34.63-1.24.43-1.39-.57-.15-1-.18-1.92-.07-2.85.11-.86.66-3.16.91-3.69.26-.52,1.05-.48,1.31.39Z"/>
            <path class="cls-4" d="M86.86,279.04c-.5.72-1.92,1.6-3.4,1.9-.87.18-2.29.12-3.73-.45-1.3-.52-1.6-1.39-.36-1.47,1.9-.12,3.51-.37,4.98-.65.59-.11,1.23-.33,1.7-.46.59-.16,1.21.54.82,1.12Z"/>
            <path class="cls-4" d="M85.68,276.83c-.85-.02-1.58-.13-2.98-.69-1.33-.53-2.77-1.36-3.59-2.26-.69-.76-.06-1.12,1.21-.68,1.38.49,2.2.87,3.13,1.31,1.23.59,2.09,1.01,2.79,1.42.69.4.36.92-.56.89Z"/>
            <path class="cls-4" d="M90.07,275.97c1.25-.56,1.58-1.64,1.75-2.46.15-.72-.02-1.9-.87-3.02-.63-.83-1.75-.91-1.57.07.13.7.32,2.06.26,2.81-.05.6-.38,1.6-.58,2-.19.4.53.82,1.01.6Z"/>
            <path class="cls-4" d="M87.99,275.16c.04-.87-.4-1.84-1.11-2.96-.49-.76-1.31-1.64-1.87-2.09-.85-.67-1.7-.83-1.34.06.34.84.66,1.34,1.4,2.55.74,1.21,1.55,2.21,1.89,2.58.35.38,1.01.39,1.03-.13Z"/>
            <path class="cls-4" d="M90.23,282.02c1.13,1.11,2.58,3.06,3.19,4.21.38.71.64,1.43.63,2.52,0,.63-.97.72-1.43-.1-.55-.98-1.2-2.01-1.57-2.97-.32-.83-.72-2.35-.82-3.66Z"/>
            <path class="cls-4" d="M93.13,280.93c1.09.99,2.8,2.84,3.77,3.47.95.62,1.9,1.02,2.18.75.29-.27-.33-1.23-1.29-1.93-.86-.63-3.27-1.98-4.67-2.3Z"/>
            <path class="cls-4" d="M94.37,278.5c1.13.28,4.14,1.1,5.34.81,1.15-.28.78-1.17-.42-1.49-1.56-.41-3.66.43-4.92.68Z"/>
            <path class="cls-4" d="M92.26,275.24c1.34-.34,2.31-.97,2.72-1.58.63-.94-.33-2.06-.96-1.62-.9.63-.95,2.23-1.75,3.2Z"/>
            <path class="cls-4" d="M85.96,281.23c-.16.75-.42,1.92-1.02,2.37-.53.4-1.67.67-2.35.26-.58-.35-.28-1.37.53-1.81.82-.44,2.01-.36,2.84-.82Z"/>
            <path class="cls-4" d="M83.82,277.49c-.48.06-2.33.34-3.3.08-1.92-.53-2.38-1.86-.77-1.61,1.61.25,2.9,1.34,4.07,1.53Z"/>
            <path class="cls-4" d="M84.99,274.24c-1.13-.59-3.33-1.94-3.96-2.63-.82-.9-.44-1.83,1.01-.86,1.44.97,2.34,2.76,2.95,3.49Z"/>
            <path class="cls-4" d="M88.52,273.47c.27-.81.26-1.87-.24-2.61-.49-.74-1.27-.9-1.14-.06.13.78.85,1.61,1.37,2.66Z"/>
          </g>
          <path class="cls-4" d="M88.87,276.74c-.68-.26-1.32,0-1.43.57-.11.58.36,1.25,1.04,1.51.68.26,1.32,0,1.43-.57.11-.58-.36-1.25-1.04-1.51Z"/>
        </g>
        <g>
          <path class="cls-7" d="M4.81,161.52c1.15,2,2.37,3.58,4.03,4.68-1-1.02-2.48-3.15-3.56-5.12.77.17,4.52,1.79,6.2,3.75,1.81,2.13,2.15,4.34,3.85,6.75-1.8-.13-3.45-.22-5.92-1.99s-4-5.64-4.6-8.07Z"/>
          <path class="cls-7" d="M2.78,160.45c-.92.45-1.76.86-2.75,1.05v-1.44c.88.22,1.81.37,2.75.39Z"/>
          <path class="cls-7" d="M2.76,159.74c-.8.04-1.76,0-2.73-.1v-2.48c1.06.66,2.03,1.65,2.73,2.58Z"/>
          <path class="cls-7" d="M5.99,151.94c-1.08-.62-2.39-1.69-3.37-2.66.69,1.21,1.71,2.38,2.97,3.25-1.56-.14-2.87-.26-4.32-1.49-.5-.43-.91-1.07-1.24-1.84v-4.66c1.58.89,3.49,1.35,4.66,2.68.98,1.11,1.31,3.11,1.29,4.73Z"/>
          <path class="cls-7" d="M8.05,154.86c1.45,1.41,2.61,2.18,3.99,2.7-1.03-.61-2.64-2.11-3.42-3.57,1.67-.34,3.73-.21,5.59,1.58,1.19,1.14,2.13,3.99,3.03,4.98-2.26.23-4.42.16-5.95-.78-1.54-.94-2.66-2.88-3.23-4.91Z"/>
          <path class="cls-7" d="M19.69,139.47c-1.79.86-3.22,2.26-4.63,4.09.34-2.82,2.22-6.12,4.91-7.54,2.68-1.42,5.09-1.11,6.88-1-1.6,2.42-2.34,4.75-4.42,6.62-1.93,1.72-5.12,2.44-6.96,2.43,1.34-1.8,3.1-3.72,4.22-4.59Z"/>
          <path class="cls-7" d="M15.32,151.71c-1.16-1.5-1.21-2.82-1.28-4.38.81,1.3,1.93,2.38,3.1,3.13-.93-1.03-2.25-2.72-2.81-3.83,1.62.06,3.93.82,4.98,1.85,1.52,1.49,1.73,3.98,3,5.74-2.97-.14-5.83-1.01-6.99-2.51Z"/>
          <path class="cls-7" d="M8.55,141.97c.38,1.43,1.04,2.65,2.29,4.24-1.96-.76-3.78-2.08-4.56-3.7-.78-1.62-.63-3.78-.18-6,.9.99,3.63,2.21,4.65,3.51,1.59,2.02,1.52,4.09,1.01,5.72-1.37-.93-2.71-2.67-3.21-3.76Z"/>
          <path class="cls-7" d="M7.05,175.37c-.93-1.03-2.33-2.93-2.9-4.04,1.62.06,4.01,1.03,5.07,2.07,1.52,1.49,1.72,3.98,2.99,5.74-2.97-.14-5.83-1.01-6.99-2.51-1.15-1.5-1.44-3.07-1.5-4.63.81,1.3,2.16,2.62,3.33,3.37Z"/>
          <path class="cls-7" d="M1.64,170.65c-.51.33-1.05.61-1.61.85v-.86c.49.02,1.02.03,1.61,0Z"/>
          <path class="cls-7" d="M1.8,169.63c-.54.19-1.15.32-1.77.4v-2.07c.73.46,1.32,1.05,1.77,1.67Z"/>
        </g>
        <g>
          <path class="cls-6" d="M24.81,172.62c-.71,1.82-1.15,3.37-.81,3.52.33.15,1.23-1.19,2.1-2.94.89-1.77,1.32-3.29.81-3.52-.51-.23-1.38,1.07-2.1,2.94Z"/>
          <path class="cls-6" d="M21.43,172.9c.67,1.84,1.36,3.29,1.71,3.18.35-.11.14-1.7-.36-3.6-.5-1.92-1.18-3.35-1.71-3.18-.53.16-.33,1.72.36,3.6Z"/>
          <path class="cls-6" d="M19.18,174.95c1.6,1.12,3.01,1.91,3.23,1.62.22-.29-.87-1.47-2.36-2.74-1.51-1.28-2.89-2.06-3.23-1.62-.34.44.72,1.59,2.36,2.74Z"/>
          <path class="cls-6" d="M18.59,177.99c1.95-.07,3.55-.28,3.56-.65,0-.36-1.58-.66-3.53-.77-1.98-.11-3.55.09-3.56.65,0,.55,1.53.84,3.53.77Z"/>
          <path class="cls-6" d="M20.05,180.88c1.47-1.28,2.58-2.45,2.36-2.74-.22-.29-1.64.48-3.23,1.62-1.61,1.16-2.7,2.3-2.36,2.74.34.44,1.72-.31,3.23-1.62Z"/>
          <path class="cls-6" d="M22.66,182.21c.49-1.89.74-3.48.4-3.59-.35-.11-1.08,1.33-1.75,3.17-.67,1.86-.92,3.43-.4,3.59.53.17,1.25-1.23,1.75-3.16Z"/>
          <path class="cls-6" d="M25.89,181.78c-.82-1.78-1.62-3.17-1.96-3.04-.34.13,0,1.71.64,3.56.65,1.87,1.45,3.24,1.96,3.04.52-.2.19-1.74-.64-3.56Z"/>
          <path class="cls-6" d="M27.91,179.8c-1.64-1.06-3.07-1.81-3.28-1.51-.21.29.92,1.44,2.45,2.66,1.55,1.23,2.96,1.96,3.28,1.51.33-.45-.77-1.57-2.45-2.66Z"/>
          <path class="cls-6" d="M28.58,176.94c-1.95.02-3.56.19-3.57.56s1.56.7,3.51.86c1.98.16,3.55,0,3.57-.56.02-.55-1.51-.88-3.51-.86Z"/>
          <path class="cls-6" d="M27.25,174.18c-1.57,1.16-2.77,2.24-2.57,2.54.2.3,1.67-.35,3.35-1.36,1.7-1.02,2.87-2.08,2.57-2.54-.31-.46-1.74.17-3.35,1.36Z"/>
          <path class="cls-6" d="M23.88,176.6c-.15-.07-.29-.13-.46-.1-.15.03-.3.11-.42.21-.29.24-.41.62-.27.97.16.4.6.63,1.03.58.18-.02.32-.12.43-.27.1-.13.2-.28.25-.44.06-.18.04-.4-.03-.57-.07-.18-.22-.27-.39-.34-.03-.01-.07,0-.14-.04Z"/>
        </g>
        <g>
          <path class="cls-1" d="M47.43,178.82c-.77-.3-1.06-1.73-.58-2.45.49-.74,1.49-1.28,2.23-2.41.65,1.22.8,2.33.56,3.33-.28,1.15-1.47,1.81-2.2,1.53Z"/>
          <path class="cls-1" d="M55.95,171.44c-.54-.63-1.66-.82-2.49-.54-1.07.36-1.67,1.58-2.91,2.38,1.28.52,2.92.54,3.91.28,1.27-.34,2.09-1.42,1.49-2.12Z"/>
          <path class="cls-1" d="M52.45,168.08c-.32-.76-1.49-1.07-2.55-.69-.84.3-1.55,1.12-2.35,2.28,1.28-.15,2.35.75,3.34.48,1.14-.31,1.86-1.35,1.56-2.08Z"/>
          <path class="cls-1" d="M41.88,174.57c-.57-.6-.25-1.7.52-2.34.87-.72,2.28-.79,3.54-1.56-.08,1.38-.77,2.86-1.44,3.65-.86,1-2.02.88-2.62.25Z"/>
          <path class="cls-1" d="M31.53,158.71c-.62-.65-.25-2.2.56-2.69.83-.5,2.07-.58,3.31-1.35.08,1.51-.29,2.68-.99,3.55-.81,1.01-2.29,1.11-2.88.49Z"/>
          <path class="cls-1" d="M43.36,155.35c-.24-.87-1.26-1.58-2.21-1.69-1.23-.14-2.38.79-3.98,1.01,1.03,1.11,2.63,1.89,3.74,2.08,1.41.25,2.72-.43,2.45-1.4Z"/>
          <path class="cls-1" d="M42.05,149.88c.02-.95-1.06-1.82-2.36-1.92-1.02-.07-2.16.44-3.54,1.29,1.41.44,2.12,1.89,3.29,2.08,1.34.21,2.59-.54,2.61-1.45Z"/>
          <path class="cls-1" d="M28.02,151.98c-.3-.84.51-1.79,1.55-2.08,1.18-.32,2.6.23,4.19.02-.69,1.33-2.03,2.49-3.04,2.96-1.29.61-2.39-.03-2.7-.91Z"/>
          <path class="cls-1" d="M37.82,169.49c-.48-.71-.07-2.17.64-2.56.73-.39,1.77-.33,2.86-.93-.03,1.48-.4,2.57-1.05,3.34-.74.89-1.99.82-2.45.15Z"/>
          <path class="cls-1" d="M47.89,164.04c-.59-.66-1.7-.93-2.48-.69-1.01.3-1.48,1.5-2.61,2.24,1.3.6,2.9.72,3.85.5,1.21-.27,1.9-1.31,1.25-2.05Z"/>
          <path class="cls-1" d="M44.38,158.07c-.61-.7-1.89-.77-2.8-.15-.72.49-1.12,1.46-1.48,2.82,1.21-.43,2.63.26,3.51-.23,1.02-.56,1.34-1.76.76-2.44Z"/>
          <path class="cls-1" d="M33.46,163.22c-.2-.91.59-1.8,1.54-1.98,1.08-.2,2.29.54,3.72.51-.72,1.3-2,2.35-2.94,2.73-1.19.48-2.12-.31-2.33-1.26Z"/>
        </g>
        <g>
          <path class="cls-1" d="M7.63,62.49c.17,1.44,2.48,2.57,3.92,2.07,1.48-.51,2.85-1.97,5.08-2.72-1.79-1.65-3.62-2.4-5.43-2.43-2.08-.03-3.74,1.69-3.58,3.08Z"/>
          <path class="cls-1" d="M24.82,54.54c.5,1.36-.16,3.26-1.29,4.29-1.47,1.34-3.86,1.22-6.15,2.44.29-2.42,1.66-4.95,2.92-6.25,1.61-1.66,3.96-2,4.53-.48Z"/>
          <path class="cls-1" d="M29.58,61.15c.9,1.14.37,3.21-1.13,4.51-1.18,1.02-3.04,1.43-5.52,1.67,1.33-1.83.86-4.25,2.12-5.55,1.45-1.49,3.66-1.71,4.52-.62Z"/>
          <path class="cls-1" d="M12.39,73.82c.76,1.24,2.78,1.18,4.21.15,1.61-1.17,2.36-3.53,4.23-5.34-2.39-.47-5.22.04-6.84.84-2.08,1.02-2.39,3.05-1.59,4.35Z"/>
          <path class="cls-1" d="M38.68,97.27c1.12,1.12,3.86.53,4.76-.87.92-1.43,1.11-3.61,2.52-5.76-2.65-.2-4.72.38-6.29,1.58-1.8,1.38-2.06,3.98-.99,5.05Z"/>
          <path class="cls-1" d="M45.12,76.62c1.52.46,2.73,2.29,2.87,3.95.19,2.16-1.49,4.15-1.95,6.96-1.91-1.85-3.2-4.71-3.5-6.66-.38-2.49.88-4.76,2.58-4.25Z"/>
          <path class="cls-1" d="M53.59,78.25c1.66-.18,3.35,1.6,3.71,3.85.28,1.78-.46,3.84-1.75,6.4-.97-2.41-3.62-3.44-4.12-5.46-.57-2.33.57-4.62,2.16-4.79Z"/>
          <path class="cls-1" d="M51.94,103.15c1.52.41,3.07-1.15,3.42-3.01.4-2.12-.78-4.53-.65-7.35-2.23,1.41-4.07,3.92-4.76,5.75-.88,2.34.4,4.18,1.99,4.61Z"/>
          <path class="cls-1" d="M19.15,82.09c.99,1.13,3.66,1.08,4.63.05.99-1.06,1.34-2.86,2.85-4.45-2.53-.61-4.56-.45-6.15.3-1.84.87-2.28,3.02-1.33,4.1Z"/>
          <path class="cls-1" d="M32.99,68.25c.87,1.29.82,3.31.08,4.53-.97,1.59-3.21,1.85-4.97,3.46-.45-2.49.06-5.26.84-6.77,1-1.93,3.07-2.66,4.04-1.22Z"/>
          <path class="cls-1" d="M39.49,74.06c1.06,1.24.82,3.49-.49,4.91-1.04,1.12-2.85,1.56-5.29,1.81,1.07-1.99.26-4.63,1.34-6.05,1.24-1.62,3.43-1.86,4.44-.67Z"/>
          <path class="cls-1" d="M29.48,93.13c1.53.59,3.29-.55,3.85-2.15.64-1.82-.32-4.13.12-6.61-2.45.91-4.62,2.85-5.53,4.37-1.15,1.94-.04,3.76,1.56,4.38Z"/>
          <path class="cls-1" d="M7.92,49.75c-1.08,1.23-.61,3.28.69,4.36,1.49,1.22,3.99,1.12,6.16,2.38,0-2.62-1.09-5.32-2.21-6.69-1.43-1.75-3.52-1.33-4.65-.04Z"/>
        </g>
        <g>
          <path class="cls-1" d="M15.31,235.76c-.67-1.37.17-3.8,1.58-4.14,1.35-.33,3.26,1.11,3.49,3.18.19,1.8-.33,3.7-1.75,5.68-1.02-2.13-2.63-3.31-3.32-4.71Z"/>
          <path class="cls-1" d="M25.85,243.27c1.84,1.4,2.47,3.69,1.02,4.44-1.29.67-3.25.24-4.41-.76-1.51-1.3-1.68-3.68-3.17-5.81,2.44,0,5.11,1.04,6.56,2.14Z"/>
          <path class="cls-1" d="M19.72,248.83c1.66,1.26,2.15,3.43,1.17,4.41-1.02,1.03-3.14.75-4.61-.57-1.16-1.05-1.79-2.85-2.32-5.28,1.98,1.1,4.33.34,5.77,1.43Z"/>
          <path class="cls-1" d="M6.59,241.91c-1.19-1.29-1.5-3.29-.36-4.19,1.19-.95,3.25-.88,4.51,1.05.99,1.52,1.84,4.26,1.66,6.69-2.02-1.64-4.46-2.09-5.81-3.55Z"/>
          <path class="cls-1" d="M7.43,270.54c-.28,1.56-1.94,2.98-3.58,3.33-1.22.26-2.46-.1-3.82-.48v-3.56c1-.63,2.02-1.1,2.87-1.34,2.43-.68,4.84.3,4.53,2.04Z"/>
          <path class="cls-1" d="M1.82,277.59c2.24-.85,4.65,0,5.01,1.56.38,1.63-1.18,3.52-3.37,4.15-1,.28-2.14.24-3.44-.04v-4.19c.52-.65,1.07-1.2,1.8-1.48Z"/>
          <path class="cls-1" d="M3.08,246.26c.94,1.49,1.35,3.49,1.05,6.07-1.46-1.08-2.96-1.36-4.1-1.91v-5.6c1.03-.19,2.3.25,3.05,1.44Z"/>
          <path class="cls-1" d="M5.73,253.61c2.41-.74,5.22-.57,6.82.02,2.04.75,3.01,2.72,1.7,3.86-1.18,1.02-3.19,1.22-4.49.63-1.69-.77-2.23-2.96-4.04-4.51Z"/>
          <path class="cls-1" d="M4.35,264.76c-1.23-.89-1.89-2.64-2.44-5.04,2.11.82,4.63-.3,6.16.6,1.76,1.04,2.27,3.18,1.21,4.33-1.11,1.21-3.37,1.24-4.93.11Z"/>
          <path class="cls-1" d="M25.34,231.57c.91-1.43,2.89-2.14,4.24-1.22,1.41.97,2.09,2.99.52,4.62-1.23,1.28-3.78,2.67-6.38,3,.99-2.31.58-4.78,1.61-6.41Z"/>
        </g>
        <g>
          <path class="cls-5" d="M72.47,2.81c1.75.27,3.56,1.33,4.47,2.28,1.17,1.21,1.36,2.94.23,3.31-1.01.33-2.37-.2-3.09-1.05-.94-1.11-.79-2.84-1.62-4.54ZM66.8,4.77c1.3,1.01,3.07.74,3.99,1.69,1.05,1.09,1.15,2.71.34,3.31-.85.63-2.34.19-3.25-.94-.72-.88-.96-2.25-1.07-4.06ZM58.88,6.12c1.83.2,3.66,1.13,4.55,1.99,1.14,1.1,1.22,2.69.01,3.07-1.08.34-2.48-.11-3.18-.88-.91-1-.63-2.62-1.39-4.18ZM51.87,7.62c-1.55-.98-3.37-.97-4.42-1.91-.92-.82-1.2-2.33-.38-3.19.86-.9,2.39-1.15,3.38.16.78,1.03,1.48,3.03,1.42,4.93ZM52.47,13.72c-.46-1.01-.26-2.35.24-4.07,1.05,1.27,3.05,1.46,3.7,2.58.75,1.29.31,2.83-.78,3.18-1.13.37-2.58-.41-3.17-1.69ZM45.49,14.37c1.86-.54,4.13-.33,5.48.19,1.71.66,2.7,2.28,1.76,3.16-.84.79-2.43.9-3.54.39-1.44-.66-2.09-2.44-3.7-3.74ZM40.78,19.65c1.84.45,3.57-.67,4.98-.1,1.62.66,2.49,2.3,1.91,3.31-.6,1.06-2.37,1.3-3.85.55-1.17-.59-2.07-1.91-3.03-3.76ZM41.97,6.21c1.07-.29,2.62.81,2.84,2.45.19,1.43-.18,2.95-1.26,4.55-.86-1.67-2.16-2.57-2.74-3.67-.56-1.08.05-3.02,1.17-3.33ZM33.67,11.27c.93-.76,2.56-.73,3.57.79.79,1.19,1.49,3.34,1.37,5.26-1.61-1.28-3.53-1.61-4.62-2.75-.95-1-1.21-2.58-.32-3.3Z"/>
          <path class="cls-1" d="M71.18,0h1.56c-.4.39-.87.75-1.43,1.09-.01-.38-.07-.74-.13-1.09Z"/>
          <path class="cls-1" d="M77.18,8.4c-1.01.33-2.37-.2-3.09-1.05-.94-1.11-.79-2.84-1.62-4.54,1.75.27,3.56,1.33,4.47,2.28,1.17,1.21,1.36,2.94.23,3.31Z"/>
          <path class="cls-1" d="M71.13,9.77c-.85.63-2.34.19-3.25-.94-.72-.88-.96-2.25-1.07-4.06,1.3,1.01,3.07.74,3.99,1.69,1.05,1.09,1.15,2.71.34,3.31Z"/>
          <path class="cls-1" d="M63.73,0h2.78c-.13.89-.39,1.82-.81,2.61-.54-1.05-1.33-1.84-1.96-2.61Z"/>
          <path class="cls-1" d="M41.52,6.32c1.03-.4,2.69.52,3.08,2.13.34,1.4.13,2.95-.78,4.66-1.03-1.57-2.43-2.33-3.11-3.36-.67-1.01-.27-3.01.81-3.43Z"/>
          <path class="cls-1" d="M36.75,26.45c-1.03-.4-1.62-2.21-.82-3.66.7-1.26,1.9-2.26,3.73-2.9-.31,1.85.2,3.35,0,4.58-.19,1.2-1.85,2.39-2.92,1.97Z"/>
          <path class="cls-1" d="M45.89,14.07c1.79-.73,4.08-.77,5.47-.39,1.77.48,2.92,1.98,2.08,2.96-.75.88-2.32,1.15-3.47.76-1.5-.51-2.34-2.21-4.07-3.33Z"/>
          <path class="cls-1" d="M46.65,18.11c1.71.35,2.86,1.81,2.48,2.91-.4,1.15-2.1,1.71-3.69,1.23-1.26-.37-2.38-1.5-3.66-3.15,1.89.11,3.39-1.31,4.88-1Z"/>
          <path class="cls-1" d="M37.27,12.84c1.14.85,2.52,2.65,3.05,4.5-1.94-.66-3.87-.33-5.27-1.04-1.23-.63-2.01-2.02-1.41-3,.62-1.03,2.16-1.54,3.63-.45Z"/>
          <path class="cls-1" d="M57.53,4.68c-.8-1.38-1.99-2-2.52-2.92-.26-.44-.26-1.13-.08-1.76h3.57c.03.1.07.2.08.32.2,1.27-.11,2.72-1.06,4.36Z"/>
          <path class="cls-1" d="M63.45,11.18c-1.08.34-2.48-.11-3.18-.88-.91-1-.63-2.62-1.39-4.18,1.83.2,3.66,1.13,4.55,1.99,1.14,1.1,1.22,2.69.01,3.07Z"/>
          <path class="cls-1" d="M54.8,13.66c-.84-.73-1.2-2.04-1.44-3.81,1.47.73,3.38.08,4.43.83,1.21.87,1.44,2.45.6,3.22-.88.8-2.52.68-3.58-.24Z"/>
          <path class="cls-1" d="M47.07,2.53c.86-.9,2.39-1.15,3.38.16.78,1.03,1.48,3.03,1.42,4.93-1.55-.98-3.37-.97-4.42-1.91-.92-.82-1.2-2.33-.38-3.19Z"/>
        </g>
        <g>
          <path class="cls-1" d="M102.61,225.57c-1.06.05-1.99,1.67-1.7,2.75.3,1.1,1.29,2.17,1.73,3.83,1.29-1.22,1.92-2.51,2.03-3.82.12-1.51-1.05-2.8-2.06-2.75Z"/>
          <path class="cls-1" d="M109.97,238c-.91.54-2.35.33-3.24-.35-1.16-.87-1.39-2.6-2.57-4.08,1.77-.12,3.76.52,4.86,1.25,1.4.93,1.97,2.57.95,3.18Z"/>
          <path class="cls-1" d="M104.36,240.66c-.7.8-2.25.69-3.38-.2-.89-.71-1.43-1.99-1.93-3.73,1.49.7,3.16.04,4.26.77,1.26.84,1.72,2.39,1.05,3.15Z"/>
          <path class="cls-1" d="M94.14,228.48c-.94.49-.99,1.97-.31,3.05.77,1.23,2.45,1.89,3.67,3.34.46-1.71.23-3.79-.27-5.01-.64-1.56-2.1-1.89-3.08-1.37Z"/>
          <path class="cls-1" d="M75.14,243.57c-1.02.54-1.19,2.57-.41,3.5.8.95,2.28,1.54,3.48,2.98.71-1.8.74-3.37.24-4.72-.58-1.55-2.33-2.28-3.31-1.76Z"/>
          <path class="cls-1" d="M88.15,252.45c-.65.96-2.18,1.41-3.36,1.16-1.55-.33-2.57-1.93-4.43-2.84,1.7-.93,3.96-1.23,5.38-1.02,1.82.27,3.13,1.63,2.41,2.7Z"/>
          <path class="cls-1" d="M84.34,258.57c-.36,1.16-2.03,1.79-3.64,1.38-1.27-.32-2.44-1.41-3.78-3,1.89.04,3.34-1.44,4.84-1.19,1.72.29,2.93,1.7,2.59,2.82Z"/>
          <path class="cls-1" d="M68.14,250.33c-.71.9-.11,2.38,1.04,3.15,1.3.87,3.26.78,5.11,1.67-.3-1.9-1.46-3.85-2.49-4.83-1.32-1.26-2.91-.93-3.65.01Z"/>
          <path class="cls-1" d="M87.15,233.01c-.87.66-.97,2.61-.26,3.36.72.77,2.02,1.12,3.1,2.29.57-1.81.55-3.29.08-4.49-.54-1.38-2.08-1.8-2.92-1.17Z"/>
          <path class="cls-1" d="M97.18,243.72c-.98.57-2.45.43-3.3-.16-1.11-.78-1.19-2.42-2.27-3.78,1.83-.2,3.82.3,4.88.95,1.36.82,1.78,2.36.69,3Z"/>
          <path class="cls-1" d="M90.49,249.55c-1.02.61-2.61.16-3.46-.95-.67-.88-.77-2.24-.65-4.02,1.3,1.01,3.29.75,4.18,1.7,1.01,1.09.92,2.69-.06,3.27Z"/>
          <path class="cls-1" d="M79.31,238.87c-.61,1.02,0,2.43,1.07,3.03,1.23.68,3.01.28,4.73.89-.35-1.87-1.48-3.67-2.46-4.5-1.25-1.07-2.7-.49-3.34.58Z"/>
        </g>
        <g>
          <path class="cls-3" d="M121.11,27.73c-2.74.7-7.11,2.46-9.09,5.26-1.98,2.8-2.07,4.67-2.2,6.71,2.71-1.94,5.21-2.34,7.6-4.4,2.21-1.91,4.01-6.16,4.2-7.03-2.22,1.24-4.62,2.93-5.77,4.06,1.23-1.88,3-3.27,5.26-4.59Z"/>
          <path class="cls-3" d="M126,12.17c-2.81,2.19-5.09,5.07-5.34,7.45-.25,2.38.47,3.81,1.31,5.51.03-1.93.49-3.84,1.2-5.44-.3,1.73-.48,3.85-.39,5.41,1.54-1.18,3.22-2.99,3.65-4.81.61-2.62-.64-5.39-.42-8.12Z"/>
          <path class="cls-3" d="M138.88,19.79c-3.34.4-6.5,1.61-7.68,3.39-1.18,1.79-1.14,3.28-1.09,5.05.81-1.53,1.98-2.84,3.24-3.78-.96,1.24-1.98,2.86-2.53,4.15,1.82-.2,4.02-.84,5.13-2.1,1.59-1.81,1.63-4.63,2.92-6.71Z"/>
          <path class="cls-3" d="M128.54,31.61c-2.23.84-4.3,2.3-5.21,4.12s-.77,4.26-.28,6.78c1.03-1.1,4.14-2.45,5.3-3.9,1.83-2.27,1.77-4.6,1.22-6.45-1.57,1.03-3.1,2.99-3.68,4.21.45-1.61,1.21-2.98,2.65-4.76Z"/>
          <path class="cls-3" d="M142.95,36.74c3.12-.76,7.36-.09,9.93,2.18,2.57,2.27,3.21,4.93,3.8,6.88-3.2-.73-5.96-.57-8.76-2.03-2.59-1.35-4.63-4.44-5.35-6.39,2.44.7,5.17,1.79,6.54,2.63-1.63-1.55-3.68-2.5-6.17-3.26Z"/>
          <path class="cls-3" d="M133.97,48.29c-.87-3.25-.93-6.63.28-8.39s2.62-2.28,4.28-2.89c-1.12,1.32-1.89,2.9-2.29,4.42.79-1.36,2.15-3.36,3.14-4.35.49,1.76.48,4.51-.27,6-1.08,2.15-3.69,3.24-5.14,5.21Z"/>
          <path class="cls-3" d="M138.62,33.18c.14-2.37.92-4.79,2.4-6.19,1.48-1.4,3.84-1.99,6.39-2.27-.75,1.31-1.12,4.67-2.16,6.22-1.63,2.42-3.87,3.05-5.8,3.07.52-1.8,1.94-3.84,2.94-4.76-1.4.91-2.49,2.03-3.76,3.93Z"/>
          <path class="cls-3" d="M100.55,35.25c.37-3.34,1.55-6.51,3.32-7.71,1.77-1.2,3.56-1.41,5.32-1.37-1.52.82-3.11,2.25-4.04,3.52,1.23-.97,3.47-2.42,4.76-2.99-.19,1.82-1.44,4.45-2.69,5.57-1.79,1.61-4.62,1.67-6.68,2.98Z"/>
          <path class="cls-3" d="M110.87,23.91c-1.15-2.08-1.79-4.54-1.29-6.51.49-1.98,2.18-3.74,4.18-5.35.07,1.51,1.56,4.55,1.51,6.41-.08,2.91-1.63,4.65-3.25,5.7-.53-1.8-.43-4.28-.07-5.59-.7,1.52-1.02,3.05-1.07,5.34Z"/>
        </g>
        <g>
          <path class="cls-3" d="M23.4,288.82c.19,2.6.66,4.81,1.81,6.74-.52-1.53-.97-4.43-1.11-6.96.7.56,3.73,4.04,4.47,6.86.2.75.3,1.47.35,2.17h-5.45c-.85-2.89-.56-6.51-.07-8.8Z"/>
          <path class="cls-3" d="M11.57,277.58c2.35,1.39,5.4,1.49,7.48,3.19,1.45,1.18,2.34,3.49,2.72,5.39-1.44-.6-3.27-1.7-4.69-2.73,1.12,1.34,2.64,2.59,4.36,3.47-1.89.01-3.5.03-5.52-1.25-2.03-1.27-3.61-4.59-4.34-8.07Z"/>
          <path class="cls-3" d="M28.82,274.94c.64,1.54.25,3.81-.37,5.53-.92-1.06-1.92-2.68-2.61-4.09.29,1.55.95,3.18,1.97,4.58-1.61-.73-2.97-1.35-4.05-3.19s-.78-5.21.33-8.39c1.3,2.07,3.82,3.35,4.75,5.57Z"/>
          <path class="cls-3" d="M33.25,288.32c-.84-1.06-1.93-3.3-2.16-5.16,1.9.32,4.02,1.29,5.26,3.93.79,1.69.63,5.07,1.17,6.48-2.48-.67-4.73-1.62-5.97-3.24-1.24-1.62-1.64-4.12-1.41-6.49.96,2.08,1.86,3.36,3.11,4.47Z"/>
          <path class="cls-3" d="M41.49,273.78c1.7-1.89,3.88-3.86,5.24-4.72-2.11.78-3.86,2.2-5.64,4.11.68-3.14,3.15-6.65,6.32-7.97,3.17-1.31,5.84-.71,7.85-.39-2.06,2.55-3.13,5.1-5.68,6.98-2.35,1.73-6.02,2.2-8.09,2Z"/>
          <path class="cls-3" d="M42.35,281.25c-.87-1.31-2.07-3.41-2.53-4.74,1.8.33,4.26,1.55,5.27,2.88,1.46,1.92,1.29,4.74,2.42,6.9-3.3-.64-6.36-2.07-7.41-3.94-1.05-1.87-.9-3.35-.72-5.11.69,1.59,1.77,2.97,2.96,4Z"/>
          <path class="cls-3" d="M34.11,270.37c.2,1.66.73,3.13,1.88,5.11-2.07-1.17-3.89-2.93-4.51-4.88-.61-1.94-.1-4.33.77-6.74.84,1.25,3.71,3.06,4.64,4.68,1.45,2.52,1.04,4.82.21,6.56-1.39-1.26-2.6-3.43-2.99-4.73Z"/>
          <path class="cls-3" d="M16.19,295.43c-1.85-.32-4.04-1.5-5.06-2.39,1.06,1.29,2.3,2.25,4.33,3.31-2.38.12-4.86-.39-6.42-1.7s-2.4-3.6-2.97-6.1c1.38.6,4.77.6,6.42,1.46,2.58,1.35,3.46,3.51,3.69,5.43Z"/>
        </g>
        <g>
          <path class="cls-1" d="M154.77,11.27c1.57,1.45,2.36,3,2.5,4.58.17,1.82-1.22,3.39-2.44,3.35-1.28-.05-2.43-1.99-2.09-3.29.34-1.33,1.52-2.63,2.03-4.64Z"/>
          <path class="cls-1" d="M159.61,4.56c1.06-.82,2.8-1.11,3.9-.47,1.23.72.58,2.7-1.1,3.84-1.31.89-3.71,1.69-5.85,1.58,1.41-1.8,1.66-3.88,3.04-4.96Z"/>
          <path class="cls-1" d="M152.64,1.27c1.35-1.1,3.22-1.24,4.07-.29.82.91.29,2.79-1.22,3.82-1.31.9-3.34.12-5.12,1,.58-2.1,1.21-3.66,2.28-4.52Z"/>
          <path class="cls-1" d="M148.53,8.06c.58,2.06.33,4.57-.25,6.05-.74,1.89-2.51,2.3-3.7,1.7-1.14-.58-1.23-2.36-.43-3.67.91-1.49,2.93-2.31,4.38-4.08Z"/>
          <path class="cls-1" d="M139.41,3.59c.71,2.17.71,3.96.16,5.41-.63,1.67-2.48,2.21-3.5,1.45-1.06-.79-1.21-3.13-.37-4.05.86-.94,2.41-1.38,3.7-2.81Z"/>
          <path class="cls-1" d="M147.23,1.01c-1.27.79-3.66,1.43-5.87,1.21.56-.72.89-1.5,1.19-2.23h5.75c-.26.38-.62.73-1.07,1.01Z"/>
          <path class="cls-1" d="M130.56,4.17c-1.5,1.3-3.24.63-4.03-.65-.71-1.15-.12-2.72,1.03-3.52h5.56c-.58,1.77-1.62,3.35-2.57,4.17Z"/>
        </g>
        <g>
          <path class="cls-1" d="M125.03,287.66c.88,2.16.94,4.05.36,5.69-.67,1.88-2.78,2.79-3.96,2.18-1.24-.64-1.48-3.09-.54-4.22.95-1.15,2.72-1.9,4.15-3.65Z"/>
          <path class="cls-1" d="M134.12,287.91c-1.71.28-4.45-.04-6.51-1.14,2.22-1.13,3.44-3.07,5.3-3.49,1.43-.32,3.28.2,4.07,1.34.89,1.28-.68,2.94-2.86,3.29Z"/>
          <path class="cls-1" d="M129.23,280.74c-1.8.32-3.57-1.44-5.85-1.36,1.6-1.94,2.99-3.27,4.52-3.68,1.93-.52,3.96.21,4.41,1.61.43,1.34-1.01,3.06-3.08,3.43Z"/>
          <path class="cls-1" d="M112.89,287.49c-.87-1.08-.17-2.87,1.2-3.82,1.56-1.07,3.92-.99,6.13-2.09-.34,2.29-1.7,4.66-2.93,5.87-1.57,1.54-3.5,1.17-4.41.04Z"/>
          <path class="cls-1" d="M144.04,295.26c1.02-.73,2.78-.92,3.97-.25.96.54.96,1.65.29,2.61h-5.75c.39-.95.74-1.82,1.49-2.36Z"/>
          <path class="cls-1" d="M134.96,294.15c-.17-2.15-.07-3.79.73-4.86,1.01-1.36,2.92-1.92,4.16-1.2,1.19.69,1.33,2.61.12,3.95-1.05,1.16-3.46.87-5.01,2.12Z"/>
          <path class="cls-1" d="M127.78,297.47c1.47-.84,3.62-.38,5.69-1.15-.08.44-.2.87-.34,1.3h-5.56c.07-.05.14-.11.21-.15Z"/>
        </g>
        <g>
          <path class="cls-1" d="M70.46,294.6c-.05-1.11,1.22-2.49,2.26-2.31,1,.17,1.86,1.69,1.41,3.13-.25.8-.7,1.54-1.39,2.2h-1.56c-.23-1.19-.68-2.14-.72-3.03Z"/>
          <path class="cls-1" d="M62.85,296.18c-.42-1.2-.05-2.63.97-2.91,1.07-.29,2.43.35,2.71,2.01.11.64.11,1.47-.02,2.34h-2.78c-.38-.47-.71-.93-.89-1.45Z"/>
          <path class="cls-1" d="M56,296.16c.88-.4,2.14.22,2.5,1.46h-3.57c.19-.64.57-1.23,1.07-1.46Z"/>
        </g>
        <g>
          <path class="cls-3" d="M145.89,86.02c3.33-.82,7.79.71,10.31,1.98-2.56-.48-4.82-.59-6.98.03,1.61-.11,4.53.19,7.02.71-.72.53-4.86,2.57-7.78,2.56-3.16,0-5.31-1.34-8.63-1.65,1.43-1.45,2.73-2.81,6.06-3.62Z"/>
          <path class="cls-3" d="M165.1,85.86c-1.51,1.1-3.97,1.37-5.91,1.25.95-1.24,2.48-2.72,3.84-3.83-1.58.74-3.18,1.89-4.47,3.32.47-1.83.87-3.39,2.62-5.02,1.47-1.37,4.26-2.06,7.22-2.14v2.21c-.99,1.54-1.86,3.17-3.31,4.22Z"/>
          <path class="cls-3" d="M168.23,96.8c-1.66.22-3.74-.74-5.25-1.78,1.26-.61,3.09-1.17,4.63-1.48-1.57-.12-3.31.1-4.93.73,1.12-1.37,2.06-2.53,4.13-3.1.48-.13,1.02-.16,1.6-.12v5.71c-.06.01-.11.03-.17.04Z"/>
          <path class="cls-3" d="M152.64,95.49c1.88-.78,4.4-.53,6.63.3-2.25.4-3.72.94-5.12,1.86,1.24-.54,3.68-1.02,5.54-.77-.79,1.76-2.28,3.56-5.15,4.07-1.83.33-5.06-.69-6.56-.53,1.29-2.22,2.78-4.15,4.66-4.94Z"/>
          <path class="cls-3" d="M166.8,109.11c.54.28,1.08.64,1.6,1.04v1.97c-.42-.99-.96-1.99-1.6-3.01Z"/>
          <path class="cls-3" d="M168.41,113.4v8.13c-.97-1.15-1.85-2.34-2.44-3.86-1.07-2.72-.59-6.38.15-8.33.84,1.29,1.67,2.76,2.3,4.06Z"/>
          <path class="cls-3" d="M158.16,105.8c2.07-.54,3.47,0,5.12.62-1.71.26-3.33.95-4.63,1.84,1.49-.51,3.83-1.13,5.23-1.23-.78,1.65-2.59,3.72-4.14,4.36-2.23.92-4.91.03-7.29.57,1.47-3.03,3.63-5.62,5.71-6.15Z"/>
          <path class="cls-3" d="M165.95,104.75c.71-.46,1.58-.83,2.45-1.11v2.51c-.96-.32-1.78-.83-2.45-1.41Z"/>
          <path class="cls-3" d="M165.87,103.58c.76-.78,1.63-1.46,2.54-2v1.48c-.77.09-1.59.26-2.54.52Z"/>
          <path class="cls-3" d="M142.74,82.34c-2.41.04-4.58-1.76-7-2.13,2.47-2.28,5.43-3.9,7.56-3.65,2.13.26,3.61,1.27,4.92,2.45-1.69-.38-3.82-.34-5.36.01,1.57.07,4.21.44,5.55.86-1.33,1.25-4.01,2.42-5.68,2.45Z"/>
          <path class="cls-3" d="M151.67,79.34c.78-1.7,2.49-3.52,3.61-4.28-1.52.69-2.77,1.64-4.3,3.34.49-2.33,1.62-4.6,3.29-5.77,1.67-1.17,4.1-1.4,6.66-1.3-.94,1.18-1.8,4.46-3.06,5.83-1.97,2.15-4.28,2.44-6.19,2.18Z"/>
        </g>
        <g>
          <path class="cls-7" d="M166.35,159.36c.63.28,1.33.52,2.05.7v1.44c-.63.12-1.32.16-2.13.07-2.1-.24-4.64-2.27-6.56-4.77,2.41.2,4.87-.88,7.19-.33.51.12,1.02.36,1.51.67v2.48c-.7-.07-1.41-.16-2.05-.27Z"/>
          <path class="cls-7" d="M167.49,143.94c.28.23.6.42.92.6v4.66c-.61-1.43-.92-3.33-.92-5.26Z"/>
          <path class="cls-7" d="M164.96,167.07c1.42-.05,2.54.32,3.44.89v2.07c-1.18.15-2.39.12-3.16-.03.98.38,1.96.58,3.16.64v.86c-1.37.59-2.81.88-4.07.65-1.77-.33-3.42-1.72-4.95-3.4,1.33-.14,3.93-1.63,5.58-1.68Z"/>
        </g>
        <g>
          <path class="cls-7" d="M0,220.34s.02,0,.03,0H.03s-.02,0-.03,0Z"/>
          <path class="cls-7" d="M27.66,192.42c1.36,1.51,2.64,2.89,3.26,6.26.62,3.37-1.17,7.73-2.58,10.18.63-2.53.88-4.78.38-6.97.01,1.61-.46,4.51-1.12,6.96-.49-.75-2.28-5-2.1-7.92.19-3.15,1.65-5.22,2.16-8.52Z"/>
          <path class="cls-7" d="M32.66,215.95c-.65-1.62-1.69-3.29-3.05-4.65,1.8.58,3.33,1.07,4.86,2.91,1.53,1.84,1.99,5.49,1.6,9.03-1.8-2.06-4.66-3.1-6.11-5.37-1.01-1.57-1.13-4.05-.9-5.97,1.18,1.02,2.57,2.63,3.6,4.06Z"/>
          <path class="cls-7" d="M22.14,219.92c.21-1.56.09-3.31-.44-4.96,1.3,1.2,2.4,2.21,2.85,4.3.45,2.09-.89,5.19-2.93,7.86-.59-2.38-2.59-4.37-2.77-6.77-.13-1.67.96-3.69,2.08-5.14.54,1.3.99,3.15,1.2,4.71Z"/>
          <path class="cls-7" d="M21.07,204.87c.67,1.92.27,4.43-.69,6.6-.26-2.27-.72-3.77-1.55-5.22.47,1.27.8,3.74.44,5.58-1.71-.9-3.42-2.49-3.76-5.38-.22-1.85.98-5.01.91-6.52,2.14,1.41,3.98,3.02,4.65,4.94Z"/>
          <path class="cls-7" d="M6.64,218.2c-1.33,2.25-3.87,4.36-6.62,5.2v-3.07c2.24-.08,4.34-.89,6.62-2.13Z"/>
          <path class="cls-7" d="M6.45,217.49c-2.19,1.25-4.86,2.44-6.42,2.84v-3.84c2.37-.22,4.93.34,6.42,1Z"/>
          <path class="cls-7" d="M4.79,211.03c-.79-2.28.26-4.9-.14-7.32,2.93,1.64,5.39,3.96,5.81,6.06.41,2.1-.2,3.47-.92,5.08-.16-1.72-.75-3.38-1.56-4.73.42,1.51.9,3.89.92,5.29-1.61-.88-3.56-2.8-4.11-4.38Z"/>
          <path class="cls-7" d="M12.4,223.04c.33-1.64.29-3.2-.19-5.44,1.6,1.76,2.78,4,2.75,6.04-.03,2.04-1.26,4.14-2.84,6.16-.41-1.45-2.56-4.07-2.94-5.89-.59-2.85.52-4.9,1.86-6.3.92,1.63,1.4,4.07,1.36,5.43Z"/>
          <path class="cls-7" d="M37.32,188.9c2.13,2.6,3.58,5.65,3.19,7.76s-1.48,3.53-2.74,4.77c.48-1.66.56-3.8.3-5.35-.16,1.56-.69,4.18-1.19,5.49-1.17-1.4-2.18-4.14-2.11-5.81.1-2.4,2.03-4.47,2.54-6.86Z"/>
          <path class="cls-7" d="M41.31,208.69c-.6-1.56-1.48-2.86-3.08-4.49,2.29.63,4.49,1.89,5.56,3.62,1.07,1.73,1.16,4.17.91,6.72-1.13-1-4.34-2.06-5.64-3.4-2.03-2.09-2.19-4.42-1.81-6.31,1.65.88,3.36,2.69,4.06,3.85Z"/>
        </g>
        <path class="cls-7" d="M166.52,216.86c.6-.2,1.24-.3,1.89-.37v3.84s-.02,0-.03,0c0,0,.02,0,.03,0v3.07c-.62.19-1.25.34-1.88.39-3.42.26-5.77-1.15-7.58-2.08,2.76-1.78,4.57-3.87,7.57-4.85Z"/>
        <g>
          <path class="cls-1" d="M154.52,266.66c.94-1.2,3.54-1.25,5.13.37,1.38,1.41,2.22,3.4,2.34,6.05-2.31-1.13-4.49-1.06-6.03-1.8-1.5-.73-2.42-3.37-1.44-4.62Z"/>
          <path class="cls-1" d="M165.09,272.78c.88-1.16,2.09-2.17,3.32-2.94v3.56c-1.02-.28-2.1-.57-3.32-.61Z"/>
          <path class="cls-1" d="M165.28,282.34c1.43-.79,2.24-2.17,3.12-3.27v4.19c-.95-.2-1.99-.51-3.12-.92Z"/>
          <path class="cls-1" d="M154.63,278c1.91.46,4.62,1.98,6.29,4.02-2.81.21-5.06,1.67-7.21,1.53-1.9-.12-3.63-1.47-3.41-3.03.23-1.63,1.9-3.12,4.33-2.53Z"/>
          <path class="cls-1" d="M167.74,250.04c-1.15-.84-1.52-3.48-.52-4.6.3-.33.72-.53,1.18-.61v5.6c-.24-.11-.46-.24-.67-.38Z"/>
          <path class="cls-1" d="M160.11,260.59c-1.66-.36-3-1.98-2.6-3.56.42-1.66,2.09-2.99,4.16-2.08,1.62.71,3.81,2.63,5.01,4.96-2.51-.13-4.69,1.1-6.57.69Z"/>
        </g>
        <g>
          <path class="cls-3" d="M29.19,6.6c-1.77-1.01-3.41-1.91-5.06-4.93-.28-.51-.48-1.08-.66-1.67h5.45c.16,2.14-.15,4.12.26,6.6Z"/>
          <path class="cls-3" d="M18.15,6.38c-.33-1.53-.65-4.19-.59-5.59,1.55.97,3.37,3.25,3.82,4.86.66,2.32-.53,4.88-.27,7.31-2.84-1.8-5.17-4.25-5.46-6.37-.3-2.12.3-3.82,1.11-5.39.07,1.73.65,3.78,1.39,5.17Z"/>
        </g>
        <g>
          <path class="cls-4" d="M.58,189.81c1.27-.25,2.72-.36,3.48-.37,1.06,0,1.44.84.25,1.43-1.2.59-2.38,1.04-3.67,1.38-.16.04-.37.09-.61.14v-2.45c.21-.06.4-.1.55-.13Z"/>
          <path class="cls-4" d="M1.59,199.55c.25,1.29-.61,1.92-1.56,1.05v-3.93c.69.69,1.34,1.69,1.56,2.87Z"/>
          <path class="cls-4" d="M2.12,183.76c.82-.28,1.64.47.89,1.24-.89.92-1.76,1.93-2.74,2.68-.07.06-.16.12-.24.18v-3.05c.52-.38,1.16-.73,2.09-1.05Z"/>
          <path class="cls-4" d="M1.92,193.75c.9.26,2.07,1.08,2.01,1.85-.05.65-1.58.87-2.74.39-.43-.18-.8-.44-1.17-.72v-1.59c.7-.07,1.38-.08,1.89.06Z"/>
        </g>
        <g>
          <path class="cls-6" d="M102.25,294.32c1.63-1.4,2.56-1.01,1.27.68-.48.64-1.07,1.59-1.65,2.62h-2.29c.54-.96,1.32-2.15,2.67-3.31Z"/>
          <path class="cls-6" d="M93.74,295.5c.51-1.09,1.71-1.17,1.57-.33-.11.65-.15,1.5-.1,2.45h-2.07c.09-.72.29-1.47.59-2.12Z"/>
          <path class="cls-6" d="M103.97,297.41c.62-.65,1.37-1.26,2.8-1.97.82-.41,1.71,0,.99.77-.43.47-.85.95-1.29,1.42h-2.69c.07-.07.13-.15.2-.22Z"/>
          <path class="cls-6" d="M96.61,297.24c.17-.94.94-1.87,1.51-1.91.57-.04.79.7.73,1.57-.01.19-.08.44-.17.72h-2.11c0-.14.02-.27.04-.38Z"/>
        </g>
      </g>
    </g>
  </g>
</svg>