<?xml version="1.0" encoding="UTF-8"?>
<svg id="Layer_2" data-name="Layer 2" xmlns="http://www.w3.org/2000/svg" viewBox="0 0 168.38 297.63">
  <defs>
    <style>
      .cls-1 {
        fill: #e3eaef;
      }

      .cls-2 {
        fill: #d1cbdd;
      }

      .cls-3 {
        fill: #b8c1cf;
      }

      .cls-4 {
        fill: #fcfcfc;
      }

      .cls-5 {
        fill: #d2d1da;
      }
    </style>
  </defs>
  <g id="Seamless_Floral_Pattern_2" data-name="Seamless Floral Pattern 2">
    <g>
      <rect class="cls-1" width="168.38" height="297.62" transform="translate(168.38 297.62) rotate(180)"/>
      <g>
        <g>
          <path class="cls-4" d="M67.98,159.66c2.79,1.69,10.43,6.19,13.33,8.55,2.84,2.31,4.43,1.6,2.52-.87-2.29-2.96-5.61-4.79-7.49-5.94s-5.73-2.87-8.04-3.59c-1.81-.57-3.48-.06-.31,1.85Z"/>
          <path class="cls-4" d="M68.48,156.45c2.89.36,8.9.82,12.95,1.75,2.33.53,4.31,1.12,5.75,1.64,1.8.64,2.55-.61.46-1.78-2.49-1.4-6.14-2.58-8.69-2.96-2.11-.31-8.01-.6-10.24-.17-1.76.34-1.81,1.32-.24,1.51Z"/>
          <path class="cls-4" d="M67.61,153.65c2.28-.28,4.49-1.21,6.11-2.18,1.71-1.02,2.78-2.25,3.56-3.34.97-1.36-.48-2.64-1.65-1.78-1.44,1.05-4.38,2.9-5.97,3.69-1.39.7-2.6,1.46-3.54,2.26-1.07.9.22,1.51,1.49,1.35Z"/>
          <path class="cls-4" d="M64.98,159.3c1.03,1.59,2.17,6.17,2.28,7.66.12,1.58-.07,3.33-.26,4.21-.27,1.24-1.92,1.35-2.67-.29-.75-1.64-1.26-3.2-1.52-4.84-.24-1.53-.44-5.73-.26-6.76.18-1.02,1.55-1.34,2.44.02Z"/>
          <path class="cls-4" d="M60.75,158.16c-.49,1.48-2.5,3.69-4.88,4.94-1.4.74-3.85,1.34-6.61,1.08-2.49-.24-3.42-1.59-1.34-2.33,3.19-1.14,5.82-2.37,8.19-3.58.95-.49,1.93-1.17,2.68-1.62.93-.57,2.34.33,1.95,1.52Z"/>
          <path class="cls-4" d="M57.64,154.97c-1.46.39-2.77.55-5.44.29-2.53-.25-5.42-.95-7.26-2.09-1.56-.96-.65-1.9,1.73-1.76,2.6.15,4.19.39,6.01.7,2.4.4,4.08.7,5.47,1.06,1.38.35,1.06,1.39-.52,1.81Z"/>
          <path class="cls-4" d="M64.72,151.33c1.86-1.58,1.89-3.59,1.77-5.07-.1-1.31-.97-3.23-2.98-4.74-1.48-1.12-3.44-.69-2.65.89.56,1.13,1.57,3.37,1.83,4.68.21,1.06.13,2.93,0,3.71-.13.78,1.31,1.14,2.02.53Z"/>
          <path class="cls-4" d="M60.77,150.97c-.36-1.51-1.59-2.96-3.37-4.52-1.21-1.06-3.04-2.16-4.23-2.65-1.78-.73-3.32-.58-2.27.76.99,1.27,1.79,1.96,3.66,3.66,1.87,1.7,3.74,3.01,4.52,3.48.78.47,1.91.17,1.7-.74Z"/>
          <path class="cls-4" d="M67.99,161.6c2.48,1.35,5.92,3.96,7.55,5.62,1,1.02,1.8,2.13,2.32,4,.3,1.07-1.3,1.72-2.5.54-1.43-1.41-3.04-2.84-4.15-4.3-.97-1.26-2.39-3.66-3.21-5.86Z"/>
          <path class="cls-4" d="M72.41,158.29c2.36,1.16,6.2,3.48,8.16,4.08,1.93.59,3.75.81,4.11.21.36-.6-1.17-1.94-3.16-2.67-1.77-.65-6.57-1.76-9.12-1.62Z"/>
          <path class="cls-4" d="M73.33,153.53c2.07-.08,7.62-.16,9.53-1.26,1.83-1.06.76-2.39-1.45-2.34-2.86.07-6.05,2.56-8.08,3.59Z"/>
          <path class="cls-4" d="M68.1,149c2.12-1.25,3.47-2.8,3.86-4.05.6-1.92-1.59-3.36-2.45-2.29-1.22,1.52-.53,4.29-1.41,6.34Z"/>
          <path class="cls-4" d="M60.3,162.36c.1,1.35.23,3.5-.57,4.56-.72.95-2.51,1.98-3.9,1.6-1.17-.32-1.17-2.2.01-3.36,1.18-1.16,3.26-1.61,4.46-2.81Z"/>
          <path class="cls-4" d="M54.78,157.03c-.79.34-3.82,1.74-5.61,1.77-3.54.05-4.99-2-2.11-2.37,2.88-.37,5.62.86,7.72.6Z"/>
          <path class="cls-4" d="M55.17,150.88c-2.23-.44-6.66-1.67-8.08-2.54-1.85-1.13-1.65-2.92,1.3-1.97,2.95.95,5.38,3.56,6.78,4.51Z"/>
          <path class="cls-4" d="M60.84,147.82c.05-1.52-.48-3.32-1.7-4.34-1.21-1.02-2.62-.91-1.97.47.6,1.28,2.25,2.33,3.67,3.88Z"/>
        </g>
        <path class="cls-4" d="M63.05,153.24c-1.3-.11-2.26.65-2.15,1.69.11,1.04,1.24,1.96,2.54,2.07,1.3.11,2.26-.65,2.16-1.69-.11-1.04-1.24-1.96-2.54-2.07Z"/>
      </g>
      <g>
        <g>
          <path class="cls-5" d="M86.31,115.5c2.63-.99,9.77-3.76,12.92-4.46,3.08-.69,3.46-2.15.75-2.17-3.23-.03-6.25,1.24-8.03,1.9-1.78.66-5.01,2.35-6.74,3.53-1.35.92-1.9,2.32,1.09,1.2Z"/>
          <path class="cls-5" d="M84.4,113.44c1.79-1.76,5.32-5.59,8.11-7.84,1.61-1.29,3.06-2.32,4.19-3.02,1.4-.88.95-2.05-.96-1.26-2.28.94-5.03,2.78-6.65,4.31-1.34,1.27-4.69,5.11-5.59,6.85-.71,1.38-.08,1.93.9.97Z"/>
          <path class="cls-5" d="M82.04,112.54c1.03-1.69,1.58-3.69,1.79-5.31.22-1.71-.04-3.09-.36-4.2-.41-1.38-2.04-1.09-2.09.16-.05,1.54-.38,4.52-.69,6.02-.27,1.32-.4,2.55-.36,3.61.04,1.21,1.14.66,1.72-.29Z"/>
          <path class="cls-5" d="M84.46,117.34c1.63.15,5.35,1.83,6.41,2.55,1.14.77,2.22,1.82,2.72,2.43.7.85-.11,2.02-1.63,1.65-1.51-.37-2.84-.86-4.1-1.56-1.16-.65-4.12-2.77-4.72-3.43-.6-.67-.08-1.77,1.32-1.64Z"/>
          <path class="cls-5" d="M81.43,119.59c.74,1.12,1.16,3.66.74,5.95-.25,1.35-1.15,3.33-2.8,5.05-1.49,1.56-2.9,1.47-2.29-.34.93-2.77,1.51-5.21,1.95-7.47.18-.9.24-1.93.33-2.68.11-.93,1.48-1.41,2.07-.51Z"/>
          <path class="cls-5" d="M77.6,119.99c-.52,1.2-1.11,2.17-2.71,3.84-1.52,1.58-3.54,3.16-5.3,3.8-1.49.54-1.63-.57-.27-2.11,1.49-1.69,2.51-2.63,3.68-3.7,1.55-1.41,2.66-2.39,3.64-3.15.97-.75,1.51.02.95,1.32Z"/>
          <path class="cls-5" d="M78.92,113.25c-.08-2.1-1.42-3.2-2.49-3.91-.95-.63-2.71-1.07-4.81-.52-1.55.41-2.31,1.96-.81,2.28,1.06.22,3.12.74,4.15,1.26.83.42,2.06,1.48,2.51,1.98s1.47-.28,1.44-1.09Z"/>
          <path class="cls-5" d="M76.57,115.73c-1.21-.57-2.86-.5-4.87-.13-1.36.25-3.09.91-4.06,1.45-1.45.82-2.17,1.94-.7,1.95,1.39,0,2.29-.17,4.44-.52s4.04-.92,4.78-1.2c.74-.28,1.14-1.2.41-1.55Z"/>
          <path class="cls-5" d="M87.64,116.53c2.24-.96,5.85-1.89,7.84-2.11,1.23-.13,2.41-.08,3.95.57.89.37.47,1.8-.97,1.98-1.72.22-3.55.54-5.13.52-1.37-.02-3.76-.34-5.69-.95Z"/>
          <path class="cls-5" d="M87.75,111.76c2.04-.98,5.67-2.34,7.13-3.35,1.44-.99,2.56-2.11,2.34-2.67-.22-.56-1.94-.24-3.49.71-1.39.85-4.71,3.51-5.98,5.31Z"/>
          <path class="cls-5" d="M85.01,108.59c1.06-1.45,3.97-5.25,4.24-7.13.27-1.81-1.22-1.79-2.36-.27-1.48,1.98-1.5,5.47-1.89,7.4Z"/>
          <path class="cls-5" d="M79.15,109.71c.29-2.11-.04-3.85-.68-4.78-.98-1.44-3.13-.72-2.86.44.38,1.64,2.62,2.65,3.54,4.35Z"/>
          <path class="cls-5" d="M84.03,122.14c.97.66,2.49,1.72,2.79,2.82.26.99,0,2.76-1,3.5-.84.62-2.12-.39-2.27-1.8-.15-1.42.65-3.07.48-4.52Z"/>
          <path class="cls-5" d="M77.47,123.03c-.19.72-.86,3.52-1.8,4.75-1.86,2.42-4.02,2.31-2.73.16,1.29-2.15,3.59-3.35,4.54-4.91Z"/>
          <path class="cls-5" d="M73.51,119.48c-1.49,1.27-4.69,3.62-6.04,4.12-1.76.65-2.86-.44-.64-1.94,2.22-1.49,5.29-1.74,6.68-2.18Z"/>
          <path class="cls-5" d="M74.47,114c-1-.85-2.51-1.45-3.85-1.17s-2.02,1.29-.74,1.59c1.19.27,2.78-.28,4.59-.41Z"/>
        </g>
        <path class="cls-5" d="M79.32,115.41c-.76.82-.77,1.88,0,2.36.76.48,1.99.21,2.76-.61.76-.82.77-1.88,0-2.36s-1.99-.21-2.76.61Z"/>
      </g>
      <g>
        <g>
          <path class="cls-5" d="M144.96,162.43c-2.45-1.5-9.18-5.49-11.73-7.58-2.49-2.04-3.9-1.43-2.22.76,2.01,2.61,4.94,4.24,6.59,5.26,1.65,1.02,5.05,2.55,7.08,3.19,1.59.51,3.07.06.28-1.63Z"/>
          <path class="cls-5" d="M144.51,165.26c-2.54-.33-7.84-.75-11.42-1.58-2.05-.48-3.8-1-5.07-1.46-1.58-.57-2.25.53-.41,1.56,2.19,1.24,5.4,2.3,7.66,2.64,1.86.28,7.06.55,9.03.18,1.55-.3,1.6-1.15.21-1.33Z"/>
          <path class="cls-5" d="M145.26,167.73c-2.01.24-3.96,1.05-5.4,1.9-1.51.89-2.46,1.98-3.15,2.93-.86,1.2.41,2.33,1.45,1.58,1.27-.92,3.88-2.54,5.28-3.24,1.23-.61,2.3-1.28,3.13-1.98.95-.79-.19-1.33-1.31-1.2Z"/>
          <path class="cls-5" d="M147.6,162.76c-.9-1.4-1.9-5.45-1.99-6.76-.1-1.4.07-2.93.24-3.71.24-1.09,1.69-1.18,2.35.27.66,1.45,1.1,2.83,1.33,4.28.21,1.35.37,5.06.21,5.96-.16.9-1.37,1.18-2.15-.03Z"/>
          <path class="cls-5" d="M151.32,163.77c.44-1.31,2.21-3.24,4.31-4.34,1.24-.65,3.4-1.17,5.83-.93,2.19.22,3.01,1.41,1.17,2.06-2.81,1-5.14,2.07-7.23,3.13-.84.43-1.71,1.02-2.36,1.42-.82.5-2.06-.3-1.72-1.34Z"/>
          <path class="cls-5" d="M154.06,166.6c1.29-.34,2.44-.48,4.8-.24,2.23.23,4.77.86,6.39,1.86,1.37.86.57,1.67-1.53,1.55-2.3-.14-3.7-.36-5.29-.63-2.11-.36-3.59-.63-4.82-.95-1.21-.31-.93-1.23.46-1.59Z"/>
          <path class="cls-5" d="M147.8,169.79c-1.64,1.39-1.68,3.16-1.58,4.46.09,1.16.85,2.85,2.61,4.19,1.3.99,3.03.62,2.34-.78-.49-1-1.37-2.97-1.6-4.13-.19-.93-.11-2.58.01-3.27.12-.69-1.15-1.01-1.78-.47Z"/>
          <path class="cls-5" d="M151.28,170.11c.31,1.33,1.4,2.61,2.96,3.99,1.06.94,2.68,1.91,3.72,2.35,1.57.65,2.93.52,2.01-.66-.87-1.12-1.58-1.74-3.22-3.24-1.64-1.5-3.29-2.67-3.97-3.08-.69-.42-1.69-.16-1.5.65Z"/>
          <path class="cls-5" d="M144.95,160.72c-2.18-1.2-5.21-3.51-6.64-4.98-.88-.9-1.58-1.89-2.03-3.53-.26-.95,1.15-1.51,2.2-.47,1.26,1.25,2.67,2.52,3.65,3.8.85,1.12,2.09,3.24,2.82,5.17Z"/>
          <path class="cls-5" d="M141.05,163.63c-2.08-1.03-5.46-3.09-7.19-3.62-1.7-.53-3.31-.73-3.62-.2-.32.53,1.02,1.71,2.77,2.36,1.56.58,5.79,1.58,8.04,1.46Z"/>
          <path class="cls-5" d="M140.22,167.82c-1.83.06-6.72.12-8.41,1.08-1.62.92-.67,2.11,1.27,2.06,2.53-.06,5.34-2.23,7.14-3.14Z"/>
          <path class="cls-5" d="M144.81,171.83c-1.88,1.09-3.07,2.46-3.42,3.56-.54,1.69,1.39,2.97,2.15,2.02,1.08-1.34.48-3.78,1.26-5.58Z"/>
          <path class="cls-5" d="M151.73,160.08c-.08-1.19-.19-3.09.52-4.02.63-.84,2.22-1.74,3.44-1.4,1.03.28,1.02,1.94-.02,2.96-1.04,1.01-2.88,1.41-3.94,2.46Z"/>
          <path class="cls-5" d="M156.58,164.79c.7-.3,3.37-1.52,4.95-1.54,3.12-.03,4.39,1.78,1.85,2.09-2.54.32-4.96-.78-6.81-.55Z"/>
          <path class="cls-5" d="M156.22,170.22c1.96.4,5.87,1.49,7.12,2.26,1.63,1.01,1.45,2.58-1.15,1.73-2.6-.85-4.73-3.15-5.96-4Z"/>
          <path class="cls-5" d="M151.21,172.9c-.05,1.34.41,2.93,1.48,3.84,1.07.91,2.31.81,1.74-.41-.53-1.13-1.98-2.06-3.22-3.43Z"/>
        </g>
        <path class="cls-5" d="M149.28,168.11c1.14.1,1.99-.57,1.91-1.48-.09-.91-1.09-1.74-2.23-1.83-1.14-.1-1.99.57-1.91,1.48.09.91,1.09,1.74,2.23,1.83Z"/>
      </g>
      <g>
        <g>
          <path class="cls-4" d="M94.44,256.29c2.38,1.57,8.9,5.76,11.36,7.92,2.4,2.11,3.82,1.55,2.23-.68-1.9-2.66-4.74-4.37-6.35-5.44-1.6-1.07-4.91-2.7-6.9-3.41-1.56-.56-3.04-.17-.34,1.61Z"/>
          <path class="cls-4" d="M94.99,253.5c2.51.41,7.75,1.02,11.26,1.97,2.02.54,3.73,1.13,4.97,1.62,1.55.62,2.25-.44.47-1.54-2.13-1.31-5.28-2.46-7.5-2.88-1.84-.34-6.98-.79-8.94-.49-1.55.24-1.63,1.09-.26,1.31Z"/>
          <path class="cls-4" d="M94.32,251.03c2-.16,3.96-.91,5.42-1.7,1.53-.83,2.51-1.87,3.22-2.8.89-1.16-.33-2.32-1.38-1.61-1.29.87-3.93,2.38-5.34,3.02-1.24.56-2.32,1.19-3.17,1.85-.97.75.14,1.33,1.26,1.23Z"/>
          <path class="cls-4" d="M91.84,255.87c.84,1.42,1.69,5.47,1.73,6.77.05,1.39-.17,2.9-.37,3.67-.28,1.08-1.72,1.11-2.32-.35s-.99-2.84-1.17-4.28c-.16-1.34-.19-5.02,0-5.91s1.4-1.12,2.13.1Z"/>
          <path class="cls-4" d="M88.18,254.74c-.48,1.28-2.31,3.14-4.43,4.15-1.25.6-3.41,1.04-5.81.72-2.16-.29-2.93-1.5-1.09-2.08,2.82-.89,5.16-1.87,7.28-2.85.85-.39,1.73-.95,2.39-1.33.83-.47,2.04.37,1.65,1.39Z"/>
          <path class="cls-4" d="M85.57,251.84c-1.29.29-2.44.39-4.76.07-2.2-.3-4.7-1.01-6.27-2.07-1.33-.9-.51-1.68,1.57-1.48,2.27.22,3.65.49,5.22.81,2.08.43,3.54.75,4.75,1.11,1.19.35.88,1.25-.51,1.56Z"/>
          <path class="cls-4" d="M91.88,248.9c1.68-1.32,1.77-3.07,1.72-4.37-.05-1.15-.74-2.86-2.44-4.24-1.26-1.02-2.98-.72-2.35.69.45,1,1.26,2.99,1.44,4.15.15.93.02,2.56-.13,3.24-.14.68,1.1,1.04,1.75.53Z"/>
          <path class="cls-4" d="M88.44,248.45c-.26-1.33-1.29-2.64-2.79-4.06-1.02-.97-2.59-1.99-3.61-2.46-1.53-.7-2.88-.62-2.01.59.82,1.14,1.5,1.78,3.08,3.32,1.57,1.55,3.17,2.76,3.83,3.2.67.44,1.67.22,1.51-.59Z"/>
          <path class="cls-4" d="M94.39,257.99c2.12,1.26,5.04,3.66,6.4,5.16.84.92,1.5,1.93,1.89,3.57.23.95-1.19,1.46-2.2.39-1.2-1.28-2.56-2.59-3.48-3.89-.8-1.14-1.96-3.28-2.61-5.23Z"/>
          <path class="cls-4" d="M98.36,255.24c2.02,1.09,5.3,3.25,6.99,3.84,1.67.58,3.25.84,3.58.32.33-.51-.96-1.73-2.67-2.44-1.53-.63-5.69-1.76-7.91-1.73Z"/>
          <path class="cls-4" d="M99.32,251.11c1.81,0,6.67.12,8.37-.78,1.64-.86.74-2.06-1.19-2.09-2.5-.03-5.37,2.03-7.18,2.87Z"/>
          <path class="cls-4" d="M94.91,246.98c1.9-1.02,3.13-2.33,3.51-3.41.59-1.66-1.27-2.99-2.06-2.08-1.12,1.29-.61,3.73-1.45,5.49Z"/>
          <path class="cls-4" d="M87.64,258.39c.04,1.19.08,3.07-.65,3.97-.66.81-2.26,1.64-3.46,1.27-1.01-.32-.94-1.96.12-2.93,1.07-.97,2.9-1.29,3.99-2.3Z"/>
          <path class="cls-4" d="M83,253.54c-.7.27-3.39,1.39-4.96,1.35-3.09-.08-4.29-1.91-1.76-2.14,2.53-.23,4.88.94,6.73.79Z"/>
          <path class="cls-4" d="M83.55,248.18c-1.93-.46-5.76-1.68-6.98-2.49-1.58-1.05-1.35-2.61,1.2-1.68,2.55.93,4.58,3.29,5.77,4.17Z"/>
          <path class="cls-4" d="M88.61,245.7c.1-1.32-.31-2.92-1.33-3.85-1.02-.94-2.26-.88-1.74.34.48,1.14,1.89,2.11,3.07,3.51Z"/>
        </g>
        <path class="cls-4" d="M90.35,250.51c-1.13-.14-2,.49-1.94,1.4.06.91,1.02,1.76,2.15,1.89,1.13.14,2-.49,1.94-1.4-.06-.91-1.02-1.76-2.15-1.89Z"/>
      </g>
      <g>
        <g>
          <path class="cls-5" d="M57.16,278.64c-2.2,1.53-8.24,5.63-10.5,7.72-2.21,2.04-3.56,1.55-2.11-.59,1.72-2.55,4.36-4.23,5.85-5.27s4.56-2.66,6.42-3.37c1.46-.56,2.85-.23.36,1.51Z"/>
          <path class="cls-5" d="M56.58,276.03c-2.35.45-7.27,1.14-10.55,2.12-1.88.56-3.48,1.15-4.64,1.64-1.44.62-2.12-.37-.47-1.43,1.97-1.28,4.91-2.44,6.99-2.89,1.72-.37,6.55-.91,8.4-.67,1.46.19,1.56.99.27,1.23Z"/>
          <path class="cls-5" d="M57.15,273.68c-1.88-.11-3.75-.76-5.14-1.47-1.46-.75-2.4-1.7-3.1-2.56-.86-1.07.25-2.19,1.26-1.55,1.23.79,3.75,2.15,5.1,2.72,1.18.5,2.21,1.07,3.03,1.67.93.69-.1,1.25-1.16,1.19Z"/>
          <path class="cls-5" d="M59.6,278.18c-.76,1.36-1.46,5.19-1.47,6.41-.01,1.31.23,2.73.44,3.45.29,1.01,1.64,1.01,2.18-.38s.87-2.7,1-4.06c.12-1.27.06-4.73-.14-5.56-.2-.83-1.35-1.02-2,.14Z"/>
          <path class="cls-5" d="M63.01,277.03c.48,1.19,2.24,2.9,4.26,3.8,1.19.53,3.23.9,5.48.54,2.03-.33,2.72-1.48.98-1.99-2.68-.77-4.9-1.64-6.92-2.52-.81-.35-1.65-.86-2.28-1.19-.79-.42-1.91.39-1.52,1.35Z"/>
          <path class="cls-5" d="M65.4,274.24c1.22.24,2.3.31,4.48-.05,2.06-.34,4.4-1.06,5.85-2.09,1.23-.87.44-1.59-1.51-1.36-2.13.26-3.42.54-4.9.89-1.95.45-3.31.79-4.44,1.15-1.11.36-.8,1.2.52,1.46Z"/>
          <path class="cls-5" d="M59.4,271.62c-1.61-1.2-1.74-2.85-1.72-4.07.02-1.08.63-2.71,2.2-4.05,1.16-.99,2.79-.75,2.23.6-.4.96-1.11,2.85-1.26,3.94-.12.88.04,2.41.19,3.05.15.63-1.01,1.01-1.64.54Z"/>
          <path class="cls-5" d="M62.62,271.12c.21-1.26,1.16-2.51,2.54-3.89.94-.93,2.39-1.93,3.34-2.39,1.43-.69,2.7-.65,1.91.51-.75,1.09-1.37,1.71-2.82,3.2-1.44,1.49-2.91,2.67-3.53,3.1-.62.43-1.56.24-1.43-.52Z"/>
          <path class="cls-5" d="M57.25,280.24c-1.96,1.24-4.66,3.56-5.91,5.01-.77.89-1.37,1.85-1.69,3.4-.19.9,1.16,1.34,2.08.31,1.1-1.23,2.35-2.5,3.19-3.75.73-1.09,1.77-3.13,2.33-4.98Z"/>
          <path class="cls-5" d="M53.45,277.74c-1.88,1.07-4.91,3.18-6.49,3.78-1.56.59-3.04.86-3.37.39-.32-.47.86-1.65,2.45-2.35,1.42-.63,5.31-1.79,7.41-1.81Z"/>
          <path class="cls-5" d="M52.44,273.88c-1.71.04-6.27.27-7.89-.54-1.56-.77-.75-1.92,1.07-1.99,2.36-.09,5.1,1.78,6.83,2.53Z"/>
          <path class="cls-5" d="M56.5,269.89c-1.81-.91-3-2.12-3.38-3.13-.6-1.55,1.13-2.84,1.89-2.01,1.08,1.19.66,3.5,1.49,5.13Z"/>
          <path class="cls-5" d="M63.6,280.45c0,1.12,0,2.89.71,3.72.64.74,2.17,1.49,3.29,1.11.94-.32.84-1.87-.19-2.76-1.03-.89-2.76-1.15-3.81-2.07Z"/>
          <path class="cls-5" d="M67.86,275.79c.67.24,3.23,1.23,4.7,1.16,2.91-.14,3.99-1.9,1.61-2.06-2.39-.15-4.57,1-6.31.9Z"/>
          <path class="cls-5" d="M67.22,270.75c1.81-.48,5.38-1.72,6.51-2.51,1.46-1.03,1.2-2.48-1.17-1.55-2.38.93-4.23,3.2-5.33,4.06Z"/>
          <path class="cls-5" d="M62.4,268.54c-.12-1.24.22-2.75,1.17-3.66.94-.9,2.11-.88,1.65.28-.43,1.08-1.73,2.03-2.81,3.38Z"/>
        </g>
        <path class="cls-5" d="M60.87,273.11c1.06-.15,1.89.42,1.86,1.27-.03.86-.92,1.68-1.97,1.83-1.06.15-1.89-.42-1.86-1.27.03-.86.92-1.68,1.97-1.83Z"/>
      </g>
      <g>
        <path class="cls-3" d="M136.58,180.3c-2.11.41-3.98,2.11-3.61,4.53.13.86.72,2.24,1.95,2.89-.49-1.04.52-2.55.88-3.58.46-1.3.27-2.43.78-3.84Z"/>
        <path class="cls-3" d="M133.23,193.3c.72-.93,1.68-1.51,2.17-2.08.49-.57.67-1.39.66-2.59-.7.34-1.3.53-1.89.99-.71.57-1.39,2.23-.94,3.67Z"/>
        <path class="cls-3" d="M139.4,182.98c-1.23,1.22-1.93,2.22-1.94,3.6-.02,1.35.66,2.55,1.83,3.61-.23-1.23.51-2.16.62-3.27.11-1.13-.19-2.2-.5-3.95Z"/>
        <path class="cls-3" d="M144.11,186.81c-1.37.84-1.73,2.24-1.65,3.14s.54,2.37,1.59,3.36c.14-1.17.57-2.02.65-2.91.1-1.08-.18-2.27-.59-3.59Z"/>
        <path class="cls-3" d="M148.79,188.7c-1.29,1.03-1.99,2.64-1.86,3.51.19,1.25.93,2.22,1.97,3.17.27-.87.7-1.54.66-2.41-.07-1.63-.93-2.76-.78-4.27Z"/>
        <path class="cls-3" d="M146.33,200.98c-.35-1.82.01-3.16.72-3.91.6-.64,2.02-1.25,3.42-1.36-.62.98-.8,1.9-1.3,2.61-.69.97-1.95,1.72-2.84,2.65Z"/>
        <path class="cls-3" d="M141.26,198.41c-.18-1.47.48-3.17,1.19-3.72.71-.55,1.9-.93,3.34-.84-.45.81-.72,1.53-1.31,2.19-.73.81-1.92,1.64-3.21,2.37Z"/>
        <path class="cls-3" d="M127.58,176.03c-1.2.44-1.71,1.47-1.8,2.19-.08.71.04,1.94.7,2.88.3-.9.77-1.49.98-2.17.25-.83.23-1.8.12-2.9Z"/>
        <path class="cls-3" d="M131.03,178.97c-1.17.6-1.98,1.75-2.01,2.45-.05,1.01.37,1.89,1.03,2.8.35-.63.79-1.09.9-1.78.21-1.28-.28-2.3.08-3.46Z"/>
        <path class="cls-3" d="M128.21,188.72c.02-1.47.52-2.47,1.19-2.94.57-.41,1.78-.66,2.89-.51-.64.66-.93,1.35-1.44,1.83-.69.65-1.8,1.03-2.64,1.62Z"/>
        <path class="cls-3" d="M123.58,185.34c.09-1.18.88-2.4,1.53-2.72s1.64-.42,2.74-.12c-.48.56-.81,1.08-1.38,1.5-.7.52-1.77.97-2.89,1.33Z"/>
        <path class="cls-3" d="M152.36,189.22c-1.08,1.67-1.25,2.92-.88,4.27.33,1.21,1.4,2.09,2.77,2.89-.14-1.3.11-2.32-.02-3.3-.16-1.19-.92-2.7-1.88-3.86Z"/>
        <path class="cls-3" d="M152.21,201.97c.67-1.69,1.23-3.32,1.86-4.1.63-.77,1.82-1.48,3.39-1.73-.28.99-.36,2.19-.82,3.06-.66,1.26-2.58,2.31-4.43,2.76Z"/>
        <path class="cls-3" d="M156.46,188.72c-.22,1.62.05,2.77.55,3.63s1.64,2.13,3.15,2.64c-.4-1.24-.36-2.29-.69-3.22-.4-1.13-1.5-2.39-3-3.05Z"/>
        <path class="cls-3" d="M161.28,202.51c-.65-1.5-.71-3.07-.48-4.03.24-.97,1.02-2.11,2.33-3.01.17,1.01.42,1.81.35,2.8-.08,1.2-1.07,3.06-2.21,4.24Z"/>
        <path class="cls-3" d="M140.64,191.21c-1.16.35-2.46,1.07-3.02,2.14-.43.81-.62,1.93-.36,2.63.42-.7,1.3-1.18,2.03-1.72,1.1-.82,1.73-2.14,1.35-3.05Z"/>
      </g>
      <g>
        <path class="cls-3" d="M27.25,169.07c2.85.56,5.97.31,8.58-1.01,2.45-1.24,4.19-3.61,4.88-6.25.66-2.54.28-5.23-.02-7.8-.32-2.73-.71-5.53-.47-8.28.23-2.6,1.19-5.06,2.45-7.33,1.56-2.83,3.66-5.45,6.25-7.41,2.47-1.87,5.49-3.1,8.57-3.44,2.42-.27,4.72.41,6.39,2.23.83.9,1.41,2.05,1.42,3.29,0,1.3-.6,2.64-1.58,3.49-.91.79-2.24,1.08-3.3.42-.94-.58-1.43-1.81-1.07-2.86.23-.68.78-1.14,1.4-1.46.21-.11-.02-.29-.14-.35-.2-.1-.5-.12-.71-.02-1.16.6-1.92,1.7-1.61,3.03.25,1.12,1.16,1.92,2.22,2.27,1.21.41,2.61.3,3.69-.4,1.13-.73,1.92-2.07,2.09-3.4.34-2.57-1.65-4.77-3.79-5.87-2.39-1.23-5.16-1.08-7.69-.45-3.12.78-5.88,2.26-8.24,4.41,1.86-2.63,3.58-5.54,4.73-8.52,1.09-2.84,1.58-5.79,1.23-8.83-.38-3.22-1.49-6.45-3.56-8.99-2.06-2.54-5.04-4.49-8.29-5.06-2.84-.5-5.83.28-8.17,1.92-2.65,1.85-4.57,4.8-4.54,8.11.04,3.23,2.08,6.19,4.86,7.74,2.68,1.49,6.38,1.86,8.84-.28,1.09-.95,1.92-2.45,1.74-3.94-.16-1.38-1.33-2.48-2.55-3-.71-.31-1.5-.44-2.28-.38-.29.02-.62.17-.44.5.17.32.74.47,1.07.44,1.1-.09,2.09.67,2.45,1.7.45,1.27-.21,2.7-1.07,3.63-1.9,2.06-4.97,1.98-7.21.54-2.42-1.55-3.95-4.33-3.78-7.22.18-3,2.1-5.72,4.59-7.31,2.02-1.29,4.53-2.01,6.91-1.47,2.82.64,5.34,2.62,6.97,4.96,1.7,2.44,2.58,5.37,2.87,8.31.27,2.73-.21,5.39-1.17,7.94-1.03,2.76-2.38,5.39-3.9,7.91-1.49,2.48-2.72,5.01-4.17,7.52,0,0,0,.01,0,.02-.42.77-.81,1.56-1.16,2.37-1.04,2.41-1.48,4.9-1.39,7.52.1,3.1.67,6.16.86,9.25.17,2.77-.26,5.37-1.87,7.68-1.92,2.77-5.28,3.95-8.55,3.89-.76-.02-1.52-.1-2.26-.25-.14-.03-.52-.04-.54.16-.03.21.35.28.48.31Z"/>
        <path class="cls-3" d="M48.72,138.81c-1.46-.58-2.9-.6-4.03-.24-1.21.39-2.23,1.32-2.9,2.45,1.64.65,2.62.64,3.87.26,1.25-.38,2.2-1.24,3.06-2.48Z"/>
        <path class="cls-3" d="M56.38,124.96c-1.25-.86-2.91-.84-3.83-.45-.99.42-1.78,1.27-2.26,2.28,1.39.2,2.44.17,3.46-.24s1.46-.91,2.63-1.58Z"/>
        <path class="cls-3" d="M52.16,133.57c-.45-.94-1.01-1.57-1.69-1.78-.73-.23-1.86.06-2.54.67.79.33,1.14.7,1.88.95.75.25,1.44.21,2.35.17Z"/>
        <path class="cls-3" d="M47,116.47c.27.94.38,1.58.66,2.24.29.71,1.26,1.72,1.98,2.06.19-1.02.01-1.73-.28-2.46-.29-.73-1.22-1.52-2.36-1.84Z"/>
        <path class="cls-3" d="M39.65,125.61c.71,1.48,1,2.48,1.44,3.38.47.97,1.42,2.16,2.11,3.18.38-1.8.25-3.41-.21-4.41s-1.63-1.89-3.34-2.15Z"/>
        <path class="cls-3" d="M35.44,128.53c.39,1.8,1.32,3.23,2.41,4.09,1.18.93,3.14,1.7,4.72,2.47-.51-2.64-1.52-4.23-2.71-5.19-1.19-.97-2.65-1.33-4.42-1.36Z"/>
        <path class="cls-3" d="M54.36,101.05c-.57,1.54-.78,2.56-1.14,3.49-.39,1.01-1.23,2.28-1.83,3.35-.53-1.77-.55-3.37-.17-4.41.38-1.03,1.46-2.02,3.14-2.44Z"/>
        <path class="cls-3" d="M59.38,105.6c-.23,1.82-1.03,3.33-2.05,4.28-1.09,1.03-2.98,1.97-4.49,2.87.28-2.68,1.15-4.34,2.25-5.41,1.1-1.06,2.52-1.56,4.28-1.74Z"/>
      </g>
      <g>
        <path class="cls-3" d="M164.05,122.19s.02.06.03.1c1.14,4.43-1.03,9.27-4.99,11.47-3.75,2.08-9.3,2-12.04-1.73-2.24-3.05-.81-7.8,2.73-9.15.84-.32.79.6.13.85-.71.27-1.28.72-1.73,1.33-1.04,1.4-1.29,3.34-.68,4.97.73,1.95,2.67,3.29,4.62,3.81,2.13.57,4.43.29,6.39-.69,1.97-.99,3.36-2.7,4.09-4.77.72-2.06.78-4.43-.03-6.47-.75-1.9-2.03-3.8-3.59-5.12-1.83-1.55-4.12-2.35-6.47-2.72-2.15-.34-4.18-.06-6.16.87-3.3,1.56-5.87,4.35-8.09,7.18-2.47,3.15-4.93,6.3-7.62,9.26-.46.5-.93,1-1.4,1.49,1.78-.95,3.73-1.63,5.65-1.93,1.44-.23,2.94-.16,4.39.02,1.52.19,3.04.55,4.43,1.21,1.32.63,2.4,1.62,3.19,2.86.62.98,1.09,2.23.77,3.4-.28,1.01-1.12,2.07-1.96,2.67-.99.71-2.26.68-3.24-.05-1.05-.77-1.56-2.11-.9-3.29.58-1.04,1.43-1.81,2.68-1.74-.11,0-.38.89-.64.88-.57-.03-1.5.07-1.68.72-.18.63.13,1.35.49,1.85.7.96,1.97,1.54,3.14,1.14,2.64-.91,1.37-3.98.12-5.51-1.56-1.9-3.84-2.74-6.2-3.14-2.5-.43-5-.38-7.42.39-1.41.45-2.82,1.04-4.12,1.81-.52.48-1.04.96-1.59,1.4-1.74,1.39-3.76,2.41-5.86,3.13-2.2.75-4.56,1.16-6.89,1.11-2.18-.05-4.17-.57-6.16-1.42-1.9-.81-3.7-1.88-5.04-3.47-1.37-1.62-2.22-3.71-2.66-5.76-1.04-4.8,1.21-9.25,4.36-12.75.19-.21.54-.5.85-.4.28.09.29.39.11.6-.93,1.04-1.8,2.13-2.51,3.33-1.19,2-1.94,4.28-1.85,6.62.08,2.28.84,4.65,2.08,6.57,1.14,1.76,2.79,3,4.66,3.9,2.08,1.01,4.26,1.7,6.58,1.76,4.6.12,9.26-1.5,12.68-4.57,3.26-2.92,6.02-6.41,8.72-9.83,2.23-2.82,4.36-5.7,7.19-7.96,1.63-1.3,3.44-2.4,5.45-3.03,2.31-.72,4.67-.56,6.99.04,2.19.57,4.19,1.6,5.78,3.23.07.07.13.15.2.22.84.82,1.61,1.71,2.38,2.59,1.08,1.24,2.15,2.4,3.63,3.16.46.23.92.43,1.39.57v1.39c-.31-.07-.63-.16-.93-.27-1.32-.49-2.41-1.22-3.4-2.12Z"/>
        <path class="cls-3" d="M133.64,134.54c1.33.47,2.67,1.54,3.62,3.14-1.71.54-3.22.66-4.67.11-1.45-.54-2.38-1.24-3.45-3.04,1.45-.59,3.07-.72,4.5-.21Z"/>
        <path class="cls-3" d="M140.83,120.77c.93-.94,2.14-1.59,3.41-1.68,1.19-.08,3.05.54,4.12,1.99-1.58.3-2.26.69-3.56.76-1.31.07-2.49-.31-3.97-1.07Z"/>
        <path class="cls-3" d="M142.02,123.43c.48.7.56,1.69.3,2.9-.88-.62-1.57-1.09-2.08-1.86-.52-.78-.57-1.37-1.08-2.25,1.08-.08,2.35.46,2.87,1.21Z"/>
        <path class="cls-3" d="M156.16,109.94c.79-.31,1.55-.44,2.67-.74-.4,1.34-1.36,2.43-2.23,2.76-.87.33-1.72.53-2.92.29.42-.84,1.63-1.97,2.48-2.31Z"/>
        <path class="cls-3" d="M142.46,107.15c1.42,1.49,1.86,3.16,1.58,4.44-.28,1.28-1.33,2.87-2.99,4.3.09-1.45.06-3.26.32-4.51.24-1.16.68-2.32,1.09-4.22Z"/>
        <path class="cls-3" d="M139.51,112.2c.42,1.77.22,3.99-1.21,6.84-.94-1.86-2.21-4.01-2.65-5.73-.41-1.6-.24-3.61.69-5.59,1.65,1.31,2.75,2.71,3.17,4.48Z"/>
      </g>
      <g>
        <path class="cls-3" d="M117.02,223.96c1.96.94,3.66,2.09,5.14,3.69,1.58,1.72,2.83,3.75,3.72,5.9.85,2.06,1.42,4.24,1.52,6.47.03.71.03,1.41,0,2.12.29,1.48.77,2.94,1.37,4.29,1.03,2.33,2.64,4.24,4.61,5.82,1.87,1.5,4,2.67,6.46,2.58,1.98-.07,5.12-1.15,4.06-3.73-.47-1.14-1.74-1.72-2.93-1.6-.62.06-1.36.31-1.72.86-.37.57.17,1.33.57,1.74.18.19-.32.98-.24,1.06-.88-.9-.86-2.04-.46-3.16.45-1.27,1.79-1.77,3.06-1.5,1.19.26,2.06,1.18,2.17,2.4.1,1.03-.13,2.36-.71,3.24-.67,1.01-1.91,1.48-3.06,1.66-1.45.23-2.9.07-4.25-.5-1.41-.6-2.69-1.51-3.83-2.52-1.09-.96-2.13-2.05-2.91-3.28-1.04-1.64-1.83-3.55-2.28-5.51-.05.68-.12,1.36-.19,2.04-.44,3.98-1.18,7.9-1.91,11.84-.66,3.54-1.05,7.31-.04,10.82.6,2.1,1.74,3.81,3.41,5.2,1.83,1.52,3.93,2.71,6.31,3.06,2.03.3,4.29,0,6.21-.69,2.07-.75,3.81-2.35,4.88-4.25,1.08-1.91,1.44-4.09.88-6.22-.56-2.13-1.87-4.03-3.7-5.26-1.69-1.12-3.97-1.69-5.92-.95-1.63.62-2.92,2.09-3.28,3.8-.16.74-.12,1.47.15,2.18.25.66-.41,1.3-.73.46-1.32-3.54,1.29-7.76,5.06-8.09,4.61-.41,8.34,3.7,9.26,7.89.97,4.43-1.24,9.25-5.31,11.32-.03.01-.06.03-.09.04,1.33.16,2.59.49,3.84,1.15,1.78.95,3.19,2.63,3.39,4.7.16,1.72-.58,3.64-2.08,4.58-1.83,1.14-4.55-.09-5.06-2.14-.23-.93,1.15-.98,1.35-.14.32,1.3,2.22,1.64,3.15.86,1.14-.95,1.56-2.63,1.07-4.01-.57-1.61-1.87-2.49-3.4-3.09-1.54-.61-3.13-.64-4.77-.63-1.16,0-2.34.01-3.51-.07-.1,0-.2,0-.3,0-2.27-.11-4.37-.93-6.24-2.2-1.98-1.34-3.67-3.01-4.65-5.22-.85-1.92-1.23-4-1.33-6.09-.17-3.62.57-7.13,1.22-10.66.78-4.29,1.57-8.67,1.61-13.04.04-4.6-1.82-9.17-4.95-12.54-1.58-1.7-3.54-2.88-5.67-3.77-1.91-.8-3.93-1.23-6.01-.92-2.26.34-4.54,1.34-6.3,2.78-1.82,1.49-3.03,3.55-3.75,5.77-.43,1.33-.67,2.71-.84,4.09-.03.27-.27.46-.52.31-.28-.17-.3-.63-.26-.9.55-4.68,2.4-9.3,6.69-11.7,1.83-1.02,3.97-1.77,6.08-1.81,2.08-.04,4.08.6,5.93,1.49Z"/>
        <path class="cls-3" d="M136.23,246.81c-1.83.34-3.52.04-4.75-.64-1.32-.73-2.3-2.04-2.81-3.52,2.06-.38,3.2-.15,4.56.58,1.36.73,2.28,1.94,3,3.58Z"/>
        <path class="cls-3" d="M131.11,266.12c-1.79.15-3.49-.84-4.21-1.78-.78-1.02-1.09-2.35-1-3.67,1.55.61,2.62,1.25,3.43,2.28s.97,1.79,1.78,3.18Z"/>
        <path class="cls-3" d="M131.06,258.11c-.73,1-1.53,1.59-2.37,1.69-.91.11-2.15-.49-2.8-1.35.99-.2,1.48-.55,2.4-.68.92-.12,1.73.09,2.77.33Z"/>
        <path class="cls-3" d="M129.11,281.83c-.51-1.04-.92-1.7-1.21-2.49-.31-.86-.26-2.51.09-3.39.98.74,1.39,1.51,1.72,2.38.33.87.14,2.31-.6,3.5Z"/>
        <path class="cls-3" d="M116.76,270.9c1.16-1.57,1.73-2.66,2.45-3.61.77-1.02,2.15-2.19,3.18-3.22.03,2.19-.48,4.02-1.25,5.08s-2.32,1.83-4.37,1.75Z"/>
        <path class="cls-3" d="M113.14,265.93c.86-2,2.26-3.46,3.74-4.21,1.58-.81,4.04-1.27,6.06-1.8-1.2,2.96-2.73,4.57-4.34,5.43-1.6.85-3.38.95-5.45.58Z"/>
      </g>
      <g>
        <path class="cls-3" d="M28.57,253.95c-2.12-1.59-3.87-3.87-4.57-6.46-.66-2.43-.11-5.06,1.26-7.15,1.32-2.01,3.39-3.39,5.32-4.76,2.05-1.46,4.2-2.9,5.93-4.75,1.63-1.75,2.71-3.91,3.49-6.15.97-2.8,1.46-5.83,1.21-8.79-.24-2.82-1.25-5.63-2.91-7.94-1.3-1.81-3.17-2.96-5.43-2.99-1.12-.01-2.26.29-3.11,1.05-.89.79-1.43,2.02-1.41,3.21.02,1.1.64,2.18,1.73,2.51.97.28,2.1-.14,2.6-1.02.32-.57.3-1.23.13-1.84-.06-.21.21-.17.32-.12.19.08.39.27.45.47.31,1.16.02,2.34-1.07,2.95-.92.51-2.02.38-2.91-.12-1.02-.57-1.8-1.59-1.99-2.76-.19-1.22.24-2.57,1.03-3.51,1.54-1.8,4.25-1.8,6.31-1.02,2.3.87,3.9,2.85,5.02,4.96,1.38,2.6,2.06,5.38,2.04,8.31.65-2.88,1.58-5.83,2.91-8.43,1.27-2.48,2.97-4.62,5.26-6.24,2.43-1.72,5.3-2.93,8.3-3.09,2.99-.15,6.14.68,8.52,2.54,2.08,1.62,3.38,4.14,3.7,6.74.36,2.94-.47,6.05-2.74,8.05-2.22,1.95-5.48,2.38-8.24,1.43-2.66-.91-5.17-3.2-5.22-6.19-.02-1.32.5-2.81,1.61-3.6,1.04-.73,2.5-.62,3.6-.11.65.3,1.22.75,1.66,1.32.16.21.27.52-.07.61-.32.08-.77-.22-.95-.45-.62-.8-1.73-1.01-2.66-.63-1.14.47-1.71,1.8-1.81,2.95-.24,2.56,1.7,4.59,4.05,5.24,2.54.69,5.37.03,7.23-1.85,1.93-1.96,2.61-4.93,2.16-7.6-.36-2.16-1.4-4.32-3.23-5.6-2.17-1.53-5.05-2.03-7.65-1.7-2.7.34-5.24,1.53-7.41,3.13-2.02,1.49-3.54,3.44-4.69,5.66-1.25,2.39-2.21,4.92-3,7.5-.78,2.54-1.74,4.92-2.57,7.44,0,0,0,.01,0,.02-.26.76-.56,1.51-.9,2.24-1,2.19-2.43,4.01-4.27,5.55-2.17,1.83-4.6,3.31-6.82,5.08-1.99,1.58-3.49,3.47-4.08,5.98-.71,3,.54,6.01,2.59,8.2.48.51,1,.97,1.56,1.39.1.08.34.33.22.47-.12.15-.41-.07-.5-.14Z"/>
        <path class="cls-3" d="M36.02,220.81c1.28.64,2.19,1.61,2.63,2.6.47,1.07.47,2.32.1,3.47-1.45-.72-2.04-1.39-2.54-2.48s-.5-2.25-.19-3.6Z"/>
        <path class="cls-3" d="M40.75,207.12c1.35.32,2.35,1.46,2.65,2.33.32.93.23,1.99-.16,2.93-.99-.83-1.61-1.55-1.96-2.5-.34-.95-.27-1.55-.53-2.76Z"/>
        <path class="cls-3" d="M37.47,215.27c.91-.27,1.68-.27,2.25.06.61.36,1.1,1.3,1.1,2.14-.71-.34-1.17-.35-1.8-.7-.63-.35-1.02-.86-1.56-1.49Z"/>
        <path class="cls-3" d="M52.27,208.31c-.8.39-1.31.71-1.93.92-.66.23-1.94.19-2.61-.08.57-.75,1.17-1.07,1.85-1.32.67-.25,1.78-.1,2.7.47Z"/>
        <path class="cls-3" d="M50.55,218.91c-1.44.43-2.3.84-3.18,1.09-.95.27-2.34.35-3.46.51,1-1.36,2.16-2.26,3.13-2.55.97-.29,2.28-.05,3.51.95Z"/>
        <path class="cls-3" d="M51.14,223.56c-1.46.83-3,1.08-4.26.86-1.35-.24-3.08-1.09-4.57-1.7,2.11-1.27,3.81-1.55,5.19-1.33,1.39.22,2.53.98,3.63,2.17Z"/>
        <path class="cls-3" d="M58.26,193.85c-.69,1.33-1.26,2.1-1.68,2.92-.45.88-.8,2.23-1.16,3.29,1.53-.72,2.63-1.69,3.1-2.58.47-.89.48-2.23-.26-3.63Z"/>
        <path class="cls-3" d="M52.09,193.23c-1.1,1.28-1.64,2.74-1.66,4.02-.03,1.37.48,3.23.8,4.81,1.65-1.83,2.25-3.44,2.3-4.84.05-1.4-.48-2.67-1.44-3.98Z"/>
      </g>
      <g>
        <path class="cls-3" d="M42.61,30.26c-2.07,2.74-3.43,6.21-3.37,9.68.06,3.26,1.68,6.34,4.14,8.44,2.37,2.03,5.43,3,8.33,4.02,3.08,1.08,6.27,2.1,9.08,3.79,2.66,1.59,4.78,3.89,6.55,6.41,2.21,3.14,3.91,6.73,4.66,10.51.71,3.6.46,7.46-.77,10.92-.97,2.72-2.88,4.82-5.69,5.67-1.38.42-2.92.44-4.25-.19-1.39-.66-2.5-2.01-2.9-3.49-.37-1.38,0-2.95,1.26-3.74,1.1-.7,2.67-.59,3.61.34.61.59.81,1.42.83,2.24,0,.28.32.13.44.03.21-.17.39-.47.38-.75-.03-1.55-.82-2.92-2.4-3.29-1.33-.31-2.65.24-3.57,1.19-1.06,1.08-1.67,2.63-1.48,4.15.2,1.59,1.22,3.12,2.55,3.99,2.56,1.69,5.94.71,8.22-1,2.55-1.91,3.83-4.94,4.47-7.98.78-3.73.64-7.44-.43-11.07,1.84,3.35,4.06,6.69,6.64,9.46,2.47,2.64,5.35,4.69,8.78,5.88,3.64,1.27,7.65,1.75,11.43.87,3.78-.89,7.4-3.05,9.69-6.22,2-2.77,2.72-6.36,2.18-9.71-.6-3.79-2.75-7.37-6.3-9.04-3.47-1.64-7.68-.99-10.77,1.18-2.98,2.09-5.29,5.84-4.28,9.57.45,1.66,1.62,3.32,3.3,3.9,1.55.54,3.34-.13,4.52-1.16.7-.6,1.25-1.37,1.59-2.23.13-.32.14-.75-.31-.73-.42.01-.88.55-1.03.91-.48,1.22-1.79,1.88-3.08,1.74-1.58-.18-2.77-1.63-3.32-3.03-1.21-3.1.47-6.33,3.16-7.97,2.91-1.77,6.67-1.97,9.66-.29,3.11,1.74,5.01,5.21,5.41,8.69.32,2.82-.2,5.87-2.01,8.13-2.15,2.68-5.56,4.33-8.91,4.86-3.48.55-7.07-.03-10.35-1.24-3.05-1.13-5.64-3.02-7.87-5.36-2.41-2.53-4.52-5.33-6.42-8.26-1.87-2.88-3.93-5.5-5.86-8.34,0,0-.01-.01-.02-.02-.6-.85-1.24-1.68-1.92-2.47-2.03-2.36-4.46-4.12-7.3-5.38-3.36-1.5-6.92-2.47-10.32-3.87-3.04-1.25-5.59-3.06-7.23-5.97-1.96-3.48-1.48-7.68.29-11.14.41-.81.9-1.56,1.44-2.29.1-.13.3-.53.11-.66-.2-.14-.48.23-.58.35Z"/>
        <path class="cls-3" d="M63.77,68.84c1.37-1.25,2.15-2.79,2.34-4.18.21-1.5-.25-3.06-1.12-4.36-1.54,1.41-2.04,2.47-2.28,4-.24,1.53.18,2.99,1.06,4.55Z"/>
        <path class="cls-3" d="M74.57,84.19c1.56-.89,2.41-2.66,2.47-3.85.07-1.28-.43-2.56-1.26-3.59-.94,1.38-1.45,2.51-1.54,3.82-.09,1.3.22,2.03.33,3.63Z"/>
        <path class="cls-3" d="M67.56,75.23c1.24.01,2.19-.27,2.78-.88.63-.66.9-2.01.61-3.05-.76.67-1.33.85-1.99,1.51-.65.66-.97,1.43-1.4,2.42Z"/>
        <path class="cls-3" d="M88.48,78.59c-1.14-.2-1.89-.41-2.73-.46-.91-.05-2.48.46-3.23,1.04.98.73,1.84.91,2.77.98.93.07,2.26-.51,3.19-1.56Z"/>
        <path class="cls-3" d="M82.54,66c-1.95-.01-3.17-.21-4.35-.21-1.28,0-3.04.4-4.48.6,1.73,1.34,3.5,2.04,4.81,2.05,1.31.02,2.86-.76,4.03-2.44Z"/>
        <path class="cls-3" d="M81.61,60c-2.12-.51-4.13-.27-5.61.45-1.6.78-3.44,2.46-5.08,3.76,3.08.82,5.3.57,6.94-.2s2.8-2.13,3.74-4.01Z"/>
        <path class="cls-3" d="M101.13,94.43c-1.34-1.41-2.32-2.16-3.13-3.03-.87-.94-1.79-2.49-2.63-3.68,2.16.35,3.88,1.16,4.79,2.1.91.94,1.4,2.6.97,4.61Z"/>
        <path class="cls-3" d="M93.66,97.42c-1.83-1.2-3.02-2.82-3.51-4.4-.53-1.7-.56-4.2-.73-6.27,2.71,1.69,4.04,3.48,4.6,5.21.57,1.73.36,3.5-.36,5.47Z"/>
      </g>
      <g>
        <path class="cls-2" d="M127.19,5.39c-.58-1.85-.34-3.95.88-5.39h4.74c-.67.7-1.26,1.6-1.79,2.19-1.18,1.31-2.56,1.78-3.84,3.2Z"/>
        <path class="cls-2" d="M134.76,2.55c1.51-.84,3.26-.8,5.16-.14-1.52.49-2.11,1.89-3.29,2.67-1.2.8-2.59,1.12-4.73,1.83.62-2.13,1.32-3.51,2.86-4.37Z"/>
        <path class="cls-2" d="M140.85,5.66c1.05-.46,2.99-.83,4.73-.25-1.23.87-1.92,1.86-2.87,2.5-1.16.77-2.66,1.18-4.38,1.51.12-2.04,1.46-3.3,2.52-3.76Z"/>
        <path class="cls-2" d="M146.14,9.4c1.52-.54,3.06-.3,4.76.29-.81.83-1.3,1.72-2.31,2.21-1.87.91-3.65.63-5.27,1.72.38-2.07,1.76-3.84,2.82-4.21Z"/>
        <path class="cls-2" d="M153.57,12.62c-.74-1.64-.91-3.6-.55-4.66.41-1.25,1.7-2.46,3.95-3.17-.51,1.56-.58,3.43-1.26,4.79-.5,1-1.42,1.76-2.14,3.05Z"/>
        <path class="cls-2" d="M148.52,8.04c-.98-1.55-1.28-3.12-1.08-4.26s1.7-2.9,3.46-3.59c-.04,1.89-.24,3.73-.71,5.04-.39,1.08-1.02,1.81-1.66,2.81Z"/>
        <path class="cls-2" d="M151.03,14.11c1.56-.36,3.19.31,4.93,1.36-1.54.63-2.53,1.53-3.71,1.98-1.43.54-3.59.61-5.47.23,1.22-2.22,2.52-3.17,4.26-3.57Z"/>
        <path class="cls-2" d="M157.51,14.34c.49-1.17,1.98-2.79,3.47-4.57.62,2.34.6,5.14-.41,6.64-.7,1.05-2,1.86-2.94,2.78-.67-1.91-.61-3.68-.12-4.85Z"/>
        <path class="cls-2" d="M157.97,22.92c-1.64.3-2.79.99-4.04,1.18-1.52.24-3.6-.24-5.24-1.52,1.68-1.23,3.14-1.62,4.41-1.59,1.27.03,3.39.55,4.87,1.93Z"/>
        <path class="cls-2" d="M167.09,19.62c-.63,1.99-2.12,4.23-3.41,5.05-1.07.67-2.13.87-3.36,1.3.21-2.02,1.02-3.58,1.96-4.44.94-.85,2.73-1.74,4.81-1.91Z"/>
        <path class="cls-2" d="M141.89,3.33c-.21-1.04-.26-2.25,0-3.33h2.59c-.26,1.72-1.36,3.21-2.59,3.33Z"/>
      </g>
      <g>
        <path class="cls-3" d="M79.56,206.12c2.45-1.22,5.66-.95,7.16,1.78.53.97,1.01,2.83.28,4.44-.31-1.43-2.51-2.18-3.67-2.94-1.48-.96-2.16-2.25-3.77-3.28Z"/>
        <path class="cls-3" d="M92.79,217c-1.42-.47-2.85-.4-3.78-.64-.93-.24-1.7-.98-2.55-2.26.98-.15,1.75-.38,2.7-.3,1.15.09,3.06,1.35,3.63,3.2Z"/>
        <path class="cls-3" d="M79.74,210.28c2.15.56,3.54,1.21,4.45,2.73.89,1.48.9,3.24.29,5.15-.54-1.5-1.95-2.06-2.77-3.21-.84-1.18-1.2-2.55-1.97-4.68Z"/>
        <path class="cls-3" d="M77.41,217.04c2.03.23,3.21,1.64,3.61,2.72.4,1.08.66,3.03,0,4.74-.8-1.28-1.75-2.02-2.33-3.01-.7-1.2-1.03-2.72-1.27-4.46Z"/>
        <path class="cls-3" d="M73.68,220.95c1.96.76,3.43,2.46,3.6,3.57.24,1.6-.29,3.06-1.19,4.61-.66-.95-1.44-1.6-1.73-2.68-.54-2,.07-3.71-.69-5.5Z"/>
        <path class="cls-3" d="M80.53,235.89c.03-2.36-.72-3.96-1.77-4.75-.9-.67-2.82-1.12-4.6-.94,1,1.09,1.43,2.2,2.22,2.99,1.08,1.07,2.83,1.72,4.15,2.7Z"/>
        <path class="cls-3" d="M86.56,229.89c-.34-1.86-1.79-3.67-2.87-4.07-1.08-.4-2.67-.41-4.38.26.86.82,1.46,1.58,2.44,2.17,1.19.71,2.97,1.26,4.81,1.65Z"/>
        <path class="cls-3" d="M81.35,196.52c1.27-1.03,2.73-.92,3.57-.54.84.37,2.1,1.31,2.7,2.65-1.17-.26-2.13-.13-3.02-.35-1.08-.27-2.12-.93-3.25-1.76Z"/>
        <path class="cls-3" d="M82.4,201.67c1.51-.74,3.3-.68,4.04-.18,1.07.72,1.64,1.82,2.06,3.19-.91-.13-1.72-.02-2.51-.44-1.47-.77-2.13-2.05-3.59-2.57Z"/>
        <path class="cls-3" d="M94.38,207.17c-1.35-1.31-2.69-1.76-3.72-1.58-.88.15-2.2,1.02-3.07,2.15,1.18.02,2.06.38,2.95.35,1.21-.04,2.55-.69,3.84-.93Z"/>
        <path class="cls-3" d="M94.17,198.22c-1.35-.66-3.2-.6-3.97-.1-.77.5-1.53,1.52-1.92,2.93.93-.16,1.71-.18,2.55-.53,1.02-.43,2.22-1.3,3.35-2.3Z"/>
        <path class="cls-3" d="M69.53,222.95c1.95,1.62,2.63,3.08,2.7,4.86.06,1.6-.91,3.08-2.27,4.58-.32-1.63-1.02-2.77-1.24-4.02-.26-1.51.09-3.64.81-5.42Z"/>
        <path class="cls-3" d="M73.98,238.72c-1.26-1.95-2.36-3.86-3.33-4.67-.98-.81-2.64-1.4-4.67-1.33.6,1.16.99,2.65,1.78,3.63,1.14,1.41,3.8,2.26,6.22,2.36Z"/>
        <path class="cls-3" d="M65.4,223.19c.68,1.97.61,3.48.21,4.68-.4,1.2-1.53,3.07-3.29,4.08.2-1.65-.11-2.95.07-4.2.22-1.52,1.29-3.37,3.01-4.56Z"/>
        <path class="cls-3" d="M62.21,241.34c.65-1.98.54-3.98.12-5.18-.42-1.2-1.54-2.56-3.32-3.54-.09,1.3-.31,2.35-.12,3.6.24,1.51,1.73,3.76,3.31,5.12Z"/>
        <path class="cls-3" d="M83.62,220.16c1.5-.35,3.39-.39,4.7.43.99.62,1.92,1.73,2.09,2.67-.91-.51-2.19-.47-3.34-.6-1.74-.2-3.28-1.26-3.44-2.5Z"/>
      </g>
      <g>
        <path class="cls-3" d="M147.82,53.54c0-2.74-1.66-5.5-4.76-5.64-1.11-.05-2.99.34-4.1,1.72,1.42-.35,3.06,1.28,4.26,1.99,1.52.9,2.97.94,4.61,1.93Z"/>
        <path class="cls-3" d="M132.39,46.11c.98,1.13,1.48,2.47,2.06,3.23.58.76,1.57,1.19,3.07,1.47-.25-.95-.34-1.76-.77-2.61-.53-1.03-2.44-2.29-4.36-2.09Z"/>
        <path class="cls-3" d="M143.76,56.39c-1.22-1.85-2.29-2.96-4.02-3.33-1.69-.36-3.35.2-4.97,1.39,1.6.02,2.58,1.18,3.93,1.59,1.39.41,2.8.31,5.06.35Z"/>
        <path class="cls-3" d="M137.8,61.34c-.71-1.92-2.37-2.72-3.51-2.85s-3.1.09-4.6,1.16c1.43.46,2.38,1.21,3.48,1.54,1.33.39,2.89.34,4.63.15Z"/>
        <path class="cls-3" d="M134.27,66.72c-.97-1.87-2.81-3.15-3.93-3.19-1.62-.07-3.01.62-4.46,1.68,1.02.55,1.75,1.26,2.85,1.43,2.05.32,3.68-.47,5.54.09Z"/>
        <path class="cls-3" d="M119.52,60.59c2.36.02,3.95.8,4.71,1.87.65.91,1.07,2.84.85,4.62-1.07-1.02-2.17-1.47-2.94-2.28-1.05-1.1-1.67-2.86-2.61-4.21Z"/>
        <path class="cls-3" d="M124,54.88c1.88.14,3.84,1.38,4.36,2.41s.69,2.61.22,4.39c-.9-.76-1.73-1.28-2.42-2.19-.83-1.11-1.57-2.81-2.16-4.61Z"/>
        <path class="cls-3" d="M155.4,43.33c-.25-1.61-1.42-2.51-2.29-2.79-.87-.28-2.44-.43-3.78.16,1.05.59,1.67,1.33,2.47,1.76.98.52,2.2.73,3.59.87Z"/>
        <path class="cls-3" d="M150.86,46.92c-.46-1.61-1.69-2.91-2.56-3.13-1.25-.31-2.45,0-3.75.59.7.6,1.16,1.26,2,1.57,1.55.58,2.95.22,4.31.96Z"/>
        <path class="cls-3" d="M139.36,40.96c1.84.39,2.96,1.26,3.38,2.22.36.82.38,2.39-.08,3.75-.67-.97-1.46-1.5-1.93-2.26-.64-1.03-.84-2.5-1.37-3.71Z"/>
        <path class="cls-3" d="M144.74,36.02c1.45.41,2.78,1.7,3.02,2.58.24.88.12,2.15-.53,3.46-.58-.74-1.15-1.28-1.54-2.1-.47-1-.77-2.45-.95-3.95Z"/>
        <path class="cls-3" d="M132.73,71.06c-1.82-1.76-3.34-2.28-5.12-2.16-1.59.12-2.96,1.24-4.31,2.75,1.66.15,2.87.72,4.13.8,1.53.1,3.61-.48,5.3-1.39Z"/>
        <path class="cls-3" d="M116.83,67.7c1.95,1.26,3.85,2.37,4.66,3.34.81.98,1.39,2.64,1.32,4.67-1.16-.6-2.65-.99-3.63-1.79-1.41-1.14-2.25-3.81-2.35-6.23Z"/>
        <path class="cls-3" d="M132.34,76.31c-1.97-.68-3.48-.62-4.68-.22-1.21.4-3.07,1.52-4.08,3.28,1.65-.2,2.95.12,4.2-.06,1.52-.22,3.37-1.29,4.56-3Z"/>
        <path class="cls-3" d="M113.89,78.91c2.04-.45,4.01-.13,5.16.41,1.15.54,2.39,1.8,3.18,3.66-1.31-.04-2.37.07-3.59-.25-1.48-.4-3.56-2.1-4.75-3.82Z"/>
        <path class="cls-3" d="M133.16,55.91c-.16-1.54-.73-3.34-1.92-4.31-.91-.74-2.26-1.25-3.2-1.11.77.7,1.15,1.92,1.65,2.97.75,1.58,2.25,2.7,3.48,2.45Z"/>
      </g>
      <g>
        <path class="cls-2" d="M94.18,150.89c-.07-1.7.89-3.46,2.82-3.62.69-.06,1.87.14,2.6.96-.89-.18-1.87.87-2.6,1.35-.92.6-1.83.66-2.82,1.31Z"/>
        <path class="cls-2" d="M103.59,145.88c-.58.73-.86,1.58-1.2,2.06-.34.49-.95.78-1.87.99.13-.6.16-1.1.42-1.64.31-.65,1.46-1.49,2.66-1.41Z"/>
        <path class="cls-2" d="M96.78,152.56c.72-1.18,1.35-1.9,2.42-2.17,1.04-.27,2.09.04,3.13.74-.99.05-1.57.8-2.4,1.08-.85.29-1.74.26-3.14.35Z"/>
        <path class="cls-2" d="M100.61,155.49c.4-1.21,1.41-1.75,2.11-1.86s1.93-.02,2.89.6c-.88.32-1.45.81-2.13,1.04-.82.28-1.79.28-2.88.21Z"/>
        <path class="cls-2" d="M102.94,158.75c.56-1.18,1.67-2.03,2.37-2.09,1-.08,1.89.31,2.82.93-.62.37-1.06.82-1.74.96-1.27.25-2.3-.2-3.44.19Z"/>
        <path class="cls-2" d="M111.96,154.56c-1.47.07-2.43.6-2.88,1.28-.38.59-.59,1.79-.41,2.89.64-.66,1.31-.97,1.77-1.49.62-.71.97-1.82,1.52-2.68Z"/>
        <path class="cls-2" d="M109.03,151.13c-1.17.13-2.35.96-2.65,1.61-.3.65-.37,1.64-.03,2.73.54-.5,1.04-.84,1.45-1.42.49-.71.91-1.79,1.23-2.92Z"/>
        <path class="cls-2" d="M89.21,144.73c.11-1.01.82-1.59,1.35-1.79.54-.2,1.51-.33,2.35,0-.64.39-1,.87-1.49,1.16-.59.35-1.35.51-2.21.63Z"/>
        <path class="cls-2" d="M92.12,146.85c.24-1.02.98-1.85,1.51-2.01.77-.23,1.52-.06,2.35.28-.42.39-.69.81-1.2,1.03-.95.4-1.83.21-2.66.71Z"/>
        <path class="cls-2" d="M99.12,142.86c-1.13.29-1.81.86-2.05,1.46-.21.52-.17,1.5.15,2.33.39-.62.87-.97,1.15-1.45.37-.66.46-1.58.76-2.34Z"/>
        <path class="cls-2" d="M95.65,139.92c-.89.29-1.69,1.13-1.81,1.68-.13.56-.02,1.34.42,2.14.34-.48.68-.82.9-1.34.27-.63.42-1.54.49-2.48Z"/>
        <path class="cls-2" d="M104,161.41c1.09-1.14,2.02-1.5,3.13-1.47.99.03,1.87.69,2.75,1.6-1.03.13-1.77.52-2.55.6-.95.1-2.26-.21-3.33-.73Z"/>
        <path class="cls-2" d="M113.81,158.91c-1.18.83-2.34,1.57-2.82,2.2-.48.63-.8,1.68-.7,2.94.71-.4,1.62-.68,2.21-1.2.85-.74,1.3-2.42,1.31-3.93Z"/>
        <path class="cls-2" d="M104.38,164.66c1.21-.47,2.15-.47,2.91-.25s1.95.87,2.62,1.94c-1.03-.08-1.83.15-2.62.07-.95-.1-2.13-.72-2.91-1.75Z"/>
        <path class="cls-2" d="M115.92,165.81c-1.28-.23-2.5.02-3.2.38-.7.36-1.44,1.18-1.89,2.36.81-.06,1.48-.01,2.23-.25.91-.28,2.16-1.4,2.86-2.49Z"/>
        <path class="cls-2" d="M103.36,151.99c.06-.96.37-2.09,1.09-2.73.55-.48,1.38-.84,1.96-.77-.46.46-.67,1.22-.95,1.89-.43,1-1.33,1.74-2.1,1.61Z"/>
      </g>
      <g>
        <path class="cls-2" d="M45.19,192.51c-1.65.41-3.57-.18-4.11-2.04-.19-.66-.24-1.86.43-2.74,0,.91,1.23,1.66,1.84,2.28.77.78,1.01,1.66,1.85,2.5Z"/>
        <path class="cls-2" d="M38.71,184.05c.79.49,1.67.66,2.19.95.52.28.88.85,1.21,1.74-.61-.06-1.11-.03-1.68-.22-.68-.23-1.65-1.27-1.72-2.47Z"/>
        <path class="cls-2" d="M46.14,190.03c-1.26-.57-2.05-1.12-2.44-2.14-.39-1-.21-2.08.37-3.19.17.98.98,1.47,1.36,2.26.39.81.47,1.69.71,3.08Z"/>
        <path class="cls-2" d="M48.31,186.46c-1.2-.43-1.71-1.45-1.8-2.16-.09-.71.03-1.93.68-2.87.3.89.77,1.47.99,2.15.26.83.24,1.79.13,2.88Z"/>
        <path class="cls-2" d="M51.23,184.54c-1.1-.71-1.78-1.93-1.75-2.63.05-1.01.56-1.83,1.3-2.66.28.66.67,1.16.71,1.85.08,1.29-.51,2.25-.27,3.44Z"/>
        <path class="cls-2" d="M48.3,175.04c-.13,1.46.26,2.49.88,3.03.53.46,1.69.83,2.81.8-.57-.72-.78-1.43-1.24-1.96-.62-.71-1.67-1.2-2.45-1.87Z"/>
        <path class="cls-2" d="M44.17,177.92c.1,1.17.89,2.38,1.54,2.69.64.31,1.63.41,2.73.1-.48-.56-.81-1.07-1.38-1.49-.7-.51-1.76-.95-2.88-1.31Z"/>
        <path class="cls-2" d="M41.48,198.37c-.97.3-1.79-.11-2.19-.52-.4-.41-.91-1.25-.94-2.16.62.42,1.2.57,1.66.9.56.4,1.01,1.03,1.47,1.77Z"/>
        <path class="cls-2" d="M42.13,195.08c-1.04.1-2.07-.32-2.4-.77-.47-.65-.56-1.42-.51-2.31.51.27,1,.39,1.37.8.69.77.8,1.66,1.54,2.28Z"/>
        <path class="cls-2" d="M36.34,189.27c.51,1.05,1.2,1.6,1.84,1.71.55.1,1.5-.13,2.25-.61-.68-.26-1.12-.66-1.65-.83-.72-.23-1.64-.14-2.44-.28Z"/>
        <path class="cls-2" d="M34.47,194.41c.63.7,1.71,1.09,2.27.98.56-.11,1.24-.52,1.79-1.25-.57-.12-1.03-.29-1.59-.28-.69,0-1.58.24-2.47.55Z"/>
        <path class="cls-2" d="M53.59,184c-.88-1.31-1.03-2.3-.76-3.37.25-.96,1.08-1.68,2.16-2.33-.09,1.03.12,1.84.03,2.62-.11.95-.69,2.16-1.44,3.09Z"/>
        <path class="cls-2" d="M53.28,173.88c.56,1.33,1.02,2.62,1.53,3.22s1.47,1.14,2.72,1.32c-.24-.78-.32-1.73-.69-2.42-.54-.99-2.08-1.8-3.55-2.13Z"/>
        <path class="cls-2" d="M56.85,184.34c-.2-1.28,0-2.2.38-2.89.38-.69,1.27-1.72,2.46-2.14-.3.99-.25,1.82-.5,2.57-.3.91-1.16,1.92-2.34,2.46Z"/>
        <path class="cls-2" d="M59.37,173.28c-.5,1.2-.52,2.44-.32,3.21.2.76.84,1.66,1.89,2.35.12-.81.31-1.45.24-2.23-.08-.95-.9-2.41-1.81-3.33Z"/>
        <path class="cls-2" d="M44.89,183.62c-.96-.02-2.11-.28-2.77-.97-.51-.53-.89-1.34-.85-1.93.48.44,1.25.61,1.92.87,1.02.38,1.79,1.26,1.7,2.03Z"/>
      </g>
      <g>
        <path class="cls-2" d="M52.12,38.56c-.07-1.7.89-3.46,2.82-3.62.69-.06,1.87.14,2.6.96-.89-.18-1.87.87-2.6,1.35-.92.6-1.83.66-2.82,1.31Z"/>
        <path class="cls-2" d="M61.53,33.55c-.58.73-.86,1.58-1.2,2.06-.34.49-.95.78-1.87.99.13-.6.16-1.1.42-1.64.31-.65,1.46-1.49,2.66-1.41Z"/>
        <path class="cls-2" d="M54.72,40.23c.72-1.18,1.35-1.9,2.42-2.17,1.04-.27,2.09.04,3.13.74-.99.05-1.57.8-2.4,1.08-.85.29-1.74.26-3.14.35Z"/>
        <path class="cls-2" d="M58.55,43.16c.4-1.21,1.41-1.75,2.11-1.86.71-.11,1.93-.02,2.89.6-.88.32-1.45.81-2.13,1.04-.82.28-1.79.28-2.88.21Z"/>
        <path class="cls-2" d="M60.88,46.42c.56-1.18,1.67-2.03,2.37-2.09,1-.08,1.89.31,2.82.93-.62.37-1.06.82-1.74.96-1.27.25-2.3-.2-3.44.19Z"/>
        <path class="cls-2" d="M69.9,42.23c-1.47.07-2.43.6-2.88,1.28-.38.59-.59,1.79-.41,2.89.64-.66,1.31-.97,1.77-1.49.62-.71.97-1.82,1.52-2.68Z"/>
        <path class="cls-2" d="M66.97,38.79c-1.17.13-2.35.96-2.65,1.61-.3.65-.37,1.64-.03,2.73.54-.5,1.04-.84,1.45-1.42.49-.71.91-1.79,1.23-2.92Z"/>
        <path class="cls-2" d="M47.15,32.4c.11-1.01.82-1.59,1.35-1.79.54-.2,1.51-.33,2.35,0-.64.39-1,.87-1.49,1.16-.59.35-1.35.51-2.21.63Z"/>
        <path class="cls-2" d="M50.06,34.52c.24-1.02.98-1.85,1.51-2.01.77-.23,1.52-.06,2.35.28-.42.39-.69.81-1.2,1.03-.95.4-1.83.21-2.66.71Z"/>
        <path class="cls-2" d="M57.06,30.53c-1.13.29-1.81.86-2.05,1.46-.21.52-.17,1.5.15,2.33.39-.62.87-.97,1.15-1.45.37-.66.46-1.58.76-2.34Z"/>
        <path class="cls-2" d="M53.59,27.58c-.89.29-1.69,1.13-1.81,1.68-.13.56-.02,1.34.42,2.14.34-.48.68-.82.9-1.34.27-.63.42-1.54.49-2.48Z"/>
        <path class="cls-2" d="M61.94,49.07c1.09-1.14,2.02-1.5,3.13-1.47.99.03,1.87.69,2.75,1.6-1.03.13-1.77.52-2.55.6-.95.1-2.26-.21-3.33-.73Z"/>
        <path class="cls-2" d="M71.75,46.58c-1.18.83-2.34,1.57-2.82,2.2-.48.63-.8,1.68-.7,2.94.71-.4,1.62-.68,2.21-1.2.85-.74,1.3-2.42,1.31-3.93Z"/>
        <path class="cls-2" d="M62.32,52.33c1.21-.47,2.15-.47,2.91-.25s1.95.87,2.62,1.94c-1.03-.08-1.83.15-2.62.07-.95-.1-2.13-.72-2.91-1.75Z"/>
        <path class="cls-2" d="M73.86,53.48c-1.28-.23-2.5.02-3.2.38-.7.36-1.44,1.18-1.89,2.36.81-.06,1.48-.01,2.23-.25.91-.28,2.16-1.4,2.86-2.49Z"/>
        <path class="cls-2" d="M61.3,39.66c.06-.96.37-2.09,1.09-2.73.55-.48,1.38-.84,1.96-.77-.46.46-.67,1.22-.95,1.89-.43,1-1.33,1.74-2.1,1.61Z"/>
      </g>
      <g>
        <path class="cls-2" d="M54.74,9.52c-1.33,1.07-2.01,2.95-.86,4.51.41.56,1.33,1.31,2.44,1.31-.72-.55-.58-1.98-.7-2.84-.16-1.09-.71-1.81-.87-2.98Z"/>
        <path class="cls-2" d="M57.18,19.89c.16-.92.62-1.68.76-2.26s-.04-1.22-.49-2.06c-.37.49-.72.85-.96,1.39-.29.66-.15,2.08.69,2.93Z"/>
        <path class="cls-2" d="M57.71,10.37c-.42,1.32-.54,2.27-.04,3.25.49.96,1.41,1.55,2.62,1.86-.61-.78-.44-1.71-.77-2.52-.34-.83-.95-1.48-1.81-2.59Z"/>
        <path class="cls-2" d="M62.44,11.31c-.65,1.1-.39,2.21,0,2.82s1.26,1.47,2.36,1.77c-.34-.88-.35-1.63-.62-2.29-.33-.8-.96-1.53-1.74-2.3Z"/>
        <path class="cls-2" d="M66.42,10.92c-.52,1.2-.42,2.59,0,3.15.6.81,1.48,1.22,2.56,1.5-.13-.71-.08-1.34-.43-1.94-.65-1.12-1.67-1.59-2.12-2.72Z"/>
        <path class="cls-2" d="M69.23,20.45c-.91-1.15-1.16-2.22-.94-3.01.19-.67.96-1.63,1.91-2.22-.08.91.14,1.63.05,2.32-.12.94-.73,1.93-1.01,2.91Z"/>
        <path class="cls-2" d="M64.71,20.52c-.67-.97-.83-2.4-.54-3.05s.99-1.36,2.04-1.82c-.01.74.06,1.34-.11,2.03-.21.84-.75,1.86-1.38,2.85Z"/>
        <path class="cls-2" d="M46.83,9.84c-.68.75-.66,1.67-.45,2.2.2.53.75,1.35,1.56,1.76-.12-.74,0-1.33-.12-1.89-.13-.68-.51-1.35-.99-2.08Z"/>
        <path class="cls-2" d="M50.35,10.64c-.6.85-.75,1.96-.51,2.46.34.73.96,1.19,1.76,1.58.01-.57.16-1.06-.02-1.58-.33-.98-1.05-1.51-1.22-2.46Z"/>
        <path class="cls-2" d="M51.96,18.53c-.53-1.04-.55-1.92-.25-2.5.25-.5,1.01-1.12,1.85-1.43-.21.7-.15,1.29-.34,1.82-.25.71-.88,1.39-1.26,2.11Z"/>
        <path class="cls-2" d="M47.46,17.87c-.37-.86-.27-2.01.07-2.47.33-.46.99-.9,1.88-1.1-.13.57-.17,1.05-.42,1.57-.3.62-.88,1.33-1.54,2Z"/>
        <path class="cls-2" d="M69.12,9.97c-.14,1.57.2,2.51.96,3.32.68.73,1.76.95,3.02,1.01-.58-.86-.77-1.67-1.23-2.31-.55-.78-1.65-1.56-2.75-2.02Z"/>
        <path class="cls-2" d="M73.72,18.98c-.15-1.44-.36-2.79-.21-3.56.16-.77.73-1.71,1.74-2.47.17.8.56,1.67.55,2.45,0,1.13-.96,2.58-2.09,3.58Z"/>
        <path class="cls-2" d="M71.82,8.1c.44,1.22,1.06,1.93,1.73,2.35.66.43,1.94.89,3.19.69-.74-.72-1.1-1.48-1.67-2.01-.7-.65-1.94-1.13-3.24-1.03Z"/>
        <path class="cls-2" d="M80.3,16.01c-1.01-.81-1.63-1.89-1.82-2.66-.19-.77-.06-1.86.53-2.97.49.65.96,1.12,1.28,1.84.39.87.38,2.55.01,3.79Z"/>
        <path class="cls-2" d="M61.62,15.69c-.68.68-1.33,1.66-1.33,2.62,0,.73.28,1.59.72,1.98.04-.65.48-1.31.79-1.96.47-.98.43-2.15-.17-2.64Z"/>
      </g>
      <g>
        <path class="cls-3" d="M41.89,76.99c1.69-.2,3.52.64,3.82,2.55.11.68,0,1.87-.77,2.66.12-.9-1.01-1.8-1.53-2.49-.66-.87-.79-1.77-1.51-2.71Z"/>
        <path class="cls-3" d="M47.37,86.14c-.74-.57-1.59-.82-2.09-1.15-.49-.33-.8-.93-1.03-1.85.6.12,1.11.14,1.65.38.66.29,1.52,1.43,1.47,2.63Z"/>
        <path class="cls-3" d="M40.89,79.15c1.13.79,1.8,1.48,2,2.56.19,1.06-.18,2.08-.95,3.07.01-.99-.69-1.62-.92-2.47-.23-.87-.14-1.75-.13-3.15Z"/>
        <path class="cls-3" d="M38.19,81.99c1.05.72,1.28,1.85,1.18,2.56-.1.71-.53,1.86-1.4,2.6-.06-.94-.37-1.62-.39-2.34-.03-.86.24-1.79.62-2.82Z"/>
        <path class="cls-3" d="M35.18,82.84c.78,1.05,1,2.43.72,3.07-.4.92-1.16,1.52-2.15,2.04-.04-.72-.23-1.32-.03-1.99.38-1.24,1.26-1.93,1.45-3.13Z"/>
        <path class="cls-3" d="M34.62,92.76c.63-1.33.62-2.43.23-3.15-.34-.61-1.3-1.37-2.36-1.73.28.87.23,1.62.48,2.27.33.89,1.15,1.71,1.65,2.6Z"/>
        <path class="cls-3" d="M39.65,91.44c.29-1.14-.05-2.54-.56-3.05-.5-.51-1.4-.93-2.54-1,.27.68.41,1.27.81,1.86.49.71,1.35,1.48,2.29,2.19Z"/>
        <path class="cls-3" d="M46.29,71.72c1-.17,1.76.34,2.1.8.34.46.74,1.35.65,2.26-.56-.5-1.12-.72-1.53-1.11-.5-.47-.87-1.15-1.22-1.95Z"/>
        <path class="cls-3" d="M45.15,74.88c1.04.02,2.02.55,2.29,1.04.39.7.39,1.47.24,2.35-.47-.33-.95-.5-1.27-.95-.6-.84-.6-1.74-1.27-2.44Z"/>
        <path class="cls-3" d="M50.36,81.07c-.45-1.08-1.1-1.67-1.74-1.82-.54-.13-1.51.04-2.28.47.67.3,1.08.73,1.6.93.7.28,1.63.24,2.42.42Z"/>
        <path class="cls-3" d="M52.72,76.57c-.53-.77-1.55-1.3-2.12-1.27-.57.03-1.3.35-1.94,1,.55.2.98.42,1.54.49.68.08,1.6-.03,2.52-.22Z"/>
        <path class="cls-3" d="M32.33,82.53c.5,1.5.38,2.49-.18,3.45-.5.86-1.49,1.32-2.71,1.67.37-.97.37-1.8.67-2.53.36-.88,1.25-1.89,2.22-2.59Z"/>
        <path class="cls-3" d="M29.33,92.62c-.03-1.44,0-2.81-.25-3.56-.25-.75-.94-1.6-2.04-2.23-.06.81-.34,1.72-.24,2.5.14,1.12,1.28,2.44,2.53,3.28Z"/>
        <path class="cls-3" d="M29.28,81.33c-.15,1.29-.59,2.12-1.14,2.68-.55.57-1.68,1.31-2.94,1.4.56-.87.73-1.69,1.17-2.34.53-.79,1.63-1.54,2.92-1.74Z"/>
        <path class="cls-3" d="M22.44,90.9c.93-.91,1.44-2.04,1.55-2.83.11-.78-.12-1.86-.82-2.91-.42.7-.85,1.21-1.09,1.96-.3.91-.12,2.57.37,3.77Z"/>
        <path class="cls-3" d="M40.82,85.63c.93.23,2,.73,2.49,1.55.38.62.58,1.5.41,2.07-.37-.54-1.08-.87-1.69-1.27-.91-.6-1.47-1.62-1.21-2.35Z"/>
      </g>
      <g>
        <path class="cls-3" d="M22.82,148.54c1.7-.04,3.4-1.11,3.44-3.05.01-.69-.26-1.85-1.13-2.53.24.88-.75,1.92-1.18,2.68-.54.96-.54,1.86-1.13,2.9Z"/>
        <path class="cls-3" d="M27.22,138.83c-.69.63-1.52.96-1.98,1.33s-.72.99-.87,1.93c.59-.17,1.09-.23,1.61-.52.63-.35,1.39-1.55,1.24-2.74Z"/>
        <path class="cls-3" d="M20.99,146.05c1.13-.79,1.81-1.47,2.01-2.55.2-1.06-.17-2.08-.94-3.07.01.99-.7,1.62-.93,2.47-.24.87-.15,1.75-.14,3.15Z"/>
        <path class="cls-3" d="M17.82,142.42c1.18-.47,1.66-1.52,1.72-2.23.06-.71-.1-1.93-.79-2.84-.27.9-.72,1.5-.91,2.19-.23.83-.17,1.8-.03,2.88Z"/>
        <path class="cls-3" d="M14.42,140.3c1.15-.63,1.92-1.8,1.93-2.5.02-1.01-.43-1.86-1.11-2.75-.33.64-.76,1.11-.85,1.8-.17,1.28.35,2.28.03,3.45Z"/>
        <path class="cls-3" d="M18.02,131.03c.02,1.47-.44,2.47-1.09,2.96-.56.42-1.75.71-2.86.59.62-.68.88-1.37,1.38-1.86.67-.67,1.76-1.08,2.58-1.69Z"/>
        <path class="cls-3" d="M21.64,133.74c-.06,1.17-.8,2.41-1.43,2.75-.63.34-1.62.47-2.73.2.46-.57.77-1.1,1.33-1.54.68-.54,1.73-1.02,2.83-1.41Z"/>
        <path class="cls-3" d="M29.28,153.1c1-.18,1.54-.92,1.7-1.47.16-.55.23-1.52-.16-2.35-.35.66-.8,1.06-1.06,1.56-.31.62-.42,1.38-.49,2.25Z"/>
        <path class="cls-3" d="M26.98,150.33c1-.31,1.79-1.09,1.91-1.64.18-.78-.03-1.53-.43-2.33-.36.45-.77.74-.95,1.27-.34.97-.09,1.84-.53,2.7Z"/>
        <path class="cls-3" d="M30.52,143.09c-.22,1.15-.74,1.86-1.33,2.14-.5.24-1.48.27-2.33,0,.59-.43.91-.93,1.38-1.24.63-.41,1.55-.56,2.29-.9Z"/>
        <path class="cls-3" d="M33.68,146.36c-.23.91-1.02,1.75-1.56,1.92s-1.34.11-2.16-.28c.45-.37.78-.73,1.28-.99.62-.31,1.51-.52,2.44-.65Z"/>
        <path class="cls-3" d="M11.7,139.41c1.07-1.16,1.37-2.11,1.27-3.22-.1-.99-.81-1.82-1.78-2.64-.07,1.03-.4,1.8-.44,2.58-.04.95.35,2.24.95,3.28Z"/>
        <path class="cls-3" d="M13.56,129.46c-.76,1.23-1.41,2.43-2.01,2.95-.6.52-1.62.91-2.89.89.35-.73.58-1.66,1.06-2.28.69-.89,2.34-1.46,3.84-1.56Z"/>
        <path class="cls-3" d="M8.43,139.24c.4-1.24.33-2.17.07-2.92s-.99-1.89-2.1-2.49c.15,1.03-.03,1.84.1,2.62.16.94.85,2.08,1.93,2.79Z"/>
        <path class="cls-3" d="M6.54,127.8c.31,1.26.14,2.49-.18,3.22-.32.72-1.08,1.51-2.23,2.04,0-.81-.08-1.48.1-2.24.22-.93,1.26-2.25,2.3-3.01Z"/>
        <path class="cls-3" d="M21.13,139.45c.95-.12,2.07-.5,2.65-1.26.45-.58.75-1.43.64-2.01-.43.49-1.18.74-1.82,1.07-.97.49-1.65,1.44-1.47,2.2Z"/>
      </g>
      <g>
        <path class="cls-2" d="M157.66,227.51c.14,1.7-.76,3.49-2.69,3.73-.68.08-1.87-.07-2.63-.87.9.15,1.84-.94,2.55-1.44.9-.63,1.8-.73,2.77-1.42Z"/>
        <path class="cls-2" d="M148.44,232.85c.56-.75.8-1.61,1.12-2.1.33-.5.92-.81,1.84-1.06-.11.6-.12,1.11-.36,1.65-.28.66-1.41,1.54-2.6,1.51Z"/>
        <path class="cls-2" d="M155,225.93c-.67,1.21-1.28,1.95-2.34,2.26-1.03.3-2.09.04-3.15-.63.99-.09,1.54-.86,2.36-1.17.84-.32,1.73-.33,3.12-.46Z"/>
        <path class="cls-2" d="M151.07,223.15c-.35,1.22-1.34,1.8-2.04,1.94-.7.13-1.93.09-2.91-.5.87-.36,1.42-.87,2.09-1.12.81-.31,1.78-.35,2.87-.32Z"/>
        <path class="cls-2" d="M148.62,219.97c-.51,1.2-1.59,2.09-2.29,2.17-1,.12-1.9-.24-2.85-.83.6-.39,1.02-.86,1.7-1.02,1.26-.3,2.3.12,3.43-.32Z"/>
        <path class="cls-2" d="M139.76,224.49c1.46-.12,2.41-.69,2.83-1.39.36-.6.53-1.81.3-2.91-.61.68-1.28,1.02-1.72,1.56-.6.73-.9,1.86-1.42,2.74Z"/>
        <path class="cls-2" d="M142.81,227.82c1.16-.18,2.32-1.04,2.59-1.7.27-.66.31-1.65-.07-2.73-.52.52-1.01.87-1.39,1.47-.46.73-.84,1.82-1.12,2.96Z"/>
        <path class="cls-2" d="M162.85,233.47c-.08,1.01-.76,1.62-1.29,1.84-.53.22-1.49.38-2.35.08.62-.42.97-.91,1.45-1.21.58-.37,1.33-.56,2.19-.71Z"/>
        <path class="cls-2" d="M159.87,231.46c-.21,1.02-.91,1.89-1.44,2.06-.76.25-1.52.12-2.36-.19.41-.4.66-.84,1.17-1.07.94-.43,1.82-.28,2.63-.8Z"/>
        <path class="cls-2" d="M153.02,235.72c1.12-.33,1.77-.92,1.99-1.54.19-.53.12-1.5-.23-2.32-.37.63-.84,1-1.09,1.49-.35.67-.4,1.59-.67,2.37Z"/>
        <path class="cls-2" d="M156.59,238.53c.88-.32,1.64-1.19,1.75-1.75.11-.56-.03-1.34-.5-2.12-.33.49-.65.85-.85,1.38-.25.64-.36,1.56-.4,2.49Z"/>
        <path class="cls-2" d="M147.46,217.36c-1.04,1.18-1.96,1.58-3.07,1.58-.99,0-1.9-.62-2.8-1.5,1.02-.17,1.75-.58,2.52-.69.95-.13,2.26.13,3.35.61Z"/>
        <path class="cls-2" d="M137.75,220.21c1.15-.88,2.28-1.65,2.73-2.3.46-.65.74-1.71.59-2.96-.69.43-1.59.74-2.17,1.28-.82.78-1.21,2.47-1.16,3.98Z"/>
        <path class="cls-2" d="M146.96,214.12c-1.19.52-2.13.55-2.9.36s-1.98-.8-2.69-1.84c1.04.04,1.83-.22,2.61-.16.95.06,2.15.64,2.98,1.64Z"/>
        <path class="cls-2" d="M135.39,213.39c1.29.18,2.5-.11,3.18-.5.69-.39,1.4-1.23,1.8-2.43-.81.09-1.48.07-2.22.33-.9.32-2.11,1.48-2.77,2.6Z"/>
        <path class="cls-2" d="M148.45,226.74c-.02.96-.29,2.11-.99,2.77-.53.5-1.34.89-1.93.84.45-.47.62-1.25.88-1.92.39-1.02,1.27-1.78,2.04-1.69Z"/>
      </g>
      <g>
        <path class="cls-3" d="M167.02,255.4c.93-.87.99-2.02.79-2.7-.2-.69-.8-1.76-1.77-2.36.08.93-.12,1.66-.04,2.37.09.86.5,1.74,1.03,2.69Z"/>
        <path class="cls-3" d="M163.08,254.67c.84-1.01,1.13-2.37.89-3.03-.35-.94-1.08-1.58-2.04-2.15-.07.72-.3,1.31-.13,1.98.31,1.25,1.16,2,1.28,3.2Z"/>
        <path class="cls-3" d="M163.05,244.73c.56,1.36.49,2.46.06,3.15-.37.6-1.37,1.3-2.45,1.6.33-.86.32-1.6.6-2.24.38-.87,1.24-1.65,1.78-2.51Z"/>
        <path class="cls-3" d="M167.4,245.93c.37,1.11.13,2.54-.33,3.08-.46.54-1.33,1.03-2.46,1.18.22-.7.32-1.3.67-1.91.44-.75,1.24-1.58,2.12-2.35Z"/>
        <path class="cls-3" d="M160.22,254.84c.57-1.47.51-2.47,0-3.46-.45-.89-1.42-1.4-2.62-1.81.32.99.28,1.82.54,2.56.31.9,1.15,1.96,2.08,2.7Z"/>
        <path class="cls-3" d="M158.32,244.9c-.26,1.42-.43,2.78-.8,3.48-.37.7-1.18,1.44-2.36,1.88.06-.81-.07-1.76.15-2.51.32-1.08,1.64-2.21,3.01-2.85Z"/>
        <path class="cls-3" d="M157.12,255.87c-.08-1.3-.48-2.14-1-2.74-.52-.6-1.61-1.4-2.87-1.55.51.9.64,1.72,1.05,2.4.49.82,1.55,1.62,2.82,1.9Z"/>
        <path class="cls-3" d="M151.18,245.91c.75,1.06,1.04,2.27,1.01,3.06-.03.79-.46,1.8-1.33,2.71-.29-.76-.61-1.34-.72-2.12-.13-.95.35-2.55,1.04-3.65Z"/>
      </g>
      <g>
        <path class="cls-3" d="M5.66,259.27c1.57-.66,2.76-2.28,2.09-4.09-.24-.65-.92-1.63-1.97-1.94.54.73,0,2.07-.12,2.92-.15,1.09.17,1.93,0,3.11Z"/>
        <path class="cls-3" d="M6.21,248.63c-.41.84-1.06,1.44-1.36,1.96-.29.52-.3,1.19-.1,2.12.49-.37.93-.62,1.31-1.07.46-.55.73-1.95.15-3.01Z"/>
        <path class="cls-3" d="M3.05,257.63c.77-1.15,1.15-2.03.94-3.11-.2-1.06-.92-1.88-2-2.52.37.92-.06,1.76.04,2.64.1.89.5,1.68,1.02,2.99Z"/>
        <path class="cls-3" d="M13.34,261.17c.87-.53,1.1-1.42,1.05-1.99-.05-.57-.34-1.5-1-2.13-.09.74-.36,1.28-.42,1.84-.06.69.11,1.44.37,2.27Z"/>
        <path class="cls-3" d="M10.19,259.43c.82-.65,1.26-1.67,1.18-2.22-.12-.79-.59-1.41-1.25-2.01-.17.55-.44.97-.42,1.53.04,1.03.58,1.75.49,2.71Z"/>
        <path class="cls-3" d="M10.84,251.39c.22,1.15-.01,2-.46,2.47-.38.41-1.28.79-2.17.86.39-.62.51-1.2.83-1.65.44-.62,1.23-1.09,1.8-1.68Z"/>
        <path class="cls-3" d="M14.97,253.29c.11.93-.31,2-.76,2.36-.45.35-1.21.59-2.12.53.28-.51.46-.97.83-1.39.46-.51,1.22-1.03,2.04-1.5Z"/>
        <path class="cls-3" d="M.77,251.43c.84-.46,1.74-1.22,2.01-2.14.21-.7.17-1.6-.13-2.11-.22.61-.82,1.12-1.31,1.66-.73.81-1.01,1.94-.57,2.59Z"/>
      </g>
      <g>
        <path class="cls-3" d="M90.6,269.14c-1.69.73-2.94,2.51-2.19,4.46.27.7,1.02,1.75,2.17,2.07-.6-.78-.04-2.23.08-3.16.15-1.18-.22-2.09-.06-3.36Z"/>
        <path class="cls-3" d="M90.19,280.65c.43-.91,1.13-1.58,1.44-2.14.31-.57.31-1.29.08-2.29-.52.41-.99.68-1.4,1.18-.49.61-.75,2.12-.11,3.25Z"/>
        <path class="cls-3" d="M93.45,270.87c-.81,1.25-1.21,2.21-.96,3.38.24,1.14,1.03,2.01,2.2,2.69-.42-.99.03-1.91-.08-2.85-.12-.97-.57-1.81-1.15-3.21Z"/>
        <path class="cls-3" d="M98.11,273.21c-.99.96-1.04,2.2-.81,2.93.23.74.89,1.89,1.95,2.52-.1-1.01.1-1.8,0-2.56-.12-.93-.57-1.87-1.16-2.9Z"/>
        <path class="cls-3" d="M102.38,273.93c-.89,1.1-1.18,2.58-.91,3.29.39,1.01,1.19,1.69,2.24,2.29.07-.78.3-1.42.11-2.14-.36-1.35-1.29-2.14-1.44-3.44Z"/>
        <path class="cls-3" d="M102.59,284.67c-.63-1.46-.57-2.65-.12-3.41.39-.65,1.46-1.42,2.62-1.77-.34.93-.32,1.74-.61,2.43-.4.94-1.31,1.8-1.89,2.75Z"/>
        <path class="cls-3" d="M97.86,283.46c-.42-1.2-.19-2.74.31-3.34.49-.6,1.42-1.13,2.64-1.32-.23.76-.32,1.41-.7,2.08-.46.81-1.31,1.73-2.25,2.58Z"/>
        <path class="cls-3" d="M82.26,267.22c-.93.59-1.16,1.55-1.1,2.16.06.61.39,1.62,1.12,2.28.08-.8.37-1.39.42-2,.06-.74-.14-1.55-.44-2.45Z"/>
        <path class="cls-3" d="M85.7,269.05c-.87.72-1.34,1.83-1.24,2.42.14.86.66,1.51,1.38,2.15.18-.6.46-1.06.43-1.66-.06-1.11-.66-1.88-.57-2.92Z"/>
        <path class="cls-3" d="M85.13,277.75c-.25-1.24-.02-2.16.45-2.68.41-.45,1.37-.88,2.33-.96-.42.67-.53,1.31-.87,1.8-.46.67-1.32,1.2-1.92,1.84Z"/>
        <path class="cls-3" d="M80.63,275.77c-.14-1,.3-2.17.78-2.56.48-.39,1.29-.66,2.28-.61-.3.56-.48,1.05-.88,1.51-.49.56-1.3,1.14-2.18,1.65Z"/>
        <path class="cls-3" d="M105.47,273.71c-.6,1.6-.51,2.68.05,3.74.5.95,1.56,1.49,2.86,1.91-.36-1.06-.33-1.96-.62-2.76-.35-.97-1.27-2.1-2.29-2.89Z"/>
        <path class="cls-3" d="M107.69,284.42c.25-1.54.42-3.01.8-3.78.38-.76,1.25-1.57,2.52-2.07-.05.88.1,1.9-.12,2.72-.32,1.18-1.74,2.41-3.2,3.13Z"/>
        <path class="cls-3" d="M108.81,272.53c.11,1.4.56,2.31,1.13,2.95.57.63,1.77,1.48,3.12,1.63-.57-.97-.72-1.85-1.17-2.57-.54-.88-1.7-1.73-3.08-2Z"/>
        <path class="cls-3" d="M115.39,283.2c-.83-1.14-1.16-2.44-1.14-3.29s.46-1.96,1.4-2.95c.33.82.69,1.44.81,2.28.16,1.02-.34,2.76-1.07,3.96Z"/>
        <path class="cls-3" d="M96.01,277.53c-.9.51-1.86,1.35-2.14,2.35-.21.76-.16,1.73.18,2.27.22-.67.87-1.23,1.38-1.82.77-.89,1.06-2.12.57-2.8Z"/>
      </g>
      <g>
        <path class="cls-3" d="M109.51,42.38c1.06-1.51,1.21-3.67-.45-4.94-.59-.45-1.78-.96-2.92-.64.92.35,1.19,1.89,1.58,2.74.49,1.08,1.27,1.67,1.8,2.84Z"/>
        <path class="cls-3" d="M103.87,32.33c.11,1-.14,1.93-.11,2.58.03.64.41,1.26,1.13,1.99.23-.62.49-1.1.58-1.74.1-.77-.46-2.21-1.59-2.84Z"/>
        <path class="cls-3" d="M106.17,42.38c.04-1.49-.12-2.52-.93-3.39-.79-.85-1.92-1.19-3.28-1.15.87.63.96,1.65,1.55,2.39.6.76,1.43,1.25,2.65,2.15Z"/>
        <path class="cls-3" d="M100.98,42.81c.35-1.33-.26-2.41-.84-2.93-.58-.51-1.74-1.15-2.98-1.14.61.81.85,1.59,1.33,2.19.58.73,1.46,1.3,2.49,1.87Z"/>
        <path class="cls-3" d="M96.95,44.41c.18-1.4-.33-2.82-.94-3.28-.86-.66-1.9-.82-3.1-.8.35.7.48,1.37,1.02,1.89,1.01.97,2.21,1.16,3.02,2.19Z"/>
        <path class="cls-3" d="M91.19,35.34c1.29.92,1.87,1.96,1.88,2.85,0,.76-.51,1.98-1.32,2.87-.19-.97-.63-1.65-.74-2.39-.15-1.01.18-2.22.18-3.33Z"/>
        <path class="cls-3" d="M95.86,33.92c.98.8,1.58,2.24,1.47,3.01-.11.77-.63,1.71-1.57,2.5-.2-.77-.46-1.37-.49-2.14-.03-.93.22-2.16.59-3.37Z"/>
        <path class="cls-3" d="M117.62,39.68c.49-.99.19-1.93-.18-2.42-.37-.49-1.18-1.18-2.14-1.37.35.73.41,1.38.68,1.92.34.66.93,1.25,1.65,1.86Z"/>
        <path class="cls-3" d="M113.74,39.9c.37-1.07.19-2.26-.2-2.71-.57-.66-1.35-.95-2.3-1.12.16.6.15,1.15.5,1.64.63.92,1.54,1.26,2.01,2.19Z"/>
        <path class="cls-3" d="M109.7,32.18c.86.93,1.14,1.83,1.01,2.53-.12.59-.71,1.46-1.49,2.03,0-.79-.23-1.39-.19-1.99.04-.81.5-1.71.68-2.57Z"/>
        <path class="cls-3" d="M114.57,31.53c.64.79.88,2.01.67,2.59-.21.58-.76,1.23-1.63,1.7-.04-.63-.14-1.15-.04-1.75.13-.73.52-1.65,1-2.54Z"/>
        <path class="cls-3" d="M94.43,46.21c-.32-1.67-.96-2.55-1.99-3.16-.92-.55-2.11-.46-3.44-.15.86.72,1.3,1.5,1.97,2.03.81.64,2.18,1.13,3.46,1.28Z"/>
        <path class="cls-3" d="M86.96,38.22c.59,1.45,1.21,2.79,1.28,3.64.07.85-.25,1.99-1.08,3.08-.41-.78-1.08-1.57-1.31-2.38-.34-1.17.23-2.97,1.11-4.34Z"/>
        <path class="cls-3" d="M92.19,48.95c-.82-1.14-1.68-1.68-2.5-1.93-.82-.25-2.28-.35-3.52.23.99.53,1.58,1.21,2.34,1.59.92.47,2.35.59,3.67.11Z"/>
        <path class="cls-3" d="M81.02,43.26c1.3.54,2.26,1.48,2.69,2.22.43.74.62,1.91.34,3.25-.7-.53-1.34-.88-1.88-1.53-.66-.79-1.15-2.53-1.15-3.94Z"/>
        <path class="cls-3" d="M100.52,38.02c.51-.91.89-2.12.6-3.12-.22-.76-.76-1.56-1.34-1.85.16.69-.11,1.5-.24,2.27-.2,1.16.2,2.36.97,2.69Z"/>
      </g>
      <g>
        <path class="cls-3" d="M16.84,232.01c-1.56,1.33-3.94,1.71-5.52,0-.56-.61-1.24-1.87-1-3.17.48.98,2.21,1.13,3.19,1.47,1.25.43,1.97,1.24,3.32,1.7Z"/>
        <path class="cls-3" d="M5.16,226.78c1.12.02,2.12-.35,2.84-.38.72-.03,1.43.32,2.32,1.05-.66.32-1.17.66-1.86.81-.84.19-2.49-.29-3.3-1.48Z"/>
        <path class="cls-3" d="M16.52,228.32c-1.65.19-2.8.12-3.84-.69-1.02-.79-1.5-2.01-1.6-3.51.78.9,1.92.9,2.8,1.48.9.59,1.53,1.45,2.64,2.72Z"/>
        <path class="cls-3" d="M16.47,222.53c-1.44.52-2.7-.04-3.32-.63-.62-.59-1.44-1.81-1.56-3.18.96.6,1.84.78,2.56,1.25.87.57,1.59,1.48,2.32,2.57Z"/>
        <path class="cls-3" d="M17.84,217.92c-1.53.34-3.15-.09-3.72-.71-.82-.89-1.1-2.02-1.19-3.36.81.31,1.56.39,2.19.94,1.17,1.02,1.5,2.33,2.72,3.12Z"/>
        <path class="cls-3" d="M7.23,212.45c1.15,1.34,2.36,1.87,3.34,1.79.84-.07,2.14-.76,3.05-1.74-1.1-.12-1.89-.53-2.72-.58-1.13-.07-2.44.43-3.66.53Z"/>
        <path class="cls-3" d="M6.13,217.76c.99,1.01,2.64,1.53,3.48,1.33s1.83-.86,2.61-1.99c-.87-.15-1.56-.37-2.42-.32-1.04.06-2.36.46-3.67.99Z"/>
        <path class="cls-3" d="M14.67,241.26c-1.04.64-2.11.4-2.7.04-.58-.36-1.42-1.19-1.73-2.24.84.31,1.56.31,2.2.56.77.31,1.48.9,2.23,1.64Z"/>
        <path class="cls-3" d="M14.53,236.94c-1.14.52-2.48.44-3.02.05-.78-.56-1.18-1.4-1.47-2.43.68.11,1.28.06,1.86.38,1.08.61,1.55,1.58,2.63,2Z"/>
        <path class="cls-3" d="M5.59,233.25c1.11.86,2.14,1.08,2.9.86.64-.19,1.55-.94,2.1-1.85-.88.08-1.56-.11-2.22-.02-.9.13-1.84.73-2.78,1.01Z"/>
        <path class="cls-3" d="M5.35,238.7c.93.63,2.31.77,2.93.48.62-.29,1.29-.97,1.72-1.97-.7.02-1.28-.04-1.94.13-.8.21-1.77.74-2.71,1.36Z"/>
        <path class="cls-3" d="M19.58,214.95c-1.88-.19-2.92-.81-3.7-1.88-.7-.97-.72-2.29-.5-3.79.88.88,1.79,1.29,2.45,1.97.79.83,1.47,2.29,1.76,3.7Z"/>
        <path class="cls-3" d="M9.99,207.49c1.66.5,3.21,1.06,4.16,1.05.95,0,2.18-.48,3.3-1.5-.9-.38-1.84-1.03-2.77-1.21-1.33-.25-3.26.55-4.69,1.66Z"/>
        <path class="cls-3" d="M22.39,212.19c-1.34-.8-2.03-1.69-2.38-2.57-.35-.88-.61-2.49-.1-3.91.69,1.04,1.49,1.63,1.99,2.43.61.97.89,2.54.49,4.05Z"/>
        <path class="cls-3" d="M14.27,201.48c.73,1.38,1.86,2.36,2.72,2.75.86.4,2.18.5,3.63.05-.66-.72-1.1-1.39-1.88-1.93-.94-.66-2.92-1.02-4.47-.87Z"/>
        <path class="cls-3" d="M11.13,222.5c-.95.65-2.26,1.19-3.39.98-.86-.16-1.81-.69-2.18-1.29.77.1,1.65-.27,2.49-.49,1.26-.33,2.63-.02,3.08.8Z"/>
      </g>
      <g>
        <path class="cls-3" d="M117.63,115.63c.04-1.96.36-3.79,1.12-5.6.82-1.94,2.03-3.73,3.47-5.26,1.38-1.46,2.96-2.74,4.76-3.66.57-.29,1.15-.55,1.74-.79,1.11-.79,2.13-1.73,3.02-2.72,1.53-1.71,2.5-3.75,3.08-5.96.54-2.1.71-4.29-.28-6.27-.79-1.6-2.85-3.79-4.58-1.95-.76.81-.76,2.07-.23,3.01.28.49.76,1.01,1.34,1.09.6.09,1.03-.63,1.22-1.12.09-.22.93-.1.96-.19-.41,1.05-1.35,1.47-2.43,1.56-1.21.1-2.12-.81-2.37-1.96-.23-1.08.21-2.13,1.16-2.68.81-.47,1.99-.77,2.93-.62,1.08.17,1.93,1.02,2.51,1.9.73,1.11,1.14,2.36,1.17,3.69.03,1.39-.25,2.77-.65,4.09-.39,1.26-.89,2.51-1.61,3.62-.96,1.46-2.24,2.82-3.69,3.93.58-.21,1.16-.41,1.75-.6,3.44-1.12,6.94-1.97,10.45-2.83,3.16-.78,6.4-1.85,8.92-3.99,1.5-1.27,2.48-2.85,3.01-4.74.57-2.07.77-4.24.17-6.33-.51-1.78-1.59-3.53-2.88-4.86-1.38-1.42-3.35-2.26-5.31-2.43-1.97-.17-3.9.33-5.45,1.59-1.54,1.25-2.62,3.04-2.95,5-.3,1.81.08,3.89,1.42,5.22,1.11,1.11,2.81,1.62,4.34,1.29.67-.14,1.25-.45,1.74-.93.45-.45,1.23-.15.65.43-2.42,2.41-6.86,1.82-8.54-1.16-2.05-3.64-.06-8.24,3.05-10.55,3.28-2.44,8.07-2.42,11.29.16.02.02.04.04.07.06-.37-1.15-.56-2.32-.48-3.59.12-1.82.98-3.6,2.61-4.54,1.35-.77,3.21-.88,4.54,0,1.62,1.08,1.62,3.78.12,4.96-.68.53-1.24-.58-.62-1.06.95-.74.52-2.43-.47-2.91-1.2-.58-2.74-.31-3.69.61-1.11,1.07-1.35,2.46-1.28,3.95.07,1.5.63,2.81,1.25,4.16.43.95.88,1.92,1.24,2.92.03.08.07.16.11.25.75,1.91.86,3.95.51,5.96-.37,2.13-1.12,4.14-2.57,5.77-1.26,1.42-2.84,2.5-4.52,3.36-2.91,1.49-6.08,2.18-9.23,2.96-3.82.95-7.72,1.93-11.33,3.52-3.8,1.68-6.87,4.91-8.48,8.74-.81,1.94-1.05,3.98-1,6.07.05,1.87.45,3.69,1.48,5.28,1.12,1.73,2.79,3.24,4.63,4.15,1.9.94,4.05,1.17,6.14.94,1.25-.14,2.48-.45,3.68-.83.23-.07.48.05.45.31-.04.29-.4.48-.64.55-4.05,1.29-8.54,1.48-12.11-1.16-1.53-1.13-2.93-2.61-3.75-4.33-.81-1.7-1.02-3.58-.98-5.44Z"/>
        <path class="cls-3" d="M129.3,91.32c.96,1.38,1.34,2.88,1.24,4.15-.11,1.36-.82,2.65-1.85,3.62-1.08-1.55-1.31-2.58-1.22-3.97s.75-2.6,1.83-3.8Z"/>
        <path class="cls-3" d="M147.09,88.36c.79,1.42.61,3.18.1,4.13-.55,1.02-1.53,1.77-2.65,2.18-.08-1.51.06-2.62.6-3.67.54-1.05,1.11-1.46,1.95-2.65Z"/>
        <path class="cls-3" d="M140.52,91.37c1.09.23,1.88.67,2.28,1.32.42.71.39,1.95-.07,2.81-.53-.74-1-1.01-1.45-1.73-.45-.71-.57-1.46-.76-2.41Z"/>
        <path class="cls-3" d="M160.76,84.16c-.66.81-1.05,1.39-1.6,1.92-.59.57-1.97,1.15-2.82,1.18.24-1.08.73-1.7,1.32-2.3.6-.59,1.85-.98,3.1-.81Z"/>
        <path class="cls-3" d="M156.36,98.39c-1.72-.37-2.83-.44-3.88-.67-1.13-.26-2.6-.95-3.83-1.42,1.79-.84,3.49-1.1,4.65-.86,1.15.24,2.37,1.23,3.07,2.95Z"/>
        <path class="cls-3" d="M153.61,103.21c-1.97.03-3.69-.58-4.85-1.51-1.26-1-2.55-2.85-3.73-4.31,2.88-.12,4.78.55,6.08,1.55,1.3,1,2.04,2.43,2.51,4.27Z"/>
      </g>
      <g>
        <path class="cls-3" d="M89.37.16c-.66,2.31-.45,4.72.19,7.01.58,2.1,1.67,3.84,3.33,5.25,2.78,2.37,6.38,3.56,9.88,4.42,3.88.95,7.77,1.9,11.57,3.13.65.21,1.29.43,1.94.67-1.6-1.23-3.02-2.73-4.08-4.35-.8-1.22-1.36-2.61-1.79-4.01-.45-1.46-.75-3-.72-4.53.03-1.47.49-2.86,1.29-4.08.64-.97,1.58-1.91,2.78-2.1,1.04-.17,2.34.17,3.24.68,1.06.61,1.55,1.78,1.29,2.97-.27,1.27-1.28,2.29-2.62,2.17-1.19-.1-2.24-.56-2.69-1.72.04.1.97-.03,1.06.22.21.53.68,1.34,1.35,1.24.64-.1,1.18-.67,1.49-1.21.59-1.03.59-2.43-.25-3.33-1.91-2.03-4.19.39-5.07,2.16-1.09,2.2-.91,4.63-.31,6.95.63,2.45,1.71,4.71,3.41,6.6.99,1.1,2.11,2.14,3.34,3.01.65.27,1.3.56,1.93.88,1.99,1.01,3.74,2.43,5.27,4.05,1.6,1.7,2.93,3.68,3.85,5.83.85,2,1.2,4.03,1.25,6.2.05,2.06-.19,4.14-1.08,6.02-.91,1.91-2.46,3.55-4.15,4.8-3.95,2.92-8.93,2.7-13.41,1.28-.27-.08-.68-.29-.71-.61-.03-.29.24-.42.5-.34,1.33.42,2.69.76,4.07.92,2.31.26,4.7,0,6.8-1.04,2.04-1.02,3.89-2.68,5.13-4.6,1.14-1.76,1.58-3.78,1.64-5.85.06-2.31-.2-4.58-1.1-6.72-1.78-4.24-5.18-7.82-9.39-9.68-4-1.77-8.32-2.85-12.55-3.9-3.49-.87-6.99-1.63-10.22-3.28-1.86-.95-3.61-2.15-5-3.72-1.61-1.8-2.43-4.03-2.84-6.39-.3-1.73-.29-3.48.12-5.16h1.36c-.02.05-.04.11-.05.16Z"/>
        <path class="cls-3" d="M108.17,4.76c-1.86,3.3-6.78,3.95-9.46,1.28-.64-.64.22-.97.72-.47.54.53,1.18.87,1.93,1.03,1.7.37,3.58-.2,4.81-1.43,1.33-1.33,1.8-3.33,1.64-5.17h1.2c.23,1.61,0,3.26-.84,4.76Z"/>
        <path class="cls-3" d="M115.99,15.94c-.12-1.4.31-3.07,1.37-4.59,1.2,1.33,1.92,2.66,2.03,4.21.1,1.54-.15,2.68-1.35,4.4-1.13-1.08-1.92-2.5-2.04-4.01Z"/>
        <path class="cls-3" d="M97.54,12.64c-.56-1.05-.76-3,.11-4.57.93,1.31,1.56,1.77,2.16,2.93.6,1.16.75,2.39.66,4.06-1.24-.46-2.33-1.29-2.94-2.42Z"/>
        <path class="cls-3" d="M102.49,15.99c-.51-.95-.55-2.33-.08-3.11.44-.73,1.31-1.21,2.52-1.47-.21,1.05-.34,1.87-.84,2.67-.49.79-1.01,1.09-1.61,1.91Z"/>
        <path class="cls-3" d="M85.95,4.31c.66.66,1.2,1.35,1.47,2.55-.94-.04-2.47-.68-3.13-1.31-.61-.59-1.04-1.23-1.77-2.13,1.39-.19,2.77.23,3.43.89Z"/>
        <path class="cls-3" d="M90.79,15.91c1.28-.27,3.16.03,5.14.95-1.36.51-3,1.29-4.24,1.57-1.16.26-2.39.33-4.3.75.77-1.9,2.12-3,3.4-3.27Z"/>
        <path class="cls-3" d="M93.21,19.79c1.44-1.11,3.54-1.85,6.73-1.72-1.31,1.62-2.74,3.67-4.13,4.78-1.29,1.03-3.19,1.71-5.38,1.67.52-2.04,1.34-3.62,2.78-4.73Z"/>
        <path class="cls-3" d="M.61,138.07c1.96.94,3.66,2.09,5.14,3.69,1.58,1.72,2.83,3.75,3.72,5.9.85,2.06,1.42,4.24,1.52,6.47.03.71.03,1.41,0,2.12.29,1.48.77,2.94,1.37,4.29,1.03,2.33,2.64,4.24,4.61,5.82,1.87,1.5,4,2.67,6.46,2.58,1.98-.07,5.12-1.15,4.06-3.73-.47-1.14-1.74-1.72-2.93-1.6-.62.06-1.36.31-1.72.86-.37.57.17,1.33.57,1.74.18.19-.32.98-.24,1.06-.88-.9-.86-2.04-.46-3.16.45-1.27,1.79-1.77,3.06-1.5,1.19.26,2.06,1.18,2.17,2.4.1,1.03-.13,2.36-.71,3.24-.67,1.01-1.91,1.48-3.06,1.67-1.45.23-2.9.07-4.25-.5-1.41-.6-2.69-1.51-3.83-2.52-1.09-.96-2.13-2.05-2.91-3.28-1.04-1.64-1.83-3.55-2.28-5.51-.05.68-.12,1.36-.19,2.04-.44,3.98-1.18,7.9-1.91,11.84-.66,3.54-1.05,7.31-.04,10.82.6,2.1,1.74,3.8,3.41,5.2,1.83,1.52,3.93,2.71,6.31,3.06,2.03.3,4.29,0,6.21-.69,2.07-.75,3.81-2.35,4.88-4.25,1.08-1.91,1.44-4.09.88-6.22-.56-2.13-1.87-4.03-3.7-5.26-1.69-1.12-3.97-1.69-5.92-.95-1.63.62-2.92,2.09-3.28,3.8-.16.74-.12,1.47.15,2.18.25.66-.41,1.3-.73.46-1.32-3.54,1.29-7.76,5.06-8.09,4.61-.41,8.34,3.7,9.26,7.89.97,4.43-1.24,9.25-5.31,11.32-.03.01-.06.03-.09.04,1.33.16,2.59.49,3.84,1.15,1.78.95,3.19,2.63,3.39,4.7.16,1.72-.58,3.64-2.08,4.58-1.83,1.14-4.55-.09-5.06-2.14-.23-.93,1.15-.98,1.35-.14.32,1.3,2.22,1.64,3.15.86,1.14-.95,1.56-2.63,1.07-4.01-.57-1.61-1.87-2.49-3.4-3.09-1.54-.61-3.13-.64-4.77-.63-1.16,0-2.34.01-3.51-.07-.1,0-.2,0-.3,0-2.27-.11-4.37-.93-6.24-2.2-1.98-1.34-3.67-3.01-4.65-5.22-.85-1.92-1.23-4-1.33-6.09-.17-3.62.57-7.13,1.22-10.66.78-4.29,1.57-8.67,1.61-13.04.04-4.6-1.82-9.17-4.95-12.54-1.48-1.59-3.28-2.71-5.25-3.58v-1.36c.2.09.41.18.61.28Z"/>
        <path class="cls-3" d="M15.06,160.28c-1.32-.73-2.3-2.04-2.81-3.52,2.06-.38,3.2-.15,4.56.58,1.36.73,2.28,1.94,3,3.58-1.83.34-3.52.04-4.75-.64Z"/>
        <path class="cls-3" d="M10.48,178.46c-.78-1.02-1.09-2.35-1-3.67,1.55.61,2.62,1.25,3.43,2.28.81,1.02.97,1.79,1.78,3.18-1.79.15-3.49-.84-4.21-1.78Z"/>
        <path class="cls-3" d="M12.27,173.92c-.91.11-2.15-.49-2.8-1.35.99-.2,1.48-.55,2.4-.68.92-.12,1.73.09,2.77.33-.73,1-1.53,1.59-2.37,1.69Z"/>
        <path class="cls-3" d="M13.3,192.45c.33.87.14,2.31-.6,3.5-.51-1.04-.92-1.7-1.21-2.49-.31-.86-.26-2.51.09-3.39.98.74,1.39,1.51,1.72,2.38Z"/>
        <path class="cls-3" d="M.34,185.01c1.16-1.57,1.73-2.66,2.45-3.61.77-1.02,2.15-2.19,3.18-3.22.03,2.19-.48,4.02-1.25,5.08-.77,1.05-2.32,1.83-4.37,1.75Z"/>
        <path class="cls-3" d="M6.52,174.03c-1.2,2.96-2.73,4.57-4.34,5.43-.69.37-1.42.59-2.18.7v-4.06c.15-.1.31-.19.46-.27,1.58-.81,4.04-1.27,6.06-1.8Z"/>
        <path class="cls-3" d="M2.94,285.88c2.97.63,6.08.31,8.96-.58,2.68-.83,4.99-2.33,7.02-4.24,2.19-2.06,4.13-4.37,5.91-6.8,1.75-2.39,3.64-4.55,5.43-6.9,0,0,.01-.01.01-.02.56-.7,1.15-1.38,1.77-2.03,1.86-1.94,4.03-3.33,6.53-4.29,2.96-1.13,6.07-1.8,9.05-2.85,2.67-.94,4.95-2.37,6.49-4.8,1.84-2.9,1.63-6.53.27-9.59-.32-.71-.7-1.39-1.13-2.03-.08-.12-.24-.47-.06-.58.18-.11.41.22.48.33,1.65,2.46,2.66,5.5,2.45,8.48-.2,2.8-1.74,5.37-3.95,7.07-2.13,1.63-4.81,2.33-7.35,3.06-2.7.78-5.49,1.51-7.99,2.83-2.36,1.24-4.29,3.12-5.93,5.2-2.05,2.59-3.68,5.61-4.5,8.82-.78,3.06-.75,6.39.15,9.43.71,2.38,2.25,4.28,4.63,5.14,1.17.42,2.49.52,3.66.04,1.23-.5,2.24-1.61,2.66-2.87.38-1.17.13-2.53-.91-3.27-.91-.65-2.27-.63-3.12.12-.55.48-.76,1.18-.82,1.89-.02.24-.28.1-.38,0-.17-.15-.31-.43-.3-.66.1-1.33.84-2.48,2.22-2.72,1.15-.2,2.26.33,3.02,1.19.86.98,1.31,2.34,1.08,3.63-.24,1.35-1.19,2.62-2.38,3.32-2.28,1.33-5.14.33-7.02-1.24-2.1-1.76-3.06-4.43-3.47-7.07-.5-3.24-.2-6.43.89-9.5-1.74,2.79-3.8,5.56-6.15,7.82-2.24,2.15-4.82,3.78-7.83,4.65-3.19.92-6.66,1.15-9.87.21-.84-.25-1.67-.57-2.47-.97v-1.22c.95.45,1.95.78,2.94,1Z"/>
        <path class="cls-3" d="M8.05,266.85c2.47,1.94,4.27,5.27,3.23,8.43-.46,1.4-1.55,2.78-3.02,3.2-1.36.39-2.86-.27-3.83-1.21-.57-.55-1.01-1.24-1.26-1.99-.09-.28-.09-.65.3-.62.36.03.74.51.84.83.35,1.07,1.45,1.7,2.57,1.64,1.37-.08,2.46-1.27,3-2.45,1.19-2.61-.11-5.46-2.35-7-2.19-1.51-5.03-1.91-7.52-1.01v-1.71c2.77-.67,5.81.13,8.05,1.89Z"/>
        <path class="cls-3" d="M31.86,269.98c-.11-1.3.36-2.62,1.17-3.7,1.26,1.29,1.64,2.22,1.77,3.54.13,1.33-.3,2.56-1.12,3.86-1.12-1.14-1.72-2.5-1.82-3.7Z"/>
        <path class="cls-3" d="M21.73,282.95c0-1.1.49-2.18,1.25-3.03.74,1.23,1.13,2.23,1.14,3.35s-.28,1.73-.45,3.1c-1.3-.84-1.94-2.4-1.94-3.43Z"/>
        <path class="cls-3" d="M27.39,275.46c.62.61,1.1.79,1.64,1.4s.77,1.28,1.09,2.14c-1.06-.05-1.87-.33-2.35-.89-.51-.6-.68-1.77-.38-2.65Z"/>
        <path class="cls-3" d="M17.07,281.68c-.88.58-1.63.69-2.43.71-.8.02-1.92-.55-2.67-1.49.99-.12,1.64-.26,2.37-.27.79,0,2.11.51,2.72,1.04Z"/>
        <path class="cls-3" d="M21.42,270.39c1.1.06,2.6.49,3.83.73-1.55,1.07-3.11,1.59-4.23,1.54s-2.42-.78-3.35-2.29c1.67.08,2.73-.04,3.75.02Z"/>
        <path class="cls-3" d="M21.78,268.87c-1.38-.74-2.3-1.96-3.03-3.62,1.85-.34,3.56-.04,4.8.65,1.34.74,2.85,2.28,4.19,3.47-2.69.56-4.58.24-5.96-.5Z"/>
        <path class="cls-3" d="M.36,293.94c-.28-1.75.23-3.15,1.05-3.92.82-.77,2.34-1.39,4.22-1.59-.78.99-1.64,2.28-2.43,3.04-.74.71-1.62,1.31-2.84,2.46Z"/>
        <path class="cls-3" d="M6.63,296.86c-.53-1.73-.62-3.26-.05-4.72.57-1.46,1.79-2.94,4.2-4.26-.25,1.78-.39,3.92-.92,5.36-.49,1.33-1.6,2.68-3.22,3.62Z"/>
        <path class="cls-3" d="M8.23,10.71c.27.08.67.29.71.61.03.29-.24.42-.5.34-1.33-.42-2.69-.76-4.07-.92-1.46-.17-2.95-.12-4.38.19v-1.07c2.7-.42,5.56,0,8.23.84Z"/>
        <path class="cls-3" d="M1.3,38.63c4,1.77,8.31,2.85,12.55,3.9,3.49.87,6.99,1.63,10.22,3.28,1.86.95,3.61,2.15,5,3.72,1.61,1.8,2.43,4.03,2.84,6.39.38,2.23.27,4.48-.56,6.6-.04.09-.08.18-.12.27-.4,1.1-.9,2.17-1.38,3.23-.68,1.49-1.3,2.95-1.38,4.61-.08,1.64.19,3.19,1.42,4.37,1.05,1.02,2.76,1.32,4.09.68,1.09-.53,1.57-2.4.52-3.23-.69-.54-.07-1.77.68-1.18,1.66,1.3,1.66,4.29-.13,5.49-1.47.98-3.54.86-5.03,0-1.8-1.03-2.76-3.01-2.89-5.03-.09-1.41.12-2.7.53-3.97-.03.02-.05.04-.07.07-3.57,2.86-8.87,2.88-12.5.18-3.44-2.56-5.65-7.65-3.38-11.68,1.86-3.3,6.78-3.95,9.46-1.28.64.64-.22.97-.72.47-.54-.53-1.18-.87-1.93-1.03-1.7-.37-3.58.2-4.81,1.43-1.48,1.47-1.9,3.78-1.57,5.78.36,2.18,1.56,4.15,3.26,5.54,1.71,1.39,3.85,1.95,6.03,1.76,2.17-.19,4.36-1.12,5.89-2.69,1.42-1.47,2.62-3.41,3.19-5.38.66-2.31.45-4.72-.19-7.01-.58-2.1-1.67-3.84-3.33-5.25-2.78-2.37-6.38-3.56-9.88-4.42-3.88-.95-7.77-1.9-11.57-3.13-.65-.21-1.29-.43-1.94-.67,1.6,1.23,3.02,2.73,4.08,4.35.8,1.22,1.36,2.61,1.79,4.01.45,1.46.75,3,.72,4.53-.03,1.47-.49,2.86-1.29,4.08-.64.97-1.58,1.91-2.78,2.1-1.04.17-2.34-.17-3.24-.68-1.06-.61-1.55-1.78-1.29-2.97.27-1.27,1.28-2.29,2.62-2.17,1.19.1,2.24.56,2.69,1.72-.04-.1-.97.03-1.06-.22-.21-.53-.68-1.34-1.35-1.24-.64.1-1.18.67-1.49,1.21-.59,1.03-.59,2.43.25,3.33,1.91,2.03,4.19-.39,5.07-2.16,1.09-2.2.91-4.63.31-6.95-.63-2.45-1.71-4.71-3.41-6.6-.99-1.1-2.11-2.14-3.34-3.01-.63-.26-1.26-.54-1.87-.85v-.94c.43.23.86.46,1.3.66Z"/>
        <path class="cls-3" d="M1.83,41.12c1.13,1.08,1.92,2.5,2.04,4.01.12,1.4-.31,3.07-1.37,4.59-1.2-1.33-1.92-2.66-2.03-4.21-.1-1.54.15-2.68,1.35-4.4Z"/>
        <path class="cls-3" d="M22.32,48.44c.56,1.05.76,3-.11,4.57-.93-1.31-1.56-1.77-2.16-2.93-.6-1.16-.75-2.39-.66-4.06,1.24.46,2.33,1.29,2.94,2.42Z"/>
        <path class="cls-3" d="M17.37,45.09c.51.95.55,2.33.08,3.11-.44.73-1.31,1.21-2.52,1.47.21-1.05.34-1.87.84-2.67s1.01-1.09,1.61-1.91Z"/>
        <path class="cls-3" d="M32.44,54.22c.94.04,2.47.68,3.13,1.31.61.59,1.04,1.23,1.77,2.13-1.39.19-2.77-.24-3.43-.89-.66-.66-1.2-1.35-1.47-2.55Z"/>
        <path class="cls-3" d="M29.07,45.16c-1.28.27-3.16-.03-5.14-.95,1.36-.51,3-1.29,4.24-1.57,1.16-.26,2.39-.33,4.3-.75-.77,1.9-2.12,3-3.4,3.27Z"/>
        <path class="cls-3" d="M26.65,41.29c-1.44,1.11-3.54,1.85-6.73,1.72,1.31-1.62,2.74-3.67,4.13-4.78,1.29-1.03,3.19-1.71,5.38-1.67-.52,2.04-1.34,3.62-2.78,4.73Z"/>
      </g>
      <g>
        <path class="cls-3" d="M65.39,181.16c1.58-2.56,3.98-4.76,6.83-5.81,2.68-.99,5.7-.64,8.2.7,2.4,1.29,4.17,3.48,5.91,5.52,1.85,2.17,3.7,4.45,5.96,6.21,2.14,1.67,4.69,2.66,7.3,3.32,3.26.81,6.73,1.06,10.05.48,3.16-.56,6.23-1.98,8.66-4.09,1.91-1.65,3.02-3.87,2.82-6.43-.1-1.26-.56-2.52-1.5-3.4-.98-.92-2.43-1.41-3.77-1.26-1.24.13-2.4.94-2.65,2.21-.22,1.12.37,2.36,1.42,2.84.68.31,1.42.21,2.09-.03.23-.08.21.22.17.35-.07.22-.26.47-.49.55-1.27.46-2.64.26-3.44-.91-.67-.98-.64-2.24-.16-3.29.54-1.21,1.62-2.19,2.91-2.52,1.36-.34,2.93,0,4.06.81,2.19,1.55,2.46,4.62,1.79,7.02-.75,2.68-2.82,4.69-5.09,6.16-2.8,1.82-5.87,2.87-9.17,3.15,3.31.44,6.74,1.19,9.81,2.43,2.93,1.18,5.52,2.88,7.58,5.3,2.18,2.57,3.85,5.69,4.32,9.05.47,3.36-.15,7-2,9.87-1.62,2.51-4.33,4.23-7.23,4.85-3.28.7-6.88.09-9.36-2.27-2.43-2.31-3.24-5.95-2.45-9.16.76-3.09,3.09-6.16,6.45-6.52,1.49-.16,3.22.28,4.22,1.46.93,1.09.95,2.76.48,4.06-.27.76-.72,1.46-1.32,2-.22.2-.56.35-.69-.02-.12-.35.17-.9.42-1.12.84-.78.97-2.06.44-3.06-.65-1.23-2.21-1.75-3.52-1.75-2.91,0-5.01,2.38-5.5,5.1-.53,2.93.51,6.06,2.82,7.97,2.41,1.99,5.83,2.44,8.8,1.67,2.4-.63,4.73-2.02,6-4.21,1.5-2.6,1.78-5.91,1.15-8.8-.65-3.01-2.26-5.75-4.29-8.05-1.89-2.13-4.24-3.64-6.86-4.72-2.83-1.17-5.78-2-8.77-2.62-2.94-.62-5.73-1.47-8.66-2.14,0,0-.01,0-.02,0-.89-.22-1.76-.48-2.62-.79-2.57-.91-4.77-2.33-6.7-4.25-2.28-2.27-4.2-4.86-6.42-7.19-1.98-2.08-4.26-3.59-7.16-4-3.46-.49-6.73,1.22-8.99,3.76-.53.59-.99,1.23-1.41,1.9-.08.12-.34.42-.51.3-.18-.12.03-.47.1-.58Z"/>
        <path class="cls-3" d="M103.55,186.21c-.59,1.51-1.59,2.63-2.67,3.23-1.16.64-2.58.76-3.91.47.67-1.71,1.37-2.45,2.54-3.12,1.17-.68,2.49-.8,4.04-.58Z"/>
        <path class="cls-3" d="M119.49,190.17c-.23,1.55-1.41,2.81-2.36,3.23-1.02.46-2.22.46-3.33.11.83-1.2,1.59-1.98,2.62-2.46,1.04-.49,1.72-.47,3.06-.88Z"/>
        <path class="cls-3" d="M109.96,187.29c.4,1,.48,1.87.16,2.55-.34.72-1.36,1.37-2.3,1.46.31-.83.27-1.35.61-2.1.33-.74.86-1.24,1.53-1.91Z"/>
        <path class="cls-3" d="M119.32,203.29c-.52-.86-.93-1.41-1.24-2.08-.33-.73-.41-2.17-.17-2.96.91.57,1.32,1.21,1.67,1.95.35.74.3,2-.26,3.09Z"/>
        <path class="cls-3" d="M107.17,202.42c-.63-1.58-1.18-2.51-1.55-3.48-.4-1.04-.64-2.61-.93-3.85,1.64.99,2.77,2.21,3.2,3.27.43,1.06.29,2.57-.72,4.06Z"/>
        <path class="cls-3" d="M101.99,203.56c-1.09-1.57-1.52-3.28-1.41-4.72.13-1.55.92-3.59,1.46-5.33,1.65,2.25,2.14,4.14,2.03,5.73-.11,1.59-.85,2.95-2.08,4.32Z"/>
        <path class="cls-3" d="M136.24,208.59c-1.57-.65-2.5-1.21-3.46-1.6-1.04-.42-2.6-.67-3.84-.98.97,1.65,2.18,2.8,3.23,3.24,1.05.44,2.57.32,4.07-.67Z"/>
        <path class="cls-3" d="M136.32,201.56c-1.55-1.11-3.26-1.57-4.7-1.47-1.55.11-3.6.87-5.35,1.39,2.23,1.68,4.11,2.19,5.7,2.11,1.59-.09,2.96-.81,4.35-2.03Z"/>
      </g>
      <path class="cls-3" d="M107.74,297.01c-.36-2.18-1.56-4.15-3.26-5.54-1.71-1.39-3.85-1.95-6.03-1.76-2.17.19-4.36,1.12-5.89,2.69-1.38,1.43-2.55,3.3-3.13,5.22h-1.36c.12-.48.26-.96.45-1.44.04-.09.08-.18.12-.27.4-1.1.9-2.17,1.38-3.23.68-1.49,1.3-2.95,1.38-4.61.08-1.64-.19-3.19-1.42-4.37-1.05-1.02-2.76-1.32-4.09-.68-1.09.53-1.57,2.4-.52,3.23.69.54.07,1.77-.68,1.18-1.66-1.3-1.66-4.29.13-5.49,1.47-.98,3.54-.86,5.03,0,1.8,1.03,2.76,3.01,2.89,5.02.09,1.41-.12,2.7-.53,3.97.03-.02.05-.04.07-.07,3.57-2.86,8.87-2.88,12.5-.18,2.16,1.61,3.83,4.21,4.22,6.93h-1.2c-.02-.21-.04-.41-.07-.61Z"/>
      <g>
        <g>
          <path class="cls-3" d="M150.28,150.08c.55-4.68,2.4-9.3,6.69-11.7,1.83-1.02,3.97-1.77,6.08-1.81,1.86-.04,3.64.47,5.33,1.21v1.36c-.14-.06-.28-.14-.42-.2-1.91-.8-3.93-1.23-6.01-.92-2.26.34-4.54,1.34-6.3,2.78-1.82,1.49-3.03,3.55-3.75,5.77-.43,1.33-.68,2.71-.84,4.09-.03.27-.27.46-.52.31-.28-.17-.3-.63-.26-.9Z"/>
          <path class="cls-3" d="M165.11,180.04c.77-1.79,1.97-3.14,3.27-3.95v4.06c-1.01.15-2.09.1-3.27-.12Z"/>
        </g>
        <path class="cls-3" d="M167.61,266.98c-2.76,1.35-4.55,4.24-5.06,7.21-.41,2.41-.11,5.06,1.35,7.09,1.12,1.56,2.72,2.77,4.49,3.6v1.22c-2.24-1.1-4.23-2.75-5.57-4.83-1.59-2.47-2.04-5.6-1.42-8.45.7-3.23,2.71-6.21,5.84-7.48.38-.15.77-.28,1.16-.37v1.71c-.26.09-.52.19-.77.31Z"/>
        <path class="cls-3" d="M165.96,11.78c-2.04,1.02-3.89,2.68-5.13,4.6-1.14,1.76-1.58,3.78-1.64,5.85-.06,2.31.2,4.58,1.1,6.72,1.59,3.79,4.48,7.04,8.08,9.02v.94s-.04-.02-.06-.03c-1.99-1.01-3.74-2.43-5.27-4.05-1.6-1.7-2.93-3.68-3.85-5.83-.85-2-1.2-4.03-1.25-6.2-.05-2.06.19-4.14,1.08-6.02.91-1.91,2.46-3.55,4.15-4.8,1.59-1.18,3.35-1.84,5.18-2.12v1.07c-.83.18-1.65.46-2.42.85Z"/>
      </g>
      <path class="cls-3" d="M3.18,123.13c1.36-.54,2.34-1.97,2.3-3.45-.03-1.21-1.55-2.42-2.73-1.8-.77.4-1.64-.66-.79-1.11,1.87-.98,4.6.26,4.95,2.38.29,1.75-.67,3.58-2.06,4.59-1.42,1.02-3.19,1.22-4.84.84v-1.39c1.03.32,2.09.37,3.18-.06Z"/>
      <g>
        <path class="cls-2" d="M130.07,296.23c1.04-.37,2.95-.55,4.43.43-.63.04-1.18.44-1.69.97h-4.74c.5-.6,1.15-1.09,2.01-1.4Z"/>
        <path class="cls-2" d="M136.22,297.38c-.05-.99-.2-1.78-.03-2.72.21-1.14,1.66-2.91,3.55-3.29-.61,1.37-.68,2.8-1.02,3.7s-1.15,1.6-2.5,2.31Z"/>
        <path class="cls-2" d="M116.93,295.51c-.24-1.62.61-2.81,1.36-3.34.75-.53,2.2-1.13,3.66-.96-.82.88-1.2,1.76-1.84,2.41-.78.79-1.89,1.35-3.18,1.89Z"/>
        <path class="cls-2" d="M126.16,295.29c-1.31,1.01-2.75,1.08-3.84,2.19-.04-1.68.76-3.28,1.52-3.75,1.1-.67,2.34-.73,3.76-.54-.5.78-.74,1.55-1.45,2.09Z"/>
        <path class="cls-2" d="M131.34,292.46c-.23.86-.83,1.6-1.18,2.73-.84-1.16-1.29-2.66-1.18-3.56.12-1.04.93-2.2,2.58-3.12-.14,1.3.1,2.77-.21,3.95Z"/>
        <path class="cls-2" d="M124.37,291.88c-1.01-1.06-1.5-2.23-1.53-3.15-.03-.92.86-2.54,2.12-3.36.27,1.48.41,2.95.26,4.05-.13.9-.51,1.58-.85,2.46Z"/>
        <path class="cls-2" d="M142.45,296.28c.65-.98,1.79-1.87,2.73-2.01-.53.9-.53,2.17-.7,3.32,0,.01,0,.02,0,.04h-2.59c.12-.49.3-.95.56-1.35Z"/>
      </g>
      <g>
        <path class="cls-4" d="M167.69,104.94c-1.23.47-3.3.73-5.55.25-2.03-.44-2.66-1.64-.87-2.05,2.74-.63,5.02-1.39,7.1-2.16,0,0,0,0,.01,0v3.67c-.23.11-.45.21-.69.3Z"/>
        <path class="cls-4" d="M161.24,94.41c2.13.37,3.42.73,4.88,1.16.86.25,1.59.47,2.25.67v2.28c-.78,0-1.68-.12-2.95-.4-2.06-.45-4.37-1.31-5.78-2.42-1.19-.95-.35-1.62,1.6-1.28Z"/>
        <path class="cls-4" d="M168.05,92.55c-1.37-1.58-1.97-2.23-2.66-3.37-.73-1.21.55-1.18,1.95-.41.31.17.67.42,1.05.69v3.46c-.11-.12-.22-.24-.33-.37Z"/>
        <path class="cls-4" d="M167.13,109.4c-.93-.37-.75-1.93.34-2.76.27-.21.58-.37.91-.52v3.39c-.44.07-.87.05-1.25-.1Z"/>
        <path class="cls-4" d="M161.08,98.58c2.41-.03,4.55,1.26,6.3,1.24-.69.2-3.31,1.07-4.8.91-2.92-.3-3.92-2.13-1.51-2.16Z"/>
        <path class="cls-4" d="M168.3,94.79c-1.79-.58-5.32-2.02-6.41-2.87-1.42-1.11-1.08-2.56,1.26-1.5,2.34,1.07,4.08,3.45,5.15,4.37Z"/>
      </g>
      <g>
        <path class="cls-4" d="M19.73,12.5c-.79-1.55-1.63-4.71-1.75-6.59-.09-1.37-.33-3.38.03-5.91h2.98c.06,3.73.48,8.47.63,10.55.23,3.15-1.27,3.17-1.89,1.95Z"/>
        <path class="cls-4" d="M16.85,15.55c-1.79-.24-5.22-2.48-6.26-3.51-1.26-1.25-2.46-3.74-2.74-6.1-.24-1.97,1.37-3.11,1.91-1.82.43,1.04,1.14,2.33,2.11,3.68,1.69,2.35,5.04,4.81,6.51,6.15.81.73-.12,1.79-1.53,1.6Z"/>
        <path class="cls-4" d="M5.27,20.3c1.48-.96,3.27-1.97,5.28-2.54,1.91-.55,4.14-.86,5.82-.43.94.24,1.19,1.33-.3,1.98-1.31.57-2.77,1.03-4.28,1.35-1.72.36-5.25,1.45-7.11,2.15-1.52.57-1.25-1.31.59-2.51Z"/>
        <path class="cls-4" d="M24.67,12.74c-1.05,1.07-2.2.98-1.51-.81.81-2.09,4.28-7.54,5.56-9.22.71-.93,1.52-1.88,2.25-2.71h2.81c-.93,1.8-1.93,3.49-3.12,5.18-1.24,1.77-4.96,6.49-6,7.56Z"/>
        <path class="cls-4" d="M24.62,16.87c-1.1.33-1.17-1.13.16-2.31,1.66-1.48,4.93-3.27,7.57-3.89,1.55-.36,3.64-.23,5.12.95,1.34,1.07.69,2.87-1.29,3.02-3.04.23-5.8.73-8.4,1.31-1.04.23-2.28.66-3.16.93Z"/>
        <path class="cls-4" d="M21.84,20.95c-.54-.84.6-1.88,1.97-1.83,1.27.05,2.24.29,3.67,1.45,1.36,1.1,2.53,2.81,2.64,4.67.1,1.57-1.32,2.31-2.69,1.39-1.5-1.01-2.27-1.8-3.13-2.72-1.14-1.22-1.92-2.1-2.47-2.95Z"/>
        <path class="cls-4" d="M16.84,22.08c-.8.82-2.55,2.86-3.39,4.1-1.03,1.54-2.44,4.34-3.12,5.77-.96,2.02-2.57,1.85-2.48.13.12-2.32,1.33-4.73,2.46-6.22,1.28-1.68,3.13-3.89,5.74-5.04,1.01-.44,1.58.43.78,1.25Z"/>
        <path class="cls-4" d="M19.94,22.25c.06.78.03,2.84-.35,5.32-.38,2.49-.51,3.51-1.05,5.24-.57,1.82-1.67,1.5-2.12.11-.3-.93-.45-2.74-.24-4.3.31-2.31.85-4.31,2.01-6.1.7-1.08,1.68-1.04,1.74-.27Z"/>
        <path class="cls-4" d="M23.39,8.4c-.31-2.22-.11-6.01.35-8.4h3.22c-.08.29-.15.59-.24.87-.55,1.71-1.85,4.83-3.33,7.53Z"/>
        <path class="cls-4" d="M13.36,5.88c-.58-1.45-.31-3.43.46-3.98s1.71.28,2.38,1.57c.68,1.3.97,5.12,1.39,7.17-1.72-.67-3.71-3.46-4.23-4.76Z"/>
        <path class="cls-4" d="M4.33,16.96c-1.43-.65-.89-2.48,1.23-3.06,2.2-.6,5.75,1.12,7.12,1.7-2.22.49-6.48,2.2-8.34,1.35Z"/>
        <path class="cls-4" d="M5.69,25.55c1.39-1.26,3.65-2.54,6.12-3.23-2.42,1.98-4.52,5.27-6.67,6.56-1.52.91-1.58-1.39.55-3.33Z"/>
        <path class="cls-4" d="M34.24,8.41c-1.79.9-3.51.72-5.35,1.66,1.18-1.53,3.05-3.95,4.52-4.86,1.32-.82,3.38-1.37,3.91-.51.44.73-1.28,2.82-3.07,3.71Z"/>
        <path class="cls-4" d="M27.48,17.76c.81-.12,3.98-.69,5.13-.13,2.26,1.1,1.3,3.83-.84,3.31-2.14-.52-2.74-2.78-4.29-3.17Z"/>
        <path class="cls-4" d="M21.75,31.63c-.98-2.01-.12-5.68-.13-7.19.99,1.21,2.65,4.01,2.75,5.43.13,1.86-1.63,3.77-2.61,1.76Z"/>
        <path class="cls-4" d="M14.04,31.47c-.85,1.73-1.84,1.4-1.66-.12.17-1.53,1.49-3.7,2.9-5.36-.53,2.18-.45,3.87-1.24,5.48Z"/>
        <path class="cls-4" d="M18.85,19.26c-.71-.54-.58-1.93.3-3.11.88-1.18,2.17-1.7,2.89-1.17.71.54.58,1.93-.3,3.11-.88,1.18-2.17,1.71-2.89,1.17Z"/>
      </g>
      <g>
        <path class="cls-4" d="M10.05,101.78c1.83.82,4.84,2.61,6.28,3.74,1.44,1.13,4,2.96,5.6,5.62,1.34,2.22-.05,2.65-2.16.47-2.16-2.23-8.02-6.68-10.15-8.34-2.42-1.88-1-2.14.44-1.5Z"/>
        <path class="cls-4" d="M10.34,100.68c-1.28-.32-1.14-1.11.34-1.22,1.88-.14,6.71.67,8.42,1.13,2.07.56,4.96,1.89,6.87,3.28,1.6,1.17.87,2.12-.55,1.42-1.14-.56-2.71-1.24-4.58-1.91-3.25-1.16-8.16-2.12-10.5-2.7Z"/>
        <path class="cls-4" d="M8.8,97.03c.85-.56,1.92-1.08,3.14-1.52,1.39-.5,3.99-1.73,5.28-2.46,1.05-.59,2.11.6,1.19,1.63-.74.82-1.75,1.73-3.25,2.41-1.43.64-3.35,1.2-5.25,1.2-1.07,0-2.07-.62-1.1-1.26Z"/>
        <path class="cls-4" d="M7.18,102.69c.69,1.41,1.19,5.3,1.14,6.53-.06,1.32-.38,2.73-.62,3.45-.34,1-1.71.92-2.17-.5-.46-1.42-.73-2.76-.78-4.14-.05-1.28.19-4.77.44-5.59.25-.83,1.41-.96,2,.25Z"/>
        <path class="cls-4" d="M3.81,101.34c-.49,1.04-2.02,2.44-3.81,3.3v-3.67c.83-.31,1.7-.77,2.35-1.07.82-.38,1.9.5,1.46,1.44Z"/>
        <path class="cls-4" d="M2.15,96.96c1.1.42.74,1.25-.6,1.44-.51.07-1.01.11-1.55.11v-2.28c.83.26,1.53.49,2.15.73Z"/>
        <path class="cls-4" d="M9.69,92.09c-.05,1.23-.27,2.88-1.95,4-.65.43-1.8,0-1.62-.63s.43-2.16.36-3.05c-.09-1.11-.71-3.05-1.06-4.03-.49-1.39,1.16-1.54,2.27-.48,1.51,1.44,2.03,3.1,1.99,4.2Z"/>
        <path class="cls-4" d="M4.52,95.42c.09.78-.87.91-1.47.45-.55-.43-1.79-1.53-3.05-2.93v-3.46c.76.55,1.59,1.24,2.18,1.9,1.31,1.46,2.19,2.77,2.34,4.05Z"/>
        <path class="cls-4" d="M15.11,110.24c.73.94,1.27,1.93,1.52,3.52.14.91-1.24,1.29-2.11.2-1.04-1.3-2.23-2.64-3-3.94-.67-1.13-1.61-3.25-2.08-5.14,1.91,1.35,4.49,3.84,5.67,5.36Z"/>
        <path class="cls-4" d="M13.4,102.57c2.11.13,5.96,1.51,7.35,2.22,1.57.79,2.69,2.04,2.34,2.5-.35.46-1.83.1-3.37-.57-1.56-.69-4.5-2.97-6.33-4.15Z"/>
        <path class="cls-4" d="M22.59,98.63c-1.68.72-6.26.25-7.97.11,1.78-.66,4.64-2.39,7.01-2.18,1.82.17,2.58,1.37.97,2.06Z"/>
        <path class="cls-4" d="M14.33,91.54c-.45.99-1.71,2.14-3.58,2.96.93-1.6.62-3.95,1.78-5.08.82-.8,2.48.6,1.8,2.12Z"/>
        <path class="cls-4" d="M2.12,108.45c-.45.47-1.28.91-2.12,1.04v-3.39c1-.44,2.2-.7,3.03-1.36-.05,1.13-.15,2.91-.91,3.7Z"/>
        <path class="cls-4" d="M2.24,89.28c-.4-1.2.77-1.16,1.67-.19s1.17,2.5.97,3.74c-1.02-1.41-2.27-2.44-2.65-3.55Z"/>
        <path class="cls-4" d="M6.18,97.51c1.06.21,1.9,1.09,1.89,1.95-.01.86-.88,1.39-1.94,1.18-1.06-.21-1.9-1.09-1.89-1.95.01-.86.88-1.39,1.94-1.18Z"/>
      </g>
      <g>
        <path class="cls-4" d="M18.71,294.54c1.06-3.36,2.71-3.62,2.37-.15-.08.88-.11,2.01-.09,3.24h-2.98c.14-.96.35-1.99.7-3.1Z"/>
        <path class="cls-4" d="M32.74,295.76c1.3-1.29,2.43-.87,1.4,1.19-.11.23-.23.45-.35.68h-2.81c.68-.76,1.31-1.43,1.76-1.87Z"/>
        <path class="cls-4" d="M23.79,297.36c.3-1.45.82-2.95,2.2-5.18.79-1.29,2.38-1.48,2.06.21-.33,1.73-.61,3.52-1.08,5.23h-3.22c.02-.09.03-.19.05-.27Z"/>
      </g>
    </g>
  </g>
</svg>