<?xml version="1.0" encoding="UTF-8"?>
<svg id="Layer_2" data-name="Layer 2" xmlns="http://www.w3.org/2000/svg" viewBox="0 0 450 450">
  <g id="Pattern">
    <g>
      <g id="img4">
        <g>
          <path d="M160.46,64.16v11.49l8.26,8.15,8.26-8.15v-11.49l-8.26-5.32-8.26,5.32ZM175.99,75.28l-7.26,7.17-7.26-7.17v-8.38l7.26-4.19,7.26,4.19v8.38Z"/>
          <path d="M163.03,68.12v6.58l5.7,5.63,5.7-5.63v-6.58l-5.7-3.29-5.7,3.29ZM170.18,70.57c1.31.1,3.23.71,3.23,1.46s-1.91,1.36-3.23,1.45c-.1,1.32-.71,3.23-1.46,3.23s-1.36-1.91-1.45-3.23c-1.32-.1-3.23-.71-3.23-1.45s1.91-1.36,3.23-1.46c.1-1.32.71-3.23,1.45-3.23s1.36,1.91,1.46,3.23Z"/>
          <path d="M176.66,48.01l-5.32,8.26,5.32,8.26h11.49l8.15-8.26-8.15-8.26h-11.49ZM187.79,63.53h-8.38l-4.19-7.26,4.19-7.26h8.38l7.17,7.26-7.17,7.26Z"/>
          <path d="M180.62,50.57l-3.29,5.7,3.29,5.7h6.58l5.63-5.7-5.63-5.7h-6.58ZM189.21,56.27c0,.74-1.91,1.36-3.23,1.45-.1,1.32-.71,3.23-1.46,3.23s-1.36-1.91-1.45-3.23c-1.32-.1-3.23-.71-3.23-1.46s1.91-1.36,3.23-1.45c.1-1.32.71-3.23,1.45-3.23s1.36,1.91,1.46,3.23c1.32.1,3.23.71,3.23,1.46Z"/>
          <path d="M160.51,36.84v11.49l8.26,5.32,8.26-5.32v-11.49l-8.26-8.15-8.26,8.15ZM176.04,45.6l-7.26,4.19-7.26-4.19v-8.38l7.26-7.17,7.26,7.17v8.38Z"/>
          <path d="M163.07,37.8v6.58l5.7,3.29,5.7-3.29v-6.58l-5.7-5.63-5.7,5.63ZM170.23,39.02c1.31.1,3.23.71,3.23,1.45s-1.91,1.36-3.23,1.46c-.1,1.32-.71,3.23-1.46,3.23s-1.36-1.91-1.45-3.23c-1.31-.1-3.23-.71-3.23-1.46s1.91-1.36,3.23-1.45c.1-1.32.71-3.23,1.46-3.23s1.36,1.91,1.46,3.23Z"/>
          <path d="M168.75,53.66c-1.43,0-2.59,1.16-2.59,2.59s1.16,2.59,2.59,2.59,2.59-1.16,2.59-2.59-1.16-2.59-2.59-2.59Z"/>
          <path d="M160.46,64.16v11.49l8.26,8.15,8.26-8.15v-11.49l-8.26-5.32-8.26,5.32ZM175.99,75.28l-7.26,7.17-7.26-7.17v-8.38l7.26-4.19,7.26,4.19v8.38Z"/>
          <path d="M163.03,68.12v6.58l5.7,5.63,5.7-5.63v-6.58l-5.7-3.29-5.7,3.29ZM170.18,70.57c1.31.1,3.23.71,3.23,1.46s-1.91,1.36-3.23,1.45c-.1,1.32-.71,3.23-1.46,3.23s-1.36-1.91-1.45-3.23c-1.32-.1-3.23-.71-3.23-1.45s1.91-1.36,3.23-1.46c.1-1.32.71-3.23,1.45-3.23s1.36,1.91,1.46,3.23Z"/>
          <path d="M160.51,36.84v11.49l8.26,5.32,8.26-5.32v-11.49l-8.26-8.15-8.26,8.15ZM176.04,45.6l-7.26,4.19-7.26-4.19v-8.38l7.26-7.17,7.26,7.17v8.38Z"/>
          <path d="M163.07,37.8v6.58l5.7,3.29,5.7-3.29v-6.58l-5.7-5.63-5.7,5.63ZM170.23,39.02c1.31.1,3.23.71,3.23,1.45s-1.91,1.36-3.23,1.46c-.1,1.32-.71,3.23-1.46,3.23s-1.36-1.91-1.45-3.23c-1.31-.1-3.23-.71-3.23-1.46s1.91-1.36,3.23-1.45c.1-1.32.71-3.23,1.46-3.23s1.36,1.91,1.46,3.23Z"/>
          <path d="M149.34,47.96l-8.15,8.26,8.15,8.26h11.49l5.32-8.26-5.32-8.26h-11.49ZM158.1,63.49h-8.38l-7.17-7.26,7.17-7.26h8.38l4.19,7.26-4.19,7.26Z"/>
          <path d="M150.3,50.53l-5.63,5.7,5.63,5.7h6.58l3.29-5.7-3.29-5.7h-6.58ZM157.66,56.23c0,.74-1.91,1.36-3.23,1.45-.1,1.32-.71,3.23-1.46,3.23s-1.36-1.91-1.45-3.23c-1.32-.1-3.23-.71-3.23-1.46s1.91-1.36,3.23-1.45c.1-1.32.71-3.23,1.45-3.23s1.36,1.91,1.46,3.23c1.31.1,3.23.71,3.23,1.45Z"/>
        </g>
      </g>
      <g id="img7">
        <g>
          <path d="M47.97,176.66v11.49l8.26,8.15,8.26-8.15v-11.49l-8.26-5.32-8.26,5.32ZM63.49,187.78l-7.26,7.17-7.26-7.17v-8.38l7.26-4.19,7.26,4.19v8.38Z"/>
          <path d="M50.53,180.62v6.58l5.7,5.63,5.7-5.63v-6.58l-5.7-3.29-5.7,3.29ZM57.68,183.07c1.31.1,3.23.71,3.23,1.46s-1.91,1.36-3.23,1.45c-.1,1.32-.71,3.23-1.46,3.23s-1.36-1.91-1.45-3.23c-1.32-.1-3.23-.71-3.23-1.45s1.91-1.36,3.23-1.46c.1-1.31.71-3.23,1.45-3.23s1.36,1.91,1.46,3.23Z"/>
          <path d="M64.16,160.51l-5.32,8.26,5.32,8.26h11.49l8.15-8.26-8.15-8.26h-11.49ZM75.29,176.04h-8.38l-4.19-7.26,4.19-7.26h8.38l7.17,7.26-7.17,7.26Z"/>
          <path d="M68.12,163.07l-3.29,5.7,3.29,5.7h6.58l5.63-5.7-5.63-5.7h-6.58ZM76.71,168.77c0,.74-1.91,1.36-3.23,1.45-.1,1.32-.71,3.23-1.46,3.23s-1.36-1.91-1.45-3.23c-1.32-.1-3.23-.71-3.23-1.45s1.91-1.36,3.23-1.45c.1-1.32.71-3.23,1.45-3.23s1.36,1.91,1.46,3.23c1.32.1,3.23.71,3.23,1.45Z"/>
          <path d="M48.01,149.34v11.49l8.26,5.32,8.26-5.32v-11.49l-8.26-8.15-8.26,8.15ZM63.53,158.1l-7.26,4.19-7.26-4.19v-8.38l7.26-7.17,7.26,7.17v8.38Z"/>
          <path d="M50.57,150.3v6.58l5.7,3.29,5.7-3.29v-6.58l-5.7-5.63-5.7,5.63ZM57.73,151.52c1.31.1,3.23.71,3.23,1.46s-1.91,1.36-3.23,1.46c-.1,1.31-.71,3.23-1.46,3.23s-1.36-1.91-1.45-3.23c-1.31-.1-3.23-.71-3.23-1.46s1.91-1.36,3.23-1.46c.1-1.32.71-3.23,1.46-3.23s1.36,1.91,1.46,3.23Z"/>
          <path d="M56.25,166.16c-1.43,0-2.59,1.16-2.59,2.59s1.16,2.59,2.59,2.59,2.59-1.16,2.59-2.59-1.16-2.59-2.59-2.59Z"/>
          <path d="M47.97,176.66v11.49l8.26,8.15,8.26-8.15v-11.49l-8.26-5.32-8.26,5.32ZM63.49,187.78l-7.26,7.17-7.26-7.17v-8.38l7.26-4.19,7.26,4.19v8.38Z"/>
          <path d="M50.53,180.62v6.58l5.7,5.63,5.7-5.63v-6.58l-5.7-3.29-5.7,3.29ZM57.68,183.07c1.31.1,3.23.71,3.23,1.46s-1.91,1.36-3.23,1.45c-.1,1.32-.71,3.23-1.46,3.23s-1.36-1.91-1.45-3.23c-1.32-.1-3.23-.71-3.23-1.45s1.91-1.36,3.23-1.46c.1-1.31.71-3.23,1.45-3.23s1.36,1.91,1.46,3.23Z"/>
          <path d="M48.01,149.34v11.49l8.26,5.32,8.26-5.32v-11.49l-8.26-8.15-8.26,8.15ZM63.53,158.1l-7.26,4.19-7.26-4.19v-8.38l7.26-7.17,7.26,7.17v8.38Z"/>
          <path d="M50.57,150.3v6.58l5.7,3.29,5.7-3.29v-6.58l-5.7-5.63-5.7,5.63ZM57.73,151.52c1.31.1,3.23.71,3.23,1.46s-1.91,1.36-3.23,1.46c-.1,1.31-.71,3.23-1.46,3.23s-1.36-1.91-1.45-3.23c-1.31-.1-3.23-.71-3.23-1.46s1.91-1.36,3.23-1.46c.1-1.32.71-3.23,1.46-3.23s1.36,1.91,1.46,3.23Z"/>
          <path d="M36.84,160.46l-8.15,8.26,8.15,8.26h11.49l5.32-8.26-5.32-8.26h-11.49ZM45.6,175.99h-8.38l-7.17-7.26,7.17-7.26h8.38l4.19,7.26-4.19,7.26Z"/>
          <path d="M37.8,163.03l-5.63,5.7,5.63,5.7h6.58l3.29-5.7-3.29-5.7h-6.58ZM45.16,168.73c0,.74-1.91,1.36-3.23,1.45-.1,1.32-.71,3.23-1.46,3.23s-1.36-1.91-1.45-3.23c-1.32-.1-3.23-.71-3.23-1.45s1.91-1.36,3.23-1.45c.1-1.31.71-3.23,1.45-3.23s1.36,1.91,1.46,3.23c1.32.1,3.23.71,3.23,1.45Z"/>
        </g>
      </g>
      <g id="img3">
        <g>
          <path d="M47.82,37.03v9.76l8.46,4.88,8.46-4.88v-9.76l-8.46-8.35-8.46,8.35ZM59.87,38.78l3.81,2.38-3.81,2.38-3.3-2.06,2.06,3.3-2.38,3.81-2.38-3.81,2.06-3.3-3.3,2.06-3.81-2.38,3.81-2.38,3.3,2.06-2.06-3.3,2.38-3.81,2.38,3.81-2.06,3.3,3.3-2.06Z"/>
          <path d="M37.03,47.77l-8.35,8.46,8.35,8.46h9.76l4.88-8.46-4.88-8.46h-9.76ZM44.78,58.63l-3.3-2.06,2.06,3.3-2.38,3.81-2.38-3.81,2.06-3.3-3.3,2.06-3.81-2.38,3.81-2.38,3.3,2.06-2.06-3.3,2.38-3.81,2.38,3.81-2.06,3.3,3.3-2.06,3.81,2.38-3.81,2.38Z"/>
          <path d="M47.77,65.7v9.76l8.46,8.35,8.46-8.35v-9.76l-8.46-4.88-8.46,4.88ZM58.63,67.72l-2.06,3.3,3.3-2.07,3.81,2.38-3.81,2.38-3.3-2.06,2.06,3.3-2.38,3.81-2.38-3.81,2.06-3.3-3.3,2.06-3.81-2.38,3.81-2.38,3.3,2.07-2.06-3.3,2.38-3.81,2.38,3.81Z"/>
          <path d="M65.7,47.82l-4.88,8.46,4.88,8.46h9.76l8.35-8.46-8.35-8.46h-9.76ZM74.96,58.63l-3.3-2.06,2.06,3.3-2.38,3.81-2.38-3.81,2.06-3.3-3.3,2.06-3.81-2.38,3.81-2.38,3.3,2.06-2.06-3.3,2.38-3.81,2.38,3.81-2.06,3.3,3.3-2.06,3.81,2.38-3.81,2.38Z"/>
          <path d="M56.38,53.3l-7.09-4.16,4.16,7.08-4.16,7.09,7.09-4.16,7.09,4.16-4.16-7.09,4.16-7.08-7.09,4.16ZM56.38,57.98l-1.75-1.75,1.75-1.75,1.75,1.75-1.75,1.75Z"/>
        </g>
      </g>
      <g id="img8">
        <g>
          <path d="M160.32,149.53v9.76l8.46,4.88,8.46-4.88v-9.76l-8.46-8.35-8.46,8.35ZM172.37,151.28l3.81,2.38-3.81,2.38-3.3-2.06,2.06,3.3-2.38,3.81-2.38-3.81,2.06-3.3-3.3,2.06-3.81-2.38,3.81-2.38,3.3,2.06-2.06-3.3,2.38-3.81,2.38,3.81-2.06,3.3,3.3-2.06Z"/>
          <path d="M149.53,160.27l-8.35,8.46,8.35,8.46h9.76l4.88-8.46-4.88-8.46h-9.76ZM157.28,171.13l-3.3-2.06,2.06,3.3-2.38,3.81-2.38-3.81,2.06-3.3-3.3,2.06-3.81-2.38,3.81-2.38,3.3,2.06-2.06-3.3,2.38-3.81,2.38,3.81-2.06,3.3,3.3-2.06,3.81,2.38-3.81,2.38Z"/>
          <path d="M160.27,178.2v9.76l8.46,8.35,8.46-8.35v-9.76l-8.46-4.88-8.46,4.88ZM171.13,180.22l-2.06,3.3,3.3-2.06,3.81,2.38-3.81,2.38-3.3-2.06,2.06,3.3-2.38,3.81-2.38-3.81,2.06-3.3-3.3,2.06-3.81-2.38,3.81-2.38,3.3,2.06-2.06-3.3,2.38-3.81,2.38,3.81Z"/>
          <path d="M178.2,160.32l-4.88,8.46,4.88,8.46h9.76l8.35-8.46-8.35-8.46h-9.76ZM187.46,171.13l-3.3-2.06,2.06,3.3-2.38,3.81-2.38-3.81,2.06-3.3-3.3,2.06-3.81-2.38,3.81-2.38,3.3,2.06-2.06-3.3,2.38-3.81,2.38,3.81-2.06,3.3,3.3-2.06,3.81,2.38-3.81,2.38Z"/>
          <path d="M168.88,165.8l-7.09-4.16,4.16,7.08-4.16,7.09,7.09-4.16,7.08,4.16-4.16-7.09,4.16-7.08-7.08,4.16ZM168.88,170.48l-1.75-1.75,1.75-1.75,1.75,1.75-1.75,1.75Z"/>
        </g>
      </g>
      <g id="img2">
        <g>
          <path d="M93.01,19.49h11.42l8.07,8.07,8.07-8.07h11.42v-11.42l8.07-8.07h-12.92l-7.88,2.8,3.59,7.55-7.55-3.59-2.8,7.88-2.8-7.88-7.55,3.59,3.59-7.55-7.88-2.8h-12.92l8.07,8.07v11.42ZM135.1.37l-6.36,6.36v8.99l-4.73-10.95,11.09-4.4ZM117.27,11.51l10.95,4.73h-8.99l-6.36,6.36,4.4-11.09ZM107.73,11.51l4.4,11.09-6.36-6.36h-8.99l10.95-4.73ZM89.9.37l11.09,4.4-4.73,10.95V6.73l-6.36-6.36Z"/>
          <path d="M109.93,2.57c0,1.42,1.15,2.57,2.57,2.57s2.57-1.15,2.57-2.57c1.42,0,2.57-1.15,2.57-2.57h-10.27c0,1.42,1.15,2.57,2.57,2.57Z"/>
        </g>
      </g>
      <g id="img2-2" data-name="img2">
        <g>
          <path d="M131.99,205.51h-11.42l-8.07-8.07-8.07,8.07h-11.42v11.42l-8.07,8.07h12.92l7.88-2.8-3.59-7.55,7.55,3.59,2.8-7.88,2.8,7.88,7.55-3.59-3.59,7.55,7.88,2.8h12.92l-8.07-8.07v-11.42ZM89.9,224.63l6.36-6.36v-8.99l4.73,10.95-11.09,4.4ZM107.73,213.49l-10.95-4.73h8.99l6.36-6.36-4.4,11.09ZM117.27,213.49l-4.4-11.09,6.36,6.36h8.99l-10.95,4.73ZM135.1,224.63l-11.09-4.4,4.73-10.95v8.99l6.36,6.36Z"/>
          <path d="M115.07,222.43c0-1.42-1.15-2.57-2.57-2.57s-2.57,1.15-2.57,2.57c-1.42,0-2.57,1.15-2.57,2.57h10.27c0-1.42-1.15-2.57-2.57-2.57Z"/>
        </g>
      </g>
      <g id="img5">
        <g>
          <path d="M19.49,131.99v-11.42l8.07-8.07-8.07-8.07v-11.42h-11.42L0,84.94v12.92l2.8,7.88,7.55-3.59-3.59,7.55,7.88,2.8-7.88,2.8,3.59,7.55-7.55-3.59-2.8,7.88v12.92l8.07-8.07h11.42ZM4.77,100.99L.37,89.9l6.36,6.36h8.99l-10.95,4.73ZM11.51,107.73l4.73-10.95v8.99l6.36,6.36-11.09-4.4ZM22.6,112.87l-6.36,6.36v8.99l-4.73-10.95,11.09-4.4ZM.37,135.1l4.4-11.09,10.95,4.73H6.72l-6.36,6.36Z"/>
          <path d="M2.57,115.07c1.42,0,2.57-1.15,2.57-2.57s-1.15-2.57-2.57-2.57c0-1.42-1.15-2.57-2.57-2.57v10.27c1.42,0,2.57-1.15,2.57-2.57Z"/>
        </g>
      </g>
      <g id="img5-2" data-name="img5">
        <g>
          <path d="M205.51,93.01v11.42l-8.07,8.07,8.07,8.07v11.42h11.42l8.07,8.07v-12.92l-2.8-7.88-7.55,3.59,3.59-7.55-7.88-2.8,7.88-2.8-3.59-7.55,7.55,3.59,2.8-7.88v-12.92l-8.07,8.07h-11.42ZM220.23,124.01l4.4,11.09-6.36-6.36h-8.99l10.95-4.73ZM213.49,117.27l-4.73,10.95v-8.99l-6.36-6.36,11.09,4.4ZM202.4,112.13l6.36-6.36v-8.99l4.73,10.95-11.09,4.4ZM224.63,89.9l-4.4,11.09-10.95-4.73h8.99l6.36-6.36Z"/>
          <path d="M222.43,109.93c-1.42,0-2.57,1.15-2.57,2.57s1.15,2.57,2.57,2.57c0,1.42,1.15,2.57,2.57,2.57v-10.27c-1.42,0-2.57,1.15-2.57,2.57Z"/>
        </g>
      </g>
      <g id="img1">
        <g>
          <path d="M19.49,19.49v-11.42L27.56,0h-12.92l-7.88,2.8,3.59,7.55-7.55-3.59L0,14.64v12.92l8.07-8.07h11.42ZM22.6.37l-6.36,6.36v8.99l-4.73-10.95L22.6.37ZM.37,22.6l4.4-11.09,10.95,4.73H6.73L.37,22.6Z"/>
          <path d="M1.27,3.07c1.22.97,2.75,1.79,3.17,1.37.42-.42-.4-1.95-1.37-3.17,1.55-.17,3.21-.68,3.21-1.27H0v6.27c.59,0,1.1-1.66,1.27-3.21Z"/>
        </g>
      </g>
      <g id="img1-2" data-name="img1">
        <g>
          <path d="M214.65,10.35l3.59-7.55-7.88-2.8h-12.92l8.07,8.07v11.42h11.42l8.07,8.07v-12.92l-2.8-7.88-7.55,3.59ZM202.4.37l11.09,4.4-4.73,10.95V6.73l-6.36-6.36ZM218.27,16.24h-8.99l10.95-4.73,4.4,11.09-6.36-6.36Z"/>
          <path d="M218.72,0c0,.59,1.66,1.1,3.21,1.27-.97,1.22-1.79,2.75-1.37,3.17.42.42,1.95-.4,3.17-1.37.17,1.55.68,3.21,1.27,3.21V0h-6.28Z"/>
        </g>
      </g>
      <g id="img1-3" data-name="img1">
        <g>
          <path d="M205.51,205.51v11.42l-8.07,8.07h12.92l7.88-2.8-3.59-7.55,7.55,3.59,2.8-7.88v-12.92l-8.07,8.07h-11.42ZM202.4,224.63l6.36-6.36v-8.99l4.73,10.95-11.09,4.4ZM224.63,202.4l-4.4,11.09-10.95-4.73h8.99l6.36-6.36Z"/>
          <path d="M223.73,221.93c-1.22-.97-2.75-1.79-3.17-1.37-.42.42.4,1.95,1.37,3.17-1.55.17-3.21.68-3.21,1.27h6.28v-6.27c-.59,0-1.1,1.66-1.27,3.21Z"/>
        </g>
      </g>
      <g id="img1-4" data-name="img1">
        <g>
          <path d="M19.49,205.51h-11.42l-8.07-8.07v12.92l2.8,7.88,7.55-3.59-3.59,7.55,7.88,2.8h12.92l-8.07-8.07v-11.42ZM4.77,213.49l-4.4-11.09,6.36,6.36h8.99l-10.95,4.73ZM22.6,224.63l-11.09-4.4,4.73-10.95v8.99l6.36,6.36Z"/>
          <path d="M3.07,223.73c.97-1.22,1.79-2.75,1.37-3.17-.42-.42-1.95.4-3.17,1.37-.17-1.55-.68-3.21-1.27-3.21v6.27h6.27c0-.59-1.66-1.1-3.21-1.27Z"/>
        </g>
      </g>
      <g id="img6">
        <g>
          <path d="M131.99,93.01h-11.42l-8.07-8.07-8.07,8.07h-11.42v11.42l-8.07,8.07,8.07,8.07v11.42h11.42l8.07,8.07,8.07-8.07h11.42v-11.42l8.07-8.07-8.07-8.07v-11.42ZM119.23,96.26h8.99l-10.95,4.73-4.4-11.09,6.36,6.36ZM105.77,96.26l6.36-6.36-4.4,11.09-10.95-4.73h8.99ZM96.26,105.77v-8.99l4.73,10.95-11.09,4.4,6.36-6.36ZM89.9,112.87l11.09,4.4-4.73,10.95v-8.99l-6.36-6.36ZM105.77,128.74h-8.99l10.95-4.73,4.4,11.09-6.36-6.36ZM109.7,119.26l-7.55,3.59,3.59-7.55-7.88-2.8,7.88-2.8-3.59-7.55,7.55,3.59,2.8-7.88,2.8,7.88,7.55-3.59-3.59,7.55,7.88,2.8-7.88,2.8,3.59,7.55-7.55-3.59-2.8,7.88-2.8-7.88ZM119.23,128.74l-6.36,6.36,4.4-11.09,10.95,4.73h-8.99ZM128.74,119.23v8.99l-4.73-10.95,11.09-4.4-6.36,6.36ZM135.1,112.13l-11.09-4.4,4.73-10.95v8.99l6.36,6.36Z"/>
          <path d="M115.57,111.23c.97-1.22,1.79-2.75,1.37-3.17-.42-.42-1.95.4-3.17,1.37-.17-1.55-.68-3.21-1.27-3.21s-1.1,1.66-1.27,3.21c-1.22-.97-2.75-1.79-3.17-1.37-.42.42.4,1.95,1.37,3.17-1.55.17-3.21.68-3.21,1.27s1.66,1.1,3.21,1.27c-.97,1.22-1.79,2.75-1.37,3.17.42.42,1.95-.4,3.17-1.37.17,1.55.68,3.21,1.27,3.21s1.1-1.66,1.27-3.21c1.22.97,2.75,1.79,3.17,1.37.42-.42-.4-1.95-1.37-3.17,1.55-.17,3.21-.68,3.21-1.27s-1.66-1.1-3.21-1.27Z"/>
        </g>
      </g>
    </g>
    <g>
      <g id="img4-2" data-name="img4">
        <g>
          <path d="M385.46,64.16v11.49l8.26,8.15,8.26-8.15v-11.49l-8.26-5.32-8.26,5.32ZM400.99,75.28l-7.26,7.17-7.26-7.17v-8.38l7.26-4.19,7.26,4.19v8.38Z"/>
          <path d="M388.03,68.12v6.58l5.7,5.63,5.7-5.63v-6.58l-5.7-3.29-5.7,3.29ZM395.18,70.57c1.31.1,3.23.71,3.23,1.46s-1.91,1.36-3.23,1.45c-.1,1.32-.71,3.23-1.46,3.23s-1.36-1.91-1.45-3.23c-1.32-.1-3.23-.71-3.23-1.45s1.91-1.36,3.23-1.46c.1-1.32.71-3.23,1.45-3.23s1.36,1.91,1.46,3.23Z"/>
          <path d="M401.66,48.01l-5.32,8.26,5.32,8.26h11.49l8.15-8.26-8.15-8.26h-11.49ZM412.79,63.53h-8.38l-4.19-7.26,4.19-7.26h8.38l7.17,7.26-7.17,7.26Z"/>
          <path d="M405.62,50.57l-3.29,5.7,3.29,5.7h6.58l5.63-5.7-5.63-5.7h-6.58ZM414.21,56.27c0,.74-1.91,1.36-3.23,1.45-.1,1.32-.71,3.23-1.46,3.23s-1.36-1.91-1.45-3.23c-1.32-.1-3.23-.71-3.23-1.46s1.91-1.36,3.23-1.45c.1-1.32.71-3.23,1.45-3.23s1.36,1.91,1.46,3.23c1.32.1,3.23.71,3.23,1.46Z"/>
          <path d="M385.51,36.84v11.49l8.26,5.32,8.26-5.32v-11.49l-8.26-8.15-8.26,8.15ZM401.04,45.6l-7.26,4.19-7.26-4.19v-8.38l7.26-7.17,7.26,7.17v8.38Z"/>
          <path d="M388.07,37.8v6.58l5.7,3.29,5.7-3.29v-6.58l-5.7-5.63-5.7,5.63ZM395.23,39.02c1.31.1,3.23.71,3.23,1.45s-1.91,1.36-3.23,1.46c-.1,1.32-.71,3.23-1.46,3.23s-1.36-1.91-1.45-3.23c-1.31-.1-3.23-.71-3.23-1.46s1.91-1.36,3.23-1.45c.1-1.32.71-3.23,1.46-3.23s1.36,1.91,1.46,3.23Z"/>
          <path d="M393.75,53.66c-1.43,0-2.59,1.16-2.59,2.59s1.16,2.59,2.59,2.59,2.59-1.16,2.59-2.59-1.16-2.59-2.59-2.59Z"/>
          <path d="M385.46,64.16v11.49l8.26,8.15,8.26-8.15v-11.49l-8.26-5.32-8.26,5.32ZM400.99,75.28l-7.26,7.17-7.26-7.17v-8.38l7.26-4.19,7.26,4.19v8.38Z"/>
          <path d="M388.03,68.12v6.58l5.7,5.63,5.7-5.63v-6.58l-5.7-3.29-5.7,3.29ZM395.18,70.57c1.31.1,3.23.71,3.23,1.46s-1.91,1.36-3.23,1.45c-.1,1.32-.71,3.23-1.46,3.23s-1.36-1.91-1.45-3.23c-1.32-.1-3.23-.71-3.23-1.45s1.91-1.36,3.23-1.46c.1-1.32.71-3.23,1.45-3.23s1.36,1.91,1.46,3.23Z"/>
          <path d="M385.51,36.84v11.49l8.26,5.32,8.26-5.32v-11.49l-8.26-8.15-8.26,8.15ZM401.04,45.6l-7.26,4.19-7.26-4.19v-8.38l7.26-7.17,7.26,7.17v8.38Z"/>
          <path d="M388.07,37.8v6.58l5.7,3.29,5.7-3.29v-6.58l-5.7-5.63-5.7,5.63ZM395.23,39.02c1.31.1,3.23.71,3.23,1.45s-1.91,1.36-3.23,1.46c-.1,1.32-.71,3.23-1.46,3.23s-1.36-1.91-1.45-3.23c-1.31-.1-3.23-.71-3.23-1.46s1.91-1.36,3.23-1.45c.1-1.32.71-3.23,1.46-3.23s1.36,1.91,1.46,3.23Z"/>
          <path d="M374.34,47.96l-8.15,8.26,8.15,8.26h11.49l5.32-8.26-5.32-8.26h-11.49ZM383.1,63.49h-8.38l-7.17-7.26,7.17-7.26h8.38l4.19,7.26-4.19,7.26Z"/>
          <path d="M375.3,50.53l-5.63,5.7,5.63,5.7h6.58l3.29-5.7-3.29-5.7h-6.58ZM382.66,56.23c0,.74-1.91,1.36-3.23,1.45-.1,1.32-.71,3.23-1.46,3.23s-1.36-1.91-1.45-3.23c-1.32-.1-3.23-.71-3.23-1.46s1.91-1.36,3.23-1.45c.1-1.32.71-3.23,1.45-3.23s1.36,1.91,1.46,3.23c1.31.1,3.23.71,3.23,1.45Z"/>
        </g>
      </g>
      <g id="img7-2" data-name="img7">
        <g>
          <path d="M272.97,176.66v11.49l8.26,8.15,8.26-8.15v-11.49l-8.26-5.32-8.26,5.32ZM288.49,187.78l-7.26,7.17-7.26-7.17v-8.38l7.26-4.19,7.26,4.19v8.38Z"/>
          <path d="M275.53,180.62v6.58l5.7,5.63,5.7-5.63v-6.58l-5.7-3.29-5.7,3.29ZM282.68,183.07c1.31.1,3.23.71,3.23,1.46s-1.91,1.36-3.23,1.45c-.1,1.32-.71,3.23-1.46,3.23s-1.36-1.91-1.45-3.23c-1.32-.1-3.23-.71-3.23-1.45s1.91-1.36,3.23-1.46c.1-1.31.71-3.23,1.45-3.23s1.36,1.91,1.46,3.23Z"/>
          <path d="M289.16,160.51l-5.32,8.26,5.32,8.26h11.49l8.15-8.26-8.15-8.26h-11.49ZM300.29,176.04h-8.38l-4.19-7.26,4.19-7.26h8.38l7.17,7.26-7.17,7.26Z"/>
          <path d="M293.12,163.07l-3.29,5.7,3.29,5.7h6.58l5.63-5.7-5.63-5.7h-6.58ZM301.71,168.77c0,.74-1.91,1.36-3.23,1.45-.1,1.32-.71,3.23-1.46,3.23s-1.36-1.91-1.45-3.23c-1.32-.1-3.23-.71-3.23-1.45s1.91-1.36,3.23-1.45c.1-1.32.71-3.23,1.45-3.23s1.36,1.91,1.46,3.23c1.32.1,3.23.71,3.23,1.45Z"/>
          <path d="M273.01,149.34v11.49l8.26,5.32,8.26-5.32v-11.49l-8.26-8.15-8.26,8.15ZM288.53,158.1l-7.26,4.19-7.26-4.19v-8.38l7.26-7.17,7.26,7.17v8.38Z"/>
          <path d="M275.57,150.3v6.58l5.7,3.29,5.7-3.29v-6.58l-5.7-5.63-5.7,5.63ZM282.73,151.52c1.31.1,3.23.71,3.23,1.46s-1.91,1.36-3.23,1.46c-.1,1.31-.71,3.23-1.46,3.23s-1.36-1.91-1.45-3.23c-1.31-.1-3.23-.71-3.23-1.46s1.91-1.36,3.23-1.46c.1-1.32.71-3.23,1.46-3.23s1.36,1.91,1.46,3.23Z"/>
          <path d="M281.25,166.16c-1.43,0-2.59,1.16-2.59,2.59s1.16,2.59,2.59,2.59,2.59-1.16,2.59-2.59-1.16-2.59-2.59-2.59Z"/>
          <path d="M272.97,176.66v11.49l8.26,8.15,8.26-8.15v-11.49l-8.26-5.32-8.26,5.32ZM288.49,187.78l-7.26,7.17-7.26-7.17v-8.38l7.26-4.19,7.26,4.19v8.38Z"/>
          <path d="M275.53,180.62v6.58l5.7,5.63,5.7-5.63v-6.58l-5.7-3.29-5.7,3.29ZM282.68,183.07c1.31.1,3.23.71,3.23,1.46s-1.91,1.36-3.23,1.45c-.1,1.32-.71,3.23-1.46,3.23s-1.36-1.91-1.45-3.23c-1.32-.1-3.23-.71-3.23-1.45s1.91-1.36,3.23-1.46c.1-1.31.71-3.23,1.45-3.23s1.36,1.91,1.46,3.23Z"/>
          <path d="M273.01,149.34v11.49l8.26,5.32,8.26-5.32v-11.49l-8.26-8.15-8.26,8.15ZM288.53,158.1l-7.26,4.19-7.26-4.19v-8.38l7.26-7.17,7.26,7.17v8.38Z"/>
          <path d="M275.57,150.3v6.58l5.7,3.29,5.7-3.29v-6.58l-5.7-5.63-5.7,5.63ZM282.73,151.52c1.31.1,3.23.71,3.23,1.46s-1.91,1.36-3.23,1.46c-.1,1.31-.71,3.23-1.46,3.23s-1.36-1.91-1.45-3.23c-1.31-.1-3.23-.71-3.23-1.46s1.91-1.36,3.23-1.46c.1-1.32.71-3.23,1.46-3.23s1.36,1.91,1.46,3.23Z"/>
          <path d="M261.84,160.46l-8.15,8.26,8.15,8.26h11.49l5.32-8.26-5.32-8.26h-11.49ZM270.6,175.99h-8.38l-7.17-7.26,7.17-7.26h8.38l4.19,7.26-4.19,7.26Z"/>
          <path d="M262.8,163.03l-5.63,5.7,5.63,5.7h6.58l3.29-5.7-3.29-5.7h-6.58ZM270.16,168.73c0,.74-1.91,1.36-3.23,1.45-.1,1.32-.71,3.23-1.46,3.23s-1.36-1.91-1.45-3.23c-1.32-.1-3.23-.71-3.23-1.45s1.91-1.36,3.23-1.45c.1-1.31.71-3.23,1.45-3.23s1.36,1.91,1.46,3.23c1.31.1,3.23.71,3.23,1.45Z"/>
        </g>
      </g>
      <g id="img3-2" data-name="img3">
        <g>
          <path d="M272.82,37.03v9.76l8.46,4.88,8.46-4.88v-9.76l-8.46-8.35-8.46,8.35ZM284.87,38.78l3.81,2.38-3.81,2.38-3.3-2.06,2.06,3.3-2.38,3.81-2.38-3.81,2.06-3.3-3.3,2.06-3.81-2.38,3.81-2.38,3.3,2.06-2.06-3.3,2.38-3.81,2.38,3.81-2.06,3.3,3.3-2.06Z"/>
          <path d="M262.03,47.77l-8.35,8.46,8.35,8.46h9.76l4.88-8.46-4.88-8.46h-9.76ZM269.78,58.63l-3.3-2.06,2.06,3.3-2.38,3.81-2.38-3.81,2.06-3.3-3.3,2.06-3.81-2.38,3.81-2.38,3.3,2.06-2.06-3.3,2.38-3.81,2.38,3.81-2.06,3.3,3.3-2.06,3.81,2.38-3.81,2.38Z"/>
          <path d="M272.77,65.7v9.76l8.46,8.35,8.46-8.35v-9.76l-8.46-4.88-8.46,4.88ZM283.63,67.72l-2.06,3.3,3.3-2.07,3.81,2.38-3.81,2.38-3.3-2.06,2.06,3.3-2.38,3.81-2.38-3.81,2.06-3.3-3.3,2.06-3.81-2.38,3.81-2.38,3.3,2.07-2.06-3.3,2.38-3.81,2.38,3.81Z"/>
          <path d="M290.7,47.82l-4.88,8.46,4.88,8.46h9.76l8.34-8.46-8.34-8.46h-9.76ZM299.96,58.63l-3.3-2.06,2.06,3.3-2.38,3.81-2.38-3.81,2.06-3.3-3.3,2.06-3.81-2.38,3.81-2.38,3.3,2.06-2.06-3.3,2.38-3.81,2.38,3.81-2.06,3.3,3.3-2.06,3.81,2.38-3.81,2.38Z"/>
          <path d="M281.38,53.3l-7.09-4.16,4.16,7.08-4.16,7.09,7.09-4.16,7.09,4.16-4.16-7.09,4.16-7.08-7.09,4.16ZM281.38,57.98l-1.75-1.75,1.75-1.75,1.75,1.75-1.75,1.75Z"/>
        </g>
      </g>
      <g id="img8-2" data-name="img8">
        <g>
          <path d="M385.32,149.53v9.76l8.46,4.88,8.46-4.88v-9.76l-8.46-8.35-8.46,8.35ZM397.37,151.28l3.81,2.38-3.81,2.38-3.3-2.06,2.06,3.3-2.38,3.81-2.38-3.81,2.06-3.3-3.3,2.06-3.81-2.38,3.81-2.38,3.3,2.06-2.06-3.3,2.38-3.81,2.38,3.81-2.06,3.3,3.3-2.06Z"/>
          <path d="M374.53,160.27l-8.35,8.46,8.35,8.46h9.76l4.88-8.46-4.88-8.46h-9.76ZM382.28,171.13l-3.3-2.06,2.06,3.3-2.38,3.81-2.38-3.81,2.06-3.3-3.3,2.06-3.81-2.38,3.81-2.38,3.3,2.06-2.06-3.3,2.38-3.81,2.38,3.81-2.06,3.3,3.3-2.06,3.81,2.38-3.81,2.38Z"/>
          <path d="M385.27,178.2v9.76l8.46,8.35,8.46-8.35v-9.76l-8.46-4.88-8.46,4.88ZM396.13,180.22l-2.06,3.3,3.3-2.06,3.81,2.38-3.81,2.38-3.3-2.06,2.06,3.3-2.38,3.81-2.38-3.81,2.06-3.3-3.3,2.06-3.81-2.38,3.81-2.38,3.3,2.06-2.06-3.3,2.38-3.81,2.38,3.81Z"/>
          <path d="M403.2,160.32l-4.88,8.46,4.88,8.46h9.76l8.35-8.46-8.35-8.46h-9.76ZM412.46,171.13l-3.3-2.06,2.06,3.3-2.38,3.81-2.38-3.81,2.06-3.3-3.3,2.06-3.81-2.38,3.81-2.38,3.3,2.06-2.06-3.3,2.38-3.81,2.38,3.81-2.06,3.3,3.3-2.06,3.81,2.38-3.81,2.38Z"/>
          <path d="M393.88,165.8l-7.09-4.16,4.16,7.08-4.16,7.09,7.09-4.16,7.08,4.16-4.16-7.09,4.16-7.08-7.08,4.16ZM393.88,170.48l-1.75-1.75,1.75-1.75,1.75,1.75-1.75,1.75Z"/>
        </g>
      </g>
      <g id="img2-3" data-name="img2">
        <g>
          <path d="M318.01,19.49h11.42l8.07,8.07,8.07-8.07h11.42v-11.42l8.07-8.07h-12.92l-7.88,2.8,3.59,7.55-7.55-3.59-2.8,7.88-2.8-7.88-7.55,3.59,3.59-7.55-7.88-2.8h-12.92l8.07,8.07v11.42ZM360.1.37l-6.36,6.36v8.99l-4.73-10.95,11.09-4.4ZM342.27,11.51l10.95,4.73h-8.99l-6.36,6.36,4.4-11.09ZM332.73,11.51l4.4,11.09-6.36-6.36h-8.99l10.95-4.73ZM314.9.37l11.09,4.4-4.73,10.95V6.73l-6.36-6.36Z"/>
          <path d="M334.93,2.57c0,1.42,1.15,2.57,2.57,2.57s2.57-1.15,2.57-2.57c1.42,0,2.57-1.15,2.57-2.57h-10.27c0,1.42,1.15,2.57,2.57,2.57Z"/>
        </g>
      </g>
      <g id="img2-4" data-name="img2">
        <g>
          <path d="M356.99,205.51h-11.42l-8.07-8.07-8.07,8.07h-11.42v11.42l-8.07,8.07h12.92l7.88-2.8-3.59-7.55,7.55,3.59,2.8-7.88,2.8,7.88,7.55-3.59-3.59,7.55,7.88,2.8h12.92l-8.07-8.07v-11.42ZM314.9,224.63l6.36-6.36v-8.99l4.73,10.95-11.09,4.4ZM332.73,213.49l-10.95-4.73h8.99l6.36-6.36-4.4,11.09ZM342.27,213.49l-4.4-11.09,6.36,6.36h8.99l-10.95,4.73ZM360.1,224.63l-11.09-4.4,4.73-10.95v8.99l6.36,6.36Z"/>
          <path d="M340.07,222.43c0-1.42-1.15-2.57-2.57-2.57s-2.57,1.15-2.57,2.57c-1.42,0-2.57,1.15-2.57,2.57h10.27c0-1.42-1.15-2.57-2.57-2.57Z"/>
        </g>
      </g>
      <g id="img5-3" data-name="img5">
        <g>
          <path d="M244.49,131.99v-11.42l8.07-8.07-8.07-8.07v-11.42h-11.42l-8.07-8.07v12.92l2.8,7.88,7.55-3.59-3.59,7.55,7.88,2.8-7.88,2.8,3.59,7.55-7.55-3.59-2.8,7.88v12.92l8.07-8.07h11.42ZM229.77,100.99l-4.4-11.09,6.36,6.36h8.99l-10.95,4.73ZM236.51,107.73l4.73-10.95v8.99l6.36,6.36-11.09-4.4ZM247.6,112.87l-6.36,6.36v8.99l-4.73-10.95,11.09-4.4ZM225.37,135.1l4.4-11.09,10.95,4.73h-8.99l-6.36,6.36Z"/>
          <path d="M227.57,115.07c1.42,0,2.57-1.15,2.57-2.57s-1.15-2.57-2.57-2.57c0-1.42-1.15-2.57-2.57-2.57v10.27c1.42,0,2.57-1.15,2.57-2.57Z"/>
        </g>
      </g>
      <g id="img5-4" data-name="img5">
        <g>
          <path d="M430.51,93.01v11.42l-8.07,8.07,8.07,8.07v11.42h11.42l8.07,8.07v-12.92l-2.8-7.88-7.55,3.59,3.59-7.55-7.88-2.8,7.88-2.8-3.59-7.55,7.55,3.59,2.8-7.88v-12.92l-8.07,8.07h-11.42ZM445.23,124.01l4.4,11.09-6.36-6.36h-8.99l10.95-4.73ZM438.49,117.27l-4.73,10.95v-8.99l-6.36-6.36,11.09,4.4ZM427.4,112.13l6.36-6.36v-8.99l4.73,10.95-11.09,4.4ZM449.63,89.9l-4.4,11.09-10.95-4.73h8.99l6.36-6.36Z"/>
          <path d="M447.43,109.93c-1.42,0-2.57,1.15-2.57,2.57s1.15,2.57,2.57,2.57c0,1.42,1.15,2.57,2.57,2.57v-10.27c-1.42,0-2.57,1.15-2.57,2.57Z"/>
        </g>
      </g>
      <g id="img1-5" data-name="img1">
        <g>
          <path d="M244.49,19.49v-11.42l8.07-8.07h-12.92l-7.88,2.8,3.59,7.55-7.55-3.59-2.8,7.88v12.92l8.07-8.07h11.42ZM247.6.37l-6.36,6.36v8.99l-4.73-10.95,11.09-4.4ZM225.37,22.6l4.4-11.09,10.95,4.73h-8.99l-6.36,6.36Z"/>
          <path d="M226.27,3.07c1.22.97,2.75,1.79,3.17,1.37.42-.42-.4-1.95-1.37-3.17,1.55-.17,3.21-.68,3.21-1.27h-6.27v6.27c.59,0,1.1-1.66,1.27-3.21Z"/>
        </g>
      </g>
      <g id="img1-6" data-name="img1">
        <g>
          <path d="M439.65,10.35l3.59-7.55-7.88-2.8h-12.92l8.07,8.07v11.42h11.42l8.07,8.07v-12.92l-2.8-7.88-7.55,3.59ZM427.4.37l11.09,4.4-4.73,10.95V6.73l-6.36-6.36ZM443.27,16.24h-8.99l10.95-4.73,4.4,11.09-6.36-6.36Z"/>
          <path d="M443.72,0c0,.59,1.66,1.1,3.21,1.27-.97,1.22-1.79,2.75-1.37,3.17.42.42,1.95-.4,3.17-1.37.17,1.55.68,3.21,1.27,3.21V0h-6.28Z"/>
        </g>
      </g>
      <g id="img1-7" data-name="img1">
        <g>
          <path d="M430.51,205.51v11.42l-8.07,8.07h12.92l7.88-2.8-3.59-7.55,7.55,3.59,2.8-7.88v-12.92l-8.07,8.07h-11.42ZM427.4,224.63l6.36-6.36v-8.99l4.73,10.95-11.09,4.4ZM449.63,202.4l-4.4,11.09-10.95-4.73h8.99l6.36-6.36Z"/>
          <path d="M448.73,221.93c-1.22-.97-2.75-1.79-3.17-1.37-.42.42.4,1.95,1.37,3.17-1.55.17-3.21.68-3.21,1.27h6.28v-6.27c-.59,0-1.1,1.66-1.27,3.21Z"/>
        </g>
      </g>
      <g id="img1-8" data-name="img1">
        <g>
          <path d="M244.49,205.51h-11.42l-8.07-8.07v12.92l2.8,7.88,7.55-3.59-3.59,7.55,7.88,2.8h12.92l-8.07-8.07v-11.42ZM229.77,213.49l-4.4-11.09,6.36,6.36h8.99l-10.95,4.73ZM247.6,224.63l-11.09-4.4,4.73-10.95v8.99l6.36,6.36Z"/>
          <path d="M228.07,223.73c.97-1.22,1.79-2.75,1.37-3.17-.42-.42-1.95.4-3.17,1.37-.17-1.55-.68-3.21-1.27-3.21v6.27h6.27c0-.59-1.66-1.1-3.21-1.27Z"/>
        </g>
      </g>
      <g id="img6-2" data-name="img6">
        <g>
          <path d="M356.99,93.01h-11.42l-8.07-8.07-8.07,8.07h-11.42v11.42l-8.07,8.07,8.07,8.07v11.42h11.42l8.07,8.07,8.07-8.07h11.42v-11.42l8.07-8.07-8.07-8.07v-11.42ZM344.23,96.26h8.99l-10.95,4.73-4.4-11.09,6.36,6.36ZM330.77,96.26l6.36-6.36-4.4,11.09-10.95-4.73h8.99ZM321.26,105.77v-8.99l4.73,10.95-11.09,4.4,6.36-6.36ZM314.9,112.87l11.09,4.4-4.73,10.95v-8.99l-6.36-6.36ZM330.77,128.74h-8.99l10.95-4.73,4.4,11.09-6.36-6.36ZM334.7,119.26l-7.55,3.59,3.59-7.55-7.88-2.8,7.88-2.8-3.59-7.55,7.55,3.59,2.8-7.88,2.8,7.88,7.55-3.59-3.59,7.55,7.88,2.8-7.88,2.8,3.59,7.55-7.55-3.59-2.8,7.88-2.8-7.88ZM344.23,128.74l-6.36,6.36,4.4-11.09,10.95,4.73h-8.99ZM353.74,119.23v8.99l-4.73-10.95,11.09-4.4-6.36,6.36ZM360.1,112.13l-11.09-4.4,4.73-10.95v8.99l6.36,6.36Z"/>
          <path d="M340.57,111.23c.97-1.22,1.79-2.75,1.37-3.17-.42-.42-1.95.4-3.17,1.37-.17-1.55-.68-3.21-1.27-3.21s-1.1,1.66-1.27,3.21c-1.22-.97-2.75-1.79-3.17-1.37-.42.42.4,1.95,1.37,3.17-1.55.17-3.21.68-3.21,1.27s1.66,1.1,3.21,1.27c-.97,1.22-1.79,2.75-1.37,3.17.42.42,1.95-.4,3.17-1.37.17,1.55.68,3.21,1.27,3.21s1.1-1.66,1.27-3.21c1.22.97,2.75,1.79,3.17,1.37.42-.42-.4-1.95-1.37-3.17,1.55-.17,3.21-.68,3.21-1.27s-1.66-1.1-3.21-1.27Z"/>
        </g>
      </g>
    </g>
    <g>
      <g id="img4-3" data-name="img4">
        <g>
          <path d="M160.46,289.16v11.49l8.26,8.15,8.26-8.15v-11.49l-8.26-5.32-8.26,5.32ZM175.99,300.28l-7.26,7.17-7.26-7.17v-8.38l7.26-4.19,7.26,4.19v8.38Z"/>
          <path d="M163.03,293.12v6.58l5.7,5.63,5.7-5.63v-6.58l-5.7-3.29-5.7,3.29ZM170.18,295.57c1.31.1,3.23.71,3.23,1.46s-1.91,1.36-3.23,1.45c-.1,1.32-.71,3.23-1.46,3.23s-1.36-1.91-1.45-3.23c-1.32-.1-3.23-.71-3.23-1.45s1.91-1.36,3.23-1.46c.1-1.31.71-3.23,1.45-3.23s1.36,1.91,1.46,3.23Z"/>
          <path d="M176.66,273.01l-5.32,8.26,5.32,8.26h11.49l8.15-8.26-8.15-8.26h-11.49ZM187.79,288.53h-8.38l-4.19-7.26,4.19-7.26h8.38l7.17,7.26-7.17,7.26Z"/>
          <path d="M180.62,275.57l-3.29,5.7,3.29,5.7h6.58l5.63-5.7-5.63-5.7h-6.58ZM189.21,281.27c0,.74-1.91,1.36-3.23,1.45-.1,1.32-.71,3.23-1.46,3.23s-1.36-1.91-1.45-3.23c-1.32-.1-3.23-.71-3.23-1.46s1.91-1.36,3.23-1.45c.1-1.32.71-3.23,1.45-3.23s1.36,1.91,1.46,3.23c1.32.1,3.23.71,3.23,1.46Z"/>
          <path d="M160.51,261.84v11.49l8.26,5.32,8.26-5.32v-11.49l-8.26-8.16-8.26,8.16ZM176.04,270.6l-7.26,4.19-7.26-4.19v-8.38l7.26-7.17,7.26,7.17v8.38Z"/>
          <path d="M163.07,262.8v6.58l5.7,3.29,5.7-3.29v-6.58l-5.7-5.63-5.7,5.63ZM170.23,264.02c1.31.1,3.23.71,3.23,1.45s-1.91,1.36-3.23,1.46c-.1,1.31-.71,3.23-1.46,3.23s-1.36-1.91-1.45-3.23c-1.31-.1-3.23-.71-3.23-1.46s1.91-1.36,3.23-1.45c.1-1.32.71-3.23,1.46-3.23s1.36,1.91,1.46,3.23Z"/>
          <path d="M168.75,278.66c-1.43,0-2.59,1.16-2.59,2.59s1.16,2.59,2.59,2.59,2.59-1.16,2.59-2.59-1.16-2.59-2.59-2.59Z"/>
          <path d="M160.46,289.16v11.49l8.26,8.15,8.26-8.15v-11.49l-8.26-5.32-8.26,5.32ZM175.99,300.28l-7.26,7.17-7.26-7.17v-8.38l7.26-4.19,7.26,4.19v8.38Z"/>
          <path d="M163.03,293.12v6.58l5.7,5.63,5.7-5.63v-6.58l-5.7-3.29-5.7,3.29ZM170.18,295.57c1.31.1,3.23.71,3.23,1.46s-1.91,1.36-3.23,1.45c-.1,1.32-.71,3.23-1.46,3.23s-1.36-1.91-1.45-3.23c-1.32-.1-3.23-.71-3.23-1.45s1.91-1.36,3.23-1.46c.1-1.31.71-3.23,1.45-3.23s1.36,1.91,1.46,3.23Z"/>
          <path d="M160.51,261.84v11.49l8.26,5.32,8.26-5.32v-11.49l-8.26-8.16-8.26,8.16ZM176.04,270.6l-7.26,4.19-7.26-4.19v-8.38l7.26-7.17,7.26,7.17v8.38Z"/>
          <path d="M163.07,262.8v6.58l5.7,3.29,5.7-3.29v-6.58l-5.7-5.63-5.7,5.63ZM170.23,264.02c1.31.1,3.23.71,3.23,1.45s-1.91,1.36-3.23,1.46c-.1,1.31-.71,3.23-1.46,3.23s-1.36-1.91-1.45-3.23c-1.31-.1-3.23-.71-3.23-1.46s1.91-1.36,3.23-1.45c.1-1.32.71-3.23,1.46-3.23s1.36,1.91,1.46,3.23Z"/>
          <path d="M149.34,272.96l-8.15,8.26,8.15,8.26h11.49l5.32-8.26-5.32-8.26h-11.49ZM158.1,288.49h-8.38l-7.17-7.26,7.17-7.26h8.38l4.19,7.26-4.19,7.26Z"/>
          <path d="M150.3,275.53l-5.63,5.7,5.63,5.7h6.58l3.29-5.7-3.29-5.7h-6.58ZM157.66,281.23c0,.74-1.91,1.36-3.23,1.45-.1,1.32-.71,3.23-1.46,3.23s-1.36-1.91-1.45-3.23c-1.32-.1-3.23-.71-3.23-1.46s1.91-1.36,3.23-1.45c.1-1.32.71-3.23,1.45-3.23s1.36,1.91,1.46,3.23c1.31.1,3.23.71,3.23,1.45Z"/>
        </g>
      </g>
      <g id="img7-3" data-name="img7">
        <g>
          <path d="M47.97,401.66v11.49l8.26,8.15,8.26-8.15v-11.49l-8.26-5.32-8.26,5.32ZM63.49,412.78l-7.26,7.17-7.26-7.17v-8.38l7.26-4.19,7.26,4.19v8.38Z"/>
          <path d="M50.53,405.62v6.58l5.7,5.63,5.7-5.63v-6.58l-5.7-3.29-5.7,3.29ZM57.68,408.07c1.31.1,3.23.71,3.23,1.46s-1.91,1.36-3.23,1.45c-.1,1.32-.71,3.23-1.46,3.23s-1.36-1.91-1.45-3.23c-1.32-.1-3.23-.71-3.23-1.45s1.91-1.36,3.23-1.46c.1-1.31.71-3.23,1.45-3.23s1.36,1.91,1.46,3.23Z"/>
          <path d="M64.16,385.51l-5.32,8.26,5.32,8.26h11.49l8.15-8.26-8.15-8.26h-11.49ZM75.29,401.04h-8.38l-4.19-7.26,4.19-7.26h8.38l7.17,7.26-7.17,7.26Z"/>
          <path d="M68.12,388.07l-3.29,5.7,3.29,5.7h6.58l5.63-5.7-5.63-5.7h-6.58ZM76.71,393.77c0,.74-1.91,1.36-3.23,1.45-.1,1.32-.71,3.23-1.46,3.23s-1.36-1.91-1.45-3.23c-1.32-.1-3.23-.71-3.23-1.45s1.91-1.36,3.23-1.45c.1-1.32.71-3.23,1.45-3.23s1.36,1.91,1.46,3.23c1.32.1,3.23.71,3.23,1.45Z"/>
          <path d="M48.01,374.34v11.49l8.26,5.32,8.26-5.32v-11.49l-8.26-8.15-8.26,8.15ZM63.53,383.1l-7.26,4.19-7.26-4.19v-8.38l7.26-7.17,7.26,7.17v8.38Z"/>
          <path d="M50.57,375.3v6.58l5.7,3.29,5.7-3.29v-6.58l-5.7-5.63-5.7,5.63ZM57.73,376.52c1.31.1,3.23.71,3.23,1.46s-1.91,1.36-3.23,1.46c-.1,1.32-.71,3.23-1.46,3.23s-1.36-1.91-1.45-3.23c-1.31-.1-3.23-.71-3.23-1.46s1.91-1.36,3.23-1.46c.1-1.32.71-3.23,1.46-3.23s1.36,1.91,1.46,3.23Z"/>
          <path d="M56.25,391.16c-1.43,0-2.59,1.16-2.59,2.59s1.16,2.59,2.59,2.59,2.59-1.16,2.59-2.59-1.16-2.59-2.59-2.59Z"/>
          <path d="M47.97,401.66v11.49l8.26,8.15,8.26-8.15v-11.49l-8.26-5.32-8.26,5.32ZM63.49,412.78l-7.26,7.17-7.26-7.17v-8.38l7.26-4.19,7.26,4.19v8.38Z"/>
          <path d="M50.53,405.62v6.58l5.7,5.63,5.7-5.63v-6.58l-5.7-3.29-5.7,3.29ZM57.68,408.07c1.31.1,3.23.71,3.23,1.46s-1.91,1.36-3.23,1.45c-.1,1.32-.71,3.23-1.46,3.23s-1.36-1.91-1.45-3.23c-1.32-.1-3.23-.71-3.23-1.45s1.91-1.36,3.23-1.46c.1-1.31.71-3.23,1.45-3.23s1.36,1.91,1.46,3.23Z"/>
          <path d="M48.01,374.34v11.49l8.26,5.32,8.26-5.32v-11.49l-8.26-8.15-8.26,8.15ZM63.53,383.1l-7.26,4.19-7.26-4.19v-8.38l7.26-7.17,7.26,7.17v8.38Z"/>
          <path d="M50.57,375.3v6.58l5.7,3.29,5.7-3.29v-6.58l-5.7-5.63-5.7,5.63ZM57.73,376.52c1.31.1,3.23.71,3.23,1.46s-1.91,1.36-3.23,1.46c-.1,1.32-.71,3.23-1.46,3.23s-1.36-1.91-1.45-3.23c-1.31-.1-3.23-.71-3.23-1.46s1.91-1.36,3.23-1.46c.1-1.32.71-3.23,1.46-3.23s1.36,1.91,1.46,3.23Z"/>
          <path d="M36.84,385.46l-8.15,8.26,8.15,8.26h11.49l5.32-8.26-5.32-8.26h-11.49ZM45.6,400.99h-8.38l-7.17-7.26,7.17-7.26h8.38l4.19,7.26-4.19,7.26Z"/>
          <path d="M37.8,388.03l-5.63,5.7,5.63,5.7h6.58l3.29-5.7-3.29-5.7h-6.58ZM45.16,393.73c0,.74-1.91,1.36-3.23,1.45-.1,1.32-.71,3.23-1.46,3.23s-1.36-1.91-1.45-3.23c-1.32-.1-3.23-.71-3.23-1.45s1.91-1.36,3.23-1.45c.1-1.32.71-3.23,1.45-3.23s1.36,1.91,1.46,3.23c1.32.1,3.23.71,3.23,1.45Z"/>
        </g>
      </g>
      <g id="img3-3" data-name="img3">
        <g>
          <path d="M47.82,262.03v9.76l8.46,4.88,8.46-4.88v-9.76l-8.46-8.35-8.46,8.35ZM59.87,263.78l3.81,2.38-3.81,2.38-3.3-2.06,2.06,3.3-2.38,3.81-2.38-3.81,2.06-3.3-3.3,2.06-3.81-2.38,3.81-2.38,3.3,2.06-2.06-3.3,2.38-3.81,2.38,3.81-2.06,3.3,3.3-2.06Z"/>
          <path d="M37.03,272.77l-8.35,8.46,8.35,8.46h9.76l4.88-8.46-4.88-8.46h-9.76ZM44.78,283.63l-3.3-2.06,2.06,3.3-2.38,3.81-2.38-3.81,2.06-3.3-3.3,2.06-3.81-2.38,3.81-2.38,3.3,2.06-2.06-3.3,2.38-3.81,2.38,3.81-2.06,3.3,3.3-2.06,3.81,2.38-3.81,2.38Z"/>
          <path d="M47.77,290.7v9.76l8.46,8.35,8.46-8.35v-9.76l-8.46-4.88-8.46,4.88ZM58.63,292.72l-2.06,3.3,3.3-2.07,3.81,2.38-3.81,2.38-3.3-2.06,2.06,3.3-2.38,3.81-2.38-3.81,2.06-3.3-3.3,2.06-3.81-2.38,3.81-2.38,3.3,2.07-2.06-3.3,2.38-3.81,2.38,3.81Z"/>
          <path d="M65.7,272.82l-4.88,8.46,4.88,8.46h9.76l8.35-8.46-8.35-8.46h-9.76ZM74.96,283.63l-3.3-2.06,2.06,3.3-2.38,3.81-2.38-3.81,2.06-3.3-3.3,2.06-3.81-2.38,3.81-2.38,3.3,2.06-2.06-3.3,2.38-3.81,2.38,3.81-2.06,3.3,3.3-2.06,3.81,2.38-3.81,2.38Z"/>
          <path d="M56.38,278.3l-7.09-4.16,4.16,7.08-4.16,7.09,7.09-4.16,7.09,4.16-4.16-7.09,4.16-7.08-7.09,4.16ZM56.38,282.98l-1.75-1.75,1.75-1.75,1.75,1.75-1.75,1.75Z"/>
        </g>
      </g>
      <g id="img8-3" data-name="img8">
        <g>
          <path d="M160.32,374.53v9.76l8.46,4.88,8.46-4.88v-9.76l-8.46-8.35-8.46,8.35ZM172.37,376.28l3.81,2.38-3.81,2.38-3.3-2.06,2.06,3.3-2.38,3.81-2.38-3.81,2.06-3.3-3.3,2.06-3.81-2.38,3.81-2.38,3.3,2.06-2.06-3.3,2.38-3.81,2.38,3.81-2.06,3.3,3.3-2.06Z"/>
          <path d="M149.53,385.27l-8.35,8.46,8.35,8.46h9.76l4.88-8.46-4.88-8.46h-9.76ZM157.28,396.13l-3.3-2.06,2.06,3.3-2.38,3.81-2.38-3.81,2.06-3.3-3.3,2.06-3.81-2.38,3.81-2.38,3.3,2.06-2.06-3.3,2.38-3.81,2.38,3.81-2.06,3.3,3.3-2.06,3.81,2.38-3.81,2.38Z"/>
          <path d="M160.27,403.2v9.76l8.46,8.35,8.46-8.35v-9.76l-8.46-4.88-8.46,4.88ZM171.13,405.22l-2.06,3.3,3.3-2.06,3.81,2.38-3.81,2.38-3.3-2.06,2.06,3.3-2.38,3.81-2.38-3.81,2.06-3.3-3.3,2.06-3.81-2.38,3.81-2.38,3.3,2.06-2.06-3.3,2.38-3.81,2.38,3.81Z"/>
          <path d="M178.2,385.32l-4.88,8.46,4.88,8.46h9.76l8.35-8.46-8.35-8.46h-9.76ZM187.46,396.13l-3.3-2.06,2.06,3.3-2.38,3.81-2.38-3.81,2.06-3.3-3.3,2.06-3.81-2.38,3.81-2.38,3.3,2.06-2.06-3.3,2.38-3.81,2.38,3.81-2.06,3.3,3.3-2.06,3.81,2.38-3.81,2.38Z"/>
          <path d="M168.88,390.8l-7.09-4.16,4.16,7.08-4.16,7.09,7.09-4.16,7.08,4.16-4.16-7.09,4.16-7.08-7.08,4.16ZM168.88,395.48l-1.75-1.75,1.75-1.75,1.75,1.75-1.75,1.75Z"/>
        </g>
      </g>
      <g id="img2-5" data-name="img2">
        <g>
          <path d="M93.01,244.49h11.42l8.07,8.07,8.07-8.07h11.42v-11.42l8.07-8.07h-12.92l-7.88,2.8,3.59,7.55-7.55-3.59-2.8,7.88-2.8-7.88-7.55,3.59,3.59-7.55-7.88-2.8h-12.92l8.07,8.07v11.42ZM135.1,225.37l-6.36,6.36v8.99l-4.73-10.95,11.09-4.4ZM117.27,236.51l10.95,4.73h-8.99l-6.36,6.36,4.4-11.09ZM107.73,236.51l4.4,11.09-6.36-6.36h-8.99l10.95-4.73ZM89.9,225.37l11.09,4.4-4.73,10.95v-8.99l-6.36-6.36Z"/>
          <path d="M109.93,227.57c0,1.42,1.15,2.57,2.57,2.57s2.57-1.15,2.57-2.57c1.42,0,2.57-1.15,2.57-2.57h-10.27c0,1.42,1.15,2.57,2.57,2.57Z"/>
        </g>
      </g>
      <g id="img2-6" data-name="img2">
        <g>
          <path d="M131.99,430.51h-11.42l-8.07-8.07-8.07,8.07h-11.42v11.42l-8.07,8.07h12.92l7.88-2.8-3.59-7.55,7.55,3.59,2.8-7.88,2.8,7.88,7.55-3.59-3.59,7.55,7.88,2.8h12.92l-8.07-8.07v-11.42ZM89.9,449.63l6.36-6.36v-8.99l4.73,10.95-11.09,4.4ZM107.73,438.49l-10.95-4.73h8.99l6.36-6.36-4.4,11.09ZM117.27,438.49l-4.4-11.09,6.36,6.36h8.99l-10.95,4.73ZM135.1,449.63l-11.09-4.4,4.73-10.95v8.99l6.36,6.36Z"/>
          <path d="M115.07,447.43c0-1.42-1.15-2.57-2.57-2.57s-2.57,1.15-2.57,2.57c-1.42,0-2.57,1.15-2.57,2.57h10.27c0-1.42-1.15-2.57-2.57-2.57Z"/>
        </g>
      </g>
      <g id="img5-5" data-name="img5">
        <g>
          <path d="M19.49,356.99v-11.42l8.07-8.07-8.07-8.07v-11.42h-11.42l-8.07-8.07v12.92l2.8,7.88,7.55-3.59-3.59,7.55,7.88,2.8-7.88,2.8,3.59,7.55-7.55-3.59-2.8,7.88v12.92l8.07-8.07h11.42ZM4.77,325.99l-4.4-11.09,6.36,6.36h8.99l-10.95,4.73ZM11.51,332.73l4.73-10.95v8.99l6.36,6.36-11.09-4.4ZM22.6,337.87l-6.36,6.36v8.99l-4.73-10.95,11.09-4.4ZM.37,360.1l4.4-11.09,10.95,4.73H6.72l-6.36,6.36Z"/>
          <path d="M2.57,340.07c1.42,0,2.57-1.15,2.57-2.57s-1.15-2.57-2.57-2.57c0-1.42-1.15-2.57-2.57-2.57v10.27c1.42,0,2.57-1.15,2.57-2.57Z"/>
        </g>
      </g>
      <g id="img5-6" data-name="img5">
        <g>
          <path d="M205.51,318.01v11.42l-8.07,8.07,8.07,8.07v11.42h11.42l8.07,8.07v-12.92l-2.8-7.88-7.55,3.59,3.59-7.55-7.88-2.8,7.88-2.8-3.59-7.55,7.55,3.59,2.8-7.88v-12.92l-8.07,8.07h-11.42ZM220.23,349.01l4.4,11.09-6.36-6.36h-8.99l10.95-4.73ZM213.49,342.27l-4.73,10.95v-8.99l-6.36-6.36,11.09,4.4ZM202.4,337.13l6.36-6.36v-8.99l4.73,10.95-11.09,4.4ZM224.63,314.9l-4.4,11.09-10.95-4.73h8.99l6.36-6.36Z"/>
          <path d="M222.43,334.93c-1.42,0-2.57,1.15-2.57,2.57s1.15,2.57,2.57,2.57c0,1.42,1.15,2.57,2.57,2.57v-10.27c-1.42,0-2.57,1.15-2.57,2.57Z"/>
        </g>
      </g>
      <g id="img1-9" data-name="img1">
        <g>
          <path d="M19.49,244.49v-11.42l8.07-8.07h-12.92l-7.88,2.8,3.59,7.55-7.55-3.59-2.8,7.88v12.92l8.07-8.07h11.42ZM22.6,225.37l-6.36,6.36v8.99l-4.73-10.95,11.09-4.4ZM.37,247.6l4.4-11.09,10.95,4.73H6.73l-6.36,6.36Z"/>
          <path d="M1.27,228.07c1.22.97,2.75,1.79,3.17,1.37.42-.42-.4-1.95-1.37-3.17,1.55-.17,3.21-.68,3.21-1.27H0v6.27c.59,0,1.1-1.66,1.27-3.21Z"/>
        </g>
      </g>
      <g id="img1-10" data-name="img1">
        <g>
          <path d="M214.65,235.35l3.59-7.55-7.88-2.8h-12.92l8.07,8.07v11.42h11.42l8.07,8.07v-12.92l-2.8-7.88-7.55,3.59ZM202.4,225.37l11.09,4.4-4.73,10.95v-8.99l-6.36-6.36ZM218.27,241.24h-8.99l10.95-4.73,4.4,11.09-6.36-6.36Z"/>
          <path d="M218.72,225c0,.59,1.66,1.1,3.21,1.27-.97,1.22-1.79,2.75-1.37,3.17.42.42,1.95-.4,3.17-1.37.17,1.55.68,3.21,1.27,3.21v-6.27h-6.28Z"/>
        </g>
      </g>
      <g id="img1-11" data-name="img1">
        <g>
          <path d="M205.51,430.51v11.42l-8.07,8.07h12.92l7.88-2.8-3.59-7.55,7.55,3.59,2.8-7.88v-12.92l-8.07,8.07h-11.42ZM202.4,449.63l6.36-6.36v-8.99l4.73,10.95-11.09,4.4ZM224.63,427.4l-4.4,11.09-10.95-4.73h8.99l6.36-6.36Z"/>
          <path d="M223.73,446.93c-1.22-.97-2.75-1.79-3.17-1.37-.42.42.4,1.95,1.37,3.17-1.55.17-3.21.68-3.21,1.27h6.28v-6.27c-.59,0-1.1,1.66-1.27,3.21Z"/>
        </g>
      </g>
      <g id="img1-12" data-name="img1">
        <g>
          <path d="M19.49,430.51h-11.42l-8.07-8.07v12.92l2.8,7.88,7.55-3.59-3.59,7.55,7.88,2.8h12.92l-8.07-8.07v-11.42ZM4.77,438.49l-4.4-11.09,6.36,6.36h8.99l-10.95,4.73ZM22.6,449.63l-11.09-4.4,4.73-10.95v8.99l6.36,6.36Z"/>
          <path d="M3.07,448.73c.97-1.22,1.79-2.75,1.37-3.17-.42-.42-1.95.4-3.17,1.37-.17-1.55-.68-3.21-1.27-3.21v6.27h6.27c0-.59-1.66-1.1-3.21-1.27Z"/>
        </g>
      </g>
      <g id="img6-3" data-name="img6">
        <g>
          <path d="M131.99,318.01h-11.42l-8.07-8.07-8.07,8.07h-11.42v11.42l-8.07,8.07,8.07,8.07v11.42h11.42l8.07,8.07,8.07-8.07h11.42v-11.42l8.07-8.07-8.07-8.07v-11.42ZM119.23,321.26h8.99l-10.95,4.73-4.4-11.09,6.36,6.36ZM105.77,321.26l6.36-6.36-4.4,11.09-10.95-4.73h8.99ZM96.26,330.77v-8.99l4.73,10.95-11.09,4.4,6.36-6.36ZM89.9,337.87l11.09,4.4-4.73,10.95v-8.99l-6.36-6.36ZM105.77,353.74h-8.99l10.95-4.73,4.4,11.09-6.36-6.36ZM109.7,344.26l-7.55,3.59,3.59-7.55-7.88-2.8,7.88-2.8-3.59-7.55,7.55,3.59,2.8-7.88,2.8,7.88,7.55-3.59-3.59,7.55,7.88,2.8-7.88,2.8,3.59,7.55-7.55-3.59-2.8,7.88-2.8-7.88ZM119.23,353.74l-6.36,6.36,4.4-11.09,10.95,4.73h-8.99ZM128.74,344.23v8.99l-4.73-10.95,11.09-4.4-6.36,6.36ZM135.1,337.13l-11.09-4.4,4.73-10.95v8.99l6.36,6.36Z"/>
          <path d="M115.57,336.23c.97-1.22,1.79-2.75,1.37-3.17-.42-.42-1.95.4-3.17,1.37-.17-1.55-.68-3.21-1.27-3.21s-1.1,1.66-1.27,3.21c-1.22-.97-2.75-1.79-3.17-1.37-.42.42.4,1.95,1.37,3.17-1.55.17-3.21.68-3.21,1.27s1.66,1.1,3.21,1.27c-.97,1.22-1.79,2.75-1.37,3.17.42.42,1.95-.4,3.17-1.37.17,1.55.68,3.21,1.27,3.21s1.1-1.66,1.27-3.21c1.22.97,2.75,1.79,3.17,1.37.42-.42-.4-1.95-1.37-3.17,1.55-.17,3.21-.68,3.21-1.27s-1.66-1.1-3.21-1.27Z"/>
        </g>
      </g>
    </g>
    <g>
      <g id="img4-4" data-name="img4">
        <g>
          <path d="M385.46,289.16v11.49l8.26,8.15,8.26-8.15v-11.49l-8.26-5.32-8.26,5.32ZM400.99,300.28l-7.26,7.17-7.26-7.17v-8.38l7.26-4.19,7.26,4.19v8.38Z"/>
          <path d="M388.03,293.12v6.58l5.7,5.63,5.7-5.63v-6.58l-5.7-3.29-5.7,3.29ZM395.18,295.57c1.31.1,3.23.71,3.23,1.46s-1.91,1.36-3.23,1.45c-.1,1.32-.71,3.23-1.46,3.23s-1.36-1.91-1.45-3.23c-1.32-.1-3.23-.71-3.23-1.45s1.91-1.36,3.23-1.46c.1-1.31.71-3.23,1.45-3.23s1.36,1.91,1.46,3.23Z"/>
          <path d="M401.66,273.01l-5.32,8.26,5.32,8.26h11.49l8.15-8.26-8.15-8.26h-11.49ZM412.79,288.53h-8.38l-4.19-7.26,4.19-7.26h8.38l7.17,7.26-7.17,7.26Z"/>
          <path d="M405.62,275.57l-3.29,5.7,3.29,5.7h6.58l5.63-5.7-5.63-5.7h-6.58ZM414.21,281.27c0,.74-1.91,1.36-3.23,1.45-.1,1.32-.71,3.23-1.46,3.23s-1.36-1.91-1.45-3.23c-1.32-.1-3.23-.71-3.23-1.46s1.91-1.36,3.23-1.45c.1-1.32.71-3.23,1.45-3.23s1.36,1.91,1.46,3.23c1.32.1,3.23.71,3.23,1.46Z"/>
          <path d="M385.51,261.84v11.49l8.26,5.32,8.26-5.32v-11.49l-8.26-8.16-8.26,8.16ZM401.04,270.6l-7.26,4.19-7.26-4.19v-8.38l7.26-7.17,7.26,7.17v8.38Z"/>
          <path d="M388.07,262.8v6.58l5.7,3.29,5.7-3.29v-6.58l-5.7-5.63-5.7,5.63ZM395.23,264.02c1.31.1,3.23.71,3.23,1.45s-1.91,1.36-3.23,1.46c-.1,1.31-.71,3.23-1.46,3.23s-1.36-1.91-1.45-3.23c-1.31-.1-3.23-.71-3.23-1.46s1.91-1.36,3.23-1.45c.1-1.32.71-3.23,1.46-3.23s1.36,1.91,1.46,3.23Z"/>
          <path d="M393.75,278.66c-1.43,0-2.59,1.16-2.59,2.59s1.16,2.59,2.59,2.59,2.59-1.16,2.59-2.59-1.16-2.59-2.59-2.59Z"/>
          <path d="M385.46,289.16v11.49l8.26,8.15,8.26-8.15v-11.49l-8.26-5.32-8.26,5.32ZM400.99,300.28l-7.26,7.17-7.26-7.17v-8.38l7.26-4.19,7.26,4.19v8.38Z"/>
          <path d="M388.03,293.12v6.58l5.7,5.63,5.7-5.63v-6.58l-5.7-3.29-5.7,3.29ZM395.18,295.57c1.31.1,3.23.71,3.23,1.46s-1.91,1.36-3.23,1.45c-.1,1.32-.71,3.23-1.46,3.23s-1.36-1.91-1.45-3.23c-1.32-.1-3.23-.71-3.23-1.45s1.91-1.36,3.23-1.46c.1-1.31.71-3.23,1.45-3.23s1.36,1.91,1.46,3.23Z"/>
          <path d="M385.51,261.84v11.49l8.26,5.32,8.26-5.32v-11.49l-8.26-8.16-8.26,8.16ZM401.04,270.6l-7.26,4.19-7.26-4.19v-8.38l7.26-7.17,7.26,7.17v8.38Z"/>
          <path d="M388.07,262.8v6.58l5.7,3.29,5.7-3.29v-6.58l-5.7-5.63-5.7,5.63ZM395.23,264.02c1.31.1,3.23.71,3.23,1.45s-1.91,1.36-3.23,1.46c-.1,1.31-.71,3.23-1.46,3.23s-1.36-1.91-1.45-3.23c-1.31-.1-3.23-.71-3.23-1.46s1.91-1.36,3.23-1.45c.1-1.32.71-3.23,1.46-3.23s1.36,1.91,1.46,3.23Z"/>
          <path d="M374.34,272.96l-8.15,8.26,8.15,8.26h11.49l5.32-8.26-5.32-8.26h-11.49ZM383.1,288.49h-8.38l-7.17-7.26,7.17-7.26h8.38l4.19,7.26-4.19,7.26Z"/>
          <path d="M375.3,275.53l-5.63,5.7,5.63,5.7h6.58l3.29-5.7-3.29-5.7h-6.58ZM382.66,281.23c0,.74-1.91,1.36-3.23,1.45-.1,1.32-.71,3.23-1.46,3.23s-1.36-1.91-1.45-3.23c-1.32-.1-3.23-.71-3.23-1.46s1.91-1.36,3.23-1.45c.1-1.32.71-3.23,1.45-3.23s1.36,1.91,1.46,3.23c1.31.1,3.23.71,3.23,1.45Z"/>
        </g>
      </g>
      <g id="img7-4" data-name="img7">
        <g>
          <path d="M272.97,401.66v11.49l8.26,8.15,8.26-8.15v-11.49l-8.26-5.32-8.26,5.32ZM288.49,412.78l-7.26,7.17-7.26-7.17v-8.38l7.26-4.19,7.26,4.19v8.38Z"/>
          <path d="M275.53,405.62v6.58l5.7,5.63,5.7-5.63v-6.58l-5.7-3.29-5.7,3.29ZM282.68,408.07c1.31.1,3.23.71,3.23,1.46s-1.91,1.36-3.23,1.45c-.1,1.32-.71,3.23-1.46,3.23s-1.36-1.91-1.45-3.23c-1.32-.1-3.23-.71-3.23-1.45s1.91-1.36,3.23-1.46c.1-1.31.71-3.23,1.45-3.23s1.36,1.91,1.46,3.23Z"/>
          <path d="M289.16,385.51l-5.32,8.26,5.32,8.26h11.49l8.15-8.26-8.15-8.26h-11.49ZM300.29,401.04h-8.38l-4.19-7.26,4.19-7.26h8.38l7.17,7.26-7.17,7.26Z"/>
          <path d="M293.12,388.07l-3.29,5.7,3.29,5.7h6.58l5.63-5.7-5.63-5.7h-6.58ZM301.71,393.77c0,.74-1.91,1.36-3.23,1.45-.1,1.32-.71,3.23-1.46,3.23s-1.36-1.91-1.45-3.23c-1.32-.1-3.23-.71-3.23-1.45s1.91-1.36,3.23-1.45c.1-1.32.71-3.23,1.45-3.23s1.36,1.91,1.46,3.23c1.32.1,3.23.71,3.23,1.45Z"/>
          <path d="M273.01,374.34v11.49l8.26,5.32,8.26-5.32v-11.49l-8.26-8.15-8.26,8.15ZM288.53,383.1l-7.26,4.19-7.26-4.19v-8.38l7.26-7.17,7.26,7.17v8.38Z"/>
          <path d="M275.57,375.3v6.58l5.7,3.29,5.7-3.29v-6.58l-5.7-5.63-5.7,5.63ZM282.73,376.52c1.31.1,3.23.71,3.23,1.46s-1.91,1.36-3.23,1.46c-.1,1.32-.71,3.23-1.46,3.23s-1.36-1.91-1.45-3.23c-1.31-.1-3.23-.71-3.23-1.46s1.91-1.36,3.23-1.46c.1-1.32.71-3.23,1.46-3.23s1.36,1.91,1.46,3.23Z"/>
          <path d="M281.25,391.16c-1.43,0-2.59,1.16-2.59,2.59s1.16,2.59,2.59,2.59,2.59-1.16,2.59-2.59-1.16-2.59-2.59-2.59Z"/>
          <path d="M272.97,401.66v11.49l8.26,8.15,8.26-8.15v-11.49l-8.26-5.32-8.26,5.32ZM288.49,412.78l-7.26,7.17-7.26-7.17v-8.38l7.26-4.19,7.26,4.19v8.38Z"/>
          <path d="M275.53,405.62v6.58l5.7,5.63,5.7-5.63v-6.58l-5.7-3.29-5.7,3.29ZM282.68,408.07c1.31.1,3.23.71,3.23,1.46s-1.91,1.36-3.23,1.45c-.1,1.32-.71,3.23-1.46,3.23s-1.36-1.91-1.45-3.23c-1.32-.1-3.23-.71-3.23-1.45s1.91-1.36,3.23-1.46c.1-1.31.71-3.23,1.45-3.23s1.36,1.91,1.46,3.23Z"/>
          <path d="M273.01,374.34v11.49l8.26,5.32,8.26-5.32v-11.49l-8.26-8.15-8.26,8.15ZM288.53,383.1l-7.26,4.19-7.26-4.19v-8.38l7.26-7.17,7.26,7.17v8.38Z"/>
          <path d="M275.57,375.3v6.58l5.7,3.29,5.7-3.29v-6.58l-5.7-5.63-5.7,5.63ZM282.73,376.52c1.31.1,3.23.71,3.23,1.46s-1.91,1.36-3.23,1.46c-.1,1.32-.71,3.23-1.46,3.23s-1.36-1.91-1.45-3.23c-1.31-.1-3.23-.71-3.23-1.46s1.91-1.36,3.23-1.46c.1-1.32.71-3.23,1.46-3.23s1.36,1.91,1.46,3.23Z"/>
          <path d="M261.84,385.46l-8.15,8.26,8.15,8.26h11.49l5.32-8.26-5.32-8.26h-11.49ZM270.6,400.99h-8.38l-7.17-7.26,7.17-7.26h8.38l4.19,7.26-4.19,7.26Z"/>
          <path d="M262.8,388.03l-5.63,5.7,5.63,5.7h6.58l3.29-5.7-3.29-5.7h-6.58ZM270.16,393.73c0,.74-1.91,1.36-3.23,1.45-.1,1.32-.71,3.23-1.46,3.23s-1.36-1.91-1.45-3.23c-1.32-.1-3.23-.71-3.23-1.45s1.91-1.36,3.23-1.45c.1-1.32.71-3.23,1.45-3.23s1.36,1.91,1.46,3.23c1.31.1,3.23.71,3.23,1.45Z"/>
        </g>
      </g>
      <g id="img3-4" data-name="img3">
        <g>
          <path d="M272.82,262.03v9.76l8.46,4.88,8.46-4.88v-9.76l-8.46-8.35-8.46,8.35ZM284.87,263.78l3.81,2.38-3.81,2.38-3.3-2.06,2.06,3.3-2.38,3.81-2.38-3.81,2.06-3.3-3.3,2.06-3.81-2.38,3.81-2.38,3.3,2.06-2.06-3.3,2.38-3.81,2.38,3.81-2.06,3.3,3.3-2.06Z"/>
          <path d="M262.03,272.77l-8.35,8.46,8.35,8.46h9.76l4.88-8.46-4.88-8.46h-9.76ZM269.78,283.63l-3.3-2.06,2.06,3.3-2.38,3.81-2.38-3.81,2.06-3.3-3.3,2.06-3.81-2.38,3.81-2.38,3.3,2.06-2.06-3.3,2.38-3.81,2.38,3.81-2.06,3.3,3.3-2.06,3.81,2.38-3.81,2.38Z"/>
          <path d="M272.77,290.7v9.76l8.46,8.35,8.46-8.35v-9.76l-8.46-4.88-8.46,4.88ZM283.63,292.72l-2.06,3.3,3.3-2.07,3.81,2.38-3.81,2.38-3.3-2.06,2.06,3.3-2.38,3.81-2.38-3.81,2.06-3.3-3.3,2.06-3.81-2.38,3.81-2.38,3.3,2.07-2.06-3.3,2.38-3.81,2.38,3.81Z"/>
          <path d="M290.7,272.82l-4.88,8.46,4.88,8.46h9.76l8.34-8.46-8.34-8.46h-9.76ZM299.96,283.63l-3.3-2.06,2.06,3.3-2.38,3.81-2.38-3.81,2.06-3.3-3.3,2.06-3.81-2.38,3.81-2.38,3.3,2.06-2.06-3.3,2.38-3.81,2.38,3.81-2.06,3.3,3.3-2.06,3.81,2.38-3.81,2.38Z"/>
          <path d="M281.38,278.3l-7.09-4.16,4.16,7.08-4.16,7.09,7.09-4.16,7.09,4.16-4.16-7.09,4.16-7.08-7.09,4.16ZM281.38,282.98l-1.75-1.75,1.75-1.75,1.75,1.75-1.75,1.75Z"/>
        </g>
      </g>
      <g id="img8-4" data-name="img8">
        <g>
          <path d="M385.32,374.53v9.76l8.46,4.88,8.46-4.88v-9.76l-8.46-8.35-8.46,8.35ZM397.37,376.28l3.81,2.38-3.81,2.38-3.3-2.06,2.06,3.3-2.38,3.81-2.38-3.81,2.06-3.3-3.3,2.06-3.81-2.38,3.81-2.38,3.3,2.06-2.06-3.3,2.38-3.81,2.38,3.81-2.06,3.3,3.3-2.06Z"/>
          <path d="M374.53,385.27l-8.35,8.46,8.35,8.46h9.76l4.88-8.46-4.88-8.46h-9.76ZM382.28,396.13l-3.3-2.06,2.06,3.3-2.38,3.81-2.38-3.81,2.06-3.3-3.3,2.06-3.81-2.38,3.81-2.38,3.3,2.06-2.06-3.3,2.38-3.81,2.38,3.81-2.06,3.3,3.3-2.06,3.81,2.38-3.81,2.38Z"/>
          <path d="M385.27,403.2v9.76l8.46,8.35,8.46-8.35v-9.76l-8.46-4.88-8.46,4.88ZM396.13,405.22l-2.06,3.3,3.3-2.06,3.81,2.38-3.81,2.38-3.3-2.06,2.06,3.3-2.38,3.81-2.38-3.81,2.06-3.3-3.3,2.06-3.81-2.38,3.81-2.38,3.3,2.06-2.06-3.3,2.38-3.81,2.38,3.81Z"/>
          <path d="M403.2,385.32l-4.88,8.46,4.88,8.46h9.76l8.35-8.46-8.35-8.46h-9.76ZM412.46,396.13l-3.3-2.06,2.06,3.3-2.38,3.81-2.38-3.81,2.06-3.3-3.3,2.06-3.81-2.38,3.81-2.38,3.3,2.06-2.06-3.3,2.38-3.81,2.38,3.81-2.06,3.3,3.3-2.06,3.81,2.38-3.81,2.38Z"/>
          <path d="M393.88,390.8l-7.09-4.16,4.16,7.08-4.16,7.09,7.09-4.16,7.08,4.16-4.16-7.09,4.16-7.08-7.08,4.16ZM393.88,395.48l-1.75-1.75,1.75-1.75,1.75,1.75-1.75,1.75Z"/>
        </g>
      </g>
      <g id="img2-7" data-name="img2">
        <g>
          <path d="M318.01,244.49h11.42l8.07,8.07,8.07-8.07h11.42v-11.42l8.07-8.07h-12.92l-7.88,2.8,3.59,7.55-7.55-3.59-2.8,7.88-2.8-7.88-7.55,3.59,3.59-7.55-7.88-2.8h-12.92l8.07,8.07v11.42ZM360.1,225.37l-6.36,6.36v8.99l-4.73-10.95,11.09-4.4ZM342.27,236.51l10.95,4.73h-8.99l-6.36,6.36,4.4-11.09ZM332.73,236.51l4.4,11.09-6.36-6.36h-8.99l10.95-4.73ZM314.9,225.37l11.09,4.4-4.73,10.95v-8.99l-6.36-6.36Z"/>
          <path d="M334.93,227.57c0,1.42,1.15,2.57,2.57,2.57s2.57-1.15,2.57-2.57c1.42,0,2.57-1.15,2.57-2.57h-10.27c0,1.42,1.15,2.57,2.57,2.57Z"/>
        </g>
      </g>
      <g id="img2-8" data-name="img2">
        <g>
          <path d="M356.99,430.51h-11.42l-8.07-8.07-8.07,8.07h-11.42v11.42l-8.07,8.07h12.92l7.88-2.8-3.59-7.55,7.55,3.59,2.8-7.88,2.8,7.88,7.55-3.59-3.59,7.55,7.88,2.8h12.92l-8.07-8.07v-11.42ZM314.9,449.63l6.36-6.36v-8.99l4.73,10.95-11.09,4.4ZM332.73,438.49l-10.95-4.73h8.99l6.36-6.36-4.4,11.09ZM342.27,438.49l-4.4-11.09,6.36,6.36h8.99l-10.95,4.73ZM360.1,449.63l-11.09-4.4,4.73-10.95v8.99l6.36,6.36Z"/>
          <path d="M340.07,447.43c0-1.42-1.15-2.57-2.57-2.57s-2.57,1.15-2.57,2.57c-1.42,0-2.57,1.15-2.57,2.57h10.27c0-1.42-1.15-2.57-2.57-2.57Z"/>
        </g>
      </g>
      <g id="img5-7" data-name="img5">
        <g>
          <path d="M244.49,356.99v-11.42l8.07-8.07-8.07-8.07v-11.42h-11.42l-8.07-8.07v12.92l2.8,7.88,7.55-3.59-3.59,7.55,7.88,2.8-7.88,2.8,3.59,7.55-7.55-3.59-2.8,7.88v12.92l8.07-8.07h11.42ZM229.77,325.99l-4.4-11.09,6.36,6.36h8.99l-10.95,4.73ZM236.51,332.73l4.73-10.95v8.99l6.36,6.36-11.09-4.4ZM247.6,337.87l-6.36,6.36v8.99l-4.73-10.95,11.09-4.4ZM225.37,360.1l4.4-11.09,10.95,4.73h-8.99l-6.36,6.36Z"/>
          <path d="M227.57,340.07c1.42,0,2.57-1.15,2.57-2.57s-1.15-2.57-2.57-2.57c0-1.42-1.15-2.57-2.57-2.57v10.27c1.42,0,2.57-1.15,2.57-2.57Z"/>
        </g>
      </g>
      <g id="img5-8" data-name="img5">
        <g>
          <path d="M430.51,318.01v11.42l-8.07,8.07,8.07,8.07v11.42h11.42l8.07,8.07v-12.92l-2.8-7.88-7.55,3.59,3.59-7.55-7.88-2.8,7.88-2.8-3.59-7.55,7.55,3.59,2.8-7.88v-12.92l-8.07,8.07h-11.42ZM445.23,349.01l4.4,11.09-6.36-6.36h-8.99l10.95-4.73ZM438.49,342.27l-4.73,10.95v-8.99l-6.36-6.36,11.09,4.4ZM427.4,337.13l6.36-6.36v-8.99l4.73,10.95-11.09,4.4ZM449.63,314.9l-4.4,11.09-10.95-4.73h8.99l6.36-6.36Z"/>
          <path d="M447.43,334.93c-1.42,0-2.57,1.15-2.57,2.57s1.15,2.57,2.57,2.57c0,1.42,1.15,2.57,2.57,2.57v-10.27c-1.42,0-2.57,1.15-2.57,2.57Z"/>
        </g>
      </g>
      <g id="img1-13" data-name="img1">
        <g>
          <path d="M244.49,244.49v-11.42l8.07-8.07h-12.92l-7.88,2.8,3.59,7.55-7.55-3.59-2.8,7.88v12.92l8.07-8.07h11.42ZM247.6,225.37l-6.36,6.36v8.99l-4.73-10.95,11.09-4.4ZM225.37,247.6l4.4-11.09,10.95,4.73h-8.99l-6.36,6.36Z"/>
          <path d="M226.27,228.07c1.22.97,2.75,1.79,3.17,1.37.42-.42-.4-1.95-1.37-3.17,1.55-.17,3.21-.68,3.21-1.27h-6.27v6.27c.59,0,1.1-1.66,1.27-3.21Z"/>
        </g>
      </g>
      <g id="img1-14" data-name="img1">
        <g>
          <path d="M439.65,235.35l3.59-7.55-7.88-2.8h-12.92l8.07,8.07v11.42h11.42l8.07,8.07v-12.92l-2.8-7.88-7.55,3.59ZM427.4,225.37l11.09,4.4-4.73,10.95v-8.99l-6.36-6.36ZM443.27,241.24h-8.99l10.95-4.73,4.4,11.09-6.36-6.36Z"/>
          <path d="M443.72,225c0,.59,1.66,1.1,3.21,1.27-.97,1.22-1.79,2.75-1.37,3.17.42.42,1.95-.4,3.17-1.37.17,1.55.68,3.21,1.27,3.21v-6.27h-6.28Z"/>
        </g>
      </g>
      <g id="img1-15" data-name="img1">
        <g>
          <path d="M430.51,430.51v11.42l-8.07,8.07h12.92l7.88-2.8-3.59-7.55,7.55,3.59,2.8-7.88v-12.92l-8.07,8.07h-11.42ZM427.4,449.63l6.36-6.36v-8.99l4.73,10.95-11.09,4.4ZM449.63,427.4l-4.4,11.09-10.95-4.73h8.99l6.36-6.36Z"/>
          <path d="M448.73,446.93c-1.22-.97-2.75-1.79-3.17-1.37-.42.42.4,1.95,1.37,3.17-1.55.17-3.21.68-3.21,1.27h6.28v-6.27c-.59,0-1.1,1.66-1.27,3.21Z"/>
        </g>
      </g>
      <g id="img1-16" data-name="img1">
        <g>
          <path d="M244.49,430.51h-11.42l-8.07-8.07v12.92l2.8,7.88,7.55-3.59-3.59,7.55,7.88,2.8h12.92l-8.07-8.07v-11.42ZM229.77,438.49l-4.4-11.09,6.36,6.36h8.99l-10.95,4.73ZM247.6,449.63l-11.09-4.4,4.73-10.95v8.99l6.36,6.36Z"/>
          <path d="M228.07,448.73c.97-1.22,1.79-2.75,1.37-3.17-.42-.42-1.95.4-3.17,1.37-.17-1.55-.68-3.21-1.27-3.21v6.27h6.27c0-.59-1.66-1.1-3.21-1.27Z"/>
        </g>
      </g>
      <g id="img6-4" data-name="img6">
        <g>
          <path d="M356.99,318.01h-11.42l-8.07-8.07-8.07,8.07h-11.42v11.42l-8.07,8.07,8.07,8.07v11.42h11.42l8.07,8.07,8.07-8.07h11.42v-11.42l8.07-8.07-8.07-8.07v-11.42ZM344.23,321.26h8.99l-10.95,4.73-4.4-11.09,6.36,6.36ZM330.77,321.26l6.36-6.36-4.4,11.09-10.95-4.73h8.99ZM321.26,330.77v-8.99l4.73,10.95-11.09,4.4,6.36-6.36ZM314.9,337.87l11.09,4.4-4.73,10.95v-8.99l-6.36-6.36ZM330.77,353.74h-8.99l10.95-4.73,4.4,11.09-6.36-6.36ZM334.7,344.26l-7.55,3.59,3.59-7.55-7.88-2.8,7.88-2.8-3.59-7.55,7.55,3.59,2.8-7.88,2.8,7.88,7.55-3.59-3.59,7.55,7.88,2.8-7.88,2.8,3.59,7.55-7.55-3.59-2.8,7.88-2.8-7.88ZM344.23,353.74l-6.36,6.36,4.4-11.09,10.95,4.73h-8.99ZM353.74,344.23v8.99l-4.73-10.95,11.09-4.4-6.36,6.36ZM360.1,337.13l-11.09-4.4,4.73-10.95v8.99l6.36,6.36Z"/>
          <path d="M340.57,336.23c.97-1.22,1.79-2.75,1.37-3.17-.42-.42-1.95.4-3.17,1.37-.17-1.55-.68-3.21-1.27-3.21s-1.1,1.66-1.27,3.21c-1.22-.97-2.75-1.79-3.17-1.37-.42.42.4,1.95,1.37,3.17-1.55.17-3.21.68-3.21,1.27s1.66,1.1,3.21,1.27c-.97,1.22-1.79,2.75-1.37,3.17.42.42,1.95-.4,3.17-1.37.17,1.55.68,3.21,1.27,3.21s1.1-1.66,1.27-3.21c1.22.97,2.75,1.79,3.17,1.37.42-.42-.4-1.95-1.37-3.17,1.55-.17,3.21-.68,3.21-1.27s-1.66-1.1-3.21-1.27Z"/>
        </g>
      </g>
    </g>
  </g>
</svg>