<?xml version="1.0" encoding="UTF-8"?>
<svg id="Layer_2" data-name="Layer 2" xmlns="http://www.w3.org/2000/svg" viewBox="0 0 1033.38 1033.38">
  <g id="pattern_7">
    <g>
      <path d="M861.13,310.01c-40.29,0-60.23-19.15-81.36-39.42-22.15-21.26-45.06-43.25-90.89-43.25s-68.73,21.99-90.88,43.26c-21.12,20.27-41.06,39.41-81.35,39.41s-60.22-19.15-81.34-39.41c-22.15-21.27-45.05-43.26-90.88-43.26s-68.73,21.99-90.88,43.26c-21.12,20.27-41.06,39.41-81.34,39.41s-60.22-19.15-81.34-39.41c-22.15-21.27-45.05-43.26-90.88-43.26v13.78c40.28,0,60.22,19.15,81.34,39.41,22.15,21.27,45.05,43.26,90.88,43.26s68.73-21.99,90.88-43.25c21.11-20.27,41.05-39.42,81.34-39.42s60.23,19.15,81.34,39.41c22.15,21.27,45.06,43.26,90.88,43.26s68.73-21.99,90.89-43.25c21.12-20.27,41.06-39.42,81.34-39.42s60.24,19.15,81.35,39.42c22.16,21.26,45.06,43.25,90.9,43.25s68.74-21.99,90.9-43.25c21.11-20.27,41.06-39.42,81.35-39.42v-13.78c-45.83,0-68.74,21.99-90.89,43.25-21.13,20.27-41.07,39.42-81.36,39.42Z"/>
      <path d="M861.13,285.9c-41.68,0-62.1-19.61-83.74-40.38-21.66-20.79-44.07-42.29-88.51-42.29s-66.84,21.5-88.5,42.29c-21.64,20.76-42.06,40.38-83.73,40.38s-62.1-19.61-83.72-40.38c-21.66-20.79-44.05-42.29-88.5-42.29s-66.83,21.5-88.5,42.29c-21.62,20.76-42.05,40.38-83.72,40.38s-62.1-19.61-83.72-40.38c-21.66-20.79-44.05-42.29-88.49-42.29v6.89c41.67,0,62.1,19.61,83.72,40.38,21.66,20.79,44.05,42.29,88.49,42.29s66.84-21.5,88.5-42.29c21.62-20.76,42.05-40.38,83.72-40.38s62.1,19.61,83.73,40.38c21.66,20.79,44.05,42.29,88.49,42.29s66.84-21.5,88.5-42.29c21.64-20.76,42.06-40.38,83.73-40.38s62.11,19.61,83.74,40.38c21.66,20.79,44.06,42.29,88.51,42.29s66.85-21.5,88.51-42.29c21.63-20.76,42.06-40.38,83.74-40.38v-6.89c-44.44,0-66.85,21.5-88.51,42.29-21.64,20.76-42.06,40.38-83.74,40.38Z"/>
      <path d="M861.16,27.56c-45.83,0-68.73,21.99-90.88,43.25-21.11,20.27-41.05,39.42-81.34,39.42s-60.23-19.15-81.34-39.41c-22.15-21.27-45.06-43.26-90.88-43.26s-68.73,21.99-90.89,43.25c-21.12,20.27-41.06,39.42-81.34,39.42s-60.24-19.15-81.35-39.42c-22.16-21.26-45.07-43.25-90.9-43.25s-68.74,21.99-90.89,43.25C60.24,91.08,40.29,110.23,0,110.23v13.78c45.83,0,68.74-21.99,90.89-43.25,21.12-20.27,41.06-39.42,81.36-39.42s60.24,19.15,81.36,39.42c22.15,21.26,45.06,43.25,90.89,43.25s68.73-21.99,90.88-43.26c21.12-20.27,41.06-39.41,81.35-39.41s60.22,19.15,81.34,39.41c22.15,21.27,45.05,43.26,90.88,43.26s68.73-21.99,90.88-43.26c21.11-20.27,41.05-39.41,81.34-39.41s60.23,19.15,81.34,39.41c22.15,21.27,45.05,43.26,90.88,43.26v-13.78c-40.29,0-60.23-19.15-81.34-39.41-22.15-21.27-45.05-43.26-90.88-43.26Z"/>
      <path d="M861.16,55.11c-44.44,0-66.83,21.5-88.5,42.29-21.62,20.76-42.05,40.38-83.72,40.38s-62.1-19.61-83.73-40.38c-21.66-20.79-44.05-42.29-88.49-42.29s-66.84,21.5-88.5,42.29c-21.64,20.76-42.06,40.38-83.73,40.38s-62.11-19.61-83.74-40.38c-21.66-20.79-44.06-42.29-88.51-42.29s-66.85,21.5-88.51,42.29c-21.63,20.76-42.06,40.38-83.74,40.38v6.89c44.45,0,66.85-21.5,88.51-42.29,21.63-20.76,42.06-40.38,83.74-40.38s62.11,19.61,83.74,40.38c21.66,20.79,44.07,42.29,88.51,42.29s66.84-21.5,88.5-42.29c21.64-20.76,42.06-40.38,83.73-40.38s62.1,19.61,83.72,40.38c21.66,20.79,44.05,42.29,88.5,42.29s66.83-21.5,88.5-42.29c21.62-20.76,42.05-40.38,83.72-40.38s62.1,19.61,83.72,40.38c21.66,20.79,44.05,42.29,88.5,42.29v-6.89c-41.67,0-62.1-19.61-83.72-40.38-21.66-20.79-44.05-42.29-88.5-42.29Z"/>
      <path d="M322.09,1.88c-3.25.19-6.51.37-9.59.54-6.3-.33-10.41-.48-13.27-.48-3.26,0-8.71,0-8.71,4.98s5.45,4.98,8.71,4.98h0c2.85,0,6.97-.15,13.27-.48,3.08.16,6.32.35,9.58.54.97.06,1.94.11,2.9.16-.95.63-1.91,1.26-2.87,1.89-2.83,1.86-5.65,3.71-8.32,5.45-14.98,7.64-15.79,8.56-16.46,10.82-.35,1.18-.19,2.56.42,3.63.8,1.39,2.46,2.31,4.06,2.31,1.8,0,3.27-.4,16.46-8.96,2.78-1.42,5.75-2.91,8.73-4.41,1.02-.51,2.03-1.02,3.04-1.53-.52,1.03-1.04,2.07-1.57,3.11-1.48,2.95-2.96,5.89-4.37,8.64-9.16,14.08-9.4,15.29-8.84,17.6.29,1.2,1.11,2.32,2.18,2.93.68.4,1.72.58,2.31.62,3.33,0,4.38-1.43,12.15-16.67,1.74-2.68,3.61-5.53,5.5-8.38.61-.93,1.22-1.87,1.83-2.8.06.97.11,1.94.17,2.91.18,3.25.36,6.5.53,9.58-.92,17.57-.52,18.78,1.14,20.53.85.89,2.13,1.45,3.36,1.45s2.52-.56,3.36-1.45c1.65-1.75,2.06-2.96,1.14-20.53.17-3.08.35-6.33.53-9.58.06-.97.11-1.93.17-2.9.62.95,1.25,1.91,1.88,2.88,1.86,2.83,3.72,5.65,5.45,8.31,7.76,15.23,8.81,16.65,12.14,16.65.79,0,1.62-.22,2.31-.62,1.06-.62,1.9-1.73,2.18-2.93.55-2.3.31-3.51-8.72-17.41-.12-.24-.22-.49-.38-.69-1.33-2.63-2.73-5.42-4.14-8.21-.51-1.01-1.02-2.03-1.53-3.04,1.03.52,2.07,1.05,3.12,1.57,2.95,1.48,5.89,2.96,8.64,4.36,13.21,8.58,14.68,8.97,16.48,8.97,1.61,0,3.26-.92,4.06-2.31.62-1.07.78-2.44.43-3.63-.67-2.26-1.48-3.19-16.48-10.84-2.69-1.75-5.54-3.63-8.4-5.5-.93-.61-1.86-1.22-2.78-1.83.96-.05,1.94-.11,2.91-.16,3.25-.19,6.51-.37,9.59-.54,6.3.33,10.41.48,13.27.48,1.52,0,2.73-.05,3.57-.14,4.89-.52,5.13-4.13,5.13-4.84,0-4.98-5.45-4.98-8.71-4.98-2.85,0-6.97.15-13.27.48-3.08-.16-6.34-.35-9.59-.54-.96-.06-1.93-.11-2.89-.17.87-.57,1.74-1.14,2.6-1.72h-44.16c.87.57,1.75,1.15,2.62,1.72-.96.05-1.94.11-2.91.17Z"/>
      <path d="M217.45,174.17c-2.86,0-6.97.15-13.27.48-3.08-.16-6.34-.35-9.59-.54-.97-.06-1.93-.11-2.89-.17.95-.63,1.91-1.26,2.87-1.89,2.83-1.86,5.65-3.72,8.32-5.45,14.98-7.63,15.79-8.56,16.46-10.82.35-1.18.19-2.56-.42-3.63-.8-1.39-2.46-2.31-4.06-2.31-1.79,0-3.26.39-16.46,8.96-2.8,1.42-5.8,2.93-8.8,4.44-.99.5-1.98,1-2.97,1.5.52-1.03,1.04-2.06,1.56-3.09,1.49-2.96,2.97-5.91,4.38-8.67,9.15-14.08,9.39-15.29,8.83-17.59-.29-1.2-1.11-2.31-2.18-2.93-.68-.39-1.51-.62-2.31-.62-3.34,0-4.38,1.42-12.15,16.66-1.76,2.69-3.64,5.56-5.52,8.43-.61.92-1.21,1.84-1.81,2.75-.06-1-.11-2.02-.17-3.03-.19-3.21-.37-6.42-.53-9.46.92-17.57.52-18.78-1.14-20.53-1.7-1.79-5.03-1.79-6.73,0-1.66,1.75-2.06,2.96-1.14,20.53-.16,3.06-.35,6.3-.53,9.53-.06.99-.11,1.97-.17,2.95-.63-.96-1.26-1.93-1.9-2.89-1.85-2.82-3.7-5.63-5.43-8.28-7.77-15.24-8.81-16.66-12.15-16.66-.79,0-1.62.23-2.31.62-1.06.62-1.89,1.73-2.18,2.94-.55,2.3-.31,3.51,8.84,17.59,1.41,2.78,2.91,5.75,4.4,8.72.51,1.02,1.03,2.03,1.53,3.04-1.06-.53-2.12-1.07-3.18-1.6-2.93-1.47-5.84-2.94-8.57-4.33-13.21-8.59-14.68-8.97-16.48-8.97-1.6,0-3.26.92-4.06,2.31-.62,1.06-.78,2.45-.43,3.63.67,2.26,1.48,3.19,16.48,10.84,2.69,1.75,5.54,3.63,8.4,5.51.93.61,1.85,1.22,2.78,1.82-.97.05-1.94.11-2.91.17-3.25.19-6.51.37-9.59.54-6.3-.33-10.41-.48-13.27-.48-3.26,0-8.71,0-8.71,4.98s5.45,4.98,8.71,4.98h0c2.85,0,6.97-.15,13.26-.48,3.08.16,6.32.35,9.58.54.97.06,1.94.11,2.9.16-.95.63-1.91,1.26-2.87,1.89-2.83,1.86-5.65,3.71-8.32,5.45-14.98,7.64-15.79,8.56-16.46,10.82-.35,1.18-.19,2.56.42,3.63.8,1.39,2.46,2.31,4.06,2.31,1.79,0,3.27-.4,16.46-8.96,2.78-1.42,5.75-2.91,8.73-4.41,1.02-.51,2.03-1.02,3.04-1.53-.52,1.03-1.05,2.07-1.57,3.11-1.48,2.95-2.96,5.89-4.37,8.64-9.15,14.08-9.4,15.29-8.84,17.6.29,1.2,1.11,2.32,2.18,2.93.68.4,1.72.58,2.31.62,3.33,0,4.38-1.43,12.15-16.67,1.75-2.68,3.62-5.53,5.49-8.38.61-.93,1.23-1.87,1.84-2.8.06.97.11,1.94.17,2.91.19,3.25.37,6.5.54,9.58-.92,17.57-.52,18.78,1.14,20.53.85.89,2.13,1.45,3.36,1.45s2.51-.56,3.36-1.45c1.66-1.75,2.06-2.96,1.14-20.53.16-3.08.35-6.33.54-9.58.06-.97.11-1.93.17-2.9.63.95,1.26,1.91,1.89,2.88,1.86,2.83,3.72,5.65,5.45,8.31,7.76,15.23,8.81,16.65,12.14,16.65.79,0,1.62-.22,2.31-.62,1.06-.62,1.89-1.73,2.18-2.93.55-2.3.31-3.51-8.72-17.41-.12-.24-.21-.49-.38-.69-1.34-2.63-2.74-5.42-4.14-8.21-.51-1.01-1.02-2.03-1.53-3.04,1.03.52,2.07,1.05,3.11,1.57,2.95,1.48,5.89,2.96,8.65,4.36,13.2,8.58,14.67,8.97,16.47,8.97,1.6,0,3.26-.92,4.06-2.31.62-1.07.78-2.44.43-3.63-.67-2.26-1.48-3.19-16.48-10.84-2.69-1.75-5.54-3.63-8.4-5.5-.93-.61-1.85-1.22-2.78-1.83.97-.05,1.94-.11,2.91-.16,3.25-.19,6.51-.37,9.59-.54,6.3.33,10.41.48,13.27.48,1.52,0,2.73-.05,3.57-.14,4.89-.52,5.14-4.13,5.14-4.84,0-4.98-5.45-4.98-8.71-4.98Z"/>
      <path d="M906.37,174.17c-2.85,0-6.97.15-13.27.48-3.08-.16-6.34-.35-9.59-.54-.96-.06-1.93-.11-2.89-.17.95-.63,1.91-1.26,2.87-1.89,2.83-1.86,5.65-3.72,8.32-5.45,14.98-7.63,15.79-8.56,16.46-10.82.35-1.18.19-2.56-.42-3.63-.8-1.39-2.46-2.31-4.06-2.31-1.8,0-3.26.39-16.46,8.96-2.81,1.42-5.79,2.93-8.8,4.44-.99.5-1.98,1-2.97,1.5.51-1.03,1.04-2.06,1.55-3.09,1.49-2.96,2.97-5.91,4.38-8.67,9.15-14.08,9.39-15.29,8.83-17.59-.29-1.2-1.11-2.31-2.18-2.93-.68-.39-1.51-.62-2.31-.62-3.34,0-4.38,1.42-12.15,16.66-1.76,2.69-3.64,5.56-5.52,8.43-.61.92-1.21,1.84-1.81,2.75-.06-1-.12-2.02-.17-3.03-.19-3.21-.37-6.42-.53-9.46.92-17.57.52-18.78-1.14-20.53-1.7-1.79-5.03-1.79-6.73,0-1.65,1.75-2.06,2.96-1.14,20.53-.16,3.06-.34,6.3-.53,9.53-.05.99-.11,1.97-.17,2.95-.63-.96-1.26-1.93-1.9-2.89-1.86-2.82-3.7-5.63-5.43-8.28-7.77-15.24-8.81-16.66-12.15-16.66-.79,0-1.62.23-2.31.62-1.06.62-1.9,1.73-2.18,2.94-.55,2.3-.32,3.51,8.83,17.59,1.41,2.78,2.91,5.75,4.41,8.72.51,1.02,1.02,2.03,1.53,3.04-1.06-.53-2.13-1.07-3.19-1.6-2.92-1.47-5.83-2.94-8.56-4.33-13.21-8.59-14.68-8.97-16.48-8.97-1.61,0-3.26.92-4.06,2.31-.62,1.06-.78,2.45-.43,3.63.67,2.26,1.48,3.19,16.48,10.84,2.69,1.75,5.54,3.63,8.4,5.51.93.61,1.86,1.22,2.78,1.82-.96.05-1.94.11-2.91.17-3.25.19-6.51.37-9.59.54-6.3-.33-10.41-.48-13.27-.48-3.26,0-8.71,0-8.71,4.98s5.45,4.98,8.71,4.98h0c2.85,0,6.97-.15,13.27-.48,3.08.16,6.32.35,9.58.54.97.06,1.94.11,2.9.16-.95.63-1.91,1.26-2.87,1.89-2.83,1.86-5.65,3.71-8.32,5.45-14.98,7.64-15.79,8.56-16.46,10.82-.35,1.18-.19,2.56.42,3.63.8,1.39,2.46,2.31,4.06,2.31,1.8,0,3.27-.4,16.46-8.96,2.78-1.42,5.75-2.91,8.73-4.41,1.02-.51,2.03-1.02,3.04-1.53-.52,1.03-1.04,2.07-1.57,3.11-1.48,2.95-2.96,5.89-4.37,8.64-9.16,14.08-9.4,15.29-8.84,17.6.29,1.2,1.11,2.32,2.18,2.93.68.4,1.72.58,2.31.62,3.33,0,4.38-1.43,12.15-16.67,1.74-2.68,3.61-5.53,5.5-8.38.61-.93,1.22-1.87,1.83-2.8.06.97.11,1.94.17,2.91.18,3.25.36,6.5.53,9.58-.92,17.57-.52,18.78,1.14,20.53.85.89,2.13,1.45,3.36,1.45s2.52-.56,3.36-1.45c1.65-1.75,2.06-2.96,1.14-20.53.17-3.08.35-6.33.53-9.58.06-.97.11-1.93.17-2.9.62.95,1.25,1.91,1.88,2.88,1.86,2.83,3.72,5.65,5.45,8.31,7.76,15.23,8.81,16.65,12.14,16.65.79,0,1.62-.22,2.31-.62,1.06-.62,1.9-1.73,2.18-2.93.55-2.3.31-3.51-8.72-17.41-.12-.24-.22-.49-.38-.69-1.33-2.63-2.73-5.42-4.14-8.21-.51-1.01-1.02-2.03-1.53-3.04,1.03.52,2.07,1.05,3.12,1.57,2.95,1.48,5.89,2.96,8.64,4.36,13.21,8.58,14.68,8.97,16.48,8.97,1.61,0,3.26-.92,4.06-2.31.62-1.07.78-2.44.43-3.63-.67-2.26-1.48-3.19-16.48-10.84-2.69-1.75-5.54-3.63-8.4-5.5-.93-.61-1.86-1.22-2.78-1.83.96-.05,1.94-.11,2.91-.16,3.25-.19,6.51-.37,9.59-.54,6.3.33,10.41.48,13.27.48,1.52,0,2.73-.05,3.57-.14,4.89-.52,5.13-4.13,5.13-4.84,0-4.98-5.45-4.98-8.71-4.98Z"/>
      <path d="M666.55,1.88c-3.25.19-6.51.37-9.59.54-6.3-.33-10.41-.48-13.27-.48-3.26,0-8.71,0-8.71,4.98s5.45,4.98,8.71,4.98h0c2.85,0,6.97-.15,13.27-.48,3.08.16,6.32.35,9.58.54.97.06,1.94.11,2.9.16-.95.63-1.91,1.26-2.87,1.89-2.83,1.86-5.65,3.71-8.32,5.45-14.98,7.64-15.79,8.56-16.46,10.82-.35,1.18-.19,2.56.42,3.63.8,1.39,2.46,2.31,4.06,2.31,1.8,0,3.27-.4,16.46-8.96,2.78-1.42,5.75-2.91,8.73-4.41,1.02-.51,2.03-1.02,3.04-1.53-.52,1.03-1.04,2.07-1.57,3.11-1.48,2.95-2.96,5.89-4.37,8.64-9.16,14.08-9.4,15.29-8.84,17.6.29,1.2,1.11,2.32,2.18,2.93.68.4,1.72.58,2.31.62,3.33,0,4.38-1.43,12.15-16.67,1.74-2.68,3.61-5.53,5.5-8.38.61-.93,1.22-1.87,1.83-2.8.06.97.11,1.94.17,2.91.18,3.25.36,6.5.53,9.58-.92,17.57-.52,18.78,1.14,20.53.85.89,2.13,1.45,3.36,1.45s2.52-.56,3.36-1.45c1.65-1.75,2.06-2.96,1.14-20.53.17-3.08.35-6.33.53-9.58.06-.97.11-1.93.17-2.9.62.95,1.25,1.91,1.88,2.88,1.86,2.83,3.72,5.65,5.45,8.31,7.76,15.23,8.81,16.65,12.14,16.65.79,0,1.62-.22,2.31-.62,1.06-.62,1.9-1.73,2.18-2.93.55-2.3.31-3.51-8.72-17.41-.12-.24-.22-.49-.38-.69-1.33-2.63-2.73-5.42-4.14-8.21-.51-1.01-1.02-2.03-1.53-3.04,1.03.52,2.07,1.05,3.12,1.57,2.95,1.48,5.89,2.96,8.64,4.36,13.21,8.58,14.68,8.97,16.48,8.97,1.61,0,3.26-.92,4.06-2.31.62-1.07.78-2.44.43-3.63-.67-2.26-1.48-3.19-16.48-10.84-2.69-1.75-5.54-3.63-8.4-5.5-.93-.61-1.86-1.22-2.78-1.83.96-.05,1.94-.11,2.91-.16,3.25-.19,6.51-.37,9.59-.54,6.3.33,10.41.48,13.27.48,1.52,0,2.73-.05,3.57-.14,4.89-.52,5.13-4.13,5.13-4.84,0-4.98-5.45-4.98-8.71-4.98-2.85,0-6.97.15-13.27.48-3.08-.16-6.34-.35-9.59-.54-.96-.06-1.93-.11-2.89-.17C709.26,1.15,710.13.58,711,0h-44.16c.87.57,1.75,1.15,2.62,1.72-.96.05-1.94.11-2.91.17Z"/>
      <path d="M1005.82,6.89C1005.82,4.5,1006.23,2.21,1006.81,0h-21.1c-.32,2.26-.55,4.54-.55,6.89,0,26.62,21.6,48.22,48.22,48.22v-20.67c-15.19,0-27.56-12.36-27.56-27.56Z"/>
      <path d="M48.22,6.89c0-2.34-.23-4.63-.55-6.89h-21.1c.58,2.21.98,4.5.98,6.89,0,15.19-12.36,27.56-27.56,27.56v20.67c26.62,0,48.22-21.6,48.22-48.22Z"/>
      <path d="M516.69,130.89c-26.63,0-48.22,21.6-48.22,48.22s21.6,48.22,48.22,48.22,48.22-21.6,48.22-48.22-21.6-48.22-48.22-48.22ZM516.69,206.68c-15.19,0-27.56-12.36-27.56-27.56s12.37-27.56,27.56-27.56,27.56,12.36,27.56,27.56-12.37,27.56-27.56,27.56Z"/>
      <path d="M861.13,654.47c-40.29,0-60.23-19.15-81.36-39.42-22.15-21.27-45.06-43.25-90.89-43.25s-68.73,21.99-90.88,43.26c-21.12,20.26-41.06,39.41-81.35,39.41s-60.22-19.15-81.34-39.41c-22.15-21.27-45.05-43.26-90.88-43.26s-68.73,21.99-90.88,43.26c-21.12,20.26-41.06,39.41-81.34,39.41s-60.22-19.15-81.34-39.41c-22.15-21.27-45.05-43.26-90.88-43.26v13.78c40.28,0,60.22,19.15,81.34,39.41,22.15,21.27,45.05,43.26,90.88,43.26s68.73-21.99,90.88-43.25c21.11-20.27,41.05-39.42,81.34-39.42s60.23,19.15,81.34,39.41c22.15,21.27,45.06,43.26,90.88,43.26s68.73-21.99,90.89-43.25c21.12-20.27,41.06-39.42,81.34-39.42s60.24,19.15,81.35,39.42c22.16,21.27,45.06,43.25,90.9,43.25s68.74-21.99,90.9-43.25c21.11-20.27,41.06-39.42,81.35-39.42v-13.78c-45.83,0-68.74,21.99-90.89,43.25-21.13,20.27-41.07,39.42-81.36,39.42Z"/>
      <path d="M861.13,630.36c-41.68,0-62.1-19.61-83.74-40.38-21.66-20.79-44.07-42.29-88.51-42.29s-66.84,21.5-88.5,42.29c-21.64,20.77-42.06,40.38-83.73,40.38s-62.1-19.61-83.72-40.38c-21.66-20.79-44.05-42.29-88.5-42.29s-66.83,21.5-88.5,42.29c-21.62,20.77-42.05,40.38-83.72,40.38s-62.1-19.61-83.72-40.38c-21.66-20.79-44.05-42.29-88.49-42.29v6.89c41.67,0,62.1,19.61,83.72,40.38,21.66,20.79,44.05,42.29,88.49,42.29s66.84-21.5,88.5-42.29c21.62-20.77,42.05-40.38,83.72-40.38s62.1,19.61,83.73,40.38c21.66,20.79,44.05,42.29,88.49,42.29s66.84-21.5,88.5-42.29c21.64-20.77,42.06-40.38,83.73-40.38s62.11,19.61,83.74,40.38c21.66,20.79,44.06,42.29,88.51,42.29s66.85-21.5,88.51-42.29c21.63-20.77,42.06-40.38,83.74-40.38v-6.89c-44.44,0-66.85,21.5-88.51,42.29-21.64,20.77-42.06,40.38-83.74,40.38Z"/>
      <path d="M861.16,372.02c-45.83,0-68.73,21.99-90.88,43.25-21.11,20.27-41.05,39.42-81.34,39.42s-60.23-19.15-81.34-39.41c-22.15-21.27-45.06-43.26-90.88-43.26s-68.73,21.99-90.89,43.25c-21.12,20.27-41.06,39.42-81.34,39.42s-60.24-19.15-81.35-39.42c-22.16-21.26-45.07-43.25-90.9-43.25s-68.74,21.99-90.89,43.25c-21.12,20.27-41.06,39.42-81.36,39.42v13.78c45.83,0,68.74-21.99,90.89-43.25,21.12-20.27,41.06-39.42,81.36-39.42s60.24,19.15,81.36,39.42c22.15,21.26,45.06,43.25,90.89,43.25s68.73-21.99,90.88-43.26c21.12-20.27,41.06-39.41,81.35-39.41s60.22,19.15,81.34,39.41c22.15,21.27,45.05,43.26,90.88,43.26s68.73-21.99,90.88-43.26c21.11-20.27,41.05-39.41,81.34-39.41s60.23,19.15,81.34,39.41c22.15,21.27,45.05,43.26,90.88,43.26v-13.78c-40.29,0-60.23-19.15-81.34-39.41-22.15-21.27-45.05-43.26-90.88-43.26Z"/>
      <path d="M861.16,399.57c-44.44,0-66.83,21.5-88.5,42.29-21.62,20.76-42.05,40.38-83.72,40.38s-62.1-19.61-83.73-40.38c-21.66-20.79-44.05-42.29-88.49-42.29s-66.84,21.5-88.5,42.29c-21.64,20.76-42.06,40.38-83.73,40.38s-62.11-19.61-83.74-40.38c-21.66-20.79-44.06-42.29-88.51-42.29s-66.85,21.5-88.51,42.29c-21.63,20.76-42.06,40.38-83.74,40.38v6.89c44.45,0,66.85-21.5,88.51-42.29,21.63-20.76,42.06-40.38,83.74-40.38s62.11,19.61,83.74,40.38c21.66,20.79,44.07,42.29,88.51,42.29s66.84-21.5,88.5-42.29c21.64-20.76,42.06-40.38,83.73-40.38s62.1,19.61,83.72,40.38c21.66,20.79,44.05,42.29,88.5,42.29s66.83-21.5,88.5-42.29c21.62-20.76,42.05-40.38,83.72-40.38s62.1,19.61,83.72,40.38c21.66,20.79,44.05,42.29,88.5,42.29v-6.89c-41.67,0-62.1-19.61-83.72-40.38-21.66-20.79-44.05-42.29-88.5-42.29Z"/>
      <path d="M389.68,346.4c-2.85,0-6.97.15-13.27.48-3.08-.16-6.34-.35-9.59-.54-.96-.06-1.93-.11-2.89-.17.95-.63,1.91-1.26,2.87-1.89,2.83-1.86,5.65-3.72,8.32-5.45,14.98-7.63,15.79-8.56,16.46-10.82.35-1.18.19-2.56-.42-3.63-.8-1.39-2.46-2.31-4.06-2.31-1.8,0-3.26.39-16.46,8.96-2.81,1.42-5.79,2.93-8.8,4.44-.99.5-1.98,1-2.97,1.5.51-1.03,1.04-2.06,1.55-3.09,1.49-2.96,2.97-5.91,4.38-8.67,9.15-14.08,9.39-15.29,8.83-17.59-.29-1.2-1.11-2.31-2.18-2.93-.68-.39-1.51-.62-2.31-.62-3.34,0-4.38,1.42-12.15,16.66-1.76,2.69-3.64,5.56-5.52,8.43-.61.92-1.21,1.84-1.81,2.75-.06-1-.12-2.02-.17-3.03-.19-3.21-.37-6.42-.53-9.46.92-17.57.52-18.78-1.14-20.53-1.7-1.79-5.03-1.79-6.73,0-1.65,1.75-2.06,2.96-1.14,20.53-.16,3.06-.34,6.3-.53,9.53-.05.99-.11,1.97-.17,2.95-.63-.96-1.26-1.93-1.9-2.89-1.86-2.82-3.7-5.63-5.43-8.28-7.77-15.24-8.81-16.66-12.15-16.66-.79,0-1.62.23-2.31.62-1.06.62-1.9,1.73-2.18,2.94-.55,2.3-.32,3.51,8.83,17.59,1.41,2.78,2.91,5.75,4.41,8.72.51,1.02,1.02,2.03,1.53,3.04-1.06-.53-2.13-1.07-3.19-1.6-2.92-1.47-5.83-2.94-8.56-4.33-13.21-8.59-14.68-8.97-16.48-8.97-1.61,0-3.26.92-4.06,2.31-.62,1.06-.78,2.45-.43,3.63.67,2.26,1.48,3.19,16.48,10.84,2.69,1.75,5.54,3.63,8.4,5.51.93.61,1.86,1.22,2.78,1.82-.96.05-1.94.11-2.91.17-3.25.19-6.51.37-9.59.54-6.3-.33-10.41-.48-13.27-.48-3.26,0-8.71,0-8.71,4.98s5.45,4.98,8.71,4.98h0c2.85,0,6.97-.15,13.27-.48,3.08.16,6.32.35,9.58.54.97.06,1.94.11,2.9.16-.95.63-1.91,1.26-2.87,1.89-2.83,1.86-5.65,3.71-8.32,5.45-14.98,7.64-15.79,8.56-16.46,10.82-.35,1.18-.19,2.56.42,3.63.8,1.39,2.46,2.31,4.06,2.31,1.8,0,3.27-.4,16.46-8.96,2.78-1.42,5.75-2.91,8.73-4.41,1.02-.51,2.03-1.02,3.04-1.53-.52,1.03-1.04,2.07-1.57,3.11-1.48,2.95-2.96,5.89-4.37,8.64-9.16,14.08-9.4,15.29-8.84,17.6.29,1.2,1.11,2.32,2.18,2.93.68.4,1.72.58,2.31.62,3.33,0,4.38-1.43,12.15-16.67,1.74-2.68,3.61-5.53,5.5-8.38.61-.93,1.22-1.87,1.83-2.8.06.97.11,1.94.17,2.91.18,3.25.36,6.5.53,9.58-.92,17.57-.52,18.78,1.14,20.53.85.89,2.13,1.45,3.36,1.45s2.52-.56,3.36-1.45c1.65-1.75,2.06-2.96,1.14-20.53.17-3.08.35-6.33.53-9.58.06-.97.11-1.93.17-2.9.62.95,1.25,1.91,1.88,2.88,1.86,2.83,3.72,5.65,5.45,8.31,7.76,15.23,8.81,16.65,12.14,16.65.79,0,1.62-.22,2.31-.62,1.06-.62,1.9-1.73,2.18-2.93.55-2.3.31-3.51-8.72-17.41-.12-.24-.22-.49-.38-.69-1.33-2.63-2.73-5.42-4.14-8.21-.51-1.01-1.02-2.03-1.53-3.04,1.03.52,2.07,1.05,3.12,1.57,2.95,1.48,5.89,2.96,8.64,4.36,13.21,8.58,14.68,8.97,16.48,8.97,1.61,0,3.26-.92,4.06-2.31.62-1.07.78-2.44.43-3.63-.67-2.26-1.48-3.19-16.48-10.84-2.69-1.75-5.54-3.63-8.4-5.5-.93-.61-1.86-1.22-2.78-1.83.96-.05,1.94-.11,2.91-.16,3.25-.19,6.51-.37,9.59-.54,6.3.33,10.41.48,13.27.48,1.52,0,2.73-.05,3.57-.14,4.89-.52,5.13-4.13,5.13-4.84,0-4.98-5.45-4.98-8.71-4.98Z"/>
      <path d="M561.91,518.63c-2.85,0-6.97.15-13.27.48-3.08-.16-6.34-.35-9.59-.54-.96-.06-1.93-.11-2.89-.17.95-.63,1.91-1.26,2.87-1.89,2.83-1.86,5.65-3.72,8.32-5.45,14.98-7.63,15.79-8.56,16.46-10.82.35-1.18.19-2.56-.42-3.63-.8-1.39-2.46-2.31-4.06-2.31-1.8,0-3.26.39-16.46,8.96-2.81,1.42-5.79,2.93-8.8,4.44-.99.5-1.98,1-2.97,1.5.51-1.03,1.04-2.06,1.55-3.09,1.49-2.96,2.97-5.91,4.38-8.67,9.15-14.08,9.39-15.29,8.83-17.59-.29-1.2-1.11-2.31-2.18-2.93-.68-.39-1.51-.62-2.31-.62-3.34,0-4.38,1.42-12.15,16.66-1.76,2.69-3.64,5.56-5.52,8.43-.61.92-1.21,1.84-1.81,2.75-.06-1-.12-2.02-.17-3.03-.19-3.21-.37-6.42-.53-9.46.92-17.57.52-18.78-1.14-20.53-1.7-1.79-5.03-1.79-6.73,0-1.65,1.75-2.06,2.96-1.14,20.53-.16,3.06-.34,6.3-.53,9.53-.05.99-.11,1.97-.17,2.95-.63-.96-1.26-1.93-1.9-2.89-1.86-2.82-3.7-5.63-5.43-8.28-7.77-15.24-8.81-16.66-12.15-16.66-.79,0-1.62.23-2.31.62-1.06.62-1.9,1.73-2.18,2.94-.55,2.3-.32,3.51,8.83,17.59,1.41,2.78,2.91,5.75,4.41,8.72.51,1.02,1.02,2.03,1.53,3.04-1.06-.53-2.13-1.07-3.19-1.6-2.92-1.47-5.83-2.94-8.56-4.33-13.21-8.59-14.68-8.97-16.48-8.97-1.61,0-3.26.92-4.06,2.31-.62,1.06-.78,2.45-.43,3.63.67,2.26,1.48,3.19,16.48,10.84,2.69,1.75,5.54,3.63,8.4,5.51.93.61,1.86,1.22,2.78,1.82-.96.05-1.94.11-2.91.17-3.25.19-6.51.37-9.59.54-6.3-.33-10.41-.48-13.27-.48-3.26,0-8.71,0-8.71,4.98s5.45,4.98,8.71,4.98h0c2.85,0,6.97-.15,13.27-.47,3.08.16,6.32.35,9.58.53.97.06,1.94.11,2.9.17-.95.63-1.91,1.26-2.87,1.89-2.83,1.86-5.65,3.71-8.32,5.44-14.98,7.64-15.79,8.56-16.46,10.82-.35,1.18-.19,2.56.42,3.63.8,1.39,2.46,2.31,4.06,2.31,1.8,0,3.27-.39,16.46-8.96,2.78-1.41,5.75-2.91,8.73-4.41,1.02-.51,2.03-1.02,3.04-1.53-.52,1.03-1.04,2.07-1.57,3.11-1.48,2.95-2.96,5.89-4.37,8.64-9.16,14.09-9.4,15.3-8.84,17.6.29,1.2,1.11,2.32,2.18,2.93.68.4,1.72.58,2.31.62,3.33,0,4.38-1.43,12.15-16.66,1.74-2.68,3.61-5.52,5.5-8.38.61-.94,1.22-1.87,1.83-2.8.06.97.11,1.94.17,2.91.18,3.24.36,6.5.53,9.58-.92,17.57-.52,18.78,1.14,20.53.85.89,2.13,1.45,3.36,1.45s2.52-.56,3.36-1.45c1.65-1.75,2.06-2.96,1.14-20.53.17-3.08.35-6.34.53-9.58.06-.97.11-1.94.17-2.9.62.95,1.25,1.92,1.88,2.87,1.86,2.83,3.72,5.65,5.45,8.32,7.76,15.23,8.81,16.64,12.14,16.65.79,0,1.62-.22,2.31-.62,1.06-.61,1.9-1.73,2.18-2.93.55-2.29.31-3.5-8.72-17.41-.12-.24-.22-.49-.38-.69-1.33-2.63-2.73-5.42-4.14-8.21-.51-1.02-1.02-2.02-1.53-3.03,1.03.52,2.07,1.04,3.12,1.56,2.95,1.49,5.89,2.96,8.64,4.37,13.21,8.58,14.68,8.97,16.48,8.97,1.61,0,3.26-.92,4.06-2.31.62-1.07.78-2.45.43-3.63-.67-2.26-1.48-3.19-16.48-10.84-2.69-1.75-5.54-3.63-8.4-5.5-.93-.61-1.86-1.22-2.78-1.82.96-.05,1.94-.11,2.91-.17,3.25-.18,6.51-.37,9.59-.53,6.3.32,10.41.47,13.27.47,1.52,0,2.73-.04,3.57-.14,4.89-.52,5.13-4.13,5.13-4.84,0-4.98-5.45-4.98-8.71-4.98Z"/>
      <path d="M734.14,346.4c-2.85,0-6.97.15-13.27.48-3.08-.16-6.34-.35-9.59-.54-.96-.06-1.93-.11-2.89-.17.95-.63,1.91-1.26,2.87-1.89,2.83-1.86,5.65-3.72,8.32-5.45,14.98-7.63,15.79-8.56,16.46-10.82.35-1.18.19-2.56-.42-3.63-.8-1.39-2.46-2.31-4.06-2.31-1.8,0-3.26.39-16.46,8.96-2.81,1.42-5.79,2.93-8.8,4.44-.99.5-1.98,1-2.97,1.5.51-1.03,1.04-2.06,1.55-3.09,1.49-2.96,2.97-5.91,4.38-8.67,9.15-14.08,9.39-15.29,8.83-17.59-.29-1.2-1.11-2.31-2.18-2.93-.68-.39-1.51-.62-2.31-.62-3.34,0-4.38,1.42-12.15,16.66-1.76,2.69-3.64,5.56-5.52,8.43-.61.92-1.21,1.84-1.81,2.75-.06-1-.12-2.02-.17-3.03-.19-3.21-.37-6.42-.53-9.46.92-17.57.52-18.78-1.14-20.53-1.7-1.79-5.03-1.79-6.73,0-1.65,1.75-2.06,2.96-1.14,20.53-.16,3.06-.34,6.3-.53,9.53-.05.99-.11,1.97-.17,2.95-.63-.96-1.26-1.93-1.9-2.89-1.86-2.82-3.7-5.63-5.43-8.28-7.77-15.24-8.81-16.66-12.15-16.66-.79,0-1.62.23-2.31.62-1.06.62-1.9,1.73-2.18,2.94-.55,2.3-.32,3.51,8.83,17.59,1.41,2.78,2.91,5.75,4.41,8.72.51,1.02,1.02,2.03,1.53,3.04-1.06-.53-2.13-1.07-3.19-1.6-2.92-1.47-5.83-2.94-8.56-4.33-13.21-8.59-14.68-8.97-16.48-8.97-1.61,0-3.26.92-4.06,2.31-.62,1.06-.78,2.45-.43,3.63.67,2.26,1.48,3.19,16.48,10.84,2.69,1.75,5.54,3.63,8.4,5.51.93.61,1.86,1.22,2.78,1.82-.96.05-1.94.11-2.91.17-3.25.19-6.51.37-9.59.54-6.3-.33-10.41-.48-13.27-.48-3.26,0-8.71,0-8.71,4.98s5.45,4.98,8.71,4.98h0c2.85,0,6.97-.15,13.27-.48,3.08.16,6.32.35,9.58.54.97.06,1.94.11,2.9.16-.95.63-1.91,1.26-2.87,1.89-2.83,1.86-5.65,3.71-8.32,5.45-14.98,7.64-15.79,8.56-16.46,10.82-.35,1.18-.19,2.56.42,3.63.8,1.39,2.46,2.31,4.06,2.31,1.8,0,3.27-.4,16.46-8.96,2.78-1.42,5.75-2.91,8.73-4.41,1.02-.51,2.03-1.02,3.04-1.53-.52,1.03-1.04,2.07-1.57,3.11-1.48,2.95-2.96,5.89-4.37,8.64-9.16,14.08-9.4,15.29-8.84,17.6.29,1.2,1.11,2.32,2.18,2.93.68.4,1.72.58,2.31.62,3.33,0,4.38-1.43,12.15-16.67,1.74-2.68,3.61-5.53,5.5-8.38.61-.93,1.22-1.87,1.83-2.8.06.97.11,1.94.17,2.91.18,3.25.36,6.5.53,9.58-.92,17.57-.52,18.78,1.14,20.53.85.89,2.13,1.45,3.36,1.45s2.52-.56,3.36-1.45c1.65-1.75,2.06-2.96,1.14-20.53.17-3.08.35-6.33.53-9.58.06-.97.11-1.93.17-2.9.62.95,1.25,1.91,1.88,2.88,1.86,2.83,3.72,5.65,5.45,8.31,7.76,15.23,8.81,16.65,12.14,16.65.79,0,1.62-.22,2.31-.62,1.06-.62,1.9-1.73,2.18-2.93.55-2.3.31-3.51-8.72-17.41-.12-.24-.22-.49-.38-.69-1.33-2.63-2.73-5.42-4.14-8.21-.51-1.01-1.02-2.03-1.53-3.04,1.03.52,2.07,1.05,3.12,1.57,2.95,1.48,5.89,2.96,8.64,4.36,13.21,8.58,14.68,8.97,16.48,8.97,1.61,0,3.26-.92,4.06-2.31.62-1.07.78-2.44.43-3.63-.67-2.26-1.48-3.19-16.48-10.84-2.69-1.75-5.54-3.63-8.4-5.5-.93-.61-1.86-1.22-2.78-1.83.96-.05,1.94-.11,2.91-.16,3.25-.19,6.51-.37,9.59-.54,6.3.33,10.41.48,13.27.48,1.52,0,2.73-.05,3.57-.14,4.89-.52,5.13-4.13,5.13-4.84,0-4.98-5.45-4.98-8.71-4.98Z"/>
      <path d="M1005.82,351.35c0-15.19,12.37-27.56,27.56-27.56v-20.67c-26.63,0-48.22,21.6-48.22,48.22s21.6,48.22,48.22,48.22v-20.67c-15.19,0-27.56-12.36-27.56-27.56Z"/>
      <path d="M48.22,351.35c0-26.62-21.6-48.22-48.22-48.22v20.67c15.19,0,27.56,12.36,27.56,27.56s-12.36,27.56-27.56,27.56v20.67c26.62,0,48.22-21.6,48.22-48.22Z"/>
      <path d="M172.23,475.35c-26.62,0-48.22,21.6-48.22,48.22s21.6,48.22,48.22,48.22,48.22-21.6,48.22-48.22-21.6-48.22-48.22-48.22ZM172.23,551.14c-15.19,0-27.56-12.37-27.56-27.56s12.36-27.56,27.56-27.56,27.56,12.36,27.56,27.56-12.36,27.56-27.56,27.56Z"/>
      <path d="M861.15,475.35c-26.63,0-48.22,21.6-48.22,48.22s21.6,48.22,48.22,48.22,48.22-21.6,48.22-48.22-21.6-48.22-48.22-48.22ZM861.15,551.14c-15.19,0-27.56-12.37-27.56-27.56s12.37-27.56,27.56-27.56,27.56,12.36,27.56,27.56-12.37,27.56-27.56,27.56Z"/>
      <path d="M861.13,998.93c-40.29,0-60.23-19.15-81.36-39.42-22.15-21.27-45.06-43.25-90.89-43.25s-68.73,21.99-90.88,43.26c-21.12,20.26-41.06,39.41-81.35,39.41s-60.22-19.15-81.34-39.41c-22.15-21.27-45.05-43.26-90.88-43.26s-68.73,21.99-90.88,43.26c-21.12,20.26-41.06,39.41-81.34,39.41-40.28,0-60.22-19.15-81.34-39.41-22.15-21.27-45.05-43.26-90.88-43.26v13.78c40.28,0,60.22,19.15,81.34,39.41,22.15,21.27,45.05,43.26,90.88,43.26s68.73-21.99,90.88-43.25c21.11-20.27,41.05-39.42,81.34-39.42s60.23,19.15,81.34,39.41c22.15,21.27,45.06,43.26,90.88,43.26s68.73-21.99,90.89-43.25c21.12-20.27,41.06-39.42,81.34-39.42s60.24,19.15,81.35,39.42c22.16,21.27,45.06,43.25,90.9,43.25s68.74-21.99,90.9-43.25c21.11-20.27,41.06-39.42,81.35-39.42v-13.78c-45.83,0-68.74,21.99-90.89,43.25-21.13,20.27-41.07,39.42-81.36,39.42Z"/>
      <path d="M861.13,974.82c-41.68,0-62.1-19.61-83.74-40.38-21.66-20.79-44.07-42.29-88.51-42.29s-66.84,21.5-88.5,42.29c-21.64,20.77-42.06,40.38-83.73,40.38s-62.1-19.61-83.72-40.38c-21.66-20.79-44.05-42.29-88.5-42.29s-66.83,21.5-88.5,42.29c-21.62,20.77-42.05,40.38-83.72,40.38s-62.1-19.61-83.72-40.38c-21.66-20.79-44.05-42.29-88.49-42.29v6.89c41.67,0,62.1,19.61,83.72,40.38,21.66,20.79,44.05,42.29,88.49,42.29s66.84-21.5,88.5-42.29c21.62-20.77,42.05-40.38,83.72-40.38s62.1,19.61,83.73,40.38c21.66,20.79,44.05,42.29,88.49,42.29s66.84-21.5,88.5-42.29c21.64-20.77,42.06-40.38,83.73-40.38s62.11,19.61,83.74,40.38c21.66,20.79,44.06,42.29,88.51,42.29s66.85-21.5,88.51-42.29c21.63-20.77,42.06-40.38,83.74-40.38v-6.89c-44.44,0-66.85,21.5-88.51,42.29-21.64,20.77-42.06,40.38-83.74,40.38Z"/>
      <path d="M861.16,716.48c-45.83,0-68.73,21.99-90.88,43.25-21.11,20.27-41.05,39.42-81.34,39.42s-60.23-19.15-81.34-39.41c-22.15-21.27-45.06-43.26-90.88-43.26s-68.73,21.99-90.89,43.25c-21.12,20.27-41.06,39.42-81.34,39.42s-60.24-19.15-81.35-39.42c-22.16-21.27-45.07-43.25-90.9-43.25s-68.74,21.99-90.89,43.25c-21.12,20.27-41.06,39.42-81.36,39.42v13.78c45.83,0,68.74-21.99,90.89-43.25,21.12-20.27,41.06-39.42,81.36-39.42s60.24,19.15,81.36,39.42c22.15,21.27,45.06,43.25,90.89,43.25s68.73-21.99,90.88-43.26c21.12-20.26,41.06-39.41,81.35-39.41s60.22,19.15,81.34,39.41c22.15,21.27,45.05,43.26,90.88,43.26s68.73-21.99,90.88-43.26c21.11-20.26,41.05-39.41,81.34-39.41s60.23,19.15,81.34,39.41c22.15,21.27,45.05,43.26,90.88,43.26v-13.78c-40.29,0-60.23-19.15-81.34-39.41-22.15-21.27-45.05-43.26-90.88-43.26Z"/>
      <path d="M861.16,744.03c-44.44,0-66.83,21.5-88.5,42.29-21.62,20.77-42.05,40.38-83.72,40.38s-62.1-19.61-83.73-40.38c-21.66-20.79-44.05-42.29-88.49-42.29s-66.84,21.5-88.5,42.29c-21.64,20.77-42.06,40.38-83.73,40.38s-62.11-19.61-83.74-40.38c-21.66-20.79-44.06-42.29-88.51-42.29s-66.85,21.5-88.51,42.29c-21.63,20.77-42.06,40.38-83.74,40.38v6.89c44.45,0,66.85-21.5,88.51-42.29,21.63-20.77,42.06-40.38,83.74-40.38s62.11,19.61,83.74,40.38c21.66,20.79,44.07,42.29,88.51,42.29s66.84-21.5,88.5-42.29c21.64-20.77,42.06-40.38,83.73-40.38s62.1,19.61,83.72,40.38c21.66,20.79,44.05,42.29,88.5,42.29s66.83-21.5,88.5-42.29c21.62-20.77,42.05-40.38,83.72-40.38s62.1,19.61,83.72,40.38c21.66,20.79,44.05,42.29,88.5,42.29v-6.89c-41.67,0-62.1-19.61-83.72-40.38-21.66-20.79-44.05-42.29-88.5-42.29Z"/>
      <path d="M389.68,690.86c-2.85,0-6.97.15-13.27.48-3.08-.16-6.34-.35-9.59-.54-.96-.05-1.93-.11-2.89-.17.95-.63,1.91-1.26,2.87-1.89,2.83-1.86,5.65-3.71,8.32-5.45,14.98-7.63,15.79-8.56,16.46-10.82.35-1.18.19-2.56-.42-3.63-.8-1.39-2.46-2.31-4.06-2.31-1.8,0-3.26.39-16.46,8.96-2.81,1.43-5.79,2.93-8.8,4.44-.99.5-1.98,1.01-2.97,1.51.51-1.04,1.04-2.07,1.55-3.1,1.49-2.96,2.97-5.91,4.38-8.67,9.15-14.08,9.39-15.29,8.83-17.59-.29-1.2-1.11-2.31-2.18-2.93-.68-.39-1.51-.62-2.31-.62-3.34,0-4.38,1.41-12.15,16.66-1.76,2.7-3.64,5.56-5.52,8.44-.61.91-1.21,1.83-1.81,2.75-.06-1-.12-2.01-.17-3.03-.19-3.21-.37-6.43-.53-9.47.92-17.57.52-18.77-1.14-20.52-1.7-1.79-5.03-1.79-6.73,0-1.65,1.75-2.06,2.95-1.14,20.52-.16,3.07-.34,6.3-.53,9.53-.05,1-.11,1.98-.17,2.96-.63-.96-1.26-1.93-1.9-2.89-1.86-2.83-3.7-5.64-5.43-8.29-7.77-15.25-8.81-16.66-12.15-16.66-.79,0-1.62.22-2.31.62-1.06.61-1.9,1.73-2.18,2.93-.55,2.3-.32,3.51,8.83,17.59,1.41,2.79,2.91,5.75,4.41,8.73.51,1.02,1.02,2.03,1.53,3.05-1.06-.54-2.13-1.08-3.19-1.6-2.92-1.48-5.83-2.95-8.56-4.33-13.21-8.58-14.68-8.97-16.48-8.97-1.61,0-3.26.91-4.06,2.31-.62,1.06-.78,2.44-.43,3.63.67,2.26,1.48,3.18,16.48,10.84,2.69,1.75,5.54,3.63,8.4,5.5.93.61,1.86,1.22,2.78,1.82-.96.05-1.94.11-2.91.17-3.25.19-6.51.38-9.59.54-6.3-.34-10.41-.48-13.27-.48-3.26,0-8.71,0-8.71,4.98s5.45,4.98,8.71,4.98h0c2.85,0,6.97-.15,13.27-.47,3.08.16,6.32.35,9.58.53.97.06,1.94.11,2.9.17-.95.63-1.91,1.26-2.87,1.89-2.83,1.86-5.65,3.71-8.32,5.44-14.98,7.64-15.79,8.56-16.46,10.82-.35,1.18-.19,2.56.42,3.63.8,1.39,2.46,2.31,4.06,2.31,1.8,0,3.27-.39,16.46-8.96,2.78-1.41,5.75-2.91,8.73-4.41,1.02-.51,2.03-1.02,3.04-1.53-.52,1.03-1.04,2.07-1.57,3.11-1.48,2.95-2.96,5.89-4.37,8.64-9.16,14.09-9.4,15.3-8.84,17.6.29,1.2,1.11,2.32,2.18,2.93.68.4,1.72.58,2.31.62,3.33,0,4.38-1.43,12.15-16.66,1.74-2.68,3.61-5.52,5.5-8.38.61-.94,1.22-1.87,1.83-2.8.06.97.11,1.94.17,2.91.18,3.24.36,6.5.53,9.58-.92,17.57-.52,18.78,1.14,20.53.85.89,2.13,1.45,3.36,1.45s2.52-.56,3.36-1.45c1.65-1.75,2.06-2.96,1.14-20.53.17-3.08.35-6.34.53-9.58.06-.97.11-1.94.17-2.9.62.95,1.25,1.92,1.88,2.87,1.86,2.83,3.72,5.65,5.45,8.32,7.76,15.23,8.81,16.64,12.14,16.65.79,0,1.62-.22,2.31-.62,1.06-.61,1.9-1.73,2.18-2.93.55-2.29.31-3.5-8.72-17.41-.12-.24-.22-.49-.38-.69-1.33-2.63-2.73-5.42-4.14-8.21-.51-1.02-1.02-2.02-1.53-3.03,1.03.52,2.07,1.04,3.12,1.56,2.95,1.49,5.89,2.96,8.64,4.37,13.21,8.58,14.68,8.97,16.48,8.97,1.61,0,3.26-.92,4.06-2.31.62-1.07.78-2.45.43-3.63-.67-2.26-1.48-3.19-16.48-10.84-2.69-1.75-5.54-3.63-8.4-5.5-.93-.61-1.86-1.22-2.78-1.82.96-.05,1.94-.11,2.91-.17,3.25-.18,6.51-.37,9.59-.53,6.3.32,10.41.47,13.27.47,1.52,0,2.73-.04,3.57-.14,4.89-.52,5.13-4.13,5.13-4.84,0-4.98-5.45-4.98-8.71-4.98Z"/>
      <path d="M217.45,863.09c-2.86,0-6.97.15-13.27.48-3.08-.16-6.34-.35-9.59-.54-.97-.05-1.93-.11-2.89-.17.95-.63,1.91-1.26,2.87-1.89,2.83-1.86,5.65-3.71,8.32-5.45,14.98-7.63,15.79-8.56,16.46-10.82.35-1.18.19-2.56-.42-3.63-.8-1.39-2.46-2.31-4.06-2.31-1.79,0-3.26.39-16.46,8.96-2.8,1.43-5.8,2.93-8.8,4.44-.99.5-1.98,1.01-2.97,1.51.52-1.04,1.04-2.07,1.56-3.1,1.49-2.96,2.97-5.91,4.38-8.67,9.15-14.08,9.39-15.29,8.83-17.59-.29-1.2-1.11-2.31-2.18-2.93-.68-.39-1.51-.62-2.31-.62-3.34,0-4.38,1.41-12.15,16.66-1.76,2.7-3.64,5.56-5.52,8.44-.61.91-1.21,1.83-1.81,2.75-.06-1-.11-2.01-.17-3.03-.19-3.21-.37-6.43-.53-9.47.92-17.57.52-18.77-1.14-20.52-1.7-1.79-5.03-1.79-6.73,0-1.66,1.75-2.06,2.95-1.14,20.52-.16,3.07-.35,6.3-.53,9.53-.06,1-.11,1.98-.17,2.96-.63-.96-1.26-1.93-1.9-2.89-1.85-2.83-3.7-5.64-5.43-8.29-7.77-15.25-8.81-16.66-12.15-16.66-.79,0-1.62.22-2.31.62-1.06.61-1.89,1.73-2.18,2.93-.55,2.3-.31,3.51,8.84,17.59,1.41,2.79,2.91,5.75,4.4,8.73.51,1.02,1.03,2.03,1.53,3.05-1.06-.54-2.12-1.08-3.18-1.6-2.93-1.48-5.84-2.95-8.57-4.33-13.21-8.58-14.68-8.97-16.48-8.97-1.6,0-3.26.91-4.06,2.31-.62,1.06-.78,2.44-.43,3.63.67,2.26,1.48,3.18,16.48,10.84,2.69,1.75,5.54,3.63,8.4,5.5.93.61,1.85,1.22,2.78,1.82-.97.05-1.94.11-2.91.17-3.25.19-6.51.38-9.59.54-6.3-.34-10.41-.48-13.27-.48-3.26,0-8.71,0-8.71,4.98s5.45,4.98,8.71,4.98h0c2.85,0,6.97-.15,13.26-.47,3.08.16,6.32.35,9.58.53.97.06,1.94.11,2.9.17-.95.63-1.91,1.26-2.87,1.89-2.83,1.86-5.65,3.71-8.32,5.44-14.98,7.64-15.79,8.56-16.46,10.82-.35,1.18-.19,2.56.42,3.63.8,1.39,2.46,2.31,4.06,2.31,1.79,0,3.27-.39,16.46-8.96,2.78-1.41,5.75-2.91,8.73-4.41,1.02-.51,2.03-1.02,3.04-1.53-.52,1.03-1.05,2.07-1.57,3.11-1.48,2.95-2.96,5.89-4.37,8.64-9.15,14.09-9.4,15.3-8.84,17.6.29,1.2,1.11,2.32,2.18,2.93.68.4,1.72.58,2.31.62,3.33,0,4.38-1.43,12.15-16.66,1.75-2.68,3.62-5.52,5.49-8.38.61-.94,1.23-1.87,1.84-2.8.06.97.11,1.94.17,2.91.19,3.24.37,6.5.54,9.58-.92,17.57-.52,18.78,1.14,20.53.85.89,2.13,1.45,3.36,1.45s2.51-.56,3.36-1.45c1.66-1.75,2.06-2.96,1.14-20.53.16-3.08.35-6.34.54-9.58.06-.97.11-1.94.17-2.9.63.95,1.26,1.92,1.89,2.87,1.86,2.83,3.72,5.65,5.45,8.32,7.76,15.23,8.81,16.64,12.14,16.65.79,0,1.62-.22,2.31-.62,1.06-.61,1.89-1.73,2.18-2.93.55-2.29.31-3.5-8.72-17.41-.12-.24-.21-.49-.38-.69-1.34-2.63-2.74-5.42-4.14-8.21-.51-1.02-1.02-2.02-1.53-3.03,1.03.52,2.07,1.04,3.11,1.56,2.95,1.49,5.89,2.96,8.65,4.37,13.2,8.58,14.67,8.97,16.47,8.97,1.6,0,3.26-.92,4.06-2.31.62-1.07.78-2.45.43-3.63-.67-2.26-1.48-3.19-16.48-10.84-2.69-1.75-5.54-3.63-8.4-5.5-.93-.61-1.85-1.22-2.78-1.82.97-.05,1.94-.11,2.91-.17,3.25-.18,6.51-.37,9.59-.53,6.3.32,10.41.47,13.27.47,1.52,0,2.73-.04,3.57-.14,4.89-.52,5.14-4.13,5.14-4.84,0-4.98-5.45-4.98-8.71-4.98Z"/>
      <path d="M906.37,863.09c-2.85,0-6.97.15-13.27.48-3.08-.16-6.34-.35-9.59-.54-.96-.05-1.93-.11-2.89-.17.95-.63,1.91-1.26,2.87-1.89,2.83-1.86,5.65-3.71,8.32-5.45,14.98-7.63,15.79-8.56,16.46-10.82.35-1.18.19-2.56-.42-3.63-.8-1.39-2.46-2.31-4.06-2.31-1.8,0-3.26.39-16.46,8.96-2.81,1.43-5.79,2.93-8.8,4.44-.99.5-1.98,1.01-2.97,1.51.51-1.04,1.04-2.07,1.55-3.1,1.49-2.96,2.97-5.91,4.38-8.67,9.15-14.08,9.39-15.29,8.83-17.59-.29-1.2-1.11-2.31-2.18-2.93-.68-.39-1.51-.62-2.31-.62-3.34,0-4.38,1.41-12.15,16.66-1.76,2.7-3.64,5.56-5.52,8.44-.61.91-1.21,1.83-1.81,2.75-.06-1-.12-2.01-.17-3.03-.19-3.21-.37-6.43-.53-9.47.92-17.57.52-18.77-1.14-20.52-1.7-1.79-5.03-1.79-6.73,0-1.65,1.75-2.06,2.95-1.14,20.52-.16,3.07-.34,6.3-.53,9.53-.05,1-.11,1.98-.17,2.96-.63-.96-1.26-1.93-1.9-2.89-1.86-2.83-3.7-5.64-5.43-8.29-7.77-15.25-8.81-16.66-12.15-16.66-.79,0-1.62.22-2.31.62-1.06.61-1.9,1.73-2.18,2.93-.55,2.3-.32,3.51,8.83,17.59,1.41,2.79,2.91,5.75,4.41,8.73.51,1.02,1.02,2.03,1.53,3.05-1.06-.54-2.13-1.08-3.19-1.6-2.92-1.48-5.83-2.95-8.56-4.33-13.21-8.58-14.68-8.97-16.48-8.97-1.61,0-3.26.91-4.06,2.31-.62,1.06-.78,2.44-.43,3.63.67,2.26,1.48,3.18,16.48,10.84,2.69,1.75,5.54,3.63,8.4,5.5.93.61,1.86,1.22,2.78,1.82-.96.05-1.94.11-2.91.17-3.25.19-6.51.38-9.59.54-6.3-.34-10.41-.48-13.27-.48-3.26,0-8.71,0-8.71,4.98s5.45,4.98,8.71,4.98h0c2.85,0,6.97-.15,13.27-.47,3.08.16,6.32.35,9.58.53.97.06,1.94.11,2.9.17-.95.63-1.91,1.26-2.87,1.89-2.83,1.86-5.65,3.71-8.32,5.44-14.98,7.64-15.79,8.56-16.46,10.82-.35,1.18-.19,2.56.42,3.63.8,1.39,2.46,2.31,4.06,2.31,1.8,0,3.27-.39,16.46-8.96,2.78-1.41,5.75-2.91,8.73-4.41,1.02-.51,2.03-1.02,3.04-1.53-.52,1.03-1.04,2.07-1.57,3.11-1.48,2.95-2.96,5.89-4.37,8.64-9.16,14.09-9.4,15.3-8.84,17.6.29,1.2,1.11,2.32,2.18,2.93.68.4,1.72.58,2.31.62,3.33,0,4.38-1.43,12.15-16.66,1.74-2.68,3.61-5.52,5.5-8.38.61-.94,1.22-1.87,1.83-2.8.06.97.11,1.94.17,2.91.18,3.24.36,6.5.53,9.58-.92,17.57-.52,18.78,1.14,20.53.85.89,2.13,1.45,3.36,1.45s2.52-.56,3.36-1.45c1.65-1.75,2.06-2.96,1.14-20.53.17-3.08.35-6.34.53-9.58.06-.97.11-1.94.17-2.9.62.95,1.25,1.92,1.88,2.87,1.86,2.83,3.72,5.65,5.45,8.32,7.76,15.23,8.81,16.64,12.14,16.65.79,0,1.62-.22,2.31-.62,1.06-.61,1.9-1.73,2.18-2.93.55-2.29.31-3.5-8.72-17.41-.12-.24-.22-.49-.38-.69-1.33-2.63-2.73-5.42-4.14-8.21-.51-1.02-1.02-2.02-1.53-3.03,1.03.52,2.07,1.04,3.12,1.56,2.95,1.49,5.89,2.96,8.64,4.37,13.21,8.58,14.68,8.97,16.48,8.97,1.61,0,3.26-.92,4.06-2.31.62-1.07.78-2.45.43-3.63-.67-2.26-1.48-3.19-16.48-10.84-2.69-1.75-5.54-3.63-8.4-5.5-.93-.61-1.86-1.22-2.78-1.82.96-.05,1.94-.11,2.91-.17,3.25-.18,6.51-.37,9.59-.53,6.3.32,10.41.47,13.27.47,1.52,0,2.73-.04,3.57-.14,4.89-.52,5.13-4.13,5.13-4.84,0-4.98-5.45-4.98-8.71-4.98Z"/>
      <path d="M734.14,690.86c-2.85,0-6.97.15-13.27.48-3.08-.16-6.34-.35-9.59-.54-.96-.05-1.93-.11-2.89-.17.95-.63,1.91-1.26,2.87-1.89,2.83-1.86,5.65-3.71,8.32-5.45,14.98-7.63,15.79-8.56,16.46-10.82.35-1.18.19-2.56-.42-3.63-.8-1.39-2.46-2.31-4.06-2.31-1.8,0-3.26.39-16.46,8.96-2.81,1.43-5.79,2.93-8.8,4.44-.99.5-1.98,1.01-2.97,1.51.51-1.04,1.04-2.07,1.55-3.1,1.49-2.96,2.97-5.91,4.38-8.67,9.15-14.08,9.39-15.29,8.83-17.59-.29-1.2-1.11-2.31-2.18-2.93-.68-.39-1.51-.62-2.31-.62-3.34,0-4.38,1.41-12.15,16.66-1.76,2.7-3.64,5.56-5.52,8.44-.61.91-1.21,1.83-1.81,2.75-.06-1-.12-2.01-.17-3.03-.19-3.21-.37-6.43-.53-9.47.92-17.57.52-18.77-1.14-20.52-1.7-1.79-5.03-1.79-6.73,0-1.65,1.75-2.06,2.95-1.14,20.52-.16,3.07-.34,6.3-.53,9.53-.05,1-.11,1.98-.17,2.96-.63-.96-1.26-1.93-1.9-2.89-1.86-2.83-3.7-5.64-5.43-8.29-7.77-15.25-8.81-16.66-12.15-16.66-.79,0-1.62.22-2.31.62-1.06.61-1.9,1.73-2.18,2.93-.55,2.3-.32,3.51,8.83,17.59,1.41,2.79,2.91,5.75,4.41,8.73.51,1.02,1.02,2.03,1.53,3.05-1.06-.54-2.13-1.08-3.19-1.6-2.92-1.48-5.83-2.95-8.56-4.33-13.21-8.58-14.68-8.97-16.48-8.97-1.61,0-3.26.91-4.06,2.31-.62,1.06-.78,2.44-.43,3.63.67,2.26,1.48,3.18,16.48,10.84,2.69,1.75,5.54,3.63,8.4,5.5.93.61,1.86,1.22,2.78,1.82-.96.05-1.94.11-2.91.17-3.25.19-6.51.38-9.59.54-6.3-.34-10.41-.48-13.27-.48-3.26,0-8.71,0-8.71,4.98s5.45,4.98,8.71,4.98h0c2.85,0,6.97-.15,13.27-.47,3.08.16,6.32.35,9.58.53.97.06,1.94.11,2.9.17-.95.63-1.91,1.26-2.87,1.89-2.83,1.86-5.65,3.71-8.32,5.44-14.98,7.64-15.79,8.56-16.46,10.82-.35,1.18-.19,2.56.42,3.63.8,1.39,2.46,2.31,4.06,2.31,1.8,0,3.27-.39,16.46-8.96,2.78-1.41,5.75-2.91,8.73-4.41,1.02-.51,2.03-1.02,3.04-1.53-.52,1.03-1.04,2.07-1.57,3.11-1.48,2.95-2.96,5.89-4.37,8.64-9.16,14.09-9.4,15.3-8.84,17.6.29,1.2,1.11,2.32,2.18,2.93.68.4,1.72.58,2.31.62,3.33,0,4.38-1.43,12.15-16.66,1.74-2.68,3.61-5.52,5.5-8.38.61-.94,1.22-1.87,1.83-2.8.06.97.11,1.94.17,2.91.18,3.24.36,6.5.53,9.58-.92,17.57-.52,18.78,1.14,20.53.85.89,2.13,1.45,3.36,1.45s2.52-.56,3.36-1.45c1.65-1.75,2.06-2.96,1.14-20.53.17-3.08.35-6.34.53-9.58.06-.97.11-1.94.17-2.9.62.95,1.25,1.92,1.88,2.87,1.86,2.83,3.72,5.65,5.45,8.32,7.76,15.23,8.81,16.64,12.14,16.65.79,0,1.62-.22,2.31-.62,1.06-.61,1.9-1.73,2.18-2.93.55-2.29.31-3.5-8.72-17.41-.12-.24-.22-.49-.38-.69-1.33-2.63-2.73-5.42-4.14-8.21-.51-1.02-1.02-2.02-1.53-3.03,1.03.52,2.07,1.04,3.12,1.56,2.95,1.49,5.89,2.96,8.64,4.37,13.21,8.58,14.68,8.97,16.48,8.97,1.61,0,3.26-.92,4.06-2.31.62-1.07.78-2.45.43-3.63-.67-2.26-1.48-3.19-16.48-10.84-2.69-1.75-5.54-3.63-8.4-5.5-.93-.61-1.86-1.22-2.78-1.82.96-.05,1.94-.11,2.91-.17,3.25-.18,6.51-.37,9.59-.53,6.3.32,10.41.47,13.27.47,1.52,0,2.73-.04,3.57-.14,4.89-.52,5.13-4.13,5.13-4.84,0-4.98-5.45-4.98-8.71-4.98Z"/>
      <path d="M1005.82,695.81c0-15.19,12.37-27.56,27.56-27.56v-20.67c-26.63,0-48.22,21.6-48.22,48.22s21.6,48.22,48.22,48.22v-20.67c-15.19,0-27.56-12.37-27.56-27.56Z"/>
      <path d="M48.22,695.81c0-26.63-21.6-48.22-48.22-48.22v20.67c15.19,0,27.56,12.37,27.56,27.56s-12.36,27.56-27.56,27.56v20.67c26.62,0,48.22-21.6,48.22-48.22Z"/>
      <path d="M516.69,819.81c-26.63,0-48.22,21.6-48.22,48.22s21.6,48.22,48.22,48.22,48.22-21.6,48.22-48.22-21.6-48.22-48.22-48.22ZM516.69,895.6c-15.19,0-27.56-12.37-27.56-27.56s12.37-27.56,27.56-27.56,27.56,12.37,27.56,27.56-12.37,27.56-27.56,27.56Z"/>
      <path d="M366.81,1033.2c2.83-1.86,5.65-3.71,8.32-5.45,14.98-7.63,15.79-8.56,16.46-10.82.35-1.18.19-2.56-.42-3.63-.8-1.39-2.46-2.31-4.06-2.31-1.8,0-3.26.39-16.46,8.96-2.81,1.43-5.79,2.93-8.8,4.44-.99.5-1.98,1.01-2.97,1.51.51-1.04,1.04-2.07,1.55-3.1,1.49-2.96,2.97-5.91,4.38-8.67,9.15-14.08,9.39-15.29,8.83-17.59-.29-1.2-1.11-2.31-2.18-2.93-.68-.39-1.51-.62-2.31-.62-3.34,0-4.38,1.41-12.15,16.66-1.76,2.7-3.64,5.56-5.52,8.44-.61.91-1.21,1.83-1.81,2.75-.06-1-.12-2.01-.17-3.03-.19-3.21-.37-6.43-.53-9.47.92-17.57.52-18.77-1.14-20.52-1.7-1.79-5.03-1.79-6.73,0-1.65,1.75-2.06,2.95-1.14,20.52-.16,3.07-.34,6.3-.53,9.53-.05,1-.11,1.98-.17,2.96-.63-.96-1.26-1.93-1.9-2.89-1.86-2.83-3.7-5.64-5.43-8.29-7.77-15.25-8.81-16.66-12.15-16.66-.79,0-1.62.22-2.31.62-1.06.61-1.9,1.73-2.18,2.93-.55,2.3-.32,3.51,8.83,17.59,1.41,2.79,2.91,5.75,4.41,8.73.51,1.02,1.02,2.03,1.53,3.05-1.06-.54-2.13-1.08-3.19-1.6-2.92-1.48-5.83-2.95-8.56-4.33-13.21-8.58-14.68-8.97-16.48-8.97-1.61,0-3.26.91-4.06,2.31-.62,1.06-.78,2.44-.43,3.63.67,2.26,1.48,3.18,16.48,10.84,2.69,1.75,5.54,3.63,8.4,5.5.05.04.11.07.16.11h44.16c.09-.05.18-.12.27-.17Z"/>
      <path d="M711.27,1033.2c2.83-1.86,5.65-3.71,8.32-5.45,14.98-7.63,15.79-8.56,16.46-10.82.35-1.18.19-2.56-.42-3.63-.8-1.39-2.46-2.31-4.06-2.31-1.8,0-3.26.39-16.46,8.96-2.81,1.43-5.79,2.93-8.8,4.44-.99.5-1.98,1.01-2.97,1.51.51-1.04,1.04-2.07,1.55-3.1,1.49-2.96,2.97-5.91,4.38-8.67,9.15-14.08,9.39-15.29,8.83-17.59-.29-1.2-1.11-2.31-2.18-2.93-.68-.39-1.51-.62-2.31-.62-3.34,0-4.38,1.41-12.15,16.66-1.76,2.7-3.64,5.56-5.52,8.44-.61.91-1.21,1.83-1.81,2.75-.06-1-.12-2.01-.17-3.03-.19-3.21-.37-6.43-.53-9.47.92-17.57.52-18.77-1.14-20.52-1.7-1.79-5.03-1.79-6.73,0-1.65,1.75-2.06,2.95-1.14,20.52-.16,3.07-.34,6.3-.53,9.53-.05,1-.11,1.98-.17,2.96-.63-.96-1.26-1.93-1.9-2.89-1.86-2.83-3.7-5.64-5.43-8.29-7.77-15.25-8.81-16.66-12.15-16.66-.79,0-1.62.22-2.31.62-1.06.61-1.9,1.73-2.18,2.93-.55,2.3-.32,3.51,8.83,17.59,1.41,2.79,2.91,5.75,4.41,8.73.51,1.02,1.02,2.03,1.53,3.05-1.06-.54-2.13-1.08-3.19-1.6-2.92-1.48-5.83-2.95-8.56-4.33-13.21-8.58-14.68-8.97-16.48-8.97-1.61,0-3.26.91-4.06,2.31-.62,1.06-.78,2.44-.43,3.63.67,2.26,1.48,3.18,16.48,10.84,2.69,1.75,5.54,3.63,8.4,5.5.05.04.11.07.16.11h44.16c.09-.05.18-.12.27-.17Z"/>
      <path d="M1033.38,1012.71v-20.67c-24.28,0-44.32,17.98-47.67,41.34h21.1c3.08-11.85,13.77-20.67,26.57-20.67Z"/>
      <path d="M0,992.04v20.67c12.8,0,23.5,8.81,26.58,20.67h21.1c-3.35-23.36-23.4-41.34-47.68-41.34Z"/>
    </g>
  </g>
</svg>