<?xml version="1.0" encoding="UTF-8"?>
<svg id="Layer_2" data-name="Layer 2" xmlns="http://www.w3.org/2000/svg" xmlns:xlink="http://www.w3.org/1999/xlink" viewBox="0 0 166.67 500">
  <defs>
    <style>
      .cls-1 {
        fill: none;
      }

      .cls-2 {
        fill: #fff6d2;
      }

      .cls-3 {
        fill: url(#Unnamed_Pattern_4);
      }

      .cls-4 {
        fill: #f4e634;
      }

      .cls-5 {
        fill: #e3a2ea;
      }

      .cls-6 {
        fill: #ae76cc;
      }
    </style>
    <pattern id="Unnamed_Pattern_4" data-name="Unnamed Pattern 4" x="0" y="0" width="68.48" height="68.48" patternTransform="translate(-196.82 -3.76)" patternUnits="userSpaceOnUse" viewBox="0 0 68.48 68.48">
      <g>
        <rect class="cls-1" y="0" width="68.48" height="68.48"/>
        <rect class="cls-4" x="0" y="0" width="68.48" height="68.48"/>
        <g>
          <g>
            <g>
              <polygon class="cls-2" points="0 2.14 4.07 6.21 6.21 4.07 2.14 0 0 0 0 2.14"/>
              <polygon class="cls-2" points="66.34 0 62.27 4.07 64.41 6.21 68.48 2.14 68.48 0 66.34 0"/>
            </g>
            <g>
              <polygon class="cls-2" points="68.48 66.34 64.41 62.27 62.27 64.41 66.34 68.48 68.48 68.48 68.48 66.34"/>
              <polygon class="cls-2" points="2.14 68.48 6.21 64.41 4.07 62.27 0 66.34 0 68.48 2.14 68.48"/>
            </g>
          </g>
          <g>
            <path class="cls-2" d="M68.48,31.66c-1.43,0-2.58,1.16-2.58,2.58s1.15,2.58,2.58,2.58v-5.16Z"/>
            <path class="cls-2" d="M0,36.82c1.43,0,2.58-1.16,2.58-2.58s-1.16-2.58-2.58-2.58v5.16Z"/>
          </g>
          <g>
            <path class="cls-2" d="M31.66,0c0,1.43,1.16,2.58,2.58,2.58s2.58-1.15,2.58-2.58h-5.17Z"/>
            <path class="cls-2" d="M36.82,68.48c0-1.43-1.16-2.58-2.58-2.58s-2.58,1.15-2.58,2.58h5.17Z"/>
          </g>
        </g>
        <g>
          <g>
            <path class="cls-6" d="M48.07,39.49c-.89.29-1.78.48-2.67.6.65.62,1.25,1.3,1.8,2.06,3.28,4.51,3.67,10.09,1.4,14.09-4.49.92-9.69-1.17-12.96-5.68-.55-.75-1.01-1.54-1.4-2.35-.39.8-.85,1.59-1.4,2.35-3.28,4.51-8.47,6.61-12.96,5.68-2.27-3.99-1.88-9.58,1.4-14.09.55-.76,1.16-1.44,1.8-2.06-.88-.12-1.78-.32-2.67-.6-5.3-1.72-8.9-6.01-9.41-10.57,3.09-3.39,8.53-4.74,13.83-3.02.89.29,1.72.66,2.51,1.08-.16-.88-.25-1.79-.25-2.72,0-5.57,2.97-10.32,7.15-12.22,4.18,1.89,7.15,6.64,7.15,12.22,0,.93-.09,1.84-.25,2.72.79-.42,1.62-.79,2.51-1.08,5.3-1.72,10.74-.37,13.83,3.02-.51,4.56-4.11,8.85-9.41,10.57ZM34.24,36.47h0Z"/>
            <path class="cls-5" d="M36.99,37.36c1.56.88,3.2,2.36,4.61,4.3,2.29,3.15,3.26,6.54,2.66,8.6-2.15-.07-5.07-2.04-7.36-5.19-1.41-1.93-2.31-3.96-2.66-5.71-.35,1.75-1.26,3.78-2.66,5.71-2.29,3.15-5.21,5.12-7.36,5.19-.59-2.07.38-5.46,2.66-8.6,1.41-1.94,3.05-3.42,4.61-4.3-1.78.21-3.98-.03-6.26-.77-3.7-1.2-6.48-3.37-7.21-5.4,1.78-1.2,5.31-1.33,9.01-.12,2.27.74,4.19,1.84,5.51,3.05-.74-1.63-1.2-3.79-1.2-6.18,0-3.89,1.21-7.2,2.9-8.53,1.7,1.32,2.9,4.63,2.9,8.53,0,2.39-.46,4.55-1.2,6.18,1.32-1.21,3.24-2.31,5.51-3.05,3.7-1.2,7.22-1.08,9.01.13-.73,2.02-3.51,4.19-7.21,5.39-2.28.74-4.48.97-6.26.77ZM34.24,36.47h0Z"/>
          </g>
          <g>
            <path class="cls-6" d="M33.61,35.95c0,.86-.7,1.56-1.56,1.56s-1.56-.7-1.56-1.56.7-1.56,1.56-1.56,1.56.7,1.56,1.56Z"/>
            <path class="cls-6" d="M37.98,35.95c0,.86-.7,1.56-1.56,1.56s-1.56-.7-1.56-1.56.7-1.56,1.56-1.56,1.56.7,1.56,1.56Z"/>
            <path class="cls-6" d="M35.38,33.26c0,.59-.48,1.07-1.07,1.07s-1.07-.48-1.07-1.07.48-1.07,1.07-1.07,1.07.48,1.07,1.07Z"/>
            <path class="cls-6" d="M35.54,38.58c0,.68-.56,1.24-1.24,1.24s-1.24-.56-1.24-1.24.56-1.24,1.24-1.24,1.24.56,1.24,1.24Z"/>
          </g>
        </g>
      </g>
    </pattern>
  </defs>
  <g id="PATTERN">
    <rect class="cls-3" width="166.67" height="500"/>
  </g>
</svg>