<?xml version="1.0" encoding="UTF-8"?>
<svg id="Layer_2" data-name="Layer 2" xmlns="http://www.w3.org/2000/svg" xmlns:xlink="http://www.w3.org/1999/xlink" viewBox="0 0 125.86 500">
  <defs>
    <style>
      .cls-1 {
        fill: none;
      }

      .cls-2 {
        fill: #f9f;
      }

      .cls-3 {
        fill: #20d9ff;
      }

      .cls-4 {
        clip-path: url(#clippath-1);
      }

      .cls-5 {
        clip-path: url(#clippath-3);
      }

      .cls-6 {
        clip-path: url(#clippath-4);
      }

      .cls-7 {
        clip-path: url(#clippath-2);
      }

      .cls-8 {
        fill: #fff;
      }

      .cls-9 {
        fill: #fff800;
      }

      .cls-10 {
        fill: url(#Nueva_muestra_de_motivo_4);
      }

      .cls-11 {
        fill: #ff2881;
      }

      .cls-12 {
        clip-path: url(#clippath);
      }

      .cls-13 {
        fill: #0dd676;
      }
    </style>
    <clipPath id="clippath">
      <rect class="cls-1" x="198.83" y="187.16" width="200" height="200"/>
    </clipPath>
    <clipPath id="clippath-1">
      <rect class="cls-1" x="-1.17" y="187.16" width="200" height="200"/>
    </clipPath>
    <clipPath id="clippath-2">
      <rect class="cls-1" x="198.83" y="-12.84" width="200" height="200"/>
    </clipPath>
    <clipPath id="clippath-3">
      <rect class="cls-1" x="-1.17" y="-12.84" width="200" height="200"/>
    </clipPath>
    <clipPath id="clippath-4">
      <path class="cls-11" d="M52.81,126.89c9.96-9.96,9.96-26.1,0-36.06s-26.1-9.96-36.06,0l36.06,36.06Z"/>
    </clipPath>
    <pattern id="Nueva_muestra_de_motivo_4" data-name="Nueva muestra de motivo 4" x="0" y="0" width="200" height="200" patternTransform="translate(-2646.08 -2508.33) scale(.7)" patternUnits="userSpaceOnUse" viewBox="0 0 200 200">
      <g>
        <rect class="cls-1" x="0" width="200" height="200"/>
        <g class="cls-12">
          <rect class="cls-8" x="182.83" y="171.16" width="232" height="232"/>
          <g>
            <path class="cls-13" d="M227.26,170.63c-3.16,0-5.9,2.55-5.91,5.71l-.02,10.5c0,1.57-.86,2.29-2.43,2.29h-5.74s.03-16.17.03-16.17c.01-7.61-5.97-13.8-13.59-13.81-7.61-.01-13.62,6.15-13.63,13.77l-.07,42.47h-4.43c-1.57,0-2.83-1.57-2.83-3.14l.04-21.66c0-3.16-2.73-5.72-5.89-5.73-3.16,0-5.9,2.55-5.91,5.71l-.04,21.66c-.01,7.88,6.73,14.93,14.6,14.95h4.43s-.02,13.62-.02,13.62l27.22.04.07-39.93h5.74c7.88.02,14.23-6.18,14.24-14.06l.02-10.5c0-3.16-2.73-5.72-5.89-5.73Z"/>
            <polygon class="cls-9" points="200.73 180.59 194.77 175.15 197.7 171.95 203.65 177.38 200.73 180.59"/>
            <polygon class="cls-9" points="198.06 205.65 194.85 202.73 200.29 196.77 203.49 199.7 198.06 205.65"/>
          </g>
        </g>
        <g class="cls-4">
          <rect class="cls-8" x="-17.17" y="171.16" width="232" height="232"/>
          <g>
            <path class="cls-13" d="M27.26,170.63c-3.16,0-5.9,2.55-5.91,5.71l-.02,10.5c0,1.57-.86,2.29-2.43,2.29h-5.74s.03-16.17.03-16.17c.01-7.61-5.97-13.8-13.59-13.81-7.61-.01-13.62,6.15-13.63,13.77l-.07,42.47h-4.43c-1.57,0-2.83-1.57-2.83-3.14l.04-21.66c0-3.16-2.73-5.72-5.89-5.73-3.16,0-5.9,2.55-5.91,5.71l-.04,21.66c-.01,7.88,6.73,14.93,14.6,14.95h4.43s-.02,13.62-.02,13.62l27.22.04.07-39.93h5.74c7.88.02,14.23-6.18,14.24-14.06l.02-10.5c0-3.16-2.73-5.72-5.89-5.73Z"/>
            <polygon class="cls-9" points=".73 180.59 -5.23 175.15 -2.3 171.95 3.65 177.38 .73 180.59"/>
            <polygon class="cls-9" points="-1.94 205.65 -5.15 202.73 .29 196.77 3.49 199.7 -1.94 205.65"/>
          </g>
          <g>
            <path class="cls-13" d="M227.26,170.63c-3.16,0-5.9,2.55-5.91,5.71l-.02,10.5c0,1.57-.86,2.29-2.43,2.29h-5.74s.03-16.17.03-16.17c.01-7.61-5.97-13.8-13.59-13.81-7.61-.01-13.62,6.15-13.63,13.77l-.07,42.47h-4.43c-1.57,0-2.83-1.57-2.83-3.14l.04-21.66c0-3.16-2.73-5.72-5.89-5.73-3.16,0-5.9,2.55-5.91,5.71l-.04,21.66c-.01,7.88,6.73,14.93,14.6,14.95h4.43s-.02,13.62-.02,13.62l27.22.04.07-39.93h5.74c7.88.02,14.23-6.18,14.24-14.06l.02-10.5c0-3.16-2.73-5.72-5.89-5.73Z"/>
            <polygon class="cls-9" points="200.73 180.59 194.77 175.15 197.7 171.95 203.65 177.38 200.73 180.59"/>
            <polygon class="cls-9" points="198.06 205.65 194.85 202.73 200.29 196.77 203.49 199.7 198.06 205.65"/>
          </g>
          <g>
            <path class="cls-2" d="M65.46,195.35l-2.27-3.79,27.18-16.31c4.31-2.59,9.98-1.22,12.65,3.04l-3.75,2.34c-1.4-2.23-4.37-2.95-6.63-1.59l-27.18,16.31Z"/>
            <path class="cls-2" d="M91.06,202.71l-3.3-3.5c-.34-.36-.75-.54-1.29-.54-.49,0-.94.21-1.27.58l-3.03,3.41-3.3-2.94,3.03-3.41c1.14-1.29,2.79-2.04,4.51-2.06,1.72-.01,3.38.68,4.57,1.93l3.3,3.5-3.21,3.03Z"/>
            <circle class="cls-2" cx="70.58" cy="200.82" r="12.15"/>
            <path d="M78.59,200.39c.24,4.42-3.16,8.2-7.58,8.44-4.42.24-8.2-3.16-8.44-7.58-.24-4.42,3.16-8.2,7.58-8.44,4.42-.24,8.2,3.16,8.44,7.58Z"/>
            <circle class="cls-2" cx="102.98" cy="200.82" r="12.15"/>
            <path d="M110.99,200.39c.24,4.42-3.16,8.2-7.58,8.44-4.42.24-8.2-3.16-8.44-7.58-.24-4.42,3.16-8.2,7.58-8.44s8.2,3.16,8.44,7.58Z"/>
            <path class="cls-2" d="M110.75,195.35l-2.27-3.79,27.18-16.31c4.31-2.59,9.99-1.22,12.65,3.04l-3.75,2.34c-1.4-2.24-4.37-2.95-6.63-1.59l-27.18,16.31Z"/>
          </g>
        </g>
        <g class="cls-7">
          <rect class="cls-8" x="182.83" y="-28.84" width="232" height="232"/>
          <g>
            <path class="cls-13" d="M227.26-29.37c-3.16,0-5.9,2.55-5.91,5.71l-.02,10.5c0,1.57-.86,2.29-2.43,2.29h-5.74s.03-16.17.03-16.17c.01-7.61-5.97-13.8-13.59-13.81-7.61-.01-13.62,6.15-13.63,13.77l-.07,42.47h-4.43c-1.57,0-2.83-1.57-2.83-3.14l.04-21.66c0-3.16-2.73-5.72-5.89-5.73-3.16,0-5.9,2.55-5.91,5.71l-.04,21.66c-.01,7.88,6.73,14.93,14.6,14.95h4.43s-.02,13.62-.02,13.62l27.22.04.07-39.93h5.74c7.88.02,14.23-6.18,14.24-14.06l.02-10.5c0-3.16-2.73-5.72-5.89-5.73Z"/>
            <polygon class="cls-9" points="200.65 30.48 194.69 25.05 197.61 21.84 203.57 27.27 200.65 30.48"/>
            <polygon class="cls-9" points="198.06 5.65 194.85 2.73 200.29 -3.23 203.49 -.3 198.06 5.65"/>
          </g>
          <g>
            <path class="cls-13" d="M227.26,170.63c-3.16,0-5.9,2.55-5.91,5.71l-.02,10.5c0,1.57-.86,2.29-2.43,2.29h-5.74s.03-16.17.03-16.17c.01-7.61-5.97-13.8-13.59-13.81-7.61-.01-13.62,6.15-13.63,13.77l-.07,42.47h-4.43c-1.57,0-2.83-1.57-2.83-3.14l.04-21.66c0-3.16-2.73-5.72-5.89-5.73-3.16,0-5.9,2.55-5.91,5.71l-.04,21.66c-.01,7.88,6.73,14.93,14.6,14.95h4.43s-.02,13.62-.02,13.62l27.22.04.07-39.93h5.74c7.88.02,14.23-6.18,14.24-14.06l.02-10.5c0-3.16-2.73-5.72-5.89-5.73Z"/>
            <polygon class="cls-9" points="200.73 180.59 194.77 175.15 197.7 171.95 203.65 177.38 200.73 180.59"/>
            <polygon class="cls-9" points="198.06 205.65 194.85 202.73 200.29 196.77 203.49 199.7 198.06 205.65"/>
          </g>
        </g>
        <g class="cls-5">
          <rect class="cls-8" x="-17.17" y="-28.84" width="232" height="232"/>
          <polygon class="cls-3" points="138.16 140.16 143.64 149.64 132.69 149.64 138.16 140.16"/>
          <polygon class="cls-13" points="20.86 125.94 24.45 136.3 13.69 134.23 20.86 125.94"/>
          <polygon points="95.19 69.41 85.35 64.58 94.45 58.48 95.19 69.41"/>
          <polygon class="cls-3" points="24.96 43.95 35.28 40.28 33.3 51.05 24.96 43.95"/>
          <polygon class="cls-11" points="178.16 66.49 188.87 64.18 185.51 74.61 178.16 66.49"/>
          <polygon class="cls-13" points="135.5 47.48 130.02 37.99 140.97 37.99 135.5 47.48"/>
          <g>
            <path class="cls-13" d="M27.26-29.37c-3.16,0-5.9,2.55-5.91,5.71l-.02,10.5c0,1.57-.86,2.29-2.43,2.29h-5.74s.03-16.17.03-16.17c.01-7.61-5.97-13.8-13.59-13.81-7.61-.01-13.62,6.15-13.63,13.77l-.07,42.47h-4.43c-1.57,0-2.83-1.57-2.83-3.14l.04-21.66c0-3.16-2.73-5.72-5.89-5.73-3.16,0-5.9,2.55-5.91,5.71l-.04,21.66c-.01,7.88,6.73,14.93,14.6,14.95h4.43s-.02,13.62-.02,13.62l27.22.04.07-39.93h5.74c7.88.02,14.23-6.18,14.24-14.06l.02-10.5c0-3.16-2.73-5.72-5.89-5.73Z"/>
            <polygon class="cls-9" points=".65 30.48 -5.31 25.05 -2.39 21.84 3.57 27.27 .65 30.48"/>
            <polygon class="cls-9" points=".73 -19.41 -5.23 -24.85 -2.3 -28.05 3.65 -22.62 .73 -19.41"/>
            <polygon class="cls-9" points="-1.94 5.65 -5.15 2.73 .29 -3.23 3.49 -.3 -1.94 5.65"/>
          </g>
          <g>
            <path class="cls-13" d="M227.26-29.37c-3.16,0-5.9,2.55-5.91,5.71l-.02,10.5c0,1.57-.86,2.29-2.43,2.29h-5.74s.03-16.17.03-16.17c.01-7.61-5.97-13.8-13.59-13.81-7.61-.01-13.62,6.15-13.63,13.77l-.07,42.47h-4.43c-1.57,0-2.83-1.57-2.83-3.14l.04-21.66c0-3.16-2.73-5.72-5.89-5.73-3.16,0-5.9,2.55-5.91,5.71l-.04,21.66c-.01,7.88,6.73,14.93,14.6,14.95h4.43s-.02,13.62-.02,13.62l27.22.04.07-39.93h5.74c7.88.02,14.23-6.18,14.24-14.06l.02-10.5c0-3.16-2.73-5.72-5.89-5.73Z"/>
            <polygon class="cls-9" points="200.65 30.48 194.69 25.05 197.61 21.84 203.57 27.27 200.65 30.48"/>
            <polygon class="cls-9" points="200.73 -19.41 194.77 -24.85 197.7 -28.05 203.65 -22.62 200.73 -19.41"/>
            <polygon class="cls-9" points="198.06 5.65 194.85 2.73 200.29 -3.23 203.49 -.3 198.06 5.65"/>
          </g>
          <g>
            <path class="cls-2" d="M65.46-4.65l-2.27-3.79,27.18-16.31c4.31-2.59,9.98-1.22,12.65,3.04l-3.75,2.34c-1.4-2.23-4.37-2.95-6.63-1.59l-27.18,16.31Z"/>
            <path class="cls-2" d="M91.06,2.71l-3.3-3.5c-.34-.36-.75-.54-1.29-.54-.49,0-.94.21-1.27.58l-3.03,3.41-3.3-2.94,3.03-3.41c1.14-1.29,2.79-2.04,4.51-2.06,1.72-.01,3.38.68,4.57,1.93l3.3,3.5-3.21,3.03Z"/>
            <circle class="cls-2" cx="70.58" cy=".82" r="12.15"/>
            <path d="M78.59.39c.24,4.42-3.16,8.2-7.58,8.44-4.42.24-8.2-3.16-8.44-7.58-.24-4.42,3.16-8.2,7.58-8.44,4.42-.24,8.2,3.16,8.44,7.58Z"/>
            <circle class="cls-2" cx="102.98" cy=".82" r="12.15"/>
            <path d="M110.99.39c.24,4.42-3.16,8.2-7.58,8.44-4.42.24-8.2-3.16-8.44-7.58-.24-4.42,3.16-8.2,7.58-8.44s8.2,3.16,8.44,7.58Z"/>
            <path class="cls-2" d="M110.75-4.65l-2.27-3.79,27.18-16.31c4.31-2.59,9.99-1.22,12.65,3.04l-3.75,2.34c-1.4-2.24-4.37-2.95-6.63-1.59l-27.18,16.31Z"/>
          </g>
          <g>
            <path class="cls-13" d="M27.26,170.63c-3.16,0-5.9,2.55-5.91,5.71l-.02,10.5c0,1.57-.86,2.29-2.43,2.29h-5.74s.03-16.17.03-16.17c.01-7.61-5.97-13.8-13.59-13.81-7.61-.01-13.62,6.15-13.63,13.77l-.07,42.47h-4.43c-1.57,0-2.83-1.57-2.83-3.14l.04-21.66c0-3.16-2.73-5.72-5.89-5.73-3.16,0-5.9,2.55-5.91,5.71l-.04,21.66c-.01,7.88,6.73,14.93,14.6,14.95h4.43s-.02,13.62-.02,13.62l27.22.04.07-39.93h5.74c7.88.02,14.23-6.18,14.24-14.06l.02-10.5c0-3.16-2.73-5.72-5.89-5.73Z"/>
            <polygon class="cls-9" points=".65 230.48 -5.31 225.05 -2.39 221.84 3.57 227.27 .65 230.48"/>
            <polygon class="cls-9" points=".73 180.59 -5.23 175.15 -2.3 171.95 3.65 177.38 .73 180.59"/>
            <polygon class="cls-9" points="-1.94 205.65 -5.15 202.73 .29 196.77 3.49 199.7 -1.94 205.65"/>
          </g>
          <g>
            <path class="cls-13" d="M227.26,170.63c-3.16,0-5.9,2.55-5.91,5.71l-.02,10.5c0,1.57-.86,2.29-2.43,2.29h-5.74s.03-16.17.03-16.17c.01-7.61-5.97-13.8-13.59-13.81-7.61-.01-13.62,6.15-13.63,13.77l-.07,42.47h-4.43c-1.57,0-2.83-1.57-2.83-3.14l.04-21.66c0-3.16-2.73-5.72-5.89-5.73-3.16,0-5.9,2.55-5.91,5.71l-.04,21.66c-.01,7.88,6.73,14.93,14.6,14.95h4.43s-.02,13.62-.02,13.62l27.22.04.07-39.93h5.74c7.88.02,14.23-6.18,14.24-14.06l.02-10.5c0-3.16-2.73-5.72-5.89-5.73Z"/>
            <polygon class="cls-9" points="200.65 230.48 194.69 225.05 197.61 221.84 203.57 227.27 200.65 230.48"/>
            <polygon class="cls-9" points="200.73 180.59 194.77 175.15 197.7 171.95 203.65 177.38 200.73 180.59"/>
            <polygon class="cls-9" points="198.06 205.65 194.85 202.73 200.29 196.77 203.49 199.7 198.06 205.65"/>
          </g>
          <g>
            <path class="cls-2" d="M65.46,195.35l-2.27-3.79,27.18-16.31c4.31-2.59,9.98-1.22,12.65,3.04l-3.75,2.34c-1.4-2.23-4.37-2.95-6.63-1.59l-27.18,16.31Z"/>
            <path class="cls-2" d="M91.06,202.71l-3.3-3.5c-.34-.36-.75-.54-1.29-.54-.49,0-.94.21-1.27.58l-3.03,3.41-3.3-2.94,3.03-3.41c1.14-1.29,2.79-2.04,4.51-2.06,1.72-.01,3.38.68,4.57,1.93l3.3,3.5-3.21,3.03Z"/>
            <circle class="cls-2" cx="70.58" cy="200.82" r="12.15"/>
            <path d="M78.59,200.39c.24,4.42-3.16,8.2-7.58,8.44-4.42.24-8.2-3.16-8.44-7.58-.24-4.42,3.16-8.2,7.58-8.44,4.42-.24,8.2,3.16,8.44,7.58Z"/>
            <circle class="cls-2" cx="102.98" cy="200.82" r="12.15"/>
            <path d="M110.99,200.39c.24,4.42-3.16,8.2-7.58,8.44-4.42.24-8.2-3.16-8.44-7.58-.24-4.42,3.16-8.2,7.58-8.44s8.2,3.16,8.44,7.58Z"/>
            <path class="cls-2" d="M110.75,195.35l-2.27-3.79,27.18-16.31c4.31-2.59,9.99-1.22,12.65,3.04l-3.75,2.34c-1.4-2.24-4.37-2.95-6.63-1.59l-27.18,16.31Z"/>
          </g>
          <g>
            <path class="cls-13" d="M59.17,133.26c13.47-13.47,13.47-35.32,0-48.79-13.47-13.47-35.32-13.47-48.79,0l48.79,48.79Z"/>
            <path class="cls-8" d="M55.99,130.07c11.72-11.72,11.72-30.71,0-42.43-11.72-11.72-30.71-11.72-42.43,0l42.43,42.43Z"/>
            <g>
              <path class="cls-11" d="M52.81,126.89c9.96-9.96,9.96-26.1,0-36.06s-26.1-9.96-36.06,0l36.06,36.06Z"/>
              <g class="cls-6">
                <g>
                  <g>
                    <path d="M45.93,140.37c1.51-1.51,3.95-1.51,5.45,0s1.51,3.95,0,5.45c-1.51,1.51-3.95,1.51-5.45,0s-1.51-3.95,0-5.45Z"/>
                    <path d="M31.94,126.38c1.51-1.51,3.95-1.51,5.45,0,1.51,1.51,1.51,3.95,0,5.45s-3.95,1.51-5.45,0-1.51-3.95,0-5.45Z"/>
                    <path d="M17.95,112.39c1.51-1.51,3.95-1.51,5.45,0,1.51,1.51,1.51,3.95,0,5.45s-3.95,1.51-5.45,0-1.51-3.95,0-5.45Z"/>
                    <path d="M3.96,98.4c1.51-1.51,3.95-1.51,5.45,0s1.51,3.95,0,5.45c-1.51,1.51-3.95,1.51-5.45,0s-1.51-3.95,0-5.45Z"/>
                    <path d="M-10.03,84.41c1.51-1.51,3.95-1.51,5.45,0,1.51,1.51,1.51,3.95,0,5.45-1.51,1.51-3.95,1.51-5.45,0s-1.51-3.95,0-5.45Z"/>
                  </g>
                  <g>
                    <path d="M49.83,122.48c1.51-1.51,3.95-1.51,5.45,0,1.51,1.51,1.51,3.95,0,5.45-1.51,1.51-3.95,1.51-5.45,0-1.51-1.51-1.51-3.95,0-5.45Z"/>
                    <path d="M35.84,108.49c1.51-1.51,3.95-1.51,5.45,0,1.51,1.51,1.51,3.95,0,5.45s-3.95,1.51-5.45,0c-1.51-1.51-1.51-3.95,0-5.45Z"/>
                    <path d="M21.85,94.5c1.51-1.51,3.95-1.51,5.45,0s1.51,3.95,0,5.45-3.95,1.51-5.45,0-1.51-3.95,0-5.45Z"/>
                    <path d="M7.86,80.51c1.51-1.51,3.95-1.51,5.45,0,1.51,1.51,1.51,3.95,0,5.45-1.51,1.51-3.95,1.51-5.45,0-1.51-1.51-1.51-3.95,0-5.45Z"/>
                  </g>
                  <g>
                    <path d="M68.82,117.48c1.51-1.51,3.95-1.51,5.45,0,1.51,1.51,1.51,3.95,0,5.45-1.51,1.51-3.95,1.51-5.45,0-1.51-1.51-1.51-3.95,0-5.45Z"/>
                    <path d="M54.83,103.49c1.51-1.51,3.95-1.51,5.45,0s1.51,3.95,0,5.45c-1.51,1.51-3.95,1.51-5.45,0-1.51-1.51-1.51-3.95,0-5.45Z"/>
                    <path d="M40.84,89.5c1.51-1.51,3.95-1.51,5.45,0s1.51,3.95,0,5.45c-1.51,1.51-3.95,1.51-5.45,0-1.51-1.51-1.51-3.95,0-5.45Z"/>
                    <path d="M26.85,75.51c1.51-1.51,3.95-1.51,5.45,0s1.51,3.95,0,5.45c-1.51,1.51-3.95,1.51-5.45,0-1.51-1.51-1.51-3.95,0-5.45Z"/>
                    <path d="M12.86,61.52c1.51-1.51,3.95-1.51,5.45,0,1.51,1.51,1.51,3.95,0,5.45s-3.95,1.5-5.45,0c-1.51-1.51-1.51-3.95,0-5.45Z"/>
                  </g>
                  <g>
                    <path d="M72.73,99.58c1.51-1.51,3.95-1.51,5.45,0,1.51,1.51,1.51,3.95,0,5.45s-3.95,1.51-5.45,0-1.51-3.95,0-5.45Z"/>
                    <path d="M58.74,85.59c1.51-1.51,3.95-1.51,5.45,0,1.51,1.51,1.51,3.95,0,5.45s-3.95,1.51-5.45,0-1.51-3.95,0-5.45Z"/>
                    <path d="M44.75,71.6c1.51-1.51,3.95-1.51,5.45,0s1.51,3.95,0,5.45c-1.51,1.51-3.95,1.51-5.45,0-1.51-1.51-1.51-3.95,0-5.45Z"/>
                    <path d="M30.76,57.61c1.51-1.51,3.95-1.51,5.45,0,1.51,1.51,1.51,3.95,0,5.45-1.51,1.51-3.95,1.51-5.45,0-1.51-1.51-1.51-3.95,0-5.45Z"/>
                  </g>
                </g>
              </g>
            </g>
          </g>
          <g>
            <polygon class="cls-9" points="176.16 98.73 167.67 106.69 169.86 118.13 158.3 119.57 153.36 130.12 143.16 124.49 132.96 130.12 128.02 119.57 116.47 118.13 118.66 106.69 110.16 98.73 118.66 90.76 116.47 79.33 128.02 77.88 132.96 67.34 143.16 72.97 153.36 67.34 158.3 77.88 169.86 79.33 167.67 90.76 176.16 98.73"/>
            <circle class="cls-2" cx="143.16" cy="98.73" r="17.76"/>
          </g>
        </g>
      </g>
    </pattern>
  </defs>
  <g id="PATTERN">
    <rect class="cls-10" width="125.86" height="500"/>
  </g>
</svg>