<?xml version="1.0" encoding="UTF-8"?>
<svg id="Layer_2" data-name="Layer 2" xmlns="http://www.w3.org/2000/svg" xmlns:xlink="http://www.w3.org/1999/xlink" viewBox="0 0 166.67 500">
  <defs>
    <style>
      .cls-1 {
        fill: none;
      }

      .cls-2 {
        fill: #ffc715;
      }

      .cls-3 {
        fill: url(#Unnamed_Pattern_5);
      }

      .cls-4 {
        fill: #fff;
      }

      .cls-5 {
        fill: #ffe6ae;
      }

      .cls-6 {
        fill: #f4e634;
      }

      .cls-7 {
        fill: #ce66d1;
      }

      .cls-8 {
        fill: #9eefe4;
      }
    </style>
    <pattern id="Unnamed_Pattern_5" data-name="Unnamed Pattern 5" x="0" y="0" width="93.77" height="93.74" patternTransform="translate(-385.7 -13.83)" patternUnits="userSpaceOnUse" viewBox="0 0 93.77 93.74">
      <g>
        <rect class="cls-1" x="0" y="0" width="93.77" height="93.74"/>
        <rect class="cls-4" x=".03" y="0" width="93.74" height="93.74"/>
        <path class="cls-6" d="M31.42,12.7c0-2.83-2.3-5.14-5.13-5.14s-5.14,2.3-5.14,5.14,2.3,5.14,5.14,5.14,5.13-2.3,5.13-5.14ZM29.08,12.7c0,1.54-1.25,2.8-2.8,2.8s-2.8-1.25-2.8-2.8,1.25-2.8,2.8-2.8,2.8,1.25,2.8,2.8Z"/>
        <g>
          <polygon class="cls-7" points="5.08 18.78 5.08 23.78 .03 23.77 .03 33.12 .99 33.12 .99 26.11 7.42 26.11 7.42 18.78 5.08 18.78"/>
          <polygon class="cls-7" points="92.38 23.77 92.38 30.78 86.32 30.78 86.32 38.15 88.66 38.15 88.66 33.12 93.77 33.12 93.77 23.77 92.38 23.77"/>
        </g>
        <polygon class="cls-7" points="54.19 87.24 51.85 87.24 51.85 79.87 57.91 79.87 57.91 72.86 64.35 72.86 64.35 67.86 66.69 67.86 66.69 75.2 60.25 75.2 60.25 82.21 54.19 82.21 54.19 87.24"/>
        <g>
          <path class="cls-6" d="M93.74,69.12c-1.54,0-2.8-1.25-2.8-2.8s1.25-2.8,2.8-2.8h0v-2.34h0c-2.83,0-5.14,2.3-5.14,5.14s2.3,5.14,5.14,5.14h0v-2.34h0Z"/>
          <path class="cls-6" d="M5.14,66.33c0-2.83-2.3-5.13-5.14-5.14v2.34c1.54,0,2.8,1.25,2.8,2.8s-1.25,2.8-2.8,2.8v2.34c2.83,0,5.14-2.3,5.14-5.14Z"/>
        </g>
        <g>
          <path class="cls-2" d="M66.18,37.06l-3.36,11.18-4.36,5.91c-3.05,3.41-8.04,8.98-11.08,12.39l-8.03,8.97c-3.05,3.41-5.88,2.47-6.3-2.09l-1.09-11.98c-.42-4.55-1.1-12-1.51-16.55l-.56-6.11,4.08-12.37,32.2,10.65Z"/>
          <g>
            <path class="cls-5" d="M37.68,67.57c-.76-1.3-1.36-2.42-1.65-3.1.49.6,1.24,1.66,2.05,2.94.61-.25,1.24-.52,1.9-.78,2.87-1.15,5.42-2.08,6.82-2.5-1.28.66-3.74,1.74-6.61,2.9-.65.26-1.28.51-1.89.75.12.18.23.37.35.56,1.04,1.69,1.86,3.21,2.22,4.05-.61-.74-1.59-2.17-2.63-3.86-.12-.2-.24-.4-.36-.6-1.89.73-3.5,1.29-4.51,1.6.92-.47,2.45-1.17,4.31-1.95Z"/>
            <path class="cls-5" d="M36.5,43.48c-1.42.53-2.62.96-3.51,1.25.83-.39,1.98-.91,3.36-1.51-.28-.49-.52-.94-.73-1.32.25.36.54.79.86,1.27,1.79-.77,3.95-1.67,6.29-2.61,4.23-1.7,7.96-3.1,10-3.78-1.91.91-5.56,2.47-9.79,4.17-2.33.94-4.51,1.78-6.34,2.47,1.27,1.92,3,4.63,4.87,7.68,1.89-.78,3.96-1.63,6.15-2.51.39-.16.78-.31,1.16-.46-1.85-3.05-3.37-5.7-4.15-7.2,1,1.4,2.69,3.99,4.57,7.04,2.38-.95,4.61-1.83,6.59-2.59-.96-1.59-1.72-2.99-2.07-3.8.58.7,1.5,2.04,2.49,3.64,2.25-.86,4.14-1.57,5.49-2.04-1.29.59-3.12,1.38-5.33,2.31,1.02,1.68,1.84,3.17,2.2,4.01-.6-.73-1.58-2.16-2.61-3.84-1.94.81-4.15,1.72-6.52,2.69.08.13.16.27.25.4,1.23,2.01,2.34,3.88,3.22,5.42.71-.26,1.33-.47,1.84-.64-.48.23-1.07.5-1.75.8.55.98,1.01,1.81,1.34,2.44-.42-.59-.96-1.38-1.58-2.33-1.92.85-4.52,1.94-7.4,3.11.99,1.69,1.8,3.11,2.33,4.12-.66-.95-1.57-2.33-2.64-4-.03.01-.06.02-.09.04-2.33.94-4.51,1.78-6.34,2.47.94,1.6,1.69,2.95,2.12,3.83-.6-.81-1.48-2.11-2.49-3.69-1.32.49-2.45.89-3.29,1.17.78-.37,1.85-.86,3.13-1.41-.45-.71-.93-1.48-1.42-2.28-.81-1.32-1.55-2.57-2.17-3.65-.26.09-.51.18-.74.26.22-.1.46-.21.71-.32-.63-1.1-1.13-2.03-1.46-2.69.45.6,1.06,1.49,1.76,2.55,1.61-.71,3.77-1.64,6.29-2.68-1.86-3.05-3.49-5.8-4.61-7.79ZM52.68,54.26c-.97-1.48-2.13-3.32-3.36-5.32-.09-.14-.17-.29-.26-.43-.39.16-.78.32-1.18.47-2.18.88-4.26,1.7-6.16,2.44.05.08.11.17.16.26,1.21,1.97,2.32,3.84,3.28,5.47,2.89-1.16,5.52-2.17,7.52-2.89ZM34.87,54.03c.68,1.05,1.46,2.26,2.26,3.58.49.8.96,1.57,1.38,2.3,1.79-.77,3.95-1.67,6.28-2.61.02,0,.04-.01.06-.02-1.02-1.6-2.17-3.44-3.37-5.4-.06-.09-.12-.19-.17-.28-2.55.99-4.77,1.83-6.44,2.43Z"/>
          </g>
          <path class="cls-8" d="M44.66,48.92c-2.41-.8-3.72-3.4-2.92-5.8l.83-2.52c.37-1.11-.24-2.31-1.34-2.67-1.11-.37-2.3.24-2.67,1.34l-1.43,4.34c-.8,2.41-3.4,3.71-5.81,2.92-2.41-.8-3.72-3.4-2.92-5.81l4.08-12.33c3.12-9.43,13.33-14.56,22.76-11.44,9.43,3.12,14.56,13.33,11.44,22.76l-3.77,11.4c-.8,2.41-3.4,3.71-5.81,2.92-2.41-.79-3.72-3.4-2.92-5.81l.81-2.45c.37-1.11-.24-2.31-1.34-2.67-1.11-.37-2.31.24-2.67,1.34l-.52,1.56c-.8,2.4-3.4,3.71-5.81,2.92Z"/>
          <path class="cls-4" d="M63.26,31.87c-1.36,1.15-4.25-.02-6.46-2.63-2.2-2.6-2.89-5.65-1.52-6.8,1.36-1.16,4.25.02,6.46,2.62,2.21,2.6,2.89,5.65,1.52,6.8Z"/>
        </g>
      </g>
    </pattern>
  </defs>
  <g id="PATTERN">
    <rect class="cls-3" width="166.67" height="500"/>
  </g>
</svg>